<svg xmlns="http://www.w3.org/2000/svg" viewBox="0 0 720 380" font-family="-apple-system, Segoe UI, Helvetica, Arial, sans-serif" font-size="12">
<rect x="0" y="0" width="720" height="380" fill="#fafaf7"/>
<text x="360.0" y="22" text-anchor="middle" font-size="14" font-weight="600">Florida (2018): Firearm homicide rate (per 100k)</text>
<polyline points="60.0,263.5 96.5,270.2 132.9,289.1 169.4,286.0 205.9,262.9 242.4,283.4 278.8,287.4 315.3,284.0 351.8,280.6 388.2,244.1 424.7,239.2 461.2,237.3 497.6,252.7 534.1,227.6 570.6,269.8 607.1,263.0 643.5,245.4 680.0,235.2" fill="none" stroke="#bbb" stroke-width="0.6" opacity="0.6"/>
<polyline points="60.0,224.1 96.5,212.2 132.9,220.9 169.4,230.6 205.9,241.1 242.4,239.0 278.8,235.6 315.3,232.9 351.8,239.8 388.2,213.7 424.7,197.1 461.2,183.7 497.6,194.1 534.1,189.7 570.6,169.8 607.1,151.6 643.5,159.1 680.0,158.1" fill="none" stroke="#bbb" stroke-width="0.6" opacity="0.6"/>
<polyline points="60.0,246.3 96.5,247.8 132.9,251.9 169.4,247.4 205.9,259.0 242.4,253.8 278.8,244.8 315.3,251.2 351.8,247.4 388.2,250.3 424.7,238.9 461.2,235.0 497.6,234.4 534.1,228.6 570.6,197.5 607.1,197.8 643.5,194.8 680.0,206.2" fill="none" stroke="#bbb" stroke-width="0.6" opacity="0.6"/>
<polyline points="60.0,236.5 96.5,245.4 132.9,251.4 169.4,272.8 205.9,262.7 242.4,265.9 278.8,267.4 315.3,268.5 351.8,276.7 388.2,272.8 424.7,261.0 461.2,261.5 497.6,264.7 534.1,266.9 570.6,251.0 607.1,241.2 643.5,231.8 680.0,246.7" fill="none" stroke="#bbb" stroke-width="0.6" opacity="0.6"/>
<polyline points="60.0,249.2 96.5,242.2 132.9,248.9 169.4,257.6 205.9,258.4 242.4,259.7 278.8,254.9 315.3,256.5 351.8,252.8 388.2,243.7 424.7,235.8 461.2,235.1 497.6,238.5 534.1,233.5 570.6,209.3 607.1,195.5 643.5,195.7 680.0,213.5" fill="none" stroke="#bbb" stroke-width="0.6" opacity="0.6"/>
<polyline points="60.0,296.2 96.5,292.4 132.9,306.3 169.4,308.9 205.9,307.4 242.4,304.3 278.8,302.8 315.3,306.1 351.8,300.7 388.2,300.2 424.7,305.8 461.2,297.0 497.6,294.5 534.1,304.3 570.6,299.0 607.1,298.4 643.5,292.1 680.0,295.7" fill="none" stroke="#bbb" stroke-width="0.6" opacity="0.6"/>
<polyline points="60.0,254.6 96.5,259.7 132.9,254.3 169.4,254.7 205.9,259.4 242.4,256.3 278.8,252.8 315.3,259.7 351.8,255.9 388.2,248.0 424.7,222.4 461.2,223.4 497.6,238.1 534.1,236.9 570.6,198.0 607.1,186.4 643.5,206.0 680.0,219.4" fill="none" stroke="#bbb" stroke-width="0.6" opacity="0.6"/>
<polyline points="60.0,263.5 96.5,266.4 132.9,269.9 169.4,268.2 205.9,273.0 242.4,277.4 278.8,267.9 315.3,258.9 351.8,266.8 388.2,260.1 424.7,245.9 461.2,245.7 497.6,247.3 534.1,249.4 570.6,222.8 607.1,219.7 643.5,229.3 680.0,235.7" fill="none" stroke="#bbb" stroke-width="0.6" opacity="0.6"/>
<polyline points="60.0,283.3 96.5,284.4 132.9,281.9 169.4,275.3 205.9,286.6 242.4,281.0 278.8,287.4 315.3,282.1 351.8,284.9 388.2,275.3 424.7,267.3 461.2,256.8 497.6,262.9 534.1,273.5 570.6,246.6 607.1,253.8 643.5,261.6 680.0,256.7" fill="none" stroke="#bbb" stroke-width="0.6" opacity="0.6"/>
<polyline points="60.0,283.3 96.5,271.2 132.9,269.0 169.4,277.6 205.9,280.2 242.4,278.1 278.8,270.6 315.3,276.9 351.8,277.0 388.2,266.7 424.7,249.4 461.2,251.4 497.6,257.7 534.1,259.4 570.6,219.3 607.1,213.4 643.5,236.7 680.0,243.8" fill="none" stroke="#bbb" stroke-width="0.6" opacity="0.6"/>
<polyline points="60.0,184.3 96.5,171.0 132.9,191.8 169.4,188.7 205.9,194.7 242.4,196.0 278.8,197.6 315.3,193.2 351.8,200.8 388.2,191.6 424.7,172.7 461.2,170.6 497.6,180.0 534.1,167.2 570.6,110.3 607.1,93.7 643.5,110.0 680.0,110.3" fill="none" stroke="#bbb" stroke-width="0.6" opacity="0.6"/>
<polyline points="60.0,302.7 96.5,302.6 132.9,305.5 169.4,302.6 205.9,304.7 242.4,302.7 278.8,302.8 315.3,304.7 351.8,307.6 388.2,303.7 424.7,309.5 461.2,307.6 497.6,308.6 534.1,304.8 570.6,303.0 607.1,306.1 643.5,299.7 680.0,284.2" fill="none" stroke="#bbb" stroke-width="0.6" opacity="0.6"/>
<polyline points="60.0,249.0 96.5,252.6 132.9,254.4 169.4,253.4 205.9,260.0 242.4,250.7 278.8,241.9 315.3,253.2 351.8,263.9 388.2,260.7 424.7,254.8 461.2,260.7 497.6,255.6 534.1,258.3 570.6,230.5 607.1,227.4 643.5,235.3 680.0,251.2" fill="none" stroke="#bbb" stroke-width="0.6" opacity="0.6"/>
<polyline points="60.0,297.8 96.5,299.9 132.9,299.8 169.4,306.0 205.9,301.5 242.4,303.1 278.8,302.7 315.3,299.2 351.8,303.4 388.2,295.7 424.7,297.9 461.2,299.3 497.6,302.1 534.1,294.0 570.6,285.9 607.1,280.4 643.5,285.1 680.0,288.6" fill="none" stroke="#bbb" stroke-width="0.6" opacity="0.6"/>
<polyline points="60.0,219.1 96.5,220.7 132.9,210.0 169.4,231.4 205.9,228.4 242.4,221.8 278.8,224.2 315.3,224.8 351.8,206.0 388.2,203.7 424.7,195.9 461.2,190.1 497.6,179.4 534.1,159.0 570.6,100.8 607.1,62.7 643.5,93.8 680.0,101.7" fill="none" stroke="#bbb" stroke-width="0.6" opacity="0.6"/>
<polyline points="60.0,302.3 96.5,297.1 132.9,296.0 169.4,289.6 205.9,295.2 242.4,303.1 278.8,304.5 315.3,299.5 351.8,299.7 388.2,292.4 424.7,295.1 461.2,291.5 497.6,293.0 534.1,288.4 570.6,278.0 607.1,282.4 643.5,272.5 680.0,283.1" fill="none" stroke="#bbb" stroke-width="0.6" opacity="0.6"/>
<polyline points="60.0,253.5 96.5,252.2 132.9,252.1 169.4,261.4 205.9,266.5 242.4,266.6 278.8,261.6 315.3,263.4 351.8,266.7 388.2,261.2 424.7,246.5 461.2,251.9 497.6,256.7 534.1,250.9 570.6,227.0 607.1,213.7 643.5,223.4 680.0,231.3" fill="none" stroke="#bbb" stroke-width="0.6" opacity="0.6"/>
<polyline points="60.0,315.2 96.5,307.2 132.9,317.3 169.4,307.3 205.9,302.0 242.4,302.2 278.8,302.6 315.3,306.6 351.8,306.8 388.2,298.6 424.7,300.3 461.2,303.6 497.6,295.3 534.1,300.4 570.6,288.7 607.1,284.2 643.5,289.3 680.0,289.5" fill="none" stroke="#bbb" stroke-width="0.6" opacity="0.6"/>
<polyline points="60.0,269.2 96.5,266.3 132.9,261.5 169.4,258.4 205.9,269.8 242.4,272.2 278.8,267.9 315.3,266.7 351.8,270.4 388.2,261.1 424.7,247.4 461.2,255.0 497.6,233.8 534.1,220.3 570.6,226.2 607.1,177.5 643.5,184.6 680.0,185.0" fill="none" stroke="#bbb" stroke-width="0.6" opacity="0.6"/>
<polyline points="60.0,249.7 96.5,251.6 132.9,267.8 169.4,270.0 205.9,274.4 242.4,277.6 278.8,281.4 315.3,276.7 351.8,269.2 388.2,260.3 424.7,252.1 461.2,251.6 497.6,250.3 534.1,268.0 570.6,256.6 607.1,235.9 643.5,244.3 680.0,243.2" fill="none" stroke="#bbb" stroke-width="0.6" opacity="0.6"/>
<polyline points="60.0,262.6 96.5,263.6 132.9,265.3 169.4,265.6 205.9,272.3 242.4,260.9 278.8,253.9 315.3,257.8 351.8,265.2 388.2,244.6 424.7,239.2 461.2,242.6 497.6,256.9 534.1,237.3 570.6,230.3 607.1,234.4 643.5,240.6 680.0,247.3" fill="none" stroke="#bbb" stroke-width="0.6" opacity="0.6"/>
<polyline points="60.0,295.4 96.5,302.5 132.9,300.6 169.4,298.8 205.9,297.1 242.4,296.7 278.8,299.8 315.3,299.6 351.8,300.1 388.2,287.3 424.7,292.8 461.2,294.6 497.6,296.7 534.1,293.5 570.6,284.2 607.1,273.1 643.5,270.3 680.0,276.7" fill="none" stroke="#bbb" stroke-width="0.6" opacity="0.6"/>
<polyline points="60.0,255.9 96.5,259.9 132.9,263.1 169.4,268.0 205.9,266.5 242.4,265.6 278.8,262.1 315.3,268.3 351.8,270.4 388.2,264.8 424.7,263.1 461.2,256.8 497.6,258.9 534.1,262.2 570.6,238.0 607.1,232.1 643.5,234.6 680.0,248.8" fill="none" stroke="#bbb" stroke-width="0.6" opacity="0.6"/>
<polyline points="60.0,312.3 96.5,309.2 132.9,301.3 169.4,301.4 205.9,312.5 242.4,307.9 278.8,308.0 315.3,311.2 351.8,305.2 388.2,294.8 424.7,296.5 461.2,301.0 497.6,293.9 534.1,301.3 570.6,279.8 607.1,281.4 643.5,279.1 680.0,301.9" fill="none" stroke="#bbb" stroke-width="0.6" opacity="0.6"/>
<polyline points="60.0,247.0 96.5,245.6 132.9,247.7 169.4,246.4 205.9,257.9 242.4,255.2 278.8,252.1 315.3,256.1 351.8,255.4 388.2,246.5 424.7,233.3 461.2,227.8 497.6,221.5 534.1,228.0 570.6,195.4 607.1,185.4 643.5,206.3 680.0,197.2" fill="none" stroke="#bbb" stroke-width="0.6" opacity="0.6"/>
<polyline points="60.0,260.7 96.5,261.9 132.9,264.1 169.4,265.2 205.9,270.6 242.4,276.6 278.8,273.1 315.3,272.9 351.8,271.2 388.2,265.3 424.7,260.8 461.2,260.3 497.6,265.9 534.1,259.6 570.6,241.3 607.1,232.8 643.5,239.2 680.0,245.8" fill="none" stroke="#bbb" stroke-width="0.6" opacity="0.6"/>
<polyline points="60.0,302.6 96.5,297.8 132.9,306.0 169.4,303.4 205.9,304.7 242.4,304.9 278.8,304.7 315.3,302.6 351.8,301.5 388.2,299.7 424.7,297.0 461.2,295.3 497.6,303.4 534.1,296.8 570.6,287.6 607.1,290.3 643.5,299.1 680.0,294.5" fill="none" stroke="#bbb" stroke-width="0.6" opacity="0.6"/>
<polyline points="60.0,269.5 96.5,265.9 132.9,275.7 169.4,272.9 205.9,273.7 242.4,280.6 278.8,282.1 315.3,281.0 351.8,281.0 388.2,274.9 424.7,263.3 461.2,264.9 497.6,266.8 534.1,265.7 570.6,251.4 607.1,242.2 643.5,234.9 680.0,247.3" fill="none" stroke="#bbb" stroke-width="0.6" opacity="0.6"/>
<polyline points="60.0,291.8 96.5,287.0 132.9,298.8 169.4,293.8 205.9,293.3 242.4,297.9 278.8,289.0 315.3,291.5 351.8,290.2 388.2,278.3 424.7,275.4 461.2,282.0 497.6,283.4 534.1,283.5 570.6,261.5 607.1,253.8 643.5,256.9 680.0,266.1" fill="none" stroke="#bbb" stroke-width="0.6" opacity="0.6"/>
<polyline points="60.0,256.5 96.5,255.0 132.9,258.3 169.4,260.6 205.9,265.2 242.4,262.3 278.8,259.7 315.3,262.7 351.8,266.7 388.2,261.2 424.7,254.5 461.2,256.4 497.6,257.0 534.1,253.6 570.6,227.7 607.1,220.5 643.5,226.1 680.0,231.2" fill="none" stroke="#1f3a5f" stroke-width="2" stroke-dasharray="6 4"/>
<polyline points="60.0,260.2 96.5,251.4 132.9,255.1 169.4,261.5 205.9,264.8 242.4,262.1 278.8,259.9 315.3,263.6 351.8,264.4 388.2,261.4 424.7,255.3 461.2,259.2 497.6,258.2 534.1,256.6 570.6,244.6 607.1,249.5 643.5,250.0 680.0,257.5" fill="none" stroke="#b9461a" stroke-width="2.4"/>
<line x1="479.4" y1="50" x2="479.4" y2="330" stroke="#1f2024" stroke-width="0.8" stroke-dasharray="4 3"/>
<text x="479.4" y="45" text-anchor="middle" fill="#1f2024" font-size="10">adoption (2018)</text>
<line x1="60" y1="330" x2="680" y2="330" stroke="#444"/>
<line x1="60" y1="50" x2="60" y2="330" stroke="#444"/>
<line x1="60.0" y1="330" x2="60.0" y2="334" stroke="#444"/>
<text x="60.0" y="348" text-anchor="middle" fill="#444">2006</text>
<line x1="132.9" y1="330" x2="132.9" y2="334" stroke="#444"/>
<text x="132.9" y="348" text-anchor="middle" fill="#444">2008</text>
<line x1="205.9" y1="330" x2="205.9" y2="334" stroke="#444"/>
<text x="205.9" y="348" text-anchor="middle" fill="#444">2010</text>
<line x1="278.8" y1="330" x2="278.8" y2="334" stroke="#444"/>
<text x="278.8" y="348" text-anchor="middle" fill="#444">2012</text>
<line x1="351.8" y1="330" x2="351.8" y2="334" stroke="#444"/>
<text x="351.8" y="348" text-anchor="middle" fill="#444">2014</text>
<line x1="424.7" y1="330" x2="424.7" y2="334" stroke="#444"/>
<text x="424.7" y="348" text-anchor="middle" fill="#444">2016</text>
<line x1="497.6" y1="330" x2="497.6" y2="334" stroke="#444"/>
<text x="497.6" y="348" text-anchor="middle" fill="#444">2018</text>
<line x1="570.6" y1="330" x2="570.6" y2="334" stroke="#444"/>
<text x="570.6" y="348" text-anchor="middle" fill="#444">2020</text>
<line x1="643.5" y1="330" x2="643.5" y2="334" stroke="#444"/>
<text x="643.5" y="348" text-anchor="middle" fill="#444">2022</text>
<line x1="56" y1="330.0" x2="60" y2="330.0" stroke="#444"/>
<text x="53" y="333.0" text-anchor="end" fill="#444">-0.99</text>
<line x1="56" y1="260.0" x2="60" y2="260.0" stroke="#444"/>
<text x="53" y="263.0" text-anchor="end" fill="#444">4.5</text>
<line x1="56" y1="190.0" x2="60" y2="190.0" stroke="#444"/>
<text x="53" y="193.0" text-anchor="end" fill="#444">9.9</text>
<line x1="56" y1="120.0" x2="60" y2="120.0" stroke="#444"/>
<text x="53" y="123.0" text-anchor="end" fill="#444">15</text>
<line x1="56" y1="50.0" x2="60" y2="50.0" stroke="#444"/>
<text x="53" y="53.0" text-anchor="end" fill="#444">21</text>
<rect x="520" y="60" width="190" height="60" fill="white" stroke="#e2e2dc"/>
<line x1="530" y1="75" x2="560" y2="75" stroke="#b9461a" stroke-width="2.4"/>
<text x="565" y="79" font-size="11">Florida (treated)</text>
<line x1="530" y1="95" x2="560" y2="95" stroke="#1f3a5f" stroke-width="2" stroke-dasharray="6 4"/>
<text x="565" y="99" font-size="11">Synthetic counterfactual</text>
<line x1="530" y1="112" x2="560" y2="112" stroke="#bbb" stroke-width="0.6"/>
<text x="565" y="116" font-size="10">Donor states (gray)</text>
</svg>