<svg xmlns="http://www.w3.org/2000/svg" viewBox="0 0 720 380" font-family="-apple-system, Segoe UI, Helvetica, Arial, sans-serif" font-size="12">
<rect x="0" y="0" width="720" height="380" fill="#fafaf7"/>
<text x="360.0" y="22" text-anchor="middle" font-size="14" font-weight="600">Florida (2018): Motor vehicle theft rate (per 100k) [placebo]</text>
<polyline points="60.0,236.9 96.5,242.5 132.9,271.9 169.4,270.8 205.9,274.5 242.4,283.2 278.8,279.0 315.3,273.7 351.8,272.2 388.2,262.0 424.7,228.6 461.2,188.3 497.6,196.1 534.1,242.3 570.6,264.0 607.1,270.3 643.5,269.2 680.0,263.8" fill="none" stroke="#bbb" stroke-width="0.6" opacity="0.6"/>
<polyline points="60.0,249.8 96.5,254.5 132.9,259.1 169.4,272.3 205.9,274.9 242.4,275.7 278.8,279.9 315.3,276.5 351.8,278.8 388.2,277.9 424.7,271.0 461.2,265.6 497.6,263.4 534.1,266.6 570.6,275.7 607.1,283.1 643.5,276.2 680.0,275.9" fill="none" stroke="#bbb" stroke-width="0.6" opacity="0.6"/>
<polyline points="60.0,264.4 96.5,269.5 132.9,273.9 169.4,278.4 205.9,283.5 242.4,282.0 278.8,282.5 315.3,283.1 351.8,283.6 388.2,282.2 424.7,271.1 461.2,270.8 497.6,270.5 534.1,269.3 570.6,265.8 607.1,261.3 643.5,268.1 680.0,276.5" fill="none" stroke="#bbb" stroke-width="0.6" opacity="0.6"/>
<polyline points="60.0,103.2 96.5,134.4 132.9,183.7 169.4,231.4 205.9,246.7 242.4,254.8 278.8,258.9 315.3,267.3 351.8,266.9 388.2,269.7 424.7,264.4 461.2,263.8 497.6,264.4 534.1,269.4 570.6,270.8 607.1,270.6 643.5,268.6 680.0,257.9" fill="none" stroke="#bbb" stroke-width="0.6" opacity="0.6"/>
<polyline points="60.0,216.6 96.5,220.4 132.9,229.3 169.4,247.1 205.9,253.3 242.4,255.8 278.8,259.2 315.3,263.4 351.8,262.6 388.2,264.7 424.7,267.1 461.2,268.7 497.6,270.9 534.1,278.2 570.6,271.7 607.1,283.1 643.5,278.9 680.0,266.7" fill="none" stroke="#bbb" stroke-width="0.6" opacity="0.6"/>
<polyline points="60.0,289.5 96.5,293.2 132.9,303.7 169.4,307.1 205.9,309.7 242.4,309.8 278.8,309.2 315.3,307.0 351.8,305.2 388.2,302.6 424.7,300.0 461.2,299.7 497.6,303.0 534.1,308.4 570.6,306.7 607.1,308.2 643.5,307.7 680.0,311.5" fill="none" stroke="#bbb" stroke-width="0.6" opacity="0.6"/>
<polyline points="60.0,258.0 96.5,265.4 132.9,268.1 169.4,279.5 205.9,274.9 242.4,274.1 278.8,280.0 315.3,290.5 351.8,296.3 388.2,296.5 424.7,292.3 461.2,290.2 497.6,292.0 534.1,293.5 570.6,288.7 607.1,287.9 643.5,260.6 680.0,246.0" fill="none" stroke="#bbb" stroke-width="0.6" opacity="0.6"/>
<polyline points="60.0,246.0 96.5,254.9 132.9,262.7 169.4,277.3 205.9,279.1 242.4,274.3 278.8,279.0 315.3,277.2 351.8,278.6 388.2,280.0 424.7,276.7 461.2,275.8 497.6,274.5 534.1,280.0 570.6,274.1 607.1,278.7 643.5,281.7 680.0,272.6" fill="none" stroke="#bbb" stroke-width="0.6" opacity="0.6"/>
<polyline points="60.0,252.5 96.5,253.9 132.9,265.2 169.4,278.3 205.9,278.5 242.4,273.0 278.8,272.5 315.3,273.6 351.8,271.4 388.2,271.0 424.7,267.5 461.2,267.7 497.6,263.2 534.1,272.1 570.6,269.2 607.1,264.3 643.5,271.3 680.0,260.7" fill="none" stroke="#bbb" stroke-width="0.6" opacity="0.6"/>
<polyline points="60.0,275.5 96.5,280.0 132.9,286.2 169.4,295.6 205.9,295.1 242.4,292.6 278.8,292.6 315.3,296.5 351.8,294.9 388.2,286.6 424.7,275.1 461.2,273.1 497.6,272.6 534.1,273.7 570.6,267.1 607.1,270.0 643.5,274.9 680.0,260.1" fill="none" stroke="#bbb" stroke-width="0.6" opacity="0.6"/>
<polyline points="60.0,240.2 96.5,242.4 132.9,254.5 169.4,266.8 205.9,276.3 242.4,281.3 278.8,288.3 315.3,281.6 351.8,280.6 388.2,279.0 424.7,276.1 461.2,271.8 497.6,268.8 534.1,272.9 570.6,264.5 607.1,260.6 643.5,253.5 680.0,236.0" fill="none" stroke="#bbb" stroke-width="0.6" opacity="0.6"/>
<polyline points="60.0,305.4 96.5,306.6 132.9,308.5 169.4,311.4 205.9,312.2 242.4,310.5 278.8,312.2 315.3,313.7 351.8,315.7 388.2,315.5 424.7,316.2 461.2,315.9 497.6,316.3 534.1,317.3 570.6,314.8 607.1,314.5 643.5,312.8 680.0,310.9" fill="none" stroke="#bbb" stroke-width="0.6" opacity="0.6"/>
<polyline points="60.0,207.8 96.5,227.4 132.9,242.1 169.4,257.8 205.9,261.9 242.4,268.2 278.8,267.8 315.3,270.4 351.8,277.6 388.2,283.7 424.7,280.1 461.2,282.0 497.6,287.3 534.1,286.4 570.6,285.0 607.1,277.2 643.5,264.1 680.0,261.0" fill="none" stroke="#bbb" stroke-width="0.6" opacity="0.6"/>
<polyline points="60.0,267.0 96.5,270.4 132.9,282.3 169.4,290.5 205.9,290.6 242.4,292.9 278.8,291.7 315.3,294.3 351.8,292.7 388.2,294.6 424.7,291.6 461.2,286.2 497.6,285.9 534.1,281.2 570.6,268.7 607.1,268.4 643.5,259.0 680.0,264.6" fill="none" stroke="#bbb" stroke-width="0.6" opacity="0.6"/>
<polyline points="60.0,259.8 96.5,269.6 132.9,278.0 169.4,285.0 205.9,286.0 242.4,289.8 278.8,294.7 315.3,294.3 351.8,293.6 388.2,295.3 424.7,294.9 461.2,294.6 497.6,287.9 534.1,283.1 570.6,279.9 607.1,283.2 643.5,287.5 680.0,283.4" fill="none" stroke="#bbb" stroke-width="0.6" opacity="0.6"/>
<polyline points="60.0,279.6 96.5,277.8 132.9,285.2 169.4,289.7 205.9,291.9 242.4,294.7 278.8,288.8 315.3,284.7 351.8,280.8 388.2,272.5 424.7,264.8 461.2,269.6 497.6,264.9 534.1,274.8 570.6,269.3 607.1,262.6 643.5,274.6 680.0,283.0" fill="none" stroke="#bbb" stroke-width="0.6" opacity="0.6"/>
<polyline points="60.0,246.5 96.5,254.3 132.9,258.9 169.4,278.0 205.9,283.2 242.4,287.5 278.8,289.7 315.3,294.4 351.8,296.7 388.2,297.5 424.7,293.3 461.2,291.8 497.6,291.3 534.1,286.4 570.6,282.7 607.1,284.0 643.5,281.4 680.0,265.5" fill="none" stroke="#bbb" stroke-width="0.6" opacity="0.6"/>
<polyline points="60.0,288.3 96.5,292.6 132.9,295.5 169.4,295.7 205.9,298.6 242.4,295.0 278.8,288.9 315.3,281.6 351.8,278.9 388.2,273.9 424.7,266.6 461.2,272.9 497.6,272.1 534.1,271.0 570.6,263.5 607.1,261.3 643.5,267.0 680.0,275.8" fill="none" stroke="#bbb" stroke-width="0.6" opacity="0.6"/>
<polyline points="60.0,302.7 96.5,304.1 132.9,304.2 169.4,309.6 205.9,311.9 242.4,309.7 278.8,310.7 315.3,313.1 351.8,314.7 388.2,314.0 424.7,314.3 461.2,314.0 497.6,314.2 534.1,313.5 570.6,311.7 607.1,312.9 643.5,313.8 680.0,314.7" fill="none" stroke="#bbb" stroke-width="0.6" opacity="0.6"/>
<polyline points="60.0,213.7 96.5,218.7 132.9,230.6 169.4,250.5 205.9,267.7 242.4,266.3 278.8,265.7 315.3,259.6 351.8,256.0 388.2,227.8 424.7,191.2 461.2,192.2 497.6,212.0 534.1,220.3 570.6,224.8 607.1,211.7 643.5,197.1 680.0,202.3" fill="none" stroke="#bbb" stroke-width="0.6" opacity="0.6"/>
<polyline points="60.0,62.7 96.5,114.8 132.9,178.9 169.4,214.5 205.9,237.4 242.4,243.5 278.8,240.6 315.3,242.0 351.8,241.8 388.2,233.2 424.7,219.8 461.2,223.9 497.6,233.2 534.1,240.4 570.6,247.4 607.1,223.6 643.5,208.6 680.0,161.9" fill="none" stroke="#bbb" stroke-width="0.6" opacity="0.6"/>
<polyline points="60.0,237.7 96.5,237.6 132.9,255.7 169.4,260.4 205.9,262.7 242.4,258.1 278.8,254.4 315.3,258.1 351.8,262.0 388.2,263.5 424.7,253.1 461.2,253.1 497.6,246.3 534.1,246.3 570.6,237.1 607.1,234.9 643.5,252.5 680.0,265.0" fill="none" stroke="#bbb" stroke-width="0.6" opacity="0.6"/>
<polyline points="60.0,232.7 96.5,233.9 132.9,256.3 169.4,266.1 205.9,271.8 242.4,272.4 278.8,265.6 315.3,268.2 351.8,266.6 388.2,264.8 424.7,250.1 461.2,229.0 497.6,231.8 534.1,239.5 570.6,233.8 607.1,213.7 643.5,195.0 680.0,228.3" fill="none" stroke="#bbb" stroke-width="0.6" opacity="0.6"/>
<polyline points="60.0,271.5 96.5,277.8 132.9,285.9 169.4,295.6 205.9,298.1 242.4,297.9 278.8,301.3 315.3,304.0 351.8,305.4 388.2,307.1 424.7,305.3 461.2,305.6 497.6,305.2 534.1,306.6 570.6,300.7 607.1,297.7 643.5,289.8 680.0,265.3" fill="none" stroke="#bbb" stroke-width="0.6" opacity="0.6"/>
<polyline points="60.0,304.2 96.5,306.3 132.9,302.4 169.4,304.2 205.9,306.4 242.4,302.1 278.8,298.8 315.3,303.2 351.8,301.3 388.2,296.2 424.7,287.5 461.2,289.0 497.6,289.7 534.1,281.5 570.6,266.4 607.1,272.8 643.5,270.7 680.0,269.9" fill="none" stroke="#bbb" stroke-width="0.6" opacity="0.6"/>
<polyline points="60.0,237.8 96.5,243.3 132.9,254.1 169.4,271.6 205.9,272.9 242.4,275.9 278.8,280.9 315.3,285.3 351.8,282.8 388.2,281.7 424.7,273.9 461.2,262.1 497.6,255.1 534.1,260.7 570.6,254.8 607.1,257.0 643.5,239.7 680.0,218.6" fill="none" stroke="#bbb" stroke-width="0.6" opacity="0.6"/>
<polyline points="60.0,230.1 96.5,233.3 132.9,243.7 169.4,254.1 205.9,263.9 242.4,268.9 278.8,268.9 315.3,269.2 351.8,267.9 388.2,269.7 424.7,269.4 461.2,271.3 497.6,270.1 534.1,263.7 570.6,259.6 607.1,255.8 643.5,248.4 680.0,229.8" fill="none" stroke="#bbb" stroke-width="0.6" opacity="0.6"/>
<polyline points="60.0,249.4 96.5,247.2 132.9,264.5 169.4,269.0 205.9,277.3 242.4,276.2 278.8,278.3 315.3,266.7 351.8,269.0 388.2,258.4 424.7,254.5 461.2,255.1 497.6,269.3 534.1,278.6 570.6,252.3 607.1,267.1 643.5,279.0 680.0,294.2" fill="none" stroke="#bbb" stroke-width="0.6" opacity="0.6"/>
<polyline points="60.0,282.7 96.5,285.4 132.9,288.1 169.4,293.9 205.9,297.9 242.4,300.8 278.8,303.0 315.3,304.8 351.8,307.7 388.2,306.4 424.7,301.7 461.2,300.9 497.6,299.2 534.1,300.8 570.6,299.4 607.1,297.8 643.5,290.4 680.0,287.7" fill="none" stroke="#bbb" stroke-width="0.6" opacity="0.6"/>
<polyline points="60.0,268.1 96.5,271.2 132.9,279.9 169.4,291.5 205.9,295.2 242.4,294.8 278.8,295.0 315.3,298.8 351.8,288.1 388.2,283.4 424.7,287.9 461.2,290.2 497.6,293.6 534.1,298.6 570.6,290.8 607.1,252.9 643.5,274.5 680.0,288.3" fill="none" stroke="#bbb" stroke-width="0.6" opacity="0.6"/>
<polyline points="60.0,223.9 96.5,232.5 132.9,246.1 169.4,266.5 205.9,274.6 242.4,279.0 278.8,282.7 315.3,284.3 351.8,283.9 388.2,283.3 424.7,279.7 461.2,278.1 497.6,278.0 534.1,279.0 570.6,274.3 607.1,271.4 643.5,269.0 680.0,256.4" fill="none" stroke="#1f3a5f" stroke-width="2" stroke-dasharray="6 4"/>
<polyline points="60.0,226.0 96.5,230.8 132.9,244.8 169.4,263.5 205.9,276.1 242.4,279.2 278.8,282.8 315.3,286.5 351.8,285.6 388.2,280.9 424.7,278.9 461.2,280.0 497.6,282.7 534.1,285.6 570.6,287.0 607.1,306.1 643.5,298.2 680.0,296.8" fill="none" stroke="#b9461a" stroke-width="2.4"/>
<line x1="479.4" y1="50" x2="479.4" y2="330" stroke="#1f2024" stroke-width="0.8" stroke-dasharray="4 3"/>
<text x="479.4" y="45" text-anchor="middle" fill="#1f2024" font-size="10">adoption (2018)</text>
<line x1="60" y1="330" x2="680" y2="330" stroke="#444"/>
<line x1="60" y1="50" x2="60" y2="330" stroke="#444"/>
<line x1="60.0" y1="330" x2="60.0" y2="334" stroke="#444"/>
<text x="60.0" y="348" text-anchor="middle" fill="#444">2006</text>
<line x1="132.9" y1="330" x2="132.9" y2="334" stroke="#444"/>
<text x="132.9" y="348" text-anchor="middle" fill="#444">2008</text>
<line x1="205.9" y1="330" x2="205.9" y2="334" stroke="#444"/>
<text x="205.9" y="348" text-anchor="middle" fill="#444">2010</text>
<line x1="278.8" y1="330" x2="278.8" y2="334" stroke="#444"/>
<text x="278.8" y="348" text-anchor="middle" fill="#444">2012</text>
<line x1="351.8" y1="330" x2="351.8" y2="334" stroke="#444"/>
<text x="351.8" y="348" text-anchor="middle" fill="#444">2014</text>
<line x1="424.7" y1="330" x2="424.7" y2="334" stroke="#444"/>
<text x="424.7" y="348" text-anchor="middle" fill="#444">2016</text>
<line x1="497.6" y1="330" x2="497.6" y2="334" stroke="#444"/>
<text x="497.6" y="348" text-anchor="middle" fill="#444">2018</text>
<line x1="570.6" y1="330" x2="570.6" y2="334" stroke="#444"/>
<text x="570.6" y="348" text-anchor="middle" fill="#444">2020</text>
<line x1="643.5" y1="330" x2="643.5" y2="334" stroke="#444"/>
<text x="643.5" y="348" text-anchor="middle" fill="#444">2022</text>
<line x1="56" y1="330.0" x2="60" y2="330.0" stroke="#444"/>
<text x="53" y="333.0" text-anchor="end" fill="#444">2.5</text>
<line x1="56" y1="260.0" x2="60" y2="260.0" stroke="#444"/>
<text x="53" y="263.0" text-anchor="end" fill="#444">2.9e+02</text>
<line x1="56" y1="190.0" x2="60" y2="190.0" stroke="#444"/>
<text x="53" y="193.0" text-anchor="end" fill="#444">5.7e+02</text>
<line x1="56" y1="120.0" x2="60" y2="120.0" stroke="#444"/>
<text x="53" y="123.0" text-anchor="end" fill="#444">8.5e+02</text>
<line x1="56" y1="50.0" x2="60" y2="50.0" stroke="#444"/>
<text x="53" y="53.0" text-anchor="end" fill="#444">1.1e+03</text>
<rect x="520" y="60" width="190" height="60" fill="white" stroke="#e2e2dc"/>
<line x1="530" y1="75" x2="560" y2="75" stroke="#b9461a" stroke-width="2.4"/>
<text x="565" y="79" font-size="11">Florida (treated)</text>
<line x1="530" y1="95" x2="560" y2="95" stroke="#1f3a5f" stroke-width="2" stroke-dasharray="6 4"/>
<text x="565" y="99" font-size="11">Synthetic counterfactual</text>
<line x1="530" y1="112" x2="560" y2="112" stroke="#bbb" stroke-width="0.6"/>
<text x="565" y="116" font-size="10">Donor states (gray)</text>
</svg>