<svg xmlns="http://www.w3.org/2000/svg" viewBox="0 0 820 1200" font-family="-apple-system, Segoe UI, Helvetica, Arial, sans-serif" font-size="11">
<text x="410.0" y="22" text-anchor="middle" font-size="14" font-weight="600">Callaway-Sant'Anna ATT by event time, county grain (RA) -- permitless carry (law_permitconcealed)</text>
<rect x="15" y="40" width="380" height="260" fill="#fafaf7" stroke="#e2e2dc"/>
<text x="205.0" y="58" text-anchor="middle" font-weight="600">Violent crime rate (per 100k, county UCR)</text>
<line x1="75" y1="153.61589877766977" x2="377" y2="153.61589877766977" stroke="#aaaaaa" stroke-width="0.7"/>
<polygon points="88.7,101.6 116.2,90.0 143.6,125.7 171.1,155.7 226.0,146.2 253.5,149.2 280.9,175.8 308.4,187.3 335.8,158.0 363.3,155.2 363.3,234.2 335.8,227.3 308.4,250.0 280.9,221.5 253.5,189.0 226.0,185.9 171.1,206.8 143.6,189.3 116.2,159.0 88.7,162.1" fill="#1f3a5f" opacity="0.18"/>
<polyline points="88.7,131.8 116.2,124.5 143.6,157.5 171.1,181.2 226.0,166.0 253.5,169.1 280.9,198.6 308.4,218.7 335.8,192.6 363.3,194.7" fill="none" stroke="#1f3a5f" stroke-width="1.6"/>
<circle cx="88.7" cy="131.8" r="2.6" fill="#1f3a5f"/>
<circle cx="116.2" cy="124.5" r="2.6" fill="#1f3a5f"/>
<circle cx="143.6" cy="157.5" r="2.6" fill="#1f3a5f"/>
<circle cx="171.1" cy="181.2" r="2.6" fill="#1f3a5f"/>
<circle cx="226.0" cy="166.0" r="2.6" fill="#1f3a5f"/>
<circle cx="253.5" cy="169.1" r="2.6" fill="#1f3a5f"/>
<circle cx="280.9" cy="198.6" r="2.6" fill="#1f3a5f"/>
<circle cx="308.4" cy="218.7" r="2.6" fill="#1f3a5f"/>
<circle cx="335.8" cy="192.6" r="2.6" fill="#1f3a5f"/>
<circle cx="363.3" cy="194.7" r="2.6" fill="#1f3a5f"/>
<line x1="212.3" y1="90" x2="212.3" y2="250" stroke="#b9461a" stroke-dasharray="3 3"/>
<line x1="75" y1="250" x2="377" y2="250" stroke="#444"/>
<line x1="75" y1="90" x2="75" y2="250" stroke="#444"/>
<line x1="88.7" y1="250" x2="88.7" y2="253" stroke="#444"/>
<text x="88.7" y="265" text-anchor="middle" fill="#444">-5</text>
<line x1="116.2" y1="250" x2="116.2" y2="253" stroke="#444"/>
<text x="116.2" y="265" text-anchor="middle" fill="#444">-4</text>
<line x1="143.6" y1="250" x2="143.6" y2="253" stroke="#444"/>
<text x="143.6" y="265" text-anchor="middle" fill="#444">-3</text>
<line x1="171.1" y1="250" x2="171.1" y2="253" stroke="#444"/>
<text x="171.1" y="265" text-anchor="middle" fill="#444">-2</text>
<line x1="226.0" y1="250" x2="226.0" y2="253" stroke="#444"/>
<text x="226.0" y="265" text-anchor="middle" fill="#444">0</text>
<line x1="253.5" y1="250" x2="253.5" y2="253" stroke="#444"/>
<text x="253.5" y="265" text-anchor="middle" fill="#444">1</text>
<line x1="280.9" y1="250" x2="280.9" y2="253" stroke="#444"/>
<text x="280.9" y="265" text-anchor="middle" fill="#444">2</text>
<line x1="308.4" y1="250" x2="308.4" y2="253" stroke="#444"/>
<text x="308.4" y="265" text-anchor="middle" fill="#444">3</text>
<line x1="335.8" y1="250" x2="335.8" y2="253" stroke="#444"/>
<text x="335.8" y="265" text-anchor="middle" fill="#444">4</text>
<line x1="363.3" y1="250" x2="363.3" y2="253" stroke="#444"/>
<text x="363.3" y="265" text-anchor="middle" fill="#444">5</text>
<line x1="72" y1="250.0" x2="75" y2="250.0" stroke="#444"/>
<text x="69" y="253.0" text-anchor="end" fill="#444">-39</text>
<line x1="72" y1="210.0" x2="75" y2="210.0" stroke="#444"/>
<text x="69" y="213.0" text-anchor="end" fill="#444">-23</text>
<line x1="72" y1="170.0" x2="75" y2="170.0" stroke="#444"/>
<text x="69" y="173.0" text-anchor="end" fill="#444">-6.6</text>
<line x1="72" y1="130.0" x2="75" y2="130.0" stroke="#444"/>
<text x="69" y="133.0" text-anchor="end" fill="#444">9.5</text>
<line x1="72" y1="90.0" x2="75" y2="90.0" stroke="#444"/>
<text x="69" y="93.0" text-anchor="end" fill="#444">26</text>
<text x="226.0" y="284" text-anchor="middle" fill="#444">Event time (years from state-level adoption)</text>
<text x="27" y="170.0" text-anchor="middle" fill="#444" transform="rotate(-90 27 170.0)">ATT (per 100k)</text>
<rect x="425" y="40" width="380" height="260" fill="#fafaf7" stroke="#e2e2dc"/>
<text x="615.0" y="58" text-anchor="middle" font-weight="600">Murder rate (per 100k, county UCR)</text>
<line x1="485" y1="139.61403500319383" x2="787" y2="139.61403500319383" stroke="#aaaaaa" stroke-width="0.7"/>
<polygon points="498.7,117.6 526.2,121.3 553.6,120.2 581.1,142.8 636.0,133.6 663.5,137.5 690.9,123.9 718.4,129.7 745.8,100.9 773.3,90.0 773.3,123.7 745.8,125.1 718.4,152.8 690.9,144.7 663.5,168.0 636.0,152.3 581.1,227.8 553.6,141.7 526.2,250.0 498.7,179.2" fill="#1f3a5f" opacity="0.18"/>
<polyline points="498.7,148.4 526.2,185.7 553.6,130.9 581.1,185.3 636.0,142.9 663.5,152.8 690.9,134.3 718.4,141.3 745.8,113.0 773.3,106.9" fill="none" stroke="#1f3a5f" stroke-width="1.6"/>
<circle cx="498.7" cy="148.4" r="2.6" fill="#1f3a5f"/>
<circle cx="526.2" cy="185.7" r="2.6" fill="#1f3a5f"/>
<circle cx="553.6" cy="130.9" r="2.6" fill="#1f3a5f"/>
<circle cx="581.1" cy="185.3" r="2.6" fill="#1f3a5f"/>
<circle cx="636.0" cy="142.9" r="2.6" fill="#1f3a5f"/>
<circle cx="663.5" cy="152.8" r="2.6" fill="#1f3a5f"/>
<circle cx="690.9" cy="134.3" r="2.6" fill="#1f3a5f"/>
<circle cx="718.4" cy="141.3" r="2.6" fill="#1f3a5f"/>
<circle cx="745.8" cy="113.0" r="2.6" fill="#1f3a5f"/>
<circle cx="773.3" cy="106.9" r="2.6" fill="#1f3a5f"/>
<line x1="622.3" y1="90" x2="622.3" y2="250" stroke="#b9461a" stroke-dasharray="3 3"/>
<line x1="485" y1="250" x2="787" y2="250" stroke="#444"/>
<line x1="485" y1="90" x2="485" y2="250" stroke="#444"/>
<line x1="498.7" y1="250" x2="498.7" y2="253" stroke="#444"/>
<text x="498.7" y="265" text-anchor="middle" fill="#444">-5</text>
<line x1="526.2" y1="250" x2="526.2" y2="253" stroke="#444"/>
<text x="526.2" y="265" text-anchor="middle" fill="#444">-4</text>
<line x1="553.6" y1="250" x2="553.6" y2="253" stroke="#444"/>
<text x="553.6" y="265" text-anchor="middle" fill="#444">-3</text>
<line x1="581.1" y1="250" x2="581.1" y2="253" stroke="#444"/>
<text x="581.1" y="265" text-anchor="middle" fill="#444">-2</text>
<line x1="636.0" y1="250" x2="636.0" y2="253" stroke="#444"/>
<text x="636.0" y="265" text-anchor="middle" fill="#444">0</text>
<line x1="663.5" y1="250" x2="663.5" y2="253" stroke="#444"/>
<text x="663.5" y="265" text-anchor="middle" fill="#444">1</text>
<line x1="690.9" y1="250" x2="690.9" y2="253" stroke="#444"/>
<text x="690.9" y="265" text-anchor="middle" fill="#444">2</text>
<line x1="718.4" y1="250" x2="718.4" y2="253" stroke="#444"/>
<text x="718.4" y="265" text-anchor="middle" fill="#444">3</text>
<line x1="745.8" y1="250" x2="745.8" y2="253" stroke="#444"/>
<text x="745.8" y="265" text-anchor="middle" fill="#444">4</text>
<line x1="773.3" y1="250" x2="773.3" y2="253" stroke="#444"/>
<text x="773.3" y="265" text-anchor="middle" fill="#444">5</text>
<line x1="482" y1="250.0" x2="485" y2="250.0" stroke="#444"/>
<text x="479" y="253.0" text-anchor="end" fill="#444">-3.5</text>
<line x1="482" y1="210.0" x2="485" y2="210.0" stroke="#444"/>
<text x="479" y="213.0" text-anchor="end" fill="#444">-2.2</text>
<line x1="482" y1="170.0" x2="485" y2="170.0" stroke="#444"/>
<text x="479" y="173.0" text-anchor="end" fill="#444">-0.96</text>
<line x1="482" y1="130.0" x2="485" y2="130.0" stroke="#444"/>
<text x="479" y="133.0" text-anchor="end" fill="#444">0.3</text>
<line x1="482" y1="90.0" x2="485" y2="90.0" stroke="#444"/>
<text x="479" y="93.0" text-anchor="end" fill="#444">1.6</text>
<text x="636.0" y="284" text-anchor="middle" fill="#444">Event time (years from state-level adoption)</text>
<text x="437" y="170.0" text-anchor="middle" fill="#444" transform="rotate(-90 437 170.0)">ATT (per 100k)</text>
<rect x="15" y="330" width="380" height="260" fill="#fafaf7" stroke="#e2e2dc"/>
<text x="205.0" y="348" text-anchor="middle" font-weight="600">Property crime rate (per 100k, county UCR)</text>
<line x1="75" y1="483.92975634866553" x2="377" y2="483.92975634866553" stroke="#aaaaaa" stroke-width="0.7"/>
<polygon points="88.7,380.0 116.2,399.2 143.6,426.4 171.1,490.0 226.0,477.2 253.5,461.6 280.9,459.3 308.4,477.4 335.8,451.9 363.3,432.2 363.3,524.7 335.8,540.0 308.4,534.1 280.9,506.7 253.5,499.4 226.0,513.3 171.1,534.1 143.6,501.2 116.2,482.3 88.7,441.2" fill="#1f3a5f" opacity="0.18"/>
<polyline points="88.7,410.6 116.2,440.8 143.6,463.8 171.1,512.1 226.0,495.3 253.5,480.5 280.9,483.0 308.4,505.8 335.8,496.0 363.3,478.4" fill="none" stroke="#1f3a5f" stroke-width="1.6"/>
<circle cx="88.7" cy="410.6" r="2.6" fill="#1f3a5f"/>
<circle cx="116.2" cy="440.8" r="2.6" fill="#1f3a5f"/>
<circle cx="143.6" cy="463.8" r="2.6" fill="#1f3a5f"/>
<circle cx="171.1" cy="512.1" r="2.6" fill="#1f3a5f"/>
<circle cx="226.0" cy="495.3" r="2.6" fill="#1f3a5f"/>
<circle cx="253.5" cy="480.5" r="2.6" fill="#1f3a5f"/>
<circle cx="280.9" cy="483.0" r="2.6" fill="#1f3a5f"/>
<circle cx="308.4" cy="505.8" r="2.6" fill="#1f3a5f"/>
<circle cx="335.8" cy="496.0" r="2.6" fill="#1f3a5f"/>
<circle cx="363.3" cy="478.4" r="2.6" fill="#1f3a5f"/>
<line x1="212.3" y1="380" x2="212.3" y2="540" stroke="#b9461a" stroke-dasharray="3 3"/>
<line x1="75" y1="540" x2="377" y2="540" stroke="#444"/>
<line x1="75" y1="380" x2="75" y2="540" stroke="#444"/>
<line x1="88.7" y1="540" x2="88.7" y2="543" stroke="#444"/>
<text x="88.7" y="555" text-anchor="middle" fill="#444">-5</text>
<line x1="116.2" y1="540" x2="116.2" y2="543" stroke="#444"/>
<text x="116.2" y="555" text-anchor="middle" fill="#444">-4</text>
<line x1="143.6" y1="540" x2="143.6" y2="543" stroke="#444"/>
<text x="143.6" y="555" text-anchor="middle" fill="#444">-3</text>
<line x1="171.1" y1="540" x2="171.1" y2="543" stroke="#444"/>
<text x="171.1" y="555" text-anchor="middle" fill="#444">-2</text>
<line x1="226.0" y1="540" x2="226.0" y2="543" stroke="#444"/>
<text x="226.0" y="555" text-anchor="middle" fill="#444">0</text>
<line x1="253.5" y1="540" x2="253.5" y2="543" stroke="#444"/>
<text x="253.5" y="555" text-anchor="middle" fill="#444">1</text>
<line x1="280.9" y1="540" x2="280.9" y2="543" stroke="#444"/>
<text x="280.9" y="555" text-anchor="middle" fill="#444">2</text>
<line x1="308.4" y1="540" x2="308.4" y2="543" stroke="#444"/>
<text x="308.4" y="555" text-anchor="middle" fill="#444">3</text>
<line x1="335.8" y1="540" x2="335.8" y2="543" stroke="#444"/>
<text x="335.8" y="555" text-anchor="middle" fill="#444">4</text>
<line x1="363.3" y1="540" x2="363.3" y2="543" stroke="#444"/>
<text x="363.3" y="555" text-anchor="middle" fill="#444">5</text>
<line x1="72" y1="540.0" x2="75" y2="540.0" stroke="#444"/>
<text x="69" y="543.0" text-anchor="end" fill="#444">-83</text>
<line x1="72" y1="500.0" x2="75" y2="500.0" stroke="#444"/>
<text x="69" y="503.0" text-anchor="end" fill="#444">-24</text>
<line x1="72" y1="460.0" x2="75" y2="460.0" stroke="#444"/>
<text x="69" y="463.0" text-anchor="end" fill="#444">36</text>
<line x1="72" y1="420.0" x2="75" y2="420.0" stroke="#444"/>
<text x="69" y="423.0" text-anchor="end" fill="#444">95</text>
<line x1="72" y1="380.0" x2="75" y2="380.0" stroke="#444"/>
<text x="69" y="383.0" text-anchor="end" fill="#444">1.5e+02</text>
<text x="226.0" y="574" text-anchor="middle" fill="#444">Event time (years from state-level adoption)</text>
<text x="27" y="460.0" text-anchor="middle" fill="#444" transform="rotate(-90 27 460.0)">ATT (per 100k)</text>
<rect x="425" y="330" width="380" height="260" fill="#fafaf7" stroke="#e2e2dc"/>
<text x="615.0" y="348" text-anchor="middle" font-weight="600">Burglary rate (per 100k, county UCR)</text>
<line x1="485" y1="457.42864363930295" x2="787" y2="457.42864363930295" stroke="#aaaaaa" stroke-width="0.7"/>
<polygon points="498.7,380.0 526.2,394.6 553.6,443.0 581.1,454.0 636.0,440.1 663.5,439.3 690.9,452.6 718.4,469.7 745.8,444.3 773.3,431.2 773.3,514.9 745.8,540.0 718.4,515.4 690.9,493.8 663.5,473.4 636.0,465.6 581.1,484.0 553.6,483.6 526.2,455.0 498.7,432.2" fill="#1f3a5f" opacity="0.18"/>
<polyline points="498.7,406.1 526.2,424.8 553.6,463.3 581.1,469.0 636.0,452.8 663.5,456.3 690.9,473.2 718.4,492.6 745.8,492.2 773.3,473.1" fill="none" stroke="#1f3a5f" stroke-width="1.6"/>
<circle cx="498.7" cy="406.1" r="2.6" fill="#1f3a5f"/>
<circle cx="526.2" cy="424.8" r="2.6" fill="#1f3a5f"/>
<circle cx="553.6" cy="463.3" r="2.6" fill="#1f3a5f"/>
<circle cx="581.1" cy="469.0" r="2.6" fill="#1f3a5f"/>
<circle cx="636.0" cy="452.8" r="2.6" fill="#1f3a5f"/>
<circle cx="663.5" cy="456.3" r="2.6" fill="#1f3a5f"/>
<circle cx="690.9" cy="473.2" r="2.6" fill="#1f3a5f"/>
<circle cx="718.4" cy="492.6" r="2.6" fill="#1f3a5f"/>
<circle cx="745.8" cy="492.2" r="2.6" fill="#1f3a5f"/>
<circle cx="773.3" cy="473.1" r="2.6" fill="#1f3a5f"/>
<line x1="622.3" y1="380" x2="622.3" y2="540" stroke="#b9461a" stroke-dasharray="3 3"/>
<line x1="485" y1="540" x2="787" y2="540" stroke="#444"/>
<line x1="485" y1="380" x2="485" y2="540" stroke="#444"/>
<line x1="498.7" y1="540" x2="498.7" y2="543" stroke="#444"/>
<text x="498.7" y="555" text-anchor="middle" fill="#444">-5</text>
<line x1="526.2" y1="540" x2="526.2" y2="543" stroke="#444"/>
<text x="526.2" y="555" text-anchor="middle" fill="#444">-4</text>
<line x1="553.6" y1="540" x2="553.6" y2="543" stroke="#444"/>
<text x="553.6" y="555" text-anchor="middle" fill="#444">-3</text>
<line x1="581.1" y1="540" x2="581.1" y2="543" stroke="#444"/>
<text x="581.1" y="555" text-anchor="middle" fill="#444">-2</text>
<line x1="636.0" y1="540" x2="636.0" y2="543" stroke="#444"/>
<text x="636.0" y="555" text-anchor="middle" fill="#444">0</text>
<line x1="663.5" y1="540" x2="663.5" y2="543" stroke="#444"/>
<text x="663.5" y="555" text-anchor="middle" fill="#444">1</text>
<line x1="690.9" y1="540" x2="690.9" y2="543" stroke="#444"/>
<text x="690.9" y="555" text-anchor="middle" fill="#444">2</text>
<line x1="718.4" y1="540" x2="718.4" y2="543" stroke="#444"/>
<text x="718.4" y="555" text-anchor="middle" fill="#444">3</text>
<line x1="745.8" y1="540" x2="745.8" y2="543" stroke="#444"/>
<text x="745.8" y="555" text-anchor="middle" fill="#444">4</text>
<line x1="773.3" y1="540" x2="773.3" y2="543" stroke="#444"/>
<text x="773.3" y="555" text-anchor="middle" fill="#444">5</text>
<line x1="482" y1="540.0" x2="485" y2="540.0" stroke="#444"/>
<text x="479" y="543.0" text-anchor="end" fill="#444">-44</text>
<line x1="482" y1="500.0" x2="485" y2="500.0" stroke="#444"/>
<text x="479" y="503.0" text-anchor="end" fill="#444">-23</text>
<line x1="482" y1="460.0" x2="485" y2="460.0" stroke="#444"/>
<text x="479" y="463.0" text-anchor="end" fill="#444">-1.4</text>
<line x1="482" y1="420.0" x2="485" y2="420.0" stroke="#444"/>
<text x="479" y="423.0" text-anchor="end" fill="#444">20</text>
<line x1="482" y1="380.0" x2="485" y2="380.0" stroke="#444"/>
<text x="479" y="383.0" text-anchor="end" fill="#444">42</text>
<text x="636.0" y="574" text-anchor="middle" fill="#444">Event time (years from state-level adoption)</text>
<text x="437" y="460.0" text-anchor="middle" fill="#444" transform="rotate(-90 437 460.0)">ATT (per 100k)</text>
<rect x="15" y="620" width="380" height="260" fill="#fafaf7" stroke="#e2e2dc"/>
<text x="205.0" y="638" text-anchor="middle" font-weight="600">Motor vehicle theft rate (per 100k, county UCR) [placebo]</text>
<line x1="75" y1="700.7836908926018" x2="377" y2="700.7836908926018" stroke="#aaaaaa" stroke-width="0.7"/>
<polygon points="88.7,672.1 116.2,670.0 143.6,692.9 171.1,698.6 226.0,717.6 253.5,693.3 280.9,706.0 308.4,718.2 335.8,687.6 363.3,693.4 363.3,774.1 335.8,768.8 308.4,772.2 280.9,765.2 253.5,737.5 226.0,830.0 171.1,785.7 143.6,753.8 116.2,801.7 88.7,726.0" fill="#1f3a5f" opacity="0.18"/>
<polyline points="88.7,699.1 116.2,735.9 143.6,723.4 171.1,742.1 226.0,773.8 253.5,715.4 280.9,735.6 308.4,745.2 335.8,728.2 363.3,733.7" fill="none" stroke="#1f3a5f" stroke-width="1.6"/>
<circle cx="88.7" cy="699.1" r="2.6" fill="#1f3a5f"/>
<circle cx="116.2" cy="735.9" r="2.6" fill="#1f3a5f"/>
<circle cx="143.6" cy="723.4" r="2.6" fill="#1f3a5f"/>
<circle cx="171.1" cy="742.1" r="2.6" fill="#1f3a5f"/>
<circle cx="226.0" cy="773.8" r="2.6" fill="#1f3a5f"/>
<circle cx="253.5" cy="715.4" r="2.6" fill="#1f3a5f"/>
<circle cx="280.9" cy="735.6" r="2.6" fill="#1f3a5f"/>
<circle cx="308.4" cy="745.2" r="2.6" fill="#1f3a5f"/>
<circle cx="335.8" cy="728.2" r="2.6" fill="#1f3a5f"/>
<circle cx="363.3" cy="733.7" r="2.6" fill="#1f3a5f"/>
<line x1="212.3" y1="670" x2="212.3" y2="830" stroke="#b9461a" stroke-dasharray="3 3"/>
<line x1="75" y1="830" x2="377" y2="830" stroke="#444"/>
<line x1="75" y1="670" x2="75" y2="830" stroke="#444"/>
<line x1="88.7" y1="830" x2="88.7" y2="833" stroke="#444"/>
<text x="88.7" y="845" text-anchor="middle" fill="#444">-5</text>
<line x1="116.2" y1="830" x2="116.2" y2="833" stroke="#444"/>
<text x="116.2" y="845" text-anchor="middle" fill="#444">-4</text>
<line x1="143.6" y1="830" x2="143.6" y2="833" stroke="#444"/>
<text x="143.6" y="845" text-anchor="middle" fill="#444">-3</text>
<line x1="171.1" y1="830" x2="171.1" y2="833" stroke="#444"/>
<text x="171.1" y="845" text-anchor="middle" fill="#444">-2</text>
<line x1="226.0" y1="830" x2="226.0" y2="833" stroke="#444"/>
<text x="226.0" y="845" text-anchor="middle" fill="#444">0</text>
<line x1="253.5" y1="830" x2="253.5" y2="833" stroke="#444"/>
<text x="253.5" y="845" text-anchor="middle" fill="#444">1</text>
<line x1="280.9" y1="830" x2="280.9" y2="833" stroke="#444"/>
<text x="280.9" y="845" text-anchor="middle" fill="#444">2</text>
<line x1="308.4" y1="830" x2="308.4" y2="833" stroke="#444"/>
<text x="308.4" y="845" text-anchor="middle" fill="#444">3</text>
<line x1="335.8" y1="830" x2="335.8" y2="833" stroke="#444"/>
<text x="335.8" y="845" text-anchor="middle" fill="#444">4</text>
<line x1="363.3" y1="830" x2="363.3" y2="833" stroke="#444"/>
<text x="363.3" y="845" text-anchor="middle" fill="#444">5</text>
<line x1="72" y1="830.0" x2="75" y2="830.0" stroke="#444"/>
<text x="69" y="833.0" text-anchor="end" fill="#444">-33</text>
<line x1="72" y1="790.0" x2="75" y2="790.0" stroke="#444"/>
<text x="69" y="793.0" text-anchor="end" fill="#444">-23</text>
<line x1="72" y1="750.0" x2="75" y2="750.0" stroke="#444"/>
<text x="69" y="753.0" text-anchor="end" fill="#444">-13</text>
<line x1="72" y1="710.0" x2="75" y2="710.0" stroke="#444"/>
<text x="69" y="713.0" text-anchor="end" fill="#444">-2.4</text>
<line x1="72" y1="670.0" x2="75" y2="670.0" stroke="#444"/>
<text x="69" y="673.0" text-anchor="end" fill="#444">7.9</text>
<text x="226.0" y="864" text-anchor="middle" fill="#444">Event time (years from state-level adoption)</text>
<text x="27" y="750.0" text-anchor="middle" fill="#444" transform="rotate(-90 27 750.0)">ATT (per 100k)</text>
<rect x="425" y="620" width="380" height="260" fill="#fafaf7" stroke="#e2e2dc"/>
<text x="615.0" y="638" text-anchor="middle" font-weight="600">State firearm suicide rate (joined down) [no county variation]</text>
<line x1="485" y1="789.9848559224929" x2="787" y2="789.9848559224929" stroke="#aaaaaa" stroke-width="0.7"/>
<polygon points="498.7,803.0 526.2,768.2 553.6,771.4 581.1,799.0 636.0,755.9 663.5,746.8 690.9,720.2 718.4,752.3 745.8,694.6 773.3,670.0 773.3,727.9 745.8,746.2 718.4,778.9 690.9,748.9 663.5,775.2 636.0,789.0 581.1,825.1 553.6,804.3 526.2,803.2 498.7,830.0" fill="#1f3a5f" opacity="0.18"/>
<polyline points="498.7,816.5 526.2,785.7 553.6,787.8 581.1,812.1 636.0,772.4 663.5,761.0 690.9,734.5 718.4,765.6 745.8,720.4 773.3,698.9" fill="none" stroke="#1f3a5f" stroke-width="1.6"/>
<circle cx="498.7" cy="816.5" r="2.6" fill="#1f3a5f"/>
<circle cx="526.2" cy="785.7" r="2.6" fill="#1f3a5f"/>
<circle cx="553.6" cy="787.8" r="2.6" fill="#1f3a5f"/>
<circle cx="581.1" cy="812.1" r="2.6" fill="#1f3a5f"/>
<circle cx="636.0" cy="772.4" r="2.6" fill="#1f3a5f"/>
<circle cx="663.5" cy="761.0" r="2.6" fill="#1f3a5f"/>
<circle cx="690.9" cy="734.5" r="2.6" fill="#1f3a5f"/>
<circle cx="718.4" cy="765.6" r="2.6" fill="#1f3a5f"/>
<circle cx="745.8" cy="720.4" r="2.6" fill="#1f3a5f"/>
<circle cx="773.3" cy="698.9" r="2.6" fill="#1f3a5f"/>
<line x1="622.3" y1="670" x2="622.3" y2="830" stroke="#b9461a" stroke-dasharray="3 3"/>
<line x1="485" y1="830" x2="787" y2="830" stroke="#444"/>
<line x1="485" y1="670" x2="485" y2="830" stroke="#444"/>
<line x1="498.7" y1="830" x2="498.7" y2="833" stroke="#444"/>
<text x="498.7" y="845" text-anchor="middle" fill="#444">-5</text>
<line x1="526.2" y1="830" x2="526.2" y2="833" stroke="#444"/>
<text x="526.2" y="845" text-anchor="middle" fill="#444">-4</text>
<line x1="553.6" y1="830" x2="553.6" y2="833" stroke="#444"/>
<text x="553.6" y="845" text-anchor="middle" fill="#444">-3</text>
<line x1="581.1" y1="830" x2="581.1" y2="833" stroke="#444"/>
<text x="581.1" y="845" text-anchor="middle" fill="#444">-2</text>
<line x1="636.0" y1="830" x2="636.0" y2="833" stroke="#444"/>
<text x="636.0" y="845" text-anchor="middle" fill="#444">0</text>
<line x1="663.5" y1="830" x2="663.5" y2="833" stroke="#444"/>
<text x="663.5" y="845" text-anchor="middle" fill="#444">1</text>
<line x1="690.9" y1="830" x2="690.9" y2="833" stroke="#444"/>
<text x="690.9" y="845" text-anchor="middle" fill="#444">2</text>
<line x1="718.4" y1="830" x2="718.4" y2="833" stroke="#444"/>
<text x="718.4" y="845" text-anchor="middle" fill="#444">3</text>
<line x1="745.8" y1="830" x2="745.8" y2="833" stroke="#444"/>
<text x="745.8" y="845" text-anchor="middle" fill="#444">4</text>
<line x1="773.3" y1="830" x2="773.3" y2="833" stroke="#444"/>
<text x="773.3" y="845" text-anchor="middle" fill="#444">5</text>
<line x1="482" y1="830.0" x2="485" y2="830.0" stroke="#444"/>
<text x="479" y="833.0" text-anchor="end" fill="#444">-0.42</text>
<line x1="482" y1="790.0" x2="485" y2="790.0" stroke="#444"/>
<text x="479" y="793.0" text-anchor="end" fill="#444">-0.00016</text>
<line x1="482" y1="750.0" x2="485" y2="750.0" stroke="#444"/>
<text x="479" y="753.0" text-anchor="end" fill="#444">0.42</text>
<line x1="482" y1="710.0" x2="485" y2="710.0" stroke="#444"/>
<text x="479" y="713.0" text-anchor="end" fill="#444">0.84</text>
<line x1="482" y1="670.0" x2="485" y2="670.0" stroke="#444"/>
<text x="479" y="673.0" text-anchor="end" fill="#444">1.3</text>
<text x="636.0" y="864" text-anchor="middle" fill="#444">Event time (years from state-level adoption)</text>
<text x="437" y="750.0" text-anchor="middle" fill="#444" transform="rotate(-90 437 750.0)">ATT (per 100k)</text>
<rect x="15" y="910" width="380" height="260" fill="#fafaf7" stroke="#e2e2dc"/>
<text x="205.0" y="928" text-anchor="middle" font-weight="600">State total suicide rate (joined down) [no county variation]</text>
<line x1="75" y1="1054.3457012792758" x2="377" y2="1054.3457012792758" stroke="#aaaaaa" stroke-width="0.7"/>
<polygon points="88.7,1088.6 116.2,1034.0 143.6,1057.7 171.1,1065.3 226.0,1028.5 253.5,1011.0 280.9,991.9 308.4,1003.8 335.8,974.0 363.3,960.0 363.3,1036.2 335.8,1022.1 308.4,1052.1 280.9,1040.9 253.5,1041.8 226.0,1061.8 171.1,1095.8 143.6,1090.7 116.2,1073.1 88.7,1120.0" fill="#1f3a5f" opacity="0.18"/>
<polyline points="88.7,1104.3 116.2,1053.5 143.6,1074.2 171.1,1080.6 226.0,1045.2 253.5,1026.4 280.9,1016.4 308.4,1028.0 335.8,998.0 363.3,998.1" fill="none" stroke="#1f3a5f" stroke-width="1.6"/>
<circle cx="88.7" cy="1104.3" r="2.6" fill="#1f3a5f"/>
<circle cx="116.2" cy="1053.5" r="2.6" fill="#1f3a5f"/>
<circle cx="143.6" cy="1074.2" r="2.6" fill="#1f3a5f"/>
<circle cx="171.1" cy="1080.6" r="2.6" fill="#1f3a5f"/>
<circle cx="226.0" cy="1045.2" r="2.6" fill="#1f3a5f"/>
<circle cx="253.5" cy="1026.4" r="2.6" fill="#1f3a5f"/>
<circle cx="280.9" cy="1016.4" r="2.6" fill="#1f3a5f"/>
<circle cx="308.4" cy="1028.0" r="2.6" fill="#1f3a5f"/>
<circle cx="335.8" cy="998.0" r="2.6" fill="#1f3a5f"/>
<circle cx="363.3" cy="998.1" r="2.6" fill="#1f3a5f"/>
<line x1="212.3" y1="960" x2="212.3" y2="1120" stroke="#b9461a" stroke-dasharray="3 3"/>
<line x1="75" y1="1120" x2="377" y2="1120" stroke="#444"/>
<line x1="75" y1="960" x2="75" y2="1120" stroke="#444"/>
<line x1="88.7" y1="1120" x2="88.7" y2="1123" stroke="#444"/>
<text x="88.7" y="1135" text-anchor="middle" fill="#444">-5</text>
<line x1="116.2" y1="1120" x2="116.2" y2="1123" stroke="#444"/>
<text x="116.2" y="1135" text-anchor="middle" fill="#444">-4</text>
<line x1="143.6" y1="1120" x2="143.6" y2="1123" stroke="#444"/>
<text x="143.6" y="1135" text-anchor="middle" fill="#444">-3</text>
<line x1="171.1" y1="1120" x2="171.1" y2="1123" stroke="#444"/>
<text x="171.1" y="1135" text-anchor="middle" fill="#444">-2</text>
<line x1="226.0" y1="1120" x2="226.0" y2="1123" stroke="#444"/>
<text x="226.0" y="1135" text-anchor="middle" fill="#444">0</text>
<line x1="253.5" y1="1120" x2="253.5" y2="1123" stroke="#444"/>
<text x="253.5" y="1135" text-anchor="middle" fill="#444">1</text>
<line x1="280.9" y1="1120" x2="280.9" y2="1123" stroke="#444"/>
<text x="280.9" y="1135" text-anchor="middle" fill="#444">2</text>
<line x1="308.4" y1="1120" x2="308.4" y2="1123" stroke="#444"/>
<text x="308.4" y="1135" text-anchor="middle" fill="#444">3</text>
<line x1="335.8" y1="1120" x2="335.8" y2="1123" stroke="#444"/>
<text x="335.8" y="1135" text-anchor="middle" fill="#444">4</text>
<line x1="363.3" y1="1120" x2="363.3" y2="1123" stroke="#444"/>
<text x="363.3" y="1135" text-anchor="middle" fill="#444">5</text>
<line x1="72" y1="1120.0" x2="75" y2="1120.0" stroke="#444"/>
<text x="69" y="1123.0" text-anchor="end" fill="#444">-0.82</text>
<line x1="72" y1="1080.0" x2="75" y2="1080.0" stroke="#444"/>
<text x="69" y="1083.0" text-anchor="end" fill="#444">-0.32</text>
<line x1="72" y1="1040.0" x2="75" y2="1040.0" stroke="#444"/>
<text x="69" y="1043.0" text-anchor="end" fill="#444">0.18</text>
<line x1="72" y1="1000.0" x2="75" y2="1000.0" stroke="#444"/>
<text x="69" y="1003.0" text-anchor="end" fill="#444">0.68</text>
<line x1="72" y1="960.0" x2="75" y2="960.0" stroke="#444"/>
<text x="69" y="963.0" text-anchor="end" fill="#444">1.2</text>
<text x="226.0" y="1154" text-anchor="middle" fill="#444">Event time (years from state-level adoption)</text>
<text x="27" y="1040.0" text-anchor="middle" fill="#444" transform="rotate(-90 27 1040.0)">ATT (per 100k)</text>
<rect x="425" y="910" width="380" height="260" fill="#fafaf7" stroke="#e2e2dc"/>
<text x="615.0" y="928" text-anchor="middle" font-weight="600">State firearm homicide rate (joined down) [no county variation]</text>
<line x1="485" y1="1082.0679932534183" x2="787" y2="1082.0679932534183" stroke="#aaaaaa" stroke-width="0.7"/>
<polygon points="498.7,1095.5 526.2,1073.1 553.6,1084.0 581.1,1075.5 636.0,1080.7 663.5,1082.1 690.9,1063.7 718.4,1041.5 745.8,1064.4 773.3,960.0 773.3,1056.8 745.8,1106.9 718.4,1073.1 690.9,1095.4 663.5,1100.6 636.0,1100.7 581.1,1093.9 553.6,1104.0 526.2,1097.0 498.7,1120.0" fill="#1f3a5f" opacity="0.18"/>
<polyline points="498.7,1107.8 526.2,1085.1 553.6,1094.0 581.1,1084.7 636.0,1090.7 663.5,1091.4 690.9,1079.5 718.4,1057.3 745.8,1085.6 773.3,1008.4" fill="none" stroke="#1f3a5f" stroke-width="1.6"/>
<circle cx="498.7" cy="1107.8" r="2.6" fill="#1f3a5f"/>
<circle cx="526.2" cy="1085.1" r="2.6" fill="#1f3a5f"/>
<circle cx="553.6" cy="1094.0" r="2.6" fill="#1f3a5f"/>
<circle cx="581.1" cy="1084.7" r="2.6" fill="#1f3a5f"/>
<circle cx="636.0" cy="1090.7" r="2.6" fill="#1f3a5f"/>
<circle cx="663.5" cy="1091.4" r="2.6" fill="#1f3a5f"/>
<circle cx="690.9" cy="1079.5" r="2.6" fill="#1f3a5f"/>
<circle cx="718.4" cy="1057.3" r="2.6" fill="#1f3a5f"/>
<circle cx="745.8" cy="1085.6" r="2.6" fill="#1f3a5f"/>
<circle cx="773.3" cy="1008.4" r="2.6" fill="#1f3a5f"/>
<line x1="622.3" y1="960" x2="622.3" y2="1120" stroke="#b9461a" stroke-dasharray="3 3"/>
<line x1="485" y1="1120" x2="787" y2="1120" stroke="#444"/>
<line x1="485" y1="960" x2="485" y2="1120" stroke="#444"/>
<line x1="498.7" y1="1120" x2="498.7" y2="1123" stroke="#444"/>
<text x="498.7" y="1135" text-anchor="middle" fill="#444">-5</text>
<line x1="526.2" y1="1120" x2="526.2" y2="1123" stroke="#444"/>
<text x="526.2" y="1135" text-anchor="middle" fill="#444">-4</text>
<line x1="553.6" y1="1120" x2="553.6" y2="1123" stroke="#444"/>
<text x="553.6" y="1135" text-anchor="middle" fill="#444">-3</text>
<line x1="581.1" y1="1120" x2="581.1" y2="1123" stroke="#444"/>
<text x="581.1" y="1135" text-anchor="middle" fill="#444">-2</text>
<line x1="636.0" y1="1120" x2="636.0" y2="1123" stroke="#444"/>
<text x="636.0" y="1135" text-anchor="middle" fill="#444">0</text>
<line x1="663.5" y1="1120" x2="663.5" y2="1123" stroke="#444"/>
<text x="663.5" y="1135" text-anchor="middle" fill="#444">1</text>
<line x1="690.9" y1="1120" x2="690.9" y2="1123" stroke="#444"/>
<text x="690.9" y="1135" text-anchor="middle" fill="#444">2</text>
<line x1="718.4" y1="1120" x2="718.4" y2="1123" stroke="#444"/>
<text x="718.4" y="1135" text-anchor="middle" fill="#444">3</text>
<line x1="745.8" y1="1120" x2="745.8" y2="1123" stroke="#444"/>
<text x="745.8" y="1135" text-anchor="middle" fill="#444">4</text>
<line x1="773.3" y1="1120" x2="773.3" y2="1123" stroke="#444"/>
<text x="773.3" y="1135" text-anchor="middle" fill="#444">5</text>
<line x1="482" y1="1120.0" x2="485" y2="1120.0" stroke="#444"/>
<text x="479" y="1123.0" text-anchor="end" fill="#444">-0.55</text>
<line x1="482" y1="1080.0" x2="485" y2="1080.0" stroke="#444"/>
<text x="479" y="1083.0" text-anchor="end" fill="#444">0.03</text>
<line x1="482" y1="1040.0" x2="485" y2="1040.0" stroke="#444"/>
<text x="479" y="1043.0" text-anchor="end" fill="#444">0.61</text>
<line x1="482" y1="1000.0" x2="485" y2="1000.0" stroke="#444"/>
<text x="479" y="1003.0" text-anchor="end" fill="#444">1.2</text>
<line x1="482" y1="960.0" x2="485" y2="960.0" stroke="#444"/>
<text x="479" y="963.0" text-anchor="end" fill="#444">1.8</text>
<text x="636.0" y="1154" text-anchor="middle" fill="#444">Event time (years from state-level adoption)</text>
<text x="437" y="1040.0" text-anchor="middle" fill="#444" transform="rotate(-90 437 1040.0)">ATT (per 100k)</text>
<text x="805" y="1188" text-anchor="end" fill="#888" font-size="10">Shaded band: pointwise 95% CI from state-clustered Rademacher bootstrap. Vertical dashed line marks the year before adoption.</text>
</svg>