<svg xmlns="http://www.w3.org/2000/svg" viewBox="0 0 820 1200" font-family="-apple-system, Segoe UI, Helvetica, Arial, sans-serif" font-size="11">
<text x="410.0" y="22" text-anchor="middle" font-size="14" font-weight="600">Callaway-Sant'Anna ATT by event time, county grain (OR) -- permitless carry (law_permitconcealed)</text>
<rect x="15" y="40" width="380" height="260" fill="#fafaf7" stroke="#e2e2dc"/>
<text x="205.0" y="58" text-anchor="middle" font-weight="600">Violent crime rate (per 100k, county UCR)</text>
<line x1="75" y1="144.13782621181252" x2="377" y2="144.13782621181252" stroke="#aaaaaa" stroke-width="0.7"/>
<polygon points="88.7,125.6 116.2,105.3 143.6,126.0 171.1,135.7 226.0,102.8 253.5,141.6 280.9,154.0 308.4,166.4 335.8,90.0 363.3,90.5 363.3,219.3 335.8,211.2 308.4,250.0 280.9,242.9 253.5,223.2 226.0,190.0 171.1,224.8 143.6,228.4 116.2,209.9 88.7,217.0" fill="#1f3a5f" opacity="0.18"/>
<polyline points="88.7,171.3 116.2,157.6 143.6,177.2 171.1,180.2 226.0,146.4 253.5,182.4 280.9,198.5 308.4,208.2 335.8,150.6 363.3,154.9" fill="none" stroke="#1f3a5f" stroke-width="1.6"/>
<circle cx="88.7" cy="171.3" r="2.6" fill="#1f3a5f"/>
<circle cx="116.2" cy="157.6" r="2.6" fill="#1f3a5f"/>
<circle cx="143.6" cy="177.2" r="2.6" fill="#1f3a5f"/>
<circle cx="171.1" cy="180.2" r="2.6" fill="#1f3a5f"/>
<circle cx="226.0" cy="146.4" r="2.6" fill="#1f3a5f"/>
<circle cx="253.5" cy="182.4" r="2.6" fill="#1f3a5f"/>
<circle cx="280.9" cy="198.5" r="2.6" fill="#1f3a5f"/>
<circle cx="308.4" cy="208.2" r="2.6" fill="#1f3a5f"/>
<circle cx="335.8" cy="150.6" r="2.6" fill="#1f3a5f"/>
<circle cx="363.3" cy="154.9" r="2.6" fill="#1f3a5f"/>
<line x1="212.3" y1="90" x2="212.3" y2="250" stroke="#b9461a" stroke-dasharray="3 3"/>
<line x1="75" y1="250" x2="377" y2="250" stroke="#444"/>
<line x1="75" y1="90" x2="75" y2="250" stroke="#444"/>
<line x1="88.7" y1="250" x2="88.7" y2="253" stroke="#444"/>
<text x="88.7" y="265" text-anchor="middle" fill="#444">-5</text>
<line x1="116.2" y1="250" x2="116.2" y2="253" stroke="#444"/>
<text x="116.2" y="265" text-anchor="middle" fill="#444">-4</text>
<line x1="143.6" y1="250" x2="143.6" y2="253" stroke="#444"/>
<text x="143.6" y="265" text-anchor="middle" fill="#444">-3</text>
<line x1="171.1" y1="250" x2="171.1" y2="253" stroke="#444"/>
<text x="171.1" y="265" text-anchor="middle" fill="#444">-2</text>
<line x1="226.0" y1="250" x2="226.0" y2="253" stroke="#444"/>
<text x="226.0" y="265" text-anchor="middle" fill="#444">0</text>
<line x1="253.5" y1="250" x2="253.5" y2="253" stroke="#444"/>
<text x="253.5" y="265" text-anchor="middle" fill="#444">1</text>
<line x1="280.9" y1="250" x2="280.9" y2="253" stroke="#444"/>
<text x="280.9" y="265" text-anchor="middle" fill="#444">2</text>
<line x1="308.4" y1="250" x2="308.4" y2="253" stroke="#444"/>
<text x="308.4" y="265" text-anchor="middle" fill="#444">3</text>
<line x1="335.8" y1="250" x2="335.8" y2="253" stroke="#444"/>
<text x="335.8" y="265" text-anchor="middle" fill="#444">4</text>
<line x1="363.3" y1="250" x2="363.3" y2="253" stroke="#444"/>
<text x="363.3" y="265" text-anchor="middle" fill="#444">5</text>
<line x1="72" y1="250.0" x2="75" y2="250.0" stroke="#444"/>
<text x="69" y="253.0" text-anchor="end" fill="#444">-42</text>
<line x1="72" y1="210.0" x2="75" y2="210.0" stroke="#444"/>
<text x="69" y="213.0" text-anchor="end" fill="#444">-26</text>
<line x1="72" y1="170.0" x2="75" y2="170.0" stroke="#444"/>
<text x="69" y="173.0" text-anchor="end" fill="#444">-10</text>
<line x1="72" y1="130.0" x2="75" y2="130.0" stroke="#444"/>
<text x="69" y="133.0" text-anchor="end" fill="#444">5.6</text>
<line x1="72" y1="90.0" x2="75" y2="90.0" stroke="#444"/>
<text x="69" y="93.0" text-anchor="end" fill="#444">21</text>
<text x="226.0" y="284" text-anchor="middle" fill="#444">Event time (years from state-level adoption)</text>
<text x="27" y="170.0" text-anchor="middle" fill="#444" transform="rotate(-90 27 170.0)">ATT (per 100k)</text>
<rect x="425" y="40" width="380" height="260" fill="#fafaf7" stroke="#e2e2dc"/>
<text x="615.0" y="58" text-anchor="middle" font-weight="600">Murder rate (per 100k, county UCR)</text>
<line x1="485" y1="145.75134323098808" x2="787" y2="145.75134323098808" stroke="#aaaaaa" stroke-width="0.7"/>
<polygon points="498.7,114.9 526.2,96.6 553.6,120.6 581.1,128.9 636.0,132.6 663.5,142.0 690.9,120.4 718.4,118.1 745.8,102.5 773.3,90.0 773.3,144.3 745.8,159.2 718.4,166.6 690.9,190.0 663.5,180.1 636.0,183.3 581.1,199.8 553.6,158.3 526.2,250.0 498.7,207.9" fill="#1f3a5f" opacity="0.18"/>
<polyline points="498.7,161.4 526.2,173.3 553.6,139.5 581.1,164.4 636.0,157.9 663.5,161.1 690.9,155.2 718.4,142.4 745.8,130.8 773.3,117.1" fill="none" stroke="#1f3a5f" stroke-width="1.6"/>
<circle cx="498.7" cy="161.4" r="2.6" fill="#1f3a5f"/>
<circle cx="526.2" cy="173.3" r="2.6" fill="#1f3a5f"/>
<circle cx="553.6" cy="139.5" r="2.6" fill="#1f3a5f"/>
<circle cx="581.1" cy="164.4" r="2.6" fill="#1f3a5f"/>
<circle cx="636.0" cy="157.9" r="2.6" fill="#1f3a5f"/>
<circle cx="663.5" cy="161.1" r="2.6" fill="#1f3a5f"/>
<circle cx="690.9" cy="155.2" r="2.6" fill="#1f3a5f"/>
<circle cx="718.4" cy="142.4" r="2.6" fill="#1f3a5f"/>
<circle cx="745.8" cy="130.8" r="2.6" fill="#1f3a5f"/>
<circle cx="773.3" cy="117.1" r="2.6" fill="#1f3a5f"/>
<line x1="622.3" y1="90" x2="622.3" y2="250" stroke="#b9461a" stroke-dasharray="3 3"/>
<line x1="485" y1="250" x2="787" y2="250" stroke="#444"/>
<line x1="485" y1="90" x2="485" y2="250" stroke="#444"/>
<line x1="498.7" y1="250" x2="498.7" y2="253" stroke="#444"/>
<text x="498.7" y="265" text-anchor="middle" fill="#444">-5</text>
<line x1="526.2" y1="250" x2="526.2" y2="253" stroke="#444"/>
<text x="526.2" y="265" text-anchor="middle" fill="#444">-4</text>
<line x1="553.6" y1="250" x2="553.6" y2="253" stroke="#444"/>
<text x="553.6" y="265" text-anchor="middle" fill="#444">-3</text>
<line x1="581.1" y1="250" x2="581.1" y2="253" stroke="#444"/>
<text x="581.1" y="265" text-anchor="middle" fill="#444">-2</text>
<line x1="636.0" y1="250" x2="636.0" y2="253" stroke="#444"/>
<text x="636.0" y="265" text-anchor="middle" fill="#444">0</text>
<line x1="663.5" y1="250" x2="663.5" y2="253" stroke="#444"/>
<text x="663.5" y="265" text-anchor="middle" fill="#444">1</text>
<line x1="690.9" y1="250" x2="690.9" y2="253" stroke="#444"/>
<text x="690.9" y="265" text-anchor="middle" fill="#444">2</text>
<line x1="718.4" y1="250" x2="718.4" y2="253" stroke="#444"/>
<text x="718.4" y="265" text-anchor="middle" fill="#444">3</text>
<line x1="745.8" y1="250" x2="745.8" y2="253" stroke="#444"/>
<text x="745.8" y="265" text-anchor="middle" fill="#444">4</text>
<line x1="773.3" y1="250" x2="773.3" y2="253" stroke="#444"/>
<text x="773.3" y="265" text-anchor="middle" fill="#444">5</text>
<line x1="482" y1="250.0" x2="485" y2="250.0" stroke="#444"/>
<text x="479" y="253.0" text-anchor="end" fill="#444">-2.8</text>
<line x1="482" y1="210.0" x2="485" y2="210.0" stroke="#444"/>
<text x="479" y="213.0" text-anchor="end" fill="#444">-1.7</text>
<line x1="482" y1="170.0" x2="485" y2="170.0" stroke="#444"/>
<text x="479" y="173.0" text-anchor="end" fill="#444">-0.65</text>
<line x1="482" y1="130.0" x2="485" y2="130.0" stroke="#444"/>
<text x="479" y="133.0" text-anchor="end" fill="#444">0.42</text>
<line x1="482" y1="90.0" x2="485" y2="90.0" stroke="#444"/>
<text x="479" y="93.0" text-anchor="end" fill="#444">1.5</text>
<text x="636.0" y="284" text-anchor="middle" fill="#444">Event time (years from state-level adoption)</text>
<text x="437" y="170.0" text-anchor="middle" fill="#444" transform="rotate(-90 437 170.0)">ATT (per 100k)</text>
<rect x="15" y="330" width="380" height="260" fill="#fafaf7" stroke="#e2e2dc"/>
<text x="205.0" y="348" text-anchor="middle" font-weight="600">Property crime rate (per 100k, county UCR)</text>
<line x1="75" y1="473.2633378557059" x2="377" y2="473.2633378557059" stroke="#aaaaaa" stroke-width="0.7"/>
<polygon points="88.7,425.7 116.2,431.6 143.6,435.3 171.1,469.1 226.0,429.0 253.5,456.2 280.9,435.4 308.4,430.0 335.8,381.2 363.3,380.0 363.3,473.5 335.8,477.6 308.4,540.0 280.9,527.6 253.5,522.0 226.0,500.0 171.1,535.1 143.6,528.2 116.2,531.0 88.7,508.0" fill="#1f3a5f" opacity="0.18"/>
<polyline points="88.7,466.8 116.2,481.3 143.6,481.7 171.1,502.1 226.0,464.5 253.5,489.1 280.9,481.5 308.4,485.0 335.8,429.4 363.3,426.7" fill="none" stroke="#1f3a5f" stroke-width="1.6"/>
<circle cx="88.7" cy="466.8" r="2.6" fill="#1f3a5f"/>
<circle cx="116.2" cy="481.3" r="2.6" fill="#1f3a5f"/>
<circle cx="143.6" cy="481.7" r="2.6" fill="#1f3a5f"/>
<circle cx="171.1" cy="502.1" r="2.6" fill="#1f3a5f"/>
<circle cx="226.0" cy="464.5" r="2.6" fill="#1f3a5f"/>
<circle cx="253.5" cy="489.1" r="2.6" fill="#1f3a5f"/>
<circle cx="280.9" cy="481.5" r="2.6" fill="#1f3a5f"/>
<circle cx="308.4" cy="485.0" r="2.6" fill="#1f3a5f"/>
<circle cx="335.8" cy="429.4" r="2.6" fill="#1f3a5f"/>
<circle cx="363.3" cy="426.7" r="2.6" fill="#1f3a5f"/>
<line x1="212.3" y1="380" x2="212.3" y2="540" stroke="#b9461a" stroke-dasharray="3 3"/>
<line x1="75" y1="540" x2="377" y2="540" stroke="#444"/>
<line x1="75" y1="380" x2="75" y2="540" stroke="#444"/>
<line x1="88.7" y1="540" x2="88.7" y2="543" stroke="#444"/>
<text x="88.7" y="555" text-anchor="middle" fill="#444">-5</text>
<line x1="116.2" y1="540" x2="116.2" y2="543" stroke="#444"/>
<text x="116.2" y="555" text-anchor="middle" fill="#444">-4</text>
<line x1="143.6" y1="540" x2="143.6" y2="543" stroke="#444"/>
<text x="143.6" y="555" text-anchor="middle" fill="#444">-3</text>
<line x1="171.1" y1="540" x2="171.1" y2="543" stroke="#444"/>
<text x="171.1" y="555" text-anchor="middle" fill="#444">-2</text>
<line x1="226.0" y1="540" x2="226.0" y2="543" stroke="#444"/>
<text x="226.0" y="555" text-anchor="middle" fill="#444">0</text>
<line x1="253.5" y1="540" x2="253.5" y2="543" stroke="#444"/>
<text x="253.5" y="555" text-anchor="middle" fill="#444">1</text>
<line x1="280.9" y1="540" x2="280.9" y2="543" stroke="#444"/>
<text x="280.9" y="555" text-anchor="middle" fill="#444">2</text>
<line x1="308.4" y1="540" x2="308.4" y2="543" stroke="#444"/>
<text x="308.4" y="555" text-anchor="middle" fill="#444">3</text>
<line x1="335.8" y1="540" x2="335.8" y2="543" stroke="#444"/>
<text x="335.8" y="555" text-anchor="middle" fill="#444">4</text>
<line x1="363.3" y1="540" x2="363.3" y2="543" stroke="#444"/>
<text x="363.3" y="555" text-anchor="middle" fill="#444">5</text>
<line x1="72" y1="540.0" x2="75" y2="540.0" stroke="#444"/>
<text x="69" y="543.0" text-anchor="end" fill="#444">-1.3e+02</text>
<line x1="72" y1="500.0" x2="75" y2="500.0" stroke="#444"/>
<text x="69" y="503.0" text-anchor="end" fill="#444">-50</text>
<line x1="72" y1="460.0" x2="75" y2="460.0" stroke="#444"/>
<text x="69" y="463.0" text-anchor="end" fill="#444">25</text>
<line x1="72" y1="420.0" x2="75" y2="420.0" stroke="#444"/>
<text x="69" y="423.0" text-anchor="end" fill="#444">1e+02</text>
<line x1="72" y1="380.0" x2="75" y2="380.0" stroke="#444"/>
<text x="69" y="383.0" text-anchor="end" fill="#444">1.8e+02</text>
<text x="226.0" y="574" text-anchor="middle" fill="#444">Event time (years from state-level adoption)</text>
<text x="27" y="460.0" text-anchor="middle" fill="#444" transform="rotate(-90 27 460.0)">ATT (per 100k)</text>
<rect x="425" y="330" width="380" height="260" fill="#fafaf7" stroke="#e2e2dc"/>
<text x="615.0" y="348" text-anchor="middle" font-weight="600">Burglary rate (per 100k, county UCR)</text>
<line x1="485" y1="468.0410145738048" x2="787" y2="468.0410145738048" stroke="#aaaaaa" stroke-width="0.7"/>
<polygon points="498.7,403.1 526.2,419.4 553.6,457.4 581.1,460.8 636.0,427.9 663.5,446.7 690.9,451.9 718.4,455.7 745.8,397.6 773.3,380.0 773.3,499.8 745.8,510.4 718.4,540.0 690.9,517.3 663.5,502.3 636.0,484.7 581.1,514.0 553.6,529.2 526.2,518.3 498.7,509.6" fill="#1f3a5f" opacity="0.18"/>
<polyline points="498.7,456.4 526.2,468.9 553.6,493.3 581.1,487.4 636.0,456.3 663.5,474.5 690.9,484.6 718.4,497.9 745.8,454.0 773.3,439.9" fill="none" stroke="#1f3a5f" stroke-width="1.6"/>
<circle cx="498.7" cy="456.4" r="2.6" fill="#1f3a5f"/>
<circle cx="526.2" cy="468.9" r="2.6" fill="#1f3a5f"/>
<circle cx="553.6" cy="493.3" r="2.6" fill="#1f3a5f"/>
<circle cx="581.1" cy="487.4" r="2.6" fill="#1f3a5f"/>
<circle cx="636.0" cy="456.3" r="2.6" fill="#1f3a5f"/>
<circle cx="663.5" cy="474.5" r="2.6" fill="#1f3a5f"/>
<circle cx="690.9" cy="484.6" r="2.6" fill="#1f3a5f"/>
<circle cx="718.4" cy="497.9" r="2.6" fill="#1f3a5f"/>
<circle cx="745.8" cy="454.0" r="2.6" fill="#1f3a5f"/>
<circle cx="773.3" cy="439.9" r="2.6" fill="#1f3a5f"/>
<line x1="622.3" y1="380" x2="622.3" y2="540" stroke="#b9461a" stroke-dasharray="3 3"/>
<line x1="485" y1="540" x2="787" y2="540" stroke="#444"/>
<line x1="485" y1="380" x2="485" y2="540" stroke="#444"/>
<line x1="498.7" y1="540" x2="498.7" y2="543" stroke="#444"/>
<text x="498.7" y="555" text-anchor="middle" fill="#444">-5</text>
<line x1="526.2" y1="540" x2="526.2" y2="543" stroke="#444"/>
<text x="526.2" y="555" text-anchor="middle" fill="#444">-4</text>
<line x1="553.6" y1="540" x2="553.6" y2="543" stroke="#444"/>
<text x="553.6" y="555" text-anchor="middle" fill="#444">-3</text>
<line x1="581.1" y1="540" x2="581.1" y2="543" stroke="#444"/>
<text x="581.1" y="555" text-anchor="middle" fill="#444">-2</text>
<line x1="636.0" y1="540" x2="636.0" y2="543" stroke="#444"/>
<text x="636.0" y="555" text-anchor="middle" fill="#444">0</text>
<line x1="663.5" y1="540" x2="663.5" y2="543" stroke="#444"/>
<text x="663.5" y="555" text-anchor="middle" fill="#444">1</text>
<line x1="690.9" y1="540" x2="690.9" y2="543" stroke="#444"/>
<text x="690.9" y="555" text-anchor="middle" fill="#444">2</text>
<line x1="718.4" y1="540" x2="718.4" y2="543" stroke="#444"/>
<text x="718.4" y="555" text-anchor="middle" fill="#444">3</text>
<line x1="745.8" y1="540" x2="745.8" y2="543" stroke="#444"/>
<text x="745.8" y="555" text-anchor="middle" fill="#444">4</text>
<line x1="773.3" y1="540" x2="773.3" y2="543" stroke="#444"/>
<text x="773.3" y="555" text-anchor="middle" fill="#444">5</text>
<line x1="482" y1="540.0" x2="485" y2="540.0" stroke="#444"/>
<text x="479" y="543.0" text-anchor="end" fill="#444">-38</text>
<line x1="482" y1="500.0" x2="485" y2="500.0" stroke="#444"/>
<text x="479" y="503.0" text-anchor="end" fill="#444">-17</text>
<line x1="482" y1="460.0" x2="485" y2="460.0" stroke="#444"/>
<text x="479" y="463.0" text-anchor="end" fill="#444">4.3</text>
<line x1="482" y1="420.0" x2="485" y2="420.0" stroke="#444"/>
<text x="479" y="423.0" text-anchor="end" fill="#444">25</text>
<line x1="482" y1="380.0" x2="485" y2="380.0" stroke="#444"/>
<text x="479" y="383.0" text-anchor="end" fill="#444">47</text>
<text x="636.0" y="574" text-anchor="middle" fill="#444">Event time (years from state-level adoption)</text>
<text x="437" y="460.0" text-anchor="middle" fill="#444" transform="rotate(-90 437 460.0)">ATT (per 100k)</text>
<rect x="15" y="620" width="380" height="260" fill="#fafaf7" stroke="#e2e2dc"/>
<text x="205.0" y="638" text-anchor="middle" font-weight="600">Motor vehicle theft rate (per 100k, county UCR) [placebo]</text>
<line x1="75" y1="740.6765899162372" x2="377" y2="740.6765899162372" stroke="#aaaaaa" stroke-width="0.7"/>
<polygon points="88.7,721.2 116.2,716.1 143.6,717.4 171.1,727.8 226.0,706.2 253.5,723.4 280.9,736.0 308.4,719.1 335.8,670.0 363.3,682.3 363.3,816.8 335.8,803.5 308.4,830.0 280.9,827.2 253.5,798.2 226.0,799.9 171.1,801.1 143.6,807.1 116.2,824.8 88.7,804.5" fill="#1f3a5f" opacity="0.18"/>
<polyline points="88.7,762.8 116.2,770.5 143.6,762.2 171.1,764.4 226.0,753.1 253.5,760.8 280.9,781.6 308.4,774.6 335.8,736.8 363.3,749.5" fill="none" stroke="#1f3a5f" stroke-width="1.6"/>
<circle cx="88.7" cy="762.8" r="2.6" fill="#1f3a5f"/>
<circle cx="116.2" cy="770.5" r="2.6" fill="#1f3a5f"/>
<circle cx="143.6" cy="762.2" r="2.6" fill="#1f3a5f"/>
<circle cx="171.1" cy="764.4" r="2.6" fill="#1f3a5f"/>
<circle cx="226.0" cy="753.1" r="2.6" fill="#1f3a5f"/>
<circle cx="253.5" cy="760.8" r="2.6" fill="#1f3a5f"/>
<circle cx="280.9" cy="781.6" r="2.6" fill="#1f3a5f"/>
<circle cx="308.4" cy="774.6" r="2.6" fill="#1f3a5f"/>
<circle cx="335.8" cy="736.8" r="2.6" fill="#1f3a5f"/>
<circle cx="363.3" cy="749.5" r="2.6" fill="#1f3a5f"/>
<line x1="212.3" y1="670" x2="212.3" y2="830" stroke="#b9461a" stroke-dasharray="3 3"/>
<line x1="75" y1="830" x2="377" y2="830" stroke="#444"/>
<line x1="75" y1="670" x2="75" y2="830" stroke="#444"/>
<line x1="88.7" y1="830" x2="88.7" y2="833" stroke="#444"/>
<text x="88.7" y="845" text-anchor="middle" fill="#444">-5</text>
<line x1="116.2" y1="830" x2="116.2" y2="833" stroke="#444"/>
<text x="116.2" y="845" text-anchor="middle" fill="#444">-4</text>
<line x1="143.6" y1="830" x2="143.6" y2="833" stroke="#444"/>
<text x="143.6" y="845" text-anchor="middle" fill="#444">-3</text>
<line x1="171.1" y1="830" x2="171.1" y2="833" stroke="#444"/>
<text x="171.1" y="845" text-anchor="middle" fill="#444">-2</text>
<line x1="226.0" y1="830" x2="226.0" y2="833" stroke="#444"/>
<text x="226.0" y="845" text-anchor="middle" fill="#444">0</text>
<line x1="253.5" y1="830" x2="253.5" y2="833" stroke="#444"/>
<text x="253.5" y="845" text-anchor="middle" fill="#444">1</text>
<line x1="280.9" y1="830" x2="280.9" y2="833" stroke="#444"/>
<text x="280.9" y="845" text-anchor="middle" fill="#444">2</text>
<line x1="308.4" y1="830" x2="308.4" y2="833" stroke="#444"/>
<text x="308.4" y="845" text-anchor="middle" fill="#444">3</text>
<line x1="335.8" y1="830" x2="335.8" y2="833" stroke="#444"/>
<text x="335.8" y="845" text-anchor="middle" fill="#444">4</text>
<line x1="363.3" y1="830" x2="363.3" y2="833" stroke="#444"/>
<text x="363.3" y="845" text-anchor="middle" fill="#444">5</text>
<line x1="72" y1="830.0" x2="75" y2="830.0" stroke="#444"/>
<text x="69" y="833.0" text-anchor="end" fill="#444">-23</text>
<line x1="72" y1="790.0" x2="75" y2="790.0" stroke="#444"/>
<text x="69" y="793.0" text-anchor="end" fill="#444">-13</text>
<line x1="72" y1="750.0" x2="75" y2="750.0" stroke="#444"/>
<text x="69" y="753.0" text-anchor="end" fill="#444">-2.4</text>
<line x1="72" y1="710.0" x2="75" y2="710.0" stroke="#444"/>
<text x="69" y="713.0" text-anchor="end" fill="#444">8</text>
<line x1="72" y1="670.0" x2="75" y2="670.0" stroke="#444"/>
<text x="69" y="673.0" text-anchor="end" fill="#444">18</text>
<text x="226.0" y="864" text-anchor="middle" fill="#444">Event time (years from state-level adoption)</text>
<text x="27" y="750.0" text-anchor="middle" fill="#444" transform="rotate(-90 27 750.0)">ATT (per 100k)</text>
<rect x="425" y="620" width="380" height="260" fill="#fafaf7" stroke="#e2e2dc"/>
<text x="615.0" y="638" text-anchor="middle" font-weight="600">State firearm suicide rate (joined down) [no county variation]</text>
<line x1="485" y1="783.3844989600303" x2="787" y2="783.3844989600303" stroke="#aaaaaa" stroke-width="0.7"/>
<polygon points="498.7,798.0 526.2,765.2 553.6,764.5 581.1,789.4 636.0,744.1 663.5,736.0 690.9,718.6 718.4,739.5 745.8,690.3 773.3,670.0 773.3,742.4 745.8,761.7 718.4,779.1 690.9,757.6 663.5,777.9 636.0,792.0 581.1,822.3 553.6,809.7 526.2,810.3 498.7,830.0" fill="#1f3a5f" opacity="0.18"/>
<polyline points="498.7,814.0 526.2,787.8 553.6,787.1 581.1,805.8 636.0,768.1 663.5,757.0 690.9,738.1 718.4,759.3 745.8,726.0 773.3,706.2" fill="none" stroke="#1f3a5f" stroke-width="1.6"/>
<circle cx="498.7" cy="814.0" r="2.6" fill="#1f3a5f"/>
<circle cx="526.2" cy="787.8" r="2.6" fill="#1f3a5f"/>
<circle cx="553.6" cy="787.1" r="2.6" fill="#1f3a5f"/>
<circle cx="581.1" cy="805.8" r="2.6" fill="#1f3a5f"/>
<circle cx="636.0" cy="768.1" r="2.6" fill="#1f3a5f"/>
<circle cx="663.5" cy="757.0" r="2.6" fill="#1f3a5f"/>
<circle cx="690.9" cy="738.1" r="2.6" fill="#1f3a5f"/>
<circle cx="718.4" cy="759.3" r="2.6" fill="#1f3a5f"/>
<circle cx="745.8" cy="726.0" r="2.6" fill="#1f3a5f"/>
<circle cx="773.3" cy="706.2" r="2.6" fill="#1f3a5f"/>
<line x1="622.3" y1="670" x2="622.3" y2="830" stroke="#b9461a" stroke-dasharray="3 3"/>
<line x1="485" y1="830" x2="787" y2="830" stroke="#444"/>
<line x1="485" y1="670" x2="485" y2="830" stroke="#444"/>
<line x1="498.7" y1="830" x2="498.7" y2="833" stroke="#444"/>
<text x="498.7" y="845" text-anchor="middle" fill="#444">-5</text>
<line x1="526.2" y1="830" x2="526.2" y2="833" stroke="#444"/>
<text x="526.2" y="845" text-anchor="middle" fill="#444">-4</text>
<line x1="553.6" y1="830" x2="553.6" y2="833" stroke="#444"/>
<text x="553.6" y="845" text-anchor="middle" fill="#444">-3</text>
<line x1="581.1" y1="830" x2="581.1" y2="833" stroke="#444"/>
<text x="581.1" y="845" text-anchor="middle" fill="#444">-2</text>
<line x1="636.0" y1="830" x2="636.0" y2="833" stroke="#444"/>
<text x="636.0" y="845" text-anchor="middle" fill="#444">0</text>
<line x1="663.5" y1="830" x2="663.5" y2="833" stroke="#444"/>
<text x="663.5" y="845" text-anchor="middle" fill="#444">1</text>
<line x1="690.9" y1="830" x2="690.9" y2="833" stroke="#444"/>
<text x="690.9" y="845" text-anchor="middle" fill="#444">2</text>
<line x1="718.4" y1="830" x2="718.4" y2="833" stroke="#444"/>
<text x="718.4" y="845" text-anchor="middle" fill="#444">3</text>
<line x1="745.8" y1="830" x2="745.8" y2="833" stroke="#444"/>
<text x="745.8" y="845" text-anchor="middle" fill="#444">4</text>
<line x1="773.3" y1="830" x2="773.3" y2="833" stroke="#444"/>
<text x="773.3" y="845" text-anchor="middle" fill="#444">5</text>
<line x1="482" y1="830.0" x2="485" y2="830.0" stroke="#444"/>
<text x="479" y="833.0" text-anchor="end" fill="#444">-0.66</text>
<line x1="482" y1="790.0" x2="485" y2="790.0" stroke="#444"/>
<text x="479" y="793.0" text-anchor="end" fill="#444">-0.094</text>
<line x1="482" y1="750.0" x2="485" y2="750.0" stroke="#444"/>
<text x="479" y="753.0" text-anchor="end" fill="#444">0.48</text>
<line x1="482" y1="710.0" x2="485" y2="710.0" stroke="#444"/>
<text x="479" y="713.0" text-anchor="end" fill="#444">1</text>
<line x1="482" y1="670.0" x2="485" y2="670.0" stroke="#444"/>
<text x="479" y="673.0" text-anchor="end" fill="#444">1.6</text>
<text x="636.0" y="864" text-anchor="middle" fill="#444">Event time (years from state-level adoption)</text>
<text x="437" y="750.0" text-anchor="middle" fill="#444" transform="rotate(-90 437 750.0)">ATT (per 100k)</text>
<rect x="15" y="910" width="380" height="260" fill="#fafaf7" stroke="#e2e2dc"/>
<text x="205.0" y="928" text-anchor="middle" font-weight="600">State total suicide rate (joined down) [no county variation]</text>
<line x1="75" y1="1055.3881851931005" x2="377" y2="1055.3881851931005" stroke="#aaaaaa" stroke-width="0.7"/>
<polygon points="88.7,1076.5 116.2,1037.7 143.6,1050.8 171.1,1058.5 226.0,1025.1 253.5,1007.1 280.9,995.7 308.4,1000.9 335.8,980.7 363.3,960.0 363.3,1052.5 335.8,1035.0 308.4,1059.4 280.9,1058.8 253.5,1052.4 226.0,1067.8 171.1,1096.5 143.6,1095.9 116.2,1085.7 88.7,1120.0" fill="#1f3a5f" opacity="0.18"/>
<polyline points="88.7,1098.3 116.2,1061.7 143.6,1073.4 171.1,1077.5 226.0,1046.4 253.5,1029.8 280.9,1027.3 308.4,1030.2 335.8,1007.8 363.3,1006.3" fill="none" stroke="#1f3a5f" stroke-width="1.6"/>
<circle cx="88.7" cy="1098.3" r="2.6" fill="#1f3a5f"/>
<circle cx="116.2" cy="1061.7" r="2.6" fill="#1f3a5f"/>
<circle cx="143.6" cy="1073.4" r="2.6" fill="#1f3a5f"/>
<circle cx="171.1" cy="1077.5" r="2.6" fill="#1f3a5f"/>
<circle cx="226.0" cy="1046.4" r="2.6" fill="#1f3a5f"/>
<circle cx="253.5" cy="1029.8" r="2.6" fill="#1f3a5f"/>
<circle cx="280.9" cy="1027.3" r="2.6" fill="#1f3a5f"/>
<circle cx="308.4" cy="1030.2" r="2.6" fill="#1f3a5f"/>
<circle cx="335.8" cy="1007.8" r="2.6" fill="#1f3a5f"/>
<circle cx="363.3" cy="1006.3" r="2.6" fill="#1f3a5f"/>
<line x1="212.3" y1="960" x2="212.3" y2="1120" stroke="#b9461a" stroke-dasharray="3 3"/>
<line x1="75" y1="1120" x2="377" y2="1120" stroke="#444"/>
<line x1="75" y1="960" x2="75" y2="1120" stroke="#444"/>
<line x1="88.7" y1="1120" x2="88.7" y2="1123" stroke="#444"/>
<text x="88.7" y="1135" text-anchor="middle" fill="#444">-5</text>
<line x1="116.2" y1="1120" x2="116.2" y2="1123" stroke="#444"/>
<text x="116.2" y="1135" text-anchor="middle" fill="#444">-4</text>
<line x1="143.6" y1="1120" x2="143.6" y2="1123" stroke="#444"/>
<text x="143.6" y="1135" text-anchor="middle" fill="#444">-3</text>
<line x1="171.1" y1="1120" x2="171.1" y2="1123" stroke="#444"/>
<text x="171.1" y="1135" text-anchor="middle" fill="#444">-2</text>
<line x1="226.0" y1="1120" x2="226.0" y2="1123" stroke="#444"/>
<text x="226.0" y="1135" text-anchor="middle" fill="#444">0</text>
<line x1="253.5" y1="1120" x2="253.5" y2="1123" stroke="#444"/>
<text x="253.5" y="1135" text-anchor="middle" fill="#444">1</text>
<line x1="280.9" y1="1120" x2="280.9" y2="1123" stroke="#444"/>
<text x="280.9" y="1135" text-anchor="middle" fill="#444">2</text>
<line x1="308.4" y1="1120" x2="308.4" y2="1123" stroke="#444"/>
<text x="308.4" y="1135" text-anchor="middle" fill="#444">3</text>
<line x1="335.8" y1="1120" x2="335.8" y2="1123" stroke="#444"/>
<text x="335.8" y="1135" text-anchor="middle" fill="#444">4</text>
<line x1="363.3" y1="1120" x2="363.3" y2="1123" stroke="#444"/>
<text x="363.3" y="1135" text-anchor="middle" fill="#444">5</text>
<line x1="72" y1="1120.0" x2="75" y2="1120.0" stroke="#444"/>
<text x="69" y="1123.0" text-anchor="end" fill="#444">-1.2</text>
<line x1="72" y1="1080.0" x2="75" y2="1080.0" stroke="#444"/>
<text x="69" y="1083.0" text-anchor="end" fill="#444">-0.44</text>
<line x1="72" y1="1040.0" x2="75" y2="1040.0" stroke="#444"/>
<text x="69" y="1043.0" text-anchor="end" fill="#444">0.27</text>
<line x1="72" y1="1000.0" x2="75" y2="1000.0" stroke="#444"/>
<text x="69" y="1003.0" text-anchor="end" fill="#444">0.99</text>
<line x1="72" y1="960.0" x2="75" y2="960.0" stroke="#444"/>
<text x="69" y="963.0" text-anchor="end" fill="#444">1.7</text>
<text x="226.0" y="1154" text-anchor="middle" fill="#444">Event time (years from state-level adoption)</text>
<text x="27" y="1040.0" text-anchor="middle" fill="#444" transform="rotate(-90 27 1040.0)">ATT (per 100k)</text>
<rect x="425" y="910" width="380" height="260" fill="#fafaf7" stroke="#e2e2dc"/>
<text x="615.0" y="928" text-anchor="middle" font-weight="600">State firearm homicide rate (joined down) [no county variation]</text>
<line x1="485" y1="1079.0924913006813" x2="787" y2="1079.0924913006813" stroke="#aaaaaa" stroke-width="0.7"/>
<polygon points="498.7,1085.8 526.2,1072.0 553.6,1079.0 581.1,1068.8 636.0,1068.0 663.5,1066.2 690.9,1050.2 718.4,1034.5 745.8,1047.7 773.3,960.0 773.3,1100.0 745.8,1106.6 718.4,1078.2 690.9,1085.9 663.5,1093.2 636.0,1094.1 581.1,1093.5 553.6,1103.7 526.2,1103.8 498.7,1120.0" fill="#1f3a5f" opacity="0.18"/>
<polyline points="498.7,1102.9 526.2,1087.9 553.6,1091.3 581.1,1081.1 636.0,1081.0 663.5,1079.7 690.9,1068.1 718.4,1056.4 745.8,1077.2 773.3,1030.0" fill="none" stroke="#1f3a5f" stroke-width="1.6"/>
<circle cx="498.7" cy="1102.9" r="2.6" fill="#1f3a5f"/>
<circle cx="526.2" cy="1087.9" r="2.6" fill="#1f3a5f"/>
<circle cx="553.6" cy="1091.3" r="2.6" fill="#1f3a5f"/>
<circle cx="581.1" cy="1081.1" r="2.6" fill="#1f3a5f"/>
<circle cx="636.0" cy="1081.0" r="2.6" fill="#1f3a5f"/>
<circle cx="663.5" cy="1079.7" r="2.6" fill="#1f3a5f"/>
<circle cx="690.9" cy="1068.1" r="2.6" fill="#1f3a5f"/>
<circle cx="718.4" cy="1056.4" r="2.6" fill="#1f3a5f"/>
<circle cx="745.8" cy="1077.2" r="2.6" fill="#1f3a5f"/>
<circle cx="773.3" cy="1030.0" r="2.6" fill="#1f3a5f"/>
<line x1="622.3" y1="960" x2="622.3" y2="1120" stroke="#b9461a" stroke-dasharray="3 3"/>
<line x1="485" y1="1120" x2="787" y2="1120" stroke="#444"/>
<line x1="485" y1="960" x2="485" y2="1120" stroke="#444"/>
<line x1="498.7" y1="1120" x2="498.7" y2="1123" stroke="#444"/>
<text x="498.7" y="1135" text-anchor="middle" fill="#444">-5</text>
<line x1="526.2" y1="1120" x2="526.2" y2="1123" stroke="#444"/>
<text x="526.2" y="1135" text-anchor="middle" fill="#444">-4</text>
<line x1="553.6" y1="1120" x2="553.6" y2="1123" stroke="#444"/>
<text x="553.6" y="1135" text-anchor="middle" fill="#444">-3</text>
<line x1="581.1" y1="1120" x2="581.1" y2="1123" stroke="#444"/>
<text x="581.1" y="1135" text-anchor="middle" fill="#444">-2</text>
<line x1="636.0" y1="1120" x2="636.0" y2="1123" stroke="#444"/>
<text x="636.0" y="1135" text-anchor="middle" fill="#444">0</text>
<line x1="663.5" y1="1120" x2="663.5" y2="1123" stroke="#444"/>
<text x="663.5" y="1135" text-anchor="middle" fill="#444">1</text>
<line x1="690.9" y1="1120" x2="690.9" y2="1123" stroke="#444"/>
<text x="690.9" y="1135" text-anchor="middle" fill="#444">2</text>
<line x1="718.4" y1="1120" x2="718.4" y2="1123" stroke="#444"/>
<text x="718.4" y="1135" text-anchor="middle" fill="#444">3</text>
<line x1="745.8" y1="1120" x2="745.8" y2="1123" stroke="#444"/>
<text x="745.8" y="1135" text-anchor="middle" fill="#444">4</text>
<line x1="773.3" y1="1120" x2="773.3" y2="1123" stroke="#444"/>
<text x="773.3" y="1135" text-anchor="middle" fill="#444">5</text>
<line x1="482" y1="1120.0" x2="485" y2="1120.0" stroke="#444"/>
<text x="479" y="1123.0" text-anchor="end" fill="#444">-0.88</text>
<line x1="482" y1="1080.0" x2="485" y2="1080.0" stroke="#444"/>
<text x="479" y="1083.0" text-anchor="end" fill="#444">-0.019</text>
<line x1="482" y1="1040.0" x2="485" y2="1040.0" stroke="#444"/>
<text x="479" y="1043.0" text-anchor="end" fill="#444">0.84</text>
<line x1="482" y1="1000.0" x2="485" y2="1000.0" stroke="#444"/>
<text x="479" y="1003.0" text-anchor="end" fill="#444">1.7</text>
<line x1="482" y1="960.0" x2="485" y2="960.0" stroke="#444"/>
<text x="479" y="963.0" text-anchor="end" fill="#444">2.6</text>
<text x="636.0" y="1154" text-anchor="middle" fill="#444">Event time (years from state-level adoption)</text>
<text x="437" y="1040.0" text-anchor="middle" fill="#444" transform="rotate(-90 437 1040.0)">ATT (per 100k)</text>
<text x="805" y="1188" text-anchor="end" fill="#888" font-size="10">Shaded band: pointwise 95% CI from state-clustered Rademacher bootstrap. Vertical dashed line marks the year before adoption.</text>
</svg>