<svg xmlns="http://www.w3.org/2000/svg" viewBox="0 0 820 1200" font-family="-apple-system, Segoe UI, Helvetica, Arial, sans-serif" font-size="11">
<text x="410.0" y="22" text-anchor="middle" font-size="14" font-weight="600">Callaway-Sant'Anna ATT by event time, county grain (RA) -- permitless carry (law_permitconcealed)</text>
<rect x="15" y="40" width="380" height="260" fill="#fafaf7" stroke="#e2e2dc"/>
<text x="205.0" y="58" text-anchor="middle" font-weight="600">Violent crime rate (per 100k, county UCR)</text>
<line x1="75" y1="145.97376689532166" x2="377" y2="145.97376689532166" stroke="#aaaaaa" stroke-width="0.7"/>
<polygon points="88.7,103.0 116.2,90.0 143.6,125.1 171.1,159.9 226.0,116.2 253.5,138.8 280.9,169.5 308.4,181.9 335.8,152.2 363.3,131.6 363.3,228.6 335.8,233.2 308.4,250.0 280.9,226.1 253.5,189.5 226.0,181.6 171.1,214.1 143.6,199.4 116.2,167.8 88.7,171.8" fill="#1f3a5f" opacity="0.18"/>
<polyline points="88.7,137.4 116.2,128.9 143.6,162.2 171.1,187.0 226.0,148.9 253.5,164.2 280.9,197.8 308.4,216.0 335.8,192.7 363.3,180.1" fill="none" stroke="#1f3a5f" stroke-width="1.6"/>
<circle cx="88.7" cy="137.4" r="2.6" fill="#1f3a5f"/>
<circle cx="116.2" cy="128.9" r="2.6" fill="#1f3a5f"/>
<circle cx="143.6" cy="162.2" r="2.6" fill="#1f3a5f"/>
<circle cx="171.1" cy="187.0" r="2.6" fill="#1f3a5f"/>
<circle cx="226.0" cy="148.9" r="2.6" fill="#1f3a5f"/>
<circle cx="253.5" cy="164.2" r="2.6" fill="#1f3a5f"/>
<circle cx="280.9" cy="197.8" r="2.6" fill="#1f3a5f"/>
<circle cx="308.4" cy="216.0" r="2.6" fill="#1f3a5f"/>
<circle cx="335.8" cy="192.7" r="2.6" fill="#1f3a5f"/>
<circle cx="363.3" cy="180.1" r="2.6" fill="#1f3a5f"/>
<line x1="212.3" y1="90" x2="212.3" y2="250" stroke="#b9461a" stroke-dasharray="3 3"/>
<line x1="75" y1="250" x2="377" y2="250" stroke="#444"/>
<line x1="75" y1="90" x2="75" y2="250" stroke="#444"/>
<line x1="88.7" y1="250" x2="88.7" y2="253" stroke="#444"/>
<text x="88.7" y="265" text-anchor="middle" fill="#444">-5</text>
<line x1="116.2" y1="250" x2="116.2" y2="253" stroke="#444"/>
<text x="116.2" y="265" text-anchor="middle" fill="#444">-4</text>
<line x1="143.6" y1="250" x2="143.6" y2="253" stroke="#444"/>
<text x="143.6" y="265" text-anchor="middle" fill="#444">-3</text>
<line x1="171.1" y1="250" x2="171.1" y2="253" stroke="#444"/>
<text x="171.1" y="265" text-anchor="middle" fill="#444">-2</text>
<line x1="226.0" y1="250" x2="226.0" y2="253" stroke="#444"/>
<text x="226.0" y="265" text-anchor="middle" fill="#444">0</text>
<line x1="253.5" y1="250" x2="253.5" y2="253" stroke="#444"/>
<text x="253.5" y="265" text-anchor="middle" fill="#444">1</text>
<line x1="280.9" y1="250" x2="280.9" y2="253" stroke="#444"/>
<text x="280.9" y="265" text-anchor="middle" fill="#444">2</text>
<line x1="308.4" y1="250" x2="308.4" y2="253" stroke="#444"/>
<text x="308.4" y="265" text-anchor="middle" fill="#444">3</text>
<line x1="335.8" y1="250" x2="335.8" y2="253" stroke="#444"/>
<text x="335.8" y="265" text-anchor="middle" fill="#444">4</text>
<line x1="363.3" y1="250" x2="363.3" y2="253" stroke="#444"/>
<text x="363.3" y="265" text-anchor="middle" fill="#444">5</text>
<line x1="72" y1="250.0" x2="75" y2="250.0" stroke="#444"/>
<text x="69" y="253.0" text-anchor="end" fill="#444">-33</text>
<line x1="72" y1="210.0" x2="75" y2="210.0" stroke="#444"/>
<text x="69" y="213.0" text-anchor="end" fill="#444">-21</text>
<line x1="72" y1="170.0" x2="75" y2="170.0" stroke="#444"/>
<text x="69" y="173.0" text-anchor="end" fill="#444">-7.7</text>
<line x1="72" y1="130.0" x2="75" y2="130.0" stroke="#444"/>
<text x="69" y="133.0" text-anchor="end" fill="#444">5.1</text>
<line x1="72" y1="90.0" x2="75" y2="90.0" stroke="#444"/>
<text x="69" y="93.0" text-anchor="end" fill="#444">18</text>
<text x="226.0" y="284" text-anchor="middle" fill="#444">Event time (years from state-level adoption)</text>
<text x="27" y="170.0" text-anchor="middle" fill="#444" transform="rotate(-90 27 170.0)">ATT (per 100k)</text>
<rect x="425" y="40" width="380" height="260" fill="#fafaf7" stroke="#e2e2dc"/>
<text x="615.0" y="58" text-anchor="middle" font-weight="600">Murder rate (per 100k, county UCR)</text>
<line x1="485" y1="137.60764068949453" x2="787" y2="137.60764068949453" stroke="#aaaaaa" stroke-width="0.7"/>
<polygon points="498.7,118.7 526.2,121.1 553.6,117.1 581.1,140.9 636.0,141.3 663.5,146.6 690.9,135.2 718.4,126.0 745.8,104.9 773.3,90.0 773.3,119.9 745.8,128.7 718.4,149.4 690.9,175.5 663.5,189.6 636.0,190.9 581.1,218.0 553.6,139.6 526.2,250.0 498.7,184.0" fill="#1f3a5f" opacity="0.18"/>
<polyline points="498.7,151.3 526.2,185.5 553.6,128.3 581.1,179.5 636.0,166.1 663.5,168.1 690.9,155.3 718.4,137.7 745.8,116.8 773.3,105.0" fill="none" stroke="#1f3a5f" stroke-width="1.6"/>
<circle cx="498.7" cy="151.3" r="2.6" fill="#1f3a5f"/>
<circle cx="526.2" cy="185.5" r="2.6" fill="#1f3a5f"/>
<circle cx="553.6" cy="128.3" r="2.6" fill="#1f3a5f"/>
<circle cx="581.1" cy="179.5" r="2.6" fill="#1f3a5f"/>
<circle cx="636.0" cy="166.1" r="2.6" fill="#1f3a5f"/>
<circle cx="663.5" cy="168.1" r="2.6" fill="#1f3a5f"/>
<circle cx="690.9" cy="155.3" r="2.6" fill="#1f3a5f"/>
<circle cx="718.4" cy="137.7" r="2.6" fill="#1f3a5f"/>
<circle cx="745.8" cy="116.8" r="2.6" fill="#1f3a5f"/>
<circle cx="773.3" cy="105.0" r="2.6" fill="#1f3a5f"/>
<line x1="622.3" y1="90" x2="622.3" y2="250" stroke="#b9461a" stroke-dasharray="3 3"/>
<line x1="485" y1="250" x2="787" y2="250" stroke="#444"/>
<line x1="485" y1="90" x2="485" y2="250" stroke="#444"/>
<line x1="498.7" y1="250" x2="498.7" y2="253" stroke="#444"/>
<text x="498.7" y="265" text-anchor="middle" fill="#444">-5</text>
<line x1="526.2" y1="250" x2="526.2" y2="253" stroke="#444"/>
<text x="526.2" y="265" text-anchor="middle" fill="#444">-4</text>
<line x1="553.6" y1="250" x2="553.6" y2="253" stroke="#444"/>
<text x="553.6" y="265" text-anchor="middle" fill="#444">-3</text>
<line x1="581.1" y1="250" x2="581.1" y2="253" stroke="#444"/>
<text x="581.1" y="265" text-anchor="middle" fill="#444">-2</text>
<line x1="636.0" y1="250" x2="636.0" y2="253" stroke="#444"/>
<text x="636.0" y="265" text-anchor="middle" fill="#444">0</text>
<line x1="663.5" y1="250" x2="663.5" y2="253" stroke="#444"/>
<text x="663.5" y="265" text-anchor="middle" fill="#444">1</text>
<line x1="690.9" y1="250" x2="690.9" y2="253" stroke="#444"/>
<text x="690.9" y="265" text-anchor="middle" fill="#444">2</text>
<line x1="718.4" y1="250" x2="718.4" y2="253" stroke="#444"/>
<text x="718.4" y="265" text-anchor="middle" fill="#444">3</text>
<line x1="745.8" y1="250" x2="745.8" y2="253" stroke="#444"/>
<text x="745.8" y="265" text-anchor="middle" fill="#444">4</text>
<line x1="773.3" y1="250" x2="773.3" y2="253" stroke="#444"/>
<text x="773.3" y="265" text-anchor="middle" fill="#444">5</text>
<line x1="482" y1="250.0" x2="485" y2="250.0" stroke="#444"/>
<text x="479" y="253.0" text-anchor="end" fill="#444">-3.2</text>
<line x1="482" y1="210.0" x2="485" y2="210.0" stroke="#444"/>
<text x="479" y="213.0" text-anchor="end" fill="#444">-2.1</text>
<line x1="482" y1="170.0" x2="485" y2="170.0" stroke="#444"/>
<text x="479" y="173.0" text-anchor="end" fill="#444">-0.93</text>
<line x1="482" y1="130.0" x2="485" y2="130.0" stroke="#444"/>
<text x="479" y="133.0" text-anchor="end" fill="#444">0.22</text>
<line x1="482" y1="90.0" x2="485" y2="90.0" stroke="#444"/>
<text x="479" y="93.0" text-anchor="end" fill="#444">1.4</text>
<text x="636.0" y="284" text-anchor="middle" fill="#444">Event time (years from state-level adoption)</text>
<text x="437" y="170.0" text-anchor="middle" fill="#444" transform="rotate(-90 437 170.0)">ATT (per 100k)</text>
<rect x="15" y="330" width="380" height="260" fill="#fafaf7" stroke="#e2e2dc"/>
<text x="205.0" y="348" text-anchor="middle" font-weight="600">Property crime rate (per 100k, county UCR)</text>
<line x1="75" y1="478.0062147511048" x2="377" y2="478.0062147511048" stroke="#aaaaaa" stroke-width="0.7"/>
<polygon points="88.7,380.0 116.2,402.0 143.6,417.9 171.1,492.3 226.0,448.5 253.5,449.4 280.9,445.2 308.4,455.1 335.8,433.9 363.3,395.3 363.3,490.9 335.8,519.0 308.4,526.6 280.9,506.1 253.5,494.4 226.0,497.6 171.1,540.0 143.6,503.3 116.2,492.2 88.7,450.9" fill="#1f3a5f" opacity="0.18"/>
<polyline points="88.7,415.5 116.2,447.1 143.6,460.6 171.1,516.2 226.0,473.1 253.5,471.9 280.9,475.7 308.4,490.8 335.8,476.5 363.3,443.1" fill="none" stroke="#1f3a5f" stroke-width="1.6"/>
<circle cx="88.7" cy="415.5" r="2.6" fill="#1f3a5f"/>
<circle cx="116.2" cy="447.1" r="2.6" fill="#1f3a5f"/>
<circle cx="143.6" cy="460.6" r="2.6" fill="#1f3a5f"/>
<circle cx="171.1" cy="516.2" r="2.6" fill="#1f3a5f"/>
<circle cx="226.0" cy="473.1" r="2.6" fill="#1f3a5f"/>
<circle cx="253.5" cy="471.9" r="2.6" fill="#1f3a5f"/>
<circle cx="280.9" cy="475.7" r="2.6" fill="#1f3a5f"/>
<circle cx="308.4" cy="490.8" r="2.6" fill="#1f3a5f"/>
<circle cx="335.8" cy="476.5" r="2.6" fill="#1f3a5f"/>
<circle cx="363.3" cy="443.1" r="2.6" fill="#1f3a5f"/>
<line x1="212.3" y1="380" x2="212.3" y2="540" stroke="#b9461a" stroke-dasharray="3 3"/>
<line x1="75" y1="540" x2="377" y2="540" stroke="#444"/>
<line x1="75" y1="380" x2="75" y2="540" stroke="#444"/>
<line x1="88.7" y1="540" x2="88.7" y2="543" stroke="#444"/>
<text x="88.7" y="555" text-anchor="middle" fill="#444">-5</text>
<line x1="116.2" y1="540" x2="116.2" y2="543" stroke="#444"/>
<text x="116.2" y="555" text-anchor="middle" fill="#444">-4</text>
<line x1="143.6" y1="540" x2="143.6" y2="543" stroke="#444"/>
<text x="143.6" y="555" text-anchor="middle" fill="#444">-3</text>
<line x1="171.1" y1="540" x2="171.1" y2="543" stroke="#444"/>
<text x="171.1" y="555" text-anchor="middle" fill="#444">-2</text>
<line x1="226.0" y1="540" x2="226.0" y2="543" stroke="#444"/>
<text x="226.0" y="555" text-anchor="middle" fill="#444">0</text>
<line x1="253.5" y1="540" x2="253.5" y2="543" stroke="#444"/>
<text x="253.5" y="555" text-anchor="middle" fill="#444">1</text>
<line x1="280.9" y1="540" x2="280.9" y2="543" stroke="#444"/>
<text x="280.9" y="555" text-anchor="middle" fill="#444">2</text>
<line x1="308.4" y1="540" x2="308.4" y2="543" stroke="#444"/>
<text x="308.4" y="555" text-anchor="middle" fill="#444">3</text>
<line x1="335.8" y1="540" x2="335.8" y2="543" stroke="#444"/>
<text x="335.8" y="555" text-anchor="middle" fill="#444">4</text>
<line x1="363.3" y1="540" x2="363.3" y2="543" stroke="#444"/>
<text x="363.3" y="555" text-anchor="middle" fill="#444">5</text>
<line x1="72" y1="540.0" x2="75" y2="540.0" stroke="#444"/>
<text x="69" y="543.0" text-anchor="end" fill="#444">-78</text>
<line x1="72" y1="500.0" x2="75" y2="500.0" stroke="#444"/>
<text x="69" y="503.0" text-anchor="end" fill="#444">-28</text>
<line x1="72" y1="460.0" x2="75" y2="460.0" stroke="#444"/>
<text x="69" y="463.0" text-anchor="end" fill="#444">23</text>
<line x1="72" y1="420.0" x2="75" y2="420.0" stroke="#444"/>
<text x="69" y="423.0" text-anchor="end" fill="#444">73</text>
<line x1="72" y1="380.0" x2="75" y2="380.0" stroke="#444"/>
<text x="69" y="383.0" text-anchor="end" fill="#444">1.2e+02</text>
<text x="226.0" y="574" text-anchor="middle" fill="#444">Event time (years from state-level adoption)</text>
<text x="27" y="460.0" text-anchor="middle" fill="#444" transform="rotate(-90 27 460.0)">ATT (per 100k)</text>
<rect x="425" y="330" width="380" height="260" fill="#fafaf7" stroke="#e2e2dc"/>
<text x="615.0" y="348" text-anchor="middle" font-weight="600">Burglary rate (per 100k, county UCR)</text>
<line x1="485" y1="460.32096585160116" x2="787" y2="460.32096585160116" stroke="#aaaaaa" stroke-width="0.7"/>
<polygon points="498.7,380.0 526.2,398.0 553.6,451.2 581.1,462.5 636.0,430.6 663.5,439.9 690.9,457.5 718.4,472.5 745.8,444.4 773.3,409.6 773.3,500.4 745.8,540.0 718.4,526.1 690.9,506.8 663.5,480.3 636.0,466.1 581.1,497.3 553.6,499.1 526.2,465.4 498.7,441.0" fill="#1f3a5f" opacity="0.18"/>
<polyline points="498.7,410.5 526.2,431.7 553.6,475.2 581.1,479.9 636.0,448.4 663.5,460.1 690.9,482.1 718.4,499.3 745.8,492.2 773.3,455.0" fill="none" stroke="#1f3a5f" stroke-width="1.6"/>
<circle cx="498.7" cy="410.5" r="2.6" fill="#1f3a5f"/>
<circle cx="526.2" cy="431.7" r="2.6" fill="#1f3a5f"/>
<circle cx="553.6" cy="475.2" r="2.6" fill="#1f3a5f"/>
<circle cx="581.1" cy="479.9" r="2.6" fill="#1f3a5f"/>
<circle cx="636.0" cy="448.4" r="2.6" fill="#1f3a5f"/>
<circle cx="663.5" cy="460.1" r="2.6" fill="#1f3a5f"/>
<circle cx="690.9" cy="482.1" r="2.6" fill="#1f3a5f"/>
<circle cx="718.4" cy="499.3" r="2.6" fill="#1f3a5f"/>
<circle cx="745.8" cy="492.2" r="2.6" fill="#1f3a5f"/>
<circle cx="773.3" cy="455.0" r="2.6" fill="#1f3a5f"/>
<line x1="622.3" y1="380" x2="622.3" y2="540" stroke="#b9461a" stroke-dasharray="3 3"/>
<line x1="485" y1="540" x2="787" y2="540" stroke="#444"/>
<line x1="485" y1="380" x2="485" y2="540" stroke="#444"/>
<line x1="498.7" y1="540" x2="498.7" y2="543" stroke="#444"/>
<text x="498.7" y="555" text-anchor="middle" fill="#444">-5</text>
<line x1="526.2" y1="540" x2="526.2" y2="543" stroke="#444"/>
<text x="526.2" y="555" text-anchor="middle" fill="#444">-4</text>
<line x1="553.6" y1="540" x2="553.6" y2="543" stroke="#444"/>
<text x="553.6" y="555" text-anchor="middle" fill="#444">-3</text>
<line x1="581.1" y1="540" x2="581.1" y2="543" stroke="#444"/>
<text x="581.1" y="555" text-anchor="middle" fill="#444">-2</text>
<line x1="636.0" y1="540" x2="636.0" y2="543" stroke="#444"/>
<text x="636.0" y="555" text-anchor="middle" fill="#444">0</text>
<line x1="663.5" y1="540" x2="663.5" y2="543" stroke="#444"/>
<text x="663.5" y="555" text-anchor="middle" fill="#444">1</text>
<line x1="690.9" y1="540" x2="690.9" y2="543" stroke="#444"/>
<text x="690.9" y="555" text-anchor="middle" fill="#444">2</text>
<line x1="718.4" y1="540" x2="718.4" y2="543" stroke="#444"/>
<text x="718.4" y="555" text-anchor="middle" fill="#444">3</text>
<line x1="745.8" y1="540" x2="745.8" y2="543" stroke="#444"/>
<text x="745.8" y="555" text-anchor="middle" fill="#444">4</text>
<line x1="773.3" y1="540" x2="773.3" y2="543" stroke="#444"/>
<text x="773.3" y="555" text-anchor="middle" fill="#444">5</text>
<line x1="482" y1="540.0" x2="485" y2="540.0" stroke="#444"/>
<text x="479" y="543.0" text-anchor="end" fill="#444">-33</text>
<line x1="482" y1="500.0" x2="485" y2="500.0" stroke="#444"/>
<text x="479" y="503.0" text-anchor="end" fill="#444">-16</text>
<line x1="482" y1="460.0" x2="485" y2="460.0" stroke="#444"/>
<text x="479" y="463.0" text-anchor="end" fill="#444">0.13</text>
<line x1="482" y1="420.0" x2="485" y2="420.0" stroke="#444"/>
<text x="479" y="423.0" text-anchor="end" fill="#444">17</text>
<line x1="482" y1="380.0" x2="485" y2="380.0" stroke="#444"/>
<text x="479" y="383.0" text-anchor="end" fill="#444">33</text>
<text x="636.0" y="574" text-anchor="middle" fill="#444">Event time (years from state-level adoption)</text>
<text x="437" y="460.0" text-anchor="middle" fill="#444" transform="rotate(-90 437 460.0)">ATT (per 100k)</text>
<rect x="15" y="620" width="380" height="260" fill="#fafaf7" stroke="#e2e2dc"/>
<text x="205.0" y="638" text-anchor="middle" font-weight="600">Motor vehicle theft rate (per 100k, county UCR) [placebo]</text>
<line x1="75" y1="696.5926653319451" x2="377" y2="696.5926653319451" stroke="#aaaaaa" stroke-width="0.7"/>
<polygon points="88.7,674.6 116.2,674.2 143.6,683.6 171.1,704.9 226.0,701.0 253.5,674.8 280.9,700.6 308.4,696.3 335.8,670.8 363.3,670.0 363.3,761.4 335.8,774.7 308.4,777.3 280.9,771.2 253.5,731.4 226.0,823.9 171.1,795.9 143.6,760.4 116.2,830.0 88.7,749.2" fill="#1f3a5f" opacity="0.18"/>
<polyline points="88.7,711.9 116.2,752.1 143.6,722.0 171.1,750.4 226.0,762.5 253.5,703.1 280.9,735.9 308.4,736.8 335.8,722.8 363.3,715.7" fill="none" stroke="#1f3a5f" stroke-width="1.6"/>
<circle cx="88.7" cy="711.9" r="2.6" fill="#1f3a5f"/>
<circle cx="116.2" cy="752.1" r="2.6" fill="#1f3a5f"/>
<circle cx="143.6" cy="722.0" r="2.6" fill="#1f3a5f"/>
<circle cx="171.1" cy="750.4" r="2.6" fill="#1f3a5f"/>
<circle cx="226.0" cy="762.5" r="2.6" fill="#1f3a5f"/>
<circle cx="253.5" cy="703.1" r="2.6" fill="#1f3a5f"/>
<circle cx="280.9" cy="735.9" r="2.6" fill="#1f3a5f"/>
<circle cx="308.4" cy="736.8" r="2.6" fill="#1f3a5f"/>
<circle cx="335.8" cy="722.8" r="2.6" fill="#1f3a5f"/>
<circle cx="363.3" cy="715.7" r="2.6" fill="#1f3a5f"/>
<line x1="212.3" y1="670" x2="212.3" y2="830" stroke="#b9461a" stroke-dasharray="3 3"/>
<line x1="75" y1="830" x2="377" y2="830" stroke="#444"/>
<line x1="75" y1="670" x2="75" y2="830" stroke="#444"/>
<line x1="88.7" y1="830" x2="88.7" y2="833" stroke="#444"/>
<text x="88.7" y="845" text-anchor="middle" fill="#444">-5</text>
<line x1="116.2" y1="830" x2="116.2" y2="833" stroke="#444"/>
<text x="116.2" y="845" text-anchor="middle" fill="#444">-4</text>
<line x1="143.6" y1="830" x2="143.6" y2="833" stroke="#444"/>
<text x="143.6" y="845" text-anchor="middle" fill="#444">-3</text>
<line x1="171.1" y1="830" x2="171.1" y2="833" stroke="#444"/>
<text x="171.1" y="845" text-anchor="middle" fill="#444">-2</text>
<line x1="226.0" y1="830" x2="226.0" y2="833" stroke="#444"/>
<text x="226.0" y="845" text-anchor="middle" fill="#444">0</text>
<line x1="253.5" y1="830" x2="253.5" y2="833" stroke="#444"/>
<text x="253.5" y="845" text-anchor="middle" fill="#444">1</text>
<line x1="280.9" y1="830" x2="280.9" y2="833" stroke="#444"/>
<text x="280.9" y="845" text-anchor="middle" fill="#444">2</text>
<line x1="308.4" y1="830" x2="308.4" y2="833" stroke="#444"/>
<text x="308.4" y="845" text-anchor="middle" fill="#444">3</text>
<line x1="335.8" y1="830" x2="335.8" y2="833" stroke="#444"/>
<text x="335.8" y="845" text-anchor="middle" fill="#444">4</text>
<line x1="363.3" y1="830" x2="363.3" y2="833" stroke="#444"/>
<text x="363.3" y="845" text-anchor="middle" fill="#444">5</text>
<line x1="72" y1="830.0" x2="75" y2="830.0" stroke="#444"/>
<text x="69" y="833.0" text-anchor="end" fill="#444">-25</text>
<line x1="72" y1="790.0" x2="75" y2="790.0" stroke="#444"/>
<text x="69" y="793.0" text-anchor="end" fill="#444">-18</text>
<line x1="72" y1="750.0" x2="75" y2="750.0" stroke="#444"/>
<text x="69" y="753.0" text-anchor="end" fill="#444">-10</text>
<line x1="72" y1="710.0" x2="75" y2="710.0" stroke="#444"/>
<text x="69" y="713.0" text-anchor="end" fill="#444">-2.5</text>
<line x1="72" y1="670.0" x2="75" y2="670.0" stroke="#444"/>
<text x="69" y="673.0" text-anchor="end" fill="#444">5</text>
<text x="226.0" y="864" text-anchor="middle" fill="#444">Event time (years from state-level adoption)</text>
<text x="27" y="750.0" text-anchor="middle" fill="#444" transform="rotate(-90 27 750.0)">ATT (per 100k)</text>
<rect x="425" y="620" width="380" height="260" fill="#fafaf7" stroke="#e2e2dc"/>
<text x="615.0" y="638" text-anchor="middle" font-weight="600">State firearm suicide rate (joined down) [no county variation]</text>
<line x1="485" y1="786.3479298253395" x2="787" y2="786.3479298253395" stroke="#aaaaaa" stroke-width="0.7"/>
<polygon points="498.7,803.2 526.2,766.5 553.6,764.0 581.1,795.9 636.0,752.9 663.5,734.2 690.9,707.7 718.4,743.9 745.8,689.1 773.3,670.0 773.3,722.7 745.8,741.4 718.4,773.6 690.9,740.7 663.5,768.2 636.0,786.8 581.1,824.1 553.6,802.3 526.2,801.4 498.7,830.0" fill="#1f3a5f" opacity="0.18"/>
<polyline points="498.7,816.6 526.2,783.9 553.6,783.1 581.1,810.0 636.0,769.9 663.5,751.2 690.9,724.2 718.4,758.8 745.8,715.2 773.3,696.4" fill="none" stroke="#1f3a5f" stroke-width="1.6"/>
<circle cx="498.7" cy="816.6" r="2.6" fill="#1f3a5f"/>
<circle cx="526.2" cy="783.9" r="2.6" fill="#1f3a5f"/>
<circle cx="553.6" cy="783.1" r="2.6" fill="#1f3a5f"/>
<circle cx="581.1" cy="810.0" r="2.6" fill="#1f3a5f"/>
<circle cx="636.0" cy="769.9" r="2.6" fill="#1f3a5f"/>
<circle cx="663.5" cy="751.2" r="2.6" fill="#1f3a5f"/>
<circle cx="690.9" cy="724.2" r="2.6" fill="#1f3a5f"/>
<circle cx="718.4" cy="758.8" r="2.6" fill="#1f3a5f"/>
<circle cx="745.8" cy="715.2" r="2.6" fill="#1f3a5f"/>
<circle cx="773.3" cy="696.4" r="2.6" fill="#1f3a5f"/>
<line x1="622.3" y1="670" x2="622.3" y2="830" stroke="#b9461a" stroke-dasharray="3 3"/>
<line x1="485" y1="830" x2="787" y2="830" stroke="#444"/>
<line x1="485" y1="670" x2="485" y2="830" stroke="#444"/>
<line x1="498.7" y1="830" x2="498.7" y2="833" stroke="#444"/>
<text x="498.7" y="845" text-anchor="middle" fill="#444">-5</text>
<line x1="526.2" y1="830" x2="526.2" y2="833" stroke="#444"/>
<text x="526.2" y="845" text-anchor="middle" fill="#444">-4</text>
<line x1="553.6" y1="830" x2="553.6" y2="833" stroke="#444"/>
<text x="553.6" y="845" text-anchor="middle" fill="#444">-3</text>
<line x1="581.1" y1="830" x2="581.1" y2="833" stroke="#444"/>
<text x="581.1" y="845" text-anchor="middle" fill="#444">-2</text>
<line x1="636.0" y1="830" x2="636.0" y2="833" stroke="#444"/>
<text x="636.0" y="845" text-anchor="middle" fill="#444">0</text>
<line x1="663.5" y1="830" x2="663.5" y2="833" stroke="#444"/>
<text x="663.5" y="845" text-anchor="middle" fill="#444">1</text>
<line x1="690.9" y1="830" x2="690.9" y2="833" stroke="#444"/>
<text x="690.9" y="845" text-anchor="middle" fill="#444">2</text>
<line x1="718.4" y1="830" x2="718.4" y2="833" stroke="#444"/>
<text x="718.4" y="845" text-anchor="middle" fill="#444">3</text>
<line x1="745.8" y1="830" x2="745.8" y2="833" stroke="#444"/>
<text x="745.8" y="845" text-anchor="middle" fill="#444">4</text>
<line x1="773.3" y1="830" x2="773.3" y2="833" stroke="#444"/>
<text x="773.3" y="845" text-anchor="middle" fill="#444">5</text>
<line x1="482" y1="830.0" x2="485" y2="830.0" stroke="#444"/>
<text x="479" y="833.0" text-anchor="end" fill="#444">-0.44</text>
<line x1="482" y1="790.0" x2="485" y2="790.0" stroke="#444"/>
<text x="479" y="793.0" text-anchor="end" fill="#444">-0.037</text>
<line x1="482" y1="750.0" x2="485" y2="750.0" stroke="#444"/>
<text x="479" y="753.0" text-anchor="end" fill="#444">0.37</text>
<line x1="482" y1="710.0" x2="485" y2="710.0" stroke="#444"/>
<text x="479" y="713.0" text-anchor="end" fill="#444">0.78</text>
<line x1="482" y1="670.0" x2="485" y2="670.0" stroke="#444"/>
<text x="479" y="673.0" text-anchor="end" fill="#444">1.2</text>
<text x="636.0" y="864" text-anchor="middle" fill="#444">Event time (years from state-level adoption)</text>
<text x="437" y="750.0" text-anchor="middle" fill="#444" transform="rotate(-90 437 750.0)">ATT (per 100k)</text>
<rect x="15" y="910" width="380" height="260" fill="#fafaf7" stroke="#e2e2dc"/>
<text x="205.0" y="928" text-anchor="middle" font-weight="600">State total suicide rate (joined down) [no county variation]</text>
<line x1="75" y1="1049.8767194325599" x2="377" y2="1049.8767194325599" stroke="#aaaaaa" stroke-width="0.7"/>
<polygon points="88.7,1087.0 116.2,1029.2 143.6,1048.7 171.1,1064.0 226.0,1025.5 253.5,999.7 280.9,985.0 308.4,999.4 335.8,971.7 363.3,960.0 363.3,1038.1 335.8,1019.2 308.4,1046.4 280.9,1037.5 253.5,1034.8 226.0,1059.3 171.1,1095.5 143.6,1088.7 116.2,1068.2 88.7,1120.0" fill="#1f3a5f" opacity="0.18"/>
<polyline points="88.7,1103.5 116.2,1048.7 143.6,1068.7 171.1,1079.7 226.0,1042.4 253.5,1017.2 280.9,1011.2 308.4,1022.9 335.8,995.4 363.3,999.1" fill="none" stroke="#1f3a5f" stroke-width="1.6"/>
<circle cx="88.7" cy="1103.5" r="2.6" fill="#1f3a5f"/>
<circle cx="116.2" cy="1048.7" r="2.6" fill="#1f3a5f"/>
<circle cx="143.6" cy="1068.7" r="2.6" fill="#1f3a5f"/>
<circle cx="171.1" cy="1079.7" r="2.6" fill="#1f3a5f"/>
<circle cx="226.0" cy="1042.4" r="2.6" fill="#1f3a5f"/>
<circle cx="253.5" cy="1017.2" r="2.6" fill="#1f3a5f"/>
<circle cx="280.9" cy="1011.2" r="2.6" fill="#1f3a5f"/>
<circle cx="308.4" cy="1022.9" r="2.6" fill="#1f3a5f"/>
<circle cx="335.8" cy="995.4" r="2.6" fill="#1f3a5f"/>
<circle cx="363.3" cy="999.1" r="2.6" fill="#1f3a5f"/>
<line x1="212.3" y1="960" x2="212.3" y2="1120" stroke="#b9461a" stroke-dasharray="3 3"/>
<line x1="75" y1="1120" x2="377" y2="1120" stroke="#444"/>
<line x1="75" y1="960" x2="75" y2="1120" stroke="#444"/>
<line x1="88.7" y1="1120" x2="88.7" y2="1123" stroke="#444"/>
<text x="88.7" y="1135" text-anchor="middle" fill="#444">-5</text>
<line x1="116.2" y1="1120" x2="116.2" y2="1123" stroke="#444"/>
<text x="116.2" y="1135" text-anchor="middle" fill="#444">-4</text>
<line x1="143.6" y1="1120" x2="143.6" y2="1123" stroke="#444"/>
<text x="143.6" y="1135" text-anchor="middle" fill="#444">-3</text>
<line x1="171.1" y1="1120" x2="171.1" y2="1123" stroke="#444"/>
<text x="171.1" y="1135" text-anchor="middle" fill="#444">-2</text>
<line x1="226.0" y1="1120" x2="226.0" y2="1123" stroke="#444"/>
<text x="226.0" y="1135" text-anchor="middle" fill="#444">0</text>
<line x1="253.5" y1="1120" x2="253.5" y2="1123" stroke="#444"/>
<text x="253.5" y="1135" text-anchor="middle" fill="#444">1</text>
<line x1="280.9" y1="1120" x2="280.9" y2="1123" stroke="#444"/>
<text x="280.9" y="1135" text-anchor="middle" fill="#444">2</text>
<line x1="308.4" y1="1120" x2="308.4" y2="1123" stroke="#444"/>
<text x="308.4" y="1135" text-anchor="middle" fill="#444">3</text>
<line x1="335.8" y1="1120" x2="335.8" y2="1123" stroke="#444"/>
<text x="335.8" y="1135" text-anchor="middle" fill="#444">4</text>
<line x1="363.3" y1="1120" x2="363.3" y2="1123" stroke="#444"/>
<text x="363.3" y="1135" text-anchor="middle" fill="#444">5</text>
<line x1="72" y1="1120.0" x2="75" y2="1120.0" stroke="#444"/>
<text x="69" y="1123.0" text-anchor="end" fill="#444">-0.83</text>
<line x1="72" y1="1080.0" x2="75" y2="1080.0" stroke="#444"/>
<text x="69" y="1083.0" text-anchor="end" fill="#444">-0.36</text>
<line x1="72" y1="1040.0" x2="75" y2="1040.0" stroke="#444"/>
<text x="69" y="1043.0" text-anchor="end" fill="#444">0.12</text>
<line x1="72" y1="1000.0" x2="75" y2="1000.0" stroke="#444"/>
<text x="69" y="1003.0" text-anchor="end" fill="#444">0.59</text>
<line x1="72" y1="960.0" x2="75" y2="960.0" stroke="#444"/>
<text x="69" y="963.0" text-anchor="end" fill="#444">1.1</text>
<text x="226.0" y="1154" text-anchor="middle" fill="#444">Event time (years from state-level adoption)</text>
<text x="27" y="1040.0" text-anchor="middle" fill="#444" transform="rotate(-90 27 1040.0)">ATT (per 100k)</text>
<rect x="425" y="910" width="380" height="260" fill="#fafaf7" stroke="#e2e2dc"/>
<text x="615.0" y="928" text-anchor="middle" font-weight="600">State firearm homicide rate (joined down) [no county variation]</text>
<line x1="485" y1="1077.6218543154944" x2="787" y2="1077.6218543154944" stroke="#aaaaaa" stroke-width="0.7"/>
<polygon points="498.7,1093.5 526.2,1070.0 553.6,1078.7 581.1,1072.5 636.0,1076.1 663.5,1077.9 690.9,1061.3 718.4,1040.7 745.8,1069.9 773.3,960.0 773.3,1068.1 745.8,1114.8 718.4,1070.5 690.9,1092.4 663.5,1095.9 636.0,1097.1 581.1,1092.4 553.6,1100.4 526.2,1095.8 498.7,1120.0" fill="#1f3a5f" opacity="0.18"/>
<polyline points="498.7,1106.7 526.2,1082.9 553.6,1089.6 581.1,1082.5 636.0,1086.6 663.5,1086.9 690.9,1076.9 718.4,1055.6 745.8,1092.3 773.3,1014.0" fill="none" stroke="#1f3a5f" stroke-width="1.6"/>
<circle cx="498.7" cy="1106.7" r="2.6" fill="#1f3a5f"/>
<circle cx="526.2" cy="1082.9" r="2.6" fill="#1f3a5f"/>
<circle cx="553.6" cy="1089.6" r="2.6" fill="#1f3a5f"/>
<circle cx="581.1" cy="1082.5" r="2.6" fill="#1f3a5f"/>
<circle cx="636.0" cy="1086.6" r="2.6" fill="#1f3a5f"/>
<circle cx="663.5" cy="1086.9" r="2.6" fill="#1f3a5f"/>
<circle cx="690.9" cy="1076.9" r="2.6" fill="#1f3a5f"/>
<circle cx="718.4" cy="1055.6" r="2.6" fill="#1f3a5f"/>
<circle cx="745.8" cy="1092.3" r="2.6" fill="#1f3a5f"/>
<circle cx="773.3" cy="1014.0" r="2.6" fill="#1f3a5f"/>
<line x1="622.3" y1="960" x2="622.3" y2="1120" stroke="#b9461a" stroke-dasharray="3 3"/>
<line x1="485" y1="1120" x2="787" y2="1120" stroke="#444"/>
<line x1="485" y1="960" x2="485" y2="1120" stroke="#444"/>
<line x1="498.7" y1="1120" x2="498.7" y2="1123" stroke="#444"/>
<text x="498.7" y="1135" text-anchor="middle" fill="#444">-5</text>
<line x1="526.2" y1="1120" x2="526.2" y2="1123" stroke="#444"/>
<text x="526.2" y="1135" text-anchor="middle" fill="#444">-4</text>
<line x1="553.6" y1="1120" x2="553.6" y2="1123" stroke="#444"/>
<text x="553.6" y="1135" text-anchor="middle" fill="#444">-3</text>
<line x1="581.1" y1="1120" x2="581.1" y2="1123" stroke="#444"/>
<text x="581.1" y="1135" text-anchor="middle" fill="#444">-2</text>
<line x1="636.0" y1="1120" x2="636.0" y2="1123" stroke="#444"/>
<text x="636.0" y="1135" text-anchor="middle" fill="#444">0</text>
<line x1="663.5" y1="1120" x2="663.5" y2="1123" stroke="#444"/>
<text x="663.5" y="1135" text-anchor="middle" fill="#444">1</text>
<line x1="690.9" y1="1120" x2="690.9" y2="1123" stroke="#444"/>
<text x="690.9" y="1135" text-anchor="middle" fill="#444">2</text>
<line x1="718.4" y1="1120" x2="718.4" y2="1123" stroke="#444"/>
<text x="718.4" y="1135" text-anchor="middle" fill="#444">3</text>
<line x1="745.8" y1="1120" x2="745.8" y2="1123" stroke="#444"/>
<text x="745.8" y="1135" text-anchor="middle" fill="#444">4</text>
<line x1="773.3" y1="1120" x2="773.3" y2="1123" stroke="#444"/>
<text x="773.3" y="1135" text-anchor="middle" fill="#444">5</text>
<line x1="482" y1="1120.0" x2="485" y2="1120.0" stroke="#444"/>
<text x="479" y="1123.0" text-anchor="end" fill="#444">-0.59</text>
<line x1="482" y1="1080.0" x2="485" y2="1080.0" stroke="#444"/>
<text x="479" y="1083.0" text-anchor="end" fill="#444">-0.033</text>
<line x1="482" y1="1040.0" x2="485" y2="1040.0" stroke="#444"/>
<text x="479" y="1043.0" text-anchor="end" fill="#444">0.53</text>
<line x1="482" y1="1000.0" x2="485" y2="1000.0" stroke="#444"/>
<text x="479" y="1003.0" text-anchor="end" fill="#444">1.1</text>
<line x1="482" y1="960.0" x2="485" y2="960.0" stroke="#444"/>
<text x="479" y="963.0" text-anchor="end" fill="#444">1.6</text>
<text x="636.0" y="1154" text-anchor="middle" fill="#444">Event time (years from state-level adoption)</text>
<text x="437" y="1040.0" text-anchor="middle" fill="#444" transform="rotate(-90 437 1040.0)">ATT (per 100k)</text>
<text x="805" y="1188" text-anchor="end" fill="#888" font-size="10">Shaded band: pointwise 95% CI from state-clustered Rademacher bootstrap. Vertical dashed line marks the year before adoption.</text>
</svg>