<svg xmlns="http://www.w3.org/2000/svg" viewBox="0 0 820 620" font-family="-apple-system, Segoe UI, Helvetica, Arial, sans-serif" font-size="11">
<text x="410.0" y="22" text-anchor="middle" font-size="14" font-weight="600">Spatial RDD event study (age21_handgun, secondary outcomes)</text>
<rect x="15" y="40" width="380" height="260" fill="#fafaf7" stroke="#e2e2dc"/>
<text x="205.0" y="58" text-anchor="middle" font-weight="600">State firearm suicide rate (per 100,000)</text>
<line x1="75" y1="152.1629876092885" x2="377" y2="152.1629876092885" stroke="#aaaaaa" stroke-width="0.7"/>
<line x1="212.3" y1="90" x2="212.3" y2="250" stroke="#b9461a" stroke-dasharray="3 3"/>
<line x1="88.7" y1="138.4" x2="88.7" y2="90.0" stroke="#1f3a5f" stroke-width="1.4" opacity="1.00"/>
<line x1="84.7" y1="138.4" x2="92.7" y2="138.4" stroke="#1f3a5f" stroke-width="1.2" opacity="1.00"/>
<line x1="84.7" y1="90.0" x2="92.7" y2="90.0" stroke="#1f3a5f" stroke-width="1.2" opacity="1.00"/>
<circle cx="88.7" cy="114.2" r="3.2" fill="#1f3a5f"/>
<line x1="116.2" y1="189.4" x2="116.2" y2="143.3" stroke="#1f3a5f" stroke-width="1.4" opacity="0.35"/>
<line x1="112.2" y1="189.4" x2="120.2" y2="189.4" stroke="#1f3a5f" stroke-width="1.2" opacity="0.35"/>
<line x1="112.2" y1="143.3" x2="120.2" y2="143.3" stroke="#1f3a5f" stroke-width="1.2" opacity="0.35"/>
<circle cx="116.2" cy="166.4" r="3.2" fill="white" stroke="#1f3a5f" stroke-width="1.3" opacity="0.35"/>
<line x1="143.6" y1="212.5" x2="143.6" y2="156.2" stroke="#1f3a5f" stroke-width="1.4" opacity="1.00"/>
<line x1="139.6" y1="212.5" x2="147.6" y2="212.5" stroke="#1f3a5f" stroke-width="1.2" opacity="1.00"/>
<line x1="139.6" y1="156.2" x2="147.6" y2="156.2" stroke="#1f3a5f" stroke-width="1.2" opacity="1.00"/>
<circle cx="143.6" cy="184.3" r="3.2" fill="#1f3a5f"/>
<line x1="171.1" y1="167.2" x2="171.1" y2="126.1" stroke="#1f3a5f" stroke-width="1.4" opacity="0.35"/>
<line x1="167.1" y1="167.2" x2="175.1" y2="167.2" stroke="#1f3a5f" stroke-width="1.2" opacity="0.35"/>
<line x1="167.1" y1="126.1" x2="175.1" y2="126.1" stroke="#1f3a5f" stroke-width="1.2" opacity="0.35"/>
<circle cx="171.1" cy="146.7" r="3.2" fill="white" stroke="#1f3a5f" stroke-width="1.3" opacity="0.35"/>
<line x1="198.5" y1="152.2" x2="198.5" y2="152.2" stroke="#1f3a5f" stroke-width="1.4" opacity="0.35"/>
<line x1="194.5" y1="152.2" x2="202.5" y2="152.2" stroke="#1f3a5f" stroke-width="1.2" opacity="0.35"/>
<line x1="194.5" y1="152.2" x2="202.5" y2="152.2" stroke="#1f3a5f" stroke-width="1.2" opacity="0.35"/>
<circle cx="198.5" cy="152.2" r="3.2" fill="white" stroke="#1f3a5f" stroke-width="1.3" opacity="0.35"/>
<line x1="226.0" y1="177.9" x2="226.0" y2="136.8" stroke="#1f3a5f" stroke-width="1.4" opacity="0.35"/>
<line x1="222.0" y1="177.9" x2="230.0" y2="177.9" stroke="#1f3a5f" stroke-width="1.2" opacity="0.35"/>
<line x1="222.0" y1="136.8" x2="230.0" y2="136.8" stroke="#1f3a5f" stroke-width="1.2" opacity="0.35"/>
<circle cx="226.0" cy="157.4" r="3.2" fill="white" stroke="#1f3a5f" stroke-width="1.3" opacity="0.35"/>
<line x1="253.5" y1="237.7" x2="253.5" y2="200.6" stroke="#1f3a5f" stroke-width="1.4" opacity="1.00"/>
<line x1="249.5" y1="237.7" x2="257.5" y2="237.7" stroke="#1f3a5f" stroke-width="1.2" opacity="1.00"/>
<line x1="249.5" y1="200.6" x2="257.5" y2="200.6" stroke="#1f3a5f" stroke-width="1.2" opacity="1.00"/>
<circle cx="253.5" cy="219.1" r="3.2" fill="#1f3a5f"/>
<line x1="280.9" y1="231.7" x2="280.9" y2="160.1" stroke="#1f3a5f" stroke-width="1.4" opacity="1.00"/>
<line x1="276.9" y1="231.7" x2="284.9" y2="231.7" stroke="#1f3a5f" stroke-width="1.2" opacity="1.00"/>
<line x1="276.9" y1="160.1" x2="284.9" y2="160.1" stroke="#1f3a5f" stroke-width="1.2" opacity="1.00"/>
<circle cx="280.9" cy="195.9" r="3.2" fill="#1f3a5f"/>
<line x1="308.4" y1="206.1" x2="308.4" y2="124.0" stroke="#1f3a5f" stroke-width="1.4" opacity="0.35"/>
<line x1="304.4" y1="206.1" x2="312.4" y2="206.1" stroke="#1f3a5f" stroke-width="1.2" opacity="0.35"/>
<line x1="304.4" y1="124.0" x2="312.4" y2="124.0" stroke="#1f3a5f" stroke-width="1.2" opacity="0.35"/>
<circle cx="308.4" cy="165.0" r="3.2" fill="white" stroke="#1f3a5f" stroke-width="1.3" opacity="0.35"/>
<line x1="335.8" y1="250.0" x2="335.8" y2="155.9" stroke="#1f3a5f" stroke-width="1.4" opacity="1.00"/>
<line x1="331.8" y1="250.0" x2="339.8" y2="250.0" stroke="#1f3a5f" stroke-width="1.2" opacity="1.00"/>
<line x1="331.8" y1="155.9" x2="339.8" y2="155.9" stroke="#1f3a5f" stroke-width="1.2" opacity="1.00"/>
<circle cx="335.8" cy="202.9" r="3.2" fill="#1f3a5f"/>
<line x1="363.3" y1="202.8" x2="363.3" y2="183.5" stroke="#1f3a5f" stroke-width="1.4" opacity="1.00"/>
<line x1="359.3" y1="202.8" x2="367.3" y2="202.8" stroke="#1f3a5f" stroke-width="1.2" opacity="1.00"/>
<line x1="359.3" y1="183.5" x2="367.3" y2="183.5" stroke="#1f3a5f" stroke-width="1.2" opacity="1.00"/>
<circle cx="363.3" cy="193.2" r="3.2" fill="#1f3a5f"/>
<line x1="75" y1="250" x2="377" y2="250" stroke="#444"/>
<line x1="75" y1="90" x2="75" y2="250" stroke="#444"/>
<line x1="88.7" y1="250" x2="88.7" y2="253" stroke="#444"/>
<text x="88.7" y="265" text-anchor="middle" fill="#444">-5</text>
<line x1="116.2" y1="250" x2="116.2" y2="253" stroke="#444"/>
<text x="116.2" y="265" text-anchor="middle" fill="#444">-4</text>
<line x1="143.6" y1="250" x2="143.6" y2="253" stroke="#444"/>
<text x="143.6" y="265" text-anchor="middle" fill="#444">-3</text>
<line x1="171.1" y1="250" x2="171.1" y2="253" stroke="#444"/>
<text x="171.1" y="265" text-anchor="middle" fill="#444">-2</text>
<line x1="198.5" y1="250" x2="198.5" y2="253" stroke="#444"/>
<text x="198.5" y="265" text-anchor="middle" fill="#444">-1</text>
<line x1="226.0" y1="250" x2="226.0" y2="253" stroke="#444"/>
<text x="226.0" y="265" text-anchor="middle" fill="#444">0</text>
<line x1="253.5" y1="250" x2="253.5" y2="253" stroke="#444"/>
<text x="253.5" y="265" text-anchor="middle" fill="#444">1</text>
<line x1="280.9" y1="250" x2="280.9" y2="253" stroke="#444"/>
<text x="280.9" y="265" text-anchor="middle" fill="#444">2</text>
<line x1="308.4" y1="250" x2="308.4" y2="253" stroke="#444"/>
<text x="308.4" y="265" text-anchor="middle" fill="#444">3</text>
<line x1="335.8" y1="250" x2="335.8" y2="253" stroke="#444"/>
<text x="335.8" y="265" text-anchor="middle" fill="#444">4</text>
<line x1="363.3" y1="250" x2="363.3" y2="253" stroke="#444"/>
<text x="363.3" y="265" text-anchor="middle" fill="#444">5</text>
<line x1="72" y1="250.0" x2="75" y2="250.0" stroke="#444"/>
<text x="69" y="253.0" text-anchor="end" fill="#444">-1.2</text>
<line x1="72" y1="210.0" x2="75" y2="210.0" stroke="#444"/>
<text x="69" y="213.0" text-anchor="end" fill="#444">-0.7</text>
<line x1="72" y1="170.0" x2="75" y2="170.0" stroke="#444"/>
<text x="69" y="173.0" text-anchor="end" fill="#444">-0.22</text>
<line x1="72" y1="130.0" x2="75" y2="130.0" stroke="#444"/>
<text x="69" y="133.0" text-anchor="end" fill="#444">0.27</text>
<line x1="72" y1="90.0" x2="75" y2="90.0" stroke="#444"/>
<text x="69" y="93.0" text-anchor="end" fill="#444">0.75</text>
<text x="226.0" y="284" text-anchor="middle" fill="#444">Event time (years from adoption)</text>
<text x="27" y="170.0" text-anchor="middle" fill="#444" transform="rotate(-90 27 170.0)">Coefficient (per 100k)</text>
<rect x="425" y="40" width="380" height="260" fill="#fafaf7" stroke="#e2e2dc"/>
<text x="615.0" y="58" text-anchor="middle" font-weight="600">State total suicide rate (per 100,000)</text>
<line x1="485" y1="149.7200688740577" x2="787" y2="149.7200688740577" stroke="#aaaaaa" stroke-width="0.7"/>
<line x1="622.3" y1="90" x2="622.3" y2="250" stroke="#b9461a" stroke-dasharray="3 3"/>
<line x1="498.7" y1="134.3" x2="498.7" y2="96.8" stroke="#1f3a5f" stroke-width="1.4" opacity="1.00"/>
<line x1="494.7" y1="134.3" x2="502.7" y2="134.3" stroke="#1f3a5f" stroke-width="1.2" opacity="1.00"/>
<line x1="494.7" y1="96.8" x2="502.7" y2="96.8" stroke="#1f3a5f" stroke-width="1.2" opacity="1.00"/>
<circle cx="498.7" cy="115.6" r="3.2" fill="#1f3a5f"/>
<line x1="526.2" y1="140.2" x2="526.2" y2="109.9" stroke="#1f3a5f" stroke-width="1.4" opacity="1.00"/>
<line x1="522.2" y1="140.2" x2="530.2" y2="140.2" stroke="#1f3a5f" stroke-width="1.2" opacity="1.00"/>
<line x1="522.2" y1="109.9" x2="530.2" y2="109.9" stroke="#1f3a5f" stroke-width="1.2" opacity="1.00"/>
<circle cx="526.2" cy="125.0" r="3.2" fill="#1f3a5f"/>
<line x1="553.6" y1="183.8" x2="553.6" y2="112.5" stroke="#1f3a5f" stroke-width="1.4" opacity="0.35"/>
<line x1="549.6" y1="183.8" x2="557.6" y2="183.8" stroke="#1f3a5f" stroke-width="1.2" opacity="0.35"/>
<line x1="549.6" y1="112.5" x2="557.6" y2="112.5" stroke="#1f3a5f" stroke-width="1.2" opacity="0.35"/>
<circle cx="553.6" cy="148.1" r="3.2" fill="white" stroke="#1f3a5f" stroke-width="1.3" opacity="0.35"/>
<line x1="581.1" y1="168.9" x2="581.1" y2="112.5" stroke="#1f3a5f" stroke-width="1.4" opacity="0.35"/>
<line x1="577.1" y1="168.9" x2="585.1" y2="168.9" stroke="#1f3a5f" stroke-width="1.2" opacity="0.35"/>
<line x1="577.1" y1="112.5" x2="585.1" y2="112.5" stroke="#1f3a5f" stroke-width="1.2" opacity="0.35"/>
<circle cx="581.1" cy="140.7" r="3.2" fill="white" stroke="#1f3a5f" stroke-width="1.3" opacity="0.35"/>
<line x1="608.5" y1="149.7" x2="608.5" y2="149.7" stroke="#1f3a5f" stroke-width="1.4" opacity="0.35"/>
<line x1="604.5" y1="149.7" x2="612.5" y2="149.7" stroke="#1f3a5f" stroke-width="1.2" opacity="0.35"/>
<line x1="604.5" y1="149.7" x2="612.5" y2="149.7" stroke="#1f3a5f" stroke-width="1.2" opacity="0.35"/>
<circle cx="608.5" cy="149.7" r="3.2" fill="white" stroke="#1f3a5f" stroke-width="1.3" opacity="0.35"/>
<line x1="636.0" y1="250.0" x2="636.0" y2="163.4" stroke="#1f3a5f" stroke-width="1.4" opacity="1.00"/>
<line x1="632.0" y1="250.0" x2="640.0" y2="250.0" stroke="#1f3a5f" stroke-width="1.2" opacity="1.00"/>
<line x1="632.0" y1="163.4" x2="640.0" y2="163.4" stroke="#1f3a5f" stroke-width="1.2" opacity="1.00"/>
<circle cx="636.0" cy="206.7" r="3.2" fill="#1f3a5f"/>
<line x1="663.5" y1="235.2" x2="663.5" y2="193.6" stroke="#1f3a5f" stroke-width="1.4" opacity="1.00"/>
<line x1="659.5" y1="235.2" x2="667.5" y2="235.2" stroke="#1f3a5f" stroke-width="1.2" opacity="1.00"/>
<line x1="659.5" y1="193.6" x2="667.5" y2="193.6" stroke="#1f3a5f" stroke-width="1.2" opacity="1.00"/>
<circle cx="663.5" cy="214.4" r="3.2" fill="#1f3a5f"/>
<line x1="690.9" y1="211.6" x2="690.9" y2="90.0" stroke="#1f3a5f" stroke-width="1.4" opacity="0.35"/>
<line x1="686.9" y1="211.6" x2="694.9" y2="211.6" stroke="#1f3a5f" stroke-width="1.2" opacity="0.35"/>
<line x1="686.9" y1="90.0" x2="694.9" y2="90.0" stroke="#1f3a5f" stroke-width="1.2" opacity="0.35"/>
<circle cx="690.9" cy="150.8" r="3.2" fill="white" stroke="#1f3a5f" stroke-width="1.3" opacity="0.35"/>
<line x1="718.4" y1="247.1" x2="718.4" y2="156.6" stroke="#1f3a5f" stroke-width="1.4" opacity="1.00"/>
<line x1="714.4" y1="247.1" x2="722.4" y2="247.1" stroke="#1f3a5f" stroke-width="1.2" opacity="1.00"/>
<line x1="714.4" y1="156.6" x2="722.4" y2="156.6" stroke="#1f3a5f" stroke-width="1.2" opacity="1.00"/>
<circle cx="718.4" cy="201.8" r="3.2" fill="#1f3a5f"/>
<line x1="745.8" y1="247.0" x2="745.8" y2="107.6" stroke="#1f3a5f" stroke-width="1.4" opacity="0.35"/>
<line x1="741.8" y1="247.0" x2="749.8" y2="247.0" stroke="#1f3a5f" stroke-width="1.2" opacity="0.35"/>
<line x1="741.8" y1="107.6" x2="749.8" y2="107.6" stroke="#1f3a5f" stroke-width="1.2" opacity="0.35"/>
<circle cx="745.8" cy="177.3" r="3.2" fill="white" stroke="#1f3a5f" stroke-width="1.3" opacity="0.35"/>
<line x1="773.3" y1="192.0" x2="773.3" y2="138.9" stroke="#1f3a5f" stroke-width="1.4" opacity="0.35"/>
<line x1="769.3" y1="192.0" x2="777.3" y2="192.0" stroke="#1f3a5f" stroke-width="1.2" opacity="0.35"/>
<line x1="769.3" y1="138.9" x2="777.3" y2="138.9" stroke="#1f3a5f" stroke-width="1.2" opacity="0.35"/>
<circle cx="773.3" cy="165.5" r="3.2" fill="white" stroke="#1f3a5f" stroke-width="1.3" opacity="0.35"/>
<line x1="485" y1="250" x2="787" y2="250" stroke="#444"/>
<line x1="485" y1="90" x2="485" y2="250" stroke="#444"/>
<line x1="498.7" y1="250" x2="498.7" y2="253" stroke="#444"/>
<text x="498.7" y="265" text-anchor="middle" fill="#444">-5</text>
<line x1="526.2" y1="250" x2="526.2" y2="253" stroke="#444"/>
<text x="526.2" y="265" text-anchor="middle" fill="#444">-4</text>
<line x1="553.6" y1="250" x2="553.6" y2="253" stroke="#444"/>
<text x="553.6" y="265" text-anchor="middle" fill="#444">-3</text>
<line x1="581.1" y1="250" x2="581.1" y2="253" stroke="#444"/>
<text x="581.1" y="265" text-anchor="middle" fill="#444">-2</text>
<line x1="608.5" y1="250" x2="608.5" y2="253" stroke="#444"/>
<text x="608.5" y="265" text-anchor="middle" fill="#444">-1</text>
<line x1="636.0" y1="250" x2="636.0" y2="253" stroke="#444"/>
<text x="636.0" y="265" text-anchor="middle" fill="#444">0</text>
<line x1="663.5" y1="250" x2="663.5" y2="253" stroke="#444"/>
<text x="663.5" y="265" text-anchor="middle" fill="#444">1</text>
<line x1="690.9" y1="250" x2="690.9" y2="253" stroke="#444"/>
<text x="690.9" y="265" text-anchor="middle" fill="#444">2</text>
<line x1="718.4" y1="250" x2="718.4" y2="253" stroke="#444"/>
<text x="718.4" y="265" text-anchor="middle" fill="#444">3</text>
<line x1="745.8" y1="250" x2="745.8" y2="253" stroke="#444"/>
<text x="745.8" y="265" text-anchor="middle" fill="#444">4</text>
<line x1="773.3" y1="250" x2="773.3" y2="253" stroke="#444"/>
<text x="773.3" y="265" text-anchor="middle" fill="#444">5</text>
<line x1="482" y1="250.0" x2="485" y2="250.0" stroke="#444"/>
<text x="479" y="253.0" text-anchor="end" fill="#444">-1.7</text>
<line x1="482" y1="210.0" x2="485" y2="210.0" stroke="#444"/>
<text x="479" y="213.0" text-anchor="end" fill="#444">-1</text>
<line x1="482" y1="170.0" x2="485" y2="170.0" stroke="#444"/>
<text x="479" y="173.0" text-anchor="end" fill="#444">-0.34</text>
<line x1="482" y1="130.0" x2="485" y2="130.0" stroke="#444"/>
<text x="479" y="133.0" text-anchor="end" fill="#444">0.33</text>
<line x1="482" y1="90.0" x2="485" y2="90.0" stroke="#444"/>
<text x="479" y="93.0" text-anchor="end" fill="#444">0.99</text>
<text x="636.0" y="284" text-anchor="middle" fill="#444">Event time (years from adoption)</text>
<text x="437" y="170.0" text-anchor="middle" fill="#444" transform="rotate(-90 437 170.0)">Coefficient (per 100k)</text>
<rect x="15" y="330" width="380" height="260" fill="#fafaf7" stroke="#e2e2dc"/>
<text x="205.0" y="348" text-anchor="middle" font-weight="600">State non-firearm suicide rate (per 100,000) [substitution]</text>
<line x1="75" y1="447.2400271343345" x2="377" y2="447.2400271343345" stroke="#aaaaaa" stroke-width="0.7"/>
<line x1="212.3" y1="380" x2="212.3" y2="540" stroke="#b9461a" stroke-dasharray="3 3"/>
<line x1="88.7" y1="453.0" x2="88.7" y2="429.9" stroke="#1f3a5f" stroke-width="1.4" opacity="0.35"/>
<line x1="84.7" y1="453.0" x2="92.7" y2="453.0" stroke="#1f3a5f" stroke-width="1.2" opacity="0.35"/>
<line x1="84.7" y1="429.9" x2="92.7" y2="429.9" stroke="#1f3a5f" stroke-width="1.2" opacity="0.35"/>
<circle cx="88.7" cy="441.4" r="3.2" fill="white" stroke="#1f3a5f" stroke-width="1.3" opacity="0.35"/>
<line x1="116.2" y1="436.7" x2="116.2" y2="394.4" stroke="#1f3a5f" stroke-width="1.4" opacity="1.00"/>
<line x1="112.2" y1="436.7" x2="120.2" y2="436.7" stroke="#1f3a5f" stroke-width="1.2" opacity="1.00"/>
<line x1="112.2" y1="394.4" x2="120.2" y2="394.4" stroke="#1f3a5f" stroke-width="1.2" opacity="1.00"/>
<circle cx="116.2" cy="415.6" r="3.2" fill="#1f3a5f"/>
<line x1="143.6" y1="446.9" x2="143.6" y2="402.3" stroke="#1f3a5f" stroke-width="1.4" opacity="1.00"/>
<line x1="139.6" y1="446.9" x2="147.6" y2="446.9" stroke="#1f3a5f" stroke-width="1.2" opacity="1.00"/>
<line x1="139.6" y1="402.3" x2="147.6" y2="402.3" stroke="#1f3a5f" stroke-width="1.2" opacity="1.00"/>
<circle cx="143.6" cy="424.6" r="3.2" fill="#1f3a5f"/>
<line x1="171.1" y1="459.4" x2="171.1" y2="425.9" stroke="#1f3a5f" stroke-width="1.4" opacity="0.35"/>
<line x1="167.1" y1="459.4" x2="175.1" y2="459.4" stroke="#1f3a5f" stroke-width="1.2" opacity="0.35"/>
<line x1="167.1" y1="425.9" x2="175.1" y2="425.9" stroke="#1f3a5f" stroke-width="1.2" opacity="0.35"/>
<circle cx="171.1" cy="442.7" r="3.2" fill="white" stroke="#1f3a5f" stroke-width="1.3" opacity="0.35"/>
<line x1="198.5" y1="447.2" x2="198.5" y2="447.2" stroke="#1f3a5f" stroke-width="1.4" opacity="0.35"/>
<line x1="194.5" y1="447.2" x2="202.5" y2="447.2" stroke="#1f3a5f" stroke-width="1.2" opacity="0.35"/>
<line x1="194.5" y1="447.2" x2="202.5" y2="447.2" stroke="#1f3a5f" stroke-width="1.2" opacity="0.35"/>
<circle cx="198.5" cy="447.2" r="3.2" fill="white" stroke="#1f3a5f" stroke-width="1.3" opacity="0.35"/>
<line x1="226.0" y1="540.0" x2="226.0" y2="450.7" stroke="#1f3a5f" stroke-width="1.4" opacity="1.00"/>
<line x1="222.0" y1="540.0" x2="230.0" y2="540.0" stroke="#1f3a5f" stroke-width="1.2" opacity="1.00"/>
<line x1="222.0" y1="450.7" x2="230.0" y2="450.7" stroke="#1f3a5f" stroke-width="1.2" opacity="1.00"/>
<circle cx="226.0" cy="495.3" r="3.2" fill="#1f3a5f"/>
<line x1="253.5" y1="478.2" x2="253.5" y2="444.8" stroke="#1f3a5f" stroke-width="1.4" opacity="0.35"/>
<line x1="249.5" y1="478.2" x2="257.5" y2="478.2" stroke="#1f3a5f" stroke-width="1.2" opacity="0.35"/>
<line x1="249.5" y1="444.8" x2="257.5" y2="444.8" stroke="#1f3a5f" stroke-width="1.2" opacity="0.35"/>
<circle cx="253.5" cy="461.5" r="3.2" fill="white" stroke="#1f3a5f" stroke-width="1.3" opacity="0.35"/>
<line x1="280.9" y1="458.6" x2="280.9" y2="380.0" stroke="#1f3a5f" stroke-width="1.4" opacity="0.35"/>
<line x1="276.9" y1="458.6" x2="284.9" y2="458.6" stroke="#1f3a5f" stroke-width="1.2" opacity="0.35"/>
<line x1="276.9" y1="380.0" x2="284.9" y2="380.0" stroke="#1f3a5f" stroke-width="1.2" opacity="0.35"/>
<circle cx="280.9" cy="419.3" r="3.2" fill="white" stroke="#1f3a5f" stroke-width="1.3" opacity="0.35"/>
<line x1="308.4" y1="512.9" x2="308.4" y2="458.8" stroke="#1f3a5f" stroke-width="1.4" opacity="1.00"/>
<line x1="304.4" y1="512.9" x2="312.4" y2="512.9" stroke="#1f3a5f" stroke-width="1.2" opacity="1.00"/>
<line x1="304.4" y1="458.8" x2="312.4" y2="458.8" stroke="#1f3a5f" stroke-width="1.2" opacity="1.00"/>
<circle cx="308.4" cy="485.9" r="3.2" fill="#1f3a5f"/>
<line x1="335.8" y1="475.9" x2="335.8" y2="401.5" stroke="#1f3a5f" stroke-width="1.4" opacity="0.35"/>
<line x1="331.8" y1="475.9" x2="339.8" y2="475.9" stroke="#1f3a5f" stroke-width="1.2" opacity="0.35"/>
<line x1="331.8" y1="401.5" x2="339.8" y2="401.5" stroke="#1f3a5f" stroke-width="1.2" opacity="0.35"/>
<circle cx="335.8" cy="438.7" r="3.2" fill="white" stroke="#1f3a5f" stroke-width="1.3" opacity="0.35"/>
<line x1="363.3" y1="457.2" x2="363.3" y2="411.6" stroke="#1f3a5f" stroke-width="1.4" opacity="0.35"/>
<line x1="359.3" y1="457.2" x2="367.3" y2="457.2" stroke="#1f3a5f" stroke-width="1.2" opacity="0.35"/>
<line x1="359.3" y1="411.6" x2="367.3" y2="411.6" stroke="#1f3a5f" stroke-width="1.2" opacity="0.35"/>
<circle cx="363.3" cy="434.4" r="3.2" fill="white" stroke="#1f3a5f" stroke-width="1.3" opacity="0.35"/>
<line x1="75" y1="540" x2="377" y2="540" stroke="#444"/>
<line x1="75" y1="380" x2="75" y2="540" stroke="#444"/>
<line x1="88.7" y1="540" x2="88.7" y2="543" stroke="#444"/>
<text x="88.7" y="555" text-anchor="middle" fill="#444">-5</text>
<line x1="116.2" y1="540" x2="116.2" y2="543" stroke="#444"/>
<text x="116.2" y="555" text-anchor="middle" fill="#444">-4</text>
<line x1="143.6" y1="540" x2="143.6" y2="543" stroke="#444"/>
<text x="143.6" y="555" text-anchor="middle" fill="#444">-3</text>
<line x1="171.1" y1="540" x2="171.1" y2="543" stroke="#444"/>
<text x="171.1" y="555" text-anchor="middle" fill="#444">-2</text>
<line x1="198.5" y1="540" x2="198.5" y2="543" stroke="#444"/>
<text x="198.5" y="555" text-anchor="middle" fill="#444">-1</text>
<line x1="226.0" y1="540" x2="226.0" y2="543" stroke="#444"/>
<text x="226.0" y="555" text-anchor="middle" fill="#444">0</text>
<line x1="253.5" y1="540" x2="253.5" y2="543" stroke="#444"/>
<text x="253.5" y="555" text-anchor="middle" fill="#444">1</text>
<line x1="280.9" y1="540" x2="280.9" y2="543" stroke="#444"/>
<text x="280.9" y="555" text-anchor="middle" fill="#444">2</text>
<line x1="308.4" y1="540" x2="308.4" y2="543" stroke="#444"/>
<text x="308.4" y="555" text-anchor="middle" fill="#444">3</text>
<line x1="335.8" y1="540" x2="335.8" y2="543" stroke="#444"/>
<text x="335.8" y="555" text-anchor="middle" fill="#444">4</text>
<line x1="363.3" y1="540" x2="363.3" y2="543" stroke="#444"/>
<text x="363.3" y="555" text-anchor="middle" fill="#444">5</text>
<line x1="72" y1="540.0" x2="75" y2="540.0" stroke="#444"/>
<text x="69" y="543.0" text-anchor="end" fill="#444">-1.7</text>
<line x1="72" y1="500.0" x2="75" y2="500.0" stroke="#444"/>
<text x="69" y="503.0" text-anchor="end" fill="#444">-0.96</text>
<line x1="72" y1="460.0" x2="75" y2="460.0" stroke="#444"/>
<text x="69" y="463.0" text-anchor="end" fill="#444">-0.23</text>
<line x1="72" y1="420.0" x2="75" y2="420.0" stroke="#444"/>
<text x="69" y="423.0" text-anchor="end" fill="#444">0.5</text>
<line x1="72" y1="380.0" x2="75" y2="380.0" stroke="#444"/>
<text x="69" y="383.0" text-anchor="end" fill="#444">1.2</text>
<text x="226.0" y="574" text-anchor="middle" fill="#444">Event time (years from adoption)</text>
<text x="27" y="460.0" text-anchor="middle" fill="#444" transform="rotate(-90 27 460.0)">Coefficient (per 100k)</text>
<rect x="425" y="330" width="380" height="260" fill="#fafaf7" stroke="#e2e2dc"/>
<text x="615.0" y="348" text-anchor="middle" font-weight="600">State firearm homicide rate (per 100,000)</text>
<line x1="485" y1="446.212030257283" x2="787" y2="446.212030257283" stroke="#aaaaaa" stroke-width="0.7"/>
<line x1="622.3" y1="380" x2="622.3" y2="540" stroke="#b9461a" stroke-dasharray="3 3"/>
<line x1="498.7" y1="448.1" x2="498.7" y2="380.0" stroke="#1f3a5f" stroke-width="1.4" opacity="0.35"/>
<line x1="494.7" y1="448.1" x2="502.7" y2="448.1" stroke="#1f3a5f" stroke-width="1.2" opacity="0.35"/>
<line x1="494.7" y1="380.0" x2="502.7" y2="380.0" stroke="#1f3a5f" stroke-width="1.2" opacity="0.35"/>
<circle cx="498.7" cy="414.1" r="3.2" fill="white" stroke="#1f3a5f" stroke-width="1.3" opacity="0.35"/>
<line x1="526.2" y1="457.7" x2="526.2" y2="388.2" stroke="#1f3a5f" stroke-width="1.4" opacity="0.35"/>
<line x1="522.2" y1="457.7" x2="530.2" y2="457.7" stroke="#1f3a5f" stroke-width="1.2" opacity="0.35"/>
<line x1="522.2" y1="388.2" x2="530.2" y2="388.2" stroke="#1f3a5f" stroke-width="1.2" opacity="0.35"/>
<circle cx="526.2" cy="422.9" r="3.2" fill="white" stroke="#1f3a5f" stroke-width="1.3" opacity="0.35"/>
<line x1="553.6" y1="444.0" x2="553.6" y2="417.7" stroke="#1f3a5f" stroke-width="1.4" opacity="1.00"/>
<line x1="549.6" y1="444.0" x2="557.6" y2="444.0" stroke="#1f3a5f" stroke-width="1.2" opacity="1.00"/>
<line x1="549.6" y1="417.7" x2="557.6" y2="417.7" stroke="#1f3a5f" stroke-width="1.2" opacity="1.00"/>
<circle cx="553.6" cy="430.9" r="3.2" fill="#1f3a5f"/>
<line x1="581.1" y1="457.4" x2="581.1" y2="423.9" stroke="#1f3a5f" stroke-width="1.4" opacity="0.35"/>
<line x1="577.1" y1="457.4" x2="585.1" y2="457.4" stroke="#1f3a5f" stroke-width="1.2" opacity="0.35"/>
<line x1="577.1" y1="423.9" x2="585.1" y2="423.9" stroke="#1f3a5f" stroke-width="1.2" opacity="0.35"/>
<circle cx="581.1" cy="440.7" r="3.2" fill="white" stroke="#1f3a5f" stroke-width="1.3" opacity="0.35"/>
<line x1="608.5" y1="446.2" x2="608.5" y2="446.2" stroke="#1f3a5f" stroke-width="1.4" opacity="0.35"/>
<line x1="604.5" y1="446.2" x2="612.5" y2="446.2" stroke="#1f3a5f" stroke-width="1.2" opacity="0.35"/>
<line x1="604.5" y1="446.2" x2="612.5" y2="446.2" stroke="#1f3a5f" stroke-width="1.2" opacity="0.35"/>
<circle cx="608.5" cy="446.2" r="3.2" fill="white" stroke="#1f3a5f" stroke-width="1.3" opacity="0.35"/>
<line x1="636.0" y1="455.3" x2="636.0" y2="433.2" stroke="#1f3a5f" stroke-width="1.4" opacity="0.35"/>
<line x1="632.0" y1="455.3" x2="640.0" y2="455.3" stroke="#1f3a5f" stroke-width="1.2" opacity="0.35"/>
<line x1="632.0" y1="433.2" x2="640.0" y2="433.2" stroke="#1f3a5f" stroke-width="1.2" opacity="0.35"/>
<circle cx="636.0" cy="444.2" r="3.2" fill="white" stroke="#1f3a5f" stroke-width="1.3" opacity="0.35"/>
<line x1="663.5" y1="443.3" x2="663.5" y2="399.5" stroke="#1f3a5f" stroke-width="1.4" opacity="1.00"/>
<line x1="659.5" y1="443.3" x2="667.5" y2="443.3" stroke="#1f3a5f" stroke-width="1.2" opacity="1.00"/>
<line x1="659.5" y1="399.5" x2="667.5" y2="399.5" stroke="#1f3a5f" stroke-width="1.2" opacity="1.00"/>
<circle cx="663.5" cy="421.4" r="3.2" fill="#1f3a5f"/>
<line x1="690.9" y1="479.9" x2="690.9" y2="393.6" stroke="#1f3a5f" stroke-width="1.4" opacity="0.35"/>
<line x1="686.9" y1="479.9" x2="694.9" y2="479.9" stroke="#1f3a5f" stroke-width="1.2" opacity="0.35"/>
<line x1="686.9" y1="393.6" x2="694.9" y2="393.6" stroke="#1f3a5f" stroke-width="1.2" opacity="0.35"/>
<circle cx="690.9" cy="436.7" r="3.2" fill="white" stroke="#1f3a5f" stroke-width="1.3" opacity="0.35"/>
<line x1="718.4" y1="540.0" x2="718.4" y2="440.2" stroke="#1f3a5f" stroke-width="1.4" opacity="0.35"/>
<line x1="714.4" y1="540.0" x2="722.4" y2="540.0" stroke="#1f3a5f" stroke-width="1.2" opacity="0.35"/>
<line x1="714.4" y1="440.2" x2="722.4" y2="440.2" stroke="#1f3a5f" stroke-width="1.2" opacity="0.35"/>
<circle cx="718.4" cy="490.1" r="3.2" fill="white" stroke="#1f3a5f" stroke-width="1.3" opacity="0.35"/>
<line x1="745.8" y1="505.2" x2="745.8" y2="388.1" stroke="#1f3a5f" stroke-width="1.4" opacity="0.35"/>
<line x1="741.8" y1="505.2" x2="749.8" y2="505.2" stroke="#1f3a5f" stroke-width="1.2" opacity="0.35"/>
<line x1="741.8" y1="388.1" x2="749.8" y2="388.1" stroke="#1f3a5f" stroke-width="1.2" opacity="0.35"/>
<circle cx="745.8" cy="446.6" r="3.2" fill="white" stroke="#1f3a5f" stroke-width="1.3" opacity="0.35"/>
<line x1="773.3" y1="526.0" x2="773.3" y2="445.5" stroke="#1f3a5f" stroke-width="1.4" opacity="0.35"/>
<line x1="769.3" y1="526.0" x2="777.3" y2="526.0" stroke="#1f3a5f" stroke-width="1.2" opacity="0.35"/>
<line x1="769.3" y1="445.5" x2="777.3" y2="445.5" stroke="#1f3a5f" stroke-width="1.2" opacity="0.35"/>
<circle cx="773.3" cy="485.7" r="3.2" fill="white" stroke="#1f3a5f" stroke-width="1.3" opacity="0.35"/>
<line x1="485" y1="540" x2="787" y2="540" stroke="#444"/>
<line x1="485" y1="380" x2="485" y2="540" stroke="#444"/>
<line x1="498.7" y1="540" x2="498.7" y2="543" stroke="#444"/>
<text x="498.7" y="555" text-anchor="middle" fill="#444">-5</text>
<line x1="526.2" y1="540" x2="526.2" y2="543" stroke="#444"/>
<text x="526.2" y="555" text-anchor="middle" fill="#444">-4</text>
<line x1="553.6" y1="540" x2="553.6" y2="543" stroke="#444"/>
<text x="553.6" y="555" text-anchor="middle" fill="#444">-3</text>
<line x1="581.1" y1="540" x2="581.1" y2="543" stroke="#444"/>
<text x="581.1" y="555" text-anchor="middle" fill="#444">-2</text>
<line x1="608.5" y1="540" x2="608.5" y2="543" stroke="#444"/>
<text x="608.5" y="555" text-anchor="middle" fill="#444">-1</text>
<line x1="636.0" y1="540" x2="636.0" y2="543" stroke="#444"/>
<text x="636.0" y="555" text-anchor="middle" fill="#444">0</text>
<line x1="663.5" y1="540" x2="663.5" y2="543" stroke="#444"/>
<text x="663.5" y="555" text-anchor="middle" fill="#444">1</text>
<line x1="690.9" y1="540" x2="690.9" y2="543" stroke="#444"/>
<text x="690.9" y="555" text-anchor="middle" fill="#444">2</text>
<line x1="718.4" y1="540" x2="718.4" y2="543" stroke="#444"/>
<text x="718.4" y="555" text-anchor="middle" fill="#444">3</text>
<line x1="745.8" y1="540" x2="745.8" y2="543" stroke="#444"/>
<text x="745.8" y="555" text-anchor="middle" fill="#444">4</text>
<line x1="773.3" y1="540" x2="773.3" y2="543" stroke="#444"/>
<text x="773.3" y="555" text-anchor="middle" fill="#444">5</text>
<line x1="482" y1="540.0" x2="485" y2="540.0" stroke="#444"/>
<text x="479" y="543.0" text-anchor="end" fill="#444">-1.4</text>
<line x1="482" y1="500.0" x2="485" y2="500.0" stroke="#444"/>
<text x="479" y="503.0" text-anchor="end" fill="#444">-0.81</text>
<line x1="482" y1="460.0" x2="485" y2="460.0" stroke="#444"/>
<text x="479" y="463.0" text-anchor="end" fill="#444">-0.21</text>
<line x1="482" y1="420.0" x2="485" y2="420.0" stroke="#444"/>
<text x="479" y="423.0" text-anchor="end" fill="#444">0.39</text>
<line x1="482" y1="380.0" x2="485" y2="380.0" stroke="#444"/>
<text x="479" y="383.0" text-anchor="end" fill="#444">0.99</text>
<text x="636.0" y="574" text-anchor="middle" fill="#444">Event time (years from adoption)</text>
<text x="437" y="460.0" text-anchor="middle" fill="#444" transform="rotate(-90 437 460.0)">Coefficient (per 100k)</text>
<text x="805" y="608" text-anchor="end" fill="#888" font-size="10">Whiskers: pointwise 95% CI from cluster-robust SE. Solid dot = significant at 5%; hollow dot = not significant. Vertical dashed line marks the year before adoption.</text>
</svg>