<svg xmlns="http://www.w3.org/2000/svg" viewBox="0 0 820 910" font-family="-apple-system, Segoe UI, Helvetica, Arial, sans-serif" font-size="11">
<text x="410.0" y="22" text-anchor="middle" font-size="14" font-weight="600">Spatial RDD event study (age21_handgun, primary outcomes)</text>
<rect x="15" y="40" width="380" height="260" fill="#fafaf7" stroke="#e2e2dc"/>
<text x="205.0" y="58" text-anchor="middle" font-weight="600">County violent crime rate (per 100,000)</text>
<line x1="75" y1="153.15348964947094" x2="377" y2="153.15348964947094" stroke="#aaaaaa" stroke-width="0.7"/>
<polygon points="88.7,100.6 116.2,102.8 143.6,90.0 171.1,123.5 198.5,153.2 226.0,151.0 253.5,104.4 280.9,96.5 308.4,122.2 335.8,120.3 363.3,107.7 363.3,192.6 335.8,203.0 308.4,250.0 280.9,140.4 253.5,148.8 226.0,224.8 198.5,153.2 171.1,181.7 143.6,164.9 116.2,161.5 88.7,176.5" fill="#1f3a5f" opacity="0.18"/>
<polyline points="88.7,138.5 116.2,132.1 143.6,127.5 171.1,152.6 198.5,153.2 226.0,187.9 253.5,126.6 280.9,118.5 308.4,186.1 335.8,161.6 363.3,150.1" fill="none" stroke="#1f3a5f" stroke-width="1.6"/>
<circle cx="88.7" cy="138.5" r="2.6" fill="#1f3a5f"/>
<circle cx="116.2" cy="132.1" r="2.6" fill="#1f3a5f"/>
<circle cx="143.6" cy="127.5" r="2.6" fill="#1f3a5f"/>
<circle cx="171.1" cy="152.6" r="2.6" fill="#1f3a5f"/>
<circle cx="198.5" cy="153.2" r="2.6" fill="#1f3a5f"/>
<circle cx="226.0" cy="187.9" r="2.6" fill="#1f3a5f"/>
<circle cx="253.5" cy="126.6" r="2.6" fill="#1f3a5f"/>
<circle cx="280.9" cy="118.5" r="2.6" fill="#1f3a5f"/>
<circle cx="308.4" cy="186.1" r="2.6" fill="#1f3a5f"/>
<circle cx="335.8" cy="161.6" r="2.6" fill="#1f3a5f"/>
<circle cx="363.3" cy="150.1" r="2.6" fill="#1f3a5f"/>
<line x1="212.3" y1="90" x2="212.3" y2="250" stroke="#b9461a" stroke-dasharray="3 3"/>
<line x1="75" y1="250" x2="377" y2="250" stroke="#444"/>
<line x1="75" y1="90" x2="75" y2="250" stroke="#444"/>
<line x1="88.7" y1="250" x2="88.7" y2="253" stroke="#444"/>
<text x="88.7" y="265" text-anchor="middle" fill="#444">-5</text>
<line x1="116.2" y1="250" x2="116.2" y2="253" stroke="#444"/>
<text x="116.2" y="265" text-anchor="middle" fill="#444">-4</text>
<line x1="143.6" y1="250" x2="143.6" y2="253" stroke="#444"/>
<text x="143.6" y="265" text-anchor="middle" fill="#444">-3</text>
<line x1="171.1" y1="250" x2="171.1" y2="253" stroke="#444"/>
<text x="171.1" y="265" text-anchor="middle" fill="#444">-2</text>
<line x1="198.5" y1="250" x2="198.5" y2="253" stroke="#444"/>
<text x="198.5" y="265" text-anchor="middle" fill="#444">-1</text>
<line x1="226.0" y1="250" x2="226.0" y2="253" stroke="#444"/>
<text x="226.0" y="265" text-anchor="middle" fill="#444">0</text>
<line x1="253.5" y1="250" x2="253.5" y2="253" stroke="#444"/>
<text x="253.5" y="265" text-anchor="middle" fill="#444">1</text>
<line x1="280.9" y1="250" x2="280.9" y2="253" stroke="#444"/>
<text x="280.9" y="265" text-anchor="middle" fill="#444">2</text>
<line x1="308.4" y1="250" x2="308.4" y2="253" stroke="#444"/>
<text x="308.4" y="265" text-anchor="middle" fill="#444">3</text>
<line x1="335.8" y1="250" x2="335.8" y2="253" stroke="#444"/>
<text x="335.8" y="265" text-anchor="middle" fill="#444">4</text>
<line x1="363.3" y1="250" x2="363.3" y2="253" stroke="#444"/>
<text x="363.3" y="265" text-anchor="middle" fill="#444">5</text>
<line x1="72" y1="250.0" x2="75" y2="250.0" stroke="#444"/>
<text x="69" y="253.0" text-anchor="end" fill="#444">-1e+02</text>
<line x1="72" y1="210.0" x2="75" y2="210.0" stroke="#444"/>
<text x="69" y="213.0" text-anchor="end" fill="#444">-59</text>
<line x1="72" y1="170.0" x2="75" y2="170.0" stroke="#444"/>
<text x="69" y="173.0" text-anchor="end" fill="#444">-17</text>
<line x1="72" y1="130.0" x2="75" y2="130.0" stroke="#444"/>
<text x="69" y="133.0" text-anchor="end" fill="#444">24</text>
<line x1="72" y1="90.0" x2="75" y2="90.0" stroke="#444"/>
<text x="69" y="93.0" text-anchor="end" fill="#444">65</text>
<text x="226.0" y="284" text-anchor="middle" fill="#444">Event time (years from adoption)</text>
<text x="27" y="170.0" text-anchor="middle" fill="#444" transform="rotate(-90 27 170.0)">Coefficient (per 100k)</text>
<rect x="425" y="40" width="380" height="260" fill="#fafaf7" stroke="#e2e2dc"/>
<text x="615.0" y="58" text-anchor="middle" font-weight="600">County murder rate (per 100,000)</text>
<line x1="485" y1="177.9238534091935" x2="787" y2="177.9238534091935" stroke="#aaaaaa" stroke-width="0.7"/>
<polygon points="498.7,189.9 526.2,156.1 553.6,150.9 581.1,90.0 608.5,177.9 636.0,178.3 663.5,140.9 690.9,139.7 718.4,173.4 745.8,164.8 773.3,176.0 773.3,221.8 745.8,204.5 718.4,250.0 690.9,206.3 663.5,190.5 636.0,219.7 608.5,177.9 581.1,161.5 553.6,219.4 526.2,200.4 498.7,213.8" fill="#1f3a5f" opacity="0.18"/>
<polyline points="498.7,201.9 526.2,178.2 553.6,185.1 581.1,125.8 608.5,177.9 636.0,199.0 663.5,165.7 690.9,173.0 718.4,211.7 745.8,184.7 773.3,198.9" fill="none" stroke="#1f3a5f" stroke-width="1.6"/>
<circle cx="498.7" cy="201.9" r="2.6" fill="#1f3a5f"/>
<circle cx="526.2" cy="178.2" r="2.6" fill="#1f3a5f"/>
<circle cx="553.6" cy="185.1" r="2.6" fill="#1f3a5f"/>
<circle cx="581.1" cy="125.8" r="2.6" fill="#1f3a5f"/>
<circle cx="608.5" cy="177.9" r="2.6" fill="#1f3a5f"/>
<circle cx="636.0" cy="199.0" r="2.6" fill="#1f3a5f"/>
<circle cx="663.5" cy="165.7" r="2.6" fill="#1f3a5f"/>
<circle cx="690.9" cy="173.0" r="2.6" fill="#1f3a5f"/>
<circle cx="718.4" cy="211.7" r="2.6" fill="#1f3a5f"/>
<circle cx="745.8" cy="184.7" r="2.6" fill="#1f3a5f"/>
<circle cx="773.3" cy="198.9" r="2.6" fill="#1f3a5f"/>
<line x1="622.3" y1="90" x2="622.3" y2="250" stroke="#b9461a" stroke-dasharray="3 3"/>
<line x1="485" y1="250" x2="787" y2="250" stroke="#444"/>
<line x1="485" y1="90" x2="485" y2="250" stroke="#444"/>
<line x1="498.7" y1="250" x2="498.7" y2="253" stroke="#444"/>
<text x="498.7" y="265" text-anchor="middle" fill="#444">-5</text>
<line x1="526.2" y1="250" x2="526.2" y2="253" stroke="#444"/>
<text x="526.2" y="265" text-anchor="middle" fill="#444">-4</text>
<line x1="553.6" y1="250" x2="553.6" y2="253" stroke="#444"/>
<text x="553.6" y="265" text-anchor="middle" fill="#444">-3</text>
<line x1="581.1" y1="250" x2="581.1" y2="253" stroke="#444"/>
<text x="581.1" y="265" text-anchor="middle" fill="#444">-2</text>
<line x1="608.5" y1="250" x2="608.5" y2="253" stroke="#444"/>
<text x="608.5" y="265" text-anchor="middle" fill="#444">-1</text>
<line x1="636.0" y1="250" x2="636.0" y2="253" stroke="#444"/>
<text x="636.0" y="265" text-anchor="middle" fill="#444">0</text>
<line x1="663.5" y1="250" x2="663.5" y2="253" stroke="#444"/>
<text x="663.5" y="265" text-anchor="middle" fill="#444">1</text>
<line x1="690.9" y1="250" x2="690.9" y2="253" stroke="#444"/>
<text x="690.9" y="265" text-anchor="middle" fill="#444">2</text>
<line x1="718.4" y1="250" x2="718.4" y2="253" stroke="#444"/>
<text x="718.4" y="265" text-anchor="middle" fill="#444">3</text>
<line x1="745.8" y1="250" x2="745.8" y2="253" stroke="#444"/>
<text x="745.8" y="265" text-anchor="middle" fill="#444">4</text>
<line x1="773.3" y1="250" x2="773.3" y2="253" stroke="#444"/>
<text x="773.3" y="265" text-anchor="middle" fill="#444">5</text>
<line x1="482" y1="250.0" x2="485" y2="250.0" stroke="#444"/>
<text x="479" y="253.0" text-anchor="end" fill="#444">-2.4</text>
<line x1="482" y1="210.0" x2="485" y2="210.0" stroke="#444"/>
<text x="479" y="213.0" text-anchor="end" fill="#444">-1.1</text>
<line x1="482" y1="170.0" x2="485" y2="170.0" stroke="#444"/>
<text x="479" y="173.0" text-anchor="end" fill="#444">0.26</text>
<line x1="482" y1="130.0" x2="485" y2="130.0" stroke="#444"/>
<text x="479" y="133.0" text-anchor="end" fill="#444">1.6</text>
<line x1="482" y1="90.0" x2="485" y2="90.0" stroke="#444"/>
<text x="479" y="93.0" text-anchor="end" fill="#444">2.9</text>
<text x="636.0" y="284" text-anchor="middle" fill="#444">Event time (years from adoption)</text>
<text x="437" y="170.0" text-anchor="middle" fill="#444" transform="rotate(-90 437 170.0)">Coefficient (per 100k)</text>
<rect x="15" y="330" width="380" height="260" fill="#fafaf7" stroke="#e2e2dc"/>
<text x="205.0" y="348" text-anchor="middle" font-weight="600">County property crime rate (per 100,000)</text>
<line x1="75" y1="429.07747503473365" x2="377" y2="429.07747503473365" stroke="#aaaaaa" stroke-width="0.7"/>
<polygon points="88.7,407.9 116.2,386.2 143.6,391.8 171.1,402.6 198.5,429.1 226.0,433.9 253.5,424.9 280.9,380.0 308.4,417.7 335.8,426.7 363.3,420.4 363.3,442.4 335.8,447.5 308.4,456.5 280.9,422.9 253.5,540.0 226.0,468.7 198.5,429.1 171.1,437.5 143.6,427.5 116.2,442.5 88.7,435.3" fill="#1f3a5f" opacity="0.18"/>
<polyline points="88.7,421.6 116.2,414.4 143.6,409.7 171.1,420.0 198.5,429.1 226.0,451.3 253.5,482.4 280.9,401.5 308.4,437.1 335.8,437.1 363.3,431.4" fill="none" stroke="#1f3a5f" stroke-width="1.6"/>
<circle cx="88.7" cy="421.6" r="2.6" fill="#1f3a5f"/>
<circle cx="116.2" cy="414.4" r="2.6" fill="#1f3a5f"/>
<circle cx="143.6" cy="409.7" r="2.6" fill="#1f3a5f"/>
<circle cx="171.1" cy="420.0" r="2.6" fill="#1f3a5f"/>
<circle cx="198.5" cy="429.1" r="2.6" fill="#1f3a5f"/>
<circle cx="226.0" cy="451.3" r="2.6" fill="#1f3a5f"/>
<circle cx="253.5" cy="482.4" r="2.6" fill="#1f3a5f"/>
<circle cx="280.9" cy="401.5" r="2.6" fill="#1f3a5f"/>
<circle cx="308.4" cy="437.1" r="2.6" fill="#1f3a5f"/>
<circle cx="335.8" cy="437.1" r="2.6" fill="#1f3a5f"/>
<circle cx="363.3" cy="431.4" r="2.6" fill="#1f3a5f"/>
<line x1="212.3" y1="380" x2="212.3" y2="540" stroke="#b9461a" stroke-dasharray="3 3"/>
<line x1="75" y1="540" x2="377" y2="540" stroke="#444"/>
<line x1="75" y1="380" x2="75" y2="540" stroke="#444"/>
<line x1="88.7" y1="540" x2="88.7" y2="543" stroke="#444"/>
<text x="88.7" y="555" text-anchor="middle" fill="#444">-5</text>
<line x1="116.2" y1="540" x2="116.2" y2="543" stroke="#444"/>
<text x="116.2" y="555" text-anchor="middle" fill="#444">-4</text>
<line x1="143.6" y1="540" x2="143.6" y2="543" stroke="#444"/>
<text x="143.6" y="555" text-anchor="middle" fill="#444">-3</text>
<line x1="171.1" y1="540" x2="171.1" y2="543" stroke="#444"/>
<text x="171.1" y="555" text-anchor="middle" fill="#444">-2</text>
<line x1="198.5" y1="540" x2="198.5" y2="543" stroke="#444"/>
<text x="198.5" y="555" text-anchor="middle" fill="#444">-1</text>
<line x1="226.0" y1="540" x2="226.0" y2="543" stroke="#444"/>
<text x="226.0" y="555" text-anchor="middle" fill="#444">0</text>
<line x1="253.5" y1="540" x2="253.5" y2="543" stroke="#444"/>
<text x="253.5" y="555" text-anchor="middle" fill="#444">1</text>
<line x1="280.9" y1="540" x2="280.9" y2="543" stroke="#444"/>
<text x="280.9" y="555" text-anchor="middle" fill="#444">2</text>
<line x1="308.4" y1="540" x2="308.4" y2="543" stroke="#444"/>
<text x="308.4" y="555" text-anchor="middle" fill="#444">3</text>
<line x1="335.8" y1="540" x2="335.8" y2="543" stroke="#444"/>
<text x="335.8" y="555" text-anchor="middle" fill="#444">4</text>
<line x1="363.3" y1="540" x2="363.3" y2="543" stroke="#444"/>
<text x="363.3" y="555" text-anchor="middle" fill="#444">5</text>
<line x1="72" y1="540.0" x2="75" y2="540.0" stroke="#444"/>
<text x="69" y="543.0" text-anchor="end" fill="#444">-8.5e+02</text>
<line x1="72" y1="500.0" x2="75" y2="500.0" stroke="#444"/>
<text x="69" y="503.0" text-anchor="end" fill="#444">-5.4e+02</text>
<line x1="72" y1="460.0" x2="75" y2="460.0" stroke="#444"/>
<text x="69" y="463.0" text-anchor="end" fill="#444">-2.4e+02</text>
<line x1="72" y1="420.0" x2="75" y2="420.0" stroke="#444"/>
<text x="69" y="423.0" text-anchor="end" fill="#444">70</text>
<line x1="72" y1="380.0" x2="75" y2="380.0" stroke="#444"/>
<text x="69" y="383.0" text-anchor="end" fill="#444">3.8e+02</text>
<text x="226.0" y="574" text-anchor="middle" fill="#444">Event time (years from adoption)</text>
<text x="27" y="460.0" text-anchor="middle" fill="#444" transform="rotate(-90 27 460.0)">Coefficient (per 100k)</text>
<rect x="425" y="330" width="380" height="260" fill="#fafaf7" stroke="#e2e2dc"/>
<text x="615.0" y="348" text-anchor="middle" font-weight="600">County burglary rate (per 100,000) [placebo]</text>
<line x1="485" y1="460.0164961143582" x2="787" y2="460.0164961143582" stroke="#aaaaaa" stroke-width="0.7"/>
<polygon points="498.7,422.8 526.2,405.9 553.6,407.0 581.1,420.3 608.5,460.0 636.0,483.1 663.5,420.2 690.9,380.0 718.4,447.8 745.8,472.3 773.3,457.2 773.3,501.8 745.8,505.3 718.4,508.4 690.9,450.7 663.5,492.8 636.0,540.0 608.5,460.0 581.1,488.3 553.6,462.5 526.2,479.0 498.7,473.9" fill="#1f3a5f" opacity="0.18"/>
<polyline points="498.7,448.4 526.2,442.5 553.6,434.7 581.1,454.3 608.5,460.0 636.0,511.6 663.5,456.5 690.9,415.3 718.4,478.1 745.8,488.8 773.3,479.5" fill="none" stroke="#1f3a5f" stroke-width="1.6"/>
<circle cx="498.7" cy="448.4" r="2.6" fill="#1f3a5f"/>
<circle cx="526.2" cy="442.5" r="2.6" fill="#1f3a5f"/>
<circle cx="553.6" cy="434.7" r="2.6" fill="#1f3a5f"/>
<circle cx="581.1" cy="454.3" r="2.6" fill="#1f3a5f"/>
<circle cx="608.5" cy="460.0" r="2.6" fill="#1f3a5f"/>
<circle cx="636.0" cy="511.6" r="2.6" fill="#1f3a5f"/>
<circle cx="663.5" cy="456.5" r="2.6" fill="#1f3a5f"/>
<circle cx="690.9" cy="415.3" r="2.6" fill="#1f3a5f"/>
<circle cx="718.4" cy="478.1" r="2.6" fill="#1f3a5f"/>
<circle cx="745.8" cy="488.8" r="2.6" fill="#1f3a5f"/>
<circle cx="773.3" cy="479.5" r="2.6" fill="#1f3a5f"/>
<line x1="622.3" y1="380" x2="622.3" y2="540" stroke="#b9461a" stroke-dasharray="3 3"/>
<line x1="485" y1="540" x2="787" y2="540" stroke="#444"/>
<line x1="485" y1="380" x2="485" y2="540" stroke="#444"/>
<line x1="498.7" y1="540" x2="498.7" y2="543" stroke="#444"/>
<text x="498.7" y="555" text-anchor="middle" fill="#444">-5</text>
<line x1="526.2" y1="540" x2="526.2" y2="543" stroke="#444"/>
<text x="526.2" y="555" text-anchor="middle" fill="#444">-4</text>
<line x1="553.6" y1="540" x2="553.6" y2="543" stroke="#444"/>
<text x="553.6" y="555" text-anchor="middle" fill="#444">-3</text>
<line x1="581.1" y1="540" x2="581.1" y2="543" stroke="#444"/>
<text x="581.1" y="555" text-anchor="middle" fill="#444">-2</text>
<line x1="608.5" y1="540" x2="608.5" y2="543" stroke="#444"/>
<text x="608.5" y="555" text-anchor="middle" fill="#444">-1</text>
<line x1="636.0" y1="540" x2="636.0" y2="543" stroke="#444"/>
<text x="636.0" y="555" text-anchor="middle" fill="#444">0</text>
<line x1="663.5" y1="540" x2="663.5" y2="543" stroke="#444"/>
<text x="663.5" y="555" text-anchor="middle" fill="#444">1</text>
<line x1="690.9" y1="540" x2="690.9" y2="543" stroke="#444"/>
<text x="690.9" y="555" text-anchor="middle" fill="#444">2</text>
<line x1="718.4" y1="540" x2="718.4" y2="543" stroke="#444"/>
<text x="718.4" y="555" text-anchor="middle" fill="#444">3</text>
<line x1="745.8" y1="540" x2="745.8" y2="543" stroke="#444"/>
<text x="745.8" y="555" text-anchor="middle" fill="#444">4</text>
<line x1="773.3" y1="540" x2="773.3" y2="543" stroke="#444"/>
<text x="773.3" y="555" text-anchor="middle" fill="#444">5</text>
<line x1="482" y1="540.0" x2="485" y2="540.0" stroke="#444"/>
<text x="479" y="543.0" text-anchor="end" fill="#444">-1.1e+02</text>
<line x1="482" y1="500.0" x2="485" y2="500.0" stroke="#444"/>
<text x="479" y="503.0" text-anchor="end" fill="#444">-54</text>
<line x1="482" y1="460.0" x2="485" y2="460.0" stroke="#444"/>
<text x="479" y="463.0" text-anchor="end" fill="#444">0.022</text>
<line x1="482" y1="420.0" x2="485" y2="420.0" stroke="#444"/>
<text x="479" y="423.0" text-anchor="end" fill="#444">54</text>
<line x1="482" y1="380.0" x2="485" y2="380.0" stroke="#444"/>
<text x="479" y="383.0" text-anchor="end" fill="#444">1.1e+02</text>
<text x="636.0" y="574" text-anchor="middle" fill="#444">Event time (years from adoption)</text>
<text x="437" y="460.0" text-anchor="middle" fill="#444" transform="rotate(-90 437 460.0)">Coefficient (per 100k)</text>
<rect x="15" y="620" width="380" height="260" fill="#fafaf7" stroke="#e2e2dc"/>
<text x="205.0" y="638" text-anchor="middle" font-weight="600">County motor vehicle theft rate (per 100,000) [placebo]</text>
<line x1="75" y1="743.7034727990981" x2="377" y2="743.7034727990981" stroke="#aaaaaa" stroke-width="0.7"/>
<polygon points="88.7,707.0 116.2,683.0 143.6,670.0 171.1,684.7 198.5,743.7 226.0,717.5 253.5,695.3 280.9,682.1 308.4,726.6 335.8,716.3 363.3,736.4 363.3,772.7 335.8,783.2 308.4,830.0 280.9,754.7 253.5,773.5 226.0,786.3 198.5,743.7 171.1,747.9 143.6,723.4 116.2,745.4 88.7,758.3" fill="#1f3a5f" opacity="0.18"/>
<polyline points="88.7,732.7 116.2,714.2 143.6,696.7 171.1,716.3 198.5,743.7 226.0,751.9 253.5,734.4 280.9,718.4 308.4,778.3 335.8,749.7 363.3,754.5" fill="none" stroke="#1f3a5f" stroke-width="1.6"/>
<circle cx="88.7" cy="732.7" r="2.6" fill="#1f3a5f"/>
<circle cx="116.2" cy="714.2" r="2.6" fill="#1f3a5f"/>
<circle cx="143.6" cy="696.7" r="2.6" fill="#1f3a5f"/>
<circle cx="171.1" cy="716.3" r="2.6" fill="#1f3a5f"/>
<circle cx="198.5" cy="743.7" r="2.6" fill="#1f3a5f"/>
<circle cx="226.0" cy="751.9" r="2.6" fill="#1f3a5f"/>
<circle cx="253.5" cy="734.4" r="2.6" fill="#1f3a5f"/>
<circle cx="280.9" cy="718.4" r="2.6" fill="#1f3a5f"/>
<circle cx="308.4" cy="778.3" r="2.6" fill="#1f3a5f"/>
<circle cx="335.8" cy="749.7" r="2.6" fill="#1f3a5f"/>
<circle cx="363.3" cy="754.5" r="2.6" fill="#1f3a5f"/>
<line x1="212.3" y1="670" x2="212.3" y2="830" stroke="#b9461a" stroke-dasharray="3 3"/>
<line x1="75" y1="830" x2="377" y2="830" stroke="#444"/>
<line x1="75" y1="670" x2="75" y2="830" stroke="#444"/>
<line x1="88.7" y1="830" x2="88.7" y2="833" stroke="#444"/>
<text x="88.7" y="845" text-anchor="middle" fill="#444">-5</text>
<line x1="116.2" y1="830" x2="116.2" y2="833" stroke="#444"/>
<text x="116.2" y="845" text-anchor="middle" fill="#444">-4</text>
<line x1="143.6" y1="830" x2="143.6" y2="833" stroke="#444"/>
<text x="143.6" y="845" text-anchor="middle" fill="#444">-3</text>
<line x1="171.1" y1="830" x2="171.1" y2="833" stroke="#444"/>
<text x="171.1" y="845" text-anchor="middle" fill="#444">-2</text>
<line x1="198.5" y1="830" x2="198.5" y2="833" stroke="#444"/>
<text x="198.5" y="845" text-anchor="middle" fill="#444">-1</text>
<line x1="226.0" y1="830" x2="226.0" y2="833" stroke="#444"/>
<text x="226.0" y="845" text-anchor="middle" fill="#444">0</text>
<line x1="253.5" y1="830" x2="253.5" y2="833" stroke="#444"/>
<text x="253.5" y="845" text-anchor="middle" fill="#444">1</text>
<line x1="280.9" y1="830" x2="280.9" y2="833" stroke="#444"/>
<text x="280.9" y="845" text-anchor="middle" fill="#444">2</text>
<line x1="308.4" y1="830" x2="308.4" y2="833" stroke="#444"/>
<text x="308.4" y="845" text-anchor="middle" fill="#444">3</text>
<line x1="335.8" y1="830" x2="335.8" y2="833" stroke="#444"/>
<text x="335.8" y="845" text-anchor="middle" fill="#444">4</text>
<line x1="363.3" y1="830" x2="363.3" y2="833" stroke="#444"/>
<text x="363.3" y="845" text-anchor="middle" fill="#444">5</text>
<line x1="72" y1="830.0" x2="75" y2="830.0" stroke="#444"/>
<text x="69" y="833.0" text-anchor="end" fill="#444">-40</text>
<line x1="72" y1="790.0" x2="75" y2="790.0" stroke="#444"/>
<text x="69" y="793.0" text-anchor="end" fill="#444">-22</text>
<line x1="72" y1="750.0" x2="75" y2="750.0" stroke="#444"/>
<text x="69" y="753.0" text-anchor="end" fill="#444">-2.9</text>
<line x1="72" y1="710.0" x2="75" y2="710.0" stroke="#444"/>
<text x="69" y="713.0" text-anchor="end" fill="#444">16</text>
<line x1="72" y1="670.0" x2="75" y2="670.0" stroke="#444"/>
<text x="69" y="673.0" text-anchor="end" fill="#444">34</text>
<text x="226.0" y="864" text-anchor="middle" fill="#444">Event time (years from adoption)</text>
<text x="27" y="750.0" text-anchor="middle" fill="#444" transform="rotate(-90 27 750.0)">Coefficient (per 100k)</text>
<text x="805" y="898" text-anchor="end" fill="#888" font-size="10">Shaded band: pointwise 95% CI from cluster-robust SE. Vertical dashed line marks the year before adoption.</text>
</svg>