<svg xmlns="http://www.w3.org/2000/svg" width="900" height="560" viewBox="0 0 900 560">
<rect width="100%" height="100%" fill="#ffffff" />
<text x="450.00" y="28.00" font-family="Arial, sans-serif" font-size="18" fill="#222222" text-anchor="middle">Firearm Suicide Rate</text>
<line x1="92.00" y1="58.00" x2="92.00" y2="486.00" stroke="#222222" stroke-width="1.10" />
<line x1="92.00" y1="486.00" x2="868.00" y2="486.00" stroke="#222222" stroke-width="1.10" />
<line x1="92.00" y1="246.28" x2="868.00" y2="246.28" stroke="#777777" stroke-width="1.00" />
<line x1="528.50" y1="58.00" x2="528.50" y2="486.00" stroke="#999999" stroke-width="1.00" />
<line x1="87.00" y1="486.00" x2="868.00" y2="486.00" stroke="#dddddd" stroke-width="0.70" />
<text x="82.00" y="490.00" font-family="Arial, sans-serif" font-size="11" fill="#333333" text-anchor="end">-1.21</text>
<line x1="87.00" y1="379.00" x2="868.00" y2="379.00" stroke="#dddddd" stroke-width="0.70" />
<text x="82.00" y="383.00" font-family="Arial, sans-serif" font-size="11" fill="#333333" text-anchor="end">-0.668</text>
<line x1="87.00" y1="272.00" x2="868.00" y2="272.00" stroke="#dddddd" stroke-width="0.70" />
<text x="82.00" y="276.00" font-family="Arial, sans-serif" font-size="11" fill="#333333" text-anchor="end">-0.129</text>
<line x1="87.00" y1="165.00" x2="868.00" y2="165.00" stroke="#dddddd" stroke-width="0.70" />
<text x="82.00" y="169.00" font-family="Arial, sans-serif" font-size="11" fill="#333333" text-anchor="end">0.409</text>
<line x1="87.00" y1="58.00" x2="868.00" y2="58.00" stroke="#dddddd" stroke-width="0.70" />
<text x="82.00" y="62.00" font-family="Arial, sans-serif" font-size="11" fill="#333333" text-anchor="end">0.948</text>
<line x1="92.00" y1="486.00" x2="92.00" y2="491.00" stroke="#222222" stroke-width="1.00" />
<text x="92.00" y="508.00" font-family="Arial, sans-serif" font-size="11" fill="#222222" text-anchor="middle">-5</text>
<line x1="189.00" y1="486.00" x2="189.00" y2="491.00" stroke="#222222" stroke-width="1.00" />
<text x="189.00" y="508.00" font-family="Arial, sans-serif" font-size="11" fill="#222222" text-anchor="middle">-4</text>
<line x1="286.00" y1="486.00" x2="286.00" y2="491.00" stroke="#222222" stroke-width="1.00" />
<text x="286.00" y="508.00" font-family="Arial, sans-serif" font-size="11" fill="#222222" text-anchor="middle">-3</text>
<line x1="383.00" y1="486.00" x2="383.00" y2="491.00" stroke="#222222" stroke-width="1.00" />
<text x="383.00" y="508.00" font-family="Arial, sans-serif" font-size="11" fill="#222222" text-anchor="middle">-2</text>
<line x1="480.00" y1="486.00" x2="480.00" y2="491.00" stroke="#222222" stroke-width="1.00" />
<text x="480.00" y="508.00" font-family="Arial, sans-serif" font-size="11" fill="#222222" text-anchor="middle">-1</text>
<line x1="577.00" y1="486.00" x2="577.00" y2="491.00" stroke="#222222" stroke-width="1.00" />
<text x="577.00" y="508.00" font-family="Arial, sans-serif" font-size="11" fill="#222222" text-anchor="middle">0</text>
<line x1="674.00" y1="486.00" x2="674.00" y2="491.00" stroke="#222222" stroke-width="1.00" />
<text x="674.00" y="508.00" font-family="Arial, sans-serif" font-size="11" fill="#222222" text-anchor="middle">1</text>
<line x1="771.00" y1="486.00" x2="771.00" y2="491.00" stroke="#222222" stroke-width="1.00" />
<text x="771.00" y="508.00" font-family="Arial, sans-serif" font-size="11" fill="#222222" text-anchor="middle">2</text>
<line x1="868.00" y1="486.00" x2="868.00" y2="491.00" stroke="#222222" stroke-width="1.00" />
<text x="868.00" y="508.00" font-family="Arial, sans-serif" font-size="11" fill="#222222" text-anchor="middle">3</text>
<line x1="92.00" y1="408.95" x2="92.00" y2="278.52" stroke="#7BA7C4" stroke-width="1.40" />
<line x1="88.00" y1="408.95" x2="96.00" y2="408.95" stroke="#7BA7C4" stroke-width="1.20" />
<line x1="88.00" y1="278.52" x2="96.00" y2="278.52" stroke="#7BA7C4" stroke-width="1.20" />
<line x1="189.00" y1="426.04" x2="189.00" y2="183.10" stroke="#7BA7C4" stroke-width="1.40" />
<line x1="185.00" y1="426.04" x2="193.00" y2="426.04" stroke="#7BA7C4" stroke-width="1.20" />
<line x1="185.00" y1="183.10" x2="193.00" y2="183.10" stroke="#7BA7C4" stroke-width="1.20" />
<line x1="286.00" y1="324.64" x2="286.00" y2="135.56" stroke="#7BA7C4" stroke-width="1.40" />
<line x1="282.00" y1="324.64" x2="290.00" y2="324.64" stroke="#7BA7C4" stroke-width="1.20" />
<line x1="282.00" y1="135.56" x2="290.00" y2="135.56" stroke="#7BA7C4" stroke-width="1.20" />
<line x1="383.00" y1="416.47" x2="383.00" y2="248.26" stroke="#7BA7C4" stroke-width="1.40" />
<line x1="379.00" y1="416.47" x2="387.00" y2="416.47" stroke="#7BA7C4" stroke-width="1.20" />
<line x1="379.00" y1="248.26" x2="387.00" y2="248.26" stroke="#7BA7C4" stroke-width="1.20" />
<line x1="577.00" y1="289.13" x2="577.00" y2="131.77" stroke="#7BA7C4" stroke-width="1.40" />
<line x1="573.00" y1="289.13" x2="581.00" y2="289.13" stroke="#7BA7C4" stroke-width="1.20" />
<line x1="573.00" y1="131.77" x2="581.00" y2="131.77" stroke="#7BA7C4" stroke-width="1.20" />
<line x1="674.00" y1="255.10" x2="674.00" y2="87.52" stroke="#7BA7C4" stroke-width="1.40" />
<line x1="670.00" y1="255.10" x2="678.00" y2="255.10" stroke="#7BA7C4" stroke-width="1.20" />
<line x1="670.00" y1="87.52" x2="678.00" y2="87.52" stroke="#7BA7C4" stroke-width="1.20" />
<line x1="771.00" y1="243.68" x2="771.00" y2="96.16" stroke="#7BA7C4" stroke-width="1.40" />
<line x1="767.00" y1="243.68" x2="775.00" y2="243.68" stroke="#7BA7C4" stroke-width="1.20" />
<line x1="767.00" y1="96.16" x2="775.00" y2="96.16" stroke="#7BA7C4" stroke-width="1.20" />
<line x1="868.00" y1="456.48" x2="868.00" y2="218.76" stroke="#7BA7C4" stroke-width="1.40" />
<line x1="864.00" y1="456.48" x2="872.00" y2="456.48" stroke="#7BA7C4" stroke-width="1.20" />
<line x1="864.00" y1="218.76" x2="872.00" y2="218.76" stroke="#7BA7C4" stroke-width="1.20" />
<path d="M 92.00 343.74 L 189.00 304.57 L 286.00 230.10 L 383.00 332.37 L 577.00 210.45 L 674.00 171.31 L 771.00 169.92 L 868.00 337.62" fill="none" stroke="#125E8A" stroke-width="2" />
<circle cx="92.00" cy="343.74" r="4" fill="#125E8A" />
<circle cx="189.00" cy="304.57" r="4" fill="#125E8A" />
<circle cx="286.00" cy="230.10" r="4" fill="#125E8A" />
<circle cx="383.00" cy="332.37" r="4" fill="#125E8A" />
<circle cx="577.00" cy="210.45" r="4" fill="#125E8A" />
<circle cx="674.00" cy="171.31" r="4" fill="#125E8A" />
<circle cx="771.00" cy="169.92" r="4" fill="#125E8A" />
<circle cx="868.00" cy="337.62" r="4" fill="#125E8A" />
<text x="480.00" y="532.00" font-family="Arial, sans-serif" font-size="12" fill="#222222" text-anchor="middle">Event time relative to permitless-carry adoption</text>
<text x="20" y="272.00" font-family="Arial, sans-serif" font-size="12" fill="#222222" text-anchor="middle" transform="rotate(-90 20 272.00)">Coefficient relative to event time -1</text>
</svg>