<svg xmlns="http://www.w3.org/2000/svg" width="900" height="560" viewBox="0 0 900 560">
<rect width="100%" height="100%" fill="#ffffff" />
<text x="450.00" y="28.00" font-family="Arial, sans-serif" font-size="18" fill="#222222" text-anchor="middle">Total Suicide Rate</text>
<line x1="92.00" y1="58.00" x2="92.00" y2="486.00" stroke="#222222" stroke-width="1.10" />
<line x1="92.00" y1="486.00" x2="868.00" y2="486.00" stroke="#222222" stroke-width="1.10" />
<line x1="92.00" y1="279.66" x2="868.00" y2="279.66" stroke="#777777" stroke-width="1.00" />
<line x1="528.50" y1="58.00" x2="528.50" y2="486.00" stroke="#999999" stroke-width="1.00" />
<line x1="87.00" y1="486.00" x2="868.00" y2="486.00" stroke="#dddddd" stroke-width="0.70" />
<text x="82.00" y="490.00" font-family="Arial, sans-serif" font-size="11" fill="#333333" text-anchor="end">-1.69</text>
<line x1="87.00" y1="379.00" x2="868.00" y2="379.00" stroke="#dddddd" stroke-width="0.70" />
<text x="82.00" y="383.00" font-family="Arial, sans-serif" font-size="11" fill="#333333" text-anchor="end">-0.815</text>
<line x1="87.00" y1="272.00" x2="868.00" y2="272.00" stroke="#dddddd" stroke-width="0.70" />
<text x="82.00" y="276.00" font-family="Arial, sans-serif" font-size="11" fill="#333333" text-anchor="end">0.0628</text>
<line x1="87.00" y1="165.00" x2="868.00" y2="165.00" stroke="#dddddd" stroke-width="0.70" />
<text x="82.00" y="169.00" font-family="Arial, sans-serif" font-size="11" fill="#333333" text-anchor="end">0.941</text>
<line x1="87.00" y1="58.00" x2="868.00" y2="58.00" stroke="#dddddd" stroke-width="0.70" />
<text x="82.00" y="62.00" font-family="Arial, sans-serif" font-size="11" fill="#333333" text-anchor="end">1.82</text>
<line x1="92.00" y1="486.00" x2="92.00" y2="491.00" stroke="#222222" stroke-width="1.00" />
<text x="92.00" y="508.00" font-family="Arial, sans-serif" font-size="11" fill="#222222" text-anchor="middle">-5</text>
<line x1="189.00" y1="486.00" x2="189.00" y2="491.00" stroke="#222222" stroke-width="1.00" />
<text x="189.00" y="508.00" font-family="Arial, sans-serif" font-size="11" fill="#222222" text-anchor="middle">-4</text>
<line x1="286.00" y1="486.00" x2="286.00" y2="491.00" stroke="#222222" stroke-width="1.00" />
<text x="286.00" y="508.00" font-family="Arial, sans-serif" font-size="11" fill="#222222" text-anchor="middle">-3</text>
<line x1="383.00" y1="486.00" x2="383.00" y2="491.00" stroke="#222222" stroke-width="1.00" />
<text x="383.00" y="508.00" font-family="Arial, sans-serif" font-size="11" fill="#222222" text-anchor="middle">-2</text>
<line x1="480.00" y1="486.00" x2="480.00" y2="491.00" stroke="#222222" stroke-width="1.00" />
<text x="480.00" y="508.00" font-family="Arial, sans-serif" font-size="11" fill="#222222" text-anchor="middle">-1</text>
<line x1="577.00" y1="486.00" x2="577.00" y2="491.00" stroke="#222222" stroke-width="1.00" />
<text x="577.00" y="508.00" font-family="Arial, sans-serif" font-size="11" fill="#222222" text-anchor="middle">0</text>
<line x1="674.00" y1="486.00" x2="674.00" y2="491.00" stroke="#222222" stroke-width="1.00" />
<text x="674.00" y="508.00" font-family="Arial, sans-serif" font-size="11" fill="#222222" text-anchor="middle">1</text>
<line x1="771.00" y1="486.00" x2="771.00" y2="491.00" stroke="#222222" stroke-width="1.00" />
<text x="771.00" y="508.00" font-family="Arial, sans-serif" font-size="11" fill="#222222" text-anchor="middle">2</text>
<line x1="868.00" y1="486.00" x2="868.00" y2="491.00" stroke="#222222" stroke-width="1.00" />
<text x="868.00" y="508.00" font-family="Arial, sans-serif" font-size="11" fill="#222222" text-anchor="middle">3</text>
<line x1="92.00" y1="429.75" x2="92.00" y2="303.50" stroke="#7BA7C4" stroke-width="1.40" />
<line x1="88.00" y1="429.75" x2="96.00" y2="429.75" stroke="#7BA7C4" stroke-width="1.20" />
<line x1="88.00" y1="303.50" x2="96.00" y2="303.50" stroke="#7BA7C4" stroke-width="1.20" />
<line x1="189.00" y1="411.51" x2="189.00" y2="226.72" stroke="#7BA7C4" stroke-width="1.40" />
<line x1="185.00" y1="411.51" x2="193.00" y2="411.51" stroke="#7BA7C4" stroke-width="1.20" />
<line x1="185.00" y1="226.72" x2="193.00" y2="226.72" stroke="#7BA7C4" stroke-width="1.20" />
<line x1="286.00" y1="366.06" x2="286.00" y2="228.23" stroke="#7BA7C4" stroke-width="1.40" />
<line x1="282.00" y1="366.06" x2="290.00" y2="366.06" stroke="#7BA7C4" stroke-width="1.20" />
<line x1="282.00" y1="228.23" x2="290.00" y2="228.23" stroke="#7BA7C4" stroke-width="1.20" />
<line x1="383.00" y1="421.87" x2="383.00" y2="277.00" stroke="#7BA7C4" stroke-width="1.40" />
<line x1="379.00" y1="421.87" x2="387.00" y2="421.87" stroke="#7BA7C4" stroke-width="1.20" />
<line x1="379.00" y1="277.00" x2="387.00" y2="277.00" stroke="#7BA7C4" stroke-width="1.20" />
<line x1="577.00" y1="315.68" x2="577.00" y2="215.63" stroke="#7BA7C4" stroke-width="1.40" />
<line x1="573.00" y1="315.68" x2="581.00" y2="315.68" stroke="#7BA7C4" stroke-width="1.20" />
<line x1="573.00" y1="215.63" x2="581.00" y2="215.63" stroke="#7BA7C4" stroke-width="1.20" />
<line x1="674.00" y1="258.65" x2="674.00" y2="87.52" stroke="#7BA7C4" stroke-width="1.40" />
<line x1="670.00" y1="258.65" x2="678.00" y2="258.65" stroke="#7BA7C4" stroke-width="1.20" />
<line x1="670.00" y1="87.52" x2="678.00" y2="87.52" stroke="#7BA7C4" stroke-width="1.20" />
<line x1="771.00" y1="326.78" x2="771.00" y2="158.33" stroke="#7BA7C4" stroke-width="1.40" />
<line x1="767.00" y1="326.78" x2="775.00" y2="326.78" stroke="#7BA7C4" stroke-width="1.20" />
<line x1="767.00" y1="158.33" x2="775.00" y2="158.33" stroke="#7BA7C4" stroke-width="1.20" />
<line x1="868.00" y1="456.48" x2="868.00" y2="239.58" stroke="#7BA7C4" stroke-width="1.40" />
<line x1="864.00" y1="456.48" x2="872.00" y2="456.48" stroke="#7BA7C4" stroke-width="1.20" />
<line x1="864.00" y1="239.58" x2="872.00" y2="239.58" stroke="#7BA7C4" stroke-width="1.20" />
<path d="M 92.00 366.63 L 189.00 319.11 L 286.00 297.15 L 383.00 349.43 L 577.00 265.66 L 674.00 173.08 L 771.00 242.55 L 868.00 348.03" fill="none" stroke="#125E8A" stroke-width="2" />
<circle cx="92.00" cy="366.63" r="4" fill="#125E8A" />
<circle cx="189.00" cy="319.11" r="4" fill="#125E8A" />
<circle cx="286.00" cy="297.15" r="4" fill="#125E8A" />
<circle cx="383.00" cy="349.43" r="4" fill="#125E8A" />
<circle cx="577.00" cy="265.66" r="4" fill="#125E8A" />
<circle cx="674.00" cy="173.08" r="4" fill="#125E8A" />
<circle cx="771.00" cy="242.55" r="4" fill="#125E8A" />
<circle cx="868.00" cy="348.03" r="4" fill="#125E8A" />
<text x="480.00" y="532.00" font-family="Arial, sans-serif" font-size="12" fill="#222222" text-anchor="middle">Event time relative to permitless-carry adoption</text>
<text x="20" y="272.00" font-family="Arial, sans-serif" font-size="12" fill="#222222" text-anchor="middle" transform="rotate(-90 20 272.00)">Coefficient relative to event time -1</text>
</svg>