<svg xmlns="http://www.w3.org/2000/svg" width="900" height="560" viewBox="0 0 900 560">
<rect width="100%" height="100%" fill="#ffffff" />
<text x="450.00" y="28.00" font-family="Arial, sans-serif" font-size="18" fill="#222222" text-anchor="middle">Logit Firearm Suicide Share</text>
<line x1="92.00" y1="58.00" x2="92.00" y2="486.00" stroke="#222222" stroke-width="1.10" />
<line x1="92.00" y1="486.00" x2="868.00" y2="486.00" stroke="#222222" stroke-width="1.10" />
<line x1="92.00" y1="256.92" x2="868.00" y2="256.92" stroke="#777777" stroke-width="1.00" />
<line x1="528.50" y1="58.00" x2="528.50" y2="486.00" stroke="#999999" stroke-width="1.00" />
<line x1="87.00" y1="486.00" x2="868.00" y2="486.00" stroke="#dddddd" stroke-width="0.70" />
<text x="82.00" y="490.00" font-family="Arial, sans-serif" font-size="11" fill="#333333" text-anchor="end">-0.137</text>
<line x1="87.00" y1="379.00" x2="868.00" y2="379.00" stroke="#dddddd" stroke-width="0.70" />
<text x="82.00" y="383.00" font-family="Arial, sans-serif" font-size="11" fill="#333333" text-anchor="end">-0.0729</text>
<line x1="87.00" y1="272.00" x2="868.00" y2="272.00" stroke="#dddddd" stroke-width="0.70" />
<text x="82.00" y="276.00" font-family="Arial, sans-serif" font-size="11" fill="#333333" text-anchor="end">-0.009</text>
<line x1="87.00" y1="165.00" x2="868.00" y2="165.00" stroke="#dddddd" stroke-width="0.70" />
<text x="82.00" y="169.00" font-family="Arial, sans-serif" font-size="11" fill="#333333" text-anchor="end">0.0549</text>
<line x1="87.00" y1="58.00" x2="868.00" y2="58.00" stroke="#dddddd" stroke-width="0.70" />
<text x="82.00" y="62.00" font-family="Arial, sans-serif" font-size="11" fill="#333333" text-anchor="end">0.119</text>
<line x1="92.00" y1="486.00" x2="92.00" y2="491.00" stroke="#222222" stroke-width="1.00" />
<text x="92.00" y="508.00" font-family="Arial, sans-serif" font-size="11" fill="#222222" text-anchor="middle">-5</text>
<line x1="189.00" y1="486.00" x2="189.00" y2="491.00" stroke="#222222" stroke-width="1.00" />
<text x="189.00" y="508.00" font-family="Arial, sans-serif" font-size="11" fill="#222222" text-anchor="middle">-4</text>
<line x1="286.00" y1="486.00" x2="286.00" y2="491.00" stroke="#222222" stroke-width="1.00" />
<text x="286.00" y="508.00" font-family="Arial, sans-serif" font-size="11" fill="#222222" text-anchor="middle">-3</text>
<line x1="383.00" y1="486.00" x2="383.00" y2="491.00" stroke="#222222" stroke-width="1.00" />
<text x="383.00" y="508.00" font-family="Arial, sans-serif" font-size="11" fill="#222222" text-anchor="middle">-2</text>
<line x1="480.00" y1="486.00" x2="480.00" y2="491.00" stroke="#222222" stroke-width="1.00" />
<text x="480.00" y="508.00" font-family="Arial, sans-serif" font-size="11" fill="#222222" text-anchor="middle">-1</text>
<line x1="577.00" y1="486.00" x2="577.00" y2="491.00" stroke="#222222" stroke-width="1.00" />
<text x="577.00" y="508.00" font-family="Arial, sans-serif" font-size="11" fill="#222222" text-anchor="middle">0</text>
<line x1="674.00" y1="486.00" x2="674.00" y2="491.00" stroke="#222222" stroke-width="1.00" />
<text x="674.00" y="508.00" font-family="Arial, sans-serif" font-size="11" fill="#222222" text-anchor="middle">1</text>
<line x1="771.00" y1="486.00" x2="771.00" y2="491.00" stroke="#222222" stroke-width="1.00" />
<text x="771.00" y="508.00" font-family="Arial, sans-serif" font-size="11" fill="#222222" text-anchor="middle">2</text>
<line x1="868.00" y1="486.00" x2="868.00" y2="491.00" stroke="#222222" stroke-width="1.00" />
<text x="868.00" y="508.00" font-family="Arial, sans-serif" font-size="11" fill="#222222" text-anchor="middle">3</text>
<line x1="92.00" y1="365.99" x2="92.00" y2="207.98" stroke="#7BA7C4" stroke-width="1.40" />
<line x1="88.00" y1="365.99" x2="96.00" y2="365.99" stroke="#7BA7C4" stroke-width="1.20" />
<line x1="88.00" y1="207.98" x2="96.00" y2="207.98" stroke="#7BA7C4" stroke-width="1.20" />
<line x1="189.00" y1="437.04" x2="189.00" y2="169.37" stroke="#7BA7C4" stroke-width="1.40" />
<line x1="185.00" y1="437.04" x2="193.00" y2="437.04" stroke="#7BA7C4" stroke-width="1.20" />
<line x1="185.00" y1="169.37" x2="193.00" y2="169.37" stroke="#7BA7C4" stroke-width="1.20" />
<line x1="286.00" y1="293.59" x2="286.00" y2="87.52" stroke="#7BA7C4" stroke-width="1.40" />
<line x1="282.00" y1="293.59" x2="290.00" y2="293.59" stroke="#7BA7C4" stroke-width="1.20" />
<line x1="282.00" y1="87.52" x2="290.00" y2="87.52" stroke="#7BA7C4" stroke-width="1.20" />
<line x1="383.00" y1="388.51" x2="383.00" y2="144.30" stroke="#7BA7C4" stroke-width="1.40" />
<line x1="379.00" y1="388.51" x2="387.00" y2="388.51" stroke="#7BA7C4" stroke-width="1.20" />
<line x1="379.00" y1="144.30" x2="387.00" y2="144.30" stroke="#7BA7C4" stroke-width="1.20" />
<line x1="577.00" y1="313.53" x2="577.00" y2="150.93" stroke="#7BA7C4" stroke-width="1.40" />
<line x1="573.00" y1="313.53" x2="581.00" y2="313.53" stroke="#7BA7C4" stroke-width="1.20" />
<line x1="573.00" y1="150.93" x2="581.00" y2="150.93" stroke="#7BA7C4" stroke-width="1.20" />
<line x1="674.00" y1="402.94" x2="674.00" y2="209.02" stroke="#7BA7C4" stroke-width="1.40" />
<line x1="670.00" y1="402.94" x2="678.00" y2="402.94" stroke="#7BA7C4" stroke-width="1.20" />
<line x1="670.00" y1="209.02" x2="678.00" y2="209.02" stroke="#7BA7C4" stroke-width="1.20" />
<line x1="771.00" y1="304.91" x2="771.00" y2="97.12" stroke="#7BA7C4" stroke-width="1.40" />
<line x1="767.00" y1="304.91" x2="775.00" y2="304.91" stroke="#7BA7C4" stroke-width="1.20" />
<line x1="767.00" y1="97.12" x2="775.00" y2="97.12" stroke="#7BA7C4" stroke-width="1.20" />
<line x1="868.00" y1="456.48" x2="868.00" y2="159.44" stroke="#7BA7C4" stroke-width="1.40" />
<line x1="864.00" y1="456.48" x2="872.00" y2="456.48" stroke="#7BA7C4" stroke-width="1.20" />
<line x1="864.00" y1="159.44" x2="872.00" y2="159.44" stroke="#7BA7C4" stroke-width="1.20" />
<path d="M 92.00 286.99 L 189.00 303.20 L 286.00 190.55 L 383.00 266.40 L 577.00 232.23 L 674.00 305.98 L 771.00 201.01 L 868.00 307.96" fill="none" stroke="#125E8A" stroke-width="2" />
<circle cx="92.00" cy="286.99" r="4" fill="#125E8A" />
<circle cx="189.00" cy="303.20" r="4" fill="#125E8A" />
<circle cx="286.00" cy="190.55" r="4" fill="#125E8A" />
<circle cx="383.00" cy="266.40" r="4" fill="#125E8A" />
<circle cx="577.00" cy="232.23" r="4" fill="#125E8A" />
<circle cx="674.00" cy="305.98" r="4" fill="#125E8A" />
<circle cx="771.00" cy="201.01" r="4" fill="#125E8A" />
<circle cx="868.00" cy="307.96" r="4" fill="#125E8A" />
<text x="480.00" y="532.00" font-family="Arial, sans-serif" font-size="12" fill="#222222" text-anchor="middle">Event time relative to permitless-carry adoption</text>
<text x="20" y="272.00" font-family="Arial, sans-serif" font-size="12" fill="#222222" text-anchor="middle" transform="rotate(-90 20 272.00)">Coefficient relative to event time -1</text>
</svg>