<svg xmlns="http://www.w3.org/2000/svg" width="900" height="560" viewBox="0 0 900 560">
<rect width="100%" height="100%" fill="#ffffff" />
<text x="450.00" y="28.00" font-family="Arial, sans-serif" font-size="18" fill="#222222" text-anchor="middle">Ln Nonfirearm Suicide Rate</text>
<line x1="92.00" y1="58.00" x2="92.00" y2="486.00" stroke="#222222" stroke-width="1.10" />
<line x1="92.00" y1="486.00" x2="868.00" y2="486.00" stroke="#222222" stroke-width="1.10" />
<line x1="92.00" y1="276.91" x2="868.00" y2="276.91" stroke="#777777" stroke-width="1.00" />
<line x1="528.50" y1="58.00" x2="528.50" y2="486.00" stroke="#999999" stroke-width="1.00" />
<line x1="87.00" y1="486.00" x2="868.00" y2="486.00" stroke="#dddddd" stroke-width="0.70" />
<text x="82.00" y="490.00" font-family="Arial, sans-serif" font-size="11" fill="#333333" text-anchor="end">-0.114</text>
<line x1="87.00" y1="379.00" x2="868.00" y2="379.00" stroke="#dddddd" stroke-width="0.70" />
<text x="82.00" y="383.00" font-family="Arial, sans-serif" font-size="11" fill="#333333" text-anchor="end">-0.0559</text>
<line x1="87.00" y1="272.00" x2="868.00" y2="272.00" stroke="#dddddd" stroke-width="0.70" />
<text x="82.00" y="276.00" font-family="Arial, sans-serif" font-size="11" fill="#333333" text-anchor="end">0.00269</text>
<line x1="87.00" y1="165.00" x2="868.00" y2="165.00" stroke="#dddddd" stroke-width="0.70" />
<text x="82.00" y="169.00" font-family="Arial, sans-serif" font-size="11" fill="#333333" text-anchor="end">0.0613</text>
<line x1="87.00" y1="58.00" x2="868.00" y2="58.00" stroke="#dddddd" stroke-width="0.70" />
<text x="82.00" y="62.00" font-family="Arial, sans-serif" font-size="11" fill="#333333" text-anchor="end">0.12</text>
<line x1="92.00" y1="486.00" x2="92.00" y2="491.00" stroke="#222222" stroke-width="1.00" />
<text x="92.00" y="508.00" font-family="Arial, sans-serif" font-size="11" fill="#222222" text-anchor="middle">-5</text>
<line x1="189.00" y1="486.00" x2="189.00" y2="491.00" stroke="#222222" stroke-width="1.00" />
<text x="189.00" y="508.00" font-family="Arial, sans-serif" font-size="11" fill="#222222" text-anchor="middle">-4</text>
<line x1="286.00" y1="486.00" x2="286.00" y2="491.00" stroke="#222222" stroke-width="1.00" />
<text x="286.00" y="508.00" font-family="Arial, sans-serif" font-size="11" fill="#222222" text-anchor="middle">-3</text>
<line x1="383.00" y1="486.00" x2="383.00" y2="491.00" stroke="#222222" stroke-width="1.00" />
<text x="383.00" y="508.00" font-family="Arial, sans-serif" font-size="11" fill="#222222" text-anchor="middle">-2</text>
<line x1="480.00" y1="486.00" x2="480.00" y2="491.00" stroke="#222222" stroke-width="1.00" />
<text x="480.00" y="508.00" font-family="Arial, sans-serif" font-size="11" fill="#222222" text-anchor="middle">-1</text>
<line x1="577.00" y1="486.00" x2="577.00" y2="491.00" stroke="#222222" stroke-width="1.00" />
<text x="577.00" y="508.00" font-family="Arial, sans-serif" font-size="11" fill="#222222" text-anchor="middle">0</text>
<line x1="674.00" y1="486.00" x2="674.00" y2="491.00" stroke="#222222" stroke-width="1.00" />
<text x="674.00" y="508.00" font-family="Arial, sans-serif" font-size="11" fill="#222222" text-anchor="middle">1</text>
<line x1="771.00" y1="486.00" x2="771.00" y2="491.00" stroke="#222222" stroke-width="1.00" />
<text x="771.00" y="508.00" font-family="Arial, sans-serif" font-size="11" fill="#222222" text-anchor="middle">2</text>
<line x1="868.00" y1="486.00" x2="868.00" y2="491.00" stroke="#222222" stroke-width="1.00" />
<text x="868.00" y="508.00" font-family="Arial, sans-serif" font-size="11" fill="#222222" text-anchor="middle">3</text>
<line x1="92.00" y1="400.95" x2="92.00" y2="234.80" stroke="#7BA7C4" stroke-width="1.40" />
<line x1="88.00" y1="400.95" x2="96.00" y2="400.95" stroke="#7BA7C4" stroke-width="1.20" />
<line x1="88.00" y1="234.80" x2="96.00" y2="234.80" stroke="#7BA7C4" stroke-width="1.20" />
<line x1="189.00" y1="381.99" x2="189.00" y2="171.42" stroke="#7BA7C4" stroke-width="1.40" />
<line x1="185.00" y1="381.99" x2="193.00" y2="381.99" stroke="#7BA7C4" stroke-width="1.20" />
<line x1="185.00" y1="171.42" x2="193.00" y2="171.42" stroke="#7BA7C4" stroke-width="1.20" />
<line x1="286.00" y1="406.00" x2="286.00" y2="254.89" stroke="#7BA7C4" stroke-width="1.40" />
<line x1="282.00" y1="406.00" x2="290.00" y2="406.00" stroke="#7BA7C4" stroke-width="1.20" />
<line x1="282.00" y1="254.89" x2="290.00" y2="254.89" stroke="#7BA7C4" stroke-width="1.20" />
<line x1="383.00" y1="437.91" x2="383.00" y2="229.37" stroke="#7BA7C4" stroke-width="1.40" />
<line x1="379.00" y1="437.91" x2="387.00" y2="437.91" stroke="#7BA7C4" stroke-width="1.20" />
<line x1="379.00" y1="229.37" x2="387.00" y2="229.37" stroke="#7BA7C4" stroke-width="1.20" />
<line x1="577.00" y1="343.03" x2="577.00" y2="231.21" stroke="#7BA7C4" stroke-width="1.40" />
<line x1="573.00" y1="343.03" x2="581.00" y2="343.03" stroke="#7BA7C4" stroke-width="1.20" />
<line x1="573.00" y1="231.21" x2="581.00" y2="231.21" stroke="#7BA7C4" stroke-width="1.20" />
<line x1="674.00" y1="291.47" x2="674.00" y2="87.52" stroke="#7BA7C4" stroke-width="1.40" />
<line x1="670.00" y1="291.47" x2="678.00" y2="291.47" stroke="#7BA7C4" stroke-width="1.20" />
<line x1="670.00" y1="87.52" x2="678.00" y2="87.52" stroke="#7BA7C4" stroke-width="1.20" />
<line x1="771.00" y1="408.83" x2="771.00" y2="187.55" stroke="#7BA7C4" stroke-width="1.40" />
<line x1="767.00" y1="408.83" x2="775.00" y2="408.83" stroke="#7BA7C4" stroke-width="1.20" />
<line x1="767.00" y1="187.55" x2="775.00" y2="187.55" stroke="#7BA7C4" stroke-width="1.20" />
<line x1="868.00" y1="456.48" x2="868.00" y2="180.34" stroke="#7BA7C4" stroke-width="1.40" />
<line x1="864.00" y1="456.48" x2="872.00" y2="456.48" stroke="#7BA7C4" stroke-width="1.20" />
<line x1="864.00" y1="180.34" x2="872.00" y2="180.34" stroke="#7BA7C4" stroke-width="1.20" />
<path d="M 92.00 317.87 L 189.00 276.70 L 286.00 330.44 L 383.00 333.64 L 577.00 287.12 L 674.00 189.49 L 771.00 298.19 L 868.00 318.41" fill="none" stroke="#125E8A" stroke-width="2" />
<circle cx="92.00" cy="317.87" r="4" fill="#125E8A" />
<circle cx="189.00" cy="276.70" r="4" fill="#125E8A" />
<circle cx="286.00" cy="330.44" r="4" fill="#125E8A" />
<circle cx="383.00" cy="333.64" r="4" fill="#125E8A" />
<circle cx="577.00" cy="287.12" r="4" fill="#125E8A" />
<circle cx="674.00" cy="189.49" r="4" fill="#125E8A" />
<circle cx="771.00" cy="298.19" r="4" fill="#125E8A" />
<circle cx="868.00" cy="318.41" r="4" fill="#125E8A" />
<text x="480.00" y="532.00" font-family="Arial, sans-serif" font-size="12" fill="#222222" text-anchor="middle">Event time relative to permitless-carry adoption</text>
<text x="20" y="272.00" font-family="Arial, sans-serif" font-size="12" fill="#222222" text-anchor="middle" transform="rotate(-90 20 272.00)">Coefficient relative to event time -1</text>
</svg>