<svg xmlns="http://www.w3.org/2000/svg" viewBox="0 0 820 910" font-family="-apple-system, Segoe UI, Helvetica, Arial, sans-serif" font-size="11">
<text x="410.0" y="22" text-anchor="middle" font-size="14" font-weight="600">Callaway-Sant'Anna ATT by event time (RA) -- magazine ban</text>
<rect x="15" y="40" width="380" height="260" fill="#fafaf7" stroke="#e2e2dc"/>
<text x="205.0" y="58" text-anchor="middle" font-weight="600">Firearm suicide rate (per 100k)</text>
<line x1="75" y1="194.79499528501145" x2="377" y2="194.79499528501145" stroke="#aaaaaa" stroke-width="0.7"/>
<line x1="212.3" y1="90" x2="212.3" y2="250" stroke="#b9461a" stroke-dasharray="3 3"/>
<line x1="88.7" y1="250.0" x2="88.7" y2="163.8" stroke="#1f3a5f" stroke-width="1.4" opacity="0.35"/>
<line x1="84.7" y1="250.0" x2="92.7" y2="250.0" stroke="#1f3a5f" stroke-width="1.2" opacity="0.35"/>
<line x1="84.7" y1="163.8" x2="92.7" y2="163.8" stroke="#1f3a5f" stroke-width="1.2" opacity="0.35"/>
<circle cx="88.7" cy="206.9" r="3.2" fill="white" stroke="#1f3a5f" stroke-width="1.3" opacity="0.35"/>
<line x1="116.2" y1="201.2" x2="116.2" y2="146.7" stroke="#1f3a5f" stroke-width="1.4" opacity="0.35"/>
<line x1="112.2" y1="201.2" x2="120.2" y2="201.2" stroke="#1f3a5f" stroke-width="1.2" opacity="0.35"/>
<line x1="112.2" y1="146.7" x2="120.2" y2="146.7" stroke="#1f3a5f" stroke-width="1.2" opacity="0.35"/>
<circle cx="116.2" cy="174.0" r="3.2" fill="white" stroke="#1f3a5f" stroke-width="1.3" opacity="0.35"/>
<line x1="143.6" y1="229.5" x2="143.6" y2="90.0" stroke="#1f3a5f" stroke-width="1.4" opacity="0.35"/>
<line x1="139.6" y1="229.5" x2="147.6" y2="229.5" stroke="#1f3a5f" stroke-width="1.2" opacity="0.35"/>
<line x1="139.6" y1="90.0" x2="147.6" y2="90.0" stroke="#1f3a5f" stroke-width="1.2" opacity="0.35"/>
<circle cx="143.6" cy="159.7" r="3.2" fill="white" stroke="#1f3a5f" stroke-width="1.3" opacity="0.35"/>
<line x1="171.1" y1="236.9" x2="171.1" y2="136.5" stroke="#1f3a5f" stroke-width="1.4" opacity="0.35"/>
<line x1="167.1" y1="236.9" x2="175.1" y2="236.9" stroke="#1f3a5f" stroke-width="1.2" opacity="0.35"/>
<line x1="167.1" y1="136.5" x2="175.1" y2="136.5" stroke="#1f3a5f" stroke-width="1.2" opacity="0.35"/>
<circle cx="171.1" cy="186.7" r="3.2" fill="white" stroke="#1f3a5f" stroke-width="1.3" opacity="0.35"/>
<line x1="226.0" y1="226.1" x2="226.0" y2="149.1" stroke="#1f3a5f" stroke-width="1.4" opacity="0.35"/>
<line x1="222.0" y1="226.1" x2="230.0" y2="226.1" stroke="#1f3a5f" stroke-width="1.2" opacity="0.35"/>
<line x1="222.0" y1="149.1" x2="230.0" y2="149.1" stroke="#1f3a5f" stroke-width="1.2" opacity="0.35"/>
<circle cx="226.0" cy="187.6" r="3.2" fill="white" stroke="#1f3a5f" stroke-width="1.3" opacity="0.35"/>
<line x1="253.5" y1="224.7" x2="253.5" y2="140.9" stroke="#1f3a5f" stroke-width="1.4" opacity="0.35"/>
<line x1="249.5" y1="224.7" x2="257.5" y2="224.7" stroke="#1f3a5f" stroke-width="1.2" opacity="0.35"/>
<line x1="249.5" y1="140.9" x2="257.5" y2="140.9" stroke="#1f3a5f" stroke-width="1.2" opacity="0.35"/>
<circle cx="253.5" cy="182.8" r="3.2" fill="white" stroke="#1f3a5f" stroke-width="1.3" opacity="0.35"/>
<line x1="280.9" y1="220.1" x2="280.9" y2="128.5" stroke="#1f3a5f" stroke-width="1.4" opacity="0.35"/>
<line x1="276.9" y1="220.1" x2="284.9" y2="220.1" stroke="#1f3a5f" stroke-width="1.2" opacity="0.35"/>
<line x1="276.9" y1="128.5" x2="284.9" y2="128.5" stroke="#1f3a5f" stroke-width="1.2" opacity="0.35"/>
<circle cx="280.9" cy="174.3" r="3.2" fill="white" stroke="#1f3a5f" stroke-width="1.3" opacity="0.35"/>
<line x1="308.4" y1="177.3" x2="308.4" y2="95.6" stroke="#1f3a5f" stroke-width="1.4" opacity="1.00"/>
<line x1="304.4" y1="177.3" x2="312.4" y2="177.3" stroke="#1f3a5f" stroke-width="1.2" opacity="1.00"/>
<line x1="304.4" y1="95.6" x2="312.4" y2="95.6" stroke="#1f3a5f" stroke-width="1.2" opacity="1.00"/>
<circle cx="308.4" cy="136.5" r="3.2" fill="#1f3a5f"/>
<line x1="335.8" y1="213.7" x2="335.8" y2="112.6" stroke="#1f3a5f" stroke-width="1.4" opacity="0.35"/>
<line x1="331.8" y1="213.7" x2="339.8" y2="213.7" stroke="#1f3a5f" stroke-width="1.2" opacity="0.35"/>
<line x1="331.8" y1="112.6" x2="339.8" y2="112.6" stroke="#1f3a5f" stroke-width="1.2" opacity="0.35"/>
<circle cx="335.8" cy="163.2" r="3.2" fill="white" stroke="#1f3a5f" stroke-width="1.3" opacity="0.35"/>
<line x1="363.3" y1="189.6" x2="363.3" y2="142.6" stroke="#1f3a5f" stroke-width="1.4" opacity="1.00"/>
<line x1="359.3" y1="189.6" x2="367.3" y2="189.6" stroke="#1f3a5f" stroke-width="1.2" opacity="1.00"/>
<line x1="359.3" y1="142.6" x2="367.3" y2="142.6" stroke="#1f3a5f" stroke-width="1.2" opacity="1.00"/>
<circle cx="363.3" cy="166.1" r="3.2" fill="#1f3a5f"/>
<line x1="75" y1="250" x2="377" y2="250" stroke="#444"/>
<line x1="75" y1="90" x2="75" y2="250" stroke="#444"/>
<line x1="88.7" y1="250" x2="88.7" y2="253" stroke="#444"/>
<text x="88.7" y="265" text-anchor="middle" fill="#444">-5</text>
<line x1="116.2" y1="250" x2="116.2" y2="253" stroke="#444"/>
<text x="116.2" y="265" text-anchor="middle" fill="#444">-4</text>
<line x1="143.6" y1="250" x2="143.6" y2="253" stroke="#444"/>
<text x="143.6" y="265" text-anchor="middle" fill="#444">-3</text>
<line x1="171.1" y1="250" x2="171.1" y2="253" stroke="#444"/>
<text x="171.1" y="265" text-anchor="middle" fill="#444">-2</text>
<line x1="226.0" y1="250" x2="226.0" y2="253" stroke="#444"/>
<text x="226.0" y="265" text-anchor="middle" fill="#444">0</text>
<line x1="253.5" y1="250" x2="253.5" y2="253" stroke="#444"/>
<text x="253.5" y="265" text-anchor="middle" fill="#444">1</text>
<line x1="280.9" y1="250" x2="280.9" y2="253" stroke="#444"/>
<text x="280.9" y="265" text-anchor="middle" fill="#444">2</text>
<line x1="308.4" y1="250" x2="308.4" y2="253" stroke="#444"/>
<text x="308.4" y="265" text-anchor="middle" fill="#444">3</text>
<line x1="335.8" y1="250" x2="335.8" y2="253" stroke="#444"/>
<text x="335.8" y="265" text-anchor="middle" fill="#444">4</text>
<line x1="363.3" y1="250" x2="363.3" y2="253" stroke="#444"/>
<text x="363.3" y="265" text-anchor="middle" fill="#444">5</text>
<line x1="72" y1="250.0" x2="75" y2="250.0" stroke="#444"/>
<text x="69" y="253.0" text-anchor="end" fill="#444">-2</text>
<line x1="72" y1="210.0" x2="75" y2="210.0" stroke="#444"/>
<text x="69" y="213.0" text-anchor="end" fill="#444">-0.56</text>
<line x1="72" y1="170.0" x2="75" y2="170.0" stroke="#444"/>
<text x="69" y="173.0" text-anchor="end" fill="#444">0.92</text>
<line x1="72" y1="130.0" x2="75" y2="130.0" stroke="#444"/>
<text x="69" y="133.0" text-anchor="end" fill="#444">2.4</text>
<line x1="72" y1="90.0" x2="75" y2="90.0" stroke="#444"/>
<text x="69" y="93.0" text-anchor="end" fill="#444">3.9</text>
<text x="226.0" y="284" text-anchor="middle" fill="#444">Event time (years from adoption)</text>
<text x="27" y="170.0" text-anchor="middle" fill="#444" transform="rotate(-90 27 170.0)">ATT (per 100k)</text>
<rect x="425" y="40" width="380" height="260" fill="#fafaf7" stroke="#e2e2dc"/>
<text x="615.0" y="58" text-anchor="middle" font-weight="600">Non-firearm suicide rate (per 100k) [substitution test]</text>
<line x1="485" y1="196.86815854542004" x2="787" y2="196.86815854542004" stroke="#aaaaaa" stroke-width="0.7"/>
<line x1="622.3" y1="90" x2="622.3" y2="250" stroke="#b9461a" stroke-dasharray="3 3"/>
<line x1="498.7" y1="223.5" x2="498.7" y2="155.7" stroke="#1f3a5f" stroke-width="1.4" opacity="0.35"/>
<line x1="494.7" y1="223.5" x2="502.7" y2="223.5" stroke="#1f3a5f" stroke-width="1.2" opacity="0.35"/>
<line x1="494.7" y1="155.7" x2="502.7" y2="155.7" stroke="#1f3a5f" stroke-width="1.2" opacity="0.35"/>
<circle cx="498.7" cy="189.6" r="3.2" fill="white" stroke="#1f3a5f" stroke-width="1.3" opacity="0.35"/>
<line x1="526.2" y1="204.3" x2="526.2" y2="111.4" stroke="#1f3a5f" stroke-width="1.4" opacity="0.35"/>
<line x1="522.2" y1="204.3" x2="530.2" y2="204.3" stroke="#1f3a5f" stroke-width="1.2" opacity="0.35"/>
<line x1="522.2" y1="111.4" x2="530.2" y2="111.4" stroke="#1f3a5f" stroke-width="1.2" opacity="0.35"/>
<circle cx="526.2" cy="157.9" r="3.2" fill="white" stroke="#1f3a5f" stroke-width="1.3" opacity="0.35"/>
<line x1="553.6" y1="244.9" x2="553.6" y2="174.9" stroke="#1f3a5f" stroke-width="1.4" opacity="0.35"/>
<line x1="549.6" y1="244.9" x2="557.6" y2="244.9" stroke="#1f3a5f" stroke-width="1.2" opacity="0.35"/>
<line x1="549.6" y1="174.9" x2="557.6" y2="174.9" stroke="#1f3a5f" stroke-width="1.2" opacity="0.35"/>
<circle cx="553.6" cy="209.9" r="3.2" fill="white" stroke="#1f3a5f" stroke-width="1.3" opacity="0.35"/>
<line x1="581.1" y1="190.1" x2="581.1" y2="131.5" stroke="#1f3a5f" stroke-width="1.4" opacity="1.00"/>
<line x1="577.1" y1="190.1" x2="585.1" y2="190.1" stroke="#1f3a5f" stroke-width="1.2" opacity="1.00"/>
<line x1="577.1" y1="131.5" x2="585.1" y2="131.5" stroke="#1f3a5f" stroke-width="1.2" opacity="1.00"/>
<circle cx="581.1" cy="160.8" r="3.2" fill="#1f3a5f"/>
<line x1="636.0" y1="190.4" x2="636.0" y2="122.7" stroke="#1f3a5f" stroke-width="1.4" opacity="1.00"/>
<line x1="632.0" y1="190.4" x2="640.0" y2="190.4" stroke="#1f3a5f" stroke-width="1.2" opacity="1.00"/>
<line x1="632.0" y1="122.7" x2="640.0" y2="122.7" stroke="#1f3a5f" stroke-width="1.2" opacity="1.00"/>
<circle cx="636.0" cy="156.6" r="3.2" fill="#1f3a5f"/>
<line x1="663.5" y1="191.6" x2="663.5" y2="90.0" stroke="#1f3a5f" stroke-width="1.4" opacity="1.00"/>
<line x1="659.5" y1="191.6" x2="667.5" y2="191.6" stroke="#1f3a5f" stroke-width="1.2" opacity="1.00"/>
<line x1="659.5" y1="90.0" x2="667.5" y2="90.0" stroke="#1f3a5f" stroke-width="1.2" opacity="1.00"/>
<circle cx="663.5" cy="140.8" r="3.2" fill="#1f3a5f"/>
<line x1="690.9" y1="222.8" x2="690.9" y2="166.3" stroke="#1f3a5f" stroke-width="1.4" opacity="0.35"/>
<line x1="686.9" y1="222.8" x2="694.9" y2="222.8" stroke="#1f3a5f" stroke-width="1.2" opacity="0.35"/>
<line x1="686.9" y1="166.3" x2="694.9" y2="166.3" stroke="#1f3a5f" stroke-width="1.2" opacity="0.35"/>
<circle cx="690.9" cy="194.5" r="3.2" fill="white" stroke="#1f3a5f" stroke-width="1.3" opacity="0.35"/>
<line x1="718.4" y1="250.0" x2="718.4" y2="180.9" stroke="#1f3a5f" stroke-width="1.4" opacity="0.35"/>
<line x1="714.4" y1="250.0" x2="722.4" y2="250.0" stroke="#1f3a5f" stroke-width="1.2" opacity="0.35"/>
<line x1="714.4" y1="180.9" x2="722.4" y2="180.9" stroke="#1f3a5f" stroke-width="1.2" opacity="0.35"/>
<circle cx="718.4" cy="215.5" r="3.2" fill="white" stroke="#1f3a5f" stroke-width="1.3" opacity="0.35"/>
<line x1="745.8" y1="210.9" x2="745.8" y2="150.1" stroke="#1f3a5f" stroke-width="1.4" opacity="0.35"/>
<line x1="741.8" y1="210.9" x2="749.8" y2="210.9" stroke="#1f3a5f" stroke-width="1.2" opacity="0.35"/>
<line x1="741.8" y1="150.1" x2="749.8" y2="150.1" stroke="#1f3a5f" stroke-width="1.2" opacity="0.35"/>
<circle cx="745.8" cy="180.5" r="3.2" fill="white" stroke="#1f3a5f" stroke-width="1.3" opacity="0.35"/>
<line x1="773.3" y1="214.9" x2="773.3" y2="117.9" stroke="#1f3a5f" stroke-width="1.4" opacity="0.35"/>
<line x1="769.3" y1="214.9" x2="777.3" y2="214.9" stroke="#1f3a5f" stroke-width="1.2" opacity="0.35"/>
<line x1="769.3" y1="117.9" x2="777.3" y2="117.9" stroke="#1f3a5f" stroke-width="1.2" opacity="0.35"/>
<circle cx="773.3" cy="166.4" r="3.2" fill="white" stroke="#1f3a5f" stroke-width="1.3" opacity="0.35"/>
<line x1="485" y1="250" x2="787" y2="250" stroke="#444"/>
<line x1="485" y1="90" x2="485" y2="250" stroke="#444"/>
<line x1="498.7" y1="250" x2="498.7" y2="253" stroke="#444"/>
<text x="498.7" y="265" text-anchor="middle" fill="#444">-5</text>
<line x1="526.2" y1="250" x2="526.2" y2="253" stroke="#444"/>
<text x="526.2" y="265" text-anchor="middle" fill="#444">-4</text>
<line x1="553.6" y1="250" x2="553.6" y2="253" stroke="#444"/>
<text x="553.6" y="265" text-anchor="middle" fill="#444">-3</text>
<line x1="581.1" y1="250" x2="581.1" y2="253" stroke="#444"/>
<text x="581.1" y="265" text-anchor="middle" fill="#444">-2</text>
<line x1="636.0" y1="250" x2="636.0" y2="253" stroke="#444"/>
<text x="636.0" y="265" text-anchor="middle" fill="#444">0</text>
<line x1="663.5" y1="250" x2="663.5" y2="253" stroke="#444"/>
<text x="663.5" y="265" text-anchor="middle" fill="#444">1</text>
<line x1="690.9" y1="250" x2="690.9" y2="253" stroke="#444"/>
<text x="690.9" y="265" text-anchor="middle" fill="#444">2</text>
<line x1="718.4" y1="250" x2="718.4" y2="253" stroke="#444"/>
<text x="718.4" y="265" text-anchor="middle" fill="#444">3</text>
<line x1="745.8" y1="250" x2="745.8" y2="253" stroke="#444"/>
<text x="745.8" y="265" text-anchor="middle" fill="#444">4</text>
<line x1="773.3" y1="250" x2="773.3" y2="253" stroke="#444"/>
<text x="773.3" y="265" text-anchor="middle" fill="#444">5</text>
<line x1="482" y1="250.0" x2="485" y2="250.0" stroke="#444"/>
<text x="479" y="253.0" text-anchor="end" fill="#444">-1.5</text>
<line x1="482" y1="210.0" x2="485" y2="210.0" stroke="#444"/>
<text x="479" y="213.0" text-anchor="end" fill="#444">-0.37</text>
<line x1="482" y1="170.0" x2="485" y2="170.0" stroke="#444"/>
<text x="479" y="173.0" text-anchor="end" fill="#444">0.76</text>
<line x1="482" y1="130.0" x2="485" y2="130.0" stroke="#444"/>
<text x="479" y="133.0" text-anchor="end" fill="#444">1.9</text>
<line x1="482" y1="90.0" x2="485" y2="90.0" stroke="#444"/>
<text x="479" y="93.0" text-anchor="end" fill="#444">3</text>
<text x="636.0" y="284" text-anchor="middle" fill="#444">Event time (years from adoption)</text>
<text x="437" y="170.0" text-anchor="middle" fill="#444" transform="rotate(-90 437 170.0)">ATT (per 100k)</text>
<rect x="15" y="330" width="380" height="260" fill="#fafaf7" stroke="#e2e2dc"/>
<text x="205.0" y="348" text-anchor="middle" font-weight="600">Total suicide rate (per 100k) [net effect]</text>
<line x1="75" y1="483.8085627040881" x2="377" y2="483.8085627040881" stroke="#aaaaaa" stroke-width="0.7"/>
<line x1="212.3" y1="380" x2="212.3" y2="540" stroke="#b9461a" stroke-dasharray="3 3"/>
<line x1="88.7" y1="540.0" x2="88.7" y2="438.4" stroke="#1f3a5f" stroke-width="1.4" opacity="0.35"/>
<line x1="84.7" y1="540.0" x2="92.7" y2="540.0" stroke="#1f3a5f" stroke-width="1.2" opacity="0.35"/>
<line x1="84.7" y1="438.4" x2="92.7" y2="438.4" stroke="#1f3a5f" stroke-width="1.2" opacity="0.35"/>
<circle cx="88.7" cy="489.2" r="3.2" fill="white" stroke="#1f3a5f" stroke-width="1.3" opacity="0.35"/>
<line x1="116.2" y1="488.1" x2="116.2" y2="396.4" stroke="#1f3a5f" stroke-width="1.4" opacity="0.35"/>
<line x1="112.2" y1="488.1" x2="120.2" y2="488.1" stroke="#1f3a5f" stroke-width="1.2" opacity="0.35"/>
<line x1="112.2" y1="396.4" x2="120.2" y2="396.4" stroke="#1f3a5f" stroke-width="1.2" opacity="0.35"/>
<circle cx="116.2" cy="442.3" r="3.2" fill="white" stroke="#1f3a5f" stroke-width="1.3" opacity="0.35"/>
<line x1="143.6" y1="519.3" x2="143.6" y2="407.3" stroke="#1f3a5f" stroke-width="1.4" opacity="0.35"/>
<line x1="139.6" y1="519.3" x2="147.6" y2="519.3" stroke="#1f3a5f" stroke-width="1.2" opacity="0.35"/>
<line x1="139.6" y1="407.3" x2="147.6" y2="407.3" stroke="#1f3a5f" stroke-width="1.2" opacity="0.35"/>
<circle cx="143.6" cy="463.3" r="3.2" fill="white" stroke="#1f3a5f" stroke-width="1.3" opacity="0.35"/>
<line x1="171.1" y1="504.6" x2="171.1" y2="404.5" stroke="#1f3a5f" stroke-width="1.4" opacity="0.35"/>
<line x1="167.1" y1="504.6" x2="175.1" y2="504.6" stroke="#1f3a5f" stroke-width="1.2" opacity="0.35"/>
<line x1="167.1" y1="404.5" x2="175.1" y2="404.5" stroke="#1f3a5f" stroke-width="1.2" opacity="0.35"/>
<circle cx="171.1" cy="454.5" r="3.2" fill="white" stroke="#1f3a5f" stroke-width="1.3" opacity="0.35"/>
<line x1="226.0" y1="497.5" x2="226.0" y2="407.7" stroke="#1f3a5f" stroke-width="1.4" opacity="0.35"/>
<line x1="222.0" y1="497.5" x2="230.0" y2="497.5" stroke="#1f3a5f" stroke-width="1.2" opacity="0.35"/>
<line x1="222.0" y1="407.7" x2="230.0" y2="407.7" stroke="#1f3a5f" stroke-width="1.2" opacity="0.35"/>
<circle cx="226.0" cy="452.6" r="3.2" fill="white" stroke="#1f3a5f" stroke-width="1.3" opacity="0.35"/>
<line x1="253.5" y1="497.6" x2="253.5" y2="380.0" stroke="#1f3a5f" stroke-width="1.4" opacity="0.35"/>
<line x1="249.5" y1="497.6" x2="257.5" y2="497.6" stroke="#1f3a5f" stroke-width="1.2" opacity="0.35"/>
<line x1="249.5" y1="380.0" x2="257.5" y2="380.0" stroke="#1f3a5f" stroke-width="1.2" opacity="0.35"/>
<circle cx="253.5" cy="438.8" r="3.2" fill="white" stroke="#1f3a5f" stroke-width="1.3" opacity="0.35"/>
<line x1="280.9" y1="512.2" x2="280.9" y2="418.9" stroke="#1f3a5f" stroke-width="1.4" opacity="0.35"/>
<line x1="276.9" y1="512.2" x2="284.9" y2="512.2" stroke="#1f3a5f" stroke-width="1.2" opacity="0.35"/>
<line x1="276.9" y1="418.9" x2="284.9" y2="418.9" stroke="#1f3a5f" stroke-width="1.2" opacity="0.35"/>
<circle cx="280.9" cy="465.6" r="3.2" fill="white" stroke="#1f3a5f" stroke-width="1.3" opacity="0.35"/>
<line x1="308.4" y1="491.2" x2="308.4" y2="404.3" stroke="#1f3a5f" stroke-width="1.4" opacity="0.35"/>
<line x1="304.4" y1="491.2" x2="312.4" y2="491.2" stroke="#1f3a5f" stroke-width="1.2" opacity="0.35"/>
<line x1="304.4" y1="404.3" x2="312.4" y2="404.3" stroke="#1f3a5f" stroke-width="1.2" opacity="0.35"/>
<circle cx="308.4" cy="447.7" r="3.2" fill="white" stroke="#1f3a5f" stroke-width="1.3" opacity="0.35"/>
<line x1="335.8" y1="496.6" x2="335.8" y2="398.7" stroke="#1f3a5f" stroke-width="1.4" opacity="0.35"/>
<line x1="331.8" y1="496.6" x2="339.8" y2="496.6" stroke="#1f3a5f" stroke-width="1.2" opacity="0.35"/>
<line x1="331.8" y1="398.7" x2="339.8" y2="398.7" stroke="#1f3a5f" stroke-width="1.2" opacity="0.35"/>
<circle cx="335.8" cy="447.6" r="3.2" fill="white" stroke="#1f3a5f" stroke-width="1.3" opacity="0.35"/>
<line x1="363.3" y1="478.7" x2="363.3" y2="403.8" stroke="#1f3a5f" stroke-width="1.4" opacity="1.00"/>
<line x1="359.3" y1="478.7" x2="367.3" y2="478.7" stroke="#1f3a5f" stroke-width="1.2" opacity="1.00"/>
<line x1="359.3" y1="403.8" x2="367.3" y2="403.8" stroke="#1f3a5f" stroke-width="1.2" opacity="1.00"/>
<circle cx="363.3" cy="441.2" r="3.2" fill="#1f3a5f"/>
<line x1="75" y1="540" x2="377" y2="540" stroke="#444"/>
<line x1="75" y1="380" x2="75" y2="540" stroke="#444"/>
<line x1="88.7" y1="540" x2="88.7" y2="543" stroke="#444"/>
<text x="88.7" y="555" text-anchor="middle" fill="#444">-5</text>
<line x1="116.2" y1="540" x2="116.2" y2="543" stroke="#444"/>
<text x="116.2" y="555" text-anchor="middle" fill="#444">-4</text>
<line x1="143.6" y1="540" x2="143.6" y2="543" stroke="#444"/>
<text x="143.6" y="555" text-anchor="middle" fill="#444">-3</text>
<line x1="171.1" y1="540" x2="171.1" y2="543" stroke="#444"/>
<text x="171.1" y="555" text-anchor="middle" fill="#444">-2</text>
<line x1="226.0" y1="540" x2="226.0" y2="543" stroke="#444"/>
<text x="226.0" y="555" text-anchor="middle" fill="#444">0</text>
<line x1="253.5" y1="540" x2="253.5" y2="543" stroke="#444"/>
<text x="253.5" y="555" text-anchor="middle" fill="#444">1</text>
<line x1="280.9" y1="540" x2="280.9" y2="543" stroke="#444"/>
<text x="280.9" y="555" text-anchor="middle" fill="#444">2</text>
<line x1="308.4" y1="540" x2="308.4" y2="543" stroke="#444"/>
<text x="308.4" y="555" text-anchor="middle" fill="#444">3</text>
<line x1="335.8" y1="540" x2="335.8" y2="543" stroke="#444"/>
<text x="335.8" y="555" text-anchor="middle" fill="#444">4</text>
<line x1="363.3" y1="540" x2="363.3" y2="543" stroke="#444"/>
<text x="363.3" y="555" text-anchor="middle" fill="#444">5</text>
<line x1="72" y1="540.0" x2="75" y2="540.0" stroke="#444"/>
<text x="69" y="543.0" text-anchor="end" fill="#444">-2.5</text>
<line x1="72" y1="500.0" x2="75" y2="500.0" stroke="#444"/>
<text x="69" y="503.0" text-anchor="end" fill="#444">-0.73</text>
<line x1="72" y1="460.0" x2="75" y2="460.0" stroke="#444"/>
<text x="69" y="463.0" text-anchor="end" fill="#444">1.1</text>
<line x1="72" y1="420.0" x2="75" y2="420.0" stroke="#444"/>
<text x="69" y="423.0" text-anchor="end" fill="#444">2.9</text>
<line x1="72" y1="380.0" x2="75" y2="380.0" stroke="#444"/>
<text x="69" y="383.0" text-anchor="end" fill="#444">4.7</text>
<text x="226.0" y="574" text-anchor="middle" fill="#444">Event time (years from adoption)</text>
<text x="27" y="460.0" text-anchor="middle" fill="#444" transform="rotate(-90 27 460.0)">ATT (per 100k)</text>
<rect x="425" y="330" width="380" height="260" fill="#fafaf7" stroke="#e2e2dc"/>
<text x="615.0" y="348" text-anchor="middle" font-weight="600">Firearm homicide rate (per 100k)</text>
<line x1="485" y1="410.60425790578523" x2="787" y2="410.60425790578523" stroke="#aaaaaa" stroke-width="0.7"/>
<line x1="622.3" y1="380" x2="622.3" y2="540" stroke="#b9461a" stroke-dasharray="3 3"/>
<line x1="498.7" y1="436.1" x2="498.7" y2="436.1" stroke="#1f3a5f" stroke-width="1.4" opacity="0.35"/>
<line x1="494.7" y1="436.1" x2="502.7" y2="436.1" stroke="#1f3a5f" stroke-width="1.2" opacity="0.35"/>
<line x1="494.7" y1="436.1" x2="502.7" y2="436.1" stroke="#1f3a5f" stroke-width="1.2" opacity="0.35"/>
<circle cx="498.7" cy="436.1" r="3.2" fill="white" stroke="#1f3a5f" stroke-width="1.3" opacity="0.35"/>
<line x1="526.2" y1="380.0" x2="526.2" y2="380.0" stroke="#1f3a5f" stroke-width="1.4" opacity="0.35"/>
<line x1="522.2" y1="380.0" x2="530.2" y2="380.0" stroke="#1f3a5f" stroke-width="1.2" opacity="0.35"/>
<line x1="522.2" y1="380.0" x2="530.2" y2="380.0" stroke="#1f3a5f" stroke-width="1.2" opacity="0.35"/>
<circle cx="526.2" cy="380.0" r="3.2" fill="white" stroke="#1f3a5f" stroke-width="1.3" opacity="0.35"/>
<line x1="553.6" y1="393.8" x2="553.6" y2="393.8" stroke="#1f3a5f" stroke-width="1.4" opacity="0.35"/>
<line x1="549.6" y1="393.8" x2="557.6" y2="393.8" stroke="#1f3a5f" stroke-width="1.2" opacity="0.35"/>
<line x1="549.6" y1="393.8" x2="557.6" y2="393.8" stroke="#1f3a5f" stroke-width="1.2" opacity="0.35"/>
<circle cx="553.6" cy="393.8" r="3.2" fill="white" stroke="#1f3a5f" stroke-width="1.3" opacity="0.35"/>
<line x1="581.1" y1="411.8" x2="581.1" y2="411.8" stroke="#1f3a5f" stroke-width="1.4" opacity="0.35"/>
<line x1="577.1" y1="411.8" x2="585.1" y2="411.8" stroke="#1f3a5f" stroke-width="1.2" opacity="0.35"/>
<line x1="577.1" y1="411.8" x2="585.1" y2="411.8" stroke="#1f3a5f" stroke-width="1.2" opacity="0.35"/>
<circle cx="581.1" cy="411.8" r="3.2" fill="white" stroke="#1f3a5f" stroke-width="1.3" opacity="0.35"/>
<line x1="636.0" y1="407.1" x2="636.0" y2="407.1" stroke="#1f3a5f" stroke-width="1.4" opacity="0.35"/>
<line x1="632.0" y1="407.1" x2="640.0" y2="407.1" stroke="#1f3a5f" stroke-width="1.2" opacity="0.35"/>
<line x1="632.0" y1="407.1" x2="640.0" y2="407.1" stroke="#1f3a5f" stroke-width="1.2" opacity="0.35"/>
<circle cx="636.0" cy="407.1" r="3.2" fill="white" stroke="#1f3a5f" stroke-width="1.3" opacity="0.35"/>
<line x1="663.5" y1="540.0" x2="663.5" y2="540.0" stroke="#1f3a5f" stroke-width="1.4" opacity="0.35"/>
<line x1="659.5" y1="540.0" x2="667.5" y2="540.0" stroke="#1f3a5f" stroke-width="1.2" opacity="0.35"/>
<line x1="659.5" y1="540.0" x2="667.5" y2="540.0" stroke="#1f3a5f" stroke-width="1.2" opacity="0.35"/>
<circle cx="663.5" cy="540.0" r="3.2" fill="white" stroke="#1f3a5f" stroke-width="1.3" opacity="0.35"/>
<line x1="690.9" y1="508.7" x2="690.9" y2="508.7" stroke="#1f3a5f" stroke-width="1.4" opacity="0.35"/>
<line x1="686.9" y1="508.7" x2="694.9" y2="508.7" stroke="#1f3a5f" stroke-width="1.2" opacity="0.35"/>
<line x1="686.9" y1="508.7" x2="694.9" y2="508.7" stroke="#1f3a5f" stroke-width="1.2" opacity="0.35"/>
<circle cx="690.9" cy="508.7" r="3.2" fill="white" stroke="#1f3a5f" stroke-width="1.3" opacity="0.35"/>
<line x1="718.4" y1="410.6" x2="718.4" y2="410.6" stroke="#1f3a5f" stroke-width="1.4" opacity="0.35"/>
<line x1="714.4" y1="410.6" x2="722.4" y2="410.6" stroke="#1f3a5f" stroke-width="1.2" opacity="0.35"/>
<line x1="714.4" y1="410.6" x2="722.4" y2="410.6" stroke="#1f3a5f" stroke-width="1.2" opacity="0.35"/>
<circle cx="718.4" cy="410.6" r="3.2" fill="white" stroke="#1f3a5f" stroke-width="1.3" opacity="0.35"/>
<line x1="745.8" y1="535.9" x2="745.8" y2="535.9" stroke="#1f3a5f" stroke-width="1.4" opacity="0.35"/>
<line x1="741.8" y1="535.9" x2="749.8" y2="535.9" stroke="#1f3a5f" stroke-width="1.2" opacity="0.35"/>
<line x1="741.8" y1="535.9" x2="749.8" y2="535.9" stroke="#1f3a5f" stroke-width="1.2" opacity="0.35"/>
<circle cx="745.8" cy="535.9" r="3.2" fill="white" stroke="#1f3a5f" stroke-width="1.3" opacity="0.35"/>
<line x1="773.3" y1="504.8" x2="773.3" y2="504.8" stroke="#1f3a5f" stroke-width="1.4" opacity="0.35"/>
<line x1="769.3" y1="504.8" x2="777.3" y2="504.8" stroke="#1f3a5f" stroke-width="1.2" opacity="0.35"/>
<line x1="769.3" y1="504.8" x2="777.3" y2="504.8" stroke="#1f3a5f" stroke-width="1.2" opacity="0.35"/>
<circle cx="773.3" cy="504.8" r="3.2" fill="white" stroke="#1f3a5f" stroke-width="1.3" opacity="0.35"/>
<line x1="485" y1="540" x2="787" y2="540" stroke="#444"/>
<line x1="485" y1="380" x2="485" y2="540" stroke="#444"/>
<line x1="498.7" y1="540" x2="498.7" y2="543" stroke="#444"/>
<text x="498.7" y="555" text-anchor="middle" fill="#444">-5</text>
<line x1="526.2" y1="540" x2="526.2" y2="543" stroke="#444"/>
<text x="526.2" y="555" text-anchor="middle" fill="#444">-4</text>
<line x1="553.6" y1="540" x2="553.6" y2="543" stroke="#444"/>
<text x="553.6" y="555" text-anchor="middle" fill="#444">-3</text>
<line x1="581.1" y1="540" x2="581.1" y2="543" stroke="#444"/>
<text x="581.1" y="555" text-anchor="middle" fill="#444">-2</text>
<line x1="636.0" y1="540" x2="636.0" y2="543" stroke="#444"/>
<text x="636.0" y="555" text-anchor="middle" fill="#444">0</text>
<line x1="663.5" y1="540" x2="663.5" y2="543" stroke="#444"/>
<text x="663.5" y="555" text-anchor="middle" fill="#444">1</text>
<line x1="690.9" y1="540" x2="690.9" y2="543" stroke="#444"/>
<text x="690.9" y="555" text-anchor="middle" fill="#444">2</text>
<line x1="718.4" y1="540" x2="718.4" y2="543" stroke="#444"/>
<text x="718.4" y="555" text-anchor="middle" fill="#444">3</text>
<line x1="745.8" y1="540" x2="745.8" y2="543" stroke="#444"/>
<text x="745.8" y="555" text-anchor="middle" fill="#444">4</text>
<line x1="773.3" y1="540" x2="773.3" y2="543" stroke="#444"/>
<text x="773.3" y="555" text-anchor="middle" fill="#444">5</text>
<line x1="482" y1="540.0" x2="485" y2="540.0" stroke="#444"/>
<text x="479" y="543.0" text-anchor="end" fill="#444">-2.1</text>
<line x1="482" y1="500.0" x2="485" y2="500.0" stroke="#444"/>
<text x="479" y="503.0" text-anchor="end" fill="#444">-1.4</text>
<line x1="482" y1="460.0" x2="485" y2="460.0" stroke="#444"/>
<text x="479" y="463.0" text-anchor="end" fill="#444">-0.79</text>
<line x1="482" y1="420.0" x2="485" y2="420.0" stroke="#444"/>
<text x="479" y="423.0" text-anchor="end" fill="#444">-0.15</text>
<line x1="482" y1="380.0" x2="485" y2="380.0" stroke="#444"/>
<text x="479" y="383.0" text-anchor="end" fill="#444">0.49</text>
<text x="636.0" y="574" text-anchor="middle" fill="#444">Event time (years from adoption)</text>
<text x="437" y="460.0" text-anchor="middle" fill="#444" transform="rotate(-90 437 460.0)">ATT (per 100k)</text>
<rect x="15" y="620" width="380" height="260" fill="#fafaf7" stroke="#e2e2dc"/>
<text x="205.0" y="638" text-anchor="middle" font-weight="600">Total homicide rate (per 100k)</text>
<line x1="75" y1="670.0" x2="377" y2="670.0" stroke="#aaaaaa" stroke-width="0.7"/>
<line x1="212.3" y1="670" x2="212.3" y2="830" stroke="#b9461a" stroke-dasharray="3 3"/>
<line x1="88.7" y1="758.7" x2="88.7" y2="758.7" stroke="#1f3a5f" stroke-width="1.4" opacity="0.35"/>
<line x1="84.7" y1="758.7" x2="92.7" y2="758.7" stroke="#1f3a5f" stroke-width="1.2" opacity="0.35"/>
<line x1="84.7" y1="758.7" x2="92.7" y2="758.7" stroke="#1f3a5f" stroke-width="1.2" opacity="0.35"/>
<circle cx="88.7" cy="758.7" r="3.2" fill="white" stroke="#1f3a5f" stroke-width="1.3" opacity="0.35"/>
<line x1="116.2" y1="748.5" x2="116.2" y2="748.5" stroke="#1f3a5f" stroke-width="1.4" opacity="0.35"/>
<line x1="112.2" y1="748.5" x2="120.2" y2="748.5" stroke="#1f3a5f" stroke-width="1.2" opacity="0.35"/>
<line x1="112.2" y1="748.5" x2="120.2" y2="748.5" stroke="#1f3a5f" stroke-width="1.2" opacity="0.35"/>
<circle cx="116.2" cy="748.5" r="3.2" fill="white" stroke="#1f3a5f" stroke-width="1.3" opacity="0.35"/>
<line x1="143.6" y1="774.5" x2="143.6" y2="774.5" stroke="#1f3a5f" stroke-width="1.4" opacity="0.35"/>
<line x1="139.6" y1="774.5" x2="147.6" y2="774.5" stroke="#1f3a5f" stroke-width="1.2" opacity="0.35"/>
<line x1="139.6" y1="774.5" x2="147.6" y2="774.5" stroke="#1f3a5f" stroke-width="1.2" opacity="0.35"/>
<circle cx="143.6" cy="774.5" r="3.2" fill="white" stroke="#1f3a5f" stroke-width="1.3" opacity="0.35"/>
<line x1="171.1" y1="722.7" x2="171.1" y2="722.7" stroke="#1f3a5f" stroke-width="1.4" opacity="0.35"/>
<line x1="167.1" y1="722.7" x2="175.1" y2="722.7" stroke="#1f3a5f" stroke-width="1.2" opacity="0.35"/>
<line x1="167.1" y1="722.7" x2="175.1" y2="722.7" stroke="#1f3a5f" stroke-width="1.2" opacity="0.35"/>
<circle cx="171.1" cy="722.7" r="3.2" fill="white" stroke="#1f3a5f" stroke-width="1.3" opacity="0.35"/>
<line x1="226.0" y1="747.4" x2="226.0" y2="747.4" stroke="#1f3a5f" stroke-width="1.4" opacity="0.35"/>
<line x1="222.0" y1="747.4" x2="230.0" y2="747.4" stroke="#1f3a5f" stroke-width="1.2" opacity="0.35"/>
<line x1="222.0" y1="747.4" x2="230.0" y2="747.4" stroke="#1f3a5f" stroke-width="1.2" opacity="0.35"/>
<circle cx="226.0" cy="747.4" r="3.2" fill="white" stroke="#1f3a5f" stroke-width="1.3" opacity="0.35"/>
<line x1="253.5" y1="830.0" x2="253.5" y2="830.0" stroke="#1f3a5f" stroke-width="1.4" opacity="0.35"/>
<line x1="249.5" y1="830.0" x2="257.5" y2="830.0" stroke="#1f3a5f" stroke-width="1.2" opacity="0.35"/>
<line x1="249.5" y1="830.0" x2="257.5" y2="830.0" stroke="#1f3a5f" stroke-width="1.2" opacity="0.35"/>
<circle cx="253.5" cy="830.0" r="3.2" fill="white" stroke="#1f3a5f" stroke-width="1.3" opacity="0.35"/>
<line x1="280.9" y1="760.1" x2="280.9" y2="760.1" stroke="#1f3a5f" stroke-width="1.4" opacity="0.35"/>
<line x1="276.9" y1="760.1" x2="284.9" y2="760.1" stroke="#1f3a5f" stroke-width="1.2" opacity="0.35"/>
<line x1="276.9" y1="760.1" x2="284.9" y2="760.1" stroke="#1f3a5f" stroke-width="1.2" opacity="0.35"/>
<circle cx="280.9" cy="760.1" r="3.2" fill="white" stroke="#1f3a5f" stroke-width="1.3" opacity="0.35"/>
<line x1="308.4" y1="828.1" x2="308.4" y2="828.1" stroke="#1f3a5f" stroke-width="1.4" opacity="0.35"/>
<line x1="304.4" y1="828.1" x2="312.4" y2="828.1" stroke="#1f3a5f" stroke-width="1.2" opacity="0.35"/>
<line x1="304.4" y1="828.1" x2="312.4" y2="828.1" stroke="#1f3a5f" stroke-width="1.2" opacity="0.35"/>
<circle cx="308.4" cy="828.1" r="3.2" fill="white" stroke="#1f3a5f" stroke-width="1.3" opacity="0.35"/>
<line x1="335.8" y1="786.7" x2="335.8" y2="786.7" stroke="#1f3a5f" stroke-width="1.4" opacity="0.35"/>
<line x1="331.8" y1="786.7" x2="339.8" y2="786.7" stroke="#1f3a5f" stroke-width="1.2" opacity="0.35"/>
<line x1="331.8" y1="786.7" x2="339.8" y2="786.7" stroke="#1f3a5f" stroke-width="1.2" opacity="0.35"/>
<circle cx="335.8" cy="786.7" r="3.2" fill="white" stroke="#1f3a5f" stroke-width="1.3" opacity="0.35"/>
<line x1="363.3" y1="800.6" x2="363.3" y2="800.6" stroke="#1f3a5f" stroke-width="1.4" opacity="0.35"/>
<line x1="359.3" y1="800.6" x2="367.3" y2="800.6" stroke="#1f3a5f" stroke-width="1.2" opacity="0.35"/>
<line x1="359.3" y1="800.6" x2="367.3" y2="800.6" stroke="#1f3a5f" stroke-width="1.2" opacity="0.35"/>
<circle cx="363.3" cy="800.6" r="3.2" fill="white" stroke="#1f3a5f" stroke-width="1.3" opacity="0.35"/>
<line x1="75" y1="830" x2="377" y2="830" stroke="#444"/>
<line x1="75" y1="670" x2="75" y2="830" stroke="#444"/>
<line x1="88.7" y1="830" x2="88.7" y2="833" stroke="#444"/>
<text x="88.7" y="845" text-anchor="middle" fill="#444">-5</text>
<line x1="116.2" y1="830" x2="116.2" y2="833" stroke="#444"/>
<text x="116.2" y="845" text-anchor="middle" fill="#444">-4</text>
<line x1="143.6" y1="830" x2="143.6" y2="833" stroke="#444"/>
<text x="143.6" y="845" text-anchor="middle" fill="#444">-3</text>
<line x1="171.1" y1="830" x2="171.1" y2="833" stroke="#444"/>
<text x="171.1" y="845" text-anchor="middle" fill="#444">-2</text>
<line x1="226.0" y1="830" x2="226.0" y2="833" stroke="#444"/>
<text x="226.0" y="845" text-anchor="middle" fill="#444">0</text>
<line x1="253.5" y1="830" x2="253.5" y2="833" stroke="#444"/>
<text x="253.5" y="845" text-anchor="middle" fill="#444">1</text>
<line x1="280.9" y1="830" x2="280.9" y2="833" stroke="#444"/>
<text x="280.9" y="845" text-anchor="middle" fill="#444">2</text>
<line x1="308.4" y1="830" x2="308.4" y2="833" stroke="#444"/>
<text x="308.4" y="845" text-anchor="middle" fill="#444">3</text>
<line x1="335.8" y1="830" x2="335.8" y2="833" stroke="#444"/>
<text x="335.8" y="845" text-anchor="middle" fill="#444">4</text>
<line x1="363.3" y1="830" x2="363.3" y2="833" stroke="#444"/>
<text x="363.3" y="845" text-anchor="middle" fill="#444">5</text>
<line x1="72" y1="830.0" x2="75" y2="830.0" stroke="#444"/>
<text x="69" y="833.0" text-anchor="end" fill="#444">-3.8</text>
<line x1="72" y1="790.0" x2="75" y2="790.0" stroke="#444"/>
<text x="69" y="793.0" text-anchor="end" fill="#444">-2.8</text>
<line x1="72" y1="750.0" x2="75" y2="750.0" stroke="#444"/>
<text x="69" y="753.0" text-anchor="end" fill="#444">-1.9</text>
<line x1="72" y1="710.0" x2="75" y2="710.0" stroke="#444"/>
<text x="69" y="713.0" text-anchor="end" fill="#444">-0.94</text>
<line x1="72" y1="670.0" x2="75" y2="670.0" stroke="#444"/>
<text x="69" y="673.0" text-anchor="end" fill="#444">0</text>
<text x="226.0" y="864" text-anchor="middle" fill="#444">Event time (years from adoption)</text>
<text x="27" y="750.0" text-anchor="middle" fill="#444" transform="rotate(-90 27 750.0)">ATT (per 100k)</text>
<rect x="425" y="620" width="380" height="260" fill="#fafaf7" stroke="#e2e2dc"/>
<text x="615.0" y="638" text-anchor="middle" font-weight="600">Motor vehicle theft rate (per 100k) [placebo]</text>
<line x1="485" y1="800.3667153248604" x2="787" y2="800.3667153248604" stroke="#aaaaaa" stroke-width="0.7"/>
<line x1="622.3" y1="670" x2="622.3" y2="830" stroke="#b9461a" stroke-dasharray="3 3"/>
<line x1="498.7" y1="722.7" x2="498.7" y2="722.7" stroke="#1f3a5f" stroke-width="1.4" opacity="0.35"/>
<line x1="494.7" y1="722.7" x2="502.7" y2="722.7" stroke="#1f3a5f" stroke-width="1.2" opacity="0.35"/>
<line x1="494.7" y1="722.7" x2="502.7" y2="722.7" stroke="#1f3a5f" stroke-width="1.2" opacity="0.35"/>
<circle cx="498.7" cy="722.7" r="3.2" fill="white" stroke="#1f3a5f" stroke-width="1.3" opacity="0.35"/>
<line x1="526.2" y1="730.7" x2="526.2" y2="730.7" stroke="#1f3a5f" stroke-width="1.4" opacity="0.35"/>
<line x1="522.2" y1="730.7" x2="530.2" y2="730.7" stroke="#1f3a5f" stroke-width="1.2" opacity="0.35"/>
<line x1="522.2" y1="730.7" x2="530.2" y2="730.7" stroke="#1f3a5f" stroke-width="1.2" opacity="0.35"/>
<circle cx="526.2" cy="730.7" r="3.2" fill="white" stroke="#1f3a5f" stroke-width="1.3" opacity="0.35"/>
<line x1="553.6" y1="756.9" x2="553.6" y2="756.9" stroke="#1f3a5f" stroke-width="1.4" opacity="0.35"/>
<line x1="549.6" y1="756.9" x2="557.6" y2="756.9" stroke="#1f3a5f" stroke-width="1.2" opacity="0.35"/>
<line x1="549.6" y1="756.9" x2="557.6" y2="756.9" stroke="#1f3a5f" stroke-width="1.2" opacity="0.35"/>
<circle cx="553.6" cy="756.9" r="3.2" fill="white" stroke="#1f3a5f" stroke-width="1.3" opacity="0.35"/>
<line x1="581.1" y1="794.0" x2="581.1" y2="794.0" stroke="#1f3a5f" stroke-width="1.4" opacity="0.35"/>
<line x1="577.1" y1="794.0" x2="585.1" y2="794.0" stroke="#1f3a5f" stroke-width="1.2" opacity="0.35"/>
<line x1="577.1" y1="794.0" x2="585.1" y2="794.0" stroke="#1f3a5f" stroke-width="1.2" opacity="0.35"/>
<circle cx="581.1" cy="794.0" r="3.2" fill="white" stroke="#1f3a5f" stroke-width="1.3" opacity="0.35"/>
<line x1="636.0" y1="804.3" x2="636.0" y2="804.3" stroke="#1f3a5f" stroke-width="1.4" opacity="0.35"/>
<line x1="632.0" y1="804.3" x2="640.0" y2="804.3" stroke="#1f3a5f" stroke-width="1.2" opacity="0.35"/>
<line x1="632.0" y1="804.3" x2="640.0" y2="804.3" stroke="#1f3a5f" stroke-width="1.2" opacity="0.35"/>
<circle cx="636.0" cy="804.3" r="3.2" fill="white" stroke="#1f3a5f" stroke-width="1.3" opacity="0.35"/>
<line x1="663.5" y1="798.0" x2="663.5" y2="798.0" stroke="#1f3a5f" stroke-width="1.4" opacity="0.35"/>
<line x1="659.5" y1="798.0" x2="667.5" y2="798.0" stroke="#1f3a5f" stroke-width="1.2" opacity="0.35"/>
<line x1="659.5" y1="798.0" x2="667.5" y2="798.0" stroke="#1f3a5f" stroke-width="1.2" opacity="0.35"/>
<circle cx="663.5" cy="798.0" r="3.2" fill="white" stroke="#1f3a5f" stroke-width="1.3" opacity="0.35"/>
<line x1="690.9" y1="830.0" x2="690.9" y2="830.0" stroke="#1f3a5f" stroke-width="1.4" opacity="0.35"/>
<line x1="686.9" y1="830.0" x2="694.9" y2="830.0" stroke="#1f3a5f" stroke-width="1.2" opacity="0.35"/>
<line x1="686.9" y1="830.0" x2="694.9" y2="830.0" stroke="#1f3a5f" stroke-width="1.2" opacity="0.35"/>
<circle cx="690.9" cy="830.0" r="3.2" fill="white" stroke="#1f3a5f" stroke-width="1.3" opacity="0.35"/>
<line x1="718.4" y1="781.5" x2="718.4" y2="781.5" stroke="#1f3a5f" stroke-width="1.4" opacity="0.35"/>
<line x1="714.4" y1="781.5" x2="722.4" y2="781.5" stroke="#1f3a5f" stroke-width="1.2" opacity="0.35"/>
<line x1="714.4" y1="781.5" x2="722.4" y2="781.5" stroke="#1f3a5f" stroke-width="1.2" opacity="0.35"/>
<circle cx="718.4" cy="781.5" r="3.2" fill="white" stroke="#1f3a5f" stroke-width="1.3" opacity="0.35"/>
<line x1="745.8" y1="744.7" x2="745.8" y2="744.7" stroke="#1f3a5f" stroke-width="1.4" opacity="0.35"/>
<line x1="741.8" y1="744.7" x2="749.8" y2="744.7" stroke="#1f3a5f" stroke-width="1.2" opacity="0.35"/>
<line x1="741.8" y1="744.7" x2="749.8" y2="744.7" stroke="#1f3a5f" stroke-width="1.2" opacity="0.35"/>
<circle cx="745.8" cy="744.7" r="3.2" fill="white" stroke="#1f3a5f" stroke-width="1.3" opacity="0.35"/>
<line x1="773.3" y1="670.0" x2="773.3" y2="670.0" stroke="#1f3a5f" stroke-width="1.4" opacity="0.35"/>
<line x1="769.3" y1="670.0" x2="777.3" y2="670.0" stroke="#1f3a5f" stroke-width="1.2" opacity="0.35"/>
<line x1="769.3" y1="670.0" x2="777.3" y2="670.0" stroke="#1f3a5f" stroke-width="1.2" opacity="0.35"/>
<circle cx="773.3" cy="670.0" r="3.2" fill="white" stroke="#1f3a5f" stroke-width="1.3" opacity="0.35"/>
<line x1="485" y1="830" x2="787" y2="830" stroke="#444"/>
<line x1="485" y1="670" x2="485" y2="830" stroke="#444"/>
<line x1="498.7" y1="830" x2="498.7" y2="833" stroke="#444"/>
<text x="498.7" y="845" text-anchor="middle" fill="#444">-5</text>
<line x1="526.2" y1="830" x2="526.2" y2="833" stroke="#444"/>
<text x="526.2" y="845" text-anchor="middle" fill="#444">-4</text>
<line x1="553.6" y1="830" x2="553.6" y2="833" stroke="#444"/>
<text x="553.6" y="845" text-anchor="middle" fill="#444">-3</text>
<line x1="581.1" y1="830" x2="581.1" y2="833" stroke="#444"/>
<text x="581.1" y="845" text-anchor="middle" fill="#444">-2</text>
<line x1="636.0" y1="830" x2="636.0" y2="833" stroke="#444"/>
<text x="636.0" y="845" text-anchor="middle" fill="#444">0</text>
<line x1="663.5" y1="830" x2="663.5" y2="833" stroke="#444"/>
<text x="663.5" y="845" text-anchor="middle" fill="#444">1</text>
<line x1="690.9" y1="830" x2="690.9" y2="833" stroke="#444"/>
<text x="690.9" y="845" text-anchor="middle" fill="#444">2</text>
<line x1="718.4" y1="830" x2="718.4" y2="833" stroke="#444"/>
<text x="718.4" y="845" text-anchor="middle" fill="#444">3</text>
<line x1="745.8" y1="830" x2="745.8" y2="833" stroke="#444"/>
<text x="745.8" y="845" text-anchor="middle" fill="#444">4</text>
<line x1="773.3" y1="830" x2="773.3" y2="833" stroke="#444"/>
<text x="773.3" y="845" text-anchor="middle" fill="#444">5</text>
<line x1="482" y1="830.0" x2="485" y2="830.0" stroke="#444"/>
<text x="479" y="833.0" text-anchor="end" fill="#444">-34</text>
<line x1="482" y1="790.0" x2="485" y2="790.0" stroke="#444"/>
<text x="479" y="793.0" text-anchor="end" fill="#444">12</text>
<line x1="482" y1="750.0" x2="485" y2="750.0" stroke="#444"/>
<text x="479" y="753.0" text-anchor="end" fill="#444">58</text>
<line x1="482" y1="710.0" x2="485" y2="710.0" stroke="#444"/>
<text x="479" y="713.0" text-anchor="end" fill="#444">1e+02</text>
<line x1="482" y1="670.0" x2="485" y2="670.0" stroke="#444"/>
<text x="479" y="673.0" text-anchor="end" fill="#444">1.5e+02</text>
<text x="636.0" y="864" text-anchor="middle" fill="#444">Event time (years from adoption)</text>
<text x="437" y="750.0" text-anchor="middle" fill="#444" transform="rotate(-90 437 750.0)">ATT (per 100k)</text>
<text x="805" y="898" text-anchor="end" fill="#888" font-size="10">Whiskers: pointwise 95% CI from cluster bootstrap. Solid dot = significant at 5%; hollow dot = not significant. Vertical dashed line marks the year before adoption.</text>
</svg>