<svg xmlns="http://www.w3.org/2000/svg" viewBox="0 0 820 620" font-family="-apple-system, Segoe UI, Helvetica, Arial, sans-serif" font-size="11">
<text x="410.0" y="22" text-anchor="middle" font-size="14" font-weight="600">Callaway-Sant'Anna ATT by event time (RA) -- magazine ban (Tufts magazine)</text>
<rect x="15" y="40" width="380" height="260" fill="#fafaf7" stroke="#e2e2dc"/>
<text x="205.0" y="58" text-anchor="middle" font-weight="600">Firearm suicide rate (per 100k)</text>
<line x1="75" y1="184.4854728949809" x2="377" y2="184.4854728949809" stroke="#aaaaaa" stroke-width="0.7"/>
<polygon points="88.7,151.4 116.2,124.6 143.6,148.9 171.1,112.2 226.0,124.6 253.5,90.0 280.9,130.6 308.4,121.2 335.8,184.8 363.3,125.8 363.3,170.6 335.8,250.0 308.4,201.6 280.9,218.6 253.5,157.0 226.0,196.0 171.1,177.9 143.6,239.2 116.2,184.7 88.7,244.5" fill="#1f3a5f" opacity="0.18"/>
<polyline points="88.7,198.0 116.2,154.6 143.6,194.1 171.1,145.1 226.0,160.3 253.5,123.5 280.9,174.6 308.4,161.4 335.8,217.4 363.3,148.2" fill="none" stroke="#1f3a5f" stroke-width="1.6"/>
<circle cx="88.7" cy="198.0" r="2.6" fill="#1f3a5f"/>
<circle cx="116.2" cy="154.6" r="2.6" fill="#1f3a5f"/>
<circle cx="143.6" cy="194.1" r="2.6" fill="#1f3a5f"/>
<circle cx="171.1" cy="145.1" r="2.6" fill="#1f3a5f"/>
<circle cx="226.0" cy="160.3" r="2.6" fill="#1f3a5f"/>
<circle cx="253.5" cy="123.5" r="2.6" fill="#1f3a5f"/>
<circle cx="280.9" cy="174.6" r="2.6" fill="#1f3a5f"/>
<circle cx="308.4" cy="161.4" r="2.6" fill="#1f3a5f"/>
<circle cx="335.8" cy="217.4" r="2.6" fill="#1f3a5f"/>
<circle cx="363.3" cy="148.2" r="2.6" fill="#1f3a5f"/>
<line x1="212.3" y1="90" x2="212.3" y2="250" stroke="#b9461a" stroke-dasharray="3 3"/>
<line x1="75" y1="250" x2="377" y2="250" stroke="#444"/>
<line x1="75" y1="90" x2="75" y2="250" stroke="#444"/>
<line x1="88.7" y1="250" x2="88.7" y2="253" stroke="#444"/>
<text x="88.7" y="265" text-anchor="middle" fill="#444">-5</text>
<line x1="116.2" y1="250" x2="116.2" y2="253" stroke="#444"/>
<text x="116.2" y="265" text-anchor="middle" fill="#444">-4</text>
<line x1="143.6" y1="250" x2="143.6" y2="253" stroke="#444"/>
<text x="143.6" y="265" text-anchor="middle" fill="#444">-3</text>
<line x1="171.1" y1="250" x2="171.1" y2="253" stroke="#444"/>
<text x="171.1" y="265" text-anchor="middle" fill="#444">-2</text>
<line x1="226.0" y1="250" x2="226.0" y2="253" stroke="#444"/>
<text x="226.0" y="265" text-anchor="middle" fill="#444">0</text>
<line x1="253.5" y1="250" x2="253.5" y2="253" stroke="#444"/>
<text x="253.5" y="265" text-anchor="middle" fill="#444">1</text>
<line x1="280.9" y1="250" x2="280.9" y2="253" stroke="#444"/>
<text x="280.9" y="265" text-anchor="middle" fill="#444">2</text>
<line x1="308.4" y1="250" x2="308.4" y2="253" stroke="#444"/>
<text x="308.4" y="265" text-anchor="middle" fill="#444">3</text>
<line x1="335.8" y1="250" x2="335.8" y2="253" stroke="#444"/>
<text x="335.8" y="265" text-anchor="middle" fill="#444">4</text>
<line x1="363.3" y1="250" x2="363.3" y2="253" stroke="#444"/>
<text x="363.3" y="265" text-anchor="middle" fill="#444">5</text>
<line x1="72" y1="250.0" x2="75" y2="250.0" stroke="#444"/>
<text x="69" y="253.0" text-anchor="end" fill="#444">-0.54</text>
<line x1="72" y1="210.0" x2="75" y2="210.0" stroke="#444"/>
<text x="69" y="213.0" text-anchor="end" fill="#444">-0.21</text>
<line x1="72" y1="170.0" x2="75" y2="170.0" stroke="#444"/>
<text x="69" y="173.0" text-anchor="end" fill="#444">0.12</text>
<line x1="72" y1="130.0" x2="75" y2="130.0" stroke="#444"/>
<text x="69" y="133.0" text-anchor="end" fill="#444">0.45</text>
<line x1="72" y1="90.0" x2="75" y2="90.0" stroke="#444"/>
<text x="69" y="93.0" text-anchor="end" fill="#444">0.77</text>
<text x="226.0" y="284" text-anchor="middle" fill="#444">Event time (years from adoption)</text>
<text x="27" y="170.0" text-anchor="middle" fill="#444" transform="rotate(-90 27 170.0)">ATT (per 100k)</text>
<rect x="425" y="40" width="380" height="260" fill="#fafaf7" stroke="#e2e2dc"/>
<text x="615.0" y="58" text-anchor="middle" font-weight="600">Non-firearm suicide rate (per 100k) [substitution test]</text>
<line x1="485" y1="219.4898676109628" x2="787" y2="219.4898676109628" stroke="#aaaaaa" stroke-width="0.7"/>
<polygon points="498.7,172.7 526.2,145.1 553.6,215.4 581.1,186.0 636.0,155.4 663.5,171.3 690.9,174.5 718.4,90.0 745.8,141.2 773.3,92.8 773.3,171.1 745.8,196.3 718.4,149.9 690.9,223.5 663.5,223.4 636.0,214.8 581.1,232.7 553.6,250.0 526.2,185.8 498.7,209.6" fill="#1f3a5f" opacity="0.18"/>
<polyline points="498.7,191.1 526.2,165.4 553.6,232.7 581.1,209.4 636.0,185.1 663.5,197.3 690.9,199.0 718.4,120.0 745.8,168.7 773.3,131.9" fill="none" stroke="#1f3a5f" stroke-width="1.6"/>
<circle cx="498.7" cy="191.1" r="2.6" fill="#1f3a5f"/>
<circle cx="526.2" cy="165.4" r="2.6" fill="#1f3a5f"/>
<circle cx="553.6" cy="232.7" r="2.6" fill="#1f3a5f"/>
<circle cx="581.1" cy="209.4" r="2.6" fill="#1f3a5f"/>
<circle cx="636.0" cy="185.1" r="2.6" fill="#1f3a5f"/>
<circle cx="663.5" cy="197.3" r="2.6" fill="#1f3a5f"/>
<circle cx="690.9" cy="199.0" r="2.6" fill="#1f3a5f"/>
<circle cx="718.4" cy="120.0" r="2.6" fill="#1f3a5f"/>
<circle cx="745.8" cy="168.7" r="2.6" fill="#1f3a5f"/>
<circle cx="773.3" cy="131.9" r="2.6" fill="#1f3a5f"/>
<line x1="622.3" y1="90" x2="622.3" y2="250" stroke="#b9461a" stroke-dasharray="3 3"/>
<line x1="485" y1="250" x2="787" y2="250" stroke="#444"/>
<line x1="485" y1="90" x2="485" y2="250" stroke="#444"/>
<line x1="498.7" y1="250" x2="498.7" y2="253" stroke="#444"/>
<text x="498.7" y="265" text-anchor="middle" fill="#444">-5</text>
<line x1="526.2" y1="250" x2="526.2" y2="253" stroke="#444"/>
<text x="526.2" y="265" text-anchor="middle" fill="#444">-4</text>
<line x1="553.6" y1="250" x2="553.6" y2="253" stroke="#444"/>
<text x="553.6" y="265" text-anchor="middle" fill="#444">-3</text>
<line x1="581.1" y1="250" x2="581.1" y2="253" stroke="#444"/>
<text x="581.1" y="265" text-anchor="middle" fill="#444">-2</text>
<line x1="636.0" y1="250" x2="636.0" y2="253" stroke="#444"/>
<text x="636.0" y="265" text-anchor="middle" fill="#444">0</text>
<line x1="663.5" y1="250" x2="663.5" y2="253" stroke="#444"/>
<text x="663.5" y="265" text-anchor="middle" fill="#444">1</text>
<line x1="690.9" y1="250" x2="690.9" y2="253" stroke="#444"/>
<text x="690.9" y="265" text-anchor="middle" fill="#444">2</text>
<line x1="718.4" y1="250" x2="718.4" y2="253" stroke="#444"/>
<text x="718.4" y="265" text-anchor="middle" fill="#444">3</text>
<line x1="745.8" y1="250" x2="745.8" y2="253" stroke="#444"/>
<text x="745.8" y="265" text-anchor="middle" fill="#444">4</text>
<line x1="773.3" y1="250" x2="773.3" y2="253" stroke="#444"/>
<text x="773.3" y="265" text-anchor="middle" fill="#444">5</text>
<line x1="482" y1="250.0" x2="485" y2="250.0" stroke="#444"/>
<text x="479" y="253.0" text-anchor="end" fill="#444">-0.39</text>
<line x1="482" y1="210.0" x2="485" y2="210.0" stroke="#444"/>
<text x="479" y="213.0" text-anchor="end" fill="#444">0.12</text>
<line x1="482" y1="170.0" x2="485" y2="170.0" stroke="#444"/>
<text x="479" y="173.0" text-anchor="end" fill="#444">0.63</text>
<line x1="482" y1="130.0" x2="485" y2="130.0" stroke="#444"/>
<text x="479" y="133.0" text-anchor="end" fill="#444">1.1</text>
<line x1="482" y1="90.0" x2="485" y2="90.0" stroke="#444"/>
<text x="479" y="93.0" text-anchor="end" fill="#444">1.6</text>
<text x="636.0" y="284" text-anchor="middle" fill="#444">Event time (years from adoption)</text>
<text x="437" y="170.0" text-anchor="middle" fill="#444" transform="rotate(-90 437 170.0)">ATT (per 100k)</text>
<rect x="15" y="330" width="380" height="260" fill="#fafaf7" stroke="#e2e2dc"/>
<text x="205.0" y="348" text-anchor="middle" font-weight="600">Total suicide rate (per 100k) [net effect]</text>
<line x1="75" y1="499.00320158566313" x2="377" y2="499.00320158566313" stroke="#aaaaaa" stroke-width="0.7"/>
<polygon points="88.7,453.7 116.2,421.4 143.6,486.3 171.1,450.3 226.0,437.0 253.5,426.5 280.9,444.8 308.4,380.0 335.8,445.6 363.3,387.3 363.3,448.6 335.8,509.5 308.4,451.0 280.9,513.9 253.5,481.5 226.0,487.9 171.1,495.6 143.6,540.0 116.2,469.5 88.7,515.6" fill="#1f3a5f" opacity="0.18"/>
<polyline points="88.7,484.7 116.2,445.5 143.6,513.2 171.1,473.0 226.0,462.5 253.5,454.0 280.9,479.4 308.4,415.5 335.8,477.5 363.3,418.0" fill="none" stroke="#1f3a5f" stroke-width="1.6"/>
<circle cx="88.7" cy="484.7" r="2.6" fill="#1f3a5f"/>
<circle cx="116.2" cy="445.5" r="2.6" fill="#1f3a5f"/>
<circle cx="143.6" cy="513.2" r="2.6" fill="#1f3a5f"/>
<circle cx="171.1" cy="473.0" r="2.6" fill="#1f3a5f"/>
<circle cx="226.0" cy="462.5" r="2.6" fill="#1f3a5f"/>
<circle cx="253.5" cy="454.0" r="2.6" fill="#1f3a5f"/>
<circle cx="280.9" cy="479.4" r="2.6" fill="#1f3a5f"/>
<circle cx="308.4" cy="415.5" r="2.6" fill="#1f3a5f"/>
<circle cx="335.8" cy="477.5" r="2.6" fill="#1f3a5f"/>
<circle cx="363.3" cy="418.0" r="2.6" fill="#1f3a5f"/>
<line x1="212.3" y1="380" x2="212.3" y2="540" stroke="#b9461a" stroke-dasharray="3 3"/>
<line x1="75" y1="540" x2="377" y2="540" stroke="#444"/>
<line x1="75" y1="380" x2="75" y2="540" stroke="#444"/>
<line x1="88.7" y1="540" x2="88.7" y2="543" stroke="#444"/>
<text x="88.7" y="555" text-anchor="middle" fill="#444">-5</text>
<line x1="116.2" y1="540" x2="116.2" y2="543" stroke="#444"/>
<text x="116.2" y="555" text-anchor="middle" fill="#444">-4</text>
<line x1="143.6" y1="540" x2="143.6" y2="543" stroke="#444"/>
<text x="143.6" y="555" text-anchor="middle" fill="#444">-3</text>
<line x1="171.1" y1="540" x2="171.1" y2="543" stroke="#444"/>
<text x="171.1" y="555" text-anchor="middle" fill="#444">-2</text>
<line x1="226.0" y1="540" x2="226.0" y2="543" stroke="#444"/>
<text x="226.0" y="555" text-anchor="middle" fill="#444">0</text>
<line x1="253.5" y1="540" x2="253.5" y2="543" stroke="#444"/>
<text x="253.5" y="555" text-anchor="middle" fill="#444">1</text>
<line x1="280.9" y1="540" x2="280.9" y2="543" stroke="#444"/>
<text x="280.9" y="555" text-anchor="middle" fill="#444">2</text>
<line x1="308.4" y1="540" x2="308.4" y2="543" stroke="#444"/>
<text x="308.4" y="555" text-anchor="middle" fill="#444">3</text>
<line x1="335.8" y1="540" x2="335.8" y2="543" stroke="#444"/>
<text x="335.8" y="555" text-anchor="middle" fill="#444">4</text>
<line x1="363.3" y1="540" x2="363.3" y2="543" stroke="#444"/>
<text x="363.3" y="555" text-anchor="middle" fill="#444">5</text>
<line x1="72" y1="540.0" x2="75" y2="540.0" stroke="#444"/>
<text x="69" y="543.0" text-anchor="end" fill="#444">-0.71</text>
<line x1="72" y1="500.0" x2="75" y2="500.0" stroke="#444"/>
<text x="69" y="503.0" text-anchor="end" fill="#444">-0.017</text>
<line x1="72" y1="460.0" x2="75" y2="460.0" stroke="#444"/>
<text x="69" y="463.0" text-anchor="end" fill="#444">0.68</text>
<line x1="72" y1="420.0" x2="75" y2="420.0" stroke="#444"/>
<text x="69" y="423.0" text-anchor="end" fill="#444">1.4</text>
<line x1="72" y1="380.0" x2="75" y2="380.0" stroke="#444"/>
<text x="69" y="383.0" text-anchor="end" fill="#444">2.1</text>
<text x="226.0" y="574" text-anchor="middle" fill="#444">Event time (years from adoption)</text>
<text x="27" y="460.0" text-anchor="middle" fill="#444" transform="rotate(-90 27 460.0)">ATT (per 100k)</text>
<rect x="425" y="330" width="380" height="260" fill="#fafaf7" stroke="#e2e2dc"/>
<text x="615.0" y="348" text-anchor="middle" font-weight="600">Firearm homicide rate (per 100k)</text>
<line x1="485" y1="386.0041523714775" x2="787" y2="386.0041523714775" stroke="#aaaaaa" stroke-width="0.7"/>
<polygon points="498.7,404.8 526.2,411.0 553.6,403.0 581.1,380.0 636.0,412.3 663.5,408.3 690.9,419.3 718.4,422.2 745.8,397.9 773.3,381.6 773.3,462.4 745.8,461.8 718.4,540.0 690.9,480.9 663.5,482.3 636.0,463.0 581.1,399.9 553.6,438.6 526.2,440.7 498.7,432.7" fill="#1f3a5f" opacity="0.18"/>
<polyline points="498.7,418.7 526.2,425.8 553.6,420.8 581.1,389.9 636.0,437.6 663.5,445.3 690.9,450.1 718.4,481.1 745.8,429.9 773.3,422.0" fill="none" stroke="#1f3a5f" stroke-width="1.6"/>
<circle cx="498.7" cy="418.7" r="2.6" fill="#1f3a5f"/>
<circle cx="526.2" cy="425.8" r="2.6" fill="#1f3a5f"/>
<circle cx="553.6" cy="420.8" r="2.6" fill="#1f3a5f"/>
<circle cx="581.1" cy="389.9" r="2.6" fill="#1f3a5f"/>
<circle cx="636.0" cy="437.6" r="2.6" fill="#1f3a5f"/>
<circle cx="663.5" cy="445.3" r="2.6" fill="#1f3a5f"/>
<circle cx="690.9" cy="450.1" r="2.6" fill="#1f3a5f"/>
<circle cx="718.4" cy="481.1" r="2.6" fill="#1f3a5f"/>
<circle cx="745.8" cy="429.9" r="2.6" fill="#1f3a5f"/>
<circle cx="773.3" cy="422.0" r="2.6" fill="#1f3a5f"/>
<line x1="622.3" y1="380" x2="622.3" y2="540" stroke="#b9461a" stroke-dasharray="3 3"/>
<line x1="485" y1="540" x2="787" y2="540" stroke="#444"/>
<line x1="485" y1="380" x2="485" y2="540" stroke="#444"/>
<line x1="498.7" y1="540" x2="498.7" y2="543" stroke="#444"/>
<text x="498.7" y="555" text-anchor="middle" fill="#444">-5</text>
<line x1="526.2" y1="540" x2="526.2" y2="543" stroke="#444"/>
<text x="526.2" y="555" text-anchor="middle" fill="#444">-4</text>
<line x1="553.6" y1="540" x2="553.6" y2="543" stroke="#444"/>
<text x="553.6" y="555" text-anchor="middle" fill="#444">-3</text>
<line x1="581.1" y1="540" x2="581.1" y2="543" stroke="#444"/>
<text x="581.1" y="555" text-anchor="middle" fill="#444">-2</text>
<line x1="636.0" y1="540" x2="636.0" y2="543" stroke="#444"/>
<text x="636.0" y="555" text-anchor="middle" fill="#444">0</text>
<line x1="663.5" y1="540" x2="663.5" y2="543" stroke="#444"/>
<text x="663.5" y="555" text-anchor="middle" fill="#444">1</text>
<line x1="690.9" y1="540" x2="690.9" y2="543" stroke="#444"/>
<text x="690.9" y="555" text-anchor="middle" fill="#444">2</text>
<line x1="718.4" y1="540" x2="718.4" y2="543" stroke="#444"/>
<text x="718.4" y="555" text-anchor="middle" fill="#444">3</text>
<line x1="745.8" y1="540" x2="745.8" y2="543" stroke="#444"/>
<text x="745.8" y="555" text-anchor="middle" fill="#444">4</text>
<line x1="773.3" y1="540" x2="773.3" y2="543" stroke="#444"/>
<text x="773.3" y="555" text-anchor="middle" fill="#444">5</text>
<line x1="482" y1="540.0" x2="485" y2="540.0" stroke="#444"/>
<text x="479" y="543.0" text-anchor="end" fill="#444">-2.6</text>
<line x1="482" y1="500.0" x2="485" y2="500.0" stroke="#444"/>
<text x="479" y="503.0" text-anchor="end" fill="#444">-2</text>
<line x1="482" y1="460.0" x2="485" y2="460.0" stroke="#444"/>
<text x="479" y="463.0" text-anchor="end" fill="#444">-1.3</text>
<line x1="482" y1="420.0" x2="485" y2="420.0" stroke="#444"/>
<text x="479" y="423.0" text-anchor="end" fill="#444">-0.58</text>
<line x1="482" y1="380.0" x2="485" y2="380.0" stroke="#444"/>
<text x="479" y="383.0" text-anchor="end" fill="#444">0.1</text>
<text x="636.0" y="574" text-anchor="middle" fill="#444">Event time (years from adoption)</text>
<text x="437" y="460.0" text-anchor="middle" fill="#444" transform="rotate(-90 437 460.0)">ATT (per 100k)</text>
<rect x="15" y="620" width="380" height="260" fill="#fafaf7" stroke="#e2e2dc"/>
<text x="205.0" y="638" text-anchor="middle" font-weight="600">Total homicide rate (per 100k)</text>
<line x1="75" y1="679.2343718172344" x2="377" y2="679.2343718172344" stroke="#aaaaaa" stroke-width="0.7"/>
<polygon points="88.7,706.1 116.2,700.1 143.6,698.8 171.1,677.0 226.0,722.8 253.5,714.1 280.9,710.2 308.4,728.5 335.8,670.0 363.3,686.1 363.3,760.5 335.8,759.3 308.4,806.5 280.9,772.2 253.5,830.0 226.0,816.3 171.1,715.7 143.6,771.6 116.2,761.6 88.7,763.4" fill="#1f3a5f" opacity="0.18"/>
<polyline points="88.7,734.8 116.2,730.9 143.6,735.2 171.1,696.4 226.0,769.5 253.5,772.0 280.9,741.2 308.4,767.5 335.8,714.6 363.3,723.3" fill="none" stroke="#1f3a5f" stroke-width="1.6"/>
<circle cx="88.7" cy="734.8" r="2.6" fill="#1f3a5f"/>
<circle cx="116.2" cy="730.9" r="2.6" fill="#1f3a5f"/>
<circle cx="143.6" cy="735.2" r="2.6" fill="#1f3a5f"/>
<circle cx="171.1" cy="696.4" r="2.6" fill="#1f3a5f"/>
<circle cx="226.0" cy="769.5" r="2.6" fill="#1f3a5f"/>
<circle cx="253.5" cy="772.0" r="2.6" fill="#1f3a5f"/>
<circle cx="280.9" cy="741.2" r="2.6" fill="#1f3a5f"/>
<circle cx="308.4" cy="767.5" r="2.6" fill="#1f3a5f"/>
<circle cx="335.8" cy="714.6" r="2.6" fill="#1f3a5f"/>
<circle cx="363.3" cy="723.3" r="2.6" fill="#1f3a5f"/>
<line x1="212.3" y1="670" x2="212.3" y2="830" stroke="#b9461a" stroke-dasharray="3 3"/>
<line x1="75" y1="830" x2="377" y2="830" stroke="#444"/>
<line x1="75" y1="670" x2="75" y2="830" stroke="#444"/>
<line x1="88.7" y1="830" x2="88.7" y2="833" stroke="#444"/>
<text x="88.7" y="845" text-anchor="middle" fill="#444">-5</text>
<line x1="116.2" y1="830" x2="116.2" y2="833" stroke="#444"/>
<text x="116.2" y="845" text-anchor="middle" fill="#444">-4</text>
<line x1="143.6" y1="830" x2="143.6" y2="833" stroke="#444"/>
<text x="143.6" y="845" text-anchor="middle" fill="#444">-3</text>
<line x1="171.1" y1="830" x2="171.1" y2="833" stroke="#444"/>
<text x="171.1" y="845" text-anchor="middle" fill="#444">-2</text>
<line x1="226.0" y1="830" x2="226.0" y2="833" stroke="#444"/>
<text x="226.0" y="845" text-anchor="middle" fill="#444">0</text>
<line x1="253.5" y1="830" x2="253.5" y2="833" stroke="#444"/>
<text x="253.5" y="845" text-anchor="middle" fill="#444">1</text>
<line x1="280.9" y1="830" x2="280.9" y2="833" stroke="#444"/>
<text x="280.9" y="845" text-anchor="middle" fill="#444">2</text>
<line x1="308.4" y1="830" x2="308.4" y2="833" stroke="#444"/>
<text x="308.4" y="845" text-anchor="middle" fill="#444">3</text>
<line x1="335.8" y1="830" x2="335.8" y2="833" stroke="#444"/>
<text x="335.8" y="845" text-anchor="middle" fill="#444">4</text>
<line x1="363.3" y1="830" x2="363.3" y2="833" stroke="#444"/>
<text x="363.3" y="845" text-anchor="middle" fill="#444">5</text>
<line x1="72" y1="830.0" x2="75" y2="830.0" stroke="#444"/>
<text x="69" y="833.0" text-anchor="end" fill="#444">-2.1</text>
<line x1="72" y1="790.0" x2="75" y2="790.0" stroke="#444"/>
<text x="69" y="793.0" text-anchor="end" fill="#444">-1.5</text>
<line x1="72" y1="750.0" x2="75" y2="750.0" stroke="#444"/>
<text x="69" y="753.0" text-anchor="end" fill="#444">-0.99</text>
<line x1="72" y1="710.0" x2="75" y2="710.0" stroke="#444"/>
<text x="69" y="713.0" text-anchor="end" fill="#444">-0.43</text>
<line x1="72" y1="670.0" x2="75" y2="670.0" stroke="#444"/>
<text x="69" y="673.0" text-anchor="end" fill="#444">0.13</text>
<text x="226.0" y="864" text-anchor="middle" fill="#444">Event time (years from adoption)</text>
<text x="27" y="750.0" text-anchor="middle" fill="#444" transform="rotate(-90 27 750.0)">ATT (per 100k)</text>
<rect x="425" y="620" width="380" height="260" fill="#fafaf7" stroke="#e2e2dc"/>
<text x="615.0" y="638" text-anchor="middle" font-weight="600">Motor vehicle theft rate (per 100k) [placebo]</text>
<line x1="485" y1="781.552933407171" x2="787" y2="781.552933407171" stroke="#aaaaaa" stroke-width="0.7"/>
<polygon points="498.7,795.4 526.2,787.5 553.6,781.5 581.1,782.3 636.0,739.1 663.5,720.5 690.9,735.5 718.4,706.3 745.8,674.6 773.3,670.0 773.3,749.6 745.8,757.5 718.4,758.3 690.9,760.3 663.5,765.1 636.0,772.6 581.1,811.9 553.6,814.0 526.2,819.8 498.7,830.0" fill="#1f3a5f" opacity="0.18"/>
<polyline points="498.7,812.7 526.2,803.7 553.6,797.8 581.1,797.1 636.0,755.9 663.5,742.8 690.9,747.9 718.4,732.3 745.8,716.0 773.3,709.8" fill="none" stroke="#1f3a5f" stroke-width="1.6"/>
<circle cx="498.7" cy="812.7" r="2.6" fill="#1f3a5f"/>
<circle cx="526.2" cy="803.7" r="2.6" fill="#1f3a5f"/>
<circle cx="553.6" cy="797.8" r="2.6" fill="#1f3a5f"/>
<circle cx="581.1" cy="797.1" r="2.6" fill="#1f3a5f"/>
<circle cx="636.0" cy="755.9" r="2.6" fill="#1f3a5f"/>
<circle cx="663.5" cy="742.8" r="2.6" fill="#1f3a5f"/>
<circle cx="690.9" cy="747.9" r="2.6" fill="#1f3a5f"/>
<circle cx="718.4" cy="732.3" r="2.6" fill="#1f3a5f"/>
<circle cx="745.8" cy="716.0" r="2.6" fill="#1f3a5f"/>
<circle cx="773.3" cy="709.8" r="2.6" fill="#1f3a5f"/>
<line x1="622.3" y1="670" x2="622.3" y2="830" stroke="#b9461a" stroke-dasharray="3 3"/>
<line x1="485" y1="830" x2="787" y2="830" stroke="#444"/>
<line x1="485" y1="670" x2="485" y2="830" stroke="#444"/>
<line x1="498.7" y1="830" x2="498.7" y2="833" stroke="#444"/>
<text x="498.7" y="845" text-anchor="middle" fill="#444">-5</text>
<line x1="526.2" y1="830" x2="526.2" y2="833" stroke="#444"/>
<text x="526.2" y="845" text-anchor="middle" fill="#444">-4</text>
<line x1="553.6" y1="830" x2="553.6" y2="833" stroke="#444"/>
<text x="553.6" y="845" text-anchor="middle" fill="#444">-3</text>
<line x1="581.1" y1="830" x2="581.1" y2="833" stroke="#444"/>
<text x="581.1" y="845" text-anchor="middle" fill="#444">-2</text>
<line x1="636.0" y1="830" x2="636.0" y2="833" stroke="#444"/>
<text x="636.0" y="845" text-anchor="middle" fill="#444">0</text>
<line x1="663.5" y1="830" x2="663.5" y2="833" stroke="#444"/>
<text x="663.5" y="845" text-anchor="middle" fill="#444">1</text>
<line x1="690.9" y1="830" x2="690.9" y2="833" stroke="#444"/>
<text x="690.9" y="845" text-anchor="middle" fill="#444">2</text>
<line x1="718.4" y1="830" x2="718.4" y2="833" stroke="#444"/>
<text x="718.4" y="845" text-anchor="middle" fill="#444">3</text>
<line x1="745.8" y1="830" x2="745.8" y2="833" stroke="#444"/>
<text x="745.8" y="845" text-anchor="middle" fill="#444">4</text>
<line x1="773.3" y1="830" x2="773.3" y2="833" stroke="#444"/>
<text x="773.3" y="845" text-anchor="middle" fill="#444">5</text>
<line x1="482" y1="830.0" x2="485" y2="830.0" stroke="#444"/>
<text x="479" y="833.0" text-anchor="end" fill="#444">-50</text>
<line x1="482" y1="790.0" x2="485" y2="790.0" stroke="#444"/>
<text x="479" y="793.0" text-anchor="end" fill="#444">-8.7</text>
<line x1="482" y1="750.0" x2="485" y2="750.0" stroke="#444"/>
<text x="479" y="753.0" text-anchor="end" fill="#444">33</text>
<line x1="482" y1="710.0" x2="485" y2="710.0" stroke="#444"/>
<text x="479" y="713.0" text-anchor="end" fill="#444">74</text>
<line x1="482" y1="670.0" x2="485" y2="670.0" stroke="#444"/>
<text x="479" y="673.0" text-anchor="end" fill="#444">1.2e+02</text>
<text x="636.0" y="864" text-anchor="middle" fill="#444">Event time (years from adoption)</text>
<text x="437" y="750.0" text-anchor="middle" fill="#444" transform="rotate(-90 437 750.0)">ATT (per 100k)</text>
<text x="805" y="608" text-anchor="end" fill="#888" font-size="10">Shaded band: pointwise 95% CI from cluster bootstrap. Vertical dashed line marks the year before adoption.</text>
</svg>