<svg xmlns="http://www.w3.org/2000/svg" viewBox="0 0 820 620" font-family="-apple-system, Segoe UI, Helvetica, Arial, sans-serif" font-size="11">
<text x="410.0" y="22" text-anchor="middle" font-size="14" font-weight="600">Callaway-Sant'Anna ATT by event time (RA) -- magazine ban (Tufts magazine)</text>
<rect x="15" y="40" width="380" height="260" fill="#fafaf7" stroke="#e2e2dc"/>
<text x="205.0" y="58" text-anchor="middle" font-weight="600">Firearm suicide rate (per 100k)</text>
<line x1="75" y1="160.02483613486072" x2="377" y2="160.02483613486072" stroke="#aaaaaa" stroke-width="0.7"/>
<polygon points="88.7,170.4 88.7,165.8 88.7,150.4 116.2,127.8 116.2,137.8 116.2,127.2 143.6,123.0 143.6,103.2 143.6,150.7 171.1,128.8 171.1,123.1 171.1,131.4 226.0,156.4 226.0,155.7 226.0,143.2 253.5,97.3 253.5,101.5 253.5,132.7 280.9,137.4 280.9,160.1 280.9,129.6 308.4,90.0 308.4,116.3 308.4,114.9 335.8,142.6 335.8,144.8 335.8,163.4 363.3,107.8 363.3,111.2 363.3,119.6 363.3,142.0 363.3,146.0 363.3,145.4 335.8,230.2 335.8,227.6 335.8,171.4 308.4,143.2 308.4,165.5 308.4,152.3 280.9,157.6 280.9,222.9 280.9,213.5 253.5,167.8 253.5,193.1 253.5,194.7 226.0,172.7 226.0,220.2 226.0,214.4 171.1,236.1 171.1,235.2 171.1,169.7 143.6,202.9 143.6,246.6 143.6,248.8 116.2,174.4 116.2,182.2 116.2,172.8 88.7,203.2 88.7,245.6 88.7,250.0" fill="#1f3a5f" opacity="0.18"/>
<polyline points="88.7,210.2 88.7,205.7 88.7,176.8 116.2,150.3 116.2,160.0 116.2,150.8 143.6,185.9 143.6,174.9 143.6,176.8 171.1,149.3 171.1,179.2 171.1,183.7 226.0,185.4 226.0,188.0 226.0,157.9 253.5,146.0 253.5,147.3 253.5,150.2 280.9,175.4 280.9,191.5 280.9,143.6 308.4,121.2 308.4,140.9 308.4,129.0 335.8,157.0 335.8,186.2 335.8,196.8 363.3,126.6 363.3,128.6 363.3,130.8" fill="none" stroke="#1f3a5f" stroke-width="1.6"/>
<circle cx="88.7" cy="210.2" r="2.6" fill="#1f3a5f"/>
<circle cx="88.7" cy="205.7" r="2.6" fill="#1f3a5f"/>
<circle cx="88.7" cy="176.8" r="2.6" fill="#1f3a5f"/>
<circle cx="116.2" cy="150.3" r="2.6" fill="#1f3a5f"/>
<circle cx="116.2" cy="160.0" r="2.6" fill="#1f3a5f"/>
<circle cx="116.2" cy="150.8" r="2.6" fill="#1f3a5f"/>
<circle cx="143.6" cy="185.9" r="2.6" fill="#1f3a5f"/>
<circle cx="143.6" cy="174.9" r="2.6" fill="#1f3a5f"/>
<circle cx="143.6" cy="176.8" r="2.6" fill="#1f3a5f"/>
<circle cx="171.1" cy="149.3" r="2.6" fill="#1f3a5f"/>
<circle cx="171.1" cy="179.2" r="2.6" fill="#1f3a5f"/>
<circle cx="171.1" cy="183.7" r="2.6" fill="#1f3a5f"/>
<circle cx="226.0" cy="185.4" r="2.6" fill="#1f3a5f"/>
<circle cx="226.0" cy="188.0" r="2.6" fill="#1f3a5f"/>
<circle cx="226.0" cy="157.9" r="2.6" fill="#1f3a5f"/>
<circle cx="253.5" cy="146.0" r="2.6" fill="#1f3a5f"/>
<circle cx="253.5" cy="147.3" r="2.6" fill="#1f3a5f"/>
<circle cx="253.5" cy="150.2" r="2.6" fill="#1f3a5f"/>
<circle cx="280.9" cy="175.4" r="2.6" fill="#1f3a5f"/>
<circle cx="280.9" cy="191.5" r="2.6" fill="#1f3a5f"/>
<circle cx="280.9" cy="143.6" r="2.6" fill="#1f3a5f"/>
<circle cx="308.4" cy="121.2" r="2.6" fill="#1f3a5f"/>
<circle cx="308.4" cy="140.9" r="2.6" fill="#1f3a5f"/>
<circle cx="308.4" cy="129.0" r="2.6" fill="#1f3a5f"/>
<circle cx="335.8" cy="157.0" r="2.6" fill="#1f3a5f"/>
<circle cx="335.8" cy="186.2" r="2.6" fill="#1f3a5f"/>
<circle cx="335.8" cy="196.8" r="2.6" fill="#1f3a5f"/>
<circle cx="363.3" cy="126.6" r="2.6" fill="#1f3a5f"/>
<circle cx="363.3" cy="128.6" r="2.6" fill="#1f3a5f"/>
<circle cx="363.3" cy="130.8" r="2.6" fill="#1f3a5f"/>
<line x1="212.3" y1="90" x2="212.3" y2="250" stroke="#b9461a" stroke-dasharray="3 3"/>
<line x1="75" y1="250" x2="377" y2="250" stroke="#444"/>
<line x1="75" y1="90" x2="75" y2="250" stroke="#444"/>
<line x1="88.7" y1="250" x2="88.7" y2="253" stroke="#444"/>
<text x="88.7" y="265" text-anchor="middle" fill="#444">-5</text>
<line x1="116.2" y1="250" x2="116.2" y2="253" stroke="#444"/>
<text x="116.2" y="265" text-anchor="middle" fill="#444">-4</text>
<line x1="143.6" y1="250" x2="143.6" y2="253" stroke="#444"/>
<text x="143.6" y="265" text-anchor="middle" fill="#444">-3</text>
<line x1="171.1" y1="250" x2="171.1" y2="253" stroke="#444"/>
<text x="171.1" y="265" text-anchor="middle" fill="#444">-2</text>
<line x1="226.0" y1="250" x2="226.0" y2="253" stroke="#444"/>
<text x="226.0" y="265" text-anchor="middle" fill="#444">0</text>
<line x1="253.5" y1="250" x2="253.5" y2="253" stroke="#444"/>
<text x="253.5" y="265" text-anchor="middle" fill="#444">1</text>
<line x1="280.9" y1="250" x2="280.9" y2="253" stroke="#444"/>
<text x="280.9" y="265" text-anchor="middle" fill="#444">2</text>
<line x1="308.4" y1="250" x2="308.4" y2="253" stroke="#444"/>
<text x="308.4" y="265" text-anchor="middle" fill="#444">3</text>
<line x1="335.8" y1="250" x2="335.8" y2="253" stroke="#444"/>
<text x="335.8" y="265" text-anchor="middle" fill="#444">4</text>
<line x1="363.3" y1="250" x2="363.3" y2="253" stroke="#444"/>
<text x="363.3" y="265" text-anchor="middle" fill="#444">5</text>
<line x1="72" y1="250.0" x2="75" y2="250.0" stroke="#444"/>
<text x="69" y="253.0" text-anchor="end" fill="#444">-2</text>
<line x1="72" y1="210.0" x2="75" y2="210.0" stroke="#444"/>
<text x="69" y="213.0" text-anchor="end" fill="#444">-1.1</text>
<line x1="72" y1="170.0" x2="75" y2="170.0" stroke="#444"/>
<text x="69" y="173.0" text-anchor="end" fill="#444">-0.22</text>
<line x1="72" y1="130.0" x2="75" y2="130.0" stroke="#444"/>
<text x="69" y="133.0" text-anchor="end" fill="#444">0.68</text>
<line x1="72" y1="90.0" x2="75" y2="90.0" stroke="#444"/>
<text x="69" y="93.0" text-anchor="end" fill="#444">1.6</text>
<text x="226.0" y="284" text-anchor="middle" fill="#444">Event time (years from adoption)</text>
<text x="27" y="170.0" text-anchor="middle" fill="#444" transform="rotate(-90 27 170.0)">ATT (per 100k)</text>
<rect x="425" y="40" width="380" height="260" fill="#fafaf7" stroke="#e2e2dc"/>
<text x="615.0" y="58" text-anchor="middle" font-weight="600">Non-firearm suicide rate (per 100k) [substitution test]</text>
<line x1="485" y1="193.4166674850909" x2="787" y2="193.4166674850909" stroke="#aaaaaa" stroke-width="0.7"/>
<polygon points="498.7,163.6 498.7,166.8 498.7,181.5 526.2,118.3 526.2,160.1 526.2,148.7 553.6,188.3 553.6,178.1 553.6,212.8 581.1,178.9 581.1,127.7 581.1,116.8 636.0,140.5 636.0,133.2 636.0,163.5 663.5,114.9 663.5,106.1 663.5,174.1 690.9,190.7 690.9,211.2 690.9,168.8 718.4,165.4 718.4,139.3 718.4,104.4 745.8,124.9 745.8,143.6 745.8,125.7 773.3,155.8 773.3,139.7 773.3,90.0 773.3,151.0 773.3,223.7 773.3,231.1 745.8,177.0 745.8,193.3 745.8,158.7 718.4,137.9 718.4,226.2 718.4,233.3 690.9,195.9 690.9,250.0 690.9,235.7 663.5,208.1 663.5,199.1 663.5,203.5 636.0,205.8 636.0,191.9 636.0,199.7 581.1,166.7 581.1,171.7 581.1,213.9 553.6,237.2 553.6,225.8 553.6,242.3 526.2,219.6 526.2,201.5 526.2,205.4 498.7,214.0 498.7,221.0 498.7,221.6" fill="#1f3a5f" opacity="0.18"/>
<polyline points="498.7,192.6 498.7,193.9 498.7,197.7 526.2,161.9 526.2,180.8 526.2,184.2 553.6,215.3 553.6,202.0 553.6,225.0 581.1,196.4 581.1,149.7 581.1,141.7 636.0,170.1 636.0,162.6 636.0,184.6 663.5,159.2 663.5,152.6 663.5,191.1 690.9,213.2 690.9,230.6 690.9,182.4 718.4,199.3 718.4,182.8 718.4,121.1 745.8,141.8 745.8,168.5 745.8,151.3 773.3,193.4 773.3,181.7 773.3,120.5" fill="none" stroke="#1f3a5f" stroke-width="1.6"/>
<circle cx="498.7" cy="192.6" r="2.6" fill="#1f3a5f"/>
<circle cx="498.7" cy="193.9" r="2.6" fill="#1f3a5f"/>
<circle cx="498.7" cy="197.7" r="2.6" fill="#1f3a5f"/>
<circle cx="526.2" cy="161.9" r="2.6" fill="#1f3a5f"/>
<circle cx="526.2" cy="180.8" r="2.6" fill="#1f3a5f"/>
<circle cx="526.2" cy="184.2" r="2.6" fill="#1f3a5f"/>
<circle cx="553.6" cy="215.3" r="2.6" fill="#1f3a5f"/>
<circle cx="553.6" cy="202.0" r="2.6" fill="#1f3a5f"/>
<circle cx="553.6" cy="225.0" r="2.6" fill="#1f3a5f"/>
<circle cx="581.1" cy="196.4" r="2.6" fill="#1f3a5f"/>
<circle cx="581.1" cy="149.7" r="2.6" fill="#1f3a5f"/>
<circle cx="581.1" cy="141.7" r="2.6" fill="#1f3a5f"/>
<circle cx="636.0" cy="170.1" r="2.6" fill="#1f3a5f"/>
<circle cx="636.0" cy="162.6" r="2.6" fill="#1f3a5f"/>
<circle cx="636.0" cy="184.6" r="2.6" fill="#1f3a5f"/>
<circle cx="663.5" cy="159.2" r="2.6" fill="#1f3a5f"/>
<circle cx="663.5" cy="152.6" r="2.6" fill="#1f3a5f"/>
<circle cx="663.5" cy="191.1" r="2.6" fill="#1f3a5f"/>
<circle cx="690.9" cy="213.2" r="2.6" fill="#1f3a5f"/>
<circle cx="690.9" cy="230.6" r="2.6" fill="#1f3a5f"/>
<circle cx="690.9" cy="182.4" r="2.6" fill="#1f3a5f"/>
<circle cx="718.4" cy="199.3" r="2.6" fill="#1f3a5f"/>
<circle cx="718.4" cy="182.8" r="2.6" fill="#1f3a5f"/>
<circle cx="718.4" cy="121.1" r="2.6" fill="#1f3a5f"/>
<circle cx="745.8" cy="141.8" r="2.6" fill="#1f3a5f"/>
<circle cx="745.8" cy="168.5" r="2.6" fill="#1f3a5f"/>
<circle cx="745.8" cy="151.3" r="2.6" fill="#1f3a5f"/>
<circle cx="773.3" cy="193.4" r="2.6" fill="#1f3a5f"/>
<circle cx="773.3" cy="181.7" r="2.6" fill="#1f3a5f"/>
<circle cx="773.3" cy="120.5" r="2.6" fill="#1f3a5f"/>
<line x1="622.3" y1="90" x2="622.3" y2="250" stroke="#b9461a" stroke-dasharray="3 3"/>
<line x1="485" y1="250" x2="787" y2="250" stroke="#444"/>
<line x1="485" y1="90" x2="485" y2="250" stroke="#444"/>
<line x1="498.7" y1="250" x2="498.7" y2="253" stroke="#444"/>
<text x="498.7" y="265" text-anchor="middle" fill="#444">-5</text>
<line x1="526.2" y1="250" x2="526.2" y2="253" stroke="#444"/>
<text x="526.2" y="265" text-anchor="middle" fill="#444">-4</text>
<line x1="553.6" y1="250" x2="553.6" y2="253" stroke="#444"/>
<text x="553.6" y="265" text-anchor="middle" fill="#444">-3</text>
<line x1="581.1" y1="250" x2="581.1" y2="253" stroke="#444"/>
<text x="581.1" y="265" text-anchor="middle" fill="#444">-2</text>
<line x1="636.0" y1="250" x2="636.0" y2="253" stroke="#444"/>
<text x="636.0" y="265" text-anchor="middle" fill="#444">0</text>
<line x1="663.5" y1="250" x2="663.5" y2="253" stroke="#444"/>
<text x="663.5" y="265" text-anchor="middle" fill="#444">1</text>
<line x1="690.9" y1="250" x2="690.9" y2="253" stroke="#444"/>
<text x="690.9" y="265" text-anchor="middle" fill="#444">2</text>
<line x1="718.4" y1="250" x2="718.4" y2="253" stroke="#444"/>
<text x="718.4" y="265" text-anchor="middle" fill="#444">3</text>
<line x1="745.8" y1="250" x2="745.8" y2="253" stroke="#444"/>
<text x="745.8" y="265" text-anchor="middle" fill="#444">4</text>
<line x1="773.3" y1="250" x2="773.3" y2="253" stroke="#444"/>
<text x="773.3" y="265" text-anchor="middle" fill="#444">5</text>
<line x1="482" y1="250.0" x2="485" y2="250.0" stroke="#444"/>
<text x="479" y="253.0" text-anchor="end" fill="#444">-1</text>
<line x1="482" y1="210.0" x2="485" y2="210.0" stroke="#444"/>
<text x="479" y="213.0" text-anchor="end" fill="#444">-0.3</text>
<line x1="482" y1="170.0" x2="485" y2="170.0" stroke="#444"/>
<text x="479" y="173.0" text-anchor="end" fill="#444">0.43</text>
<line x1="482" y1="130.0" x2="485" y2="130.0" stroke="#444"/>
<text x="479" y="133.0" text-anchor="end" fill="#444">1.2</text>
<line x1="482" y1="90.0" x2="485" y2="90.0" stroke="#444"/>
<text x="479" y="93.0" text-anchor="end" fill="#444">1.9</text>
<text x="636.0" y="284" text-anchor="middle" fill="#444">Event time (years from adoption)</text>
<text x="437" y="170.0" text-anchor="middle" fill="#444" transform="rotate(-90 437 170.0)">ATT (per 100k)</text>
<rect x="15" y="330" width="380" height="260" fill="#fafaf7" stroke="#e2e2dc"/>
<text x="205.0" y="348" text-anchor="middle" font-weight="600">Total suicide rate (per 100k) [net effect]</text>
<line x1="75" y1="465.72645708746194" x2="377" y2="465.72645708746194" stroke="#aaaaaa" stroke-width="0.7"/>
<polygon points="88.7,460.0 88.7,459.3 88.7,454.9 116.2,404.2 116.2,434.7 116.2,423.5 143.6,458.3 143.6,430.7 143.6,476.0 171.1,444.9 171.1,410.7 171.1,409.1 226.0,440.9 226.0,435.8 226.0,445.6 253.5,383.0 253.5,380.0 253.5,442.8 280.9,452.1 280.9,484.2 280.9,432.3 308.4,405.8 308.4,413.2 308.4,386.0 335.8,418.9 335.8,438.5 335.8,435.0 363.3,415.1 363.3,410.1 363.3,383.0 363.3,426.7 363.3,464.8 363.3,470.2 335.8,500.3 335.8,501.3 335.8,450.6 308.4,421.9 308.4,479.9 308.4,478.4 280.9,464.0 280.9,532.4 280.9,522.7 253.5,472.5 253.5,488.3 253.5,490.9 226.0,473.1 226.0,499.9 226.0,499.6 171.1,497.5 171.1,498.4 171.1,475.0 143.6,513.9 143.6,530.9 143.6,533.4 116.2,484.9 116.2,482.7 116.2,478.6 88.7,504.6 88.7,535.8 88.7,540.0" fill="#1f3a5f" opacity="0.18"/>
<polyline points="88.7,500.0 88.7,497.6 88.7,479.7 116.2,441.4 116.2,458.7 116.2,454.2 143.6,495.9 143.6,480.8 143.6,495.0 171.1,460.0 171.1,454.6 171.1,453.3 226.0,470.3 226.0,467.8 226.0,459.4 253.5,437.0 253.5,434.1 253.5,457.7 280.9,487.4 280.9,508.3 280.9,448.2 308.4,442.1 308.4,446.6 308.4,403.9 335.8,434.8 335.8,469.9 335.8,467.7 363.3,442.6 363.3,437.5 363.3,404.8" fill="none" stroke="#1f3a5f" stroke-width="1.6"/>
<circle cx="88.7" cy="500.0" r="2.6" fill="#1f3a5f"/>
<circle cx="88.7" cy="497.6" r="2.6" fill="#1f3a5f"/>
<circle cx="88.7" cy="479.7" r="2.6" fill="#1f3a5f"/>
<circle cx="116.2" cy="441.4" r="2.6" fill="#1f3a5f"/>
<circle cx="116.2" cy="458.7" r="2.6" fill="#1f3a5f"/>
<circle cx="116.2" cy="454.2" r="2.6" fill="#1f3a5f"/>
<circle cx="143.6" cy="495.9" r="2.6" fill="#1f3a5f"/>
<circle cx="143.6" cy="480.8" r="2.6" fill="#1f3a5f"/>
<circle cx="143.6" cy="495.0" r="2.6" fill="#1f3a5f"/>
<circle cx="171.1" cy="460.0" r="2.6" fill="#1f3a5f"/>
<circle cx="171.1" cy="454.6" r="2.6" fill="#1f3a5f"/>
<circle cx="171.1" cy="453.3" r="2.6" fill="#1f3a5f"/>
<circle cx="226.0" cy="470.3" r="2.6" fill="#1f3a5f"/>
<circle cx="226.0" cy="467.8" r="2.6" fill="#1f3a5f"/>
<circle cx="226.0" cy="459.4" r="2.6" fill="#1f3a5f"/>
<circle cx="253.5" cy="437.0" r="2.6" fill="#1f3a5f"/>
<circle cx="253.5" cy="434.1" r="2.6" fill="#1f3a5f"/>
<circle cx="253.5" cy="457.7" r="2.6" fill="#1f3a5f"/>
<circle cx="280.9" cy="487.4" r="2.6" fill="#1f3a5f"/>
<circle cx="280.9" cy="508.3" r="2.6" fill="#1f3a5f"/>
<circle cx="280.9" cy="448.2" r="2.6" fill="#1f3a5f"/>
<circle cx="308.4" cy="442.1" r="2.6" fill="#1f3a5f"/>
<circle cx="308.4" cy="446.6" r="2.6" fill="#1f3a5f"/>
<circle cx="308.4" cy="403.9" r="2.6" fill="#1f3a5f"/>
<circle cx="335.8" cy="434.8" r="2.6" fill="#1f3a5f"/>
<circle cx="335.8" cy="469.9" r="2.6" fill="#1f3a5f"/>
<circle cx="335.8" cy="467.7" r="2.6" fill="#1f3a5f"/>
<circle cx="363.3" cy="442.6" r="2.6" fill="#1f3a5f"/>
<circle cx="363.3" cy="437.5" r="2.6" fill="#1f3a5f"/>
<circle cx="363.3" cy="404.8" r="2.6" fill="#1f3a5f"/>
<line x1="212.3" y1="380" x2="212.3" y2="540" stroke="#b9461a" stroke-dasharray="3 3"/>
<line x1="75" y1="540" x2="377" y2="540" stroke="#444"/>
<line x1="75" y1="380" x2="75" y2="540" stroke="#444"/>
<line x1="88.7" y1="540" x2="88.7" y2="543" stroke="#444"/>
<text x="88.7" y="555" text-anchor="middle" fill="#444">-5</text>
<line x1="116.2" y1="540" x2="116.2" y2="543" stroke="#444"/>
<text x="116.2" y="555" text-anchor="middle" fill="#444">-4</text>
<line x1="143.6" y1="540" x2="143.6" y2="543" stroke="#444"/>
<text x="143.6" y="555" text-anchor="middle" fill="#444">-3</text>
<line x1="171.1" y1="540" x2="171.1" y2="543" stroke="#444"/>
<text x="171.1" y="555" text-anchor="middle" fill="#444">-2</text>
<line x1="226.0" y1="540" x2="226.0" y2="543" stroke="#444"/>
<text x="226.0" y="555" text-anchor="middle" fill="#444">0</text>
<line x1="253.5" y1="540" x2="253.5" y2="543" stroke="#444"/>
<text x="253.5" y="555" text-anchor="middle" fill="#444">1</text>
<line x1="280.9" y1="540" x2="280.9" y2="543" stroke="#444"/>
<text x="280.9" y="555" text-anchor="middle" fill="#444">2</text>
<line x1="308.4" y1="540" x2="308.4" y2="543" stroke="#444"/>
<text x="308.4" y="555" text-anchor="middle" fill="#444">3</text>
<line x1="335.8" y1="540" x2="335.8" y2="543" stroke="#444"/>
<text x="335.8" y="555" text-anchor="middle" fill="#444">4</text>
<line x1="363.3" y1="540" x2="363.3" y2="543" stroke="#444"/>
<text x="363.3" y="555" text-anchor="middle" fill="#444">5</text>
<line x1="72" y1="540.0" x2="75" y2="540.0" stroke="#444"/>
<text x="69" y="543.0" text-anchor="end" fill="#444">-2.4</text>
<line x1="72" y1="500.0" x2="75" y2="500.0" stroke="#444"/>
<text x="69" y="503.0" text-anchor="end" fill="#444">-1.1</text>
<line x1="72" y1="460.0" x2="75" y2="460.0" stroke="#444"/>
<text x="69" y="463.0" text-anchor="end" fill="#444">0.19</text>
<line x1="72" y1="420.0" x2="75" y2="420.0" stroke="#444"/>
<text x="69" y="423.0" text-anchor="end" fill="#444">1.5</text>
<line x1="72" y1="380.0" x2="75" y2="380.0" stroke="#444"/>
<text x="69" y="383.0" text-anchor="end" fill="#444">2.8</text>
<text x="226.0" y="574" text-anchor="middle" fill="#444">Event time (years from adoption)</text>
<text x="27" y="460.0" text-anchor="middle" fill="#444" transform="rotate(-90 27 460.0)">ATT (per 100k)</text>
<rect x="425" y="330" width="380" height="260" fill="#fafaf7" stroke="#e2e2dc"/>
<text x="615.0" y="348" text-anchor="middle" font-weight="600">Firearm homicide rate (per 100k)</text>
<line x1="485" y1="449.8560163635138" x2="787" y2="449.8560163635138" stroke="#aaaaaa" stroke-width="0.7"/>
<polygon points="498.7,421.0 498.7,457.2 498.7,440.0 526.2,423.7 526.2,464.4 526.2,380.0 553.6,404.9 553.6,433.0 553.6,458.2 581.1,428.9 581.1,445.2 581.1,428.7 636.0,451.2 636.0,452.9 636.0,473.4 663.5,536.5 663.5,540.0 663.5,482.3 690.9,518.9 690.9,515.7 690.9,496.3 718.4,449.9 718.4,449.9 718.4,500.0 745.8,475.3 745.8,507.2 745.8,523.0 773.3,494.4 773.3,496.4 773.3,454.6 773.3,521.4 773.3,496.4 773.3,494.4 745.8,523.0 745.8,507.2 745.8,504.4 718.4,537.4 718.4,449.9 718.4,449.9 690.9,520.5 690.9,515.7 690.9,518.9 663.5,538.2 663.5,540.0 663.5,536.5 636.0,510.4 636.0,452.9 636.0,451.2 581.1,428.7 581.1,445.2 581.1,457.4 553.6,488.3 553.6,433.0 553.6,404.9 526.2,380.0 526.2,495.8 526.2,423.7 498.7,494.3 498.7,457.2 498.7,421.0" fill="#1f3a5f" opacity="0.18"/>
<polyline points="498.7,421.0 498.7,457.2 498.7,467.2 526.2,423.7 526.2,480.1 526.2,380.0 553.6,404.9 553.6,433.0 553.6,473.3 581.1,443.2 581.1,445.2 581.1,428.7 636.0,451.2 636.0,452.9 636.0,491.9 663.5,536.5 663.5,540.0 663.5,510.2 690.9,518.9 690.9,515.7 690.9,508.4 718.4,449.9 718.4,449.9 718.4,518.7 745.8,489.9 745.8,507.2 745.8,523.0 773.3,494.4 773.3,496.4 773.3,488.0" fill="none" stroke="#1f3a5f" stroke-width="1.6"/>
<circle cx="498.7" cy="421.0" r="2.6" fill="#1f3a5f"/>
<circle cx="498.7" cy="457.2" r="2.6" fill="#1f3a5f"/>
<circle cx="498.7" cy="467.2" r="2.6" fill="#1f3a5f"/>
<circle cx="526.2" cy="423.7" r="2.6" fill="#1f3a5f"/>
<circle cx="526.2" cy="480.1" r="2.6" fill="#1f3a5f"/>
<circle cx="526.2" cy="380.0" r="2.6" fill="#1f3a5f"/>
<circle cx="553.6" cy="404.9" r="2.6" fill="#1f3a5f"/>
<circle cx="553.6" cy="433.0" r="2.6" fill="#1f3a5f"/>
<circle cx="553.6" cy="473.3" r="2.6" fill="#1f3a5f"/>
<circle cx="581.1" cy="443.2" r="2.6" fill="#1f3a5f"/>
<circle cx="581.1" cy="445.2" r="2.6" fill="#1f3a5f"/>
<circle cx="581.1" cy="428.7" r="2.6" fill="#1f3a5f"/>
<circle cx="636.0" cy="451.2" r="2.6" fill="#1f3a5f"/>
<circle cx="636.0" cy="452.9" r="2.6" fill="#1f3a5f"/>
<circle cx="636.0" cy="491.9" r="2.6" fill="#1f3a5f"/>
<circle cx="663.5" cy="536.5" r="2.6" fill="#1f3a5f"/>
<circle cx="663.5" cy="540.0" r="2.6" fill="#1f3a5f"/>
<circle cx="663.5" cy="510.2" r="2.6" fill="#1f3a5f"/>
<circle cx="690.9" cy="518.9" r="2.6" fill="#1f3a5f"/>
<circle cx="690.9" cy="515.7" r="2.6" fill="#1f3a5f"/>
<circle cx="690.9" cy="508.4" r="2.6" fill="#1f3a5f"/>
<circle cx="718.4" cy="449.9" r="2.6" fill="#1f3a5f"/>
<circle cx="718.4" cy="449.9" r="2.6" fill="#1f3a5f"/>
<circle cx="718.4" cy="518.7" r="2.6" fill="#1f3a5f"/>
<circle cx="745.8" cy="489.9" r="2.6" fill="#1f3a5f"/>
<circle cx="745.8" cy="507.2" r="2.6" fill="#1f3a5f"/>
<circle cx="745.8" cy="523.0" r="2.6" fill="#1f3a5f"/>
<circle cx="773.3" cy="494.4" r="2.6" fill="#1f3a5f"/>
<circle cx="773.3" cy="496.4" r="2.6" fill="#1f3a5f"/>
<circle cx="773.3" cy="488.0" r="2.6" fill="#1f3a5f"/>
<line x1="622.3" y1="380" x2="622.3" y2="540" stroke="#b9461a" stroke-dasharray="3 3"/>
<line x1="485" y1="540" x2="787" y2="540" stroke="#444"/>
<line x1="485" y1="380" x2="485" y2="540" stroke="#444"/>
<line x1="498.7" y1="540" x2="498.7" y2="543" stroke="#444"/>
<text x="498.7" y="555" text-anchor="middle" fill="#444">-5</text>
<line x1="526.2" y1="540" x2="526.2" y2="543" stroke="#444"/>
<text x="526.2" y="555" text-anchor="middle" fill="#444">-4</text>
<line x1="553.6" y1="540" x2="553.6" y2="543" stroke="#444"/>
<text x="553.6" y="555" text-anchor="middle" fill="#444">-3</text>
<line x1="581.1" y1="540" x2="581.1" y2="543" stroke="#444"/>
<text x="581.1" y="555" text-anchor="middle" fill="#444">-2</text>
<line x1="636.0" y1="540" x2="636.0" y2="543" stroke="#444"/>
<text x="636.0" y="555" text-anchor="middle" fill="#444">0</text>
<line x1="663.5" y1="540" x2="663.5" y2="543" stroke="#444"/>
<text x="663.5" y="555" text-anchor="middle" fill="#444">1</text>
<line x1="690.9" y1="540" x2="690.9" y2="543" stroke="#444"/>
<text x="690.9" y="555" text-anchor="middle" fill="#444">2</text>
<line x1="718.4" y1="540" x2="718.4" y2="543" stroke="#444"/>
<text x="718.4" y="555" text-anchor="middle" fill="#444">3</text>
<line x1="745.8" y1="540" x2="745.8" y2="543" stroke="#444"/>
<text x="745.8" y="555" text-anchor="middle" fill="#444">4</text>
<line x1="773.3" y1="540" x2="773.3" y2="543" stroke="#444"/>
<text x="773.3" y="555" text-anchor="middle" fill="#444">5</text>
<line x1="482" y1="540.0" x2="485" y2="540.0" stroke="#444"/>
<text x="479" y="543.0" text-anchor="end" fill="#444">-1.7</text>
<line x1="482" y1="500.0" x2="485" y2="500.0" stroke="#444"/>
<text x="479" y="503.0" text-anchor="end" fill="#444">-0.96</text>
<line x1="482" y1="460.0" x2="485" y2="460.0" stroke="#444"/>
<text x="479" y="463.0" text-anchor="end" fill="#444">-0.19</text>
<line x1="482" y1="420.0" x2="485" y2="420.0" stroke="#444"/>
<text x="479" y="423.0" text-anchor="end" fill="#444">0.57</text>
<line x1="482" y1="380.0" x2="485" y2="380.0" stroke="#444"/>
<text x="479" y="383.0" text-anchor="end" fill="#444">1.3</text>
<text x="636.0" y="574" text-anchor="middle" fill="#444">Event time (years from adoption)</text>
<text x="437" y="460.0" text-anchor="middle" fill="#444" transform="rotate(-90 437 460.0)">ATT (per 100k)</text>
<rect x="15" y="620" width="380" height="260" fill="#fafaf7" stroke="#e2e2dc"/>
<text x="205.0" y="638" text-anchor="middle" font-weight="600">Total homicide rate (per 100k)</text>
<line x1="75" y1="685.2930574650325" x2="377" y2="685.2930574650325" stroke="#aaaaaa" stroke-width="0.7"/>
<polygon points="88.7,725.2 88.7,761.5 88.7,699.3 116.2,761.1 116.2,702.2 116.2,720.9 143.6,757.9 143.6,788.7 143.6,697.4 171.1,670.0 171.1,730.9 171.1,718.5 226.0,751.8 226.0,745.5 226.0,713.4 253.5,830.0 253.5,823.3 253.5,712.4 280.9,751.9 280.9,724.7 280.9,700.6 308.4,778.1 308.4,771.4 308.4,734.6 335.8,680.2 335.8,712.3 335.8,741.8 363.3,743.5 363.3,757.8 363.3,703.1 363.3,735.1 363.3,757.8 363.3,743.5 335.8,741.8 335.8,712.3 335.8,732.0 308.4,761.8 308.4,771.4 308.4,778.1 280.9,731.0 280.9,724.7 280.9,751.9 253.5,784.5 253.5,823.3 253.5,830.0 226.0,759.8 226.0,745.5 226.0,751.8 171.1,718.5 171.1,730.9 171.1,706.5 143.6,757.6 143.6,788.7 143.6,757.9 116.2,720.9 116.2,755.4 116.2,761.1 88.7,745.1 88.7,761.5 88.7,725.2" fill="#1f3a5f" opacity="0.18"/>
<polyline points="88.7,725.2 88.7,761.5 88.7,722.2 116.2,761.1 116.2,728.8 116.2,720.9 143.6,757.9 143.6,788.7 143.6,727.5 171.1,688.3 171.1,730.9 171.1,718.5 226.0,751.8 226.0,745.5 226.0,736.6 253.5,830.0 253.5,823.3 253.5,748.5 280.9,751.9 280.9,724.7 280.9,715.8 308.4,778.1 308.4,771.4 308.4,748.2 335.8,706.1 335.8,712.3 335.8,741.8 363.3,743.5 363.3,757.8 363.3,719.1" fill="none" stroke="#1f3a5f" stroke-width="1.6"/>
<circle cx="88.7" cy="725.2" r="2.6" fill="#1f3a5f"/>
<circle cx="88.7" cy="761.5" r="2.6" fill="#1f3a5f"/>
<circle cx="88.7" cy="722.2" r="2.6" fill="#1f3a5f"/>
<circle cx="116.2" cy="761.1" r="2.6" fill="#1f3a5f"/>
<circle cx="116.2" cy="728.8" r="2.6" fill="#1f3a5f"/>
<circle cx="116.2" cy="720.9" r="2.6" fill="#1f3a5f"/>
<circle cx="143.6" cy="757.9" r="2.6" fill="#1f3a5f"/>
<circle cx="143.6" cy="788.7" r="2.6" fill="#1f3a5f"/>
<circle cx="143.6" cy="727.5" r="2.6" fill="#1f3a5f"/>
<circle cx="171.1" cy="688.3" r="2.6" fill="#1f3a5f"/>
<circle cx="171.1" cy="730.9" r="2.6" fill="#1f3a5f"/>
<circle cx="171.1" cy="718.5" r="2.6" fill="#1f3a5f"/>
<circle cx="226.0" cy="751.8" r="2.6" fill="#1f3a5f"/>
<circle cx="226.0" cy="745.5" r="2.6" fill="#1f3a5f"/>
<circle cx="226.0" cy="736.6" r="2.6" fill="#1f3a5f"/>
<circle cx="253.5" cy="830.0" r="2.6" fill="#1f3a5f"/>
<circle cx="253.5" cy="823.3" r="2.6" fill="#1f3a5f"/>
<circle cx="253.5" cy="748.5" r="2.6" fill="#1f3a5f"/>
<circle cx="280.9" cy="751.9" r="2.6" fill="#1f3a5f"/>
<circle cx="280.9" cy="724.7" r="2.6" fill="#1f3a5f"/>
<circle cx="280.9" cy="715.8" r="2.6" fill="#1f3a5f"/>
<circle cx="308.4" cy="778.1" r="2.6" fill="#1f3a5f"/>
<circle cx="308.4" cy="771.4" r="2.6" fill="#1f3a5f"/>
<circle cx="308.4" cy="748.2" r="2.6" fill="#1f3a5f"/>
<circle cx="335.8" cy="706.1" r="2.6" fill="#1f3a5f"/>
<circle cx="335.8" cy="712.3" r="2.6" fill="#1f3a5f"/>
<circle cx="335.8" cy="741.8" r="2.6" fill="#1f3a5f"/>
<circle cx="363.3" cy="743.5" r="2.6" fill="#1f3a5f"/>
<circle cx="363.3" cy="757.8" r="2.6" fill="#1f3a5f"/>
<circle cx="363.3" cy="719.1" r="2.6" fill="#1f3a5f"/>
<line x1="212.3" y1="670" x2="212.3" y2="830" stroke="#b9461a" stroke-dasharray="3 3"/>
<line x1="75" y1="830" x2="377" y2="830" stroke="#444"/>
<line x1="75" y1="670" x2="75" y2="830" stroke="#444"/>
<line x1="88.7" y1="830" x2="88.7" y2="833" stroke="#444"/>
<text x="88.7" y="845" text-anchor="middle" fill="#444">-5</text>
<line x1="116.2" y1="830" x2="116.2" y2="833" stroke="#444"/>
<text x="116.2" y="845" text-anchor="middle" fill="#444">-4</text>
<line x1="143.6" y1="830" x2="143.6" y2="833" stroke="#444"/>
<text x="143.6" y="845" text-anchor="middle" fill="#444">-3</text>
<line x1="171.1" y1="830" x2="171.1" y2="833" stroke="#444"/>
<text x="171.1" y="845" text-anchor="middle" fill="#444">-2</text>
<line x1="226.0" y1="830" x2="226.0" y2="833" stroke="#444"/>
<text x="226.0" y="845" text-anchor="middle" fill="#444">0</text>
<line x1="253.5" y1="830" x2="253.5" y2="833" stroke="#444"/>
<text x="253.5" y="845" text-anchor="middle" fill="#444">1</text>
<line x1="280.9" y1="830" x2="280.9" y2="833" stroke="#444"/>
<text x="280.9" y="845" text-anchor="middle" fill="#444">2</text>
<line x1="308.4" y1="830" x2="308.4" y2="833" stroke="#444"/>
<text x="308.4" y="845" text-anchor="middle" fill="#444">3</text>
<line x1="335.8" y1="830" x2="335.8" y2="833" stroke="#444"/>
<text x="335.8" y="845" text-anchor="middle" fill="#444">4</text>
<line x1="363.3" y1="830" x2="363.3" y2="833" stroke="#444"/>
<text x="363.3" y="845" text-anchor="middle" fill="#444">5</text>
<line x1="72" y1="830.0" x2="75" y2="830.0" stroke="#444"/>
<text x="69" y="833.0" text-anchor="end" fill="#444">-3.2</text>
<line x1="72" y1="790.0" x2="75" y2="790.0" stroke="#444"/>
<text x="69" y="793.0" text-anchor="end" fill="#444">-2.3</text>
<line x1="72" y1="750.0" x2="75" y2="750.0" stroke="#444"/>
<text x="69" y="753.0" text-anchor="end" fill="#444">-1.4</text>
<line x1="72" y1="710.0" x2="75" y2="710.0" stroke="#444"/>
<text x="69" y="713.0" text-anchor="end" fill="#444">-0.55</text>
<line x1="72" y1="670.0" x2="75" y2="670.0" stroke="#444"/>
<text x="69" y="673.0" text-anchor="end" fill="#444">0.34</text>
<text x="226.0" y="864" text-anchor="middle" fill="#444">Event time (years from adoption)</text>
<text x="27" y="750.0" text-anchor="middle" fill="#444" transform="rotate(-90 27 750.0)">ATT (per 100k)</text>
<rect x="425" y="620" width="380" height="260" fill="#fafaf7" stroke="#e2e2dc"/>
<text x="615.0" y="638" text-anchor="middle" font-weight="600">Motor vehicle theft rate (per 100k) [placebo]</text>
<line x1="485" y1="786.9388425137312" x2="787" y2="786.9388425137312" stroke="#aaaaaa" stroke-width="0.7"/>
<polygon points="498.7,725.3 498.7,742.8 498.7,799.9 526.2,754.3 526.2,792.1 526.2,740.6 553.6,770.9 553.6,776.5 553.6,791.9 581.1,792.9 581.1,796.6 581.1,794.8 636.0,786.9 636.0,783.4 636.0,761.8 663.5,765.8 663.5,776.2 663.5,749.4 690.9,793.9 690.9,784.6 690.9,764.5 718.4,767.4 718.4,765.7 718.4,749.9 745.8,730.4 745.8,721.9 745.8,721.5 773.3,670.0 773.3,670.6 773.3,724.7 773.3,749.3 773.3,670.6 773.3,670.0 745.8,721.5 745.8,721.9 745.8,756.5 718.4,767.6 718.4,765.7 718.4,767.4 690.9,776.7 690.9,784.6 690.9,793.9 663.5,797.8 663.5,776.2 663.5,765.8 636.0,784.1 636.0,783.4 636.0,786.9 581.1,794.8 581.1,796.6 581.1,813.9 553.6,815.9 553.6,776.5 553.6,770.9 526.2,740.6 526.2,821.3 526.2,754.3 498.7,830.0 498.7,742.8 498.7,725.3" fill="#1f3a5f" opacity="0.18"/>
<polyline points="498.7,725.3 498.7,742.8 498.7,814.9 526.2,754.3 526.2,806.7 526.2,740.6 553.6,770.9 553.6,776.5 553.6,803.9 581.1,803.4 581.1,796.6 581.1,794.8 636.0,786.9 636.0,783.4 636.0,773.0 663.5,765.8 663.5,776.2 663.5,773.6 690.9,793.9 690.9,784.6 690.9,770.6 718.4,767.4 718.4,765.7 718.4,758.8 745.8,743.5 745.8,721.9 745.8,721.5 773.3,670.0 773.3,670.6 773.3,737.0" fill="none" stroke="#1f3a5f" stroke-width="1.6"/>
<circle cx="498.7" cy="725.3" r="2.6" fill="#1f3a5f"/>
<circle cx="498.7" cy="742.8" r="2.6" fill="#1f3a5f"/>
<circle cx="498.7" cy="814.9" r="2.6" fill="#1f3a5f"/>
<circle cx="526.2" cy="754.3" r="2.6" fill="#1f3a5f"/>
<circle cx="526.2" cy="806.7" r="2.6" fill="#1f3a5f"/>
<circle cx="526.2" cy="740.6" r="2.6" fill="#1f3a5f"/>
<circle cx="553.6" cy="770.9" r="2.6" fill="#1f3a5f"/>
<circle cx="553.6" cy="776.5" r="2.6" fill="#1f3a5f"/>
<circle cx="553.6" cy="803.9" r="2.6" fill="#1f3a5f"/>
<circle cx="581.1" cy="803.4" r="2.6" fill="#1f3a5f"/>
<circle cx="581.1" cy="796.6" r="2.6" fill="#1f3a5f"/>
<circle cx="581.1" cy="794.8" r="2.6" fill="#1f3a5f"/>
<circle cx="636.0" cy="786.9" r="2.6" fill="#1f3a5f"/>
<circle cx="636.0" cy="783.4" r="2.6" fill="#1f3a5f"/>
<circle cx="636.0" cy="773.0" r="2.6" fill="#1f3a5f"/>
<circle cx="663.5" cy="765.8" r="2.6" fill="#1f3a5f"/>
<circle cx="663.5" cy="776.2" r="2.6" fill="#1f3a5f"/>
<circle cx="663.5" cy="773.6" r="2.6" fill="#1f3a5f"/>
<circle cx="690.9" cy="793.9" r="2.6" fill="#1f3a5f"/>
<circle cx="690.9" cy="784.6" r="2.6" fill="#1f3a5f"/>
<circle cx="690.9" cy="770.6" r="2.6" fill="#1f3a5f"/>
<circle cx="718.4" cy="767.4" r="2.6" fill="#1f3a5f"/>
<circle cx="718.4" cy="765.7" r="2.6" fill="#1f3a5f"/>
<circle cx="718.4" cy="758.8" r="2.6" fill="#1f3a5f"/>
<circle cx="745.8" cy="743.5" r="2.6" fill="#1f3a5f"/>
<circle cx="745.8" cy="721.9" r="2.6" fill="#1f3a5f"/>
<circle cx="745.8" cy="721.5" r="2.6" fill="#1f3a5f"/>
<circle cx="773.3" cy="670.0" r="2.6" fill="#1f3a5f"/>
<circle cx="773.3" cy="670.6" r="2.6" fill="#1f3a5f"/>
<circle cx="773.3" cy="737.0" r="2.6" fill="#1f3a5f"/>
<line x1="622.3" y1="670" x2="622.3" y2="830" stroke="#b9461a" stroke-dasharray="3 3"/>
<line x1="485" y1="830" x2="787" y2="830" stroke="#444"/>
<line x1="485" y1="670" x2="485" y2="830" stroke="#444"/>
<line x1="498.7" y1="830" x2="498.7" y2="833" stroke="#444"/>
<text x="498.7" y="845" text-anchor="middle" fill="#444">-5</text>
<line x1="526.2" y1="830" x2="526.2" y2="833" stroke="#444"/>
<text x="526.2" y="845" text-anchor="middle" fill="#444">-4</text>
<line x1="553.6" y1="830" x2="553.6" y2="833" stroke="#444"/>
<text x="553.6" y="845" text-anchor="middle" fill="#444">-3</text>
<line x1="581.1" y1="830" x2="581.1" y2="833" stroke="#444"/>
<text x="581.1" y="845" text-anchor="middle" fill="#444">-2</text>
<line x1="636.0" y1="830" x2="636.0" y2="833" stroke="#444"/>
<text x="636.0" y="845" text-anchor="middle" fill="#444">0</text>
<line x1="663.5" y1="830" x2="663.5" y2="833" stroke="#444"/>
<text x="663.5" y="845" text-anchor="middle" fill="#444">1</text>
<line x1="690.9" y1="830" x2="690.9" y2="833" stroke="#444"/>
<text x="690.9" y="845" text-anchor="middle" fill="#444">2</text>
<line x1="718.4" y1="830" x2="718.4" y2="833" stroke="#444"/>
<text x="718.4" y="845" text-anchor="middle" fill="#444">3</text>
<line x1="745.8" y1="830" x2="745.8" y2="833" stroke="#444"/>
<text x="745.8" y="845" text-anchor="middle" fill="#444">4</text>
<line x1="773.3" y1="830" x2="773.3" y2="833" stroke="#444"/>
<text x="773.3" y="845" text-anchor="middle" fill="#444">5</text>
<line x1="482" y1="830.0" x2="485" y2="830.0" stroke="#444"/>
<text x="479" y="833.0" text-anchor="end" fill="#444">-61</text>
<line x1="482" y1="790.0" x2="485" y2="790.0" stroke="#444"/>
<text x="479" y="793.0" text-anchor="end" fill="#444">-4.4</text>
<line x1="482" y1="750.0" x2="485" y2="750.0" stroke="#444"/>
<text x="479" y="753.0" text-anchor="end" fill="#444">53</text>
<line x1="482" y1="710.0" x2="485" y2="710.0" stroke="#444"/>
<text x="479" y="713.0" text-anchor="end" fill="#444">1.1e+02</text>
<line x1="482" y1="670.0" x2="485" y2="670.0" stroke="#444"/>
<text x="479" y="673.0" text-anchor="end" fill="#444">1.7e+02</text>
<text x="636.0" y="864" text-anchor="middle" fill="#444">Event time (years from adoption)</text>
<text x="437" y="750.0" text-anchor="middle" fill="#444" transform="rotate(-90 437 750.0)">ATT (per 100k)</text>
<text x="805" y="608" text-anchor="end" fill="#888" font-size="10">Shaded band: pointwise 95% CI from cluster bootstrap. Vertical dashed line marks the year before adoption.</text>
</svg>