<svg xmlns="http://www.w3.org/2000/svg" viewBox="0 0 820 620" font-family="-apple-system, Segoe UI, Helvetica, Arial, sans-serif" font-size="11">
<text x="410.0" y="22" text-anchor="middle" font-size="14" font-weight="600">Callaway-Sant'Anna ATT by event time (RA) -- magazine ban (Tufts magazine)</text>
<rect x="15" y="40" width="380" height="260" fill="#fafaf7" stroke="#e2e2dc"/>
<text x="205.0" y="58" text-anchor="middle" font-weight="600">Firearm suicide rate (per 100k)</text>
<line x1="75" y1="173.26029667743904" x2="377" y2="173.26029667743904" stroke="#aaaaaa" stroke-width="0.7"/>
<polygon points="88.7,134.9 116.2,111.3 143.6,141.8 171.1,109.1 226.0,120.0 253.5,90.0 280.9,126.3 308.4,127.2 335.8,169.0 363.3,142.0 363.3,197.7 335.8,250.0 308.4,223.2 280.9,224.9 253.5,164.0 226.0,192.9 171.1,167.6 143.6,222.1 116.2,168.0 88.7,220.3" fill="#1f3a5f" opacity="0.18"/>
<polyline points="88.7,177.6 116.2,139.7 143.6,182.0 171.1,138.3 226.0,156.4 253.5,127.0 280.9,175.6 308.4,175.2 335.8,209.5 363.3,169.8" fill="none" stroke="#1f3a5f" stroke-width="1.6"/>
<circle cx="88.7" cy="177.6" r="2.6" fill="#1f3a5f"/>
<circle cx="116.2" cy="139.7" r="2.6" fill="#1f3a5f"/>
<circle cx="143.6" cy="182.0" r="2.6" fill="#1f3a5f"/>
<circle cx="171.1" cy="138.3" r="2.6" fill="#1f3a5f"/>
<circle cx="226.0" cy="156.4" r="2.6" fill="#1f3a5f"/>
<circle cx="253.5" cy="127.0" r="2.6" fill="#1f3a5f"/>
<circle cx="280.9" cy="175.6" r="2.6" fill="#1f3a5f"/>
<circle cx="308.4" cy="175.2" r="2.6" fill="#1f3a5f"/>
<circle cx="335.8" cy="209.5" r="2.6" fill="#1f3a5f"/>
<circle cx="363.3" cy="169.8" r="2.6" fill="#1f3a5f"/>
<line x1="212.3" y1="90" x2="212.3" y2="250" stroke="#b9461a" stroke-dasharray="3 3"/>
<line x1="75" y1="250" x2="377" y2="250" stroke="#444"/>
<line x1="75" y1="90" x2="75" y2="250" stroke="#444"/>
<line x1="88.7" y1="250" x2="88.7" y2="253" stroke="#444"/>
<text x="88.7" y="265" text-anchor="middle" fill="#444">-5</text>
<line x1="116.2" y1="250" x2="116.2" y2="253" stroke="#444"/>
<text x="116.2" y="265" text-anchor="middle" fill="#444">-4</text>
<line x1="143.6" y1="250" x2="143.6" y2="253" stroke="#444"/>
<text x="143.6" y="265" text-anchor="middle" fill="#444">-3</text>
<line x1="171.1" y1="250" x2="171.1" y2="253" stroke="#444"/>
<text x="171.1" y="265" text-anchor="middle" fill="#444">-2</text>
<line x1="226.0" y1="250" x2="226.0" y2="253" stroke="#444"/>
<text x="226.0" y="265" text-anchor="middle" fill="#444">0</text>
<line x1="253.5" y1="250" x2="253.5" y2="253" stroke="#444"/>
<text x="253.5" y="265" text-anchor="middle" fill="#444">1</text>
<line x1="280.9" y1="250" x2="280.9" y2="253" stroke="#444"/>
<text x="280.9" y="265" text-anchor="middle" fill="#444">2</text>
<line x1="308.4" y1="250" x2="308.4" y2="253" stroke="#444"/>
<text x="308.4" y="265" text-anchor="middle" fill="#444">3</text>
<line x1="335.8" y1="250" x2="335.8" y2="253" stroke="#444"/>
<text x="335.8" y="265" text-anchor="middle" fill="#444">4</text>
<line x1="363.3" y1="250" x2="363.3" y2="253" stroke="#444"/>
<text x="363.3" y="265" text-anchor="middle" fill="#444">5</text>
<line x1="72" y1="250.0" x2="75" y2="250.0" stroke="#444"/>
<text x="69" y="253.0" text-anchor="end" fill="#444">-0.81</text>
<line x1="72" y1="210.0" x2="75" y2="210.0" stroke="#444"/>
<text x="69" y="213.0" text-anchor="end" fill="#444">-0.39</text>
<line x1="72" y1="170.0" x2="75" y2="170.0" stroke="#444"/>
<text x="69" y="173.0" text-anchor="end" fill="#444">0.034</text>
<line x1="72" y1="130.0" x2="75" y2="130.0" stroke="#444"/>
<text x="69" y="133.0" text-anchor="end" fill="#444">0.46</text>
<line x1="72" y1="90.0" x2="75" y2="90.0" stroke="#444"/>
<text x="69" y="93.0" text-anchor="end" fill="#444">0.88</text>
<text x="226.0" y="284" text-anchor="middle" fill="#444">Event time (years from adoption)</text>
<text x="27" y="170.0" text-anchor="middle" fill="#444" transform="rotate(-90 27 170.0)">ATT (per 100k)</text>
<rect x="425" y="40" width="380" height="260" fill="#fafaf7" stroke="#e2e2dc"/>
<text x="615.0" y="58" text-anchor="middle" font-weight="600">Non-firearm suicide rate (per 100k) [substitution test]</text>
<line x1="485" y1="225.98752150383714" x2="787" y2="225.98752150383714" stroke="#aaaaaa" stroke-width="0.7"/>
<polygon points="498.7,179.4 526.2,151.5 553.6,212.0 581.1,183.3 636.0,158.5 663.5,168.5 690.9,172.5 718.4,118.5 745.8,148.1 773.3,90.0 773.3,186.1 745.8,213.5 718.4,183.3 690.9,224.4 663.5,223.4 636.0,213.1 581.1,230.2 553.6,250.0 526.2,195.7 498.7,217.6" fill="#1f3a5f" opacity="0.18"/>
<polyline points="498.7,198.5 526.2,173.6 553.6,231.0 581.1,206.7 636.0,185.8 663.5,196.0 690.9,198.5 718.4,150.9 745.8,180.8 773.3,138.0" fill="none" stroke="#1f3a5f" stroke-width="1.6"/>
<circle cx="498.7" cy="198.5" r="2.6" fill="#1f3a5f"/>
<circle cx="526.2" cy="173.6" r="2.6" fill="#1f3a5f"/>
<circle cx="553.6" cy="231.0" r="2.6" fill="#1f3a5f"/>
<circle cx="581.1" cy="206.7" r="2.6" fill="#1f3a5f"/>
<circle cx="636.0" cy="185.8" r="2.6" fill="#1f3a5f"/>
<circle cx="663.5" cy="196.0" r="2.6" fill="#1f3a5f"/>
<circle cx="690.9" cy="198.5" r="2.6" fill="#1f3a5f"/>
<circle cx="718.4" cy="150.9" r="2.6" fill="#1f3a5f"/>
<circle cx="745.8" cy="180.8" r="2.6" fill="#1f3a5f"/>
<circle cx="773.3" cy="138.0" r="2.6" fill="#1f3a5f"/>
<line x1="622.3" y1="90" x2="622.3" y2="250" stroke="#b9461a" stroke-dasharray="3 3"/>
<line x1="485" y1="250" x2="787" y2="250" stroke="#444"/>
<line x1="485" y1="90" x2="485" y2="250" stroke="#444"/>
<line x1="498.7" y1="250" x2="498.7" y2="253" stroke="#444"/>
<text x="498.7" y="265" text-anchor="middle" fill="#444">-5</text>
<line x1="526.2" y1="250" x2="526.2" y2="253" stroke="#444"/>
<text x="526.2" y="265" text-anchor="middle" fill="#444">-4</text>
<line x1="553.6" y1="250" x2="553.6" y2="253" stroke="#444"/>
<text x="553.6" y="265" text-anchor="middle" fill="#444">-3</text>
<line x1="581.1" y1="250" x2="581.1" y2="253" stroke="#444"/>
<text x="581.1" y="265" text-anchor="middle" fill="#444">-2</text>
<line x1="636.0" y1="250" x2="636.0" y2="253" stroke="#444"/>
<text x="636.0" y="265" text-anchor="middle" fill="#444">0</text>
<line x1="663.5" y1="250" x2="663.5" y2="253" stroke="#444"/>
<text x="663.5" y="265" text-anchor="middle" fill="#444">1</text>
<line x1="690.9" y1="250" x2="690.9" y2="253" stroke="#444"/>
<text x="690.9" y="265" text-anchor="middle" fill="#444">2</text>
<line x1="718.4" y1="250" x2="718.4" y2="253" stroke="#444"/>
<text x="718.4" y="265" text-anchor="middle" fill="#444">3</text>
<line x1="745.8" y1="250" x2="745.8" y2="253" stroke="#444"/>
<text x="745.8" y="265" text-anchor="middle" fill="#444">4</text>
<line x1="773.3" y1="250" x2="773.3" y2="253" stroke="#444"/>
<text x="773.3" y="265" text-anchor="middle" fill="#444">5</text>
<line x1="482" y1="250.0" x2="485" y2="250.0" stroke="#444"/>
<text x="479" y="253.0" text-anchor="end" fill="#444">-0.37</text>
<line x1="482" y1="210.0" x2="485" y2="210.0" stroke="#444"/>
<text x="479" y="213.0" text-anchor="end" fill="#444">0.25</text>
<line x1="482" y1="170.0" x2="485" y2="170.0" stroke="#444"/>
<text x="479" y="173.0" text-anchor="end" fill="#444">0.87</text>
<line x1="482" y1="130.0" x2="485" y2="130.0" stroke="#444"/>
<text x="479" y="133.0" text-anchor="end" fill="#444">1.5</text>
<line x1="482" y1="90.0" x2="485" y2="90.0" stroke="#444"/>
<text x="479" y="93.0" text-anchor="end" fill="#444">2.1</text>
<text x="636.0" y="284" text-anchor="middle" fill="#444">Event time (years from adoption)</text>
<text x="437" y="170.0" text-anchor="middle" fill="#444" transform="rotate(-90 437 170.0)">ATT (per 100k)</text>
<rect x="15" y="330" width="380" height="260" fill="#fafaf7" stroke="#e2e2dc"/>
<text x="205.0" y="348" text-anchor="middle" font-weight="600">Total suicide rate (per 100k) [net effect]</text>
<line x1="75" y1="501.09615000241723" x2="377" y2="501.09615000241723" stroke="#aaaaaa" stroke-width="0.7"/>
<polygon points="88.7,445.9 116.2,408.2 143.6,480.7 171.1,438.6 226.0,426.1 253.5,412.5 280.9,435.1 308.4,389.3 335.8,438.2 363.3,380.0 363.3,469.2 335.8,529.1 308.4,487.8 280.9,523.1 253.5,485.5 226.0,488.6 171.1,490.7 143.6,540.0 116.2,466.5 88.7,514.7" fill="#1f3a5f" opacity="0.18"/>
<polyline points="88.7,480.3 116.2,437.4 143.6,510.4 171.1,464.7 226.0,457.4 253.5,449.0 280.9,479.1 308.4,438.5 335.8,483.7 363.3,424.6" fill="none" stroke="#1f3a5f" stroke-width="1.6"/>
<circle cx="88.7" cy="480.3" r="2.6" fill="#1f3a5f"/>
<circle cx="116.2" cy="437.4" r="2.6" fill="#1f3a5f"/>
<circle cx="143.6" cy="510.4" r="2.6" fill="#1f3a5f"/>
<circle cx="171.1" cy="464.7" r="2.6" fill="#1f3a5f"/>
<circle cx="226.0" cy="457.4" r="2.6" fill="#1f3a5f"/>
<circle cx="253.5" cy="449.0" r="2.6" fill="#1f3a5f"/>
<circle cx="280.9" cy="479.1" r="2.6" fill="#1f3a5f"/>
<circle cx="308.4" cy="438.5" r="2.6" fill="#1f3a5f"/>
<circle cx="335.8" cy="483.7" r="2.6" fill="#1f3a5f"/>
<circle cx="363.3" cy="424.6" r="2.6" fill="#1f3a5f"/>
<line x1="212.3" y1="380" x2="212.3" y2="540" stroke="#b9461a" stroke-dasharray="3 3"/>
<line x1="75" y1="540" x2="377" y2="540" stroke="#444"/>
<line x1="75" y1="380" x2="75" y2="540" stroke="#444"/>
<line x1="88.7" y1="540" x2="88.7" y2="543" stroke="#444"/>
<text x="88.7" y="555" text-anchor="middle" fill="#444">-5</text>
<line x1="116.2" y1="540" x2="116.2" y2="543" stroke="#444"/>
<text x="116.2" y="555" text-anchor="middle" fill="#444">-4</text>
<line x1="143.6" y1="540" x2="143.6" y2="543" stroke="#444"/>
<text x="143.6" y="555" text-anchor="middle" fill="#444">-3</text>
<line x1="171.1" y1="540" x2="171.1" y2="543" stroke="#444"/>
<text x="171.1" y="555" text-anchor="middle" fill="#444">-2</text>
<line x1="226.0" y1="540" x2="226.0" y2="543" stroke="#444"/>
<text x="226.0" y="555" text-anchor="middle" fill="#444">0</text>
<line x1="253.5" y1="540" x2="253.5" y2="543" stroke="#444"/>
<text x="253.5" y="555" text-anchor="middle" fill="#444">1</text>
<line x1="280.9" y1="540" x2="280.9" y2="543" stroke="#444"/>
<text x="280.9" y="555" text-anchor="middle" fill="#444">2</text>
<line x1="308.4" y1="540" x2="308.4" y2="543" stroke="#444"/>
<text x="308.4" y="555" text-anchor="middle" fill="#444">3</text>
<line x1="335.8" y1="540" x2="335.8" y2="543" stroke="#444"/>
<text x="335.8" y="555" text-anchor="middle" fill="#444">4</text>
<line x1="363.3" y1="540" x2="363.3" y2="543" stroke="#444"/>
<text x="363.3" y="555" text-anchor="middle" fill="#444">5</text>
<line x1="72" y1="540.0" x2="75" y2="540.0" stroke="#444"/>
<text x="69" y="543.0" text-anchor="end" fill="#444">-0.71</text>
<line x1="72" y1="500.0" x2="75" y2="500.0" stroke="#444"/>
<text x="69" y="503.0" text-anchor="end" fill="#444">0.02</text>
<line x1="72" y1="460.0" x2="75" y2="460.0" stroke="#444"/>
<text x="69" y="463.0" text-anchor="end" fill="#444">0.75</text>
<line x1="72" y1="420.0" x2="75" y2="420.0" stroke="#444"/>
<text x="69" y="423.0" text-anchor="end" fill="#444">1.5</text>
<line x1="72" y1="380.0" x2="75" y2="380.0" stroke="#444"/>
<text x="69" y="383.0" text-anchor="end" fill="#444">2.2</text>
<text x="226.0" y="574" text-anchor="middle" fill="#444">Event time (years from adoption)</text>
<text x="27" y="460.0" text-anchor="middle" fill="#444" transform="rotate(-90 27 460.0)">ATT (per 100k)</text>
<rect x="425" y="330" width="380" height="260" fill="#fafaf7" stroke="#e2e2dc"/>
<text x="615.0" y="348" text-anchor="middle" font-weight="600">Firearm homicide rate (per 100k)</text>
<line x1="485" y1="388.14037635092086" x2="787" y2="388.14037635092086" stroke="#aaaaaa" stroke-width="0.7"/>
<polygon points="498.7,405.8 526.2,416.2 553.6,406.6 581.1,380.0 636.0,415.9 663.5,414.9 690.9,419.5 718.4,423.6 745.8,399.0 773.3,390.1 773.3,463.5 745.8,465.6 718.4,540.0 690.9,478.9 663.5,475.0 636.0,457.1 581.1,398.4 553.6,438.8 526.2,442.5 498.7,435.1" fill="#1f3a5f" opacity="0.18"/>
<polyline points="498.7,420.4 526.2,429.3 553.6,422.7 581.1,389.2 636.0,436.5 663.5,445.0 690.9,449.2 718.4,481.8 745.8,432.3 773.3,426.8" fill="none" stroke="#1f3a5f" stroke-width="1.6"/>
<circle cx="498.7" cy="420.4" r="2.6" fill="#1f3a5f"/>
<circle cx="526.2" cy="429.3" r="2.6" fill="#1f3a5f"/>
<circle cx="553.6" cy="422.7" r="2.6" fill="#1f3a5f"/>
<circle cx="581.1" cy="389.2" r="2.6" fill="#1f3a5f"/>
<circle cx="636.0" cy="436.5" r="2.6" fill="#1f3a5f"/>
<circle cx="663.5" cy="445.0" r="2.6" fill="#1f3a5f"/>
<circle cx="690.9" cy="449.2" r="2.6" fill="#1f3a5f"/>
<circle cx="718.4" cy="481.8" r="2.6" fill="#1f3a5f"/>
<circle cx="745.8" cy="432.3" r="2.6" fill="#1f3a5f"/>
<circle cx="773.3" cy="426.8" r="2.6" fill="#1f3a5f"/>
<line x1="622.3" y1="380" x2="622.3" y2="540" stroke="#b9461a" stroke-dasharray="3 3"/>
<line x1="485" y1="540" x2="787" y2="540" stroke="#444"/>
<line x1="485" y1="380" x2="485" y2="540" stroke="#444"/>
<line x1="498.7" y1="540" x2="498.7" y2="543" stroke="#444"/>
<text x="498.7" y="555" text-anchor="middle" fill="#444">-5</text>
<line x1="526.2" y1="540" x2="526.2" y2="543" stroke="#444"/>
<text x="526.2" y="555" text-anchor="middle" fill="#444">-4</text>
<line x1="553.6" y1="540" x2="553.6" y2="543" stroke="#444"/>
<text x="553.6" y="555" text-anchor="middle" fill="#444">-3</text>
<line x1="581.1" y1="540" x2="581.1" y2="543" stroke="#444"/>
<text x="581.1" y="555" text-anchor="middle" fill="#444">-2</text>
<line x1="636.0" y1="540" x2="636.0" y2="543" stroke="#444"/>
<text x="636.0" y="555" text-anchor="middle" fill="#444">0</text>
<line x1="663.5" y1="540" x2="663.5" y2="543" stroke="#444"/>
<text x="663.5" y="555" text-anchor="middle" fill="#444">1</text>
<line x1="690.9" y1="540" x2="690.9" y2="543" stroke="#444"/>
<text x="690.9" y="555" text-anchor="middle" fill="#444">2</text>
<line x1="718.4" y1="540" x2="718.4" y2="543" stroke="#444"/>
<text x="718.4" y="555" text-anchor="middle" fill="#444">3</text>
<line x1="745.8" y1="540" x2="745.8" y2="543" stroke="#444"/>
<text x="745.8" y="555" text-anchor="middle" fill="#444">4</text>
<line x1="773.3" y1="540" x2="773.3" y2="543" stroke="#444"/>
<text x="773.3" y="555" text-anchor="middle" fill="#444">5</text>
<line x1="482" y1="540.0" x2="485" y2="540.0" stroke="#444"/>
<text x="479" y="543.0" text-anchor="end" fill="#444">-3</text>
<line x1="482" y1="500.0" x2="485" y2="500.0" stroke="#444"/>
<text x="479" y="503.0" text-anchor="end" fill="#444">-2.2</text>
<line x1="482" y1="460.0" x2="485" y2="460.0" stroke="#444"/>
<text x="479" y="463.0" text-anchor="end" fill="#444">-1.4</text>
<line x1="482" y1="420.0" x2="485" y2="420.0" stroke="#444"/>
<text x="479" y="423.0" text-anchor="end" fill="#444">-0.63</text>
<line x1="482" y1="380.0" x2="485" y2="380.0" stroke="#444"/>
<text x="479" y="383.0" text-anchor="end" fill="#444">0.16</text>
<text x="636.0" y="574" text-anchor="middle" fill="#444">Event time (years from adoption)</text>
<text x="437" y="460.0" text-anchor="middle" fill="#444" transform="rotate(-90 437 460.0)">ATT (per 100k)</text>
<rect x="15" y="620" width="380" height="260" fill="#fafaf7" stroke="#e2e2dc"/>
<text x="205.0" y="638" text-anchor="middle" font-weight="600">Total homicide rate (per 100k)</text>
<line x1="75" y1="682.5473513944452" x2="377" y2="682.5473513944452" stroke="#aaaaaa" stroke-width="0.7"/>
<polygon points="88.7,699.9 116.2,694.4 143.6,689.7 171.1,670.0 226.0,731.8 253.5,727.6 280.9,713.9 308.4,735.8 335.8,678.6 363.3,702.3 363.3,775.9 335.8,778.5 308.4,816.2 280.9,780.4 253.5,830.0 226.0,814.2 171.1,708.7 143.6,762.9 116.2,751.9 88.7,758.6" fill="#1f3a5f" opacity="0.18"/>
<polyline points="88.7,729.2 116.2,723.2 143.6,726.3 171.1,689.3 226.0,773.0 253.5,778.8 280.9,747.2 308.4,776.0 335.8,728.6 363.3,739.1" fill="none" stroke="#1f3a5f" stroke-width="1.6"/>
<circle cx="88.7" cy="729.2" r="2.6" fill="#1f3a5f"/>
<circle cx="116.2" cy="723.2" r="2.6" fill="#1f3a5f"/>
<circle cx="143.6" cy="726.3" r="2.6" fill="#1f3a5f"/>
<circle cx="171.1" cy="689.3" r="2.6" fill="#1f3a5f"/>
<circle cx="226.0" cy="773.0" r="2.6" fill="#1f3a5f"/>
<circle cx="253.5" cy="778.8" r="2.6" fill="#1f3a5f"/>
<circle cx="280.9" cy="747.2" r="2.6" fill="#1f3a5f"/>
<circle cx="308.4" cy="776.0" r="2.6" fill="#1f3a5f"/>
<circle cx="335.8" cy="728.6" r="2.6" fill="#1f3a5f"/>
<circle cx="363.3" cy="739.1" r="2.6" fill="#1f3a5f"/>
<line x1="212.3" y1="670" x2="212.3" y2="830" stroke="#b9461a" stroke-dasharray="3 3"/>
<line x1="75" y1="830" x2="377" y2="830" stroke="#444"/>
<line x1="75" y1="670" x2="75" y2="830" stroke="#444"/>
<line x1="88.7" y1="830" x2="88.7" y2="833" stroke="#444"/>
<text x="88.7" y="845" text-anchor="middle" fill="#444">-5</text>
<line x1="116.2" y1="830" x2="116.2" y2="833" stroke="#444"/>
<text x="116.2" y="845" text-anchor="middle" fill="#444">-4</text>
<line x1="143.6" y1="830" x2="143.6" y2="833" stroke="#444"/>
<text x="143.6" y="845" text-anchor="middle" fill="#444">-3</text>
<line x1="171.1" y1="830" x2="171.1" y2="833" stroke="#444"/>
<text x="171.1" y="845" text-anchor="middle" fill="#444">-2</text>
<line x1="226.0" y1="830" x2="226.0" y2="833" stroke="#444"/>
<text x="226.0" y="845" text-anchor="middle" fill="#444">0</text>
<line x1="253.5" y1="830" x2="253.5" y2="833" stroke="#444"/>
<text x="253.5" y="845" text-anchor="middle" fill="#444">1</text>
<line x1="280.9" y1="830" x2="280.9" y2="833" stroke="#444"/>
<text x="280.9" y="845" text-anchor="middle" fill="#444">2</text>
<line x1="308.4" y1="830" x2="308.4" y2="833" stroke="#444"/>
<text x="308.4" y="845" text-anchor="middle" fill="#444">3</text>
<line x1="335.8" y1="830" x2="335.8" y2="833" stroke="#444"/>
<text x="335.8" y="845" text-anchor="middle" fill="#444">4</text>
<line x1="363.3" y1="830" x2="363.3" y2="833" stroke="#444"/>
<text x="363.3" y="845" text-anchor="middle" fill="#444">5</text>
<line x1="72" y1="830.0" x2="75" y2="830.0" stroke="#444"/>
<text x="69" y="833.0" text-anchor="end" fill="#444">-2.2</text>
<line x1="72" y1="790.0" x2="75" y2="790.0" stroke="#444"/>
<text x="69" y="793.0" text-anchor="end" fill="#444">-1.6</text>
<line x1="72" y1="750.0" x2="75" y2="750.0" stroke="#444"/>
<text x="69" y="753.0" text-anchor="end" fill="#444">-1</text>
<line x1="72" y1="710.0" x2="75" y2="710.0" stroke="#444"/>
<text x="69" y="713.0" text-anchor="end" fill="#444">-0.41</text>
<line x1="72" y1="670.0" x2="75" y2="670.0" stroke="#444"/>
<text x="69" y="673.0" text-anchor="end" fill="#444">0.19</text>
<text x="226.0" y="864" text-anchor="middle" fill="#444">Event time (years from adoption)</text>
<text x="27" y="750.0" text-anchor="middle" fill="#444" transform="rotate(-90 27 750.0)">ATT (per 100k)</text>
<rect x="425" y="620" width="380" height="260" fill="#fafaf7" stroke="#e2e2dc"/>
<text x="615.0" y="638" text-anchor="middle" font-weight="600">Motor vehicle theft rate (per 100k) [placebo]</text>
<line x1="485" y1="777.5885357010238" x2="787" y2="777.5885357010238" stroke="#aaaaaa" stroke-width="0.7"/>
<polygon points="498.7,787.4 526.2,778.6 553.6,771.1 581.1,772.6 636.0,736.5 663.5,715.6 690.9,727.8 718.4,699.2 745.8,670.0 773.3,671.7 773.3,784.3 745.8,787.6 718.4,774.7 690.9,763.4 663.5,763.6 636.0,770.1 581.1,803.0 553.6,806.9 526.2,819.0 498.7,830.0" fill="#1f3a5f" opacity="0.18"/>
<polyline points="498.7,808.7 526.2,798.8 553.6,789.0 581.1,787.8 636.0,753.3 663.5,739.6 690.9,745.6 718.4,737.0 745.8,728.8 773.3,728.0" fill="none" stroke="#1f3a5f" stroke-width="1.6"/>
<circle cx="498.7" cy="808.7" r="2.6" fill="#1f3a5f"/>
<circle cx="526.2" cy="798.8" r="2.6" fill="#1f3a5f"/>
<circle cx="553.6" cy="789.0" r="2.6" fill="#1f3a5f"/>
<circle cx="581.1" cy="787.8" r="2.6" fill="#1f3a5f"/>
<circle cx="636.0" cy="753.3" r="2.6" fill="#1f3a5f"/>
<circle cx="663.5" cy="739.6" r="2.6" fill="#1f3a5f"/>
<circle cx="690.9" cy="745.6" r="2.6" fill="#1f3a5f"/>
<circle cx="718.4" cy="737.0" r="2.6" fill="#1f3a5f"/>
<circle cx="745.8" cy="728.8" r="2.6" fill="#1f3a5f"/>
<circle cx="773.3" cy="728.0" r="2.6" fill="#1f3a5f"/>
<line x1="622.3" y1="670" x2="622.3" y2="830" stroke="#b9461a" stroke-dasharray="3 3"/>
<line x1="485" y1="830" x2="787" y2="830" stroke="#444"/>
<line x1="485" y1="670" x2="485" y2="830" stroke="#444"/>
<line x1="498.7" y1="830" x2="498.7" y2="833" stroke="#444"/>
<text x="498.7" y="845" text-anchor="middle" fill="#444">-5</text>
<line x1="526.2" y1="830" x2="526.2" y2="833" stroke="#444"/>
<text x="526.2" y="845" text-anchor="middle" fill="#444">-4</text>
<line x1="553.6" y1="830" x2="553.6" y2="833" stroke="#444"/>
<text x="553.6" y="845" text-anchor="middle" fill="#444">-3</text>
<line x1="581.1" y1="830" x2="581.1" y2="833" stroke="#444"/>
<text x="581.1" y="845" text-anchor="middle" fill="#444">-2</text>
<line x1="636.0" y1="830" x2="636.0" y2="833" stroke="#444"/>
<text x="636.0" y="845" text-anchor="middle" fill="#444">0</text>
<line x1="663.5" y1="830" x2="663.5" y2="833" stroke="#444"/>
<text x="663.5" y="845" text-anchor="middle" fill="#444">1</text>
<line x1="690.9" y1="830" x2="690.9" y2="833" stroke="#444"/>
<text x="690.9" y="845" text-anchor="middle" fill="#444">2</text>
<line x1="718.4" y1="830" x2="718.4" y2="833" stroke="#444"/>
<text x="718.4" y="845" text-anchor="middle" fill="#444">3</text>
<line x1="745.8" y1="830" x2="745.8" y2="833" stroke="#444"/>
<text x="745.8" y="845" text-anchor="middle" fill="#444">4</text>
<line x1="773.3" y1="830" x2="773.3" y2="833" stroke="#444"/>
<text x="773.3" y="845" text-anchor="middle" fill="#444">5</text>
<line x1="482" y1="830.0" x2="485" y2="830.0" stroke="#444"/>
<text x="479" y="833.0" text-anchor="end" fill="#444">-51</text>
<line x1="482" y1="790.0" x2="485" y2="790.0" stroke="#444"/>
<text x="479" y="793.0" text-anchor="end" fill="#444">-12</text>
<line x1="482" y1="750.0" x2="485" y2="750.0" stroke="#444"/>
<text x="479" y="753.0" text-anchor="end" fill="#444">27</text>
<line x1="482" y1="710.0" x2="485" y2="710.0" stroke="#444"/>
<text x="479" y="713.0" text-anchor="end" fill="#444">66</text>
<line x1="482" y1="670.0" x2="485" y2="670.0" stroke="#444"/>
<text x="479" y="673.0" text-anchor="end" fill="#444">1.1e+02</text>
<text x="636.0" y="864" text-anchor="middle" fill="#444">Event time (years from adoption)</text>
<text x="437" y="750.0" text-anchor="middle" fill="#444" transform="rotate(-90 437 750.0)">ATT (per 100k)</text>
<text x="805" y="608" text-anchor="end" fill="#888" font-size="10">Shaded band: pointwise 95% CI from cluster bootstrap. Vertical dashed line marks the year before adoption.</text>
</svg>