<svg xmlns="http://www.w3.org/2000/svg" viewBox="0 0 820 620" font-family="-apple-system, Segoe UI, Helvetica, Arial, sans-serif" font-size="11">
<text x="410.0" y="22" text-anchor="middle" font-size="14" font-weight="600">Callaway-Sant'Anna ATT by event time (RA) -- magazine ban</text>
<rect x="15" y="40" width="380" height="260" fill="#fafaf7" stroke="#e2e2dc"/>
<text x="205.0" y="58" text-anchor="middle" font-weight="600">Firearm suicide rate (per 100k)</text>
<line x1="75" y1="194.79499528501145" x2="377" y2="194.79499528501145" stroke="#aaaaaa" stroke-width="0.7"/>
<polygon points="88.7,163.8 116.2,146.7 143.6,90.0 171.1,136.5 226.0,149.1 253.5,140.9 280.9,128.5 308.4,95.6 335.8,112.6 363.3,142.6 363.3,189.6 335.8,213.7 308.4,177.3 280.9,220.1 253.5,224.7 226.0,226.1 171.1,236.9 143.6,229.5 116.2,201.2 88.7,250.0" fill="#1f3a5f" opacity="0.18"/>
<polyline points="88.7,206.9 116.2,174.0 143.6,159.7 171.1,186.7 226.0,187.6 253.5,182.8 280.9,174.3 308.4,136.5 335.8,163.2 363.3,166.1" fill="none" stroke="#1f3a5f" stroke-width="1.6"/>
<circle cx="88.7" cy="206.9" r="2.6" fill="#1f3a5f"/>
<circle cx="116.2" cy="174.0" r="2.6" fill="#1f3a5f"/>
<circle cx="143.6" cy="159.7" r="2.6" fill="#1f3a5f"/>
<circle cx="171.1" cy="186.7" r="2.6" fill="#1f3a5f"/>
<circle cx="226.0" cy="187.6" r="2.6" fill="#1f3a5f"/>
<circle cx="253.5" cy="182.8" r="2.6" fill="#1f3a5f"/>
<circle cx="280.9" cy="174.3" r="2.6" fill="#1f3a5f"/>
<circle cx="308.4" cy="136.5" r="2.6" fill="#1f3a5f"/>
<circle cx="335.8" cy="163.2" r="2.6" fill="#1f3a5f"/>
<circle cx="363.3" cy="166.1" r="2.6" fill="#1f3a5f"/>
<line x1="212.3" y1="90" x2="212.3" y2="250" stroke="#b9461a" stroke-dasharray="3 3"/>
<line x1="75" y1="250" x2="377" y2="250" stroke="#444"/>
<line x1="75" y1="90" x2="75" y2="250" stroke="#444"/>
<line x1="88.7" y1="250" x2="88.7" y2="253" stroke="#444"/>
<text x="88.7" y="265" text-anchor="middle" fill="#444">-5</text>
<line x1="116.2" y1="250" x2="116.2" y2="253" stroke="#444"/>
<text x="116.2" y="265" text-anchor="middle" fill="#444">-4</text>
<line x1="143.6" y1="250" x2="143.6" y2="253" stroke="#444"/>
<text x="143.6" y="265" text-anchor="middle" fill="#444">-3</text>
<line x1="171.1" y1="250" x2="171.1" y2="253" stroke="#444"/>
<text x="171.1" y="265" text-anchor="middle" fill="#444">-2</text>
<line x1="226.0" y1="250" x2="226.0" y2="253" stroke="#444"/>
<text x="226.0" y="265" text-anchor="middle" fill="#444">0</text>
<line x1="253.5" y1="250" x2="253.5" y2="253" stroke="#444"/>
<text x="253.5" y="265" text-anchor="middle" fill="#444">1</text>
<line x1="280.9" y1="250" x2="280.9" y2="253" stroke="#444"/>
<text x="280.9" y="265" text-anchor="middle" fill="#444">2</text>
<line x1="308.4" y1="250" x2="308.4" y2="253" stroke="#444"/>
<text x="308.4" y="265" text-anchor="middle" fill="#444">3</text>
<line x1="335.8" y1="250" x2="335.8" y2="253" stroke="#444"/>
<text x="335.8" y="265" text-anchor="middle" fill="#444">4</text>
<line x1="363.3" y1="250" x2="363.3" y2="253" stroke="#444"/>
<text x="363.3" y="265" text-anchor="middle" fill="#444">5</text>
<line x1="72" y1="250.0" x2="75" y2="250.0" stroke="#444"/>
<text x="69" y="253.0" text-anchor="end" fill="#444">-2</text>
<line x1="72" y1="210.0" x2="75" y2="210.0" stroke="#444"/>
<text x="69" y="213.0" text-anchor="end" fill="#444">-0.56</text>
<line x1="72" y1="170.0" x2="75" y2="170.0" stroke="#444"/>
<text x="69" y="173.0" text-anchor="end" fill="#444">0.92</text>
<line x1="72" y1="130.0" x2="75" y2="130.0" stroke="#444"/>
<text x="69" y="133.0" text-anchor="end" fill="#444">2.4</text>
<line x1="72" y1="90.0" x2="75" y2="90.0" stroke="#444"/>
<text x="69" y="93.0" text-anchor="end" fill="#444">3.9</text>
<text x="226.0" y="284" text-anchor="middle" fill="#444">Event time (years from adoption)</text>
<text x="27" y="170.0" text-anchor="middle" fill="#444" transform="rotate(-90 27 170.0)">ATT (per 100k)</text>
<rect x="425" y="40" width="380" height="260" fill="#fafaf7" stroke="#e2e2dc"/>
<text x="615.0" y="58" text-anchor="middle" font-weight="600">Non-firearm suicide rate (per 100k) [substitution test]</text>
<line x1="485" y1="196.86815854542004" x2="787" y2="196.86815854542004" stroke="#aaaaaa" stroke-width="0.7"/>
<polygon points="498.7,155.7 526.2,111.4 553.6,174.9 581.1,131.5 636.0,122.7 663.5,90.0 690.9,166.3 718.4,180.9 745.8,150.1 773.3,117.9 773.3,214.9 745.8,210.9 718.4,250.0 690.9,222.8 663.5,191.6 636.0,190.4 581.1,190.1 553.6,244.9 526.2,204.3 498.7,223.5" fill="#1f3a5f" opacity="0.18"/>
<polyline points="498.7,189.6 526.2,157.9 553.6,209.9 581.1,160.8 636.0,156.6 663.5,140.8 690.9,194.5 718.4,215.5 745.8,180.5 773.3,166.4" fill="none" stroke="#1f3a5f" stroke-width="1.6"/>
<circle cx="498.7" cy="189.6" r="2.6" fill="#1f3a5f"/>
<circle cx="526.2" cy="157.9" r="2.6" fill="#1f3a5f"/>
<circle cx="553.6" cy="209.9" r="2.6" fill="#1f3a5f"/>
<circle cx="581.1" cy="160.8" r="2.6" fill="#1f3a5f"/>
<circle cx="636.0" cy="156.6" r="2.6" fill="#1f3a5f"/>
<circle cx="663.5" cy="140.8" r="2.6" fill="#1f3a5f"/>
<circle cx="690.9" cy="194.5" r="2.6" fill="#1f3a5f"/>
<circle cx="718.4" cy="215.5" r="2.6" fill="#1f3a5f"/>
<circle cx="745.8" cy="180.5" r="2.6" fill="#1f3a5f"/>
<circle cx="773.3" cy="166.4" r="2.6" fill="#1f3a5f"/>
<line x1="622.3" y1="90" x2="622.3" y2="250" stroke="#b9461a" stroke-dasharray="3 3"/>
<line x1="485" y1="250" x2="787" y2="250" stroke="#444"/>
<line x1="485" y1="90" x2="485" y2="250" stroke="#444"/>
<line x1="498.7" y1="250" x2="498.7" y2="253" stroke="#444"/>
<text x="498.7" y="265" text-anchor="middle" fill="#444">-5</text>
<line x1="526.2" y1="250" x2="526.2" y2="253" stroke="#444"/>
<text x="526.2" y="265" text-anchor="middle" fill="#444">-4</text>
<line x1="553.6" y1="250" x2="553.6" y2="253" stroke="#444"/>
<text x="553.6" y="265" text-anchor="middle" fill="#444">-3</text>
<line x1="581.1" y1="250" x2="581.1" y2="253" stroke="#444"/>
<text x="581.1" y="265" text-anchor="middle" fill="#444">-2</text>
<line x1="636.0" y1="250" x2="636.0" y2="253" stroke="#444"/>
<text x="636.0" y="265" text-anchor="middle" fill="#444">0</text>
<line x1="663.5" y1="250" x2="663.5" y2="253" stroke="#444"/>
<text x="663.5" y="265" text-anchor="middle" fill="#444">1</text>
<line x1="690.9" y1="250" x2="690.9" y2="253" stroke="#444"/>
<text x="690.9" y="265" text-anchor="middle" fill="#444">2</text>
<line x1="718.4" y1="250" x2="718.4" y2="253" stroke="#444"/>
<text x="718.4" y="265" text-anchor="middle" fill="#444">3</text>
<line x1="745.8" y1="250" x2="745.8" y2="253" stroke="#444"/>
<text x="745.8" y="265" text-anchor="middle" fill="#444">4</text>
<line x1="773.3" y1="250" x2="773.3" y2="253" stroke="#444"/>
<text x="773.3" y="265" text-anchor="middle" fill="#444">5</text>
<line x1="482" y1="250.0" x2="485" y2="250.0" stroke="#444"/>
<text x="479" y="253.0" text-anchor="end" fill="#444">-1.5</text>
<line x1="482" y1="210.0" x2="485" y2="210.0" stroke="#444"/>
<text x="479" y="213.0" text-anchor="end" fill="#444">-0.37</text>
<line x1="482" y1="170.0" x2="485" y2="170.0" stroke="#444"/>
<text x="479" y="173.0" text-anchor="end" fill="#444">0.76</text>
<line x1="482" y1="130.0" x2="485" y2="130.0" stroke="#444"/>
<text x="479" y="133.0" text-anchor="end" fill="#444">1.9</text>
<line x1="482" y1="90.0" x2="485" y2="90.0" stroke="#444"/>
<text x="479" y="93.0" text-anchor="end" fill="#444">3</text>
<text x="636.0" y="284" text-anchor="middle" fill="#444">Event time (years from adoption)</text>
<text x="437" y="170.0" text-anchor="middle" fill="#444" transform="rotate(-90 437 170.0)">ATT (per 100k)</text>
<rect x="15" y="330" width="380" height="260" fill="#fafaf7" stroke="#e2e2dc"/>
<text x="205.0" y="348" text-anchor="middle" font-weight="600">Total suicide rate (per 100k) [net effect]</text>
<line x1="75" y1="483.8085627040881" x2="377" y2="483.8085627040881" stroke="#aaaaaa" stroke-width="0.7"/>
<polygon points="88.7,438.4 116.2,396.4 143.6,407.3 171.1,404.5 226.0,407.7 253.5,380.0 280.9,418.9 308.4,404.3 335.8,398.7 363.3,403.8 363.3,478.7 335.8,496.6 308.4,491.2 280.9,512.2 253.5,497.6 226.0,497.5 171.1,504.6 143.6,519.3 116.2,488.1 88.7,540.0" fill="#1f3a5f" opacity="0.18"/>
<polyline points="88.7,489.2 116.2,442.3 143.6,463.3 171.1,454.5 226.0,452.6 253.5,438.8 280.9,465.6 308.4,447.7 335.8,447.6 363.3,441.2" fill="none" stroke="#1f3a5f" stroke-width="1.6"/>
<circle cx="88.7" cy="489.2" r="2.6" fill="#1f3a5f"/>
<circle cx="116.2" cy="442.3" r="2.6" fill="#1f3a5f"/>
<circle cx="143.6" cy="463.3" r="2.6" fill="#1f3a5f"/>
<circle cx="171.1" cy="454.5" r="2.6" fill="#1f3a5f"/>
<circle cx="226.0" cy="452.6" r="2.6" fill="#1f3a5f"/>
<circle cx="253.5" cy="438.8" r="2.6" fill="#1f3a5f"/>
<circle cx="280.9" cy="465.6" r="2.6" fill="#1f3a5f"/>
<circle cx="308.4" cy="447.7" r="2.6" fill="#1f3a5f"/>
<circle cx="335.8" cy="447.6" r="2.6" fill="#1f3a5f"/>
<circle cx="363.3" cy="441.2" r="2.6" fill="#1f3a5f"/>
<line x1="212.3" y1="380" x2="212.3" y2="540" stroke="#b9461a" stroke-dasharray="3 3"/>
<line x1="75" y1="540" x2="377" y2="540" stroke="#444"/>
<line x1="75" y1="380" x2="75" y2="540" stroke="#444"/>
<line x1="88.7" y1="540" x2="88.7" y2="543" stroke="#444"/>
<text x="88.7" y="555" text-anchor="middle" fill="#444">-5</text>
<line x1="116.2" y1="540" x2="116.2" y2="543" stroke="#444"/>
<text x="116.2" y="555" text-anchor="middle" fill="#444">-4</text>
<line x1="143.6" y1="540" x2="143.6" y2="543" stroke="#444"/>
<text x="143.6" y="555" text-anchor="middle" fill="#444">-3</text>
<line x1="171.1" y1="540" x2="171.1" y2="543" stroke="#444"/>
<text x="171.1" y="555" text-anchor="middle" fill="#444">-2</text>
<line x1="226.0" y1="540" x2="226.0" y2="543" stroke="#444"/>
<text x="226.0" y="555" text-anchor="middle" fill="#444">0</text>
<line x1="253.5" y1="540" x2="253.5" y2="543" stroke="#444"/>
<text x="253.5" y="555" text-anchor="middle" fill="#444">1</text>
<line x1="280.9" y1="540" x2="280.9" y2="543" stroke="#444"/>
<text x="280.9" y="555" text-anchor="middle" fill="#444">2</text>
<line x1="308.4" y1="540" x2="308.4" y2="543" stroke="#444"/>
<text x="308.4" y="555" text-anchor="middle" fill="#444">3</text>
<line x1="335.8" y1="540" x2="335.8" y2="543" stroke="#444"/>
<text x="335.8" y="555" text-anchor="middle" fill="#444">4</text>
<line x1="363.3" y1="540" x2="363.3" y2="543" stroke="#444"/>
<text x="363.3" y="555" text-anchor="middle" fill="#444">5</text>
<line x1="72" y1="540.0" x2="75" y2="540.0" stroke="#444"/>
<text x="69" y="543.0" text-anchor="end" fill="#444">-2.5</text>
<line x1="72" y1="500.0" x2="75" y2="500.0" stroke="#444"/>
<text x="69" y="503.0" text-anchor="end" fill="#444">-0.73</text>
<line x1="72" y1="460.0" x2="75" y2="460.0" stroke="#444"/>
<text x="69" y="463.0" text-anchor="end" fill="#444">1.1</text>
<line x1="72" y1="420.0" x2="75" y2="420.0" stroke="#444"/>
<text x="69" y="423.0" text-anchor="end" fill="#444">2.9</text>
<line x1="72" y1="380.0" x2="75" y2="380.0" stroke="#444"/>
<text x="69" y="383.0" text-anchor="end" fill="#444">4.7</text>
<text x="226.0" y="574" text-anchor="middle" fill="#444">Event time (years from adoption)</text>
<text x="27" y="460.0" text-anchor="middle" fill="#444" transform="rotate(-90 27 460.0)">ATT (per 100k)</text>
<rect x="425" y="330" width="380" height="260" fill="#fafaf7" stroke="#e2e2dc"/>
<text x="615.0" y="348" text-anchor="middle" font-weight="600">Firearm homicide rate (per 100k)</text>
<line x1="485" y1="410.60425790578523" x2="787" y2="410.60425790578523" stroke="#aaaaaa" stroke-width="0.7"/>
<polygon points="498.7,436.1 526.2,380.0 553.6,393.8 581.1,411.8 636.0,407.1 663.5,540.0 690.9,508.7 718.4,410.6 745.8,535.9 773.3,504.8 773.3,504.8 745.8,535.9 718.4,410.6 690.9,508.7 663.5,540.0 636.0,407.1 581.1,411.8 553.6,393.8 526.2,380.0 498.7,436.1" fill="#1f3a5f" opacity="0.18"/>
<polyline points="498.7,436.1 526.2,380.0 553.6,393.8 581.1,411.8 636.0,407.1 663.5,540.0 690.9,508.7 718.4,410.6 745.8,535.9 773.3,504.8" fill="none" stroke="#1f3a5f" stroke-width="1.6"/>
<circle cx="498.7" cy="436.1" r="2.6" fill="#1f3a5f"/>
<circle cx="526.2" cy="380.0" r="2.6" fill="#1f3a5f"/>
<circle cx="553.6" cy="393.8" r="2.6" fill="#1f3a5f"/>
<circle cx="581.1" cy="411.8" r="2.6" fill="#1f3a5f"/>
<circle cx="636.0" cy="407.1" r="2.6" fill="#1f3a5f"/>
<circle cx="663.5" cy="540.0" r="2.6" fill="#1f3a5f"/>
<circle cx="690.9" cy="508.7" r="2.6" fill="#1f3a5f"/>
<circle cx="718.4" cy="410.6" r="2.6" fill="#1f3a5f"/>
<circle cx="745.8" cy="535.9" r="2.6" fill="#1f3a5f"/>
<circle cx="773.3" cy="504.8" r="2.6" fill="#1f3a5f"/>
<line x1="622.3" y1="380" x2="622.3" y2="540" stroke="#b9461a" stroke-dasharray="3 3"/>
<line x1="485" y1="540" x2="787" y2="540" stroke="#444"/>
<line x1="485" y1="380" x2="485" y2="540" stroke="#444"/>
<line x1="498.7" y1="540" x2="498.7" y2="543" stroke="#444"/>
<text x="498.7" y="555" text-anchor="middle" fill="#444">-5</text>
<line x1="526.2" y1="540" x2="526.2" y2="543" stroke="#444"/>
<text x="526.2" y="555" text-anchor="middle" fill="#444">-4</text>
<line x1="553.6" y1="540" x2="553.6" y2="543" stroke="#444"/>
<text x="553.6" y="555" text-anchor="middle" fill="#444">-3</text>
<line x1="581.1" y1="540" x2="581.1" y2="543" stroke="#444"/>
<text x="581.1" y="555" text-anchor="middle" fill="#444">-2</text>
<line x1="636.0" y1="540" x2="636.0" y2="543" stroke="#444"/>
<text x="636.0" y="555" text-anchor="middle" fill="#444">0</text>
<line x1="663.5" y1="540" x2="663.5" y2="543" stroke="#444"/>
<text x="663.5" y="555" text-anchor="middle" fill="#444">1</text>
<line x1="690.9" y1="540" x2="690.9" y2="543" stroke="#444"/>
<text x="690.9" y="555" text-anchor="middle" fill="#444">2</text>
<line x1="718.4" y1="540" x2="718.4" y2="543" stroke="#444"/>
<text x="718.4" y="555" text-anchor="middle" fill="#444">3</text>
<line x1="745.8" y1="540" x2="745.8" y2="543" stroke="#444"/>
<text x="745.8" y="555" text-anchor="middle" fill="#444">4</text>
<line x1="773.3" y1="540" x2="773.3" y2="543" stroke="#444"/>
<text x="773.3" y="555" text-anchor="middle" fill="#444">5</text>
<line x1="482" y1="540.0" x2="485" y2="540.0" stroke="#444"/>
<text x="479" y="543.0" text-anchor="end" fill="#444">-2.1</text>
<line x1="482" y1="500.0" x2="485" y2="500.0" stroke="#444"/>
<text x="479" y="503.0" text-anchor="end" fill="#444">-1.4</text>
<line x1="482" y1="460.0" x2="485" y2="460.0" stroke="#444"/>
<text x="479" y="463.0" text-anchor="end" fill="#444">-0.79</text>
<line x1="482" y1="420.0" x2="485" y2="420.0" stroke="#444"/>
<text x="479" y="423.0" text-anchor="end" fill="#444">-0.15</text>
<line x1="482" y1="380.0" x2="485" y2="380.0" stroke="#444"/>
<text x="479" y="383.0" text-anchor="end" fill="#444">0.49</text>
<text x="636.0" y="574" text-anchor="middle" fill="#444">Event time (years from adoption)</text>
<text x="437" y="460.0" text-anchor="middle" fill="#444" transform="rotate(-90 437 460.0)">ATT (per 100k)</text>
<rect x="15" y="620" width="380" height="260" fill="#fafaf7" stroke="#e2e2dc"/>
<text x="205.0" y="638" text-anchor="middle" font-weight="600">Total homicide rate (per 100k)</text>
<line x1="75" y1="670.0" x2="377" y2="670.0" stroke="#aaaaaa" stroke-width="0.7"/>
<polygon points="88.7,758.7 116.2,748.5 143.6,774.5 171.1,722.7 226.0,747.4 253.5,830.0 280.9,760.1 308.4,828.1 335.8,786.7 363.3,800.6 363.3,800.6 335.8,786.7 308.4,828.1 280.9,760.1 253.5,830.0 226.0,747.4 171.1,722.7 143.6,774.5 116.2,748.5 88.7,758.7" fill="#1f3a5f" opacity="0.18"/>
<polyline points="88.7,758.7 116.2,748.5 143.6,774.5 171.1,722.7 226.0,747.4 253.5,830.0 280.9,760.1 308.4,828.1 335.8,786.7 363.3,800.6" fill="none" stroke="#1f3a5f" stroke-width="1.6"/>
<circle cx="88.7" cy="758.7" r="2.6" fill="#1f3a5f"/>
<circle cx="116.2" cy="748.5" r="2.6" fill="#1f3a5f"/>
<circle cx="143.6" cy="774.5" r="2.6" fill="#1f3a5f"/>
<circle cx="171.1" cy="722.7" r="2.6" fill="#1f3a5f"/>
<circle cx="226.0" cy="747.4" r="2.6" fill="#1f3a5f"/>
<circle cx="253.5" cy="830.0" r="2.6" fill="#1f3a5f"/>
<circle cx="280.9" cy="760.1" r="2.6" fill="#1f3a5f"/>
<circle cx="308.4" cy="828.1" r="2.6" fill="#1f3a5f"/>
<circle cx="335.8" cy="786.7" r="2.6" fill="#1f3a5f"/>
<circle cx="363.3" cy="800.6" r="2.6" fill="#1f3a5f"/>
<line x1="212.3" y1="670" x2="212.3" y2="830" stroke="#b9461a" stroke-dasharray="3 3"/>
<line x1="75" y1="830" x2="377" y2="830" stroke="#444"/>
<line x1="75" y1="670" x2="75" y2="830" stroke="#444"/>
<line x1="88.7" y1="830" x2="88.7" y2="833" stroke="#444"/>
<text x="88.7" y="845" text-anchor="middle" fill="#444">-5</text>
<line x1="116.2" y1="830" x2="116.2" y2="833" stroke="#444"/>
<text x="116.2" y="845" text-anchor="middle" fill="#444">-4</text>
<line x1="143.6" y1="830" x2="143.6" y2="833" stroke="#444"/>
<text x="143.6" y="845" text-anchor="middle" fill="#444">-3</text>
<line x1="171.1" y1="830" x2="171.1" y2="833" stroke="#444"/>
<text x="171.1" y="845" text-anchor="middle" fill="#444">-2</text>
<line x1="226.0" y1="830" x2="226.0" y2="833" stroke="#444"/>
<text x="226.0" y="845" text-anchor="middle" fill="#444">0</text>
<line x1="253.5" y1="830" x2="253.5" y2="833" stroke="#444"/>
<text x="253.5" y="845" text-anchor="middle" fill="#444">1</text>
<line x1="280.9" y1="830" x2="280.9" y2="833" stroke="#444"/>
<text x="280.9" y="845" text-anchor="middle" fill="#444">2</text>
<line x1="308.4" y1="830" x2="308.4" y2="833" stroke="#444"/>
<text x="308.4" y="845" text-anchor="middle" fill="#444">3</text>
<line x1="335.8" y1="830" x2="335.8" y2="833" stroke="#444"/>
<text x="335.8" y="845" text-anchor="middle" fill="#444">4</text>
<line x1="363.3" y1="830" x2="363.3" y2="833" stroke="#444"/>
<text x="363.3" y="845" text-anchor="middle" fill="#444">5</text>
<line x1="72" y1="830.0" x2="75" y2="830.0" stroke="#444"/>
<text x="69" y="833.0" text-anchor="end" fill="#444">-3.8</text>
<line x1="72" y1="790.0" x2="75" y2="790.0" stroke="#444"/>
<text x="69" y="793.0" text-anchor="end" fill="#444">-2.8</text>
<line x1="72" y1="750.0" x2="75" y2="750.0" stroke="#444"/>
<text x="69" y="753.0" text-anchor="end" fill="#444">-1.9</text>
<line x1="72" y1="710.0" x2="75" y2="710.0" stroke="#444"/>
<text x="69" y="713.0" text-anchor="end" fill="#444">-0.94</text>
<line x1="72" y1="670.0" x2="75" y2="670.0" stroke="#444"/>
<text x="69" y="673.0" text-anchor="end" fill="#444">0</text>
<text x="226.0" y="864" text-anchor="middle" fill="#444">Event time (years from adoption)</text>
<text x="27" y="750.0" text-anchor="middle" fill="#444" transform="rotate(-90 27 750.0)">ATT (per 100k)</text>
<rect x="425" y="620" width="380" height="260" fill="#fafaf7" stroke="#e2e2dc"/>
<text x="615.0" y="638" text-anchor="middle" font-weight="600">Motor vehicle theft rate (per 100k) [placebo]</text>
<line x1="485" y1="800.3667153248604" x2="787" y2="800.3667153248604" stroke="#aaaaaa" stroke-width="0.7"/>
<polygon points="498.7,722.7 526.2,730.7 553.6,756.9 581.1,794.0 636.0,804.3 663.5,798.0 690.9,830.0 718.4,781.5 745.8,744.7 773.3,670.0 773.3,670.0 745.8,744.7 718.4,781.5 690.9,830.0 663.5,798.0 636.0,804.3 581.1,794.0 553.6,756.9 526.2,730.7 498.7,722.7" fill="#1f3a5f" opacity="0.18"/>
<polyline points="498.7,722.7 526.2,730.7 553.6,756.9 581.1,794.0 636.0,804.3 663.5,798.0 690.9,830.0 718.4,781.5 745.8,744.7 773.3,670.0" fill="none" stroke="#1f3a5f" stroke-width="1.6"/>
<circle cx="498.7" cy="722.7" r="2.6" fill="#1f3a5f"/>
<circle cx="526.2" cy="730.7" r="2.6" fill="#1f3a5f"/>
<circle cx="553.6" cy="756.9" r="2.6" fill="#1f3a5f"/>
<circle cx="581.1" cy="794.0" r="2.6" fill="#1f3a5f"/>
<circle cx="636.0" cy="804.3" r="2.6" fill="#1f3a5f"/>
<circle cx="663.5" cy="798.0" r="2.6" fill="#1f3a5f"/>
<circle cx="690.9" cy="830.0" r="2.6" fill="#1f3a5f"/>
<circle cx="718.4" cy="781.5" r="2.6" fill="#1f3a5f"/>
<circle cx="745.8" cy="744.7" r="2.6" fill="#1f3a5f"/>
<circle cx="773.3" cy="670.0" r="2.6" fill="#1f3a5f"/>
<line x1="622.3" y1="670" x2="622.3" y2="830" stroke="#b9461a" stroke-dasharray="3 3"/>
<line x1="485" y1="830" x2="787" y2="830" stroke="#444"/>
<line x1="485" y1="670" x2="485" y2="830" stroke="#444"/>
<line x1="498.7" y1="830" x2="498.7" y2="833" stroke="#444"/>
<text x="498.7" y="845" text-anchor="middle" fill="#444">-5</text>
<line x1="526.2" y1="830" x2="526.2" y2="833" stroke="#444"/>
<text x="526.2" y="845" text-anchor="middle" fill="#444">-4</text>
<line x1="553.6" y1="830" x2="553.6" y2="833" stroke="#444"/>
<text x="553.6" y="845" text-anchor="middle" fill="#444">-3</text>
<line x1="581.1" y1="830" x2="581.1" y2="833" stroke="#444"/>
<text x="581.1" y="845" text-anchor="middle" fill="#444">-2</text>
<line x1="636.0" y1="830" x2="636.0" y2="833" stroke="#444"/>
<text x="636.0" y="845" text-anchor="middle" fill="#444">0</text>
<line x1="663.5" y1="830" x2="663.5" y2="833" stroke="#444"/>
<text x="663.5" y="845" text-anchor="middle" fill="#444">1</text>
<line x1="690.9" y1="830" x2="690.9" y2="833" stroke="#444"/>
<text x="690.9" y="845" text-anchor="middle" fill="#444">2</text>
<line x1="718.4" y1="830" x2="718.4" y2="833" stroke="#444"/>
<text x="718.4" y="845" text-anchor="middle" fill="#444">3</text>
<line x1="745.8" y1="830" x2="745.8" y2="833" stroke="#444"/>
<text x="745.8" y="845" text-anchor="middle" fill="#444">4</text>
<line x1="773.3" y1="830" x2="773.3" y2="833" stroke="#444"/>
<text x="773.3" y="845" text-anchor="middle" fill="#444">5</text>
<line x1="482" y1="830.0" x2="485" y2="830.0" stroke="#444"/>
<text x="479" y="833.0" text-anchor="end" fill="#444">-34</text>
<line x1="482" y1="790.0" x2="485" y2="790.0" stroke="#444"/>
<text x="479" y="793.0" text-anchor="end" fill="#444">12</text>
<line x1="482" y1="750.0" x2="485" y2="750.0" stroke="#444"/>
<text x="479" y="753.0" text-anchor="end" fill="#444">58</text>
<line x1="482" y1="710.0" x2="485" y2="710.0" stroke="#444"/>
<text x="479" y="713.0" text-anchor="end" fill="#444">1e+02</text>
<line x1="482" y1="670.0" x2="485" y2="670.0" stroke="#444"/>
<text x="479" y="673.0" text-anchor="end" fill="#444">1.5e+02</text>
<text x="636.0" y="864" text-anchor="middle" fill="#444">Event time (years from adoption)</text>
<text x="437" y="750.0" text-anchor="middle" fill="#444" transform="rotate(-90 437 750.0)">ATT (per 100k)</text>
<text x="805" y="608" text-anchor="end" fill="#888" font-size="10">Shaded band: pointwise 95% CI from cluster bootstrap. Vertical dashed line marks the year before adoption.</text>
</svg>