<svg xmlns="http://www.w3.org/2000/svg" viewBox="0 0 820 620" font-family="-apple-system, Segoe UI, Helvetica, Arial, sans-serif" font-size="11">
<text x="410.0" y="22" text-anchor="middle" font-size="14" font-weight="600">Callaway-Sant'Anna ATT by event time (RA) -- magazine ban</text>
<rect x="15" y="40" width="380" height="260" fill="#fafaf7" stroke="#e2e2dc"/>
<text x="205.0" y="58" text-anchor="middle" font-weight="600">Firearm suicide rate (per 100k)</text>
<line x1="75" y1="161.5573262197837" x2="377" y2="161.5573262197837" stroke="#aaaaaa" stroke-width="0.7"/>
<polygon points="88.7,167.4 116.2,128.7 143.6,103.5 171.1,123.9 226.0,157.9 253.5,101.7 280.9,138.4 308.4,90.0 335.8,165.0 363.3,111.7 363.3,147.2 335.8,233.3 308.4,153.7 280.9,216.2 253.5,195.4 226.0,217.1 171.1,238.4 143.6,250.0 116.2,174.6 88.7,249.0" fill="#1f3a5f" opacity="0.18"/>
<polyline points="88.7,208.2 116.2,151.6 143.6,176.8 171.1,181.1 226.0,187.5 253.5,148.5 280.9,177.3 308.4,121.8 335.8,199.1 363.3,129.5" fill="none" stroke="#1f3a5f" stroke-width="1.6"/>
<circle cx="88.7" cy="208.2" r="2.6" fill="#1f3a5f"/>
<circle cx="116.2" cy="151.6" r="2.6" fill="#1f3a5f"/>
<circle cx="143.6" cy="176.8" r="2.6" fill="#1f3a5f"/>
<circle cx="171.1" cy="181.1" r="2.6" fill="#1f3a5f"/>
<circle cx="226.0" cy="187.5" r="2.6" fill="#1f3a5f"/>
<circle cx="253.5" cy="148.5" r="2.6" fill="#1f3a5f"/>
<circle cx="280.9" cy="177.3" r="2.6" fill="#1f3a5f"/>
<circle cx="308.4" cy="121.8" r="2.6" fill="#1f3a5f"/>
<circle cx="335.8" cy="199.1" r="2.6" fill="#1f3a5f"/>
<circle cx="363.3" cy="129.5" r="2.6" fill="#1f3a5f"/>
<line x1="212.3" y1="90" x2="212.3" y2="250" stroke="#b9461a" stroke-dasharray="3 3"/>
<line x1="75" y1="250" x2="377" y2="250" stroke="#444"/>
<line x1="75" y1="90" x2="75" y2="250" stroke="#444"/>
<line x1="88.7" y1="250" x2="88.7" y2="253" stroke="#444"/>
<text x="88.7" y="265" text-anchor="middle" fill="#444">-5</text>
<line x1="116.2" y1="250" x2="116.2" y2="253" stroke="#444"/>
<text x="116.2" y="265" text-anchor="middle" fill="#444">-4</text>
<line x1="143.6" y1="250" x2="143.6" y2="253" stroke="#444"/>
<text x="143.6" y="265" text-anchor="middle" fill="#444">-3</text>
<line x1="171.1" y1="250" x2="171.1" y2="253" stroke="#444"/>
<text x="171.1" y="265" text-anchor="middle" fill="#444">-2</text>
<line x1="226.0" y1="250" x2="226.0" y2="253" stroke="#444"/>
<text x="226.0" y="265" text-anchor="middle" fill="#444">0</text>
<line x1="253.5" y1="250" x2="253.5" y2="253" stroke="#444"/>
<text x="253.5" y="265" text-anchor="middle" fill="#444">1</text>
<line x1="280.9" y1="250" x2="280.9" y2="253" stroke="#444"/>
<text x="280.9" y="265" text-anchor="middle" fill="#444">2</text>
<line x1="308.4" y1="250" x2="308.4" y2="253" stroke="#444"/>
<text x="308.4" y="265" text-anchor="middle" fill="#444">3</text>
<line x1="335.8" y1="250" x2="335.8" y2="253" stroke="#444"/>
<text x="335.8" y="265" text-anchor="middle" fill="#444">4</text>
<line x1="363.3" y1="250" x2="363.3" y2="253" stroke="#444"/>
<text x="363.3" y="265" text-anchor="middle" fill="#444">5</text>
<line x1="72" y1="250.0" x2="75" y2="250.0" stroke="#444"/>
<text x="69" y="253.0" text-anchor="end" fill="#444">-2</text>
<line x1="72" y1="210.0" x2="75" y2="210.0" stroke="#444"/>
<text x="69" y="213.0" text-anchor="end" fill="#444">-1.1</text>
<line x1="72" y1="170.0" x2="75" y2="170.0" stroke="#444"/>
<text x="69" y="173.0" text-anchor="end" fill="#444">-0.19</text>
<line x1="72" y1="130.0" x2="75" y2="130.0" stroke="#444"/>
<text x="69" y="133.0" text-anchor="end" fill="#444">0.7</text>
<line x1="72" y1="90.0" x2="75" y2="90.0" stroke="#444"/>
<text x="69" y="93.0" text-anchor="end" fill="#444">1.6</text>
<text x="226.0" y="284" text-anchor="middle" fill="#444">Event time (years from adoption)</text>
<text x="27" y="170.0" text-anchor="middle" fill="#444" transform="rotate(-90 27 170.0)">ATT (per 100k)</text>
<rect x="425" y="40" width="380" height="260" fill="#fafaf7" stroke="#e2e2dc"/>
<text x="615.0" y="58" text-anchor="middle" font-weight="600">Non-firearm suicide rate (per 100k) [substitution test]</text>
<line x1="485" y1="197.7925215508767" x2="787" y2="197.7925215508767" stroke="#aaaaaa" stroke-width="0.7"/>
<polygon points="498.7,165.0 526.2,105.1 553.6,178.9 581.1,116.7 636.0,132.4 663.5,90.0 690.9,194.5 718.4,163.2 745.8,114.1 773.3,131.5 773.3,235.2 745.8,177.6 718.4,247.0 690.9,250.0 663.5,204.8 636.0,205.6 581.1,171.0 553.6,237.7 526.2,212.6 498.7,231.8" fill="#1f3a5f" opacity="0.18"/>
<polyline points="498.7,198.4 526.2,158.8 553.6,208.3 581.1,143.8 636.0,169.0 663.5,147.4 690.9,222.2 718.4,205.1 745.8,145.8 773.3,183.4" fill="none" stroke="#1f3a5f" stroke-width="1.6"/>
<circle cx="498.7" cy="198.4" r="2.6" fill="#1f3a5f"/>
<circle cx="526.2" cy="158.8" r="2.6" fill="#1f3a5f"/>
<circle cx="553.6" cy="208.3" r="2.6" fill="#1f3a5f"/>
<circle cx="581.1" cy="143.8" r="2.6" fill="#1f3a5f"/>
<circle cx="636.0" cy="169.0" r="2.6" fill="#1f3a5f"/>
<circle cx="663.5" cy="147.4" r="2.6" fill="#1f3a5f"/>
<circle cx="690.9" cy="222.2" r="2.6" fill="#1f3a5f"/>
<circle cx="718.4" cy="205.1" r="2.6" fill="#1f3a5f"/>
<circle cx="745.8" cy="145.8" r="2.6" fill="#1f3a5f"/>
<circle cx="773.3" cy="183.4" r="2.6" fill="#1f3a5f"/>
<line x1="622.3" y1="90" x2="622.3" y2="250" stroke="#b9461a" stroke-dasharray="3 3"/>
<line x1="485" y1="250" x2="787" y2="250" stroke="#444"/>
<line x1="485" y1="90" x2="485" y2="250" stroke="#444"/>
<line x1="498.7" y1="250" x2="498.7" y2="253" stroke="#444"/>
<text x="498.7" y="265" text-anchor="middle" fill="#444">-5</text>
<line x1="526.2" y1="250" x2="526.2" y2="253" stroke="#444"/>
<text x="526.2" y="265" text-anchor="middle" fill="#444">-4</text>
<line x1="553.6" y1="250" x2="553.6" y2="253" stroke="#444"/>
<text x="553.6" y="265" text-anchor="middle" fill="#444">-3</text>
<line x1="581.1" y1="250" x2="581.1" y2="253" stroke="#444"/>
<text x="581.1" y="265" text-anchor="middle" fill="#444">-2</text>
<line x1="636.0" y1="250" x2="636.0" y2="253" stroke="#444"/>
<text x="636.0" y="265" text-anchor="middle" fill="#444">0</text>
<line x1="663.5" y1="250" x2="663.5" y2="253" stroke="#444"/>
<text x="663.5" y="265" text-anchor="middle" fill="#444">1</text>
<line x1="690.9" y1="250" x2="690.9" y2="253" stroke="#444"/>
<text x="690.9" y="265" text-anchor="middle" fill="#444">2</text>
<line x1="718.4" y1="250" x2="718.4" y2="253" stroke="#444"/>
<text x="718.4" y="265" text-anchor="middle" fill="#444">3</text>
<line x1="745.8" y1="250" x2="745.8" y2="253" stroke="#444"/>
<text x="745.8" y="265" text-anchor="middle" fill="#444">4</text>
<line x1="773.3" y1="250" x2="773.3" y2="253" stroke="#444"/>
<text x="773.3" y="265" text-anchor="middle" fill="#444">5</text>
<line x1="482" y1="250.0" x2="485" y2="250.0" stroke="#444"/>
<text x="479" y="253.0" text-anchor="end" fill="#444">-0.77</text>
<line x1="482" y1="210.0" x2="485" y2="210.0" stroke="#444"/>
<text x="479" y="213.0" text-anchor="end" fill="#444">-0.18</text>
<line x1="482" y1="170.0" x2="485" y2="170.0" stroke="#444"/>
<text x="479" y="173.0" text-anchor="end" fill="#444">0.41</text>
<line x1="482" y1="130.0" x2="485" y2="130.0" stroke="#444"/>
<text x="479" y="133.0" text-anchor="end" fill="#444">1</text>
<line x1="482" y1="90.0" x2="485" y2="90.0" stroke="#444"/>
<text x="479" y="93.0" text-anchor="end" fill="#444">1.6</text>
<text x="636.0" y="284" text-anchor="middle" fill="#444">Event time (years from adoption)</text>
<text x="437" y="170.0" text-anchor="middle" fill="#444" transform="rotate(-90 437 170.0)">ATT (per 100k)</text>
<rect x="15" y="330" width="380" height="260" fill="#fafaf7" stroke="#e2e2dc"/>
<text x="205.0" y="348" text-anchor="middle" font-weight="600">Total suicide rate (per 100k) [net effect]</text>
<line x1="75" y1="468.0295785581249" x2="377" y2="468.0295785581249" stroke="#aaaaaa" stroke-width="0.7"/>
<polygon points="88.7,461.5 116.2,404.8 143.6,432.0 171.1,411.6 226.0,442.6 253.5,380.0 280.9,454.1 308.4,406.5 335.8,436.5 363.3,410.9 363.3,467.1 335.8,503.6 308.4,481.1 280.9,526.6 253.5,491.2 226.0,502.8 171.1,501.6 143.6,535.0 116.2,481.2 88.7,540.0" fill="#1f3a5f" opacity="0.18"/>
<polyline points="88.7,500.7 116.2,443.0 143.6,483.5 171.1,456.6 226.0,472.7 253.5,435.6 280.9,490.3 308.4,443.8 335.8,470.0 363.3,439.0" fill="none" stroke="#1f3a5f" stroke-width="1.6"/>
<circle cx="88.7" cy="500.7" r="2.6" fill="#1f3a5f"/>
<circle cx="116.2" cy="443.0" r="2.6" fill="#1f3a5f"/>
<circle cx="143.6" cy="483.5" r="2.6" fill="#1f3a5f"/>
<circle cx="171.1" cy="456.6" r="2.6" fill="#1f3a5f"/>
<circle cx="226.0" cy="472.7" r="2.6" fill="#1f3a5f"/>
<circle cx="253.5" cy="435.6" r="2.6" fill="#1f3a5f"/>
<circle cx="280.9" cy="490.3" r="2.6" fill="#1f3a5f"/>
<circle cx="308.4" cy="443.8" r="2.6" fill="#1f3a5f"/>
<circle cx="335.8" cy="470.0" r="2.6" fill="#1f3a5f"/>
<circle cx="363.3" cy="439.0" r="2.6" fill="#1f3a5f"/>
<line x1="212.3" y1="380" x2="212.3" y2="540" stroke="#b9461a" stroke-dasharray="3 3"/>
<line x1="75" y1="540" x2="377" y2="540" stroke="#444"/>
<line x1="75" y1="380" x2="75" y2="540" stroke="#444"/>
<line x1="88.7" y1="540" x2="88.7" y2="543" stroke="#444"/>
<text x="88.7" y="555" text-anchor="middle" fill="#444">-5</text>
<line x1="116.2" y1="540" x2="116.2" y2="543" stroke="#444"/>
<text x="116.2" y="555" text-anchor="middle" fill="#444">-4</text>
<line x1="143.6" y1="540" x2="143.6" y2="543" stroke="#444"/>
<text x="143.6" y="555" text-anchor="middle" fill="#444">-3</text>
<line x1="171.1" y1="540" x2="171.1" y2="543" stroke="#444"/>
<text x="171.1" y="555" text-anchor="middle" fill="#444">-2</text>
<line x1="226.0" y1="540" x2="226.0" y2="543" stroke="#444"/>
<text x="226.0" y="555" text-anchor="middle" fill="#444">0</text>
<line x1="253.5" y1="540" x2="253.5" y2="543" stroke="#444"/>
<text x="253.5" y="555" text-anchor="middle" fill="#444">1</text>
<line x1="280.9" y1="540" x2="280.9" y2="543" stroke="#444"/>
<text x="280.9" y="555" text-anchor="middle" fill="#444">2</text>
<line x1="308.4" y1="540" x2="308.4" y2="543" stroke="#444"/>
<text x="308.4" y="555" text-anchor="middle" fill="#444">3</text>
<line x1="335.8" y1="540" x2="335.8" y2="543" stroke="#444"/>
<text x="335.8" y="555" text-anchor="middle" fill="#444">4</text>
<line x1="363.3" y1="540" x2="363.3" y2="543" stroke="#444"/>
<text x="363.3" y="555" text-anchor="middle" fill="#444">5</text>
<line x1="72" y1="540.0" x2="75" y2="540.0" stroke="#444"/>
<text x="69" y="543.0" text-anchor="end" fill="#444">-2.3</text>
<line x1="72" y1="500.0" x2="75" y2="500.0" stroke="#444"/>
<text x="69" y="503.0" text-anchor="end" fill="#444">-1</text>
<line x1="72" y1="460.0" x2="75" y2="460.0" stroke="#444"/>
<text x="69" y="463.0" text-anchor="end" fill="#444">0.25</text>
<line x1="72" y1="420.0" x2="75" y2="420.0" stroke="#444"/>
<text x="69" y="423.0" text-anchor="end" fill="#444">1.5</text>
<line x1="72" y1="380.0" x2="75" y2="380.0" stroke="#444"/>
<text x="69" y="383.0" text-anchor="end" fill="#444">2.8</text>
<text x="226.0" y="574" text-anchor="middle" fill="#444">Event time (years from adoption)</text>
<text x="27" y="460.0" text-anchor="middle" fill="#444" transform="rotate(-90 27 460.0)">ATT (per 100k)</text>
<rect x="425" y="330" width="380" height="260" fill="#fafaf7" stroke="#e2e2dc"/>
<text x="615.0" y="348" text-anchor="middle" font-weight="600">Firearm homicide rate (per 100k)</text>
<line x1="485" y1="415.95871707420787" x2="787" y2="415.95871707420787" stroke="#aaaaaa" stroke-width="0.7"/>
<polygon points="498.7,426.0 526.2,380.0 553.6,392.8 581.1,409.6 636.0,417.7 663.5,540.0 690.9,511.0 718.4,416.0 745.8,516.6 773.3,480.0 773.3,480.0 745.8,516.6 718.4,416.0 690.9,511.0 663.5,540.0 636.0,417.7 581.1,409.6 553.6,392.8 526.2,380.0 498.7,426.0" fill="#1f3a5f" opacity="0.18"/>
<polyline points="498.7,426.0 526.2,380.0 553.6,392.8 581.1,409.6 636.0,417.7 663.5,540.0 690.9,511.0 718.4,416.0 745.8,516.6 773.3,480.0" fill="none" stroke="#1f3a5f" stroke-width="1.6"/>
<circle cx="498.7" cy="426.0" r="2.6" fill="#1f3a5f"/>
<circle cx="526.2" cy="380.0" r="2.6" fill="#1f3a5f"/>
<circle cx="553.6" cy="392.8" r="2.6" fill="#1f3a5f"/>
<circle cx="581.1" cy="409.6" r="2.6" fill="#1f3a5f"/>
<circle cx="636.0" cy="417.7" r="2.6" fill="#1f3a5f"/>
<circle cx="663.5" cy="540.0" r="2.6" fill="#1f3a5f"/>
<circle cx="690.9" cy="511.0" r="2.6" fill="#1f3a5f"/>
<circle cx="718.4" cy="416.0" r="2.6" fill="#1f3a5f"/>
<circle cx="745.8" cy="516.6" r="2.6" fill="#1f3a5f"/>
<circle cx="773.3" cy="480.0" r="2.6" fill="#1f3a5f"/>
<line x1="622.3" y1="380" x2="622.3" y2="540" stroke="#b9461a" stroke-dasharray="3 3"/>
<line x1="485" y1="540" x2="787" y2="540" stroke="#444"/>
<line x1="485" y1="380" x2="485" y2="540" stroke="#444"/>
<line x1="498.7" y1="540" x2="498.7" y2="543" stroke="#444"/>
<text x="498.7" y="555" text-anchor="middle" fill="#444">-5</text>
<line x1="526.2" y1="540" x2="526.2" y2="543" stroke="#444"/>
<text x="526.2" y="555" text-anchor="middle" fill="#444">-4</text>
<line x1="553.6" y1="540" x2="553.6" y2="543" stroke="#444"/>
<text x="553.6" y="555" text-anchor="middle" fill="#444">-3</text>
<line x1="581.1" y1="540" x2="581.1" y2="543" stroke="#444"/>
<text x="581.1" y="555" text-anchor="middle" fill="#444">-2</text>
<line x1="636.0" y1="540" x2="636.0" y2="543" stroke="#444"/>
<text x="636.0" y="555" text-anchor="middle" fill="#444">0</text>
<line x1="663.5" y1="540" x2="663.5" y2="543" stroke="#444"/>
<text x="663.5" y="555" text-anchor="middle" fill="#444">1</text>
<line x1="690.9" y1="540" x2="690.9" y2="543" stroke="#444"/>
<text x="690.9" y="555" text-anchor="middle" fill="#444">2</text>
<line x1="718.4" y1="540" x2="718.4" y2="543" stroke="#444"/>
<text x="718.4" y="555" text-anchor="middle" fill="#444">3</text>
<line x1="745.8" y1="540" x2="745.8" y2="543" stroke="#444"/>
<text x="745.8" y="555" text-anchor="middle" fill="#444">4</text>
<line x1="773.3" y1="540" x2="773.3" y2="543" stroke="#444"/>
<text x="773.3" y="555" text-anchor="middle" fill="#444">5</text>
<line x1="482" y1="540.0" x2="485" y2="540.0" stroke="#444"/>
<text x="479" y="543.0" text-anchor="end" fill="#444">-1.7</text>
<line x1="482" y1="500.0" x2="485" y2="500.0" stroke="#444"/>
<text x="479" y="503.0" text-anchor="end" fill="#444">-1.2</text>
<line x1="482" y1="460.0" x2="485" y2="460.0" stroke="#444"/>
<text x="479" y="463.0" text-anchor="end" fill="#444">-0.61</text>
<line x1="482" y1="420.0" x2="485" y2="420.0" stroke="#444"/>
<text x="479" y="423.0" text-anchor="end" fill="#444">-0.056</text>
<line x1="482" y1="380.0" x2="485" y2="380.0" stroke="#444"/>
<text x="479" y="383.0" text-anchor="end" fill="#444">0.5</text>
<text x="636.0" y="574" text-anchor="middle" fill="#444">Event time (years from adoption)</text>
<text x="437" y="460.0" text-anchor="middle" fill="#444" transform="rotate(-90 437 460.0)">ATT (per 100k)</text>
<rect x="15" y="620" width="380" height="260" fill="#fafaf7" stroke="#e2e2dc"/>
<text x="205.0" y="638" text-anchor="middle" font-weight="600">Total homicide rate (per 100k)</text>
<line x1="75" y1="670.0" x2="377" y2="670.0" stroke="#aaaaaa" stroke-width="0.7"/>
<polygon points="88.7,758.4 116.2,757.9 143.6,789.9 171.1,722.9 226.0,747.1 253.5,830.0 280.9,747.2 308.4,777.6 335.8,735.5 363.3,754.1 363.3,754.1 335.8,735.5 308.4,777.6 280.9,747.2 253.5,830.0 226.0,747.1 171.1,722.9 143.6,789.9 116.2,757.9 88.7,758.4" fill="#1f3a5f" opacity="0.18"/>
<polyline points="88.7,758.4 116.2,757.9 143.6,789.9 171.1,722.9 226.0,747.1 253.5,830.0 280.9,747.2 308.4,777.6 335.8,735.5 363.3,754.1" fill="none" stroke="#1f3a5f" stroke-width="1.6"/>
<circle cx="88.7" cy="758.4" r="2.6" fill="#1f3a5f"/>
<circle cx="116.2" cy="757.9" r="2.6" fill="#1f3a5f"/>
<circle cx="143.6" cy="789.9" r="2.6" fill="#1f3a5f"/>
<circle cx="171.1" cy="722.9" r="2.6" fill="#1f3a5f"/>
<circle cx="226.0" cy="747.1" r="2.6" fill="#1f3a5f"/>
<circle cx="253.5" cy="830.0" r="2.6" fill="#1f3a5f"/>
<circle cx="280.9" cy="747.2" r="2.6" fill="#1f3a5f"/>
<circle cx="308.4" cy="777.6" r="2.6" fill="#1f3a5f"/>
<circle cx="335.8" cy="735.5" r="2.6" fill="#1f3a5f"/>
<circle cx="363.3" cy="754.1" r="2.6" fill="#1f3a5f"/>
<line x1="212.3" y1="670" x2="212.3" y2="830" stroke="#b9461a" stroke-dasharray="3 3"/>
<line x1="75" y1="830" x2="377" y2="830" stroke="#444"/>
<line x1="75" y1="670" x2="75" y2="830" stroke="#444"/>
<line x1="88.7" y1="830" x2="88.7" y2="833" stroke="#444"/>
<text x="88.7" y="845" text-anchor="middle" fill="#444">-5</text>
<line x1="116.2" y1="830" x2="116.2" y2="833" stroke="#444"/>
<text x="116.2" y="845" text-anchor="middle" fill="#444">-4</text>
<line x1="143.6" y1="830" x2="143.6" y2="833" stroke="#444"/>
<text x="143.6" y="845" text-anchor="middle" fill="#444">-3</text>
<line x1="171.1" y1="830" x2="171.1" y2="833" stroke="#444"/>
<text x="171.1" y="845" text-anchor="middle" fill="#444">-2</text>
<line x1="226.0" y1="830" x2="226.0" y2="833" stroke="#444"/>
<text x="226.0" y="845" text-anchor="middle" fill="#444">0</text>
<line x1="253.5" y1="830" x2="253.5" y2="833" stroke="#444"/>
<text x="253.5" y="845" text-anchor="middle" fill="#444">1</text>
<line x1="280.9" y1="830" x2="280.9" y2="833" stroke="#444"/>
<text x="280.9" y="845" text-anchor="middle" fill="#444">2</text>
<line x1="308.4" y1="830" x2="308.4" y2="833" stroke="#444"/>
<text x="308.4" y="845" text-anchor="middle" fill="#444">3</text>
<line x1="335.8" y1="830" x2="335.8" y2="833" stroke="#444"/>
<text x="335.8" y="845" text-anchor="middle" fill="#444">4</text>
<line x1="363.3" y1="830" x2="363.3" y2="833" stroke="#444"/>
<text x="363.3" y="845" text-anchor="middle" fill="#444">5</text>
<line x1="72" y1="830.0" x2="75" y2="830.0" stroke="#444"/>
<text x="69" y="833.0" text-anchor="end" fill="#444">-3.1</text>
<line x1="72" y1="790.0" x2="75" y2="790.0" stroke="#444"/>
<text x="69" y="793.0" text-anchor="end" fill="#444">-2.3</text>
<line x1="72" y1="750.0" x2="75" y2="750.0" stroke="#444"/>
<text x="69" y="753.0" text-anchor="end" fill="#444">-1.5</text>
<line x1="72" y1="710.0" x2="75" y2="710.0" stroke="#444"/>
<text x="69" y="713.0" text-anchor="end" fill="#444">-0.77</text>
<line x1="72" y1="670.0" x2="75" y2="670.0" stroke="#444"/>
<text x="69" y="673.0" text-anchor="end" fill="#444">0</text>
<text x="226.0" y="864" text-anchor="middle" fill="#444">Event time (years from adoption)</text>
<text x="27" y="750.0" text-anchor="middle" fill="#444" transform="rotate(-90 27 750.0)">ATT (per 100k)</text>
<rect x="425" y="620" width="380" height="260" fill="#fafaf7" stroke="#e2e2dc"/>
<text x="615.0" y="638" text-anchor="middle" font-weight="600">Motor vehicle theft rate (per 100k) [placebo]</text>
<line x1="485" y1="817.6874444161602" x2="787" y2="817.6874444161602" stroke="#aaaaaa" stroke-width="0.7"/>
<polygon points="498.7,761.6 526.2,776.2 553.6,804.4 581.1,830.0 636.0,817.6 663.5,804.0 690.9,826.5 718.4,792.9 745.8,734.6 773.3,670.0 773.3,670.0 745.8,734.6 718.4,792.9 690.9,826.5 663.5,804.0 636.0,817.6 581.1,830.0 553.6,804.4 526.2,776.2 498.7,761.6" fill="#1f3a5f" opacity="0.18"/>
<polyline points="498.7,761.6 526.2,776.2 553.6,804.4 581.1,830.0 636.0,817.6 663.5,804.0 690.9,826.5 718.4,792.9 745.8,734.6 773.3,670.0" fill="none" stroke="#1f3a5f" stroke-width="1.6"/>
<circle cx="498.7" cy="761.6" r="2.6" fill="#1f3a5f"/>
<circle cx="526.2" cy="776.2" r="2.6" fill="#1f3a5f"/>
<circle cx="553.6" cy="804.4" r="2.6" fill="#1f3a5f"/>
<circle cx="581.1" cy="830.0" r="2.6" fill="#1f3a5f"/>
<circle cx="636.0" cy="817.6" r="2.6" fill="#1f3a5f"/>
<circle cx="663.5" cy="804.0" r="2.6" fill="#1f3a5f"/>
<circle cx="690.9" cy="826.5" r="2.6" fill="#1f3a5f"/>
<circle cx="718.4" cy="792.9" r="2.6" fill="#1f3a5f"/>
<circle cx="745.8" cy="734.6" r="2.6" fill="#1f3a5f"/>
<circle cx="773.3" cy="670.0" r="2.6" fill="#1f3a5f"/>
<line x1="622.3" y1="670" x2="622.3" y2="830" stroke="#b9461a" stroke-dasharray="3 3"/>
<line x1="485" y1="830" x2="787" y2="830" stroke="#444"/>
<line x1="485" y1="670" x2="485" y2="830" stroke="#444"/>
<line x1="498.7" y1="830" x2="498.7" y2="833" stroke="#444"/>
<text x="498.7" y="845" text-anchor="middle" fill="#444">-5</text>
<line x1="526.2" y1="830" x2="526.2" y2="833" stroke="#444"/>
<text x="526.2" y="845" text-anchor="middle" fill="#444">-4</text>
<line x1="553.6" y1="830" x2="553.6" y2="833" stroke="#444"/>
<text x="553.6" y="845" text-anchor="middle" fill="#444">-3</text>
<line x1="581.1" y1="830" x2="581.1" y2="833" stroke="#444"/>
<text x="581.1" y="845" text-anchor="middle" fill="#444">-2</text>
<line x1="636.0" y1="830" x2="636.0" y2="833" stroke="#444"/>
<text x="636.0" y="845" text-anchor="middle" fill="#444">0</text>
<line x1="663.5" y1="830" x2="663.5" y2="833" stroke="#444"/>
<text x="663.5" y="845" text-anchor="middle" fill="#444">1</text>
<line x1="690.9" y1="830" x2="690.9" y2="833" stroke="#444"/>
<text x="690.9" y="845" text-anchor="middle" fill="#444">2</text>
<line x1="718.4" y1="830" x2="718.4" y2="833" stroke="#444"/>
<text x="718.4" y="845" text-anchor="middle" fill="#444">3</text>
<line x1="745.8" y1="830" x2="745.8" y2="833" stroke="#444"/>
<text x="745.8" y="845" text-anchor="middle" fill="#444">4</text>
<line x1="773.3" y1="830" x2="773.3" y2="833" stroke="#444"/>
<text x="773.3" y="845" text-anchor="middle" fill="#444">5</text>
<line x1="482" y1="830.0" x2="485" y2="830.0" stroke="#444"/>
<text x="479" y="833.0" text-anchor="end" fill="#444">-14</text>
<line x1="482" y1="790.0" x2="485" y2="790.0" stroke="#444"/>
<text x="479" y="793.0" text-anchor="end" fill="#444">31</text>
<line x1="482" y1="750.0" x2="485" y2="750.0" stroke="#444"/>
<text x="479" y="753.0" text-anchor="end" fill="#444">76</text>
<line x1="482" y1="710.0" x2="485" y2="710.0" stroke="#444"/>
<text x="479" y="713.0" text-anchor="end" fill="#444">1.2e+02</text>
<line x1="482" y1="670.0" x2="485" y2="670.0" stroke="#444"/>
<text x="479" y="673.0" text-anchor="end" fill="#444">1.7e+02</text>
<text x="636.0" y="864" text-anchor="middle" fill="#444">Event time (years from adoption)</text>
<text x="437" y="750.0" text-anchor="middle" fill="#444" transform="rotate(-90 437 750.0)">ATT (per 100k)</text>
<text x="805" y="608" text-anchor="end" fill="#888" font-size="10">Shaded band: pointwise 95% CI from cluster bootstrap. Vertical dashed line marks the year before adoption.</text>
</svg>