<svg xmlns="http://www.w3.org/2000/svg" viewBox="0 0 820 620" font-family="-apple-system, Segoe UI, Helvetica, Arial, sans-serif" font-size="11">
<text x="410.0" y="22" text-anchor="middle" font-size="14" font-weight="600">Callaway-Sant'Anna ATT by event time (OR) -- magazine ban (Tufts magazine)</text>
<rect x="15" y="40" width="380" height="260" fill="#fafaf7" stroke="#e2e2dc"/>
<text x="205.0" y="58" text-anchor="middle" font-weight="600">Firearm suicide rate (per 100k)</text>
<line x1="75" y1="159.8058179796299" x2="377" y2="159.8058179796299" stroke="#aaaaaa" stroke-width="0.7"/>
<polygon points="88.7,90.0 116.2,117.3 143.6,97.7 171.1,109.3 226.0,139.8 253.5,118.3 280.9,158.1 308.4,129.0 335.8,202.8 363.3,149.9 363.3,218.5 335.8,250.0 308.4,196.4 280.9,192.8 253.5,176.0 226.0,203.4 171.1,186.8 143.6,226.5 116.2,182.1 88.7,215.3" fill="#1f3a5f" opacity="0.18"/>
<polyline points="88.7,152.7 116.2,149.7 143.6,162.1 171.1,148.0 226.0,171.6 253.5,147.1 280.9,175.5 308.4,162.7 335.8,226.4 363.3,184.2" fill="none" stroke="#1f3a5f" stroke-width="1.6"/>
<circle cx="88.7" cy="152.7" r="2.6" fill="#1f3a5f"/>
<circle cx="116.2" cy="149.7" r="2.6" fill="#1f3a5f"/>
<circle cx="143.6" cy="162.1" r="2.6" fill="#1f3a5f"/>
<circle cx="171.1" cy="148.0" r="2.6" fill="#1f3a5f"/>
<circle cx="226.0" cy="171.6" r="2.6" fill="#1f3a5f"/>
<circle cx="253.5" cy="147.1" r="2.6" fill="#1f3a5f"/>
<circle cx="280.9" cy="175.5" r="2.6" fill="#1f3a5f"/>
<circle cx="308.4" cy="162.7" r="2.6" fill="#1f3a5f"/>
<circle cx="335.8" cy="226.4" r="2.6" fill="#1f3a5f"/>
<circle cx="363.3" cy="184.2" r="2.6" fill="#1f3a5f"/>
<line x1="212.3" y1="90" x2="212.3" y2="250" stroke="#b9461a" stroke-dasharray="3 3"/>
<line x1="75" y1="250" x2="377" y2="250" stroke="#444"/>
<line x1="75" y1="90" x2="75" y2="250" stroke="#444"/>
<line x1="88.7" y1="250" x2="88.7" y2="253" stroke="#444"/>
<text x="88.7" y="265" text-anchor="middle" fill="#444">-5</text>
<line x1="116.2" y1="250" x2="116.2" y2="253" stroke="#444"/>
<text x="116.2" y="265" text-anchor="middle" fill="#444">-4</text>
<line x1="143.6" y1="250" x2="143.6" y2="253" stroke="#444"/>
<text x="143.6" y="265" text-anchor="middle" fill="#444">-3</text>
<line x1="171.1" y1="250" x2="171.1" y2="253" stroke="#444"/>
<text x="171.1" y="265" text-anchor="middle" fill="#444">-2</text>
<line x1="226.0" y1="250" x2="226.0" y2="253" stroke="#444"/>
<text x="226.0" y="265" text-anchor="middle" fill="#444">0</text>
<line x1="253.5" y1="250" x2="253.5" y2="253" stroke="#444"/>
<text x="253.5" y="265" text-anchor="middle" fill="#444">1</text>
<line x1="280.9" y1="250" x2="280.9" y2="253" stroke="#444"/>
<text x="280.9" y="265" text-anchor="middle" fill="#444">2</text>
<line x1="308.4" y1="250" x2="308.4" y2="253" stroke="#444"/>
<text x="308.4" y="265" text-anchor="middle" fill="#444">3</text>
<line x1="335.8" y1="250" x2="335.8" y2="253" stroke="#444"/>
<text x="335.8" y="265" text-anchor="middle" fill="#444">4</text>
<line x1="363.3" y1="250" x2="363.3" y2="253" stroke="#444"/>
<text x="363.3" y="265" text-anchor="middle" fill="#444">5</text>
<line x1="72" y1="250.0" x2="75" y2="250.0" stroke="#444"/>
<text x="69" y="253.0" text-anchor="end" fill="#444">-1.2</text>
<line x1="72" y1="210.0" x2="75" y2="210.0" stroke="#444"/>
<text x="69" y="213.0" text-anchor="end" fill="#444">-0.64</text>
<line x1="72" y1="170.0" x2="75" y2="170.0" stroke="#444"/>
<text x="69" y="173.0" text-anchor="end" fill="#444">-0.13</text>
<line x1="72" y1="130.0" x2="75" y2="130.0" stroke="#444"/>
<text x="69" y="133.0" text-anchor="end" fill="#444">0.38</text>
<line x1="72" y1="90.0" x2="75" y2="90.0" stroke="#444"/>
<text x="69" y="93.0" text-anchor="end" fill="#444">0.9</text>
<text x="226.0" y="284" text-anchor="middle" fill="#444">Event time (years from adoption)</text>
<text x="27" y="170.0" text-anchor="middle" fill="#444" transform="rotate(-90 27 170.0)">ATT (per 100k)</text>
<rect x="425" y="40" width="380" height="260" fill="#fafaf7" stroke="#e2e2dc"/>
<text x="615.0" y="58" text-anchor="middle" font-weight="600">Non-firearm suicide rate (per 100k) [substitution test]</text>
<line x1="485" y1="200.9595753000463" x2="787" y2="200.9595753000463" stroke="#aaaaaa" stroke-width="0.7"/>
<polygon points="498.7,158.3 526.2,146.0 553.6,193.3 581.1,177.1 636.0,133.9 663.5,177.5 690.9,187.2 718.4,90.0 745.8,148.7 773.3,135.3 773.3,178.7 745.8,204.3 718.4,160.5 690.9,235.7 663.5,231.5 636.0,230.4 581.1,250.0 553.6,239.7 526.2,196.6 498.7,206.5" fill="#1f3a5f" opacity="0.18"/>
<polyline points="498.7,182.4 526.2,171.3 553.6,216.5 581.1,213.5 636.0,182.2 663.5,204.5 690.9,211.4 718.4,125.2 745.8,176.5 773.3,157.0" fill="none" stroke="#1f3a5f" stroke-width="1.6"/>
<circle cx="498.7" cy="182.4" r="2.6" fill="#1f3a5f"/>
<circle cx="526.2" cy="171.3" r="2.6" fill="#1f3a5f"/>
<circle cx="553.6" cy="216.5" r="2.6" fill="#1f3a5f"/>
<circle cx="581.1" cy="213.5" r="2.6" fill="#1f3a5f"/>
<circle cx="636.0" cy="182.2" r="2.6" fill="#1f3a5f"/>
<circle cx="663.5" cy="204.5" r="2.6" fill="#1f3a5f"/>
<circle cx="690.9" cy="211.4" r="2.6" fill="#1f3a5f"/>
<circle cx="718.4" cy="125.2" r="2.6" fill="#1f3a5f"/>
<circle cx="745.8" cy="176.5" r="2.6" fill="#1f3a5f"/>
<circle cx="773.3" cy="157.0" r="2.6" fill="#1f3a5f"/>
<line x1="622.3" y1="90" x2="622.3" y2="250" stroke="#b9461a" stroke-dasharray="3 3"/>
<line x1="485" y1="250" x2="787" y2="250" stroke="#444"/>
<line x1="485" y1="90" x2="485" y2="250" stroke="#444"/>
<line x1="498.7" y1="250" x2="498.7" y2="253" stroke="#444"/>
<text x="498.7" y="265" text-anchor="middle" fill="#444">-5</text>
<line x1="526.2" y1="250" x2="526.2" y2="253" stroke="#444"/>
<text x="526.2" y="265" text-anchor="middle" fill="#444">-4</text>
<line x1="553.6" y1="250" x2="553.6" y2="253" stroke="#444"/>
<text x="553.6" y="265" text-anchor="middle" fill="#444">-3</text>
<line x1="581.1" y1="250" x2="581.1" y2="253" stroke="#444"/>
<text x="581.1" y="265" text-anchor="middle" fill="#444">-2</text>
<line x1="636.0" y1="250" x2="636.0" y2="253" stroke="#444"/>
<text x="636.0" y="265" text-anchor="middle" fill="#444">0</text>
<line x1="663.5" y1="250" x2="663.5" y2="253" stroke="#444"/>
<text x="663.5" y="265" text-anchor="middle" fill="#444">1</text>
<line x1="690.9" y1="250" x2="690.9" y2="253" stroke="#444"/>
<text x="690.9" y="265" text-anchor="middle" fill="#444">2</text>
<line x1="718.4" y1="250" x2="718.4" y2="253" stroke="#444"/>
<text x="718.4" y="265" text-anchor="middle" fill="#444">3</text>
<line x1="745.8" y1="250" x2="745.8" y2="253" stroke="#444"/>
<text x="745.8" y="265" text-anchor="middle" fill="#444">4</text>
<line x1="773.3" y1="250" x2="773.3" y2="253" stroke="#444"/>
<text x="773.3" y="265" text-anchor="middle" fill="#444">5</text>
<line x1="482" y1="250.0" x2="485" y2="250.0" stroke="#444"/>
<text x="479" y="253.0" text-anchor="end" fill="#444">-0.61</text>
<line x1="482" y1="210.0" x2="485" y2="210.0" stroke="#444"/>
<text x="479" y="213.0" text-anchor="end" fill="#444">-0.11</text>
<line x1="482" y1="170.0" x2="485" y2="170.0" stroke="#444"/>
<text x="479" y="173.0" text-anchor="end" fill="#444">0.38</text>
<line x1="482" y1="130.0" x2="485" y2="130.0" stroke="#444"/>
<text x="479" y="133.0" text-anchor="end" fill="#444">0.88</text>
<line x1="482" y1="90.0" x2="485" y2="90.0" stroke="#444"/>
<text x="479" y="93.0" text-anchor="end" fill="#444">1.4</text>
<text x="636.0" y="284" text-anchor="middle" fill="#444">Event time (years from adoption)</text>
<text x="437" y="170.0" text-anchor="middle" fill="#444" transform="rotate(-90 437 170.0)">ATT (per 100k)</text>
<rect x="15" y="330" width="380" height="260" fill="#fafaf7" stroke="#e2e2dc"/>
<text x="205.0" y="348" text-anchor="middle" font-weight="600">Total suicide rate (per 100k) [net effect]</text>
<line x1="75" y1="466.0597195926187" x2="377" y2="466.0597195926187" stroke="#aaaaaa" stroke-width="0.7"/>
<polygon points="88.7,380.0 116.2,393.9 143.6,420.8 171.1,424.6 226.0,433.2 253.5,431.7 280.9,459.6 308.4,385.9 335.8,477.5 363.3,418.8 363.3,483.5 335.8,526.3 308.4,429.5 280.9,515.4 253.5,485.0 226.0,488.4 171.1,508.1 143.6,540.0 116.2,473.8 88.7,510.4" fill="#1f3a5f" opacity="0.18"/>
<polyline points="88.7,445.2 116.2,433.8 143.6,480.4 171.1,466.4 226.0,460.8 253.5,458.3 280.9,487.5 308.4,407.7 335.8,501.9 363.3,451.1" fill="none" stroke="#1f3a5f" stroke-width="1.6"/>
<circle cx="88.7" cy="445.2" r="2.6" fill="#1f3a5f"/>
<circle cx="116.2" cy="433.8" r="2.6" fill="#1f3a5f"/>
<circle cx="143.6" cy="480.4" r="2.6" fill="#1f3a5f"/>
<circle cx="171.1" cy="466.4" r="2.6" fill="#1f3a5f"/>
<circle cx="226.0" cy="460.8" r="2.6" fill="#1f3a5f"/>
<circle cx="253.5" cy="458.3" r="2.6" fill="#1f3a5f"/>
<circle cx="280.9" cy="487.5" r="2.6" fill="#1f3a5f"/>
<circle cx="308.4" cy="407.7" r="2.6" fill="#1f3a5f"/>
<circle cx="335.8" cy="501.9" r="2.6" fill="#1f3a5f"/>
<circle cx="363.3" cy="451.1" r="2.6" fill="#1f3a5f"/>
<line x1="212.3" y1="380" x2="212.3" y2="540" stroke="#b9461a" stroke-dasharray="3 3"/>
<line x1="75" y1="540" x2="377" y2="540" stroke="#444"/>
<line x1="75" y1="380" x2="75" y2="540" stroke="#444"/>
<line x1="88.7" y1="540" x2="88.7" y2="543" stroke="#444"/>
<text x="88.7" y="555" text-anchor="middle" fill="#444">-5</text>
<line x1="116.2" y1="540" x2="116.2" y2="543" stroke="#444"/>
<text x="116.2" y="555" text-anchor="middle" fill="#444">-4</text>
<line x1="143.6" y1="540" x2="143.6" y2="543" stroke="#444"/>
<text x="143.6" y="555" text-anchor="middle" fill="#444">-3</text>
<line x1="171.1" y1="540" x2="171.1" y2="543" stroke="#444"/>
<text x="171.1" y="555" text-anchor="middle" fill="#444">-2</text>
<line x1="226.0" y1="540" x2="226.0" y2="543" stroke="#444"/>
<text x="226.0" y="555" text-anchor="middle" fill="#444">0</text>
<line x1="253.5" y1="540" x2="253.5" y2="543" stroke="#444"/>
<text x="253.5" y="555" text-anchor="middle" fill="#444">1</text>
<line x1="280.9" y1="540" x2="280.9" y2="543" stroke="#444"/>
<text x="280.9" y="555" text-anchor="middle" fill="#444">2</text>
<line x1="308.4" y1="540" x2="308.4" y2="543" stroke="#444"/>
<text x="308.4" y="555" text-anchor="middle" fill="#444">3</text>
<line x1="335.8" y1="540" x2="335.8" y2="543" stroke="#444"/>
<text x="335.8" y="555" text-anchor="middle" fill="#444">4</text>
<line x1="363.3" y1="540" x2="363.3" y2="543" stroke="#444"/>
<text x="363.3" y="555" text-anchor="middle" fill="#444">5</text>
<line x1="72" y1="540.0" x2="75" y2="540.0" stroke="#444"/>
<text x="69" y="543.0" text-anchor="end" fill="#444">-1.1</text>
<line x1="72" y1="500.0" x2="75" y2="500.0" stroke="#444"/>
<text x="69" y="503.0" text-anchor="end" fill="#444">-0.52</text>
<line x1="72" y1="460.0" x2="75" y2="460.0" stroke="#444"/>
<text x="69" y="463.0" text-anchor="end" fill="#444">0.093</text>
<line x1="72" y1="420.0" x2="75" y2="420.0" stroke="#444"/>
<text x="69" y="423.0" text-anchor="end" fill="#444">0.71</text>
<line x1="72" y1="380.0" x2="75" y2="380.0" stroke="#444"/>
<text x="69" y="383.0" text-anchor="end" fill="#444">1.3</text>
<text x="226.0" y="574" text-anchor="middle" fill="#444">Event time (years from adoption)</text>
<text x="27" y="460.0" text-anchor="middle" fill="#444" transform="rotate(-90 27 460.0)">ATT (per 100k)</text>
<rect x="425" y="330" width="380" height="260" fill="#fafaf7" stroke="#e2e2dc"/>
<text x="615.0" y="348" text-anchor="middle" font-weight="600">Firearm homicide rate (per 100k)</text>
<line x1="485" y1="408.8386735615667" x2="787" y2="408.8386735615667" stroke="#aaaaaa" stroke-width="0.7"/>
<polygon points="498.7,392.4 526.2,385.4 553.6,380.0 581.1,398.1 636.0,399.5 663.5,389.4 690.9,429.7 718.4,401.3 745.8,419.1 773.3,391.4 773.3,500.9 745.8,490.5 718.4,540.0 690.9,479.6 663.5,481.4 636.0,468.3 581.1,411.0 553.6,426.0 526.2,433.3 498.7,423.4" fill="#1f3a5f" opacity="0.18"/>
<polyline points="498.7,407.9 526.2,409.4 553.6,403.0 581.1,404.5 636.0,433.9 663.5,435.4 690.9,454.6 718.4,470.6 745.8,454.8 773.3,446.1" fill="none" stroke="#1f3a5f" stroke-width="1.6"/>
<circle cx="498.7" cy="407.9" r="2.6" fill="#1f3a5f"/>
<circle cx="526.2" cy="409.4" r="2.6" fill="#1f3a5f"/>
<circle cx="553.6" cy="403.0" r="2.6" fill="#1f3a5f"/>
<circle cx="581.1" cy="404.5" r="2.6" fill="#1f3a5f"/>
<circle cx="636.0" cy="433.9" r="2.6" fill="#1f3a5f"/>
<circle cx="663.5" cy="435.4" r="2.6" fill="#1f3a5f"/>
<circle cx="690.9" cy="454.6" r="2.6" fill="#1f3a5f"/>
<circle cx="718.4" cy="470.6" r="2.6" fill="#1f3a5f"/>
<circle cx="745.8" cy="454.8" r="2.6" fill="#1f3a5f"/>
<circle cx="773.3" cy="446.1" r="2.6" fill="#1f3a5f"/>
<line x1="622.3" y1="380" x2="622.3" y2="540" stroke="#b9461a" stroke-dasharray="3 3"/>
<line x1="485" y1="540" x2="787" y2="540" stroke="#444"/>
<line x1="485" y1="380" x2="485" y2="540" stroke="#444"/>
<line x1="498.7" y1="540" x2="498.7" y2="543" stroke="#444"/>
<text x="498.7" y="555" text-anchor="middle" fill="#444">-5</text>
<line x1="526.2" y1="540" x2="526.2" y2="543" stroke="#444"/>
<text x="526.2" y="555" text-anchor="middle" fill="#444">-4</text>
<line x1="553.6" y1="540" x2="553.6" y2="543" stroke="#444"/>
<text x="553.6" y="555" text-anchor="middle" fill="#444">-3</text>
<line x1="581.1" y1="540" x2="581.1" y2="543" stroke="#444"/>
<text x="581.1" y="555" text-anchor="middle" fill="#444">-2</text>
<line x1="636.0" y1="540" x2="636.0" y2="543" stroke="#444"/>
<text x="636.0" y="555" text-anchor="middle" fill="#444">0</text>
<line x1="663.5" y1="540" x2="663.5" y2="543" stroke="#444"/>
<text x="663.5" y="555" text-anchor="middle" fill="#444">1</text>
<line x1="690.9" y1="540" x2="690.9" y2="543" stroke="#444"/>
<text x="690.9" y="555" text-anchor="middle" fill="#444">2</text>
<line x1="718.4" y1="540" x2="718.4" y2="543" stroke="#444"/>
<text x="718.4" y="555" text-anchor="middle" fill="#444">3</text>
<line x1="745.8" y1="540" x2="745.8" y2="543" stroke="#444"/>
<text x="745.8" y="555" text-anchor="middle" fill="#444">4</text>
<line x1="773.3" y1="540" x2="773.3" y2="543" stroke="#444"/>
<text x="773.3" y="555" text-anchor="middle" fill="#444">5</text>
<line x1="482" y1="540.0" x2="485" y2="540.0" stroke="#444"/>
<text x="479" y="543.0" text-anchor="end" fill="#444">-3.1</text>
<line x1="482" y1="500.0" x2="485" y2="500.0" stroke="#444"/>
<text x="479" y="503.0" text-anchor="end" fill="#444">-2.2</text>
<line x1="482" y1="460.0" x2="485" y2="460.0" stroke="#444"/>
<text x="479" y="463.0" text-anchor="end" fill="#444">-1.2</text>
<line x1="482" y1="420.0" x2="485" y2="420.0" stroke="#444"/>
<text x="479" y="423.0" text-anchor="end" fill="#444">-0.27</text>
<line x1="482" y1="380.0" x2="485" y2="380.0" stroke="#444"/>
<text x="479" y="383.0" text-anchor="end" fill="#444">0.69</text>
<text x="636.0" y="574" text-anchor="middle" fill="#444">Event time (years from adoption)</text>
<text x="437" y="460.0" text-anchor="middle" fill="#444" transform="rotate(-90 437 460.0)">ATT (per 100k)</text>
<rect x="15" y="620" width="380" height="260" fill="#fafaf7" stroke="#e2e2dc"/>
<text x="205.0" y="638" text-anchor="middle" font-weight="600">Total homicide rate (per 100k)</text>
<line x1="75" y1="701.3108717327417" x2="377" y2="701.3108717327417" stroke="#aaaaaa" stroke-width="0.7"/>
<polygon points="88.7,682.4 116.2,683.1 143.6,670.0 171.1,687.8 226.0,694.6 253.5,675.8 280.9,731.3 308.4,748.9 335.8,694.7 363.3,692.3 363.3,781.3 335.8,768.3 308.4,829.3 280.9,755.2 253.5,830.0 226.0,819.8 171.1,738.9 143.6,767.1 116.2,773.0 88.7,761.8" fill="#1f3a5f" opacity="0.18"/>
<polyline points="88.7,722.1 116.2,728.1 143.6,718.6 171.1,713.3 226.0,757.2 253.5,752.9 280.9,743.2 308.4,789.1 335.8,731.5 363.3,736.8" fill="none" stroke="#1f3a5f" stroke-width="1.6"/>
<circle cx="88.7" cy="722.1" r="2.6" fill="#1f3a5f"/>
<circle cx="116.2" cy="728.1" r="2.6" fill="#1f3a5f"/>
<circle cx="143.6" cy="718.6" r="2.6" fill="#1f3a5f"/>
<circle cx="171.1" cy="713.3" r="2.6" fill="#1f3a5f"/>
<circle cx="226.0" cy="757.2" r="2.6" fill="#1f3a5f"/>
<circle cx="253.5" cy="752.9" r="2.6" fill="#1f3a5f"/>
<circle cx="280.9" cy="743.2" r="2.6" fill="#1f3a5f"/>
<circle cx="308.4" cy="789.1" r="2.6" fill="#1f3a5f"/>
<circle cx="335.8" cy="731.5" r="2.6" fill="#1f3a5f"/>
<circle cx="363.3" cy="736.8" r="2.6" fill="#1f3a5f"/>
<line x1="212.3" y1="670" x2="212.3" y2="830" stroke="#b9461a" stroke-dasharray="3 3"/>
<line x1="75" y1="830" x2="377" y2="830" stroke="#444"/>
<line x1="75" y1="670" x2="75" y2="830" stroke="#444"/>
<line x1="88.7" y1="830" x2="88.7" y2="833" stroke="#444"/>
<text x="88.7" y="845" text-anchor="middle" fill="#444">-5</text>
<line x1="116.2" y1="830" x2="116.2" y2="833" stroke="#444"/>
<text x="116.2" y="845" text-anchor="middle" fill="#444">-4</text>
<line x1="143.6" y1="830" x2="143.6" y2="833" stroke="#444"/>
<text x="143.6" y="845" text-anchor="middle" fill="#444">-3</text>
<line x1="171.1" y1="830" x2="171.1" y2="833" stroke="#444"/>
<text x="171.1" y="845" text-anchor="middle" fill="#444">-2</text>
<line x1="226.0" y1="830" x2="226.0" y2="833" stroke="#444"/>
<text x="226.0" y="845" text-anchor="middle" fill="#444">0</text>
<line x1="253.5" y1="830" x2="253.5" y2="833" stroke="#444"/>
<text x="253.5" y="845" text-anchor="middle" fill="#444">1</text>
<line x1="280.9" y1="830" x2="280.9" y2="833" stroke="#444"/>
<text x="280.9" y="845" text-anchor="middle" fill="#444">2</text>
<line x1="308.4" y1="830" x2="308.4" y2="833" stroke="#444"/>
<text x="308.4" y="845" text-anchor="middle" fill="#444">3</text>
<line x1="335.8" y1="830" x2="335.8" y2="833" stroke="#444"/>
<text x="335.8" y="845" text-anchor="middle" fill="#444">4</text>
<line x1="363.3" y1="830" x2="363.3" y2="833" stroke="#444"/>
<text x="363.3" y="845" text-anchor="middle" fill="#444">5</text>
<line x1="72" y1="830.0" x2="75" y2="830.0" stroke="#444"/>
<text x="69" y="833.0" text-anchor="end" fill="#444">-2.4</text>
<line x1="72" y1="790.0" x2="75" y2="790.0" stroke="#444"/>
<text x="69" y="793.0" text-anchor="end" fill="#444">-1.6</text>
<line x1="72" y1="750.0" x2="75" y2="750.0" stroke="#444"/>
<text x="69" y="753.0" text-anchor="end" fill="#444">-0.9</text>
<line x1="72" y1="710.0" x2="75" y2="710.0" stroke="#444"/>
<text x="69" y="713.0" text-anchor="end" fill="#444">-0.16</text>
<line x1="72" y1="670.0" x2="75" y2="670.0" stroke="#444"/>
<text x="69" y="673.0" text-anchor="end" fill="#444">0.58</text>
<text x="226.0" y="864" text-anchor="middle" fill="#444">Event time (years from adoption)</text>
<text x="27" y="750.0" text-anchor="middle" fill="#444" transform="rotate(-90 27 750.0)">ATT (per 100k)</text>
<rect x="425" y="620" width="380" height="260" fill="#fafaf7" stroke="#e2e2dc"/>
<text x="615.0" y="638" text-anchor="middle" font-weight="600">Motor vehicle theft rate (per 100k) [placebo]</text>
<line x1="485" y1="776.7119206414039" x2="787" y2="776.7119206414039" stroke="#aaaaaa" stroke-width="0.7"/>
<polygon points="498.7,781.7 526.2,775.4 553.6,772.3 581.1,781.3 636.0,705.5 663.5,682.7 690.9,732.8 718.4,695.4 745.8,670.0 773.3,675.2 773.3,800.2 745.8,793.7 718.4,794.0 690.9,790.6 663.5,791.2 636.0,782.6 581.1,828.8 553.6,830.0 526.2,816.6 498.7,816.0" fill="#1f3a5f" opacity="0.18"/>
<polyline points="498.7,798.8 526.2,796.0 553.6,801.2 581.1,805.1 636.0,744.1 663.5,736.9 690.9,761.7 718.4,744.7 745.8,731.8 773.3,737.7" fill="none" stroke="#1f3a5f" stroke-width="1.6"/>
<circle cx="498.7" cy="798.8" r="2.6" fill="#1f3a5f"/>
<circle cx="526.2" cy="796.0" r="2.6" fill="#1f3a5f"/>
<circle cx="553.6" cy="801.2" r="2.6" fill="#1f3a5f"/>
<circle cx="581.1" cy="805.1" r="2.6" fill="#1f3a5f"/>
<circle cx="636.0" cy="744.1" r="2.6" fill="#1f3a5f"/>
<circle cx="663.5" cy="736.9" r="2.6" fill="#1f3a5f"/>
<circle cx="690.9" cy="761.7" r="2.6" fill="#1f3a5f"/>
<circle cx="718.4" cy="744.7" r="2.6" fill="#1f3a5f"/>
<circle cx="745.8" cy="731.8" r="2.6" fill="#1f3a5f"/>
<circle cx="773.3" cy="737.7" r="2.6" fill="#1f3a5f"/>
<line x1="622.3" y1="670" x2="622.3" y2="830" stroke="#b9461a" stroke-dasharray="3 3"/>
<line x1="485" y1="830" x2="787" y2="830" stroke="#444"/>
<line x1="485" y1="670" x2="485" y2="830" stroke="#444"/>
<line x1="498.7" y1="830" x2="498.7" y2="833" stroke="#444"/>
<text x="498.7" y="845" text-anchor="middle" fill="#444">-5</text>
<line x1="526.2" y1="830" x2="526.2" y2="833" stroke="#444"/>
<text x="526.2" y="845" text-anchor="middle" fill="#444">-4</text>
<line x1="553.6" y1="830" x2="553.6" y2="833" stroke="#444"/>
<text x="553.6" y="845" text-anchor="middle" fill="#444">-3</text>
<line x1="581.1" y1="830" x2="581.1" y2="833" stroke="#444"/>
<text x="581.1" y="845" text-anchor="middle" fill="#444">-2</text>
<line x1="636.0" y1="830" x2="636.0" y2="833" stroke="#444"/>
<text x="636.0" y="845" text-anchor="middle" fill="#444">0</text>
<line x1="663.5" y1="830" x2="663.5" y2="833" stroke="#444"/>
<text x="663.5" y="845" text-anchor="middle" fill="#444">1</text>
<line x1="690.9" y1="830" x2="690.9" y2="833" stroke="#444"/>
<text x="690.9" y="845" text-anchor="middle" fill="#444">2</text>
<line x1="718.4" y1="830" x2="718.4" y2="833" stroke="#444"/>
<text x="718.4" y="845" text-anchor="middle" fill="#444">3</text>
<line x1="745.8" y1="830" x2="745.8" y2="833" stroke="#444"/>
<text x="745.8" y="845" text-anchor="middle" fill="#444">4</text>
<line x1="773.3" y1="830" x2="773.3" y2="833" stroke="#444"/>
<text x="773.3" y="845" text-anchor="middle" fill="#444">5</text>
<line x1="482" y1="830.0" x2="485" y2="830.0" stroke="#444"/>
<text x="479" y="833.0" text-anchor="end" fill="#444">-55</text>
<line x1="482" y1="790.0" x2="485" y2="790.0" stroke="#444"/>
<text x="479" y="793.0" text-anchor="end" fill="#444">-14</text>
<line x1="482" y1="750.0" x2="485" y2="750.0" stroke="#444"/>
<text x="479" y="753.0" text-anchor="end" fill="#444">27</text>
<line x1="482" y1="710.0" x2="485" y2="710.0" stroke="#444"/>
<text x="479" y="713.0" text-anchor="end" fill="#444">68</text>
<line x1="482" y1="670.0" x2="485" y2="670.0" stroke="#444"/>
<text x="479" y="673.0" text-anchor="end" fill="#444">1.1e+02</text>
<text x="636.0" y="864" text-anchor="middle" fill="#444">Event time (years from adoption)</text>
<text x="437" y="750.0" text-anchor="middle" fill="#444" transform="rotate(-90 437 750.0)">ATT (per 100k)</text>
<text x="805" y="608" text-anchor="end" fill="#888" font-size="10">Shaded band: pointwise 95% CI from cluster bootstrap. Vertical dashed line marks the year before adoption.</text>
</svg>