<svg xmlns="http://www.w3.org/2000/svg" viewBox="0 0 820 620" font-family="-apple-system, Segoe UI, Helvetica, Arial, sans-serif" font-size="11">
<text x="410.0" y="22" text-anchor="middle" font-size="14" font-weight="600">Callaway-Sant'Anna ATT by event time (RA) -- magazine ban (Tufts magazine)</text>
<rect x="15" y="40" width="380" height="260" fill="#fafaf7" stroke="#e2e2dc"/>
<text x="205.0" y="58" text-anchor="middle" font-weight="600">Firearm suicide rate (per 100k)</text>
<line x1="75" y1="198.71726825370175" x2="377" y2="198.71726825370175" stroke="#aaaaaa" stroke-width="0.7"/>
<polygon points="88.7,172.7 88.7,172.8 88.7,187.3 116.2,158.6 116.2,190.4 116.2,152.4 143.6,117.1 143.6,111.2 143.6,199.2 171.1,180.2 171.1,150.0 171.1,149.3 226.0,160.5 226.0,157.7 226.0,189.1 253.5,150.4 253.5,153.7 253.5,188.1 280.9,143.4 280.9,158.8 280.9,179.0 308.4,115.9 308.4,138.8 308.4,177.2 335.8,185.6 335.8,90.0 335.8,130.1 363.3,144.6 363.3,155.2 363.3,180.0 363.3,203.2 363.3,194.4 363.3,193.6 335.8,214.5 335.8,205.3 335.8,208.9 308.4,200.2 308.4,195.6 308.4,184.1 280.9,199.4 280.9,234.0 280.9,219.9 253.5,211.9 253.5,223.6 253.5,222.5 226.0,212.2 226.0,229.4 226.0,224.9 171.1,237.9 171.1,233.9 171.1,205.2 143.6,232.4 143.6,227.7 143.6,231.7 116.2,205.3 116.2,221.7 116.2,204.1 88.7,219.4 88.7,244.8 88.7,250.0" fill="#1f3a5f" opacity="0.18"/>
<polyline points="88.7,211.3 88.7,208.8 88.7,203.3 116.2,181.3 116.2,206.1 116.2,178.8 143.6,174.4 143.6,169.5 143.6,215.8 171.1,192.7 171.1,191.9 171.1,193.6 226.0,192.7 226.0,193.6 226.0,200.7 253.5,186.4 253.5,188.7 253.5,200.0 280.9,181.6 280.9,196.4 280.9,189.2 308.4,150.0 308.4,167.2 308.4,188.7 335.8,197.3 335.8,147.7 335.8,172.3 363.3,169.1 363.3,174.8 363.3,191.6" fill="none" stroke="#1f3a5f" stroke-width="1.6"/>
<circle cx="88.7" cy="211.3" r="2.6" fill="#1f3a5f"/>
<circle cx="88.7" cy="208.8" r="2.6" fill="#1f3a5f"/>
<circle cx="88.7" cy="203.3" r="2.6" fill="#1f3a5f"/>
<circle cx="116.2" cy="181.3" r="2.6" fill="#1f3a5f"/>
<circle cx="116.2" cy="206.1" r="2.6" fill="#1f3a5f"/>
<circle cx="116.2" cy="178.8" r="2.6" fill="#1f3a5f"/>
<circle cx="143.6" cy="174.4" r="2.6" fill="#1f3a5f"/>
<circle cx="143.6" cy="169.5" r="2.6" fill="#1f3a5f"/>
<circle cx="143.6" cy="215.8" r="2.6" fill="#1f3a5f"/>
<circle cx="171.1" cy="192.7" r="2.6" fill="#1f3a5f"/>
<circle cx="171.1" cy="191.9" r="2.6" fill="#1f3a5f"/>
<circle cx="171.1" cy="193.6" r="2.6" fill="#1f3a5f"/>
<circle cx="226.0" cy="192.7" r="2.6" fill="#1f3a5f"/>
<circle cx="226.0" cy="193.6" r="2.6" fill="#1f3a5f"/>
<circle cx="226.0" cy="200.7" r="2.6" fill="#1f3a5f"/>
<circle cx="253.5" cy="186.4" r="2.6" fill="#1f3a5f"/>
<circle cx="253.5" cy="188.7" r="2.6" fill="#1f3a5f"/>
<circle cx="253.5" cy="200.0" r="2.6" fill="#1f3a5f"/>
<circle cx="280.9" cy="181.6" r="2.6" fill="#1f3a5f"/>
<circle cx="280.9" cy="196.4" r="2.6" fill="#1f3a5f"/>
<circle cx="280.9" cy="189.2" r="2.6" fill="#1f3a5f"/>
<circle cx="308.4" cy="150.0" r="2.6" fill="#1f3a5f"/>
<circle cx="308.4" cy="167.2" r="2.6" fill="#1f3a5f"/>
<circle cx="308.4" cy="188.7" r="2.6" fill="#1f3a5f"/>
<circle cx="335.8" cy="197.3" r="2.6" fill="#1f3a5f"/>
<circle cx="335.8" cy="147.7" r="2.6" fill="#1f3a5f"/>
<circle cx="335.8" cy="172.3" r="2.6" fill="#1f3a5f"/>
<circle cx="363.3" cy="169.1" r="2.6" fill="#1f3a5f"/>
<circle cx="363.3" cy="174.8" r="2.6" fill="#1f3a5f"/>
<circle cx="363.3" cy="191.6" r="2.6" fill="#1f3a5f"/>
<line x1="212.3" y1="90" x2="212.3" y2="250" stroke="#b9461a" stroke-dasharray="3 3"/>
<line x1="75" y1="250" x2="377" y2="250" stroke="#444"/>
<line x1="75" y1="90" x2="75" y2="250" stroke="#444"/>
<line x1="88.7" y1="250" x2="88.7" y2="253" stroke="#444"/>
<text x="88.7" y="265" text-anchor="middle" fill="#444">-5</text>
<line x1="116.2" y1="250" x2="116.2" y2="253" stroke="#444"/>
<text x="116.2" y="265" text-anchor="middle" fill="#444">-4</text>
<line x1="143.6" y1="250" x2="143.6" y2="253" stroke="#444"/>
<text x="143.6" y="265" text-anchor="middle" fill="#444">-3</text>
<line x1="171.1" y1="250" x2="171.1" y2="253" stroke="#444"/>
<text x="171.1" y="265" text-anchor="middle" fill="#444">-2</text>
<line x1="226.0" y1="250" x2="226.0" y2="253" stroke="#444"/>
<text x="226.0" y="265" text-anchor="middle" fill="#444">0</text>
<line x1="253.5" y1="250" x2="253.5" y2="253" stroke="#444"/>
<text x="253.5" y="265" text-anchor="middle" fill="#444">1</text>
<line x1="280.9" y1="250" x2="280.9" y2="253" stroke="#444"/>
<text x="280.9" y="265" text-anchor="middle" fill="#444">2</text>
<line x1="308.4" y1="250" x2="308.4" y2="253" stroke="#444"/>
<text x="308.4" y="265" text-anchor="middle" fill="#444">3</text>
<line x1="335.8" y1="250" x2="335.8" y2="253" stroke="#444"/>
<text x="335.8" y="265" text-anchor="middle" fill="#444">4</text>
<line x1="363.3" y1="250" x2="363.3" y2="253" stroke="#444"/>
<text x="363.3" y="265" text-anchor="middle" fill="#444">5</text>
<line x1="72" y1="250.0" x2="75" y2="250.0" stroke="#444"/>
<text x="69" y="253.0" text-anchor="end" fill="#444">-2.3</text>
<line x1="72" y1="210.0" x2="75" y2="210.0" stroke="#444"/>
<text x="69" y="213.0" text-anchor="end" fill="#444">-0.5</text>
<line x1="72" y1="170.0" x2="75" y2="170.0" stroke="#444"/>
<text x="69" y="173.0" text-anchor="end" fill="#444">1.3</text>
<line x1="72" y1="130.0" x2="75" y2="130.0" stroke="#444"/>
<text x="69" y="133.0" text-anchor="end" fill="#444">3</text>
<line x1="72" y1="90.0" x2="75" y2="90.0" stroke="#444"/>
<text x="69" y="93.0" text-anchor="end" fill="#444">4.8</text>
<text x="226.0" y="284" text-anchor="middle" fill="#444">Event time (years from adoption)</text>
<text x="27" y="170.0" text-anchor="middle" fill="#444" transform="rotate(-90 27 170.0)">ATT (per 100k)</text>
<rect x="425" y="40" width="380" height="260" fill="#fafaf7" stroke="#e2e2dc"/>
<text x="615.0" y="58" text-anchor="middle" font-weight="600">Non-firearm suicide rate (per 100k) [substitution test]</text>
<line x1="485" y1="181.63928384646076" x2="787" y2="181.63928384646076" stroke="#aaaaaa" stroke-width="0.7"/>
<polygon points="498.7,142.5 498.7,146.4 498.7,178.5 526.2,108.4 526.2,155.8 526.2,138.0 553.6,177.7 553.6,162.8 553.6,186.2 581.1,174.1 581.1,125.6 581.1,108.4 636.0,118.1 636.0,98.2 636.0,157.6 663.5,91.5 663.5,90.0 663.5,163.2 690.9,155.4 690.9,176.1 690.9,154.1 718.4,168.0 718.4,141.6 718.4,131.5 745.8,140.0 745.8,162.7 745.8,141.5 773.3,131.1 773.3,113.9 773.3,111.9 773.3,155.8 773.3,197.1 773.3,203.3 745.8,193.7 745.8,223.7 745.8,168.7 718.4,159.4 718.4,212.3 718.4,227.2 690.9,178.2 690.9,221.5 690.9,203.8 663.5,188.7 663.5,177.1 663.5,180.4 636.0,183.8 636.0,169.9 636.0,176.1 581.1,168.0 581.1,175.8 581.1,196.5 553.6,205.7 553.6,222.8 553.6,250.0 526.2,204.9 526.2,185.8 526.2,188.0 498.7,201.6 498.7,204.5 498.7,207.3" fill="#1f3a5f" opacity="0.18"/>
<polyline points="498.7,174.9 498.7,175.4 498.7,190.1 526.2,148.2 526.2,170.8 526.2,171.5 553.6,213.8 553.6,192.8 553.6,195.9 581.1,185.3 581.1,150.7 581.1,138.2 636.0,147.1 636.0,134.1 636.0,170.7 663.5,135.9 663.5,133.6 663.5,175.9 690.9,179.6 690.9,198.8 690.9,166.2 718.4,197.6 718.4,176.9 718.4,145.5 745.8,154.3 745.8,193.2 745.8,167.6 773.3,167.2 773.3,155.5 773.3,133.8" fill="none" stroke="#1f3a5f" stroke-width="1.6"/>
<circle cx="498.7" cy="174.9" r="2.6" fill="#1f3a5f"/>
<circle cx="498.7" cy="175.4" r="2.6" fill="#1f3a5f"/>
<circle cx="498.7" cy="190.1" r="2.6" fill="#1f3a5f"/>
<circle cx="526.2" cy="148.2" r="2.6" fill="#1f3a5f"/>
<circle cx="526.2" cy="170.8" r="2.6" fill="#1f3a5f"/>
<circle cx="526.2" cy="171.5" r="2.6" fill="#1f3a5f"/>
<circle cx="553.6" cy="213.8" r="2.6" fill="#1f3a5f"/>
<circle cx="553.6" cy="192.8" r="2.6" fill="#1f3a5f"/>
<circle cx="553.6" cy="195.9" r="2.6" fill="#1f3a5f"/>
<circle cx="581.1" cy="185.3" r="2.6" fill="#1f3a5f"/>
<circle cx="581.1" cy="150.7" r="2.6" fill="#1f3a5f"/>
<circle cx="581.1" cy="138.2" r="2.6" fill="#1f3a5f"/>
<circle cx="636.0" cy="147.1" r="2.6" fill="#1f3a5f"/>
<circle cx="636.0" cy="134.1" r="2.6" fill="#1f3a5f"/>
<circle cx="636.0" cy="170.7" r="2.6" fill="#1f3a5f"/>
<circle cx="663.5" cy="135.9" r="2.6" fill="#1f3a5f"/>
<circle cx="663.5" cy="133.6" r="2.6" fill="#1f3a5f"/>
<circle cx="663.5" cy="175.9" r="2.6" fill="#1f3a5f"/>
<circle cx="690.9" cy="179.6" r="2.6" fill="#1f3a5f"/>
<circle cx="690.9" cy="198.8" r="2.6" fill="#1f3a5f"/>
<circle cx="690.9" cy="166.2" r="2.6" fill="#1f3a5f"/>
<circle cx="718.4" cy="197.6" r="2.6" fill="#1f3a5f"/>
<circle cx="718.4" cy="176.9" r="2.6" fill="#1f3a5f"/>
<circle cx="718.4" cy="145.5" r="2.6" fill="#1f3a5f"/>
<circle cx="745.8" cy="154.3" r="2.6" fill="#1f3a5f"/>
<circle cx="745.8" cy="193.2" r="2.6" fill="#1f3a5f"/>
<circle cx="745.8" cy="167.6" r="2.6" fill="#1f3a5f"/>
<circle cx="773.3" cy="167.2" r="2.6" fill="#1f3a5f"/>
<circle cx="773.3" cy="155.5" r="2.6" fill="#1f3a5f"/>
<circle cx="773.3" cy="133.8" r="2.6" fill="#1f3a5f"/>
<line x1="622.3" y1="90" x2="622.3" y2="250" stroke="#b9461a" stroke-dasharray="3 3"/>
<line x1="485" y1="250" x2="787" y2="250" stroke="#444"/>
<line x1="485" y1="90" x2="485" y2="250" stroke="#444"/>
<line x1="498.7" y1="250" x2="498.7" y2="253" stroke="#444"/>
<text x="498.7" y="265" text-anchor="middle" fill="#444">-5</text>
<line x1="526.2" y1="250" x2="526.2" y2="253" stroke="#444"/>
<text x="526.2" y="265" text-anchor="middle" fill="#444">-4</text>
<line x1="553.6" y1="250" x2="553.6" y2="253" stroke="#444"/>
<text x="553.6" y="265" text-anchor="middle" fill="#444">-3</text>
<line x1="581.1" y1="250" x2="581.1" y2="253" stroke="#444"/>
<text x="581.1" y="265" text-anchor="middle" fill="#444">-2</text>
<line x1="636.0" y1="250" x2="636.0" y2="253" stroke="#444"/>
<text x="636.0" y="265" text-anchor="middle" fill="#444">0</text>
<line x1="663.5" y1="250" x2="663.5" y2="253" stroke="#444"/>
<text x="663.5" y="265" text-anchor="middle" fill="#444">1</text>
<line x1="690.9" y1="250" x2="690.9" y2="253" stroke="#444"/>
<text x="690.9" y="265" text-anchor="middle" fill="#444">2</text>
<line x1="718.4" y1="250" x2="718.4" y2="253" stroke="#444"/>
<text x="718.4" y="265" text-anchor="middle" fill="#444">3</text>
<line x1="745.8" y1="250" x2="745.8" y2="253" stroke="#444"/>
<text x="745.8" y="265" text-anchor="middle" fill="#444">4</text>
<line x1="773.3" y1="250" x2="773.3" y2="253" stroke="#444"/>
<text x="773.3" y="265" text-anchor="middle" fill="#444">5</text>
<line x1="482" y1="250.0" x2="485" y2="250.0" stroke="#444"/>
<text x="479" y="253.0" text-anchor="end" fill="#444">-2.3</text>
<line x1="482" y1="210.0" x2="485" y2="210.0" stroke="#444"/>
<text x="479" y="213.0" text-anchor="end" fill="#444">-0.94</text>
<line x1="482" y1="170.0" x2="485" y2="170.0" stroke="#444"/>
<text x="479" y="173.0" text-anchor="end" fill="#444">0.39</text>
<line x1="482" y1="130.0" x2="485" y2="130.0" stroke="#444"/>
<text x="479" y="133.0" text-anchor="end" fill="#444">1.7</text>
<line x1="482" y1="90.0" x2="485" y2="90.0" stroke="#444"/>
<text x="479" y="93.0" text-anchor="end" fill="#444">3</text>
<text x="636.0" y="284" text-anchor="middle" fill="#444">Event time (years from adoption)</text>
<text x="437" y="170.0" text-anchor="middle" fill="#444" transform="rotate(-90 437 170.0)">ATT (per 100k)</text>
<rect x="15" y="330" width="380" height="260" fill="#fafaf7" stroke="#e2e2dc"/>
<text x="205.0" y="348" text-anchor="middle" font-weight="600">Total suicide rate (per 100k) [net effect]</text>
<line x1="75" y1="480.007752962545" x2="377" y2="480.007752962545" stroke="#aaaaaa" stroke-width="0.7"/>
<polygon points="88.7,434.3 88.7,436.2 88.7,470.3 116.2,395.8 116.2,456.9 116.2,414.7 143.6,437.0 143.6,406.3 143.6,489.8 171.1,464.5 171.1,403.6 171.1,387.8 226.0,406.7 226.0,392.9 226.0,460.2 253.5,381.7 253.5,380.0 253.5,462.3 280.9,417.5 280.9,452.7 280.9,444.2 308.4,403.4 308.4,406.6 308.4,426.7 335.8,442.7 335.8,389.2 335.8,398.0 363.3,404.2 363.3,402.9 363.3,417.8 363.3,461.4 363.3,475.0 363.3,479.5 335.8,492.3 335.8,490.7 335.8,476.0 308.4,463.4 308.4,487.2 308.4,487.1 280.9,476.0 280.9,527.2 280.9,507.3 253.5,492.1 253.5,493.3 253.5,490.6 226.0,488.1 226.0,490.3 226.0,493.2 171.1,501.2 171.1,500.0 171.1,489.3 143.6,522.7 143.6,514.2 143.6,522.5 116.2,493.4 116.2,501.7 116.2,484.2 88.7,510.4 88.7,534.1 88.7,540.0" fill="#1f3a5f" opacity="0.18"/>
<polyline points="88.7,487.1 88.7,485.2 88.7,490.3 116.2,440.0 116.2,479.3 116.2,454.0 143.6,479.7 143.6,460.2 143.6,506.2 171.1,476.9 171.1,451.8 171.1,444.5 226.0,450.0 226.0,441.6 226.0,474.1 253.5,436.2 253.5,436.6 253.5,477.2 280.9,462.4 280.9,489.9 280.9,460.1 308.4,445.2 308.4,446.9 308.4,445.0 335.8,459.4 335.8,439.9 335.8,445.2 363.3,441.8 363.3,439.0 363.3,439.6" fill="none" stroke="#1f3a5f" stroke-width="1.6"/>
<circle cx="88.7" cy="487.1" r="2.6" fill="#1f3a5f"/>
<circle cx="88.7" cy="485.2" r="2.6" fill="#1f3a5f"/>
<circle cx="88.7" cy="490.3" r="2.6" fill="#1f3a5f"/>
<circle cx="116.2" cy="440.0" r="2.6" fill="#1f3a5f"/>
<circle cx="116.2" cy="479.3" r="2.6" fill="#1f3a5f"/>
<circle cx="116.2" cy="454.0" r="2.6" fill="#1f3a5f"/>
<circle cx="143.6" cy="479.7" r="2.6" fill="#1f3a5f"/>
<circle cx="143.6" cy="460.2" r="2.6" fill="#1f3a5f"/>
<circle cx="143.6" cy="506.2" r="2.6" fill="#1f3a5f"/>
<circle cx="171.1" cy="476.9" r="2.6" fill="#1f3a5f"/>
<circle cx="171.1" cy="451.8" r="2.6" fill="#1f3a5f"/>
<circle cx="171.1" cy="444.5" r="2.6" fill="#1f3a5f"/>
<circle cx="226.0" cy="450.0" r="2.6" fill="#1f3a5f"/>
<circle cx="226.0" cy="441.6" r="2.6" fill="#1f3a5f"/>
<circle cx="226.0" cy="474.1" r="2.6" fill="#1f3a5f"/>
<circle cx="253.5" cy="436.2" r="2.6" fill="#1f3a5f"/>
<circle cx="253.5" cy="436.6" r="2.6" fill="#1f3a5f"/>
<circle cx="253.5" cy="477.2" r="2.6" fill="#1f3a5f"/>
<circle cx="280.9" cy="462.4" r="2.6" fill="#1f3a5f"/>
<circle cx="280.9" cy="489.9" r="2.6" fill="#1f3a5f"/>
<circle cx="280.9" cy="460.1" r="2.6" fill="#1f3a5f"/>
<circle cx="308.4" cy="445.2" r="2.6" fill="#1f3a5f"/>
<circle cx="308.4" cy="446.9" r="2.6" fill="#1f3a5f"/>
<circle cx="308.4" cy="445.0" r="2.6" fill="#1f3a5f"/>
<circle cx="335.8" cy="459.4" r="2.6" fill="#1f3a5f"/>
<circle cx="335.8" cy="439.9" r="2.6" fill="#1f3a5f"/>
<circle cx="335.8" cy="445.2" r="2.6" fill="#1f3a5f"/>
<circle cx="363.3" cy="441.8" r="2.6" fill="#1f3a5f"/>
<circle cx="363.3" cy="439.0" r="2.6" fill="#1f3a5f"/>
<circle cx="363.3" cy="439.6" r="2.6" fill="#1f3a5f"/>
<line x1="212.3" y1="380" x2="212.3" y2="540" stroke="#b9461a" stroke-dasharray="3 3"/>
<line x1="75" y1="540" x2="377" y2="540" stroke="#444"/>
<line x1="75" y1="380" x2="75" y2="540" stroke="#444"/>
<line x1="88.7" y1="540" x2="88.7" y2="543" stroke="#444"/>
<text x="88.7" y="555" text-anchor="middle" fill="#444">-5</text>
<line x1="116.2" y1="540" x2="116.2" y2="543" stroke="#444"/>
<text x="116.2" y="555" text-anchor="middle" fill="#444">-4</text>
<line x1="143.6" y1="540" x2="143.6" y2="543" stroke="#444"/>
<text x="143.6" y="555" text-anchor="middle" fill="#444">-3</text>
<line x1="171.1" y1="540" x2="171.1" y2="543" stroke="#444"/>
<text x="171.1" y="555" text-anchor="middle" fill="#444">-2</text>
<line x1="226.0" y1="540" x2="226.0" y2="543" stroke="#444"/>
<text x="226.0" y="555" text-anchor="middle" fill="#444">0</text>
<line x1="253.5" y1="540" x2="253.5" y2="543" stroke="#444"/>
<text x="253.5" y="555" text-anchor="middle" fill="#444">1</text>
<line x1="280.9" y1="540" x2="280.9" y2="543" stroke="#444"/>
<text x="280.9" y="555" text-anchor="middle" fill="#444">2</text>
<line x1="308.4" y1="540" x2="308.4" y2="543" stroke="#444"/>
<text x="308.4" y="555" text-anchor="middle" fill="#444">3</text>
<line x1="335.8" y1="540" x2="335.8" y2="543" stroke="#444"/>
<text x="335.8" y="555" text-anchor="middle" fill="#444">4</text>
<line x1="363.3" y1="540" x2="363.3" y2="543" stroke="#444"/>
<text x="363.3" y="555" text-anchor="middle" fill="#444">5</text>
<line x1="72" y1="540.0" x2="75" y2="540.0" stroke="#444"/>
<text x="69" y="543.0" text-anchor="end" fill="#444">-2.8</text>
<line x1="72" y1="500.0" x2="75" y2="500.0" stroke="#444"/>
<text x="69" y="503.0" text-anchor="end" fill="#444">-0.94</text>
<line x1="72" y1="460.0" x2="75" y2="460.0" stroke="#444"/>
<text x="69" y="463.0" text-anchor="end" fill="#444">0.94</text>
<line x1="72" y1="420.0" x2="75" y2="420.0" stroke="#444"/>
<text x="69" y="423.0" text-anchor="end" fill="#444">2.8</text>
<line x1="72" y1="380.0" x2="75" y2="380.0" stroke="#444"/>
<text x="69" y="383.0" text-anchor="end" fill="#444">4.7</text>
<text x="226.0" y="574" text-anchor="middle" fill="#444">Event time (years from adoption)</text>
<text x="27" y="460.0" text-anchor="middle" fill="#444" transform="rotate(-90 27 460.0)">ATT (per 100k)</text>
<rect x="425" y="330" width="380" height="260" fill="#fafaf7" stroke="#e2e2dc"/>
<text x="615.0" y="348" text-anchor="middle" font-weight="600">Firearm homicide rate (per 100k)</text>
<line x1="485" y1="436.6239304356725" x2="787" y2="436.6239304356725" stroke="#aaaaaa" stroke-width="0.7"/>
<polygon points="498.7,433.1 498.7,455.3 498.7,380.0 526.2,414.2 526.2,414.6 526.2,388.5 553.6,387.7 553.6,424.3 553.6,405.1 581.1,404.6 581.1,437.5 581.1,424.3 636.0,434.0 636.0,441.4 636.0,450.4 663.5,540.0 663.5,531.5 663.5,458.0 690.9,508.6 690.9,517.1 690.9,475.8 718.4,436.6 718.4,436.6 718.4,469.7 745.8,461.8 745.8,525.8 745.8,528.5 773.3,534.5 773.3,505.7 773.3,453.6 773.3,525.2 773.3,505.7 773.3,534.5 745.8,528.5 745.8,525.8 745.8,496.1 718.4,512.4 718.4,436.6 718.4,436.6 690.9,503.9 690.9,517.1 690.9,508.6 663.5,520.1 663.5,531.5 663.5,540.0 636.0,489.2 636.0,441.4 636.0,434.0 581.1,424.3 581.1,437.5 581.1,438.1 553.6,451.0 553.6,424.3 553.6,387.7 526.2,388.5 526.2,457.2 526.2,414.2 498.7,448.0 498.7,455.3 498.7,433.1" fill="#1f3a5f" opacity="0.18"/>
<polyline points="498.7,433.1 498.7,455.3 498.7,414.0 526.2,414.2 526.2,435.9 526.2,388.5 553.6,387.7 553.6,424.3 553.6,428.1 581.1,421.4 581.1,437.5 581.1,424.3 636.0,434.0 636.0,441.4 636.0,469.8 663.5,540.0 663.5,531.5 663.5,489.0 690.9,508.6 690.9,517.1 690.9,489.8 718.4,436.6 718.4,436.6 718.4,491.0 745.8,478.9 745.8,525.8 745.8,528.5 773.3,534.5 773.3,505.7 773.3,489.4" fill="none" stroke="#1f3a5f" stroke-width="1.6"/>
<circle cx="498.7" cy="433.1" r="2.6" fill="#1f3a5f"/>
<circle cx="498.7" cy="455.3" r="2.6" fill="#1f3a5f"/>
<circle cx="498.7" cy="414.0" r="2.6" fill="#1f3a5f"/>
<circle cx="526.2" cy="414.2" r="2.6" fill="#1f3a5f"/>
<circle cx="526.2" cy="435.9" r="2.6" fill="#1f3a5f"/>
<circle cx="526.2" cy="388.5" r="2.6" fill="#1f3a5f"/>
<circle cx="553.6" cy="387.7" r="2.6" fill="#1f3a5f"/>
<circle cx="553.6" cy="424.3" r="2.6" fill="#1f3a5f"/>
<circle cx="553.6" cy="428.1" r="2.6" fill="#1f3a5f"/>
<circle cx="581.1" cy="421.4" r="2.6" fill="#1f3a5f"/>
<circle cx="581.1" cy="437.5" r="2.6" fill="#1f3a5f"/>
<circle cx="581.1" cy="424.3" r="2.6" fill="#1f3a5f"/>
<circle cx="636.0" cy="434.0" r="2.6" fill="#1f3a5f"/>
<circle cx="636.0" cy="441.4" r="2.6" fill="#1f3a5f"/>
<circle cx="636.0" cy="469.8" r="2.6" fill="#1f3a5f"/>
<circle cx="663.5" cy="540.0" r="2.6" fill="#1f3a5f"/>
<circle cx="663.5" cy="531.5" r="2.6" fill="#1f3a5f"/>
<circle cx="663.5" cy="489.0" r="2.6" fill="#1f3a5f"/>
<circle cx="690.9" cy="508.6" r="2.6" fill="#1f3a5f"/>
<circle cx="690.9" cy="517.1" r="2.6" fill="#1f3a5f"/>
<circle cx="690.9" cy="489.8" r="2.6" fill="#1f3a5f"/>
<circle cx="718.4" cy="436.6" r="2.6" fill="#1f3a5f"/>
<circle cx="718.4" cy="436.6" r="2.6" fill="#1f3a5f"/>
<circle cx="718.4" cy="491.0" r="2.6" fill="#1f3a5f"/>
<circle cx="745.8" cy="478.9" r="2.6" fill="#1f3a5f"/>
<circle cx="745.8" cy="525.8" r="2.6" fill="#1f3a5f"/>
<circle cx="745.8" cy="528.5" r="2.6" fill="#1f3a5f"/>
<circle cx="773.3" cy="534.5" r="2.6" fill="#1f3a5f"/>
<circle cx="773.3" cy="505.7" r="2.6" fill="#1f3a5f"/>
<circle cx="773.3" cy="489.4" r="2.6" fill="#1f3a5f"/>
<line x1="622.3" y1="380" x2="622.3" y2="540" stroke="#b9461a" stroke-dasharray="3 3"/>
<line x1="485" y1="540" x2="787" y2="540" stroke="#444"/>
<line x1="485" y1="380" x2="485" y2="540" stroke="#444"/>
<line x1="498.7" y1="540" x2="498.7" y2="543" stroke="#444"/>
<text x="498.7" y="555" text-anchor="middle" fill="#444">-5</text>
<line x1="526.2" y1="540" x2="526.2" y2="543" stroke="#444"/>
<text x="526.2" y="555" text-anchor="middle" fill="#444">-4</text>
<line x1="553.6" y1="540" x2="553.6" y2="543" stroke="#444"/>
<text x="553.6" y="555" text-anchor="middle" fill="#444">-3</text>
<line x1="581.1" y1="540" x2="581.1" y2="543" stroke="#444"/>
<text x="581.1" y="555" text-anchor="middle" fill="#444">-2</text>
<line x1="636.0" y1="540" x2="636.0" y2="543" stroke="#444"/>
<text x="636.0" y="555" text-anchor="middle" fill="#444">0</text>
<line x1="663.5" y1="540" x2="663.5" y2="543" stroke="#444"/>
<text x="663.5" y="555" text-anchor="middle" fill="#444">1</text>
<line x1="690.9" y1="540" x2="690.9" y2="543" stroke="#444"/>
<text x="690.9" y="555" text-anchor="middle" fill="#444">2</text>
<line x1="718.4" y1="540" x2="718.4" y2="543" stroke="#444"/>
<text x="718.4" y="555" text-anchor="middle" fill="#444">3</text>
<line x1="745.8" y1="540" x2="745.8" y2="543" stroke="#444"/>
<text x="745.8" y="555" text-anchor="middle" fill="#444">4</text>
<line x1="773.3" y1="540" x2="773.3" y2="543" stroke="#444"/>
<text x="773.3" y="555" text-anchor="middle" fill="#444">5</text>
<line x1="482" y1="540.0" x2="485" y2="540.0" stroke="#444"/>
<text x="479" y="543.0" text-anchor="end" fill="#444">-2.2</text>
<line x1="482" y1="500.0" x2="485" y2="500.0" stroke="#444"/>
<text x="479" y="503.0" text-anchor="end" fill="#444">-1.4</text>
<line x1="482" y1="460.0" x2="485" y2="460.0" stroke="#444"/>
<text x="479" y="463.0" text-anchor="end" fill="#444">-0.51</text>
<line x1="482" y1="420.0" x2="485" y2="420.0" stroke="#444"/>
<text x="479" y="423.0" text-anchor="end" fill="#444">0.36</text>
<line x1="482" y1="380.0" x2="485" y2="380.0" stroke="#444"/>
<text x="479" y="383.0" text-anchor="end" fill="#444">1.2</text>
<text x="636.0" y="574" text-anchor="middle" fill="#444">Event time (years from adoption)</text>
<text x="437" y="460.0" text-anchor="middle" fill="#444" transform="rotate(-90 437 460.0)">ATT (per 100k)</text>
<rect x="15" y="620" width="380" height="260" fill="#fafaf7" stroke="#e2e2dc"/>
<text x="205.0" y="638" text-anchor="middle" font-weight="600">Total homicide rate (per 100k)</text>
<line x1="75" y1="696.6362487126204" x2="377" y2="696.6362487126204" stroke="#aaaaaa" stroke-width="0.7"/>
<polygon points="88.7,750.4 88.7,757.6 88.7,670.0 116.2,750.6 116.2,683.0 116.2,739.8 143.6,745.2 143.6,768.4 143.6,673.7 171.1,672.1 171.1,732.9 171.1,732.3 226.0,749.8 226.0,754.6 226.0,706.2 253.5,830.0 253.5,806.6 253.5,702.1 280.9,758.5 280.9,739.8 280.9,696.4 308.4,805.3 308.4,804.1 308.4,743.6 335.8,697.1 335.8,749.3 335.8,776.8 363.3,780.8 363.3,786.4 363.3,730.3 363.3,757.9 363.3,786.4 363.3,780.8 335.8,776.8 335.8,749.3 335.8,740.1 308.4,766.7 308.4,804.1 308.4,805.3 280.9,724.5 280.9,739.8 280.9,758.5 253.5,759.0 253.5,806.6 253.5,830.0 226.0,744.7 226.0,754.6 226.0,749.8 171.1,732.3 171.1,732.9 171.1,704.3 143.6,728.9 143.6,768.4 143.6,745.2 116.2,739.8 116.2,729.0 116.2,750.6 88.7,715.1 88.7,757.6 88.7,750.4" fill="#1f3a5f" opacity="0.18"/>
<polyline points="88.7,750.4 88.7,757.6 88.7,692.5 116.2,750.6 116.2,706.0 116.2,739.8 143.6,745.2 143.6,768.4 143.6,701.3 171.1,688.2 171.1,732.9 171.1,732.3 226.0,749.8 226.0,754.6 226.0,725.4 253.5,830.0 253.5,806.6 253.5,730.6 280.9,758.5 280.9,739.8 280.9,710.5 308.4,805.3 308.4,804.1 308.4,755.1 335.8,718.6 335.8,749.3 335.8,776.8 363.3,780.8 363.3,786.4 363.3,744.1" fill="none" stroke="#1f3a5f" stroke-width="1.6"/>
<circle cx="88.7" cy="750.4" r="2.6" fill="#1f3a5f"/>
<circle cx="88.7" cy="757.6" r="2.6" fill="#1f3a5f"/>
<circle cx="88.7" cy="692.5" r="2.6" fill="#1f3a5f"/>
<circle cx="116.2" cy="750.6" r="2.6" fill="#1f3a5f"/>
<circle cx="116.2" cy="706.0" r="2.6" fill="#1f3a5f"/>
<circle cx="116.2" cy="739.8" r="2.6" fill="#1f3a5f"/>
<circle cx="143.6" cy="745.2" r="2.6" fill="#1f3a5f"/>
<circle cx="143.6" cy="768.4" r="2.6" fill="#1f3a5f"/>
<circle cx="143.6" cy="701.3" r="2.6" fill="#1f3a5f"/>
<circle cx="171.1" cy="688.2" r="2.6" fill="#1f3a5f"/>
<circle cx="171.1" cy="732.9" r="2.6" fill="#1f3a5f"/>
<circle cx="171.1" cy="732.3" r="2.6" fill="#1f3a5f"/>
<circle cx="226.0" cy="749.8" r="2.6" fill="#1f3a5f"/>
<circle cx="226.0" cy="754.6" r="2.6" fill="#1f3a5f"/>
<circle cx="226.0" cy="725.4" r="2.6" fill="#1f3a5f"/>
<circle cx="253.5" cy="830.0" r="2.6" fill="#1f3a5f"/>
<circle cx="253.5" cy="806.6" r="2.6" fill="#1f3a5f"/>
<circle cx="253.5" cy="730.6" r="2.6" fill="#1f3a5f"/>
<circle cx="280.9" cy="758.5" r="2.6" fill="#1f3a5f"/>
<circle cx="280.9" cy="739.8" r="2.6" fill="#1f3a5f"/>
<circle cx="280.9" cy="710.5" r="2.6" fill="#1f3a5f"/>
<circle cx="308.4" cy="805.3" r="2.6" fill="#1f3a5f"/>
<circle cx="308.4" cy="804.1" r="2.6" fill="#1f3a5f"/>
<circle cx="308.4" cy="755.1" r="2.6" fill="#1f3a5f"/>
<circle cx="335.8" cy="718.6" r="2.6" fill="#1f3a5f"/>
<circle cx="335.8" cy="749.3" r="2.6" fill="#1f3a5f"/>
<circle cx="335.8" cy="776.8" r="2.6" fill="#1f3a5f"/>
<circle cx="363.3" cy="780.8" r="2.6" fill="#1f3a5f"/>
<circle cx="363.3" cy="786.4" r="2.6" fill="#1f3a5f"/>
<circle cx="363.3" cy="744.1" r="2.6" fill="#1f3a5f"/>
<line x1="212.3" y1="670" x2="212.3" y2="830" stroke="#b9461a" stroke-dasharray="3 3"/>
<line x1="75" y1="830" x2="377" y2="830" stroke="#444"/>
<line x1="75" y1="670" x2="75" y2="830" stroke="#444"/>
<line x1="88.7" y1="830" x2="88.7" y2="833" stroke="#444"/>
<text x="88.7" y="845" text-anchor="middle" fill="#444">-5</text>
<line x1="116.2" y1="830" x2="116.2" y2="833" stroke="#444"/>
<text x="116.2" y="845" text-anchor="middle" fill="#444">-4</text>
<line x1="143.6" y1="830" x2="143.6" y2="833" stroke="#444"/>
<text x="143.6" y="845" text-anchor="middle" fill="#444">-3</text>
<line x1="171.1" y1="830" x2="171.1" y2="833" stroke="#444"/>
<text x="171.1" y="845" text-anchor="middle" fill="#444">-2</text>
<line x1="226.0" y1="830" x2="226.0" y2="833" stroke="#444"/>
<text x="226.0" y="845" text-anchor="middle" fill="#444">0</text>
<line x1="253.5" y1="830" x2="253.5" y2="833" stroke="#444"/>
<text x="253.5" y="845" text-anchor="middle" fill="#444">1</text>
<line x1="280.9" y1="830" x2="280.9" y2="833" stroke="#444"/>
<text x="280.9" y="845" text-anchor="middle" fill="#444">2</text>
<line x1="308.4" y1="830" x2="308.4" y2="833" stroke="#444"/>
<text x="308.4" y="845" text-anchor="middle" fill="#444">3</text>
<line x1="335.8" y1="830" x2="335.8" y2="833" stroke="#444"/>
<text x="335.8" y="845" text-anchor="middle" fill="#444">4</text>
<line x1="363.3" y1="830" x2="363.3" y2="833" stroke="#444"/>
<text x="363.3" y="845" text-anchor="middle" fill="#444">5</text>
<line x1="72" y1="830.0" x2="75" y2="830.0" stroke="#444"/>
<text x="69" y="833.0" text-anchor="end" fill="#444">-4.6</text>
<line x1="72" y1="790.0" x2="75" y2="790.0" stroke="#444"/>
<text x="69" y="793.0" text-anchor="end" fill="#444">-3.2</text>
<line x1="72" y1="750.0" x2="75" y2="750.0" stroke="#444"/>
<text x="69" y="753.0" text-anchor="end" fill="#444">-1.8</text>
<line x1="72" y1="710.0" x2="75" y2="710.0" stroke="#444"/>
<text x="69" y="713.0" text-anchor="end" fill="#444">-0.46</text>
<line x1="72" y1="670.0" x2="75" y2="670.0" stroke="#444"/>
<text x="69" y="673.0" text-anchor="end" fill="#444">0.91</text>
<text x="226.0" y="864" text-anchor="middle" fill="#444">Event time (years from adoption)</text>
<text x="27" y="750.0" text-anchor="middle" fill="#444" transform="rotate(-90 27 750.0)">ATT (per 100k)</text>
<rect x="425" y="620" width="380" height="260" fill="#fafaf7" stroke="#e2e2dc"/>
<text x="615.0" y="638" text-anchor="middle" font-weight="600">Motor vehicle theft rate (per 100k) [placebo]</text>
<line x1="485" y1="804.5893047698478" x2="787" y2="804.5893047698478" stroke="#aaaaaa" stroke-width="0.7"/>
<polygon points="498.7,710.5 498.7,738.0 498.7,779.5 526.2,744.8 526.2,773.6 526.2,721.1 553.6,752.7 553.6,767.3 553.6,781.9 581.1,799.8 581.1,799.2 581.1,791.1 636.0,808.0 636.0,807.9 636.0,783.8 663.5,793.9 663.5,802.6 663.5,761.3 690.9,830.0 690.9,827.0 690.9,778.8 718.4,788.4 718.4,791.0 718.4,765.5 745.8,750.4 745.8,764.6 745.8,756.8 773.3,670.0 773.3,692.8 773.3,747.2 773.3,795.0 773.3,692.8 773.3,670.0 745.8,756.8 745.8,764.6 745.8,798.0 718.4,798.4 718.4,791.0 718.4,788.4 690.9,801.2 690.9,827.0 690.9,830.0 663.5,812.1 663.5,802.6 663.5,793.9 636.0,811.4 636.0,807.9 636.0,808.0 581.1,791.1 581.1,799.2 581.1,827.7 553.6,818.8 553.6,767.3 553.6,752.7 526.2,721.1 526.2,818.3 526.2,744.8 498.7,824.7 498.7,738.0 498.7,710.5" fill="#1f3a5f" opacity="0.18"/>
<polyline points="498.7,710.5 498.7,738.0 498.7,802.1 526.2,744.8 526.2,796.0 526.2,721.1 553.6,752.7 553.6,767.3 553.6,800.4 581.1,813.7 581.1,799.2 581.1,791.1 636.0,808.0 636.0,807.9 636.0,797.6 663.5,793.9 663.5,802.6 663.5,786.7 690.9,830.0 690.9,827.0 690.9,790.0 718.4,788.4 718.4,791.0 718.4,782.0 745.8,774.2 745.8,764.6 745.8,756.8 773.3,670.0 773.3,692.8 773.3,771.1" fill="none" stroke="#1f3a5f" stroke-width="1.6"/>
<circle cx="498.7" cy="710.5" r="2.6" fill="#1f3a5f"/>
<circle cx="498.7" cy="738.0" r="2.6" fill="#1f3a5f"/>
<circle cx="498.7" cy="802.1" r="2.6" fill="#1f3a5f"/>
<circle cx="526.2" cy="744.8" r="2.6" fill="#1f3a5f"/>
<circle cx="526.2" cy="796.0" r="2.6" fill="#1f3a5f"/>
<circle cx="526.2" cy="721.1" r="2.6" fill="#1f3a5f"/>
<circle cx="553.6" cy="752.7" r="2.6" fill="#1f3a5f"/>
<circle cx="553.6" cy="767.3" r="2.6" fill="#1f3a5f"/>
<circle cx="553.6" cy="800.4" r="2.6" fill="#1f3a5f"/>
<circle cx="581.1" cy="813.7" r="2.6" fill="#1f3a5f"/>
<circle cx="581.1" cy="799.2" r="2.6" fill="#1f3a5f"/>
<circle cx="581.1" cy="791.1" r="2.6" fill="#1f3a5f"/>
<circle cx="636.0" cy="808.0" r="2.6" fill="#1f3a5f"/>
<circle cx="636.0" cy="807.9" r="2.6" fill="#1f3a5f"/>
<circle cx="636.0" cy="797.6" r="2.6" fill="#1f3a5f"/>
<circle cx="663.5" cy="793.9" r="2.6" fill="#1f3a5f"/>
<circle cx="663.5" cy="802.6" r="2.6" fill="#1f3a5f"/>
<circle cx="663.5" cy="786.7" r="2.6" fill="#1f3a5f"/>
<circle cx="690.9" cy="830.0" r="2.6" fill="#1f3a5f"/>
<circle cx="690.9" cy="827.0" r="2.6" fill="#1f3a5f"/>
<circle cx="690.9" cy="790.0" r="2.6" fill="#1f3a5f"/>
<circle cx="718.4" cy="788.4" r="2.6" fill="#1f3a5f"/>
<circle cx="718.4" cy="791.0" r="2.6" fill="#1f3a5f"/>
<circle cx="718.4" cy="782.0" r="2.6" fill="#1f3a5f"/>
<circle cx="745.8" cy="774.2" r="2.6" fill="#1f3a5f"/>
<circle cx="745.8" cy="764.6" r="2.6" fill="#1f3a5f"/>
<circle cx="745.8" cy="756.8" r="2.6" fill="#1f3a5f"/>
<circle cx="773.3" cy="670.0" r="2.6" fill="#1f3a5f"/>
<circle cx="773.3" cy="692.8" r="2.6" fill="#1f3a5f"/>
<circle cx="773.3" cy="771.1" r="2.6" fill="#1f3a5f"/>
<line x1="622.3" y1="670" x2="622.3" y2="830" stroke="#b9461a" stroke-dasharray="3 3"/>
<line x1="485" y1="830" x2="787" y2="830" stroke="#444"/>
<line x1="485" y1="670" x2="485" y2="830" stroke="#444"/>
<line x1="498.7" y1="830" x2="498.7" y2="833" stroke="#444"/>
<text x="498.7" y="845" text-anchor="middle" fill="#444">-5</text>
<line x1="526.2" y1="830" x2="526.2" y2="833" stroke="#444"/>
<text x="526.2" y="845" text-anchor="middle" fill="#444">-4</text>
<line x1="553.6" y1="830" x2="553.6" y2="833" stroke="#444"/>
<text x="553.6" y="845" text-anchor="middle" fill="#444">-3</text>
<line x1="581.1" y1="830" x2="581.1" y2="833" stroke="#444"/>
<text x="581.1" y="845" text-anchor="middle" fill="#444">-2</text>
<line x1="636.0" y1="830" x2="636.0" y2="833" stroke="#444"/>
<text x="636.0" y="845" text-anchor="middle" fill="#444">0</text>
<line x1="663.5" y1="830" x2="663.5" y2="833" stroke="#444"/>
<text x="663.5" y="845" text-anchor="middle" fill="#444">1</text>
<line x1="690.9" y1="830" x2="690.9" y2="833" stroke="#444"/>
<text x="690.9" y="845" text-anchor="middle" fill="#444">2</text>
<line x1="718.4" y1="830" x2="718.4" y2="833" stroke="#444"/>
<text x="718.4" y="845" text-anchor="middle" fill="#444">3</text>
<line x1="745.8" y1="830" x2="745.8" y2="833" stroke="#444"/>
<text x="745.8" y="845" text-anchor="middle" fill="#444">4</text>
<line x1="773.3" y1="830" x2="773.3" y2="833" stroke="#444"/>
<text x="773.3" y="845" text-anchor="middle" fill="#444">5</text>
<line x1="482" y1="830.0" x2="485" y2="830.0" stroke="#444"/>
<text x="479" y="833.0" text-anchor="end" fill="#444">-34</text>
<line x1="482" y1="790.0" x2="485" y2="790.0" stroke="#444"/>
<text x="479" y="793.0" text-anchor="end" fill="#444">20</text>
<line x1="482" y1="750.0" x2="485" y2="750.0" stroke="#444"/>
<text x="479" y="753.0" text-anchor="end" fill="#444">73</text>
<line x1="482" y1="710.0" x2="485" y2="710.0" stroke="#444"/>
<text x="479" y="713.0" text-anchor="end" fill="#444">1.3e+02</text>
<line x1="482" y1="670.0" x2="485" y2="670.0" stroke="#444"/>
<text x="479" y="673.0" text-anchor="end" fill="#444">1.8e+02</text>
<text x="636.0" y="864" text-anchor="middle" fill="#444">Event time (years from adoption)</text>
<text x="437" y="750.0" text-anchor="middle" fill="#444" transform="rotate(-90 437 750.0)">ATT (per 100k)</text>
<text x="805" y="608" text-anchor="end" fill="#888" font-size="10">Shaded band: pointwise 95% CI from cluster bootstrap. Vertical dashed line marks the year before adoption.</text>
</svg>