<svg xmlns="http://www.w3.org/2000/svg" viewBox="0 0 820 620" font-family="-apple-system, Segoe UI, Helvetica, Arial, sans-serif" font-size="11">
<text x="410.0" y="22" text-anchor="middle" font-size="14" font-weight="600">Callaway-Sant'Anna ATT by event time (OR) -- magazine ban</text>
<rect x="15" y="40" width="380" height="260" fill="#fafaf7" stroke="#e2e2dc"/>
<text x="205.0" y="58" text-anchor="middle" font-weight="600">Firearm suicide rate (per 100k)</text>
<line x1="75" y1="160.134960684734" x2="377" y2="160.134960684734" stroke="#aaaaaa" stroke-width="0.7"/>
<polygon points="88.7,90.0 116.2,119.0 143.6,98.3 171.1,107.8 226.0,138.4 253.5,116.7 280.9,155.3 308.4,121.9 335.8,200.0 363.3,143.0 363.3,216.1 335.8,250.0 308.4,193.6 280.9,191.0 253.5,176.0 226.0,206.3 171.1,191.5 143.6,234.4 116.2,189.5 88.7,224.9" fill="#1f3a5f" opacity="0.18"/>
<polyline points="88.7,157.5 116.2,154.2 143.6,166.4 171.1,149.6 226.0,172.3 253.5,146.4 280.9,173.1 308.4,157.8 335.8,225.0 363.3,179.5" fill="none" stroke="#1f3a5f" stroke-width="1.6"/>
<circle cx="88.7" cy="157.5" r="2.6" fill="#1f3a5f"/>
<circle cx="116.2" cy="154.2" r="2.6" fill="#1f3a5f"/>
<circle cx="143.6" cy="166.4" r="2.6" fill="#1f3a5f"/>
<circle cx="171.1" cy="149.6" r="2.6" fill="#1f3a5f"/>
<circle cx="226.0" cy="172.3" r="2.6" fill="#1f3a5f"/>
<circle cx="253.5" cy="146.4" r="2.6" fill="#1f3a5f"/>
<circle cx="280.9" cy="173.1" r="2.6" fill="#1f3a5f"/>
<circle cx="308.4" cy="157.8" r="2.6" fill="#1f3a5f"/>
<circle cx="335.8" cy="225.0" r="2.6" fill="#1f3a5f"/>
<circle cx="363.3" cy="179.5" r="2.6" fill="#1f3a5f"/>
<line x1="212.3" y1="90" x2="212.3" y2="250" stroke="#b9461a" stroke-dasharray="3 3"/>
<line x1="75" y1="250" x2="377" y2="250" stroke="#444"/>
<line x1="75" y1="90" x2="75" y2="250" stroke="#444"/>
<line x1="88.7" y1="250" x2="88.7" y2="253" stroke="#444"/>
<text x="88.7" y="265" text-anchor="middle" fill="#444">-5</text>
<line x1="116.2" y1="250" x2="116.2" y2="253" stroke="#444"/>
<text x="116.2" y="265" text-anchor="middle" fill="#444">-4</text>
<line x1="143.6" y1="250" x2="143.6" y2="253" stroke="#444"/>
<text x="143.6" y="265" text-anchor="middle" fill="#444">-3</text>
<line x1="171.1" y1="250" x2="171.1" y2="253" stroke="#444"/>
<text x="171.1" y="265" text-anchor="middle" fill="#444">-2</text>
<line x1="226.0" y1="250" x2="226.0" y2="253" stroke="#444"/>
<text x="226.0" y="265" text-anchor="middle" fill="#444">0</text>
<line x1="253.5" y1="250" x2="253.5" y2="253" stroke="#444"/>
<text x="253.5" y="265" text-anchor="middle" fill="#444">1</text>
<line x1="280.9" y1="250" x2="280.9" y2="253" stroke="#444"/>
<text x="280.9" y="265" text-anchor="middle" fill="#444">2</text>
<line x1="308.4" y1="250" x2="308.4" y2="253" stroke="#444"/>
<text x="308.4" y="265" text-anchor="middle" fill="#444">3</text>
<line x1="335.8" y1="250" x2="335.8" y2="253" stroke="#444"/>
<text x="335.8" y="265" text-anchor="middle" fill="#444">4</text>
<line x1="363.3" y1="250" x2="363.3" y2="253" stroke="#444"/>
<text x="363.3" y="265" text-anchor="middle" fill="#444">5</text>
<line x1="72" y1="250.0" x2="75" y2="250.0" stroke="#444"/>
<text x="69" y="253.0" text-anchor="end" fill="#444">-1.1</text>
<line x1="72" y1="210.0" x2="75" y2="210.0" stroke="#444"/>
<text x="69" y="213.0" text-anchor="end" fill="#444">-0.59</text>
<line x1="72" y1="170.0" x2="75" y2="170.0" stroke="#444"/>
<text x="69" y="173.0" text-anchor="end" fill="#444">-0.12</text>
<line x1="72" y1="130.0" x2="75" y2="130.0" stroke="#444"/>
<text x="69" y="133.0" text-anchor="end" fill="#444">0.36</text>
<line x1="72" y1="90.0" x2="75" y2="90.0" stroke="#444"/>
<text x="69" y="93.0" text-anchor="end" fill="#444">0.84</text>
<text x="226.0" y="284" text-anchor="middle" fill="#444">Event time (years from adoption)</text>
<text x="27" y="170.0" text-anchor="middle" fill="#444" transform="rotate(-90 27 170.0)">ATT (per 100k)</text>
<rect x="425" y="40" width="380" height="260" fill="#fafaf7" stroke="#e2e2dc"/>
<text x="615.0" y="58" text-anchor="middle" font-weight="600">Non-firearm suicide rate (per 100k) [substitution test]</text>
<line x1="485" y1="201.43374729360846" x2="787" y2="201.43374729360846" stroke="#aaaaaa" stroke-width="0.7"/>
<polygon points="498.7,161.4 526.2,151.4 553.6,196.2 581.1,179.8 636.0,138.2 663.5,180.0 690.9,186.9 718.4,90.0 745.8,148.4 773.3,138.8 773.3,179.6 745.8,202.6 718.4,159.3 690.9,234.3 663.5,233.1 636.0,231.5 581.1,250.0 553.6,241.3 526.2,199.8 498.7,209.3" fill="#1f3a5f" opacity="0.18"/>
<polyline points="498.7,185.4 526.2,175.6 553.6,218.8 581.1,214.9 636.0,184.8 663.5,206.5 690.9,210.6 718.4,124.6 745.8,175.5 773.3,159.2" fill="none" stroke="#1f3a5f" stroke-width="1.6"/>
<circle cx="498.7" cy="185.4" r="2.6" fill="#1f3a5f"/>
<circle cx="526.2" cy="175.6" r="2.6" fill="#1f3a5f"/>
<circle cx="553.6" cy="218.8" r="2.6" fill="#1f3a5f"/>
<circle cx="581.1" cy="214.9" r="2.6" fill="#1f3a5f"/>
<circle cx="636.0" cy="184.8" r="2.6" fill="#1f3a5f"/>
<circle cx="663.5" cy="206.5" r="2.6" fill="#1f3a5f"/>
<circle cx="690.9" cy="210.6" r="2.6" fill="#1f3a5f"/>
<circle cx="718.4" cy="124.6" r="2.6" fill="#1f3a5f"/>
<circle cx="745.8" cy="175.5" r="2.6" fill="#1f3a5f"/>
<circle cx="773.3" cy="159.2" r="2.6" fill="#1f3a5f"/>
<line x1="622.3" y1="90" x2="622.3" y2="250" stroke="#b9461a" stroke-dasharray="3 3"/>
<line x1="485" y1="250" x2="787" y2="250" stroke="#444"/>
<line x1="485" y1="90" x2="485" y2="250" stroke="#444"/>
<line x1="498.7" y1="250" x2="498.7" y2="253" stroke="#444"/>
<text x="498.7" y="265" text-anchor="middle" fill="#444">-5</text>
<line x1="526.2" y1="250" x2="526.2" y2="253" stroke="#444"/>
<text x="526.2" y="265" text-anchor="middle" fill="#444">-4</text>
<line x1="553.6" y1="250" x2="553.6" y2="253" stroke="#444"/>
<text x="553.6" y="265" text-anchor="middle" fill="#444">-3</text>
<line x1="581.1" y1="250" x2="581.1" y2="253" stroke="#444"/>
<text x="581.1" y="265" text-anchor="middle" fill="#444">-2</text>
<line x1="636.0" y1="250" x2="636.0" y2="253" stroke="#444"/>
<text x="636.0" y="265" text-anchor="middle" fill="#444">0</text>
<line x1="663.5" y1="250" x2="663.5" y2="253" stroke="#444"/>
<text x="663.5" y="265" text-anchor="middle" fill="#444">1</text>
<line x1="690.9" y1="250" x2="690.9" y2="253" stroke="#444"/>
<text x="690.9" y="265" text-anchor="middle" fill="#444">2</text>
<line x1="718.4" y1="250" x2="718.4" y2="253" stroke="#444"/>
<text x="718.4" y="265" text-anchor="middle" fill="#444">3</text>
<line x1="745.8" y1="250" x2="745.8" y2="253" stroke="#444"/>
<text x="745.8" y="265" text-anchor="middle" fill="#444">4</text>
<line x1="773.3" y1="250" x2="773.3" y2="253" stroke="#444"/>
<text x="773.3" y="265" text-anchor="middle" fill="#444">5</text>
<line x1="482" y1="250.0" x2="485" y2="250.0" stroke="#444"/>
<text x="479" y="253.0" text-anchor="end" fill="#444">-0.61</text>
<line x1="482" y1="210.0" x2="485" y2="210.0" stroke="#444"/>
<text x="479" y="213.0" text-anchor="end" fill="#444">-0.11</text>
<line x1="482" y1="170.0" x2="485" y2="170.0" stroke="#444"/>
<text x="479" y="173.0" text-anchor="end" fill="#444">0.4</text>
<line x1="482" y1="130.0" x2="485" y2="130.0" stroke="#444"/>
<text x="479" y="133.0" text-anchor="end" fill="#444">0.9</text>
<line x1="482" y1="90.0" x2="485" y2="90.0" stroke="#444"/>
<text x="479" y="93.0" text-anchor="end" fill="#444">1.4</text>
<text x="636.0" y="284" text-anchor="middle" fill="#444">Event time (years from adoption)</text>
<text x="437" y="170.0" text-anchor="middle" fill="#444" transform="rotate(-90 437 170.0)">ATT (per 100k)</text>
<rect x="15" y="330" width="380" height="260" fill="#fafaf7" stroke="#e2e2dc"/>
<text x="205.0" y="348" text-anchor="middle" font-weight="600">Total suicide rate (per 100k) [net effect]</text>
<line x1="75" y1="463.6933570304761" x2="377" y2="463.6933570304761" stroke="#aaaaaa" stroke-width="0.7"/>
<polygon points="88.7,384.1 116.2,399.1 143.6,424.6 171.1,425.6 226.0,433.3 253.5,432.7 280.9,453.6 308.4,380.0 335.8,468.9 363.3,414.0 363.3,475.2 335.8,515.5 308.4,420.7 280.9,508.2 253.5,482.0 226.0,486.0 171.1,507.4 143.6,540.0 116.2,477.9 88.7,513.5" fill="#1f3a5f" opacity="0.18"/>
<polyline points="88.7,448.8 116.2,438.5 143.6,482.3 171.1,466.5 226.0,459.6 253.5,457.3 280.9,480.9 308.4,400.3 335.8,492.2 363.3,444.6" fill="none" stroke="#1f3a5f" stroke-width="1.6"/>
<circle cx="88.7" cy="448.8" r="2.6" fill="#1f3a5f"/>
<circle cx="116.2" cy="438.5" r="2.6" fill="#1f3a5f"/>
<circle cx="143.6" cy="482.3" r="2.6" fill="#1f3a5f"/>
<circle cx="171.1" cy="466.5" r="2.6" fill="#1f3a5f"/>
<circle cx="226.0" cy="459.6" r="2.6" fill="#1f3a5f"/>
<circle cx="253.5" cy="457.3" r="2.6" fill="#1f3a5f"/>
<circle cx="280.9" cy="480.9" r="2.6" fill="#1f3a5f"/>
<circle cx="308.4" cy="400.3" r="2.6" fill="#1f3a5f"/>
<circle cx="335.8" cy="492.2" r="2.6" fill="#1f3a5f"/>
<circle cx="363.3" cy="444.6" r="2.6" fill="#1f3a5f"/>
<line x1="212.3" y1="380" x2="212.3" y2="540" stroke="#b9461a" stroke-dasharray="3 3"/>
<line x1="75" y1="540" x2="377" y2="540" stroke="#444"/>
<line x1="75" y1="380" x2="75" y2="540" stroke="#444"/>
<line x1="88.7" y1="540" x2="88.7" y2="543" stroke="#444"/>
<text x="88.7" y="555" text-anchor="middle" fill="#444">-5</text>
<line x1="116.2" y1="540" x2="116.2" y2="543" stroke="#444"/>
<text x="116.2" y="555" text-anchor="middle" fill="#444">-4</text>
<line x1="143.6" y1="540" x2="143.6" y2="543" stroke="#444"/>
<text x="143.6" y="555" text-anchor="middle" fill="#444">-3</text>
<line x1="171.1" y1="540" x2="171.1" y2="543" stroke="#444"/>
<text x="171.1" y="555" text-anchor="middle" fill="#444">-2</text>
<line x1="226.0" y1="540" x2="226.0" y2="543" stroke="#444"/>
<text x="226.0" y="555" text-anchor="middle" fill="#444">0</text>
<line x1="253.5" y1="540" x2="253.5" y2="543" stroke="#444"/>
<text x="253.5" y="555" text-anchor="middle" fill="#444">1</text>
<line x1="280.9" y1="540" x2="280.9" y2="543" stroke="#444"/>
<text x="280.9" y="555" text-anchor="middle" fill="#444">2</text>
<line x1="308.4" y1="540" x2="308.4" y2="543" stroke="#444"/>
<text x="308.4" y="555" text-anchor="middle" fill="#444">3</text>
<line x1="335.8" y1="540" x2="335.8" y2="543" stroke="#444"/>
<text x="335.8" y="555" text-anchor="middle" fill="#444">4</text>
<line x1="363.3" y1="540" x2="363.3" y2="543" stroke="#444"/>
<text x="363.3" y="555" text-anchor="middle" fill="#444">5</text>
<line x1="72" y1="540.0" x2="75" y2="540.0" stroke="#444"/>
<text x="69" y="543.0" text-anchor="end" fill="#444">-1.2</text>
<line x1="72" y1="500.0" x2="75" y2="500.0" stroke="#444"/>
<text x="69" y="503.0" text-anchor="end" fill="#444">-0.57</text>
<line x1="72" y1="460.0" x2="75" y2="460.0" stroke="#444"/>
<text x="69" y="463.0" text-anchor="end" fill="#444">0.058</text>
<line x1="72" y1="420.0" x2="75" y2="420.0" stroke="#444"/>
<text x="69" y="423.0" text-anchor="end" fill="#444">0.69</text>
<line x1="72" y1="380.0" x2="75" y2="380.0" stroke="#444"/>
<text x="69" y="383.0" text-anchor="end" fill="#444">1.3</text>
<text x="226.0" y="574" text-anchor="middle" fill="#444">Event time (years from adoption)</text>
<text x="27" y="460.0" text-anchor="middle" fill="#444" transform="rotate(-90 27 460.0)">ATT (per 100k)</text>
<rect x="425" y="330" width="380" height="260" fill="#fafaf7" stroke="#e2e2dc"/>
<text x="615.0" y="348" text-anchor="middle" font-weight="600">Firearm homicide rate (per 100k)</text>
<line x1="485" y1="407.1397325563981" x2="787" y2="407.1397325563981" stroke="#aaaaaa" stroke-width="0.7"/>
<polygon points="498.7,393.8 526.2,385.2 553.6,380.0 581.1,397.1 636.0,397.5 663.5,386.6 690.9,426.7 718.4,399.8 745.8,416.5 773.3,388.3 773.3,497.8 745.8,488.3 718.4,540.0 690.9,480.1 663.5,480.7 636.0,467.9 581.1,409.8 553.6,426.3 526.2,434.2 498.7,424.3" fill="#1f3a5f" opacity="0.18"/>
<polyline points="498.7,409.0 526.2,409.7 553.6,403.2 581.1,403.5 636.0,432.7 663.5,433.7 690.9,453.4 718.4,469.9 745.8,452.4 773.3,443.0" fill="none" stroke="#1f3a5f" stroke-width="1.6"/>
<circle cx="498.7" cy="409.0" r="2.6" fill="#1f3a5f"/>
<circle cx="526.2" cy="409.7" r="2.6" fill="#1f3a5f"/>
<circle cx="553.6" cy="403.2" r="2.6" fill="#1f3a5f"/>
<circle cx="581.1" cy="403.5" r="2.6" fill="#1f3a5f"/>
<circle cx="636.0" cy="432.7" r="2.6" fill="#1f3a5f"/>
<circle cx="663.5" cy="433.7" r="2.6" fill="#1f3a5f"/>
<circle cx="690.9" cy="453.4" r="2.6" fill="#1f3a5f"/>
<circle cx="718.4" cy="469.9" r="2.6" fill="#1f3a5f"/>
<circle cx="745.8" cy="452.4" r="2.6" fill="#1f3a5f"/>
<circle cx="773.3" cy="443.0" r="2.6" fill="#1f3a5f"/>
<line x1="622.3" y1="380" x2="622.3" y2="540" stroke="#b9461a" stroke-dasharray="3 3"/>
<line x1="485" y1="540" x2="787" y2="540" stroke="#444"/>
<line x1="485" y1="380" x2="485" y2="540" stroke="#444"/>
<line x1="498.7" y1="540" x2="498.7" y2="543" stroke="#444"/>
<text x="498.7" y="555" text-anchor="middle" fill="#444">-5</text>
<line x1="526.2" y1="540" x2="526.2" y2="543" stroke="#444"/>
<text x="526.2" y="555" text-anchor="middle" fill="#444">-4</text>
<line x1="553.6" y1="540" x2="553.6" y2="543" stroke="#444"/>
<text x="553.6" y="555" text-anchor="middle" fill="#444">-3</text>
<line x1="581.1" y1="540" x2="581.1" y2="543" stroke="#444"/>
<text x="581.1" y="555" text-anchor="middle" fill="#444">-2</text>
<line x1="636.0" y1="540" x2="636.0" y2="543" stroke="#444"/>
<text x="636.0" y="555" text-anchor="middle" fill="#444">0</text>
<line x1="663.5" y1="540" x2="663.5" y2="543" stroke="#444"/>
<text x="663.5" y="555" text-anchor="middle" fill="#444">1</text>
<line x1="690.9" y1="540" x2="690.9" y2="543" stroke="#444"/>
<text x="690.9" y="555" text-anchor="middle" fill="#444">2</text>
<line x1="718.4" y1="540" x2="718.4" y2="543" stroke="#444"/>
<text x="718.4" y="555" text-anchor="middle" fill="#444">3</text>
<line x1="745.8" y1="540" x2="745.8" y2="543" stroke="#444"/>
<text x="745.8" y="555" text-anchor="middle" fill="#444">4</text>
<line x1="773.3" y1="540" x2="773.3" y2="543" stroke="#444"/>
<text x="773.3" y="555" text-anchor="middle" fill="#444">5</text>
<line x1="482" y1="540.0" x2="485" y2="540.0" stroke="#444"/>
<text x="479" y="543.0" text-anchor="end" fill="#444">-3.1</text>
<line x1="482" y1="500.0" x2="485" y2="500.0" stroke="#444"/>
<text x="479" y="503.0" text-anchor="end" fill="#444">-2.2</text>
<line x1="482" y1="460.0" x2="485" y2="460.0" stroke="#444"/>
<text x="479" y="463.0" text-anchor="end" fill="#444">-1.2</text>
<line x1="482" y1="420.0" x2="485" y2="420.0" stroke="#444"/>
<text x="479" y="423.0" text-anchor="end" fill="#444">-0.3</text>
<line x1="482" y1="380.0" x2="485" y2="380.0" stroke="#444"/>
<text x="479" y="383.0" text-anchor="end" fill="#444">0.64</text>
<text x="636.0" y="574" text-anchor="middle" fill="#444">Event time (years from adoption)</text>
<text x="437" y="460.0" text-anchor="middle" fill="#444" transform="rotate(-90 437 460.0)">ATT (per 100k)</text>
<rect x="15" y="620" width="380" height="260" fill="#fafaf7" stroke="#e2e2dc"/>
<text x="205.0" y="638" text-anchor="middle" font-weight="600">Total homicide rate (per 100k)</text>
<line x1="75" y1="699.7254238610581" x2="377" y2="699.7254238610581" stroke="#aaaaaa" stroke-width="0.7"/>
<polygon points="88.7,682.1 116.2,682.8 143.6,670.0 171.1,686.0 226.0,691.6 253.5,671.4 280.9,729.1 308.4,747.8 335.8,692.3 363.3,689.2 363.3,777.7 335.8,765.7 308.4,829.1 280.9,754.5 253.5,830.0 226.0,820.2 171.1,737.7 143.6,768.6 116.2,774.2 88.7,764.8" fill="#1f3a5f" opacity="0.18"/>
<polyline points="88.7,723.5 116.2,728.5 143.6,719.3 171.1,711.9 226.0,755.9 253.5,750.7 280.9,741.8 308.4,788.4 335.8,729.0 363.3,733.5" fill="none" stroke="#1f3a5f" stroke-width="1.6"/>
<circle cx="88.7" cy="723.5" r="2.6" fill="#1f3a5f"/>
<circle cx="116.2" cy="728.5" r="2.6" fill="#1f3a5f"/>
<circle cx="143.6" cy="719.3" r="2.6" fill="#1f3a5f"/>
<circle cx="171.1" cy="711.9" r="2.6" fill="#1f3a5f"/>
<circle cx="226.0" cy="755.9" r="2.6" fill="#1f3a5f"/>
<circle cx="253.5" cy="750.7" r="2.6" fill="#1f3a5f"/>
<circle cx="280.9" cy="741.8" r="2.6" fill="#1f3a5f"/>
<circle cx="308.4" cy="788.4" r="2.6" fill="#1f3a5f"/>
<circle cx="335.8" cy="729.0" r="2.6" fill="#1f3a5f"/>
<circle cx="363.3" cy="733.5" r="2.6" fill="#1f3a5f"/>
<line x1="212.3" y1="670" x2="212.3" y2="830" stroke="#b9461a" stroke-dasharray="3 3"/>
<line x1="75" y1="830" x2="377" y2="830" stroke="#444"/>
<line x1="75" y1="670" x2="75" y2="830" stroke="#444"/>
<line x1="88.7" y1="830" x2="88.7" y2="833" stroke="#444"/>
<text x="88.7" y="845" text-anchor="middle" fill="#444">-5</text>
<line x1="116.2" y1="830" x2="116.2" y2="833" stroke="#444"/>
<text x="116.2" y="845" text-anchor="middle" fill="#444">-4</text>
<line x1="143.6" y1="830" x2="143.6" y2="833" stroke="#444"/>
<text x="143.6" y="845" text-anchor="middle" fill="#444">-3</text>
<line x1="171.1" y1="830" x2="171.1" y2="833" stroke="#444"/>
<text x="171.1" y="845" text-anchor="middle" fill="#444">-2</text>
<line x1="226.0" y1="830" x2="226.0" y2="833" stroke="#444"/>
<text x="226.0" y="845" text-anchor="middle" fill="#444">0</text>
<line x1="253.5" y1="830" x2="253.5" y2="833" stroke="#444"/>
<text x="253.5" y="845" text-anchor="middle" fill="#444">1</text>
<line x1="280.9" y1="830" x2="280.9" y2="833" stroke="#444"/>
<text x="280.9" y="845" text-anchor="middle" fill="#444">2</text>
<line x1="308.4" y1="830" x2="308.4" y2="833" stroke="#444"/>
<text x="308.4" y="845" text-anchor="middle" fill="#444">3</text>
<line x1="335.8" y1="830" x2="335.8" y2="833" stroke="#444"/>
<text x="335.8" y="845" text-anchor="middle" fill="#444">4</text>
<line x1="363.3" y1="830" x2="363.3" y2="833" stroke="#444"/>
<text x="363.3" y="845" text-anchor="middle" fill="#444">5</text>
<line x1="72" y1="830.0" x2="75" y2="830.0" stroke="#444"/>
<text x="69" y="833.0" text-anchor="end" fill="#444">-2.4</text>
<line x1="72" y1="790.0" x2="75" y2="790.0" stroke="#444"/>
<text x="69" y="793.0" text-anchor="end" fill="#444">-1.6</text>
<line x1="72" y1="750.0" x2="75" y2="750.0" stroke="#444"/>
<text x="69" y="753.0" text-anchor="end" fill="#444">-0.91</text>
<line x1="72" y1="710.0" x2="75" y2="710.0" stroke="#444"/>
<text x="69" y="713.0" text-anchor="end" fill="#444">-0.19</text>
<line x1="72" y1="670.0" x2="75" y2="670.0" stroke="#444"/>
<text x="69" y="673.0" text-anchor="end" fill="#444">0.54</text>
<text x="226.0" y="864" text-anchor="middle" fill="#444">Event time (years from adoption)</text>
<text x="27" y="750.0" text-anchor="middle" fill="#444" transform="rotate(-90 27 750.0)">ATT (per 100k)</text>
<rect x="425" y="620" width="380" height="260" fill="#fafaf7" stroke="#e2e2dc"/>
<text x="615.0" y="638" text-anchor="middle" font-weight="600">Motor vehicle theft rate (per 100k) [placebo]</text>
<line x1="485" y1="777.3870821789031" x2="787" y2="777.3870821789031" stroke="#aaaaaa" stroke-width="0.7"/>
<polygon points="498.7,784.4 526.2,776.8 553.6,774.5 581.1,781.9 636.0,708.6 663.5,688.2 690.9,730.3 718.4,694.8 745.8,670.0 773.3,677.5 773.3,796.9 745.8,789.0 718.4,789.5 690.9,789.6 663.5,795.6 636.0,784.5 581.1,828.7 553.6,830.0 526.2,817.8 498.7,817.3" fill="#1f3a5f" opacity="0.18"/>
<polyline points="498.7,800.8 526.2,797.3 553.6,802.3 581.1,805.3 636.0,746.5 663.5,741.9 690.9,759.9 718.4,742.1 745.8,729.5 773.3,737.2" fill="none" stroke="#1f3a5f" stroke-width="1.6"/>
<circle cx="498.7" cy="800.8" r="2.6" fill="#1f3a5f"/>
<circle cx="526.2" cy="797.3" r="2.6" fill="#1f3a5f"/>
<circle cx="553.6" cy="802.3" r="2.6" fill="#1f3a5f"/>
<circle cx="581.1" cy="805.3" r="2.6" fill="#1f3a5f"/>
<circle cx="636.0" cy="746.5" r="2.6" fill="#1f3a5f"/>
<circle cx="663.5" cy="741.9" r="2.6" fill="#1f3a5f"/>
<circle cx="690.9" cy="759.9" r="2.6" fill="#1f3a5f"/>
<circle cx="718.4" cy="742.1" r="2.6" fill="#1f3a5f"/>
<circle cx="745.8" cy="729.5" r="2.6" fill="#1f3a5f"/>
<circle cx="773.3" cy="737.2" r="2.6" fill="#1f3a5f"/>
<line x1="622.3" y1="670" x2="622.3" y2="830" stroke="#b9461a" stroke-dasharray="3 3"/>
<line x1="485" y1="830" x2="787" y2="830" stroke="#444"/>
<line x1="485" y1="670" x2="485" y2="830" stroke="#444"/>
<line x1="498.7" y1="830" x2="498.7" y2="833" stroke="#444"/>
<text x="498.7" y="845" text-anchor="middle" fill="#444">-5</text>
<line x1="526.2" y1="830" x2="526.2" y2="833" stroke="#444"/>
<text x="526.2" y="845" text-anchor="middle" fill="#444">-4</text>
<line x1="553.6" y1="830" x2="553.6" y2="833" stroke="#444"/>
<text x="553.6" y="845" text-anchor="middle" fill="#444">-3</text>
<line x1="581.1" y1="830" x2="581.1" y2="833" stroke="#444"/>
<text x="581.1" y="845" text-anchor="middle" fill="#444">-2</text>
<line x1="636.0" y1="830" x2="636.0" y2="833" stroke="#444"/>
<text x="636.0" y="845" text-anchor="middle" fill="#444">0</text>
<line x1="663.5" y1="830" x2="663.5" y2="833" stroke="#444"/>
<text x="663.5" y="845" text-anchor="middle" fill="#444">1</text>
<line x1="690.9" y1="830" x2="690.9" y2="833" stroke="#444"/>
<text x="690.9" y="845" text-anchor="middle" fill="#444">2</text>
<line x1="718.4" y1="830" x2="718.4" y2="833" stroke="#444"/>
<text x="718.4" y="845" text-anchor="middle" fill="#444">3</text>
<line x1="745.8" y1="830" x2="745.8" y2="833" stroke="#444"/>
<text x="745.8" y="845" text-anchor="middle" fill="#444">4</text>
<line x1="773.3" y1="830" x2="773.3" y2="833" stroke="#444"/>
<text x="773.3" y="845" text-anchor="middle" fill="#444">5</text>
<line x1="482" y1="830.0" x2="485" y2="830.0" stroke="#444"/>
<text x="479" y="833.0" text-anchor="end" fill="#444">-55</text>
<line x1="482" y1="790.0" x2="485" y2="790.0" stroke="#444"/>
<text x="479" y="793.0" text-anchor="end" fill="#444">-13</text>
<line x1="482" y1="750.0" x2="485" y2="750.0" stroke="#444"/>
<text x="479" y="753.0" text-anchor="end" fill="#444">29</text>
<line x1="482" y1="710.0" x2="485" y2="710.0" stroke="#444"/>
<text x="479" y="713.0" text-anchor="end" fill="#444">71</text>
<line x1="482" y1="670.0" x2="485" y2="670.0" stroke="#444"/>
<text x="479" y="673.0" text-anchor="end" fill="#444">1.1e+02</text>
<text x="636.0" y="864" text-anchor="middle" fill="#444">Event time (years from adoption)</text>
<text x="437" y="750.0" text-anchor="middle" fill="#444" transform="rotate(-90 437 750.0)">ATT (per 100k)</text>
<text x="805" y="608" text-anchor="end" fill="#888" font-size="10">Shaded band: pointwise 95% CI from cluster bootstrap. Vertical dashed line marks the year before adoption.</text>
</svg>