<svg xmlns="http://www.w3.org/2000/svg" viewBox="0 0 820 620" font-family="-apple-system, Segoe UI, Helvetica, Arial, sans-serif" font-size="11">
<text x="410.0" y="22" text-anchor="middle" font-size="14" font-weight="600">Callaway-Sant'Anna ATT by event time (UNWEIGHTED) -- stacked DiD (red_flag)</text>
<rect x="15" y="40" width="380" height="260" fill="#fafaf7" stroke="#e2e2dc"/>
<text x="205.0" y="58" text-anchor="middle" font-weight="600">Firearm suicide rate (per 100k)</text>
<line x1="75" y1="165.55120488784615" x2="377" y2="165.55120488784615" stroke="#aaaaaa" stroke-width="0.7"/>
<polygon points="88.7,90.0 116.2,105.3 143.6,137.9 171.1,134.7 198.5,165.6 226.0,163.5 253.5,155.0 280.9,163.0 308.4,158.5 335.8,174.7 363.3,179.4 363.3,250.0 335.8,211.9 308.4,198.4 280.9,208.5 253.5,202.1 226.0,190.0 198.5,165.6 171.1,173.9 143.6,180.3 116.2,152.1 88.7,142.4" fill="#1f3a5f" opacity="0.18"/>
<polyline points="88.7,116.2 116.2,128.7 143.6,159.1 171.1,154.3 198.5,165.6 226.0,176.7 253.5,178.5 280.9,185.7 308.4,178.5 335.8,193.3 363.3,214.7" fill="none" stroke="#1f3a5f" stroke-width="1.6"/>
<circle cx="88.7" cy="116.2" r="2.6" fill="#1f3a5f"/>
<circle cx="116.2" cy="128.7" r="2.6" fill="#1f3a5f"/>
<circle cx="143.6" cy="159.1" r="2.6" fill="#1f3a5f"/>
<circle cx="171.1" cy="154.3" r="2.6" fill="#1f3a5f"/>
<circle cx="198.5" cy="165.6" r="2.6" fill="#1f3a5f"/>
<circle cx="226.0" cy="176.7" r="2.6" fill="#1f3a5f"/>
<circle cx="253.5" cy="178.5" r="2.6" fill="#1f3a5f"/>
<circle cx="280.9" cy="185.7" r="2.6" fill="#1f3a5f"/>
<circle cx="308.4" cy="178.5" r="2.6" fill="#1f3a5f"/>
<circle cx="335.8" cy="193.3" r="2.6" fill="#1f3a5f"/>
<circle cx="363.3" cy="214.7" r="2.6" fill="#1f3a5f"/>
<line x1="212.3" y1="90" x2="212.3" y2="250" stroke="#b9461a" stroke-dasharray="3 3"/>
<line x1="75" y1="250" x2="377" y2="250" stroke="#444"/>
<line x1="75" y1="90" x2="75" y2="250" stroke="#444"/>
<line x1="88.7" y1="250" x2="88.7" y2="253" stroke="#444"/>
<text x="88.7" y="265" text-anchor="middle" fill="#444">-5</text>
<line x1="116.2" y1="250" x2="116.2" y2="253" stroke="#444"/>
<text x="116.2" y="265" text-anchor="middle" fill="#444">-4</text>
<line x1="143.6" y1="250" x2="143.6" y2="253" stroke="#444"/>
<text x="143.6" y="265" text-anchor="middle" fill="#444">-3</text>
<line x1="171.1" y1="250" x2="171.1" y2="253" stroke="#444"/>
<text x="171.1" y="265" text-anchor="middle" fill="#444">-2</text>
<line x1="198.5" y1="250" x2="198.5" y2="253" stroke="#444"/>
<text x="198.5" y="265" text-anchor="middle" fill="#444">-1</text>
<line x1="226.0" y1="250" x2="226.0" y2="253" stroke="#444"/>
<text x="226.0" y="265" text-anchor="middle" fill="#444">0</text>
<line x1="253.5" y1="250" x2="253.5" y2="253" stroke="#444"/>
<text x="253.5" y="265" text-anchor="middle" fill="#444">1</text>
<line x1="280.9" y1="250" x2="280.9" y2="253" stroke="#444"/>
<text x="280.9" y="265" text-anchor="middle" fill="#444">2</text>
<line x1="308.4" y1="250" x2="308.4" y2="253" stroke="#444"/>
<text x="308.4" y="265" text-anchor="middle" fill="#444">3</text>
<line x1="335.8" y1="250" x2="335.8" y2="253" stroke="#444"/>
<text x="335.8" y="265" text-anchor="middle" fill="#444">4</text>
<line x1="363.3" y1="250" x2="363.3" y2="253" stroke="#444"/>
<text x="363.3" y="265" text-anchor="middle" fill="#444">5</text>
<line x1="72" y1="250.0" x2="75" y2="250.0" stroke="#444"/>
<text x="69" y="253.0" text-anchor="end" fill="#444">-1.4</text>
<line x1="72" y1="210.0" x2="75" y2="210.0" stroke="#444"/>
<text x="69" y="213.0" text-anchor="end" fill="#444">-0.75</text>
<line x1="72" y1="170.0" x2="75" y2="170.0" stroke="#444"/>
<text x="69" y="173.0" text-anchor="end" fill="#444">-0.075</text>
<line x1="72" y1="130.0" x2="75" y2="130.0" stroke="#444"/>
<text x="69" y="133.0" text-anchor="end" fill="#444">0.6</text>
<line x1="72" y1="90.0" x2="75" y2="90.0" stroke="#444"/>
<text x="69" y="93.0" text-anchor="end" fill="#444">1.3</text>
<text x="226.0" y="284" text-anchor="middle" fill="#444">Event time (years from adoption)</text>
<text x="27" y="170.0" text-anchor="middle" fill="#444" transform="rotate(-90 27 170.0)">ATT (per 100k)</text>
<rect x="425" y="40" width="380" height="260" fill="#fafaf7" stroke="#e2e2dc"/>
<text x="615.0" y="58" text-anchor="middle" font-weight="600">Non-firearm suicide rate (per 100k) [substitution test]</text>
<line x1="485" y1="171.21082645724942" x2="787" y2="171.21082645724942" stroke="#aaaaaa" stroke-width="0.7"/>
<polygon points="498.7,90.0 526.2,108.6 553.6,104.1 581.1,130.1 608.5,171.2 636.0,127.9 663.5,140.4 690.9,93.2 718.4,154.7 745.8,155.0 773.3,110.0 773.3,188.6 745.8,237.8 718.4,218.3 690.9,215.5 663.5,209.7 636.0,231.5 608.5,171.2 581.1,250.0 553.6,208.0 526.2,249.1 498.7,187.2" fill="#1f3a5f" opacity="0.18"/>
<polyline points="498.7,138.6 526.2,178.9 553.6,156.0 581.1,190.1 608.5,171.2 636.0,179.7 663.5,175.0 690.9,154.4 718.4,186.5 745.8,196.4 773.3,149.3" fill="none" stroke="#1f3a5f" stroke-width="1.6"/>
<circle cx="498.7" cy="138.6" r="2.6" fill="#1f3a5f"/>
<circle cx="526.2" cy="178.9" r="2.6" fill="#1f3a5f"/>
<circle cx="553.6" cy="156.0" r="2.6" fill="#1f3a5f"/>
<circle cx="581.1" cy="190.1" r="2.6" fill="#1f3a5f"/>
<circle cx="608.5" cy="171.2" r="2.6" fill="#1f3a5f"/>
<circle cx="636.0" cy="179.7" r="2.6" fill="#1f3a5f"/>
<circle cx="663.5" cy="175.0" r="2.6" fill="#1f3a5f"/>
<circle cx="690.9" cy="154.4" r="2.6" fill="#1f3a5f"/>
<circle cx="718.4" cy="186.5" r="2.6" fill="#1f3a5f"/>
<circle cx="745.8" cy="196.4" r="2.6" fill="#1f3a5f"/>
<circle cx="773.3" cy="149.3" r="2.6" fill="#1f3a5f"/>
<line x1="622.3" y1="90" x2="622.3" y2="250" stroke="#b9461a" stroke-dasharray="3 3"/>
<line x1="485" y1="250" x2="787" y2="250" stroke="#444"/>
<line x1="485" y1="90" x2="485" y2="250" stroke="#444"/>
<line x1="498.7" y1="250" x2="498.7" y2="253" stroke="#444"/>
<text x="498.7" y="265" text-anchor="middle" fill="#444">-5</text>
<line x1="526.2" y1="250" x2="526.2" y2="253" stroke="#444"/>
<text x="526.2" y="265" text-anchor="middle" fill="#444">-4</text>
<line x1="553.6" y1="250" x2="553.6" y2="253" stroke="#444"/>
<text x="553.6" y="265" text-anchor="middle" fill="#444">-3</text>
<line x1="581.1" y1="250" x2="581.1" y2="253" stroke="#444"/>
<text x="581.1" y="265" text-anchor="middle" fill="#444">-2</text>
<line x1="608.5" y1="250" x2="608.5" y2="253" stroke="#444"/>
<text x="608.5" y="265" text-anchor="middle" fill="#444">-1</text>
<line x1="636.0" y1="250" x2="636.0" y2="253" stroke="#444"/>
<text x="636.0" y="265" text-anchor="middle" fill="#444">0</text>
<line x1="663.5" y1="250" x2="663.5" y2="253" stroke="#444"/>
<text x="663.5" y="265" text-anchor="middle" fill="#444">1</text>
<line x1="690.9" y1="250" x2="690.9" y2="253" stroke="#444"/>
<text x="690.9" y="265" text-anchor="middle" fill="#444">2</text>
<line x1="718.4" y1="250" x2="718.4" y2="253" stroke="#444"/>
<text x="718.4" y="265" text-anchor="middle" fill="#444">3</text>
<line x1="745.8" y1="250" x2="745.8" y2="253" stroke="#444"/>
<text x="745.8" y="265" text-anchor="middle" fill="#444">4</text>
<line x1="773.3" y1="250" x2="773.3" y2="253" stroke="#444"/>
<text x="773.3" y="265" text-anchor="middle" fill="#444">5</text>
<line x1="482" y1="250.0" x2="485" y2="250.0" stroke="#444"/>
<text x="479" y="253.0" text-anchor="end" fill="#444">-0.63</text>
<line x1="482" y1="210.0" x2="485" y2="210.0" stroke="#444"/>
<text x="479" y="213.0" text-anchor="end" fill="#444">-0.31</text>
<line x1="482" y1="170.0" x2="485" y2="170.0" stroke="#444"/>
<text x="479" y="173.0" text-anchor="end" fill="#444">0.0096</text>
<line x1="482" y1="130.0" x2="485" y2="130.0" stroke="#444"/>
<text x="479" y="133.0" text-anchor="end" fill="#444">0.33</text>
<line x1="482" y1="90.0" x2="485" y2="90.0" stroke="#444"/>
<text x="479" y="93.0" text-anchor="end" fill="#444">0.64</text>
<text x="636.0" y="284" text-anchor="middle" fill="#444">Event time (years from adoption)</text>
<text x="437" y="170.0" text-anchor="middle" fill="#444" transform="rotate(-90 437 170.0)">ATT (per 100k)</text>
<rect x="15" y="330" width="380" height="260" fill="#fafaf7" stroke="#e2e2dc"/>
<text x="205.0" y="348" text-anchor="middle" font-weight="600">Total suicide rate (per 100k) [net effect]</text>
<line x1="75" y1="466.1118299916709" x2="377" y2="466.1118299916709" stroke="#aaaaaa" stroke-width="0.7"/>
<polygon points="88.7,380.0 116.2,401.1 143.6,436.1 171.1,431.9 198.5,466.1 226.0,455.5 253.5,450.1 280.9,444.7 308.4,460.3 335.8,477.4 363.3,457.3 363.3,540.0 335.8,521.1 308.4,505.6 280.9,508.1 253.5,506.9 226.0,502.1 198.5,466.1 171.1,496.2 143.6,473.4 116.2,475.5 88.7,443.9" fill="#1f3a5f" opacity="0.18"/>
<polyline points="88.7,412.0 116.2,438.3 143.6,454.8 171.1,464.1 198.5,466.1 226.0,478.8 253.5,478.5 280.9,476.4 308.4,482.9 335.8,499.2 363.3,498.7" fill="none" stroke="#1f3a5f" stroke-width="1.6"/>
<circle cx="88.7" cy="412.0" r="2.6" fill="#1f3a5f"/>
<circle cx="116.2" cy="438.3" r="2.6" fill="#1f3a5f"/>
<circle cx="143.6" cy="454.8" r="2.6" fill="#1f3a5f"/>
<circle cx="171.1" cy="464.1" r="2.6" fill="#1f3a5f"/>
<circle cx="198.5" cy="466.1" r="2.6" fill="#1f3a5f"/>
<circle cx="226.0" cy="478.8" r="2.6" fill="#1f3a5f"/>
<circle cx="253.5" cy="478.5" r="2.6" fill="#1f3a5f"/>
<circle cx="280.9" cy="476.4" r="2.6" fill="#1f3a5f"/>
<circle cx="308.4" cy="482.9" r="2.6" fill="#1f3a5f"/>
<circle cx="335.8" cy="499.2" r="2.6" fill="#1f3a5f"/>
<circle cx="363.3" cy="498.7" r="2.6" fill="#1f3a5f"/>
<line x1="212.3" y1="380" x2="212.3" y2="540" stroke="#b9461a" stroke-dasharray="3 3"/>
<line x1="75" y1="540" x2="377" y2="540" stroke="#444"/>
<line x1="75" y1="380" x2="75" y2="540" stroke="#444"/>
<line x1="88.7" y1="540" x2="88.7" y2="543" stroke="#444"/>
<text x="88.7" y="555" text-anchor="middle" fill="#444">-5</text>
<line x1="116.2" y1="540" x2="116.2" y2="543" stroke="#444"/>
<text x="116.2" y="555" text-anchor="middle" fill="#444">-4</text>
<line x1="143.6" y1="540" x2="143.6" y2="543" stroke="#444"/>
<text x="143.6" y="555" text-anchor="middle" fill="#444">-3</text>
<line x1="171.1" y1="540" x2="171.1" y2="543" stroke="#444"/>
<text x="171.1" y="555" text-anchor="middle" fill="#444">-2</text>
<line x1="198.5" y1="540" x2="198.5" y2="543" stroke="#444"/>
<text x="198.5" y="555" text-anchor="middle" fill="#444">-1</text>
<line x1="226.0" y1="540" x2="226.0" y2="543" stroke="#444"/>
<text x="226.0" y="555" text-anchor="middle" fill="#444">0</text>
<line x1="253.5" y1="540" x2="253.5" y2="543" stroke="#444"/>
<text x="253.5" y="555" text-anchor="middle" fill="#444">1</text>
<line x1="280.9" y1="540" x2="280.9" y2="543" stroke="#444"/>
<text x="280.9" y="555" text-anchor="middle" fill="#444">2</text>
<line x1="308.4" y1="540" x2="308.4" y2="543" stroke="#444"/>
<text x="308.4" y="555" text-anchor="middle" fill="#444">3</text>
<line x1="335.8" y1="540" x2="335.8" y2="543" stroke="#444"/>
<text x="335.8" y="555" text-anchor="middle" fill="#444">4</text>
<line x1="363.3" y1="540" x2="363.3" y2="543" stroke="#444"/>
<text x="363.3" y="555" text-anchor="middle" fill="#444">5</text>
<line x1="72" y1="540.0" x2="75" y2="540.0" stroke="#444"/>
<text x="69" y="543.0" text-anchor="end" fill="#444">-1.5</text>
<line x1="72" y1="500.0" x2="75" y2="500.0" stroke="#444"/>
<text x="69" y="503.0" text-anchor="end" fill="#444">-0.68</text>
<line x1="72" y1="460.0" x2="75" y2="460.0" stroke="#444"/>
<text x="69" y="463.0" text-anchor="end" fill="#444">0.12</text>
<line x1="72" y1="420.0" x2="75" y2="420.0" stroke="#444"/>
<text x="69" y="423.0" text-anchor="end" fill="#444">0.93</text>
<line x1="72" y1="380.0" x2="75" y2="380.0" stroke="#444"/>
<text x="69" y="383.0" text-anchor="end" fill="#444">1.7</text>
<text x="226.0" y="574" text-anchor="middle" fill="#444">Event time (years from adoption)</text>
<text x="27" y="460.0" text-anchor="middle" fill="#444" transform="rotate(-90 27 460.0)">ATT (per 100k)</text>
<rect x="425" y="330" width="380" height="260" fill="#fafaf7" stroke="#e2e2dc"/>
<text x="615.0" y="348" text-anchor="middle" font-weight="600">Firearm homicide rate (per 100k)</text>
<line x1="485" y1="447.16044574633304" x2="787" y2="447.16044574633304" stroke="#aaaaaa" stroke-width="0.7"/>
<polygon points="498.7,380.0 526.2,389.8 553.6,393.7 581.1,406.3 608.5,447.2 636.0,446.8 663.5,439.9 690.9,426.8 718.4,426.8 745.8,455.8 773.3,457.7 773.3,540.0 745.8,523.6 718.4,495.7 690.9,495.4 663.5,481.4 636.0,481.2 608.5,447.2 581.1,444.3 553.6,443.3 526.2,459.1 498.7,449.9" fill="#1f3a5f" opacity="0.18"/>
<polyline points="498.7,415.0 526.2,424.5 553.6,418.5 581.1,425.3 608.5,447.2 636.0,464.0 663.5,460.7 690.9,461.1 718.4,461.3 745.8,489.7 773.3,498.9" fill="none" stroke="#1f3a5f" stroke-width="1.6"/>
<circle cx="498.7" cy="415.0" r="2.6" fill="#1f3a5f"/>
<circle cx="526.2" cy="424.5" r="2.6" fill="#1f3a5f"/>
<circle cx="553.6" cy="418.5" r="2.6" fill="#1f3a5f"/>
<circle cx="581.1" cy="425.3" r="2.6" fill="#1f3a5f"/>
<circle cx="608.5" cy="447.2" r="2.6" fill="#1f3a5f"/>
<circle cx="636.0" cy="464.0" r="2.6" fill="#1f3a5f"/>
<circle cx="663.5" cy="460.7" r="2.6" fill="#1f3a5f"/>
<circle cx="690.9" cy="461.1" r="2.6" fill="#1f3a5f"/>
<circle cx="718.4" cy="461.3" r="2.6" fill="#1f3a5f"/>
<circle cx="745.8" cy="489.7" r="2.6" fill="#1f3a5f"/>
<circle cx="773.3" cy="498.9" r="2.6" fill="#1f3a5f"/>
<line x1="622.3" y1="380" x2="622.3" y2="540" stroke="#b9461a" stroke-dasharray="3 3"/>
<line x1="485" y1="540" x2="787" y2="540" stroke="#444"/>
<line x1="485" y1="380" x2="485" y2="540" stroke="#444"/>
<line x1="498.7" y1="540" x2="498.7" y2="543" stroke="#444"/>
<text x="498.7" y="555" text-anchor="middle" fill="#444">-5</text>
<line x1="526.2" y1="540" x2="526.2" y2="543" stroke="#444"/>
<text x="526.2" y="555" text-anchor="middle" fill="#444">-4</text>
<line x1="553.6" y1="540" x2="553.6" y2="543" stroke="#444"/>
<text x="553.6" y="555" text-anchor="middle" fill="#444">-3</text>
<line x1="581.1" y1="540" x2="581.1" y2="543" stroke="#444"/>
<text x="581.1" y="555" text-anchor="middle" fill="#444">-2</text>
<line x1="608.5" y1="540" x2="608.5" y2="543" stroke="#444"/>
<text x="608.5" y="555" text-anchor="middle" fill="#444">-1</text>
<line x1="636.0" y1="540" x2="636.0" y2="543" stroke="#444"/>
<text x="636.0" y="555" text-anchor="middle" fill="#444">0</text>
<line x1="663.5" y1="540" x2="663.5" y2="543" stroke="#444"/>
<text x="663.5" y="555" text-anchor="middle" fill="#444">1</text>
<line x1="690.9" y1="540" x2="690.9" y2="543" stroke="#444"/>
<text x="690.9" y="555" text-anchor="middle" fill="#444">2</text>
<line x1="718.4" y1="540" x2="718.4" y2="543" stroke="#444"/>
<text x="718.4" y="555" text-anchor="middle" fill="#444">3</text>
<line x1="745.8" y1="540" x2="745.8" y2="543" stroke="#444"/>
<text x="745.8" y="555" text-anchor="middle" fill="#444">4</text>
<line x1="773.3" y1="540" x2="773.3" y2="543" stroke="#444"/>
<text x="773.3" y="555" text-anchor="middle" fill="#444">5</text>
<line x1="482" y1="540.0" x2="485" y2="540.0" stroke="#444"/>
<text x="479" y="543.0" text-anchor="end" fill="#444">-1.6</text>
<line x1="482" y1="500.0" x2="485" y2="500.0" stroke="#444"/>
<text x="479" y="503.0" text-anchor="end" fill="#444">-0.94</text>
<line x1="482" y1="460.0" x2="485" y2="460.0" stroke="#444"/>
<text x="479" y="463.0" text-anchor="end" fill="#444">-0.23</text>
<line x1="482" y1="420.0" x2="485" y2="420.0" stroke="#444"/>
<text x="479" y="423.0" text-anchor="end" fill="#444">0.48</text>
<line x1="482" y1="380.0" x2="485" y2="380.0" stroke="#444"/>
<text x="479" y="383.0" text-anchor="end" fill="#444">1.2</text>
<text x="636.0" y="574" text-anchor="middle" fill="#444">Event time (years from adoption)</text>
<text x="437" y="460.0" text-anchor="middle" fill="#444" transform="rotate(-90 437 460.0)">ATT (per 100k)</text>
<rect x="15" y="620" width="380" height="260" fill="#fafaf7" stroke="#e2e2dc"/>
<text x="205.0" y="638" text-anchor="middle" font-weight="600">Total homicide rate (per 100k)</text>
<line x1="75" y1="745.6347223945944" x2="377" y2="745.6347223945944" stroke="#aaaaaa" stroke-width="0.7"/>
<polygon points="88.7,697.4 116.2,688.6 143.6,670.0 171.1,706.9 198.5,745.6 226.0,743.7 253.5,737.2 280.9,731.3 308.4,692.8 335.8,753.0 363.3,729.8 363.3,830.0 335.8,828.6 308.4,785.1 280.9,796.1 253.5,791.4 226.0,791.1 198.5,745.6 171.1,757.0 143.6,736.0 116.2,758.8 88.7,766.8" fill="#1f3a5f" opacity="0.18"/>
<polyline points="88.7,732.1 116.2,723.7 143.6,703.0 171.1,731.9 198.5,745.6 226.0,767.4 253.5,764.3 280.9,763.7 308.4,738.9 335.8,790.8 363.3,779.9" fill="none" stroke="#1f3a5f" stroke-width="1.6"/>
<circle cx="88.7" cy="732.1" r="2.6" fill="#1f3a5f"/>
<circle cx="116.2" cy="723.7" r="2.6" fill="#1f3a5f"/>
<circle cx="143.6" cy="703.0" r="2.6" fill="#1f3a5f"/>
<circle cx="171.1" cy="731.9" r="2.6" fill="#1f3a5f"/>
<circle cx="198.5" cy="745.6" r="2.6" fill="#1f3a5f"/>
<circle cx="226.0" cy="767.4" r="2.6" fill="#1f3a5f"/>
<circle cx="253.5" cy="764.3" r="2.6" fill="#1f3a5f"/>
<circle cx="280.9" cy="763.7" r="2.6" fill="#1f3a5f"/>
<circle cx="308.4" cy="738.9" r="2.6" fill="#1f3a5f"/>
<circle cx="335.8" cy="790.8" r="2.6" fill="#1f3a5f"/>
<circle cx="363.3" cy="779.9" r="2.6" fill="#1f3a5f"/>
<line x1="212.3" y1="670" x2="212.3" y2="830" stroke="#b9461a" stroke-dasharray="3 3"/>
<line x1="75" y1="830" x2="377" y2="830" stroke="#444"/>
<line x1="75" y1="670" x2="75" y2="830" stroke="#444"/>
<line x1="88.7" y1="830" x2="88.7" y2="833" stroke="#444"/>
<text x="88.7" y="845" text-anchor="middle" fill="#444">-5</text>
<line x1="116.2" y1="830" x2="116.2" y2="833" stroke="#444"/>
<text x="116.2" y="845" text-anchor="middle" fill="#444">-4</text>
<line x1="143.6" y1="830" x2="143.6" y2="833" stroke="#444"/>
<text x="143.6" y="845" text-anchor="middle" fill="#444">-3</text>
<line x1="171.1" y1="830" x2="171.1" y2="833" stroke="#444"/>
<text x="171.1" y="845" text-anchor="middle" fill="#444">-2</text>
<line x1="198.5" y1="830" x2="198.5" y2="833" stroke="#444"/>
<text x="198.5" y="845" text-anchor="middle" fill="#444">-1</text>
<line x1="226.0" y1="830" x2="226.0" y2="833" stroke="#444"/>
<text x="226.0" y="845" text-anchor="middle" fill="#444">0</text>
<line x1="253.5" y1="830" x2="253.5" y2="833" stroke="#444"/>
<text x="253.5" y="845" text-anchor="middle" fill="#444">1</text>
<line x1="280.9" y1="830" x2="280.9" y2="833" stroke="#444"/>
<text x="280.9" y="845" text-anchor="middle" fill="#444">2</text>
<line x1="308.4" y1="830" x2="308.4" y2="833" stroke="#444"/>
<text x="308.4" y="845" text-anchor="middle" fill="#444">3</text>
<line x1="335.8" y1="830" x2="335.8" y2="833" stroke="#444"/>
<text x="335.8" y="845" text-anchor="middle" fill="#444">4</text>
<line x1="363.3" y1="830" x2="363.3" y2="833" stroke="#444"/>
<text x="363.3" y="845" text-anchor="middle" fill="#444">5</text>
<line x1="72" y1="830.0" x2="75" y2="830.0" stroke="#444"/>
<text x="69" y="833.0" text-anchor="end" fill="#444">-1.3</text>
<line x1="72" y1="790.0" x2="75" y2="790.0" stroke="#444"/>
<text x="69" y="793.0" text-anchor="end" fill="#444">-0.69</text>
<line x1="72" y1="750.0" x2="75" y2="750.0" stroke="#444"/>
<text x="69" y="753.0" text-anchor="end" fill="#444">-0.068</text>
<line x1="72" y1="710.0" x2="75" y2="710.0" stroke="#444"/>
<text x="69" y="713.0" text-anchor="end" fill="#444">0.55</text>
<line x1="72" y1="670.0" x2="75" y2="670.0" stroke="#444"/>
<text x="69" y="673.0" text-anchor="end" fill="#444">1.2</text>
<text x="226.0" y="864" text-anchor="middle" fill="#444">Event time (years from adoption)</text>
<text x="27" y="750.0" text-anchor="middle" fill="#444" transform="rotate(-90 27 750.0)">ATT (per 100k)</text>
<rect x="425" y="620" width="380" height="260" fill="#fafaf7" stroke="#e2e2dc"/>
<text x="615.0" y="638" text-anchor="middle" font-weight="600">Motor vehicle theft rate (per 100k) [placebo]</text>
<line x1="485" y1="787.1525763583097" x2="787" y2="787.1525763583097" stroke="#aaaaaa" stroke-width="0.7"/>
<polygon points="498.7,771.6 526.2,769.3 553.6,780.8 581.1,780.8 608.5,787.2 636.0,784.8 663.5,781.2 690.9,750.5 718.4,703.5 745.8,715.3 773.3,670.0 773.3,804.6 745.8,796.2 718.4,807.7 690.9,818.1 663.5,805.7 636.0,823.0 608.5,787.2 581.1,814.7 553.6,819.2 526.2,816.8 498.7,830.0" fill="#1f3a5f" opacity="0.18"/>
<polyline points="498.7,800.8 526.2,793.0 553.6,800.0 581.1,797.7 608.5,787.2 636.0,803.9 663.5,793.5 690.9,784.3 718.4,755.6 745.8,755.8 773.3,737.3" fill="none" stroke="#1f3a5f" stroke-width="1.6"/>
<circle cx="498.7" cy="800.8" r="2.6" fill="#1f3a5f"/>
<circle cx="526.2" cy="793.0" r="2.6" fill="#1f3a5f"/>
<circle cx="553.6" cy="800.0" r="2.6" fill="#1f3a5f"/>
<circle cx="581.1" cy="797.7" r="2.6" fill="#1f3a5f"/>
<circle cx="608.5" cy="787.2" r="2.6" fill="#1f3a5f"/>
<circle cx="636.0" cy="803.9" r="2.6" fill="#1f3a5f"/>
<circle cx="663.5" cy="793.5" r="2.6" fill="#1f3a5f"/>
<circle cx="690.9" cy="784.3" r="2.6" fill="#1f3a5f"/>
<circle cx="718.4" cy="755.6" r="2.6" fill="#1f3a5f"/>
<circle cx="745.8" cy="755.8" r="2.6" fill="#1f3a5f"/>
<circle cx="773.3" cy="737.3" r="2.6" fill="#1f3a5f"/>
<line x1="622.3" y1="670" x2="622.3" y2="830" stroke="#b9461a" stroke-dasharray="3 3"/>
<line x1="485" y1="830" x2="787" y2="830" stroke="#444"/>
<line x1="485" y1="670" x2="485" y2="830" stroke="#444"/>
<line x1="498.7" y1="830" x2="498.7" y2="833" stroke="#444"/>
<text x="498.7" y="845" text-anchor="middle" fill="#444">-5</text>
<line x1="526.2" y1="830" x2="526.2" y2="833" stroke="#444"/>
<text x="526.2" y="845" text-anchor="middle" fill="#444">-4</text>
<line x1="553.6" y1="830" x2="553.6" y2="833" stroke="#444"/>
<text x="553.6" y="845" text-anchor="middle" fill="#444">-3</text>
<line x1="581.1" y1="830" x2="581.1" y2="833" stroke="#444"/>
<text x="581.1" y="845" text-anchor="middle" fill="#444">-2</text>
<line x1="608.5" y1="830" x2="608.5" y2="833" stroke="#444"/>
<text x="608.5" y="845" text-anchor="middle" fill="#444">-1</text>
<line x1="636.0" y1="830" x2="636.0" y2="833" stroke="#444"/>
<text x="636.0" y="845" text-anchor="middle" fill="#444">0</text>
<line x1="663.5" y1="830" x2="663.5" y2="833" stroke="#444"/>
<text x="663.5" y="845" text-anchor="middle" fill="#444">1</text>
<line x1="690.9" y1="830" x2="690.9" y2="833" stroke="#444"/>
<text x="690.9" y="845" text-anchor="middle" fill="#444">2</text>
<line x1="718.4" y1="830" x2="718.4" y2="833" stroke="#444"/>
<text x="718.4" y="845" text-anchor="middle" fill="#444">3</text>
<line x1="745.8" y1="830" x2="745.8" y2="833" stroke="#444"/>
<text x="745.8" y="845" text-anchor="middle" fill="#444">4</text>
<line x1="773.3" y1="830" x2="773.3" y2="833" stroke="#444"/>
<text x="773.3" y="845" text-anchor="middle" fill="#444">5</text>
<line x1="482" y1="830.0" x2="485" y2="830.0" stroke="#444"/>
<text x="479" y="833.0" text-anchor="end" fill="#444">-58</text>
<line x1="482" y1="790.0" x2="485" y2="790.0" stroke="#444"/>
<text x="479" y="793.0" text-anchor="end" fill="#444">-3.8</text>
<line x1="482" y1="750.0" x2="485" y2="750.0" stroke="#444"/>
<text x="479" y="753.0" text-anchor="end" fill="#444">50</text>
<line x1="482" y1="710.0" x2="485" y2="710.0" stroke="#444"/>
<text x="479" y="713.0" text-anchor="end" fill="#444">1e+02</text>
<line x1="482" y1="670.0" x2="485" y2="670.0" stroke="#444"/>
<text x="479" y="673.0" text-anchor="end" fill="#444">1.6e+02</text>
<text x="636.0" y="864" text-anchor="middle" fill="#444">Event time (years from adoption)</text>
<text x="437" y="750.0" text-anchor="middle" fill="#444" transform="rotate(-90 437 750.0)">ATT (per 100k)</text>
<text x="805" y="608" text-anchor="end" fill="#888" font-size="10">Shaded band: pointwise 95% CI from cluster bootstrap. Vertical dashed line marks the year before adoption.</text>
</svg>