<svg xmlns="http://www.w3.org/2000/svg" viewBox="0 0 820 910" font-family="-apple-system, Segoe UI, Helvetica, Arial, sans-serif" font-size="11">
<text x="410.0" y="22" text-anchor="middle" font-size="14" font-weight="600">Spatial RDD event study (permitless_carry, primary outcomes)</text>
<rect x="15" y="40" width="380" height="260" fill="#fafaf7" stroke="#e2e2dc"/>
<text x="205.0" y="58" text-anchor="middle" font-weight="600">County violent crime rate (per 100,000)</text>
<line x1="75" y1="184.1588558366371" x2="377" y2="184.1588558366371" stroke="#aaaaaa" stroke-width="0.7"/>
<polygon points="88.7,152.9 116.2,104.4 143.6,153.3 171.1,179.5 198.5,184.2 226.0,137.8 253.5,145.2 280.9,161.3 308.4,179.9 335.8,90.0 363.3,117.0 363.3,231.3 335.8,205.9 308.4,238.8 280.9,218.3 253.5,197.4 226.0,189.8 198.5,184.2 171.1,250.0 143.6,228.2 116.2,188.5 88.7,216.5" fill="#1f3a5f" opacity="0.18"/>
<polyline points="88.7,184.7 116.2,146.5 143.6,190.7 171.1,214.8 198.5,184.2 226.0,163.8 253.5,171.3 280.9,189.8 308.4,209.4 335.8,148.0 363.3,174.2" fill="none" stroke="#1f3a5f" stroke-width="1.6"/>
<circle cx="88.7" cy="184.7" r="2.6" fill="#1f3a5f"/>
<circle cx="116.2" cy="146.5" r="2.6" fill="#1f3a5f"/>
<circle cx="143.6" cy="190.7" r="2.6" fill="#1f3a5f"/>
<circle cx="171.1" cy="214.8" r="2.6" fill="#1f3a5f"/>
<circle cx="198.5" cy="184.2" r="2.6" fill="#1f3a5f"/>
<circle cx="226.0" cy="163.8" r="2.6" fill="#1f3a5f"/>
<circle cx="253.5" cy="171.3" r="2.6" fill="#1f3a5f"/>
<circle cx="280.9" cy="189.8" r="2.6" fill="#1f3a5f"/>
<circle cx="308.4" cy="209.4" r="2.6" fill="#1f3a5f"/>
<circle cx="335.8" cy="148.0" r="2.6" fill="#1f3a5f"/>
<circle cx="363.3" cy="174.2" r="2.6" fill="#1f3a5f"/>
<line x1="212.3" y1="90" x2="212.3" y2="250" stroke="#b9461a" stroke-dasharray="3 3"/>
<line x1="75" y1="250" x2="377" y2="250" stroke="#444"/>
<line x1="75" y1="90" x2="75" y2="250" stroke="#444"/>
<line x1="88.7" y1="250" x2="88.7" y2="253" stroke="#444"/>
<text x="88.7" y="265" text-anchor="middle" fill="#444">-5</text>
<line x1="116.2" y1="250" x2="116.2" y2="253" stroke="#444"/>
<text x="116.2" y="265" text-anchor="middle" fill="#444">-4</text>
<line x1="143.6" y1="250" x2="143.6" y2="253" stroke="#444"/>
<text x="143.6" y="265" text-anchor="middle" fill="#444">-3</text>
<line x1="171.1" y1="250" x2="171.1" y2="253" stroke="#444"/>
<text x="171.1" y="265" text-anchor="middle" fill="#444">-2</text>
<line x1="198.5" y1="250" x2="198.5" y2="253" stroke="#444"/>
<text x="198.5" y="265" text-anchor="middle" fill="#444">-1</text>
<line x1="226.0" y1="250" x2="226.0" y2="253" stroke="#444"/>
<text x="226.0" y="265" text-anchor="middle" fill="#444">0</text>
<line x1="253.5" y1="250" x2="253.5" y2="253" stroke="#444"/>
<text x="253.5" y="265" text-anchor="middle" fill="#444">1</text>
<line x1="280.9" y1="250" x2="280.9" y2="253" stroke="#444"/>
<text x="280.9" y="265" text-anchor="middle" fill="#444">2</text>
<line x1="308.4" y1="250" x2="308.4" y2="253" stroke="#444"/>
<text x="308.4" y="265" text-anchor="middle" fill="#444">3</text>
<line x1="335.8" y1="250" x2="335.8" y2="253" stroke="#444"/>
<text x="335.8" y="265" text-anchor="middle" fill="#444">4</text>
<line x1="363.3" y1="250" x2="363.3" y2="253" stroke="#444"/>
<text x="363.3" y="265" text-anchor="middle" fill="#444">5</text>
<line x1="72" y1="250.0" x2="75" y2="250.0" stroke="#444"/>
<text x="69" y="253.0" text-anchor="end" fill="#444">-20</text>
<line x1="72" y1="210.0" x2="75" y2="210.0" stroke="#444"/>
<text x="69" y="213.0" text-anchor="end" fill="#444">-7.7</text>
<line x1="72" y1="170.0" x2="75" y2="170.0" stroke="#444"/>
<text x="69" y="173.0" text-anchor="end" fill="#444">4.2</text>
<line x1="72" y1="130.0" x2="75" y2="130.0" stroke="#444"/>
<text x="69" y="133.0" text-anchor="end" fill="#444">16</text>
<line x1="72" y1="90.0" x2="75" y2="90.0" stroke="#444"/>
<text x="69" y="93.0" text-anchor="end" fill="#444">28</text>
<text x="226.0" y="284" text-anchor="middle" fill="#444">Event time (years from adoption)</text>
<text x="27" y="170.0" text-anchor="middle" fill="#444" transform="rotate(-90 27 170.0)">Coefficient (per 100k)</text>
<rect x="425" y="40" width="380" height="260" fill="#fafaf7" stroke="#e2e2dc"/>
<text x="615.0" y="58" text-anchor="middle" font-weight="600">County murder rate (per 100,000)</text>
<line x1="485" y1="121.72769947424115" x2="787" y2="121.72769947424115" stroke="#aaaaaa" stroke-width="0.7"/>
<polygon points="498.7,104.5 526.2,105.9 553.6,99.5 581.1,111.4 608.5,121.7 636.0,103.0 663.5,113.6 690.9,107.6 718.4,96.6 745.8,90.0 773.3,93.2 773.3,134.7 745.8,121.8 718.4,126.3 690.9,128.7 663.5,130.3 636.0,250.0 608.5,121.7 581.1,126.6 553.6,114.9 526.2,124.1 498.7,119.9" fill="#1f3a5f" opacity="0.18"/>
<polyline points="498.7,112.2 526.2,115.0 553.6,107.2 581.1,119.0 608.5,121.7 636.0,176.5 663.5,121.9 690.9,118.1 718.4,111.5 745.8,105.9 773.3,114.0" fill="none" stroke="#1f3a5f" stroke-width="1.6"/>
<circle cx="498.7" cy="112.2" r="2.6" fill="#1f3a5f"/>
<circle cx="526.2" cy="115.0" r="2.6" fill="#1f3a5f"/>
<circle cx="553.6" cy="107.2" r="2.6" fill="#1f3a5f"/>
<circle cx="581.1" cy="119.0" r="2.6" fill="#1f3a5f"/>
<circle cx="608.5" cy="121.7" r="2.6" fill="#1f3a5f"/>
<circle cx="636.0" cy="176.5" r="2.6" fill="#1f3a5f"/>
<circle cx="663.5" cy="121.9" r="2.6" fill="#1f3a5f"/>
<circle cx="690.9" cy="118.1" r="2.6" fill="#1f3a5f"/>
<circle cx="718.4" cy="111.5" r="2.6" fill="#1f3a5f"/>
<circle cx="745.8" cy="105.9" r="2.6" fill="#1f3a5f"/>
<circle cx="773.3" cy="114.0" r="2.6" fill="#1f3a5f"/>
<line x1="622.3" y1="90" x2="622.3" y2="250" stroke="#b9461a" stroke-dasharray="3 3"/>
<line x1="485" y1="250" x2="787" y2="250" stroke="#444"/>
<line x1="485" y1="90" x2="485" y2="250" stroke="#444"/>
<line x1="498.7" y1="250" x2="498.7" y2="253" stroke="#444"/>
<text x="498.7" y="265" text-anchor="middle" fill="#444">-5</text>
<line x1="526.2" y1="250" x2="526.2" y2="253" stroke="#444"/>
<text x="526.2" y="265" text-anchor="middle" fill="#444">-4</text>
<line x1="553.6" y1="250" x2="553.6" y2="253" stroke="#444"/>
<text x="553.6" y="265" text-anchor="middle" fill="#444">-3</text>
<line x1="581.1" y1="250" x2="581.1" y2="253" stroke="#444"/>
<text x="581.1" y="265" text-anchor="middle" fill="#444">-2</text>
<line x1="608.5" y1="250" x2="608.5" y2="253" stroke="#444"/>
<text x="608.5" y="265" text-anchor="middle" fill="#444">-1</text>
<line x1="636.0" y1="250" x2="636.0" y2="253" stroke="#444"/>
<text x="636.0" y="265" text-anchor="middle" fill="#444">0</text>
<line x1="663.5" y1="250" x2="663.5" y2="253" stroke="#444"/>
<text x="663.5" y="265" text-anchor="middle" fill="#444">1</text>
<line x1="690.9" y1="250" x2="690.9" y2="253" stroke="#444"/>
<text x="690.9" y="265" text-anchor="middle" fill="#444">2</text>
<line x1="718.4" y1="250" x2="718.4" y2="253" stroke="#444"/>
<text x="718.4" y="265" text-anchor="middle" fill="#444">3</text>
<line x1="745.8" y1="250" x2="745.8" y2="253" stroke="#444"/>
<text x="745.8" y="265" text-anchor="middle" fill="#444">4</text>
<line x1="773.3" y1="250" x2="773.3" y2="253" stroke="#444"/>
<text x="773.3" y="265" text-anchor="middle" fill="#444">5</text>
<line x1="482" y1="250.0" x2="485" y2="250.0" stroke="#444"/>
<text x="479" y="253.0" text-anchor="end" fill="#444">-7</text>
<line x1="482" y1="210.0" x2="485" y2="210.0" stroke="#444"/>
<text x="479" y="213.0" text-anchor="end" fill="#444">-4.8</text>
<line x1="482" y1="170.0" x2="485" y2="170.0" stroke="#444"/>
<text x="479" y="173.0" text-anchor="end" fill="#444">-2.6</text>
<line x1="482" y1="130.0" x2="485" y2="130.0" stroke="#444"/>
<text x="479" y="133.0" text-anchor="end" fill="#444">-0.45</text>
<line x1="482" y1="90.0" x2="485" y2="90.0" stroke="#444"/>
<text x="479" y="93.0" text-anchor="end" fill="#444">1.7</text>
<text x="636.0" y="284" text-anchor="middle" fill="#444">Event time (years from adoption)</text>
<text x="437" y="170.0" text-anchor="middle" fill="#444" transform="rotate(-90 437 170.0)">Coefficient (per 100k)</text>
<rect x="15" y="330" width="380" height="260" fill="#fafaf7" stroke="#e2e2dc"/>
<text x="205.0" y="348" text-anchor="middle" font-weight="600">County property crime rate (per 100,000)</text>
<line x1="75" y1="468.6421328539164" x2="377" y2="468.6421328539164" stroke="#aaaaaa" stroke-width="0.7"/>
<polygon points="88.7,439.1 116.2,466.3 143.6,444.3 171.1,492.7 198.5,468.6 226.0,450.7 253.5,448.9 280.9,458.7 308.4,440.9 335.8,384.4 363.3,380.0 363.3,497.6 335.8,451.2 308.4,503.4 280.9,508.0 253.5,489.5 226.0,489.3 198.5,468.6 171.1,536.5 143.6,540.0 116.2,536.2 88.7,489.1" fill="#1f3a5f" opacity="0.18"/>
<polyline points="88.7,464.1 116.2,501.3 143.6,492.2 171.1,514.6 198.5,468.6 226.0,470.0 253.5,469.2 280.9,483.3 308.4,472.2 335.8,417.8 363.3,438.8" fill="none" stroke="#1f3a5f" stroke-width="1.6"/>
<circle cx="88.7" cy="464.1" r="2.6" fill="#1f3a5f"/>
<circle cx="116.2" cy="501.3" r="2.6" fill="#1f3a5f"/>
<circle cx="143.6" cy="492.2" r="2.6" fill="#1f3a5f"/>
<circle cx="171.1" cy="514.6" r="2.6" fill="#1f3a5f"/>
<circle cx="198.5" cy="468.6" r="2.6" fill="#1f3a5f"/>
<circle cx="226.0" cy="470.0" r="2.6" fill="#1f3a5f"/>
<circle cx="253.5" cy="469.2" r="2.6" fill="#1f3a5f"/>
<circle cx="280.9" cy="483.3" r="2.6" fill="#1f3a5f"/>
<circle cx="308.4" cy="472.2" r="2.6" fill="#1f3a5f"/>
<circle cx="335.8" cy="417.8" r="2.6" fill="#1f3a5f"/>
<circle cx="363.3" cy="438.8" r="2.6" fill="#1f3a5f"/>
<line x1="212.3" y1="380" x2="212.3" y2="540" stroke="#b9461a" stroke-dasharray="3 3"/>
<line x1="75" y1="540" x2="377" y2="540" stroke="#444"/>
<line x1="75" y1="380" x2="75" y2="540" stroke="#444"/>
<line x1="88.7" y1="540" x2="88.7" y2="543" stroke="#444"/>
<text x="88.7" y="555" text-anchor="middle" fill="#444">-5</text>
<line x1="116.2" y1="540" x2="116.2" y2="543" stroke="#444"/>
<text x="116.2" y="555" text-anchor="middle" fill="#444">-4</text>
<line x1="143.6" y1="540" x2="143.6" y2="543" stroke="#444"/>
<text x="143.6" y="555" text-anchor="middle" fill="#444">-3</text>
<line x1="171.1" y1="540" x2="171.1" y2="543" stroke="#444"/>
<text x="171.1" y="555" text-anchor="middle" fill="#444">-2</text>
<line x1="198.5" y1="540" x2="198.5" y2="543" stroke="#444"/>
<text x="198.5" y="555" text-anchor="middle" fill="#444">-1</text>
<line x1="226.0" y1="540" x2="226.0" y2="543" stroke="#444"/>
<text x="226.0" y="555" text-anchor="middle" fill="#444">0</text>
<line x1="253.5" y1="540" x2="253.5" y2="543" stroke="#444"/>
<text x="253.5" y="555" text-anchor="middle" fill="#444">1</text>
<line x1="280.9" y1="540" x2="280.9" y2="543" stroke="#444"/>
<text x="280.9" y="555" text-anchor="middle" fill="#444">2</text>
<line x1="308.4" y1="540" x2="308.4" y2="543" stroke="#444"/>
<text x="308.4" y="555" text-anchor="middle" fill="#444">3</text>
<line x1="335.8" y1="540" x2="335.8" y2="543" stroke="#444"/>
<text x="335.8" y="555" text-anchor="middle" fill="#444">4</text>
<line x1="363.3" y1="540" x2="363.3" y2="543" stroke="#444"/>
<text x="363.3" y="555" text-anchor="middle" fill="#444">5</text>
<line x1="72" y1="540.0" x2="75" y2="540.0" stroke="#444"/>
<text x="69" y="543.0" text-anchor="end" fill="#444">-1.4e+02</text>
<line x1="72" y1="500.0" x2="75" y2="500.0" stroke="#444"/>
<text x="69" y="503.0" text-anchor="end" fill="#444">-62</text>
<line x1="72" y1="460.0" x2="75" y2="460.0" stroke="#444"/>
<text x="69" y="463.0" text-anchor="end" fill="#444">17</text>
<line x1="72" y1="420.0" x2="75" y2="420.0" stroke="#444"/>
<text x="69" y="423.0" text-anchor="end" fill="#444">96</text>
<line x1="72" y1="380.0" x2="75" y2="380.0" stroke="#444"/>
<text x="69" y="383.0" text-anchor="end" fill="#444">1.7e+02</text>
<text x="226.0" y="574" text-anchor="middle" fill="#444">Event time (years from adoption)</text>
<text x="27" y="460.0" text-anchor="middle" fill="#444" transform="rotate(-90 27 460.0)">Coefficient (per 100k)</text>
<rect x="425" y="330" width="380" height="260" fill="#fafaf7" stroke="#e2e2dc"/>
<text x="615.0" y="348" text-anchor="middle" font-weight="600">County burglary rate (per 100,000) [placebo]</text>
<line x1="485" y1="464.92650755906925" x2="787" y2="464.92650755906925" stroke="#aaaaaa" stroke-width="0.7"/>
<polygon points="498.7,441.2 526.2,437.8 553.6,484.4 581.1,492.0 608.5,464.9 636.0,444.4 663.5,449.7 690.9,445.7 718.4,460.0 745.8,392.7 773.3,380.0 773.3,463.4 745.8,446.3 718.4,505.5 690.9,487.5 663.5,491.1 636.0,489.7 608.5,464.9 581.1,540.0 553.6,530.0 526.2,492.9 498.7,487.4" fill="#1f3a5f" opacity="0.18"/>
<polyline points="498.7,464.3 526.2,465.3 553.6,507.2 581.1,516.0 608.5,464.9 636.0,467.0 663.5,470.4 690.9,466.6 718.4,482.7 745.8,419.5 773.3,421.7" fill="none" stroke="#1f3a5f" stroke-width="1.6"/>
<circle cx="498.7" cy="464.3" r="2.6" fill="#1f3a5f"/>
<circle cx="526.2" cy="465.3" r="2.6" fill="#1f3a5f"/>
<circle cx="553.6" cy="507.2" r="2.6" fill="#1f3a5f"/>
<circle cx="581.1" cy="516.0" r="2.6" fill="#1f3a5f"/>
<circle cx="608.5" cy="464.9" r="2.6" fill="#1f3a5f"/>
<circle cx="636.0" cy="467.0" r="2.6" fill="#1f3a5f"/>
<circle cx="663.5" cy="470.4" r="2.6" fill="#1f3a5f"/>
<circle cx="690.9" cy="466.6" r="2.6" fill="#1f3a5f"/>
<circle cx="718.4" cy="482.7" r="2.6" fill="#1f3a5f"/>
<circle cx="745.8" cy="419.5" r="2.6" fill="#1f3a5f"/>
<circle cx="773.3" cy="421.7" r="2.6" fill="#1f3a5f"/>
<line x1="622.3" y1="380" x2="622.3" y2="540" stroke="#b9461a" stroke-dasharray="3 3"/>
<line x1="485" y1="540" x2="787" y2="540" stroke="#444"/>
<line x1="485" y1="380" x2="485" y2="540" stroke="#444"/>
<line x1="498.7" y1="540" x2="498.7" y2="543" stroke="#444"/>
<text x="498.7" y="555" text-anchor="middle" fill="#444">-5</text>
<line x1="526.2" y1="540" x2="526.2" y2="543" stroke="#444"/>
<text x="526.2" y="555" text-anchor="middle" fill="#444">-4</text>
<line x1="553.6" y1="540" x2="553.6" y2="543" stroke="#444"/>
<text x="553.6" y="555" text-anchor="middle" fill="#444">-3</text>
<line x1="581.1" y1="540" x2="581.1" y2="543" stroke="#444"/>
<text x="581.1" y="555" text-anchor="middle" fill="#444">-2</text>
<line x1="608.5" y1="540" x2="608.5" y2="543" stroke="#444"/>
<text x="608.5" y="555" text-anchor="middle" fill="#444">-1</text>
<line x1="636.0" y1="540" x2="636.0" y2="543" stroke="#444"/>
<text x="636.0" y="555" text-anchor="middle" fill="#444">0</text>
<line x1="663.5" y1="540" x2="663.5" y2="543" stroke="#444"/>
<text x="663.5" y="555" text-anchor="middle" fill="#444">1</text>
<line x1="690.9" y1="540" x2="690.9" y2="543" stroke="#444"/>
<text x="690.9" y="555" text-anchor="middle" fill="#444">2</text>
<line x1="718.4" y1="540" x2="718.4" y2="543" stroke="#444"/>
<text x="718.4" y="555" text-anchor="middle" fill="#444">3</text>
<line x1="745.8" y1="540" x2="745.8" y2="543" stroke="#444"/>
<text x="745.8" y="555" text-anchor="middle" fill="#444">4</text>
<line x1="773.3" y1="540" x2="773.3" y2="543" stroke="#444"/>
<text x="773.3" y="555" text-anchor="middle" fill="#444">5</text>
<line x1="482" y1="540.0" x2="485" y2="540.0" stroke="#444"/>
<text x="479" y="543.0" text-anchor="end" fill="#444">-45</text>
<line x1="482" y1="500.0" x2="485" y2="500.0" stroke="#444"/>
<text x="479" y="503.0" text-anchor="end" fill="#444">-21</text>
<line x1="482" y1="460.0" x2="485" y2="460.0" stroke="#444"/>
<text x="479" y="463.0" text-anchor="end" fill="#444">2.9</text>
<line x1="482" y1="420.0" x2="485" y2="420.0" stroke="#444"/>
<text x="479" y="423.0" text-anchor="end" fill="#444">27</text>
<line x1="482" y1="380.0" x2="485" y2="380.0" stroke="#444"/>
<text x="479" y="383.0" text-anchor="end" fill="#444">50</text>
<text x="636.0" y="574" text-anchor="middle" fill="#444">Event time (years from adoption)</text>
<text x="437" y="460.0" text-anchor="middle" fill="#444" transform="rotate(-90 437 460.0)">Coefficient (per 100k)</text>
<rect x="15" y="620" width="380" height="260" fill="#fafaf7" stroke="#e2e2dc"/>
<text x="205.0" y="638" text-anchor="middle" font-weight="600">County motor vehicle theft rate (per 100,000) [placebo]</text>
<line x1="75" y1="704.3895522245086" x2="377" y2="704.3895522245086" stroke="#aaaaaa" stroke-width="0.7"/>
<polygon points="88.7,698.5 116.2,695.3 143.6,703.5 171.1,706.8 198.5,704.4 226.0,694.7 253.5,696.1 280.9,696.1 308.4,688.2 335.8,677.2 363.3,670.0 363.3,830.0 335.8,696.0 308.4,706.5 280.9,707.7 253.5,707.9 226.0,703.9 198.5,704.4 171.1,717.9 143.6,714.3 116.2,706.8 88.7,708.2" fill="#1f3a5f" opacity="0.18"/>
<polyline points="88.7,703.4 116.2,701.0 143.6,708.9 171.1,712.4 198.5,704.4 226.0,699.3 253.5,702.0 280.9,701.9 308.4,697.4 335.8,686.6 363.3,750.0" fill="none" stroke="#1f3a5f" stroke-width="1.6"/>
<circle cx="88.7" cy="703.4" r="2.6" fill="#1f3a5f"/>
<circle cx="116.2" cy="701.0" r="2.6" fill="#1f3a5f"/>
<circle cx="143.6" cy="708.9" r="2.6" fill="#1f3a5f"/>
<circle cx="171.1" cy="712.4" r="2.6" fill="#1f3a5f"/>
<circle cx="198.5" cy="704.4" r="2.6" fill="#1f3a5f"/>
<circle cx="226.0" cy="699.3" r="2.6" fill="#1f3a5f"/>
<circle cx="253.5" cy="702.0" r="2.6" fill="#1f3a5f"/>
<circle cx="280.9" cy="701.9" r="2.6" fill="#1f3a5f"/>
<circle cx="308.4" cy="697.4" r="2.6" fill="#1f3a5f"/>
<circle cx="335.8" cy="686.6" r="2.6" fill="#1f3a5f"/>
<circle cx="363.3" cy="750.0" r="2.6" fill="#1f3a5f"/>
<line x1="212.3" y1="670" x2="212.3" y2="830" stroke="#b9461a" stroke-dasharray="3 3"/>
<line x1="75" y1="830" x2="377" y2="830" stroke="#444"/>
<line x1="75" y1="670" x2="75" y2="830" stroke="#444"/>
<line x1="88.7" y1="830" x2="88.7" y2="833" stroke="#444"/>
<text x="88.7" y="845" text-anchor="middle" fill="#444">-5</text>
<line x1="116.2" y1="830" x2="116.2" y2="833" stroke="#444"/>
<text x="116.2" y="845" text-anchor="middle" fill="#444">-4</text>
<line x1="143.6" y1="830" x2="143.6" y2="833" stroke="#444"/>
<text x="143.6" y="845" text-anchor="middle" fill="#444">-3</text>
<line x1="171.1" y1="830" x2="171.1" y2="833" stroke="#444"/>
<text x="171.1" y="845" text-anchor="middle" fill="#444">-2</text>
<line x1="198.5" y1="830" x2="198.5" y2="833" stroke="#444"/>
<text x="198.5" y="845" text-anchor="middle" fill="#444">-1</text>
<line x1="226.0" y1="830" x2="226.0" y2="833" stroke="#444"/>
<text x="226.0" y="845" text-anchor="middle" fill="#444">0</text>
<line x1="253.5" y1="830" x2="253.5" y2="833" stroke="#444"/>
<text x="253.5" y="845" text-anchor="middle" fill="#444">1</text>
<line x1="280.9" y1="830" x2="280.9" y2="833" stroke="#444"/>
<text x="280.9" y="845" text-anchor="middle" fill="#444">2</text>
<line x1="308.4" y1="830" x2="308.4" y2="833" stroke="#444"/>
<text x="308.4" y="845" text-anchor="middle" fill="#444">3</text>
<line x1="335.8" y1="830" x2="335.8" y2="833" stroke="#444"/>
<text x="335.8" y="845" text-anchor="middle" fill="#444">4</text>
<line x1="363.3" y1="830" x2="363.3" y2="833" stroke="#444"/>
<text x="363.3" y="845" text-anchor="middle" fill="#444">5</text>
<line x1="72" y1="830.0" x2="75" y2="830.0" stroke="#444"/>
<text x="69" y="833.0" text-anchor="end" fill="#444">-1.2e+02</text>
<line x1="72" y1="790.0" x2="75" y2="790.0" stroke="#444"/>
<text x="69" y="793.0" text-anchor="end" fill="#444">-82</text>
<line x1="72" y1="750.0" x2="75" y2="750.0" stroke="#444"/>
<text x="69" y="753.0" text-anchor="end" fill="#444">-44</text>
<line x1="72" y1="710.0" x2="75" y2="710.0" stroke="#444"/>
<text x="69" y="713.0" text-anchor="end" fill="#444">-5.4</text>
<line x1="72" y1="670.0" x2="75" y2="670.0" stroke="#444"/>
<text x="69" y="673.0" text-anchor="end" fill="#444">33</text>
<text x="226.0" y="864" text-anchor="middle" fill="#444">Event time (years from adoption)</text>
<text x="27" y="750.0" text-anchor="middle" fill="#444" transform="rotate(-90 27 750.0)">Coefficient (per 100k)</text>
<text x="805" y="898" text-anchor="end" fill="#888" font-size="10">Shaded band: pointwise 95% CI from cluster-robust SE. Vertical dashed line marks the year before adoption.</text>
</svg>