<svg xmlns="http://www.w3.org/2000/svg" viewBox="0 0 820 620" font-family="-apple-system, Segoe UI, Helvetica, Arial, sans-serif" font-size="11">
<text x="410.0" y="22" text-anchor="middle" font-size="14" font-weight="600">Spatial RDD event study (permitless_carry, secondary outcomes)</text>
<rect x="15" y="40" width="380" height="260" fill="#fafaf7" stroke="#e2e2dc"/>
<text x="205.0" y="58" text-anchor="middle" font-weight="600">State firearm suicide rate (per 100,000)</text>
<line x1="75" y1="166.1112998521716" x2="377" y2="166.1112998521716" stroke="#aaaaaa" stroke-width="0.7"/>
<polygon points="88.7,173.3 116.2,135.7 143.6,115.9 171.1,176.8 198.5,166.1 226.0,136.1 253.5,100.6 280.9,106.4 308.4,184.0 335.8,145.8 363.3,90.0 363.3,195.7 335.8,202.7 308.4,250.0 280.9,154.2 253.5,155.8 226.0,185.8 198.5,166.1 171.1,208.2 143.6,164.7 116.2,176.9 88.7,207.3" fill="#1f3a5f" opacity="0.18"/>
<polyline points="88.7,190.3 116.2,156.3 143.6,140.3 171.1,192.5 198.5,166.1 226.0,161.0 253.5,128.2 280.9,130.3 308.4,217.0 335.8,174.2 363.3,142.9" fill="none" stroke="#1f3a5f" stroke-width="1.6"/>
<circle cx="88.7" cy="190.3" r="2.6" fill="#1f3a5f"/>
<circle cx="116.2" cy="156.3" r="2.6" fill="#1f3a5f"/>
<circle cx="143.6" cy="140.3" r="2.6" fill="#1f3a5f"/>
<circle cx="171.1" cy="192.5" r="2.6" fill="#1f3a5f"/>
<circle cx="198.5" cy="166.1" r="2.6" fill="#1f3a5f"/>
<circle cx="226.0" cy="161.0" r="2.6" fill="#1f3a5f"/>
<circle cx="253.5" cy="128.2" r="2.6" fill="#1f3a5f"/>
<circle cx="280.9" cy="130.3" r="2.6" fill="#1f3a5f"/>
<circle cx="308.4" cy="217.0" r="2.6" fill="#1f3a5f"/>
<circle cx="335.8" cy="174.2" r="2.6" fill="#1f3a5f"/>
<circle cx="363.3" cy="142.9" r="2.6" fill="#1f3a5f"/>
<line x1="212.3" y1="90" x2="212.3" y2="250" stroke="#b9461a" stroke-dasharray="3 3"/>
<line x1="75" y1="250" x2="377" y2="250" stroke="#444"/>
<line x1="75" y1="90" x2="75" y2="250" stroke="#444"/>
<line x1="88.7" y1="250" x2="88.7" y2="253" stroke="#444"/>
<text x="88.7" y="265" text-anchor="middle" fill="#444">-5</text>
<line x1="116.2" y1="250" x2="116.2" y2="253" stroke="#444"/>
<text x="116.2" y="265" text-anchor="middle" fill="#444">-4</text>
<line x1="143.6" y1="250" x2="143.6" y2="253" stroke="#444"/>
<text x="143.6" y="265" text-anchor="middle" fill="#444">-3</text>
<line x1="171.1" y1="250" x2="171.1" y2="253" stroke="#444"/>
<text x="171.1" y="265" text-anchor="middle" fill="#444">-2</text>
<line x1="198.5" y1="250" x2="198.5" y2="253" stroke="#444"/>
<text x="198.5" y="265" text-anchor="middle" fill="#444">-1</text>
<line x1="226.0" y1="250" x2="226.0" y2="253" stroke="#444"/>
<text x="226.0" y="265" text-anchor="middle" fill="#444">0</text>
<line x1="253.5" y1="250" x2="253.5" y2="253" stroke="#444"/>
<text x="253.5" y="265" text-anchor="middle" fill="#444">1</text>
<line x1="280.9" y1="250" x2="280.9" y2="253" stroke="#444"/>
<text x="280.9" y="265" text-anchor="middle" fill="#444">2</text>
<line x1="308.4" y1="250" x2="308.4" y2="253" stroke="#444"/>
<text x="308.4" y="265" text-anchor="middle" fill="#444">3</text>
<line x1="335.8" y1="250" x2="335.8" y2="253" stroke="#444"/>
<text x="335.8" y="265" text-anchor="middle" fill="#444">4</text>
<line x1="363.3" y1="250" x2="363.3" y2="253" stroke="#444"/>
<text x="363.3" y="265" text-anchor="middle" fill="#444">5</text>
<line x1="72" y1="250.0" x2="75" y2="250.0" stroke="#444"/>
<text x="69" y="253.0" text-anchor="end" fill="#444">-0.71</text>
<line x1="72" y1="210.0" x2="75" y2="210.0" stroke="#444"/>
<text x="69" y="213.0" text-anchor="end" fill="#444">-0.37</text>
<line x1="72" y1="170.0" x2="75" y2="170.0" stroke="#444"/>
<text x="69" y="173.0" text-anchor="end" fill="#444">-0.033</text>
<line x1="72" y1="130.0" x2="75" y2="130.0" stroke="#444"/>
<text x="69" y="133.0" text-anchor="end" fill="#444">0.31</text>
<line x1="72" y1="90.0" x2="75" y2="90.0" stroke="#444"/>
<text x="69" y="93.0" text-anchor="end" fill="#444">0.64</text>
<text x="226.0" y="284" text-anchor="middle" fill="#444">Event time (years from adoption)</text>
<text x="27" y="170.0" text-anchor="middle" fill="#444" transform="rotate(-90 27 170.0)">Coefficient (per 100k)</text>
<rect x="425" y="40" width="380" height="260" fill="#fafaf7" stroke="#e2e2dc"/>
<text x="615.0" y="58" text-anchor="middle" font-weight="600">State total suicide rate (per 100,000)</text>
<line x1="485" y1="177.337518351923" x2="787" y2="177.337518351923" stroke="#aaaaaa" stroke-width="0.7"/>
<polygon points="498.7,173.7 526.2,138.5 553.6,154.8 581.1,181.9 608.5,177.3 636.0,153.7 663.5,90.0 690.9,125.7 718.4,195.1 745.8,162.4 773.3,125.8 773.3,221.3 745.8,209.5 718.4,250.0 690.9,163.4 663.5,143.5 636.0,183.0 608.5,177.3 581.1,217.1 553.6,193.8 526.2,176.6 498.7,219.6" fill="#1f3a5f" opacity="0.18"/>
<polyline points="498.7,196.6 526.2,157.6 553.6,174.3 581.1,199.5 608.5,177.3 636.0,168.4 663.5,116.7 690.9,144.5 718.4,222.6 745.8,185.9 773.3,173.5" fill="none" stroke="#1f3a5f" stroke-width="1.6"/>
<circle cx="498.7" cy="196.6" r="2.6" fill="#1f3a5f"/>
<circle cx="526.2" cy="157.6" r="2.6" fill="#1f3a5f"/>
<circle cx="553.6" cy="174.3" r="2.6" fill="#1f3a5f"/>
<circle cx="581.1" cy="199.5" r="2.6" fill="#1f3a5f"/>
<circle cx="608.5" cy="177.3" r="2.6" fill="#1f3a5f"/>
<circle cx="636.0" cy="168.4" r="2.6" fill="#1f3a5f"/>
<circle cx="663.5" cy="116.7" r="2.6" fill="#1f3a5f"/>
<circle cx="690.9" cy="144.5" r="2.6" fill="#1f3a5f"/>
<circle cx="718.4" cy="222.6" r="2.6" fill="#1f3a5f"/>
<circle cx="745.8" cy="185.9" r="2.6" fill="#1f3a5f"/>
<circle cx="773.3" cy="173.5" r="2.6" fill="#1f3a5f"/>
<line x1="622.3" y1="90" x2="622.3" y2="250" stroke="#b9461a" stroke-dasharray="3 3"/>
<line x1="485" y1="250" x2="787" y2="250" stroke="#444"/>
<line x1="485" y1="90" x2="485" y2="250" stroke="#444"/>
<line x1="498.7" y1="250" x2="498.7" y2="253" stroke="#444"/>
<text x="498.7" y="265" text-anchor="middle" fill="#444">-5</text>
<line x1="526.2" y1="250" x2="526.2" y2="253" stroke="#444"/>
<text x="526.2" y="265" text-anchor="middle" fill="#444">-4</text>
<line x1="553.6" y1="250" x2="553.6" y2="253" stroke="#444"/>
<text x="553.6" y="265" text-anchor="middle" fill="#444">-3</text>
<line x1="581.1" y1="250" x2="581.1" y2="253" stroke="#444"/>
<text x="581.1" y="265" text-anchor="middle" fill="#444">-2</text>
<line x1="608.5" y1="250" x2="608.5" y2="253" stroke="#444"/>
<text x="608.5" y="265" text-anchor="middle" fill="#444">-1</text>
<line x1="636.0" y1="250" x2="636.0" y2="253" stroke="#444"/>
<text x="636.0" y="265" text-anchor="middle" fill="#444">0</text>
<line x1="663.5" y1="250" x2="663.5" y2="253" stroke="#444"/>
<text x="663.5" y="265" text-anchor="middle" fill="#444">1</text>
<line x1="690.9" y1="250" x2="690.9" y2="253" stroke="#444"/>
<text x="690.9" y="265" text-anchor="middle" fill="#444">2</text>
<line x1="718.4" y1="250" x2="718.4" y2="253" stroke="#444"/>
<text x="718.4" y="265" text-anchor="middle" fill="#444">3</text>
<line x1="745.8" y1="250" x2="745.8" y2="253" stroke="#444"/>
<text x="745.8" y="265" text-anchor="middle" fill="#444">4</text>
<line x1="773.3" y1="250" x2="773.3" y2="253" stroke="#444"/>
<text x="773.3" y="265" text-anchor="middle" fill="#444">5</text>
<line x1="482" y1="250.0" x2="485" y2="250.0" stroke="#444"/>
<text x="479" y="253.0" text-anchor="end" fill="#444">-0.82</text>
<line x1="482" y1="210.0" x2="485" y2="210.0" stroke="#444"/>
<text x="479" y="213.0" text-anchor="end" fill="#444">-0.37</text>
<line x1="482" y1="170.0" x2="485" y2="170.0" stroke="#444"/>
<text x="479" y="173.0" text-anchor="end" fill="#444">0.083</text>
<line x1="482" y1="130.0" x2="485" y2="130.0" stroke="#444"/>
<text x="479" y="133.0" text-anchor="end" fill="#444">0.53</text>
<line x1="482" y1="90.0" x2="485" y2="90.0" stroke="#444"/>
<text x="479" y="93.0" text-anchor="end" fill="#444">0.99</text>
<text x="636.0" y="284" text-anchor="middle" fill="#444">Event time (years from adoption)</text>
<text x="437" y="170.0" text-anchor="middle" fill="#444" transform="rotate(-90 437 170.0)">Coefficient (per 100k)</text>
<rect x="15" y="330" width="380" height="260" fill="#fafaf7" stroke="#e2e2dc"/>
<text x="205.0" y="348" text-anchor="middle" font-weight="600">State non-firearm suicide rate (per 100,000) [substitution]</text>
<line x1="75" y1="453.80074768354245" x2="377" y2="453.80074768354245" stroke="#aaaaaa" stroke-width="0.7"/>
<polygon points="88.7,434.0 116.2,418.7 143.6,460.5 171.1,440.9 198.5,453.8 226.0,430.9 253.5,380.0 280.9,428.7 308.4,428.7 335.8,427.6 363.3,406.2 363.3,540.0 335.8,487.1 308.4,498.9 280.9,462.1 253.5,436.7 226.0,462.2 198.5,453.8 171.1,473.4 143.6,493.2 116.2,453.8 88.7,476.9" fill="#1f3a5f" opacity="0.18"/>
<polyline points="88.7,455.5 116.2,436.3 143.6,476.8 171.1,457.1 198.5,453.8 226.0,446.6 253.5,408.4 280.9,445.4 308.4,463.8 335.8,457.4 363.3,473.1" fill="none" stroke="#1f3a5f" stroke-width="1.6"/>
<circle cx="88.7" cy="455.5" r="2.6" fill="#1f3a5f"/>
<circle cx="116.2" cy="436.3" r="2.6" fill="#1f3a5f"/>
<circle cx="143.6" cy="476.8" r="2.6" fill="#1f3a5f"/>
<circle cx="171.1" cy="457.1" r="2.6" fill="#1f3a5f"/>
<circle cx="198.5" cy="453.8" r="2.6" fill="#1f3a5f"/>
<circle cx="226.0" cy="446.6" r="2.6" fill="#1f3a5f"/>
<circle cx="253.5" cy="408.4" r="2.6" fill="#1f3a5f"/>
<circle cx="280.9" cy="445.4" r="2.6" fill="#1f3a5f"/>
<circle cx="308.4" cy="463.8" r="2.6" fill="#1f3a5f"/>
<circle cx="335.8" cy="457.4" r="2.6" fill="#1f3a5f"/>
<circle cx="363.3" cy="473.1" r="2.6" fill="#1f3a5f"/>
<line x1="212.3" y1="380" x2="212.3" y2="540" stroke="#b9461a" stroke-dasharray="3 3"/>
<line x1="75" y1="540" x2="377" y2="540" stroke="#444"/>
<line x1="75" y1="380" x2="75" y2="540" stroke="#444"/>
<line x1="88.7" y1="540" x2="88.7" y2="543" stroke="#444"/>
<text x="88.7" y="555" text-anchor="middle" fill="#444">-5</text>
<line x1="116.2" y1="540" x2="116.2" y2="543" stroke="#444"/>
<text x="116.2" y="555" text-anchor="middle" fill="#444">-4</text>
<line x1="143.6" y1="540" x2="143.6" y2="543" stroke="#444"/>
<text x="143.6" y="555" text-anchor="middle" fill="#444">-3</text>
<line x1="171.1" y1="540" x2="171.1" y2="543" stroke="#444"/>
<text x="171.1" y="555" text-anchor="middle" fill="#444">-2</text>
<line x1="198.5" y1="540" x2="198.5" y2="543" stroke="#444"/>
<text x="198.5" y="555" text-anchor="middle" fill="#444">-1</text>
<line x1="226.0" y1="540" x2="226.0" y2="543" stroke="#444"/>
<text x="226.0" y="555" text-anchor="middle" fill="#444">0</text>
<line x1="253.5" y1="540" x2="253.5" y2="543" stroke="#444"/>
<text x="253.5" y="555" text-anchor="middle" fill="#444">1</text>
<line x1="280.9" y1="540" x2="280.9" y2="543" stroke="#444"/>
<text x="280.9" y="555" text-anchor="middle" fill="#444">2</text>
<line x1="308.4" y1="540" x2="308.4" y2="543" stroke="#444"/>
<text x="308.4" y="555" text-anchor="middle" fill="#444">3</text>
<line x1="335.8" y1="540" x2="335.8" y2="543" stroke="#444"/>
<text x="335.8" y="555" text-anchor="middle" fill="#444">4</text>
<line x1="363.3" y1="540" x2="363.3" y2="543" stroke="#444"/>
<text x="363.3" y="555" text-anchor="middle" fill="#444">5</text>
<line x1="72" y1="540.0" x2="75" y2="540.0" stroke="#444"/>
<text x="69" y="543.0" text-anchor="end" fill="#444">-0.69</text>
<line x1="72" y1="500.0" x2="75" y2="500.0" stroke="#444"/>
<text x="69" y="503.0" text-anchor="end" fill="#444">-0.37</text>
<line x1="72" y1="460.0" x2="75" y2="460.0" stroke="#444"/>
<text x="69" y="463.0" text-anchor="end" fill="#444">-0.05</text>
<line x1="72" y1="420.0" x2="75" y2="420.0" stroke="#444"/>
<text x="69" y="423.0" text-anchor="end" fill="#444">0.27</text>
<line x1="72" y1="380.0" x2="75" y2="380.0" stroke="#444"/>
<text x="69" y="383.0" text-anchor="end" fill="#444">0.59</text>
<text x="226.0" y="574" text-anchor="middle" fill="#444">Event time (years from adoption)</text>
<text x="27" y="460.0" text-anchor="middle" fill="#444" transform="rotate(-90 27 460.0)">Coefficient (per 100k)</text>
<rect x="425" y="330" width="380" height="260" fill="#fafaf7" stroke="#e2e2dc"/>
<text x="615.0" y="348" text-anchor="middle" font-weight="600">State firearm homicide rate (per 100,000)</text>
<line x1="485" y1="483.28017069967126" x2="787" y2="483.28017069967126" stroke="#aaaaaa" stroke-width="0.7"/>
<polygon points="498.7,483.3 526.2,464.2 553.6,481.5 581.1,479.7 608.5,483.3 636.0,471.9 663.5,456.0 690.9,432.8 718.4,431.3 745.8,489.0 773.3,380.0 773.3,493.0 745.8,540.0 718.4,483.2 690.9,499.4 663.5,511.5 636.0,522.6 608.5,483.3 581.1,530.8 553.6,536.0 526.2,502.2 498.7,523.9" fill="#1f3a5f" opacity="0.18"/>
<polyline points="498.7,503.6 526.2,483.2 553.6,508.8 581.1,505.3 608.5,483.3 636.0,497.3 663.5,483.8 690.9,466.1 718.4,457.2 745.8,514.5 773.3,436.5" fill="none" stroke="#1f3a5f" stroke-width="1.6"/>
<circle cx="498.7" cy="503.6" r="2.6" fill="#1f3a5f"/>
<circle cx="526.2" cy="483.2" r="2.6" fill="#1f3a5f"/>
<circle cx="553.6" cy="508.8" r="2.6" fill="#1f3a5f"/>
<circle cx="581.1" cy="505.3" r="2.6" fill="#1f3a5f"/>
<circle cx="608.5" cy="483.3" r="2.6" fill="#1f3a5f"/>
<circle cx="636.0" cy="497.3" r="2.6" fill="#1f3a5f"/>
<circle cx="663.5" cy="483.8" r="2.6" fill="#1f3a5f"/>
<circle cx="690.9" cy="466.1" r="2.6" fill="#1f3a5f"/>
<circle cx="718.4" cy="457.2" r="2.6" fill="#1f3a5f"/>
<circle cx="745.8" cy="514.5" r="2.6" fill="#1f3a5f"/>
<circle cx="773.3" cy="436.5" r="2.6" fill="#1f3a5f"/>
<line x1="622.3" y1="380" x2="622.3" y2="540" stroke="#b9461a" stroke-dasharray="3 3"/>
<line x1="485" y1="540" x2="787" y2="540" stroke="#444"/>
<line x1="485" y1="380" x2="485" y2="540" stroke="#444"/>
<line x1="498.7" y1="540" x2="498.7" y2="543" stroke="#444"/>
<text x="498.7" y="555" text-anchor="middle" fill="#444">-5</text>
<line x1="526.2" y1="540" x2="526.2" y2="543" stroke="#444"/>
<text x="526.2" y="555" text-anchor="middle" fill="#444">-4</text>
<line x1="553.6" y1="540" x2="553.6" y2="543" stroke="#444"/>
<text x="553.6" y="555" text-anchor="middle" fill="#444">-3</text>
<line x1="581.1" y1="540" x2="581.1" y2="543" stroke="#444"/>
<text x="581.1" y="555" text-anchor="middle" fill="#444">-2</text>
<line x1="608.5" y1="540" x2="608.5" y2="543" stroke="#444"/>
<text x="608.5" y="555" text-anchor="middle" fill="#444">-1</text>
<line x1="636.0" y1="540" x2="636.0" y2="543" stroke="#444"/>
<text x="636.0" y="555" text-anchor="middle" fill="#444">0</text>
<line x1="663.5" y1="540" x2="663.5" y2="543" stroke="#444"/>
<text x="663.5" y="555" text-anchor="middle" fill="#444">1</text>
<line x1="690.9" y1="540" x2="690.9" y2="543" stroke="#444"/>
<text x="690.9" y="555" text-anchor="middle" fill="#444">2</text>
<line x1="718.4" y1="540" x2="718.4" y2="543" stroke="#444"/>
<text x="718.4" y="555" text-anchor="middle" fill="#444">3</text>
<line x1="745.8" y1="540" x2="745.8" y2="543" stroke="#444"/>
<text x="745.8" y="555" text-anchor="middle" fill="#444">4</text>
<line x1="773.3" y1="540" x2="773.3" y2="543" stroke="#444"/>
<text x="773.3" y="555" text-anchor="middle" fill="#444">5</text>
<line x1="482" y1="540.0" x2="485" y2="540.0" stroke="#444"/>
<text x="479" y="543.0" text-anchor="end" fill="#444">-0.57</text>
<line x1="482" y1="500.0" x2="485" y2="500.0" stroke="#444"/>
<text x="479" y="503.0" text-anchor="end" fill="#444">-0.17</text>
<line x1="482" y1="460.0" x2="485" y2="460.0" stroke="#444"/>
<text x="479" y="463.0" text-anchor="end" fill="#444">0.23</text>
<line x1="482" y1="420.0" x2="485" y2="420.0" stroke="#444"/>
<text x="479" y="423.0" text-anchor="end" fill="#444">0.63</text>
<line x1="482" y1="380.0" x2="485" y2="380.0" stroke="#444"/>
<text x="479" y="383.0" text-anchor="end" fill="#444">1</text>
<text x="636.0" y="574" text-anchor="middle" fill="#444">Event time (years from adoption)</text>
<text x="437" y="460.0" text-anchor="middle" fill="#444" transform="rotate(-90 437 460.0)">Coefficient (per 100k)</text>
<text x="805" y="608" text-anchor="end" fill="#888" font-size="10">Shaded band: pointwise 95% CI from cluster-robust SE. Vertical dashed line marks the year before adoption.</text>
</svg>