<svg xmlns="http://www.w3.org/2000/svg" viewBox="0 0 820 620" font-family="-apple-system, Segoe UI, Helvetica, Arial, sans-serif" font-size="11">
<text x="410.0" y="22" text-anchor="middle" font-size="14" font-weight="600">Spatial RDD event study, permitless carry (contiguous county pairs)</text>
<rect x="15" y="40" width="380" height="260" fill="#fafaf7" stroke="#e2e2dc"/>
<text x="205.0" y="58" text-anchor="middle" font-weight="600">State firearm suicide rate (per 100,000)</text>
<line x1="75" y1="166.1112998521716" x2="377" y2="166.1112998521716" stroke="#aaaaaa" stroke-width="0.7"/>
<line x1="212.3" y1="90" x2="212.3" y2="250" stroke="#b9461a" stroke-dasharray="3 3"/>
<line x1="88.7" y1="207.3" x2="88.7" y2="173.3" stroke="#1f3a5f" stroke-width="1.4" opacity="1.00"/>
<line x1="84.7" y1="207.3" x2="92.7" y2="207.3" stroke="#1f3a5f" stroke-width="1.2" opacity="1.00"/>
<line x1="84.7" y1="173.3" x2="92.7" y2="173.3" stroke="#1f3a5f" stroke-width="1.2" opacity="1.00"/>
<circle cx="88.7" cy="190.3" r="3.2" fill="#1f3a5f"/>
<line x1="116.2" y1="176.9" x2="116.2" y2="135.7" stroke="#1f3a5f" stroke-width="1.4" opacity="0.35"/>
<line x1="112.2" y1="176.9" x2="120.2" y2="176.9" stroke="#1f3a5f" stroke-width="1.2" opacity="0.35"/>
<line x1="112.2" y1="135.7" x2="120.2" y2="135.7" stroke="#1f3a5f" stroke-width="1.2" opacity="0.35"/>
<circle cx="116.2" cy="156.3" r="3.2" fill="white" stroke="#1f3a5f" stroke-width="1.3" opacity="0.35"/>
<line x1="143.6" y1="164.7" x2="143.6" y2="115.9" stroke="#1f3a5f" stroke-width="1.4" opacity="1.00"/>
<line x1="139.6" y1="164.7" x2="147.6" y2="164.7" stroke="#1f3a5f" stroke-width="1.2" opacity="1.00"/>
<line x1="139.6" y1="115.9" x2="147.6" y2="115.9" stroke="#1f3a5f" stroke-width="1.2" opacity="1.00"/>
<circle cx="143.6" cy="140.3" r="3.2" fill="#1f3a5f"/>
<line x1="171.1" y1="208.2" x2="171.1" y2="176.8" stroke="#1f3a5f" stroke-width="1.4" opacity="1.00"/>
<line x1="167.1" y1="208.2" x2="175.1" y2="208.2" stroke="#1f3a5f" stroke-width="1.2" opacity="1.00"/>
<line x1="167.1" y1="176.8" x2="175.1" y2="176.8" stroke="#1f3a5f" stroke-width="1.2" opacity="1.00"/>
<circle cx="171.1" cy="192.5" r="3.2" fill="#1f3a5f"/>
<line x1="198.5" y1="166.1" x2="198.5" y2="166.1" stroke="#1f3a5f" stroke-width="1.4" opacity="0.35"/>
<line x1="194.5" y1="166.1" x2="202.5" y2="166.1" stroke="#1f3a5f" stroke-width="1.2" opacity="0.35"/>
<line x1="194.5" y1="166.1" x2="202.5" y2="166.1" stroke="#1f3a5f" stroke-width="1.2" opacity="0.35"/>
<circle cx="198.5" cy="166.1" r="3.2" fill="white" stroke="#1f3a5f" stroke-width="1.3" opacity="0.35"/>
<line x1="226.0" y1="185.8" x2="226.0" y2="136.1" stroke="#1f3a5f" stroke-width="1.4" opacity="0.35"/>
<line x1="222.0" y1="185.8" x2="230.0" y2="185.8" stroke="#1f3a5f" stroke-width="1.2" opacity="0.35"/>
<line x1="222.0" y1="136.1" x2="230.0" y2="136.1" stroke="#1f3a5f" stroke-width="1.2" opacity="0.35"/>
<circle cx="226.0" cy="161.0" r="3.2" fill="white" stroke="#1f3a5f" stroke-width="1.3" opacity="0.35"/>
<line x1="253.5" y1="155.8" x2="253.5" y2="100.6" stroke="#1f3a5f" stroke-width="1.4" opacity="1.00"/>
<line x1="249.5" y1="155.8" x2="257.5" y2="155.8" stroke="#1f3a5f" stroke-width="1.2" opacity="1.00"/>
<line x1="249.5" y1="100.6" x2="257.5" y2="100.6" stroke="#1f3a5f" stroke-width="1.2" opacity="1.00"/>
<circle cx="253.5" cy="128.2" r="3.2" fill="#1f3a5f"/>
<line x1="280.9" y1="154.2" x2="280.9" y2="106.4" stroke="#1f3a5f" stroke-width="1.4" opacity="1.00"/>
<line x1="276.9" y1="154.2" x2="284.9" y2="154.2" stroke="#1f3a5f" stroke-width="1.2" opacity="1.00"/>
<line x1="276.9" y1="106.4" x2="284.9" y2="106.4" stroke="#1f3a5f" stroke-width="1.2" opacity="1.00"/>
<circle cx="280.9" cy="130.3" r="3.2" fill="#1f3a5f"/>
<line x1="308.4" y1="250.0" x2="308.4" y2="184.0" stroke="#1f3a5f" stroke-width="1.4" opacity="1.00"/>
<line x1="304.4" y1="250.0" x2="312.4" y2="250.0" stroke="#1f3a5f" stroke-width="1.2" opacity="1.00"/>
<line x1="304.4" y1="184.0" x2="312.4" y2="184.0" stroke="#1f3a5f" stroke-width="1.2" opacity="1.00"/>
<circle cx="308.4" cy="217.0" r="3.2" fill="#1f3a5f"/>
<line x1="335.8" y1="202.7" x2="335.8" y2="145.8" stroke="#1f3a5f" stroke-width="1.4" opacity="0.35"/>
<line x1="331.8" y1="202.7" x2="339.8" y2="202.7" stroke="#1f3a5f" stroke-width="1.2" opacity="0.35"/>
<line x1="331.8" y1="145.8" x2="339.8" y2="145.8" stroke="#1f3a5f" stroke-width="1.2" opacity="0.35"/>
<circle cx="335.8" cy="174.2" r="3.2" fill="white" stroke="#1f3a5f" stroke-width="1.3" opacity="0.35"/>
<line x1="363.3" y1="195.7" x2="363.3" y2="90.0" stroke="#1f3a5f" stroke-width="1.4" opacity="0.35"/>
<line x1="359.3" y1="195.7" x2="367.3" y2="195.7" stroke="#1f3a5f" stroke-width="1.2" opacity="0.35"/>
<line x1="359.3" y1="90.0" x2="367.3" y2="90.0" stroke="#1f3a5f" stroke-width="1.2" opacity="0.35"/>
<circle cx="363.3" cy="142.9" r="3.2" fill="white" stroke="#1f3a5f" stroke-width="1.3" opacity="0.35"/>
<line x1="75" y1="250" x2="377" y2="250" stroke="#444"/>
<line x1="75" y1="90" x2="75" y2="250" stroke="#444"/>
<line x1="88.7" y1="250" x2="88.7" y2="253" stroke="#444"/>
<text x="88.7" y="265" text-anchor="middle" fill="#444">-5</text>
<line x1="116.2" y1="250" x2="116.2" y2="253" stroke="#444"/>
<text x="116.2" y="265" text-anchor="middle" fill="#444">-4</text>
<line x1="143.6" y1="250" x2="143.6" y2="253" stroke="#444"/>
<text x="143.6" y="265" text-anchor="middle" fill="#444">-3</text>
<line x1="171.1" y1="250" x2="171.1" y2="253" stroke="#444"/>
<text x="171.1" y="265" text-anchor="middle" fill="#444">-2</text>
<line x1="198.5" y1="250" x2="198.5" y2="253" stroke="#444"/>
<text x="198.5" y="265" text-anchor="middle" fill="#444">-1</text>
<line x1="226.0" y1="250" x2="226.0" y2="253" stroke="#444"/>
<text x="226.0" y="265" text-anchor="middle" fill="#444">0</text>
<line x1="253.5" y1="250" x2="253.5" y2="253" stroke="#444"/>
<text x="253.5" y="265" text-anchor="middle" fill="#444">1</text>
<line x1="280.9" y1="250" x2="280.9" y2="253" stroke="#444"/>
<text x="280.9" y="265" text-anchor="middle" fill="#444">2</text>
<line x1="308.4" y1="250" x2="308.4" y2="253" stroke="#444"/>
<text x="308.4" y="265" text-anchor="middle" fill="#444">3</text>
<line x1="335.8" y1="250" x2="335.8" y2="253" stroke="#444"/>
<text x="335.8" y="265" text-anchor="middle" fill="#444">4</text>
<line x1="363.3" y1="250" x2="363.3" y2="253" stroke="#444"/>
<text x="363.3" y="265" text-anchor="middle" fill="#444">5</text>
<line x1="72" y1="250.0" x2="75" y2="250.0" stroke="#444"/>
<text x="69" y="253.0" text-anchor="end" fill="#444">-0.71</text>
<line x1="72" y1="210.0" x2="75" y2="210.0" stroke="#444"/>
<text x="69" y="213.0" text-anchor="end" fill="#444">-0.37</text>
<line x1="72" y1="170.0" x2="75" y2="170.0" stroke="#444"/>
<text x="69" y="173.0" text-anchor="end" fill="#444">-0.033</text>
<line x1="72" y1="130.0" x2="75" y2="130.0" stroke="#444"/>
<text x="69" y="133.0" text-anchor="end" fill="#444">0.31</text>
<line x1="72" y1="90.0" x2="75" y2="90.0" stroke="#444"/>
<text x="69" y="93.0" text-anchor="end" fill="#444">0.64</text>
<text x="226.0" y="284" text-anchor="middle" fill="#444">Event time (years from adoption)</text>
<text x="27" y="170.0" text-anchor="middle" fill="#444" transform="rotate(-90 27 170.0)">Coefficient (per 100k)</text>
<rect x="425" y="40" width="380" height="260" fill="#fafaf7" stroke="#e2e2dc"/>
<text x="615.0" y="58" text-anchor="middle" font-weight="600">State total suicide rate (per 100,000)</text>
<line x1="485" y1="177.337518351923" x2="787" y2="177.337518351923" stroke="#aaaaaa" stroke-width="0.7"/>
<line x1="622.3" y1="90" x2="622.3" y2="250" stroke="#b9461a" stroke-dasharray="3 3"/>
<line x1="498.7" y1="219.6" x2="498.7" y2="173.7" stroke="#1f3a5f" stroke-width="1.4" opacity="0.35"/>
<line x1="494.7" y1="219.6" x2="502.7" y2="219.6" stroke="#1f3a5f" stroke-width="1.2" opacity="0.35"/>
<line x1="494.7" y1="173.7" x2="502.7" y2="173.7" stroke="#1f3a5f" stroke-width="1.2" opacity="0.35"/>
<circle cx="498.7" cy="196.6" r="3.2" fill="white" stroke="#1f3a5f" stroke-width="1.3" opacity="0.35"/>
<line x1="526.2" y1="176.6" x2="526.2" y2="138.5" stroke="#1f3a5f" stroke-width="1.4" opacity="1.00"/>
<line x1="522.2" y1="176.6" x2="530.2" y2="176.6" stroke="#1f3a5f" stroke-width="1.2" opacity="1.00"/>
<line x1="522.2" y1="138.5" x2="530.2" y2="138.5" stroke="#1f3a5f" stroke-width="1.2" opacity="1.00"/>
<circle cx="526.2" cy="157.6" r="3.2" fill="#1f3a5f"/>
<line x1="553.6" y1="193.8" x2="553.6" y2="154.8" stroke="#1f3a5f" stroke-width="1.4" opacity="0.35"/>
<line x1="549.6" y1="193.8" x2="557.6" y2="193.8" stroke="#1f3a5f" stroke-width="1.2" opacity="0.35"/>
<line x1="549.6" y1="154.8" x2="557.6" y2="154.8" stroke="#1f3a5f" stroke-width="1.2" opacity="0.35"/>
<circle cx="553.6" cy="174.3" r="3.2" fill="white" stroke="#1f3a5f" stroke-width="1.3" opacity="0.35"/>
<line x1="581.1" y1="217.1" x2="581.1" y2="181.9" stroke="#1f3a5f" stroke-width="1.4" opacity="1.00"/>
<line x1="577.1" y1="217.1" x2="585.1" y2="217.1" stroke="#1f3a5f" stroke-width="1.2" opacity="1.00"/>
<line x1="577.1" y1="181.9" x2="585.1" y2="181.9" stroke="#1f3a5f" stroke-width="1.2" opacity="1.00"/>
<circle cx="581.1" cy="199.5" r="3.2" fill="#1f3a5f"/>
<line x1="608.5" y1="177.3" x2="608.5" y2="177.3" stroke="#1f3a5f" stroke-width="1.4" opacity="0.35"/>
<line x1="604.5" y1="177.3" x2="612.5" y2="177.3" stroke="#1f3a5f" stroke-width="1.2" opacity="0.35"/>
<line x1="604.5" y1="177.3" x2="612.5" y2="177.3" stroke="#1f3a5f" stroke-width="1.2" opacity="0.35"/>
<circle cx="608.5" cy="177.3" r="3.2" fill="white" stroke="#1f3a5f" stroke-width="1.3" opacity="0.35"/>
<line x1="636.0" y1="183.0" x2="636.0" y2="153.7" stroke="#1f3a5f" stroke-width="1.4" opacity="0.35"/>
<line x1="632.0" y1="183.0" x2="640.0" y2="183.0" stroke="#1f3a5f" stroke-width="1.2" opacity="0.35"/>
<line x1="632.0" y1="153.7" x2="640.0" y2="153.7" stroke="#1f3a5f" stroke-width="1.2" opacity="0.35"/>
<circle cx="636.0" cy="168.4" r="3.2" fill="white" stroke="#1f3a5f" stroke-width="1.3" opacity="0.35"/>
<line x1="663.5" y1="143.5" x2="663.5" y2="90.0" stroke="#1f3a5f" stroke-width="1.4" opacity="1.00"/>
<line x1="659.5" y1="143.5" x2="667.5" y2="143.5" stroke="#1f3a5f" stroke-width="1.2" opacity="1.00"/>
<line x1="659.5" y1="90.0" x2="667.5" y2="90.0" stroke="#1f3a5f" stroke-width="1.2" opacity="1.00"/>
<circle cx="663.5" cy="116.7" r="3.2" fill="#1f3a5f"/>
<line x1="690.9" y1="163.4" x2="690.9" y2="125.7" stroke="#1f3a5f" stroke-width="1.4" opacity="1.00"/>
<line x1="686.9" y1="163.4" x2="694.9" y2="163.4" stroke="#1f3a5f" stroke-width="1.2" opacity="1.00"/>
<line x1="686.9" y1="125.7" x2="694.9" y2="125.7" stroke="#1f3a5f" stroke-width="1.2" opacity="1.00"/>
<circle cx="690.9" cy="144.5" r="3.2" fill="#1f3a5f"/>
<line x1="718.4" y1="250.0" x2="718.4" y2="195.1" stroke="#1f3a5f" stroke-width="1.4" opacity="1.00"/>
<line x1="714.4" y1="250.0" x2="722.4" y2="250.0" stroke="#1f3a5f" stroke-width="1.2" opacity="1.00"/>
<line x1="714.4" y1="195.1" x2="722.4" y2="195.1" stroke="#1f3a5f" stroke-width="1.2" opacity="1.00"/>
<circle cx="718.4" cy="222.6" r="3.2" fill="#1f3a5f"/>
<line x1="745.8" y1="209.5" x2="745.8" y2="162.4" stroke="#1f3a5f" stroke-width="1.4" opacity="0.35"/>
<line x1="741.8" y1="209.5" x2="749.8" y2="209.5" stroke="#1f3a5f" stroke-width="1.2" opacity="0.35"/>
<line x1="741.8" y1="162.4" x2="749.8" y2="162.4" stroke="#1f3a5f" stroke-width="1.2" opacity="0.35"/>
<circle cx="745.8" cy="185.9" r="3.2" fill="white" stroke="#1f3a5f" stroke-width="1.3" opacity="0.35"/>
<line x1="773.3" y1="221.3" x2="773.3" y2="125.8" stroke="#1f3a5f" stroke-width="1.4" opacity="0.35"/>
<line x1="769.3" y1="221.3" x2="777.3" y2="221.3" stroke="#1f3a5f" stroke-width="1.2" opacity="0.35"/>
<line x1="769.3" y1="125.8" x2="777.3" y2="125.8" stroke="#1f3a5f" stroke-width="1.2" opacity="0.35"/>
<circle cx="773.3" cy="173.5" r="3.2" fill="white" stroke="#1f3a5f" stroke-width="1.3" opacity="0.35"/>
<line x1="485" y1="250" x2="787" y2="250" stroke="#444"/>
<line x1="485" y1="90" x2="485" y2="250" stroke="#444"/>
<line x1="498.7" y1="250" x2="498.7" y2="253" stroke="#444"/>
<text x="498.7" y="265" text-anchor="middle" fill="#444">-5</text>
<line x1="526.2" y1="250" x2="526.2" y2="253" stroke="#444"/>
<text x="526.2" y="265" text-anchor="middle" fill="#444">-4</text>
<line x1="553.6" y1="250" x2="553.6" y2="253" stroke="#444"/>
<text x="553.6" y="265" text-anchor="middle" fill="#444">-3</text>
<line x1="581.1" y1="250" x2="581.1" y2="253" stroke="#444"/>
<text x="581.1" y="265" text-anchor="middle" fill="#444">-2</text>
<line x1="608.5" y1="250" x2="608.5" y2="253" stroke="#444"/>
<text x="608.5" y="265" text-anchor="middle" fill="#444">-1</text>
<line x1="636.0" y1="250" x2="636.0" y2="253" stroke="#444"/>
<text x="636.0" y="265" text-anchor="middle" fill="#444">0</text>
<line x1="663.5" y1="250" x2="663.5" y2="253" stroke="#444"/>
<text x="663.5" y="265" text-anchor="middle" fill="#444">1</text>
<line x1="690.9" y1="250" x2="690.9" y2="253" stroke="#444"/>
<text x="690.9" y="265" text-anchor="middle" fill="#444">2</text>
<line x1="718.4" y1="250" x2="718.4" y2="253" stroke="#444"/>
<text x="718.4" y="265" text-anchor="middle" fill="#444">3</text>
<line x1="745.8" y1="250" x2="745.8" y2="253" stroke="#444"/>
<text x="745.8" y="265" text-anchor="middle" fill="#444">4</text>
<line x1="773.3" y1="250" x2="773.3" y2="253" stroke="#444"/>
<text x="773.3" y="265" text-anchor="middle" fill="#444">5</text>
<line x1="482" y1="250.0" x2="485" y2="250.0" stroke="#444"/>
<text x="479" y="253.0" text-anchor="end" fill="#444">-0.82</text>
<line x1="482" y1="210.0" x2="485" y2="210.0" stroke="#444"/>
<text x="479" y="213.0" text-anchor="end" fill="#444">-0.37</text>
<line x1="482" y1="170.0" x2="485" y2="170.0" stroke="#444"/>
<text x="479" y="173.0" text-anchor="end" fill="#444">0.083</text>
<line x1="482" y1="130.0" x2="485" y2="130.0" stroke="#444"/>
<text x="479" y="133.0" text-anchor="end" fill="#444">0.53</text>
<line x1="482" y1="90.0" x2="485" y2="90.0" stroke="#444"/>
<text x="479" y="93.0" text-anchor="end" fill="#444">0.99</text>
<text x="636.0" y="284" text-anchor="middle" fill="#444">Event time (years from adoption)</text>
<text x="437" y="170.0" text-anchor="middle" fill="#444" transform="rotate(-90 437 170.0)">Coefficient (per 100k)</text>
<rect x="15" y="330" width="380" height="260" fill="#fafaf7" stroke="#e2e2dc"/>
<text x="205.0" y="348" text-anchor="middle" font-weight="600">State non-firearm suicide rate (per 100,000) [substitution]</text>
<line x1="75" y1="453.80074768354245" x2="377" y2="453.80074768354245" stroke="#aaaaaa" stroke-width="0.7"/>
<line x1="212.3" y1="380" x2="212.3" y2="540" stroke="#b9461a" stroke-dasharray="3 3"/>
<line x1="88.7" y1="476.9" x2="88.7" y2="434.0" stroke="#1f3a5f" stroke-width="1.4" opacity="0.35"/>
<line x1="84.7" y1="476.9" x2="92.7" y2="476.9" stroke="#1f3a5f" stroke-width="1.2" opacity="0.35"/>
<line x1="84.7" y1="434.0" x2="92.7" y2="434.0" stroke="#1f3a5f" stroke-width="1.2" opacity="0.35"/>
<circle cx="88.7" cy="455.5" r="3.2" fill="white" stroke="#1f3a5f" stroke-width="1.3" opacity="0.35"/>
<line x1="116.2" y1="453.8" x2="116.2" y2="418.7" stroke="#1f3a5f" stroke-width="1.4" opacity="0.35"/>
<line x1="112.2" y1="453.8" x2="120.2" y2="453.8" stroke="#1f3a5f" stroke-width="1.2" opacity="0.35"/>
<line x1="112.2" y1="418.7" x2="120.2" y2="418.7" stroke="#1f3a5f" stroke-width="1.2" opacity="0.35"/>
<circle cx="116.2" cy="436.3" r="3.2" fill="white" stroke="#1f3a5f" stroke-width="1.3" opacity="0.35"/>
<line x1="143.6" y1="493.2" x2="143.6" y2="460.5" stroke="#1f3a5f" stroke-width="1.4" opacity="1.00"/>
<line x1="139.6" y1="493.2" x2="147.6" y2="493.2" stroke="#1f3a5f" stroke-width="1.2" opacity="1.00"/>
<line x1="139.6" y1="460.5" x2="147.6" y2="460.5" stroke="#1f3a5f" stroke-width="1.2" opacity="1.00"/>
<circle cx="143.6" cy="476.8" r="3.2" fill="#1f3a5f"/>
<line x1="171.1" y1="473.4" x2="171.1" y2="440.9" stroke="#1f3a5f" stroke-width="1.4" opacity="0.35"/>
<line x1="167.1" y1="473.4" x2="175.1" y2="473.4" stroke="#1f3a5f" stroke-width="1.2" opacity="0.35"/>
<line x1="167.1" y1="440.9" x2="175.1" y2="440.9" stroke="#1f3a5f" stroke-width="1.2" opacity="0.35"/>
<circle cx="171.1" cy="457.1" r="3.2" fill="white" stroke="#1f3a5f" stroke-width="1.3" opacity="0.35"/>
<line x1="198.5" y1="453.8" x2="198.5" y2="453.8" stroke="#1f3a5f" stroke-width="1.4" opacity="0.35"/>
<line x1="194.5" y1="453.8" x2="202.5" y2="453.8" stroke="#1f3a5f" stroke-width="1.2" opacity="0.35"/>
<line x1="194.5" y1="453.8" x2="202.5" y2="453.8" stroke="#1f3a5f" stroke-width="1.2" opacity="0.35"/>
<circle cx="198.5" cy="453.8" r="3.2" fill="white" stroke="#1f3a5f" stroke-width="1.3" opacity="0.35"/>
<line x1="226.0" y1="462.2" x2="226.0" y2="430.9" stroke="#1f3a5f" stroke-width="1.4" opacity="0.35"/>
<line x1="222.0" y1="462.2" x2="230.0" y2="462.2" stroke="#1f3a5f" stroke-width="1.2" opacity="0.35"/>
<line x1="222.0" y1="430.9" x2="230.0" y2="430.9" stroke="#1f3a5f" stroke-width="1.2" opacity="0.35"/>
<circle cx="226.0" cy="446.6" r="3.2" fill="white" stroke="#1f3a5f" stroke-width="1.3" opacity="0.35"/>
<line x1="253.5" y1="436.7" x2="253.5" y2="380.0" stroke="#1f3a5f" stroke-width="1.4" opacity="1.00"/>
<line x1="249.5" y1="436.7" x2="257.5" y2="436.7" stroke="#1f3a5f" stroke-width="1.2" opacity="1.00"/>
<line x1="249.5" y1="380.0" x2="257.5" y2="380.0" stroke="#1f3a5f" stroke-width="1.2" opacity="1.00"/>
<circle cx="253.5" cy="408.4" r="3.2" fill="#1f3a5f"/>
<line x1="280.9" y1="462.1" x2="280.9" y2="428.7" stroke="#1f3a5f" stroke-width="1.4" opacity="0.35"/>
<line x1="276.9" y1="462.1" x2="284.9" y2="462.1" stroke="#1f3a5f" stroke-width="1.2" opacity="0.35"/>
<line x1="276.9" y1="428.7" x2="284.9" y2="428.7" stroke="#1f3a5f" stroke-width="1.2" opacity="0.35"/>
<circle cx="280.9" cy="445.4" r="3.2" fill="white" stroke="#1f3a5f" stroke-width="1.3" opacity="0.35"/>
<line x1="308.4" y1="498.9" x2="308.4" y2="428.7" stroke="#1f3a5f" stroke-width="1.4" opacity="0.35"/>
<line x1="304.4" y1="498.9" x2="312.4" y2="498.9" stroke="#1f3a5f" stroke-width="1.2" opacity="0.35"/>
<line x1="304.4" y1="428.7" x2="312.4" y2="428.7" stroke="#1f3a5f" stroke-width="1.2" opacity="0.35"/>
<circle cx="308.4" cy="463.8" r="3.2" fill="white" stroke="#1f3a5f" stroke-width="1.3" opacity="0.35"/>
<line x1="335.8" y1="487.1" x2="335.8" y2="427.6" stroke="#1f3a5f" stroke-width="1.4" opacity="0.35"/>
<line x1="331.8" y1="487.1" x2="339.8" y2="487.1" stroke="#1f3a5f" stroke-width="1.2" opacity="0.35"/>
<line x1="331.8" y1="427.6" x2="339.8" y2="427.6" stroke="#1f3a5f" stroke-width="1.2" opacity="0.35"/>
<circle cx="335.8" cy="457.4" r="3.2" fill="white" stroke="#1f3a5f" stroke-width="1.3" opacity="0.35"/>
<line x1="363.3" y1="540.0" x2="363.3" y2="406.2" stroke="#1f3a5f" stroke-width="1.4" opacity="0.35"/>
<line x1="359.3" y1="540.0" x2="367.3" y2="540.0" stroke="#1f3a5f" stroke-width="1.2" opacity="0.35"/>
<line x1="359.3" y1="406.2" x2="367.3" y2="406.2" stroke="#1f3a5f" stroke-width="1.2" opacity="0.35"/>
<circle cx="363.3" cy="473.1" r="3.2" fill="white" stroke="#1f3a5f" stroke-width="1.3" opacity="0.35"/>
<line x1="75" y1="540" x2="377" y2="540" stroke="#444"/>
<line x1="75" y1="380" x2="75" y2="540" stroke="#444"/>
<line x1="88.7" y1="540" x2="88.7" y2="543" stroke="#444"/>
<text x="88.7" y="555" text-anchor="middle" fill="#444">-5</text>
<line x1="116.2" y1="540" x2="116.2" y2="543" stroke="#444"/>
<text x="116.2" y="555" text-anchor="middle" fill="#444">-4</text>
<line x1="143.6" y1="540" x2="143.6" y2="543" stroke="#444"/>
<text x="143.6" y="555" text-anchor="middle" fill="#444">-3</text>
<line x1="171.1" y1="540" x2="171.1" y2="543" stroke="#444"/>
<text x="171.1" y="555" text-anchor="middle" fill="#444">-2</text>
<line x1="198.5" y1="540" x2="198.5" y2="543" stroke="#444"/>
<text x="198.5" y="555" text-anchor="middle" fill="#444">-1</text>
<line x1="226.0" y1="540" x2="226.0" y2="543" stroke="#444"/>
<text x="226.0" y="555" text-anchor="middle" fill="#444">0</text>
<line x1="253.5" y1="540" x2="253.5" y2="543" stroke="#444"/>
<text x="253.5" y="555" text-anchor="middle" fill="#444">1</text>
<line x1="280.9" y1="540" x2="280.9" y2="543" stroke="#444"/>
<text x="280.9" y="555" text-anchor="middle" fill="#444">2</text>
<line x1="308.4" y1="540" x2="308.4" y2="543" stroke="#444"/>
<text x="308.4" y="555" text-anchor="middle" fill="#444">3</text>
<line x1="335.8" y1="540" x2="335.8" y2="543" stroke="#444"/>
<text x="335.8" y="555" text-anchor="middle" fill="#444">4</text>
<line x1="363.3" y1="540" x2="363.3" y2="543" stroke="#444"/>
<text x="363.3" y="555" text-anchor="middle" fill="#444">5</text>
<line x1="72" y1="540.0" x2="75" y2="540.0" stroke="#444"/>
<text x="69" y="543.0" text-anchor="end" fill="#444">-0.69</text>
<line x1="72" y1="500.0" x2="75" y2="500.0" stroke="#444"/>
<text x="69" y="503.0" text-anchor="end" fill="#444">-0.37</text>
<line x1="72" y1="460.0" x2="75" y2="460.0" stroke="#444"/>
<text x="69" y="463.0" text-anchor="end" fill="#444">-0.05</text>
<line x1="72" y1="420.0" x2="75" y2="420.0" stroke="#444"/>
<text x="69" y="423.0" text-anchor="end" fill="#444">0.27</text>
<line x1="72" y1="380.0" x2="75" y2="380.0" stroke="#444"/>
<text x="69" y="383.0" text-anchor="end" fill="#444">0.59</text>
<text x="226.0" y="574" text-anchor="middle" fill="#444">Event time (years from adoption)</text>
<text x="27" y="460.0" text-anchor="middle" fill="#444" transform="rotate(-90 27 460.0)">Coefficient (per 100k)</text>
<rect x="425" y="330" width="380" height="260" fill="#fafaf7" stroke="#e2e2dc"/>
<text x="615.0" y="348" text-anchor="middle" font-weight="600">State firearm homicide rate (per 100,000)</text>
<line x1="485" y1="483.2801706996713" x2="787" y2="483.2801706996713" stroke="#aaaaaa" stroke-width="0.7"/>
<line x1="622.3" y1="380" x2="622.3" y2="540" stroke="#b9461a" stroke-dasharray="3 3"/>
<line x1="498.7" y1="523.9" x2="498.7" y2="483.3" stroke="#1f3a5f" stroke-width="1.4" opacity="1.00"/>
<line x1="494.7" y1="523.9" x2="502.7" y2="523.9" stroke="#1f3a5f" stroke-width="1.2" opacity="1.00"/>
<line x1="494.7" y1="483.3" x2="502.7" y2="483.3" stroke="#1f3a5f" stroke-width="1.2" opacity="1.00"/>
<circle cx="498.7" cy="503.6" r="3.2" fill="#1f3a5f"/>
<line x1="526.2" y1="502.2" x2="526.2" y2="464.2" stroke="#1f3a5f" stroke-width="1.4" opacity="0.35"/>
<line x1="522.2" y1="502.2" x2="530.2" y2="502.2" stroke="#1f3a5f" stroke-width="1.2" opacity="0.35"/>
<line x1="522.2" y1="464.2" x2="530.2" y2="464.2" stroke="#1f3a5f" stroke-width="1.2" opacity="0.35"/>
<circle cx="526.2" cy="483.2" r="3.2" fill="white" stroke="#1f3a5f" stroke-width="1.3" opacity="0.35"/>
<line x1="553.6" y1="536.0" x2="553.6" y2="481.5" stroke="#1f3a5f" stroke-width="1.4" opacity="0.35"/>
<line x1="549.6" y1="536.0" x2="557.6" y2="536.0" stroke="#1f3a5f" stroke-width="1.2" opacity="0.35"/>
<line x1="549.6" y1="481.5" x2="557.6" y2="481.5" stroke="#1f3a5f" stroke-width="1.2" opacity="0.35"/>
<circle cx="553.6" cy="508.8" r="3.2" fill="white" stroke="#1f3a5f" stroke-width="1.3" opacity="0.35"/>
<line x1="581.1" y1="530.8" x2="581.1" y2="479.7" stroke="#1f3a5f" stroke-width="1.4" opacity="0.35"/>
<line x1="577.1" y1="530.8" x2="585.1" y2="530.8" stroke="#1f3a5f" stroke-width="1.2" opacity="0.35"/>
<line x1="577.1" y1="479.7" x2="585.1" y2="479.7" stroke="#1f3a5f" stroke-width="1.2" opacity="0.35"/>
<circle cx="581.1" cy="505.3" r="3.2" fill="white" stroke="#1f3a5f" stroke-width="1.3" opacity="0.35"/>
<line x1="608.5" y1="483.3" x2="608.5" y2="483.3" stroke="#1f3a5f" stroke-width="1.4" opacity="0.35"/>
<line x1="604.5" y1="483.3" x2="612.5" y2="483.3" stroke="#1f3a5f" stroke-width="1.2" opacity="0.35"/>
<line x1="604.5" y1="483.3" x2="612.5" y2="483.3" stroke="#1f3a5f" stroke-width="1.2" opacity="0.35"/>
<circle cx="608.5" cy="483.3" r="3.2" fill="white" stroke="#1f3a5f" stroke-width="1.3" opacity="0.35"/>
<line x1="636.0" y1="522.6" x2="636.0" y2="471.9" stroke="#1f3a5f" stroke-width="1.4" opacity="0.35"/>
<line x1="632.0" y1="522.6" x2="640.0" y2="522.6" stroke="#1f3a5f" stroke-width="1.2" opacity="0.35"/>
<line x1="632.0" y1="471.9" x2="640.0" y2="471.9" stroke="#1f3a5f" stroke-width="1.2" opacity="0.35"/>
<circle cx="636.0" cy="497.3" r="3.2" fill="white" stroke="#1f3a5f" stroke-width="1.3" opacity="0.35"/>
<line x1="663.5" y1="511.5" x2="663.5" y2="456.0" stroke="#1f3a5f" stroke-width="1.4" opacity="0.35"/>
<line x1="659.5" y1="511.5" x2="667.5" y2="511.5" stroke="#1f3a5f" stroke-width="1.2" opacity="0.35"/>
<line x1="659.5" y1="456.0" x2="667.5" y2="456.0" stroke="#1f3a5f" stroke-width="1.2" opacity="0.35"/>
<circle cx="663.5" cy="483.8" r="3.2" fill="white" stroke="#1f3a5f" stroke-width="1.3" opacity="0.35"/>
<line x1="690.9" y1="499.4" x2="690.9" y2="432.8" stroke="#1f3a5f" stroke-width="1.4" opacity="0.35"/>
<line x1="686.9" y1="499.4" x2="694.9" y2="499.4" stroke="#1f3a5f" stroke-width="1.2" opacity="0.35"/>
<line x1="686.9" y1="432.8" x2="694.9" y2="432.8" stroke="#1f3a5f" stroke-width="1.2" opacity="0.35"/>
<circle cx="690.9" cy="466.1" r="3.2" fill="white" stroke="#1f3a5f" stroke-width="1.3" opacity="0.35"/>
<line x1="718.4" y1="483.2" x2="718.4" y2="431.3" stroke="#1f3a5f" stroke-width="1.4" opacity="1.00"/>
<line x1="714.4" y1="483.2" x2="722.4" y2="483.2" stroke="#1f3a5f" stroke-width="1.2" opacity="1.00"/>
<line x1="714.4" y1="431.3" x2="722.4" y2="431.3" stroke="#1f3a5f" stroke-width="1.2" opacity="1.00"/>
<circle cx="718.4" cy="457.2" r="3.2" fill="#1f3a5f"/>
<line x1="745.8" y1="540.0" x2="745.8" y2="489.0" stroke="#1f3a5f" stroke-width="1.4" opacity="1.00"/>
<line x1="741.8" y1="540.0" x2="749.8" y2="540.0" stroke="#1f3a5f" stroke-width="1.2" opacity="1.00"/>
<line x1="741.8" y1="489.0" x2="749.8" y2="489.0" stroke="#1f3a5f" stroke-width="1.2" opacity="1.00"/>
<circle cx="745.8" cy="514.5" r="3.2" fill="#1f3a5f"/>
<line x1="773.3" y1="493.0" x2="773.3" y2="380.0" stroke="#1f3a5f" stroke-width="1.4" opacity="0.35"/>
<line x1="769.3" y1="493.0" x2="777.3" y2="493.0" stroke="#1f3a5f" stroke-width="1.2" opacity="0.35"/>
<line x1="769.3" y1="380.0" x2="777.3" y2="380.0" stroke="#1f3a5f" stroke-width="1.2" opacity="0.35"/>
<circle cx="773.3" cy="436.5" r="3.2" fill="white" stroke="#1f3a5f" stroke-width="1.3" opacity="0.35"/>
<line x1="485" y1="540" x2="787" y2="540" stroke="#444"/>
<line x1="485" y1="380" x2="485" y2="540" stroke="#444"/>
<line x1="498.7" y1="540" x2="498.7" y2="543" stroke="#444"/>
<text x="498.7" y="555" text-anchor="middle" fill="#444">-5</text>
<line x1="526.2" y1="540" x2="526.2" y2="543" stroke="#444"/>
<text x="526.2" y="555" text-anchor="middle" fill="#444">-4</text>
<line x1="553.6" y1="540" x2="553.6" y2="543" stroke="#444"/>
<text x="553.6" y="555" text-anchor="middle" fill="#444">-3</text>
<line x1="581.1" y1="540" x2="581.1" y2="543" stroke="#444"/>
<text x="581.1" y="555" text-anchor="middle" fill="#444">-2</text>
<line x1="608.5" y1="540" x2="608.5" y2="543" stroke="#444"/>
<text x="608.5" y="555" text-anchor="middle" fill="#444">-1</text>
<line x1="636.0" y1="540" x2="636.0" y2="543" stroke="#444"/>
<text x="636.0" y="555" text-anchor="middle" fill="#444">0</text>
<line x1="663.5" y1="540" x2="663.5" y2="543" stroke="#444"/>
<text x="663.5" y="555" text-anchor="middle" fill="#444">1</text>
<line x1="690.9" y1="540" x2="690.9" y2="543" stroke="#444"/>
<text x="690.9" y="555" text-anchor="middle" fill="#444">2</text>
<line x1="718.4" y1="540" x2="718.4" y2="543" stroke="#444"/>
<text x="718.4" y="555" text-anchor="middle" fill="#444">3</text>
<line x1="745.8" y1="540" x2="745.8" y2="543" stroke="#444"/>
<text x="745.8" y="555" text-anchor="middle" fill="#444">4</text>
<line x1="773.3" y1="540" x2="773.3" y2="543" stroke="#444"/>
<text x="773.3" y="555" text-anchor="middle" fill="#444">5</text>
<line x1="482" y1="540.0" x2="485" y2="540.0" stroke="#444"/>
<text x="479" y="543.0" text-anchor="end" fill="#444">-0.57</text>
<line x1="482" y1="500.0" x2="485" y2="500.0" stroke="#444"/>
<text x="479" y="503.0" text-anchor="end" fill="#444">-0.17</text>
<line x1="482" y1="460.0" x2="485" y2="460.0" stroke="#444"/>
<text x="479" y="463.0" text-anchor="end" fill="#444">0.23</text>
<line x1="482" y1="420.0" x2="485" y2="420.0" stroke="#444"/>
<text x="479" y="423.0" text-anchor="end" fill="#444">0.63</text>
<line x1="482" y1="380.0" x2="485" y2="380.0" stroke="#444"/>
<text x="479" y="383.0" text-anchor="end" fill="#444">1</text>
<text x="636.0" y="574" text-anchor="middle" fill="#444">Event time (years from adoption)</text>
<text x="437" y="460.0" text-anchor="middle" fill="#444" transform="rotate(-90 437 460.0)">Coefficient (per 100k)</text>
<text x="805" y="608" text-anchor="end" fill="#888" font-size="10">Whiskers: pointwise 95% CI from cluster-robust SE. Solid dot = significant at 5%; hollow dot = not significant. Vertical dashed line marks the year before adoption.</text>
</svg>