<svg xmlns="http://www.w3.org/2000/svg" viewBox="0 0 820 620" font-family="-apple-system, Segoe UI, Helvetica, Arial, sans-serif" font-size="11">
<text x="410.0" y="22" text-anchor="middle" font-size="14" font-weight="600">Callaway-Sant'Anna ATT by event time (RA) -- red-flag (gvro)</text>
<rect x="15" y="40" width="380" height="260" fill="#fafaf7" stroke="#e2e2dc"/>
<text x="205.0" y="58" text-anchor="middle" font-weight="600">Firearm suicide rate (per 100k)</text>
<line x1="75" y1="172.93417666682217" x2="377" y2="172.93417666682217" stroke="#aaaaaa" stroke-width="0.7"/>
<polygon points="88.7,149.6 88.7,151.2 88.7,159.2 116.2,90.0 116.2,153.2 116.2,105.4 143.6,185.1 143.6,173.2 143.6,171.4 171.1,149.2 171.1,131.4 171.1,145.1 226.0,148.0 226.0,128.9 226.0,175.6 253.5,131.8 253.5,96.6 253.5,175.1 280.9,91.6 280.9,98.8 280.9,167.6 308.4,100.0 308.4,104.2 308.4,159.6 335.8,159.9 335.8,128.2 335.8,138.2 363.3,199.3 363.3,160.0 363.3,164.7 363.3,202.7 363.3,212.2 363.3,250.0 335.8,184.2 335.8,188.6 335.8,185.3 308.4,183.7 308.4,157.0 308.4,143.1 280.9,190.8 280.9,154.7 280.9,143.9 253.5,198.5 253.5,144.7 253.5,176.4 226.0,192.1 226.0,172.9 226.0,188.7 171.1,199.2 171.1,182.4 171.1,171.7 143.6,189.0 143.6,208.9 143.6,223.9 116.2,156.4 116.2,175.9 116.2,143.0 88.7,184.1 88.7,192.1 88.7,187.0" fill="#1f3a5f" opacity="0.18"/>
<polyline points="88.7,168.3 88.7,171.7 88.7,171.7 116.2,116.5 116.2,164.5 116.2,130.9 143.6,204.5 143.6,191.1 143.6,180.2 171.1,160.5 171.1,156.9 171.1,172.1 226.0,168.3 226.0,150.9 226.0,183.9 253.5,154.1 253.5,120.7 253.5,186.8 280.9,117.7 280.9,126.7 280.9,179.2 308.4,121.6 308.4,130.6 308.4,171.7 335.8,172.6 335.8,158.4 335.8,161.2 363.3,224.6 363.3,186.1 363.3,183.7" fill="none" stroke="#1f3a5f" stroke-width="1.6"/>
<circle cx="88.7" cy="168.3" r="2.6" fill="#1f3a5f"/>
<circle cx="88.7" cy="171.7" r="2.6" fill="#1f3a5f"/>
<circle cx="88.7" cy="171.7" r="2.6" fill="#1f3a5f"/>
<circle cx="116.2" cy="116.5" r="2.6" fill="#1f3a5f"/>
<circle cx="116.2" cy="164.5" r="2.6" fill="#1f3a5f"/>
<circle cx="116.2" cy="130.9" r="2.6" fill="#1f3a5f"/>
<circle cx="143.6" cy="204.5" r="2.6" fill="#1f3a5f"/>
<circle cx="143.6" cy="191.1" r="2.6" fill="#1f3a5f"/>
<circle cx="143.6" cy="180.2" r="2.6" fill="#1f3a5f"/>
<circle cx="171.1" cy="160.5" r="2.6" fill="#1f3a5f"/>
<circle cx="171.1" cy="156.9" r="2.6" fill="#1f3a5f"/>
<circle cx="171.1" cy="172.1" r="2.6" fill="#1f3a5f"/>
<circle cx="226.0" cy="168.3" r="2.6" fill="#1f3a5f"/>
<circle cx="226.0" cy="150.9" r="2.6" fill="#1f3a5f"/>
<circle cx="226.0" cy="183.9" r="2.6" fill="#1f3a5f"/>
<circle cx="253.5" cy="154.1" r="2.6" fill="#1f3a5f"/>
<circle cx="253.5" cy="120.7" r="2.6" fill="#1f3a5f"/>
<circle cx="253.5" cy="186.8" r="2.6" fill="#1f3a5f"/>
<circle cx="280.9" cy="117.7" r="2.6" fill="#1f3a5f"/>
<circle cx="280.9" cy="126.7" r="2.6" fill="#1f3a5f"/>
<circle cx="280.9" cy="179.2" r="2.6" fill="#1f3a5f"/>
<circle cx="308.4" cy="121.6" r="2.6" fill="#1f3a5f"/>
<circle cx="308.4" cy="130.6" r="2.6" fill="#1f3a5f"/>
<circle cx="308.4" cy="171.7" r="2.6" fill="#1f3a5f"/>
<circle cx="335.8" cy="172.6" r="2.6" fill="#1f3a5f"/>
<circle cx="335.8" cy="158.4" r="2.6" fill="#1f3a5f"/>
<circle cx="335.8" cy="161.2" r="2.6" fill="#1f3a5f"/>
<circle cx="363.3" cy="224.6" r="2.6" fill="#1f3a5f"/>
<circle cx="363.3" cy="186.1" r="2.6" fill="#1f3a5f"/>
<circle cx="363.3" cy="183.7" r="2.6" fill="#1f3a5f"/>
<line x1="212.3" y1="90" x2="212.3" y2="250" stroke="#b9461a" stroke-dasharray="3 3"/>
<line x1="75" y1="250" x2="377" y2="250" stroke="#444"/>
<line x1="75" y1="90" x2="75" y2="250" stroke="#444"/>
<line x1="88.7" y1="250" x2="88.7" y2="253" stroke="#444"/>
<text x="88.7" y="265" text-anchor="middle" fill="#444">-5</text>
<line x1="116.2" y1="250" x2="116.2" y2="253" stroke="#444"/>
<text x="116.2" y="265" text-anchor="middle" fill="#444">-4</text>
<line x1="143.6" y1="250" x2="143.6" y2="253" stroke="#444"/>
<text x="143.6" y="265" text-anchor="middle" fill="#444">-3</text>
<line x1="171.1" y1="250" x2="171.1" y2="253" stroke="#444"/>
<text x="171.1" y="265" text-anchor="middle" fill="#444">-2</text>
<line x1="226.0" y1="250" x2="226.0" y2="253" stroke="#444"/>
<text x="226.0" y="265" text-anchor="middle" fill="#444">0</text>
<line x1="253.5" y1="250" x2="253.5" y2="253" stroke="#444"/>
<text x="253.5" y="265" text-anchor="middle" fill="#444">1</text>
<line x1="280.9" y1="250" x2="280.9" y2="253" stroke="#444"/>
<text x="280.9" y="265" text-anchor="middle" fill="#444">2</text>
<line x1="308.4" y1="250" x2="308.4" y2="253" stroke="#444"/>
<text x="308.4" y="265" text-anchor="middle" fill="#444">3</text>
<line x1="335.8" y1="250" x2="335.8" y2="253" stroke="#444"/>
<text x="335.8" y="265" text-anchor="middle" fill="#444">4</text>
<line x1="363.3" y1="250" x2="363.3" y2="253" stroke="#444"/>
<text x="363.3" y="265" text-anchor="middle" fill="#444">5</text>
<line x1="72" y1="250.0" x2="75" y2="250.0" stroke="#444"/>
<text x="69" y="253.0" text-anchor="end" fill="#444">-2.4</text>
<line x1="72" y1="210.0" x2="75" y2="210.0" stroke="#444"/>
<text x="69" y="213.0" text-anchor="end" fill="#444">-1.1</text>
<line x1="72" y1="170.0" x2="75" y2="170.0" stroke="#444"/>
<text x="69" y="173.0" text-anchor="end" fill="#444">0.091</text>
<line x1="72" y1="130.0" x2="75" y2="130.0" stroke="#444"/>
<text x="69" y="133.0" text-anchor="end" fill="#444">1.3</text>
<line x1="72" y1="90.0" x2="75" y2="90.0" stroke="#444"/>
<text x="69" y="93.0" text-anchor="end" fill="#444">2.6</text>
<text x="226.0" y="284" text-anchor="middle" fill="#444">Event time (years from adoption)</text>
<text x="27" y="170.0" text-anchor="middle" fill="#444" transform="rotate(-90 27 170.0)">ATT (per 100k)</text>
<rect x="425" y="40" width="380" height="260" fill="#fafaf7" stroke="#e2e2dc"/>
<text x="615.0" y="58" text-anchor="middle" font-weight="600">Non-firearm suicide rate (per 100k) [substitution test]</text>
<line x1="485" y1="159.42378128642858" x2="787" y2="159.42378128642858" stroke="#aaaaaa" stroke-width="0.7"/>
<polygon points="498.7,131.0 498.7,90.0 498.7,135.6 526.2,131.5 526.2,149.7 526.2,156.6 553.6,169.1 553.6,135.6 553.6,143.1 581.1,149.7 581.1,108.5 581.1,122.8 636.0,128.7 636.0,167.3 636.0,149.5 663.5,155.7 663.5,134.2 663.5,146.4 690.9,109.8 690.9,126.7 690.9,130.5 718.4,179.8 718.4,195.5 718.4,150.9 745.8,153.3 745.8,140.3 745.8,112.6 773.3,178.9 773.3,159.9 773.3,126.2 773.3,151.0 773.3,194.2 773.3,221.4 745.8,151.8 745.8,177.6 745.8,172.9 718.4,167.8 718.4,250.0 718.4,226.1 690.9,151.0 690.9,191.7 690.9,163.4 663.5,162.0 663.5,168.1 663.5,197.8 636.0,166.4 636.0,205.5 636.0,160.6 581.1,170.0 581.1,145.6 581.1,167.7 553.6,157.4 553.6,177.1 553.6,235.0 526.2,192.9 526.2,173.2 526.2,164.5 498.7,152.2 498.7,134.1 498.7,193.0" fill="#1f3a5f" opacity="0.18"/>
<polyline points="498.7,162.0 498.7,112.0 498.7,143.9 526.2,148.0 526.2,161.4 526.2,174.7 553.6,202.0 553.6,156.3 553.6,150.3 581.1,158.7 581.1,127.0 581.1,146.4 636.0,144.6 636.0,186.4 636.0,157.9 663.5,176.8 663.5,151.1 663.5,154.2 690.9,136.6 690.9,159.2 690.9,140.8 718.4,202.9 718.4,222.7 718.4,159.3 745.8,163.1 745.8,159.0 745.8,132.2 773.3,200.1 773.3,177.1 773.3,138.6" fill="none" stroke="#1f3a5f" stroke-width="1.6"/>
<circle cx="498.7" cy="162.0" r="2.6" fill="#1f3a5f"/>
<circle cx="498.7" cy="112.0" r="2.6" fill="#1f3a5f"/>
<circle cx="498.7" cy="143.9" r="2.6" fill="#1f3a5f"/>
<circle cx="526.2" cy="148.0" r="2.6" fill="#1f3a5f"/>
<circle cx="526.2" cy="161.4" r="2.6" fill="#1f3a5f"/>
<circle cx="526.2" cy="174.7" r="2.6" fill="#1f3a5f"/>
<circle cx="553.6" cy="202.0" r="2.6" fill="#1f3a5f"/>
<circle cx="553.6" cy="156.3" r="2.6" fill="#1f3a5f"/>
<circle cx="553.6" cy="150.3" r="2.6" fill="#1f3a5f"/>
<circle cx="581.1" cy="158.7" r="2.6" fill="#1f3a5f"/>
<circle cx="581.1" cy="127.0" r="2.6" fill="#1f3a5f"/>
<circle cx="581.1" cy="146.4" r="2.6" fill="#1f3a5f"/>
<circle cx="636.0" cy="144.6" r="2.6" fill="#1f3a5f"/>
<circle cx="636.0" cy="186.4" r="2.6" fill="#1f3a5f"/>
<circle cx="636.0" cy="157.9" r="2.6" fill="#1f3a5f"/>
<circle cx="663.5" cy="176.8" r="2.6" fill="#1f3a5f"/>
<circle cx="663.5" cy="151.1" r="2.6" fill="#1f3a5f"/>
<circle cx="663.5" cy="154.2" r="2.6" fill="#1f3a5f"/>
<circle cx="690.9" cy="136.6" r="2.6" fill="#1f3a5f"/>
<circle cx="690.9" cy="159.2" r="2.6" fill="#1f3a5f"/>
<circle cx="690.9" cy="140.8" r="2.6" fill="#1f3a5f"/>
<circle cx="718.4" cy="202.9" r="2.6" fill="#1f3a5f"/>
<circle cx="718.4" cy="222.7" r="2.6" fill="#1f3a5f"/>
<circle cx="718.4" cy="159.3" r="2.6" fill="#1f3a5f"/>
<circle cx="745.8" cy="163.1" r="2.6" fill="#1f3a5f"/>
<circle cx="745.8" cy="159.0" r="2.6" fill="#1f3a5f"/>
<circle cx="745.8" cy="132.2" r="2.6" fill="#1f3a5f"/>
<circle cx="773.3" cy="200.1" r="2.6" fill="#1f3a5f"/>
<circle cx="773.3" cy="177.1" r="2.6" fill="#1f3a5f"/>
<circle cx="773.3" cy="138.6" r="2.6" fill="#1f3a5f"/>
<line x1="622.3" y1="90" x2="622.3" y2="250" stroke="#b9461a" stroke-dasharray="3 3"/>
<line x1="485" y1="250" x2="787" y2="250" stroke="#444"/>
<line x1="485" y1="90" x2="485" y2="250" stroke="#444"/>
<line x1="498.7" y1="250" x2="498.7" y2="253" stroke="#444"/>
<text x="498.7" y="265" text-anchor="middle" fill="#444">-5</text>
<line x1="526.2" y1="250" x2="526.2" y2="253" stroke="#444"/>
<text x="526.2" y="265" text-anchor="middle" fill="#444">-4</text>
<line x1="553.6" y1="250" x2="553.6" y2="253" stroke="#444"/>
<text x="553.6" y="265" text-anchor="middle" fill="#444">-3</text>
<line x1="581.1" y1="250" x2="581.1" y2="253" stroke="#444"/>
<text x="581.1" y="265" text-anchor="middle" fill="#444">-2</text>
<line x1="636.0" y1="250" x2="636.0" y2="253" stroke="#444"/>
<text x="636.0" y="265" text-anchor="middle" fill="#444">0</text>
<line x1="663.5" y1="250" x2="663.5" y2="253" stroke="#444"/>
<text x="663.5" y="265" text-anchor="middle" fill="#444">1</text>
<line x1="690.9" y1="250" x2="690.9" y2="253" stroke="#444"/>
<text x="690.9" y="265" text-anchor="middle" fill="#444">2</text>
<line x1="718.4" y1="250" x2="718.4" y2="253" stroke="#444"/>
<text x="718.4" y="265" text-anchor="middle" fill="#444">3</text>
<line x1="745.8" y1="250" x2="745.8" y2="253" stroke="#444"/>
<text x="745.8" y="265" text-anchor="middle" fill="#444">4</text>
<line x1="773.3" y1="250" x2="773.3" y2="253" stroke="#444"/>
<text x="773.3" y="265" text-anchor="middle" fill="#444">5</text>
<line x1="482" y1="250.0" x2="485" y2="250.0" stroke="#444"/>
<text x="479" y="253.0" text-anchor="end" fill="#444">-2.8</text>
<line x1="482" y1="210.0" x2="485" y2="210.0" stroke="#444"/>
<text x="479" y="213.0" text-anchor="end" fill="#444">-1.5</text>
<line x1="482" y1="170.0" x2="485" y2="170.0" stroke="#444"/>
<text x="479" y="173.0" text-anchor="end" fill="#444">-0.32</text>
<line x1="482" y1="130.0" x2="485" y2="130.0" stroke="#444"/>
<text x="479" y="133.0" text-anchor="end" fill="#444">0.89</text>
<line x1="482" y1="90.0" x2="485" y2="90.0" stroke="#444"/>
<text x="479" y="93.0" text-anchor="end" fill="#444">2.1</text>
<text x="636.0" y="284" text-anchor="middle" fill="#444">Event time (years from adoption)</text>
<text x="437" y="170.0" text-anchor="middle" fill="#444" transform="rotate(-90 437 170.0)">ATT (per 100k)</text>
<rect x="15" y="330" width="380" height="260" fill="#fafaf7" stroke="#e2e2dc"/>
<text x="205.0" y="348" text-anchor="middle" font-weight="600">Total suicide rate (per 100k) [net effect]</text>
<line x1="75" y1="457.0138533491515" x2="377" y2="457.0138533491515" stroke="#aaaaaa" stroke-width="0.7"/>
<polygon points="88.7,433.3 88.7,400.2 88.7,435.8 116.2,384.0 116.2,440.5 116.2,418.1 143.6,483.6 143.6,449.8 143.6,448.2 171.1,437.8 171.1,398.2 171.1,420.8 226.0,424.8 226.0,439.6 226.0,456.3 253.5,435.7 253.5,396.9 253.5,453.7 280.9,380.0 280.9,399.5 280.9,437.7 308.4,433.2 308.4,446.2 308.4,445.6 335.8,448.4 335.8,423.5 335.8,410.7 363.3,503.9 363.3,461.5 363.3,433.1 363.3,467.2 363.3,495.7 363.3,540.0 335.8,448.9 335.8,469.3 335.8,470.3 308.4,466.5 308.4,495.7 308.4,468.5 280.9,459.3 280.9,448.7 280.9,424.0 253.5,472.8 253.5,431.5 253.5,475.7 226.0,471.2 226.0,480.7 226.0,462.1 171.1,474.0 171.1,448.1 171.1,457.5 143.6,463.4 143.6,485.6 143.6,534.4 116.2,457.6 116.2,464.4 116.2,434.1 88.7,454.9 88.7,446.1 88.7,477.7" fill="#1f3a5f" opacity="0.18"/>
<polyline points="88.7,455.5 88.7,423.2 88.7,445.3 116.2,409.1 116.2,452.4 116.2,437.8 143.6,509.0 143.6,467.7 143.6,455.8 171.1,447.7 171.1,423.1 171.1,447.4 226.0,443.5 226.0,460.1 226.0,463.7 253.5,455.7 253.5,414.2 253.5,463.2 280.9,402.0 280.9,424.1 280.9,448.5 308.4,450.8 308.4,471.0 308.4,456.1 335.8,459.3 335.8,446.4 335.8,429.8 363.3,522.0 363.3,478.6 363.3,450.2" fill="none" stroke="#1f3a5f" stroke-width="1.6"/>
<circle cx="88.7" cy="455.5" r="2.6" fill="#1f3a5f"/>
<circle cx="88.7" cy="423.2" r="2.6" fill="#1f3a5f"/>
<circle cx="88.7" cy="445.3" r="2.6" fill="#1f3a5f"/>
<circle cx="116.2" cy="409.1" r="2.6" fill="#1f3a5f"/>
<circle cx="116.2" cy="452.4" r="2.6" fill="#1f3a5f"/>
<circle cx="116.2" cy="437.8" r="2.6" fill="#1f3a5f"/>
<circle cx="143.6" cy="509.0" r="2.6" fill="#1f3a5f"/>
<circle cx="143.6" cy="467.7" r="2.6" fill="#1f3a5f"/>
<circle cx="143.6" cy="455.8" r="2.6" fill="#1f3a5f"/>
<circle cx="171.1" cy="447.7" r="2.6" fill="#1f3a5f"/>
<circle cx="171.1" cy="423.1" r="2.6" fill="#1f3a5f"/>
<circle cx="171.1" cy="447.4" r="2.6" fill="#1f3a5f"/>
<circle cx="226.0" cy="443.5" r="2.6" fill="#1f3a5f"/>
<circle cx="226.0" cy="460.1" r="2.6" fill="#1f3a5f"/>
<circle cx="226.0" cy="463.7" r="2.6" fill="#1f3a5f"/>
<circle cx="253.5" cy="455.7" r="2.6" fill="#1f3a5f"/>
<circle cx="253.5" cy="414.2" r="2.6" fill="#1f3a5f"/>
<circle cx="253.5" cy="463.2" r="2.6" fill="#1f3a5f"/>
<circle cx="280.9" cy="402.0" r="2.6" fill="#1f3a5f"/>
<circle cx="280.9" cy="424.1" r="2.6" fill="#1f3a5f"/>
<circle cx="280.9" cy="448.5" r="2.6" fill="#1f3a5f"/>
<circle cx="308.4" cy="450.8" r="2.6" fill="#1f3a5f"/>
<circle cx="308.4" cy="471.0" r="2.6" fill="#1f3a5f"/>
<circle cx="308.4" cy="456.1" r="2.6" fill="#1f3a5f"/>
<circle cx="335.8" cy="459.3" r="2.6" fill="#1f3a5f"/>
<circle cx="335.8" cy="446.4" r="2.6" fill="#1f3a5f"/>
<circle cx="335.8" cy="429.8" r="2.6" fill="#1f3a5f"/>
<circle cx="363.3" cy="522.0" r="2.6" fill="#1f3a5f"/>
<circle cx="363.3" cy="478.6" r="2.6" fill="#1f3a5f"/>
<circle cx="363.3" cy="450.2" r="2.6" fill="#1f3a5f"/>
<line x1="212.3" y1="380" x2="212.3" y2="540" stroke="#b9461a" stroke-dasharray="3 3"/>
<line x1="75" y1="540" x2="377" y2="540" stroke="#444"/>
<line x1="75" y1="380" x2="75" y2="540" stroke="#444"/>
<line x1="88.7" y1="540" x2="88.7" y2="543" stroke="#444"/>
<text x="88.7" y="555" text-anchor="middle" fill="#444">-5</text>
<line x1="116.2" y1="540" x2="116.2" y2="543" stroke="#444"/>
<text x="116.2" y="555" text-anchor="middle" fill="#444">-4</text>
<line x1="143.6" y1="540" x2="143.6" y2="543" stroke="#444"/>
<text x="143.6" y="555" text-anchor="middle" fill="#444">-3</text>
<line x1="171.1" y1="540" x2="171.1" y2="543" stroke="#444"/>
<text x="171.1" y="555" text-anchor="middle" fill="#444">-2</text>
<line x1="226.0" y1="540" x2="226.0" y2="543" stroke="#444"/>
<text x="226.0" y="555" text-anchor="middle" fill="#444">0</text>
<line x1="253.5" y1="540" x2="253.5" y2="543" stroke="#444"/>
<text x="253.5" y="555" text-anchor="middle" fill="#444">1</text>
<line x1="280.9" y1="540" x2="280.9" y2="543" stroke="#444"/>
<text x="280.9" y="555" text-anchor="middle" fill="#444">2</text>
<line x1="308.4" y1="540" x2="308.4" y2="543" stroke="#444"/>
<text x="308.4" y="555" text-anchor="middle" fill="#444">3</text>
<line x1="335.8" y1="540" x2="335.8" y2="543" stroke="#444"/>
<text x="335.8" y="555" text-anchor="middle" fill="#444">4</text>
<line x1="363.3" y1="540" x2="363.3" y2="543" stroke="#444"/>
<text x="363.3" y="555" text-anchor="middle" fill="#444">5</text>
<line x1="72" y1="540.0" x2="75" y2="540.0" stroke="#444"/>
<text x="69" y="543.0" text-anchor="end" fill="#444">-3.6</text>
<line x1="72" y1="500.0" x2="75" y2="500.0" stroke="#444"/>
<text x="69" y="503.0" text-anchor="end" fill="#444">-1.9</text>
<line x1="72" y1="460.0" x2="75" y2="460.0" stroke="#444"/>
<text x="69" y="463.0" text-anchor="end" fill="#444">-0.13</text>
<line x1="72" y1="420.0" x2="75" y2="420.0" stroke="#444"/>
<text x="69" y="423.0" text-anchor="end" fill="#444">1.6</text>
<line x1="72" y1="380.0" x2="75" y2="380.0" stroke="#444"/>
<text x="69" y="383.0" text-anchor="end" fill="#444">3.4</text>
<text x="226.0" y="574" text-anchor="middle" fill="#444">Event time (years from adoption)</text>
<text x="27" y="460.0" text-anchor="middle" fill="#444" transform="rotate(-90 27 460.0)">ATT (per 100k)</text>
<rect x="425" y="330" width="380" height="260" fill="#fafaf7" stroke="#e2e2dc"/>
<text x="615.0" y="348" text-anchor="middle" font-weight="600">Firearm homicide rate (per 100k)</text>
<line x1="485" y1="416.78673482330134" x2="787" y2="416.78673482330134" stroke="#aaaaaa" stroke-width="0.7"/>
<polygon points="498.7,425.6 498.7,421.9 498.7,405.3 526.2,415.8 526.2,409.9 526.2,421.0 553.6,393.4 553.6,405.4 553.6,401.4 581.1,402.4 581.1,419.8 581.1,418.2 636.0,420.2 636.0,410.7 636.0,413.4 663.5,406.6 663.5,408.3 663.5,390.9 690.9,404.5 690.9,398.6 690.9,380.0 718.4,421.1 718.4,401.8 718.4,387.4 745.8,403.6 745.8,415.4 745.8,429.5 773.3,427.5 773.3,449.5 773.3,399.4 773.3,500.2 773.3,540.0 773.3,528.2 745.8,488.4 745.8,478.7 745.8,462.1 718.4,425.3 718.4,454.4 718.4,457.7 690.9,414.6 690.9,433.2 690.9,440.7 663.5,425.4 663.5,453.9 663.5,459.7 636.0,434.2 636.0,445.5 636.0,448.9 581.1,443.6 581.1,442.4 581.1,423.4 553.6,425.6 553.6,438.0 553.6,426.4 526.2,461.9 526.2,437.9 526.2,461.0 498.7,433.9 498.7,463.6 498.7,462.7" fill="#1f3a5f" opacity="0.18"/>
<polyline points="498.7,444.1 498.7,442.8 498.7,419.6 526.2,438.4 526.2,423.9 526.2,441.4 553.6,409.9 553.6,421.7 553.6,413.5 581.1,412.9 581.1,431.1 581.1,430.9 636.0,434.6 636.0,428.1 636.0,423.8 663.5,433.2 663.5,431.1 663.5,408.2 690.9,422.6 690.9,415.9 690.9,397.3 718.4,439.4 718.4,428.1 718.4,406.4 745.8,432.9 745.8,447.1 745.8,458.9 773.3,477.9 773.3,494.7 773.3,449.8" fill="none" stroke="#1f3a5f" stroke-width="1.6"/>
<circle cx="498.7" cy="444.1" r="2.6" fill="#1f3a5f"/>
<circle cx="498.7" cy="442.8" r="2.6" fill="#1f3a5f"/>
<circle cx="498.7" cy="419.6" r="2.6" fill="#1f3a5f"/>
<circle cx="526.2" cy="438.4" r="2.6" fill="#1f3a5f"/>
<circle cx="526.2" cy="423.9" r="2.6" fill="#1f3a5f"/>
<circle cx="526.2" cy="441.4" r="2.6" fill="#1f3a5f"/>
<circle cx="553.6" cy="409.9" r="2.6" fill="#1f3a5f"/>
<circle cx="553.6" cy="421.7" r="2.6" fill="#1f3a5f"/>
<circle cx="553.6" cy="413.5" r="2.6" fill="#1f3a5f"/>
<circle cx="581.1" cy="412.9" r="2.6" fill="#1f3a5f"/>
<circle cx="581.1" cy="431.1" r="2.6" fill="#1f3a5f"/>
<circle cx="581.1" cy="430.9" r="2.6" fill="#1f3a5f"/>
<circle cx="636.0" cy="434.6" r="2.6" fill="#1f3a5f"/>
<circle cx="636.0" cy="428.1" r="2.6" fill="#1f3a5f"/>
<circle cx="636.0" cy="423.8" r="2.6" fill="#1f3a5f"/>
<circle cx="663.5" cy="433.2" r="2.6" fill="#1f3a5f"/>
<circle cx="663.5" cy="431.1" r="2.6" fill="#1f3a5f"/>
<circle cx="663.5" cy="408.2" r="2.6" fill="#1f3a5f"/>
<circle cx="690.9" cy="422.6" r="2.6" fill="#1f3a5f"/>
<circle cx="690.9" cy="415.9" r="2.6" fill="#1f3a5f"/>
<circle cx="690.9" cy="397.3" r="2.6" fill="#1f3a5f"/>
<circle cx="718.4" cy="439.4" r="2.6" fill="#1f3a5f"/>
<circle cx="718.4" cy="428.1" r="2.6" fill="#1f3a5f"/>
<circle cx="718.4" cy="406.4" r="2.6" fill="#1f3a5f"/>
<circle cx="745.8" cy="432.9" r="2.6" fill="#1f3a5f"/>
<circle cx="745.8" cy="447.1" r="2.6" fill="#1f3a5f"/>
<circle cx="745.8" cy="458.9" r="2.6" fill="#1f3a5f"/>
<circle cx="773.3" cy="477.9" r="2.6" fill="#1f3a5f"/>
<circle cx="773.3" cy="494.7" r="2.6" fill="#1f3a5f"/>
<circle cx="773.3" cy="449.8" r="2.6" fill="#1f3a5f"/>
<line x1="622.3" y1="380" x2="622.3" y2="540" stroke="#b9461a" stroke-dasharray="3 3"/>
<line x1="485" y1="540" x2="787" y2="540" stroke="#444"/>
<line x1="485" y1="380" x2="485" y2="540" stroke="#444"/>
<line x1="498.7" y1="540" x2="498.7" y2="543" stroke="#444"/>
<text x="498.7" y="555" text-anchor="middle" fill="#444">-5</text>
<line x1="526.2" y1="540" x2="526.2" y2="543" stroke="#444"/>
<text x="526.2" y="555" text-anchor="middle" fill="#444">-4</text>
<line x1="553.6" y1="540" x2="553.6" y2="543" stroke="#444"/>
<text x="553.6" y="555" text-anchor="middle" fill="#444">-3</text>
<line x1="581.1" y1="540" x2="581.1" y2="543" stroke="#444"/>
<text x="581.1" y="555" text-anchor="middle" fill="#444">-2</text>
<line x1="636.0" y1="540" x2="636.0" y2="543" stroke="#444"/>
<text x="636.0" y="555" text-anchor="middle" fill="#444">0</text>
<line x1="663.5" y1="540" x2="663.5" y2="543" stroke="#444"/>
<text x="663.5" y="555" text-anchor="middle" fill="#444">1</text>
<line x1="690.9" y1="540" x2="690.9" y2="543" stroke="#444"/>
<text x="690.9" y="555" text-anchor="middle" fill="#444">2</text>
<line x1="718.4" y1="540" x2="718.4" y2="543" stroke="#444"/>
<text x="718.4" y="555" text-anchor="middle" fill="#444">3</text>
<line x1="745.8" y1="540" x2="745.8" y2="543" stroke="#444"/>
<text x="745.8" y="555" text-anchor="middle" fill="#444">4</text>
<line x1="773.3" y1="540" x2="773.3" y2="543" stroke="#444"/>
<text x="773.3" y="555" text-anchor="middle" fill="#444">5</text>
<line x1="482" y1="540.0" x2="485" y2="540.0" stroke="#444"/>
<text x="479" y="543.0" text-anchor="end" fill="#444">-2.9</text>
<line x1="482" y1="500.0" x2="485" y2="500.0" stroke="#444"/>
<text x="479" y="503.0" text-anchor="end" fill="#444">-1.9</text>
<line x1="482" y1="460.0" x2="485" y2="460.0" stroke="#444"/>
<text x="479" y="463.0" text-anchor="end" fill="#444">-1</text>
<line x1="482" y1="420.0" x2="485" y2="420.0" stroke="#444"/>
<text x="479" y="423.0" text-anchor="end" fill="#444">-0.075</text>
<line x1="482" y1="380.0" x2="485" y2="380.0" stroke="#444"/>
<text x="479" y="383.0" text-anchor="end" fill="#444">0.86</text>
<text x="636.0" y="574" text-anchor="middle" fill="#444">Event time (years from adoption)</text>
<text x="437" y="460.0" text-anchor="middle" fill="#444" transform="rotate(-90 437 460.0)">ATT (per 100k)</text>
<rect x="15" y="620" width="380" height="260" fill="#fafaf7" stroke="#e2e2dc"/>
<text x="205.0" y="638" text-anchor="middle" font-weight="600">Total homicide rate (per 100k)</text>
<line x1="75" y1="715.2755425970802" x2="377" y2="715.2755425970802" stroke="#aaaaaa" stroke-width="0.7"/>
<polygon points="88.7,689.6 88.7,688.3 88.7,680.8 116.2,690.5 116.2,678.4 116.2,702.8 143.6,675.9 143.6,681.3 143.6,670.0 171.1,695.9 171.1,713.0 171.1,714.6 226.0,714.3 226.0,700.3 226.0,716.5 253.5,719.8 253.5,717.9 253.5,708.8 280.9,740.9 280.9,731.2 280.9,724.4 308.4,722.6 308.4,688.8 308.4,719.9 335.8,754.5 335.8,745.6 335.8,768.3 363.3,707.7 363.3,741.9 363.3,764.7 363.3,830.0 363.3,802.7 363.3,792.1 335.8,812.6 335.8,809.3 335.8,792.8 308.4,765.8 308.4,774.7 308.4,794.7 280.9,765.2 280.9,779.4 280.9,786.6 253.5,744.8 253.5,752.8 253.5,770.9 226.0,738.4 226.0,734.7 226.0,741.1 171.1,743.8 171.1,739.3 171.1,718.6 143.6,703.0 143.6,718.6 143.6,714.9 116.2,757.2 116.2,719.1 116.2,747.3 88.7,723.2 88.7,748.8 88.7,749.1" fill="#1f3a5f" opacity="0.18"/>
<polyline points="88.7,719.4 88.7,718.6 88.7,702.0 116.2,718.9 116.2,698.7 116.2,730.0 143.6,695.4 143.6,699.9 143.6,686.5 171.1,707.3 171.1,726.2 171.1,729.2 226.0,727.7 226.0,717.5 226.0,727.5 253.5,745.3 253.5,735.3 253.5,726.8 280.9,763.8 280.9,755.3 280.9,744.8 308.4,758.6 308.4,731.8 308.4,742.8 335.8,773.6 335.8,777.5 335.8,790.4 363.3,749.9 363.3,772.3 363.3,797.4" fill="none" stroke="#1f3a5f" stroke-width="1.6"/>
<circle cx="88.7" cy="719.4" r="2.6" fill="#1f3a5f"/>
<circle cx="88.7" cy="718.6" r="2.6" fill="#1f3a5f"/>
<circle cx="88.7" cy="702.0" r="2.6" fill="#1f3a5f"/>
<circle cx="116.2" cy="718.9" r="2.6" fill="#1f3a5f"/>
<circle cx="116.2" cy="698.7" r="2.6" fill="#1f3a5f"/>
<circle cx="116.2" cy="730.0" r="2.6" fill="#1f3a5f"/>
<circle cx="143.6" cy="695.4" r="2.6" fill="#1f3a5f"/>
<circle cx="143.6" cy="699.9" r="2.6" fill="#1f3a5f"/>
<circle cx="143.6" cy="686.5" r="2.6" fill="#1f3a5f"/>
<circle cx="171.1" cy="707.3" r="2.6" fill="#1f3a5f"/>
<circle cx="171.1" cy="726.2" r="2.6" fill="#1f3a5f"/>
<circle cx="171.1" cy="729.2" r="2.6" fill="#1f3a5f"/>
<circle cx="226.0" cy="727.7" r="2.6" fill="#1f3a5f"/>
<circle cx="226.0" cy="717.5" r="2.6" fill="#1f3a5f"/>
<circle cx="226.0" cy="727.5" r="2.6" fill="#1f3a5f"/>
<circle cx="253.5" cy="745.3" r="2.6" fill="#1f3a5f"/>
<circle cx="253.5" cy="735.3" r="2.6" fill="#1f3a5f"/>
<circle cx="253.5" cy="726.8" r="2.6" fill="#1f3a5f"/>
<circle cx="280.9" cy="763.8" r="2.6" fill="#1f3a5f"/>
<circle cx="280.9" cy="755.3" r="2.6" fill="#1f3a5f"/>
<circle cx="280.9" cy="744.8" r="2.6" fill="#1f3a5f"/>
<circle cx="308.4" cy="758.6" r="2.6" fill="#1f3a5f"/>
<circle cx="308.4" cy="731.8" r="2.6" fill="#1f3a5f"/>
<circle cx="308.4" cy="742.8" r="2.6" fill="#1f3a5f"/>
<circle cx="335.8" cy="773.6" r="2.6" fill="#1f3a5f"/>
<circle cx="335.8" cy="777.5" r="2.6" fill="#1f3a5f"/>
<circle cx="335.8" cy="790.4" r="2.6" fill="#1f3a5f"/>
<circle cx="363.3" cy="749.9" r="2.6" fill="#1f3a5f"/>
<circle cx="363.3" cy="772.3" r="2.6" fill="#1f3a5f"/>
<circle cx="363.3" cy="797.4" r="2.6" fill="#1f3a5f"/>
<line x1="212.3" y1="670" x2="212.3" y2="830" stroke="#b9461a" stroke-dasharray="3 3"/>
<line x1="75" y1="830" x2="377" y2="830" stroke="#444"/>
<line x1="75" y1="670" x2="75" y2="830" stroke="#444"/>
<line x1="88.7" y1="830" x2="88.7" y2="833" stroke="#444"/>
<text x="88.7" y="845" text-anchor="middle" fill="#444">-5</text>
<line x1="116.2" y1="830" x2="116.2" y2="833" stroke="#444"/>
<text x="116.2" y="845" text-anchor="middle" fill="#444">-4</text>
<line x1="143.6" y1="830" x2="143.6" y2="833" stroke="#444"/>
<text x="143.6" y="845" text-anchor="middle" fill="#444">-3</text>
<line x1="171.1" y1="830" x2="171.1" y2="833" stroke="#444"/>
<text x="171.1" y="845" text-anchor="middle" fill="#444">-2</text>
<line x1="226.0" y1="830" x2="226.0" y2="833" stroke="#444"/>
<text x="226.0" y="845" text-anchor="middle" fill="#444">0</text>
<line x1="253.5" y1="830" x2="253.5" y2="833" stroke="#444"/>
<text x="253.5" y="845" text-anchor="middle" fill="#444">1</text>
<line x1="280.9" y1="830" x2="280.9" y2="833" stroke="#444"/>
<text x="280.9" y="845" text-anchor="middle" fill="#444">2</text>
<line x1="308.4" y1="830" x2="308.4" y2="833" stroke="#444"/>
<text x="308.4" y="845" text-anchor="middle" fill="#444">3</text>
<line x1="335.8" y1="830" x2="335.8" y2="833" stroke="#444"/>
<text x="335.8" y="845" text-anchor="middle" fill="#444">4</text>
<line x1="363.3" y1="830" x2="363.3" y2="833" stroke="#444"/>
<text x="363.3" y="845" text-anchor="middle" fill="#444">5</text>
<line x1="72" y1="830.0" x2="75" y2="830.0" stroke="#444"/>
<text x="69" y="833.0" text-anchor="end" fill="#444">-2.7</text>
<line x1="72" y1="790.0" x2="75" y2="790.0" stroke="#444"/>
<text x="69" y="793.0" text-anchor="end" fill="#444">-1.8</text>
<line x1="72" y1="750.0" x2="75" y2="750.0" stroke="#444"/>
<text x="69" y="753.0" text-anchor="end" fill="#444">-0.81</text>
<line x1="72" y1="710.0" x2="75" y2="710.0" stroke="#444"/>
<text x="69" y="713.0" text-anchor="end" fill="#444">0.12</text>
<line x1="72" y1="670.0" x2="75" y2="670.0" stroke="#444"/>
<text x="69" y="673.0" text-anchor="end" fill="#444">1.1</text>
<text x="226.0" y="864" text-anchor="middle" fill="#444">Event time (years from adoption)</text>
<text x="27" y="750.0" text-anchor="middle" fill="#444" transform="rotate(-90 27 750.0)">ATT (per 100k)</text>
<rect x="425" y="620" width="380" height="260" fill="#fafaf7" stroke="#e2e2dc"/>
<text x="615.0" y="638" text-anchor="middle" font-weight="600">Motor vehicle theft rate (per 100k) [placebo]</text>
<line x1="485" y1="761.4570313460032" x2="787" y2="761.4570313460032" stroke="#aaaaaa" stroke-width="0.7"/>
<polygon points="498.7,766.3 498.7,759.9 498.7,747.1 526.2,752.1 526.2,745.4 526.2,752.5 553.6,742.3 553.6,746.6 553.6,752.8 581.1,753.5 581.1,744.2 581.1,743.2 636.0,763.2 636.0,761.5 636.0,753.3 663.5,765.1 663.5,771.8 663.5,743.2 690.9,774.8 690.9,772.8 690.9,727.4 718.4,768.2 718.4,771.7 718.4,698.6 745.8,726.9 745.8,774.1 745.8,770.9 773.3,670.0 773.3,708.4 773.3,703.6 773.3,791.8 773.3,819.3 773.3,830.0 745.8,814.7 745.8,826.0 745.8,776.6 718.4,747.7 718.4,803.0 718.4,798.2 690.9,767.0 690.9,798.0 690.9,797.3 663.5,765.9 663.5,786.3 663.5,783.8 636.0,764.4 636.0,772.9 636.0,775.0 581.1,759.4 581.1,760.6 581.1,766.2 553.6,767.4 553.6,771.2 553.6,769.0 526.2,780.6 526.2,763.0 526.2,779.7 498.7,768.4 498.7,787.9 498.7,793.1" fill="#1f3a5f" opacity="0.18"/>
<polyline points="498.7,779.7 498.7,773.9 498.7,757.7 526.2,765.9 526.2,754.2 526.2,766.6 553.6,755.6 553.6,758.9 553.6,760.1 581.1,759.9 581.1,752.4 581.1,751.3 636.0,769.1 636.0,767.2 636.0,758.8 663.5,774.5 663.5,779.0 663.5,754.6 690.9,786.0 690.9,785.4 690.9,747.2 718.4,783.2 718.4,787.3 718.4,723.1 745.8,751.8 745.8,800.1 745.8,792.8 773.3,750.0 773.3,763.9 773.3,747.7" fill="none" stroke="#1f3a5f" stroke-width="1.6"/>
<circle cx="498.7" cy="779.7" r="2.6" fill="#1f3a5f"/>
<circle cx="498.7" cy="773.9" r="2.6" fill="#1f3a5f"/>
<circle cx="498.7" cy="757.7" r="2.6" fill="#1f3a5f"/>
<circle cx="526.2" cy="765.9" r="2.6" fill="#1f3a5f"/>
<circle cx="526.2" cy="754.2" r="2.6" fill="#1f3a5f"/>
<circle cx="526.2" cy="766.6" r="2.6" fill="#1f3a5f"/>
<circle cx="553.6" cy="755.6" r="2.6" fill="#1f3a5f"/>
<circle cx="553.6" cy="758.9" r="2.6" fill="#1f3a5f"/>
<circle cx="553.6" cy="760.1" r="2.6" fill="#1f3a5f"/>
<circle cx="581.1" cy="759.9" r="2.6" fill="#1f3a5f"/>
<circle cx="581.1" cy="752.4" r="2.6" fill="#1f3a5f"/>
<circle cx="581.1" cy="751.3" r="2.6" fill="#1f3a5f"/>
<circle cx="636.0" cy="769.1" r="2.6" fill="#1f3a5f"/>
<circle cx="636.0" cy="767.2" r="2.6" fill="#1f3a5f"/>
<circle cx="636.0" cy="758.8" r="2.6" fill="#1f3a5f"/>
<circle cx="663.5" cy="774.5" r="2.6" fill="#1f3a5f"/>
<circle cx="663.5" cy="779.0" r="2.6" fill="#1f3a5f"/>
<circle cx="663.5" cy="754.6" r="2.6" fill="#1f3a5f"/>
<circle cx="690.9" cy="786.0" r="2.6" fill="#1f3a5f"/>
<circle cx="690.9" cy="785.4" r="2.6" fill="#1f3a5f"/>
<circle cx="690.9" cy="747.2" r="2.6" fill="#1f3a5f"/>
<circle cx="718.4" cy="783.2" r="2.6" fill="#1f3a5f"/>
<circle cx="718.4" cy="787.3" r="2.6" fill="#1f3a5f"/>
<circle cx="718.4" cy="723.1" r="2.6" fill="#1f3a5f"/>
<circle cx="745.8" cy="751.8" r="2.6" fill="#1f3a5f"/>
<circle cx="745.8" cy="800.1" r="2.6" fill="#1f3a5f"/>
<circle cx="745.8" cy="792.8" r="2.6" fill="#1f3a5f"/>
<circle cx="773.3" cy="750.0" r="2.6" fill="#1f3a5f"/>
<circle cx="773.3" cy="763.9" r="2.6" fill="#1f3a5f"/>
<circle cx="773.3" cy="747.7" r="2.6" fill="#1f3a5f"/>
<line x1="622.3" y1="670" x2="622.3" y2="830" stroke="#b9461a" stroke-dasharray="3 3"/>
<line x1="485" y1="830" x2="787" y2="830" stroke="#444"/>
<line x1="485" y1="670" x2="485" y2="830" stroke="#444"/>
<line x1="498.7" y1="830" x2="498.7" y2="833" stroke="#444"/>
<text x="498.7" y="845" text-anchor="middle" fill="#444">-5</text>
<line x1="526.2" y1="830" x2="526.2" y2="833" stroke="#444"/>
<text x="526.2" y="845" text-anchor="middle" fill="#444">-4</text>
<line x1="553.6" y1="830" x2="553.6" y2="833" stroke="#444"/>
<text x="553.6" y="845" text-anchor="middle" fill="#444">-3</text>
<line x1="581.1" y1="830" x2="581.1" y2="833" stroke="#444"/>
<text x="581.1" y="845" text-anchor="middle" fill="#444">-2</text>
<line x1="636.0" y1="830" x2="636.0" y2="833" stroke="#444"/>
<text x="636.0" y="845" text-anchor="middle" fill="#444">0</text>
<line x1="663.5" y1="830" x2="663.5" y2="833" stroke="#444"/>
<text x="663.5" y="845" text-anchor="middle" fill="#444">1</text>
<line x1="690.9" y1="830" x2="690.9" y2="833" stroke="#444"/>
<text x="690.9" y="845" text-anchor="middle" fill="#444">2</text>
<line x1="718.4" y1="830" x2="718.4" y2="833" stroke="#444"/>
<text x="718.4" y="845" text-anchor="middle" fill="#444">3</text>
<line x1="745.8" y1="830" x2="745.8" y2="833" stroke="#444"/>
<text x="745.8" y="845" text-anchor="middle" fill="#444">4</text>
<line x1="773.3" y1="830" x2="773.3" y2="833" stroke="#444"/>
<text x="773.3" y="845" text-anchor="middle" fill="#444">5</text>
<line x1="482" y1="830.0" x2="485" y2="830.0" stroke="#444"/>
<text x="479" y="833.0" text-anchor="end" fill="#444">-1.1e+02</text>
<line x1="482" y1="790.0" x2="485" y2="790.0" stroke="#444"/>
<text x="479" y="793.0" text-anchor="end" fill="#444">-45</text>
<line x1="482" y1="750.0" x2="485" y2="750.0" stroke="#444"/>
<text x="479" y="753.0" text-anchor="end" fill="#444">18</text>
<line x1="482" y1="710.0" x2="485" y2="710.0" stroke="#444"/>
<text x="479" y="713.0" text-anchor="end" fill="#444">81</text>
<line x1="482" y1="670.0" x2="485" y2="670.0" stroke="#444"/>
<text x="479" y="673.0" text-anchor="end" fill="#444">1.4e+02</text>
<text x="636.0" y="864" text-anchor="middle" fill="#444">Event time (years from adoption)</text>
<text x="437" y="750.0" text-anchor="middle" fill="#444" transform="rotate(-90 437 750.0)">ATT (per 100k)</text>
<text x="805" y="608" text-anchor="end" fill="#888" font-size="10">Shaded band: pointwise 95% CI from cluster bootstrap. Vertical dashed line marks the year before adoption.</text>
</svg>