<svg xmlns="http://www.w3.org/2000/svg" viewBox="0 0 820 620" font-family="-apple-system, Segoe UI, Helvetica, Arial, sans-serif" font-size="11">
<text x="410.0" y="22" text-anchor="middle" font-size="14" font-weight="600">Callaway-Sant'Anna ATT by event time (RA) -- red-flag (gvro)</text>
<rect x="15" y="40" width="380" height="260" fill="#fafaf7" stroke="#e2e2dc"/>
<text x="205.0" y="58" text-anchor="middle" font-weight="600">Firearm suicide rate (per 100k)</text>
<line x1="75" y1="156.34642825021623" x2="377" y2="156.34642825021623" stroke="#aaaaaa" stroke-width="0.7"/>
<polygon points="88.7,161.9 88.7,154.0 88.7,140.6 116.2,107.7 116.2,140.2 116.2,135.1 143.6,186.0 143.6,162.2 143.6,151.9 171.1,133.4 171.1,169.1 171.1,185.9 226.0,151.4 226.0,141.8 226.0,166.9 253.5,143.8 253.5,90.0 253.5,163.8 280.9,132.2 280.9,145.2 280.9,152.1 308.4,128.1 308.4,124.3 308.4,149.8 335.8,148.8 335.8,117.6 335.8,135.3 363.3,154.6 363.3,118.3 363.3,151.9 363.3,188.0 363.3,186.5 363.3,217.0 335.8,184.8 335.8,179.4 335.8,174.4 308.4,179.1 308.4,186.7 308.4,178.4 280.9,180.2 280.9,200.5 280.9,185.6 253.5,192.3 253.5,133.6 253.5,182.9 226.0,185.4 226.0,186.3 226.0,193.8 171.1,250.0 171.1,228.4 171.1,155.3 143.6,169.2 143.6,193.7 143.6,220.2 116.2,190.6 116.2,163.4 116.2,154.8 88.7,164.4 88.7,184.9 88.7,198.4" fill="#1f3a5f" opacity="0.18"/>
<polyline points="88.7,180.1 88.7,169.5 88.7,152.5 116.2,131.3 116.2,151.8 116.2,162.9 143.6,203.1 143.6,177.9 143.6,160.5 171.1,144.4 171.1,198.7 171.1,218.0 226.0,172.6 226.0,164.0 226.0,176.2 253.5,163.3 253.5,111.8 253.5,178.0 280.9,158.9 280.9,172.8 280.9,166.2 308.4,153.2 308.4,155.5 308.4,164.5 335.8,161.6 335.8,148.5 335.8,160.0 363.3,185.8 363.3,152.4 363.3,169.9" fill="none" stroke="#1f3a5f" stroke-width="1.6"/>
<circle cx="88.7" cy="180.1" r="2.6" fill="#1f3a5f"/>
<circle cx="88.7" cy="169.5" r="2.6" fill="#1f3a5f"/>
<circle cx="88.7" cy="152.5" r="2.6" fill="#1f3a5f"/>
<circle cx="116.2" cy="131.3" r="2.6" fill="#1f3a5f"/>
<circle cx="116.2" cy="151.8" r="2.6" fill="#1f3a5f"/>
<circle cx="116.2" cy="162.9" r="2.6" fill="#1f3a5f"/>
<circle cx="143.6" cy="203.1" r="2.6" fill="#1f3a5f"/>
<circle cx="143.6" cy="177.9" r="2.6" fill="#1f3a5f"/>
<circle cx="143.6" cy="160.5" r="2.6" fill="#1f3a5f"/>
<circle cx="171.1" cy="144.4" r="2.6" fill="#1f3a5f"/>
<circle cx="171.1" cy="198.7" r="2.6" fill="#1f3a5f"/>
<circle cx="171.1" cy="218.0" r="2.6" fill="#1f3a5f"/>
<circle cx="226.0" cy="172.6" r="2.6" fill="#1f3a5f"/>
<circle cx="226.0" cy="164.0" r="2.6" fill="#1f3a5f"/>
<circle cx="226.0" cy="176.2" r="2.6" fill="#1f3a5f"/>
<circle cx="253.5" cy="163.3" r="2.6" fill="#1f3a5f"/>
<circle cx="253.5" cy="111.8" r="2.6" fill="#1f3a5f"/>
<circle cx="253.5" cy="178.0" r="2.6" fill="#1f3a5f"/>
<circle cx="280.9" cy="158.9" r="2.6" fill="#1f3a5f"/>
<circle cx="280.9" cy="172.8" r="2.6" fill="#1f3a5f"/>
<circle cx="280.9" cy="166.2" r="2.6" fill="#1f3a5f"/>
<circle cx="308.4" cy="153.2" r="2.6" fill="#1f3a5f"/>
<circle cx="308.4" cy="155.5" r="2.6" fill="#1f3a5f"/>
<circle cx="308.4" cy="164.5" r="2.6" fill="#1f3a5f"/>
<circle cx="335.8" cy="161.6" r="2.6" fill="#1f3a5f"/>
<circle cx="335.8" cy="148.5" r="2.6" fill="#1f3a5f"/>
<circle cx="335.8" cy="160.0" r="2.6" fill="#1f3a5f"/>
<circle cx="363.3" cy="185.8" r="2.6" fill="#1f3a5f"/>
<circle cx="363.3" cy="152.4" r="2.6" fill="#1f3a5f"/>
<circle cx="363.3" cy="169.9" r="2.6" fill="#1f3a5f"/>
<line x1="212.3" y1="90" x2="212.3" y2="250" stroke="#b9461a" stroke-dasharray="3 3"/>
<line x1="75" y1="250" x2="377" y2="250" stroke="#444"/>
<line x1="75" y1="90" x2="75" y2="250" stroke="#444"/>
<line x1="88.7" y1="250" x2="88.7" y2="253" stroke="#444"/>
<text x="88.7" y="265" text-anchor="middle" fill="#444">-5</text>
<line x1="116.2" y1="250" x2="116.2" y2="253" stroke="#444"/>
<text x="116.2" y="265" text-anchor="middle" fill="#444">-4</text>
<line x1="143.6" y1="250" x2="143.6" y2="253" stroke="#444"/>
<text x="143.6" y="265" text-anchor="middle" fill="#444">-3</text>
<line x1="171.1" y1="250" x2="171.1" y2="253" stroke="#444"/>
<text x="171.1" y="265" text-anchor="middle" fill="#444">-2</text>
<line x1="226.0" y1="250" x2="226.0" y2="253" stroke="#444"/>
<text x="226.0" y="265" text-anchor="middle" fill="#444">0</text>
<line x1="253.5" y1="250" x2="253.5" y2="253" stroke="#444"/>
<text x="253.5" y="265" text-anchor="middle" fill="#444">1</text>
<line x1="280.9" y1="250" x2="280.9" y2="253" stroke="#444"/>
<text x="280.9" y="265" text-anchor="middle" fill="#444">2</text>
<line x1="308.4" y1="250" x2="308.4" y2="253" stroke="#444"/>
<text x="308.4" y="265" text-anchor="middle" fill="#444">3</text>
<line x1="335.8" y1="250" x2="335.8" y2="253" stroke="#444"/>
<text x="335.8" y="265" text-anchor="middle" fill="#444">4</text>
<line x1="363.3" y1="250" x2="363.3" y2="253" stroke="#444"/>
<text x="363.3" y="265" text-anchor="middle" fill="#444">5</text>
<line x1="72" y1="250.0" x2="75" y2="250.0" stroke="#444"/>
<text x="69" y="253.0" text-anchor="end" fill="#444">-4.1</text>
<line x1="72" y1="210.0" x2="75" y2="210.0" stroke="#444"/>
<text x="69" y="213.0" text-anchor="end" fill="#444">-2.4</text>
<line x1="72" y1="170.0" x2="75" y2="170.0" stroke="#444"/>
<text x="69" y="173.0" text-anchor="end" fill="#444">-0.6</text>
<line x1="72" y1="130.0" x2="75" y2="130.0" stroke="#444"/>
<text x="69" y="133.0" text-anchor="end" fill="#444">1.2</text>
<line x1="72" y1="90.0" x2="75" y2="90.0" stroke="#444"/>
<text x="69" y="93.0" text-anchor="end" fill="#444">2.9</text>
<text x="226.0" y="284" text-anchor="middle" fill="#444">Event time (years from adoption)</text>
<text x="27" y="170.0" text-anchor="middle" fill="#444" transform="rotate(-90 27 170.0)">ATT (per 100k)</text>
<rect x="425" y="40" width="380" height="260" fill="#fafaf7" stroke="#e2e2dc"/>
<text x="615.0" y="58" text-anchor="middle" font-weight="600">Non-firearm suicide rate (per 100k) [substitution test]</text>
<line x1="485" y1="171.19363240657984" x2="787" y2="171.19363240657984" stroke="#aaaaaa" stroke-width="0.7"/>
<polygon points="498.7,145.2 498.7,90.6 498.7,136.9 526.2,117.0 526.2,152.6 526.2,151.6 553.6,162.8 553.6,116.4 553.6,154.3 581.1,162.2 581.1,90.0 581.1,121.2 636.0,130.8 636.0,164.7 636.0,154.5 663.5,170.4 663.5,156.1 663.5,152.4 690.9,137.0 690.9,153.6 690.9,139.5 718.4,176.4 718.4,175.5 718.4,153.4 745.8,151.0 745.8,147.6 745.8,124.1 773.3,178.8 773.3,164.0 773.3,130.2 773.3,157.2 773.3,211.8 773.3,234.4 745.8,181.3 745.8,201.3 745.8,173.1 718.4,173.7 718.4,250.0 718.4,245.3 690.9,161.2 690.9,228.7 690.9,204.3 663.5,170.8 663.5,192.1 663.5,213.3 636.0,175.0 636.0,212.8 636.0,175.7 581.1,184.6 581.1,144.7 581.1,180.5 553.6,169.1 553.6,169.2 553.6,231.9 526.2,202.2 526.2,178.4 526.2,165.0 498.7,155.2 498.7,152.5 498.7,225.1" fill="#1f3a5f" opacity="0.18"/>
<polyline points="498.7,185.2 498.7,121.6 498.7,146.1 526.2,141.0 526.2,165.5 526.2,176.9 553.6,197.3 553.6,142.8 553.6,161.7 581.1,171.3 581.1,117.4 581.1,152.9 636.0,153.2 636.0,188.8 636.0,164.8 663.5,191.8 663.5,174.1 663.5,161.6 690.9,170.7 690.9,191.1 690.9,150.3 718.4,210.9 718.4,212.7 718.4,163.5 745.8,162.1 745.8,174.5 745.8,152.7 773.3,206.6 773.3,187.9 773.3,143.7" fill="none" stroke="#1f3a5f" stroke-width="1.6"/>
<circle cx="498.7" cy="185.2" r="2.6" fill="#1f3a5f"/>
<circle cx="498.7" cy="121.6" r="2.6" fill="#1f3a5f"/>
<circle cx="498.7" cy="146.1" r="2.6" fill="#1f3a5f"/>
<circle cx="526.2" cy="141.0" r="2.6" fill="#1f3a5f"/>
<circle cx="526.2" cy="165.5" r="2.6" fill="#1f3a5f"/>
<circle cx="526.2" cy="176.9" r="2.6" fill="#1f3a5f"/>
<circle cx="553.6" cy="197.3" r="2.6" fill="#1f3a5f"/>
<circle cx="553.6" cy="142.8" r="2.6" fill="#1f3a5f"/>
<circle cx="553.6" cy="161.7" r="2.6" fill="#1f3a5f"/>
<circle cx="581.1" cy="171.3" r="2.6" fill="#1f3a5f"/>
<circle cx="581.1" cy="117.4" r="2.6" fill="#1f3a5f"/>
<circle cx="581.1" cy="152.9" r="2.6" fill="#1f3a5f"/>
<circle cx="636.0" cy="153.2" r="2.6" fill="#1f3a5f"/>
<circle cx="636.0" cy="188.8" r="2.6" fill="#1f3a5f"/>
<circle cx="636.0" cy="164.8" r="2.6" fill="#1f3a5f"/>
<circle cx="663.5" cy="191.8" r="2.6" fill="#1f3a5f"/>
<circle cx="663.5" cy="174.1" r="2.6" fill="#1f3a5f"/>
<circle cx="663.5" cy="161.6" r="2.6" fill="#1f3a5f"/>
<circle cx="690.9" cy="170.7" r="2.6" fill="#1f3a5f"/>
<circle cx="690.9" cy="191.1" r="2.6" fill="#1f3a5f"/>
<circle cx="690.9" cy="150.3" r="2.6" fill="#1f3a5f"/>
<circle cx="718.4" cy="210.9" r="2.6" fill="#1f3a5f"/>
<circle cx="718.4" cy="212.7" r="2.6" fill="#1f3a5f"/>
<circle cx="718.4" cy="163.5" r="2.6" fill="#1f3a5f"/>
<circle cx="745.8" cy="162.1" r="2.6" fill="#1f3a5f"/>
<circle cx="745.8" cy="174.5" r="2.6" fill="#1f3a5f"/>
<circle cx="745.8" cy="152.7" r="2.6" fill="#1f3a5f"/>
<circle cx="773.3" cy="206.6" r="2.6" fill="#1f3a5f"/>
<circle cx="773.3" cy="187.9" r="2.6" fill="#1f3a5f"/>
<circle cx="773.3" cy="143.7" r="2.6" fill="#1f3a5f"/>
<line x1="622.3" y1="90" x2="622.3" y2="250" stroke="#b9461a" stroke-dasharray="3 3"/>
<line x1="485" y1="250" x2="787" y2="250" stroke="#444"/>
<line x1="485" y1="90" x2="485" y2="250" stroke="#444"/>
<line x1="498.7" y1="250" x2="498.7" y2="253" stroke="#444"/>
<text x="498.7" y="265" text-anchor="middle" fill="#444">-5</text>
<line x1="526.2" y1="250" x2="526.2" y2="253" stroke="#444"/>
<text x="526.2" y="265" text-anchor="middle" fill="#444">-4</text>
<line x1="553.6" y1="250" x2="553.6" y2="253" stroke="#444"/>
<text x="553.6" y="265" text-anchor="middle" fill="#444">-3</text>
<line x1="581.1" y1="250" x2="581.1" y2="253" stroke="#444"/>
<text x="581.1" y="265" text-anchor="middle" fill="#444">-2</text>
<line x1="636.0" y1="250" x2="636.0" y2="253" stroke="#444"/>
<text x="636.0" y="265" text-anchor="middle" fill="#444">0</text>
<line x1="663.5" y1="250" x2="663.5" y2="253" stroke="#444"/>
<text x="663.5" y="265" text-anchor="middle" fill="#444">1</text>
<line x1="690.9" y1="250" x2="690.9" y2="253" stroke="#444"/>
<text x="690.9" y="265" text-anchor="middle" fill="#444">2</text>
<line x1="718.4" y1="250" x2="718.4" y2="253" stroke="#444"/>
<text x="718.4" y="265" text-anchor="middle" fill="#444">3</text>
<line x1="745.8" y1="250" x2="745.8" y2="253" stroke="#444"/>
<text x="745.8" y="265" text-anchor="middle" fill="#444">4</text>
<line x1="773.3" y1="250" x2="773.3" y2="253" stroke="#444"/>
<text x="773.3" y="265" text-anchor="middle" fill="#444">5</text>
<line x1="482" y1="250.0" x2="485" y2="250.0" stroke="#444"/>
<text x="479" y="253.0" text-anchor="end" fill="#444">-2.8</text>
<line x1="482" y1="210.0" x2="485" y2="210.0" stroke="#444"/>
<text x="479" y="213.0" text-anchor="end" fill="#444">-1.4</text>
<line x1="482" y1="170.0" x2="485" y2="170.0" stroke="#444"/>
<text x="479" y="173.0" text-anchor="end" fill="#444">0.043</text>
<line x1="482" y1="130.0" x2="485" y2="130.0" stroke="#444"/>
<text x="479" y="133.0" text-anchor="end" fill="#444">1.5</text>
<line x1="482" y1="90.0" x2="485" y2="90.0" stroke="#444"/>
<text x="479" y="93.0" text-anchor="end" fill="#444">2.9</text>
<text x="636.0" y="284" text-anchor="middle" fill="#444">Event time (years from adoption)</text>
<text x="437" y="170.0" text-anchor="middle" fill="#444" transform="rotate(-90 437 170.0)">ATT (per 100k)</text>
<rect x="15" y="330" width="380" height="260" fill="#fafaf7" stroke="#e2e2dc"/>
<text x="205.0" y="348" text-anchor="middle" font-weight="600">Total suicide rate (per 100k) [net effect]</text>
<line x1="75" y1="452.7395138629239" x2="377" y2="452.7395138629239" stroke="#aaaaaa" stroke-width="0.7"/>
<polygon points="88.7,448.1 88.7,399.6 88.7,420.8 116.2,380.0 116.2,431.9 116.2,430.8 143.6,483.2 143.6,427.1 143.6,441.2 171.1,432.5 171.1,413.4 171.1,450.7 226.0,426.6 226.0,443.1 226.0,456.3 253.5,450.7 253.5,395.9 253.5,452.5 280.9,427.8 280.9,451.2 280.9,432.3 308.4,449.4 308.4,445.2 308.4,440.0 335.8,437.7 335.8,416.4 335.8,415.5 363.3,473.3 363.3,430.9 363.3,427.6 363.3,462.5 363.3,491.5 363.3,533.1 335.8,470.1 335.8,480.2 335.8,464.0 308.4,468.7 308.4,517.6 308.4,506.8 280.9,460.7 280.9,511.0 280.9,481.4 253.5,476.9 253.5,436.6 253.5,496.0 226.0,474.4 226.0,500.6 226.0,481.6 171.1,535.4 171.1,489.2 171.1,452.5 143.6,458.1 143.6,475.5 143.6,540.0 116.2,494.0 116.2,457.7 116.2,439.4 88.7,442.5 88.7,458.3 88.7,518.3" fill="#1f3a5f" opacity="0.18"/>
<polyline points="88.7,483.2 88.7,429.0 88.7,431.6 116.2,409.7 116.2,444.8 116.2,462.4 143.6,511.6 143.6,451.3 143.6,449.7 171.1,442.5 171.1,451.3 171.1,493.1 226.0,454.1 226.0,471.8 226.0,465.3 253.5,473.4 253.5,416.3 253.5,464.7 280.9,454.6 280.9,481.1 280.9,446.5 308.4,478.1 308.4,481.4 308.4,454.3 335.8,450.8 335.8,448.3 335.8,442.8 363.3,503.2 363.3,461.2 363.3,445.0" fill="none" stroke="#1f3a5f" stroke-width="1.6"/>
<circle cx="88.7" cy="483.2" r="2.6" fill="#1f3a5f"/>
<circle cx="88.7" cy="429.0" r="2.6" fill="#1f3a5f"/>
<circle cx="88.7" cy="431.6" r="2.6" fill="#1f3a5f"/>
<circle cx="116.2" cy="409.7" r="2.6" fill="#1f3a5f"/>
<circle cx="116.2" cy="444.8" r="2.6" fill="#1f3a5f"/>
<circle cx="116.2" cy="462.4" r="2.6" fill="#1f3a5f"/>
<circle cx="143.6" cy="511.6" r="2.6" fill="#1f3a5f"/>
<circle cx="143.6" cy="451.3" r="2.6" fill="#1f3a5f"/>
<circle cx="143.6" cy="449.7" r="2.6" fill="#1f3a5f"/>
<circle cx="171.1" cy="442.5" r="2.6" fill="#1f3a5f"/>
<circle cx="171.1" cy="451.3" r="2.6" fill="#1f3a5f"/>
<circle cx="171.1" cy="493.1" r="2.6" fill="#1f3a5f"/>
<circle cx="226.0" cy="454.1" r="2.6" fill="#1f3a5f"/>
<circle cx="226.0" cy="471.8" r="2.6" fill="#1f3a5f"/>
<circle cx="226.0" cy="465.3" r="2.6" fill="#1f3a5f"/>
<circle cx="253.5" cy="473.4" r="2.6" fill="#1f3a5f"/>
<circle cx="253.5" cy="416.3" r="2.6" fill="#1f3a5f"/>
<circle cx="253.5" cy="464.7" r="2.6" fill="#1f3a5f"/>
<circle cx="280.9" cy="454.6" r="2.6" fill="#1f3a5f"/>
<circle cx="280.9" cy="481.1" r="2.6" fill="#1f3a5f"/>
<circle cx="280.9" cy="446.5" r="2.6" fill="#1f3a5f"/>
<circle cx="308.4" cy="478.1" r="2.6" fill="#1f3a5f"/>
<circle cx="308.4" cy="481.4" r="2.6" fill="#1f3a5f"/>
<circle cx="308.4" cy="454.3" r="2.6" fill="#1f3a5f"/>
<circle cx="335.8" cy="450.8" r="2.6" fill="#1f3a5f"/>
<circle cx="335.8" cy="448.3" r="2.6" fill="#1f3a5f"/>
<circle cx="335.8" cy="442.8" r="2.6" fill="#1f3a5f"/>
<circle cx="363.3" cy="503.2" r="2.6" fill="#1f3a5f"/>
<circle cx="363.3" cy="461.2" r="2.6" fill="#1f3a5f"/>
<circle cx="363.3" cy="445.0" r="2.6" fill="#1f3a5f"/>
<line x1="212.3" y1="380" x2="212.3" y2="540" stroke="#b9461a" stroke-dasharray="3 3"/>
<line x1="75" y1="540" x2="377" y2="540" stroke="#444"/>
<line x1="75" y1="380" x2="75" y2="540" stroke="#444"/>
<line x1="88.7" y1="540" x2="88.7" y2="543" stroke="#444"/>
<text x="88.7" y="555" text-anchor="middle" fill="#444">-5</text>
<line x1="116.2" y1="540" x2="116.2" y2="543" stroke="#444"/>
<text x="116.2" y="555" text-anchor="middle" fill="#444">-4</text>
<line x1="143.6" y1="540" x2="143.6" y2="543" stroke="#444"/>
<text x="143.6" y="555" text-anchor="middle" fill="#444">-3</text>
<line x1="171.1" y1="540" x2="171.1" y2="543" stroke="#444"/>
<text x="171.1" y="555" text-anchor="middle" fill="#444">-2</text>
<line x1="226.0" y1="540" x2="226.0" y2="543" stroke="#444"/>
<text x="226.0" y="555" text-anchor="middle" fill="#444">0</text>
<line x1="253.5" y1="540" x2="253.5" y2="543" stroke="#444"/>
<text x="253.5" y="555" text-anchor="middle" fill="#444">1</text>
<line x1="280.9" y1="540" x2="280.9" y2="543" stroke="#444"/>
<text x="280.9" y="555" text-anchor="middle" fill="#444">2</text>
<line x1="308.4" y1="540" x2="308.4" y2="543" stroke="#444"/>
<text x="308.4" y="555" text-anchor="middle" fill="#444">3</text>
<line x1="335.8" y1="540" x2="335.8" y2="543" stroke="#444"/>
<text x="335.8" y="555" text-anchor="middle" fill="#444">4</text>
<line x1="363.3" y1="540" x2="363.3" y2="543" stroke="#444"/>
<text x="363.3" y="555" text-anchor="middle" fill="#444">5</text>
<line x1="72" y1="540.0" x2="75" y2="540.0" stroke="#444"/>
<text x="69" y="543.0" text-anchor="end" fill="#444">-4.4</text>
<line x1="72" y1="500.0" x2="75" y2="500.0" stroke="#444"/>
<text x="69" y="503.0" text-anchor="end" fill="#444">-2.4</text>
<line x1="72" y1="460.0" x2="75" y2="460.0" stroke="#444"/>
<text x="69" y="463.0" text-anchor="end" fill="#444">-0.37</text>
<line x1="72" y1="420.0" x2="75" y2="420.0" stroke="#444"/>
<text x="69" y="423.0" text-anchor="end" fill="#444">1.7</text>
<line x1="72" y1="380.0" x2="75" y2="380.0" stroke="#444"/>
<text x="69" y="383.0" text-anchor="end" fill="#444">3.7</text>
<text x="226.0" y="574" text-anchor="middle" fill="#444">Event time (years from adoption)</text>
<text x="27" y="460.0" text-anchor="middle" fill="#444" transform="rotate(-90 27 460.0)">ATT (per 100k)</text>
<rect x="425" y="330" width="380" height="260" fill="#fafaf7" stroke="#e2e2dc"/>
<text x="615.0" y="348" text-anchor="middle" font-weight="600">Firearm homicide rate (per 100k)</text>
<line x1="485" y1="429.4748886782269" x2="787" y2="429.4748886782269" stroke="#aaaaaa" stroke-width="0.7"/>
<polygon points="498.7,392.8 498.7,424.8 498.7,420.2 526.2,418.8 526.2,417.9 526.2,380.0 553.6,382.2 553.6,418.4 553.6,415.4 581.1,414.3 581.1,426.9 581.1,412.3 636.0,425.5 636.0,404.9 636.0,428.5 663.5,436.2 663.5,431.7 663.5,414.3 690.9,425.2 690.9,420.0 690.9,403.9 718.4,443.9 718.4,425.2 718.4,409.9 745.8,424.2 745.8,437.4 745.8,443.6 773.3,433.8 773.3,458.0 773.3,418.0 773.3,493.1 773.3,540.0 773.3,530.7 745.8,496.9 745.8,499.1 745.8,468.9 718.4,443.1 718.4,507.0 718.4,490.2 690.9,436.0 690.9,468.0 690.9,465.4 663.5,443.3 663.5,471.3 663.5,495.1 636.0,446.1 636.0,448.9 636.0,452.7 581.1,447.8 581.1,451.5 581.1,433.2 553.6,436.5 553.6,449.1 553.6,427.0 526.2,429.2 526.2,444.6 526.2,456.0 498.7,447.6 498.7,465.4 498.7,445.9" fill="#1f3a5f" opacity="0.18"/>
<polyline points="498.7,419.3 498.7,445.1 498.7,433.9 526.2,437.4 526.2,431.2 526.2,404.6 553.6,404.6 553.6,433.8 553.6,426.0 581.1,423.7 581.1,439.2 581.1,430.1 636.0,439.1 636.0,426.9 636.0,437.3 663.5,465.7 663.5,451.5 663.5,428.8 690.9,445.3 690.9,444.0 690.9,420.0 718.4,467.1 718.4,466.1 718.4,426.5 745.8,446.6 745.8,468.2 745.8,470.2 773.3,482.2 773.3,499.0 773.3,455.5" fill="none" stroke="#1f3a5f" stroke-width="1.6"/>
<circle cx="498.7" cy="419.3" r="2.6" fill="#1f3a5f"/>
<circle cx="498.7" cy="445.1" r="2.6" fill="#1f3a5f"/>
<circle cx="498.7" cy="433.9" r="2.6" fill="#1f3a5f"/>
<circle cx="526.2" cy="437.4" r="2.6" fill="#1f3a5f"/>
<circle cx="526.2" cy="431.2" r="2.6" fill="#1f3a5f"/>
<circle cx="526.2" cy="404.6" r="2.6" fill="#1f3a5f"/>
<circle cx="553.6" cy="404.6" r="2.6" fill="#1f3a5f"/>
<circle cx="553.6" cy="433.8" r="2.6" fill="#1f3a5f"/>
<circle cx="553.6" cy="426.0" r="2.6" fill="#1f3a5f"/>
<circle cx="581.1" cy="423.7" r="2.6" fill="#1f3a5f"/>
<circle cx="581.1" cy="439.2" r="2.6" fill="#1f3a5f"/>
<circle cx="581.1" cy="430.1" r="2.6" fill="#1f3a5f"/>
<circle cx="636.0" cy="439.1" r="2.6" fill="#1f3a5f"/>
<circle cx="636.0" cy="426.9" r="2.6" fill="#1f3a5f"/>
<circle cx="636.0" cy="437.3" r="2.6" fill="#1f3a5f"/>
<circle cx="663.5" cy="465.7" r="2.6" fill="#1f3a5f"/>
<circle cx="663.5" cy="451.5" r="2.6" fill="#1f3a5f"/>
<circle cx="663.5" cy="428.8" r="2.6" fill="#1f3a5f"/>
<circle cx="690.9" cy="445.3" r="2.6" fill="#1f3a5f"/>
<circle cx="690.9" cy="444.0" r="2.6" fill="#1f3a5f"/>
<circle cx="690.9" cy="420.0" r="2.6" fill="#1f3a5f"/>
<circle cx="718.4" cy="467.1" r="2.6" fill="#1f3a5f"/>
<circle cx="718.4" cy="466.1" r="2.6" fill="#1f3a5f"/>
<circle cx="718.4" cy="426.5" r="2.6" fill="#1f3a5f"/>
<circle cx="745.8" cy="446.6" r="2.6" fill="#1f3a5f"/>
<circle cx="745.8" cy="468.2" r="2.6" fill="#1f3a5f"/>
<circle cx="745.8" cy="470.2" r="2.6" fill="#1f3a5f"/>
<circle cx="773.3" cy="482.2" r="2.6" fill="#1f3a5f"/>
<circle cx="773.3" cy="499.0" r="2.6" fill="#1f3a5f"/>
<circle cx="773.3" cy="455.5" r="2.6" fill="#1f3a5f"/>
<line x1="622.3" y1="380" x2="622.3" y2="540" stroke="#b9461a" stroke-dasharray="3 3"/>
<line x1="485" y1="540" x2="787" y2="540" stroke="#444"/>
<line x1="485" y1="380" x2="485" y2="540" stroke="#444"/>
<line x1="498.7" y1="540" x2="498.7" y2="543" stroke="#444"/>
<text x="498.7" y="555" text-anchor="middle" fill="#444">-5</text>
<line x1="526.2" y1="540" x2="526.2" y2="543" stroke="#444"/>
<text x="526.2" y="555" text-anchor="middle" fill="#444">-4</text>
<line x1="553.6" y1="540" x2="553.6" y2="543" stroke="#444"/>
<text x="553.6" y="555" text-anchor="middle" fill="#444">-3</text>
<line x1="581.1" y1="540" x2="581.1" y2="543" stroke="#444"/>
<text x="581.1" y="555" text-anchor="middle" fill="#444">-2</text>
<line x1="636.0" y1="540" x2="636.0" y2="543" stroke="#444"/>
<text x="636.0" y="555" text-anchor="middle" fill="#444">0</text>
<line x1="663.5" y1="540" x2="663.5" y2="543" stroke="#444"/>
<text x="663.5" y="555" text-anchor="middle" fill="#444">1</text>
<line x1="690.9" y1="540" x2="690.9" y2="543" stroke="#444"/>
<text x="690.9" y="555" text-anchor="middle" fill="#444">2</text>
<line x1="718.4" y1="540" x2="718.4" y2="543" stroke="#444"/>
<text x="718.4" y="555" text-anchor="middle" fill="#444">3</text>
<line x1="745.8" y1="540" x2="745.8" y2="543" stroke="#444"/>
<text x="745.8" y="555" text-anchor="middle" fill="#444">4</text>
<line x1="773.3" y1="540" x2="773.3" y2="543" stroke="#444"/>
<text x="773.3" y="555" text-anchor="middle" fill="#444">5</text>
<line x1="482" y1="540.0" x2="485" y2="540.0" stroke="#444"/>
<text x="479" y="543.0" text-anchor="end" fill="#444">-3.5</text>
<line x1="482" y1="500.0" x2="485" y2="500.0" stroke="#444"/>
<text x="479" y="503.0" text-anchor="end" fill="#444">-2.2</text>
<line x1="482" y1="460.0" x2="485" y2="460.0" stroke="#444"/>
<text x="479" y="463.0" text-anchor="end" fill="#444">-0.96</text>
<line x1="482" y1="420.0" x2="485" y2="420.0" stroke="#444"/>
<text x="479" y="423.0" text-anchor="end" fill="#444">0.3</text>
<line x1="482" y1="380.0" x2="485" y2="380.0" stroke="#444"/>
<text x="479" y="383.0" text-anchor="end" fill="#444">1.6</text>
<text x="636.0" y="574" text-anchor="middle" fill="#444">Event time (years from adoption)</text>
<text x="437" y="460.0" text-anchor="middle" fill="#444" transform="rotate(-90 437 460.0)">ATT (per 100k)</text>
<rect x="15" y="620" width="380" height="260" fill="#fafaf7" stroke="#e2e2dc"/>
<text x="205.0" y="638" text-anchor="middle" font-weight="600">Total homicide rate (per 100k)</text>
<line x1="75" y1="724.7377056467044" x2="377" y2="724.7377056467044" stroke="#aaaaaa" stroke-width="0.7"/>
<polygon points="88.7,680.0 88.7,707.0 88.7,707.0 116.2,696.7 116.2,689.5 116.2,672.1 143.6,670.0 143.6,690.8 143.6,686.5 171.1,708.5 171.1,716.8 171.1,717.6 226.0,722.3 226.0,711.1 226.0,729.9 253.5,727.8 253.5,717.0 253.5,717.0 280.9,738.9 280.9,734.4 280.9,734.8 308.4,743.2 308.4,698.8 308.4,738.4 335.8,763.4 335.8,726.7 335.8,767.3 363.3,688.4 363.3,742.4 363.3,778.8 363.3,830.0 363.3,797.9 363.3,759.0 335.8,806.8 335.8,772.1 335.8,797.4 308.4,782.1 308.4,761.3 308.4,799.8 280.9,773.4 280.9,785.5 280.9,781.6 253.5,748.8 253.5,754.6 253.5,787.5 226.0,750.7 226.0,753.4 226.0,749.2 171.1,752.9 171.1,741.0 171.1,728.1 143.6,711.9 143.6,722.6 143.6,718.6 116.2,729.9 116.2,723.4 116.2,738.7 88.7,742.4 88.7,757.1 88.7,746.0" fill="#1f3a5f" opacity="0.18"/>
<polyline points="88.7,713.0 88.7,732.0 88.7,724.7 116.2,717.7 116.2,706.4 116.2,701.0 143.6,694.3 143.6,706.7 143.6,699.2 171.1,718.3 171.1,728.9 171.1,735.2 226.0,735.7 226.0,732.3 226.0,740.3 253.5,757.6 253.5,735.8 253.5,732.9 280.9,760.3 280.9,759.9 280.9,754.1 308.4,771.5 308.4,730.0 308.4,760.2 335.8,780.4 335.8,749.4 335.8,787.0 363.3,723.7 363.3,770.2 363.3,804.4" fill="none" stroke="#1f3a5f" stroke-width="1.6"/>
<circle cx="88.7" cy="713.0" r="2.6" fill="#1f3a5f"/>
<circle cx="88.7" cy="732.0" r="2.6" fill="#1f3a5f"/>
<circle cx="88.7" cy="724.7" r="2.6" fill="#1f3a5f"/>
<circle cx="116.2" cy="717.7" r="2.6" fill="#1f3a5f"/>
<circle cx="116.2" cy="706.4" r="2.6" fill="#1f3a5f"/>
<circle cx="116.2" cy="701.0" r="2.6" fill="#1f3a5f"/>
<circle cx="143.6" cy="694.3" r="2.6" fill="#1f3a5f"/>
<circle cx="143.6" cy="706.7" r="2.6" fill="#1f3a5f"/>
<circle cx="143.6" cy="699.2" r="2.6" fill="#1f3a5f"/>
<circle cx="171.1" cy="718.3" r="2.6" fill="#1f3a5f"/>
<circle cx="171.1" cy="728.9" r="2.6" fill="#1f3a5f"/>
<circle cx="171.1" cy="735.2" r="2.6" fill="#1f3a5f"/>
<circle cx="226.0" cy="735.7" r="2.6" fill="#1f3a5f"/>
<circle cx="226.0" cy="732.3" r="2.6" fill="#1f3a5f"/>
<circle cx="226.0" cy="740.3" r="2.6" fill="#1f3a5f"/>
<circle cx="253.5" cy="757.6" r="2.6" fill="#1f3a5f"/>
<circle cx="253.5" cy="735.8" r="2.6" fill="#1f3a5f"/>
<circle cx="253.5" cy="732.9" r="2.6" fill="#1f3a5f"/>
<circle cx="280.9" cy="760.3" r="2.6" fill="#1f3a5f"/>
<circle cx="280.9" cy="759.9" r="2.6" fill="#1f3a5f"/>
<circle cx="280.9" cy="754.1" r="2.6" fill="#1f3a5f"/>
<circle cx="308.4" cy="771.5" r="2.6" fill="#1f3a5f"/>
<circle cx="308.4" cy="730.0" r="2.6" fill="#1f3a5f"/>
<circle cx="308.4" cy="760.2" r="2.6" fill="#1f3a5f"/>
<circle cx="335.8" cy="780.4" r="2.6" fill="#1f3a5f"/>
<circle cx="335.8" cy="749.4" r="2.6" fill="#1f3a5f"/>
<circle cx="335.8" cy="787.0" r="2.6" fill="#1f3a5f"/>
<circle cx="363.3" cy="723.7" r="2.6" fill="#1f3a5f"/>
<circle cx="363.3" cy="770.2" r="2.6" fill="#1f3a5f"/>
<circle cx="363.3" cy="804.4" r="2.6" fill="#1f3a5f"/>
<line x1="212.3" y1="670" x2="212.3" y2="830" stroke="#b9461a" stroke-dasharray="3 3"/>
<line x1="75" y1="830" x2="377" y2="830" stroke="#444"/>
<line x1="75" y1="670" x2="75" y2="830" stroke="#444"/>
<line x1="88.7" y1="830" x2="88.7" y2="833" stroke="#444"/>
<text x="88.7" y="845" text-anchor="middle" fill="#444">-5</text>
<line x1="116.2" y1="830" x2="116.2" y2="833" stroke="#444"/>
<text x="116.2" y="845" text-anchor="middle" fill="#444">-4</text>
<line x1="143.6" y1="830" x2="143.6" y2="833" stroke="#444"/>
<text x="143.6" y="845" text-anchor="middle" fill="#444">-3</text>
<line x1="171.1" y1="830" x2="171.1" y2="833" stroke="#444"/>
<text x="171.1" y="845" text-anchor="middle" fill="#444">-2</text>
<line x1="226.0" y1="830" x2="226.0" y2="833" stroke="#444"/>
<text x="226.0" y="845" text-anchor="middle" fill="#444">0</text>
<line x1="253.5" y1="830" x2="253.5" y2="833" stroke="#444"/>
<text x="253.5" y="845" text-anchor="middle" fill="#444">1</text>
<line x1="280.9" y1="830" x2="280.9" y2="833" stroke="#444"/>
<text x="280.9" y="845" text-anchor="middle" fill="#444">2</text>
<line x1="308.4" y1="830" x2="308.4" y2="833" stroke="#444"/>
<text x="308.4" y="845" text-anchor="middle" fill="#444">3</text>
<line x1="335.8" y1="830" x2="335.8" y2="833" stroke="#444"/>
<text x="335.8" y="845" text-anchor="middle" fill="#444">4</text>
<line x1="363.3" y1="830" x2="363.3" y2="833" stroke="#444"/>
<text x="363.3" y="845" text-anchor="middle" fill="#444">5</text>
<line x1="72" y1="830.0" x2="75" y2="830.0" stroke="#444"/>
<text x="69" y="833.0" text-anchor="end" fill="#444">-3.4</text>
<line x1="72" y1="790.0" x2="75" y2="790.0" stroke="#444"/>
<text x="69" y="793.0" text-anchor="end" fill="#444">-2.1</text>
<line x1="72" y1="750.0" x2="75" y2="750.0" stroke="#444"/>
<text x="69" y="753.0" text-anchor="end" fill="#444">-0.81</text>
<line x1="72" y1="710.0" x2="75" y2="710.0" stroke="#444"/>
<text x="69" y="713.0" text-anchor="end" fill="#444">0.47</text>
<line x1="72" y1="670.0" x2="75" y2="670.0" stroke="#444"/>
<text x="69" y="673.0" text-anchor="end" fill="#444">1.7</text>
<text x="226.0" y="864" text-anchor="middle" fill="#444">Event time (years from adoption)</text>
<text x="27" y="750.0" text-anchor="middle" fill="#444" transform="rotate(-90 27 750.0)">ATT (per 100k)</text>
<rect x="425" y="620" width="380" height="260" fill="#fafaf7" stroke="#e2e2dc"/>
<text x="615.0" y="638" text-anchor="middle" font-weight="600">Motor vehicle theft rate (per 100k) [placebo]</text>
<line x1="485" y1="722.6527682982492" x2="787" y2="722.6527682982492" stroke="#aaaaaa" stroke-width="0.7"/>
<polygon points="498.7,688.8 498.7,710.8 498.7,717.8 526.2,700.9 526.2,709.9 526.2,676.9 553.6,680.4 553.6,699.8 553.6,715.4 581.1,716.4 581.1,706.2 581.1,696.9 636.0,727.0 636.0,726.0 636.0,719.5 663.5,729.5 663.5,735.5 663.5,715.2 690.9,736.3 690.9,730.4 690.9,700.3 718.4,710.0 718.4,727.0 718.4,670.0 745.8,705.1 745.8,767.0 745.8,735.0 773.3,672.1 773.3,689.3 773.3,687.5 773.3,774.2 773.3,789.9 773.3,824.7 745.8,776.5 745.8,830.0 745.8,758.6 718.4,718.1 718.4,770.7 718.4,742.1 690.9,738.6 690.9,759.9 690.9,760.4 663.5,739.3 663.5,751.4 663.5,750.3 636.0,730.4 636.0,742.1 636.0,738.5 581.1,715.2 581.1,721.9 581.1,730.7 553.6,732.8 553.6,725.8 553.6,712.9 526.2,715.5 526.2,729.4 526.2,727.6 498.7,739.3 498.7,735.8 498.7,724.5" fill="#1f3a5f" opacity="0.18"/>
<polyline points="498.7,706.6 498.7,723.3 498.7,728.6 526.2,714.3 526.2,719.7 526.2,696.2 553.6,696.7 553.6,712.8 553.6,724.1 581.1,723.5 581.1,714.1 581.1,706.1 636.0,732.7 636.0,734.0 636.0,724.9 663.5,739.9 663.5,743.5 663.5,727.3 690.9,748.3 690.9,745.1 690.9,719.4 718.4,726.1 718.4,748.9 718.4,694.1 745.8,731.9 745.8,798.5 745.8,755.7 773.3,748.4 773.3,739.6 773.3,730.9" fill="none" stroke="#1f3a5f" stroke-width="1.6"/>
<circle cx="498.7" cy="706.6" r="2.6" fill="#1f3a5f"/>
<circle cx="498.7" cy="723.3" r="2.6" fill="#1f3a5f"/>
<circle cx="498.7" cy="728.6" r="2.6" fill="#1f3a5f"/>
<circle cx="526.2" cy="714.3" r="2.6" fill="#1f3a5f"/>
<circle cx="526.2" cy="719.7" r="2.6" fill="#1f3a5f"/>
<circle cx="526.2" cy="696.2" r="2.6" fill="#1f3a5f"/>
<circle cx="553.6" cy="696.7" r="2.6" fill="#1f3a5f"/>
<circle cx="553.6" cy="712.8" r="2.6" fill="#1f3a5f"/>
<circle cx="553.6" cy="724.1" r="2.6" fill="#1f3a5f"/>
<circle cx="581.1" cy="723.5" r="2.6" fill="#1f3a5f"/>
<circle cx="581.1" cy="714.1" r="2.6" fill="#1f3a5f"/>
<circle cx="581.1" cy="706.1" r="2.6" fill="#1f3a5f"/>
<circle cx="636.0" cy="732.7" r="2.6" fill="#1f3a5f"/>
<circle cx="636.0" cy="734.0" r="2.6" fill="#1f3a5f"/>
<circle cx="636.0" cy="724.9" r="2.6" fill="#1f3a5f"/>
<circle cx="663.5" cy="739.9" r="2.6" fill="#1f3a5f"/>
<circle cx="663.5" cy="743.5" r="2.6" fill="#1f3a5f"/>
<circle cx="663.5" cy="727.3" r="2.6" fill="#1f3a5f"/>
<circle cx="690.9" cy="748.3" r="2.6" fill="#1f3a5f"/>
<circle cx="690.9" cy="745.1" r="2.6" fill="#1f3a5f"/>
<circle cx="690.9" cy="719.4" r="2.6" fill="#1f3a5f"/>
<circle cx="718.4" cy="726.1" r="2.6" fill="#1f3a5f"/>
<circle cx="718.4" cy="748.9" r="2.6" fill="#1f3a5f"/>
<circle cx="718.4" cy="694.1" r="2.6" fill="#1f3a5f"/>
<circle cx="745.8" cy="731.9" r="2.6" fill="#1f3a5f"/>
<circle cx="745.8" cy="798.5" r="2.6" fill="#1f3a5f"/>
<circle cx="745.8" cy="755.7" r="2.6" fill="#1f3a5f"/>
<circle cx="773.3" cy="748.4" r="2.6" fill="#1f3a5f"/>
<circle cx="773.3" cy="739.6" r="2.6" fill="#1f3a5f"/>
<circle cx="773.3" cy="730.9" r="2.6" fill="#1f3a5f"/>
<line x1="622.3" y1="670" x2="622.3" y2="830" stroke="#b9461a" stroke-dasharray="3 3"/>
<line x1="485" y1="830" x2="787" y2="830" stroke="#444"/>
<line x1="485" y1="670" x2="485" y2="830" stroke="#444"/>
<line x1="498.7" y1="830" x2="498.7" y2="833" stroke="#444"/>
<text x="498.7" y="845" text-anchor="middle" fill="#444">-5</text>
<line x1="526.2" y1="830" x2="526.2" y2="833" stroke="#444"/>
<text x="526.2" y="845" text-anchor="middle" fill="#444">-4</text>
<line x1="553.6" y1="830" x2="553.6" y2="833" stroke="#444"/>
<text x="553.6" y="845" text-anchor="middle" fill="#444">-3</text>
<line x1="581.1" y1="830" x2="581.1" y2="833" stroke="#444"/>
<text x="581.1" y="845" text-anchor="middle" fill="#444">-2</text>
<line x1="636.0" y1="830" x2="636.0" y2="833" stroke="#444"/>
<text x="636.0" y="845" text-anchor="middle" fill="#444">0</text>
<line x1="663.5" y1="830" x2="663.5" y2="833" stroke="#444"/>
<text x="663.5" y="845" text-anchor="middle" fill="#444">1</text>
<line x1="690.9" y1="830" x2="690.9" y2="833" stroke="#444"/>
<text x="690.9" y="845" text-anchor="middle" fill="#444">2</text>
<line x1="718.4" y1="830" x2="718.4" y2="833" stroke="#444"/>
<text x="718.4" y="845" text-anchor="middle" fill="#444">3</text>
<line x1="745.8" y1="830" x2="745.8" y2="833" stroke="#444"/>
<text x="745.8" y="845" text-anchor="middle" fill="#444">4</text>
<line x1="773.3" y1="830" x2="773.3" y2="833" stroke="#444"/>
<text x="773.3" y="845" text-anchor="middle" fill="#444">5</text>
<line x1="482" y1="830.0" x2="485" y2="830.0" stroke="#444"/>
<text x="479" y="833.0" text-anchor="end" fill="#444">-1.9e+02</text>
<line x1="482" y1="790.0" x2="485" y2="790.0" stroke="#444"/>
<text x="479" y="793.0" text-anchor="end" fill="#444">-1.2e+02</text>
<line x1="482" y1="750.0" x2="485" y2="750.0" stroke="#444"/>
<text x="479" y="753.0" text-anchor="end" fill="#444">-49</text>
<line x1="482" y1="710.0" x2="485" y2="710.0" stroke="#444"/>
<text x="479" y="713.0" text-anchor="end" fill="#444">23</text>
<line x1="482" y1="670.0" x2="485" y2="670.0" stroke="#444"/>
<text x="479" y="673.0" text-anchor="end" fill="#444">94</text>
<text x="636.0" y="864" text-anchor="middle" fill="#444">Event time (years from adoption)</text>
<text x="437" y="750.0" text-anchor="middle" fill="#444" transform="rotate(-90 437 750.0)">ATT (per 100k)</text>
<text x="805" y="608" text-anchor="end" fill="#888" font-size="10">Shaded band: pointwise 95% CI from cluster bootstrap. Vertical dashed line marks the year before adoption.</text>
</svg>