<svg xmlns="http://www.w3.org/2000/svg" viewBox="0 0 820 620" font-family="-apple-system, Segoe UI, Helvetica, Arial, sans-serif" font-size="11">
<text x="410.0" y="22" text-anchor="middle" font-size="14" font-weight="600">Callaway-Sant'Anna ATT by event time (RA) -- red-flag (gvro)</text>
<rect x="15" y="40" width="380" height="260" fill="#fafaf7" stroke="#e2e2dc"/>
<text x="205.0" y="58" text-anchor="middle" font-weight="600">Firearm suicide rate (per 100k)</text>
<line x1="75" y1="184.46924319305265" x2="377" y2="184.46924319305265" stroke="#aaaaaa" stroke-width="0.7"/>
<polygon points="88.7,90.0 116.2,96.5 143.6,166.2 171.1,115.0 226.0,190.0 253.5,164.7 280.9,162.7 308.4,157.9 335.8,151.7 363.3,132.1 363.3,250.0 335.8,226.6 308.4,227.3 280.9,237.3 253.5,226.0 226.0,238.1 171.1,184.9 143.6,212.6 116.2,157.2 88.7,161.5" fill="#1f3a5f" opacity="0.18"/>
<polyline points="88.7,125.7 116.2,126.8 143.6,189.4 171.1,149.9 226.0,214.0 253.5,195.4 280.9,200.0 308.4,192.6 335.8,189.2 363.3,191.0" fill="none" stroke="#1f3a5f" stroke-width="1.6"/>
<circle cx="88.7" cy="125.7" r="2.6" fill="#1f3a5f"/>
<circle cx="116.2" cy="126.8" r="2.6" fill="#1f3a5f"/>
<circle cx="143.6" cy="189.4" r="2.6" fill="#1f3a5f"/>
<circle cx="171.1" cy="149.9" r="2.6" fill="#1f3a5f"/>
<circle cx="226.0" cy="214.0" r="2.6" fill="#1f3a5f"/>
<circle cx="253.5" cy="195.4" r="2.6" fill="#1f3a5f"/>
<circle cx="280.9" cy="200.0" r="2.6" fill="#1f3a5f"/>
<circle cx="308.4" cy="192.6" r="2.6" fill="#1f3a5f"/>
<circle cx="335.8" cy="189.2" r="2.6" fill="#1f3a5f"/>
<circle cx="363.3" cy="191.0" r="2.6" fill="#1f3a5f"/>
<line x1="212.3" y1="90" x2="212.3" y2="250" stroke="#b9461a" stroke-dasharray="3 3"/>
<line x1="75" y1="250" x2="377" y2="250" stroke="#444"/>
<line x1="75" y1="90" x2="75" y2="250" stroke="#444"/>
<line x1="88.7" y1="250" x2="88.7" y2="253" stroke="#444"/>
<text x="88.7" y="265" text-anchor="middle" fill="#444">-5</text>
<line x1="116.2" y1="250" x2="116.2" y2="253" stroke="#444"/>
<text x="116.2" y="265" text-anchor="middle" fill="#444">-4</text>
<line x1="143.6" y1="250" x2="143.6" y2="253" stroke="#444"/>
<text x="143.6" y="265" text-anchor="middle" fill="#444">-3</text>
<line x1="171.1" y1="250" x2="171.1" y2="253" stroke="#444"/>
<text x="171.1" y="265" text-anchor="middle" fill="#444">-2</text>
<line x1="226.0" y1="250" x2="226.0" y2="253" stroke="#444"/>
<text x="226.0" y="265" text-anchor="middle" fill="#444">0</text>
<line x1="253.5" y1="250" x2="253.5" y2="253" stroke="#444"/>
<text x="253.5" y="265" text-anchor="middle" fill="#444">1</text>
<line x1="280.9" y1="250" x2="280.9" y2="253" stroke="#444"/>
<text x="280.9" y="265" text-anchor="middle" fill="#444">2</text>
<line x1="308.4" y1="250" x2="308.4" y2="253" stroke="#444"/>
<text x="308.4" y="265" text-anchor="middle" fill="#444">3</text>
<line x1="335.8" y1="250" x2="335.8" y2="253" stroke="#444"/>
<text x="335.8" y="265" text-anchor="middle" fill="#444">4</text>
<line x1="363.3" y1="250" x2="363.3" y2="253" stroke="#444"/>
<text x="363.3" y="265" text-anchor="middle" fill="#444">5</text>
<line x1="72" y1="250.0" x2="75" y2="250.0" stroke="#444"/>
<text x="69" y="253.0" text-anchor="end" fill="#444">-0.52</text>
<line x1="72" y1="210.0" x2="75" y2="210.0" stroke="#444"/>
<text x="69" y="213.0" text-anchor="end" fill="#444">-0.2</text>
<line x1="72" y1="170.0" x2="75" y2="170.0" stroke="#444"/>
<text x="69" y="173.0" text-anchor="end" fill="#444">0.11</text>
<line x1="72" y1="130.0" x2="75" y2="130.0" stroke="#444"/>
<text x="69" y="133.0" text-anchor="end" fill="#444">0.43</text>
<line x1="72" y1="90.0" x2="75" y2="90.0" stroke="#444"/>
<text x="69" y="93.0" text-anchor="end" fill="#444">0.75</text>
<text x="226.0" y="284" text-anchor="middle" fill="#444">Event time (years from adoption)</text>
<text x="27" y="170.0" text-anchor="middle" fill="#444" transform="rotate(-90 27 170.0)">ATT (per 100k)</text>
<rect x="425" y="40" width="380" height="260" fill="#fafaf7" stroke="#e2e2dc"/>
<text x="615.0" y="58" text-anchor="middle" font-weight="600">Firearm homicide rate (per 100k)</text>
<line x1="485" y1="141.06055336629635" x2="787" y2="141.06055336629635" stroke="#aaaaaa" stroke-width="0.7"/>
<polygon points="498.7,126.8 526.2,136.0 553.6,118.7 581.1,120.8 636.0,154.4 663.5,123.3 690.9,90.0 718.4,94.9 745.8,141.9 773.3,154.3 773.3,250.0 745.8,206.4 718.4,147.3 690.9,143.6 663.5,167.2 636.0,176.1 581.1,151.1 553.6,150.8 526.2,176.0 498.7,168.7" fill="#1f3a5f" opacity="0.18"/>
<polyline points="498.7,147.8 526.2,156.0 553.6,134.8 581.1,136.0 636.0,165.3 663.5,145.2 690.9,116.8 718.4,121.1 745.8,174.2 773.3,202.1" fill="none" stroke="#1f3a5f" stroke-width="1.6"/>
<circle cx="498.7" cy="147.8" r="2.6" fill="#1f3a5f"/>
<circle cx="526.2" cy="156.0" r="2.6" fill="#1f3a5f"/>
<circle cx="553.6" cy="134.8" r="2.6" fill="#1f3a5f"/>
<circle cx="581.1" cy="136.0" r="2.6" fill="#1f3a5f"/>
<circle cx="636.0" cy="165.3" r="2.6" fill="#1f3a5f"/>
<circle cx="663.5" cy="145.2" r="2.6" fill="#1f3a5f"/>
<circle cx="690.9" cy="116.8" r="2.6" fill="#1f3a5f"/>
<circle cx="718.4" cy="121.1" r="2.6" fill="#1f3a5f"/>
<circle cx="745.8" cy="174.2" r="2.6" fill="#1f3a5f"/>
<circle cx="773.3" cy="202.1" r="2.6" fill="#1f3a5f"/>
<line x1="622.3" y1="90" x2="622.3" y2="250" stroke="#b9461a" stroke-dasharray="3 3"/>
<line x1="485" y1="250" x2="787" y2="250" stroke="#444"/>
<line x1="485" y1="90" x2="485" y2="250" stroke="#444"/>
<line x1="498.7" y1="250" x2="498.7" y2="253" stroke="#444"/>
<text x="498.7" y="265" text-anchor="middle" fill="#444">-5</text>
<line x1="526.2" y1="250" x2="526.2" y2="253" stroke="#444"/>
<text x="526.2" y="265" text-anchor="middle" fill="#444">-4</text>
<line x1="553.6" y1="250" x2="553.6" y2="253" stroke="#444"/>
<text x="553.6" y="265" text-anchor="middle" fill="#444">-3</text>
<line x1="581.1" y1="250" x2="581.1" y2="253" stroke="#444"/>
<text x="581.1" y="265" text-anchor="middle" fill="#444">-2</text>
<line x1="636.0" y1="250" x2="636.0" y2="253" stroke="#444"/>
<text x="636.0" y="265" text-anchor="middle" fill="#444">0</text>
<line x1="663.5" y1="250" x2="663.5" y2="253" stroke="#444"/>
<text x="663.5" y="265" text-anchor="middle" fill="#444">1</text>
<line x1="690.9" y1="250" x2="690.9" y2="253" stroke="#444"/>
<text x="690.9" y="265" text-anchor="middle" fill="#444">2</text>
<line x1="718.4" y1="250" x2="718.4" y2="253" stroke="#444"/>
<text x="718.4" y="265" text-anchor="middle" fill="#444">3</text>
<line x1="745.8" y1="250" x2="745.8" y2="253" stroke="#444"/>
<text x="745.8" y="265" text-anchor="middle" fill="#444">4</text>
<line x1="773.3" y1="250" x2="773.3" y2="253" stroke="#444"/>
<text x="773.3" y="265" text-anchor="middle" fill="#444">5</text>
<line x1="482" y1="250.0" x2="485" y2="250.0" stroke="#444"/>
<text x="479" y="253.0" text-anchor="end" fill="#444">-1.4</text>
<line x1="482" y1="210.0" x2="485" y2="210.0" stroke="#444"/>
<text x="479" y="213.0" text-anchor="end" fill="#444">-0.86</text>
<line x1="482" y1="170.0" x2="485" y2="170.0" stroke="#444"/>
<text x="479" y="173.0" text-anchor="end" fill="#444">-0.36</text>
<line x1="482" y1="130.0" x2="485" y2="130.0" stroke="#444"/>
<text x="479" y="133.0" text-anchor="end" fill="#444">0.14</text>
<line x1="482" y1="90.0" x2="485" y2="90.0" stroke="#444"/>
<text x="479" y="93.0" text-anchor="end" fill="#444">0.64</text>
<text x="636.0" y="284" text-anchor="middle" fill="#444">Event time (years from adoption)</text>
<text x="437" y="170.0" text-anchor="middle" fill="#444" transform="rotate(-90 437 170.0)">ATT (per 100k)</text>
<rect x="15" y="330" width="380" height="260" fill="#fafaf7" stroke="#e2e2dc"/>
<text x="205.0" y="348" text-anchor="middle" font-weight="600">Total homicide rate (per 100k)</text>
<line x1="75" y1="436.7924041535593" x2="377" y2="436.7924041535593" stroke="#aaaaaa" stroke-width="0.7"/>
<polygon points="88.7,414.4 116.2,407.6 143.6,380.0 171.1,407.3 226.0,448.5 253.5,427.9 280.9,414.2 308.4,386.3 335.8,462.1 363.3,461.1 363.3,540.0 335.8,516.1 308.4,451.1 280.9,469.3 253.5,467.1 226.0,470.7 171.1,435.0 143.6,426.7 116.2,458.6 88.7,465.5" fill="#1f3a5f" opacity="0.18"/>
<polyline points="88.7,439.9 116.2,433.1 143.6,403.3 171.1,421.2 226.0,459.6 253.5,447.5 280.9,441.8 308.4,418.7 335.8,489.1 363.3,500.5" fill="none" stroke="#1f3a5f" stroke-width="1.6"/>
<circle cx="88.7" cy="439.9" r="2.6" fill="#1f3a5f"/>
<circle cx="116.2" cy="433.1" r="2.6" fill="#1f3a5f"/>
<circle cx="143.6" cy="403.3" r="2.6" fill="#1f3a5f"/>
<circle cx="171.1" cy="421.2" r="2.6" fill="#1f3a5f"/>
<circle cx="226.0" cy="459.6" r="2.6" fill="#1f3a5f"/>
<circle cx="253.5" cy="447.5" r="2.6" fill="#1f3a5f"/>
<circle cx="280.9" cy="441.8" r="2.6" fill="#1f3a5f"/>
<circle cx="308.4" cy="418.7" r="2.6" fill="#1f3a5f"/>
<circle cx="335.8" cy="489.1" r="2.6" fill="#1f3a5f"/>
<circle cx="363.3" cy="500.5" r="2.6" fill="#1f3a5f"/>
<line x1="212.3" y1="380" x2="212.3" y2="540" stroke="#b9461a" stroke-dasharray="3 3"/>
<line x1="75" y1="540" x2="377" y2="540" stroke="#444"/>
<line x1="75" y1="380" x2="75" y2="540" stroke="#444"/>
<line x1="88.7" y1="540" x2="88.7" y2="543" stroke="#444"/>
<text x="88.7" y="555" text-anchor="middle" fill="#444">-5</text>
<line x1="116.2" y1="540" x2="116.2" y2="543" stroke="#444"/>
<text x="116.2" y="555" text-anchor="middle" fill="#444">-4</text>
<line x1="143.6" y1="540" x2="143.6" y2="543" stroke="#444"/>
<text x="143.6" y="555" text-anchor="middle" fill="#444">-3</text>
<line x1="171.1" y1="540" x2="171.1" y2="543" stroke="#444"/>
<text x="171.1" y="555" text-anchor="middle" fill="#444">-2</text>
<line x1="226.0" y1="540" x2="226.0" y2="543" stroke="#444"/>
<text x="226.0" y="555" text-anchor="middle" fill="#444">0</text>
<line x1="253.5" y1="540" x2="253.5" y2="543" stroke="#444"/>
<text x="253.5" y="555" text-anchor="middle" fill="#444">1</text>
<line x1="280.9" y1="540" x2="280.9" y2="543" stroke="#444"/>
<text x="280.9" y="555" text-anchor="middle" fill="#444">2</text>
<line x1="308.4" y1="540" x2="308.4" y2="543" stroke="#444"/>
<text x="308.4" y="555" text-anchor="middle" fill="#444">3</text>
<line x1="335.8" y1="540" x2="335.8" y2="543" stroke="#444"/>
<text x="335.8" y="555" text-anchor="middle" fill="#444">4</text>
<line x1="363.3" y1="540" x2="363.3" y2="543" stroke="#444"/>
<text x="363.3" y="555" text-anchor="middle" fill="#444">5</text>
<line x1="72" y1="540.0" x2="75" y2="540.0" stroke="#444"/>
<text x="69" y="543.0" text-anchor="end" fill="#444">-1.3</text>
<line x1="72" y1="500.0" x2="75" y2="500.0" stroke="#444"/>
<text x="69" y="503.0" text-anchor="end" fill="#444">-0.82</text>
<line x1="72" y1="460.0" x2="75" y2="460.0" stroke="#444"/>
<text x="69" y="463.0" text-anchor="end" fill="#444">-0.3</text>
<line x1="72" y1="420.0" x2="75" y2="420.0" stroke="#444"/>
<text x="69" y="423.0" text-anchor="end" fill="#444">0.22</text>
<line x1="72" y1="380.0" x2="75" y2="380.0" stroke="#444"/>
<text x="69" y="383.0" text-anchor="end" fill="#444">0.74</text>
<text x="226.0" y="574" text-anchor="middle" fill="#444">Event time (years from adoption)</text>
<text x="27" y="460.0" text-anchor="middle" fill="#444" transform="rotate(-90 27 460.0)">ATT (per 100k)</text>
<rect x="425" y="330" width="380" height="260" fill="#fafaf7" stroke="#e2e2dc"/>
<text x="615.0" y="348" text-anchor="middle" font-weight="600">Motor vehicle theft rate (per 100k) [placebo]</text>
<line x1="485" y1="502.65968563364953" x2="787" y2="502.65968563364953" stroke="#aaaaaa" stroke-width="0.7"/>
<polygon points="498.7,494.4 526.2,481.2 553.6,487.4 581.1,488.7 636.0,491.5 663.5,466.4 690.9,439.5 718.4,398.3 745.8,429.9 773.3,380.0 773.3,491.5 745.8,492.4 718.4,467.0 690.9,495.5 663.5,496.3 636.0,504.6 581.1,512.9 553.6,518.1 526.2,519.2 498.7,540.0" fill="#1f3a5f" opacity="0.18"/>
<polyline points="498.7,517.2 526.2,500.2 553.6,502.8 581.1,500.8 636.0,498.0 663.5,481.3 690.9,467.5 718.4,432.7 745.8,461.1 773.3,435.8" fill="none" stroke="#1f3a5f" stroke-width="1.6"/>
<circle cx="498.7" cy="517.2" r="2.6" fill="#1f3a5f"/>
<circle cx="526.2" cy="500.2" r="2.6" fill="#1f3a5f"/>
<circle cx="553.6" cy="502.8" r="2.6" fill="#1f3a5f"/>
<circle cx="581.1" cy="500.8" r="2.6" fill="#1f3a5f"/>
<circle cx="636.0" cy="498.0" r="2.6" fill="#1f3a5f"/>
<circle cx="663.5" cy="481.3" r="2.6" fill="#1f3a5f"/>
<circle cx="690.9" cy="467.5" r="2.6" fill="#1f3a5f"/>
<circle cx="718.4" cy="432.7" r="2.6" fill="#1f3a5f"/>
<circle cx="745.8" cy="461.1" r="2.6" fill="#1f3a5f"/>
<circle cx="773.3" cy="435.8" r="2.6" fill="#1f3a5f"/>
<line x1="622.3" y1="380" x2="622.3" y2="540" stroke="#b9461a" stroke-dasharray="3 3"/>
<line x1="485" y1="540" x2="787" y2="540" stroke="#444"/>
<line x1="485" y1="380" x2="485" y2="540" stroke="#444"/>
<line x1="498.7" y1="540" x2="498.7" y2="543" stroke="#444"/>
<text x="498.7" y="555" text-anchor="middle" fill="#444">-5</text>
<line x1="526.2" y1="540" x2="526.2" y2="543" stroke="#444"/>
<text x="526.2" y="555" text-anchor="middle" fill="#444">-4</text>
<line x1="553.6" y1="540" x2="553.6" y2="543" stroke="#444"/>
<text x="553.6" y="555" text-anchor="middle" fill="#444">-3</text>
<line x1="581.1" y1="540" x2="581.1" y2="543" stroke="#444"/>
<text x="581.1" y="555" text-anchor="middle" fill="#444">-2</text>
<line x1="636.0" y1="540" x2="636.0" y2="543" stroke="#444"/>
<text x="636.0" y="555" text-anchor="middle" fill="#444">0</text>
<line x1="663.5" y1="540" x2="663.5" y2="543" stroke="#444"/>
<text x="663.5" y="555" text-anchor="middle" fill="#444">1</text>
<line x1="690.9" y1="540" x2="690.9" y2="543" stroke="#444"/>
<text x="690.9" y="555" text-anchor="middle" fill="#444">2</text>
<line x1="718.4" y1="540" x2="718.4" y2="543" stroke="#444"/>
<text x="718.4" y="555" text-anchor="middle" fill="#444">3</text>
<line x1="745.8" y1="540" x2="745.8" y2="543" stroke="#444"/>
<text x="745.8" y="555" text-anchor="middle" fill="#444">4</text>
<line x1="773.3" y1="540" x2="773.3" y2="543" stroke="#444"/>
<text x="773.3" y="555" text-anchor="middle" fill="#444">5</text>
<line x1="482" y1="540.0" x2="485" y2="540.0" stroke="#444"/>
<text x="479" y="543.0" text-anchor="end" fill="#444">-33</text>
<line x1="482" y1="500.0" x2="485" y2="500.0" stroke="#444"/>
<text x="479" y="503.0" text-anchor="end" fill="#444">2.4</text>
<line x1="482" y1="460.0" x2="485" y2="460.0" stroke="#444"/>
<text x="479" y="463.0" text-anchor="end" fill="#444">38</text>
<line x1="482" y1="420.0" x2="485" y2="420.0" stroke="#444"/>
<text x="479" y="423.0" text-anchor="end" fill="#444">74</text>
<line x1="482" y1="380.0" x2="485" y2="380.0" stroke="#444"/>
<text x="479" y="383.0" text-anchor="end" fill="#444">1.1e+02</text>
<text x="636.0" y="574" text-anchor="middle" fill="#444">Event time (years from adoption)</text>
<text x="437" y="460.0" text-anchor="middle" fill="#444" transform="rotate(-90 437 460.0)">ATT (per 100k)</text>
<text x="805" y="608" text-anchor="end" fill="#888" font-size="10">Shaded band: pointwise 95% CI from cluster bootstrap. Vertical dashed line marks the year before adoption.</text>
</svg>