<svg xmlns="http://www.w3.org/2000/svg" viewBox="0 0 820 620" font-family="-apple-system, Segoe UI, Helvetica, Arial, sans-serif" font-size="11">
<text x="410.0" y="22" text-anchor="middle" font-size="14" font-weight="600">Callaway-Sant'Anna ATT by event time (RA) -- red flag</text>
<rect x="15" y="40" width="380" height="260" fill="#fafaf7" stroke="#e2e2dc"/>
<text x="205.0" y="58" text-anchor="middle" font-weight="600">Firearm suicide rate (per 100k)</text>
<line x1="75" y1="198.57862470321407" x2="377" y2="198.57862470321407" stroke="#aaaaaa" stroke-width="0.7"/>
<polygon points="88.7,170.1 116.2,90.0 143.6,198.9 171.1,144.2 226.0,165.9 253.5,98.6 280.9,92.0 308.4,103.1 335.8,153.1 363.3,181.6 363.3,250.0 335.8,213.3 308.4,159.6 280.9,160.5 253.5,161.7 226.0,219.2 171.1,211.0 143.6,245.7 116.2,159.4 88.7,223.7" fill="#1f3a5f" opacity="0.18"/>
<polyline points="88.7,196.9 116.2,124.7 143.6,222.3 171.1,177.6 226.0,192.6 253.5,130.1 280.9,126.3 308.4,131.3 335.8,183.2 363.3,215.8" fill="none" stroke="#1f3a5f" stroke-width="1.6"/>
<circle cx="88.7" cy="196.9" r="2.6" fill="#1f3a5f"/>
<circle cx="116.2" cy="124.7" r="2.6" fill="#1f3a5f"/>
<circle cx="143.6" cy="222.3" r="2.6" fill="#1f3a5f"/>
<circle cx="171.1" cy="177.6" r="2.6" fill="#1f3a5f"/>
<circle cx="226.0" cy="192.6" r="2.6" fill="#1f3a5f"/>
<circle cx="253.5" cy="130.1" r="2.6" fill="#1f3a5f"/>
<circle cx="280.9" cy="126.3" r="2.6" fill="#1f3a5f"/>
<circle cx="308.4" cy="131.3" r="2.6" fill="#1f3a5f"/>
<circle cx="335.8" cy="183.2" r="2.6" fill="#1f3a5f"/>
<circle cx="363.3" cy="215.8" r="2.6" fill="#1f3a5f"/>
<line x1="212.3" y1="90" x2="212.3" y2="250" stroke="#b9461a" stroke-dasharray="3 3"/>
<line x1="75" y1="250" x2="377" y2="250" stroke="#444"/>
<line x1="75" y1="90" x2="75" y2="250" stroke="#444"/>
<line x1="88.7" y1="250" x2="88.7" y2="253" stroke="#444"/>
<text x="88.7" y="265" text-anchor="middle" fill="#444">-5</text>
<line x1="116.2" y1="250" x2="116.2" y2="253" stroke="#444"/>
<text x="116.2" y="265" text-anchor="middle" fill="#444">-4</text>
<line x1="143.6" y1="250" x2="143.6" y2="253" stroke="#444"/>
<text x="143.6" y="265" text-anchor="middle" fill="#444">-3</text>
<line x1="171.1" y1="250" x2="171.1" y2="253" stroke="#444"/>
<text x="171.1" y="265" text-anchor="middle" fill="#444">-2</text>
<line x1="226.0" y1="250" x2="226.0" y2="253" stroke="#444"/>
<text x="226.0" y="265" text-anchor="middle" fill="#444">0</text>
<line x1="253.5" y1="250" x2="253.5" y2="253" stroke="#444"/>
<text x="253.5" y="265" text-anchor="middle" fill="#444">1</text>
<line x1="280.9" y1="250" x2="280.9" y2="253" stroke="#444"/>
<text x="280.9" y="265" text-anchor="middle" fill="#444">2</text>
<line x1="308.4" y1="250" x2="308.4" y2="253" stroke="#444"/>
<text x="308.4" y="265" text-anchor="middle" fill="#444">3</text>
<line x1="335.8" y1="250" x2="335.8" y2="253" stroke="#444"/>
<text x="335.8" y="265" text-anchor="middle" fill="#444">4</text>
<line x1="363.3" y1="250" x2="363.3" y2="253" stroke="#444"/>
<text x="363.3" y="265" text-anchor="middle" fill="#444">5</text>
<line x1="72" y1="250.0" x2="75" y2="250.0" stroke="#444"/>
<text x="69" y="253.0" text-anchor="end" fill="#444">-1.2</text>
<line x1="72" y1="210.0" x2="75" y2="210.0" stroke="#444"/>
<text x="69" y="213.0" text-anchor="end" fill="#444">-0.27</text>
<line x1="72" y1="170.0" x2="75" y2="170.0" stroke="#444"/>
<text x="69" y="173.0" text-anchor="end" fill="#444">0.68</text>
<line x1="72" y1="130.0" x2="75" y2="130.0" stroke="#444"/>
<text x="69" y="133.0" text-anchor="end" fill="#444">1.6</text>
<line x1="72" y1="90.0" x2="75" y2="90.0" stroke="#444"/>
<text x="69" y="93.0" text-anchor="end" fill="#444">2.6</text>
<text x="226.0" y="284" text-anchor="middle" fill="#444">Event time (years from adoption)</text>
<text x="27" y="170.0" text-anchor="middle" fill="#444" transform="rotate(-90 27 170.0)">ATT (per 100k)</text>
<rect x="425" y="40" width="380" height="260" fill="#fafaf7" stroke="#e2e2dc"/>
<text x="615.0" y="58" text-anchor="middle" font-weight="600">Non-firearm suicide rate (per 100k) [substitution test]</text>
<line x1="485" y1="171.60090800520436" x2="787" y2="171.60090800520436" stroke="#aaaaaa" stroke-width="0.7"/>
<polygon points="498.7,90.0 526.2,138.7 553.6,143.6 581.1,111.7 636.0,135.5 663.5,141.9 690.9,113.3 718.4,195.5 745.8,116.6 773.3,172.2 773.3,212.5 745.8,162.6 718.4,250.0 690.9,176.3 663.5,181.8 636.0,172.9 581.1,155.4 553.6,192.4 526.2,177.6 498.7,141.8" fill="#1f3a5f" opacity="0.18"/>
<polyline points="498.7,115.9 526.2,158.2 553.6,168.0 581.1,133.5 636.0,154.2 663.5,161.9 690.9,144.8 718.4,222.7 745.8,139.6 773.3,192.4" fill="none" stroke="#1f3a5f" stroke-width="1.6"/>
<circle cx="498.7" cy="115.9" r="2.6" fill="#1f3a5f"/>
<circle cx="526.2" cy="158.2" r="2.6" fill="#1f3a5f"/>
<circle cx="553.6" cy="168.0" r="2.6" fill="#1f3a5f"/>
<circle cx="581.1" cy="133.5" r="2.6" fill="#1f3a5f"/>
<circle cx="636.0" cy="154.2" r="2.6" fill="#1f3a5f"/>
<circle cx="663.5" cy="161.9" r="2.6" fill="#1f3a5f"/>
<circle cx="690.9" cy="144.8" r="2.6" fill="#1f3a5f"/>
<circle cx="718.4" cy="222.7" r="2.6" fill="#1f3a5f"/>
<circle cx="745.8" cy="139.6" r="2.6" fill="#1f3a5f"/>
<circle cx="773.3" cy="192.4" r="2.6" fill="#1f3a5f"/>
<line x1="622.3" y1="90" x2="622.3" y2="250" stroke="#b9461a" stroke-dasharray="3 3"/>
<line x1="485" y1="250" x2="787" y2="250" stroke="#444"/>
<line x1="485" y1="90" x2="485" y2="250" stroke="#444"/>
<line x1="498.7" y1="250" x2="498.7" y2="253" stroke="#444"/>
<text x="498.7" y="265" text-anchor="middle" fill="#444">-5</text>
<line x1="526.2" y1="250" x2="526.2" y2="253" stroke="#444"/>
<text x="526.2" y="265" text-anchor="middle" fill="#444">-4</text>
<line x1="553.6" y1="250" x2="553.6" y2="253" stroke="#444"/>
<text x="553.6" y="265" text-anchor="middle" fill="#444">-3</text>
<line x1="581.1" y1="250" x2="581.1" y2="253" stroke="#444"/>
<text x="581.1" y="265" text-anchor="middle" fill="#444">-2</text>
<line x1="636.0" y1="250" x2="636.0" y2="253" stroke="#444"/>
<text x="636.0" y="265" text-anchor="middle" fill="#444">0</text>
<line x1="663.5" y1="250" x2="663.5" y2="253" stroke="#444"/>
<text x="663.5" y="265" text-anchor="middle" fill="#444">1</text>
<line x1="690.9" y1="250" x2="690.9" y2="253" stroke="#444"/>
<text x="690.9" y="265" text-anchor="middle" fill="#444">2</text>
<line x1="718.4" y1="250" x2="718.4" y2="253" stroke="#444"/>
<text x="718.4" y="265" text-anchor="middle" fill="#444">3</text>
<line x1="745.8" y1="250" x2="745.8" y2="253" stroke="#444"/>
<text x="745.8" y="265" text-anchor="middle" fill="#444">4</text>
<line x1="773.3" y1="250" x2="773.3" y2="253" stroke="#444"/>
<text x="773.3" y="265" text-anchor="middle" fill="#444">5</text>
<line x1="482" y1="250.0" x2="485" y2="250.0" stroke="#444"/>
<text x="479" y="253.0" text-anchor="end" fill="#444">-2</text>
<line x1="482" y1="210.0" x2="485" y2="210.0" stroke="#444"/>
<text x="479" y="213.0" text-anchor="end" fill="#444">-0.99</text>
<line x1="482" y1="170.0" x2="485" y2="170.0" stroke="#444"/>
<text x="479" y="173.0" text-anchor="end" fill="#444">0.041</text>
<line x1="482" y1="130.0" x2="485" y2="130.0" stroke="#444"/>
<text x="479" y="133.0" text-anchor="end" fill="#444">1.1</text>
<line x1="482" y1="90.0" x2="485" y2="90.0" stroke="#444"/>
<text x="479" y="93.0" text-anchor="end" fill="#444">2.1</text>
<text x="636.0" y="284" text-anchor="middle" fill="#444">Event time (years from adoption)</text>
<text x="437" y="170.0" text-anchor="middle" fill="#444" transform="rotate(-90 437 170.0)">ATT (per 100k)</text>
<rect x="15" y="330" width="380" height="260" fill="#fafaf7" stroke="#e2e2dc"/>
<text x="205.0" y="348" text-anchor="middle" font-weight="600">Total suicide rate (per 100k) [net effect]</text>
<line x1="75" y1="486.48990293645767" x2="377" y2="486.48990293645767" stroke="#aaaaaa" stroke-width="0.7"/>
<polygon points="88.7,408.0 116.2,385.5 143.6,476.5 171.1,405.2 226.0,442.0 253.5,403.4 280.9,380.0 308.4,453.6 335.8,422.4 363.3,492.7 363.3,540.0 335.8,475.2 308.4,502.3 280.9,440.9 253.5,451.2 226.0,493.6 171.1,474.1 143.6,526.1 116.2,454.9 88.7,471.5" fill="#1f3a5f" opacity="0.18"/>
<polyline points="88.7,439.7 116.2,420.2 143.6,501.3 171.1,439.7 226.0,467.8 253.5,427.3 280.9,410.4 308.4,477.9 335.8,448.8 363.3,516.4" fill="none" stroke="#1f3a5f" stroke-width="1.6"/>
<circle cx="88.7" cy="439.7" r="2.6" fill="#1f3a5f"/>
<circle cx="116.2" cy="420.2" r="2.6" fill="#1f3a5f"/>
<circle cx="143.6" cy="501.3" r="2.6" fill="#1f3a5f"/>
<circle cx="171.1" cy="439.7" r="2.6" fill="#1f3a5f"/>
<circle cx="226.0" cy="467.8" r="2.6" fill="#1f3a5f"/>
<circle cx="253.5" cy="427.3" r="2.6" fill="#1f3a5f"/>
<circle cx="280.9" cy="410.4" r="2.6" fill="#1f3a5f"/>
<circle cx="308.4" cy="477.9" r="2.6" fill="#1f3a5f"/>
<circle cx="335.8" cy="448.8" r="2.6" fill="#1f3a5f"/>
<circle cx="363.3" cy="516.4" r="2.6" fill="#1f3a5f"/>
<line x1="212.3" y1="380" x2="212.3" y2="540" stroke="#b9461a" stroke-dasharray="3 3"/>
<line x1="75" y1="540" x2="377" y2="540" stroke="#444"/>
<line x1="75" y1="380" x2="75" y2="540" stroke="#444"/>
<line x1="88.7" y1="540" x2="88.7" y2="543" stroke="#444"/>
<text x="88.7" y="555" text-anchor="middle" fill="#444">-5</text>
<line x1="116.2" y1="540" x2="116.2" y2="543" stroke="#444"/>
<text x="116.2" y="555" text-anchor="middle" fill="#444">-4</text>
<line x1="143.6" y1="540" x2="143.6" y2="543" stroke="#444"/>
<text x="143.6" y="555" text-anchor="middle" fill="#444">-3</text>
<line x1="171.1" y1="540" x2="171.1" y2="543" stroke="#444"/>
<text x="171.1" y="555" text-anchor="middle" fill="#444">-2</text>
<line x1="226.0" y1="540" x2="226.0" y2="543" stroke="#444"/>
<text x="226.0" y="555" text-anchor="middle" fill="#444">0</text>
<line x1="253.5" y1="540" x2="253.5" y2="543" stroke="#444"/>
<text x="253.5" y="555" text-anchor="middle" fill="#444">1</text>
<line x1="280.9" y1="540" x2="280.9" y2="543" stroke="#444"/>
<text x="280.9" y="555" text-anchor="middle" fill="#444">2</text>
<line x1="308.4" y1="540" x2="308.4" y2="543" stroke="#444"/>
<text x="308.4" y="555" text-anchor="middle" fill="#444">3</text>
<line x1="335.8" y1="540" x2="335.8" y2="543" stroke="#444"/>
<text x="335.8" y="555" text-anchor="middle" fill="#444">4</text>
<line x1="363.3" y1="540" x2="363.3" y2="543" stroke="#444"/>
<text x="363.3" y="555" text-anchor="middle" fill="#444">5</text>
<line x1="72" y1="540.0" x2="75" y2="540.0" stroke="#444"/>
<text x="69" y="543.0" text-anchor="end" fill="#444">-1.7</text>
<line x1="72" y1="500.0" x2="75" y2="500.0" stroke="#444"/>
<text x="69" y="503.0" text-anchor="end" fill="#444">-0.43</text>
<line x1="72" y1="460.0" x2="75" y2="460.0" stroke="#444"/>
<text x="69" y="463.0" text-anchor="end" fill="#444">0.84</text>
<line x1="72" y1="420.0" x2="75" y2="420.0" stroke="#444"/>
<text x="69" y="423.0" text-anchor="end" fill="#444">2.1</text>
<line x1="72" y1="380.0" x2="75" y2="380.0" stroke="#444"/>
<text x="69" y="383.0" text-anchor="end" fill="#444">3.4</text>
<text x="226.0" y="574" text-anchor="middle" fill="#444">Event time (years from adoption)</text>
<text x="27" y="460.0" text-anchor="middle" fill="#444" transform="rotate(-90 27 460.0)">ATT (per 100k)</text>
<rect x="425" y="330" width="380" height="260" fill="#fafaf7" stroke="#e2e2dc"/>
<text x="615.0" y="348" text-anchor="middle" font-weight="600">Firearm homicide rate (per 100k)</text>
<line x1="485" y1="394.5608672193233" x2="787" y2="394.5608672193233" stroke="#aaaaaa" stroke-width="0.7"/>
<polygon points="498.7,400.6 526.2,393.4 553.6,381.1 581.1,398.1 636.0,398.6 663.5,384.5 690.9,380.0 718.4,399.6 745.8,409.5 773.3,433.1 773.3,540.0 745.8,479.1 718.4,442.8 690.9,422.8 663.5,438.4 636.0,432.5 581.1,424.8 553.6,419.7 526.2,446.8 498.7,449.8" fill="#1f3a5f" opacity="0.18"/>
<polyline points="498.7,425.2 526.2,420.1 553.6,400.4 581.1,411.4 636.0,415.6 663.5,411.5 690.9,401.4 718.4,421.2 745.8,444.3 773.3,486.6" fill="none" stroke="#1f3a5f" stroke-width="1.6"/>
<circle cx="498.7" cy="425.2" r="2.6" fill="#1f3a5f"/>
<circle cx="526.2" cy="420.1" r="2.6" fill="#1f3a5f"/>
<circle cx="553.6" cy="400.4" r="2.6" fill="#1f3a5f"/>
<circle cx="581.1" cy="411.4" r="2.6" fill="#1f3a5f"/>
<circle cx="636.0" cy="415.6" r="2.6" fill="#1f3a5f"/>
<circle cx="663.5" cy="411.5" r="2.6" fill="#1f3a5f"/>
<circle cx="690.9" cy="401.4" r="2.6" fill="#1f3a5f"/>
<circle cx="718.4" cy="421.2" r="2.6" fill="#1f3a5f"/>
<circle cx="745.8" cy="444.3" r="2.6" fill="#1f3a5f"/>
<circle cx="773.3" cy="486.6" r="2.6" fill="#1f3a5f"/>
<line x1="622.3" y1="380" x2="622.3" y2="540" stroke="#b9461a" stroke-dasharray="3 3"/>
<line x1="485" y1="540" x2="787" y2="540" stroke="#444"/>
<line x1="485" y1="380" x2="485" y2="540" stroke="#444"/>
<line x1="498.7" y1="540" x2="498.7" y2="543" stroke="#444"/>
<text x="498.7" y="555" text-anchor="middle" fill="#444">-5</text>
<line x1="526.2" y1="540" x2="526.2" y2="543" stroke="#444"/>
<text x="526.2" y="555" text-anchor="middle" fill="#444">-4</text>
<line x1="553.6" y1="540" x2="553.6" y2="543" stroke="#444"/>
<text x="553.6" y="555" text-anchor="middle" fill="#444">-3</text>
<line x1="581.1" y1="540" x2="581.1" y2="543" stroke="#444"/>
<text x="581.1" y="555" text-anchor="middle" fill="#444">-2</text>
<line x1="636.0" y1="540" x2="636.0" y2="543" stroke="#444"/>
<text x="636.0" y="555" text-anchor="middle" fill="#444">0</text>
<line x1="663.5" y1="540" x2="663.5" y2="543" stroke="#444"/>
<text x="663.5" y="555" text-anchor="middle" fill="#444">1</text>
<line x1="690.9" y1="540" x2="690.9" y2="543" stroke="#444"/>
<text x="690.9" y="555" text-anchor="middle" fill="#444">2</text>
<line x1="718.4" y1="540" x2="718.4" y2="543" stroke="#444"/>
<text x="718.4" y="555" text-anchor="middle" fill="#444">3</text>
<line x1="745.8" y1="540" x2="745.8" y2="543" stroke="#444"/>
<text x="745.8" y="555" text-anchor="middle" fill="#444">4</text>
<line x1="773.3" y1="540" x2="773.3" y2="543" stroke="#444"/>
<text x="773.3" y="555" text-anchor="middle" fill="#444">5</text>
<line x1="482" y1="540.0" x2="485" y2="540.0" stroke="#444"/>
<text x="479" y="543.0" text-anchor="end" fill="#444">-2.9</text>
<line x1="482" y1="500.0" x2="485" y2="500.0" stroke="#444"/>
<text x="479" y="503.0" text-anchor="end" fill="#444">-2.1</text>
<line x1="482" y1="460.0" x2="485" y2="460.0" stroke="#444"/>
<text x="479" y="463.0" text-anchor="end" fill="#444">-1.3</text>
<line x1="482" y1="420.0" x2="485" y2="420.0" stroke="#444"/>
<text x="479" y="423.0" text-anchor="end" fill="#444">-0.5</text>
<line x1="482" y1="380.0" x2="485" y2="380.0" stroke="#444"/>
<text x="479" y="383.0" text-anchor="end" fill="#444">0.29</text>
<text x="636.0" y="574" text-anchor="middle" fill="#444">Event time (years from adoption)</text>
<text x="437" y="460.0" text-anchor="middle" fill="#444" transform="rotate(-90 437 460.0)">ATT (per 100k)</text>
<rect x="15" y="620" width="380" height="260" fill="#fafaf7" stroke="#e2e2dc"/>
<text x="205.0" y="638" text-anchor="middle" font-weight="600">Total homicide rate (per 100k)</text>
<line x1="75" y1="711.4097926316308" x2="377" y2="711.4097926316308" stroke="#aaaaaa" stroke-width="0.7"/>
<polygon points="88.7,678.5 116.2,681.2 143.6,670.0 171.1,708.7 226.0,710.2 253.5,714.6 280.9,742.7 308.4,720.4 335.8,776.1 363.3,743.9 363.3,818.0 335.8,830.0 308.4,808.2 280.9,798.4 253.5,757.2 226.0,742.8 171.1,740.7 143.6,715.4 116.2,750.5 88.7,752.3" fill="#1f3a5f" opacity="0.18"/>
<polyline points="88.7,715.4 116.2,715.8 143.6,692.7 171.1,724.7 226.0,726.5 253.5,735.9 280.9,770.5 308.4,764.3 335.8,803.0 363.3,781.0" fill="none" stroke="#1f3a5f" stroke-width="1.6"/>
<circle cx="88.7" cy="715.4" r="2.6" fill="#1f3a5f"/>
<circle cx="116.2" cy="715.8" r="2.6" fill="#1f3a5f"/>
<circle cx="143.6" cy="692.7" r="2.6" fill="#1f3a5f"/>
<circle cx="171.1" cy="724.7" r="2.6" fill="#1f3a5f"/>
<circle cx="226.0" cy="726.5" r="2.6" fill="#1f3a5f"/>
<circle cx="253.5" cy="735.9" r="2.6" fill="#1f3a5f"/>
<circle cx="280.9" cy="770.5" r="2.6" fill="#1f3a5f"/>
<circle cx="308.4" cy="764.3" r="2.6" fill="#1f3a5f"/>
<circle cx="335.8" cy="803.0" r="2.6" fill="#1f3a5f"/>
<circle cx="363.3" cy="781.0" r="2.6" fill="#1f3a5f"/>
<line x1="212.3" y1="670" x2="212.3" y2="830" stroke="#b9461a" stroke-dasharray="3 3"/>
<line x1="75" y1="830" x2="377" y2="830" stroke="#444"/>
<line x1="75" y1="670" x2="75" y2="830" stroke="#444"/>
<line x1="88.7" y1="830" x2="88.7" y2="833" stroke="#444"/>
<text x="88.7" y="845" text-anchor="middle" fill="#444">-5</text>
<line x1="116.2" y1="830" x2="116.2" y2="833" stroke="#444"/>
<text x="116.2" y="845" text-anchor="middle" fill="#444">-4</text>
<line x1="143.6" y1="830" x2="143.6" y2="833" stroke="#444"/>
<text x="143.6" y="845" text-anchor="middle" fill="#444">-3</text>
<line x1="171.1" y1="830" x2="171.1" y2="833" stroke="#444"/>
<text x="171.1" y="845" text-anchor="middle" fill="#444">-2</text>
<line x1="226.0" y1="830" x2="226.0" y2="833" stroke="#444"/>
<text x="226.0" y="845" text-anchor="middle" fill="#444">0</text>
<line x1="253.5" y1="830" x2="253.5" y2="833" stroke="#444"/>
<text x="253.5" y="845" text-anchor="middle" fill="#444">1</text>
<line x1="280.9" y1="830" x2="280.9" y2="833" stroke="#444"/>
<text x="280.9" y="845" text-anchor="middle" fill="#444">2</text>
<line x1="308.4" y1="830" x2="308.4" y2="833" stroke="#444"/>
<text x="308.4" y="845" text-anchor="middle" fill="#444">3</text>
<line x1="335.8" y1="830" x2="335.8" y2="833" stroke="#444"/>
<text x="335.8" y="845" text-anchor="middle" fill="#444">4</text>
<line x1="363.3" y1="830" x2="363.3" y2="833" stroke="#444"/>
<text x="363.3" y="845" text-anchor="middle" fill="#444">5</text>
<line x1="72" y1="830.0" x2="75" y2="830.0" stroke="#444"/>
<text x="69" y="833.0" text-anchor="end" fill="#444">-2.3</text>
<line x1="72" y1="790.0" x2="75" y2="790.0" stroke="#444"/>
<text x="69" y="793.0" text-anchor="end" fill="#444">-1.5</text>
<line x1="72" y1="750.0" x2="75" y2="750.0" stroke="#444"/>
<text x="69" y="753.0" text-anchor="end" fill="#444">-0.74</text>
<line x1="72" y1="710.0" x2="75" y2="710.0" stroke="#444"/>
<text x="69" y="713.0" text-anchor="end" fill="#444">0.027</text>
<line x1="72" y1="670.0" x2="75" y2="670.0" stroke="#444"/>
<text x="69" y="673.0" text-anchor="end" fill="#444">0.8</text>
<text x="226.0" y="864" text-anchor="middle" fill="#444">Event time (years from adoption)</text>
<text x="27" y="750.0" text-anchor="middle" fill="#444" transform="rotate(-90 27 750.0)">ATT (per 100k)</text>
<rect x="425" y="620" width="380" height="260" fill="#fafaf7" stroke="#e2e2dc"/>
<text x="615.0" y="638" text-anchor="middle" font-weight="600">Motor vehicle theft rate (per 100k) [placebo]</text>
<line x1="485" y1="746.5477735110817" x2="787" y2="746.5477735110817" stroke="#aaaaaa" stroke-width="0.7"/>
<polygon points="498.7,744.3 526.2,733.1 553.6,725.1 581.1,721.6 636.0,749.1 663.5,761.4 690.9,765.8 718.4,756.3 745.8,760.1 773.3,670.0 773.3,830.0 745.8,823.3 718.4,799.6 690.9,798.2 663.5,782.4 636.0,766.0 581.1,745.4 553.6,760.6 526.2,772.9 498.7,784.8" fill="#1f3a5f" opacity="0.18"/>
<polyline points="498.7,764.6 526.2,753.0 553.6,742.8 581.1,733.5 636.0,757.5 663.5,771.9 690.9,782.0 718.4,777.9 745.8,791.7 773.3,750.0" fill="none" stroke="#1f3a5f" stroke-width="1.6"/>
<circle cx="498.7" cy="764.6" r="2.6" fill="#1f3a5f"/>
<circle cx="526.2" cy="753.0" r="2.6" fill="#1f3a5f"/>
<circle cx="553.6" cy="742.8" r="2.6" fill="#1f3a5f"/>
<circle cx="581.1" cy="733.5" r="2.6" fill="#1f3a5f"/>
<circle cx="636.0" cy="757.5" r="2.6" fill="#1f3a5f"/>
<circle cx="663.5" cy="771.9" r="2.6" fill="#1f3a5f"/>
<circle cx="690.9" cy="782.0" r="2.6" fill="#1f3a5f"/>
<circle cx="718.4" cy="777.9" r="2.6" fill="#1f3a5f"/>
<circle cx="745.8" cy="791.7" r="2.6" fill="#1f3a5f"/>
<circle cx="773.3" cy="750.0" r="2.6" fill="#1f3a5f"/>
<line x1="622.3" y1="670" x2="622.3" y2="830" stroke="#b9461a" stroke-dasharray="3 3"/>
<line x1="485" y1="830" x2="787" y2="830" stroke="#444"/>
<line x1="485" y1="670" x2="485" y2="830" stroke="#444"/>
<line x1="498.7" y1="830" x2="498.7" y2="833" stroke="#444"/>
<text x="498.7" y="845" text-anchor="middle" fill="#444">-5</text>
<line x1="526.2" y1="830" x2="526.2" y2="833" stroke="#444"/>
<text x="526.2" y="845" text-anchor="middle" fill="#444">-4</text>
<line x1="553.6" y1="830" x2="553.6" y2="833" stroke="#444"/>
<text x="553.6" y="845" text-anchor="middle" fill="#444">-3</text>
<line x1="581.1" y1="830" x2="581.1" y2="833" stroke="#444"/>
<text x="581.1" y="845" text-anchor="middle" fill="#444">-2</text>
<line x1="636.0" y1="830" x2="636.0" y2="833" stroke="#444"/>
<text x="636.0" y="845" text-anchor="middle" fill="#444">0</text>
<line x1="663.5" y1="830" x2="663.5" y2="833" stroke="#444"/>
<text x="663.5" y="845" text-anchor="middle" fill="#444">1</text>
<line x1="690.9" y1="830" x2="690.9" y2="833" stroke="#444"/>
<text x="690.9" y="845" text-anchor="middle" fill="#444">2</text>
<line x1="718.4" y1="830" x2="718.4" y2="833" stroke="#444"/>
<text x="718.4" y="845" text-anchor="middle" fill="#444">3</text>
<line x1="745.8" y1="830" x2="745.8" y2="833" stroke="#444"/>
<text x="745.8" y="845" text-anchor="middle" fill="#444">4</text>
<line x1="773.3" y1="830" x2="773.3" y2="833" stroke="#444"/>
<text x="773.3" y="845" text-anchor="middle" fill="#444">5</text>
<line x1="482" y1="830.0" x2="485" y2="830.0" stroke="#444"/>
<text x="479" y="833.0" text-anchor="end" fill="#444">-91</text>
<line x1="482" y1="790.0" x2="485" y2="790.0" stroke="#444"/>
<text x="479" y="793.0" text-anchor="end" fill="#444">-48</text>
<line x1="482" y1="750.0" x2="485" y2="750.0" stroke="#444"/>
<text x="479" y="753.0" text-anchor="end" fill="#444">-3.8</text>
<line x1="482" y1="710.0" x2="485" y2="710.0" stroke="#444"/>
<text x="479" y="713.0" text-anchor="end" fill="#444">40</text>
<line x1="482" y1="670.0" x2="485" y2="670.0" stroke="#444"/>
<text x="479" y="673.0" text-anchor="end" fill="#444">84</text>
<text x="636.0" y="864" text-anchor="middle" fill="#444">Event time (years from adoption)</text>
<text x="437" y="750.0" text-anchor="middle" fill="#444" transform="rotate(-90 437 750.0)">ATT (per 100k)</text>
<text x="805" y="608" text-anchor="end" fill="#888" font-size="10">Shaded band: pointwise 95% CI from cluster bootstrap. Vertical dashed line marks the year before adoption.</text>
</svg>