<svg xmlns="http://www.w3.org/2000/svg" viewBox="0 0 820 910" font-family="-apple-system, Segoe UI, Helvetica, Arial, sans-serif" font-size="11">
<text x="410.0" y="22" text-anchor="middle" font-size="14" font-weight="600">Callaway-Sant'Anna ATT by event time (RA) -- red flag</text>
<rect x="15" y="40" width="380" height="260" fill="#fafaf7" stroke="#e2e2dc"/>
<text x="205.0" y="58" text-anchor="middle" font-weight="600">Firearm suicide rate (per 100k)</text>
<line x1="75" y1="198.57862470321407" x2="377" y2="198.57862470321407" stroke="#aaaaaa" stroke-width="0.7"/>
<line x1="212.3" y1="90" x2="212.3" y2="250" stroke="#b9461a" stroke-dasharray="3 3"/>
<line x1="88.7" y1="223.7" x2="88.7" y2="170.1" stroke="#1f3a5f" stroke-width="1.4" opacity="0.35"/>
<line x1="84.7" y1="223.7" x2="92.7" y2="223.7" stroke="#1f3a5f" stroke-width="1.2" opacity="0.35"/>
<line x1="84.7" y1="170.1" x2="92.7" y2="170.1" stroke="#1f3a5f" stroke-width="1.2" opacity="0.35"/>
<circle cx="88.7" cy="196.9" r="3.2" fill="white" stroke="#1f3a5f" stroke-width="1.3" opacity="0.35"/>
<line x1="116.2" y1="159.4" x2="116.2" y2="90.0" stroke="#1f3a5f" stroke-width="1.4" opacity="1.00"/>
<line x1="112.2" y1="159.4" x2="120.2" y2="159.4" stroke="#1f3a5f" stroke-width="1.2" opacity="1.00"/>
<line x1="112.2" y1="90.0" x2="120.2" y2="90.0" stroke="#1f3a5f" stroke-width="1.2" opacity="1.00"/>
<circle cx="116.2" cy="124.7" r="3.2" fill="#1f3a5f"/>
<line x1="143.6" y1="245.7" x2="143.6" y2="198.9" stroke="#1f3a5f" stroke-width="1.4" opacity="1.00"/>
<line x1="139.6" y1="245.7" x2="147.6" y2="245.7" stroke="#1f3a5f" stroke-width="1.2" opacity="1.00"/>
<line x1="139.6" y1="198.9" x2="147.6" y2="198.9" stroke="#1f3a5f" stroke-width="1.2" opacity="1.00"/>
<circle cx="143.6" cy="222.3" r="3.2" fill="#1f3a5f"/>
<line x1="171.1" y1="211.0" x2="171.1" y2="144.2" stroke="#1f3a5f" stroke-width="1.4" opacity="0.35"/>
<line x1="167.1" y1="211.0" x2="175.1" y2="211.0" stroke="#1f3a5f" stroke-width="1.2" opacity="0.35"/>
<line x1="167.1" y1="144.2" x2="175.1" y2="144.2" stroke="#1f3a5f" stroke-width="1.2" opacity="0.35"/>
<circle cx="171.1" cy="177.6" r="3.2" fill="white" stroke="#1f3a5f" stroke-width="1.3" opacity="0.35"/>
<line x1="226.0" y1="219.2" x2="226.0" y2="165.9" stroke="#1f3a5f" stroke-width="1.4" opacity="0.35"/>
<line x1="222.0" y1="219.2" x2="230.0" y2="219.2" stroke="#1f3a5f" stroke-width="1.2" opacity="0.35"/>
<line x1="222.0" y1="165.9" x2="230.0" y2="165.9" stroke="#1f3a5f" stroke-width="1.2" opacity="0.35"/>
<circle cx="226.0" cy="192.6" r="3.2" fill="white" stroke="#1f3a5f" stroke-width="1.3" opacity="0.35"/>
<line x1="253.5" y1="161.7" x2="253.5" y2="98.6" stroke="#1f3a5f" stroke-width="1.4" opacity="1.00"/>
<line x1="249.5" y1="161.7" x2="257.5" y2="161.7" stroke="#1f3a5f" stroke-width="1.2" opacity="1.00"/>
<line x1="249.5" y1="98.6" x2="257.5" y2="98.6" stroke="#1f3a5f" stroke-width="1.2" opacity="1.00"/>
<circle cx="253.5" cy="130.1" r="3.2" fill="#1f3a5f"/>
<line x1="280.9" y1="160.5" x2="280.9" y2="92.0" stroke="#1f3a5f" stroke-width="1.4" opacity="1.00"/>
<line x1="276.9" y1="160.5" x2="284.9" y2="160.5" stroke="#1f3a5f" stroke-width="1.2" opacity="1.00"/>
<line x1="276.9" y1="92.0" x2="284.9" y2="92.0" stroke="#1f3a5f" stroke-width="1.2" opacity="1.00"/>
<circle cx="280.9" cy="126.3" r="3.2" fill="#1f3a5f"/>
<line x1="308.4" y1="159.6" x2="308.4" y2="103.1" stroke="#1f3a5f" stroke-width="1.4" opacity="1.00"/>
<line x1="304.4" y1="159.6" x2="312.4" y2="159.6" stroke="#1f3a5f" stroke-width="1.2" opacity="1.00"/>
<line x1="304.4" y1="103.1" x2="312.4" y2="103.1" stroke="#1f3a5f" stroke-width="1.2" opacity="1.00"/>
<circle cx="308.4" cy="131.3" r="3.2" fill="#1f3a5f"/>
<line x1="335.8" y1="213.3" x2="335.8" y2="153.1" stroke="#1f3a5f" stroke-width="1.4" opacity="0.35"/>
<line x1="331.8" y1="213.3" x2="339.8" y2="213.3" stroke="#1f3a5f" stroke-width="1.2" opacity="0.35"/>
<line x1="331.8" y1="153.1" x2="339.8" y2="153.1" stroke="#1f3a5f" stroke-width="1.2" opacity="0.35"/>
<circle cx="335.8" cy="183.2" r="3.2" fill="white" stroke="#1f3a5f" stroke-width="1.3" opacity="0.35"/>
<line x1="363.3" y1="250.0" x2="363.3" y2="181.6" stroke="#1f3a5f" stroke-width="1.4" opacity="0.35"/>
<line x1="359.3" y1="250.0" x2="367.3" y2="250.0" stroke="#1f3a5f" stroke-width="1.2" opacity="0.35"/>
<line x1="359.3" y1="181.6" x2="367.3" y2="181.6" stroke="#1f3a5f" stroke-width="1.2" opacity="0.35"/>
<circle cx="363.3" cy="215.8" r="3.2" fill="white" stroke="#1f3a5f" stroke-width="1.3" opacity="0.35"/>
<line x1="75" y1="250" x2="377" y2="250" stroke="#444"/>
<line x1="75" y1="90" x2="75" y2="250" stroke="#444"/>
<line x1="88.7" y1="250" x2="88.7" y2="253" stroke="#444"/>
<text x="88.7" y="265" text-anchor="middle" fill="#444">-5</text>
<line x1="116.2" y1="250" x2="116.2" y2="253" stroke="#444"/>
<text x="116.2" y="265" text-anchor="middle" fill="#444">-4</text>
<line x1="143.6" y1="250" x2="143.6" y2="253" stroke="#444"/>
<text x="143.6" y="265" text-anchor="middle" fill="#444">-3</text>
<line x1="171.1" y1="250" x2="171.1" y2="253" stroke="#444"/>
<text x="171.1" y="265" text-anchor="middle" fill="#444">-2</text>
<line x1="226.0" y1="250" x2="226.0" y2="253" stroke="#444"/>
<text x="226.0" y="265" text-anchor="middle" fill="#444">0</text>
<line x1="253.5" y1="250" x2="253.5" y2="253" stroke="#444"/>
<text x="253.5" y="265" text-anchor="middle" fill="#444">1</text>
<line x1="280.9" y1="250" x2="280.9" y2="253" stroke="#444"/>
<text x="280.9" y="265" text-anchor="middle" fill="#444">2</text>
<line x1="308.4" y1="250" x2="308.4" y2="253" stroke="#444"/>
<text x="308.4" y="265" text-anchor="middle" fill="#444">3</text>
<line x1="335.8" y1="250" x2="335.8" y2="253" stroke="#444"/>
<text x="335.8" y="265" text-anchor="middle" fill="#444">4</text>
<line x1="363.3" y1="250" x2="363.3" y2="253" stroke="#444"/>
<text x="363.3" y="265" text-anchor="middle" fill="#444">5</text>
<line x1="72" y1="250.0" x2="75" y2="250.0" stroke="#444"/>
<text x="69" y="253.0" text-anchor="end" fill="#444">-1.2</text>
<line x1="72" y1="210.0" x2="75" y2="210.0" stroke="#444"/>
<text x="69" y="213.0" text-anchor="end" fill="#444">-0.27</text>
<line x1="72" y1="170.0" x2="75" y2="170.0" stroke="#444"/>
<text x="69" y="173.0" text-anchor="end" fill="#444">0.68</text>
<line x1="72" y1="130.0" x2="75" y2="130.0" stroke="#444"/>
<text x="69" y="133.0" text-anchor="end" fill="#444">1.6</text>
<line x1="72" y1="90.0" x2="75" y2="90.0" stroke="#444"/>
<text x="69" y="93.0" text-anchor="end" fill="#444">2.6</text>
<text x="226.0" y="284" text-anchor="middle" fill="#444">Event time (years from adoption)</text>
<text x="27" y="170.0" text-anchor="middle" fill="#444" transform="rotate(-90 27 170.0)">ATT (per 100k)</text>
<rect x="425" y="40" width="380" height="260" fill="#fafaf7" stroke="#e2e2dc"/>
<text x="615.0" y="58" text-anchor="middle" font-weight="600">Non-firearm suicide rate (per 100k) [substitution test]</text>
<line x1="485" y1="171.60090800520436" x2="787" y2="171.60090800520436" stroke="#aaaaaa" stroke-width="0.7"/>
<line x1="622.3" y1="90" x2="622.3" y2="250" stroke="#b9461a" stroke-dasharray="3 3"/>
<line x1="498.7" y1="141.8" x2="498.7" y2="90.0" stroke="#1f3a5f" stroke-width="1.4" opacity="1.00"/>
<line x1="494.7" y1="141.8" x2="502.7" y2="141.8" stroke="#1f3a5f" stroke-width="1.2" opacity="1.00"/>
<line x1="494.7" y1="90.0" x2="502.7" y2="90.0" stroke="#1f3a5f" stroke-width="1.2" opacity="1.00"/>
<circle cx="498.7" cy="115.9" r="3.2" fill="#1f3a5f"/>
<line x1="526.2" y1="177.6" x2="526.2" y2="138.7" stroke="#1f3a5f" stroke-width="1.4" opacity="0.35"/>
<line x1="522.2" y1="177.6" x2="530.2" y2="177.6" stroke="#1f3a5f" stroke-width="1.2" opacity="0.35"/>
<line x1="522.2" y1="138.7" x2="530.2" y2="138.7" stroke="#1f3a5f" stroke-width="1.2" opacity="0.35"/>
<circle cx="526.2" cy="158.2" r="3.2" fill="white" stroke="#1f3a5f" stroke-width="1.3" opacity="0.35"/>
<line x1="553.6" y1="192.4" x2="553.6" y2="143.6" stroke="#1f3a5f" stroke-width="1.4" opacity="0.35"/>
<line x1="549.6" y1="192.4" x2="557.6" y2="192.4" stroke="#1f3a5f" stroke-width="1.2" opacity="0.35"/>
<line x1="549.6" y1="143.6" x2="557.6" y2="143.6" stroke="#1f3a5f" stroke-width="1.2" opacity="0.35"/>
<circle cx="553.6" cy="168.0" r="3.2" fill="white" stroke="#1f3a5f" stroke-width="1.3" opacity="0.35"/>
<line x1="581.1" y1="155.4" x2="581.1" y2="111.7" stroke="#1f3a5f" stroke-width="1.4" opacity="1.00"/>
<line x1="577.1" y1="155.4" x2="585.1" y2="155.4" stroke="#1f3a5f" stroke-width="1.2" opacity="1.00"/>
<line x1="577.1" y1="111.7" x2="585.1" y2="111.7" stroke="#1f3a5f" stroke-width="1.2" opacity="1.00"/>
<circle cx="581.1" cy="133.5" r="3.2" fill="#1f3a5f"/>
<line x1="636.0" y1="172.9" x2="636.0" y2="135.5" stroke="#1f3a5f" stroke-width="1.4" opacity="0.35"/>
<line x1="632.0" y1="172.9" x2="640.0" y2="172.9" stroke="#1f3a5f" stroke-width="1.2" opacity="0.35"/>
<line x1="632.0" y1="135.5" x2="640.0" y2="135.5" stroke="#1f3a5f" stroke-width="1.2" opacity="0.35"/>
<circle cx="636.0" cy="154.2" r="3.2" fill="white" stroke="#1f3a5f" stroke-width="1.3" opacity="0.35"/>
<line x1="663.5" y1="181.8" x2="663.5" y2="141.9" stroke="#1f3a5f" stroke-width="1.4" opacity="0.35"/>
<line x1="659.5" y1="181.8" x2="667.5" y2="181.8" stroke="#1f3a5f" stroke-width="1.2" opacity="0.35"/>
<line x1="659.5" y1="141.9" x2="667.5" y2="141.9" stroke="#1f3a5f" stroke-width="1.2" opacity="0.35"/>
<circle cx="663.5" cy="161.9" r="3.2" fill="white" stroke="#1f3a5f" stroke-width="1.3" opacity="0.35"/>
<line x1="690.9" y1="176.3" x2="690.9" y2="113.3" stroke="#1f3a5f" stroke-width="1.4" opacity="0.35"/>
<line x1="686.9" y1="176.3" x2="694.9" y2="176.3" stroke="#1f3a5f" stroke-width="1.2" opacity="0.35"/>
<line x1="686.9" y1="113.3" x2="694.9" y2="113.3" stroke="#1f3a5f" stroke-width="1.2" opacity="0.35"/>
<circle cx="690.9" cy="144.8" r="3.2" fill="white" stroke="#1f3a5f" stroke-width="1.3" opacity="0.35"/>
<line x1="718.4" y1="250.0" x2="718.4" y2="195.5" stroke="#1f3a5f" stroke-width="1.4" opacity="1.00"/>
<line x1="714.4" y1="250.0" x2="722.4" y2="250.0" stroke="#1f3a5f" stroke-width="1.2" opacity="1.00"/>
<line x1="714.4" y1="195.5" x2="722.4" y2="195.5" stroke="#1f3a5f" stroke-width="1.2" opacity="1.00"/>
<circle cx="718.4" cy="222.7" r="3.2" fill="#1f3a5f"/>
<line x1="745.8" y1="162.6" x2="745.8" y2="116.6" stroke="#1f3a5f" stroke-width="1.4" opacity="1.00"/>
<line x1="741.8" y1="162.6" x2="749.8" y2="162.6" stroke="#1f3a5f" stroke-width="1.2" opacity="1.00"/>
<line x1="741.8" y1="116.6" x2="749.8" y2="116.6" stroke="#1f3a5f" stroke-width="1.2" opacity="1.00"/>
<circle cx="745.8" cy="139.6" r="3.2" fill="#1f3a5f"/>
<line x1="773.3" y1="212.5" x2="773.3" y2="172.2" stroke="#1f3a5f" stroke-width="1.4" opacity="1.00"/>
<line x1="769.3" y1="212.5" x2="777.3" y2="212.5" stroke="#1f3a5f" stroke-width="1.2" opacity="1.00"/>
<line x1="769.3" y1="172.2" x2="777.3" y2="172.2" stroke="#1f3a5f" stroke-width="1.2" opacity="1.00"/>
<circle cx="773.3" cy="192.4" r="3.2" fill="#1f3a5f"/>
<line x1="485" y1="250" x2="787" y2="250" stroke="#444"/>
<line x1="485" y1="90" x2="485" y2="250" stroke="#444"/>
<line x1="498.7" y1="250" x2="498.7" y2="253" stroke="#444"/>
<text x="498.7" y="265" text-anchor="middle" fill="#444">-5</text>
<line x1="526.2" y1="250" x2="526.2" y2="253" stroke="#444"/>
<text x="526.2" y="265" text-anchor="middle" fill="#444">-4</text>
<line x1="553.6" y1="250" x2="553.6" y2="253" stroke="#444"/>
<text x="553.6" y="265" text-anchor="middle" fill="#444">-3</text>
<line x1="581.1" y1="250" x2="581.1" y2="253" stroke="#444"/>
<text x="581.1" y="265" text-anchor="middle" fill="#444">-2</text>
<line x1="636.0" y1="250" x2="636.0" y2="253" stroke="#444"/>
<text x="636.0" y="265" text-anchor="middle" fill="#444">0</text>
<line x1="663.5" y1="250" x2="663.5" y2="253" stroke="#444"/>
<text x="663.5" y="265" text-anchor="middle" fill="#444">1</text>
<line x1="690.9" y1="250" x2="690.9" y2="253" stroke="#444"/>
<text x="690.9" y="265" text-anchor="middle" fill="#444">2</text>
<line x1="718.4" y1="250" x2="718.4" y2="253" stroke="#444"/>
<text x="718.4" y="265" text-anchor="middle" fill="#444">3</text>
<line x1="745.8" y1="250" x2="745.8" y2="253" stroke="#444"/>
<text x="745.8" y="265" text-anchor="middle" fill="#444">4</text>
<line x1="773.3" y1="250" x2="773.3" y2="253" stroke="#444"/>
<text x="773.3" y="265" text-anchor="middle" fill="#444">5</text>
<line x1="482" y1="250.0" x2="485" y2="250.0" stroke="#444"/>
<text x="479" y="253.0" text-anchor="end" fill="#444">-2</text>
<line x1="482" y1="210.0" x2="485" y2="210.0" stroke="#444"/>
<text x="479" y="213.0" text-anchor="end" fill="#444">-0.99</text>
<line x1="482" y1="170.0" x2="485" y2="170.0" stroke="#444"/>
<text x="479" y="173.0" text-anchor="end" fill="#444">0.041</text>
<line x1="482" y1="130.0" x2="485" y2="130.0" stroke="#444"/>
<text x="479" y="133.0" text-anchor="end" fill="#444">1.1</text>
<line x1="482" y1="90.0" x2="485" y2="90.0" stroke="#444"/>
<text x="479" y="93.0" text-anchor="end" fill="#444">2.1</text>
<text x="636.0" y="284" text-anchor="middle" fill="#444">Event time (years from adoption)</text>
<text x="437" y="170.0" text-anchor="middle" fill="#444" transform="rotate(-90 437 170.0)">ATT (per 100k)</text>
<rect x="15" y="330" width="380" height="260" fill="#fafaf7" stroke="#e2e2dc"/>
<text x="205.0" y="348" text-anchor="middle" font-weight="600">Total suicide rate (per 100k) [net effect]</text>
<line x1="75" y1="486.48990293645767" x2="377" y2="486.48990293645767" stroke="#aaaaaa" stroke-width="0.7"/>
<line x1="212.3" y1="380" x2="212.3" y2="540" stroke="#b9461a" stroke-dasharray="3 3"/>
<line x1="88.7" y1="471.5" x2="88.7" y2="408.0" stroke="#1f3a5f" stroke-width="1.4" opacity="1.00"/>
<line x1="84.7" y1="471.5" x2="92.7" y2="471.5" stroke="#1f3a5f" stroke-width="1.2" opacity="1.00"/>
<line x1="84.7" y1="408.0" x2="92.7" y2="408.0" stroke="#1f3a5f" stroke-width="1.2" opacity="1.00"/>
<circle cx="88.7" cy="439.7" r="3.2" fill="#1f3a5f"/>
<line x1="116.2" y1="454.9" x2="116.2" y2="385.5" stroke="#1f3a5f" stroke-width="1.4" opacity="1.00"/>
<line x1="112.2" y1="454.9" x2="120.2" y2="454.9" stroke="#1f3a5f" stroke-width="1.2" opacity="1.00"/>
<line x1="112.2" y1="385.5" x2="120.2" y2="385.5" stroke="#1f3a5f" stroke-width="1.2" opacity="1.00"/>
<circle cx="116.2" cy="420.2" r="3.2" fill="#1f3a5f"/>
<line x1="143.6" y1="526.1" x2="143.6" y2="476.5" stroke="#1f3a5f" stroke-width="1.4" opacity="0.35"/>
<line x1="139.6" y1="526.1" x2="147.6" y2="526.1" stroke="#1f3a5f" stroke-width="1.2" opacity="0.35"/>
<line x1="139.6" y1="476.5" x2="147.6" y2="476.5" stroke="#1f3a5f" stroke-width="1.2" opacity="0.35"/>
<circle cx="143.6" cy="501.3" r="3.2" fill="white" stroke="#1f3a5f" stroke-width="1.3" opacity="0.35"/>
<line x1="171.1" y1="474.1" x2="171.1" y2="405.2" stroke="#1f3a5f" stroke-width="1.4" opacity="1.00"/>
<line x1="167.1" y1="474.1" x2="175.1" y2="474.1" stroke="#1f3a5f" stroke-width="1.2" opacity="1.00"/>
<line x1="167.1" y1="405.2" x2="175.1" y2="405.2" stroke="#1f3a5f" stroke-width="1.2" opacity="1.00"/>
<circle cx="171.1" cy="439.7" r="3.2" fill="#1f3a5f"/>
<line x1="226.0" y1="493.6" x2="226.0" y2="442.0" stroke="#1f3a5f" stroke-width="1.4" opacity="0.35"/>
<line x1="222.0" y1="493.6" x2="230.0" y2="493.6" stroke="#1f3a5f" stroke-width="1.2" opacity="0.35"/>
<line x1="222.0" y1="442.0" x2="230.0" y2="442.0" stroke="#1f3a5f" stroke-width="1.2" opacity="0.35"/>
<circle cx="226.0" cy="467.8" r="3.2" fill="white" stroke="#1f3a5f" stroke-width="1.3" opacity="0.35"/>
<line x1="253.5" y1="451.2" x2="253.5" y2="403.4" stroke="#1f3a5f" stroke-width="1.4" opacity="1.00"/>
<line x1="249.5" y1="451.2" x2="257.5" y2="451.2" stroke="#1f3a5f" stroke-width="1.2" opacity="1.00"/>
<line x1="249.5" y1="403.4" x2="257.5" y2="403.4" stroke="#1f3a5f" stroke-width="1.2" opacity="1.00"/>
<circle cx="253.5" cy="427.3" r="3.2" fill="#1f3a5f"/>
<line x1="280.9" y1="440.9" x2="280.9" y2="380.0" stroke="#1f3a5f" stroke-width="1.4" opacity="1.00"/>
<line x1="276.9" y1="440.9" x2="284.9" y2="440.9" stroke="#1f3a5f" stroke-width="1.2" opacity="1.00"/>
<line x1="276.9" y1="380.0" x2="284.9" y2="380.0" stroke="#1f3a5f" stroke-width="1.2" opacity="1.00"/>
<circle cx="280.9" cy="410.4" r="3.2" fill="#1f3a5f"/>
<line x1="308.4" y1="502.3" x2="308.4" y2="453.6" stroke="#1f3a5f" stroke-width="1.4" opacity="0.35"/>
<line x1="304.4" y1="502.3" x2="312.4" y2="502.3" stroke="#1f3a5f" stroke-width="1.2" opacity="0.35"/>
<line x1="304.4" y1="453.6" x2="312.4" y2="453.6" stroke="#1f3a5f" stroke-width="1.2" opacity="0.35"/>
<circle cx="308.4" cy="477.9" r="3.2" fill="white" stroke="#1f3a5f" stroke-width="1.3" opacity="0.35"/>
<line x1="335.8" y1="475.2" x2="335.8" y2="422.4" stroke="#1f3a5f" stroke-width="1.4" opacity="1.00"/>
<line x1="331.8" y1="475.2" x2="339.8" y2="475.2" stroke="#1f3a5f" stroke-width="1.2" opacity="1.00"/>
<line x1="331.8" y1="422.4" x2="339.8" y2="422.4" stroke="#1f3a5f" stroke-width="1.2" opacity="1.00"/>
<circle cx="335.8" cy="448.8" r="3.2" fill="#1f3a5f"/>
<line x1="363.3" y1="540.0" x2="363.3" y2="492.7" stroke="#1f3a5f" stroke-width="1.4" opacity="1.00"/>
<line x1="359.3" y1="540.0" x2="367.3" y2="540.0" stroke="#1f3a5f" stroke-width="1.2" opacity="1.00"/>
<line x1="359.3" y1="492.7" x2="367.3" y2="492.7" stroke="#1f3a5f" stroke-width="1.2" opacity="1.00"/>
<circle cx="363.3" cy="516.4" r="3.2" fill="#1f3a5f"/>
<line x1="75" y1="540" x2="377" y2="540" stroke="#444"/>
<line x1="75" y1="380" x2="75" y2="540" stroke="#444"/>
<line x1="88.7" y1="540" x2="88.7" y2="543" stroke="#444"/>
<text x="88.7" y="555" text-anchor="middle" fill="#444">-5</text>
<line x1="116.2" y1="540" x2="116.2" y2="543" stroke="#444"/>
<text x="116.2" y="555" text-anchor="middle" fill="#444">-4</text>
<line x1="143.6" y1="540" x2="143.6" y2="543" stroke="#444"/>
<text x="143.6" y="555" text-anchor="middle" fill="#444">-3</text>
<line x1="171.1" y1="540" x2="171.1" y2="543" stroke="#444"/>
<text x="171.1" y="555" text-anchor="middle" fill="#444">-2</text>
<line x1="226.0" y1="540" x2="226.0" y2="543" stroke="#444"/>
<text x="226.0" y="555" text-anchor="middle" fill="#444">0</text>
<line x1="253.5" y1="540" x2="253.5" y2="543" stroke="#444"/>
<text x="253.5" y="555" text-anchor="middle" fill="#444">1</text>
<line x1="280.9" y1="540" x2="280.9" y2="543" stroke="#444"/>
<text x="280.9" y="555" text-anchor="middle" fill="#444">2</text>
<line x1="308.4" y1="540" x2="308.4" y2="543" stroke="#444"/>
<text x="308.4" y="555" text-anchor="middle" fill="#444">3</text>
<line x1="335.8" y1="540" x2="335.8" y2="543" stroke="#444"/>
<text x="335.8" y="555" text-anchor="middle" fill="#444">4</text>
<line x1="363.3" y1="540" x2="363.3" y2="543" stroke="#444"/>
<text x="363.3" y="555" text-anchor="middle" fill="#444">5</text>
<line x1="72" y1="540.0" x2="75" y2="540.0" stroke="#444"/>
<text x="69" y="543.0" text-anchor="end" fill="#444">-1.7</text>
<line x1="72" y1="500.0" x2="75" y2="500.0" stroke="#444"/>
<text x="69" y="503.0" text-anchor="end" fill="#444">-0.43</text>
<line x1="72" y1="460.0" x2="75" y2="460.0" stroke="#444"/>
<text x="69" y="463.0" text-anchor="end" fill="#444">0.84</text>
<line x1="72" y1="420.0" x2="75" y2="420.0" stroke="#444"/>
<text x="69" y="423.0" text-anchor="end" fill="#444">2.1</text>
<line x1="72" y1="380.0" x2="75" y2="380.0" stroke="#444"/>
<text x="69" y="383.0" text-anchor="end" fill="#444">3.4</text>
<text x="226.0" y="574" text-anchor="middle" fill="#444">Event time (years from adoption)</text>
<text x="27" y="460.0" text-anchor="middle" fill="#444" transform="rotate(-90 27 460.0)">ATT (per 100k)</text>
<rect x="425" y="330" width="380" height="260" fill="#fafaf7" stroke="#e2e2dc"/>
<text x="615.0" y="348" text-anchor="middle" font-weight="600">Firearm homicide rate (per 100k)</text>
<line x1="485" y1="394.5608672193233" x2="787" y2="394.5608672193233" stroke="#aaaaaa" stroke-width="0.7"/>
<line x1="622.3" y1="380" x2="622.3" y2="540" stroke="#b9461a" stroke-dasharray="3 3"/>
<line x1="498.7" y1="449.8" x2="498.7" y2="400.6" stroke="#1f3a5f" stroke-width="1.4" opacity="1.00"/>
<line x1="494.7" y1="449.8" x2="502.7" y2="449.8" stroke="#1f3a5f" stroke-width="1.2" opacity="1.00"/>
<line x1="494.7" y1="400.6" x2="502.7" y2="400.6" stroke="#1f3a5f" stroke-width="1.2" opacity="1.00"/>
<circle cx="498.7" cy="425.2" r="3.2" fill="#1f3a5f"/>
<line x1="526.2" y1="446.8" x2="526.2" y2="393.4" stroke="#1f3a5f" stroke-width="1.4" opacity="0.35"/>
<line x1="522.2" y1="446.8" x2="530.2" y2="446.8" stroke="#1f3a5f" stroke-width="1.2" opacity="0.35"/>
<line x1="522.2" y1="393.4" x2="530.2" y2="393.4" stroke="#1f3a5f" stroke-width="1.2" opacity="0.35"/>
<circle cx="526.2" cy="420.1" r="3.2" fill="white" stroke="#1f3a5f" stroke-width="1.3" opacity="0.35"/>
<line x1="553.6" y1="419.7" x2="553.6" y2="381.1" stroke="#1f3a5f" stroke-width="1.4" opacity="0.35"/>
<line x1="549.6" y1="419.7" x2="557.6" y2="419.7" stroke="#1f3a5f" stroke-width="1.2" opacity="0.35"/>
<line x1="549.6" y1="381.1" x2="557.6" y2="381.1" stroke="#1f3a5f" stroke-width="1.2" opacity="0.35"/>
<circle cx="553.6" cy="400.4" r="3.2" fill="white" stroke="#1f3a5f" stroke-width="1.3" opacity="0.35"/>
<line x1="581.1" y1="424.8" x2="581.1" y2="398.1" stroke="#1f3a5f" stroke-width="1.4" opacity="1.00"/>
<line x1="577.1" y1="424.8" x2="585.1" y2="424.8" stroke="#1f3a5f" stroke-width="1.2" opacity="1.00"/>
<line x1="577.1" y1="398.1" x2="585.1" y2="398.1" stroke="#1f3a5f" stroke-width="1.2" opacity="1.00"/>
<circle cx="581.1" cy="411.4" r="3.2" fill="#1f3a5f"/>
<line x1="636.0" y1="432.5" x2="636.0" y2="398.6" stroke="#1f3a5f" stroke-width="1.4" opacity="1.00"/>
<line x1="632.0" y1="432.5" x2="640.0" y2="432.5" stroke="#1f3a5f" stroke-width="1.2" opacity="1.00"/>
<line x1="632.0" y1="398.6" x2="640.0" y2="398.6" stroke="#1f3a5f" stroke-width="1.2" opacity="1.00"/>
<circle cx="636.0" cy="415.6" r="3.2" fill="#1f3a5f"/>
<line x1="663.5" y1="438.4" x2="663.5" y2="384.5" stroke="#1f3a5f" stroke-width="1.4" opacity="0.35"/>
<line x1="659.5" y1="438.4" x2="667.5" y2="438.4" stroke="#1f3a5f" stroke-width="1.2" opacity="0.35"/>
<line x1="659.5" y1="384.5" x2="667.5" y2="384.5" stroke="#1f3a5f" stroke-width="1.2" opacity="0.35"/>
<circle cx="663.5" cy="411.5" r="3.2" fill="white" stroke="#1f3a5f" stroke-width="1.3" opacity="0.35"/>
<line x1="690.9" y1="422.8" x2="690.9" y2="380.0" stroke="#1f3a5f" stroke-width="1.4" opacity="0.35"/>
<line x1="686.9" y1="422.8" x2="694.9" y2="422.8" stroke="#1f3a5f" stroke-width="1.2" opacity="0.35"/>
<line x1="686.9" y1="380.0" x2="694.9" y2="380.0" stroke="#1f3a5f" stroke-width="1.2" opacity="0.35"/>
<circle cx="690.9" cy="401.4" r="3.2" fill="white" stroke="#1f3a5f" stroke-width="1.3" opacity="0.35"/>
<line x1="718.4" y1="442.8" x2="718.4" y2="399.6" stroke="#1f3a5f" stroke-width="1.4" opacity="1.00"/>
<line x1="714.4" y1="442.8" x2="722.4" y2="442.8" stroke="#1f3a5f" stroke-width="1.2" opacity="1.00"/>
<line x1="714.4" y1="399.6" x2="722.4" y2="399.6" stroke="#1f3a5f" stroke-width="1.2" opacity="1.00"/>
<circle cx="718.4" cy="421.2" r="3.2" fill="#1f3a5f"/>
<line x1="745.8" y1="479.1" x2="745.8" y2="409.5" stroke="#1f3a5f" stroke-width="1.4" opacity="1.00"/>
<line x1="741.8" y1="479.1" x2="749.8" y2="479.1" stroke="#1f3a5f" stroke-width="1.2" opacity="1.00"/>
<line x1="741.8" y1="409.5" x2="749.8" y2="409.5" stroke="#1f3a5f" stroke-width="1.2" opacity="1.00"/>
<circle cx="745.8" cy="444.3" r="3.2" fill="#1f3a5f"/>
<line x1="773.3" y1="540.0" x2="773.3" y2="433.1" stroke="#1f3a5f" stroke-width="1.4" opacity="1.00"/>
<line x1="769.3" y1="540.0" x2="777.3" y2="540.0" stroke="#1f3a5f" stroke-width="1.2" opacity="1.00"/>
<line x1="769.3" y1="433.1" x2="777.3" y2="433.1" stroke="#1f3a5f" stroke-width="1.2" opacity="1.00"/>
<circle cx="773.3" cy="486.6" r="3.2" fill="#1f3a5f"/>
<line x1="485" y1="540" x2="787" y2="540" stroke="#444"/>
<line x1="485" y1="380" x2="485" y2="540" stroke="#444"/>
<line x1="498.7" y1="540" x2="498.7" y2="543" stroke="#444"/>
<text x="498.7" y="555" text-anchor="middle" fill="#444">-5</text>
<line x1="526.2" y1="540" x2="526.2" y2="543" stroke="#444"/>
<text x="526.2" y="555" text-anchor="middle" fill="#444">-4</text>
<line x1="553.6" y1="540" x2="553.6" y2="543" stroke="#444"/>
<text x="553.6" y="555" text-anchor="middle" fill="#444">-3</text>
<line x1="581.1" y1="540" x2="581.1" y2="543" stroke="#444"/>
<text x="581.1" y="555" text-anchor="middle" fill="#444">-2</text>
<line x1="636.0" y1="540" x2="636.0" y2="543" stroke="#444"/>
<text x="636.0" y="555" text-anchor="middle" fill="#444">0</text>
<line x1="663.5" y1="540" x2="663.5" y2="543" stroke="#444"/>
<text x="663.5" y="555" text-anchor="middle" fill="#444">1</text>
<line x1="690.9" y1="540" x2="690.9" y2="543" stroke="#444"/>
<text x="690.9" y="555" text-anchor="middle" fill="#444">2</text>
<line x1="718.4" y1="540" x2="718.4" y2="543" stroke="#444"/>
<text x="718.4" y="555" text-anchor="middle" fill="#444">3</text>
<line x1="745.8" y1="540" x2="745.8" y2="543" stroke="#444"/>
<text x="745.8" y="555" text-anchor="middle" fill="#444">4</text>
<line x1="773.3" y1="540" x2="773.3" y2="543" stroke="#444"/>
<text x="773.3" y="555" text-anchor="middle" fill="#444">5</text>
<line x1="482" y1="540.0" x2="485" y2="540.0" stroke="#444"/>
<text x="479" y="543.0" text-anchor="end" fill="#444">-2.9</text>
<line x1="482" y1="500.0" x2="485" y2="500.0" stroke="#444"/>
<text x="479" y="503.0" text-anchor="end" fill="#444">-2.1</text>
<line x1="482" y1="460.0" x2="485" y2="460.0" stroke="#444"/>
<text x="479" y="463.0" text-anchor="end" fill="#444">-1.3</text>
<line x1="482" y1="420.0" x2="485" y2="420.0" stroke="#444"/>
<text x="479" y="423.0" text-anchor="end" fill="#444">-0.5</text>
<line x1="482" y1="380.0" x2="485" y2="380.0" stroke="#444"/>
<text x="479" y="383.0" text-anchor="end" fill="#444">0.29</text>
<text x="636.0" y="574" text-anchor="middle" fill="#444">Event time (years from adoption)</text>
<text x="437" y="460.0" text-anchor="middle" fill="#444" transform="rotate(-90 437 460.0)">ATT (per 100k)</text>
<rect x="15" y="620" width="380" height="260" fill="#fafaf7" stroke="#e2e2dc"/>
<text x="205.0" y="638" text-anchor="middle" font-weight="600">Total homicide rate (per 100k)</text>
<line x1="75" y1="711.4097926316308" x2="377" y2="711.4097926316308" stroke="#aaaaaa" stroke-width="0.7"/>
<line x1="212.3" y1="670" x2="212.3" y2="830" stroke="#b9461a" stroke-dasharray="3 3"/>
<line x1="88.7" y1="752.3" x2="88.7" y2="678.5" stroke="#1f3a5f" stroke-width="1.4" opacity="0.35"/>
<line x1="84.7" y1="752.3" x2="92.7" y2="752.3" stroke="#1f3a5f" stroke-width="1.2" opacity="0.35"/>
<line x1="84.7" y1="678.5" x2="92.7" y2="678.5" stroke="#1f3a5f" stroke-width="1.2" opacity="0.35"/>
<circle cx="88.7" cy="715.4" r="3.2" fill="white" stroke="#1f3a5f" stroke-width="1.3" opacity="0.35"/>
<line x1="116.2" y1="750.5" x2="116.2" y2="681.2" stroke="#1f3a5f" stroke-width="1.4" opacity="0.35"/>
<line x1="112.2" y1="750.5" x2="120.2" y2="750.5" stroke="#1f3a5f" stroke-width="1.2" opacity="0.35"/>
<line x1="112.2" y1="681.2" x2="120.2" y2="681.2" stroke="#1f3a5f" stroke-width="1.2" opacity="0.35"/>
<circle cx="116.2" cy="715.8" r="3.2" fill="white" stroke="#1f3a5f" stroke-width="1.3" opacity="0.35"/>
<line x1="143.6" y1="715.4" x2="143.6" y2="670.0" stroke="#1f3a5f" stroke-width="1.4" opacity="0.35"/>
<line x1="139.6" y1="715.4" x2="147.6" y2="715.4" stroke="#1f3a5f" stroke-width="1.2" opacity="0.35"/>
<line x1="139.6" y1="670.0" x2="147.6" y2="670.0" stroke="#1f3a5f" stroke-width="1.2" opacity="0.35"/>
<circle cx="143.6" cy="692.7" r="3.2" fill="white" stroke="#1f3a5f" stroke-width="1.3" opacity="0.35"/>
<line x1="171.1" y1="740.7" x2="171.1" y2="708.7" stroke="#1f3a5f" stroke-width="1.4" opacity="0.35"/>
<line x1="167.1" y1="740.7" x2="175.1" y2="740.7" stroke="#1f3a5f" stroke-width="1.2" opacity="0.35"/>
<line x1="167.1" y1="708.7" x2="175.1" y2="708.7" stroke="#1f3a5f" stroke-width="1.2" opacity="0.35"/>
<circle cx="171.1" cy="724.7" r="3.2" fill="white" stroke="#1f3a5f" stroke-width="1.3" opacity="0.35"/>
<line x1="226.0" y1="742.8" x2="226.0" y2="710.2" stroke="#1f3a5f" stroke-width="1.4" opacity="0.35"/>
<line x1="222.0" y1="742.8" x2="230.0" y2="742.8" stroke="#1f3a5f" stroke-width="1.2" opacity="0.35"/>
<line x1="222.0" y1="710.2" x2="230.0" y2="710.2" stroke="#1f3a5f" stroke-width="1.2" opacity="0.35"/>
<circle cx="226.0" cy="726.5" r="3.2" fill="white" stroke="#1f3a5f" stroke-width="1.3" opacity="0.35"/>
<line x1="253.5" y1="757.2" x2="253.5" y2="714.6" stroke="#1f3a5f" stroke-width="1.4" opacity="1.00"/>
<line x1="249.5" y1="757.2" x2="257.5" y2="757.2" stroke="#1f3a5f" stroke-width="1.2" opacity="1.00"/>
<line x1="249.5" y1="714.6" x2="257.5" y2="714.6" stroke="#1f3a5f" stroke-width="1.2" opacity="1.00"/>
<circle cx="253.5" cy="735.9" r="3.2" fill="#1f3a5f"/>
<line x1="280.9" y1="798.4" x2="280.9" y2="742.7" stroke="#1f3a5f" stroke-width="1.4" opacity="1.00"/>
<line x1="276.9" y1="798.4" x2="284.9" y2="798.4" stroke="#1f3a5f" stroke-width="1.2" opacity="1.00"/>
<line x1="276.9" y1="742.7" x2="284.9" y2="742.7" stroke="#1f3a5f" stroke-width="1.2" opacity="1.00"/>
<circle cx="280.9" cy="770.5" r="3.2" fill="#1f3a5f"/>
<line x1="308.4" y1="808.2" x2="308.4" y2="720.4" stroke="#1f3a5f" stroke-width="1.4" opacity="1.00"/>
<line x1="304.4" y1="808.2" x2="312.4" y2="808.2" stroke="#1f3a5f" stroke-width="1.2" opacity="1.00"/>
<line x1="304.4" y1="720.4" x2="312.4" y2="720.4" stroke="#1f3a5f" stroke-width="1.2" opacity="1.00"/>
<circle cx="308.4" cy="764.3" r="3.2" fill="#1f3a5f"/>
<line x1="335.8" y1="830.0" x2="335.8" y2="776.1" stroke="#1f3a5f" stroke-width="1.4" opacity="1.00"/>
<line x1="331.8" y1="830.0" x2="339.8" y2="830.0" stroke="#1f3a5f" stroke-width="1.2" opacity="1.00"/>
<line x1="331.8" y1="776.1" x2="339.8" y2="776.1" stroke="#1f3a5f" stroke-width="1.2" opacity="1.00"/>
<circle cx="335.8" cy="803.0" r="3.2" fill="#1f3a5f"/>
<line x1="363.3" y1="818.0" x2="363.3" y2="743.9" stroke="#1f3a5f" stroke-width="1.4" opacity="1.00"/>
<line x1="359.3" y1="818.0" x2="367.3" y2="818.0" stroke="#1f3a5f" stroke-width="1.2" opacity="1.00"/>
<line x1="359.3" y1="743.9" x2="367.3" y2="743.9" stroke="#1f3a5f" stroke-width="1.2" opacity="1.00"/>
<circle cx="363.3" cy="781.0" r="3.2" fill="#1f3a5f"/>
<line x1="75" y1="830" x2="377" y2="830" stroke="#444"/>
<line x1="75" y1="670" x2="75" y2="830" stroke="#444"/>
<line x1="88.7" y1="830" x2="88.7" y2="833" stroke="#444"/>
<text x="88.7" y="845" text-anchor="middle" fill="#444">-5</text>
<line x1="116.2" y1="830" x2="116.2" y2="833" stroke="#444"/>
<text x="116.2" y="845" text-anchor="middle" fill="#444">-4</text>
<line x1="143.6" y1="830" x2="143.6" y2="833" stroke="#444"/>
<text x="143.6" y="845" text-anchor="middle" fill="#444">-3</text>
<line x1="171.1" y1="830" x2="171.1" y2="833" stroke="#444"/>
<text x="171.1" y="845" text-anchor="middle" fill="#444">-2</text>
<line x1="226.0" y1="830" x2="226.0" y2="833" stroke="#444"/>
<text x="226.0" y="845" text-anchor="middle" fill="#444">0</text>
<line x1="253.5" y1="830" x2="253.5" y2="833" stroke="#444"/>
<text x="253.5" y="845" text-anchor="middle" fill="#444">1</text>
<line x1="280.9" y1="830" x2="280.9" y2="833" stroke="#444"/>
<text x="280.9" y="845" text-anchor="middle" fill="#444">2</text>
<line x1="308.4" y1="830" x2="308.4" y2="833" stroke="#444"/>
<text x="308.4" y="845" text-anchor="middle" fill="#444">3</text>
<line x1="335.8" y1="830" x2="335.8" y2="833" stroke="#444"/>
<text x="335.8" y="845" text-anchor="middle" fill="#444">4</text>
<line x1="363.3" y1="830" x2="363.3" y2="833" stroke="#444"/>
<text x="363.3" y="845" text-anchor="middle" fill="#444">5</text>
<line x1="72" y1="830.0" x2="75" y2="830.0" stroke="#444"/>
<text x="69" y="833.0" text-anchor="end" fill="#444">-2.3</text>
<line x1="72" y1="790.0" x2="75" y2="790.0" stroke="#444"/>
<text x="69" y="793.0" text-anchor="end" fill="#444">-1.5</text>
<line x1="72" y1="750.0" x2="75" y2="750.0" stroke="#444"/>
<text x="69" y="753.0" text-anchor="end" fill="#444">-0.74</text>
<line x1="72" y1="710.0" x2="75" y2="710.0" stroke="#444"/>
<text x="69" y="713.0" text-anchor="end" fill="#444">0.027</text>
<line x1="72" y1="670.0" x2="75" y2="670.0" stroke="#444"/>
<text x="69" y="673.0" text-anchor="end" fill="#444">0.8</text>
<text x="226.0" y="864" text-anchor="middle" fill="#444">Event time (years from adoption)</text>
<text x="27" y="750.0" text-anchor="middle" fill="#444" transform="rotate(-90 27 750.0)">ATT (per 100k)</text>
<rect x="425" y="620" width="380" height="260" fill="#fafaf7" stroke="#e2e2dc"/>
<text x="615.0" y="638" text-anchor="middle" font-weight="600">Motor vehicle theft rate (per 100k) [placebo]</text>
<line x1="485" y1="746.5477735110817" x2="787" y2="746.5477735110817" stroke="#aaaaaa" stroke-width="0.7"/>
<line x1="622.3" y1="670" x2="622.3" y2="830" stroke="#b9461a" stroke-dasharray="3 3"/>
<line x1="498.7" y1="784.8" x2="498.7" y2="744.3" stroke="#1f3a5f" stroke-width="1.4" opacity="0.35"/>
<line x1="494.7" y1="784.8" x2="502.7" y2="784.8" stroke="#1f3a5f" stroke-width="1.2" opacity="0.35"/>
<line x1="494.7" y1="744.3" x2="502.7" y2="744.3" stroke="#1f3a5f" stroke-width="1.2" opacity="0.35"/>
<circle cx="498.7" cy="764.6" r="3.2" fill="white" stroke="#1f3a5f" stroke-width="1.3" opacity="0.35"/>
<line x1="526.2" y1="772.9" x2="526.2" y2="733.1" stroke="#1f3a5f" stroke-width="1.4" opacity="0.35"/>
<line x1="522.2" y1="772.9" x2="530.2" y2="772.9" stroke="#1f3a5f" stroke-width="1.2" opacity="0.35"/>
<line x1="522.2" y1="733.1" x2="530.2" y2="733.1" stroke="#1f3a5f" stroke-width="1.2" opacity="0.35"/>
<circle cx="526.2" cy="753.0" r="3.2" fill="white" stroke="#1f3a5f" stroke-width="1.3" opacity="0.35"/>
<line x1="553.6" y1="760.6" x2="553.6" y2="725.1" stroke="#1f3a5f" stroke-width="1.4" opacity="0.35"/>
<line x1="549.6" y1="760.6" x2="557.6" y2="760.6" stroke="#1f3a5f" stroke-width="1.2" opacity="0.35"/>
<line x1="549.6" y1="725.1" x2="557.6" y2="725.1" stroke="#1f3a5f" stroke-width="1.2" opacity="0.35"/>
<circle cx="553.6" cy="742.8" r="3.2" fill="white" stroke="#1f3a5f" stroke-width="1.3" opacity="0.35"/>
<line x1="581.1" y1="745.4" x2="581.1" y2="721.6" stroke="#1f3a5f" stroke-width="1.4" opacity="1.00"/>
<line x1="577.1" y1="745.4" x2="585.1" y2="745.4" stroke="#1f3a5f" stroke-width="1.2" opacity="1.00"/>
<line x1="577.1" y1="721.6" x2="585.1" y2="721.6" stroke="#1f3a5f" stroke-width="1.2" opacity="1.00"/>
<circle cx="581.1" cy="733.5" r="3.2" fill="#1f3a5f"/>
<line x1="636.0" y1="766.0" x2="636.0" y2="749.1" stroke="#1f3a5f" stroke-width="1.4" opacity="1.00"/>
<line x1="632.0" y1="766.0" x2="640.0" y2="766.0" stroke="#1f3a5f" stroke-width="1.2" opacity="1.00"/>
<line x1="632.0" y1="749.1" x2="640.0" y2="749.1" stroke="#1f3a5f" stroke-width="1.2" opacity="1.00"/>
<circle cx="636.0" cy="757.5" r="3.2" fill="#1f3a5f"/>
<line x1="663.5" y1="782.4" x2="663.5" y2="761.4" stroke="#1f3a5f" stroke-width="1.4" opacity="1.00"/>
<line x1="659.5" y1="782.4" x2="667.5" y2="782.4" stroke="#1f3a5f" stroke-width="1.2" opacity="1.00"/>
<line x1="659.5" y1="761.4" x2="667.5" y2="761.4" stroke="#1f3a5f" stroke-width="1.2" opacity="1.00"/>
<circle cx="663.5" cy="771.9" r="3.2" fill="#1f3a5f"/>
<line x1="690.9" y1="798.2" x2="690.9" y2="765.8" stroke="#1f3a5f" stroke-width="1.4" opacity="1.00"/>
<line x1="686.9" y1="798.2" x2="694.9" y2="798.2" stroke="#1f3a5f" stroke-width="1.2" opacity="1.00"/>
<line x1="686.9" y1="765.8" x2="694.9" y2="765.8" stroke="#1f3a5f" stroke-width="1.2" opacity="1.00"/>
<circle cx="690.9" cy="782.0" r="3.2" fill="#1f3a5f"/>
<line x1="718.4" y1="799.6" x2="718.4" y2="756.3" stroke="#1f3a5f" stroke-width="1.4" opacity="1.00"/>
<line x1="714.4" y1="799.6" x2="722.4" y2="799.6" stroke="#1f3a5f" stroke-width="1.2" opacity="1.00"/>
<line x1="714.4" y1="756.3" x2="722.4" y2="756.3" stroke="#1f3a5f" stroke-width="1.2" opacity="1.00"/>
<circle cx="718.4" cy="777.9" r="3.2" fill="#1f3a5f"/>
<line x1="745.8" y1="823.3" x2="745.8" y2="760.1" stroke="#1f3a5f" stroke-width="1.4" opacity="1.00"/>
<line x1="741.8" y1="823.3" x2="749.8" y2="823.3" stroke="#1f3a5f" stroke-width="1.2" opacity="1.00"/>
<line x1="741.8" y1="760.1" x2="749.8" y2="760.1" stroke="#1f3a5f" stroke-width="1.2" opacity="1.00"/>
<circle cx="745.8" cy="791.7" r="3.2" fill="#1f3a5f"/>
<line x1="773.3" y1="830.0" x2="773.3" y2="670.0" stroke="#1f3a5f" stroke-width="1.4" opacity="0.35"/>
<line x1="769.3" y1="830.0" x2="777.3" y2="830.0" stroke="#1f3a5f" stroke-width="1.2" opacity="0.35"/>
<line x1="769.3" y1="670.0" x2="777.3" y2="670.0" stroke="#1f3a5f" stroke-width="1.2" opacity="0.35"/>
<circle cx="773.3" cy="750.0" r="3.2" fill="white" stroke="#1f3a5f" stroke-width="1.3" opacity="0.35"/>
<line x1="485" y1="830" x2="787" y2="830" stroke="#444"/>
<line x1="485" y1="670" x2="485" y2="830" stroke="#444"/>
<line x1="498.7" y1="830" x2="498.7" y2="833" stroke="#444"/>
<text x="498.7" y="845" text-anchor="middle" fill="#444">-5</text>
<line x1="526.2" y1="830" x2="526.2" y2="833" stroke="#444"/>
<text x="526.2" y="845" text-anchor="middle" fill="#444">-4</text>
<line x1="553.6" y1="830" x2="553.6" y2="833" stroke="#444"/>
<text x="553.6" y="845" text-anchor="middle" fill="#444">-3</text>
<line x1="581.1" y1="830" x2="581.1" y2="833" stroke="#444"/>
<text x="581.1" y="845" text-anchor="middle" fill="#444">-2</text>
<line x1="636.0" y1="830" x2="636.0" y2="833" stroke="#444"/>
<text x="636.0" y="845" text-anchor="middle" fill="#444">0</text>
<line x1="663.5" y1="830" x2="663.5" y2="833" stroke="#444"/>
<text x="663.5" y="845" text-anchor="middle" fill="#444">1</text>
<line x1="690.9" y1="830" x2="690.9" y2="833" stroke="#444"/>
<text x="690.9" y="845" text-anchor="middle" fill="#444">2</text>
<line x1="718.4" y1="830" x2="718.4" y2="833" stroke="#444"/>
<text x="718.4" y="845" text-anchor="middle" fill="#444">3</text>
<line x1="745.8" y1="830" x2="745.8" y2="833" stroke="#444"/>
<text x="745.8" y="845" text-anchor="middle" fill="#444">4</text>
<line x1="773.3" y1="830" x2="773.3" y2="833" stroke="#444"/>
<text x="773.3" y="845" text-anchor="middle" fill="#444">5</text>
<line x1="482" y1="830.0" x2="485" y2="830.0" stroke="#444"/>
<text x="479" y="833.0" text-anchor="end" fill="#444">-91</text>
<line x1="482" y1="790.0" x2="485" y2="790.0" stroke="#444"/>
<text x="479" y="793.0" text-anchor="end" fill="#444">-48</text>
<line x1="482" y1="750.0" x2="485" y2="750.0" stroke="#444"/>
<text x="479" y="753.0" text-anchor="end" fill="#444">-3.8</text>
<line x1="482" y1="710.0" x2="485" y2="710.0" stroke="#444"/>
<text x="479" y="713.0" text-anchor="end" fill="#444">40</text>
<line x1="482" y1="670.0" x2="485" y2="670.0" stroke="#444"/>
<text x="479" y="673.0" text-anchor="end" fill="#444">84</text>
<text x="636.0" y="864" text-anchor="middle" fill="#444">Event time (years from adoption)</text>
<text x="437" y="750.0" text-anchor="middle" fill="#444" transform="rotate(-90 437 750.0)">ATT (per 100k)</text>
<text x="805" y="898" text-anchor="end" fill="#888" font-size="10">Whiskers: pointwise 95% CI from cluster bootstrap. Solid dot = significant at 5%; hollow dot = not significant. Vertical dashed line marks the year before adoption.</text>
</svg>