<svg xmlns="http://www.w3.org/2000/svg" viewBox="0 0 820 620" font-family="-apple-system, Segoe UI, Helvetica, Arial, sans-serif" font-size="11">
<text x="410.0" y="22" text-anchor="middle" font-size="14" font-weight="600">Callaway-Sant'Anna ATT by event time (RA) -- red flag</text>
<rect x="15" y="40" width="380" height="260" fill="#fafaf7" stroke="#e2e2dc"/>
<text x="205.0" y="58" text-anchor="middle" font-weight="600">Firearm suicide rate (per 100k)</text>
<line x1="75" y1="166.69124694107163" x2="377" y2="166.69124694107163" stroke="#aaaaaa" stroke-width="0.7"/>
<polygon points="88.7,164.0 116.2,110.5 143.6,173.5 171.1,181.4 226.0,161.0 253.5,90.0 280.9,138.8 308.4,134.0 335.8,142.3 363.3,122.7 363.3,201.5 335.8,199.6 308.4,192.2 280.9,200.6 253.5,140.4 226.0,210.0 171.1,250.0 143.6,209.8 116.2,164.9 88.7,199.7" fill="#1f3a5f" opacity="0.18"/>
<polyline points="88.7,181.8 116.2,137.7 143.6,191.7 171.1,215.7 226.0,185.5 253.5,115.2 280.9,169.7 308.4,163.1 335.8,170.9 363.3,162.1" fill="none" stroke="#1f3a5f" stroke-width="1.6"/>
<circle cx="88.7" cy="181.8" r="2.6" fill="#1f3a5f"/>
<circle cx="116.2" cy="137.7" r="2.6" fill="#1f3a5f"/>
<circle cx="143.6" cy="191.7" r="2.6" fill="#1f3a5f"/>
<circle cx="171.1" cy="215.7" r="2.6" fill="#1f3a5f"/>
<circle cx="226.0" cy="185.5" r="2.6" fill="#1f3a5f"/>
<circle cx="253.5" cy="115.2" r="2.6" fill="#1f3a5f"/>
<circle cx="280.9" cy="169.7" r="2.6" fill="#1f3a5f"/>
<circle cx="308.4" cy="163.1" r="2.6" fill="#1f3a5f"/>
<circle cx="335.8" cy="170.9" r="2.6" fill="#1f3a5f"/>
<circle cx="363.3" cy="162.1" r="2.6" fill="#1f3a5f"/>
<line x1="212.3" y1="90" x2="212.3" y2="250" stroke="#b9461a" stroke-dasharray="3 3"/>
<line x1="75" y1="250" x2="377" y2="250" stroke="#444"/>
<line x1="75" y1="90" x2="75" y2="250" stroke="#444"/>
<line x1="88.7" y1="250" x2="88.7" y2="253" stroke="#444"/>
<text x="88.7" y="265" text-anchor="middle" fill="#444">-5</text>
<line x1="116.2" y1="250" x2="116.2" y2="253" stroke="#444"/>
<text x="116.2" y="265" text-anchor="middle" fill="#444">-4</text>
<line x1="143.6" y1="250" x2="143.6" y2="253" stroke="#444"/>
<text x="143.6" y="265" text-anchor="middle" fill="#444">-3</text>
<line x1="171.1" y1="250" x2="171.1" y2="253" stroke="#444"/>
<text x="171.1" y="265" text-anchor="middle" fill="#444">-2</text>
<line x1="226.0" y1="250" x2="226.0" y2="253" stroke="#444"/>
<text x="226.0" y="265" text-anchor="middle" fill="#444">0</text>
<line x1="253.5" y1="250" x2="253.5" y2="253" stroke="#444"/>
<text x="253.5" y="265" text-anchor="middle" fill="#444">1</text>
<line x1="280.9" y1="250" x2="280.9" y2="253" stroke="#444"/>
<text x="280.9" y="265" text-anchor="middle" fill="#444">2</text>
<line x1="308.4" y1="250" x2="308.4" y2="253" stroke="#444"/>
<text x="308.4" y="265" text-anchor="middle" fill="#444">3</text>
<line x1="335.8" y1="250" x2="335.8" y2="253" stroke="#444"/>
<text x="335.8" y="265" text-anchor="middle" fill="#444">4</text>
<line x1="363.3" y1="250" x2="363.3" y2="253" stroke="#444"/>
<text x="363.3" y="265" text-anchor="middle" fill="#444">5</text>
<line x1="72" y1="250.0" x2="75" y2="250.0" stroke="#444"/>
<text x="69" y="253.0" text-anchor="end" fill="#444">-3.2</text>
<line x1="72" y1="210.0" x2="75" y2="210.0" stroke="#444"/>
<text x="69" y="213.0" text-anchor="end" fill="#444">-1.6</text>
<line x1="72" y1="170.0" x2="75" y2="170.0" stroke="#444"/>
<text x="69" y="173.0" text-anchor="end" fill="#444">-0.13</text>
<line x1="72" y1="130.0" x2="75" y2="130.0" stroke="#444"/>
<text x="69" y="133.0" text-anchor="end" fill="#444">1.4</text>
<line x1="72" y1="90.0" x2="75" y2="90.0" stroke="#444"/>
<text x="69" y="93.0" text-anchor="end" fill="#444">2.9</text>
<text x="226.0" y="284" text-anchor="middle" fill="#444">Event time (years from adoption)</text>
<text x="27" y="170.0" text-anchor="middle" fill="#444" transform="rotate(-90 27 170.0)">ATT (per 100k)</text>
<rect x="425" y="40" width="380" height="260" fill="#fafaf7" stroke="#e2e2dc"/>
<text x="615.0" y="58" text-anchor="middle" font-weight="600">Non-firearm suicide rate (per 100k) [substitution test]</text>
<line x1="485" y1="173.6414810908093" x2="787" y2="173.6414810908093" stroke="#aaaaaa" stroke-width="0.7"/>
<polygon points="498.7,90.7 526.2,117.9 553.6,117.2 581.1,90.0 636.0,132.0 663.5,158.0 690.9,138.4 718.4,179.0 745.8,125.1 773.3,166.3 773.3,215.5 745.8,184.0 718.4,250.0 690.9,207.8 663.5,195.2 636.0,178.3 581.1,146.4 553.6,171.6 526.2,167.2 498.7,154.4" fill="#1f3a5f" opacity="0.18"/>
<polyline points="498.7,122.5 526.2,142.5 553.6,144.4 581.1,118.2 636.0,155.1 663.5,176.6 690.9,173.1 718.4,214.5 745.8,154.6 773.3,190.9" fill="none" stroke="#1f3a5f" stroke-width="1.6"/>
<circle cx="498.7" cy="122.5" r="2.6" fill="#1f3a5f"/>
<circle cx="526.2" cy="142.5" r="2.6" fill="#1f3a5f"/>
<circle cx="553.6" cy="144.4" r="2.6" fill="#1f3a5f"/>
<circle cx="581.1" cy="118.2" r="2.6" fill="#1f3a5f"/>
<circle cx="636.0" cy="155.1" r="2.6" fill="#1f3a5f"/>
<circle cx="663.5" cy="176.6" r="2.6" fill="#1f3a5f"/>
<circle cx="690.9" cy="173.1" r="2.6" fill="#1f3a5f"/>
<circle cx="718.4" cy="214.5" r="2.6" fill="#1f3a5f"/>
<circle cx="745.8" cy="154.6" r="2.6" fill="#1f3a5f"/>
<circle cx="773.3" cy="190.9" r="2.6" fill="#1f3a5f"/>
<line x1="622.3" y1="90" x2="622.3" y2="250" stroke="#b9461a" stroke-dasharray="3 3"/>
<line x1="485" y1="250" x2="787" y2="250" stroke="#444"/>
<line x1="485" y1="90" x2="485" y2="250" stroke="#444"/>
<line x1="498.7" y1="250" x2="498.7" y2="253" stroke="#444"/>
<text x="498.7" y="265" text-anchor="middle" fill="#444">-5</text>
<line x1="526.2" y1="250" x2="526.2" y2="253" stroke="#444"/>
<text x="526.2" y="265" text-anchor="middle" fill="#444">-4</text>
<line x1="553.6" y1="250" x2="553.6" y2="253" stroke="#444"/>
<text x="553.6" y="265" text-anchor="middle" fill="#444">-3</text>
<line x1="581.1" y1="250" x2="581.1" y2="253" stroke="#444"/>
<text x="581.1" y="265" text-anchor="middle" fill="#444">-2</text>
<line x1="636.0" y1="250" x2="636.0" y2="253" stroke="#444"/>
<text x="636.0" y="265" text-anchor="middle" fill="#444">0</text>
<line x1="663.5" y1="250" x2="663.5" y2="253" stroke="#444"/>
<text x="663.5" y="265" text-anchor="middle" fill="#444">1</text>
<line x1="690.9" y1="250" x2="690.9" y2="253" stroke="#444"/>
<text x="690.9" y="265" text-anchor="middle" fill="#444">2</text>
<line x1="718.4" y1="250" x2="718.4" y2="253" stroke="#444"/>
<text x="718.4" y="265" text-anchor="middle" fill="#444">3</text>
<line x1="745.8" y1="250" x2="745.8" y2="253" stroke="#444"/>
<text x="745.8" y="265" text-anchor="middle" fill="#444">4</text>
<line x1="773.3" y1="250" x2="773.3" y2="253" stroke="#444"/>
<text x="773.3" y="265" text-anchor="middle" fill="#444">5</text>
<line x1="482" y1="250.0" x2="485" y2="250.0" stroke="#444"/>
<text x="479" y="253.0" text-anchor="end" fill="#444">-2.7</text>
<line x1="482" y1="210.0" x2="485" y2="210.0" stroke="#444"/>
<text x="479" y="213.0" text-anchor="end" fill="#444">-1.3</text>
<line x1="482" y1="170.0" x2="485" y2="170.0" stroke="#444"/>
<text x="479" y="173.0" text-anchor="end" fill="#444">0.13</text>
<line x1="482" y1="130.0" x2="485" y2="130.0" stroke="#444"/>
<text x="479" y="133.0" text-anchor="end" fill="#444">1.5</text>
<line x1="482" y1="90.0" x2="485" y2="90.0" stroke="#444"/>
<text x="479" y="93.0" text-anchor="end" fill="#444">2.9</text>
<text x="636.0" y="284" text-anchor="middle" fill="#444">Event time (years from adoption)</text>
<text x="437" y="170.0" text-anchor="middle" fill="#444" transform="rotate(-90 437 170.0)">ATT (per 100k)</text>
<rect x="15" y="330" width="380" height="260" fill="#fafaf7" stroke="#e2e2dc"/>
<text x="205.0" y="348" text-anchor="middle" font-weight="600">Total suicide rate (per 100k) [net effect]</text>
<line x1="75" y1="471.7748230052776" x2="377" y2="471.7748230052776" stroke="#aaaaaa" stroke-width="0.7"/>
<polygon points="88.7,404.7 116.2,380.0 143.6,439.5 171.1,422.2 226.0,438.8 253.5,400.1 280.9,440.4 308.4,467.6 335.8,424.8 363.3,444.2 363.3,520.6 335.8,493.7 308.4,540.0 280.9,507.9 253.5,451.4 226.0,508.1 171.1,517.8 143.6,500.5 116.2,454.9 88.7,478.9" fill="#1f3a5f" opacity="0.18"/>
<polyline points="88.7,441.8 116.2,417.5 143.6,470.0 171.1,470.0 226.0,473.5 253.5,425.7 280.9,474.1 308.4,503.8 335.8,459.3 363.3,482.4" fill="none" stroke="#1f3a5f" stroke-width="1.6"/>
<circle cx="88.7" cy="441.8" r="2.6" fill="#1f3a5f"/>
<circle cx="116.2" cy="417.5" r="2.6" fill="#1f3a5f"/>
<circle cx="143.6" cy="470.0" r="2.6" fill="#1f3a5f"/>
<circle cx="171.1" cy="470.0" r="2.6" fill="#1f3a5f"/>
<circle cx="226.0" cy="473.5" r="2.6" fill="#1f3a5f"/>
<circle cx="253.5" cy="425.7" r="2.6" fill="#1f3a5f"/>
<circle cx="280.9" cy="474.1" r="2.6" fill="#1f3a5f"/>
<circle cx="308.4" cy="503.8" r="2.6" fill="#1f3a5f"/>
<circle cx="335.8" cy="459.3" r="2.6" fill="#1f3a5f"/>
<circle cx="363.3" cy="482.4" r="2.6" fill="#1f3a5f"/>
<line x1="212.3" y1="380" x2="212.3" y2="540" stroke="#b9461a" stroke-dasharray="3 3"/>
<line x1="75" y1="540" x2="377" y2="540" stroke="#444"/>
<line x1="75" y1="380" x2="75" y2="540" stroke="#444"/>
<line x1="88.7" y1="540" x2="88.7" y2="543" stroke="#444"/>
<text x="88.7" y="555" text-anchor="middle" fill="#444">-5</text>
<line x1="116.2" y1="540" x2="116.2" y2="543" stroke="#444"/>
<text x="116.2" y="555" text-anchor="middle" fill="#444">-4</text>
<line x1="143.6" y1="540" x2="143.6" y2="543" stroke="#444"/>
<text x="143.6" y="555" text-anchor="middle" fill="#444">-3</text>
<line x1="171.1" y1="540" x2="171.1" y2="543" stroke="#444"/>
<text x="171.1" y="555" text-anchor="middle" fill="#444">-2</text>
<line x1="226.0" y1="540" x2="226.0" y2="543" stroke="#444"/>
<text x="226.0" y="555" text-anchor="middle" fill="#444">0</text>
<line x1="253.5" y1="540" x2="253.5" y2="543" stroke="#444"/>
<text x="253.5" y="555" text-anchor="middle" fill="#444">1</text>
<line x1="280.9" y1="540" x2="280.9" y2="543" stroke="#444"/>
<text x="280.9" y="555" text-anchor="middle" fill="#444">2</text>
<line x1="308.4" y1="540" x2="308.4" y2="543" stroke="#444"/>
<text x="308.4" y="555" text-anchor="middle" fill="#444">3</text>
<line x1="335.8" y1="540" x2="335.8" y2="543" stroke="#444"/>
<text x="335.8" y="555" text-anchor="middle" fill="#444">4</text>
<line x1="363.3" y1="540" x2="363.3" y2="543" stroke="#444"/>
<text x="363.3" y="555" text-anchor="middle" fill="#444">5</text>
<line x1="72" y1="540.0" x2="75" y2="540.0" stroke="#444"/>
<text x="69" y="543.0" text-anchor="end" fill="#444">-2.7</text>
<line x1="72" y1="500.0" x2="75" y2="500.0" stroke="#444"/>
<text x="69" y="503.0" text-anchor="end" fill="#444">-1.1</text>
<line x1="72" y1="460.0" x2="75" y2="460.0" stroke="#444"/>
<text x="69" y="463.0" text-anchor="end" fill="#444">0.47</text>
<line x1="72" y1="420.0" x2="75" y2="420.0" stroke="#444"/>
<text x="69" y="423.0" text-anchor="end" fill="#444">2.1</text>
<line x1="72" y1="380.0" x2="75" y2="380.0" stroke="#444"/>
<text x="69" y="383.0" text-anchor="end" fill="#444">3.7</text>
<text x="226.0" y="574" text-anchor="middle" fill="#444">Event time (years from adoption)</text>
<text x="27" y="460.0" text-anchor="middle" fill="#444" transform="rotate(-90 27 460.0)">ATT (per 100k)</text>
<rect x="425" y="330" width="380" height="260" fill="#fafaf7" stroke="#e2e2dc"/>
<text x="615.0" y="348" text-anchor="middle" font-weight="600">Firearm homicide rate (per 100k)</text>
<line x1="485" y1="394.53955754771937" x2="787" y2="394.53955754771937" stroke="#aaaaaa" stroke-width="0.7"/>
<polygon points="498.7,388.3 526.2,380.5 553.6,380.0 581.1,391.2 636.0,389.3 663.5,397.4 690.9,388.9 718.4,413.5 745.8,413.1 773.3,432.1 773.3,540.0 745.8,483.3 718.4,474.5 690.9,441.8 663.5,449.6 636.0,425.1 581.1,423.5 553.6,420.4 526.2,429.5 498.7,441.8" fill="#1f3a5f" opacity="0.18"/>
<polyline points="498.7,415.1 526.2,405.0 553.6,400.2 581.1,407.4 636.0,407.2 663.5,423.5 690.9,415.3 718.4,444.0 745.8,448.2 773.3,486.0" fill="none" stroke="#1f3a5f" stroke-width="1.6"/>
<circle cx="498.7" cy="415.1" r="2.6" fill="#1f3a5f"/>
<circle cx="526.2" cy="405.0" r="2.6" fill="#1f3a5f"/>
<circle cx="553.6" cy="400.2" r="2.6" fill="#1f3a5f"/>
<circle cx="581.1" cy="407.4" r="2.6" fill="#1f3a5f"/>
<circle cx="636.0" cy="407.2" r="2.6" fill="#1f3a5f"/>
<circle cx="663.5" cy="423.5" r="2.6" fill="#1f3a5f"/>
<circle cx="690.9" cy="415.3" r="2.6" fill="#1f3a5f"/>
<circle cx="718.4" cy="444.0" r="2.6" fill="#1f3a5f"/>
<circle cx="745.8" cy="448.2" r="2.6" fill="#1f3a5f"/>
<circle cx="773.3" cy="486.0" r="2.6" fill="#1f3a5f"/>
<line x1="622.3" y1="380" x2="622.3" y2="540" stroke="#b9461a" stroke-dasharray="3 3"/>
<line x1="485" y1="540" x2="787" y2="540" stroke="#444"/>
<line x1="485" y1="380" x2="485" y2="540" stroke="#444"/>
<line x1="498.7" y1="540" x2="498.7" y2="543" stroke="#444"/>
<text x="498.7" y="555" text-anchor="middle" fill="#444">-5</text>
<line x1="526.2" y1="540" x2="526.2" y2="543" stroke="#444"/>
<text x="526.2" y="555" text-anchor="middle" fill="#444">-4</text>
<line x1="553.6" y1="540" x2="553.6" y2="543" stroke="#444"/>
<text x="553.6" y="555" text-anchor="middle" fill="#444">-3</text>
<line x1="581.1" y1="540" x2="581.1" y2="543" stroke="#444"/>
<text x="581.1" y="555" text-anchor="middle" fill="#444">-2</text>
<line x1="636.0" y1="540" x2="636.0" y2="543" stroke="#444"/>
<text x="636.0" y="555" text-anchor="middle" fill="#444">0</text>
<line x1="663.5" y1="540" x2="663.5" y2="543" stroke="#444"/>
<text x="663.5" y="555" text-anchor="middle" fill="#444">1</text>
<line x1="690.9" y1="540" x2="690.9" y2="543" stroke="#444"/>
<text x="690.9" y="555" text-anchor="middle" fill="#444">2</text>
<line x1="718.4" y1="540" x2="718.4" y2="543" stroke="#444"/>
<text x="718.4" y="555" text-anchor="middle" fill="#444">3</text>
<line x1="745.8" y1="540" x2="745.8" y2="543" stroke="#444"/>
<text x="745.8" y="555" text-anchor="middle" fill="#444">4</text>
<line x1="773.3" y1="540" x2="773.3" y2="543" stroke="#444"/>
<text x="773.3" y="555" text-anchor="middle" fill="#444">5</text>
<line x1="482" y1="540.0" x2="485" y2="540.0" stroke="#444"/>
<text x="479" y="543.0" text-anchor="end" fill="#444">-3.5</text>
<line x1="482" y1="500.0" x2="485" y2="500.0" stroke="#444"/>
<text x="479" y="503.0" text-anchor="end" fill="#444">-2.5</text>
<line x1="482" y1="460.0" x2="485" y2="460.0" stroke="#444"/>
<text x="479" y="463.0" text-anchor="end" fill="#444">-1.6</text>
<line x1="482" y1="420.0" x2="485" y2="420.0" stroke="#444"/>
<text x="479" y="423.0" text-anchor="end" fill="#444">-0.61</text>
<line x1="482" y1="380.0" x2="485" y2="380.0" stroke="#444"/>
<text x="479" y="383.0" text-anchor="end" fill="#444">0.35</text>
<text x="636.0" y="574" text-anchor="middle" fill="#444">Event time (years from adoption)</text>
<text x="437" y="460.0" text-anchor="middle" fill="#444" transform="rotate(-90 437 460.0)">ATT (per 100k)</text>
<rect x="15" y="620" width="380" height="260" fill="#fafaf7" stroke="#e2e2dc"/>
<text x="205.0" y="638" text-anchor="middle" font-weight="600">Total homicide rate (per 100k)</text>
<line x1="75" y1="716.764256240078" x2="377" y2="716.764256240078" stroke="#aaaaaa" stroke-width="0.7"/>
<polygon points="88.7,692.3 116.2,678.0 143.6,670.0 171.1,705.8 226.0,713.4 253.5,706.1 280.9,736.4 308.4,742.3 335.8,775.4 363.3,741.2 363.3,817.7 335.8,830.0 308.4,820.4 280.9,795.3 253.5,757.9 226.0,750.5 171.1,739.2 143.6,713.8 116.2,736.0 88.7,761.3" fill="#1f3a5f" opacity="0.18"/>
<polyline points="88.7,726.8 116.2,707.0 143.6,691.9 171.1,722.5 226.0,731.9 253.5,732.0 280.9,765.8 308.4,781.3 335.8,802.7 363.3,779.5" fill="none" stroke="#1f3a5f" stroke-width="1.6"/>
<circle cx="88.7" cy="726.8" r="2.6" fill="#1f3a5f"/>
<circle cx="116.2" cy="707.0" r="2.6" fill="#1f3a5f"/>
<circle cx="143.6" cy="691.9" r="2.6" fill="#1f3a5f"/>
<circle cx="171.1" cy="722.5" r="2.6" fill="#1f3a5f"/>
<circle cx="226.0" cy="731.9" r="2.6" fill="#1f3a5f"/>
<circle cx="253.5" cy="732.0" r="2.6" fill="#1f3a5f"/>
<circle cx="280.9" cy="765.8" r="2.6" fill="#1f3a5f"/>
<circle cx="308.4" cy="781.3" r="2.6" fill="#1f3a5f"/>
<circle cx="335.8" cy="802.7" r="2.6" fill="#1f3a5f"/>
<circle cx="363.3" cy="779.5" r="2.6" fill="#1f3a5f"/>
<line x1="212.3" y1="670" x2="212.3" y2="830" stroke="#b9461a" stroke-dasharray="3 3"/>
<line x1="75" y1="830" x2="377" y2="830" stroke="#444"/>
<line x1="75" y1="670" x2="75" y2="830" stroke="#444"/>
<line x1="88.7" y1="830" x2="88.7" y2="833" stroke="#444"/>
<text x="88.7" y="845" text-anchor="middle" fill="#444">-5</text>
<line x1="116.2" y1="830" x2="116.2" y2="833" stroke="#444"/>
<text x="116.2" y="845" text-anchor="middle" fill="#444">-4</text>
<line x1="143.6" y1="830" x2="143.6" y2="833" stroke="#444"/>
<text x="143.6" y="845" text-anchor="middle" fill="#444">-3</text>
<line x1="171.1" y1="830" x2="171.1" y2="833" stroke="#444"/>
<text x="171.1" y="845" text-anchor="middle" fill="#444">-2</text>
<line x1="226.0" y1="830" x2="226.0" y2="833" stroke="#444"/>
<text x="226.0" y="845" text-anchor="middle" fill="#444">0</text>
<line x1="253.5" y1="830" x2="253.5" y2="833" stroke="#444"/>
<text x="253.5" y="845" text-anchor="middle" fill="#444">1</text>
<line x1="280.9" y1="830" x2="280.9" y2="833" stroke="#444"/>
<text x="280.9" y="845" text-anchor="middle" fill="#444">2</text>
<line x1="308.4" y1="830" x2="308.4" y2="833" stroke="#444"/>
<text x="308.4" y="845" text-anchor="middle" fill="#444">3</text>
<line x1="335.8" y1="830" x2="335.8" y2="833" stroke="#444"/>
<text x="335.8" y="845" text-anchor="middle" fill="#444">4</text>
<line x1="363.3" y1="830" x2="363.3" y2="833" stroke="#444"/>
<text x="363.3" y="845" text-anchor="middle" fill="#444">5</text>
<line x1="72" y1="830.0" x2="75" y2="830.0" stroke="#444"/>
<text x="69" y="833.0" text-anchor="end" fill="#444">-2.6</text>
<line x1="72" y1="790.0" x2="75" y2="790.0" stroke="#444"/>
<text x="69" y="793.0" text-anchor="end" fill="#444">-1.7</text>
<line x1="72" y1="750.0" x2="75" y2="750.0" stroke="#444"/>
<text x="69" y="753.0" text-anchor="end" fill="#444">-0.77</text>
<line x1="72" y1="710.0" x2="75" y2="710.0" stroke="#444"/>
<text x="69" y="713.0" text-anchor="end" fill="#444">0.16</text>
<line x1="72" y1="670.0" x2="75" y2="670.0" stroke="#444"/>
<text x="69" y="673.0" text-anchor="end" fill="#444">1.1</text>
<text x="226.0" y="864" text-anchor="middle" fill="#444">Event time (years from adoption)</text>
<text x="27" y="750.0" text-anchor="middle" fill="#444" transform="rotate(-90 27 750.0)">ATT (per 100k)</text>
<rect x="425" y="620" width="380" height="260" fill="#fafaf7" stroke="#e2e2dc"/>
<text x="615.0" y="638" text-anchor="middle" font-weight="600">Motor vehicle theft rate (per 100k) [placebo]</text>
<line x1="485" y1="722.999900591169" x2="787" y2="722.999900591169" stroke="#aaaaaa" stroke-width="0.7"/>
<polygon points="498.7,704.1 526.2,688.5 553.6,686.7 581.1,696.8 636.0,729.9 663.5,743.5 690.9,744.6 718.4,702.9 745.8,742.7 773.3,670.0 773.3,830.0 745.8,808.6 718.4,754.0 690.9,783.0 663.5,768.8 636.0,748.2 581.1,721.9 553.6,728.0 526.2,730.8 498.7,744.0" fill="#1f3a5f" opacity="0.18"/>
<polyline points="498.7,724.0 526.2,709.6 553.6,707.3 581.1,709.3 636.0,739.1 663.5,756.1 690.9,763.8 718.4,728.4 745.8,775.6 773.3,750.0" fill="none" stroke="#1f3a5f" stroke-width="1.6"/>
<circle cx="498.7" cy="724.0" r="2.6" fill="#1f3a5f"/>
<circle cx="526.2" cy="709.6" r="2.6" fill="#1f3a5f"/>
<circle cx="553.6" cy="707.3" r="2.6" fill="#1f3a5f"/>
<circle cx="581.1" cy="709.3" r="2.6" fill="#1f3a5f"/>
<circle cx="636.0" cy="739.1" r="2.6" fill="#1f3a5f"/>
<circle cx="663.5" cy="756.1" r="2.6" fill="#1f3a5f"/>
<circle cx="690.9" cy="763.8" r="2.6" fill="#1f3a5f"/>
<circle cx="718.4" cy="728.4" r="2.6" fill="#1f3a5f"/>
<circle cx="745.8" cy="775.6" r="2.6" fill="#1f3a5f"/>
<circle cx="773.3" cy="750.0" r="2.6" fill="#1f3a5f"/>
<line x1="622.3" y1="670" x2="622.3" y2="830" stroke="#b9461a" stroke-dasharray="3 3"/>
<line x1="485" y1="830" x2="787" y2="830" stroke="#444"/>
<line x1="485" y1="670" x2="485" y2="830" stroke="#444"/>
<line x1="498.7" y1="830" x2="498.7" y2="833" stroke="#444"/>
<text x="498.7" y="845" text-anchor="middle" fill="#444">-5</text>
<line x1="526.2" y1="830" x2="526.2" y2="833" stroke="#444"/>
<text x="526.2" y="845" text-anchor="middle" fill="#444">-4</text>
<line x1="553.6" y1="830" x2="553.6" y2="833" stroke="#444"/>
<text x="553.6" y="845" text-anchor="middle" fill="#444">-3</text>
<line x1="581.1" y1="830" x2="581.1" y2="833" stroke="#444"/>
<text x="581.1" y="845" text-anchor="middle" fill="#444">-2</text>
<line x1="636.0" y1="830" x2="636.0" y2="833" stroke="#444"/>
<text x="636.0" y="845" text-anchor="middle" fill="#444">0</text>
<line x1="663.5" y1="830" x2="663.5" y2="833" stroke="#444"/>
<text x="663.5" y="845" text-anchor="middle" fill="#444">1</text>
<line x1="690.9" y1="830" x2="690.9" y2="833" stroke="#444"/>
<text x="690.9" y="845" text-anchor="middle" fill="#444">2</text>
<line x1="718.4" y1="830" x2="718.4" y2="833" stroke="#444"/>
<text x="718.4" y="845" text-anchor="middle" fill="#444">3</text>
<line x1="745.8" y1="830" x2="745.8" y2="833" stroke="#444"/>
<text x="745.8" y="845" text-anchor="middle" fill="#444">4</text>
<line x1="773.3" y1="830" x2="773.3" y2="833" stroke="#444"/>
<text x="773.3" y="845" text-anchor="middle" fill="#444">5</text>
<line x1="482" y1="830.0" x2="485" y2="830.0" stroke="#444"/>
<text x="479" y="833.0" text-anchor="end" fill="#444">-1.2e+02</text>
<line x1="482" y1="790.0" x2="485" y2="790.0" stroke="#444"/>
<text x="479" y="793.0" text-anchor="end" fill="#444">-75</text>
<line x1="482" y1="750.0" x2="485" y2="750.0" stroke="#444"/>
<text x="479" y="753.0" text-anchor="end" fill="#444">-30</text>
<line x1="482" y1="710.0" x2="485" y2="710.0" stroke="#444"/>
<text x="479" y="713.0" text-anchor="end" fill="#444">15</text>
<line x1="482" y1="670.0" x2="485" y2="670.0" stroke="#444"/>
<text x="479" y="673.0" text-anchor="end" fill="#444">60</text>
<text x="636.0" y="864" text-anchor="middle" fill="#444">Event time (years from adoption)</text>
<text x="437" y="750.0" text-anchor="middle" fill="#444" transform="rotate(-90 437 750.0)">ATT (per 100k)</text>
<text x="805" y="608" text-anchor="end" fill="#888" font-size="10">Shaded band: pointwise 95% CI from cluster bootstrap. Vertical dashed line marks the year before adoption.</text>
</svg>