<svg xmlns="http://www.w3.org/2000/svg" viewBox="0 0 820 620" font-family="-apple-system, Segoe UI, Helvetica, Arial, sans-serif" font-size="11">
<text x="410.0" y="22" text-anchor="middle" font-size="14" font-weight="600">Callaway-Sant'Anna ATT by event time (RA) -- red-flag (gvro)</text>
<rect x="15" y="40" width="380" height="260" fill="#fafaf7" stroke="#e2e2dc"/>
<text x="205.0" y="58" text-anchor="middle" font-weight="600">Firearm suicide rate (per 100k)</text>
<line x1="75" y1="170.80334192234545" x2="377" y2="170.80334192234545" stroke="#aaaaaa" stroke-width="0.7"/>
<polygon points="88.7,90.0 116.2,95.9 143.6,148.7 171.1,115.7 226.0,181.0 253.5,171.8 280.9,169.5 308.4,175.2 335.8,166.4 363.3,157.1 363.3,250.0 335.8,232.2 308.4,238.7 280.9,238.9 253.5,225.7 226.0,221.5 171.1,168.9 143.6,187.7 116.2,146.1 88.7,145.6" fill="#1f3a5f" opacity="0.18"/>
<polyline points="88.7,117.8 116.2,121.0 143.6,168.2 171.1,142.3 226.0,201.2 253.5,198.7 280.9,204.2 308.4,206.9 335.8,199.3 363.3,203.6" fill="none" stroke="#1f3a5f" stroke-width="1.6"/>
<circle cx="88.7" cy="117.8" r="2.6" fill="#1f3a5f"/>
<circle cx="116.2" cy="121.0" r="2.6" fill="#1f3a5f"/>
<circle cx="143.6" cy="168.2" r="2.6" fill="#1f3a5f"/>
<circle cx="171.1" cy="142.3" r="2.6" fill="#1f3a5f"/>
<circle cx="226.0" cy="201.2" r="2.6" fill="#1f3a5f"/>
<circle cx="253.5" cy="198.7" r="2.6" fill="#1f3a5f"/>
<circle cx="280.9" cy="204.2" r="2.6" fill="#1f3a5f"/>
<circle cx="308.4" cy="206.9" r="2.6" fill="#1f3a5f"/>
<circle cx="335.8" cy="199.3" r="2.6" fill="#1f3a5f"/>
<circle cx="363.3" cy="203.6" r="2.6" fill="#1f3a5f"/>
<line x1="212.3" y1="90" x2="212.3" y2="250" stroke="#b9461a" stroke-dasharray="3 3"/>
<line x1="75" y1="250" x2="377" y2="250" stroke="#444"/>
<line x1="75" y1="90" x2="75" y2="250" stroke="#444"/>
<line x1="88.7" y1="250" x2="88.7" y2="253" stroke="#444"/>
<text x="88.7" y="265" text-anchor="middle" fill="#444">-5</text>
<line x1="116.2" y1="250" x2="116.2" y2="253" stroke="#444"/>
<text x="116.2" y="265" text-anchor="middle" fill="#444">-4</text>
<line x1="143.6" y1="250" x2="143.6" y2="253" stroke="#444"/>
<text x="143.6" y="265" text-anchor="middle" fill="#444">-3</text>
<line x1="171.1" y1="250" x2="171.1" y2="253" stroke="#444"/>
<text x="171.1" y="265" text-anchor="middle" fill="#444">-2</text>
<line x1="226.0" y1="250" x2="226.0" y2="253" stroke="#444"/>
<text x="226.0" y="265" text-anchor="middle" fill="#444">0</text>
<line x1="253.5" y1="250" x2="253.5" y2="253" stroke="#444"/>
<text x="253.5" y="265" text-anchor="middle" fill="#444">1</text>
<line x1="280.9" y1="250" x2="280.9" y2="253" stroke="#444"/>
<text x="280.9" y="265" text-anchor="middle" fill="#444">2</text>
<line x1="308.4" y1="250" x2="308.4" y2="253" stroke="#444"/>
<text x="308.4" y="265" text-anchor="middle" fill="#444">3</text>
<line x1="335.8" y1="250" x2="335.8" y2="253" stroke="#444"/>
<text x="335.8" y="265" text-anchor="middle" fill="#444">4</text>
<line x1="363.3" y1="250" x2="363.3" y2="253" stroke="#444"/>
<text x="363.3" y="265" text-anchor="middle" fill="#444">5</text>
<line x1="72" y1="250.0" x2="75" y2="250.0" stroke="#444"/>
<text x="69" y="253.0" text-anchor="end" fill="#444">-0.96</text>
<line x1="72" y1="210.0" x2="75" y2="210.0" stroke="#444"/>
<text x="69" y="213.0" text-anchor="end" fill="#444">-0.47</text>
<line x1="72" y1="170.0" x2="75" y2="170.0" stroke="#444"/>
<text x="69" y="173.0" text-anchor="end" fill="#444">0.0097</text>
<line x1="72" y1="130.0" x2="75" y2="130.0" stroke="#444"/>
<text x="69" y="133.0" text-anchor="end" fill="#444">0.49</text>
<line x1="72" y1="90.0" x2="75" y2="90.0" stroke="#444"/>
<text x="69" y="93.0" text-anchor="end" fill="#444">0.98</text>
<text x="226.0" y="284" text-anchor="middle" fill="#444">Event time (years from adoption)</text>
<text x="27" y="170.0" text-anchor="middle" fill="#444" transform="rotate(-90 27 170.0)">ATT (per 100k)</text>
<rect x="425" y="40" width="380" height="260" fill="#fafaf7" stroke="#e2e2dc"/>
<text x="615.0" y="58" text-anchor="middle" font-weight="600">Firearm homicide rate (per 100k)</text>
<line x1="485" y1="162.39904596520813" x2="787" y2="162.39904596520813" stroke="#aaaaaa" stroke-width="0.7"/>
<polygon points="498.7,139.1 526.2,150.1 553.6,141.2 581.1,137.9 636.0,173.8 663.5,132.9 690.9,90.0 718.4,97.7 745.8,140.2 773.3,156.3 773.3,250.0 745.8,207.8 718.4,153.2 690.9,147.8 663.5,175.0 636.0,195.5 581.1,166.4 553.6,172.6 526.2,187.2 498.7,179.6" fill="#1f3a5f" opacity="0.18"/>
<polyline points="498.7,159.4 526.2,168.6 553.6,156.9 581.1,152.2 636.0,184.7 663.5,154.0 690.9,118.9 718.4,125.4 745.8,174.0 773.3,203.2" fill="none" stroke="#1f3a5f" stroke-width="1.6"/>
<circle cx="498.7" cy="159.4" r="2.6" fill="#1f3a5f"/>
<circle cx="526.2" cy="168.6" r="2.6" fill="#1f3a5f"/>
<circle cx="553.6" cy="156.9" r="2.6" fill="#1f3a5f"/>
<circle cx="581.1" cy="152.2" r="2.6" fill="#1f3a5f"/>
<circle cx="636.0" cy="184.7" r="2.6" fill="#1f3a5f"/>
<circle cx="663.5" cy="154.0" r="2.6" fill="#1f3a5f"/>
<circle cx="690.9" cy="118.9" r="2.6" fill="#1f3a5f"/>
<circle cx="718.4" cy="125.4" r="2.6" fill="#1f3a5f"/>
<circle cx="745.8" cy="174.0" r="2.6" fill="#1f3a5f"/>
<circle cx="773.3" cy="203.2" r="2.6" fill="#1f3a5f"/>
<line x1="622.3" y1="90" x2="622.3" y2="250" stroke="#b9461a" stroke-dasharray="3 3"/>
<line x1="485" y1="250" x2="787" y2="250" stroke="#444"/>
<line x1="485" y1="90" x2="485" y2="250" stroke="#444"/>
<line x1="498.7" y1="250" x2="498.7" y2="253" stroke="#444"/>
<text x="498.7" y="265" text-anchor="middle" fill="#444">-5</text>
<line x1="526.2" y1="250" x2="526.2" y2="253" stroke="#444"/>
<text x="526.2" y="265" text-anchor="middle" fill="#444">-4</text>
<line x1="553.6" y1="250" x2="553.6" y2="253" stroke="#444"/>
<text x="553.6" y="265" text-anchor="middle" fill="#444">-3</text>
<line x1="581.1" y1="250" x2="581.1" y2="253" stroke="#444"/>
<text x="581.1" y="265" text-anchor="middle" fill="#444">-2</text>
<line x1="636.0" y1="250" x2="636.0" y2="253" stroke="#444"/>
<text x="636.0" y="265" text-anchor="middle" fill="#444">0</text>
<line x1="663.5" y1="250" x2="663.5" y2="253" stroke="#444"/>
<text x="663.5" y="265" text-anchor="middle" fill="#444">1</text>
<line x1="690.9" y1="250" x2="690.9" y2="253" stroke="#444"/>
<text x="690.9" y="265" text-anchor="middle" fill="#444">2</text>
<line x1="718.4" y1="250" x2="718.4" y2="253" stroke="#444"/>
<text x="718.4" y="265" text-anchor="middle" fill="#444">3</text>
<line x1="745.8" y1="250" x2="745.8" y2="253" stroke="#444"/>
<text x="745.8" y="265" text-anchor="middle" fill="#444">4</text>
<line x1="773.3" y1="250" x2="773.3" y2="253" stroke="#444"/>
<text x="773.3" y="265" text-anchor="middle" fill="#444">5</text>
<line x1="482" y1="250.0" x2="485" y2="250.0" stroke="#444"/>
<text x="479" y="253.0" text-anchor="end" fill="#444">-1.2</text>
<line x1="482" y1="210.0" x2="485" y2="210.0" stroke="#444"/>
<text x="479" y="213.0" text-anchor="end" fill="#444">-0.67</text>
<line x1="482" y1="170.0" x2="485" y2="170.0" stroke="#444"/>
<text x="479" y="173.0" text-anchor="end" fill="#444">-0.11</text>
<line x1="482" y1="130.0" x2="485" y2="130.0" stroke="#444"/>
<text x="479" y="133.0" text-anchor="end" fill="#444">0.46</text>
<line x1="482" y1="90.0" x2="485" y2="90.0" stroke="#444"/>
<text x="479" y="93.0" text-anchor="end" fill="#444">1</text>
<text x="636.0" y="284" text-anchor="middle" fill="#444">Event time (years from adoption)</text>
<text x="437" y="170.0" text-anchor="middle" fill="#444" transform="rotate(-90 437 170.0)">ATT (per 100k)</text>
<rect x="15" y="330" width="380" height="260" fill="#fafaf7" stroke="#e2e2dc"/>
<text x="205.0" y="348" text-anchor="middle" font-weight="600">Total homicide rate (per 100k)</text>
<line x1="75" y1="430.50671257564227" x2="377" y2="430.50671257564227" stroke="#aaaaaa" stroke-width="0.7"/>
<polygon points="88.7,398.8 116.2,394.6 143.6,380.0 171.1,398.5 226.0,435.6 253.5,416.9 280.9,417.7 308.4,395.6 335.8,467.0 363.3,469.4 363.3,540.0 335.8,514.1 308.4,456.4 280.9,462.6 253.5,453.0 226.0,460.9 171.1,425.8 143.6,419.6 116.2,440.9 88.7,446.3" fill="#1f3a5f" opacity="0.18"/>
<polyline points="88.7,422.5 116.2,417.7 143.6,399.8 171.1,412.1 226.0,448.2 253.5,435.0 280.9,440.2 308.4,426.0 335.8,490.6 363.3,504.7" fill="none" stroke="#1f3a5f" stroke-width="1.6"/>
<circle cx="88.7" cy="422.5" r="2.6" fill="#1f3a5f"/>
<circle cx="116.2" cy="417.7" r="2.6" fill="#1f3a5f"/>
<circle cx="143.6" cy="399.8" r="2.6" fill="#1f3a5f"/>
<circle cx="171.1" cy="412.1" r="2.6" fill="#1f3a5f"/>
<circle cx="226.0" cy="448.2" r="2.6" fill="#1f3a5f"/>
<circle cx="253.5" cy="435.0" r="2.6" fill="#1f3a5f"/>
<circle cx="280.9" cy="440.2" r="2.6" fill="#1f3a5f"/>
<circle cx="308.4" cy="426.0" r="2.6" fill="#1f3a5f"/>
<circle cx="335.8" cy="490.6" r="2.6" fill="#1f3a5f"/>
<circle cx="363.3" cy="504.7" r="2.6" fill="#1f3a5f"/>
<line x1="212.3" y1="380" x2="212.3" y2="540" stroke="#b9461a" stroke-dasharray="3 3"/>
<line x1="75" y1="540" x2="377" y2="540" stroke="#444"/>
<line x1="75" y1="380" x2="75" y2="540" stroke="#444"/>
<line x1="88.7" y1="540" x2="88.7" y2="543" stroke="#444"/>
<text x="88.7" y="555" text-anchor="middle" fill="#444">-5</text>
<line x1="116.2" y1="540" x2="116.2" y2="543" stroke="#444"/>
<text x="116.2" y="555" text-anchor="middle" fill="#444">-4</text>
<line x1="143.6" y1="540" x2="143.6" y2="543" stroke="#444"/>
<text x="143.6" y="555" text-anchor="middle" fill="#444">-3</text>
<line x1="171.1" y1="540" x2="171.1" y2="543" stroke="#444"/>
<text x="171.1" y="555" text-anchor="middle" fill="#444">-2</text>
<line x1="226.0" y1="540" x2="226.0" y2="543" stroke="#444"/>
<text x="226.0" y="555" text-anchor="middle" fill="#444">0</text>
<line x1="253.5" y1="540" x2="253.5" y2="543" stroke="#444"/>
<text x="253.5" y="555" text-anchor="middle" fill="#444">1</text>
<line x1="280.9" y1="540" x2="280.9" y2="543" stroke="#444"/>
<text x="280.9" y="555" text-anchor="middle" fill="#444">2</text>
<line x1="308.4" y1="540" x2="308.4" y2="543" stroke="#444"/>
<text x="308.4" y="555" text-anchor="middle" fill="#444">3</text>
<line x1="335.8" y1="540" x2="335.8" y2="543" stroke="#444"/>
<text x="335.8" y="555" text-anchor="middle" fill="#444">4</text>
<line x1="363.3" y1="540" x2="363.3" y2="543" stroke="#444"/>
<text x="363.3" y="555" text-anchor="middle" fill="#444">5</text>
<line x1="72" y1="540.0" x2="75" y2="540.0" stroke="#444"/>
<text x="69" y="543.0" text-anchor="end" fill="#444">-1.7</text>
<line x1="72" y1="500.0" x2="75" y2="500.0" stroke="#444"/>
<text x="69" y="503.0" text-anchor="end" fill="#444">-1.1</text>
<line x1="72" y1="460.0" x2="75" y2="460.0" stroke="#444"/>
<text x="69" y="463.0" text-anchor="end" fill="#444">-0.47</text>
<line x1="72" y1="420.0" x2="75" y2="420.0" stroke="#444"/>
<text x="69" y="423.0" text-anchor="end" fill="#444">0.17</text>
<line x1="72" y1="380.0" x2="75" y2="380.0" stroke="#444"/>
<text x="69" y="383.0" text-anchor="end" fill="#444">0.8</text>
<text x="226.0" y="574" text-anchor="middle" fill="#444">Event time (years from adoption)</text>
<text x="27" y="460.0" text-anchor="middle" fill="#444" transform="rotate(-90 27 460.0)">ATT (per 100k)</text>
<rect x="425" y="330" width="380" height="260" fill="#fafaf7" stroke="#e2e2dc"/>
<text x="615.0" y="348" text-anchor="middle" font-weight="600">Motor vehicle theft rate (per 100k) [placebo]</text>
<line x1="485" y1="503.91199592070734" x2="787" y2="503.91199592070734" stroke="#aaaaaa" stroke-width="0.7"/>
<polygon points="498.7,482.9 526.2,469.7 553.6,480.8 581.1,488.5 636.0,491.6 663.5,463.3 690.9,442.0 718.4,402.5 745.8,439.4 773.3,380.0 773.3,519.5 745.8,519.2 718.4,488.3 690.9,509.3 663.5,501.7 636.0,510.0 581.1,517.4 553.6,519.6 526.2,517.6 498.7,540.0" fill="#1f3a5f" opacity="0.18"/>
<polyline points="498.7,511.5 526.2,493.6 553.6,500.2 581.1,503.0 636.0,500.8 663.5,482.5 690.9,475.6 718.4,445.4 745.8,479.3 773.3,449.8" fill="none" stroke="#1f3a5f" stroke-width="1.6"/>
<circle cx="498.7" cy="511.5" r="2.6" fill="#1f3a5f"/>
<circle cx="526.2" cy="493.6" r="2.6" fill="#1f3a5f"/>
<circle cx="553.6" cy="500.2" r="2.6" fill="#1f3a5f"/>
<circle cx="581.1" cy="503.0" r="2.6" fill="#1f3a5f"/>
<circle cx="636.0" cy="500.8" r="2.6" fill="#1f3a5f"/>
<circle cx="663.5" cy="482.5" r="2.6" fill="#1f3a5f"/>
<circle cx="690.9" cy="475.6" r="2.6" fill="#1f3a5f"/>
<circle cx="718.4" cy="445.4" r="2.6" fill="#1f3a5f"/>
<circle cx="745.8" cy="479.3" r="2.6" fill="#1f3a5f"/>
<circle cx="773.3" cy="449.8" r="2.6" fill="#1f3a5f"/>
<line x1="622.3" y1="380" x2="622.3" y2="540" stroke="#b9461a" stroke-dasharray="3 3"/>
<line x1="485" y1="540" x2="787" y2="540" stroke="#444"/>
<line x1="485" y1="380" x2="485" y2="540" stroke="#444"/>
<line x1="498.7" y1="540" x2="498.7" y2="543" stroke="#444"/>
<text x="498.7" y="555" text-anchor="middle" fill="#444">-5</text>
<line x1="526.2" y1="540" x2="526.2" y2="543" stroke="#444"/>
<text x="526.2" y="555" text-anchor="middle" fill="#444">-4</text>
<line x1="553.6" y1="540" x2="553.6" y2="543" stroke="#444"/>
<text x="553.6" y="555" text-anchor="middle" fill="#444">-3</text>
<line x1="581.1" y1="540" x2="581.1" y2="543" stroke="#444"/>
<text x="581.1" y="555" text-anchor="middle" fill="#444">-2</text>
<line x1="636.0" y1="540" x2="636.0" y2="543" stroke="#444"/>
<text x="636.0" y="555" text-anchor="middle" fill="#444">0</text>
<line x1="663.5" y1="540" x2="663.5" y2="543" stroke="#444"/>
<text x="663.5" y="555" text-anchor="middle" fill="#444">1</text>
<line x1="690.9" y1="540" x2="690.9" y2="543" stroke="#444"/>
<text x="690.9" y="555" text-anchor="middle" fill="#444">2</text>
<line x1="718.4" y1="540" x2="718.4" y2="543" stroke="#444"/>
<text x="718.4" y="555" text-anchor="middle" fill="#444">3</text>
<line x1="745.8" y1="540" x2="745.8" y2="543" stroke="#444"/>
<text x="745.8" y="555" text-anchor="middle" fill="#444">4</text>
<line x1="773.3" y1="540" x2="773.3" y2="543" stroke="#444"/>
<text x="773.3" y="555" text-anchor="middle" fill="#444">5</text>
<line x1="482" y1="540.0" x2="485" y2="540.0" stroke="#444"/>
<text x="479" y="543.0" text-anchor="end" fill="#444">-28</text>
<line x1="482" y1="500.0" x2="485" y2="500.0" stroke="#444"/>
<text x="479" y="503.0" text-anchor="end" fill="#444">3.1</text>
<line x1="482" y1="460.0" x2="485" y2="460.0" stroke="#444"/>
<text x="479" y="463.0" text-anchor="end" fill="#444">34</text>
<line x1="482" y1="420.0" x2="485" y2="420.0" stroke="#444"/>
<text x="479" y="423.0" text-anchor="end" fill="#444">66</text>
<line x1="482" y1="380.0" x2="485" y2="380.0" stroke="#444"/>
<text x="479" y="383.0" text-anchor="end" fill="#444">97</text>
<text x="636.0" y="574" text-anchor="middle" fill="#444">Event time (years from adoption)</text>
<text x="437" y="460.0" text-anchor="middle" fill="#444" transform="rotate(-90 437 460.0)">ATT (per 100k)</text>
<text x="805" y="608" text-anchor="end" fill="#888" font-size="10">Shaded band: pointwise 95% CI from cluster bootstrap. Vertical dashed line marks the year before adoption.</text>
</svg>