<svg xmlns="http://www.w3.org/2000/svg" viewBox="0 0 820 620" font-family="-apple-system, Segoe UI, Helvetica, Arial, sans-serif" font-size="11">
<text x="410.0" y="22" text-anchor="middle" font-size="14" font-weight="600">Callaway-Sant'Anna ATT by event time (OR) -- red-flag (gvro)</text>
<rect x="15" y="40" width="380" height="260" fill="#fafaf7" stroke="#e2e2dc"/>
<text x="205.0" y="58" text-anchor="middle" font-weight="600">Firearm suicide rate (per 100k)</text>
<line x1="75" y1="172.2274332089437" x2="377" y2="172.2274332089437" stroke="#aaaaaa" stroke-width="0.7"/>
<polygon points="88.7,90.0 116.2,109.5 143.6,141.0 171.1,128.5 226.0,161.3 253.5,157.4 280.9,160.9 308.4,150.4 335.8,161.8 363.3,156.5 363.3,250.0 335.8,220.7 308.4,207.4 280.9,213.2 253.5,204.0 226.0,195.3 171.1,180.7 143.6,181.8 116.2,152.7 88.7,144.6" fill="#1f3a5f" opacity="0.18"/>
<polyline points="88.7,117.3 116.2,131.1 143.6,161.4 171.1,154.6 226.0,178.3 253.5,180.7 280.9,187.1 308.4,178.9 335.8,191.2 363.3,203.2" fill="none" stroke="#1f3a5f" stroke-width="1.6"/>
<circle cx="88.7" cy="117.3" r="2.6" fill="#1f3a5f"/>
<circle cx="116.2" cy="131.1" r="2.6" fill="#1f3a5f"/>
<circle cx="143.6" cy="161.4" r="2.6" fill="#1f3a5f"/>
<circle cx="171.1" cy="154.6" r="2.6" fill="#1f3a5f"/>
<circle cx="226.0" cy="178.3" r="2.6" fill="#1f3a5f"/>
<circle cx="253.5" cy="180.7" r="2.6" fill="#1f3a5f"/>
<circle cx="280.9" cy="187.1" r="2.6" fill="#1f3a5f"/>
<circle cx="308.4" cy="178.9" r="2.6" fill="#1f3a5f"/>
<circle cx="335.8" cy="191.2" r="2.6" fill="#1f3a5f"/>
<circle cx="363.3" cy="203.2" r="2.6" fill="#1f3a5f"/>
<line x1="212.3" y1="90" x2="212.3" y2="250" stroke="#b9461a" stroke-dasharray="3 3"/>
<line x1="75" y1="250" x2="377" y2="250" stroke="#444"/>
<line x1="75" y1="90" x2="75" y2="250" stroke="#444"/>
<line x1="88.7" y1="250" x2="88.7" y2="253" stroke="#444"/>
<text x="88.7" y="265" text-anchor="middle" fill="#444">-5</text>
<line x1="116.2" y1="250" x2="116.2" y2="253" stroke="#444"/>
<text x="116.2" y="265" text-anchor="middle" fill="#444">-4</text>
<line x1="143.6" y1="250" x2="143.6" y2="253" stroke="#444"/>
<text x="143.6" y="265" text-anchor="middle" fill="#444">-3</text>
<line x1="171.1" y1="250" x2="171.1" y2="253" stroke="#444"/>
<text x="171.1" y="265" text-anchor="middle" fill="#444">-2</text>
<line x1="226.0" y1="250" x2="226.0" y2="253" stroke="#444"/>
<text x="226.0" y="265" text-anchor="middle" fill="#444">0</text>
<line x1="253.5" y1="250" x2="253.5" y2="253" stroke="#444"/>
<text x="253.5" y="265" text-anchor="middle" fill="#444">1</text>
<line x1="280.9" y1="250" x2="280.9" y2="253" stroke="#444"/>
<text x="280.9" y="265" text-anchor="middle" fill="#444">2</text>
<line x1="308.4" y1="250" x2="308.4" y2="253" stroke="#444"/>
<text x="308.4" y="265" text-anchor="middle" fill="#444">3</text>
<line x1="335.8" y1="250" x2="335.8" y2="253" stroke="#444"/>
<text x="335.8" y="265" text-anchor="middle" fill="#444">4</text>
<line x1="363.3" y1="250" x2="363.3" y2="253" stroke="#444"/>
<text x="363.3" y="265" text-anchor="middle" fill="#444">5</text>
<line x1="72" y1="250.0" x2="75" y2="250.0" stroke="#444"/>
<text x="69" y="253.0" text-anchor="end" fill="#444">-1.1</text>
<line x1="72" y1="210.0" x2="75" y2="210.0" stroke="#444"/>
<text x="69" y="213.0" text-anchor="end" fill="#444">-0.54</text>
<line x1="72" y1="170.0" x2="75" y2="170.0" stroke="#444"/>
<text x="69" y="173.0" text-anchor="end" fill="#444">0.032</text>
<line x1="72" y1="130.0" x2="75" y2="130.0" stroke="#444"/>
<text x="69" y="133.0" text-anchor="end" fill="#444">0.6</text>
<line x1="72" y1="90.0" x2="75" y2="90.0" stroke="#444"/>
<text x="69" y="93.0" text-anchor="end" fill="#444">1.2</text>
<text x="226.0" y="284" text-anchor="middle" fill="#444">Event time (years from adoption)</text>
<text x="27" y="170.0" text-anchor="middle" fill="#444" transform="rotate(-90 27 170.0)">ATT (per 100k)</text>
<rect x="425" y="40" width="380" height="260" fill="#fafaf7" stroke="#e2e2dc"/>
<text x="615.0" y="58" text-anchor="middle" font-weight="600">Non-firearm suicide rate (per 100k) [substitution test]</text>
<line x1="485" y1="178.9738398608552" x2="787" y2="178.9738398608552" stroke="#aaaaaa" stroke-width="0.7"/>
<polygon points="498.7,120.8 526.2,119.9 553.6,141.5 581.1,156.0 636.0,152.4 663.5,133.3 690.9,117.8 718.4,158.4 745.8,140.2 773.3,90.0 773.3,157.2 745.8,215.8 718.4,208.1 690.9,193.9 663.5,206.4 636.0,210.5 581.1,234.9 553.6,191.2 526.2,250.0 498.7,193.2" fill="#1f3a5f" opacity="0.18"/>
<polyline points="498.7,157.0 526.2,185.0 553.6,166.4 581.1,195.4 636.0,181.5 663.5,169.9 690.9,155.8 718.4,183.2 745.8,178.0 773.3,123.6" fill="none" stroke="#1f3a5f" stroke-width="1.6"/>
<circle cx="498.7" cy="157.0" r="2.6" fill="#1f3a5f"/>
<circle cx="526.2" cy="185.0" r="2.6" fill="#1f3a5f"/>
<circle cx="553.6" cy="166.4" r="2.6" fill="#1f3a5f"/>
<circle cx="581.1" cy="195.4" r="2.6" fill="#1f3a5f"/>
<circle cx="636.0" cy="181.5" r="2.6" fill="#1f3a5f"/>
<circle cx="663.5" cy="169.9" r="2.6" fill="#1f3a5f"/>
<circle cx="690.9" cy="155.8" r="2.6" fill="#1f3a5f"/>
<circle cx="718.4" cy="183.2" r="2.6" fill="#1f3a5f"/>
<circle cx="745.8" cy="178.0" r="2.6" fill="#1f3a5f"/>
<circle cx="773.3" cy="123.6" r="2.6" fill="#1f3a5f"/>
<line x1="622.3" y1="90" x2="622.3" y2="250" stroke="#b9461a" stroke-dasharray="3 3"/>
<line x1="485" y1="250" x2="787" y2="250" stroke="#444"/>
<line x1="485" y1="90" x2="485" y2="250" stroke="#444"/>
<line x1="498.7" y1="250" x2="498.7" y2="253" stroke="#444"/>
<text x="498.7" y="265" text-anchor="middle" fill="#444">-5</text>
<line x1="526.2" y1="250" x2="526.2" y2="253" stroke="#444"/>
<text x="526.2" y="265" text-anchor="middle" fill="#444">-4</text>
<line x1="553.6" y1="250" x2="553.6" y2="253" stroke="#444"/>
<text x="553.6" y="265" text-anchor="middle" fill="#444">-3</text>
<line x1="581.1" y1="250" x2="581.1" y2="253" stroke="#444"/>
<text x="581.1" y="265" text-anchor="middle" fill="#444">-2</text>
<line x1="636.0" y1="250" x2="636.0" y2="253" stroke="#444"/>
<text x="636.0" y="265" text-anchor="middle" fill="#444">0</text>
<line x1="663.5" y1="250" x2="663.5" y2="253" stroke="#444"/>
<text x="663.5" y="265" text-anchor="middle" fill="#444">1</text>
<line x1="690.9" y1="250" x2="690.9" y2="253" stroke="#444"/>
<text x="690.9" y="265" text-anchor="middle" fill="#444">2</text>
<line x1="718.4" y1="250" x2="718.4" y2="253" stroke="#444"/>
<text x="718.4" y="265" text-anchor="middle" fill="#444">3</text>
<line x1="745.8" y1="250" x2="745.8" y2="253" stroke="#444"/>
<text x="745.8" y="265" text-anchor="middle" fill="#444">4</text>
<line x1="773.3" y1="250" x2="773.3" y2="253" stroke="#444"/>
<text x="773.3" y="265" text-anchor="middle" fill="#444">5</text>
<line x1="482" y1="250.0" x2="485" y2="250.0" stroke="#444"/>
<text x="479" y="253.0" text-anchor="end" fill="#444">-0.61</text>
<line x1="482" y1="210.0" x2="485" y2="210.0" stroke="#444"/>
<text x="479" y="213.0" text-anchor="end" fill="#444">-0.27</text>
<line x1="482" y1="170.0" x2="485" y2="170.0" stroke="#444"/>
<text x="479" y="173.0" text-anchor="end" fill="#444">0.078</text>
<line x1="482" y1="130.0" x2="485" y2="130.0" stroke="#444"/>
<text x="479" y="133.0" text-anchor="end" fill="#444">0.42</text>
<line x1="482" y1="90.0" x2="485" y2="90.0" stroke="#444"/>
<text x="479" y="93.0" text-anchor="end" fill="#444">0.77</text>
<text x="636.0" y="284" text-anchor="middle" fill="#444">Event time (years from adoption)</text>
<text x="437" y="170.0" text-anchor="middle" fill="#444" transform="rotate(-90 437 170.0)">ATT (per 100k)</text>
<rect x="15" y="330" width="380" height="260" fill="#fafaf7" stroke="#e2e2dc"/>
<text x="205.0" y="348" text-anchor="middle" font-weight="600">Total suicide rate (per 100k) [net effect]</text>
<line x1="75" y1="483.9350198079804" x2="377" y2="483.9350198079804" stroke="#aaaaaa" stroke-width="0.7"/>
<polygon points="88.7,380.0 116.2,398.5 143.6,439.9 171.1,437.5 226.0,472.8 253.5,449.2 280.9,449.8 308.4,458.3 335.8,466.3 363.3,422.8 363.3,540.0 335.8,537.5 308.4,527.5 280.9,519.7 253.5,524.5 226.0,510.0 171.1,515.4 143.6,491.9 116.2,496.2 88.7,454.6" fill="#1f3a5f" opacity="0.18"/>
<polyline points="88.7,417.3 116.2,447.3 143.6,465.9 171.1,476.4 226.0,491.4 253.5,486.8 280.9,484.7 308.4,492.9 335.8,501.9 363.3,481.4" fill="none" stroke="#1f3a5f" stroke-width="1.6"/>
<circle cx="88.7" cy="417.3" r="2.6" fill="#1f3a5f"/>
<circle cx="116.2" cy="447.3" r="2.6" fill="#1f3a5f"/>
<circle cx="143.6" cy="465.9" r="2.6" fill="#1f3a5f"/>
<circle cx="171.1" cy="476.4" r="2.6" fill="#1f3a5f"/>
<circle cx="226.0" cy="491.4" r="2.6" fill="#1f3a5f"/>
<circle cx="253.5" cy="486.8" r="2.6" fill="#1f3a5f"/>
<circle cx="280.9" cy="484.7" r="2.6" fill="#1f3a5f"/>
<circle cx="308.4" cy="492.9" r="2.6" fill="#1f3a5f"/>
<circle cx="335.8" cy="501.9" r="2.6" fill="#1f3a5f"/>
<circle cx="363.3" cy="481.4" r="2.6" fill="#1f3a5f"/>
<line x1="212.3" y1="380" x2="212.3" y2="540" stroke="#b9461a" stroke-dasharray="3 3"/>
<line x1="75" y1="540" x2="377" y2="540" stroke="#444"/>
<line x1="75" y1="380" x2="75" y2="540" stroke="#444"/>
<line x1="88.7" y1="540" x2="88.7" y2="543" stroke="#444"/>
<text x="88.7" y="555" text-anchor="middle" fill="#444">-5</text>
<line x1="116.2" y1="540" x2="116.2" y2="543" stroke="#444"/>
<text x="116.2" y="555" text-anchor="middle" fill="#444">-4</text>
<line x1="143.6" y1="540" x2="143.6" y2="543" stroke="#444"/>
<text x="143.6" y="555" text-anchor="middle" fill="#444">-3</text>
<line x1="171.1" y1="540" x2="171.1" y2="543" stroke="#444"/>
<text x="171.1" y="555" text-anchor="middle" fill="#444">-2</text>
<line x1="226.0" y1="540" x2="226.0" y2="543" stroke="#444"/>
<text x="226.0" y="555" text-anchor="middle" fill="#444">0</text>
<line x1="253.5" y1="540" x2="253.5" y2="543" stroke="#444"/>
<text x="253.5" y="555" text-anchor="middle" fill="#444">1</text>
<line x1="280.9" y1="540" x2="280.9" y2="543" stroke="#444"/>
<text x="280.9" y="555" text-anchor="middle" fill="#444">2</text>
<line x1="308.4" y1="540" x2="308.4" y2="543" stroke="#444"/>
<text x="308.4" y="555" text-anchor="middle" fill="#444">3</text>
<line x1="335.8" y1="540" x2="335.8" y2="543" stroke="#444"/>
<text x="335.8" y="555" text-anchor="middle" fill="#444">4</text>
<line x1="363.3" y1="540" x2="363.3" y2="543" stroke="#444"/>
<text x="363.3" y="555" text-anchor="middle" fill="#444">5</text>
<line x1="72" y1="540.0" x2="75" y2="540.0" stroke="#444"/>
<text x="69" y="543.0" text-anchor="end" fill="#444">-0.82</text>
<line x1="72" y1="500.0" x2="75" y2="500.0" stroke="#444"/>
<text x="69" y="503.0" text-anchor="end" fill="#444">-0.23</text>
<line x1="72" y1="460.0" x2="75" y2="460.0" stroke="#444"/>
<text x="69" y="463.0" text-anchor="end" fill="#444">0.35</text>
<line x1="72" y1="420.0" x2="75" y2="420.0" stroke="#444"/>
<text x="69" y="423.0" text-anchor="end" fill="#444">0.93</text>
<line x1="72" y1="380.0" x2="75" y2="380.0" stroke="#444"/>
<text x="69" y="383.0" text-anchor="end" fill="#444">1.5</text>
<text x="226.0" y="574" text-anchor="middle" fill="#444">Event time (years from adoption)</text>
<text x="27" y="460.0" text-anchor="middle" fill="#444" transform="rotate(-90 27 460.0)">ATT (per 100k)</text>
<rect x="425" y="330" width="380" height="260" fill="#fafaf7" stroke="#e2e2dc"/>
<text x="615.0" y="348" text-anchor="middle" font-weight="600">Firearm homicide rate (per 100k)</text>
<line x1="485" y1="422.55246401523345" x2="787" y2="422.55246401523345" stroke="#aaaaaa" stroke-width="0.7"/>
<polygon points="498.7,380.0 526.2,386.8 553.6,386.0 581.1,396.2 636.0,433.5 663.5,415.6 690.9,412.9 718.4,415.9 745.8,441.5 773.3,445.0 773.3,540.0 745.8,509.3 718.4,475.6 690.9,475.4 663.5,470.4 636.0,456.8 581.1,430.4 553.6,422.7 526.2,436.5 498.7,428.9" fill="#1f3a5f" opacity="0.18"/>
<polyline points="498.7,404.4 526.2,411.6 553.6,404.4 581.1,413.3 636.0,445.2 663.5,443.0 690.9,444.1 718.4,445.8 745.8,475.4 773.3,492.5" fill="none" stroke="#1f3a5f" stroke-width="1.6"/>
<circle cx="498.7" cy="404.4" r="2.6" fill="#1f3a5f"/>
<circle cx="526.2" cy="411.6" r="2.6" fill="#1f3a5f"/>
<circle cx="553.6" cy="404.4" r="2.6" fill="#1f3a5f"/>
<circle cx="581.1" cy="413.3" r="2.6" fill="#1f3a5f"/>
<circle cx="636.0" cy="445.2" r="2.6" fill="#1f3a5f"/>
<circle cx="663.5" cy="443.0" r="2.6" fill="#1f3a5f"/>
<circle cx="690.9" cy="444.1" r="2.6" fill="#1f3a5f"/>
<circle cx="718.4" cy="445.8" r="2.6" fill="#1f3a5f"/>
<circle cx="745.8" cy="475.4" r="2.6" fill="#1f3a5f"/>
<circle cx="773.3" cy="492.5" r="2.6" fill="#1f3a5f"/>
<line x1="622.3" y1="380" x2="622.3" y2="540" stroke="#b9461a" stroke-dasharray="3 3"/>
<line x1="485" y1="540" x2="787" y2="540" stroke="#444"/>
<line x1="485" y1="380" x2="485" y2="540" stroke="#444"/>
<line x1="498.7" y1="540" x2="498.7" y2="543" stroke="#444"/>
<text x="498.7" y="555" text-anchor="middle" fill="#444">-5</text>
<line x1="526.2" y1="540" x2="526.2" y2="543" stroke="#444"/>
<text x="526.2" y="555" text-anchor="middle" fill="#444">-4</text>
<line x1="553.6" y1="540" x2="553.6" y2="543" stroke="#444"/>
<text x="553.6" y="555" text-anchor="middle" fill="#444">-3</text>
<line x1="581.1" y1="540" x2="581.1" y2="543" stroke="#444"/>
<text x="581.1" y="555" text-anchor="middle" fill="#444">-2</text>
<line x1="636.0" y1="540" x2="636.0" y2="543" stroke="#444"/>
<text x="636.0" y="555" text-anchor="middle" fill="#444">0</text>
<line x1="663.5" y1="540" x2="663.5" y2="543" stroke="#444"/>
<text x="663.5" y="555" text-anchor="middle" fill="#444">1</text>
<line x1="690.9" y1="540" x2="690.9" y2="543" stroke="#444"/>
<text x="690.9" y="555" text-anchor="middle" fill="#444">2</text>
<line x1="718.4" y1="540" x2="718.4" y2="543" stroke="#444"/>
<text x="718.4" y="555" text-anchor="middle" fill="#444">3</text>
<line x1="745.8" y1="540" x2="745.8" y2="543" stroke="#444"/>
<text x="745.8" y="555" text-anchor="middle" fill="#444">4</text>
<line x1="773.3" y1="540" x2="773.3" y2="543" stroke="#444"/>
<text x="773.3" y="555" text-anchor="middle" fill="#444">5</text>
<line x1="482" y1="540.0" x2="485" y2="540.0" stroke="#444"/>
<text x="479" y="543.0" text-anchor="end" fill="#444">-2.1</text>
<line x1="482" y1="500.0" x2="485" y2="500.0" stroke="#444"/>
<text x="479" y="503.0" text-anchor="end" fill="#444">-1.4</text>
<line x1="482" y1="460.0" x2="485" y2="460.0" stroke="#444"/>
<text x="479" y="463.0" text-anchor="end" fill="#444">-0.68</text>
<line x1="482" y1="420.0" x2="485" y2="420.0" stroke="#444"/>
<text x="479" y="423.0" text-anchor="end" fill="#444">0.046</text>
<line x1="482" y1="380.0" x2="485" y2="380.0" stroke="#444"/>
<text x="479" y="383.0" text-anchor="end" fill="#444">0.77</text>
<text x="636.0" y="574" text-anchor="middle" fill="#444">Event time (years from adoption)</text>
<text x="437" y="460.0" text-anchor="middle" fill="#444" transform="rotate(-90 437 460.0)">ATT (per 100k)</text>
<rect x="15" y="620" width="380" height="260" fill="#fafaf7" stroke="#e2e2dc"/>
<text x="205.0" y="638" text-anchor="middle" font-weight="600">Total homicide rate (per 100k)</text>
<line x1="75" y1="734.8530727190923" x2="377" y2="734.8530727190923" stroke="#aaaaaa" stroke-width="0.7"/>
<polygon points="88.7,697.8 116.2,685.9 143.6,670.0 171.1,711.9 226.0,749.0 253.5,720.3 280.9,719.2 308.4,687.6 335.8,750.0 363.3,726.9 363.3,830.0 335.8,823.0 308.4,781.1 280.9,789.5 253.5,788.4 226.0,773.3 171.1,747.5 143.6,738.7 116.2,761.3 88.7,766.3" fill="#1f3a5f" opacity="0.18"/>
<polyline points="88.7,732.1 116.2,723.6 143.6,704.4 171.1,729.7 226.0,761.2 253.5,754.3 280.9,754.3 308.4,734.3 335.8,786.5 363.3,778.4" fill="none" stroke="#1f3a5f" stroke-width="1.6"/>
<circle cx="88.7" cy="732.1" r="2.6" fill="#1f3a5f"/>
<circle cx="116.2" cy="723.6" r="2.6" fill="#1f3a5f"/>
<circle cx="143.6" cy="704.4" r="2.6" fill="#1f3a5f"/>
<circle cx="171.1" cy="729.7" r="2.6" fill="#1f3a5f"/>
<circle cx="226.0" cy="761.2" r="2.6" fill="#1f3a5f"/>
<circle cx="253.5" cy="754.3" r="2.6" fill="#1f3a5f"/>
<circle cx="280.9" cy="754.3" r="2.6" fill="#1f3a5f"/>
<circle cx="308.4" cy="734.3" r="2.6" fill="#1f3a5f"/>
<circle cx="335.8" cy="786.5" r="2.6" fill="#1f3a5f"/>
<circle cx="363.3" cy="778.4" r="2.6" fill="#1f3a5f"/>
<line x1="212.3" y1="670" x2="212.3" y2="830" stroke="#b9461a" stroke-dasharray="3 3"/>
<line x1="75" y1="830" x2="377" y2="830" stroke="#444"/>
<line x1="75" y1="670" x2="75" y2="830" stroke="#444"/>
<line x1="88.7" y1="830" x2="88.7" y2="833" stroke="#444"/>
<text x="88.7" y="845" text-anchor="middle" fill="#444">-5</text>
<line x1="116.2" y1="830" x2="116.2" y2="833" stroke="#444"/>
<text x="116.2" y="845" text-anchor="middle" fill="#444">-4</text>
<line x1="143.6" y1="830" x2="143.6" y2="833" stroke="#444"/>
<text x="143.6" y="845" text-anchor="middle" fill="#444">-3</text>
<line x1="171.1" y1="830" x2="171.1" y2="833" stroke="#444"/>
<text x="171.1" y="845" text-anchor="middle" fill="#444">-2</text>
<line x1="226.0" y1="830" x2="226.0" y2="833" stroke="#444"/>
<text x="226.0" y="845" text-anchor="middle" fill="#444">0</text>
<line x1="253.5" y1="830" x2="253.5" y2="833" stroke="#444"/>
<text x="253.5" y="845" text-anchor="middle" fill="#444">1</text>
<line x1="280.9" y1="830" x2="280.9" y2="833" stroke="#444"/>
<text x="280.9" y="845" text-anchor="middle" fill="#444">2</text>
<line x1="308.4" y1="830" x2="308.4" y2="833" stroke="#444"/>
<text x="308.4" y="845" text-anchor="middle" fill="#444">3</text>
<line x1="335.8" y1="830" x2="335.8" y2="833" stroke="#444"/>
<text x="335.8" y="845" text-anchor="middle" fill="#444">4</text>
<line x1="363.3" y1="830" x2="363.3" y2="833" stroke="#444"/>
<text x="363.3" y="845" text-anchor="middle" fill="#444">5</text>
<line x1="72" y1="830.0" x2="75" y2="830.0" stroke="#444"/>
<text x="69" y="833.0" text-anchor="end" fill="#444">-1.5</text>
<line x1="72" y1="790.0" x2="75" y2="790.0" stroke="#444"/>
<text x="69" y="793.0" text-anchor="end" fill="#444">-0.87</text>
<line x1="72" y1="750.0" x2="75" y2="750.0" stroke="#444"/>
<text x="69" y="753.0" text-anchor="end" fill="#444">-0.24</text>
<line x1="72" y1="710.0" x2="75" y2="710.0" stroke="#444"/>
<text x="69" y="713.0" text-anchor="end" fill="#444">0.39</text>
<line x1="72" y1="670.0" x2="75" y2="670.0" stroke="#444"/>
<text x="69" y="673.0" text-anchor="end" fill="#444">1</text>
<text x="226.0" y="864" text-anchor="middle" fill="#444">Event time (years from adoption)</text>
<text x="27" y="750.0" text-anchor="middle" fill="#444" transform="rotate(-90 27 750.0)">ATT (per 100k)</text>
<rect x="425" y="620" width="380" height="260" fill="#fafaf7" stroke="#e2e2dc"/>
<text x="615.0" y="638" text-anchor="middle" font-weight="600">Motor vehicle theft rate (per 100k) [placebo]</text>
<line x1="485" y1="802.7990990384957" x2="787" y2="802.7990990384957" stroke="#aaaaaa" stroke-width="0.7"/>
<polygon points="498.7,775.4 526.2,773.1 553.6,783.7 581.1,785.3 636.0,797.3 663.5,771.5 690.9,740.0 718.4,699.1 745.8,718.5 773.3,670.0 773.3,824.7 745.8,788.2 718.4,800.9 690.9,819.7 663.5,809.0 636.0,813.3 581.1,815.2 553.6,822.0 526.2,817.2 498.7,830.0" fill="#1f3a5f" opacity="0.18"/>
<polyline points="498.7,802.7 526.2,795.2 553.6,802.9 581.1,800.2 636.0,805.3 663.5,790.2 690.9,779.9 718.4,750.0 745.8,753.4 773.3,747.3" fill="none" stroke="#1f3a5f" stroke-width="1.6"/>
<circle cx="498.7" cy="802.7" r="2.6" fill="#1f3a5f"/>
<circle cx="526.2" cy="795.2" r="2.6" fill="#1f3a5f"/>
<circle cx="553.6" cy="802.9" r="2.6" fill="#1f3a5f"/>
<circle cx="581.1" cy="800.2" r="2.6" fill="#1f3a5f"/>
<circle cx="636.0" cy="805.3" r="2.6" fill="#1f3a5f"/>
<circle cx="663.5" cy="790.2" r="2.6" fill="#1f3a5f"/>
<circle cx="690.9" cy="779.9" r="2.6" fill="#1f3a5f"/>
<circle cx="718.4" cy="750.0" r="2.6" fill="#1f3a5f"/>
<circle cx="745.8" cy="753.4" r="2.6" fill="#1f3a5f"/>
<circle cx="773.3" cy="747.3" r="2.6" fill="#1f3a5f"/>
<line x1="622.3" y1="670" x2="622.3" y2="830" stroke="#b9461a" stroke-dasharray="3 3"/>
<line x1="485" y1="830" x2="787" y2="830" stroke="#444"/>
<line x1="485" y1="670" x2="485" y2="830" stroke="#444"/>
<line x1="498.7" y1="830" x2="498.7" y2="833" stroke="#444"/>
<text x="498.7" y="845" text-anchor="middle" fill="#444">-5</text>
<line x1="526.2" y1="830" x2="526.2" y2="833" stroke="#444"/>
<text x="526.2" y="845" text-anchor="middle" fill="#444">-4</text>
<line x1="553.6" y1="830" x2="553.6" y2="833" stroke="#444"/>
<text x="553.6" y="845" text-anchor="middle" fill="#444">-3</text>
<line x1="581.1" y1="830" x2="581.1" y2="833" stroke="#444"/>
<text x="581.1" y="845" text-anchor="middle" fill="#444">-2</text>
<line x1="636.0" y1="830" x2="636.0" y2="833" stroke="#444"/>
<text x="636.0" y="845" text-anchor="middle" fill="#444">0</text>
<line x1="663.5" y1="830" x2="663.5" y2="833" stroke="#444"/>
<text x="663.5" y="845" text-anchor="middle" fill="#444">1</text>
<line x1="690.9" y1="830" x2="690.9" y2="833" stroke="#444"/>
<text x="690.9" y="845" text-anchor="middle" fill="#444">2</text>
<line x1="718.4" y1="830" x2="718.4" y2="833" stroke="#444"/>
<text x="718.4" y="845" text-anchor="middle" fill="#444">3</text>
<line x1="745.8" y1="830" x2="745.8" y2="833" stroke="#444"/>
<text x="745.8" y="845" text-anchor="middle" fill="#444">4</text>
<line x1="773.3" y1="830" x2="773.3" y2="833" stroke="#444"/>
<text x="773.3" y="845" text-anchor="middle" fill="#444">5</text>
<line x1="482" y1="830.0" x2="485" y2="830.0" stroke="#444"/>
<text x="479" y="833.0" text-anchor="end" fill="#444">-32</text>
<line x1="482" y1="790.0" x2="485" y2="790.0" stroke="#444"/>
<text x="479" y="793.0" text-anchor="end" fill="#444">15</text>
<line x1="482" y1="750.0" x2="485" y2="750.0" stroke="#444"/>
<text x="479" y="753.0" text-anchor="end" fill="#444">62</text>
<line x1="482" y1="710.0" x2="485" y2="710.0" stroke="#444"/>
<text x="479" y="713.0" text-anchor="end" fill="#444">1.1e+02</text>
<line x1="482" y1="670.0" x2="485" y2="670.0" stroke="#444"/>
<text x="479" y="673.0" text-anchor="end" fill="#444">1.6e+02</text>
<text x="636.0" y="864" text-anchor="middle" fill="#444">Event time (years from adoption)</text>
<text x="437" y="750.0" text-anchor="middle" fill="#444" transform="rotate(-90 437 750.0)">ATT (per 100k)</text>
<text x="805" y="608" text-anchor="end" fill="#888" font-size="10">Shaded band: pointwise 95% CI from cluster bootstrap. Vertical dashed line marks the year before adoption.</text>
</svg>