<svg xmlns="http://www.w3.org/2000/svg" viewBox="0 0 820 620" font-family="-apple-system, Segoe UI, Helvetica, Arial, sans-serif" font-size="11">
<text x="410.0" y="22" text-anchor="middle" font-size="14" font-weight="600">Callaway-Sant'Anna ATT by event time (OR) -- red-flag (gvro)</text>
<rect x="15" y="40" width="380" height="260" fill="#fafaf7" stroke="#e2e2dc"/>
<text x="205.0" y="58" text-anchor="middle" font-weight="600">Firearm suicide rate (per 100k)</text>
<line x1="75" y1="172.2274332089437" x2="377" y2="172.2274332089437" stroke="#aaaaaa" stroke-width="0.7"/>
<polygon points="88.7,90.0 116.2,109.5 143.6,141.0 171.1,128.5 226.0,161.3 253.5,157.4 280.9,160.9 308.4,150.4 335.8,161.8 363.3,156.5 363.3,250.0 335.8,220.7 308.4,207.4 280.9,213.2 253.5,204.0 226.0,195.3 171.1,180.7 143.6,181.8 116.2,152.7 88.7,144.6" fill="#1f3a5f" opacity="0.18"/>
<polyline points="88.7,117.3 116.2,131.1 143.6,161.4 171.1,154.6 226.0,178.3 253.5,180.7 280.9,187.1 308.4,178.9 335.8,191.2 363.3,203.2" fill="none" stroke="#1f3a5f" stroke-width="1.6"/>
<circle cx="88.7" cy="117.3" r="2.6" fill="#1f3a5f"/>
<circle cx="116.2" cy="131.1" r="2.6" fill="#1f3a5f"/>
<circle cx="143.6" cy="161.4" r="2.6" fill="#1f3a5f"/>
<circle cx="171.1" cy="154.6" r="2.6" fill="#1f3a5f"/>
<circle cx="226.0" cy="178.3" r="2.6" fill="#1f3a5f"/>
<circle cx="253.5" cy="180.7" r="2.6" fill="#1f3a5f"/>
<circle cx="280.9" cy="187.1" r="2.6" fill="#1f3a5f"/>
<circle cx="308.4" cy="178.9" r="2.6" fill="#1f3a5f"/>
<circle cx="335.8" cy="191.2" r="2.6" fill="#1f3a5f"/>
<circle cx="363.3" cy="203.2" r="2.6" fill="#1f3a5f"/>
<line x1="212.3" y1="90" x2="212.3" y2="250" stroke="#b9461a" stroke-dasharray="3 3"/>
<line x1="75" y1="250" x2="377" y2="250" stroke="#444"/>
<line x1="75" y1="90" x2="75" y2="250" stroke="#444"/>
<line x1="88.7" y1="250" x2="88.7" y2="253" stroke="#444"/>
<text x="88.7" y="265" text-anchor="middle" fill="#444">-5</text>
<line x1="116.2" y1="250" x2="116.2" y2="253" stroke="#444"/>
<text x="116.2" y="265" text-anchor="middle" fill="#444">-4</text>
<line x1="143.6" y1="250" x2="143.6" y2="253" stroke="#444"/>
<text x="143.6" y="265" text-anchor="middle" fill="#444">-3</text>
<line x1="171.1" y1="250" x2="171.1" y2="253" stroke="#444"/>
<text x="171.1" y="265" text-anchor="middle" fill="#444">-2</text>
<line x1="226.0" y1="250" x2="226.0" y2="253" stroke="#444"/>
<text x="226.0" y="265" text-anchor="middle" fill="#444">0</text>
<line x1="253.5" y1="250" x2="253.5" y2="253" stroke="#444"/>
<text x="253.5" y="265" text-anchor="middle" fill="#444">1</text>
<line x1="280.9" y1="250" x2="280.9" y2="253" stroke="#444"/>
<text x="280.9" y="265" text-anchor="middle" fill="#444">2</text>
<line x1="308.4" y1="250" x2="308.4" y2="253" stroke="#444"/>
<text x="308.4" y="265" text-anchor="middle" fill="#444">3</text>
<line x1="335.8" y1="250" x2="335.8" y2="253" stroke="#444"/>
<text x="335.8" y="265" text-anchor="middle" fill="#444">4</text>
<line x1="363.3" y1="250" x2="363.3" y2="253" stroke="#444"/>
<text x="363.3" y="265" text-anchor="middle" fill="#444">5</text>
<line x1="72" y1="250.0" x2="75" y2="250.0" stroke="#444"/>
<text x="69" y="253.0" text-anchor="end" fill="#444">-1.1</text>
<line x1="72" y1="210.0" x2="75" y2="210.0" stroke="#444"/>
<text x="69" y="213.0" text-anchor="end" fill="#444">-0.54</text>
<line x1="72" y1="170.0" x2="75" y2="170.0" stroke="#444"/>
<text x="69" y="173.0" text-anchor="end" fill="#444">0.032</text>
<line x1="72" y1="130.0" x2="75" y2="130.0" stroke="#444"/>
<text x="69" y="133.0" text-anchor="end" fill="#444">0.6</text>
<line x1="72" y1="90.0" x2="75" y2="90.0" stroke="#444"/>
<text x="69" y="93.0" text-anchor="end" fill="#444">1.2</text>
<text x="226.0" y="284" text-anchor="middle" fill="#444">Event time (years from adoption)</text>
<text x="27" y="170.0" text-anchor="middle" fill="#444" transform="rotate(-90 27 170.0)">ATT (per 100k)</text>
<rect x="425" y="40" width="380" height="260" fill="#fafaf7" stroke="#e2e2dc"/>
<text x="615.0" y="58" text-anchor="middle" font-weight="600">Firearm homicide rate (per 100k)</text>
<line x1="485" y1="132.55246401523348" x2="787" y2="132.55246401523348" stroke="#aaaaaa" stroke-width="0.7"/>
<polygon points="498.7,90.0 526.2,96.8 553.6,96.0 581.1,106.2 636.0,143.5 663.5,125.6 690.9,122.9 718.4,125.9 745.8,151.5 773.3,155.0 773.3,250.0 745.8,219.3 718.4,185.6 690.9,185.4 663.5,180.4 636.0,166.8 581.1,140.4 553.6,132.7 526.2,146.5 498.7,138.9" fill="#1f3a5f" opacity="0.18"/>
<polyline points="498.7,114.4 526.2,121.6 553.6,114.4 581.1,123.3 636.0,155.2 663.5,153.0 690.9,154.1 718.4,155.8 745.8,185.4 773.3,202.5" fill="none" stroke="#1f3a5f" stroke-width="1.6"/>
<circle cx="498.7" cy="114.4" r="2.6" fill="#1f3a5f"/>
<circle cx="526.2" cy="121.6" r="2.6" fill="#1f3a5f"/>
<circle cx="553.6" cy="114.4" r="2.6" fill="#1f3a5f"/>
<circle cx="581.1" cy="123.3" r="2.6" fill="#1f3a5f"/>
<circle cx="636.0" cy="155.2" r="2.6" fill="#1f3a5f"/>
<circle cx="663.5" cy="153.0" r="2.6" fill="#1f3a5f"/>
<circle cx="690.9" cy="154.1" r="2.6" fill="#1f3a5f"/>
<circle cx="718.4" cy="155.8" r="2.6" fill="#1f3a5f"/>
<circle cx="745.8" cy="185.4" r="2.6" fill="#1f3a5f"/>
<circle cx="773.3" cy="202.5" r="2.6" fill="#1f3a5f"/>
<line x1="622.3" y1="90" x2="622.3" y2="250" stroke="#b9461a" stroke-dasharray="3 3"/>
<line x1="485" y1="250" x2="787" y2="250" stroke="#444"/>
<line x1="485" y1="90" x2="485" y2="250" stroke="#444"/>
<line x1="498.7" y1="250" x2="498.7" y2="253" stroke="#444"/>
<text x="498.7" y="265" text-anchor="middle" fill="#444">-5</text>
<line x1="526.2" y1="250" x2="526.2" y2="253" stroke="#444"/>
<text x="526.2" y="265" text-anchor="middle" fill="#444">-4</text>
<line x1="553.6" y1="250" x2="553.6" y2="253" stroke="#444"/>
<text x="553.6" y="265" text-anchor="middle" fill="#444">-3</text>
<line x1="581.1" y1="250" x2="581.1" y2="253" stroke="#444"/>
<text x="581.1" y="265" text-anchor="middle" fill="#444">-2</text>
<line x1="636.0" y1="250" x2="636.0" y2="253" stroke="#444"/>
<text x="636.0" y="265" text-anchor="middle" fill="#444">0</text>
<line x1="663.5" y1="250" x2="663.5" y2="253" stroke="#444"/>
<text x="663.5" y="265" text-anchor="middle" fill="#444">1</text>
<line x1="690.9" y1="250" x2="690.9" y2="253" stroke="#444"/>
<text x="690.9" y="265" text-anchor="middle" fill="#444">2</text>
<line x1="718.4" y1="250" x2="718.4" y2="253" stroke="#444"/>
<text x="718.4" y="265" text-anchor="middle" fill="#444">3</text>
<line x1="745.8" y1="250" x2="745.8" y2="253" stroke="#444"/>
<text x="745.8" y="265" text-anchor="middle" fill="#444">4</text>
<line x1="773.3" y1="250" x2="773.3" y2="253" stroke="#444"/>
<text x="773.3" y="265" text-anchor="middle" fill="#444">5</text>
<line x1="482" y1="250.0" x2="485" y2="250.0" stroke="#444"/>
<text x="479" y="253.0" text-anchor="end" fill="#444">-2.1</text>
<line x1="482" y1="210.0" x2="485" y2="210.0" stroke="#444"/>
<text x="479" y="213.0" text-anchor="end" fill="#444">-1.4</text>
<line x1="482" y1="170.0" x2="485" y2="170.0" stroke="#444"/>
<text x="479" y="173.0" text-anchor="end" fill="#444">-0.68</text>
<line x1="482" y1="130.0" x2="485" y2="130.0" stroke="#444"/>
<text x="479" y="133.0" text-anchor="end" fill="#444">0.046</text>
<line x1="482" y1="90.0" x2="485" y2="90.0" stroke="#444"/>
<text x="479" y="93.0" text-anchor="end" fill="#444">0.77</text>
<text x="636.0" y="284" text-anchor="middle" fill="#444">Event time (years from adoption)</text>
<text x="437" y="170.0" text-anchor="middle" fill="#444" transform="rotate(-90 437 170.0)">ATT (per 100k)</text>
<rect x="15" y="330" width="380" height="260" fill="#fafaf7" stroke="#e2e2dc"/>
<text x="205.0" y="348" text-anchor="middle" font-weight="600">Total homicide rate (per 100k)</text>
<line x1="75" y1="444.8530727190923" x2="377" y2="444.8530727190923" stroke="#aaaaaa" stroke-width="0.7"/>
<polygon points="88.7,407.8 116.2,395.9 143.6,380.0 171.1,421.9 226.0,459.0 253.5,430.3 280.9,429.2 308.4,397.6 335.8,460.0 363.3,436.9 363.3,540.0 335.8,533.0 308.4,491.1 280.9,499.5 253.5,498.4 226.0,483.3 171.1,457.5 143.6,448.7 116.2,471.3 88.7,476.3" fill="#1f3a5f" opacity="0.18"/>
<polyline points="88.7,442.1 116.2,433.6 143.6,414.4 171.1,439.7 226.0,471.2 253.5,464.3 280.9,464.3 308.4,444.3 335.8,496.5 363.3,488.4" fill="none" stroke="#1f3a5f" stroke-width="1.6"/>
<circle cx="88.7" cy="442.1" r="2.6" fill="#1f3a5f"/>
<circle cx="116.2" cy="433.6" r="2.6" fill="#1f3a5f"/>
<circle cx="143.6" cy="414.4" r="2.6" fill="#1f3a5f"/>
<circle cx="171.1" cy="439.7" r="2.6" fill="#1f3a5f"/>
<circle cx="226.0" cy="471.2" r="2.6" fill="#1f3a5f"/>
<circle cx="253.5" cy="464.3" r="2.6" fill="#1f3a5f"/>
<circle cx="280.9" cy="464.3" r="2.6" fill="#1f3a5f"/>
<circle cx="308.4" cy="444.3" r="2.6" fill="#1f3a5f"/>
<circle cx="335.8" cy="496.5" r="2.6" fill="#1f3a5f"/>
<circle cx="363.3" cy="488.4" r="2.6" fill="#1f3a5f"/>
<line x1="212.3" y1="380" x2="212.3" y2="540" stroke="#b9461a" stroke-dasharray="3 3"/>
<line x1="75" y1="540" x2="377" y2="540" stroke="#444"/>
<line x1="75" y1="380" x2="75" y2="540" stroke="#444"/>
<line x1="88.7" y1="540" x2="88.7" y2="543" stroke="#444"/>
<text x="88.7" y="555" text-anchor="middle" fill="#444">-5</text>
<line x1="116.2" y1="540" x2="116.2" y2="543" stroke="#444"/>
<text x="116.2" y="555" text-anchor="middle" fill="#444">-4</text>
<line x1="143.6" y1="540" x2="143.6" y2="543" stroke="#444"/>
<text x="143.6" y="555" text-anchor="middle" fill="#444">-3</text>
<line x1="171.1" y1="540" x2="171.1" y2="543" stroke="#444"/>
<text x="171.1" y="555" text-anchor="middle" fill="#444">-2</text>
<line x1="226.0" y1="540" x2="226.0" y2="543" stroke="#444"/>
<text x="226.0" y="555" text-anchor="middle" fill="#444">0</text>
<line x1="253.5" y1="540" x2="253.5" y2="543" stroke="#444"/>
<text x="253.5" y="555" text-anchor="middle" fill="#444">1</text>
<line x1="280.9" y1="540" x2="280.9" y2="543" stroke="#444"/>
<text x="280.9" y="555" text-anchor="middle" fill="#444">2</text>
<line x1="308.4" y1="540" x2="308.4" y2="543" stroke="#444"/>
<text x="308.4" y="555" text-anchor="middle" fill="#444">3</text>
<line x1="335.8" y1="540" x2="335.8" y2="543" stroke="#444"/>
<text x="335.8" y="555" text-anchor="middle" fill="#444">4</text>
<line x1="363.3" y1="540" x2="363.3" y2="543" stroke="#444"/>
<text x="363.3" y="555" text-anchor="middle" fill="#444">5</text>
<line x1="72" y1="540.0" x2="75" y2="540.0" stroke="#444"/>
<text x="69" y="543.0" text-anchor="end" fill="#444">-1.5</text>
<line x1="72" y1="500.0" x2="75" y2="500.0" stroke="#444"/>
<text x="69" y="503.0" text-anchor="end" fill="#444">-0.87</text>
<line x1="72" y1="460.0" x2="75" y2="460.0" stroke="#444"/>
<text x="69" y="463.0" text-anchor="end" fill="#444">-0.24</text>
<line x1="72" y1="420.0" x2="75" y2="420.0" stroke="#444"/>
<text x="69" y="423.0" text-anchor="end" fill="#444">0.39</text>
<line x1="72" y1="380.0" x2="75" y2="380.0" stroke="#444"/>
<text x="69" y="383.0" text-anchor="end" fill="#444">1</text>
<text x="226.0" y="574" text-anchor="middle" fill="#444">Event time (years from adoption)</text>
<text x="27" y="460.0" text-anchor="middle" fill="#444" transform="rotate(-90 27 460.0)">ATT (per 100k)</text>
<rect x="425" y="330" width="380" height="260" fill="#fafaf7" stroke="#e2e2dc"/>
<text x="615.0" y="348" text-anchor="middle" font-weight="600">Motor vehicle theft rate (per 100k) [placebo]</text>
<line x1="485" y1="512.7990990384957" x2="787" y2="512.7990990384957" stroke="#aaaaaa" stroke-width="0.7"/>
<polygon points="498.7,485.4 526.2,483.1 553.6,493.7 581.1,495.3 636.0,507.3 663.5,481.5 690.9,450.0 718.4,409.1 745.8,428.5 773.3,380.0 773.3,534.7 745.8,498.2 718.4,510.9 690.9,529.7 663.5,519.0 636.0,523.3 581.1,525.2 553.6,532.0 526.2,527.2 498.7,540.0" fill="#1f3a5f" opacity="0.18"/>
<polyline points="498.7,512.7 526.2,505.2 553.6,512.9 581.1,510.2 636.0,515.3 663.5,500.2 690.9,489.9 718.4,460.0 745.8,463.4 773.3,457.3" fill="none" stroke="#1f3a5f" stroke-width="1.6"/>
<circle cx="498.7" cy="512.7" r="2.6" fill="#1f3a5f"/>
<circle cx="526.2" cy="505.2" r="2.6" fill="#1f3a5f"/>
<circle cx="553.6" cy="512.9" r="2.6" fill="#1f3a5f"/>
<circle cx="581.1" cy="510.2" r="2.6" fill="#1f3a5f"/>
<circle cx="636.0" cy="515.3" r="2.6" fill="#1f3a5f"/>
<circle cx="663.5" cy="500.2" r="2.6" fill="#1f3a5f"/>
<circle cx="690.9" cy="489.9" r="2.6" fill="#1f3a5f"/>
<circle cx="718.4" cy="460.0" r="2.6" fill="#1f3a5f"/>
<circle cx="745.8" cy="463.4" r="2.6" fill="#1f3a5f"/>
<circle cx="773.3" cy="457.3" r="2.6" fill="#1f3a5f"/>
<line x1="622.3" y1="380" x2="622.3" y2="540" stroke="#b9461a" stroke-dasharray="3 3"/>
<line x1="485" y1="540" x2="787" y2="540" stroke="#444"/>
<line x1="485" y1="380" x2="485" y2="540" stroke="#444"/>
<line x1="498.7" y1="540" x2="498.7" y2="543" stroke="#444"/>
<text x="498.7" y="555" text-anchor="middle" fill="#444">-5</text>
<line x1="526.2" y1="540" x2="526.2" y2="543" stroke="#444"/>
<text x="526.2" y="555" text-anchor="middle" fill="#444">-4</text>
<line x1="553.6" y1="540" x2="553.6" y2="543" stroke="#444"/>
<text x="553.6" y="555" text-anchor="middle" fill="#444">-3</text>
<line x1="581.1" y1="540" x2="581.1" y2="543" stroke="#444"/>
<text x="581.1" y="555" text-anchor="middle" fill="#444">-2</text>
<line x1="636.0" y1="540" x2="636.0" y2="543" stroke="#444"/>
<text x="636.0" y="555" text-anchor="middle" fill="#444">0</text>
<line x1="663.5" y1="540" x2="663.5" y2="543" stroke="#444"/>
<text x="663.5" y="555" text-anchor="middle" fill="#444">1</text>
<line x1="690.9" y1="540" x2="690.9" y2="543" stroke="#444"/>
<text x="690.9" y="555" text-anchor="middle" fill="#444">2</text>
<line x1="718.4" y1="540" x2="718.4" y2="543" stroke="#444"/>
<text x="718.4" y="555" text-anchor="middle" fill="#444">3</text>
<line x1="745.8" y1="540" x2="745.8" y2="543" stroke="#444"/>
<text x="745.8" y="555" text-anchor="middle" fill="#444">4</text>
<line x1="773.3" y1="540" x2="773.3" y2="543" stroke="#444"/>
<text x="773.3" y="555" text-anchor="middle" fill="#444">5</text>
<line x1="482" y1="540.0" x2="485" y2="540.0" stroke="#444"/>
<text x="479" y="543.0" text-anchor="end" fill="#444">-32</text>
<line x1="482" y1="500.0" x2="485" y2="500.0" stroke="#444"/>
<text x="479" y="503.0" text-anchor="end" fill="#444">15</text>
<line x1="482" y1="460.0" x2="485" y2="460.0" stroke="#444"/>
<text x="479" y="463.0" text-anchor="end" fill="#444">62</text>
<line x1="482" y1="420.0" x2="485" y2="420.0" stroke="#444"/>
<text x="479" y="423.0" text-anchor="end" fill="#444">1.1e+02</text>
<line x1="482" y1="380.0" x2="485" y2="380.0" stroke="#444"/>
<text x="479" y="383.0" text-anchor="end" fill="#444">1.6e+02</text>
<text x="636.0" y="574" text-anchor="middle" fill="#444">Event time (years from adoption)</text>
<text x="437" y="460.0" text-anchor="middle" fill="#444" transform="rotate(-90 437 460.0)">ATT (per 100k)</text>
<text x="805" y="608" text-anchor="end" fill="#888" font-size="10">Shaded band: pointwise 95% CI from cluster bootstrap. Vertical dashed line marks the year before adoption.</text>
</svg>