<svg xmlns="http://www.w3.org/2000/svg" viewBox="0 0 820 620" font-family="-apple-system, Segoe UI, Helvetica, Arial, sans-serif" font-size="11">
<text x="410.0" y="22" text-anchor="middle" font-size="14" font-weight="600">Callaway-Sant'Anna ATT by event time (OR) -- red flag</text>
<rect x="15" y="40" width="380" height="260" fill="#fafaf7" stroke="#e2e2dc"/>
<text x="205.0" y="58" text-anchor="middle" font-weight="600">Firearm suicide rate (per 100k)</text>
<line x1="75" y1="171.75947639294893" x2="377" y2="171.75947639294893" stroke="#aaaaaa" stroke-width="0.7"/>
<polygon points="88.7,90.0 116.2,107.6 143.6,139.5 171.1,129.3 226.0,159.4 253.5,157.7 280.9,162.2 308.4,152.5 335.8,163.3 363.3,156.3 363.3,250.0 335.8,220.5 308.4,209.8 280.9,214.4 253.5,204.0 226.0,193.5 171.1,179.9 143.6,178.5 116.2,149.4 88.7,142.9" fill="#1f3a5f" opacity="0.18"/>
<polyline points="88.7,116.4 116.2,128.5 143.6,159.0 171.1,154.6 226.0,176.4 253.5,180.8 280.9,188.3 308.4,181.1 335.8,191.9 363.3,203.2" fill="none" stroke="#1f3a5f" stroke-width="1.6"/>
<circle cx="88.7" cy="116.4" r="2.6" fill="#1f3a5f"/>
<circle cx="116.2" cy="128.5" r="2.6" fill="#1f3a5f"/>
<circle cx="143.6" cy="159.0" r="2.6" fill="#1f3a5f"/>
<circle cx="171.1" cy="154.6" r="2.6" fill="#1f3a5f"/>
<circle cx="226.0" cy="176.4" r="2.6" fill="#1f3a5f"/>
<circle cx="253.5" cy="180.8" r="2.6" fill="#1f3a5f"/>
<circle cx="280.9" cy="188.3" r="2.6" fill="#1f3a5f"/>
<circle cx="308.4" cy="181.1" r="2.6" fill="#1f3a5f"/>
<circle cx="335.8" cy="191.9" r="2.6" fill="#1f3a5f"/>
<circle cx="363.3" cy="203.2" r="2.6" fill="#1f3a5f"/>
<line x1="212.3" y1="90" x2="212.3" y2="250" stroke="#b9461a" stroke-dasharray="3 3"/>
<line x1="75" y1="250" x2="377" y2="250" stroke="#444"/>
<line x1="75" y1="90" x2="75" y2="250" stroke="#444"/>
<line x1="88.7" y1="250" x2="88.7" y2="253" stroke="#444"/>
<text x="88.7" y="265" text-anchor="middle" fill="#444">-5</text>
<line x1="116.2" y1="250" x2="116.2" y2="253" stroke="#444"/>
<text x="116.2" y="265" text-anchor="middle" fill="#444">-4</text>
<line x1="143.6" y1="250" x2="143.6" y2="253" stroke="#444"/>
<text x="143.6" y="265" text-anchor="middle" fill="#444">-3</text>
<line x1="171.1" y1="250" x2="171.1" y2="253" stroke="#444"/>
<text x="171.1" y="265" text-anchor="middle" fill="#444">-2</text>
<line x1="226.0" y1="250" x2="226.0" y2="253" stroke="#444"/>
<text x="226.0" y="265" text-anchor="middle" fill="#444">0</text>
<line x1="253.5" y1="250" x2="253.5" y2="253" stroke="#444"/>
<text x="253.5" y="265" text-anchor="middle" fill="#444">1</text>
<line x1="280.9" y1="250" x2="280.9" y2="253" stroke="#444"/>
<text x="280.9" y="265" text-anchor="middle" fill="#444">2</text>
<line x1="308.4" y1="250" x2="308.4" y2="253" stroke="#444"/>
<text x="308.4" y="265" text-anchor="middle" fill="#444">3</text>
<line x1="335.8" y1="250" x2="335.8" y2="253" stroke="#444"/>
<text x="335.8" y="265" text-anchor="middle" fill="#444">4</text>
<line x1="363.3" y1="250" x2="363.3" y2="253" stroke="#444"/>
<text x="363.3" y="265" text-anchor="middle" fill="#444">5</text>
<line x1="72" y1="250.0" x2="75" y2="250.0" stroke="#444"/>
<text x="69" y="253.0" text-anchor="end" fill="#444">-1.2</text>
<line x1="72" y1="210.0" x2="75" y2="210.0" stroke="#444"/>
<text x="69" y="213.0" text-anchor="end" fill="#444">-0.58</text>
<line x1="72" y1="170.0" x2="75" y2="170.0" stroke="#444"/>
<text x="69" y="173.0" text-anchor="end" fill="#444">0.027</text>
<line x1="72" y1="130.0" x2="75" y2="130.0" stroke="#444"/>
<text x="69" y="133.0" text-anchor="end" fill="#444">0.64</text>
<line x1="72" y1="90.0" x2="75" y2="90.0" stroke="#444"/>
<text x="69" y="93.0" text-anchor="end" fill="#444">1.2</text>
<text x="226.0" y="284" text-anchor="middle" fill="#444">Event time (years from adoption)</text>
<text x="27" y="170.0" text-anchor="middle" fill="#444" transform="rotate(-90 27 170.0)">ATT (per 100k)</text>
<rect x="425" y="40" width="380" height="260" fill="#fafaf7" stroke="#e2e2dc"/>
<text x="615.0" y="58" text-anchor="middle" font-weight="600">Non-firearm suicide rate (per 100k) [substitution test]</text>
<line x1="485" y1="179.5736061156304" x2="787" y2="179.5736061156304" stroke="#aaaaaa" stroke-width="0.7"/>
<polygon points="498.7,110.5 526.2,116.2 553.6,137.6 581.1,154.0 636.0,152.6 663.5,138.2 690.9,120.8 718.4,160.9 745.8,144.9 773.3,90.0 773.3,164.4 745.8,226.9 718.4,215.0 690.9,201.2 663.5,216.5 636.0,216.2 581.1,236.4 553.6,192.8 526.2,250.0 498.7,187.1" fill="#1f3a5f" opacity="0.18"/>
<polyline points="498.7,148.8 526.2,183.1 553.6,165.2 581.1,195.2 636.0,184.4 663.5,177.3 690.9,161.0 718.4,187.9 745.8,185.9 773.3,127.2" fill="none" stroke="#1f3a5f" stroke-width="1.6"/>
<circle cx="498.7" cy="148.8" r="2.6" fill="#1f3a5f"/>
<circle cx="526.2" cy="183.1" r="2.6" fill="#1f3a5f"/>
<circle cx="553.6" cy="165.2" r="2.6" fill="#1f3a5f"/>
<circle cx="581.1" cy="195.2" r="2.6" fill="#1f3a5f"/>
<circle cx="636.0" cy="184.4" r="2.6" fill="#1f3a5f"/>
<circle cx="663.5" cy="177.3" r="2.6" fill="#1f3a5f"/>
<circle cx="690.9" cy="161.0" r="2.6" fill="#1f3a5f"/>
<circle cx="718.4" cy="187.9" r="2.6" fill="#1f3a5f"/>
<circle cx="745.8" cy="185.9" r="2.6" fill="#1f3a5f"/>
<circle cx="773.3" cy="127.2" r="2.6" fill="#1f3a5f"/>
<line x1="622.3" y1="90" x2="622.3" y2="250" stroke="#b9461a" stroke-dasharray="3 3"/>
<line x1="485" y1="250" x2="787" y2="250" stroke="#444"/>
<line x1="485" y1="90" x2="485" y2="250" stroke="#444"/>
<line x1="498.7" y1="250" x2="498.7" y2="253" stroke="#444"/>
<text x="498.7" y="265" text-anchor="middle" fill="#444">-5</text>
<line x1="526.2" y1="250" x2="526.2" y2="253" stroke="#444"/>
<text x="526.2" y="265" text-anchor="middle" fill="#444">-4</text>
<line x1="553.6" y1="250" x2="553.6" y2="253" stroke="#444"/>
<text x="553.6" y="265" text-anchor="middle" fill="#444">-3</text>
<line x1="581.1" y1="250" x2="581.1" y2="253" stroke="#444"/>
<text x="581.1" y="265" text-anchor="middle" fill="#444">-2</text>
<line x1="636.0" y1="250" x2="636.0" y2="253" stroke="#444"/>
<text x="636.0" y="265" text-anchor="middle" fill="#444">0</text>
<line x1="663.5" y1="250" x2="663.5" y2="253" stroke="#444"/>
<text x="663.5" y="265" text-anchor="middle" fill="#444">1</text>
<line x1="690.9" y1="250" x2="690.9" y2="253" stroke="#444"/>
<text x="690.9" y="265" text-anchor="middle" fill="#444">2</text>
<line x1="718.4" y1="250" x2="718.4" y2="253" stroke="#444"/>
<text x="718.4" y="265" text-anchor="middle" fill="#444">3</text>
<line x1="745.8" y1="250" x2="745.8" y2="253" stroke="#444"/>
<text x="745.8" y="265" text-anchor="middle" fill="#444">4</text>
<line x1="773.3" y1="250" x2="773.3" y2="253" stroke="#444"/>
<text x="773.3" y="265" text-anchor="middle" fill="#444">5</text>
<line x1="482" y1="250.0" x2="485" y2="250.0" stroke="#444"/>
<text x="479" y="253.0" text-anchor="end" fill="#444">-0.59</text>
<line x1="482" y1="210.0" x2="485" y2="210.0" stroke="#444"/>
<text x="479" y="213.0" text-anchor="end" fill="#444">-0.25</text>
<line x1="482" y1="170.0" x2="485" y2="170.0" stroke="#444"/>
<text x="479" y="173.0" text-anchor="end" fill="#444">0.08</text>
<line x1="482" y1="130.0" x2="485" y2="130.0" stroke="#444"/>
<text x="479" y="133.0" text-anchor="end" fill="#444">0.41</text>
<line x1="482" y1="90.0" x2="485" y2="90.0" stroke="#444"/>
<text x="479" y="93.0" text-anchor="end" fill="#444">0.75</text>
<text x="636.0" y="284" text-anchor="middle" fill="#444">Event time (years from adoption)</text>
<text x="437" y="170.0" text-anchor="middle" fill="#444" transform="rotate(-90 437 170.0)">ATT (per 100k)</text>
<rect x="15" y="330" width="380" height="260" fill="#fafaf7" stroke="#e2e2dc"/>
<text x="205.0" y="348" text-anchor="middle" font-weight="600">Total suicide rate (per 100k) [net effect]</text>
<line x1="75" y1="481.43058144094647" x2="377" y2="481.43058144094647" stroke="#aaaaaa" stroke-width="0.7"/>
<polygon points="88.7,380.0 116.2,399.1 143.6,438.0 171.1,438.4 226.0,469.9 253.5,453.8 280.9,454.7 308.4,461.3 335.8,470.4 363.3,428.1 363.3,540.0 335.8,536.8 308.4,527.7 280.9,520.2 253.5,523.8 226.0,506.7 171.1,508.3 143.6,486.1 116.2,486.3 88.7,447.6" fill="#1f3a5f" opacity="0.18"/>
<polyline points="88.7,413.8 116.2,442.7 143.6,462.1 171.1,473.3 226.0,488.3 253.5,488.8 280.9,487.4 308.4,494.5 335.8,503.6 363.3,484.0" fill="none" stroke="#1f3a5f" stroke-width="1.6"/>
<circle cx="88.7" cy="413.8" r="2.6" fill="#1f3a5f"/>
<circle cx="116.2" cy="442.7" r="2.6" fill="#1f3a5f"/>
<circle cx="143.6" cy="462.1" r="2.6" fill="#1f3a5f"/>
<circle cx="171.1" cy="473.3" r="2.6" fill="#1f3a5f"/>
<circle cx="226.0" cy="488.3" r="2.6" fill="#1f3a5f"/>
<circle cx="253.5" cy="488.8" r="2.6" fill="#1f3a5f"/>
<circle cx="280.9" cy="487.4" r="2.6" fill="#1f3a5f"/>
<circle cx="308.4" cy="494.5" r="2.6" fill="#1f3a5f"/>
<circle cx="335.8" cy="503.6" r="2.6" fill="#1f3a5f"/>
<circle cx="363.3" cy="484.0" r="2.6" fill="#1f3a5f"/>
<line x1="212.3" y1="380" x2="212.3" y2="540" stroke="#b9461a" stroke-dasharray="3 3"/>
<line x1="75" y1="540" x2="377" y2="540" stroke="#444"/>
<line x1="75" y1="380" x2="75" y2="540" stroke="#444"/>
<line x1="88.7" y1="540" x2="88.7" y2="543" stroke="#444"/>
<text x="88.7" y="555" text-anchor="middle" fill="#444">-5</text>
<line x1="116.2" y1="540" x2="116.2" y2="543" stroke="#444"/>
<text x="116.2" y="555" text-anchor="middle" fill="#444">-4</text>
<line x1="143.6" y1="540" x2="143.6" y2="543" stroke="#444"/>
<text x="143.6" y="555" text-anchor="middle" fill="#444">-3</text>
<line x1="171.1" y1="540" x2="171.1" y2="543" stroke="#444"/>
<text x="171.1" y="555" text-anchor="middle" fill="#444">-2</text>
<line x1="226.0" y1="540" x2="226.0" y2="543" stroke="#444"/>
<text x="226.0" y="555" text-anchor="middle" fill="#444">0</text>
<line x1="253.5" y1="540" x2="253.5" y2="543" stroke="#444"/>
<text x="253.5" y="555" text-anchor="middle" fill="#444">1</text>
<line x1="280.9" y1="540" x2="280.9" y2="543" stroke="#444"/>
<text x="280.9" y="555" text-anchor="middle" fill="#444">2</text>
<line x1="308.4" y1="540" x2="308.4" y2="543" stroke="#444"/>
<text x="308.4" y="555" text-anchor="middle" fill="#444">3</text>
<line x1="335.8" y1="540" x2="335.8" y2="543" stroke="#444"/>
<text x="335.8" y="555" text-anchor="middle" fill="#444">4</text>
<line x1="363.3" y1="540" x2="363.3" y2="543" stroke="#444"/>
<text x="363.3" y="555" text-anchor="middle" fill="#444">5</text>
<line x1="72" y1="540.0" x2="75" y2="540.0" stroke="#444"/>
<text x="69" y="543.0" text-anchor="end" fill="#444">-0.95</text>
<line x1="72" y1="500.0" x2="75" y2="500.0" stroke="#444"/>
<text x="69" y="503.0" text-anchor="end" fill="#444">-0.3</text>
<line x1="72" y1="460.0" x2="75" y2="460.0" stroke="#444"/>
<text x="69" y="463.0" text-anchor="end" fill="#444">0.35</text>
<line x1="72" y1="420.0" x2="75" y2="420.0" stroke="#444"/>
<text x="69" y="423.0" text-anchor="end" fill="#444">1</text>
<line x1="72" y1="380.0" x2="75" y2="380.0" stroke="#444"/>
<text x="69" y="383.0" text-anchor="end" fill="#444">1.6</text>
<text x="226.0" y="574" text-anchor="middle" fill="#444">Event time (years from adoption)</text>
<text x="27" y="460.0" text-anchor="middle" fill="#444" transform="rotate(-90 27 460.0)">ATT (per 100k)</text>
<rect x="425" y="330" width="380" height="260" fill="#fafaf7" stroke="#e2e2dc"/>
<text x="615.0" y="348" text-anchor="middle" font-weight="600">Firearm homicide rate (per 100k)</text>
<line x1="485" y1="425.6361443207097" x2="787" y2="425.6361443207097" stroke="#aaaaaa" stroke-width="0.7"/>
<polygon points="498.7,380.0 526.2,388.4 553.6,388.7 581.1,399.0 636.0,435.9 663.5,418.9 690.9,414.9 718.4,416.8 745.8,442.0 773.3,444.5 773.3,540.0 745.8,512.8 718.4,478.1 690.9,480.1 663.5,475.3 636.0,459.9 581.1,433.0 553.6,426.0 526.2,438.8 498.7,430.2" fill="#1f3a5f" opacity="0.18"/>
<polyline points="498.7,405.1 526.2,413.6 553.6,407.4 581.1,416.0 636.0,447.9 663.5,447.1 690.9,447.5 718.4,447.4 745.8,477.4 773.3,492.2" fill="none" stroke="#1f3a5f" stroke-width="1.6"/>
<circle cx="498.7" cy="405.1" r="2.6" fill="#1f3a5f"/>
<circle cx="526.2" cy="413.6" r="2.6" fill="#1f3a5f"/>
<circle cx="553.6" cy="407.4" r="2.6" fill="#1f3a5f"/>
<circle cx="581.1" cy="416.0" r="2.6" fill="#1f3a5f"/>
<circle cx="636.0" cy="447.9" r="2.6" fill="#1f3a5f"/>
<circle cx="663.5" cy="447.1" r="2.6" fill="#1f3a5f"/>
<circle cx="690.9" cy="447.5" r="2.6" fill="#1f3a5f"/>
<circle cx="718.4" cy="447.4" r="2.6" fill="#1f3a5f"/>
<circle cx="745.8" cy="477.4" r="2.6" fill="#1f3a5f"/>
<circle cx="773.3" cy="492.2" r="2.6" fill="#1f3a5f"/>
<line x1="622.3" y1="380" x2="622.3" y2="540" stroke="#b9461a" stroke-dasharray="3 3"/>
<line x1="485" y1="540" x2="787" y2="540" stroke="#444"/>
<line x1="485" y1="380" x2="485" y2="540" stroke="#444"/>
<line x1="498.7" y1="540" x2="498.7" y2="543" stroke="#444"/>
<text x="498.7" y="555" text-anchor="middle" fill="#444">-5</text>
<line x1="526.2" y1="540" x2="526.2" y2="543" stroke="#444"/>
<text x="526.2" y="555" text-anchor="middle" fill="#444">-4</text>
<line x1="553.6" y1="540" x2="553.6" y2="543" stroke="#444"/>
<text x="553.6" y="555" text-anchor="middle" fill="#444">-3</text>
<line x1="581.1" y1="540" x2="581.1" y2="543" stroke="#444"/>
<text x="581.1" y="555" text-anchor="middle" fill="#444">-2</text>
<line x1="636.0" y1="540" x2="636.0" y2="543" stroke="#444"/>
<text x="636.0" y="555" text-anchor="middle" fill="#444">0</text>
<line x1="663.5" y1="540" x2="663.5" y2="543" stroke="#444"/>
<text x="663.5" y="555" text-anchor="middle" fill="#444">1</text>
<line x1="690.9" y1="540" x2="690.9" y2="543" stroke="#444"/>
<text x="690.9" y="555" text-anchor="middle" fill="#444">2</text>
<line x1="718.4" y1="540" x2="718.4" y2="543" stroke="#444"/>
<text x="718.4" y="555" text-anchor="middle" fill="#444">3</text>
<line x1="745.8" y1="540" x2="745.8" y2="543" stroke="#444"/>
<text x="745.8" y="555" text-anchor="middle" fill="#444">4</text>
<line x1="773.3" y1="540" x2="773.3" y2="543" stroke="#444"/>
<text x="773.3" y="555" text-anchor="middle" fill="#444">5</text>
<line x1="482" y1="540.0" x2="485" y2="540.0" stroke="#444"/>
<text x="479" y="543.0" text-anchor="end" fill="#444">-2.1</text>
<line x1="482" y1="500.0" x2="485" y2="500.0" stroke="#444"/>
<text x="479" y="503.0" text-anchor="end" fill="#444">-1.3</text>
<line x1="482" y1="460.0" x2="485" y2="460.0" stroke="#444"/>
<text x="479" y="463.0" text-anchor="end" fill="#444">-0.62</text>
<line x1="482" y1="420.0" x2="485" y2="420.0" stroke="#444"/>
<text x="479" y="423.0" text-anchor="end" fill="#444">0.1</text>
<line x1="482" y1="380.0" x2="485" y2="380.0" stroke="#444"/>
<text x="479" y="383.0" text-anchor="end" fill="#444">0.82</text>
<text x="636.0" y="574" text-anchor="middle" fill="#444">Event time (years from adoption)</text>
<text x="437" y="460.0" text-anchor="middle" fill="#444" transform="rotate(-90 437 460.0)">ATT (per 100k)</text>
<rect x="15" y="620" width="380" height="260" fill="#fafaf7" stroke="#e2e2dc"/>
<text x="205.0" y="638" text-anchor="middle" font-weight="600">Total homicide rate (per 100k)</text>
<line x1="75" y1="736.1732050321968" x2="377" y2="736.1732050321968" stroke="#aaaaaa" stroke-width="0.7"/>
<polygon points="88.7,696.6 116.2,686.4 143.6,670.0 171.1,712.9 226.0,749.8 253.5,721.6 280.9,720.6 308.4,684.9 335.8,751.8 363.3,725.5 363.3,830.0 335.8,825.6 308.4,783.1 280.9,792.7 253.5,792.4 226.0,776.0 171.1,749.4 143.6,740.8 116.2,763.0 88.7,766.7" fill="#1f3a5f" opacity="0.18"/>
<polyline points="88.7,731.6 116.2,724.7 143.6,705.4 171.1,731.1 226.0,762.9 253.5,757.0 280.9,756.7 308.4,734.0 335.8,788.7 363.3,777.7" fill="none" stroke="#1f3a5f" stroke-width="1.6"/>
<circle cx="88.7" cy="731.6" r="2.6" fill="#1f3a5f"/>
<circle cx="116.2" cy="724.7" r="2.6" fill="#1f3a5f"/>
<circle cx="143.6" cy="705.4" r="2.6" fill="#1f3a5f"/>
<circle cx="171.1" cy="731.1" r="2.6" fill="#1f3a5f"/>
<circle cx="226.0" cy="762.9" r="2.6" fill="#1f3a5f"/>
<circle cx="253.5" cy="757.0" r="2.6" fill="#1f3a5f"/>
<circle cx="280.9" cy="756.7" r="2.6" fill="#1f3a5f"/>
<circle cx="308.4" cy="734.0" r="2.6" fill="#1f3a5f"/>
<circle cx="335.8" cy="788.7" r="2.6" fill="#1f3a5f"/>
<circle cx="363.3" cy="777.7" r="2.6" fill="#1f3a5f"/>
<line x1="212.3" y1="670" x2="212.3" y2="830" stroke="#b9461a" stroke-dasharray="3 3"/>
<line x1="75" y1="830" x2="377" y2="830" stroke="#444"/>
<line x1="75" y1="670" x2="75" y2="830" stroke="#444"/>
<line x1="88.7" y1="830" x2="88.7" y2="833" stroke="#444"/>
<text x="88.7" y="845" text-anchor="middle" fill="#444">-5</text>
<line x1="116.2" y1="830" x2="116.2" y2="833" stroke="#444"/>
<text x="116.2" y="845" text-anchor="middle" fill="#444">-4</text>
<line x1="143.6" y1="830" x2="143.6" y2="833" stroke="#444"/>
<text x="143.6" y="845" text-anchor="middle" fill="#444">-3</text>
<line x1="171.1" y1="830" x2="171.1" y2="833" stroke="#444"/>
<text x="171.1" y="845" text-anchor="middle" fill="#444">-2</text>
<line x1="226.0" y1="830" x2="226.0" y2="833" stroke="#444"/>
<text x="226.0" y="845" text-anchor="middle" fill="#444">0</text>
<line x1="253.5" y1="830" x2="253.5" y2="833" stroke="#444"/>
<text x="253.5" y="845" text-anchor="middle" fill="#444">1</text>
<line x1="280.9" y1="830" x2="280.9" y2="833" stroke="#444"/>
<text x="280.9" y="845" text-anchor="middle" fill="#444">2</text>
<line x1="308.4" y1="830" x2="308.4" y2="833" stroke="#444"/>
<text x="308.4" y="845" text-anchor="middle" fill="#444">3</text>
<line x1="335.8" y1="830" x2="335.8" y2="833" stroke="#444"/>
<text x="335.8" y="845" text-anchor="middle" fill="#444">4</text>
<line x1="363.3" y1="830" x2="363.3" y2="833" stroke="#444"/>
<text x="363.3" y="845" text-anchor="middle" fill="#444">5</text>
<line x1="72" y1="830.0" x2="75" y2="830.0" stroke="#444"/>
<text x="69" y="833.0" text-anchor="end" fill="#444">-1.5</text>
<line x1="72" y1="790.0" x2="75" y2="790.0" stroke="#444"/>
<text x="69" y="793.0" text-anchor="end" fill="#444">-0.84</text>
<line x1="72" y1="750.0" x2="75" y2="750.0" stroke="#444"/>
<text x="69" y="753.0" text-anchor="end" fill="#444">-0.22</text>
<line x1="72" y1="710.0" x2="75" y2="710.0" stroke="#444"/>
<text x="69" y="713.0" text-anchor="end" fill="#444">0.41</text>
<line x1="72" y1="670.0" x2="75" y2="670.0" stroke="#444"/>
<text x="69" y="673.0" text-anchor="end" fill="#444">1</text>
<text x="226.0" y="864" text-anchor="middle" fill="#444">Event time (years from adoption)</text>
<text x="27" y="750.0" text-anchor="middle" fill="#444" transform="rotate(-90 27 750.0)">ATT (per 100k)</text>
<rect x="425" y="620" width="380" height="260" fill="#fafaf7" stroke="#e2e2dc"/>
<text x="615.0" y="638" text-anchor="middle" font-weight="600">Motor vehicle theft rate (per 100k) [placebo]</text>
<line x1="485" y1="802.5245975989435" x2="787" y2="802.5245975989435" stroke="#aaaaaa" stroke-width="0.7"/>
<polygon points="498.7,775.0 526.2,771.5 553.6,782.3 581.1,784.4 636.0,797.5 663.5,772.0 690.9,741.6 718.4,699.8 745.8,717.4 773.3,670.0 773.3,828.6 745.8,791.3 718.4,802.8 690.9,821.8 663.5,811.3 636.0,814.3 581.1,814.6 553.6,821.4 526.2,817.8 498.7,830.0" fill="#1f3a5f" opacity="0.18"/>
<polyline points="498.7,802.5 526.2,794.7 553.6,801.9 581.1,799.5 636.0,805.9 663.5,791.6 690.9,781.7 718.4,751.3 745.8,754.4 773.3,749.3" fill="none" stroke="#1f3a5f" stroke-width="1.6"/>
<circle cx="498.7" cy="802.5" r="2.6" fill="#1f3a5f"/>
<circle cx="526.2" cy="794.7" r="2.6" fill="#1f3a5f"/>
<circle cx="553.6" cy="801.9" r="2.6" fill="#1f3a5f"/>
<circle cx="581.1" cy="799.5" r="2.6" fill="#1f3a5f"/>
<circle cx="636.0" cy="805.9" r="2.6" fill="#1f3a5f"/>
<circle cx="663.5" cy="791.6" r="2.6" fill="#1f3a5f"/>
<circle cx="690.9" cy="781.7" r="2.6" fill="#1f3a5f"/>
<circle cx="718.4" cy="751.3" r="2.6" fill="#1f3a5f"/>
<circle cx="745.8" cy="754.4" r="2.6" fill="#1f3a5f"/>
<circle cx="773.3" cy="749.3" r="2.6" fill="#1f3a5f"/>
<line x1="622.3" y1="670" x2="622.3" y2="830" stroke="#b9461a" stroke-dasharray="3 3"/>
<line x1="485" y1="830" x2="787" y2="830" stroke="#444"/>
<line x1="485" y1="670" x2="485" y2="830" stroke="#444"/>
<line x1="498.7" y1="830" x2="498.7" y2="833" stroke="#444"/>
<text x="498.7" y="845" text-anchor="middle" fill="#444">-5</text>
<line x1="526.2" y1="830" x2="526.2" y2="833" stroke="#444"/>
<text x="526.2" y="845" text-anchor="middle" fill="#444">-4</text>
<line x1="553.6" y1="830" x2="553.6" y2="833" stroke="#444"/>
<text x="553.6" y="845" text-anchor="middle" fill="#444">-3</text>
<line x1="581.1" y1="830" x2="581.1" y2="833" stroke="#444"/>
<text x="581.1" y="845" text-anchor="middle" fill="#444">-2</text>
<line x1="636.0" y1="830" x2="636.0" y2="833" stroke="#444"/>
<text x="636.0" y="845" text-anchor="middle" fill="#444">0</text>
<line x1="663.5" y1="830" x2="663.5" y2="833" stroke="#444"/>
<text x="663.5" y="845" text-anchor="middle" fill="#444">1</text>
<line x1="690.9" y1="830" x2="690.9" y2="833" stroke="#444"/>
<text x="690.9" y="845" text-anchor="middle" fill="#444">2</text>
<line x1="718.4" y1="830" x2="718.4" y2="833" stroke="#444"/>
<text x="718.4" y="845" text-anchor="middle" fill="#444">3</text>
<line x1="745.8" y1="830" x2="745.8" y2="833" stroke="#444"/>
<text x="745.8" y="845" text-anchor="middle" fill="#444">4</text>
<line x1="773.3" y1="830" x2="773.3" y2="833" stroke="#444"/>
<text x="773.3" y="845" text-anchor="middle" fill="#444">5</text>
<line x1="482" y1="830.0" x2="485" y2="830.0" stroke="#444"/>
<text x="479" y="833.0" text-anchor="end" fill="#444">-32</text>
<line x1="482" y1="790.0" x2="485" y2="790.0" stroke="#444"/>
<text x="479" y="793.0" text-anchor="end" fill="#444">14</text>
<line x1="482" y1="750.0" x2="485" y2="750.0" stroke="#444"/>
<text x="479" y="753.0" text-anchor="end" fill="#444">61</text>
<line x1="482" y1="710.0" x2="485" y2="710.0" stroke="#444"/>
<text x="479" y="713.0" text-anchor="end" fill="#444">1.1e+02</text>
<line x1="482" y1="670.0" x2="485" y2="670.0" stroke="#444"/>
<text x="479" y="673.0" text-anchor="end" fill="#444">1.5e+02</text>
<text x="636.0" y="864" text-anchor="middle" fill="#444">Event time (years from adoption)</text>
<text x="437" y="750.0" text-anchor="middle" fill="#444" transform="rotate(-90 437 750.0)">ATT (per 100k)</text>
<text x="805" y="608" text-anchor="end" fill="#888" font-size="10">Shaded band: pointwise 95% CI from cluster bootstrap. Vertical dashed line marks the year before adoption.</text>
</svg>