<svg xmlns="http://www.w3.org/2000/svg" viewBox="0 0 820 620" font-family="-apple-system, Segoe UI, Helvetica, Arial, sans-serif" font-size="11">
<text x="410.0" y="22" text-anchor="middle" font-size="14" font-weight="600">Callaway-Sant'Anna ATT by event time (OR) -- red-flag (gvro)</text>
<rect x="15" y="40" width="380" height="260" fill="#fafaf7" stroke="#e2e2dc"/>
<text x="205.0" y="58" text-anchor="middle" font-weight="600">Firearm suicide rate (per 100k)</text>
<line x1="75" y1="171.75947639294893" x2="377" y2="171.75947639294893" stroke="#aaaaaa" stroke-width="0.7"/>
<polygon points="88.7,90.0 116.2,107.6 143.6,139.5 171.1,129.3 226.0,159.4 253.5,157.7 280.9,162.2 308.4,152.5 335.8,163.3 363.3,156.3 363.3,250.0 335.8,220.5 308.4,209.8 280.9,214.4 253.5,204.0 226.0,193.5 171.1,179.9 143.6,178.5 116.2,149.4 88.7,142.9" fill="#1f3a5f" opacity="0.18"/>
<polyline points="88.7,116.4 116.2,128.5 143.6,159.0 171.1,154.6 226.0,176.4 253.5,180.8 280.9,188.3 308.4,181.1 335.8,191.9 363.3,203.2" fill="none" stroke="#1f3a5f" stroke-width="1.6"/>
<circle cx="88.7" cy="116.4" r="2.6" fill="#1f3a5f"/>
<circle cx="116.2" cy="128.5" r="2.6" fill="#1f3a5f"/>
<circle cx="143.6" cy="159.0" r="2.6" fill="#1f3a5f"/>
<circle cx="171.1" cy="154.6" r="2.6" fill="#1f3a5f"/>
<circle cx="226.0" cy="176.4" r="2.6" fill="#1f3a5f"/>
<circle cx="253.5" cy="180.8" r="2.6" fill="#1f3a5f"/>
<circle cx="280.9" cy="188.3" r="2.6" fill="#1f3a5f"/>
<circle cx="308.4" cy="181.1" r="2.6" fill="#1f3a5f"/>
<circle cx="335.8" cy="191.9" r="2.6" fill="#1f3a5f"/>
<circle cx="363.3" cy="203.2" r="2.6" fill="#1f3a5f"/>
<line x1="212.3" y1="90" x2="212.3" y2="250" stroke="#b9461a" stroke-dasharray="3 3"/>
<line x1="75" y1="250" x2="377" y2="250" stroke="#444"/>
<line x1="75" y1="90" x2="75" y2="250" stroke="#444"/>
<line x1="88.7" y1="250" x2="88.7" y2="253" stroke="#444"/>
<text x="88.7" y="265" text-anchor="middle" fill="#444">-5</text>
<line x1="116.2" y1="250" x2="116.2" y2="253" stroke="#444"/>
<text x="116.2" y="265" text-anchor="middle" fill="#444">-4</text>
<line x1="143.6" y1="250" x2="143.6" y2="253" stroke="#444"/>
<text x="143.6" y="265" text-anchor="middle" fill="#444">-3</text>
<line x1="171.1" y1="250" x2="171.1" y2="253" stroke="#444"/>
<text x="171.1" y="265" text-anchor="middle" fill="#444">-2</text>
<line x1="226.0" y1="250" x2="226.0" y2="253" stroke="#444"/>
<text x="226.0" y="265" text-anchor="middle" fill="#444">0</text>
<line x1="253.5" y1="250" x2="253.5" y2="253" stroke="#444"/>
<text x="253.5" y="265" text-anchor="middle" fill="#444">1</text>
<line x1="280.9" y1="250" x2="280.9" y2="253" stroke="#444"/>
<text x="280.9" y="265" text-anchor="middle" fill="#444">2</text>
<line x1="308.4" y1="250" x2="308.4" y2="253" stroke="#444"/>
<text x="308.4" y="265" text-anchor="middle" fill="#444">3</text>
<line x1="335.8" y1="250" x2="335.8" y2="253" stroke="#444"/>
<text x="335.8" y="265" text-anchor="middle" fill="#444">4</text>
<line x1="363.3" y1="250" x2="363.3" y2="253" stroke="#444"/>
<text x="363.3" y="265" text-anchor="middle" fill="#444">5</text>
<line x1="72" y1="250.0" x2="75" y2="250.0" stroke="#444"/>
<text x="69" y="253.0" text-anchor="end" fill="#444">-1.2</text>
<line x1="72" y1="210.0" x2="75" y2="210.0" stroke="#444"/>
<text x="69" y="213.0" text-anchor="end" fill="#444">-0.58</text>
<line x1="72" y1="170.0" x2="75" y2="170.0" stroke="#444"/>
<text x="69" y="173.0" text-anchor="end" fill="#444">0.027</text>
<line x1="72" y1="130.0" x2="75" y2="130.0" stroke="#444"/>
<text x="69" y="133.0" text-anchor="end" fill="#444">0.64</text>
<line x1="72" y1="90.0" x2="75" y2="90.0" stroke="#444"/>
<text x="69" y="93.0" text-anchor="end" fill="#444">1.2</text>
<text x="226.0" y="284" text-anchor="middle" fill="#444">Event time (years from adoption)</text>
<text x="27" y="170.0" text-anchor="middle" fill="#444" transform="rotate(-90 27 170.0)">ATT (per 100k)</text>
<rect x="425" y="40" width="380" height="260" fill="#fafaf7" stroke="#e2e2dc"/>
<text x="615.0" y="58" text-anchor="middle" font-weight="600">Firearm homicide rate (per 100k)</text>
<line x1="485" y1="135.63614432070966" x2="787" y2="135.63614432070966" stroke="#aaaaaa" stroke-width="0.7"/>
<polygon points="498.7,90.0 526.2,98.4 553.6,98.7 581.1,109.0 636.0,145.9 663.5,128.9 690.9,124.9 718.4,126.8 745.8,152.0 773.3,154.5 773.3,250.0 745.8,222.8 718.4,188.1 690.9,190.1 663.5,185.3 636.0,169.9 581.1,143.0 553.6,136.0 526.2,148.8 498.7,140.2" fill="#1f3a5f" opacity="0.18"/>
<polyline points="498.7,115.1 526.2,123.6 553.6,117.4 581.1,126.0 636.0,157.9 663.5,157.1 690.9,157.5 718.4,157.4 745.8,187.4 773.3,202.2" fill="none" stroke="#1f3a5f" stroke-width="1.6"/>
<circle cx="498.7" cy="115.1" r="2.6" fill="#1f3a5f"/>
<circle cx="526.2" cy="123.6" r="2.6" fill="#1f3a5f"/>
<circle cx="553.6" cy="117.4" r="2.6" fill="#1f3a5f"/>
<circle cx="581.1" cy="126.0" r="2.6" fill="#1f3a5f"/>
<circle cx="636.0" cy="157.9" r="2.6" fill="#1f3a5f"/>
<circle cx="663.5" cy="157.1" r="2.6" fill="#1f3a5f"/>
<circle cx="690.9" cy="157.5" r="2.6" fill="#1f3a5f"/>
<circle cx="718.4" cy="157.4" r="2.6" fill="#1f3a5f"/>
<circle cx="745.8" cy="187.4" r="2.6" fill="#1f3a5f"/>
<circle cx="773.3" cy="202.2" r="2.6" fill="#1f3a5f"/>
<line x1="622.3" y1="90" x2="622.3" y2="250" stroke="#b9461a" stroke-dasharray="3 3"/>
<line x1="485" y1="250" x2="787" y2="250" stroke="#444"/>
<line x1="485" y1="90" x2="485" y2="250" stroke="#444"/>
<line x1="498.7" y1="250" x2="498.7" y2="253" stroke="#444"/>
<text x="498.7" y="265" text-anchor="middle" fill="#444">-5</text>
<line x1="526.2" y1="250" x2="526.2" y2="253" stroke="#444"/>
<text x="526.2" y="265" text-anchor="middle" fill="#444">-4</text>
<line x1="553.6" y1="250" x2="553.6" y2="253" stroke="#444"/>
<text x="553.6" y="265" text-anchor="middle" fill="#444">-3</text>
<line x1="581.1" y1="250" x2="581.1" y2="253" stroke="#444"/>
<text x="581.1" y="265" text-anchor="middle" fill="#444">-2</text>
<line x1="636.0" y1="250" x2="636.0" y2="253" stroke="#444"/>
<text x="636.0" y="265" text-anchor="middle" fill="#444">0</text>
<line x1="663.5" y1="250" x2="663.5" y2="253" stroke="#444"/>
<text x="663.5" y="265" text-anchor="middle" fill="#444">1</text>
<line x1="690.9" y1="250" x2="690.9" y2="253" stroke="#444"/>
<text x="690.9" y="265" text-anchor="middle" fill="#444">2</text>
<line x1="718.4" y1="250" x2="718.4" y2="253" stroke="#444"/>
<text x="718.4" y="265" text-anchor="middle" fill="#444">3</text>
<line x1="745.8" y1="250" x2="745.8" y2="253" stroke="#444"/>
<text x="745.8" y="265" text-anchor="middle" fill="#444">4</text>
<line x1="773.3" y1="250" x2="773.3" y2="253" stroke="#444"/>
<text x="773.3" y="265" text-anchor="middle" fill="#444">5</text>
<line x1="482" y1="250.0" x2="485" y2="250.0" stroke="#444"/>
<text x="479" y="253.0" text-anchor="end" fill="#444">-2.1</text>
<line x1="482" y1="210.0" x2="485" y2="210.0" stroke="#444"/>
<text x="479" y="213.0" text-anchor="end" fill="#444">-1.3</text>
<line x1="482" y1="170.0" x2="485" y2="170.0" stroke="#444"/>
<text x="479" y="173.0" text-anchor="end" fill="#444">-0.62</text>
<line x1="482" y1="130.0" x2="485" y2="130.0" stroke="#444"/>
<text x="479" y="133.0" text-anchor="end" fill="#444">0.1</text>
<line x1="482" y1="90.0" x2="485" y2="90.0" stroke="#444"/>
<text x="479" y="93.0" text-anchor="end" fill="#444">0.82</text>
<text x="636.0" y="284" text-anchor="middle" fill="#444">Event time (years from adoption)</text>
<text x="437" y="170.0" text-anchor="middle" fill="#444" transform="rotate(-90 437 170.0)">ATT (per 100k)</text>
<rect x="15" y="330" width="380" height="260" fill="#fafaf7" stroke="#e2e2dc"/>
<text x="205.0" y="348" text-anchor="middle" font-weight="600">Total homicide rate (per 100k)</text>
<line x1="75" y1="446.17320503219685" x2="377" y2="446.17320503219685" stroke="#aaaaaa" stroke-width="0.7"/>
<polygon points="88.7,406.6 116.2,396.4 143.6,380.0 171.1,422.9 226.0,459.8 253.5,431.6 280.9,430.6 308.4,394.9 335.8,461.8 363.3,435.5 363.3,540.0 335.8,535.6 308.4,493.1 280.9,502.7 253.5,502.4 226.0,486.0 171.1,459.4 143.6,450.8 116.2,473.0 88.7,476.7" fill="#1f3a5f" opacity="0.18"/>
<polyline points="88.7,441.6 116.2,434.7 143.6,415.4 171.1,441.1 226.0,472.9 253.5,467.0 280.9,466.7 308.4,444.0 335.8,498.7 363.3,487.7" fill="none" stroke="#1f3a5f" stroke-width="1.6"/>
<circle cx="88.7" cy="441.6" r="2.6" fill="#1f3a5f"/>
<circle cx="116.2" cy="434.7" r="2.6" fill="#1f3a5f"/>
<circle cx="143.6" cy="415.4" r="2.6" fill="#1f3a5f"/>
<circle cx="171.1" cy="441.1" r="2.6" fill="#1f3a5f"/>
<circle cx="226.0" cy="472.9" r="2.6" fill="#1f3a5f"/>
<circle cx="253.5" cy="467.0" r="2.6" fill="#1f3a5f"/>
<circle cx="280.9" cy="466.7" r="2.6" fill="#1f3a5f"/>
<circle cx="308.4" cy="444.0" r="2.6" fill="#1f3a5f"/>
<circle cx="335.8" cy="498.7" r="2.6" fill="#1f3a5f"/>
<circle cx="363.3" cy="487.7" r="2.6" fill="#1f3a5f"/>
<line x1="212.3" y1="380" x2="212.3" y2="540" stroke="#b9461a" stroke-dasharray="3 3"/>
<line x1="75" y1="540" x2="377" y2="540" stroke="#444"/>
<line x1="75" y1="380" x2="75" y2="540" stroke="#444"/>
<line x1="88.7" y1="540" x2="88.7" y2="543" stroke="#444"/>
<text x="88.7" y="555" text-anchor="middle" fill="#444">-5</text>
<line x1="116.2" y1="540" x2="116.2" y2="543" stroke="#444"/>
<text x="116.2" y="555" text-anchor="middle" fill="#444">-4</text>
<line x1="143.6" y1="540" x2="143.6" y2="543" stroke="#444"/>
<text x="143.6" y="555" text-anchor="middle" fill="#444">-3</text>
<line x1="171.1" y1="540" x2="171.1" y2="543" stroke="#444"/>
<text x="171.1" y="555" text-anchor="middle" fill="#444">-2</text>
<line x1="226.0" y1="540" x2="226.0" y2="543" stroke="#444"/>
<text x="226.0" y="555" text-anchor="middle" fill="#444">0</text>
<line x1="253.5" y1="540" x2="253.5" y2="543" stroke="#444"/>
<text x="253.5" y="555" text-anchor="middle" fill="#444">1</text>
<line x1="280.9" y1="540" x2="280.9" y2="543" stroke="#444"/>
<text x="280.9" y="555" text-anchor="middle" fill="#444">2</text>
<line x1="308.4" y1="540" x2="308.4" y2="543" stroke="#444"/>
<text x="308.4" y="555" text-anchor="middle" fill="#444">3</text>
<line x1="335.8" y1="540" x2="335.8" y2="543" stroke="#444"/>
<text x="335.8" y="555" text-anchor="middle" fill="#444">4</text>
<line x1="363.3" y1="540" x2="363.3" y2="543" stroke="#444"/>
<text x="363.3" y="555" text-anchor="middle" fill="#444">5</text>
<line x1="72" y1="540.0" x2="75" y2="540.0" stroke="#444"/>
<text x="69" y="543.0" text-anchor="end" fill="#444">-1.5</text>
<line x1="72" y1="500.0" x2="75" y2="500.0" stroke="#444"/>
<text x="69" y="503.0" text-anchor="end" fill="#444">-0.84</text>
<line x1="72" y1="460.0" x2="75" y2="460.0" stroke="#444"/>
<text x="69" y="463.0" text-anchor="end" fill="#444">-0.22</text>
<line x1="72" y1="420.0" x2="75" y2="420.0" stroke="#444"/>
<text x="69" y="423.0" text-anchor="end" fill="#444">0.41</text>
<line x1="72" y1="380.0" x2="75" y2="380.0" stroke="#444"/>
<text x="69" y="383.0" text-anchor="end" fill="#444">1</text>
<text x="226.0" y="574" text-anchor="middle" fill="#444">Event time (years from adoption)</text>
<text x="27" y="460.0" text-anchor="middle" fill="#444" transform="rotate(-90 27 460.0)">ATT (per 100k)</text>
<rect x="425" y="330" width="380" height="260" fill="#fafaf7" stroke="#e2e2dc"/>
<text x="615.0" y="348" text-anchor="middle" font-weight="600">Motor vehicle theft rate (per 100k) [placebo]</text>
<line x1="485" y1="512.5245975989435" x2="787" y2="512.5245975989435" stroke="#aaaaaa" stroke-width="0.7"/>
<polygon points="498.7,485.0 526.2,481.5 553.6,492.3 581.1,494.4 636.0,507.5 663.5,482.0 690.9,451.6 718.4,409.8 745.8,427.4 773.3,380.0 773.3,538.6 745.8,501.3 718.4,512.8 690.9,531.8 663.5,521.3 636.0,524.3 581.1,524.6 553.6,531.4 526.2,527.8 498.7,540.0" fill="#1f3a5f" opacity="0.18"/>
<polyline points="498.7,512.5 526.2,504.7 553.6,511.9 581.1,509.5 636.0,515.9 663.5,501.6 690.9,491.7 718.4,461.3 745.8,464.4 773.3,459.3" fill="none" stroke="#1f3a5f" stroke-width="1.6"/>
<circle cx="498.7" cy="512.5" r="2.6" fill="#1f3a5f"/>
<circle cx="526.2" cy="504.7" r="2.6" fill="#1f3a5f"/>
<circle cx="553.6" cy="511.9" r="2.6" fill="#1f3a5f"/>
<circle cx="581.1" cy="509.5" r="2.6" fill="#1f3a5f"/>
<circle cx="636.0" cy="515.9" r="2.6" fill="#1f3a5f"/>
<circle cx="663.5" cy="501.6" r="2.6" fill="#1f3a5f"/>
<circle cx="690.9" cy="491.7" r="2.6" fill="#1f3a5f"/>
<circle cx="718.4" cy="461.3" r="2.6" fill="#1f3a5f"/>
<circle cx="745.8" cy="464.4" r="2.6" fill="#1f3a5f"/>
<circle cx="773.3" cy="459.3" r="2.6" fill="#1f3a5f"/>
<line x1="622.3" y1="380" x2="622.3" y2="540" stroke="#b9461a" stroke-dasharray="3 3"/>
<line x1="485" y1="540" x2="787" y2="540" stroke="#444"/>
<line x1="485" y1="380" x2="485" y2="540" stroke="#444"/>
<line x1="498.7" y1="540" x2="498.7" y2="543" stroke="#444"/>
<text x="498.7" y="555" text-anchor="middle" fill="#444">-5</text>
<line x1="526.2" y1="540" x2="526.2" y2="543" stroke="#444"/>
<text x="526.2" y="555" text-anchor="middle" fill="#444">-4</text>
<line x1="553.6" y1="540" x2="553.6" y2="543" stroke="#444"/>
<text x="553.6" y="555" text-anchor="middle" fill="#444">-3</text>
<line x1="581.1" y1="540" x2="581.1" y2="543" stroke="#444"/>
<text x="581.1" y="555" text-anchor="middle" fill="#444">-2</text>
<line x1="636.0" y1="540" x2="636.0" y2="543" stroke="#444"/>
<text x="636.0" y="555" text-anchor="middle" fill="#444">0</text>
<line x1="663.5" y1="540" x2="663.5" y2="543" stroke="#444"/>
<text x="663.5" y="555" text-anchor="middle" fill="#444">1</text>
<line x1="690.9" y1="540" x2="690.9" y2="543" stroke="#444"/>
<text x="690.9" y="555" text-anchor="middle" fill="#444">2</text>
<line x1="718.4" y1="540" x2="718.4" y2="543" stroke="#444"/>
<text x="718.4" y="555" text-anchor="middle" fill="#444">3</text>
<line x1="745.8" y1="540" x2="745.8" y2="543" stroke="#444"/>
<text x="745.8" y="555" text-anchor="middle" fill="#444">4</text>
<line x1="773.3" y1="540" x2="773.3" y2="543" stroke="#444"/>
<text x="773.3" y="555" text-anchor="middle" fill="#444">5</text>
<line x1="482" y1="540.0" x2="485" y2="540.0" stroke="#444"/>
<text x="479" y="543.0" text-anchor="end" fill="#444">-32</text>
<line x1="482" y1="500.0" x2="485" y2="500.0" stroke="#444"/>
<text x="479" y="503.0" text-anchor="end" fill="#444">14</text>
<line x1="482" y1="460.0" x2="485" y2="460.0" stroke="#444"/>
<text x="479" y="463.0" text-anchor="end" fill="#444">61</text>
<line x1="482" y1="420.0" x2="485" y2="420.0" stroke="#444"/>
<text x="479" y="423.0" text-anchor="end" fill="#444">1.1e+02</text>
<line x1="482" y1="380.0" x2="485" y2="380.0" stroke="#444"/>
<text x="479" y="383.0" text-anchor="end" fill="#444">1.5e+02</text>
<text x="636.0" y="574" text-anchor="middle" fill="#444">Event time (years from adoption)</text>
<text x="437" y="460.0" text-anchor="middle" fill="#444" transform="rotate(-90 437 460.0)">ATT (per 100k)</text>
<text x="805" y="608" text-anchor="end" fill="#888" font-size="10">Shaded band: pointwise 95% CI from cluster bootstrap. Vertical dashed line marks the year before adoption.</text>
</svg>