<svg xmlns="http://www.w3.org/2000/svg" viewBox="0 0 820 620" font-family="-apple-system, Segoe UI, Helvetica, Arial, sans-serif" font-size="11">
<text x="410.0" y="22" text-anchor="middle" font-size="14" font-weight="600">Callaway-Sant'Anna ATT by event time (RA) -- red-flag (gvro)</text>
<rect x="15" y="40" width="380" height="260" fill="#fafaf7" stroke="#e2e2dc"/>
<text x="205.0" y="58" text-anchor="middle" font-weight="600">Firearm suicide rate (per 100k)</text>
<line x1="75" y1="170.80334192234545" x2="377" y2="170.80334192234545" stroke="#aaaaaa" stroke-width="0.7"/>
<polygon points="88.7,90.0 116.2,95.9 143.6,148.7 171.1,115.7 226.0,181.0 253.5,171.8 280.9,169.5 308.4,175.2 335.8,166.4 363.3,157.1 363.3,250.0 335.8,232.2 308.4,238.7 280.9,238.9 253.5,225.7 226.0,221.5 171.1,168.9 143.6,187.7 116.2,146.1 88.7,145.6" fill="#1f3a5f" opacity="0.18"/>
<polyline points="88.7,117.8 116.2,121.0 143.6,168.2 171.1,142.3 226.0,201.2 253.5,198.7 280.9,204.2 308.4,206.9 335.8,199.3 363.3,203.6" fill="none" stroke="#1f3a5f" stroke-width="1.6"/>
<circle cx="88.7" cy="117.8" r="2.6" fill="#1f3a5f"/>
<circle cx="116.2" cy="121.0" r="2.6" fill="#1f3a5f"/>
<circle cx="143.6" cy="168.2" r="2.6" fill="#1f3a5f"/>
<circle cx="171.1" cy="142.3" r="2.6" fill="#1f3a5f"/>
<circle cx="226.0" cy="201.2" r="2.6" fill="#1f3a5f"/>
<circle cx="253.5" cy="198.7" r="2.6" fill="#1f3a5f"/>
<circle cx="280.9" cy="204.2" r="2.6" fill="#1f3a5f"/>
<circle cx="308.4" cy="206.9" r="2.6" fill="#1f3a5f"/>
<circle cx="335.8" cy="199.3" r="2.6" fill="#1f3a5f"/>
<circle cx="363.3" cy="203.6" r="2.6" fill="#1f3a5f"/>
<line x1="212.3" y1="90" x2="212.3" y2="250" stroke="#b9461a" stroke-dasharray="3 3"/>
<line x1="75" y1="250" x2="377" y2="250" stroke="#444"/>
<line x1="75" y1="90" x2="75" y2="250" stroke="#444"/>
<line x1="88.7" y1="250" x2="88.7" y2="253" stroke="#444"/>
<text x="88.7" y="265" text-anchor="middle" fill="#444">-5</text>
<line x1="116.2" y1="250" x2="116.2" y2="253" stroke="#444"/>
<text x="116.2" y="265" text-anchor="middle" fill="#444">-4</text>
<line x1="143.6" y1="250" x2="143.6" y2="253" stroke="#444"/>
<text x="143.6" y="265" text-anchor="middle" fill="#444">-3</text>
<line x1="171.1" y1="250" x2="171.1" y2="253" stroke="#444"/>
<text x="171.1" y="265" text-anchor="middle" fill="#444">-2</text>
<line x1="226.0" y1="250" x2="226.0" y2="253" stroke="#444"/>
<text x="226.0" y="265" text-anchor="middle" fill="#444">0</text>
<line x1="253.5" y1="250" x2="253.5" y2="253" stroke="#444"/>
<text x="253.5" y="265" text-anchor="middle" fill="#444">1</text>
<line x1="280.9" y1="250" x2="280.9" y2="253" stroke="#444"/>
<text x="280.9" y="265" text-anchor="middle" fill="#444">2</text>
<line x1="308.4" y1="250" x2="308.4" y2="253" stroke="#444"/>
<text x="308.4" y="265" text-anchor="middle" fill="#444">3</text>
<line x1="335.8" y1="250" x2="335.8" y2="253" stroke="#444"/>
<text x="335.8" y="265" text-anchor="middle" fill="#444">4</text>
<line x1="363.3" y1="250" x2="363.3" y2="253" stroke="#444"/>
<text x="363.3" y="265" text-anchor="middle" fill="#444">5</text>
<line x1="72" y1="250.0" x2="75" y2="250.0" stroke="#444"/>
<text x="69" y="253.0" text-anchor="end" fill="#444">-0.96</text>
<line x1="72" y1="210.0" x2="75" y2="210.0" stroke="#444"/>
<text x="69" y="213.0" text-anchor="end" fill="#444">-0.47</text>
<line x1="72" y1="170.0" x2="75" y2="170.0" stroke="#444"/>
<text x="69" y="173.0" text-anchor="end" fill="#444">0.0097</text>
<line x1="72" y1="130.0" x2="75" y2="130.0" stroke="#444"/>
<text x="69" y="133.0" text-anchor="end" fill="#444">0.49</text>
<line x1="72" y1="90.0" x2="75" y2="90.0" stroke="#444"/>
<text x="69" y="93.0" text-anchor="end" fill="#444">0.98</text>
<text x="226.0" y="284" text-anchor="middle" fill="#444">Event time (years from adoption)</text>
<text x="27" y="170.0" text-anchor="middle" fill="#444" transform="rotate(-90 27 170.0)">ATT (per 100k)</text>
<rect x="425" y="40" width="380" height="260" fill="#fafaf7" stroke="#e2e2dc"/>
<text x="615.0" y="58" text-anchor="middle" font-weight="600">Non-firearm suicide rate (per 100k) [substitution test]</text>
<line x1="485" y1="205.00218675303182" x2="787" y2="205.00218675303182" stroke="#aaaaaa" stroke-width="0.7"/>
<polygon points="498.7,102.5 526.2,149.9 553.6,166.7 581.1,186.5 636.0,175.7 663.5,149.6 690.9,121.3 718.4,184.5 745.8,158.0 773.3,90.0 773.3,173.6 745.8,236.8 718.4,243.1 690.9,192.8 663.5,215.1 636.0,239.2 581.1,250.0 553.6,215.4 526.2,242.7 498.7,168.4" fill="#1f3a5f" opacity="0.18"/>
<polyline points="498.7,135.4 526.2,196.3 553.6,191.1 581.1,218.3 636.0,207.5 663.5,182.3 690.9,157.1 718.4,213.8 745.8,197.4 773.3,131.8" fill="none" stroke="#1f3a5f" stroke-width="1.6"/>
<circle cx="498.7" cy="135.4" r="2.6" fill="#1f3a5f"/>
<circle cx="526.2" cy="196.3" r="2.6" fill="#1f3a5f"/>
<circle cx="553.6" cy="191.1" r="2.6" fill="#1f3a5f"/>
<circle cx="581.1" cy="218.3" r="2.6" fill="#1f3a5f"/>
<circle cx="636.0" cy="207.5" r="2.6" fill="#1f3a5f"/>
<circle cx="663.5" cy="182.3" r="2.6" fill="#1f3a5f"/>
<circle cx="690.9" cy="157.1" r="2.6" fill="#1f3a5f"/>
<circle cx="718.4" cy="213.8" r="2.6" fill="#1f3a5f"/>
<circle cx="745.8" cy="197.4" r="2.6" fill="#1f3a5f"/>
<circle cx="773.3" cy="131.8" r="2.6" fill="#1f3a5f"/>
<line x1="622.3" y1="90" x2="622.3" y2="250" stroke="#b9461a" stroke-dasharray="3 3"/>
<line x1="485" y1="250" x2="787" y2="250" stroke="#444"/>
<line x1="485" y1="90" x2="485" y2="250" stroke="#444"/>
<line x1="498.7" y1="250" x2="498.7" y2="253" stroke="#444"/>
<text x="498.7" y="265" text-anchor="middle" fill="#444">-5</text>
<line x1="526.2" y1="250" x2="526.2" y2="253" stroke="#444"/>
<text x="526.2" y="265" text-anchor="middle" fill="#444">-4</text>
<line x1="553.6" y1="250" x2="553.6" y2="253" stroke="#444"/>
<text x="553.6" y="265" text-anchor="middle" fill="#444">-3</text>
<line x1="581.1" y1="250" x2="581.1" y2="253" stroke="#444"/>
<text x="581.1" y="265" text-anchor="middle" fill="#444">-2</text>
<line x1="636.0" y1="250" x2="636.0" y2="253" stroke="#444"/>
<text x="636.0" y="265" text-anchor="middle" fill="#444">0</text>
<line x1="663.5" y1="250" x2="663.5" y2="253" stroke="#444"/>
<text x="663.5" y="265" text-anchor="middle" fill="#444">1</text>
<line x1="690.9" y1="250" x2="690.9" y2="253" stroke="#444"/>
<text x="690.9" y="265" text-anchor="middle" fill="#444">2</text>
<line x1="718.4" y1="250" x2="718.4" y2="253" stroke="#444"/>
<text x="718.4" y="265" text-anchor="middle" fill="#444">3</text>
<line x1="745.8" y1="250" x2="745.8" y2="253" stroke="#444"/>
<text x="745.8" y="265" text-anchor="middle" fill="#444">4</text>
<line x1="773.3" y1="250" x2="773.3" y2="253" stroke="#444"/>
<text x="773.3" y="265" text-anchor="middle" fill="#444">5</text>
<line x1="482" y1="250.0" x2="485" y2="250.0" stroke="#444"/>
<text x="479" y="253.0" text-anchor="end" fill="#444">-0.35</text>
<line x1="482" y1="210.0" x2="485" y2="210.0" stroke="#444"/>
<text x="479" y="213.0" text-anchor="end" fill="#444">-0.039</text>
<line x1="482" y1="170.0" x2="485" y2="170.0" stroke="#444"/>
<text x="479" y="173.0" text-anchor="end" fill="#444">0.27</text>
<line x1="482" y1="130.0" x2="485" y2="130.0" stroke="#444"/>
<text x="479" y="133.0" text-anchor="end" fill="#444">0.58</text>
<line x1="482" y1="90.0" x2="485" y2="90.0" stroke="#444"/>
<text x="479" y="93.0" text-anchor="end" fill="#444">0.9</text>
<text x="636.0" y="284" text-anchor="middle" fill="#444">Event time (years from adoption)</text>
<text x="437" y="170.0" text-anchor="middle" fill="#444" transform="rotate(-90 437 170.0)">ATT (per 100k)</text>
<rect x="15" y="330" width="380" height="260" fill="#fafaf7" stroke="#e2e2dc"/>
<text x="205.0" y="348" text-anchor="middle" font-weight="600">Total suicide rate (per 100k) [net effect]</text>
<line x1="75" y1="480.117170928647" x2="377" y2="480.117170928647" stroke="#aaaaaa" stroke-width="0.7"/>
<polygon points="88.7,380.0 116.2,407.0 143.6,453.5 171.1,439.8 226.0,484.7 253.5,460.8 280.9,447.7 308.4,483.4 335.8,465.5 363.3,426.2 363.3,512.3 335.8,530.4 308.4,540.0 280.9,516.3 253.5,519.5 226.0,523.9 171.1,490.2 143.6,489.3 116.2,469.5 88.7,432.5" fill="#1f3a5f" opacity="0.18"/>
<polyline points="88.7,406.2 116.2,438.3 143.6,471.4 171.1,465.0 226.0,504.3 253.5,490.2 280.9,482.0 308.4,511.7 335.8,497.9 363.3,469.3" fill="none" stroke="#1f3a5f" stroke-width="1.6"/>
<circle cx="88.7" cy="406.2" r="2.6" fill="#1f3a5f"/>
<circle cx="116.2" cy="438.3" r="2.6" fill="#1f3a5f"/>
<circle cx="143.6" cy="471.4" r="2.6" fill="#1f3a5f"/>
<circle cx="171.1" cy="465.0" r="2.6" fill="#1f3a5f"/>
<circle cx="226.0" cy="504.3" r="2.6" fill="#1f3a5f"/>
<circle cx="253.5" cy="490.2" r="2.6" fill="#1f3a5f"/>
<circle cx="280.9" cy="482.0" r="2.6" fill="#1f3a5f"/>
<circle cx="308.4" cy="511.7" r="2.6" fill="#1f3a5f"/>
<circle cx="335.8" cy="497.9" r="2.6" fill="#1f3a5f"/>
<circle cx="363.3" cy="469.3" r="2.6" fill="#1f3a5f"/>
<line x1="212.3" y1="380" x2="212.3" y2="540" stroke="#b9461a" stroke-dasharray="3 3"/>
<line x1="75" y1="540" x2="377" y2="540" stroke="#444"/>
<line x1="75" y1="380" x2="75" y2="540" stroke="#444"/>
<line x1="88.7" y1="540" x2="88.7" y2="543" stroke="#444"/>
<text x="88.7" y="555" text-anchor="middle" fill="#444">-5</text>
<line x1="116.2" y1="540" x2="116.2" y2="543" stroke="#444"/>
<text x="116.2" y="555" text-anchor="middle" fill="#444">-4</text>
<line x1="143.6" y1="540" x2="143.6" y2="543" stroke="#444"/>
<text x="143.6" y="555" text-anchor="middle" fill="#444">-3</text>
<line x1="171.1" y1="540" x2="171.1" y2="543" stroke="#444"/>
<text x="171.1" y="555" text-anchor="middle" fill="#444">-2</text>
<line x1="226.0" y1="540" x2="226.0" y2="543" stroke="#444"/>
<text x="226.0" y="555" text-anchor="middle" fill="#444">0</text>
<line x1="253.5" y1="540" x2="253.5" y2="543" stroke="#444"/>
<text x="253.5" y="555" text-anchor="middle" fill="#444">1</text>
<line x1="280.9" y1="540" x2="280.9" y2="543" stroke="#444"/>
<text x="280.9" y="555" text-anchor="middle" fill="#444">2</text>
<line x1="308.4" y1="540" x2="308.4" y2="543" stroke="#444"/>
<text x="308.4" y="555" text-anchor="middle" fill="#444">3</text>
<line x1="335.8" y1="540" x2="335.8" y2="543" stroke="#444"/>
<text x="335.8" y="555" text-anchor="middle" fill="#444">4</text>
<line x1="363.3" y1="540" x2="363.3" y2="543" stroke="#444"/>
<text x="363.3" y="555" text-anchor="middle" fill="#444">5</text>
<line x1="72" y1="540.0" x2="75" y2="540.0" stroke="#444"/>
<text x="69" y="543.0" text-anchor="end" fill="#444">-0.96</text>
<line x1="72" y1="500.0" x2="75" y2="500.0" stroke="#444"/>
<text x="69" y="503.0" text-anchor="end" fill="#444">-0.32</text>
<line x1="72" y1="460.0" x2="75" y2="460.0" stroke="#444"/>
<text x="69" y="463.0" text-anchor="end" fill="#444">0.32</text>
<line x1="72" y1="420.0" x2="75" y2="420.0" stroke="#444"/>
<text x="69" y="423.0" text-anchor="end" fill="#444">0.96</text>
<line x1="72" y1="380.0" x2="75" y2="380.0" stroke="#444"/>
<text x="69" y="383.0" text-anchor="end" fill="#444">1.6</text>
<text x="226.0" y="574" text-anchor="middle" fill="#444">Event time (years from adoption)</text>
<text x="27" y="460.0" text-anchor="middle" fill="#444" transform="rotate(-90 27 460.0)">ATT (per 100k)</text>
<rect x="425" y="330" width="380" height="260" fill="#fafaf7" stroke="#e2e2dc"/>
<text x="615.0" y="348" text-anchor="middle" font-weight="600">Firearm homicide rate (per 100k)</text>
<line x1="485" y1="452.39904596520813" x2="787" y2="452.39904596520813" stroke="#aaaaaa" stroke-width="0.7"/>
<polygon points="498.7,429.1 526.2,440.1 553.6,431.2 581.1,427.9 636.0,463.8 663.5,422.9 690.9,380.0 718.4,387.7 745.8,430.2 773.3,446.3 773.3,540.0 745.8,497.8 718.4,443.2 690.9,437.8 663.5,465.0 636.0,485.5 581.1,456.4 553.6,462.6 526.2,477.2 498.7,469.6" fill="#1f3a5f" opacity="0.18"/>
<polyline points="498.7,449.4 526.2,458.6 553.6,446.9 581.1,442.2 636.0,474.7 663.5,444.0 690.9,408.9 718.4,415.4 745.8,464.0 773.3,493.2" fill="none" stroke="#1f3a5f" stroke-width="1.6"/>
<circle cx="498.7" cy="449.4" r="2.6" fill="#1f3a5f"/>
<circle cx="526.2" cy="458.6" r="2.6" fill="#1f3a5f"/>
<circle cx="553.6" cy="446.9" r="2.6" fill="#1f3a5f"/>
<circle cx="581.1" cy="442.2" r="2.6" fill="#1f3a5f"/>
<circle cx="636.0" cy="474.7" r="2.6" fill="#1f3a5f"/>
<circle cx="663.5" cy="444.0" r="2.6" fill="#1f3a5f"/>
<circle cx="690.9" cy="408.9" r="2.6" fill="#1f3a5f"/>
<circle cx="718.4" cy="415.4" r="2.6" fill="#1f3a5f"/>
<circle cx="745.8" cy="464.0" r="2.6" fill="#1f3a5f"/>
<circle cx="773.3" cy="493.2" r="2.6" fill="#1f3a5f"/>
<line x1="622.3" y1="380" x2="622.3" y2="540" stroke="#b9461a" stroke-dasharray="3 3"/>
<line x1="485" y1="540" x2="787" y2="540" stroke="#444"/>
<line x1="485" y1="380" x2="485" y2="540" stroke="#444"/>
<line x1="498.7" y1="540" x2="498.7" y2="543" stroke="#444"/>
<text x="498.7" y="555" text-anchor="middle" fill="#444">-5</text>
<line x1="526.2" y1="540" x2="526.2" y2="543" stroke="#444"/>
<text x="526.2" y="555" text-anchor="middle" fill="#444">-4</text>
<line x1="553.6" y1="540" x2="553.6" y2="543" stroke="#444"/>
<text x="553.6" y="555" text-anchor="middle" fill="#444">-3</text>
<line x1="581.1" y1="540" x2="581.1" y2="543" stroke="#444"/>
<text x="581.1" y="555" text-anchor="middle" fill="#444">-2</text>
<line x1="636.0" y1="540" x2="636.0" y2="543" stroke="#444"/>
<text x="636.0" y="555" text-anchor="middle" fill="#444">0</text>
<line x1="663.5" y1="540" x2="663.5" y2="543" stroke="#444"/>
<text x="663.5" y="555" text-anchor="middle" fill="#444">1</text>
<line x1="690.9" y1="540" x2="690.9" y2="543" stroke="#444"/>
<text x="690.9" y="555" text-anchor="middle" fill="#444">2</text>
<line x1="718.4" y1="540" x2="718.4" y2="543" stroke="#444"/>
<text x="718.4" y="555" text-anchor="middle" fill="#444">3</text>
<line x1="745.8" y1="540" x2="745.8" y2="543" stroke="#444"/>
<text x="745.8" y="555" text-anchor="middle" fill="#444">4</text>
<line x1="773.3" y1="540" x2="773.3" y2="543" stroke="#444"/>
<text x="773.3" y="555" text-anchor="middle" fill="#444">5</text>
<line x1="482" y1="540.0" x2="485" y2="540.0" stroke="#444"/>
<text x="479" y="543.0" text-anchor="end" fill="#444">-1.2</text>
<line x1="482" y1="500.0" x2="485" y2="500.0" stroke="#444"/>
<text x="479" y="503.0" text-anchor="end" fill="#444">-0.67</text>
<line x1="482" y1="460.0" x2="485" y2="460.0" stroke="#444"/>
<text x="479" y="463.0" text-anchor="end" fill="#444">-0.11</text>
<line x1="482" y1="420.0" x2="485" y2="420.0" stroke="#444"/>
<text x="479" y="423.0" text-anchor="end" fill="#444">0.46</text>
<line x1="482" y1="380.0" x2="485" y2="380.0" stroke="#444"/>
<text x="479" y="383.0" text-anchor="end" fill="#444">1</text>
<text x="636.0" y="574" text-anchor="middle" fill="#444">Event time (years from adoption)</text>
<text x="437" y="460.0" text-anchor="middle" fill="#444" transform="rotate(-90 437 460.0)">ATT (per 100k)</text>
<rect x="15" y="620" width="380" height="260" fill="#fafaf7" stroke="#e2e2dc"/>
<text x="205.0" y="638" text-anchor="middle" font-weight="600">Total homicide rate (per 100k)</text>
<line x1="75" y1="720.5067125756423" x2="377" y2="720.5067125756423" stroke="#aaaaaa" stroke-width="0.7"/>
<polygon points="88.7,688.8 116.2,684.6 143.6,670.0 171.1,688.5 226.0,725.6 253.5,706.9 280.9,707.7 308.4,685.6 335.8,757.0 363.3,759.4 363.3,830.0 335.8,804.1 308.4,746.4 280.9,752.6 253.5,743.0 226.0,750.9 171.1,715.8 143.6,709.6 116.2,730.9 88.7,736.3" fill="#1f3a5f" opacity="0.18"/>
<polyline points="88.7,712.5 116.2,707.7 143.6,689.8 171.1,702.1 226.0,738.2 253.5,725.0 280.9,730.2 308.4,716.0 335.8,780.6 363.3,794.7" fill="none" stroke="#1f3a5f" stroke-width="1.6"/>
<circle cx="88.7" cy="712.5" r="2.6" fill="#1f3a5f"/>
<circle cx="116.2" cy="707.7" r="2.6" fill="#1f3a5f"/>
<circle cx="143.6" cy="689.8" r="2.6" fill="#1f3a5f"/>
<circle cx="171.1" cy="702.1" r="2.6" fill="#1f3a5f"/>
<circle cx="226.0" cy="738.2" r="2.6" fill="#1f3a5f"/>
<circle cx="253.5" cy="725.0" r="2.6" fill="#1f3a5f"/>
<circle cx="280.9" cy="730.2" r="2.6" fill="#1f3a5f"/>
<circle cx="308.4" cy="716.0" r="2.6" fill="#1f3a5f"/>
<circle cx="335.8" cy="780.6" r="2.6" fill="#1f3a5f"/>
<circle cx="363.3" cy="794.7" r="2.6" fill="#1f3a5f"/>
<line x1="212.3" y1="670" x2="212.3" y2="830" stroke="#b9461a" stroke-dasharray="3 3"/>
<line x1="75" y1="830" x2="377" y2="830" stroke="#444"/>
<line x1="75" y1="670" x2="75" y2="830" stroke="#444"/>
<line x1="88.7" y1="830" x2="88.7" y2="833" stroke="#444"/>
<text x="88.7" y="845" text-anchor="middle" fill="#444">-5</text>
<line x1="116.2" y1="830" x2="116.2" y2="833" stroke="#444"/>
<text x="116.2" y="845" text-anchor="middle" fill="#444">-4</text>
<line x1="143.6" y1="830" x2="143.6" y2="833" stroke="#444"/>
<text x="143.6" y="845" text-anchor="middle" fill="#444">-3</text>
<line x1="171.1" y1="830" x2="171.1" y2="833" stroke="#444"/>
<text x="171.1" y="845" text-anchor="middle" fill="#444">-2</text>
<line x1="226.0" y1="830" x2="226.0" y2="833" stroke="#444"/>
<text x="226.0" y="845" text-anchor="middle" fill="#444">0</text>
<line x1="253.5" y1="830" x2="253.5" y2="833" stroke="#444"/>
<text x="253.5" y="845" text-anchor="middle" fill="#444">1</text>
<line x1="280.9" y1="830" x2="280.9" y2="833" stroke="#444"/>
<text x="280.9" y="845" text-anchor="middle" fill="#444">2</text>
<line x1="308.4" y1="830" x2="308.4" y2="833" stroke="#444"/>
<text x="308.4" y="845" text-anchor="middle" fill="#444">3</text>
<line x1="335.8" y1="830" x2="335.8" y2="833" stroke="#444"/>
<text x="335.8" y="845" text-anchor="middle" fill="#444">4</text>
<line x1="363.3" y1="830" x2="363.3" y2="833" stroke="#444"/>
<text x="363.3" y="845" text-anchor="middle" fill="#444">5</text>
<line x1="72" y1="830.0" x2="75" y2="830.0" stroke="#444"/>
<text x="69" y="833.0" text-anchor="end" fill="#444">-1.7</text>
<line x1="72" y1="790.0" x2="75" y2="790.0" stroke="#444"/>
<text x="69" y="793.0" text-anchor="end" fill="#444">-1.1</text>
<line x1="72" y1="750.0" x2="75" y2="750.0" stroke="#444"/>
<text x="69" y="753.0" text-anchor="end" fill="#444">-0.47</text>
<line x1="72" y1="710.0" x2="75" y2="710.0" stroke="#444"/>
<text x="69" y="713.0" text-anchor="end" fill="#444">0.17</text>
<line x1="72" y1="670.0" x2="75" y2="670.0" stroke="#444"/>
<text x="69" y="673.0" text-anchor="end" fill="#444">0.8</text>
<text x="226.0" y="864" text-anchor="middle" fill="#444">Event time (years from adoption)</text>
<text x="27" y="750.0" text-anchor="middle" fill="#444" transform="rotate(-90 27 750.0)">ATT (per 100k)</text>
<rect x="425" y="620" width="380" height="260" fill="#fafaf7" stroke="#e2e2dc"/>
<text x="615.0" y="638" text-anchor="middle" font-weight="600">Motor vehicle theft rate (per 100k) [placebo]</text>
<line x1="485" y1="793.9119959207073" x2="787" y2="793.9119959207073" stroke="#aaaaaa" stroke-width="0.7"/>
<polygon points="498.7,772.9 526.2,759.7 553.6,770.8 581.1,778.5 636.0,781.6 663.5,753.3 690.9,732.0 718.4,692.5 745.8,729.4 773.3,670.0 773.3,809.5 745.8,809.2 718.4,778.3 690.9,799.3 663.5,791.7 636.0,800.0 581.1,807.4 553.6,809.6 526.2,807.6 498.7,830.0" fill="#1f3a5f" opacity="0.18"/>
<polyline points="498.7,801.5 526.2,783.6 553.6,790.2 581.1,793.0 636.0,790.8 663.5,772.5 690.9,765.6 718.4,735.4 745.8,769.3 773.3,739.8" fill="none" stroke="#1f3a5f" stroke-width="1.6"/>
<circle cx="498.7" cy="801.5" r="2.6" fill="#1f3a5f"/>
<circle cx="526.2" cy="783.6" r="2.6" fill="#1f3a5f"/>
<circle cx="553.6" cy="790.2" r="2.6" fill="#1f3a5f"/>
<circle cx="581.1" cy="793.0" r="2.6" fill="#1f3a5f"/>
<circle cx="636.0" cy="790.8" r="2.6" fill="#1f3a5f"/>
<circle cx="663.5" cy="772.5" r="2.6" fill="#1f3a5f"/>
<circle cx="690.9" cy="765.6" r="2.6" fill="#1f3a5f"/>
<circle cx="718.4" cy="735.4" r="2.6" fill="#1f3a5f"/>
<circle cx="745.8" cy="769.3" r="2.6" fill="#1f3a5f"/>
<circle cx="773.3" cy="739.8" r="2.6" fill="#1f3a5f"/>
<line x1="622.3" y1="670" x2="622.3" y2="830" stroke="#b9461a" stroke-dasharray="3 3"/>
<line x1="485" y1="830" x2="787" y2="830" stroke="#444"/>
<line x1="485" y1="670" x2="485" y2="830" stroke="#444"/>
<line x1="498.7" y1="830" x2="498.7" y2="833" stroke="#444"/>
<text x="498.7" y="845" text-anchor="middle" fill="#444">-5</text>
<line x1="526.2" y1="830" x2="526.2" y2="833" stroke="#444"/>
<text x="526.2" y="845" text-anchor="middle" fill="#444">-4</text>
<line x1="553.6" y1="830" x2="553.6" y2="833" stroke="#444"/>
<text x="553.6" y="845" text-anchor="middle" fill="#444">-3</text>
<line x1="581.1" y1="830" x2="581.1" y2="833" stroke="#444"/>
<text x="581.1" y="845" text-anchor="middle" fill="#444">-2</text>
<line x1="636.0" y1="830" x2="636.0" y2="833" stroke="#444"/>
<text x="636.0" y="845" text-anchor="middle" fill="#444">0</text>
<line x1="663.5" y1="830" x2="663.5" y2="833" stroke="#444"/>
<text x="663.5" y="845" text-anchor="middle" fill="#444">1</text>
<line x1="690.9" y1="830" x2="690.9" y2="833" stroke="#444"/>
<text x="690.9" y="845" text-anchor="middle" fill="#444">2</text>
<line x1="718.4" y1="830" x2="718.4" y2="833" stroke="#444"/>
<text x="718.4" y="845" text-anchor="middle" fill="#444">3</text>
<line x1="745.8" y1="830" x2="745.8" y2="833" stroke="#444"/>
<text x="745.8" y="845" text-anchor="middle" fill="#444">4</text>
<line x1="773.3" y1="830" x2="773.3" y2="833" stroke="#444"/>
<text x="773.3" y="845" text-anchor="middle" fill="#444">5</text>
<line x1="482" y1="830.0" x2="485" y2="830.0" stroke="#444"/>
<text x="479" y="833.0" text-anchor="end" fill="#444">-28</text>
<line x1="482" y1="790.0" x2="485" y2="790.0" stroke="#444"/>
<text x="479" y="793.0" text-anchor="end" fill="#444">3.1</text>
<line x1="482" y1="750.0" x2="485" y2="750.0" stroke="#444"/>
<text x="479" y="753.0" text-anchor="end" fill="#444">34</text>
<line x1="482" y1="710.0" x2="485" y2="710.0" stroke="#444"/>
<text x="479" y="713.0" text-anchor="end" fill="#444">66</text>
<line x1="482" y1="670.0" x2="485" y2="670.0" stroke="#444"/>
<text x="479" y="673.0" text-anchor="end" fill="#444">97</text>
<text x="636.0" y="864" text-anchor="middle" fill="#444">Event time (years from adoption)</text>
<text x="437" y="750.0" text-anchor="middle" fill="#444" transform="rotate(-90 437 750.0)">ATT (per 100k)</text>
<text x="805" y="608" text-anchor="end" fill="#888" font-size="10">Shaded band: pointwise 95% CI from cluster bootstrap. Vertical dashed line marks the year before adoption.</text>
</svg>