<svg xmlns="http://www.w3.org/2000/svg" viewBox="0 0 820 1200" font-family="-apple-system, Segoe UI, Helvetica, Arial, sans-serif" font-size="11">
<text x="410.0" y="22" text-anchor="middle" font-size="14" font-weight="600">Callaway-Sant'Anna ATT by event time, county grain (RA) -- universal background checks (law_universal)</text>
<rect x="15" y="40" width="380" height="260" fill="#fafaf7" stroke="#e2e2dc"/>
<text x="205.0" y="58" text-anchor="middle" font-weight="600">Violent crime rate (per 100k, county UCR)</text>
<line x1="75" y1="90.0" x2="377" y2="90.0" stroke="#aaaaaa" stroke-width="0.7"/>
<polygon points="88.7,155.3 116.2,158.5 143.6,181.5 171.1,123.4 226.0,208.5 253.5,162.7 280.9,147.7 308.4,138.0 335.8,107.1 363.3,125.6 363.3,187.6 335.8,155.0 308.4,188.9 280.9,194.9 253.5,223.1 226.0,250.0 171.1,167.1 143.6,224.2 116.2,205.9 88.7,199.3" fill="#1f3a5f" opacity="0.18"/>
<polyline points="88.7,177.3 116.2,182.2 143.6,202.8 171.1,145.2 226.0,229.2 253.5,192.9 280.9,171.3 308.4,163.5 335.8,131.0 363.3,156.6" fill="none" stroke="#1f3a5f" stroke-width="1.6"/>
<circle cx="88.7" cy="177.3" r="2.6" fill="#1f3a5f"/>
<circle cx="116.2" cy="182.2" r="2.6" fill="#1f3a5f"/>
<circle cx="143.6" cy="202.8" r="2.6" fill="#1f3a5f"/>
<circle cx="171.1" cy="145.2" r="2.6" fill="#1f3a5f"/>
<circle cx="226.0" cy="229.2" r="2.6" fill="#1f3a5f"/>
<circle cx="253.5" cy="192.9" r="2.6" fill="#1f3a5f"/>
<circle cx="280.9" cy="171.3" r="2.6" fill="#1f3a5f"/>
<circle cx="308.4" cy="163.5" r="2.6" fill="#1f3a5f"/>
<circle cx="335.8" cy="131.0" r="2.6" fill="#1f3a5f"/>
<circle cx="363.3" cy="156.6" r="2.6" fill="#1f3a5f"/>
<line x1="212.3" y1="90" x2="212.3" y2="250" stroke="#b9461a" stroke-dasharray="3 3"/>
<line x1="75" y1="250" x2="377" y2="250" stroke="#444"/>
<line x1="75" y1="90" x2="75" y2="250" stroke="#444"/>
<line x1="88.7" y1="250" x2="88.7" y2="253" stroke="#444"/>
<text x="88.7" y="265" text-anchor="middle" fill="#444">-5</text>
<line x1="116.2" y1="250" x2="116.2" y2="253" stroke="#444"/>
<text x="116.2" y="265" text-anchor="middle" fill="#444">-4</text>
<line x1="143.6" y1="250" x2="143.6" y2="253" stroke="#444"/>
<text x="143.6" y="265" text-anchor="middle" fill="#444">-3</text>
<line x1="171.1" y1="250" x2="171.1" y2="253" stroke="#444"/>
<text x="171.1" y="265" text-anchor="middle" fill="#444">-2</text>
<line x1="226.0" y1="250" x2="226.0" y2="253" stroke="#444"/>
<text x="226.0" y="265" text-anchor="middle" fill="#444">0</text>
<line x1="253.5" y1="250" x2="253.5" y2="253" stroke="#444"/>
<text x="253.5" y="265" text-anchor="middle" fill="#444">1</text>
<line x1="280.9" y1="250" x2="280.9" y2="253" stroke="#444"/>
<text x="280.9" y="265" text-anchor="middle" fill="#444">2</text>
<line x1="308.4" y1="250" x2="308.4" y2="253" stroke="#444"/>
<text x="308.4" y="265" text-anchor="middle" fill="#444">3</text>
<line x1="335.8" y1="250" x2="335.8" y2="253" stroke="#444"/>
<text x="335.8" y="265" text-anchor="middle" fill="#444">4</text>
<line x1="363.3" y1="250" x2="363.3" y2="253" stroke="#444"/>
<text x="363.3" y="265" text-anchor="middle" fill="#444">5</text>
<line x1="72" y1="250.0" x2="75" y2="250.0" stroke="#444"/>
<text x="69" y="253.0" text-anchor="end" fill="#444">-44</text>
<line x1="72" y1="210.0" x2="75" y2="210.0" stroke="#444"/>
<text x="69" y="213.0" text-anchor="end" fill="#444">-33</text>
<line x1="72" y1="170.0" x2="75" y2="170.0" stroke="#444"/>
<text x="69" y="173.0" text-anchor="end" fill="#444">-22</text>
<line x1="72" y1="130.0" x2="75" y2="130.0" stroke="#444"/>
<text x="69" y="133.0" text-anchor="end" fill="#444">-11</text>
<line x1="72" y1="90.0" x2="75" y2="90.0" stroke="#444"/>
<text x="69" y="93.0" text-anchor="end" fill="#444">0</text>
<text x="226.0" y="284" text-anchor="middle" fill="#444">Event time (years from state-level adoption)</text>
<text x="27" y="170.0" text-anchor="middle" fill="#444" transform="rotate(-90 27 170.0)">ATT (per 100k)</text>
<rect x="425" y="40" width="380" height="260" fill="#fafaf7" stroke="#e2e2dc"/>
<text x="615.0" y="58" text-anchor="middle" font-weight="600">Murder rate (per 100k, county UCR)</text>
<line x1="485" y1="100.894697577784" x2="787" y2="100.894697577784" stroke="#aaaaaa" stroke-width="0.7"/>
<polygon points="498.7,137.4 526.2,146.1 553.6,135.9 581.1,90.0 636.0,139.3 663.5,185.6 690.9,171.6 718.4,136.1 745.8,194.7 773.3,163.8 773.3,242.3 745.8,250.0 718.4,184.2 690.9,223.9 663.5,236.1 636.0,184.3 581.1,149.5 553.6,177.3 526.2,193.6 498.7,177.6" fill="#1f3a5f" opacity="0.18"/>
<polyline points="498.7,157.5 526.2,169.9 553.6,156.6 581.1,119.8 636.0,161.8 663.5,210.8 690.9,197.7 718.4,160.1 745.8,222.3 773.3,203.0" fill="none" stroke="#1f3a5f" stroke-width="1.6"/>
<circle cx="498.7" cy="157.5" r="2.6" fill="#1f3a5f"/>
<circle cx="526.2" cy="169.9" r="2.6" fill="#1f3a5f"/>
<circle cx="553.6" cy="156.6" r="2.6" fill="#1f3a5f"/>
<circle cx="581.1" cy="119.8" r="2.6" fill="#1f3a5f"/>
<circle cx="636.0" cy="161.8" r="2.6" fill="#1f3a5f"/>
<circle cx="663.5" cy="210.8" r="2.6" fill="#1f3a5f"/>
<circle cx="690.9" cy="197.7" r="2.6" fill="#1f3a5f"/>
<circle cx="718.4" cy="160.1" r="2.6" fill="#1f3a5f"/>
<circle cx="745.8" cy="222.3" r="2.6" fill="#1f3a5f"/>
<circle cx="773.3" cy="203.0" r="2.6" fill="#1f3a5f"/>
<line x1="622.3" y1="90" x2="622.3" y2="250" stroke="#b9461a" stroke-dasharray="3 3"/>
<line x1="485" y1="250" x2="787" y2="250" stroke="#444"/>
<line x1="485" y1="90" x2="485" y2="250" stroke="#444"/>
<line x1="498.7" y1="250" x2="498.7" y2="253" stroke="#444"/>
<text x="498.7" y="265" text-anchor="middle" fill="#444">-5</text>
<line x1="526.2" y1="250" x2="526.2" y2="253" stroke="#444"/>
<text x="526.2" y="265" text-anchor="middle" fill="#444">-4</text>
<line x1="553.6" y1="250" x2="553.6" y2="253" stroke="#444"/>
<text x="553.6" y="265" text-anchor="middle" fill="#444">-3</text>
<line x1="581.1" y1="250" x2="581.1" y2="253" stroke="#444"/>
<text x="581.1" y="265" text-anchor="middle" fill="#444">-2</text>
<line x1="636.0" y1="250" x2="636.0" y2="253" stroke="#444"/>
<text x="636.0" y="265" text-anchor="middle" fill="#444">0</text>
<line x1="663.5" y1="250" x2="663.5" y2="253" stroke="#444"/>
<text x="663.5" y="265" text-anchor="middle" fill="#444">1</text>
<line x1="690.9" y1="250" x2="690.9" y2="253" stroke="#444"/>
<text x="690.9" y="265" text-anchor="middle" fill="#444">2</text>
<line x1="718.4" y1="250" x2="718.4" y2="253" stroke="#444"/>
<text x="718.4" y="265" text-anchor="middle" fill="#444">3</text>
<line x1="745.8" y1="250" x2="745.8" y2="253" stroke="#444"/>
<text x="745.8" y="265" text-anchor="middle" fill="#444">4</text>
<line x1="773.3" y1="250" x2="773.3" y2="253" stroke="#444"/>
<text x="773.3" y="265" text-anchor="middle" fill="#444">5</text>
<line x1="482" y1="250.0" x2="485" y2="250.0" stroke="#444"/>
<text x="479" y="253.0" text-anchor="end" fill="#444">-2.1</text>
<line x1="482" y1="210.0" x2="485" y2="210.0" stroke="#444"/>
<text x="479" y="213.0" text-anchor="end" fill="#444">-1.6</text>
<line x1="482" y1="170.0" x2="485" y2="170.0" stroke="#444"/>
<text x="479" y="173.0" text-anchor="end" fill="#444">-0.99</text>
<line x1="482" y1="130.0" x2="485" y2="130.0" stroke="#444"/>
<text x="479" y="133.0" text-anchor="end" fill="#444">-0.42</text>
<line x1="482" y1="90.0" x2="485" y2="90.0" stroke="#444"/>
<text x="479" y="93.0" text-anchor="end" fill="#444">0.16</text>
<text x="636.0" y="284" text-anchor="middle" fill="#444">Event time (years from state-level adoption)</text>
<text x="437" y="170.0" text-anchor="middle" fill="#444" transform="rotate(-90 437 170.0)">ATT (per 100k)</text>
<rect x="15" y="330" width="380" height="260" fill="#fafaf7" stroke="#e2e2dc"/>
<text x="205.0" y="348" text-anchor="middle" font-weight="600">Property crime rate (per 100k, county UCR)</text>
<line x1="75" y1="430.04754079547934" x2="377" y2="430.04754079547934" stroke="#aaaaaa" stroke-width="0.7"/>
<polygon points="88.7,505.9 116.2,418.0 143.6,492.2 171.1,443.0 226.0,472.9 253.5,418.0 280.9,420.3 308.4,388.1 335.8,380.0 363.3,384.2 363.3,428.3 335.8,411.5 308.4,420.8 280.9,442.8 253.5,446.3 226.0,494.3 171.1,465.3 143.6,511.5 116.2,438.6 88.7,540.0" fill="#1f3a5f" opacity="0.18"/>
<polyline points="88.7,523.0 116.2,428.3 143.6,501.9 171.1,454.2 226.0,483.6 253.5,432.2 280.9,431.5 308.4,404.5 335.8,395.7 363.3,406.2" fill="none" stroke="#1f3a5f" stroke-width="1.6"/>
<circle cx="88.7" cy="523.0" r="2.6" fill="#1f3a5f"/>
<circle cx="116.2" cy="428.3" r="2.6" fill="#1f3a5f"/>
<circle cx="143.6" cy="501.9" r="2.6" fill="#1f3a5f"/>
<circle cx="171.1" cy="454.2" r="2.6" fill="#1f3a5f"/>
<circle cx="226.0" cy="483.6" r="2.6" fill="#1f3a5f"/>
<circle cx="253.5" cy="432.2" r="2.6" fill="#1f3a5f"/>
<circle cx="280.9" cy="431.5" r="2.6" fill="#1f3a5f"/>
<circle cx="308.4" cy="404.5" r="2.6" fill="#1f3a5f"/>
<circle cx="335.8" cy="395.7" r="2.6" fill="#1f3a5f"/>
<circle cx="363.3" cy="406.2" r="2.6" fill="#1f3a5f"/>
<line x1="212.3" y1="380" x2="212.3" y2="540" stroke="#b9461a" stroke-dasharray="3 3"/>
<line x1="75" y1="540" x2="377" y2="540" stroke="#444"/>
<line x1="75" y1="380" x2="75" y2="540" stroke="#444"/>
<line x1="88.7" y1="540" x2="88.7" y2="543" stroke="#444"/>
<text x="88.7" y="555" text-anchor="middle" fill="#444">-5</text>
<line x1="116.2" y1="540" x2="116.2" y2="543" stroke="#444"/>
<text x="116.2" y="555" text-anchor="middle" fill="#444">-4</text>
<line x1="143.6" y1="540" x2="143.6" y2="543" stroke="#444"/>
<text x="143.6" y="555" text-anchor="middle" fill="#444">-3</text>
<line x1="171.1" y1="540" x2="171.1" y2="543" stroke="#444"/>
<text x="171.1" y="555" text-anchor="middle" fill="#444">-2</text>
<line x1="226.0" y1="540" x2="226.0" y2="543" stroke="#444"/>
<text x="226.0" y="555" text-anchor="middle" fill="#444">0</text>
<line x1="253.5" y1="540" x2="253.5" y2="543" stroke="#444"/>
<text x="253.5" y="555" text-anchor="middle" fill="#444">1</text>
<line x1="280.9" y1="540" x2="280.9" y2="543" stroke="#444"/>
<text x="280.9" y="555" text-anchor="middle" fill="#444">2</text>
<line x1="308.4" y1="540" x2="308.4" y2="543" stroke="#444"/>
<text x="308.4" y="555" text-anchor="middle" fill="#444">3</text>
<line x1="335.8" y1="540" x2="335.8" y2="543" stroke="#444"/>
<text x="335.8" y="555" text-anchor="middle" fill="#444">4</text>
<line x1="363.3" y1="540" x2="363.3" y2="543" stroke="#444"/>
<text x="363.3" y="555" text-anchor="middle" fill="#444">5</text>
<line x1="72" y1="540.0" x2="75" y2="540.0" stroke="#444"/>
<text x="69" y="543.0" text-anchor="end" fill="#444">-2.1e+02</text>
<line x1="72" y1="500.0" x2="75" y2="500.0" stroke="#444"/>
<text x="69" y="503.0" text-anchor="end" fill="#444">-1.4e+02</text>
<line x1="72" y1="460.0" x2="75" y2="460.0" stroke="#444"/>
<text x="69" y="463.0" text-anchor="end" fill="#444">-58</text>
<line x1="72" y1="420.0" x2="75" y2="420.0" stroke="#444"/>
<text x="69" y="423.0" text-anchor="end" fill="#444">19</text>
<line x1="72" y1="380.0" x2="75" y2="380.0" stroke="#444"/>
<text x="69" y="383.0" text-anchor="end" fill="#444">97</text>
<text x="226.0" y="574" text-anchor="middle" fill="#444">Event time (years from state-level adoption)</text>
<text x="27" y="460.0" text-anchor="middle" fill="#444" transform="rotate(-90 27 460.0)">ATT (per 100k)</text>
<rect x="425" y="330" width="380" height="260" fill="#fafaf7" stroke="#e2e2dc"/>
<text x="615.0" y="348" text-anchor="middle" font-weight="600">Burglary rate (per 100k, county UCR)</text>
<line x1="485" y1="388.3828315691271" x2="787" y2="388.3828315691271" stroke="#aaaaaa" stroke-width="0.7"/>
<polygon points="498.7,492.5 526.2,471.7 553.6,463.0 581.1,388.1 636.0,405.9 663.5,390.9 690.9,416.0 718.4,380.0 745.8,385.5 773.3,412.1 773.3,462.7 745.8,416.6 718.4,401.7 690.9,440.3 663.5,416.5 636.0,426.2 581.1,410.5 553.6,485.5 526.2,496.9 498.7,540.0" fill="#1f3a5f" opacity="0.18"/>
<polyline points="498.7,516.2 526.2,484.3 553.6,474.3 581.1,399.3 636.0,416.0 663.5,403.7 690.9,428.2 718.4,390.9 745.8,401.1 773.3,437.4" fill="none" stroke="#1f3a5f" stroke-width="1.6"/>
<circle cx="498.7" cy="516.2" r="2.6" fill="#1f3a5f"/>
<circle cx="526.2" cy="484.3" r="2.6" fill="#1f3a5f"/>
<circle cx="553.6" cy="474.3" r="2.6" fill="#1f3a5f"/>
<circle cx="581.1" cy="399.3" r="2.6" fill="#1f3a5f"/>
<circle cx="636.0" cy="416.0" r="2.6" fill="#1f3a5f"/>
<circle cx="663.5" cy="403.7" r="2.6" fill="#1f3a5f"/>
<circle cx="690.9" cy="428.2" r="2.6" fill="#1f3a5f"/>
<circle cx="718.4" cy="390.9" r="2.6" fill="#1f3a5f"/>
<circle cx="745.8" cy="401.1" r="2.6" fill="#1f3a5f"/>
<circle cx="773.3" cy="437.4" r="2.6" fill="#1f3a5f"/>
<line x1="622.3" y1="380" x2="622.3" y2="540" stroke="#b9461a" stroke-dasharray="3 3"/>
<line x1="485" y1="540" x2="787" y2="540" stroke="#444"/>
<line x1="485" y1="380" x2="485" y2="540" stroke="#444"/>
<line x1="498.7" y1="540" x2="498.7" y2="543" stroke="#444"/>
<text x="498.7" y="555" text-anchor="middle" fill="#444">-5</text>
<line x1="526.2" y1="540" x2="526.2" y2="543" stroke="#444"/>
<text x="526.2" y="555" text-anchor="middle" fill="#444">-4</text>
<line x1="553.6" y1="540" x2="553.6" y2="543" stroke="#444"/>
<text x="553.6" y="555" text-anchor="middle" fill="#444">-3</text>
<line x1="581.1" y1="540" x2="581.1" y2="543" stroke="#444"/>
<text x="581.1" y="555" text-anchor="middle" fill="#444">-2</text>
<line x1="636.0" y1="540" x2="636.0" y2="543" stroke="#444"/>
<text x="636.0" y="555" text-anchor="middle" fill="#444">0</text>
<line x1="663.5" y1="540" x2="663.5" y2="543" stroke="#444"/>
<text x="663.5" y="555" text-anchor="middle" fill="#444">1</text>
<line x1="690.9" y1="540" x2="690.9" y2="543" stroke="#444"/>
<text x="690.9" y="555" text-anchor="middle" fill="#444">2</text>
<line x1="718.4" y1="540" x2="718.4" y2="543" stroke="#444"/>
<text x="718.4" y="555" text-anchor="middle" fill="#444">3</text>
<line x1="745.8" y1="540" x2="745.8" y2="543" stroke="#444"/>
<text x="745.8" y="555" text-anchor="middle" fill="#444">4</text>
<line x1="773.3" y1="540" x2="773.3" y2="543" stroke="#444"/>
<text x="773.3" y="555" text-anchor="middle" fill="#444">5</text>
<line x1="482" y1="540.0" x2="485" y2="540.0" stroke="#444"/>
<text x="479" y="543.0" text-anchor="end" fill="#444">-74</text>
<line x1="482" y1="500.0" x2="485" y2="500.0" stroke="#444"/>
<text x="479" y="503.0" text-anchor="end" fill="#444">-54</text>
<line x1="482" y1="460.0" x2="485" y2="460.0" stroke="#444"/>
<text x="479" y="463.0" text-anchor="end" fill="#444">-35</text>
<line x1="482" y1="420.0" x2="485" y2="420.0" stroke="#444"/>
<text x="479" y="423.0" text-anchor="end" fill="#444">-15</text>
<line x1="482" y1="380.0" x2="485" y2="380.0" stroke="#444"/>
<text x="479" y="383.0" text-anchor="end" fill="#444">4.1</text>
<text x="636.0" y="574" text-anchor="middle" fill="#444">Event time (years from state-level adoption)</text>
<text x="437" y="460.0" text-anchor="middle" fill="#444" transform="rotate(-90 437 460.0)">ATT (per 100k)</text>
<rect x="15" y="620" width="380" height="260" fill="#fafaf7" stroke="#e2e2dc"/>
<text x="205.0" y="638" text-anchor="middle" font-weight="600">Motor vehicle theft rate (per 100k, county UCR) [placebo]</text>
<line x1="75" y1="813.4856070049879" x2="377" y2="813.4856070049879" stroke="#aaaaaa" stroke-width="0.7"/>
<polygon points="88.7,824.4 116.2,670.0 143.6,814.4 171.1,806.3 226.0,817.8 253.5,815.4 280.9,796.4 308.4,789.3 335.8,812.0 363.3,806.9 363.3,818.5 335.8,821.7 308.4,799.3 280.9,803.8 253.5,823.1 226.0,822.7 171.1,811.5 143.6,819.5 116.2,675.5 88.7,830.0" fill="#1f3a5f" opacity="0.18"/>
<polyline points="88.7,827.2 116.2,672.8 143.6,817.0 171.1,808.9 226.0,820.2 253.5,819.3 280.9,800.1 308.4,794.3 335.8,816.8 363.3,812.7" fill="none" stroke="#1f3a5f" stroke-width="1.6"/>
<circle cx="88.7" cy="827.2" r="2.6" fill="#1f3a5f"/>
<circle cx="116.2" cy="672.8" r="2.6" fill="#1f3a5f"/>
<circle cx="143.6" cy="817.0" r="2.6" fill="#1f3a5f"/>
<circle cx="171.1" cy="808.9" r="2.6" fill="#1f3a5f"/>
<circle cx="226.0" cy="820.2" r="2.6" fill="#1f3a5f"/>
<circle cx="253.5" cy="819.3" r="2.6" fill="#1f3a5f"/>
<circle cx="280.9" cy="800.1" r="2.6" fill="#1f3a5f"/>
<circle cx="308.4" cy="794.3" r="2.6" fill="#1f3a5f"/>
<circle cx="335.8" cy="816.8" r="2.6" fill="#1f3a5f"/>
<circle cx="363.3" cy="812.7" r="2.6" fill="#1f3a5f"/>
<line x1="212.3" y1="670" x2="212.3" y2="830" stroke="#b9461a" stroke-dasharray="3 3"/>
<line x1="75" y1="830" x2="377" y2="830" stroke="#444"/>
<line x1="75" y1="670" x2="75" y2="830" stroke="#444"/>
<line x1="88.7" y1="830" x2="88.7" y2="833" stroke="#444"/>
<text x="88.7" y="845" text-anchor="middle" fill="#444">-5</text>
<line x1="116.2" y1="830" x2="116.2" y2="833" stroke="#444"/>
<text x="116.2" y="845" text-anchor="middle" fill="#444">-4</text>
<line x1="143.6" y1="830" x2="143.6" y2="833" stroke="#444"/>
<text x="143.6" y="845" text-anchor="middle" fill="#444">-3</text>
<line x1="171.1" y1="830" x2="171.1" y2="833" stroke="#444"/>
<text x="171.1" y="845" text-anchor="middle" fill="#444">-2</text>
<line x1="226.0" y1="830" x2="226.0" y2="833" stroke="#444"/>
<text x="226.0" y="845" text-anchor="middle" fill="#444">0</text>
<line x1="253.5" y1="830" x2="253.5" y2="833" stroke="#444"/>
<text x="253.5" y="845" text-anchor="middle" fill="#444">1</text>
<line x1="280.9" y1="830" x2="280.9" y2="833" stroke="#444"/>
<text x="280.9" y="845" text-anchor="middle" fill="#444">2</text>
<line x1="308.4" y1="830" x2="308.4" y2="833" stroke="#444"/>
<text x="308.4" y="845" text-anchor="middle" fill="#444">3</text>
<line x1="335.8" y1="830" x2="335.8" y2="833" stroke="#444"/>
<text x="335.8" y="845" text-anchor="middle" fill="#444">4</text>
<line x1="363.3" y1="830" x2="363.3" y2="833" stroke="#444"/>
<text x="363.3" y="845" text-anchor="middle" fill="#444">5</text>
<line x1="72" y1="830.0" x2="75" y2="830.0" stroke="#444"/>
<text x="69" y="833.0" text-anchor="end" fill="#444">-14</text>
<line x1="72" y1="790.0" x2="75" y2="790.0" stroke="#444"/>
<text x="69" y="793.0" text-anchor="end" fill="#444">20</text>
<line x1="72" y1="750.0" x2="75" y2="750.0" stroke="#444"/>
<text x="69" y="753.0" text-anchor="end" fill="#444">53</text>
<line x1="72" y1="710.0" x2="75" y2="710.0" stroke="#444"/>
<text x="69" y="713.0" text-anchor="end" fill="#444">87</text>
<line x1="72" y1="670.0" x2="75" y2="670.0" stroke="#444"/>
<text x="69" y="673.0" text-anchor="end" fill="#444">1.2e+02</text>
<text x="226.0" y="864" text-anchor="middle" fill="#444">Event time (years from state-level adoption)</text>
<text x="27" y="750.0" text-anchor="middle" fill="#444" transform="rotate(-90 27 750.0)">ATT (per 100k)</text>
<rect x="425" y="620" width="380" height="260" fill="#fafaf7" stroke="#e2e2dc"/>
<text x="615.0" y="638" text-anchor="middle" font-weight="600">State firearm suicide rate (joined down) [no county variation]</text>
<line x1="485" y1="728.8443597552897" x2="787" y2="728.8443597552897" stroke="#aaaaaa" stroke-width="0.7"/>
<polygon points="498.7,670.0 526.2,674.3 553.6,735.3 581.1,708.2 636.0,716.2 663.5,769.5 690.9,793.8 718.4,753.0 745.8,772.1 773.3,727.2 773.3,764.9 745.8,799.3 718.4,793.7 690.9,830.0 663.5,800.1 636.0,752.3 581.1,747.6 553.6,765.1 526.2,696.8 498.7,696.0" fill="#1f3a5f" opacity="0.18"/>
<polyline points="498.7,683.0 526.2,685.5 553.6,750.2 581.1,727.9 636.0,734.2 663.5,784.8 690.9,811.9 718.4,773.3 745.8,785.7 773.3,746.1" fill="none" stroke="#1f3a5f" stroke-width="1.6"/>
<circle cx="498.7" cy="683.0" r="2.6" fill="#1f3a5f"/>
<circle cx="526.2" cy="685.5" r="2.6" fill="#1f3a5f"/>
<circle cx="553.6" cy="750.2" r="2.6" fill="#1f3a5f"/>
<circle cx="581.1" cy="727.9" r="2.6" fill="#1f3a5f"/>
<circle cx="636.0" cy="734.2" r="2.6" fill="#1f3a5f"/>
<circle cx="663.5" cy="784.8" r="2.6" fill="#1f3a5f"/>
<circle cx="690.9" cy="811.9" r="2.6" fill="#1f3a5f"/>
<circle cx="718.4" cy="773.3" r="2.6" fill="#1f3a5f"/>
<circle cx="745.8" cy="785.7" r="2.6" fill="#1f3a5f"/>
<circle cx="773.3" cy="746.1" r="2.6" fill="#1f3a5f"/>
<line x1="622.3" y1="670" x2="622.3" y2="830" stroke="#b9461a" stroke-dasharray="3 3"/>
<line x1="485" y1="830" x2="787" y2="830" stroke="#444"/>
<line x1="485" y1="670" x2="485" y2="830" stroke="#444"/>
<line x1="498.7" y1="830" x2="498.7" y2="833" stroke="#444"/>
<text x="498.7" y="845" text-anchor="middle" fill="#444">-5</text>
<line x1="526.2" y1="830" x2="526.2" y2="833" stroke="#444"/>
<text x="526.2" y="845" text-anchor="middle" fill="#444">-4</text>
<line x1="553.6" y1="830" x2="553.6" y2="833" stroke="#444"/>
<text x="553.6" y="845" text-anchor="middle" fill="#444">-3</text>
<line x1="581.1" y1="830" x2="581.1" y2="833" stroke="#444"/>
<text x="581.1" y="845" text-anchor="middle" fill="#444">-2</text>
<line x1="636.0" y1="830" x2="636.0" y2="833" stroke="#444"/>
<text x="636.0" y="845" text-anchor="middle" fill="#444">0</text>
<line x1="663.5" y1="830" x2="663.5" y2="833" stroke="#444"/>
<text x="663.5" y="845" text-anchor="middle" fill="#444">1</text>
<line x1="690.9" y1="830" x2="690.9" y2="833" stroke="#444"/>
<text x="690.9" y="845" text-anchor="middle" fill="#444">2</text>
<line x1="718.4" y1="830" x2="718.4" y2="833" stroke="#444"/>
<text x="718.4" y="845" text-anchor="middle" fill="#444">3</text>
<line x1="745.8" y1="830" x2="745.8" y2="833" stroke="#444"/>
<text x="745.8" y="845" text-anchor="middle" fill="#444">4</text>
<line x1="773.3" y1="830" x2="773.3" y2="833" stroke="#444"/>
<text x="773.3" y="845" text-anchor="middle" fill="#444">5</text>
<line x1="482" y1="830.0" x2="485" y2="830.0" stroke="#444"/>
<text x="479" y="833.0" text-anchor="end" fill="#444">-0.54</text>
<line x1="482" y1="790.0" x2="485" y2="790.0" stroke="#444"/>
<text x="479" y="793.0" text-anchor="end" fill="#444">-0.33</text>
<line x1="482" y1="750.0" x2="485" y2="750.0" stroke="#444"/>
<text x="479" y="753.0" text-anchor="end" fill="#444">-0.11</text>
<line x1="482" y1="710.0" x2="485" y2="710.0" stroke="#444"/>
<text x="479" y="713.0" text-anchor="end" fill="#444">0.1</text>
<line x1="482" y1="670.0" x2="485" y2="670.0" stroke="#444"/>
<text x="479" y="673.0" text-anchor="end" fill="#444">0.32</text>
<text x="636.0" y="864" text-anchor="middle" fill="#444">Event time (years from state-level adoption)</text>
<text x="437" y="750.0" text-anchor="middle" fill="#444" transform="rotate(-90 437 750.0)">ATT (per 100k)</text>
<rect x="15" y="910" width="380" height="260" fill="#fafaf7" stroke="#e2e2dc"/>
<text x="205.0" y="928" text-anchor="middle" font-weight="600">State total suicide rate (joined down) [no county variation]</text>
<line x1="75" y1="1014.5827235132916" x2="377" y2="1014.5827235132916" stroke="#aaaaaa" stroke-width="0.7"/>
<polygon points="88.7,988.5 116.2,960.0 143.6,1011.3 171.1,1005.3 226.0,1005.6 253.5,1064.3 280.9,1065.8 308.4,1007.4 335.8,1078.9 363.3,1045.4 363.3,1110.8 335.8,1120.0 308.4,1068.2 280.9,1093.1 253.5,1083.8 226.0,1034.8 171.1,1036.8 143.6,1032.4 116.2,991.1 88.7,1010.5" fill="#1f3a5f" opacity="0.18"/>
<polyline points="88.7,999.5 116.2,975.6 143.6,1021.8 171.1,1021.1 226.0,1020.2 253.5,1074.1 280.9,1079.5 308.4,1037.8 335.8,1099.4 363.3,1078.1" fill="none" stroke="#1f3a5f" stroke-width="1.6"/>
<circle cx="88.7" cy="999.5" r="2.6" fill="#1f3a5f"/>
<circle cx="116.2" cy="975.6" r="2.6" fill="#1f3a5f"/>
<circle cx="143.6" cy="1021.8" r="2.6" fill="#1f3a5f"/>
<circle cx="171.1" cy="1021.1" r="2.6" fill="#1f3a5f"/>
<circle cx="226.0" cy="1020.2" r="2.6" fill="#1f3a5f"/>
<circle cx="253.5" cy="1074.1" r="2.6" fill="#1f3a5f"/>
<circle cx="280.9" cy="1079.5" r="2.6" fill="#1f3a5f"/>
<circle cx="308.4" cy="1037.8" r="2.6" fill="#1f3a5f"/>
<circle cx="335.8" cy="1099.4" r="2.6" fill="#1f3a5f"/>
<circle cx="363.3" cy="1078.1" r="2.6" fill="#1f3a5f"/>
<line x1="212.3" y1="960" x2="212.3" y2="1120" stroke="#b9461a" stroke-dasharray="3 3"/>
<line x1="75" y1="1120" x2="377" y2="1120" stroke="#444"/>
<line x1="75" y1="960" x2="75" y2="1120" stroke="#444"/>
<line x1="88.7" y1="1120" x2="88.7" y2="1123" stroke="#444"/>
<text x="88.7" y="1135" text-anchor="middle" fill="#444">-5</text>
<line x1="116.2" y1="1120" x2="116.2" y2="1123" stroke="#444"/>
<text x="116.2" y="1135" text-anchor="middle" fill="#444">-4</text>
<line x1="143.6" y1="1120" x2="143.6" y2="1123" stroke="#444"/>
<text x="143.6" y="1135" text-anchor="middle" fill="#444">-3</text>
<line x1="171.1" y1="1120" x2="171.1" y2="1123" stroke="#444"/>
<text x="171.1" y="1135" text-anchor="middle" fill="#444">-2</text>
<line x1="226.0" y1="1120" x2="226.0" y2="1123" stroke="#444"/>
<text x="226.0" y="1135" text-anchor="middle" fill="#444">0</text>
<line x1="253.5" y1="1120" x2="253.5" y2="1123" stroke="#444"/>
<text x="253.5" y="1135" text-anchor="middle" fill="#444">1</text>
<line x1="280.9" y1="1120" x2="280.9" y2="1123" stroke="#444"/>
<text x="280.9" y="1135" text-anchor="middle" fill="#444">2</text>
<line x1="308.4" y1="1120" x2="308.4" y2="1123" stroke="#444"/>
<text x="308.4" y="1135" text-anchor="middle" fill="#444">3</text>
<line x1="335.8" y1="1120" x2="335.8" y2="1123" stroke="#444"/>
<text x="335.8" y="1135" text-anchor="middle" fill="#444">4</text>
<line x1="363.3" y1="1120" x2="363.3" y2="1123" stroke="#444"/>
<text x="363.3" y="1135" text-anchor="middle" fill="#444">5</text>
<line x1="72" y1="1120.0" x2="75" y2="1120.0" stroke="#444"/>
<text x="69" y="1123.0" text-anchor="end" fill="#444">-0.97</text>
<line x1="72" y1="1080.0" x2="75" y2="1080.0" stroke="#444"/>
<text x="69" y="1083.0" text-anchor="end" fill="#444">-0.6</text>
<line x1="72" y1="1040.0" x2="75" y2="1040.0" stroke="#444"/>
<text x="69" y="1043.0" text-anchor="end" fill="#444">-0.23</text>
<line x1="72" y1="1000.0" x2="75" y2="1000.0" stroke="#444"/>
<text x="69" y="1003.0" text-anchor="end" fill="#444">0.13</text>
<line x1="72" y1="960.0" x2="75" y2="960.0" stroke="#444"/>
<text x="69" y="963.0" text-anchor="end" fill="#444">0.5</text>
<text x="226.0" y="1154" text-anchor="middle" fill="#444">Event time (years from state-level adoption)</text>
<text x="27" y="1040.0" text-anchor="middle" fill="#444" transform="rotate(-90 27 1040.0)">ATT (per 100k)</text>
<rect x="425" y="910" width="380" height="260" fill="#fafaf7" stroke="#e2e2dc"/>
<text x="615.0" y="928" text-anchor="middle" font-weight="600">State firearm homicide rate (joined down) [no county variation]</text>
<line x1="485" y1="974.0846414825087" x2="787" y2="974.0846414825087" stroke="#aaaaaa" stroke-width="0.7"/>
<polygon points="498.7,980.4 526.2,960.0 553.6,974.8 581.1,978.4 636.0,965.2 663.5,1001.8 690.9,981.4 718.4,991.3 745.8,991.9 773.3,1068.0 773.3,1120.0 745.8,1029.6 718.4,1012.9 690.9,1002.6 663.5,1019.9 636.0,977.3 581.1,988.1 553.6,986.3 526.2,970.5 498.7,993.8" fill="#1f3a5f" opacity="0.18"/>
<polyline points="498.7,987.1 526.2,965.2 553.6,980.6 581.1,983.3 636.0,971.2 663.5,1010.8 690.9,992.0 718.4,1002.1 745.8,1010.7 773.3,1094.0" fill="none" stroke="#1f3a5f" stroke-width="1.6"/>
<circle cx="498.7" cy="987.1" r="2.6" fill="#1f3a5f"/>
<circle cx="526.2" cy="965.2" r="2.6" fill="#1f3a5f"/>
<circle cx="553.6" cy="980.6" r="2.6" fill="#1f3a5f"/>
<circle cx="581.1" cy="983.3" r="2.6" fill="#1f3a5f"/>
<circle cx="636.0" cy="971.2" r="2.6" fill="#1f3a5f"/>
<circle cx="663.5" cy="1010.8" r="2.6" fill="#1f3a5f"/>
<circle cx="690.9" cy="992.0" r="2.6" fill="#1f3a5f"/>
<circle cx="718.4" cy="1002.1" r="2.6" fill="#1f3a5f"/>
<circle cx="745.8" cy="1010.7" r="2.6" fill="#1f3a5f"/>
<circle cx="773.3" cy="1094.0" r="2.6" fill="#1f3a5f"/>
<line x1="622.3" y1="960" x2="622.3" y2="1120" stroke="#b9461a" stroke-dasharray="3 3"/>
<line x1="485" y1="1120" x2="787" y2="1120" stroke="#444"/>
<line x1="485" y1="960" x2="485" y2="1120" stroke="#444"/>
<line x1="498.7" y1="1120" x2="498.7" y2="1123" stroke="#444"/>
<text x="498.7" y="1135" text-anchor="middle" fill="#444">-5</text>
<line x1="526.2" y1="1120" x2="526.2" y2="1123" stroke="#444"/>
<text x="526.2" y="1135" text-anchor="middle" fill="#444">-4</text>
<line x1="553.6" y1="1120" x2="553.6" y2="1123" stroke="#444"/>
<text x="553.6" y="1135" text-anchor="middle" fill="#444">-3</text>
<line x1="581.1" y1="1120" x2="581.1" y2="1123" stroke="#444"/>
<text x="581.1" y="1135" text-anchor="middle" fill="#444">-2</text>
<line x1="636.0" y1="1120" x2="636.0" y2="1123" stroke="#444"/>
<text x="636.0" y="1135" text-anchor="middle" fill="#444">0</text>
<line x1="663.5" y1="1120" x2="663.5" y2="1123" stroke="#444"/>
<text x="663.5" y="1135" text-anchor="middle" fill="#444">1</text>
<line x1="690.9" y1="1120" x2="690.9" y2="1123" stroke="#444"/>
<text x="690.9" y="1135" text-anchor="middle" fill="#444">2</text>
<line x1="718.4" y1="1120" x2="718.4" y2="1123" stroke="#444"/>
<text x="718.4" y="1135" text-anchor="middle" fill="#444">3</text>
<line x1="745.8" y1="1120" x2="745.8" y2="1123" stroke="#444"/>
<text x="745.8" y="1135" text-anchor="middle" fill="#444">4</text>
<line x1="773.3" y1="1120" x2="773.3" y2="1123" stroke="#444"/>
<text x="773.3" y="1135" text-anchor="middle" fill="#444">5</text>
<line x1="482" y1="1120.0" x2="485" y2="1120.0" stroke="#444"/>
<text x="479" y="1123.0" text-anchor="end" fill="#444">-1.5</text>
<line x1="482" y1="1080.0" x2="485" y2="1080.0" stroke="#444"/>
<text x="479" y="1083.0" text-anchor="end" fill="#444">-1.1</text>
<line x1="482" y1="1040.0" x2="485" y2="1040.0" stroke="#444"/>
<text x="479" y="1043.0" text-anchor="end" fill="#444">-0.7</text>
<line x1="482" y1="1000.0" x2="485" y2="1000.0" stroke="#444"/>
<text x="479" y="1003.0" text-anchor="end" fill="#444">-0.27</text>
<line x1="482" y1="960.0" x2="485" y2="960.0" stroke="#444"/>
<text x="479" y="963.0" text-anchor="end" fill="#444">0.15</text>
<text x="636.0" y="1154" text-anchor="middle" fill="#444">Event time (years from state-level adoption)</text>
<text x="437" y="1040.0" text-anchor="middle" fill="#444" transform="rotate(-90 437 1040.0)">ATT (per 100k)</text>
<text x="805" y="1188" text-anchor="end" fill="#888" font-size="10">Shaded band: pointwise 95% CI from state-clustered Rademacher bootstrap. Vertical dashed line marks the year before adoption.</text>
</svg>