<svg xmlns="http://www.w3.org/2000/svg" viewBox="0 0 820 1200" font-family="-apple-system, Segoe UI, Helvetica, Arial, sans-serif" font-size="11">
<text x="410.0" y="22" text-anchor="middle" font-size="14" font-weight="600">Callaway-Sant'Anna ATT by event time, county grain (OR) -- universal background checks (law_universal)</text>
<rect x="15" y="40" width="380" height="260" fill="#fafaf7" stroke="#e2e2dc"/>
<text x="205.0" y="58" text-anchor="middle" font-weight="600">Violent crime rate (per 100k, county UCR)</text>
<line x1="75" y1="128.96653568836655" x2="377" y2="128.96653568836655" stroke="#aaaaaa" stroke-width="0.7"/>
<polygon points="88.7,143.3 116.2,141.3 143.6,163.1 171.1,128.9 226.0,207.4 253.5,115.7 280.9,126.6 308.4,115.0 335.8,90.0 363.3,153.6 363.3,217.9 335.8,148.3 308.4,182.1 280.9,182.4 253.5,183.0 226.0,250.0 171.1,173.3 143.6,211.8 116.2,193.6 88.7,194.2" fill="#1f3a5f" opacity="0.18"/>
<polyline points="88.7,168.8 116.2,167.5 143.6,187.4 171.1,151.1 226.0,228.7 253.5,149.4 280.9,154.5 308.4,148.5 335.8,119.1 363.3,185.8" fill="none" stroke="#1f3a5f" stroke-width="1.6"/>
<circle cx="88.7" cy="168.8" r="2.6" fill="#1f3a5f"/>
<circle cx="116.2" cy="167.5" r="2.6" fill="#1f3a5f"/>
<circle cx="143.6" cy="187.4" r="2.6" fill="#1f3a5f"/>
<circle cx="171.1" cy="151.1" r="2.6" fill="#1f3a5f"/>
<circle cx="226.0" cy="228.7" r="2.6" fill="#1f3a5f"/>
<circle cx="253.5" cy="149.4" r="2.6" fill="#1f3a5f"/>
<circle cx="280.9" cy="154.5" r="2.6" fill="#1f3a5f"/>
<circle cx="308.4" cy="148.5" r="2.6" fill="#1f3a5f"/>
<circle cx="335.8" cy="119.1" r="2.6" fill="#1f3a5f"/>
<circle cx="363.3" cy="185.8" r="2.6" fill="#1f3a5f"/>
<line x1="212.3" y1="90" x2="212.3" y2="250" stroke="#b9461a" stroke-dasharray="3 3"/>
<line x1="75" y1="250" x2="377" y2="250" stroke="#444"/>
<line x1="75" y1="90" x2="75" y2="250" stroke="#444"/>
<line x1="88.7" y1="250" x2="88.7" y2="253" stroke="#444"/>
<text x="88.7" y="265" text-anchor="middle" fill="#444">-5</text>
<line x1="116.2" y1="250" x2="116.2" y2="253" stroke="#444"/>
<text x="116.2" y="265" text-anchor="middle" fill="#444">-4</text>
<line x1="143.6" y1="250" x2="143.6" y2="253" stroke="#444"/>
<text x="143.6" y="265" text-anchor="middle" fill="#444">-3</text>
<line x1="171.1" y1="250" x2="171.1" y2="253" stroke="#444"/>
<text x="171.1" y="265" text-anchor="middle" fill="#444">-2</text>
<line x1="226.0" y1="250" x2="226.0" y2="253" stroke="#444"/>
<text x="226.0" y="265" text-anchor="middle" fill="#444">0</text>
<line x1="253.5" y1="250" x2="253.5" y2="253" stroke="#444"/>
<text x="253.5" y="265" text-anchor="middle" fill="#444">1</text>
<line x1="280.9" y1="250" x2="280.9" y2="253" stroke="#444"/>
<text x="280.9" y="265" text-anchor="middle" fill="#444">2</text>
<line x1="308.4" y1="250" x2="308.4" y2="253" stroke="#444"/>
<text x="308.4" y="265" text-anchor="middle" fill="#444">3</text>
<line x1="335.8" y1="250" x2="335.8" y2="253" stroke="#444"/>
<text x="335.8" y="265" text-anchor="middle" fill="#444">4</text>
<line x1="363.3" y1="250" x2="363.3" y2="253" stroke="#444"/>
<text x="363.3" y="265" text-anchor="middle" fill="#444">5</text>
<line x1="72" y1="250.0" x2="75" y2="250.0" stroke="#444"/>
<text x="69" y="253.0" text-anchor="end" fill="#444">-41</text>
<line x1="72" y1="210.0" x2="75" y2="210.0" stroke="#444"/>
<text x="69" y="213.0" text-anchor="end" fill="#444">-27</text>
<line x1="72" y1="170.0" x2="75" y2="170.0" stroke="#444"/>
<text x="69" y="173.0" text-anchor="end" fill="#444">-14</text>
<line x1="72" y1="130.0" x2="75" y2="130.0" stroke="#444"/>
<text x="69" y="133.0" text-anchor="end" fill="#444">-0.35</text>
<line x1="72" y1="90.0" x2="75" y2="90.0" stroke="#444"/>
<text x="69" y="93.0" text-anchor="end" fill="#444">13</text>
<text x="226.0" y="284" text-anchor="middle" fill="#444">Event time (years from state-level adoption)</text>
<text x="27" y="170.0" text-anchor="middle" fill="#444" transform="rotate(-90 27 170.0)">ATT (per 100k)</text>
<rect x="425" y="40" width="380" height="260" fill="#fafaf7" stroke="#e2e2dc"/>
<text x="615.0" y="58" text-anchor="middle" font-weight="600">Murder rate (per 100k, county UCR)</text>
<line x1="485" y1="128.66042578526722" x2="787" y2="128.66042578526722" stroke="#aaaaaa" stroke-width="0.7"/>
<polygon points="498.7,136.1 526.2,141.4 553.6,113.0 581.1,116.9 636.0,116.7 663.5,145.8 690.9,90.0 718.4,108.3 745.8,157.8 773.3,116.1 773.3,191.1 745.8,204.9 718.4,167.4 690.9,147.9 663.5,194.9 636.0,162.2 581.1,168.5 553.6,250.0 526.2,188.7 498.7,174.8" fill="#1f3a5f" opacity="0.18"/>
<polyline points="498.7,155.5 526.2,165.0 553.6,181.5 581.1,142.7 636.0,139.4 663.5,170.3 690.9,119.0 718.4,137.8 745.8,181.4 773.3,153.6" fill="none" stroke="#1f3a5f" stroke-width="1.6"/>
<circle cx="498.7" cy="155.5" r="2.6" fill="#1f3a5f"/>
<circle cx="526.2" cy="165.0" r="2.6" fill="#1f3a5f"/>
<circle cx="553.6" cy="181.5" r="2.6" fill="#1f3a5f"/>
<circle cx="581.1" cy="142.7" r="2.6" fill="#1f3a5f"/>
<circle cx="636.0" cy="139.4" r="2.6" fill="#1f3a5f"/>
<circle cx="663.5" cy="170.3" r="2.6" fill="#1f3a5f"/>
<circle cx="690.9" cy="119.0" r="2.6" fill="#1f3a5f"/>
<circle cx="718.4" cy="137.8" r="2.6" fill="#1f3a5f"/>
<circle cx="745.8" cy="181.4" r="2.6" fill="#1f3a5f"/>
<circle cx="773.3" cy="153.6" r="2.6" fill="#1f3a5f"/>
<line x1="622.3" y1="90" x2="622.3" y2="250" stroke="#b9461a" stroke-dasharray="3 3"/>
<line x1="485" y1="250" x2="787" y2="250" stroke="#444"/>
<line x1="485" y1="90" x2="485" y2="250" stroke="#444"/>
<line x1="498.7" y1="250" x2="498.7" y2="253" stroke="#444"/>
<text x="498.7" y="265" text-anchor="middle" fill="#444">-5</text>
<line x1="526.2" y1="250" x2="526.2" y2="253" stroke="#444"/>
<text x="526.2" y="265" text-anchor="middle" fill="#444">-4</text>
<line x1="553.6" y1="250" x2="553.6" y2="253" stroke="#444"/>
<text x="553.6" y="265" text-anchor="middle" fill="#444">-3</text>
<line x1="581.1" y1="250" x2="581.1" y2="253" stroke="#444"/>
<text x="581.1" y="265" text-anchor="middle" fill="#444">-2</text>
<line x1="636.0" y1="250" x2="636.0" y2="253" stroke="#444"/>
<text x="636.0" y="265" text-anchor="middle" fill="#444">0</text>
<line x1="663.5" y1="250" x2="663.5" y2="253" stroke="#444"/>
<text x="663.5" y="265" text-anchor="middle" fill="#444">1</text>
<line x1="690.9" y1="250" x2="690.9" y2="253" stroke="#444"/>
<text x="690.9" y="265" text-anchor="middle" fill="#444">2</text>
<line x1="718.4" y1="250" x2="718.4" y2="253" stroke="#444"/>
<text x="718.4" y="265" text-anchor="middle" fill="#444">3</text>
<line x1="745.8" y1="250" x2="745.8" y2="253" stroke="#444"/>
<text x="745.8" y="265" text-anchor="middle" fill="#444">4</text>
<line x1="773.3" y1="250" x2="773.3" y2="253" stroke="#444"/>
<text x="773.3" y="265" text-anchor="middle" fill="#444">5</text>
<line x1="482" y1="250.0" x2="485" y2="250.0" stroke="#444"/>
<text x="479" y="253.0" text-anchor="end" fill="#444">-2.1</text>
<line x1="482" y1="210.0" x2="485" y2="210.0" stroke="#444"/>
<text x="479" y="213.0" text-anchor="end" fill="#444">-1.4</text>
<line x1="482" y1="170.0" x2="485" y2="170.0" stroke="#444"/>
<text x="479" y="173.0" text-anchor="end" fill="#444">-0.71</text>
<line x1="482" y1="130.0" x2="485" y2="130.0" stroke="#444"/>
<text x="479" y="133.0" text-anchor="end" fill="#444">-0.023</text>
<line x1="482" y1="90.0" x2="485" y2="90.0" stroke="#444"/>
<text x="479" y="93.0" text-anchor="end" fill="#444">0.66</text>
<text x="636.0" y="284" text-anchor="middle" fill="#444">Event time (years from state-level adoption)</text>
<text x="437" y="170.0" text-anchor="middle" fill="#444" transform="rotate(-90 437 170.0)">ATT (per 100k)</text>
<rect x="15" y="330" width="380" height="260" fill="#fafaf7" stroke="#e2e2dc"/>
<text x="205.0" y="348" text-anchor="middle" font-weight="600">Property crime rate (per 100k, county UCR)</text>
<line x1="75" y1="448.9831452428973" x2="377" y2="448.9831452428973" stroke="#aaaaaa" stroke-width="0.7"/>
<polygon points="88.7,459.8 116.2,400.6 143.6,470.5 171.1,436.4 226.0,500.7 253.5,434.1 280.9,411.5 308.4,380.0 335.8,381.9 363.3,449.0 363.3,512.5 335.8,445.3 308.4,455.6 280.9,462.4 253.5,488.0 226.0,540.0 171.1,470.2 143.6,507.3 116.2,439.2 88.7,503.9" fill="#1f3a5f" opacity="0.18"/>
<polyline points="88.7,481.9 116.2,419.9 143.6,488.9 171.1,453.3 226.0,520.3 253.5,461.1 280.9,437.0 308.4,417.8 335.8,413.6 363.3,480.7" fill="none" stroke="#1f3a5f" stroke-width="1.6"/>
<circle cx="88.7" cy="481.9" r="2.6" fill="#1f3a5f"/>
<circle cx="116.2" cy="419.9" r="2.6" fill="#1f3a5f"/>
<circle cx="143.6" cy="488.9" r="2.6" fill="#1f3a5f"/>
<circle cx="171.1" cy="453.3" r="2.6" fill="#1f3a5f"/>
<circle cx="226.0" cy="520.3" r="2.6" fill="#1f3a5f"/>
<circle cx="253.5" cy="461.1" r="2.6" fill="#1f3a5f"/>
<circle cx="280.9" cy="437.0" r="2.6" fill="#1f3a5f"/>
<circle cx="308.4" cy="417.8" r="2.6" fill="#1f3a5f"/>
<circle cx="335.8" cy="413.6" r="2.6" fill="#1f3a5f"/>
<circle cx="363.3" cy="480.7" r="2.6" fill="#1f3a5f"/>
<line x1="212.3" y1="380" x2="212.3" y2="540" stroke="#b9461a" stroke-dasharray="3 3"/>
<line x1="75" y1="540" x2="377" y2="540" stroke="#444"/>
<line x1="75" y1="380" x2="75" y2="540" stroke="#444"/>
<line x1="88.7" y1="540" x2="88.7" y2="543" stroke="#444"/>
<text x="88.7" y="555" text-anchor="middle" fill="#444">-5</text>
<line x1="116.2" y1="540" x2="116.2" y2="543" stroke="#444"/>
<text x="116.2" y="555" text-anchor="middle" fill="#444">-4</text>
<line x1="143.6" y1="540" x2="143.6" y2="543" stroke="#444"/>
<text x="143.6" y="555" text-anchor="middle" fill="#444">-3</text>
<line x1="171.1" y1="540" x2="171.1" y2="543" stroke="#444"/>
<text x="171.1" y="555" text-anchor="middle" fill="#444">-2</text>
<line x1="226.0" y1="540" x2="226.0" y2="543" stroke="#444"/>
<text x="226.0" y="555" text-anchor="middle" fill="#444">0</text>
<line x1="253.5" y1="540" x2="253.5" y2="543" stroke="#444"/>
<text x="253.5" y="555" text-anchor="middle" fill="#444">1</text>
<line x1="280.9" y1="540" x2="280.9" y2="543" stroke="#444"/>
<text x="280.9" y="555" text-anchor="middle" fill="#444">2</text>
<line x1="308.4" y1="540" x2="308.4" y2="543" stroke="#444"/>
<text x="308.4" y="555" text-anchor="middle" fill="#444">3</text>
<line x1="335.8" y1="540" x2="335.8" y2="543" stroke="#444"/>
<text x="335.8" y="555" text-anchor="middle" fill="#444">4</text>
<line x1="363.3" y1="540" x2="363.3" y2="543" stroke="#444"/>
<text x="363.3" y="555" text-anchor="middle" fill="#444">5</text>
<line x1="72" y1="540.0" x2="75" y2="540.0" stroke="#444"/>
<text x="69" y="543.0" text-anchor="end" fill="#444">-1.6e+02</text>
<line x1="72" y1="500.0" x2="75" y2="500.0" stroke="#444"/>
<text x="69" y="503.0" text-anchor="end" fill="#444">-92</text>
<line x1="72" y1="460.0" x2="75" y2="460.0" stroke="#444"/>
<text x="69" y="463.0" text-anchor="end" fill="#444">-20</text>
<line x1="72" y1="420.0" x2="75" y2="420.0" stroke="#444"/>
<text x="69" y="423.0" text-anchor="end" fill="#444">52</text>
<line x1="72" y1="380.0" x2="75" y2="380.0" stroke="#444"/>
<text x="69" y="383.0" text-anchor="end" fill="#444">1.2e+02</text>
<text x="226.0" y="574" text-anchor="middle" fill="#444">Event time (years from state-level adoption)</text>
<text x="27" y="460.0" text-anchor="middle" fill="#444" transform="rotate(-90 27 460.0)">ATT (per 100k)</text>
<rect x="425" y="330" width="380" height="260" fill="#fafaf7" stroke="#e2e2dc"/>
<text x="615.0" y="348" text-anchor="middle" font-weight="600">Burglary rate (per 100k, county UCR)</text>
<line x1="485" y1="400.90036865643856" x2="787" y2="400.90036865643856" stroke="#aaaaaa" stroke-width="0.7"/>
<polygon points="498.7,430.0 526.2,429.9 553.6,425.4 581.1,380.0 636.0,431.1 663.5,407.1 690.9,416.4 718.4,391.9 745.8,399.4 773.3,473.1 773.3,540.0 745.8,445.9 718.4,436.1 690.9,451.8 663.5,446.3 636.0,460.7 581.1,417.8 553.6,469.2 526.2,481.5 498.7,491.0" fill="#1f3a5f" opacity="0.18"/>
<polyline points="498.7,460.5 526.2,455.7 553.6,447.3 581.1,398.9 636.0,445.9 663.5,426.7 690.9,434.1 718.4,414.0 745.8,422.7 773.3,506.6" fill="none" stroke="#1f3a5f" stroke-width="1.6"/>
<circle cx="498.7" cy="460.5" r="2.6" fill="#1f3a5f"/>
<circle cx="526.2" cy="455.7" r="2.6" fill="#1f3a5f"/>
<circle cx="553.6" cy="447.3" r="2.6" fill="#1f3a5f"/>
<circle cx="581.1" cy="398.9" r="2.6" fill="#1f3a5f"/>
<circle cx="636.0" cy="445.9" r="2.6" fill="#1f3a5f"/>
<circle cx="663.5" cy="426.7" r="2.6" fill="#1f3a5f"/>
<circle cx="690.9" cy="434.1" r="2.6" fill="#1f3a5f"/>
<circle cx="718.4" cy="414.0" r="2.6" fill="#1f3a5f"/>
<circle cx="745.8" cy="422.7" r="2.6" fill="#1f3a5f"/>
<circle cx="773.3" cy="506.6" r="2.6" fill="#1f3a5f"/>
<line x1="622.3" y1="380" x2="622.3" y2="540" stroke="#b9461a" stroke-dasharray="3 3"/>
<line x1="485" y1="540" x2="787" y2="540" stroke="#444"/>
<line x1="485" y1="380" x2="485" y2="540" stroke="#444"/>
<line x1="498.7" y1="540" x2="498.7" y2="543" stroke="#444"/>
<text x="498.7" y="555" text-anchor="middle" fill="#444">-5</text>
<line x1="526.2" y1="540" x2="526.2" y2="543" stroke="#444"/>
<text x="526.2" y="555" text-anchor="middle" fill="#444">-4</text>
<line x1="553.6" y1="540" x2="553.6" y2="543" stroke="#444"/>
<text x="553.6" y="555" text-anchor="middle" fill="#444">-3</text>
<line x1="581.1" y1="540" x2="581.1" y2="543" stroke="#444"/>
<text x="581.1" y="555" text-anchor="middle" fill="#444">-2</text>
<line x1="636.0" y1="540" x2="636.0" y2="543" stroke="#444"/>
<text x="636.0" y="555" text-anchor="middle" fill="#444">0</text>
<line x1="663.5" y1="540" x2="663.5" y2="543" stroke="#444"/>
<text x="663.5" y="555" text-anchor="middle" fill="#444">1</text>
<line x1="690.9" y1="540" x2="690.9" y2="543" stroke="#444"/>
<text x="690.9" y="555" text-anchor="middle" fill="#444">2</text>
<line x1="718.4" y1="540" x2="718.4" y2="543" stroke="#444"/>
<text x="718.4" y="555" text-anchor="middle" fill="#444">3</text>
<line x1="745.8" y1="540" x2="745.8" y2="543" stroke="#444"/>
<text x="745.8" y="555" text-anchor="middle" fill="#444">4</text>
<line x1="773.3" y1="540" x2="773.3" y2="543" stroke="#444"/>
<text x="773.3" y="555" text-anchor="middle" fill="#444">5</text>
<line x1="482" y1="540.0" x2="485" y2="540.0" stroke="#444"/>
<text x="479" y="543.0" text-anchor="end" fill="#444">-70</text>
<line x1="482" y1="500.0" x2="485" y2="500.0" stroke="#444"/>
<text x="479" y="503.0" text-anchor="end" fill="#444">-50</text>
<line x1="482" y1="460.0" x2="485" y2="460.0" stroke="#444"/>
<text x="479" y="463.0" text-anchor="end" fill="#444">-30</text>
<line x1="482" y1="420.0" x2="485" y2="420.0" stroke="#444"/>
<text x="479" y="423.0" text-anchor="end" fill="#444">-9.7</text>
<line x1="482" y1="380.0" x2="485" y2="380.0" stroke="#444"/>
<text x="479" y="383.0" text-anchor="end" fill="#444">11</text>
<text x="636.0" y="574" text-anchor="middle" fill="#444">Event time (years from state-level adoption)</text>
<text x="437" y="460.0" text-anchor="middle" fill="#444" transform="rotate(-90 437 460.0)">ATT (per 100k)</text>
<rect x="15" y="620" width="380" height="260" fill="#fafaf7" stroke="#e2e2dc"/>
<text x="205.0" y="638" text-anchor="middle" font-weight="600">Motor vehicle theft rate (per 100k, county UCR) [placebo]</text>
<line x1="75" y1="812.5475510910406" x2="377" y2="812.5475510910406" stroke="#aaaaaa" stroke-width="0.7"/>
<polygon points="88.7,818.8 116.2,670.0 143.6,809.9 171.1,804.3 226.0,819.9 253.5,809.9 280.9,783.0 308.4,775.0 335.8,798.7 363.3,796.8 363.3,814.3 335.8,813.1 308.4,791.3 280.9,794.7 253.5,823.0 226.0,827.3 171.1,814.0 143.6,819.9 116.2,680.5 88.7,830.0" fill="#1f3a5f" opacity="0.18"/>
<polyline points="88.7,824.4 116.2,675.3 143.6,814.9 171.1,809.2 226.0,823.6 253.5,816.5 280.9,788.8 308.4,783.2 335.8,805.9 363.3,805.6" fill="none" stroke="#1f3a5f" stroke-width="1.6"/>
<circle cx="88.7" cy="824.4" r="2.6" fill="#1f3a5f"/>
<circle cx="116.2" cy="675.3" r="2.6" fill="#1f3a5f"/>
<circle cx="143.6" cy="814.9" r="2.6" fill="#1f3a5f"/>
<circle cx="171.1" cy="809.2" r="2.6" fill="#1f3a5f"/>
<circle cx="226.0" cy="823.6" r="2.6" fill="#1f3a5f"/>
<circle cx="253.5" cy="816.5" r="2.6" fill="#1f3a5f"/>
<circle cx="280.9" cy="788.8" r="2.6" fill="#1f3a5f"/>
<circle cx="308.4" cy="783.2" r="2.6" fill="#1f3a5f"/>
<circle cx="335.8" cy="805.9" r="2.6" fill="#1f3a5f"/>
<circle cx="363.3" cy="805.6" r="2.6" fill="#1f3a5f"/>
<line x1="212.3" y1="670" x2="212.3" y2="830" stroke="#b9461a" stroke-dasharray="3 3"/>
<line x1="75" y1="830" x2="377" y2="830" stroke="#444"/>
<line x1="75" y1="670" x2="75" y2="830" stroke="#444"/>
<line x1="88.7" y1="830" x2="88.7" y2="833" stroke="#444"/>
<text x="88.7" y="845" text-anchor="middle" fill="#444">-5</text>
<line x1="116.2" y1="830" x2="116.2" y2="833" stroke="#444"/>
<text x="116.2" y="845" text-anchor="middle" fill="#444">-4</text>
<line x1="143.6" y1="830" x2="143.6" y2="833" stroke="#444"/>
<text x="143.6" y="845" text-anchor="middle" fill="#444">-3</text>
<line x1="171.1" y1="830" x2="171.1" y2="833" stroke="#444"/>
<text x="171.1" y="845" text-anchor="middle" fill="#444">-2</text>
<line x1="226.0" y1="830" x2="226.0" y2="833" stroke="#444"/>
<text x="226.0" y="845" text-anchor="middle" fill="#444">0</text>
<line x1="253.5" y1="830" x2="253.5" y2="833" stroke="#444"/>
<text x="253.5" y="845" text-anchor="middle" fill="#444">1</text>
<line x1="280.9" y1="830" x2="280.9" y2="833" stroke="#444"/>
<text x="280.9" y="845" text-anchor="middle" fill="#444">2</text>
<line x1="308.4" y1="830" x2="308.4" y2="833" stroke="#444"/>
<text x="308.4" y="845" text-anchor="middle" fill="#444">3</text>
<line x1="335.8" y1="830" x2="335.8" y2="833" stroke="#444"/>
<text x="335.8" y="845" text-anchor="middle" fill="#444">4</text>
<line x1="363.3" y1="830" x2="363.3" y2="833" stroke="#444"/>
<text x="363.3" y="845" text-anchor="middle" fill="#444">5</text>
<line x1="72" y1="830.0" x2="75" y2="830.0" stroke="#444"/>
<text x="69" y="833.0" text-anchor="end" fill="#444">-13</text>
<line x1="72" y1="790.0" x2="75" y2="790.0" stroke="#444"/>
<text x="69" y="793.0" text-anchor="end" fill="#444">16</text>
<line x1="72" y1="750.0" x2="75" y2="750.0" stroke="#444"/>
<text x="69" y="753.0" text-anchor="end" fill="#444">45</text>
<line x1="72" y1="710.0" x2="75" y2="710.0" stroke="#444"/>
<text x="69" y="713.0" text-anchor="end" fill="#444">74</text>
<line x1="72" y1="670.0" x2="75" y2="670.0" stroke="#444"/>
<text x="69" y="673.0" text-anchor="end" fill="#444">1e+02</text>
<text x="226.0" y="864" text-anchor="middle" fill="#444">Event time (years from state-level adoption)</text>
<text x="27" y="750.0" text-anchor="middle" fill="#444" transform="rotate(-90 27 750.0)">ATT (per 100k)</text>
<rect x="425" y="620" width="380" height="260" fill="#fafaf7" stroke="#e2e2dc"/>
<text x="615.0" y="638" text-anchor="middle" font-weight="600">State firearm suicide rate (joined down) [no county variation]</text>
<line x1="485" y1="735.8549825907251" x2="787" y2="735.8549825907251" stroke="#aaaaaa" stroke-width="0.7"/>
<polygon points="498.7,673.3 526.2,670.0 553.6,726.7 581.1,713.4 636.0,712.8 663.5,768.1 690.9,779.5 718.4,759.5 745.8,766.1 773.3,736.9 773.3,794.3 745.8,812.4 718.4,818.2 690.9,830.0 663.5,813.5 636.0,763.2 581.1,762.7 553.6,776.9 526.2,712.8 498.7,720.6" fill="#1f3a5f" opacity="0.18"/>
<polyline points="498.7,696.9 526.2,691.4 553.6,751.8 581.1,738.1 636.0,738.0 663.5,790.8 690.9,804.7 718.4,788.8 745.8,789.3 773.3,765.6" fill="none" stroke="#1f3a5f" stroke-width="1.6"/>
<circle cx="498.7" cy="696.9" r="2.6" fill="#1f3a5f"/>
<circle cx="526.2" cy="691.4" r="2.6" fill="#1f3a5f"/>
<circle cx="553.6" cy="751.8" r="2.6" fill="#1f3a5f"/>
<circle cx="581.1" cy="738.1" r="2.6" fill="#1f3a5f"/>
<circle cx="636.0" cy="738.0" r="2.6" fill="#1f3a5f"/>
<circle cx="663.5" cy="790.8" r="2.6" fill="#1f3a5f"/>
<circle cx="690.9" cy="804.7" r="2.6" fill="#1f3a5f"/>
<circle cx="718.4" cy="788.8" r="2.6" fill="#1f3a5f"/>
<circle cx="745.8" cy="789.3" r="2.6" fill="#1f3a5f"/>
<circle cx="773.3" cy="765.6" r="2.6" fill="#1f3a5f"/>
<line x1="622.3" y1="670" x2="622.3" y2="830" stroke="#b9461a" stroke-dasharray="3 3"/>
<line x1="485" y1="830" x2="787" y2="830" stroke="#444"/>
<line x1="485" y1="670" x2="485" y2="830" stroke="#444"/>
<line x1="498.7" y1="830" x2="498.7" y2="833" stroke="#444"/>
<text x="498.7" y="845" text-anchor="middle" fill="#444">-5</text>
<line x1="526.2" y1="830" x2="526.2" y2="833" stroke="#444"/>
<text x="526.2" y="845" text-anchor="middle" fill="#444">-4</text>
<line x1="553.6" y1="830" x2="553.6" y2="833" stroke="#444"/>
<text x="553.6" y="845" text-anchor="middle" fill="#444">-3</text>
<line x1="581.1" y1="830" x2="581.1" y2="833" stroke="#444"/>
<text x="581.1" y="845" text-anchor="middle" fill="#444">-2</text>
<line x1="636.0" y1="830" x2="636.0" y2="833" stroke="#444"/>
<text x="636.0" y="845" text-anchor="middle" fill="#444">0</text>
<line x1="663.5" y1="830" x2="663.5" y2="833" stroke="#444"/>
<text x="663.5" y="845" text-anchor="middle" fill="#444">1</text>
<line x1="690.9" y1="830" x2="690.9" y2="833" stroke="#444"/>
<text x="690.9" y="845" text-anchor="middle" fill="#444">2</text>
<line x1="718.4" y1="830" x2="718.4" y2="833" stroke="#444"/>
<text x="718.4" y="845" text-anchor="middle" fill="#444">3</text>
<line x1="745.8" y1="830" x2="745.8" y2="833" stroke="#444"/>
<text x="745.8" y="845" text-anchor="middle" fill="#444">4</text>
<line x1="773.3" y1="830" x2="773.3" y2="833" stroke="#444"/>
<text x="773.3" y="845" text-anchor="middle" fill="#444">5</text>
<line x1="482" y1="830.0" x2="485" y2="830.0" stroke="#444"/>
<text x="479" y="833.0" text-anchor="end" fill="#444">-0.6</text>
<line x1="482" y1="790.0" x2="485" y2="790.0" stroke="#444"/>
<text x="479" y="793.0" text-anchor="end" fill="#444">-0.35</text>
<line x1="482" y1="750.0" x2="485" y2="750.0" stroke="#444"/>
<text x="479" y="753.0" text-anchor="end" fill="#444">-0.091</text>
<line x1="482" y1="710.0" x2="485" y2="710.0" stroke="#444"/>
<text x="479" y="713.0" text-anchor="end" fill="#444">0.17</text>
<line x1="482" y1="670.0" x2="485" y2="670.0" stroke="#444"/>
<text x="479" y="673.0" text-anchor="end" fill="#444">0.42</text>
<text x="636.0" y="864" text-anchor="middle" fill="#444">Event time (years from state-level adoption)</text>
<text x="437" y="750.0" text-anchor="middle" fill="#444" transform="rotate(-90 437 750.0)">ATT (per 100k)</text>
<rect x="15" y="910" width="380" height="260" fill="#fafaf7" stroke="#e2e2dc"/>
<text x="205.0" y="928" text-anchor="middle" font-weight="600">State total suicide rate (joined down) [no county variation]</text>
<line x1="75" y1="1019.5767028733184" x2="377" y2="1019.5767028733184" stroke="#aaaaaa" stroke-width="0.7"/>
<polygon points="88.7,981.8 116.2,960.0 143.6,1001.4 171.1,990.9 226.0,993.3 253.5,1043.6 280.9,1040.3 308.4,995.3 335.8,1047.4 363.3,1037.7 363.3,1120.0 335.8,1108.1 308.4,1068.5 280.9,1076.6 253.5,1071.1 226.0,1027.9 171.1,1028.9 143.6,1036.8 116.2,994.7 88.7,1012.8" fill="#1f3a5f" opacity="0.18"/>
<polyline points="88.7,997.3 116.2,977.4 143.6,1019.1 171.1,1009.9 226.0,1010.6 253.5,1057.4 280.9,1058.5 308.4,1031.9 335.8,1077.8 363.3,1078.9" fill="none" stroke="#1f3a5f" stroke-width="1.6"/>
<circle cx="88.7" cy="997.3" r="2.6" fill="#1f3a5f"/>
<circle cx="116.2" cy="977.4" r="2.6" fill="#1f3a5f"/>
<circle cx="143.6" cy="1019.1" r="2.6" fill="#1f3a5f"/>
<circle cx="171.1" cy="1009.9" r="2.6" fill="#1f3a5f"/>
<circle cx="226.0" cy="1010.6" r="2.6" fill="#1f3a5f"/>
<circle cx="253.5" cy="1057.4" r="2.6" fill="#1f3a5f"/>
<circle cx="280.9" cy="1058.5" r="2.6" fill="#1f3a5f"/>
<circle cx="308.4" cy="1031.9" r="2.6" fill="#1f3a5f"/>
<circle cx="335.8" cy="1077.8" r="2.6" fill="#1f3a5f"/>
<circle cx="363.3" cy="1078.9" r="2.6" fill="#1f3a5f"/>
<line x1="212.3" y1="960" x2="212.3" y2="1120" stroke="#b9461a" stroke-dasharray="3 3"/>
<line x1="75" y1="1120" x2="377" y2="1120" stroke="#444"/>
<line x1="75" y1="960" x2="75" y2="1120" stroke="#444"/>
<line x1="88.7" y1="1120" x2="88.7" y2="1123" stroke="#444"/>
<text x="88.7" y="1135" text-anchor="middle" fill="#444">-5</text>
<line x1="116.2" y1="1120" x2="116.2" y2="1123" stroke="#444"/>
<text x="116.2" y="1135" text-anchor="middle" fill="#444">-4</text>
<line x1="143.6" y1="1120" x2="143.6" y2="1123" stroke="#444"/>
<text x="143.6" y="1135" text-anchor="middle" fill="#444">-3</text>
<line x1="171.1" y1="1120" x2="171.1" y2="1123" stroke="#444"/>
<text x="171.1" y="1135" text-anchor="middle" fill="#444">-2</text>
<line x1="226.0" y1="1120" x2="226.0" y2="1123" stroke="#444"/>
<text x="226.0" y="1135" text-anchor="middle" fill="#444">0</text>
<line x1="253.5" y1="1120" x2="253.5" y2="1123" stroke="#444"/>
<text x="253.5" y="1135" text-anchor="middle" fill="#444">1</text>
<line x1="280.9" y1="1120" x2="280.9" y2="1123" stroke="#444"/>
<text x="280.9" y="1135" text-anchor="middle" fill="#444">2</text>
<line x1="308.4" y1="1120" x2="308.4" y2="1123" stroke="#444"/>
<text x="308.4" y="1135" text-anchor="middle" fill="#444">3</text>
<line x1="335.8" y1="1120" x2="335.8" y2="1123" stroke="#444"/>
<text x="335.8" y="1135" text-anchor="middle" fill="#444">4</text>
<line x1="363.3" y1="1120" x2="363.3" y2="1123" stroke="#444"/>
<text x="363.3" y="1135" text-anchor="middle" fill="#444">5</text>
<line x1="72" y1="1120.0" x2="75" y2="1120.0" stroke="#444"/>
<text x="69" y="1123.0" text-anchor="end" fill="#444">-1.3</text>
<line x1="72" y1="1080.0" x2="75" y2="1080.0" stroke="#444"/>
<text x="69" y="1083.0" text-anchor="end" fill="#444">-0.77</text>
<line x1="72" y1="1040.0" x2="75" y2="1040.0" stroke="#444"/>
<text x="69" y="1043.0" text-anchor="end" fill="#444">-0.26</text>
<line x1="72" y1="1000.0" x2="75" y2="1000.0" stroke="#444"/>
<text x="69" y="1003.0" text-anchor="end" fill="#444">0.25</text>
<line x1="72" y1="960.0" x2="75" y2="960.0" stroke="#444"/>
<text x="69" y="963.0" text-anchor="end" fill="#444">0.76</text>
<text x="226.0" y="1154" text-anchor="middle" fill="#444">Event time (years from state-level adoption)</text>
<text x="27" y="1040.0" text-anchor="middle" fill="#444" transform="rotate(-90 27 1040.0)">ATT (per 100k)</text>
<rect x="425" y="910" width="380" height="260" fill="#fafaf7" stroke="#e2e2dc"/>
<text x="615.0" y="928" text-anchor="middle" font-weight="600">State firearm homicide rate (joined down) [no county variation]</text>
<line x1="485" y1="985.5888593637785" x2="787" y2="985.5888593637785" stroke="#aaaaaa" stroke-width="0.7"/>
<polygon points="498.7,975.0 526.2,960.0 553.6,975.8 581.1,979.0 636.0,979.4 663.5,998.1 690.9,968.6 718.4,975.2 745.8,981.2 773.3,1052.1 773.3,1120.0 745.8,1026.1 718.4,1009.5 690.9,1000.1 663.5,1036.9 636.0,1006.9 581.1,996.0 553.6,995.4 526.2,980.9 498.7,999.6" fill="#1f3a5f" opacity="0.18"/>
<polyline points="498.7,987.3 526.2,970.4 553.6,985.6 581.1,987.5 636.0,993.1 663.5,1017.5 690.9,984.4 718.4,992.4 745.8,1003.7 773.3,1086.0" fill="none" stroke="#1f3a5f" stroke-width="1.6"/>
<circle cx="498.7" cy="987.3" r="2.6" fill="#1f3a5f"/>
<circle cx="526.2" cy="970.4" r="2.6" fill="#1f3a5f"/>
<circle cx="553.6" cy="985.6" r="2.6" fill="#1f3a5f"/>
<circle cx="581.1" cy="987.5" r="2.6" fill="#1f3a5f"/>
<circle cx="636.0" cy="993.1" r="2.6" fill="#1f3a5f"/>
<circle cx="663.5" cy="1017.5" r="2.6" fill="#1f3a5f"/>
<circle cx="690.9" cy="984.4" r="2.6" fill="#1f3a5f"/>
<circle cx="718.4" cy="992.4" r="2.6" fill="#1f3a5f"/>
<circle cx="745.8" cy="1003.7" r="2.6" fill="#1f3a5f"/>
<circle cx="773.3" cy="1086.0" r="2.6" fill="#1f3a5f"/>
<line x1="622.3" y1="960" x2="622.3" y2="1120" stroke="#b9461a" stroke-dasharray="3 3"/>
<line x1="485" y1="1120" x2="787" y2="1120" stroke="#444"/>
<line x1="485" y1="960" x2="485" y2="1120" stroke="#444"/>
<line x1="498.7" y1="1120" x2="498.7" y2="1123" stroke="#444"/>
<text x="498.7" y="1135" text-anchor="middle" fill="#444">-5</text>
<line x1="526.2" y1="1120" x2="526.2" y2="1123" stroke="#444"/>
<text x="526.2" y="1135" text-anchor="middle" fill="#444">-4</text>
<line x1="553.6" y1="1120" x2="553.6" y2="1123" stroke="#444"/>
<text x="553.6" y="1135" text-anchor="middle" fill="#444">-3</text>
<line x1="581.1" y1="1120" x2="581.1" y2="1123" stroke="#444"/>
<text x="581.1" y="1135" text-anchor="middle" fill="#444">-2</text>
<line x1="636.0" y1="1120" x2="636.0" y2="1123" stroke="#444"/>
<text x="636.0" y="1135" text-anchor="middle" fill="#444">0</text>
<line x1="663.5" y1="1120" x2="663.5" y2="1123" stroke="#444"/>
<text x="663.5" y="1135" text-anchor="middle" fill="#444">1</text>
<line x1="690.9" y1="1120" x2="690.9" y2="1123" stroke="#444"/>
<text x="690.9" y="1135" text-anchor="middle" fill="#444">2</text>
<line x1="718.4" y1="1120" x2="718.4" y2="1123" stroke="#444"/>
<text x="718.4" y="1135" text-anchor="middle" fill="#444">3</text>
<line x1="745.8" y1="1120" x2="745.8" y2="1123" stroke="#444"/>
<text x="745.8" y="1135" text-anchor="middle" fill="#444">4</text>
<line x1="773.3" y1="1120" x2="773.3" y2="1123" stroke="#444"/>
<text x="773.3" y="1135" text-anchor="middle" fill="#444">5</text>
<line x1="482" y1="1120.0" x2="485" y2="1120.0" stroke="#444"/>
<text x="479" y="1123.0" text-anchor="end" fill="#444">-1.7</text>
<line x1="482" y1="1080.0" x2="485" y2="1080.0" stroke="#444"/>
<text x="479" y="1083.0" text-anchor="end" fill="#444">-1.2</text>
<line x1="482" y1="1040.0" x2="485" y2="1040.0" stroke="#444"/>
<text x="479" y="1043.0" text-anchor="end" fill="#444">-0.68</text>
<line x1="482" y1="1000.0" x2="485" y2="1000.0" stroke="#444"/>
<text x="479" y="1003.0" text-anchor="end" fill="#444">-0.18</text>
<line x1="482" y1="960.0" x2="485" y2="960.0" stroke="#444"/>
<text x="479" y="963.0" text-anchor="end" fill="#444">0.32</text>
<text x="636.0" y="1154" text-anchor="middle" fill="#444">Event time (years from state-level adoption)</text>
<text x="437" y="1040.0" text-anchor="middle" fill="#444" transform="rotate(-90 437 1040.0)">ATT (per 100k)</text>
<text x="805" y="1188" text-anchor="end" fill="#888" font-size="10">Shaded band: pointwise 95% CI from state-clustered Rademacher bootstrap. Vertical dashed line marks the year before adoption.</text>
</svg>