<svg xmlns="http://www.w3.org/2000/svg" viewBox="0 0 820 620" font-family="-apple-system, Segoe UI, Helvetica, Arial, sans-serif" font-size="11">
<text x="410.0" y="22" text-anchor="middle" font-size="14" font-weight="600">Callaway-Sant'Anna ATT by event time (RA) -- stacked DiD (age21_handgun)</text>
<rect x="15" y="40" width="380" height="260" fill="#fafaf7" stroke="#e2e2dc"/>
<text x="205.0" y="58" text-anchor="middle" font-weight="600">Firearm suicide rate (per 100k)</text>
<line x1="75" y1="169.62081513287148" x2="377" y2="169.62081513287148" stroke="#aaaaaa" stroke-width="0.7"/>
<polygon points="88.7,115.7 116.2,146.1 143.6,136.4 171.1,91.4 198.5,169.6 226.0,130.2 253.5,163.4 280.9,90.0 308.4,149.1 335.8,161.2 363.3,151.3 363.3,201.3 335.8,250.0 308.4,201.0 280.9,228.8 253.5,195.3 226.0,161.8 198.5,169.6 171.1,182.1 143.6,208.3 116.2,174.2 88.7,243.0" fill="#1f3a5f" opacity="0.18"/>
<polyline points="88.7,179.3 116.2,160.2 143.6,172.4 171.1,136.8 198.5,169.6 226.0,146.0 253.5,179.3 280.9,159.4 308.4,175.1 335.8,205.6 363.3,176.3" fill="none" stroke="#1f3a5f" stroke-width="1.6"/>
<circle cx="88.7" cy="179.3" r="2.6" fill="#1f3a5f"/>
<circle cx="116.2" cy="160.2" r="2.6" fill="#1f3a5f"/>
<circle cx="143.6" cy="172.4" r="2.6" fill="#1f3a5f"/>
<circle cx="171.1" cy="136.8" r="2.6" fill="#1f3a5f"/>
<circle cx="198.5" cy="169.6" r="2.6" fill="#1f3a5f"/>
<circle cx="226.0" cy="146.0" r="2.6" fill="#1f3a5f"/>
<circle cx="253.5" cy="179.3" r="2.6" fill="#1f3a5f"/>
<circle cx="280.9" cy="159.4" r="2.6" fill="#1f3a5f"/>
<circle cx="308.4" cy="175.1" r="2.6" fill="#1f3a5f"/>
<circle cx="335.8" cy="205.6" r="2.6" fill="#1f3a5f"/>
<circle cx="363.3" cy="176.3" r="2.6" fill="#1f3a5f"/>
<line x1="212.3" y1="90" x2="212.3" y2="250" stroke="#b9461a" stroke-dasharray="3 3"/>
<line x1="75" y1="250" x2="377" y2="250" stroke="#444"/>
<line x1="75" y1="90" x2="75" y2="250" stroke="#444"/>
<line x1="88.7" y1="250" x2="88.7" y2="253" stroke="#444"/>
<text x="88.7" y="265" text-anchor="middle" fill="#444">-5</text>
<line x1="116.2" y1="250" x2="116.2" y2="253" stroke="#444"/>
<text x="116.2" y="265" text-anchor="middle" fill="#444">-4</text>
<line x1="143.6" y1="250" x2="143.6" y2="253" stroke="#444"/>
<text x="143.6" y="265" text-anchor="middle" fill="#444">-3</text>
<line x1="171.1" y1="250" x2="171.1" y2="253" stroke="#444"/>
<text x="171.1" y="265" text-anchor="middle" fill="#444">-2</text>
<line x1="198.5" y1="250" x2="198.5" y2="253" stroke="#444"/>
<text x="198.5" y="265" text-anchor="middle" fill="#444">-1</text>
<line x1="226.0" y1="250" x2="226.0" y2="253" stroke="#444"/>
<text x="226.0" y="265" text-anchor="middle" fill="#444">0</text>
<line x1="253.5" y1="250" x2="253.5" y2="253" stroke="#444"/>
<text x="253.5" y="265" text-anchor="middle" fill="#444">1</text>
<line x1="280.9" y1="250" x2="280.9" y2="253" stroke="#444"/>
<text x="280.9" y="265" text-anchor="middle" fill="#444">2</text>
<line x1="308.4" y1="250" x2="308.4" y2="253" stroke="#444"/>
<text x="308.4" y="265" text-anchor="middle" fill="#444">3</text>
<line x1="335.8" y1="250" x2="335.8" y2="253" stroke="#444"/>
<text x="335.8" y="265" text-anchor="middle" fill="#444">4</text>
<line x1="363.3" y1="250" x2="363.3" y2="253" stroke="#444"/>
<text x="363.3" y="265" text-anchor="middle" fill="#444">5</text>
<line x1="72" y1="250.0" x2="75" y2="250.0" stroke="#444"/>
<text x="69" y="253.0" text-anchor="end" fill="#444">-1.5</text>
<line x1="72" y1="210.0" x2="75" y2="210.0" stroke="#444"/>
<text x="69" y="213.0" text-anchor="end" fill="#444">-0.74</text>
<line x1="72" y1="170.0" x2="75" y2="170.0" stroke="#444"/>
<text x="69" y="173.0" text-anchor="end" fill="#444">-0.0069</text>
<line x1="72" y1="130.0" x2="75" y2="130.0" stroke="#444"/>
<text x="69" y="133.0" text-anchor="end" fill="#444">0.72</text>
<line x1="72" y1="90.0" x2="75" y2="90.0" stroke="#444"/>
<text x="69" y="93.0" text-anchor="end" fill="#444">1.5</text>
<text x="226.0" y="284" text-anchor="middle" fill="#444">Event time (years from adoption)</text>
<text x="27" y="170.0" text-anchor="middle" fill="#444" transform="rotate(-90 27 170.0)">ATT (per 100k)</text>
<rect x="425" y="40" width="380" height="260" fill="#fafaf7" stroke="#e2e2dc"/>
<text x="615.0" y="58" text-anchor="middle" font-weight="600">Non-firearm suicide rate (per 100k) [substitution test]</text>
<line x1="485" y1="199.9581549861455" x2="787" y2="199.9581549861455" stroke="#aaaaaa" stroke-width="0.7"/>
<polygon points="498.7,185.8 526.2,136.2 553.6,176.4 581.1,188.1 608.5,200.0 636.0,188.0 663.5,177.7 690.9,90.0 718.4,157.2 745.8,156.1 773.3,144.0 773.3,207.3 745.8,240.8 718.4,250.0 690.9,226.6 663.5,218.0 636.0,244.5 608.5,200.0 581.1,227.1 553.6,245.5 526.2,194.7 498.7,228.3" fill="#1f3a5f" opacity="0.18"/>
<polyline points="498.7,207.0 526.2,165.4 553.6,210.9 581.1,207.6 608.5,200.0 636.0,216.3 663.5,197.9 690.9,158.3 718.4,203.6 745.8,198.4 773.3,175.7" fill="none" stroke="#1f3a5f" stroke-width="1.6"/>
<circle cx="498.7" cy="207.0" r="2.6" fill="#1f3a5f"/>
<circle cx="526.2" cy="165.4" r="2.6" fill="#1f3a5f"/>
<circle cx="553.6" cy="210.9" r="2.6" fill="#1f3a5f"/>
<circle cx="581.1" cy="207.6" r="2.6" fill="#1f3a5f"/>
<circle cx="608.5" cy="200.0" r="2.6" fill="#1f3a5f"/>
<circle cx="636.0" cy="216.3" r="2.6" fill="#1f3a5f"/>
<circle cx="663.5" cy="197.9" r="2.6" fill="#1f3a5f"/>
<circle cx="690.9" cy="158.3" r="2.6" fill="#1f3a5f"/>
<circle cx="718.4" cy="203.6" r="2.6" fill="#1f3a5f"/>
<circle cx="745.8" cy="198.4" r="2.6" fill="#1f3a5f"/>
<circle cx="773.3" cy="175.7" r="2.6" fill="#1f3a5f"/>
<line x1="622.3" y1="90" x2="622.3" y2="250" stroke="#b9461a" stroke-dasharray="3 3"/>
<line x1="485" y1="250" x2="787" y2="250" stroke="#444"/>
<line x1="485" y1="90" x2="485" y2="250" stroke="#444"/>
<line x1="498.7" y1="250" x2="498.7" y2="253" stroke="#444"/>
<text x="498.7" y="265" text-anchor="middle" fill="#444">-5</text>
<line x1="526.2" y1="250" x2="526.2" y2="253" stroke="#444"/>
<text x="526.2" y="265" text-anchor="middle" fill="#444">-4</text>
<line x1="553.6" y1="250" x2="553.6" y2="253" stroke="#444"/>
<text x="553.6" y="265" text-anchor="middle" fill="#444">-3</text>
<line x1="581.1" y1="250" x2="581.1" y2="253" stroke="#444"/>
<text x="581.1" y="265" text-anchor="middle" fill="#444">-2</text>
<line x1="608.5" y1="250" x2="608.5" y2="253" stroke="#444"/>
<text x="608.5" y="265" text-anchor="middle" fill="#444">-1</text>
<line x1="636.0" y1="250" x2="636.0" y2="253" stroke="#444"/>
<text x="636.0" y="265" text-anchor="middle" fill="#444">0</text>
<line x1="663.5" y1="250" x2="663.5" y2="253" stroke="#444"/>
<text x="663.5" y="265" text-anchor="middle" fill="#444">1</text>
<line x1="690.9" y1="250" x2="690.9" y2="253" stroke="#444"/>
<text x="690.9" y="265" text-anchor="middle" fill="#444">2</text>
<line x1="718.4" y1="250" x2="718.4" y2="253" stroke="#444"/>
<text x="718.4" y="265" text-anchor="middle" fill="#444">3</text>
<line x1="745.8" y1="250" x2="745.8" y2="253" stroke="#444"/>
<text x="745.8" y="265" text-anchor="middle" fill="#444">4</text>
<line x1="773.3" y1="250" x2="773.3" y2="253" stroke="#444"/>
<text x="773.3" y="265" text-anchor="middle" fill="#444">5</text>
<line x1="482" y1="250.0" x2="485" y2="250.0" stroke="#444"/>
<text x="479" y="253.0" text-anchor="end" fill="#444">-1.1</text>
<line x1="482" y1="210.0" x2="485" y2="210.0" stroke="#444"/>
<text x="479" y="213.0" text-anchor="end" fill="#444">-0.23</text>
<line x1="482" y1="170.0" x2="485" y2="170.0" stroke="#444"/>
<text x="479" y="173.0" text-anchor="end" fill="#444">0.68</text>
<line x1="482" y1="130.0" x2="485" y2="130.0" stroke="#444"/>
<text x="479" y="133.0" text-anchor="end" fill="#444">1.6</text>
<line x1="482" y1="90.0" x2="485" y2="90.0" stroke="#444"/>
<text x="479" y="93.0" text-anchor="end" fill="#444">2.5</text>
<text x="636.0" y="284" text-anchor="middle" fill="#444">Event time (years from adoption)</text>
<text x="437" y="170.0" text-anchor="middle" fill="#444" transform="rotate(-90 437 170.0)">ATT (per 100k)</text>
<rect x="15" y="330" width="380" height="260" fill="#fafaf7" stroke="#e2e2dc"/>
<text x="205.0" y="348" text-anchor="middle" font-weight="600">Total suicide rate (per 100k) [net effect]</text>
<line x1="75" y1="479.22190446498996" x2="377" y2="479.22190446498996" stroke="#aaaaaa" stroke-width="0.7"/>
<polygon points="88.7,450.9 116.2,436.5 143.6,454.5 171.1,447.9 198.5,479.2 226.0,460.3 253.5,463.5 280.9,380.0 308.4,450.2 335.8,451.3 363.3,439.4 363.3,496.5 335.8,540.0 308.4,517.8 280.9,518.8 253.5,501.9 226.0,494.8 198.5,479.2 171.1,488.0 143.6,519.7 116.2,471.6 88.7,525.4" fill="#1f3a5f" opacity="0.18"/>
<polyline points="88.7,488.1 116.2,454.0 143.6,487.1 171.1,467.9 198.5,479.2 226.0,477.6 253.5,482.7 280.9,449.4 308.4,484.0 335.8,495.7 363.3,467.9" fill="none" stroke="#1f3a5f" stroke-width="1.6"/>
<circle cx="88.7" cy="488.1" r="2.6" fill="#1f3a5f"/>
<circle cx="116.2" cy="454.0" r="2.6" fill="#1f3a5f"/>
<circle cx="143.6" cy="487.1" r="2.6" fill="#1f3a5f"/>
<circle cx="171.1" cy="467.9" r="2.6" fill="#1f3a5f"/>
<circle cx="198.5" cy="479.2" r="2.6" fill="#1f3a5f"/>
<circle cx="226.0" cy="477.6" r="2.6" fill="#1f3a5f"/>
<circle cx="253.5" cy="482.7" r="2.6" fill="#1f3a5f"/>
<circle cx="280.9" cy="449.4" r="2.6" fill="#1f3a5f"/>
<circle cx="308.4" cy="484.0" r="2.6" fill="#1f3a5f"/>
<circle cx="335.8" cy="495.7" r="2.6" fill="#1f3a5f"/>
<circle cx="363.3" cy="467.9" r="2.6" fill="#1f3a5f"/>
<line x1="212.3" y1="380" x2="212.3" y2="540" stroke="#b9461a" stroke-dasharray="3 3"/>
<line x1="75" y1="540" x2="377" y2="540" stroke="#444"/>
<line x1="75" y1="380" x2="75" y2="540" stroke="#444"/>
<line x1="88.7" y1="540" x2="88.7" y2="543" stroke="#444"/>
<text x="88.7" y="555" text-anchor="middle" fill="#444">-5</text>
<line x1="116.2" y1="540" x2="116.2" y2="543" stroke="#444"/>
<text x="116.2" y="555" text-anchor="middle" fill="#444">-4</text>
<line x1="143.6" y1="540" x2="143.6" y2="543" stroke="#444"/>
<text x="143.6" y="555" text-anchor="middle" fill="#444">-3</text>
<line x1="171.1" y1="540" x2="171.1" y2="543" stroke="#444"/>
<text x="171.1" y="555" text-anchor="middle" fill="#444">-2</text>
<line x1="198.5" y1="540" x2="198.5" y2="543" stroke="#444"/>
<text x="198.5" y="555" text-anchor="middle" fill="#444">-1</text>
<line x1="226.0" y1="540" x2="226.0" y2="543" stroke="#444"/>
<text x="226.0" y="555" text-anchor="middle" fill="#444">0</text>
<line x1="253.5" y1="540" x2="253.5" y2="543" stroke="#444"/>
<text x="253.5" y="555" text-anchor="middle" fill="#444">1</text>
<line x1="280.9" y1="540" x2="280.9" y2="543" stroke="#444"/>
<text x="280.9" y="555" text-anchor="middle" fill="#444">2</text>
<line x1="308.4" y1="540" x2="308.4" y2="543" stroke="#444"/>
<text x="308.4" y="555" text-anchor="middle" fill="#444">3</text>
<line x1="335.8" y1="540" x2="335.8" y2="543" stroke="#444"/>
<text x="335.8" y="555" text-anchor="middle" fill="#444">4</text>
<line x1="363.3" y1="540" x2="363.3" y2="543" stroke="#444"/>
<text x="363.3" y="555" text-anchor="middle" fill="#444">5</text>
<line x1="72" y1="540.0" x2="75" y2="540.0" stroke="#444"/>
<text x="69" y="543.0" text-anchor="end" fill="#444">-2.3</text>
<line x1="72" y1="500.0" x2="75" y2="500.0" stroke="#444"/>
<text x="69" y="503.0" text-anchor="end" fill="#444">-0.78</text>
<line x1="72" y1="460.0" x2="75" y2="460.0" stroke="#444"/>
<text x="69" y="463.0" text-anchor="end" fill="#444">0.73</text>
<line x1="72" y1="420.0" x2="75" y2="420.0" stroke="#444"/>
<text x="69" y="423.0" text-anchor="end" fill="#444">2.2</text>
<line x1="72" y1="380.0" x2="75" y2="380.0" stroke="#444"/>
<text x="69" y="383.0" text-anchor="end" fill="#444">3.7</text>
<text x="226.0" y="574" text-anchor="middle" fill="#444">Event time (years from adoption)</text>
<text x="27" y="460.0" text-anchor="middle" fill="#444" transform="rotate(-90 27 460.0)">ATT (per 100k)</text>
<rect x="425" y="330" width="380" height="260" fill="#fafaf7" stroke="#e2e2dc"/>
<text x="615.0" y="348" text-anchor="middle" font-weight="600">Firearm homicide rate (per 100k)</text>
<line x1="485" y1="453.27320481652976" x2="787" y2="453.27320481652976" stroke="#aaaaaa" stroke-width="0.7"/>
<polygon points="498.7,388.4 526.2,380.0 553.6,417.0 581.1,448.8 608.5,453.3 636.0,430.8 663.5,405.1 690.9,433.4 718.4,423.5 745.8,411.3 773.3,428.6 773.3,523.2 745.8,494.9 718.4,527.0 690.9,540.0 663.5,496.1 636.0,463.5 608.5,453.3 581.1,507.7 553.6,493.4 526.2,487.0 498.7,441.3" fill="#1f3a5f" opacity="0.18"/>
<polyline points="498.7,414.9 526.2,433.5 553.6,455.2 581.1,478.2 608.5,453.3 636.0,447.2 663.5,450.6 690.9,486.7 718.4,475.3 745.8,453.1 773.3,475.9" fill="none" stroke="#1f3a5f" stroke-width="1.6"/>
<circle cx="498.7" cy="414.9" r="2.6" fill="#1f3a5f"/>
<circle cx="526.2" cy="433.5" r="2.6" fill="#1f3a5f"/>
<circle cx="553.6" cy="455.2" r="2.6" fill="#1f3a5f"/>
<circle cx="581.1" cy="478.2" r="2.6" fill="#1f3a5f"/>
<circle cx="608.5" cy="453.3" r="2.6" fill="#1f3a5f"/>
<circle cx="636.0" cy="447.2" r="2.6" fill="#1f3a5f"/>
<circle cx="663.5" cy="450.6" r="2.6" fill="#1f3a5f"/>
<circle cx="690.9" cy="486.7" r="2.6" fill="#1f3a5f"/>
<circle cx="718.4" cy="475.3" r="2.6" fill="#1f3a5f"/>
<circle cx="745.8" cy="453.1" r="2.6" fill="#1f3a5f"/>
<circle cx="773.3" cy="475.9" r="2.6" fill="#1f3a5f"/>
<line x1="622.3" y1="380" x2="622.3" y2="540" stroke="#b9461a" stroke-dasharray="3 3"/>
<line x1="485" y1="540" x2="787" y2="540" stroke="#444"/>
<line x1="485" y1="380" x2="485" y2="540" stroke="#444"/>
<line x1="498.7" y1="540" x2="498.7" y2="543" stroke="#444"/>
<text x="498.7" y="555" text-anchor="middle" fill="#444">-5</text>
<line x1="526.2" y1="540" x2="526.2" y2="543" stroke="#444"/>
<text x="526.2" y="555" text-anchor="middle" fill="#444">-4</text>
<line x1="553.6" y1="540" x2="553.6" y2="543" stroke="#444"/>
<text x="553.6" y="555" text-anchor="middle" fill="#444">-3</text>
<line x1="581.1" y1="540" x2="581.1" y2="543" stroke="#444"/>
<text x="581.1" y="555" text-anchor="middle" fill="#444">-2</text>
<line x1="608.5" y1="540" x2="608.5" y2="543" stroke="#444"/>
<text x="608.5" y="555" text-anchor="middle" fill="#444">-1</text>
<line x1="636.0" y1="540" x2="636.0" y2="543" stroke="#444"/>
<text x="636.0" y="555" text-anchor="middle" fill="#444">0</text>
<line x1="663.5" y1="540" x2="663.5" y2="543" stroke="#444"/>
<text x="663.5" y="555" text-anchor="middle" fill="#444">1</text>
<line x1="690.9" y1="540" x2="690.9" y2="543" stroke="#444"/>
<text x="690.9" y="555" text-anchor="middle" fill="#444">2</text>
<line x1="718.4" y1="540" x2="718.4" y2="543" stroke="#444"/>
<text x="718.4" y="555" text-anchor="middle" fill="#444">3</text>
<line x1="745.8" y1="540" x2="745.8" y2="543" stroke="#444"/>
<text x="745.8" y="555" text-anchor="middle" fill="#444">4</text>
<line x1="773.3" y1="540" x2="773.3" y2="543" stroke="#444"/>
<text x="773.3" y="555" text-anchor="middle" fill="#444">5</text>
<line x1="482" y1="540.0" x2="485" y2="540.0" stroke="#444"/>
<text x="479" y="543.0" text-anchor="end" fill="#444">-1.2</text>
<line x1="482" y1="500.0" x2="485" y2="500.0" stroke="#444"/>
<text x="479" y="503.0" text-anchor="end" fill="#444">-0.66</text>
<line x1="482" y1="460.0" x2="485" y2="460.0" stroke="#444"/>
<text x="479" y="463.0" text-anchor="end" fill="#444">-0.096</text>
<line x1="482" y1="420.0" x2="485" y2="420.0" stroke="#444"/>
<text x="479" y="423.0" text-anchor="end" fill="#444">0.47</text>
<line x1="482" y1="380.0" x2="485" y2="380.0" stroke="#444"/>
<text x="479" y="383.0" text-anchor="end" fill="#444">1</text>
<text x="636.0" y="574" text-anchor="middle" fill="#444">Event time (years from adoption)</text>
<text x="437" y="460.0" text-anchor="middle" fill="#444" transform="rotate(-90 437 460.0)">ATT (per 100k)</text>
<rect x="15" y="620" width="380" height="260" fill="#fafaf7" stroke="#e2e2dc"/>
<text x="205.0" y="638" text-anchor="middle" font-weight="600">Total homicide rate (per 100k)</text>
<line x1="75" y1="722.8785931945031" x2="377" y2="722.8785931945031" stroke="#aaaaaa" stroke-width="0.7"/>
<polygon points="88.7,670.0 116.2,680.5 143.6,701.9 171.1,702.0 198.5,722.9 226.0,708.0 253.5,676.5 280.9,717.9 308.4,694.6 335.8,672.5 363.3,707.1 363.3,753.2 335.8,737.6 308.4,830.0 280.9,766.2 253.5,737.5 226.0,756.6 198.5,722.9 171.1,755.1 143.6,760.4 116.2,749.6 88.7,728.0" fill="#1f3a5f" opacity="0.18"/>
<polyline points="88.7,699.0 116.2,715.1 143.6,731.2 171.1,728.5 198.5,722.9 226.0,732.3 253.5,707.0 280.9,742.0 308.4,762.3 335.8,705.0 363.3,730.1" fill="none" stroke="#1f3a5f" stroke-width="1.6"/>
<circle cx="88.7" cy="699.0" r="2.6" fill="#1f3a5f"/>
<circle cx="116.2" cy="715.1" r="2.6" fill="#1f3a5f"/>
<circle cx="143.6" cy="731.2" r="2.6" fill="#1f3a5f"/>
<circle cx="171.1" cy="728.5" r="2.6" fill="#1f3a5f"/>
<circle cx="198.5" cy="722.9" r="2.6" fill="#1f3a5f"/>
<circle cx="226.0" cy="732.3" r="2.6" fill="#1f3a5f"/>
<circle cx="253.5" cy="707.0" r="2.6" fill="#1f3a5f"/>
<circle cx="280.9" cy="742.0" r="2.6" fill="#1f3a5f"/>
<circle cx="308.4" cy="762.3" r="2.6" fill="#1f3a5f"/>
<circle cx="335.8" cy="705.0" r="2.6" fill="#1f3a5f"/>
<circle cx="363.3" cy="730.1" r="2.6" fill="#1f3a5f"/>
<line x1="212.3" y1="670" x2="212.3" y2="830" stroke="#b9461a" stroke-dasharray="3 3"/>
<line x1="75" y1="830" x2="377" y2="830" stroke="#444"/>
<line x1="75" y1="670" x2="75" y2="830" stroke="#444"/>
<line x1="88.7" y1="830" x2="88.7" y2="833" stroke="#444"/>
<text x="88.7" y="845" text-anchor="middle" fill="#444">-5</text>
<line x1="116.2" y1="830" x2="116.2" y2="833" stroke="#444"/>
<text x="116.2" y="845" text-anchor="middle" fill="#444">-4</text>
<line x1="143.6" y1="830" x2="143.6" y2="833" stroke="#444"/>
<text x="143.6" y="845" text-anchor="middle" fill="#444">-3</text>
<line x1="171.1" y1="830" x2="171.1" y2="833" stroke="#444"/>
<text x="171.1" y="845" text-anchor="middle" fill="#444">-2</text>
<line x1="198.5" y1="830" x2="198.5" y2="833" stroke="#444"/>
<text x="198.5" y="845" text-anchor="middle" fill="#444">-1</text>
<line x1="226.0" y1="830" x2="226.0" y2="833" stroke="#444"/>
<text x="226.0" y="845" text-anchor="middle" fill="#444">0</text>
<line x1="253.5" y1="830" x2="253.5" y2="833" stroke="#444"/>
<text x="253.5" y="845" text-anchor="middle" fill="#444">1</text>
<line x1="280.9" y1="830" x2="280.9" y2="833" stroke="#444"/>
<text x="280.9" y="845" text-anchor="middle" fill="#444">2</text>
<line x1="308.4" y1="830" x2="308.4" y2="833" stroke="#444"/>
<text x="308.4" y="845" text-anchor="middle" fill="#444">3</text>
<line x1="335.8" y1="830" x2="335.8" y2="833" stroke="#444"/>
<text x="335.8" y="845" text-anchor="middle" fill="#444">4</text>
<line x1="363.3" y1="830" x2="363.3" y2="833" stroke="#444"/>
<text x="363.3" y="845" text-anchor="middle" fill="#444">5</text>
<line x1="72" y1="830.0" x2="75" y2="830.0" stroke="#444"/>
<text x="69" y="833.0" text-anchor="end" fill="#444">-1.8</text>
<line x1="72" y1="790.0" x2="75" y2="790.0" stroke="#444"/>
<text x="69" y="793.0" text-anchor="end" fill="#444">-1.1</text>
<line x1="72" y1="750.0" x2="75" y2="750.0" stroke="#444"/>
<text x="69" y="753.0" text-anchor="end" fill="#444">-0.45</text>
<line x1="72" y1="710.0" x2="75" y2="710.0" stroke="#444"/>
<text x="69" y="713.0" text-anchor="end" fill="#444">0.21</text>
<line x1="72" y1="670.0" x2="75" y2="670.0" stroke="#444"/>
<text x="69" y="673.0" text-anchor="end" fill="#444">0.88</text>
<text x="226.0" y="864" text-anchor="middle" fill="#444">Event time (years from adoption)</text>
<text x="27" y="750.0" text-anchor="middle" fill="#444" transform="rotate(-90 27 750.0)">ATT (per 100k)</text>
<rect x="425" y="620" width="380" height="260" fill="#fafaf7" stroke="#e2e2dc"/>
<text x="615.0" y="638" text-anchor="middle" font-weight="600">Motor vehicle theft rate (per 100k) [placebo]</text>
<line x1="485" y1="753.9186724299475" x2="787" y2="753.9186724299475" stroke="#aaaaaa" stroke-width="0.7"/>
<polygon points="498.7,723.2 526.2,736.4 553.6,737.5 581.1,702.8 608.5,753.9 636.0,723.3 663.5,742.5 690.9,743.1 718.4,673.2 745.8,670.0 773.3,734.5 773.3,787.0 745.8,782.7 718.4,790.9 690.9,765.6 663.5,796.9 636.0,793.6 608.5,753.9 581.1,787.5 553.6,777.6 526.2,830.0 498.7,818.8" fill="#1f3a5f" opacity="0.18"/>
<polyline points="498.7,771.0 526.2,783.2 553.6,757.5 581.1,745.1 608.5,753.9 636.0,758.4 663.5,769.7 690.9,754.4 718.4,732.0 745.8,726.3 773.3,760.8" fill="none" stroke="#1f3a5f" stroke-width="1.6"/>
<circle cx="498.7" cy="771.0" r="2.6" fill="#1f3a5f"/>
<circle cx="526.2" cy="783.2" r="2.6" fill="#1f3a5f"/>
<circle cx="553.6" cy="757.5" r="2.6" fill="#1f3a5f"/>
<circle cx="581.1" cy="745.1" r="2.6" fill="#1f3a5f"/>
<circle cx="608.5" cy="753.9" r="2.6" fill="#1f3a5f"/>
<circle cx="636.0" cy="758.4" r="2.6" fill="#1f3a5f"/>
<circle cx="663.5" cy="769.7" r="2.6" fill="#1f3a5f"/>
<circle cx="690.9" cy="754.4" r="2.6" fill="#1f3a5f"/>
<circle cx="718.4" cy="732.0" r="2.6" fill="#1f3a5f"/>
<circle cx="745.8" cy="726.3" r="2.6" fill="#1f3a5f"/>
<circle cx="773.3" cy="760.8" r="2.6" fill="#1f3a5f"/>
<line x1="622.3" y1="670" x2="622.3" y2="830" stroke="#b9461a" stroke-dasharray="3 3"/>
<line x1="485" y1="830" x2="787" y2="830" stroke="#444"/>
<line x1="485" y1="670" x2="485" y2="830" stroke="#444"/>
<line x1="498.7" y1="830" x2="498.7" y2="833" stroke="#444"/>
<text x="498.7" y="845" text-anchor="middle" fill="#444">-5</text>
<line x1="526.2" y1="830" x2="526.2" y2="833" stroke="#444"/>
<text x="526.2" y="845" text-anchor="middle" fill="#444">-4</text>
<line x1="553.6" y1="830" x2="553.6" y2="833" stroke="#444"/>
<text x="553.6" y="845" text-anchor="middle" fill="#444">-3</text>
<line x1="581.1" y1="830" x2="581.1" y2="833" stroke="#444"/>
<text x="581.1" y="845" text-anchor="middle" fill="#444">-2</text>
<line x1="608.5" y1="830" x2="608.5" y2="833" stroke="#444"/>
<text x="608.5" y="845" text-anchor="middle" fill="#444">-1</text>
<line x1="636.0" y1="830" x2="636.0" y2="833" stroke="#444"/>
<text x="636.0" y="845" text-anchor="middle" fill="#444">0</text>
<line x1="663.5" y1="830" x2="663.5" y2="833" stroke="#444"/>
<text x="663.5" y="845" text-anchor="middle" fill="#444">1</text>
<line x1="690.9" y1="830" x2="690.9" y2="833" stroke="#444"/>
<text x="690.9" y="845" text-anchor="middle" fill="#444">2</text>
<line x1="718.4" y1="830" x2="718.4" y2="833" stroke="#444"/>
<text x="718.4" y="845" text-anchor="middle" fill="#444">3</text>
<line x1="745.8" y1="830" x2="745.8" y2="833" stroke="#444"/>
<text x="745.8" y="845" text-anchor="middle" fill="#444">4</text>
<line x1="773.3" y1="830" x2="773.3" y2="833" stroke="#444"/>
<text x="773.3" y="845" text-anchor="middle" fill="#444">5</text>
<line x1="482" y1="830.0" x2="485" y2="830.0" stroke="#444"/>
<text x="479" y="833.0" text-anchor="end" fill="#444">-1.1e+02</text>
<line x1="482" y1="790.0" x2="485" y2="790.0" stroke="#444"/>
<text x="479" y="793.0" text-anchor="end" fill="#444">-51</text>
<line x1="482" y1="750.0" x2="485" y2="750.0" stroke="#444"/>
<text x="479" y="753.0" text-anchor="end" fill="#444">5.6</text>
<line x1="482" y1="710.0" x2="485" y2="710.0" stroke="#444"/>
<text x="479" y="713.0" text-anchor="end" fill="#444">63</text>
<line x1="482" y1="670.0" x2="485" y2="670.0" stroke="#444"/>
<text x="479" y="673.0" text-anchor="end" fill="#444">1.2e+02</text>
<text x="636.0" y="864" text-anchor="middle" fill="#444">Event time (years from adoption)</text>
<text x="437" y="750.0" text-anchor="middle" fill="#444" transform="rotate(-90 437 750.0)">ATT (per 100k)</text>
<text x="805" y="608" text-anchor="end" fill="#888" font-size="10">Shaded band: pointwise 95% CI from cluster bootstrap. Vertical dashed line marks the year before adoption.</text>
</svg>