<svg xmlns="http://www.w3.org/2000/svg" viewBox="0 0 820 620" font-family="-apple-system, Segoe UI, Helvetica, Arial, sans-serif" font-size="11">
<text x="410.0" y="22" text-anchor="middle" font-size="14" font-weight="600">Callaway-Sant'Anna ATT by event time (EB) -- stacked DiD (age21_handgun)</text>
<rect x="15" y="40" width="380" height="260" fill="#fafaf7" stroke="#e2e2dc"/>
<text x="205.0" y="58" text-anchor="middle" font-weight="600">Firearm suicide rate (per 100k)</text>
<line x1="75" y1="172.08272195155683" x2="377" y2="172.08272195155683" stroke="#aaaaaa" stroke-width="0.7"/>
<polygon points="88.7,121.9 116.2,154.0 143.6,141.1 171.1,94.3 198.5,172.1 226.0,132.1 253.5,161.7 280.9,90.0 308.4,152.8 335.8,164.3 363.3,151.6 363.3,204.9 335.8,247.1 308.4,200.2 280.9,229.3 253.5,197.3 226.0,162.7 198.5,172.1 171.1,185.1 143.6,212.3 116.2,176.3 88.7,250.0" fill="#1f3a5f" opacity="0.18"/>
<polyline points="88.7,186.0 116.2,165.2 143.6,176.7 171.1,139.7 198.5,172.1 226.0,147.4 253.5,179.5 280.9,159.7 308.4,176.5 335.8,205.7 363.3,178.2" fill="none" stroke="#1f3a5f" stroke-width="1.6"/>
<circle cx="88.7" cy="186.0" r="2.6" fill="#1f3a5f"/>
<circle cx="116.2" cy="165.2" r="2.6" fill="#1f3a5f"/>
<circle cx="143.6" cy="176.7" r="2.6" fill="#1f3a5f"/>
<circle cx="171.1" cy="139.7" r="2.6" fill="#1f3a5f"/>
<circle cx="198.5" cy="172.1" r="2.6" fill="#1f3a5f"/>
<circle cx="226.0" cy="147.4" r="2.6" fill="#1f3a5f"/>
<circle cx="253.5" cy="179.5" r="2.6" fill="#1f3a5f"/>
<circle cx="280.9" cy="159.7" r="2.6" fill="#1f3a5f"/>
<circle cx="308.4" cy="176.5" r="2.6" fill="#1f3a5f"/>
<circle cx="335.8" cy="205.7" r="2.6" fill="#1f3a5f"/>
<circle cx="363.3" cy="178.2" r="2.6" fill="#1f3a5f"/>
<line x1="212.3" y1="90" x2="212.3" y2="250" stroke="#b9461a" stroke-dasharray="3 3"/>
<line x1="75" y1="250" x2="377" y2="250" stroke="#444"/>
<line x1="75" y1="90" x2="75" y2="250" stroke="#444"/>
<line x1="88.7" y1="250" x2="88.7" y2="253" stroke="#444"/>
<text x="88.7" y="265" text-anchor="middle" fill="#444">-5</text>
<line x1="116.2" y1="250" x2="116.2" y2="253" stroke="#444"/>
<text x="116.2" y="265" text-anchor="middle" fill="#444">-4</text>
<line x1="143.6" y1="250" x2="143.6" y2="253" stroke="#444"/>
<text x="143.6" y="265" text-anchor="middle" fill="#444">-3</text>
<line x1="171.1" y1="250" x2="171.1" y2="253" stroke="#444"/>
<text x="171.1" y="265" text-anchor="middle" fill="#444">-2</text>
<line x1="198.5" y1="250" x2="198.5" y2="253" stroke="#444"/>
<text x="198.5" y="265" text-anchor="middle" fill="#444">-1</text>
<line x1="226.0" y1="250" x2="226.0" y2="253" stroke="#444"/>
<text x="226.0" y="265" text-anchor="middle" fill="#444">0</text>
<line x1="253.5" y1="250" x2="253.5" y2="253" stroke="#444"/>
<text x="253.5" y="265" text-anchor="middle" fill="#444">1</text>
<line x1="280.9" y1="250" x2="280.9" y2="253" stroke="#444"/>
<text x="280.9" y="265" text-anchor="middle" fill="#444">2</text>
<line x1="308.4" y1="250" x2="308.4" y2="253" stroke="#444"/>
<text x="308.4" y="265" text-anchor="middle" fill="#444">3</text>
<line x1="335.8" y1="250" x2="335.8" y2="253" stroke="#444"/>
<text x="335.8" y="265" text-anchor="middle" fill="#444">4</text>
<line x1="363.3" y1="250" x2="363.3" y2="253" stroke="#444"/>
<text x="363.3" y="265" text-anchor="middle" fill="#444">5</text>
<line x1="72" y1="250.0" x2="75" y2="250.0" stroke="#444"/>
<text x="69" y="253.0" text-anchor="end" fill="#444">-1.4</text>
<line x1="72" y1="210.0" x2="75" y2="210.0" stroke="#444"/>
<text x="69" y="213.0" text-anchor="end" fill="#444">-0.7</text>
<line x1="72" y1="170.0" x2="75" y2="170.0" stroke="#444"/>
<text x="69" y="173.0" text-anchor="end" fill="#444">0.038</text>
<line x1="72" y1="130.0" x2="75" y2="130.0" stroke="#444"/>
<text x="69" y="133.0" text-anchor="end" fill="#444">0.78</text>
<line x1="72" y1="90.0" x2="75" y2="90.0" stroke="#444"/>
<text x="69" y="93.0" text-anchor="end" fill="#444">1.5</text>
<text x="226.0" y="284" text-anchor="middle" fill="#444">Event time (years from adoption)</text>
<text x="27" y="170.0" text-anchor="middle" fill="#444" transform="rotate(-90 27 170.0)">ATT (per 100k)</text>
<rect x="425" y="40" width="380" height="260" fill="#fafaf7" stroke="#e2e2dc"/>
<text x="615.0" y="58" text-anchor="middle" font-weight="600">Non-firearm suicide rate (per 100k) [substitution test]</text>
<line x1="485" y1="196.5466197197732" x2="787" y2="196.5466197197732" stroke="#aaaaaa" stroke-width="0.7"/>
<polygon points="498.7,175.8 526.2,131.9 553.6,168.9 581.1,184.2 608.5,196.5 636.0,185.1 663.5,178.0 690.9,90.0 718.4,152.9 745.8,152.6 773.3,143.1 773.3,205.5 745.8,243.4 718.4,250.0 690.9,226.2 663.5,215.8 636.0,243.6 608.5,196.5 581.1,223.4 553.6,241.4 526.2,185.9 498.7,219.4" fill="#1f3a5f" opacity="0.18"/>
<polyline points="498.7,197.6 526.2,158.9 553.6,205.2 581.1,203.8 608.5,196.5 636.0,214.3 663.5,196.9 690.9,158.1 718.4,201.4 745.8,198.0 773.3,174.3" fill="none" stroke="#1f3a5f" stroke-width="1.6"/>
<circle cx="498.7" cy="197.6" r="2.6" fill="#1f3a5f"/>
<circle cx="526.2" cy="158.9" r="2.6" fill="#1f3a5f"/>
<circle cx="553.6" cy="205.2" r="2.6" fill="#1f3a5f"/>
<circle cx="581.1" cy="203.8" r="2.6" fill="#1f3a5f"/>
<circle cx="608.5" cy="196.5" r="2.6" fill="#1f3a5f"/>
<circle cx="636.0" cy="214.3" r="2.6" fill="#1f3a5f"/>
<circle cx="663.5" cy="196.9" r="2.6" fill="#1f3a5f"/>
<circle cx="690.9" cy="158.1" r="2.6" fill="#1f3a5f"/>
<circle cx="718.4" cy="201.4" r="2.6" fill="#1f3a5f"/>
<circle cx="745.8" cy="198.0" r="2.6" fill="#1f3a5f"/>
<circle cx="773.3" cy="174.3" r="2.6" fill="#1f3a5f"/>
<line x1="622.3" y1="90" x2="622.3" y2="250" stroke="#b9461a" stroke-dasharray="3 3"/>
<line x1="485" y1="250" x2="787" y2="250" stroke="#444"/>
<line x1="485" y1="90" x2="485" y2="250" stroke="#444"/>
<line x1="498.7" y1="250" x2="498.7" y2="253" stroke="#444"/>
<text x="498.7" y="265" text-anchor="middle" fill="#444">-5</text>
<line x1="526.2" y1="250" x2="526.2" y2="253" stroke="#444"/>
<text x="526.2" y="265" text-anchor="middle" fill="#444">-4</text>
<line x1="553.6" y1="250" x2="553.6" y2="253" stroke="#444"/>
<text x="553.6" y="265" text-anchor="middle" fill="#444">-3</text>
<line x1="581.1" y1="250" x2="581.1" y2="253" stroke="#444"/>
<text x="581.1" y="265" text-anchor="middle" fill="#444">-2</text>
<line x1="608.5" y1="250" x2="608.5" y2="253" stroke="#444"/>
<text x="608.5" y="265" text-anchor="middle" fill="#444">-1</text>
<line x1="636.0" y1="250" x2="636.0" y2="253" stroke="#444"/>
<text x="636.0" y="265" text-anchor="middle" fill="#444">0</text>
<line x1="663.5" y1="250" x2="663.5" y2="253" stroke="#444"/>
<text x="663.5" y="265" text-anchor="middle" fill="#444">1</text>
<line x1="690.9" y1="250" x2="690.9" y2="253" stroke="#444"/>
<text x="690.9" y="265" text-anchor="middle" fill="#444">2</text>
<line x1="718.4" y1="250" x2="718.4" y2="253" stroke="#444"/>
<text x="718.4" y="265" text-anchor="middle" fill="#444">3</text>
<line x1="745.8" y1="250" x2="745.8" y2="253" stroke="#444"/>
<text x="745.8" y="265" text-anchor="middle" fill="#444">4</text>
<line x1="773.3" y1="250" x2="773.3" y2="253" stroke="#444"/>
<text x="773.3" y="265" text-anchor="middle" fill="#444">5</text>
<line x1="482" y1="250.0" x2="485" y2="250.0" stroke="#444"/>
<text x="479" y="253.0" text-anchor="end" fill="#444">-1.2</text>
<line x1="482" y1="210.0" x2="485" y2="210.0" stroke="#444"/>
<text x="479" y="213.0" text-anchor="end" fill="#444">-0.3</text>
<line x1="482" y1="170.0" x2="485" y2="170.0" stroke="#444"/>
<text x="479" y="173.0" text-anchor="end" fill="#444">0.6</text>
<line x1="482" y1="130.0" x2="485" y2="130.0" stroke="#444"/>
<text x="479" y="133.0" text-anchor="end" fill="#444">1.5</text>
<line x1="482" y1="90.0" x2="485" y2="90.0" stroke="#444"/>
<text x="479" y="93.0" text-anchor="end" fill="#444">2.4</text>
<text x="636.0" y="284" text-anchor="middle" fill="#444">Event time (years from adoption)</text>
<text x="437" y="170.0" text-anchor="middle" fill="#444" transform="rotate(-90 437 170.0)">ATT (per 100k)</text>
<rect x="15" y="330" width="380" height="260" fill="#fafaf7" stroke="#e2e2dc"/>
<text x="205.0" y="348" text-anchor="middle" font-weight="600">Total suicide rate (per 100k) [net effect]</text>
<line x1="75" y1="478.5876516149557" x2="377" y2="478.5876516149557" stroke="#aaaaaa" stroke-width="0.7"/>
<polygon points="88.7,448.1 116.2,435.8 143.6,453.2 171.1,447.7 198.5,478.6 226.0,459.6 253.5,463.3 280.9,380.0 308.4,449.6 335.8,451.8 363.3,440.7 363.3,496.0 335.8,540.0 308.4,517.6 280.9,519.3 253.5,501.6 226.0,494.6 198.5,478.6 171.1,486.5 143.6,518.8 116.2,469.9 88.7,523.9" fill="#1f3a5f" opacity="0.18"/>
<polyline points="88.7,486.0 116.2,452.8 143.6,486.0 171.1,467.1 198.5,478.6 226.0,477.1 253.5,482.4 280.9,449.7 308.4,483.6 335.8,495.9 363.3,468.4" fill="none" stroke="#1f3a5f" stroke-width="1.6"/>
<circle cx="88.7" cy="486.0" r="2.6" fill="#1f3a5f"/>
<circle cx="116.2" cy="452.8" r="2.6" fill="#1f3a5f"/>
<circle cx="143.6" cy="486.0" r="2.6" fill="#1f3a5f"/>
<circle cx="171.1" cy="467.1" r="2.6" fill="#1f3a5f"/>
<circle cx="198.5" cy="478.6" r="2.6" fill="#1f3a5f"/>
<circle cx="226.0" cy="477.1" r="2.6" fill="#1f3a5f"/>
<circle cx="253.5" cy="482.4" r="2.6" fill="#1f3a5f"/>
<circle cx="280.9" cy="449.7" r="2.6" fill="#1f3a5f"/>
<circle cx="308.4" cy="483.6" r="2.6" fill="#1f3a5f"/>
<circle cx="335.8" cy="495.9" r="2.6" fill="#1f3a5f"/>
<circle cx="363.3" cy="468.4" r="2.6" fill="#1f3a5f"/>
<line x1="212.3" y1="380" x2="212.3" y2="540" stroke="#b9461a" stroke-dasharray="3 3"/>
<line x1="75" y1="540" x2="377" y2="540" stroke="#444"/>
<line x1="75" y1="380" x2="75" y2="540" stroke="#444"/>
<line x1="88.7" y1="540" x2="88.7" y2="543" stroke="#444"/>
<text x="88.7" y="555" text-anchor="middle" fill="#444">-5</text>
<line x1="116.2" y1="540" x2="116.2" y2="543" stroke="#444"/>
<text x="116.2" y="555" text-anchor="middle" fill="#444">-4</text>
<line x1="143.6" y1="540" x2="143.6" y2="543" stroke="#444"/>
<text x="143.6" y="555" text-anchor="middle" fill="#444">-3</text>
<line x1="171.1" y1="540" x2="171.1" y2="543" stroke="#444"/>
<text x="171.1" y="555" text-anchor="middle" fill="#444">-2</text>
<line x1="198.5" y1="540" x2="198.5" y2="543" stroke="#444"/>
<text x="198.5" y="555" text-anchor="middle" fill="#444">-1</text>
<line x1="226.0" y1="540" x2="226.0" y2="543" stroke="#444"/>
<text x="226.0" y="555" text-anchor="middle" fill="#444">0</text>
<line x1="253.5" y1="540" x2="253.5" y2="543" stroke="#444"/>
<text x="253.5" y="555" text-anchor="middle" fill="#444">1</text>
<line x1="280.9" y1="540" x2="280.9" y2="543" stroke="#444"/>
<text x="280.9" y="555" text-anchor="middle" fill="#444">2</text>
<line x1="308.4" y1="540" x2="308.4" y2="543" stroke="#444"/>
<text x="308.4" y="555" text-anchor="middle" fill="#444">3</text>
<line x1="335.8" y1="540" x2="335.8" y2="543" stroke="#444"/>
<text x="335.8" y="555" text-anchor="middle" fill="#444">4</text>
<line x1="363.3" y1="540" x2="363.3" y2="543" stroke="#444"/>
<text x="363.3" y="555" text-anchor="middle" fill="#444">5</text>
<line x1="72" y1="540.0" x2="75" y2="540.0" stroke="#444"/>
<text x="69" y="543.0" text-anchor="end" fill="#444">-2.3</text>
<line x1="72" y1="500.0" x2="75" y2="500.0" stroke="#444"/>
<text x="69" y="503.0" text-anchor="end" fill="#444">-0.81</text>
<line x1="72" y1="460.0" x2="75" y2="460.0" stroke="#444"/>
<text x="69" y="463.0" text-anchor="end" fill="#444">0.7</text>
<line x1="72" y1="420.0" x2="75" y2="420.0" stroke="#444"/>
<text x="69" y="423.0" text-anchor="end" fill="#444">2.2</text>
<line x1="72" y1="380.0" x2="75" y2="380.0" stroke="#444"/>
<text x="69" y="383.0" text-anchor="end" fill="#444">3.7</text>
<text x="226.0" y="574" text-anchor="middle" fill="#444">Event time (years from adoption)</text>
<text x="27" y="460.0" text-anchor="middle" fill="#444" transform="rotate(-90 27 460.0)">ATT (per 100k)</text>
<rect x="425" y="330" width="380" height="260" fill="#fafaf7" stroke="#e2e2dc"/>
<text x="615.0" y="348" text-anchor="middle" font-weight="600">Firearm homicide rate (per 100k)</text>
<line x1="485" y1="449.7349917190081" x2="787" y2="449.7349917190081" stroke="#aaaaaa" stroke-width="0.7"/>
<polygon points="498.7,380.0 526.2,381.2 553.6,413.4 581.1,442.0 608.5,449.7 636.0,428.2 663.5,403.0 690.9,432.5 718.4,430.5 745.8,414.8 773.3,444.2 773.3,518.2 745.8,502.9 718.4,518.9 690.9,540.0 663.5,490.9 636.0,462.1 608.5,449.7 581.1,494.6 553.6,482.1 526.2,468.0 498.7,433.1" fill="#1f3a5f" opacity="0.18"/>
<polyline points="498.7,406.5 526.2,424.6 553.6,447.8 581.1,468.3 608.5,449.7 636.0,445.1 663.5,446.9 690.9,486.2 718.4,474.7 745.8,458.8 773.3,481.2" fill="none" stroke="#1f3a5f" stroke-width="1.6"/>
<circle cx="498.7" cy="406.5" r="2.6" fill="#1f3a5f"/>
<circle cx="526.2" cy="424.6" r="2.6" fill="#1f3a5f"/>
<circle cx="553.6" cy="447.8" r="2.6" fill="#1f3a5f"/>
<circle cx="581.1" cy="468.3" r="2.6" fill="#1f3a5f"/>
<circle cx="608.5" cy="449.7" r="2.6" fill="#1f3a5f"/>
<circle cx="636.0" cy="445.1" r="2.6" fill="#1f3a5f"/>
<circle cx="663.5" cy="446.9" r="2.6" fill="#1f3a5f"/>
<circle cx="690.9" cy="486.2" r="2.6" fill="#1f3a5f"/>
<circle cx="718.4" cy="474.7" r="2.6" fill="#1f3a5f"/>
<circle cx="745.8" cy="458.8" r="2.6" fill="#1f3a5f"/>
<circle cx="773.3" cy="481.2" r="2.6" fill="#1f3a5f"/>
<line x1="622.3" y1="380" x2="622.3" y2="540" stroke="#b9461a" stroke-dasharray="3 3"/>
<line x1="485" y1="540" x2="787" y2="540" stroke="#444"/>
<line x1="485" y1="380" x2="485" y2="540" stroke="#444"/>
<line x1="498.7" y1="540" x2="498.7" y2="543" stroke="#444"/>
<text x="498.7" y="555" text-anchor="middle" fill="#444">-5</text>
<line x1="526.2" y1="540" x2="526.2" y2="543" stroke="#444"/>
<text x="526.2" y="555" text-anchor="middle" fill="#444">-4</text>
<line x1="553.6" y1="540" x2="553.6" y2="543" stroke="#444"/>
<text x="553.6" y="555" text-anchor="middle" fill="#444">-3</text>
<line x1="581.1" y1="540" x2="581.1" y2="543" stroke="#444"/>
<text x="581.1" y="555" text-anchor="middle" fill="#444">-2</text>
<line x1="608.5" y1="540" x2="608.5" y2="543" stroke="#444"/>
<text x="608.5" y="555" text-anchor="middle" fill="#444">-1</text>
<line x1="636.0" y1="540" x2="636.0" y2="543" stroke="#444"/>
<text x="636.0" y="555" text-anchor="middle" fill="#444">0</text>
<line x1="663.5" y1="540" x2="663.5" y2="543" stroke="#444"/>
<text x="663.5" y="555" text-anchor="middle" fill="#444">1</text>
<line x1="690.9" y1="540" x2="690.9" y2="543" stroke="#444"/>
<text x="690.9" y="555" text-anchor="middle" fill="#444">2</text>
<line x1="718.4" y1="540" x2="718.4" y2="543" stroke="#444"/>
<text x="718.4" y="555" text-anchor="middle" fill="#444">3</text>
<line x1="745.8" y1="540" x2="745.8" y2="543" stroke="#444"/>
<text x="745.8" y="555" text-anchor="middle" fill="#444">4</text>
<line x1="773.3" y1="540" x2="773.3" y2="543" stroke="#444"/>
<text x="773.3" y="555" text-anchor="middle" fill="#444">5</text>
<line x1="482" y1="540.0" x2="485" y2="540.0" stroke="#444"/>
<text x="479" y="543.0" text-anchor="end" fill="#444">-1.4</text>
<line x1="482" y1="500.0" x2="485" y2="500.0" stroke="#444"/>
<text x="479" y="503.0" text-anchor="end" fill="#444">-0.79</text>
<line x1="482" y1="460.0" x2="485" y2="460.0" stroke="#444"/>
<text x="479" y="463.0" text-anchor="end" fill="#444">-0.16</text>
<line x1="482" y1="420.0" x2="485" y2="420.0" stroke="#444"/>
<text x="479" y="423.0" text-anchor="end" fill="#444">0.47</text>
<line x1="482" y1="380.0" x2="485" y2="380.0" stroke="#444"/>
<text x="479" y="383.0" text-anchor="end" fill="#444">1.1</text>
<text x="636.0" y="574" text-anchor="middle" fill="#444">Event time (years from adoption)</text>
<text x="437" y="460.0" text-anchor="middle" fill="#444" transform="rotate(-90 437 460.0)">ATT (per 100k)</text>
<rect x="15" y="620" width="380" height="260" fill="#fafaf7" stroke="#e2e2dc"/>
<text x="205.0" y="638" text-anchor="middle" font-weight="600">Total homicide rate (per 100k)</text>
<line x1="75" y1="721.8048999736689" x2="377" y2="721.8048999736689" stroke="#aaaaaa" stroke-width="0.7"/>
<polygon points="88.7,672.5 116.2,679.8 143.6,693.9 171.1,701.3 198.5,721.8 226.0,704.5 253.5,671.8 280.9,717.3 308.4,697.9 335.8,670.0 363.3,701.9 363.3,767.3 335.8,746.3 308.4,830.0 280.9,764.1 253.5,733.8 226.0,754.5 198.5,721.8 171.1,747.2 143.6,765.0 116.2,744.4 88.7,726.8" fill="#1f3a5f" opacity="0.18"/>
<polyline points="88.7,699.6 116.2,712.1 143.6,729.5 171.1,724.2 198.5,721.8 226.0,729.5 253.5,702.8 280.9,740.7 308.4,764.0 335.8,708.2 363.3,734.6" fill="none" stroke="#1f3a5f" stroke-width="1.6"/>
<circle cx="88.7" cy="699.6" r="2.6" fill="#1f3a5f"/>
<circle cx="116.2" cy="712.1" r="2.6" fill="#1f3a5f"/>
<circle cx="143.6" cy="729.5" r="2.6" fill="#1f3a5f"/>
<circle cx="171.1" cy="724.2" r="2.6" fill="#1f3a5f"/>
<circle cx="198.5" cy="721.8" r="2.6" fill="#1f3a5f"/>
<circle cx="226.0" cy="729.5" r="2.6" fill="#1f3a5f"/>
<circle cx="253.5" cy="702.8" r="2.6" fill="#1f3a5f"/>
<circle cx="280.9" cy="740.7" r="2.6" fill="#1f3a5f"/>
<circle cx="308.4" cy="764.0" r="2.6" fill="#1f3a5f"/>
<circle cx="335.8" cy="708.2" r="2.6" fill="#1f3a5f"/>
<circle cx="363.3" cy="734.6" r="2.6" fill="#1f3a5f"/>
<line x1="212.3" y1="670" x2="212.3" y2="830" stroke="#b9461a" stroke-dasharray="3 3"/>
<line x1="75" y1="830" x2="377" y2="830" stroke="#444"/>
<line x1="75" y1="670" x2="75" y2="830" stroke="#444"/>
<line x1="88.7" y1="830" x2="88.7" y2="833" stroke="#444"/>
<text x="88.7" y="845" text-anchor="middle" fill="#444">-5</text>
<line x1="116.2" y1="830" x2="116.2" y2="833" stroke="#444"/>
<text x="116.2" y="845" text-anchor="middle" fill="#444">-4</text>
<line x1="143.6" y1="830" x2="143.6" y2="833" stroke="#444"/>
<text x="143.6" y="845" text-anchor="middle" fill="#444">-3</text>
<line x1="171.1" y1="830" x2="171.1" y2="833" stroke="#444"/>
<text x="171.1" y="845" text-anchor="middle" fill="#444">-2</text>
<line x1="198.5" y1="830" x2="198.5" y2="833" stroke="#444"/>
<text x="198.5" y="845" text-anchor="middle" fill="#444">-1</text>
<line x1="226.0" y1="830" x2="226.0" y2="833" stroke="#444"/>
<text x="226.0" y="845" text-anchor="middle" fill="#444">0</text>
<line x1="253.5" y1="830" x2="253.5" y2="833" stroke="#444"/>
<text x="253.5" y="845" text-anchor="middle" fill="#444">1</text>
<line x1="280.9" y1="830" x2="280.9" y2="833" stroke="#444"/>
<text x="280.9" y="845" text-anchor="middle" fill="#444">2</text>
<line x1="308.4" y1="830" x2="308.4" y2="833" stroke="#444"/>
<text x="308.4" y="845" text-anchor="middle" fill="#444">3</text>
<line x1="335.8" y1="830" x2="335.8" y2="833" stroke="#444"/>
<text x="335.8" y="845" text-anchor="middle" fill="#444">4</text>
<line x1="363.3" y1="830" x2="363.3" y2="833" stroke="#444"/>
<text x="363.3" y="845" text-anchor="middle" fill="#444">5</text>
<line x1="72" y1="830.0" x2="75" y2="830.0" stroke="#444"/>
<text x="69" y="833.0" text-anchor="end" fill="#444">-1.9</text>
<line x1="72" y1="790.0" x2="75" y2="790.0" stroke="#444"/>
<text x="69" y="793.0" text-anchor="end" fill="#444">-1.2</text>
<line x1="72" y1="750.0" x2="75" y2="750.0" stroke="#444"/>
<text x="69" y="753.0" text-anchor="end" fill="#444">-0.49</text>
<line x1="72" y1="710.0" x2="75" y2="710.0" stroke="#444"/>
<text x="69" y="713.0" text-anchor="end" fill="#444">0.21</text>
<line x1="72" y1="670.0" x2="75" y2="670.0" stroke="#444"/>
<text x="69" y="673.0" text-anchor="end" fill="#444">0.9</text>
<text x="226.0" y="864" text-anchor="middle" fill="#444">Event time (years from adoption)</text>
<text x="27" y="750.0" text-anchor="middle" fill="#444" transform="rotate(-90 27 750.0)">ATT (per 100k)</text>
<rect x="425" y="620" width="380" height="260" fill="#fafaf7" stroke="#e2e2dc"/>
<text x="615.0" y="638" text-anchor="middle" font-weight="600">Motor vehicle theft rate (per 100k) [placebo]</text>
<line x1="485" y1="754.7064486711565" x2="787" y2="754.7064486711565" stroke="#aaaaaa" stroke-width="0.7"/>
<polygon points="498.7,729.7 526.2,740.0 553.6,739.6 581.1,705.5 608.5,754.7 636.0,722.6 663.5,732.9 690.9,737.6 718.4,681.1 745.8,670.0 773.3,735.1 773.3,794.6 745.8,784.7 718.4,792.0 690.9,765.4 663.5,792.4 636.0,789.0 608.5,754.7 581.1,781.5 553.6,782.6 526.2,830.0 498.7,829.8" fill="#1f3a5f" opacity="0.18"/>
<polyline points="498.7,779.7 526.2,785.0 553.6,761.1 581.1,743.5 608.5,754.7 636.0,755.8 663.5,762.6 690.9,751.5 718.4,736.5 745.8,727.4 773.3,764.9" fill="none" stroke="#1f3a5f" stroke-width="1.6"/>
<circle cx="498.7" cy="779.7" r="2.6" fill="#1f3a5f"/>
<circle cx="526.2" cy="785.0" r="2.6" fill="#1f3a5f"/>
<circle cx="553.6" cy="761.1" r="2.6" fill="#1f3a5f"/>
<circle cx="581.1" cy="743.5" r="2.6" fill="#1f3a5f"/>
<circle cx="608.5" cy="754.7" r="2.6" fill="#1f3a5f"/>
<circle cx="636.0" cy="755.8" r="2.6" fill="#1f3a5f"/>
<circle cx="663.5" cy="762.6" r="2.6" fill="#1f3a5f"/>
<circle cx="690.9" cy="751.5" r="2.6" fill="#1f3a5f"/>
<circle cx="718.4" cy="736.5" r="2.6" fill="#1f3a5f"/>
<circle cx="745.8" cy="727.4" r="2.6" fill="#1f3a5f"/>
<circle cx="773.3" cy="764.9" r="2.6" fill="#1f3a5f"/>
<line x1="622.3" y1="670" x2="622.3" y2="830" stroke="#b9461a" stroke-dasharray="3 3"/>
<line x1="485" y1="830" x2="787" y2="830" stroke="#444"/>
<line x1="485" y1="670" x2="485" y2="830" stroke="#444"/>
<line x1="498.7" y1="830" x2="498.7" y2="833" stroke="#444"/>
<text x="498.7" y="845" text-anchor="middle" fill="#444">-5</text>
<line x1="526.2" y1="830" x2="526.2" y2="833" stroke="#444"/>
<text x="526.2" y="845" text-anchor="middle" fill="#444">-4</text>
<line x1="553.6" y1="830" x2="553.6" y2="833" stroke="#444"/>
<text x="553.6" y="845" text-anchor="middle" fill="#444">-3</text>
<line x1="581.1" y1="830" x2="581.1" y2="833" stroke="#444"/>
<text x="581.1" y="845" text-anchor="middle" fill="#444">-2</text>
<line x1="608.5" y1="830" x2="608.5" y2="833" stroke="#444"/>
<text x="608.5" y="845" text-anchor="middle" fill="#444">-1</text>
<line x1="636.0" y1="830" x2="636.0" y2="833" stroke="#444"/>
<text x="636.0" y="845" text-anchor="middle" fill="#444">0</text>
<line x1="663.5" y1="830" x2="663.5" y2="833" stroke="#444"/>
<text x="663.5" y="845" text-anchor="middle" fill="#444">1</text>
<line x1="690.9" y1="830" x2="690.9" y2="833" stroke="#444"/>
<text x="690.9" y="845" text-anchor="middle" fill="#444">2</text>
<line x1="718.4" y1="830" x2="718.4" y2="833" stroke="#444"/>
<text x="718.4" y="845" text-anchor="middle" fill="#444">3</text>
<line x1="745.8" y1="830" x2="745.8" y2="833" stroke="#444"/>
<text x="745.8" y="845" text-anchor="middle" fill="#444">4</text>
<line x1="773.3" y1="830" x2="773.3" y2="833" stroke="#444"/>
<text x="773.3" y="845" text-anchor="middle" fill="#444">5</text>
<line x1="482" y1="830.0" x2="485" y2="830.0" stroke="#444"/>
<text x="479" y="833.0" text-anchor="end" fill="#444">-1.1e+02</text>
<line x1="482" y1="790.0" x2="485" y2="790.0" stroke="#444"/>
<text x="479" y="793.0" text-anchor="end" fill="#444">-51</text>
<line x1="482" y1="750.0" x2="485" y2="750.0" stroke="#444"/>
<text x="479" y="753.0" text-anchor="end" fill="#444">6.9</text>
<line x1="482" y1="710.0" x2="485" y2="710.0" stroke="#444"/>
<text x="479" y="713.0" text-anchor="end" fill="#444">65</text>
<line x1="482" y1="670.0" x2="485" y2="670.0" stroke="#444"/>
<text x="479" y="673.0" text-anchor="end" fill="#444">1.2e+02</text>
<text x="636.0" y="864" text-anchor="middle" fill="#444">Event time (years from adoption)</text>
<text x="437" y="750.0" text-anchor="middle" fill="#444" transform="rotate(-90 437 750.0)">ATT (per 100k)</text>
<text x="805" y="608" text-anchor="end" fill="#888" font-size="10">Shaded band: pointwise 95% CI from cluster bootstrap. Vertical dashed line marks the year before adoption.</text>
</svg>