<svg xmlns="http://www.w3.org/2000/svg" viewBox="0 0 820 620" font-family="-apple-system, Segoe UI, Helvetica, Arial, sans-serif" font-size="11">
<text x="410.0" y="22" text-anchor="middle" font-size="14" font-weight="600">Callaway-Sant'Anna ATT by event time (EB) -- stacked DiD (age21_handgun)</text>
<rect x="15" y="40" width="380" height="260" fill="#fafaf7" stroke="#e2e2dc"/>
<text x="205.0" y="58" text-anchor="middle" font-weight="600">Firearm suicide rate (per 100k)</text>
<line x1="75" y1="169.04666004770138" x2="377" y2="169.04666004770138" stroke="#aaaaaa" stroke-width="0.7"/>
<polygon points="88.7,139.0 116.2,126.5 143.6,131.9 171.1,90.0 198.5,169.0 226.0,134.1 253.5,150.9 280.9,97.7 308.4,155.9 335.8,167.3 363.3,163.8 363.3,214.0 335.8,236.9 308.4,196.8 280.9,206.7 253.5,194.4 226.0,162.1 198.5,169.0 171.1,184.7 143.6,191.9 116.2,193.8 88.7,250.0" fill="#1f3a5f" opacity="0.18"/>
<polyline points="88.7,194.5 116.2,160.2 143.6,161.9 171.1,137.4 198.5,169.0 226.0,148.1 253.5,172.6 280.9,152.2 308.4,176.3 335.8,202.1 363.3,188.9" fill="none" stroke="#1f3a5f" stroke-width="1.6"/>
<circle cx="88.7" cy="194.5" r="2.6" fill="#1f3a5f"/>
<circle cx="116.2" cy="160.2" r="2.6" fill="#1f3a5f"/>
<circle cx="143.6" cy="161.9" r="2.6" fill="#1f3a5f"/>
<circle cx="171.1" cy="137.4" r="2.6" fill="#1f3a5f"/>
<circle cx="198.5" cy="169.0" r="2.6" fill="#1f3a5f"/>
<circle cx="226.0" cy="148.1" r="2.6" fill="#1f3a5f"/>
<circle cx="253.5" cy="172.6" r="2.6" fill="#1f3a5f"/>
<circle cx="280.9" cy="152.2" r="2.6" fill="#1f3a5f"/>
<circle cx="308.4" cy="176.3" r="2.6" fill="#1f3a5f"/>
<circle cx="335.8" cy="202.1" r="2.6" fill="#1f3a5f"/>
<circle cx="363.3" cy="188.9" r="2.6" fill="#1f3a5f"/>
<line x1="212.3" y1="90" x2="212.3" y2="250" stroke="#b9461a" stroke-dasharray="3 3"/>
<line x1="75" y1="250" x2="377" y2="250" stroke="#444"/>
<line x1="75" y1="90" x2="75" y2="250" stroke="#444"/>
<line x1="88.7" y1="250" x2="88.7" y2="253" stroke="#444"/>
<text x="88.7" y="265" text-anchor="middle" fill="#444">-5</text>
<line x1="116.2" y1="250" x2="116.2" y2="253" stroke="#444"/>
<text x="116.2" y="265" text-anchor="middle" fill="#444">-4</text>
<line x1="143.6" y1="250" x2="143.6" y2="253" stroke="#444"/>
<text x="143.6" y="265" text-anchor="middle" fill="#444">-3</text>
<line x1="171.1" y1="250" x2="171.1" y2="253" stroke="#444"/>
<text x="171.1" y="265" text-anchor="middle" fill="#444">-2</text>
<line x1="198.5" y1="250" x2="198.5" y2="253" stroke="#444"/>
<text x="198.5" y="265" text-anchor="middle" fill="#444">-1</text>
<line x1="226.0" y1="250" x2="226.0" y2="253" stroke="#444"/>
<text x="226.0" y="265" text-anchor="middle" fill="#444">0</text>
<line x1="253.5" y1="250" x2="253.5" y2="253" stroke="#444"/>
<text x="253.5" y="265" text-anchor="middle" fill="#444">1</text>
<line x1="280.9" y1="250" x2="280.9" y2="253" stroke="#444"/>
<text x="280.9" y="265" text-anchor="middle" fill="#444">2</text>
<line x1="308.4" y1="250" x2="308.4" y2="253" stroke="#444"/>
<text x="308.4" y="265" text-anchor="middle" fill="#444">3</text>
<line x1="335.8" y1="250" x2="335.8" y2="253" stroke="#444"/>
<text x="335.8" y="265" text-anchor="middle" fill="#444">4</text>
<line x1="363.3" y1="250" x2="363.3" y2="253" stroke="#444"/>
<text x="363.3" y="265" text-anchor="middle" fill="#444">5</text>
<line x1="72" y1="250.0" x2="75" y2="250.0" stroke="#444"/>
<text x="69" y="253.0" text-anchor="end" fill="#444">-1.9</text>
<line x1="72" y1="210.0" x2="75" y2="210.0" stroke="#444"/>
<text x="69" y="213.0" text-anchor="end" fill="#444">-0.98</text>
<line x1="72" y1="170.0" x2="75" y2="170.0" stroke="#444"/>
<text x="69" y="173.0" text-anchor="end" fill="#444">-0.023</text>
<line x1="72" y1="130.0" x2="75" y2="130.0" stroke="#444"/>
<text x="69" y="133.0" text-anchor="end" fill="#444">0.93</text>
<line x1="72" y1="90.0" x2="75" y2="90.0" stroke="#444"/>
<text x="69" y="93.0" text-anchor="end" fill="#444">1.9</text>
<text x="226.0" y="284" text-anchor="middle" fill="#444">Event time (years from adoption)</text>
<text x="27" y="170.0" text-anchor="middle" fill="#444" transform="rotate(-90 27 170.0)">ATT (per 100k)</text>
<rect x="425" y="40" width="380" height="260" fill="#fafaf7" stroke="#e2e2dc"/>
<text x="615.0" y="58" text-anchor="middle" font-weight="600">Non-firearm suicide rate (per 100k) [substitution test]</text>
<line x1="485" y1="193.07132633792492" x2="787" y2="193.07132633792492" stroke="#aaaaaa" stroke-width="0.7"/>
<polygon points="498.7,170.3 526.2,134.2 553.6,162.4 581.1,167.0 608.5,193.1 636.0,173.2 663.5,162.1 690.9,90.0 718.4,147.9 745.8,146.6 773.3,143.1 773.3,207.2 745.8,241.0 718.4,250.0 690.9,228.7 663.5,216.4 636.0,234.7 608.5,193.1 581.1,211.1 553.6,234.3 526.2,190.2 498.7,234.7" fill="#1f3a5f" opacity="0.18"/>
<polyline points="498.7,202.5 526.2,162.2 553.6,198.3 581.1,189.1 608.5,193.1 636.0,203.9 663.5,189.3 690.9,159.3 718.4,199.0 745.8,193.8 773.3,175.1" fill="none" stroke="#1f3a5f" stroke-width="1.6"/>
<circle cx="498.7" cy="202.5" r="2.6" fill="#1f3a5f"/>
<circle cx="526.2" cy="162.2" r="2.6" fill="#1f3a5f"/>
<circle cx="553.6" cy="198.3" r="2.6" fill="#1f3a5f"/>
<circle cx="581.1" cy="189.1" r="2.6" fill="#1f3a5f"/>
<circle cx="608.5" cy="193.1" r="2.6" fill="#1f3a5f"/>
<circle cx="636.0" cy="203.9" r="2.6" fill="#1f3a5f"/>
<circle cx="663.5" cy="189.3" r="2.6" fill="#1f3a5f"/>
<circle cx="690.9" cy="159.3" r="2.6" fill="#1f3a5f"/>
<circle cx="718.4" cy="199.0" r="2.6" fill="#1f3a5f"/>
<circle cx="745.8" cy="193.8" r="2.6" fill="#1f3a5f"/>
<circle cx="773.3" cy="175.1" r="2.6" fill="#1f3a5f"/>
<line x1="622.3" y1="90" x2="622.3" y2="250" stroke="#b9461a" stroke-dasharray="3 3"/>
<line x1="485" y1="250" x2="787" y2="250" stroke="#444"/>
<line x1="485" y1="90" x2="485" y2="250" stroke="#444"/>
<line x1="498.7" y1="250" x2="498.7" y2="253" stroke="#444"/>
<text x="498.7" y="265" text-anchor="middle" fill="#444">-5</text>
<line x1="526.2" y1="250" x2="526.2" y2="253" stroke="#444"/>
<text x="526.2" y="265" text-anchor="middle" fill="#444">-4</text>
<line x1="553.6" y1="250" x2="553.6" y2="253" stroke="#444"/>
<text x="553.6" y="265" text-anchor="middle" fill="#444">-3</text>
<line x1="581.1" y1="250" x2="581.1" y2="253" stroke="#444"/>
<text x="581.1" y="265" text-anchor="middle" fill="#444">-2</text>
<line x1="608.5" y1="250" x2="608.5" y2="253" stroke="#444"/>
<text x="608.5" y="265" text-anchor="middle" fill="#444">-1</text>
<line x1="636.0" y1="250" x2="636.0" y2="253" stroke="#444"/>
<text x="636.0" y="265" text-anchor="middle" fill="#444">0</text>
<line x1="663.5" y1="250" x2="663.5" y2="253" stroke="#444"/>
<text x="663.5" y="265" text-anchor="middle" fill="#444">1</text>
<line x1="690.9" y1="250" x2="690.9" y2="253" stroke="#444"/>
<text x="690.9" y="265" text-anchor="middle" fill="#444">2</text>
<line x1="718.4" y1="250" x2="718.4" y2="253" stroke="#444"/>
<text x="718.4" y="265" text-anchor="middle" fill="#444">3</text>
<line x1="745.8" y1="250" x2="745.8" y2="253" stroke="#444"/>
<text x="745.8" y="265" text-anchor="middle" fill="#444">4</text>
<line x1="773.3" y1="250" x2="773.3" y2="253" stroke="#444"/>
<text x="773.3" y="265" text-anchor="middle" fill="#444">5</text>
<line x1="482" y1="250.0" x2="485" y2="250.0" stroke="#444"/>
<text x="479" y="253.0" text-anchor="end" fill="#444">-1.3</text>
<line x1="482" y1="210.0" x2="485" y2="210.0" stroke="#444"/>
<text x="479" y="213.0" text-anchor="end" fill="#444">-0.4</text>
<line x1="482" y1="170.0" x2="485" y2="170.0" stroke="#444"/>
<text x="479" y="173.0" text-anchor="end" fill="#444">0.54</text>
<line x1="482" y1="130.0" x2="485" y2="130.0" stroke="#444"/>
<text x="479" y="133.0" text-anchor="end" fill="#444">1.5</text>
<line x1="482" y1="90.0" x2="485" y2="90.0" stroke="#444"/>
<text x="479" y="93.0" text-anchor="end" fill="#444">2.4</text>
<text x="636.0" y="284" text-anchor="middle" fill="#444">Event time (years from adoption)</text>
<text x="437" y="170.0" text-anchor="middle" fill="#444" transform="rotate(-90 437 170.0)">ATT (per 100k)</text>
<rect x="15" y="330" width="380" height="260" fill="#fafaf7" stroke="#e2e2dc"/>
<text x="205.0" y="348" text-anchor="middle" font-weight="600">Total suicide rate (per 100k) [net effect]</text>
<line x1="75" y1="477.3146741445638" x2="377" y2="477.3146741445638" stroke="#aaaaaa" stroke-width="0.7"/>
<polygon points="88.7,456.1 116.2,431.5 143.6,444.5 171.1,424.9 198.5,477.3 226.0,452.0 253.5,452.8 280.9,380.0 308.4,447.5 335.8,454.8 363.3,453.7 363.3,503.5 335.8,540.0 308.4,522.7 280.9,515.0 253.5,501.6 226.0,490.4 198.5,477.3 171.1,487.3 143.6,507.8 116.2,476.4 88.7,539.9" fill="#1f3a5f" opacity="0.18"/>
<polyline points="88.7,498.0 116.2,453.9 143.6,476.1 171.1,456.1 198.5,477.3 226.0,471.2 253.5,477.2 280.9,447.5 308.4,485.1 335.8,497.4 363.3,478.6" fill="none" stroke="#1f3a5f" stroke-width="1.6"/>
<circle cx="88.7" cy="498.0" r="2.6" fill="#1f3a5f"/>
<circle cx="116.2" cy="453.9" r="2.6" fill="#1f3a5f"/>
<circle cx="143.6" cy="476.1" r="2.6" fill="#1f3a5f"/>
<circle cx="171.1" cy="456.1" r="2.6" fill="#1f3a5f"/>
<circle cx="198.5" cy="477.3" r="2.6" fill="#1f3a5f"/>
<circle cx="226.0" cy="471.2" r="2.6" fill="#1f3a5f"/>
<circle cx="253.5" cy="477.2" r="2.6" fill="#1f3a5f"/>
<circle cx="280.9" cy="447.5" r="2.6" fill="#1f3a5f"/>
<circle cx="308.4" cy="485.1" r="2.6" fill="#1f3a5f"/>
<circle cx="335.8" cy="497.4" r="2.6" fill="#1f3a5f"/>
<circle cx="363.3" cy="478.6" r="2.6" fill="#1f3a5f"/>
<line x1="212.3" y1="380" x2="212.3" y2="540" stroke="#b9461a" stroke-dasharray="3 3"/>
<line x1="75" y1="540" x2="377" y2="540" stroke="#444"/>
<line x1="75" y1="380" x2="75" y2="540" stroke="#444"/>
<line x1="88.7" y1="540" x2="88.7" y2="543" stroke="#444"/>
<text x="88.7" y="555" text-anchor="middle" fill="#444">-5</text>
<line x1="116.2" y1="540" x2="116.2" y2="543" stroke="#444"/>
<text x="116.2" y="555" text-anchor="middle" fill="#444">-4</text>
<line x1="143.6" y1="540" x2="143.6" y2="543" stroke="#444"/>
<text x="143.6" y="555" text-anchor="middle" fill="#444">-3</text>
<line x1="171.1" y1="540" x2="171.1" y2="543" stroke="#444"/>
<text x="171.1" y="555" text-anchor="middle" fill="#444">-2</text>
<line x1="198.5" y1="540" x2="198.5" y2="543" stroke="#444"/>
<text x="198.5" y="555" text-anchor="middle" fill="#444">-1</text>
<line x1="226.0" y1="540" x2="226.0" y2="543" stroke="#444"/>
<text x="226.0" y="555" text-anchor="middle" fill="#444">0</text>
<line x1="253.5" y1="540" x2="253.5" y2="543" stroke="#444"/>
<text x="253.5" y="555" text-anchor="middle" fill="#444">1</text>
<line x1="280.9" y1="540" x2="280.9" y2="543" stroke="#444"/>
<text x="280.9" y="555" text-anchor="middle" fill="#444">2</text>
<line x1="308.4" y1="540" x2="308.4" y2="543" stroke="#444"/>
<text x="308.4" y="555" text-anchor="middle" fill="#444">3</text>
<line x1="335.8" y1="540" x2="335.8" y2="543" stroke="#444"/>
<text x="335.8" y="555" text-anchor="middle" fill="#444">4</text>
<line x1="363.3" y1="540" x2="363.3" y2="543" stroke="#444"/>
<text x="363.3" y="555" text-anchor="middle" fill="#444">5</text>
<line x1="72" y1="540.0" x2="75" y2="540.0" stroke="#444"/>
<text x="69" y="543.0" text-anchor="end" fill="#444">-2.5</text>
<line x1="72" y1="500.0" x2="75" y2="500.0" stroke="#444"/>
<text x="69" y="503.0" text-anchor="end" fill="#444">-0.91</text>
<line x1="72" y1="460.0" x2="75" y2="460.0" stroke="#444"/>
<text x="69" y="463.0" text-anchor="end" fill="#444">0.69</text>
<line x1="72" y1="420.0" x2="75" y2="420.0" stroke="#444"/>
<text x="69" y="423.0" text-anchor="end" fill="#444">2.3</text>
<line x1="72" y1="380.0" x2="75" y2="380.0" stroke="#444"/>
<text x="69" y="383.0" text-anchor="end" fill="#444">3.9</text>
<text x="226.0" y="574" text-anchor="middle" fill="#444">Event time (years from adoption)</text>
<text x="27" y="460.0" text-anchor="middle" fill="#444" transform="rotate(-90 27 460.0)">ATT (per 100k)</text>
<rect x="425" y="330" width="380" height="260" fill="#fafaf7" stroke="#e2e2dc"/>
<text x="615.0" y="348" text-anchor="middle" font-weight="600">Firearm homicide rate (per 100k)</text>
<line x1="485" y1="445.92863087433255" x2="787" y2="445.92863087433255" stroke="#aaaaaa" stroke-width="0.7"/>
<polygon points="498.7,395.0 526.2,380.0 553.6,397.2 581.1,427.2 608.5,445.9 636.0,415.4 663.5,386.8 690.9,405.2 718.4,417.2 745.8,401.5 773.3,434.0 773.3,536.3 745.8,485.8 718.4,505.1 690.9,540.0 663.5,495.9 636.0,484.0 608.5,445.9 581.1,486.2 553.6,469.5 526.2,509.9 498.7,458.1" fill="#1f3a5f" opacity="0.18"/>
<polyline points="498.7,426.6 526.2,445.0 553.6,433.4 581.1,456.7 608.5,445.9 636.0,449.7 663.5,441.3 690.9,472.6 718.4,461.2 745.8,443.6 773.3,485.1" fill="none" stroke="#1f3a5f" stroke-width="1.6"/>
<circle cx="498.7" cy="426.6" r="2.6" fill="#1f3a5f"/>
<circle cx="526.2" cy="445.0" r="2.6" fill="#1f3a5f"/>
<circle cx="553.6" cy="433.4" r="2.6" fill="#1f3a5f"/>
<circle cx="581.1" cy="456.7" r="2.6" fill="#1f3a5f"/>
<circle cx="608.5" cy="445.9" r="2.6" fill="#1f3a5f"/>
<circle cx="636.0" cy="449.7" r="2.6" fill="#1f3a5f"/>
<circle cx="663.5" cy="441.3" r="2.6" fill="#1f3a5f"/>
<circle cx="690.9" cy="472.6" r="2.6" fill="#1f3a5f"/>
<circle cx="718.4" cy="461.2" r="2.6" fill="#1f3a5f"/>
<circle cx="745.8" cy="443.6" r="2.6" fill="#1f3a5f"/>
<circle cx="773.3" cy="485.1" r="2.6" fill="#1f3a5f"/>
<line x1="622.3" y1="380" x2="622.3" y2="540" stroke="#b9461a" stroke-dasharray="3 3"/>
<line x1="485" y1="540" x2="787" y2="540" stroke="#444"/>
<line x1="485" y1="380" x2="485" y2="540" stroke="#444"/>
<line x1="498.7" y1="540" x2="498.7" y2="543" stroke="#444"/>
<text x="498.7" y="555" text-anchor="middle" fill="#444">-5</text>
<line x1="526.2" y1="540" x2="526.2" y2="543" stroke="#444"/>
<text x="526.2" y="555" text-anchor="middle" fill="#444">-4</text>
<line x1="553.6" y1="540" x2="553.6" y2="543" stroke="#444"/>
<text x="553.6" y="555" text-anchor="middle" fill="#444">-3</text>
<line x1="581.1" y1="540" x2="581.1" y2="543" stroke="#444"/>
<text x="581.1" y="555" text-anchor="middle" fill="#444">-2</text>
<line x1="608.5" y1="540" x2="608.5" y2="543" stroke="#444"/>
<text x="608.5" y="555" text-anchor="middle" fill="#444">-1</text>
<line x1="636.0" y1="540" x2="636.0" y2="543" stroke="#444"/>
<text x="636.0" y="555" text-anchor="middle" fill="#444">0</text>
<line x1="663.5" y1="540" x2="663.5" y2="543" stroke="#444"/>
<text x="663.5" y="555" text-anchor="middle" fill="#444">1</text>
<line x1="690.9" y1="540" x2="690.9" y2="543" stroke="#444"/>
<text x="690.9" y="555" text-anchor="middle" fill="#444">2</text>
<line x1="718.4" y1="540" x2="718.4" y2="543" stroke="#444"/>
<text x="718.4" y="555" text-anchor="middle" fill="#444">3</text>
<line x1="745.8" y1="540" x2="745.8" y2="543" stroke="#444"/>
<text x="745.8" y="555" text-anchor="middle" fill="#444">4</text>
<line x1="773.3" y1="540" x2="773.3" y2="543" stroke="#444"/>
<text x="773.3" y="555" text-anchor="middle" fill="#444">5</text>
<line x1="482" y1="540.0" x2="485" y2="540.0" stroke="#444"/>
<text x="479" y="543.0" text-anchor="end" fill="#444">-1.1</text>
<line x1="482" y1="500.0" x2="485" y2="500.0" stroke="#444"/>
<text x="479" y="503.0" text-anchor="end" fill="#444">-0.66</text>
<line x1="482" y1="460.0" x2="485" y2="460.0" stroke="#444"/>
<text x="479" y="463.0" text-anchor="end" fill="#444">-0.17</text>
<line x1="482" y1="420.0" x2="485" y2="420.0" stroke="#444"/>
<text x="479" y="423.0" text-anchor="end" fill="#444">0.32</text>
<line x1="482" y1="380.0" x2="485" y2="380.0" stroke="#444"/>
<text x="479" y="383.0" text-anchor="end" fill="#444">0.8</text>
<text x="636.0" y="574" text-anchor="middle" fill="#444">Event time (years from adoption)</text>
<text x="437" y="460.0" text-anchor="middle" fill="#444" transform="rotate(-90 437 460.0)">ATT (per 100k)</text>
<rect x="15" y="620" width="380" height="260" fill="#fafaf7" stroke="#e2e2dc"/>
<text x="205.0" y="638" text-anchor="middle" font-weight="600">Total homicide rate (per 100k)</text>
<line x1="75" y1="736.1930517285623" x2="377" y2="736.1930517285623" stroke="#aaaaaa" stroke-width="0.7"/>
<polygon points="88.7,675.0 116.2,696.0 143.6,691.1 171.1,670.0 198.5,736.2 226.0,719.9 253.5,687.8 280.9,732.0 308.4,710.6 335.8,699.6 363.3,730.4 363.3,815.7 335.8,768.0 308.4,830.0 280.9,787.2 253.5,759.0 226.0,764.6 198.5,736.2 171.1,762.9 143.6,774.6 116.2,800.9 88.7,764.1" fill="#1f3a5f" opacity="0.18"/>
<polyline points="88.7,719.6 116.2,748.4 143.6,732.9 171.1,716.4 198.5,736.2 226.0,742.2 253.5,723.4 280.9,759.6 308.4,770.3 335.8,733.8 363.3,773.1" fill="none" stroke="#1f3a5f" stroke-width="1.6"/>
<circle cx="88.7" cy="719.6" r="2.6" fill="#1f3a5f"/>
<circle cx="116.2" cy="748.4" r="2.6" fill="#1f3a5f"/>
<circle cx="143.6" cy="732.9" r="2.6" fill="#1f3a5f"/>
<circle cx="171.1" cy="716.4" r="2.6" fill="#1f3a5f"/>
<circle cx="198.5" cy="736.2" r="2.6" fill="#1f3a5f"/>
<circle cx="226.0" cy="742.2" r="2.6" fill="#1f3a5f"/>
<circle cx="253.5" cy="723.4" r="2.6" fill="#1f3a5f"/>
<circle cx="280.9" cy="759.6" r="2.6" fill="#1f3a5f"/>
<circle cx="308.4" cy="770.3" r="2.6" fill="#1f3a5f"/>
<circle cx="335.8" cy="733.8" r="2.6" fill="#1f3a5f"/>
<circle cx="363.3" cy="773.1" r="2.6" fill="#1f3a5f"/>
<line x1="212.3" y1="670" x2="212.3" y2="830" stroke="#b9461a" stroke-dasharray="3 3"/>
<line x1="75" y1="830" x2="377" y2="830" stroke="#444"/>
<line x1="75" y1="670" x2="75" y2="830" stroke="#444"/>
<line x1="88.7" y1="830" x2="88.7" y2="833" stroke="#444"/>
<text x="88.7" y="845" text-anchor="middle" fill="#444">-5</text>
<line x1="116.2" y1="830" x2="116.2" y2="833" stroke="#444"/>
<text x="116.2" y="845" text-anchor="middle" fill="#444">-4</text>
<line x1="143.6" y1="830" x2="143.6" y2="833" stroke="#444"/>
<text x="143.6" y="845" text-anchor="middle" fill="#444">-3</text>
<line x1="171.1" y1="830" x2="171.1" y2="833" stroke="#444"/>
<text x="171.1" y="845" text-anchor="middle" fill="#444">-2</text>
<line x1="198.5" y1="830" x2="198.5" y2="833" stroke="#444"/>
<text x="198.5" y="845" text-anchor="middle" fill="#444">-1</text>
<line x1="226.0" y1="830" x2="226.0" y2="833" stroke="#444"/>
<text x="226.0" y="845" text-anchor="middle" fill="#444">0</text>
<line x1="253.5" y1="830" x2="253.5" y2="833" stroke="#444"/>
<text x="253.5" y="845" text-anchor="middle" fill="#444">1</text>
<line x1="280.9" y1="830" x2="280.9" y2="833" stroke="#444"/>
<text x="280.9" y="845" text-anchor="middle" fill="#444">2</text>
<line x1="308.4" y1="830" x2="308.4" y2="833" stroke="#444"/>
<text x="308.4" y="845" text-anchor="middle" fill="#444">3</text>
<line x1="335.8" y1="830" x2="335.8" y2="833" stroke="#444"/>
<text x="335.8" y="845" text-anchor="middle" fill="#444">4</text>
<line x1="363.3" y1="830" x2="363.3" y2="833" stroke="#444"/>
<text x="363.3" y="845" text-anchor="middle" fill="#444">5</text>
<line x1="72" y1="830.0" x2="75" y2="830.0" stroke="#444"/>
<text x="69" y="833.0" text-anchor="end" fill="#444">-1.4</text>
<line x1="72" y1="790.0" x2="75" y2="790.0" stroke="#444"/>
<text x="69" y="793.0" text-anchor="end" fill="#444">-0.83</text>
<line x1="72" y1="750.0" x2="75" y2="750.0" stroke="#444"/>
<text x="69" y="753.0" text-anchor="end" fill="#444">-0.21</text>
<line x1="72" y1="710.0" x2="75" y2="710.0" stroke="#444"/>
<text x="69" y="713.0" text-anchor="end" fill="#444">0.4</text>
<line x1="72" y1="670.0" x2="75" y2="670.0" stroke="#444"/>
<text x="69" y="673.0" text-anchor="end" fill="#444">1</text>
<text x="226.0" y="864" text-anchor="middle" fill="#444">Event time (years from adoption)</text>
<text x="27" y="750.0" text-anchor="middle" fill="#444" transform="rotate(-90 27 750.0)">ATT (per 100k)</text>
<rect x="425" y="620" width="380" height="260" fill="#fafaf7" stroke="#e2e2dc"/>
<text x="615.0" y="638" text-anchor="middle" font-weight="600">Motor vehicle theft rate (per 100k) [placebo]</text>
<line x1="485" y1="741.8670951166979" x2="787" y2="741.8670951166979" stroke="#aaaaaa" stroke-width="0.7"/>
<polygon points="498.7,703.7 526.2,706.8 553.6,709.8 581.1,670.0 608.5,741.9 636.0,691.7 663.5,717.1 690.9,736.1 718.4,675.5 745.8,691.3 773.3,749.7 773.3,806.1 745.8,792.5 718.4,805.2 690.9,762.0 663.5,788.3 636.0,781.8 608.5,741.9 581.1,746.1 553.6,764.1 526.2,830.0 498.7,822.5" fill="#1f3a5f" opacity="0.18"/>
<polyline points="498.7,763.1 526.2,768.4 553.6,736.9 581.1,708.1 608.5,741.9 636.0,736.8 663.5,752.7 690.9,749.0 718.4,740.3 745.8,741.9 773.3,777.9" fill="none" stroke="#1f3a5f" stroke-width="1.6"/>
<circle cx="498.7" cy="763.1" r="2.6" fill="#1f3a5f"/>
<circle cx="526.2" cy="768.4" r="2.6" fill="#1f3a5f"/>
<circle cx="553.6" cy="736.9" r="2.6" fill="#1f3a5f"/>
<circle cx="581.1" cy="708.1" r="2.6" fill="#1f3a5f"/>
<circle cx="608.5" cy="741.9" r="2.6" fill="#1f3a5f"/>
<circle cx="636.0" cy="736.8" r="2.6" fill="#1f3a5f"/>
<circle cx="663.5" cy="752.7" r="2.6" fill="#1f3a5f"/>
<circle cx="690.9" cy="749.0" r="2.6" fill="#1f3a5f"/>
<circle cx="718.4" cy="740.3" r="2.6" fill="#1f3a5f"/>
<circle cx="745.8" cy="741.9" r="2.6" fill="#1f3a5f"/>
<circle cx="773.3" cy="777.9" r="2.6" fill="#1f3a5f"/>
<line x1="622.3" y1="670" x2="622.3" y2="830" stroke="#b9461a" stroke-dasharray="3 3"/>
<line x1="485" y1="830" x2="787" y2="830" stroke="#444"/>
<line x1="485" y1="670" x2="485" y2="830" stroke="#444"/>
<line x1="498.7" y1="830" x2="498.7" y2="833" stroke="#444"/>
<text x="498.7" y="845" text-anchor="middle" fill="#444">-5</text>
<line x1="526.2" y1="830" x2="526.2" y2="833" stroke="#444"/>
<text x="526.2" y="845" text-anchor="middle" fill="#444">-4</text>
<line x1="553.6" y1="830" x2="553.6" y2="833" stroke="#444"/>
<text x="553.6" y="845" text-anchor="middle" fill="#444">-3</text>
<line x1="581.1" y1="830" x2="581.1" y2="833" stroke="#444"/>
<text x="581.1" y="845" text-anchor="middle" fill="#444">-2</text>
<line x1="608.5" y1="830" x2="608.5" y2="833" stroke="#444"/>
<text x="608.5" y="845" text-anchor="middle" fill="#444">-1</text>
<line x1="636.0" y1="830" x2="636.0" y2="833" stroke="#444"/>
<text x="636.0" y="845" text-anchor="middle" fill="#444">0</text>
<line x1="663.5" y1="830" x2="663.5" y2="833" stroke="#444"/>
<text x="663.5" y="845" text-anchor="middle" fill="#444">1</text>
<line x1="690.9" y1="830" x2="690.9" y2="833" stroke="#444"/>
<text x="690.9" y="845" text-anchor="middle" fill="#444">2</text>
<line x1="718.4" y1="830" x2="718.4" y2="833" stroke="#444"/>
<text x="718.4" y="845" text-anchor="middle" fill="#444">3</text>
<line x1="745.8" y1="830" x2="745.8" y2="833" stroke="#444"/>
<text x="745.8" y="845" text-anchor="middle" fill="#444">4</text>
<line x1="773.3" y1="830" x2="773.3" y2="833" stroke="#444"/>
<text x="773.3" y="845" text-anchor="middle" fill="#444">5</text>
<line x1="482" y1="830.0" x2="485" y2="830.0" stroke="#444"/>
<text x="479" y="833.0" text-anchor="end" fill="#444">-1e+02</text>
<line x1="482" y1="790.0" x2="485" y2="790.0" stroke="#444"/>
<text x="479" y="793.0" text-anchor="end" fill="#444">-57</text>
<line x1="482" y1="750.0" x2="485" y2="750.0" stroke="#444"/>
<text x="479" y="753.0" text-anchor="end" fill="#444">-9.7</text>
<line x1="482" y1="710.0" x2="485" y2="710.0" stroke="#444"/>
<text x="479" y="713.0" text-anchor="end" fill="#444">38</text>
<line x1="482" y1="670.0" x2="485" y2="670.0" stroke="#444"/>
<text x="479" y="673.0" text-anchor="end" fill="#444">86</text>
<text x="636.0" y="864" text-anchor="middle" fill="#444">Event time (years from adoption)</text>
<text x="437" y="750.0" text-anchor="middle" fill="#444" transform="rotate(-90 437 750.0)">ATT (per 100k)</text>
<text x="805" y="608" text-anchor="end" fill="#888" font-size="10">Shaded band: pointwise 95% CI from cluster bootstrap. Vertical dashed line marks the year before adoption.</text>
</svg>