<svg xmlns="http://www.w3.org/2000/svg" viewBox="0 0 820 620" font-family="-apple-system, Segoe UI, Helvetica, Arial, sans-serif" font-size="11">
<text x="410.0" y="22" text-anchor="middle" font-size="14" font-weight="600">Callaway-Sant'Anna ATT by event time (RA) -- universal background checks (universal)</text>
<rect x="15" y="40" width="380" height="260" fill="#fafaf7" stroke="#e2e2dc"/>
<text x="205.0" y="58" text-anchor="middle" font-weight="600">Firearm suicide rate (per 100k)</text>
<line x1="75" y1="133.85050598742282" x2="377" y2="133.85050598742282" stroke="#aaaaaa" stroke-width="0.7"/>
<polygon points="88.7,111.3 116.2,90.0 143.6,106.0 171.1,99.6 226.0,104.5 253.5,125.9 280.9,164.0 308.4,111.2 335.8,195.0 363.3,139.6 363.3,196.7 335.8,250.0 308.4,189.3 280.9,225.9 253.5,191.6 226.0,175.2 171.1,166.1 143.6,156.5 116.2,128.7 88.7,169.2" fill="#1f3a5f" opacity="0.18"/>
<polyline points="88.7,140.2 116.2,109.3 143.6,131.3 171.1,132.8 226.0,139.8 253.5,158.8 280.9,194.9 308.4,150.3 335.8,222.5 363.3,168.2" fill="none" stroke="#1f3a5f" stroke-width="1.6"/>
<circle cx="88.7" cy="140.2" r="2.6" fill="#1f3a5f"/>
<circle cx="116.2" cy="109.3" r="2.6" fill="#1f3a5f"/>
<circle cx="143.6" cy="131.3" r="2.6" fill="#1f3a5f"/>
<circle cx="171.1" cy="132.8" r="2.6" fill="#1f3a5f"/>
<circle cx="226.0" cy="139.8" r="2.6" fill="#1f3a5f"/>
<circle cx="253.5" cy="158.8" r="2.6" fill="#1f3a5f"/>
<circle cx="280.9" cy="194.9" r="2.6" fill="#1f3a5f"/>
<circle cx="308.4" cy="150.3" r="2.6" fill="#1f3a5f"/>
<circle cx="335.8" cy="222.5" r="2.6" fill="#1f3a5f"/>
<circle cx="363.3" cy="168.2" r="2.6" fill="#1f3a5f"/>
<line x1="212.3" y1="90" x2="212.3" y2="250" stroke="#b9461a" stroke-dasharray="3 3"/>
<line x1="75" y1="250" x2="377" y2="250" stroke="#444"/>
<line x1="75" y1="90" x2="75" y2="250" stroke="#444"/>
<line x1="88.7" y1="250" x2="88.7" y2="253" stroke="#444"/>
<text x="88.7" y="265" text-anchor="middle" fill="#444">-5</text>
<line x1="116.2" y1="250" x2="116.2" y2="253" stroke="#444"/>
<text x="116.2" y="265" text-anchor="middle" fill="#444">-4</text>
<line x1="143.6" y1="250" x2="143.6" y2="253" stroke="#444"/>
<text x="143.6" y="265" text-anchor="middle" fill="#444">-3</text>
<line x1="171.1" y1="250" x2="171.1" y2="253" stroke="#444"/>
<text x="171.1" y="265" text-anchor="middle" fill="#444">-2</text>
<line x1="226.0" y1="250" x2="226.0" y2="253" stroke="#444"/>
<text x="226.0" y="265" text-anchor="middle" fill="#444">0</text>
<line x1="253.5" y1="250" x2="253.5" y2="253" stroke="#444"/>
<text x="253.5" y="265" text-anchor="middle" fill="#444">1</text>
<line x1="280.9" y1="250" x2="280.9" y2="253" stroke="#444"/>
<text x="280.9" y="265" text-anchor="middle" fill="#444">2</text>
<line x1="308.4" y1="250" x2="308.4" y2="253" stroke="#444"/>
<text x="308.4" y="265" text-anchor="middle" fill="#444">3</text>
<line x1="335.8" y1="250" x2="335.8" y2="253" stroke="#444"/>
<text x="335.8" y="265" text-anchor="middle" fill="#444">4</text>
<line x1="363.3" y1="250" x2="363.3" y2="253" stroke="#444"/>
<text x="363.3" y="265" text-anchor="middle" fill="#444">5</text>
<line x1="72" y1="250.0" x2="75" y2="250.0" stroke="#444"/>
<text x="69" y="253.0" text-anchor="end" fill="#444">-0.99</text>
<line x1="72" y1="210.0" x2="75" y2="210.0" stroke="#444"/>
<text x="69" y="213.0" text-anchor="end" fill="#444">-0.65</text>
<line x1="72" y1="170.0" x2="75" y2="170.0" stroke="#444"/>
<text x="69" y="173.0" text-anchor="end" fill="#444">-0.31</text>
<line x1="72" y1="130.0" x2="75" y2="130.0" stroke="#444"/>
<text x="69" y="133.0" text-anchor="end" fill="#444">0.033</text>
<line x1="72" y1="90.0" x2="75" y2="90.0" stroke="#444"/>
<text x="69" y="93.0" text-anchor="end" fill="#444">0.37</text>
<text x="226.0" y="284" text-anchor="middle" fill="#444">Event time (years from adoption)</text>
<text x="27" y="170.0" text-anchor="middle" fill="#444" transform="rotate(-90 27 170.0)">ATT (per 100k)</text>
<rect x="425" y="40" width="380" height="260" fill="#fafaf7" stroke="#e2e2dc"/>
<text x="615.0" y="58" text-anchor="middle" font-weight="600">Non-firearm suicide rate (per 100k) [substitution test]</text>
<line x1="485" y1="146.3377499985143" x2="787" y2="146.3377499985143" stroke="#aaaaaa" stroke-width="0.7"/>
<polygon points="498.7,135.9 526.2,90.0 553.6,158.6 581.1,167.7 636.0,116.6 663.5,148.6 690.9,174.3 718.4,155.1 745.8,178.9 773.3,146.8 773.3,250.0 745.8,248.2 718.4,230.0 690.9,210.6 663.5,190.3 636.0,161.1 581.1,208.0 553.6,188.2 526.2,141.3 498.7,170.4" fill="#1f3a5f" opacity="0.18"/>
<polyline points="498.7,153.2 526.2,115.7 553.6,173.4 581.1,187.8 636.0,138.9 663.5,169.4 690.9,192.5 718.4,192.5 745.8,213.5 773.3,198.4" fill="none" stroke="#1f3a5f" stroke-width="1.6"/>
<circle cx="498.7" cy="153.2" r="2.6" fill="#1f3a5f"/>
<circle cx="526.2" cy="115.7" r="2.6" fill="#1f3a5f"/>
<circle cx="553.6" cy="173.4" r="2.6" fill="#1f3a5f"/>
<circle cx="581.1" cy="187.8" r="2.6" fill="#1f3a5f"/>
<circle cx="636.0" cy="138.9" r="2.6" fill="#1f3a5f"/>
<circle cx="663.5" cy="169.4" r="2.6" fill="#1f3a5f"/>
<circle cx="690.9" cy="192.5" r="2.6" fill="#1f3a5f"/>
<circle cx="718.4" cy="192.5" r="2.6" fill="#1f3a5f"/>
<circle cx="745.8" cy="213.5" r="2.6" fill="#1f3a5f"/>
<circle cx="773.3" cy="198.4" r="2.6" fill="#1f3a5f"/>
<line x1="622.3" y1="90" x2="622.3" y2="250" stroke="#b9461a" stroke-dasharray="3 3"/>
<line x1="485" y1="250" x2="787" y2="250" stroke="#444"/>
<line x1="485" y1="90" x2="485" y2="250" stroke="#444"/>
<line x1="498.7" y1="250" x2="498.7" y2="253" stroke="#444"/>
<text x="498.7" y="265" text-anchor="middle" fill="#444">-5</text>
<line x1="526.2" y1="250" x2="526.2" y2="253" stroke="#444"/>
<text x="526.2" y="265" text-anchor="middle" fill="#444">-4</text>
<line x1="553.6" y1="250" x2="553.6" y2="253" stroke="#444"/>
<text x="553.6" y="265" text-anchor="middle" fill="#444">-3</text>
<line x1="581.1" y1="250" x2="581.1" y2="253" stroke="#444"/>
<text x="581.1" y="265" text-anchor="middle" fill="#444">-2</text>
<line x1="636.0" y1="250" x2="636.0" y2="253" stroke="#444"/>
<text x="636.0" y="265" text-anchor="middle" fill="#444">0</text>
<line x1="663.5" y1="250" x2="663.5" y2="253" stroke="#444"/>
<text x="663.5" y="265" text-anchor="middle" fill="#444">1</text>
<line x1="690.9" y1="250" x2="690.9" y2="253" stroke="#444"/>
<text x="690.9" y="265" text-anchor="middle" fill="#444">2</text>
<line x1="718.4" y1="250" x2="718.4" y2="253" stroke="#444"/>
<text x="718.4" y="265" text-anchor="middle" fill="#444">3</text>
<line x1="745.8" y1="250" x2="745.8" y2="253" stroke="#444"/>
<text x="745.8" y="265" text-anchor="middle" fill="#444">4</text>
<line x1="773.3" y1="250" x2="773.3" y2="253" stroke="#444"/>
<text x="773.3" y="265" text-anchor="middle" fill="#444">5</text>
<line x1="482" y1="250.0" x2="485" y2="250.0" stroke="#444"/>
<text x="479" y="253.0" text-anchor="end" fill="#444">-1.1</text>
<line x1="482" y1="210.0" x2="485" y2="210.0" stroke="#444"/>
<text x="479" y="213.0" text-anchor="end" fill="#444">-0.68</text>
<line x1="482" y1="170.0" x2="485" y2="170.0" stroke="#444"/>
<text x="479" y="173.0" text-anchor="end" fill="#444">-0.25</text>
<line x1="482" y1="130.0" x2="485" y2="130.0" stroke="#444"/>
<text x="479" y="133.0" text-anchor="end" fill="#444">0.18</text>
<line x1="482" y1="90.0" x2="485" y2="90.0" stroke="#444"/>
<text x="479" y="93.0" text-anchor="end" fill="#444">0.61</text>
<text x="636.0" y="284" text-anchor="middle" fill="#444">Event time (years from adoption)</text>
<text x="437" y="170.0" text-anchor="middle" fill="#444" transform="rotate(-90 437 170.0)">ATT (per 100k)</text>
<rect x="15" y="330" width="380" height="260" fill="#fafaf7" stroke="#e2e2dc"/>
<text x="205.0" y="348" text-anchor="middle" font-weight="600">Total suicide rate (per 100k) [net effect]</text>
<line x1="75" y1="429.4031542689937" x2="377" y2="429.4031542689937" stroke="#aaaaaa" stroke-width="0.7"/>
<polygon points="88.7,415.3 116.2,380.0 143.6,430.0 171.1,433.7 226.0,408.2 253.5,434.5 280.9,466.5 308.4,432.7 335.8,477.7 363.3,439.7 363.3,510.8 335.8,540.0 308.4,494.6 280.9,501.6 253.5,473.9 226.0,447.5 171.1,472.1 143.6,457.7 116.2,420.9 88.7,457.3" fill="#1f3a5f" opacity="0.18"/>
<polyline points="88.7,436.3 116.2,400.4 143.6,443.8 171.1,452.9 226.0,427.8 253.5,454.2 280.9,484.0 308.4,463.6 335.8,508.9 363.3,475.2" fill="none" stroke="#1f3a5f" stroke-width="1.6"/>
<circle cx="88.7" cy="436.3" r="2.6" fill="#1f3a5f"/>
<circle cx="116.2" cy="400.4" r="2.6" fill="#1f3a5f"/>
<circle cx="143.6" cy="443.8" r="2.6" fill="#1f3a5f"/>
<circle cx="171.1" cy="452.9" r="2.6" fill="#1f3a5f"/>
<circle cx="226.0" cy="427.8" r="2.6" fill="#1f3a5f"/>
<circle cx="253.5" cy="454.2" r="2.6" fill="#1f3a5f"/>
<circle cx="280.9" cy="484.0" r="2.6" fill="#1f3a5f"/>
<circle cx="308.4" cy="463.6" r="2.6" fill="#1f3a5f"/>
<circle cx="335.8" cy="508.9" r="2.6" fill="#1f3a5f"/>
<circle cx="363.3" cy="475.2" r="2.6" fill="#1f3a5f"/>
<line x1="212.3" y1="380" x2="212.3" y2="540" stroke="#b9461a" stroke-dasharray="3 3"/>
<line x1="75" y1="540" x2="377" y2="540" stroke="#444"/>
<line x1="75" y1="380" x2="75" y2="540" stroke="#444"/>
<line x1="88.7" y1="540" x2="88.7" y2="543" stroke="#444"/>
<text x="88.7" y="555" text-anchor="middle" fill="#444">-5</text>
<line x1="116.2" y1="540" x2="116.2" y2="543" stroke="#444"/>
<text x="116.2" y="555" text-anchor="middle" fill="#444">-4</text>
<line x1="143.6" y1="540" x2="143.6" y2="543" stroke="#444"/>
<text x="143.6" y="555" text-anchor="middle" fill="#444">-3</text>
<line x1="171.1" y1="540" x2="171.1" y2="543" stroke="#444"/>
<text x="171.1" y="555" text-anchor="middle" fill="#444">-2</text>
<line x1="226.0" y1="540" x2="226.0" y2="543" stroke="#444"/>
<text x="226.0" y="555" text-anchor="middle" fill="#444">0</text>
<line x1="253.5" y1="540" x2="253.5" y2="543" stroke="#444"/>
<text x="253.5" y="555" text-anchor="middle" fill="#444">1</text>
<line x1="280.9" y1="540" x2="280.9" y2="543" stroke="#444"/>
<text x="280.9" y="555" text-anchor="middle" fill="#444">2</text>
<line x1="308.4" y1="540" x2="308.4" y2="543" stroke="#444"/>
<text x="308.4" y="555" text-anchor="middle" fill="#444">3</text>
<line x1="335.8" y1="540" x2="335.8" y2="543" stroke="#444"/>
<text x="335.8" y="555" text-anchor="middle" fill="#444">4</text>
<line x1="363.3" y1="540" x2="363.3" y2="543" stroke="#444"/>
<text x="363.3" y="555" text-anchor="middle" fill="#444">5</text>
<line x1="72" y1="540.0" x2="75" y2="540.0" stroke="#444"/>
<text x="69" y="543.0" text-anchor="end" fill="#444">-2.1</text>
<line x1="72" y1="500.0" x2="75" y2="500.0" stroke="#444"/>
<text x="69" y="503.0" text-anchor="end" fill="#444">-1.3</text>
<line x1="72" y1="460.0" x2="75" y2="460.0" stroke="#444"/>
<text x="69" y="463.0" text-anchor="end" fill="#444">-0.57</text>
<line x1="72" y1="420.0" x2="75" y2="420.0" stroke="#444"/>
<text x="69" y="423.0" text-anchor="end" fill="#444">0.17</text>
<line x1="72" y1="380.0" x2="75" y2="380.0" stroke="#444"/>
<text x="69" y="383.0" text-anchor="end" fill="#444">0.92</text>
<text x="226.0" y="574" text-anchor="middle" fill="#444">Event time (years from adoption)</text>
<text x="27" y="460.0" text-anchor="middle" fill="#444" transform="rotate(-90 27 460.0)">ATT (per 100k)</text>
<rect x="425" y="330" width="380" height="260" fill="#fafaf7" stroke="#e2e2dc"/>
<text x="615.0" y="348" text-anchor="middle" font-weight="600">Firearm homicide rate (per 100k)</text>
<line x1="485" y1="402.8636727608347" x2="787" y2="402.8636727608347" stroke="#aaaaaa" stroke-width="0.7"/>
<polygon points="498.7,400.5 526.2,398.5 553.6,417.5 581.1,426.8 636.0,380.0 663.5,432.3 690.9,429.8 718.4,439.1 745.8,425.2 773.3,477.4 773.3,540.0 745.8,492.9 718.4,486.4 690.9,470.5 663.5,460.1 636.0,398.8 581.1,463.3 553.6,441.6 526.2,429.3 498.7,433.3" fill="#1f3a5f" opacity="0.18"/>
<polyline points="498.7,416.9 526.2,413.9 553.6,429.5 581.1,445.0 636.0,389.4 663.5,446.2 690.9,450.1 718.4,462.8 745.8,459.1 773.3,508.7" fill="none" stroke="#1f3a5f" stroke-width="1.6"/>
<circle cx="498.7" cy="416.9" r="2.6" fill="#1f3a5f"/>
<circle cx="526.2" cy="413.9" r="2.6" fill="#1f3a5f"/>
<circle cx="553.6" cy="429.5" r="2.6" fill="#1f3a5f"/>
<circle cx="581.1" cy="445.0" r="2.6" fill="#1f3a5f"/>
<circle cx="636.0" cy="389.4" r="2.6" fill="#1f3a5f"/>
<circle cx="663.5" cy="446.2" r="2.6" fill="#1f3a5f"/>
<circle cx="690.9" cy="450.1" r="2.6" fill="#1f3a5f"/>
<circle cx="718.4" cy="462.8" r="2.6" fill="#1f3a5f"/>
<circle cx="745.8" cy="459.1" r="2.6" fill="#1f3a5f"/>
<circle cx="773.3" cy="508.7" r="2.6" fill="#1f3a5f"/>
<line x1="622.3" y1="380" x2="622.3" y2="540" stroke="#b9461a" stroke-dasharray="3 3"/>
<line x1="485" y1="540" x2="787" y2="540" stroke="#444"/>
<line x1="485" y1="380" x2="485" y2="540" stroke="#444"/>
<line x1="498.7" y1="540" x2="498.7" y2="543" stroke="#444"/>
<text x="498.7" y="555" text-anchor="middle" fill="#444">-5</text>
<line x1="526.2" y1="540" x2="526.2" y2="543" stroke="#444"/>
<text x="526.2" y="555" text-anchor="middle" fill="#444">-4</text>
<line x1="553.6" y1="540" x2="553.6" y2="543" stroke="#444"/>
<text x="553.6" y="555" text-anchor="middle" fill="#444">-3</text>
<line x1="581.1" y1="540" x2="581.1" y2="543" stroke="#444"/>
<text x="581.1" y="555" text-anchor="middle" fill="#444">-2</text>
<line x1="636.0" y1="540" x2="636.0" y2="543" stroke="#444"/>
<text x="636.0" y="555" text-anchor="middle" fill="#444">0</text>
<line x1="663.5" y1="540" x2="663.5" y2="543" stroke="#444"/>
<text x="663.5" y="555" text-anchor="middle" fill="#444">1</text>
<line x1="690.9" y1="540" x2="690.9" y2="543" stroke="#444"/>
<text x="690.9" y="555" text-anchor="middle" fill="#444">2</text>
<line x1="718.4" y1="540" x2="718.4" y2="543" stroke="#444"/>
<text x="718.4" y="555" text-anchor="middle" fill="#444">3</text>
<line x1="745.8" y1="540" x2="745.8" y2="543" stroke="#444"/>
<text x="745.8" y="555" text-anchor="middle" fill="#444">4</text>
<line x1="773.3" y1="540" x2="773.3" y2="543" stroke="#444"/>
<text x="773.3" y="555" text-anchor="middle" fill="#444">5</text>
<line x1="482" y1="540.0" x2="485" y2="540.0" stroke="#444"/>
<text x="479" y="543.0" text-anchor="end" fill="#444">-1.1</text>
<line x1="482" y1="500.0" x2="485" y2="500.0" stroke="#444"/>
<text x="479" y="503.0" text-anchor="end" fill="#444">-0.81</text>
<line x1="482" y1="460.0" x2="485" y2="460.0" stroke="#444"/>
<text x="479" y="463.0" text-anchor="end" fill="#444">-0.48</text>
<line x1="482" y1="420.0" x2="485" y2="420.0" stroke="#444"/>
<text x="479" y="423.0" text-anchor="end" fill="#444">-0.14</text>
<line x1="482" y1="380.0" x2="485" y2="380.0" stroke="#444"/>
<text x="479" y="383.0" text-anchor="end" fill="#444">0.19</text>
<text x="636.0" y="574" text-anchor="middle" fill="#444">Event time (years from adoption)</text>
<text x="437" y="460.0" text-anchor="middle" fill="#444" transform="rotate(-90 437 460.0)">ATT (per 100k)</text>
<rect x="15" y="620" width="380" height="260" fill="#fafaf7" stroke="#e2e2dc"/>
<text x="205.0" y="638" text-anchor="middle" font-weight="600">Total homicide rate (per 100k)</text>
<line x1="75" y1="691.2871974847196" x2="377" y2="691.2871974847196" stroke="#aaaaaa" stroke-width="0.7"/>
<polygon points="88.7,687.0 116.2,681.2 143.6,690.2 171.1,689.1 226.0,670.0 253.5,720.2 280.9,717.5 308.4,726.0 335.8,703.9 363.3,783.5 363.3,830.0 335.8,762.9 308.4,759.9 280.9,749.6 253.5,747.9 226.0,698.6 171.1,717.4 143.6,723.3 116.2,723.3 88.7,722.0" fill="#1f3a5f" opacity="0.18"/>
<polyline points="88.7,704.5 116.2,702.3 143.6,706.7 171.1,703.3 226.0,684.3 253.5,734.1 280.9,733.6 308.4,742.9 335.8,733.4 363.3,806.8" fill="none" stroke="#1f3a5f" stroke-width="1.6"/>
<circle cx="88.7" cy="704.5" r="2.6" fill="#1f3a5f"/>
<circle cx="116.2" cy="702.3" r="2.6" fill="#1f3a5f"/>
<circle cx="143.6" cy="706.7" r="2.6" fill="#1f3a5f"/>
<circle cx="171.1" cy="703.3" r="2.6" fill="#1f3a5f"/>
<circle cx="226.0" cy="684.3" r="2.6" fill="#1f3a5f"/>
<circle cx="253.5" cy="734.1" r="2.6" fill="#1f3a5f"/>
<circle cx="280.9" cy="733.6" r="2.6" fill="#1f3a5f"/>
<circle cx="308.4" cy="742.9" r="2.6" fill="#1f3a5f"/>
<circle cx="335.8" cy="733.4" r="2.6" fill="#1f3a5f"/>
<circle cx="363.3" cy="806.8" r="2.6" fill="#1f3a5f"/>
<line x1="212.3" y1="670" x2="212.3" y2="830" stroke="#b9461a" stroke-dasharray="3 3"/>
<line x1="75" y1="830" x2="377" y2="830" stroke="#444"/>
<line x1="75" y1="670" x2="75" y2="830" stroke="#444"/>
<line x1="88.7" y1="830" x2="88.7" y2="833" stroke="#444"/>
<text x="88.7" y="845" text-anchor="middle" fill="#444">-5</text>
<line x1="116.2" y1="830" x2="116.2" y2="833" stroke="#444"/>
<text x="116.2" y="845" text-anchor="middle" fill="#444">-4</text>
<line x1="143.6" y1="830" x2="143.6" y2="833" stroke="#444"/>
<text x="143.6" y="845" text-anchor="middle" fill="#444">-3</text>
<line x1="171.1" y1="830" x2="171.1" y2="833" stroke="#444"/>
<text x="171.1" y="845" text-anchor="middle" fill="#444">-2</text>
<line x1="226.0" y1="830" x2="226.0" y2="833" stroke="#444"/>
<text x="226.0" y="845" text-anchor="middle" fill="#444">0</text>
<line x1="253.5" y1="830" x2="253.5" y2="833" stroke="#444"/>
<text x="253.5" y="845" text-anchor="middle" fill="#444">1</text>
<line x1="280.9" y1="830" x2="280.9" y2="833" stroke="#444"/>
<text x="280.9" y="845" text-anchor="middle" fill="#444">2</text>
<line x1="308.4" y1="830" x2="308.4" y2="833" stroke="#444"/>
<text x="308.4" y="845" text-anchor="middle" fill="#444">3</text>
<line x1="335.8" y1="830" x2="335.8" y2="833" stroke="#444"/>
<text x="335.8" y="845" text-anchor="middle" fill="#444">4</text>
<line x1="363.3" y1="830" x2="363.3" y2="833" stroke="#444"/>
<text x="363.3" y="845" text-anchor="middle" fill="#444">5</text>
<line x1="72" y1="830.0" x2="75" y2="830.0" stroke="#444"/>
<text x="69" y="833.0" text-anchor="end" fill="#444">-1.5</text>
<line x1="72" y1="790.0" x2="75" y2="790.0" stroke="#444"/>
<text x="69" y="793.0" text-anchor="end" fill="#444">-1.1</text>
<line x1="72" y1="750.0" x2="75" y2="750.0" stroke="#444"/>
<text x="69" y="753.0" text-anchor="end" fill="#444">-0.64</text>
<line x1="72" y1="710.0" x2="75" y2="710.0" stroke="#444"/>
<text x="69" y="713.0" text-anchor="end" fill="#444">-0.21</text>
<line x1="72" y1="670.0" x2="75" y2="670.0" stroke="#444"/>
<text x="69" y="673.0" text-anchor="end" fill="#444">0.23</text>
<text x="226.0" y="864" text-anchor="middle" fill="#444">Event time (years from adoption)</text>
<text x="27" y="750.0" text-anchor="middle" fill="#444" transform="rotate(-90 27 750.0)">ATT (per 100k)</text>
<rect x="425" y="620" width="380" height="260" fill="#fafaf7" stroke="#e2e2dc"/>
<text x="615.0" y="638" text-anchor="middle" font-weight="600">Motor vehicle theft rate (per 100k) [placebo]</text>
<line x1="485" y1="778.3177660932467" x2="787" y2="778.3177660932467" stroke="#aaaaaa" stroke-width="0.7"/>
<polygon points="498.7,767.4 526.2,754.9 553.6,731.7 581.1,752.0 636.0,775.5 663.5,775.5 690.9,670.0 718.4,722.7 745.8,692.8 773.3,693.2 773.3,813.3 745.8,803.2 718.4,791.8 690.9,713.4 663.5,796.4 636.0,788.8 581.1,768.6 553.6,762.1 526.2,787.9 498.7,830.0" fill="#1f3a5f" opacity="0.18"/>
<polyline points="498.7,798.7 526.2,771.4 553.6,746.9 581.1,760.3 636.0,782.2 663.5,785.9 690.9,691.7 718.4,757.3 745.8,748.0 773.3,753.3" fill="none" stroke="#1f3a5f" stroke-width="1.6"/>
<circle cx="498.7" cy="798.7" r="2.6" fill="#1f3a5f"/>
<circle cx="526.2" cy="771.4" r="2.6" fill="#1f3a5f"/>
<circle cx="553.6" cy="746.9" r="2.6" fill="#1f3a5f"/>
<circle cx="581.1" cy="760.3" r="2.6" fill="#1f3a5f"/>
<circle cx="636.0" cy="782.2" r="2.6" fill="#1f3a5f"/>
<circle cx="663.5" cy="785.9" r="2.6" fill="#1f3a5f"/>
<circle cx="690.9" cy="691.7" r="2.6" fill="#1f3a5f"/>
<circle cx="718.4" cy="757.3" r="2.6" fill="#1f3a5f"/>
<circle cx="745.8" cy="748.0" r="2.6" fill="#1f3a5f"/>
<circle cx="773.3" cy="753.3" r="2.6" fill="#1f3a5f"/>
<line x1="622.3" y1="670" x2="622.3" y2="830" stroke="#b9461a" stroke-dasharray="3 3"/>
<line x1="485" y1="830" x2="787" y2="830" stroke="#444"/>
<line x1="485" y1="670" x2="485" y2="830" stroke="#444"/>
<line x1="498.7" y1="830" x2="498.7" y2="833" stroke="#444"/>
<text x="498.7" y="845" text-anchor="middle" fill="#444">-5</text>
<line x1="526.2" y1="830" x2="526.2" y2="833" stroke="#444"/>
<text x="526.2" y="845" text-anchor="middle" fill="#444">-4</text>
<line x1="553.6" y1="830" x2="553.6" y2="833" stroke="#444"/>
<text x="553.6" y="845" text-anchor="middle" fill="#444">-3</text>
<line x1="581.1" y1="830" x2="581.1" y2="833" stroke="#444"/>
<text x="581.1" y="845" text-anchor="middle" fill="#444">-2</text>
<line x1="636.0" y1="830" x2="636.0" y2="833" stroke="#444"/>
<text x="636.0" y="845" text-anchor="middle" fill="#444">0</text>
<line x1="663.5" y1="830" x2="663.5" y2="833" stroke="#444"/>
<text x="663.5" y="845" text-anchor="middle" fill="#444">1</text>
<line x1="690.9" y1="830" x2="690.9" y2="833" stroke="#444"/>
<text x="690.9" y="845" text-anchor="middle" fill="#444">2</text>
<line x1="718.4" y1="830" x2="718.4" y2="833" stroke="#444"/>
<text x="718.4" y="845" text-anchor="middle" fill="#444">3</text>
<line x1="745.8" y1="830" x2="745.8" y2="833" stroke="#444"/>
<text x="745.8" y="845" text-anchor="middle" fill="#444">4</text>
<line x1="773.3" y1="830" x2="773.3" y2="833" stroke="#444"/>
<text x="773.3" y="845" text-anchor="middle" fill="#444">5</text>
<line x1="482" y1="830.0" x2="485" y2="830.0" stroke="#444"/>
<text x="479" y="833.0" text-anchor="end" fill="#444">-24</text>
<line x1="482" y1="790.0" x2="485" y2="790.0" stroke="#444"/>
<text x="479" y="793.0" text-anchor="end" fill="#444">-5.5</text>
<line x1="482" y1="750.0" x2="485" y2="750.0" stroke="#444"/>
<text x="479" y="753.0" text-anchor="end" fill="#444">13</text>
<line x1="482" y1="710.0" x2="485" y2="710.0" stroke="#444"/>
<text x="479" y="713.0" text-anchor="end" fill="#444">32</text>
<line x1="482" y1="670.0" x2="485" y2="670.0" stroke="#444"/>
<text x="479" y="673.0" text-anchor="end" fill="#444">51</text>
<text x="636.0" y="864" text-anchor="middle" fill="#444">Event time (years from adoption)</text>
<text x="437" y="750.0" text-anchor="middle" fill="#444" transform="rotate(-90 437 750.0)">ATT (per 100k)</text>
<text x="805" y="608" text-anchor="end" fill="#888" font-size="10">Shaded band: pointwise 95% CI from cluster bootstrap. Vertical dashed line marks the year before adoption.</text>
</svg>