<svg xmlns="http://www.w3.org/2000/svg" viewBox="0 0 820 620" font-family="-apple-system, Segoe UI, Helvetica, Arial, sans-serif" font-size="11">
<text x="410.0" y="22" text-anchor="middle" font-size="14" font-weight="600">Callaway-Sant'Anna ATT by event time (RA) -- ubc</text>
<rect x="15" y="40" width="380" height="260" fill="#fafaf7" stroke="#e2e2dc"/>
<text x="205.0" y="58" text-anchor="middle" font-weight="600">Firearm suicide rate (per 100k)</text>
<line x1="75" y1="195.3619847245033" x2="377" y2="195.3619847245033" stroke="#aaaaaa" stroke-width="0.7"/>
<polygon points="88.7,123.5 116.2,212.7 143.6,156.8 171.1,152.5 226.0,124.0 253.5,151.5 280.9,125.5 308.4,90.0 335.8,95.7 363.3,156.4 363.3,227.4 335.8,204.0 308.4,143.8 280.9,208.4 253.5,219.6 226.0,211.8 171.1,250.0 143.6,245.3 116.2,249.5 88.7,193.4" fill="#1f3a5f" opacity="0.18"/>
<polyline points="88.7,158.4 116.2,231.1 143.6,201.1 171.1,201.2 226.0,167.9 253.5,185.6 280.9,167.0 308.4,116.9 335.8,149.9 363.3,191.9" fill="none" stroke="#1f3a5f" stroke-width="1.6"/>
<circle cx="88.7" cy="158.4" r="2.6" fill="#1f3a5f"/>
<circle cx="116.2" cy="231.1" r="2.6" fill="#1f3a5f"/>
<circle cx="143.6" cy="201.1" r="2.6" fill="#1f3a5f"/>
<circle cx="171.1" cy="201.2" r="2.6" fill="#1f3a5f"/>
<circle cx="226.0" cy="167.9" r="2.6" fill="#1f3a5f"/>
<circle cx="253.5" cy="185.6" r="2.6" fill="#1f3a5f"/>
<circle cx="280.9" cy="167.0" r="2.6" fill="#1f3a5f"/>
<circle cx="308.4" cy="116.9" r="2.6" fill="#1f3a5f"/>
<circle cx="335.8" cy="149.9" r="2.6" fill="#1f3a5f"/>
<circle cx="363.3" cy="191.9" r="2.6" fill="#1f3a5f"/>
<line x1="212.3" y1="90" x2="212.3" y2="250" stroke="#b9461a" stroke-dasharray="3 3"/>
<line x1="75" y1="250" x2="377" y2="250" stroke="#444"/>
<line x1="75" y1="90" x2="75" y2="250" stroke="#444"/>
<line x1="88.7" y1="250" x2="88.7" y2="253" stroke="#444"/>
<text x="88.7" y="265" text-anchor="middle" fill="#444">-5</text>
<line x1="116.2" y1="250" x2="116.2" y2="253" stroke="#444"/>
<text x="116.2" y="265" text-anchor="middle" fill="#444">-4</text>
<line x1="143.6" y1="250" x2="143.6" y2="253" stroke="#444"/>
<text x="143.6" y="265" text-anchor="middle" fill="#444">-3</text>
<line x1="171.1" y1="250" x2="171.1" y2="253" stroke="#444"/>
<text x="171.1" y="265" text-anchor="middle" fill="#444">-2</text>
<line x1="226.0" y1="250" x2="226.0" y2="253" stroke="#444"/>
<text x="226.0" y="265" text-anchor="middle" fill="#444">0</text>
<line x1="253.5" y1="250" x2="253.5" y2="253" stroke="#444"/>
<text x="253.5" y="265" text-anchor="middle" fill="#444">1</text>
<line x1="280.9" y1="250" x2="280.9" y2="253" stroke="#444"/>
<text x="280.9" y="265" text-anchor="middle" fill="#444">2</text>
<line x1="308.4" y1="250" x2="308.4" y2="253" stroke="#444"/>
<text x="308.4" y="265" text-anchor="middle" fill="#444">3</text>
<line x1="335.8" y1="250" x2="335.8" y2="253" stroke="#444"/>
<text x="335.8" y="265" text-anchor="middle" fill="#444">4</text>
<line x1="363.3" y1="250" x2="363.3" y2="253" stroke="#444"/>
<text x="363.3" y="265" text-anchor="middle" fill="#444">5</text>
<line x1="72" y1="250.0" x2="75" y2="250.0" stroke="#444"/>
<text x="69" y="253.0" text-anchor="end" fill="#444">-0.75</text>
<line x1="72" y1="210.0" x2="75" y2="210.0" stroke="#444"/>
<text x="69" y="213.0" text-anchor="end" fill="#444">-0.2</text>
<line x1="72" y1="170.0" x2="75" y2="170.0" stroke="#444"/>
<text x="69" y="173.0" text-anchor="end" fill="#444">0.35</text>
<line x1="72" y1="130.0" x2="75" y2="130.0" stroke="#444"/>
<text x="69" y="133.0" text-anchor="end" fill="#444">0.89</text>
<line x1="72" y1="90.0" x2="75" y2="90.0" stroke="#444"/>
<text x="69" y="93.0" text-anchor="end" fill="#444">1.4</text>
<text x="226.0" y="284" text-anchor="middle" fill="#444">Event time (years from adoption)</text>
<text x="27" y="170.0" text-anchor="middle" fill="#444" transform="rotate(-90 27 170.0)">ATT (per 100k)</text>
<rect x="425" y="40" width="380" height="260" fill="#fafaf7" stroke="#e2e2dc"/>
<text x="615.0" y="58" text-anchor="middle" font-weight="600">Non-firearm suicide rate (per 100k) [substitution test]</text>
<line x1="485" y1="134.0031547738617" x2="787" y2="134.0031547738617" stroke="#aaaaaa" stroke-width="0.7"/>
<polygon points="498.7,139.2 526.2,90.0 553.6,99.7 581.1,155.1 636.0,123.4 663.5,164.0 690.9,177.8 718.4,196.9 745.8,169.9 773.3,186.4 773.3,250.0 745.8,212.1 718.4,231.8 690.9,212.5 663.5,201.9 636.0,156.4 581.1,213.9 553.6,143.9 526.2,149.1 498.7,176.7" fill="#1f3a5f" opacity="0.18"/>
<polyline points="498.7,158.0 526.2,119.5 553.6,121.8 581.1,184.5 636.0,139.9 663.5,183.0 690.9,195.1 718.4,214.4 745.8,191.0 773.3,218.2" fill="none" stroke="#1f3a5f" stroke-width="1.6"/>
<circle cx="498.7" cy="158.0" r="2.6" fill="#1f3a5f"/>
<circle cx="526.2" cy="119.5" r="2.6" fill="#1f3a5f"/>
<circle cx="553.6" cy="121.8" r="2.6" fill="#1f3a5f"/>
<circle cx="581.1" cy="184.5" r="2.6" fill="#1f3a5f"/>
<circle cx="636.0" cy="139.9" r="2.6" fill="#1f3a5f"/>
<circle cx="663.5" cy="183.0" r="2.6" fill="#1f3a5f"/>
<circle cx="690.9" cy="195.1" r="2.6" fill="#1f3a5f"/>
<circle cx="718.4" cy="214.4" r="2.6" fill="#1f3a5f"/>
<circle cx="745.8" cy="191.0" r="2.6" fill="#1f3a5f"/>
<circle cx="773.3" cy="218.2" r="2.6" fill="#1f3a5f"/>
<line x1="622.3" y1="90" x2="622.3" y2="250" stroke="#b9461a" stroke-dasharray="3 3"/>
<line x1="485" y1="250" x2="787" y2="250" stroke="#444"/>
<line x1="485" y1="90" x2="485" y2="250" stroke="#444"/>
<line x1="498.7" y1="250" x2="498.7" y2="253" stroke="#444"/>
<text x="498.7" y="265" text-anchor="middle" fill="#444">-5</text>
<line x1="526.2" y1="250" x2="526.2" y2="253" stroke="#444"/>
<text x="526.2" y="265" text-anchor="middle" fill="#444">-4</text>
<line x1="553.6" y1="250" x2="553.6" y2="253" stroke="#444"/>
<text x="553.6" y="265" text-anchor="middle" fill="#444">-3</text>
<line x1="581.1" y1="250" x2="581.1" y2="253" stroke="#444"/>
<text x="581.1" y="265" text-anchor="middle" fill="#444">-2</text>
<line x1="636.0" y1="250" x2="636.0" y2="253" stroke="#444"/>
<text x="636.0" y="265" text-anchor="middle" fill="#444">0</text>
<line x1="663.5" y1="250" x2="663.5" y2="253" stroke="#444"/>
<text x="663.5" y="265" text-anchor="middle" fill="#444">1</text>
<line x1="690.9" y1="250" x2="690.9" y2="253" stroke="#444"/>
<text x="690.9" y="265" text-anchor="middle" fill="#444">2</text>
<line x1="718.4" y1="250" x2="718.4" y2="253" stroke="#444"/>
<text x="718.4" y="265" text-anchor="middle" fill="#444">3</text>
<line x1="745.8" y1="250" x2="745.8" y2="253" stroke="#444"/>
<text x="745.8" y="265" text-anchor="middle" fill="#444">4</text>
<line x1="773.3" y1="250" x2="773.3" y2="253" stroke="#444"/>
<text x="773.3" y="265" text-anchor="middle" fill="#444">5</text>
<line x1="482" y1="250.0" x2="485" y2="250.0" stroke="#444"/>
<text x="479" y="253.0" text-anchor="end" fill="#444">-2.3</text>
<line x1="482" y1="210.0" x2="485" y2="210.0" stroke="#444"/>
<text x="479" y="213.0" text-anchor="end" fill="#444">-1.5</text>
<line x1="482" y1="170.0" x2="485" y2="170.0" stroke="#444"/>
<text x="479" y="173.0" text-anchor="end" fill="#444">-0.7</text>
<line x1="482" y1="130.0" x2="485" y2="130.0" stroke="#444"/>
<text x="479" y="133.0" text-anchor="end" fill="#444">0.078</text>
<line x1="482" y1="90.0" x2="485" y2="90.0" stroke="#444"/>
<text x="479" y="93.0" text-anchor="end" fill="#444">0.85</text>
<text x="636.0" y="284" text-anchor="middle" fill="#444">Event time (years from adoption)</text>
<text x="437" y="170.0" text-anchor="middle" fill="#444" transform="rotate(-90 437 170.0)">ATT (per 100k)</text>
<rect x="15" y="330" width="380" height="260" fill="#fafaf7" stroke="#e2e2dc"/>
<text x="205.0" y="348" text-anchor="middle" font-weight="600">Total suicide rate (per 100k) [net effect]</text>
<line x1="75" y1="427.95229467302283" x2="377" y2="427.95229467302283" stroke="#aaaaaa" stroke-width="0.7"/>
<polygon points="88.7,392.7 116.2,405.5 143.6,395.2 171.1,443.7 226.0,380.0 253.5,434.9 280.9,432.0 308.4,423.5 335.8,411.4 363.3,453.9 363.3,540.0 335.8,486.6 308.4,474.8 280.9,493.3 253.5,492.0 226.0,453.2 171.1,504.3 143.6,446.9 116.2,468.5 88.7,459.7" fill="#1f3a5f" opacity="0.18"/>
<polyline points="88.7,426.2 116.2,437.0 143.6,421.1 171.1,474.0 226.0,416.6 253.5,463.4 280.9,462.6 308.4,449.1 335.8,449.0 363.3,496.9" fill="none" stroke="#1f3a5f" stroke-width="1.6"/>
<circle cx="88.7" cy="426.2" r="2.6" fill="#1f3a5f"/>
<circle cx="116.2" cy="437.0" r="2.6" fill="#1f3a5f"/>
<circle cx="143.6" cy="421.1" r="2.6" fill="#1f3a5f"/>
<circle cx="171.1" cy="474.0" r="2.6" fill="#1f3a5f"/>
<circle cx="226.0" cy="416.6" r="2.6" fill="#1f3a5f"/>
<circle cx="253.5" cy="463.4" r="2.6" fill="#1f3a5f"/>
<circle cx="280.9" cy="462.6" r="2.6" fill="#1f3a5f"/>
<circle cx="308.4" cy="449.1" r="2.6" fill="#1f3a5f"/>
<circle cx="335.8" cy="449.0" r="2.6" fill="#1f3a5f"/>
<circle cx="363.3" cy="496.9" r="2.6" fill="#1f3a5f"/>
<line x1="212.3" y1="380" x2="212.3" y2="540" stroke="#b9461a" stroke-dasharray="3 3"/>
<line x1="75" y1="540" x2="377" y2="540" stroke="#444"/>
<line x1="75" y1="380" x2="75" y2="540" stroke="#444"/>
<line x1="88.7" y1="540" x2="88.7" y2="543" stroke="#444"/>
<text x="88.7" y="555" text-anchor="middle" fill="#444">-5</text>
<line x1="116.2" y1="540" x2="116.2" y2="543" stroke="#444"/>
<text x="116.2" y="555" text-anchor="middle" fill="#444">-4</text>
<line x1="143.6" y1="540" x2="143.6" y2="543" stroke="#444"/>
<text x="143.6" y="555" text-anchor="middle" fill="#444">-3</text>
<line x1="171.1" y1="540" x2="171.1" y2="543" stroke="#444"/>
<text x="171.1" y="555" text-anchor="middle" fill="#444">-2</text>
<line x1="226.0" y1="540" x2="226.0" y2="543" stroke="#444"/>
<text x="226.0" y="555" text-anchor="middle" fill="#444">0</text>
<line x1="253.5" y1="540" x2="253.5" y2="543" stroke="#444"/>
<text x="253.5" y="555" text-anchor="middle" fill="#444">1</text>
<line x1="280.9" y1="540" x2="280.9" y2="543" stroke="#444"/>
<text x="280.9" y="555" text-anchor="middle" fill="#444">2</text>
<line x1="308.4" y1="540" x2="308.4" y2="543" stroke="#444"/>
<text x="308.4" y="555" text-anchor="middle" fill="#444">3</text>
<line x1="335.8" y1="540" x2="335.8" y2="543" stroke="#444"/>
<text x="335.8" y="555" text-anchor="middle" fill="#444">4</text>
<line x1="363.3" y1="540" x2="363.3" y2="543" stroke="#444"/>
<text x="363.3" y="555" text-anchor="middle" fill="#444">5</text>
<line x1="72" y1="540.0" x2="75" y2="540.0" stroke="#444"/>
<text x="69" y="543.0" text-anchor="end" fill="#444">-2.6</text>
<line x1="72" y1="500.0" x2="75" y2="500.0" stroke="#444"/>
<text x="69" y="503.0" text-anchor="end" fill="#444">-1.7</text>
<line x1="72" y1="460.0" x2="75" y2="460.0" stroke="#444"/>
<text x="69" y="463.0" text-anchor="end" fill="#444">-0.74</text>
<line x1="72" y1="420.0" x2="75" y2="420.0" stroke="#444"/>
<text x="69" y="423.0" text-anchor="end" fill="#444">0.18</text>
<line x1="72" y1="380.0" x2="75" y2="380.0" stroke="#444"/>
<text x="69" y="383.0" text-anchor="end" fill="#444">1.1</text>
<text x="226.0" y="574" text-anchor="middle" fill="#444">Event time (years from adoption)</text>
<text x="27" y="460.0" text-anchor="middle" fill="#444" transform="rotate(-90 27 460.0)">ATT (per 100k)</text>
<rect x="425" y="330" width="380" height="260" fill="#fafaf7" stroke="#e2e2dc"/>
<text x="615.0" y="348" text-anchor="middle" font-weight="600">Firearm homicide rate (per 100k)</text>
<line x1="485" y1="414.7745962062359" x2="787" y2="414.7745962062359" stroke="#aaaaaa" stroke-width="0.7"/>
<polygon points="498.7,439.3 526.2,390.4 553.6,380.9 581.1,411.3 636.0,380.0 663.5,397.4 690.9,426.1 718.4,405.7 745.8,405.4 773.3,447.6 773.3,540.0 745.8,469.9 718.4,451.0 690.9,484.7 663.5,456.8 636.0,420.0 581.1,464.4 553.6,428.1 526.2,442.3 498.7,502.8" fill="#1f3a5f" opacity="0.18"/>
<polyline points="498.7,471.0 526.2,416.4 553.6,404.5 581.1,437.8 636.0,400.0 663.5,427.1 690.9,455.4 718.4,428.3 745.8,437.6 773.3,493.8" fill="none" stroke="#1f3a5f" stroke-width="1.6"/>
<circle cx="498.7" cy="471.0" r="2.6" fill="#1f3a5f"/>
<circle cx="526.2" cy="416.4" r="2.6" fill="#1f3a5f"/>
<circle cx="553.6" cy="404.5" r="2.6" fill="#1f3a5f"/>
<circle cx="581.1" cy="437.8" r="2.6" fill="#1f3a5f"/>
<circle cx="636.0" cy="400.0" r="2.6" fill="#1f3a5f"/>
<circle cx="663.5" cy="427.1" r="2.6" fill="#1f3a5f"/>
<circle cx="690.9" cy="455.4" r="2.6" fill="#1f3a5f"/>
<circle cx="718.4" cy="428.3" r="2.6" fill="#1f3a5f"/>
<circle cx="745.8" cy="437.6" r="2.6" fill="#1f3a5f"/>
<circle cx="773.3" cy="493.8" r="2.6" fill="#1f3a5f"/>
<line x1="622.3" y1="380" x2="622.3" y2="540" stroke="#b9461a" stroke-dasharray="3 3"/>
<line x1="485" y1="540" x2="787" y2="540" stroke="#444"/>
<line x1="485" y1="380" x2="485" y2="540" stroke="#444"/>
<line x1="498.7" y1="540" x2="498.7" y2="543" stroke="#444"/>
<text x="498.7" y="555" text-anchor="middle" fill="#444">-5</text>
<line x1="526.2" y1="540" x2="526.2" y2="543" stroke="#444"/>
<text x="526.2" y="555" text-anchor="middle" fill="#444">-4</text>
<line x1="553.6" y1="540" x2="553.6" y2="543" stroke="#444"/>
<text x="553.6" y="555" text-anchor="middle" fill="#444">-3</text>
<line x1="581.1" y1="540" x2="581.1" y2="543" stroke="#444"/>
<text x="581.1" y="555" text-anchor="middle" fill="#444">-2</text>
<line x1="636.0" y1="540" x2="636.0" y2="543" stroke="#444"/>
<text x="636.0" y="555" text-anchor="middle" fill="#444">0</text>
<line x1="663.5" y1="540" x2="663.5" y2="543" stroke="#444"/>
<text x="663.5" y="555" text-anchor="middle" fill="#444">1</text>
<line x1="690.9" y1="540" x2="690.9" y2="543" stroke="#444"/>
<text x="690.9" y="555" text-anchor="middle" fill="#444">2</text>
<line x1="718.4" y1="540" x2="718.4" y2="543" stroke="#444"/>
<text x="718.4" y="555" text-anchor="middle" fill="#444">3</text>
<line x1="745.8" y1="540" x2="745.8" y2="543" stroke="#444"/>
<text x="745.8" y="555" text-anchor="middle" fill="#444">4</text>
<line x1="773.3" y1="540" x2="773.3" y2="543" stroke="#444"/>
<text x="773.3" y="555" text-anchor="middle" fill="#444">5</text>
<line x1="482" y1="540.0" x2="485" y2="540.0" stroke="#444"/>
<text x="479" y="543.0" text-anchor="end" fill="#444">-1.3</text>
<line x1="482" y1="500.0" x2="485" y2="500.0" stroke="#444"/>
<text x="479" y="503.0" text-anchor="end" fill="#444">-0.92</text>
<line x1="482" y1="460.0" x2="485" y2="460.0" stroke="#444"/>
<text x="479" y="463.0" text-anchor="end" fill="#444">-0.49</text>
<line x1="482" y1="420.0" x2="485" y2="420.0" stroke="#444"/>
<text x="479" y="423.0" text-anchor="end" fill="#444">-0.056</text>
<line x1="482" y1="380.0" x2="485" y2="380.0" stroke="#444"/>
<text x="479" y="383.0" text-anchor="end" fill="#444">0.37</text>
<text x="636.0" y="574" text-anchor="middle" fill="#444">Event time (years from adoption)</text>
<text x="437" y="460.0" text-anchor="middle" fill="#444" transform="rotate(-90 437 460.0)">ATT (per 100k)</text>
<rect x="15" y="620" width="380" height="260" fill="#fafaf7" stroke="#e2e2dc"/>
<text x="205.0" y="638" text-anchor="middle" font-weight="600">Total homicide rate (per 100k)</text>
<line x1="75" y1="707.6818647489846" x2="377" y2="707.6818647489846" stroke="#aaaaaa" stroke-width="0.7"/>
<polygon points="88.7,751.1 116.2,721.4 143.6,707.5 171.1,691.5 226.0,698.8 253.5,674.6 280.9,670.0 308.4,716.7 335.8,696.6 363.3,767.1 363.3,830.0 335.8,748.8 308.4,769.2 280.9,713.3 253.5,724.8 226.0,754.7 171.1,734.9 143.6,763.8 116.2,771.2 88.7,805.8" fill="#1f3a5f" opacity="0.18"/>
<polyline points="88.7,778.4 116.2,746.3 143.6,735.7 171.1,713.2 226.0,726.7 253.5,699.7 280.9,691.7 308.4,742.9 335.8,722.7 363.3,798.6" fill="none" stroke="#1f3a5f" stroke-width="1.6"/>
<circle cx="88.7" cy="778.4" r="2.6" fill="#1f3a5f"/>
<circle cx="116.2" cy="746.3" r="2.6" fill="#1f3a5f"/>
<circle cx="143.6" cy="735.7" r="2.6" fill="#1f3a5f"/>
<circle cx="171.1" cy="713.2" r="2.6" fill="#1f3a5f"/>
<circle cx="226.0" cy="726.7" r="2.6" fill="#1f3a5f"/>
<circle cx="253.5" cy="699.7" r="2.6" fill="#1f3a5f"/>
<circle cx="280.9" cy="691.7" r="2.6" fill="#1f3a5f"/>
<circle cx="308.4" cy="742.9" r="2.6" fill="#1f3a5f"/>
<circle cx="335.8" cy="722.7" r="2.6" fill="#1f3a5f"/>
<circle cx="363.3" cy="798.6" r="2.6" fill="#1f3a5f"/>
<line x1="212.3" y1="670" x2="212.3" y2="830" stroke="#b9461a" stroke-dasharray="3 3"/>
<line x1="75" y1="830" x2="377" y2="830" stroke="#444"/>
<line x1="75" y1="670" x2="75" y2="830" stroke="#444"/>
<line x1="88.7" y1="830" x2="88.7" y2="833" stroke="#444"/>
<text x="88.7" y="845" text-anchor="middle" fill="#444">-5</text>
<line x1="116.2" y1="830" x2="116.2" y2="833" stroke="#444"/>
<text x="116.2" y="845" text-anchor="middle" fill="#444">-4</text>
<line x1="143.6" y1="830" x2="143.6" y2="833" stroke="#444"/>
<text x="143.6" y="845" text-anchor="middle" fill="#444">-3</text>
<line x1="171.1" y1="830" x2="171.1" y2="833" stroke="#444"/>
<text x="171.1" y="845" text-anchor="middle" fill="#444">-2</text>
<line x1="226.0" y1="830" x2="226.0" y2="833" stroke="#444"/>
<text x="226.0" y="845" text-anchor="middle" fill="#444">0</text>
<line x1="253.5" y1="830" x2="253.5" y2="833" stroke="#444"/>
<text x="253.5" y="845" text-anchor="middle" fill="#444">1</text>
<line x1="280.9" y1="830" x2="280.9" y2="833" stroke="#444"/>
<text x="280.9" y="845" text-anchor="middle" fill="#444">2</text>
<line x1="308.4" y1="830" x2="308.4" y2="833" stroke="#444"/>
<text x="308.4" y="845" text-anchor="middle" fill="#444">3</text>
<line x1="335.8" y1="830" x2="335.8" y2="833" stroke="#444"/>
<text x="335.8" y="845" text-anchor="middle" fill="#444">4</text>
<line x1="363.3" y1="830" x2="363.3" y2="833" stroke="#444"/>
<text x="363.3" y="845" text-anchor="middle" fill="#444">5</text>
<line x1="72" y1="830.0" x2="75" y2="830.0" stroke="#444"/>
<text x="69" y="833.0" text-anchor="end" fill="#444">-1.9</text>
<line x1="72" y1="790.0" x2="75" y2="790.0" stroke="#444"/>
<text x="69" y="793.0" text-anchor="end" fill="#444">-1.3</text>
<line x1="72" y1="750.0" x2="75" y2="750.0" stroke="#444"/>
<text x="69" y="753.0" text-anchor="end" fill="#444">-0.65</text>
<line x1="72" y1="710.0" x2="75" y2="710.0" stroke="#444"/>
<text x="69" y="713.0" text-anchor="end" fill="#444">-0.036</text>
<line x1="72" y1="670.0" x2="75" y2="670.0" stroke="#444"/>
<text x="69" y="673.0" text-anchor="end" fill="#444">0.58</text>
<text x="226.0" y="864" text-anchor="middle" fill="#444">Event time (years from adoption)</text>
<text x="27" y="750.0" text-anchor="middle" fill="#444" transform="rotate(-90 27 750.0)">ATT (per 100k)</text>
<rect x="425" y="620" width="380" height="260" fill="#fafaf7" stroke="#e2e2dc"/>
<text x="615.0" y="638" text-anchor="middle" font-weight="600">Motor vehicle theft rate (per 100k) [placebo]</text>
<line x1="485" y1="771.1703813749584" x2="787" y2="771.1703813749584" stroke="#aaaaaa" stroke-width="0.7"/>
<polygon points="498.7,789.9 526.2,776.8 553.6,755.0 581.1,779.7 636.0,770.3 663.5,755.5 690.9,702.2 718.4,670.0 745.8,700.0 773.3,757.0 773.3,827.8 745.8,738.5 718.4,711.8 690.9,728.1 663.5,775.7 636.0,788.0 581.1,792.7 553.6,773.4 526.2,797.6 498.7,830.0" fill="#1f3a5f" opacity="0.18"/>
<polyline points="498.7,810.0 526.2,787.2 553.6,764.2 581.1,786.2 636.0,779.1 663.5,765.6 690.9,715.2 718.4,690.9 745.8,719.2 773.3,792.4" fill="none" stroke="#1f3a5f" stroke-width="1.6"/>
<circle cx="498.7" cy="810.0" r="2.6" fill="#1f3a5f"/>
<circle cx="526.2" cy="787.2" r="2.6" fill="#1f3a5f"/>
<circle cx="553.6" cy="764.2" r="2.6" fill="#1f3a5f"/>
<circle cx="581.1" cy="786.2" r="2.6" fill="#1f3a5f"/>
<circle cx="636.0" cy="779.1" r="2.6" fill="#1f3a5f"/>
<circle cx="663.5" cy="765.6" r="2.6" fill="#1f3a5f"/>
<circle cx="690.9" cy="715.2" r="2.6" fill="#1f3a5f"/>
<circle cx="718.4" cy="690.9" r="2.6" fill="#1f3a5f"/>
<circle cx="745.8" cy="719.2" r="2.6" fill="#1f3a5f"/>
<circle cx="773.3" cy="792.4" r="2.6" fill="#1f3a5f"/>
<line x1="622.3" y1="670" x2="622.3" y2="830" stroke="#b9461a" stroke-dasharray="3 3"/>
<line x1="485" y1="830" x2="787" y2="830" stroke="#444"/>
<line x1="485" y1="670" x2="485" y2="830" stroke="#444"/>
<line x1="498.7" y1="830" x2="498.7" y2="833" stroke="#444"/>
<text x="498.7" y="845" text-anchor="middle" fill="#444">-5</text>
<line x1="526.2" y1="830" x2="526.2" y2="833" stroke="#444"/>
<text x="526.2" y="845" text-anchor="middle" fill="#444">-4</text>
<line x1="553.6" y1="830" x2="553.6" y2="833" stroke="#444"/>
<text x="553.6" y="845" text-anchor="middle" fill="#444">-3</text>
<line x1="581.1" y1="830" x2="581.1" y2="833" stroke="#444"/>
<text x="581.1" y="845" text-anchor="middle" fill="#444">-2</text>
<line x1="636.0" y1="830" x2="636.0" y2="833" stroke="#444"/>
<text x="636.0" y="845" text-anchor="middle" fill="#444">0</text>
<line x1="663.5" y1="830" x2="663.5" y2="833" stroke="#444"/>
<text x="663.5" y="845" text-anchor="middle" fill="#444">1</text>
<line x1="690.9" y1="830" x2="690.9" y2="833" stroke="#444"/>
<text x="690.9" y="845" text-anchor="middle" fill="#444">2</text>
<line x1="718.4" y1="830" x2="718.4" y2="833" stroke="#444"/>
<text x="718.4" y="845" text-anchor="middle" fill="#444">3</text>
<line x1="745.8" y1="830" x2="745.8" y2="833" stroke="#444"/>
<text x="745.8" y="845" text-anchor="middle" fill="#444">4</text>
<line x1="773.3" y1="830" x2="773.3" y2="833" stroke="#444"/>
<text x="773.3" y="845" text-anchor="middle" fill="#444">5</text>
<line x1="482" y1="830.0" x2="485" y2="830.0" stroke="#444"/>
<text x="479" y="833.0" text-anchor="end" fill="#444">-44</text>
<line x1="482" y1="790.0" x2="485" y2="790.0" stroke="#444"/>
<text x="479" y="793.0" text-anchor="end" fill="#444">-14</text>
<line x1="482" y1="750.0" x2="485" y2="750.0" stroke="#444"/>
<text x="479" y="753.0" text-anchor="end" fill="#444">16</text>
<line x1="482" y1="710.0" x2="485" y2="710.0" stroke="#444"/>
<text x="479" y="713.0" text-anchor="end" fill="#444">46</text>
<line x1="482" y1="670.0" x2="485" y2="670.0" stroke="#444"/>
<text x="479" y="673.0" text-anchor="end" fill="#444">76</text>
<text x="636.0" y="864" text-anchor="middle" fill="#444">Event time (years from adoption)</text>
<text x="437" y="750.0" text-anchor="middle" fill="#444" transform="rotate(-90 437 750.0)">ATT (per 100k)</text>
<text x="805" y="608" text-anchor="end" fill="#888" font-size="10">Shaded band: pointwise 95% CI from cluster bootstrap. Vertical dashed line marks the year before adoption.</text>
</svg>