<svg xmlns="http://www.w3.org/2000/svg" viewBox="0 0 820 620" font-family="-apple-system, Segoe UI, Helvetica, Arial, sans-serif" font-size="11">
<text x="410.0" y="22" text-anchor="middle" font-size="14" font-weight="600">Callaway-Sant'Anna ATT by event time (RA) -- universal background checks (universal)</text>
<rect x="15" y="40" width="380" height="260" fill="#fafaf7" stroke="#e2e2dc"/>
<text x="205.0" y="58" text-anchor="middle" font-weight="600">Firearm suicide rate (per 100k)</text>
<line x1="75" y1="201.170026307702" x2="377" y2="201.170026307702" stroke="#aaaaaa" stroke-width="0.7"/>
<polygon points="88.7,158.4 88.7,150.8 88.7,184.3 116.2,213.3 116.2,193.6 116.2,200.4 143.6,178.3 143.6,174.2 143.6,191.9 171.1,192.6 171.1,171.1 171.1,179.9 226.0,151.2 226.0,146.2 226.0,192.3 253.5,168.6 253.5,170.4 253.5,207.2 280.9,152.2 280.9,156.6 280.9,197.8 308.4,127.3 308.4,144.9 308.4,179.0 335.8,214.7 335.8,90.0 335.8,131.4 363.3,168.3 363.3,173.9 363.3,204.6 363.3,240.8 363.3,223.6 363.3,233.7 335.8,207.2 335.8,175.7 335.8,250.0 308.4,223.3 308.4,191.7 308.4,165.0 280.9,231.5 280.9,219.9 280.9,210.3 253.5,238.2 253.5,218.2 253.5,224.5 226.0,227.6 226.0,215.8 226.0,212.7 171.1,247.0 171.1,239.5 171.1,227.2 143.6,222.0 143.6,236.2 143.6,243.6 116.2,233.8 116.2,213.6 116.2,239.1 88.7,218.8 88.7,199.8 88.7,209.3" fill="#1f3a5f" opacity="0.18"/>
<polyline points="88.7,183.8 88.7,175.3 88.7,201.5 116.2,226.2 116.2,203.6 116.2,217.1 143.6,211.0 143.6,205.2 143.6,207.0 171.1,209.9 171.1,205.3 171.1,213.4 226.0,181.9 226.0,181.0 226.0,209.9 253.5,196.6 253.5,194.3 253.5,222.7 280.9,181.3 280.9,188.2 280.9,214.6 308.4,146.2 308.4,168.3 308.4,201.1 335.8,232.4 335.8,132.8 335.8,169.3 363.3,201.0 363.3,198.8 363.3,222.7" fill="none" stroke="#1f3a5f" stroke-width="1.6"/>
<circle cx="88.7" cy="183.8" r="2.6" fill="#1f3a5f"/>
<circle cx="88.7" cy="175.3" r="2.6" fill="#1f3a5f"/>
<circle cx="88.7" cy="201.5" r="2.6" fill="#1f3a5f"/>
<circle cx="116.2" cy="226.2" r="2.6" fill="#1f3a5f"/>
<circle cx="116.2" cy="203.6" r="2.6" fill="#1f3a5f"/>
<circle cx="116.2" cy="217.1" r="2.6" fill="#1f3a5f"/>
<circle cx="143.6" cy="211.0" r="2.6" fill="#1f3a5f"/>
<circle cx="143.6" cy="205.2" r="2.6" fill="#1f3a5f"/>
<circle cx="143.6" cy="207.0" r="2.6" fill="#1f3a5f"/>
<circle cx="171.1" cy="209.9" r="2.6" fill="#1f3a5f"/>
<circle cx="171.1" cy="205.3" r="2.6" fill="#1f3a5f"/>
<circle cx="171.1" cy="213.4" r="2.6" fill="#1f3a5f"/>
<circle cx="226.0" cy="181.9" r="2.6" fill="#1f3a5f"/>
<circle cx="226.0" cy="181.0" r="2.6" fill="#1f3a5f"/>
<circle cx="226.0" cy="209.9" r="2.6" fill="#1f3a5f"/>
<circle cx="253.5" cy="196.6" r="2.6" fill="#1f3a5f"/>
<circle cx="253.5" cy="194.3" r="2.6" fill="#1f3a5f"/>
<circle cx="253.5" cy="222.7" r="2.6" fill="#1f3a5f"/>
<circle cx="280.9" cy="181.3" r="2.6" fill="#1f3a5f"/>
<circle cx="280.9" cy="188.2" r="2.6" fill="#1f3a5f"/>
<circle cx="280.9" cy="214.6" r="2.6" fill="#1f3a5f"/>
<circle cx="308.4" cy="146.2" r="2.6" fill="#1f3a5f"/>
<circle cx="308.4" cy="168.3" r="2.6" fill="#1f3a5f"/>
<circle cx="308.4" cy="201.1" r="2.6" fill="#1f3a5f"/>
<circle cx="335.8" cy="232.4" r="2.6" fill="#1f3a5f"/>
<circle cx="335.8" cy="132.8" r="2.6" fill="#1f3a5f"/>
<circle cx="335.8" cy="169.3" r="2.6" fill="#1f3a5f"/>
<circle cx="363.3" cy="201.0" r="2.6" fill="#1f3a5f"/>
<circle cx="363.3" cy="198.8" r="2.6" fill="#1f3a5f"/>
<circle cx="363.3" cy="222.7" r="2.6" fill="#1f3a5f"/>
<line x1="212.3" y1="90" x2="212.3" y2="250" stroke="#b9461a" stroke-dasharray="3 3"/>
<line x1="75" y1="250" x2="377" y2="250" stroke="#444"/>
<line x1="75" y1="90" x2="75" y2="250" stroke="#444"/>
<line x1="88.7" y1="250" x2="88.7" y2="253" stroke="#444"/>
<text x="88.7" y="265" text-anchor="middle" fill="#444">-5</text>
<line x1="116.2" y1="250" x2="116.2" y2="253" stroke="#444"/>
<text x="116.2" y="265" text-anchor="middle" fill="#444">-4</text>
<line x1="143.6" y1="250" x2="143.6" y2="253" stroke="#444"/>
<text x="143.6" y="265" text-anchor="middle" fill="#444">-3</text>
<line x1="171.1" y1="250" x2="171.1" y2="253" stroke="#444"/>
<text x="171.1" y="265" text-anchor="middle" fill="#444">-2</text>
<line x1="226.0" y1="250" x2="226.0" y2="253" stroke="#444"/>
<text x="226.0" y="265" text-anchor="middle" fill="#444">0</text>
<line x1="253.5" y1="250" x2="253.5" y2="253" stroke="#444"/>
<text x="253.5" y="265" text-anchor="middle" fill="#444">1</text>
<line x1="280.9" y1="250" x2="280.9" y2="253" stroke="#444"/>
<text x="280.9" y="265" text-anchor="middle" fill="#444">2</text>
<line x1="308.4" y1="250" x2="308.4" y2="253" stroke="#444"/>
<text x="308.4" y="265" text-anchor="middle" fill="#444">3</text>
<line x1="335.8" y1="250" x2="335.8" y2="253" stroke="#444"/>
<text x="335.8" y="265" text-anchor="middle" fill="#444">4</text>
<line x1="363.3" y1="250" x2="363.3" y2="253" stroke="#444"/>
<text x="363.3" y="265" text-anchor="middle" fill="#444">5</text>
<line x1="72" y1="250.0" x2="75" y2="250.0" stroke="#444"/>
<text x="69" y="253.0" text-anchor="end" fill="#444">-0.95</text>
<line x1="72" y1="210.0" x2="75" y2="210.0" stroke="#444"/>
<text x="69" y="213.0" text-anchor="end" fill="#444">-0.17</text>
<line x1="72" y1="170.0" x2="75" y2="170.0" stroke="#444"/>
<text x="69" y="173.0" text-anchor="end" fill="#444">0.61</text>
<line x1="72" y1="130.0" x2="75" y2="130.0" stroke="#444"/>
<text x="69" y="133.0" text-anchor="end" fill="#444">1.4</text>
<line x1="72" y1="90.0" x2="75" y2="90.0" stroke="#444"/>
<text x="69" y="93.0" text-anchor="end" fill="#444">2.2</text>
<text x="226.0" y="284" text-anchor="middle" fill="#444">Event time (years from adoption)</text>
<text x="27" y="170.0" text-anchor="middle" fill="#444" transform="rotate(-90 27 170.0)">ATT (per 100k)</text>
<rect x="425" y="40" width="380" height="260" fill="#fafaf7" stroke="#e2e2dc"/>
<text x="615.0" y="58" text-anchor="middle" font-weight="600">Non-firearm suicide rate (per 100k) [substitution test]</text>
<line x1="485" y1="127.74192239236342" x2="787" y2="127.74192239236342" stroke="#aaaaaa" stroke-width="0.7"/>
<polygon points="498.7,153.2 498.7,132.2 498.7,122.5 526.2,90.0 526.2,93.1 526.2,104.6 553.6,112.7 553.6,98.4 553.6,121.7 581.1,135.4 581.1,145.8 581.1,137.2 636.0,118.6 636.0,117.6 636.0,96.8 663.5,153.6 663.5,153.5 663.5,117.7 690.9,165.3 690.9,186.0 690.9,139.3 718.4,181.7 718.4,182.0 718.4,123.0 745.8,134.0 745.8,171.7 745.8,158.6 773.3,181.1 773.3,172.6 773.3,113.9 773.3,179.8 773.3,227.2 773.3,250.0 745.8,194.7 745.8,225.8 745.8,177.8 718.4,165.9 718.4,214.5 718.4,211.6 690.9,159.9 690.9,218.9 690.9,195.1 663.5,151.2 663.5,186.0 663.5,187.7 636.0,130.8 636.0,149.9 636.0,147.0 581.1,192.4 581.1,196.3 581.1,169.2 553.6,143.2 553.6,136.2 553.6,146.8 526.2,151.6 526.2,124.3 526.2,140.7 498.7,139.2 498.7,164.4 498.7,175.9" fill="#1f3a5f" opacity="0.18"/>
<polyline points="498.7,164.5 498.7,148.3 498.7,130.8 526.2,115.3 526.2,108.7 526.2,128.1 553.6,129.7 553.6,117.3 553.6,132.5 581.1,152.3 581.1,171.0 581.1,164.8 636.0,132.8 636.0,133.8 636.0,113.8 663.5,170.7 663.5,169.7 663.5,134.5 690.9,180.2 690.9,202.5 690.9,149.6 718.4,196.7 718.4,198.3 718.4,144.4 745.8,155.9 745.8,198.8 745.8,176.6 773.3,215.5 773.3,199.9 773.3,146.8" fill="none" stroke="#1f3a5f" stroke-width="1.6"/>
<circle cx="498.7" cy="164.5" r="2.6" fill="#1f3a5f"/>
<circle cx="498.7" cy="148.3" r="2.6" fill="#1f3a5f"/>
<circle cx="498.7" cy="130.8" r="2.6" fill="#1f3a5f"/>
<circle cx="526.2" cy="115.3" r="2.6" fill="#1f3a5f"/>
<circle cx="526.2" cy="108.7" r="2.6" fill="#1f3a5f"/>
<circle cx="526.2" cy="128.1" r="2.6" fill="#1f3a5f"/>
<circle cx="553.6" cy="129.7" r="2.6" fill="#1f3a5f"/>
<circle cx="553.6" cy="117.3" r="2.6" fill="#1f3a5f"/>
<circle cx="553.6" cy="132.5" r="2.6" fill="#1f3a5f"/>
<circle cx="581.1" cy="152.3" r="2.6" fill="#1f3a5f"/>
<circle cx="581.1" cy="171.0" r="2.6" fill="#1f3a5f"/>
<circle cx="581.1" cy="164.8" r="2.6" fill="#1f3a5f"/>
<circle cx="636.0" cy="132.8" r="2.6" fill="#1f3a5f"/>
<circle cx="636.0" cy="133.8" r="2.6" fill="#1f3a5f"/>
<circle cx="636.0" cy="113.8" r="2.6" fill="#1f3a5f"/>
<circle cx="663.5" cy="170.7" r="2.6" fill="#1f3a5f"/>
<circle cx="663.5" cy="169.7" r="2.6" fill="#1f3a5f"/>
<circle cx="663.5" cy="134.5" r="2.6" fill="#1f3a5f"/>
<circle cx="690.9" cy="180.2" r="2.6" fill="#1f3a5f"/>
<circle cx="690.9" cy="202.5" r="2.6" fill="#1f3a5f"/>
<circle cx="690.9" cy="149.6" r="2.6" fill="#1f3a5f"/>
<circle cx="718.4" cy="196.7" r="2.6" fill="#1f3a5f"/>
<circle cx="718.4" cy="198.3" r="2.6" fill="#1f3a5f"/>
<circle cx="718.4" cy="144.4" r="2.6" fill="#1f3a5f"/>
<circle cx="745.8" cy="155.9" r="2.6" fill="#1f3a5f"/>
<circle cx="745.8" cy="198.8" r="2.6" fill="#1f3a5f"/>
<circle cx="745.8" cy="176.6" r="2.6" fill="#1f3a5f"/>
<circle cx="773.3" cy="215.5" r="2.6" fill="#1f3a5f"/>
<circle cx="773.3" cy="199.9" r="2.6" fill="#1f3a5f"/>
<circle cx="773.3" cy="146.8" r="2.6" fill="#1f3a5f"/>
<line x1="622.3" y1="90" x2="622.3" y2="250" stroke="#b9461a" stroke-dasharray="3 3"/>
<line x1="485" y1="250" x2="787" y2="250" stroke="#444"/>
<line x1="485" y1="90" x2="485" y2="250" stroke="#444"/>
<line x1="498.7" y1="250" x2="498.7" y2="253" stroke="#444"/>
<text x="498.7" y="265" text-anchor="middle" fill="#444">-5</text>
<line x1="526.2" y1="250" x2="526.2" y2="253" stroke="#444"/>
<text x="526.2" y="265" text-anchor="middle" fill="#444">-4</text>
<line x1="553.6" y1="250" x2="553.6" y2="253" stroke="#444"/>
<text x="553.6" y="265" text-anchor="middle" fill="#444">-3</text>
<line x1="581.1" y1="250" x2="581.1" y2="253" stroke="#444"/>
<text x="581.1" y="265" text-anchor="middle" fill="#444">-2</text>
<line x1="636.0" y1="250" x2="636.0" y2="253" stroke="#444"/>
<text x="636.0" y="265" text-anchor="middle" fill="#444">0</text>
<line x1="663.5" y1="250" x2="663.5" y2="253" stroke="#444"/>
<text x="663.5" y="265" text-anchor="middle" fill="#444">1</text>
<line x1="690.9" y1="250" x2="690.9" y2="253" stroke="#444"/>
<text x="690.9" y="265" text-anchor="middle" fill="#444">2</text>
<line x1="718.4" y1="250" x2="718.4" y2="253" stroke="#444"/>
<text x="718.4" y="265" text-anchor="middle" fill="#444">3</text>
<line x1="745.8" y1="250" x2="745.8" y2="253" stroke="#444"/>
<text x="745.8" y="265" text-anchor="middle" fill="#444">4</text>
<line x1="773.3" y1="250" x2="773.3" y2="253" stroke="#444"/>
<text x="773.3" y="265" text-anchor="middle" fill="#444">5</text>
<line x1="482" y1="250.0" x2="485" y2="250.0" stroke="#444"/>
<text x="479" y="253.0" text-anchor="end" fill="#444">-2.8</text>
<line x1="482" y1="210.0" x2="485" y2="210.0" stroke="#444"/>
<text x="479" y="213.0" text-anchor="end" fill="#444">-1.9</text>
<line x1="482" y1="170.0" x2="485" y2="170.0" stroke="#444"/>
<text x="479" y="173.0" text-anchor="end" fill="#444">-0.96</text>
<line x1="482" y1="130.0" x2="485" y2="130.0" stroke="#444"/>
<text x="479" y="133.0" text-anchor="end" fill="#444">-0.051</text>
<line x1="482" y1="90.0" x2="485" y2="90.0" stroke="#444"/>
<text x="479" y="93.0" text-anchor="end" fill="#444">0.85</text>
<text x="636.0" y="284" text-anchor="middle" fill="#444">Event time (years from adoption)</text>
<text x="437" y="170.0" text-anchor="middle" fill="#444" transform="rotate(-90 437 170.0)">ATT (per 100k)</text>
<rect x="15" y="330" width="380" height="260" fill="#fafaf7" stroke="#e2e2dc"/>
<text x="205.0" y="348" text-anchor="middle" font-weight="600">Total suicide rate (per 100k) [net effect]</text>
<line x1="75" y1="422.6359836905113" x2="377" y2="422.6359836905113" stroke="#aaaaaa" stroke-width="0.7"/>
<polygon points="88.7,417.1 88.7,393.9 88.7,410.6 116.2,404.4 116.2,392.9 116.2,407.5 143.6,411.6 143.6,396.0 143.6,420.9 171.1,434.7 171.1,435.5 171.1,429.9 226.0,383.6 226.0,380.0 226.0,403.2 253.5,426.1 253.5,428.3 253.5,424.4 280.9,425.9 280.9,451.3 280.9,436.0 308.4,419.0 308.4,430.7 308.4,411.3 335.8,441.1 335.8,399.2 335.8,409.2 363.3,445.5 363.3,443.7 363.3,420.3 363.3,485.2 363.3,513.8 363.3,540.0 335.8,470.4 335.8,465.4 335.8,492.3 308.4,460.7 308.4,482.0 308.4,460.7 280.9,462.8 280.9,495.7 280.9,475.8 253.5,461.4 253.5,474.8 253.5,481.6 226.0,431.8 226.0,447.1 226.0,443.2 171.1,491.5 171.1,484.8 171.1,461.9 143.6,439.9 143.6,438.0 143.6,450.4 116.2,460.3 116.2,425.2 116.2,455.6 88.7,440.1 88.7,448.5 88.7,463.2" fill="#1f3a5f" opacity="0.18"/>
<polyline points="88.7,440.1 88.7,421.2 88.7,425.4 116.2,430.0 116.2,409.1 116.2,433.9 143.6,431.0 143.6,417.0 143.6,430.4 171.1,448.3 171.1,460.1 171.1,460.7 226.0,413.4 226.0,413.6 226.0,417.5 253.5,453.8 253.5,451.5 253.5,442.9 280.9,450.9 280.9,473.5 280.9,449.4 308.4,439.9 308.4,456.4 308.4,436.0 335.8,466.7 335.8,432.3 335.8,439.8 363.3,492.8 363.3,478.8 363.3,452.8" fill="none" stroke="#1f3a5f" stroke-width="1.6"/>
<circle cx="88.7" cy="440.1" r="2.6" fill="#1f3a5f"/>
<circle cx="88.7" cy="421.2" r="2.6" fill="#1f3a5f"/>
<circle cx="88.7" cy="425.4" r="2.6" fill="#1f3a5f"/>
<circle cx="116.2" cy="430.0" r="2.6" fill="#1f3a5f"/>
<circle cx="116.2" cy="409.1" r="2.6" fill="#1f3a5f"/>
<circle cx="116.2" cy="433.9" r="2.6" fill="#1f3a5f"/>
<circle cx="143.6" cy="431.0" r="2.6" fill="#1f3a5f"/>
<circle cx="143.6" cy="417.0" r="2.6" fill="#1f3a5f"/>
<circle cx="143.6" cy="430.4" r="2.6" fill="#1f3a5f"/>
<circle cx="171.1" cy="448.3" r="2.6" fill="#1f3a5f"/>
<circle cx="171.1" cy="460.1" r="2.6" fill="#1f3a5f"/>
<circle cx="171.1" cy="460.7" r="2.6" fill="#1f3a5f"/>
<circle cx="226.0" cy="413.4" r="2.6" fill="#1f3a5f"/>
<circle cx="226.0" cy="413.6" r="2.6" fill="#1f3a5f"/>
<circle cx="226.0" cy="417.5" r="2.6" fill="#1f3a5f"/>
<circle cx="253.5" cy="453.8" r="2.6" fill="#1f3a5f"/>
<circle cx="253.5" cy="451.5" r="2.6" fill="#1f3a5f"/>
<circle cx="253.5" cy="442.9" r="2.6" fill="#1f3a5f"/>
<circle cx="280.9" cy="450.9" r="2.6" fill="#1f3a5f"/>
<circle cx="280.9" cy="473.5" r="2.6" fill="#1f3a5f"/>
<circle cx="280.9" cy="449.4" r="2.6" fill="#1f3a5f"/>
<circle cx="308.4" cy="439.9" r="2.6" fill="#1f3a5f"/>
<circle cx="308.4" cy="456.4" r="2.6" fill="#1f3a5f"/>
<circle cx="308.4" cy="436.0" r="2.6" fill="#1f3a5f"/>
<circle cx="335.8" cy="466.7" r="2.6" fill="#1f3a5f"/>
<circle cx="335.8" cy="432.3" r="2.6" fill="#1f3a5f"/>
<circle cx="335.8" cy="439.8" r="2.6" fill="#1f3a5f"/>
<circle cx="363.3" cy="492.8" r="2.6" fill="#1f3a5f"/>
<circle cx="363.3" cy="478.8" r="2.6" fill="#1f3a5f"/>
<circle cx="363.3" cy="452.8" r="2.6" fill="#1f3a5f"/>
<line x1="212.3" y1="380" x2="212.3" y2="540" stroke="#b9461a" stroke-dasharray="3 3"/>
<line x1="75" y1="540" x2="377" y2="540" stroke="#444"/>
<line x1="75" y1="380" x2="75" y2="540" stroke="#444"/>
<line x1="88.7" y1="540" x2="88.7" y2="543" stroke="#444"/>
<text x="88.7" y="555" text-anchor="middle" fill="#444">-5</text>
<line x1="116.2" y1="540" x2="116.2" y2="543" stroke="#444"/>
<text x="116.2" y="555" text-anchor="middle" fill="#444">-4</text>
<line x1="143.6" y1="540" x2="143.6" y2="543" stroke="#444"/>
<text x="143.6" y="555" text-anchor="middle" fill="#444">-3</text>
<line x1="171.1" y1="540" x2="171.1" y2="543" stroke="#444"/>
<text x="171.1" y="555" text-anchor="middle" fill="#444">-2</text>
<line x1="226.0" y1="540" x2="226.0" y2="543" stroke="#444"/>
<text x="226.0" y="555" text-anchor="middle" fill="#444">0</text>
<line x1="253.5" y1="540" x2="253.5" y2="543" stroke="#444"/>
<text x="253.5" y="555" text-anchor="middle" fill="#444">1</text>
<line x1="280.9" y1="540" x2="280.9" y2="543" stroke="#444"/>
<text x="280.9" y="555" text-anchor="middle" fill="#444">2</text>
<line x1="308.4" y1="540" x2="308.4" y2="543" stroke="#444"/>
<text x="308.4" y="555" text-anchor="middle" fill="#444">3</text>
<line x1="335.8" y1="540" x2="335.8" y2="543" stroke="#444"/>
<text x="335.8" y="555" text-anchor="middle" fill="#444">4</text>
<line x1="363.3" y1="540" x2="363.3" y2="543" stroke="#444"/>
<text x="363.3" y="555" text-anchor="middle" fill="#444">5</text>
<line x1="72" y1="540.0" x2="75" y2="540.0" stroke="#444"/>
<text x="69" y="543.0" text-anchor="end" fill="#444">-3.3</text>
<line x1="72" y1="500.0" x2="75" y2="500.0" stroke="#444"/>
<text x="69" y="503.0" text-anchor="end" fill="#444">-2.2</text>
<line x1="72" y1="460.0" x2="75" y2="460.0" stroke="#444"/>
<text x="69" y="463.0" text-anchor="end" fill="#444">-1.1</text>
<line x1="72" y1="420.0" x2="75" y2="420.0" stroke="#444"/>
<text x="69" y="423.0" text-anchor="end" fill="#444">0.074</text>
<line x1="72" y1="380.0" x2="75" y2="380.0" stroke="#444"/>
<text x="69" y="383.0" text-anchor="end" fill="#444">1.2</text>
<text x="226.0" y="574" text-anchor="middle" fill="#444">Event time (years from adoption)</text>
<text x="27" y="460.0" text-anchor="middle" fill="#444" transform="rotate(-90 27 460.0)">ATT (per 100k)</text>
<rect x="425" y="330" width="380" height="260" fill="#fafaf7" stroke="#e2e2dc"/>
<text x="615.0" y="348" text-anchor="middle" font-weight="600">Firearm homicide rate (per 100k)</text>
<line x1="485" y1="407.9431787210202" x2="787" y2="407.9431787210202" stroke="#aaaaaa" stroke-width="0.7"/>
<polygon points="498.7,416.8 498.7,422.2 498.7,413.0 526.2,393.8 526.2,396.0 526.2,386.6 553.6,380.0 553.6,388.3 553.6,397.0 581.1,414.3 581.1,405.9 581.1,414.1 636.0,387.8 636.0,401.9 636.0,398.9 663.5,406.8 663.5,397.9 663.5,422.3 690.9,414.5 690.9,427.6 690.9,424.2 718.4,402.7 718.4,419.1 718.4,412.3 745.8,387.7 745.8,421.8 745.8,402.5 773.3,467.7 773.3,427.0 773.3,417.3 773.3,456.9 773.3,480.6 773.3,540.0 745.8,439.9 745.8,479.1 745.8,423.7 718.4,429.9 718.4,453.2 718.4,428.9 690.9,446.7 690.9,465.3 690.9,448.5 663.5,442.0 663.5,432.3 663.5,437.1 636.0,413.1 636.0,421.1 636.0,410.9 581.1,439.5 581.1,436.7 581.1,434.9 553.6,417.8 553.6,415.7 553.6,410.7 526.2,424.3 526.2,418.8 526.2,423.9 498.7,435.2 498.7,459.0 498.7,461.2" fill="#1f3a5f" opacity="0.18"/>
<polyline points="498.7,439.0 498.7,440.6 498.7,424.1 526.2,408.9 526.2,407.4 526.2,405.4 553.6,395.3 553.6,402.0 553.6,407.4 581.1,424.6 581.1,421.3 581.1,426.8 636.0,399.4 636.0,411.5 636.0,406.0 663.5,422.0 663.5,415.1 663.5,432.2 690.9,431.5 690.9,446.5 690.9,435.4 718.4,415.8 718.4,436.2 718.4,421.1 745.8,405.7 745.8,450.5 745.8,421.2 773.3,503.9 773.3,453.8 773.3,437.1" fill="none" stroke="#1f3a5f" stroke-width="1.6"/>
<circle cx="498.7" cy="439.0" r="2.6" fill="#1f3a5f"/>
<circle cx="498.7" cy="440.6" r="2.6" fill="#1f3a5f"/>
<circle cx="498.7" cy="424.1" r="2.6" fill="#1f3a5f"/>
<circle cx="526.2" cy="408.9" r="2.6" fill="#1f3a5f"/>
<circle cx="526.2" cy="407.4" r="2.6" fill="#1f3a5f"/>
<circle cx="526.2" cy="405.4" r="2.6" fill="#1f3a5f"/>
<circle cx="553.6" cy="395.3" r="2.6" fill="#1f3a5f"/>
<circle cx="553.6" cy="402.0" r="2.6" fill="#1f3a5f"/>
<circle cx="553.6" cy="407.4" r="2.6" fill="#1f3a5f"/>
<circle cx="581.1" cy="424.6" r="2.6" fill="#1f3a5f"/>
<circle cx="581.1" cy="421.3" r="2.6" fill="#1f3a5f"/>
<circle cx="581.1" cy="426.8" r="2.6" fill="#1f3a5f"/>
<circle cx="636.0" cy="399.4" r="2.6" fill="#1f3a5f"/>
<circle cx="636.0" cy="411.5" r="2.6" fill="#1f3a5f"/>
<circle cx="636.0" cy="406.0" r="2.6" fill="#1f3a5f"/>
<circle cx="663.5" cy="422.0" r="2.6" fill="#1f3a5f"/>
<circle cx="663.5" cy="415.1" r="2.6" fill="#1f3a5f"/>
<circle cx="663.5" cy="432.2" r="2.6" fill="#1f3a5f"/>
<circle cx="690.9" cy="431.5" r="2.6" fill="#1f3a5f"/>
<circle cx="690.9" cy="446.5" r="2.6" fill="#1f3a5f"/>
<circle cx="690.9" cy="435.4" r="2.6" fill="#1f3a5f"/>
<circle cx="718.4" cy="415.8" r="2.6" fill="#1f3a5f"/>
<circle cx="718.4" cy="436.2" r="2.6" fill="#1f3a5f"/>
<circle cx="718.4" cy="421.1" r="2.6" fill="#1f3a5f"/>
<circle cx="745.8" cy="405.7" r="2.6" fill="#1f3a5f"/>
<circle cx="745.8" cy="450.5" r="2.6" fill="#1f3a5f"/>
<circle cx="745.8" cy="421.2" r="2.6" fill="#1f3a5f"/>
<circle cx="773.3" cy="503.9" r="2.6" fill="#1f3a5f"/>
<circle cx="773.3" cy="453.8" r="2.6" fill="#1f3a5f"/>
<circle cx="773.3" cy="437.1" r="2.6" fill="#1f3a5f"/>
<line x1="622.3" y1="380" x2="622.3" y2="540" stroke="#b9461a" stroke-dasharray="3 3"/>
<line x1="485" y1="540" x2="787" y2="540" stroke="#444"/>
<line x1="485" y1="380" x2="485" y2="540" stroke="#444"/>
<line x1="498.7" y1="540" x2="498.7" y2="543" stroke="#444"/>
<text x="498.7" y="555" text-anchor="middle" fill="#444">-5</text>
<line x1="526.2" y1="540" x2="526.2" y2="543" stroke="#444"/>
<text x="526.2" y="555" text-anchor="middle" fill="#444">-4</text>
<line x1="553.6" y1="540" x2="553.6" y2="543" stroke="#444"/>
<text x="553.6" y="555" text-anchor="middle" fill="#444">-3</text>
<line x1="581.1" y1="540" x2="581.1" y2="543" stroke="#444"/>
<text x="581.1" y="555" text-anchor="middle" fill="#444">-2</text>
<line x1="636.0" y1="540" x2="636.0" y2="543" stroke="#444"/>
<text x="636.0" y="555" text-anchor="middle" fill="#444">0</text>
<line x1="663.5" y1="540" x2="663.5" y2="543" stroke="#444"/>
<text x="663.5" y="555" text-anchor="middle" fill="#444">1</text>
<line x1="690.9" y1="540" x2="690.9" y2="543" stroke="#444"/>
<text x="690.9" y="555" text-anchor="middle" fill="#444">2</text>
<line x1="718.4" y1="540" x2="718.4" y2="543" stroke="#444"/>
<text x="718.4" y="555" text-anchor="middle" fill="#444">3</text>
<line x1="745.8" y1="540" x2="745.8" y2="543" stroke="#444"/>
<text x="745.8" y="555" text-anchor="middle" fill="#444">4</text>
<line x1="773.3" y1="540" x2="773.3" y2="543" stroke="#444"/>
<text x="773.3" y="555" text-anchor="middle" fill="#444">5</text>
<line x1="482" y1="540.0" x2="485" y2="540.0" stroke="#444"/>
<text x="479" y="543.0" text-anchor="end" fill="#444">-2.5</text>
<line x1="482" y1="500.0" x2="485" y2="500.0" stroke="#444"/>
<text x="479" y="503.0" text-anchor="end" fill="#444">-1.7</text>
<line x1="482" y1="460.0" x2="485" y2="460.0" stroke="#444"/>
<text x="479" y="463.0" text-anchor="end" fill="#444">-0.97</text>
<line x1="482" y1="420.0" x2="485" y2="420.0" stroke="#444"/>
<text x="479" y="423.0" text-anchor="end" fill="#444">-0.22</text>
<line x1="482" y1="380.0" x2="485" y2="380.0" stroke="#444"/>
<text x="479" y="383.0" text-anchor="end" fill="#444">0.52</text>
<text x="636.0" y="574" text-anchor="middle" fill="#444">Event time (years from adoption)</text>
<text x="437" y="460.0" text-anchor="middle" fill="#444" transform="rotate(-90 437 460.0)">ATT (per 100k)</text>
<rect x="15" y="620" width="380" height="260" fill="#fafaf7" stroke="#e2e2dc"/>
<text x="205.0" y="638" text-anchor="middle" font-weight="600">Total homicide rate (per 100k)</text>
<line x1="75" y1="704.6308463365644" x2="377" y2="704.6308463365644" stroke="#aaaaaa" stroke-width="0.7"/>
<polygon points="88.7,723.3 88.7,738.3 88.7,719.6 116.2,715.3 116.2,698.2 116.2,701.8 143.6,695.2 143.6,704.5 143.6,700.8 171.1,713.0 171.1,692.1 171.1,699.5 226.0,697.7 226.0,707.0 226.0,701.8 253.5,687.5 253.5,679.0 253.5,716.1 280.9,675.4 280.9,670.0 280.9,713.1 308.4,711.6 308.4,729.4 308.4,736.4 335.8,698.6 335.8,696.9 335.8,696.0 363.3,770.4 363.3,750.8 363.3,770.6 363.3,805.2 363.3,799.6 363.3,830.0 335.8,736.6 335.8,749.6 335.8,737.7 308.4,765.0 308.4,774.9 308.4,752.3 280.9,737.1 280.9,710.5 280.9,709.0 253.5,741.7 253.5,717.9 253.5,735.4 226.0,724.8 226.0,753.5 226.0,741.1 171.1,732.0 171.1,725.8 171.1,734.9 143.6,727.1 143.6,748.2 143.6,733.5 116.2,746.3 116.2,723.8 116.2,753.9 88.7,748.9 88.7,780.8 88.7,765.9" fill="#1f3a5f" opacity="0.18"/>
<polyline points="88.7,744.6 88.7,759.6 88.7,734.3 116.2,734.6 116.2,711.0 116.2,724.1 143.6,714.4 143.6,726.3 143.6,714.0 171.1,723.9 171.1,708.9 171.1,715.8 226.0,719.4 226.0,730.3 226.0,713.3 253.5,711.5 253.5,698.5 253.5,728.9 280.9,692.2 280.9,690.3 280.9,725.1 308.4,732.0 308.4,752.1 308.4,750.7 335.8,718.2 335.8,723.3 335.8,716.3 363.3,800.2 363.3,775.2 363.3,787.9" fill="none" stroke="#1f3a5f" stroke-width="1.6"/>
<circle cx="88.7" cy="744.6" r="2.6" fill="#1f3a5f"/>
<circle cx="88.7" cy="759.6" r="2.6" fill="#1f3a5f"/>
<circle cx="88.7" cy="734.3" r="2.6" fill="#1f3a5f"/>
<circle cx="116.2" cy="734.6" r="2.6" fill="#1f3a5f"/>
<circle cx="116.2" cy="711.0" r="2.6" fill="#1f3a5f"/>
<circle cx="116.2" cy="724.1" r="2.6" fill="#1f3a5f"/>
<circle cx="143.6" cy="714.4" r="2.6" fill="#1f3a5f"/>
<circle cx="143.6" cy="726.3" r="2.6" fill="#1f3a5f"/>
<circle cx="143.6" cy="714.0" r="2.6" fill="#1f3a5f"/>
<circle cx="171.1" cy="723.9" r="2.6" fill="#1f3a5f"/>
<circle cx="171.1" cy="708.9" r="2.6" fill="#1f3a5f"/>
<circle cx="171.1" cy="715.8" r="2.6" fill="#1f3a5f"/>
<circle cx="226.0" cy="719.4" r="2.6" fill="#1f3a5f"/>
<circle cx="226.0" cy="730.3" r="2.6" fill="#1f3a5f"/>
<circle cx="226.0" cy="713.3" r="2.6" fill="#1f3a5f"/>
<circle cx="253.5" cy="711.5" r="2.6" fill="#1f3a5f"/>
<circle cx="253.5" cy="698.5" r="2.6" fill="#1f3a5f"/>
<circle cx="253.5" cy="728.9" r="2.6" fill="#1f3a5f"/>
<circle cx="280.9" cy="692.2" r="2.6" fill="#1f3a5f"/>
<circle cx="280.9" cy="690.3" r="2.6" fill="#1f3a5f"/>
<circle cx="280.9" cy="725.1" r="2.6" fill="#1f3a5f"/>
<circle cx="308.4" cy="732.0" r="2.6" fill="#1f3a5f"/>
<circle cx="308.4" cy="752.1" r="2.6" fill="#1f3a5f"/>
<circle cx="308.4" cy="750.7" r="2.6" fill="#1f3a5f"/>
<circle cx="335.8" cy="718.2" r="2.6" fill="#1f3a5f"/>
<circle cx="335.8" cy="723.3" r="2.6" fill="#1f3a5f"/>
<circle cx="335.8" cy="716.3" r="2.6" fill="#1f3a5f"/>
<circle cx="363.3" cy="800.2" r="2.6" fill="#1f3a5f"/>
<circle cx="363.3" cy="775.2" r="2.6" fill="#1f3a5f"/>
<circle cx="363.3" cy="787.9" r="2.6" fill="#1f3a5f"/>
<line x1="212.3" y1="670" x2="212.3" y2="830" stroke="#b9461a" stroke-dasharray="3 3"/>
<line x1="75" y1="830" x2="377" y2="830" stroke="#444"/>
<line x1="75" y1="670" x2="75" y2="830" stroke="#444"/>
<line x1="88.7" y1="830" x2="88.7" y2="833" stroke="#444"/>
<text x="88.7" y="845" text-anchor="middle" fill="#444">-5</text>
<line x1="116.2" y1="830" x2="116.2" y2="833" stroke="#444"/>
<text x="116.2" y="845" text-anchor="middle" fill="#444">-4</text>
<line x1="143.6" y1="830" x2="143.6" y2="833" stroke="#444"/>
<text x="143.6" y="845" text-anchor="middle" fill="#444">-3</text>
<line x1="171.1" y1="830" x2="171.1" y2="833" stroke="#444"/>
<text x="171.1" y="845" text-anchor="middle" fill="#444">-2</text>
<line x1="226.0" y1="830" x2="226.0" y2="833" stroke="#444"/>
<text x="226.0" y="845" text-anchor="middle" fill="#444">0</text>
<line x1="253.5" y1="830" x2="253.5" y2="833" stroke="#444"/>
<text x="253.5" y="845" text-anchor="middle" fill="#444">1</text>
<line x1="280.9" y1="830" x2="280.9" y2="833" stroke="#444"/>
<text x="280.9" y="845" text-anchor="middle" fill="#444">2</text>
<line x1="308.4" y1="830" x2="308.4" y2="833" stroke="#444"/>
<text x="308.4" y="845" text-anchor="middle" fill="#444">3</text>
<line x1="335.8" y1="830" x2="335.8" y2="833" stroke="#444"/>
<text x="335.8" y="845" text-anchor="middle" fill="#444">4</text>
<line x1="363.3" y1="830" x2="363.3" y2="833" stroke="#444"/>
<text x="363.3" y="845" text-anchor="middle" fill="#444">5</text>
<line x1="72" y1="830.0" x2="75" y2="830.0" stroke="#444"/>
<text x="69" y="833.0" text-anchor="end" fill="#444">-2.5</text>
<line x1="72" y1="790.0" x2="75" y2="790.0" stroke="#444"/>
<text x="69" y="793.0" text-anchor="end" fill="#444">-1.7</text>
<line x1="72" y1="750.0" x2="75" y2="750.0" stroke="#444"/>
<text x="69" y="753.0" text-anchor="end" fill="#444">-0.9</text>
<line x1="72" y1="710.0" x2="75" y2="710.0" stroke="#444"/>
<text x="69" y="713.0" text-anchor="end" fill="#444">-0.11</text>
<line x1="72" y1="670.0" x2="75" y2="670.0" stroke="#444"/>
<text x="69" y="673.0" text-anchor="end" fill="#444">0.69</text>
<text x="226.0" y="864" text-anchor="middle" fill="#444">Event time (years from adoption)</text>
<text x="27" y="750.0" text-anchor="middle" fill="#444" transform="rotate(-90 27 750.0)">ATT (per 100k)</text>
<rect x="425" y="620" width="380" height="260" fill="#fafaf7" stroke="#e2e2dc"/>
<text x="615.0" y="638" text-anchor="middle" font-weight="600">Motor vehicle theft rate (per 100k) [placebo]</text>
<line x1="485" y1="738.555566368449" x2="787" y2="738.555566368449" stroke="#aaaaaa" stroke-width="0.7"/>
<polygon points="498.7,748.0 498.7,751.3 498.7,761.7 526.2,742.4 526.2,744.9 526.2,739.9 553.6,724.0 553.6,727.6 553.6,733.3 581.1,737.5 581.1,744.3 581.1,740.9 636.0,738.0 636.0,742.0 636.0,738.5 663.5,736.7 663.5,727.9 663.5,743.5 690.9,691.8 690.9,702.1 690.9,701.6 718.4,670.0 718.4,681.3 718.4,710.5 745.8,700.3 745.8,706.7 745.8,690.3 773.3,762.7 773.3,728.9 773.3,712.2 773.3,758.3 773.3,776.9 773.3,830.0 745.8,716.4 745.8,744.4 745.8,730.7 718.4,736.8 718.4,719.0 718.4,698.3 690.9,721.3 690.9,721.3 690.9,709.4 663.5,755.9 663.5,741.6 663.5,751.2 636.0,746.4 636.0,755.9 636.0,750.0 581.1,750.7 581.1,753.1 581.1,746.0 553.6,748.9 553.6,740.0 553.6,739.0 526.2,756.5 526.2,761.5 526.2,756.5 498.7,787.1 498.7,778.4 498.7,781.5" fill="#1f3a5f" opacity="0.18"/>
<polyline points="498.7,764.8 498.7,764.8 498.7,774.4 526.2,749.4 526.2,753.2 526.2,748.2 553.6,731.5 553.6,733.8 553.6,741.1 581.1,741.8 581.1,748.7 581.1,745.8 636.0,744.0 636.0,748.9 636.0,742.5 663.5,743.9 663.5,734.8 663.5,749.7 690.9,700.6 690.9,711.7 690.9,711.4 718.4,684.2 718.4,700.2 718.4,723.7 745.8,715.5 745.8,725.5 745.8,703.3 773.3,796.4 773.3,752.9 773.3,735.3" fill="none" stroke="#1f3a5f" stroke-width="1.6"/>
<circle cx="498.7" cy="764.8" r="2.6" fill="#1f3a5f"/>
<circle cx="498.7" cy="764.8" r="2.6" fill="#1f3a5f"/>
<circle cx="498.7" cy="774.4" r="2.6" fill="#1f3a5f"/>
<circle cx="526.2" cy="749.4" r="2.6" fill="#1f3a5f"/>
<circle cx="526.2" cy="753.2" r="2.6" fill="#1f3a5f"/>
<circle cx="526.2" cy="748.2" r="2.6" fill="#1f3a5f"/>
<circle cx="553.6" cy="731.5" r="2.6" fill="#1f3a5f"/>
<circle cx="553.6" cy="733.8" r="2.6" fill="#1f3a5f"/>
<circle cx="553.6" cy="741.1" r="2.6" fill="#1f3a5f"/>
<circle cx="581.1" cy="741.8" r="2.6" fill="#1f3a5f"/>
<circle cx="581.1" cy="748.7" r="2.6" fill="#1f3a5f"/>
<circle cx="581.1" cy="745.8" r="2.6" fill="#1f3a5f"/>
<circle cx="636.0" cy="744.0" r="2.6" fill="#1f3a5f"/>
<circle cx="636.0" cy="748.9" r="2.6" fill="#1f3a5f"/>
<circle cx="636.0" cy="742.5" r="2.6" fill="#1f3a5f"/>
<circle cx="663.5" cy="743.9" r="2.6" fill="#1f3a5f"/>
<circle cx="663.5" cy="734.8" r="2.6" fill="#1f3a5f"/>
<circle cx="663.5" cy="749.7" r="2.6" fill="#1f3a5f"/>
<circle cx="690.9" cy="700.6" r="2.6" fill="#1f3a5f"/>
<circle cx="690.9" cy="711.7" r="2.6" fill="#1f3a5f"/>
<circle cx="690.9" cy="711.4" r="2.6" fill="#1f3a5f"/>
<circle cx="718.4" cy="684.2" r="2.6" fill="#1f3a5f"/>
<circle cx="718.4" cy="700.2" r="2.6" fill="#1f3a5f"/>
<circle cx="718.4" cy="723.7" r="2.6" fill="#1f3a5f"/>
<circle cx="745.8" cy="715.5" r="2.6" fill="#1f3a5f"/>
<circle cx="745.8" cy="725.5" r="2.6" fill="#1f3a5f"/>
<circle cx="745.8" cy="703.3" r="2.6" fill="#1f3a5f"/>
<circle cx="773.3" cy="796.4" r="2.6" fill="#1f3a5f"/>
<circle cx="773.3" cy="752.9" r="2.6" fill="#1f3a5f"/>
<circle cx="773.3" cy="735.3" r="2.6" fill="#1f3a5f"/>
<line x1="622.3" y1="670" x2="622.3" y2="830" stroke="#b9461a" stroke-dasharray="3 3"/>
<line x1="485" y1="830" x2="787" y2="830" stroke="#444"/>
<line x1="485" y1="670" x2="485" y2="830" stroke="#444"/>
<line x1="498.7" y1="830" x2="498.7" y2="833" stroke="#444"/>
<text x="498.7" y="845" text-anchor="middle" fill="#444">-5</text>
<line x1="526.2" y1="830" x2="526.2" y2="833" stroke="#444"/>
<text x="526.2" y="845" text-anchor="middle" fill="#444">-4</text>
<line x1="553.6" y1="830" x2="553.6" y2="833" stroke="#444"/>
<text x="553.6" y="845" text-anchor="middle" fill="#444">-3</text>
<line x1="581.1" y1="830" x2="581.1" y2="833" stroke="#444"/>
<text x="581.1" y="845" text-anchor="middle" fill="#444">-2</text>
<line x1="636.0" y1="830" x2="636.0" y2="833" stroke="#444"/>
<text x="636.0" y="845" text-anchor="middle" fill="#444">0</text>
<line x1="663.5" y1="830" x2="663.5" y2="833" stroke="#444"/>
<text x="663.5" y="845" text-anchor="middle" fill="#444">1</text>
<line x1="690.9" y1="830" x2="690.9" y2="833" stroke="#444"/>
<text x="690.9" y="845" text-anchor="middle" fill="#444">2</text>
<line x1="718.4" y1="830" x2="718.4" y2="833" stroke="#444"/>
<text x="718.4" y="845" text-anchor="middle" fill="#444">3</text>
<line x1="745.8" y1="830" x2="745.8" y2="833" stroke="#444"/>
<text x="745.8" y="845" text-anchor="middle" fill="#444">4</text>
<line x1="773.3" y1="830" x2="773.3" y2="833" stroke="#444"/>
<text x="773.3" y="845" text-anchor="middle" fill="#444">5</text>
<line x1="482" y1="830.0" x2="485" y2="830.0" stroke="#444"/>
<text x="479" y="833.0" text-anchor="end" fill="#444">-1e+02</text>
<line x1="482" y1="790.0" x2="485" y2="790.0" stroke="#444"/>
<text x="479" y="793.0" text-anchor="end" fill="#444">-57</text>
<line x1="482" y1="750.0" x2="485" y2="750.0" stroke="#444"/>
<text x="479" y="753.0" text-anchor="end" fill="#444">-13</text>
<line x1="482" y1="710.0" x2="485" y2="710.0" stroke="#444"/>
<text x="479" y="713.0" text-anchor="end" fill="#444">32</text>
<line x1="482" y1="670.0" x2="485" y2="670.0" stroke="#444"/>
<text x="479" y="673.0" text-anchor="end" fill="#444">76</text>
<text x="636.0" y="864" text-anchor="middle" fill="#444">Event time (years from adoption)</text>
<text x="437" y="750.0" text-anchor="middle" fill="#444" transform="rotate(-90 437 750.0)">ATT (per 100k)</text>
<text x="805" y="608" text-anchor="end" fill="#888" font-size="10">Shaded band: pointwise 95% CI from cluster bootstrap. Vertical dashed line marks the year before adoption.</text>
</svg>