<svg xmlns="http://www.w3.org/2000/svg" viewBox="0 0 820 620" font-family="-apple-system, Segoe UI, Helvetica, Arial, sans-serif" font-size="11">
<text x="410.0" y="22" text-anchor="middle" font-size="14" font-weight="600">Callaway-Sant'Anna ATT by event time (OR) -- universal background checks (universal)</text>
<rect x="15" y="40" width="380" height="260" fill="#fafaf7" stroke="#e2e2dc"/>
<text x="205.0" y="58" text-anchor="middle" font-weight="600">Firearm suicide rate (per 100k)</text>
<line x1="75" y1="145.46779321201274" x2="377" y2="145.46779321201274" stroke="#aaaaaa" stroke-width="0.7"/>
<polygon points="88.7,90.0 116.2,100.1 143.6,123.9 171.1,105.7 226.0,111.6 253.5,126.6 280.9,155.5 308.4,120.0 335.8,199.3 363.3,147.4 363.3,228.1 335.8,250.0 308.4,210.4 280.9,221.0 253.5,186.8 226.0,200.3 171.1,178.1 143.6,182.0 116.2,135.9 88.7,166.3" fill="#1f3a5f" opacity="0.18"/>
<polyline points="88.7,128.1 116.2,118.0 143.6,153.0 171.1,141.9 226.0,156.0 253.5,156.7 280.9,188.2 308.4,165.2 335.8,224.6 363.3,187.7" fill="none" stroke="#1f3a5f" stroke-width="1.6"/>
<circle cx="88.7" cy="128.1" r="2.6" fill="#1f3a5f"/>
<circle cx="116.2" cy="118.0" r="2.6" fill="#1f3a5f"/>
<circle cx="143.6" cy="153.0" r="2.6" fill="#1f3a5f"/>
<circle cx="171.1" cy="141.9" r="2.6" fill="#1f3a5f"/>
<circle cx="226.0" cy="156.0" r="2.6" fill="#1f3a5f"/>
<circle cx="253.5" cy="156.7" r="2.6" fill="#1f3a5f"/>
<circle cx="280.9" cy="188.2" r="2.6" fill="#1f3a5f"/>
<circle cx="308.4" cy="165.2" r="2.6" fill="#1f3a5f"/>
<circle cx="335.8" cy="224.6" r="2.6" fill="#1f3a5f"/>
<circle cx="363.3" cy="187.7" r="2.6" fill="#1f3a5f"/>
<line x1="212.3" y1="90" x2="212.3" y2="250" stroke="#b9461a" stroke-dasharray="3 3"/>
<line x1="75" y1="250" x2="377" y2="250" stroke="#444"/>
<line x1="75" y1="90" x2="75" y2="250" stroke="#444"/>
<line x1="88.7" y1="250" x2="88.7" y2="253" stroke="#444"/>
<text x="88.7" y="265" text-anchor="middle" fill="#444">-5</text>
<line x1="116.2" y1="250" x2="116.2" y2="253" stroke="#444"/>
<text x="116.2" y="265" text-anchor="middle" fill="#444">-4</text>
<line x1="143.6" y1="250" x2="143.6" y2="253" stroke="#444"/>
<text x="143.6" y="265" text-anchor="middle" fill="#444">-3</text>
<line x1="171.1" y1="250" x2="171.1" y2="253" stroke="#444"/>
<text x="171.1" y="265" text-anchor="middle" fill="#444">-2</text>
<line x1="226.0" y1="250" x2="226.0" y2="253" stroke="#444"/>
<text x="226.0" y="265" text-anchor="middle" fill="#444">0</text>
<line x1="253.5" y1="250" x2="253.5" y2="253" stroke="#444"/>
<text x="253.5" y="265" text-anchor="middle" fill="#444">1</text>
<line x1="280.9" y1="250" x2="280.9" y2="253" stroke="#444"/>
<text x="280.9" y="265" text-anchor="middle" fill="#444">2</text>
<line x1="308.4" y1="250" x2="308.4" y2="253" stroke="#444"/>
<text x="308.4" y="265" text-anchor="middle" fill="#444">3</text>
<line x1="335.8" y1="250" x2="335.8" y2="253" stroke="#444"/>
<text x="335.8" y="265" text-anchor="middle" fill="#444">4</text>
<line x1="363.3" y1="250" x2="363.3" y2="253" stroke="#444"/>
<text x="363.3" y="265" text-anchor="middle" fill="#444">5</text>
<line x1="72" y1="250.0" x2="75" y2="250.0" stroke="#444"/>
<text x="69" y="253.0" text-anchor="end" fill="#444">-0.9</text>
<line x1="72" y1="210.0" x2="75" y2="210.0" stroke="#444"/>
<text x="69" y="213.0" text-anchor="end" fill="#444">-0.56</text>
<line x1="72" y1="170.0" x2="75" y2="170.0" stroke="#444"/>
<text x="69" y="173.0" text-anchor="end" fill="#444">-0.21</text>
<line x1="72" y1="130.0" x2="75" y2="130.0" stroke="#444"/>
<text x="69" y="133.0" text-anchor="end" fill="#444">0.13</text>
<line x1="72" y1="90.0" x2="75" y2="90.0" stroke="#444"/>
<text x="69" y="93.0" text-anchor="end" fill="#444">0.48</text>
<text x="226.0" y="284" text-anchor="middle" fill="#444">Event time (years from adoption)</text>
<text x="27" y="170.0" text-anchor="middle" fill="#444" transform="rotate(-90 27 170.0)">ATT (per 100k)</text>
<rect x="425" y="40" width="380" height="260" fill="#fafaf7" stroke="#e2e2dc"/>
<text x="615.0" y="58" text-anchor="middle" font-weight="600">Non-firearm suicide rate (per 100k) [substitution test]</text>
<line x1="485" y1="128.6356384073658" x2="787" y2="128.6356384073658" stroke="#aaaaaa" stroke-width="0.7"/>
<polygon points="498.7,122.2 526.2,90.0 553.6,131.4 581.1,139.7 636.0,120.6 663.5,143.7 690.9,148.8 718.4,120.1 745.8,141.4 773.3,127.1 773.3,250.0 745.8,222.8 718.4,224.6 690.9,188.7 663.5,181.3 636.0,167.7 581.1,182.5 553.6,164.6 526.2,139.4 498.7,146.8" fill="#1f3a5f" opacity="0.18"/>
<polyline points="498.7,134.5 526.2,114.7 553.6,148.0 581.1,161.1 636.0,144.2 663.5,162.5 690.9,168.8 718.4,172.4 745.8,182.1 773.3,188.6" fill="none" stroke="#1f3a5f" stroke-width="1.6"/>
<circle cx="498.7" cy="134.5" r="2.6" fill="#1f3a5f"/>
<circle cx="526.2" cy="114.7" r="2.6" fill="#1f3a5f"/>
<circle cx="553.6" cy="148.0" r="2.6" fill="#1f3a5f"/>
<circle cx="581.1" cy="161.1" r="2.6" fill="#1f3a5f"/>
<circle cx="636.0" cy="144.2" r="2.6" fill="#1f3a5f"/>
<circle cx="663.5" cy="162.5" r="2.6" fill="#1f3a5f"/>
<circle cx="690.9" cy="168.8" r="2.6" fill="#1f3a5f"/>
<circle cx="718.4" cy="172.4" r="2.6" fill="#1f3a5f"/>
<circle cx="745.8" cy="182.1" r="2.6" fill="#1f3a5f"/>
<circle cx="773.3" cy="188.6" r="2.6" fill="#1f3a5f"/>
<line x1="622.3" y1="90" x2="622.3" y2="250" stroke="#b9461a" stroke-dasharray="3 3"/>
<line x1="485" y1="250" x2="787" y2="250" stroke="#444"/>
<line x1="485" y1="90" x2="485" y2="250" stroke="#444"/>
<line x1="498.7" y1="250" x2="498.7" y2="253" stroke="#444"/>
<text x="498.7" y="265" text-anchor="middle" fill="#444">-5</text>
<line x1="526.2" y1="250" x2="526.2" y2="253" stroke="#444"/>
<text x="526.2" y="265" text-anchor="middle" fill="#444">-4</text>
<line x1="553.6" y1="250" x2="553.6" y2="253" stroke="#444"/>
<text x="553.6" y="265" text-anchor="middle" fill="#444">-3</text>
<line x1="581.1" y1="250" x2="581.1" y2="253" stroke="#444"/>
<text x="581.1" y="265" text-anchor="middle" fill="#444">-2</text>
<line x1="636.0" y1="250" x2="636.0" y2="253" stroke="#444"/>
<text x="636.0" y="265" text-anchor="middle" fill="#444">0</text>
<line x1="663.5" y1="250" x2="663.5" y2="253" stroke="#444"/>
<text x="663.5" y="265" text-anchor="middle" fill="#444">1</text>
<line x1="690.9" y1="250" x2="690.9" y2="253" stroke="#444"/>
<text x="690.9" y="265" text-anchor="middle" fill="#444">2</text>
<line x1="718.4" y1="250" x2="718.4" y2="253" stroke="#444"/>
<text x="718.4" y="265" text-anchor="middle" fill="#444">3</text>
<line x1="745.8" y1="250" x2="745.8" y2="253" stroke="#444"/>
<text x="745.8" y="265" text-anchor="middle" fill="#444">4</text>
<line x1="773.3" y1="250" x2="773.3" y2="253" stroke="#444"/>
<text x="773.3" y="265" text-anchor="middle" fill="#444">5</text>
<line x1="482" y1="250.0" x2="485" y2="250.0" stroke="#444"/>
<text x="479" y="253.0" text-anchor="end" fill="#444">-1.7</text>
<line x1="482" y1="210.0" x2="485" y2="210.0" stroke="#444"/>
<text x="479" y="213.0" text-anchor="end" fill="#444">-1.1</text>
<line x1="482" y1="170.0" x2="485" y2="170.0" stroke="#444"/>
<text x="479" y="173.0" text-anchor="end" fill="#444">-0.56</text>
<line x1="482" y1="130.0" x2="485" y2="130.0" stroke="#444"/>
<text x="479" y="133.0" text-anchor="end" fill="#444">-0.019</text>
<line x1="482" y1="90.0" x2="485" y2="90.0" stroke="#444"/>
<text x="479" y="93.0" text-anchor="end" fill="#444">0.53</text>
<text x="636.0" y="284" text-anchor="middle" fill="#444">Event time (years from adoption)</text>
<text x="437" y="170.0" text-anchor="middle" fill="#444" transform="rotate(-90 437 170.0)">ATT (per 100k)</text>
<rect x="15" y="330" width="380" height="260" fill="#fafaf7" stroke="#e2e2dc"/>
<text x="205.0" y="348" text-anchor="middle" font-weight="600">Total suicide rate (per 100k) [net effect]</text>
<line x1="75" y1="421.8668644302729" x2="377" y2="421.8668644302729" stroke="#aaaaaa" stroke-width="0.7"/>
<polygon points="88.7,393.6 116.2,380.0 143.6,419.5 171.1,421.2 226.0,419.4 253.5,442.0 280.9,456.8 308.4,418.4 335.8,467.7 363.3,438.6 363.3,540.0 335.8,537.1 308.4,512.8 280.9,491.5 253.5,465.6 226.0,458.8 171.1,469.6 143.6,461.7 116.2,415.0 88.7,442.2" fill="#1f3a5f" opacity="0.18"/>
<polyline points="88.7,417.9 116.2,397.5 143.6,440.6 171.1,445.4 226.0,439.1 253.5,453.8 280.9,474.1 308.4,465.6 335.8,502.4 363.3,489.3" fill="none" stroke="#1f3a5f" stroke-width="1.6"/>
<circle cx="88.7" cy="417.9" r="2.6" fill="#1f3a5f"/>
<circle cx="116.2" cy="397.5" r="2.6" fill="#1f3a5f"/>
<circle cx="143.6" cy="440.6" r="2.6" fill="#1f3a5f"/>
<circle cx="171.1" cy="445.4" r="2.6" fill="#1f3a5f"/>
<circle cx="226.0" cy="439.1" r="2.6" fill="#1f3a5f"/>
<circle cx="253.5" cy="453.8" r="2.6" fill="#1f3a5f"/>
<circle cx="280.9" cy="474.1" r="2.6" fill="#1f3a5f"/>
<circle cx="308.4" cy="465.6" r="2.6" fill="#1f3a5f"/>
<circle cx="335.8" cy="502.4" r="2.6" fill="#1f3a5f"/>
<circle cx="363.3" cy="489.3" r="2.6" fill="#1f3a5f"/>
<line x1="212.3" y1="380" x2="212.3" y2="540" stroke="#b9461a" stroke-dasharray="3 3"/>
<line x1="75" y1="540" x2="377" y2="540" stroke="#444"/>
<line x1="75" y1="380" x2="75" y2="540" stroke="#444"/>
<line x1="88.7" y1="540" x2="88.7" y2="543" stroke="#444"/>
<text x="88.7" y="555" text-anchor="middle" fill="#444">-5</text>
<line x1="116.2" y1="540" x2="116.2" y2="543" stroke="#444"/>
<text x="116.2" y="555" text-anchor="middle" fill="#444">-4</text>
<line x1="143.6" y1="540" x2="143.6" y2="543" stroke="#444"/>
<text x="143.6" y="555" text-anchor="middle" fill="#444">-3</text>
<line x1="171.1" y1="540" x2="171.1" y2="543" stroke="#444"/>
<text x="171.1" y="555" text-anchor="middle" fill="#444">-2</text>
<line x1="226.0" y1="540" x2="226.0" y2="543" stroke="#444"/>
<text x="226.0" y="555" text-anchor="middle" fill="#444">0</text>
<line x1="253.5" y1="540" x2="253.5" y2="543" stroke="#444"/>
<text x="253.5" y="555" text-anchor="middle" fill="#444">1</text>
<line x1="280.9" y1="540" x2="280.9" y2="543" stroke="#444"/>
<text x="280.9" y="555" text-anchor="middle" fill="#444">2</text>
<line x1="308.4" y1="540" x2="308.4" y2="543" stroke="#444"/>
<text x="308.4" y="555" text-anchor="middle" fill="#444">3</text>
<line x1="335.8" y1="540" x2="335.8" y2="543" stroke="#444"/>
<text x="335.8" y="555" text-anchor="middle" fill="#444">4</text>
<line x1="363.3" y1="540" x2="363.3" y2="543" stroke="#444"/>
<text x="363.3" y="555" text-anchor="middle" fill="#444">5</text>
<line x1="72" y1="540.0" x2="75" y2="540.0" stroke="#444"/>
<text x="69" y="543.0" text-anchor="end" fill="#444">-2.1</text>
<line x1="72" y1="500.0" x2="75" y2="500.0" stroke="#444"/>
<text x="69" y="503.0" text-anchor="end" fill="#444">-1.4</text>
<line x1="72" y1="460.0" x2="75" y2="460.0" stroke="#444"/>
<text x="69" y="463.0" text-anchor="end" fill="#444">-0.67</text>
<line x1="72" y1="420.0" x2="75" y2="420.0" stroke="#444"/>
<text x="69" y="423.0" text-anchor="end" fill="#444">0.033</text>
<line x1="72" y1="380.0" x2="75" y2="380.0" stroke="#444"/>
<text x="69" y="383.0" text-anchor="end" fill="#444">0.73</text>
<text x="226.0" y="574" text-anchor="middle" fill="#444">Event time (years from adoption)</text>
<text x="27" y="460.0" text-anchor="middle" fill="#444" transform="rotate(-90 27 460.0)">ATT (per 100k)</text>
<rect x="425" y="330" width="380" height="260" fill="#fafaf7" stroke="#e2e2dc"/>
<text x="615.0" y="348" text-anchor="middle" font-weight="600">Firearm homicide rate (per 100k)</text>
<line x1="485" y1="409.7324453367542" x2="787" y2="409.7324453367542" stroke="#aaaaaa" stroke-width="0.7"/>
<polygon points="498.7,380.0 526.2,385.0 553.6,387.1 581.1,403.9 636.0,389.3 663.5,432.0 690.9,433.0 718.4,444.7 745.8,417.9 773.3,453.3 773.3,540.0 745.8,486.8 718.4,484.0 690.9,462.5 663.5,455.0 636.0,419.1 581.1,451.0 553.6,413.2 526.2,420.2 498.7,420.5" fill="#1f3a5f" opacity="0.18"/>
<polyline points="498.7,400.3 526.2,402.6 553.6,400.1 581.1,427.5 636.0,404.2 663.5,443.5 690.9,447.8 718.4,464.3 745.8,452.3 773.3,496.7" fill="none" stroke="#1f3a5f" stroke-width="1.6"/>
<circle cx="498.7" cy="400.3" r="2.6" fill="#1f3a5f"/>
<circle cx="526.2" cy="402.6" r="2.6" fill="#1f3a5f"/>
<circle cx="553.6" cy="400.1" r="2.6" fill="#1f3a5f"/>
<circle cx="581.1" cy="427.5" r="2.6" fill="#1f3a5f"/>
<circle cx="636.0" cy="404.2" r="2.6" fill="#1f3a5f"/>
<circle cx="663.5" cy="443.5" r="2.6" fill="#1f3a5f"/>
<circle cx="690.9" cy="447.8" r="2.6" fill="#1f3a5f"/>
<circle cx="718.4" cy="464.3" r="2.6" fill="#1f3a5f"/>
<circle cx="745.8" cy="452.3" r="2.6" fill="#1f3a5f"/>
<circle cx="773.3" cy="496.7" r="2.6" fill="#1f3a5f"/>
<line x1="622.3" y1="380" x2="622.3" y2="540" stroke="#b9461a" stroke-dasharray="3 3"/>
<line x1="485" y1="540" x2="787" y2="540" stroke="#444"/>
<line x1="485" y1="380" x2="485" y2="540" stroke="#444"/>
<line x1="498.7" y1="540" x2="498.7" y2="543" stroke="#444"/>
<text x="498.7" y="555" text-anchor="middle" fill="#444">-5</text>
<line x1="526.2" y1="540" x2="526.2" y2="543" stroke="#444"/>
<text x="526.2" y="555" text-anchor="middle" fill="#444">-4</text>
<line x1="553.6" y1="540" x2="553.6" y2="543" stroke="#444"/>
<text x="553.6" y="555" text-anchor="middle" fill="#444">-3</text>
<line x1="581.1" y1="540" x2="581.1" y2="543" stroke="#444"/>
<text x="581.1" y="555" text-anchor="middle" fill="#444">-2</text>
<line x1="636.0" y1="540" x2="636.0" y2="543" stroke="#444"/>
<text x="636.0" y="555" text-anchor="middle" fill="#444">0</text>
<line x1="663.5" y1="540" x2="663.5" y2="543" stroke="#444"/>
<text x="663.5" y="555" text-anchor="middle" fill="#444">1</text>
<line x1="690.9" y1="540" x2="690.9" y2="543" stroke="#444"/>
<text x="690.9" y="555" text-anchor="middle" fill="#444">2</text>
<line x1="718.4" y1="540" x2="718.4" y2="543" stroke="#444"/>
<text x="718.4" y="555" text-anchor="middle" fill="#444">3</text>
<line x1="745.8" y1="540" x2="745.8" y2="543" stroke="#444"/>
<text x="745.8" y="555" text-anchor="middle" fill="#444">4</text>
<line x1="773.3" y1="540" x2="773.3" y2="543" stroke="#444"/>
<text x="773.3" y="555" text-anchor="middle" fill="#444">5</text>
<line x1="482" y1="540.0" x2="485" y2="540.0" stroke="#444"/>
<text x="479" y="543.0" text-anchor="end" fill="#444">-1.4</text>
<line x1="482" y1="500.0" x2="485" y2="500.0" stroke="#444"/>
<text x="479" y="503.0" text-anchor="end" fill="#444">-0.96</text>
<line x1="482" y1="460.0" x2="485" y2="460.0" stroke="#444"/>
<text x="479" y="463.0" text-anchor="end" fill="#444">-0.54</text>
<line x1="482" y1="420.0" x2="485" y2="420.0" stroke="#444"/>
<text x="479" y="423.0" text-anchor="end" fill="#444">-0.11</text>
<line x1="482" y1="380.0" x2="485" y2="380.0" stroke="#444"/>
<text x="479" y="383.0" text-anchor="end" fill="#444">0.32</text>
<text x="636.0" y="574" text-anchor="middle" fill="#444">Event time (years from adoption)</text>
<text x="437" y="460.0" text-anchor="middle" fill="#444" transform="rotate(-90 437 460.0)">ATT (per 100k)</text>
<rect x="15" y="620" width="380" height="260" fill="#fafaf7" stroke="#e2e2dc"/>
<text x="205.0" y="638" text-anchor="middle" font-weight="600">Total homicide rate (per 100k)</text>
<line x1="75" y1="709.4865386538411" x2="377" y2="709.4865386538411" stroke="#aaaaaa" stroke-width="0.7"/>
<polygon points="88.7,691.4 116.2,686.6 143.6,686.0 171.1,693.8 226.0,670.0 253.5,726.5 280.9,719.6 308.4,733.9 335.8,704.4 363.3,761.4 363.3,830.0 335.8,764.9 308.4,784.1 280.9,747.2 253.5,746.5 226.0,715.6 171.1,729.4 143.6,732.3 116.2,741.6 88.7,737.3" fill="#1f3a5f" opacity="0.18"/>
<polyline points="88.7,714.4 116.2,714.1 143.6,709.1 171.1,711.6 226.0,692.8 253.5,736.5 280.9,733.4 308.4,759.0 335.8,734.7 363.3,795.7" fill="none" stroke="#1f3a5f" stroke-width="1.6"/>
<circle cx="88.7" cy="714.4" r="2.6" fill="#1f3a5f"/>
<circle cx="116.2" cy="714.1" r="2.6" fill="#1f3a5f"/>
<circle cx="143.6" cy="709.1" r="2.6" fill="#1f3a5f"/>
<circle cx="171.1" cy="711.6" r="2.6" fill="#1f3a5f"/>
<circle cx="226.0" cy="692.8" r="2.6" fill="#1f3a5f"/>
<circle cx="253.5" cy="736.5" r="2.6" fill="#1f3a5f"/>
<circle cx="280.9" cy="733.4" r="2.6" fill="#1f3a5f"/>
<circle cx="308.4" cy="759.0" r="2.6" fill="#1f3a5f"/>
<circle cx="335.8" cy="734.7" r="2.6" fill="#1f3a5f"/>
<circle cx="363.3" cy="795.7" r="2.6" fill="#1f3a5f"/>
<line x1="212.3" y1="670" x2="212.3" y2="830" stroke="#b9461a" stroke-dasharray="3 3"/>
<line x1="75" y1="830" x2="377" y2="830" stroke="#444"/>
<line x1="75" y1="670" x2="75" y2="830" stroke="#444"/>
<line x1="88.7" y1="830" x2="88.7" y2="833" stroke="#444"/>
<text x="88.7" y="845" text-anchor="middle" fill="#444">-5</text>
<line x1="116.2" y1="830" x2="116.2" y2="833" stroke="#444"/>
<text x="116.2" y="845" text-anchor="middle" fill="#444">-4</text>
<line x1="143.6" y1="830" x2="143.6" y2="833" stroke="#444"/>
<text x="143.6" y="845" text-anchor="middle" fill="#444">-3</text>
<line x1="171.1" y1="830" x2="171.1" y2="833" stroke="#444"/>
<text x="171.1" y="845" text-anchor="middle" fill="#444">-2</text>
<line x1="226.0" y1="830" x2="226.0" y2="833" stroke="#444"/>
<text x="226.0" y="845" text-anchor="middle" fill="#444">0</text>
<line x1="253.5" y1="830" x2="253.5" y2="833" stroke="#444"/>
<text x="253.5" y="845" text-anchor="middle" fill="#444">1</text>
<line x1="280.9" y1="830" x2="280.9" y2="833" stroke="#444"/>
<text x="280.9" y="845" text-anchor="middle" fill="#444">2</text>
<line x1="308.4" y1="830" x2="308.4" y2="833" stroke="#444"/>
<text x="308.4" y="845" text-anchor="middle" fill="#444">3</text>
<line x1="335.8" y1="830" x2="335.8" y2="833" stroke="#444"/>
<text x="335.8" y="845" text-anchor="middle" fill="#444">4</text>
<line x1="363.3" y1="830" x2="363.3" y2="833" stroke="#444"/>
<text x="363.3" y="845" text-anchor="middle" fill="#444">5</text>
<line x1="72" y1="830.0" x2="75" y2="830.0" stroke="#444"/>
<text x="69" y="833.0" text-anchor="end" fill="#444">-1.5</text>
<line x1="72" y1="790.0" x2="75" y2="790.0" stroke="#444"/>
<text x="69" y="793.0" text-anchor="end" fill="#444">-1</text>
<line x1="72" y1="750.0" x2="75" y2="750.0" stroke="#444"/>
<text x="69" y="753.0" text-anchor="end" fill="#444">-0.5</text>
<line x1="72" y1="710.0" x2="75" y2="710.0" stroke="#444"/>
<text x="69" y="713.0" text-anchor="end" fill="#444">-0.0064</text>
<line x1="72" y1="670.0" x2="75" y2="670.0" stroke="#444"/>
<text x="69" y="673.0" text-anchor="end" fill="#444">0.49</text>
<text x="226.0" y="864" text-anchor="middle" fill="#444">Event time (years from adoption)</text>
<text x="27" y="750.0" text-anchor="middle" fill="#444" transform="rotate(-90 27 750.0)">ATT (per 100k)</text>
<rect x="425" y="620" width="380" height="260" fill="#fafaf7" stroke="#e2e2dc"/>
<text x="615.0" y="638" text-anchor="middle" font-weight="600">Motor vehicle theft rate (per 100k) [placebo]</text>
<line x1="485" y1="776.7487322484202" x2="787" y2="776.7487322484202" stroke="#aaaaaa" stroke-width="0.7"/>
<polygon points="498.7,764.7 526.2,761.5 553.6,736.1 581.1,757.8 636.0,773.9 663.5,777.4 690.9,670.0 718.4,717.7 745.8,687.0 773.3,672.8 773.3,822.0 745.8,822.8 718.4,811.0 690.9,726.8 663.5,802.9 636.0,789.6 581.1,778.8 553.6,776.1 526.2,793.9 498.7,830.0" fill="#1f3a5f" opacity="0.18"/>
<polyline points="498.7,797.3 526.2,777.7 553.6,756.1 581.1,768.3 636.0,781.7 663.5,790.2 690.9,698.4 718.4,764.4 745.8,754.9 773.3,747.4" fill="none" stroke="#1f3a5f" stroke-width="1.6"/>
<circle cx="498.7" cy="797.3" r="2.6" fill="#1f3a5f"/>
<circle cx="526.2" cy="777.7" r="2.6" fill="#1f3a5f"/>
<circle cx="553.6" cy="756.1" r="2.6" fill="#1f3a5f"/>
<circle cx="581.1" cy="768.3" r="2.6" fill="#1f3a5f"/>
<circle cx="636.0" cy="781.7" r="2.6" fill="#1f3a5f"/>
<circle cx="663.5" cy="790.2" r="2.6" fill="#1f3a5f"/>
<circle cx="690.9" cy="698.4" r="2.6" fill="#1f3a5f"/>
<circle cx="718.4" cy="764.4" r="2.6" fill="#1f3a5f"/>
<circle cx="745.8" cy="754.9" r="2.6" fill="#1f3a5f"/>
<circle cx="773.3" cy="747.4" r="2.6" fill="#1f3a5f"/>
<line x1="622.3" y1="670" x2="622.3" y2="830" stroke="#b9461a" stroke-dasharray="3 3"/>
<line x1="485" y1="830" x2="787" y2="830" stroke="#444"/>
<line x1="485" y1="670" x2="485" y2="830" stroke="#444"/>
<line x1="498.7" y1="830" x2="498.7" y2="833" stroke="#444"/>
<text x="498.7" y="845" text-anchor="middle" fill="#444">-5</text>
<line x1="526.2" y1="830" x2="526.2" y2="833" stroke="#444"/>
<text x="526.2" y="845" text-anchor="middle" fill="#444">-4</text>
<line x1="553.6" y1="830" x2="553.6" y2="833" stroke="#444"/>
<text x="553.6" y="845" text-anchor="middle" fill="#444">-3</text>
<line x1="581.1" y1="830" x2="581.1" y2="833" stroke="#444"/>
<text x="581.1" y="845" text-anchor="middle" fill="#444">-2</text>
<line x1="636.0" y1="830" x2="636.0" y2="833" stroke="#444"/>
<text x="636.0" y="845" text-anchor="middle" fill="#444">0</text>
<line x1="663.5" y1="830" x2="663.5" y2="833" stroke="#444"/>
<text x="663.5" y="845" text-anchor="middle" fill="#444">1</text>
<line x1="690.9" y1="830" x2="690.9" y2="833" stroke="#444"/>
<text x="690.9" y="845" text-anchor="middle" fill="#444">2</text>
<line x1="718.4" y1="830" x2="718.4" y2="833" stroke="#444"/>
<text x="718.4" y="845" text-anchor="middle" fill="#444">3</text>
<line x1="745.8" y1="830" x2="745.8" y2="833" stroke="#444"/>
<text x="745.8" y="845" text-anchor="middle" fill="#444">4</text>
<line x1="773.3" y1="830" x2="773.3" y2="833" stroke="#444"/>
<text x="773.3" y="845" text-anchor="middle" fill="#444">5</text>
<line x1="482" y1="830.0" x2="485" y2="830.0" stroke="#444"/>
<text x="479" y="833.0" text-anchor="end" fill="#444">-25</text>
<line x1="482" y1="790.0" x2="485" y2="790.0" stroke="#444"/>
<text x="479" y="793.0" text-anchor="end" fill="#444">-6.3</text>
<line x1="482" y1="750.0" x2="485" y2="750.0" stroke="#444"/>
<text x="479" y="753.0" text-anchor="end" fill="#444">13</text>
<line x1="482" y1="710.0" x2="485" y2="710.0" stroke="#444"/>
<text x="479" y="713.0" text-anchor="end" fill="#444">32</text>
<line x1="482" y1="670.0" x2="485" y2="670.0" stroke="#444"/>
<text x="479" y="673.0" text-anchor="end" fill="#444">51</text>
<text x="636.0" y="864" text-anchor="middle" fill="#444">Event time (years from adoption)</text>
<text x="437" y="750.0" text-anchor="middle" fill="#444" transform="rotate(-90 437 750.0)">ATT (per 100k)</text>
<text x="805" y="608" text-anchor="end" fill="#888" font-size="10">Shaded band: pointwise 95% CI from cluster bootstrap. Vertical dashed line marks the year before adoption.</text>
</svg>