<svg xmlns="http://www.w3.org/2000/svg" viewBox="0 0 820 620" font-family="-apple-system, Segoe UI, Helvetica, Arial, sans-serif" font-size="11">
<text x="410.0" y="22" text-anchor="middle" font-size="14" font-weight="600">Callaway-Sant'Anna ATT by event time (UNWEIGHTED) -- stacked DiD (assault_weapons_ban)</text>
<rect x="15" y="40" width="380" height="260" fill="#fafaf7" stroke="#e2e2dc"/>
<text x="205.0" y="58" text-anchor="middle" font-weight="600">Firearm suicide rate (per 100k)</text>
<line x1="75" y1="158.32108323180182" x2="377" y2="158.32108323180182" stroke="#aaaaaa" stroke-width="0.7"/>
<polygon points="88.7,90.0 116.2,94.4 143.6,146.0 171.1,141.8 198.5,158.3 226.0,121.9 253.5,102.4 280.9,191.9 308.4,199.5 335.8,207.1 363.3,212.8 363.3,247.8 335.8,250.0 308.4,224.8 280.9,217.0 253.5,143.7 226.0,158.9 198.5,158.3 171.1,210.4 143.6,218.2 116.2,155.4 88.7,197.2" fill="#1f3a5f" opacity="0.18"/>
<polyline points="88.7,143.6 116.2,124.9 143.6,182.1 171.1,176.1 198.5,158.3 226.0,140.4 253.5,123.1 280.9,204.4 308.4,212.1 335.8,228.6 363.3,230.3" fill="none" stroke="#1f3a5f" stroke-width="1.6"/>
<circle cx="88.7" cy="143.6" r="2.6" fill="#1f3a5f"/>
<circle cx="116.2" cy="124.9" r="2.6" fill="#1f3a5f"/>
<circle cx="143.6" cy="182.1" r="2.6" fill="#1f3a5f"/>
<circle cx="171.1" cy="176.1" r="2.6" fill="#1f3a5f"/>
<circle cx="198.5" cy="158.3" r="2.6" fill="#1f3a5f"/>
<circle cx="226.0" cy="140.4" r="2.6" fill="#1f3a5f"/>
<circle cx="253.5" cy="123.1" r="2.6" fill="#1f3a5f"/>
<circle cx="280.9" cy="204.4" r="2.6" fill="#1f3a5f"/>
<circle cx="308.4" cy="212.1" r="2.6" fill="#1f3a5f"/>
<circle cx="335.8" cy="228.6" r="2.6" fill="#1f3a5f"/>
<circle cx="363.3" cy="230.3" r="2.6" fill="#1f3a5f"/>
<line x1="212.3" y1="90" x2="212.3" y2="250" stroke="#b9461a" stroke-dasharray="3 3"/>
<line x1="75" y1="250" x2="377" y2="250" stroke="#444"/>
<line x1="75" y1="90" x2="75" y2="250" stroke="#444"/>
<line x1="88.7" y1="250" x2="88.7" y2="253" stroke="#444"/>
<text x="88.7" y="265" text-anchor="middle" fill="#444">-5</text>
<line x1="116.2" y1="250" x2="116.2" y2="253" stroke="#444"/>
<text x="116.2" y="265" text-anchor="middle" fill="#444">-4</text>
<line x1="143.6" y1="250" x2="143.6" y2="253" stroke="#444"/>
<text x="143.6" y="265" text-anchor="middle" fill="#444">-3</text>
<line x1="171.1" y1="250" x2="171.1" y2="253" stroke="#444"/>
<text x="171.1" y="265" text-anchor="middle" fill="#444">-2</text>
<line x1="198.5" y1="250" x2="198.5" y2="253" stroke="#444"/>
<text x="198.5" y="265" text-anchor="middle" fill="#444">-1</text>
<line x1="226.0" y1="250" x2="226.0" y2="253" stroke="#444"/>
<text x="226.0" y="265" text-anchor="middle" fill="#444">0</text>
<line x1="253.5" y1="250" x2="253.5" y2="253" stroke="#444"/>
<text x="253.5" y="265" text-anchor="middle" fill="#444">1</text>
<line x1="280.9" y1="250" x2="280.9" y2="253" stroke="#444"/>
<text x="280.9" y="265" text-anchor="middle" fill="#444">2</text>
<line x1="308.4" y1="250" x2="308.4" y2="253" stroke="#444"/>
<text x="308.4" y="265" text-anchor="middle" fill="#444">3</text>
<line x1="335.8" y1="250" x2="335.8" y2="253" stroke="#444"/>
<text x="335.8" y="265" text-anchor="middle" fill="#444">4</text>
<line x1="363.3" y1="250" x2="363.3" y2="253" stroke="#444"/>
<text x="363.3" y="265" text-anchor="middle" fill="#444">5</text>
<line x1="72" y1="250.0" x2="75" y2="250.0" stroke="#444"/>
<text x="69" y="253.0" text-anchor="end" fill="#444">-1.4</text>
<line x1="72" y1="210.0" x2="75" y2="210.0" stroke="#444"/>
<text x="69" y="213.0" text-anchor="end" fill="#444">-0.81</text>
<line x1="72" y1="170.0" x2="75" y2="170.0" stroke="#444"/>
<text x="69" y="173.0" text-anchor="end" fill="#444">-0.18</text>
<line x1="72" y1="130.0" x2="75" y2="130.0" stroke="#444"/>
<text x="69" y="133.0" text-anchor="end" fill="#444">0.44</text>
<line x1="72" y1="90.0" x2="75" y2="90.0" stroke="#444"/>
<text x="69" y="93.0" text-anchor="end" fill="#444">1.1</text>
<text x="226.0" y="284" text-anchor="middle" fill="#444">Event time (years from adoption)</text>
<text x="27" y="170.0" text-anchor="middle" fill="#444" transform="rotate(-90 27 170.0)">ATT (per 100k)</text>
<rect x="425" y="40" width="380" height="260" fill="#fafaf7" stroke="#e2e2dc"/>
<text x="615.0" y="58" text-anchor="middle" font-weight="600">Non-firearm suicide rate (per 100k) [substitution test]</text>
<line x1="485" y1="170.5261742728054" x2="787" y2="170.5261742728054" stroke="#aaaaaa" stroke-width="0.7"/>
<polygon points="498.7,146.0 526.2,128.7 553.6,154.3 581.1,113.9 608.5,170.5 636.0,129.7 663.5,90.0 690.9,216.0 718.4,174.9 745.8,187.3 773.3,135.3 773.3,172.7 745.8,221.5 718.4,205.3 690.9,250.0 663.5,192.6 636.0,210.1 608.5,170.5 581.1,186.5 553.6,178.9 526.2,224.0 498.7,191.1" fill="#1f3a5f" opacity="0.18"/>
<polyline points="498.7,168.6 526.2,176.4 553.6,166.6 581.1,150.2 608.5,170.5 636.0,169.9 663.5,141.3 690.9,233.0 718.4,190.1 745.8,204.4 773.3,154.0" fill="none" stroke="#1f3a5f" stroke-width="1.6"/>
<circle cx="498.7" cy="168.6" r="2.6" fill="#1f3a5f"/>
<circle cx="526.2" cy="176.4" r="2.6" fill="#1f3a5f"/>
<circle cx="553.6" cy="166.6" r="2.6" fill="#1f3a5f"/>
<circle cx="581.1" cy="150.2" r="2.6" fill="#1f3a5f"/>
<circle cx="608.5" cy="170.5" r="2.6" fill="#1f3a5f"/>
<circle cx="636.0" cy="169.9" r="2.6" fill="#1f3a5f"/>
<circle cx="663.5" cy="141.3" r="2.6" fill="#1f3a5f"/>
<circle cx="690.9" cy="233.0" r="2.6" fill="#1f3a5f"/>
<circle cx="718.4" cy="190.1" r="2.6" fill="#1f3a5f"/>
<circle cx="745.8" cy="204.4" r="2.6" fill="#1f3a5f"/>
<circle cx="773.3" cy="154.0" r="2.6" fill="#1f3a5f"/>
<line x1="622.3" y1="90" x2="622.3" y2="250" stroke="#b9461a" stroke-dasharray="3 3"/>
<line x1="485" y1="250" x2="787" y2="250" stroke="#444"/>
<line x1="485" y1="90" x2="485" y2="250" stroke="#444"/>
<line x1="498.7" y1="250" x2="498.7" y2="253" stroke="#444"/>
<text x="498.7" y="265" text-anchor="middle" fill="#444">-5</text>
<line x1="526.2" y1="250" x2="526.2" y2="253" stroke="#444"/>
<text x="526.2" y="265" text-anchor="middle" fill="#444">-4</text>
<line x1="553.6" y1="250" x2="553.6" y2="253" stroke="#444"/>
<text x="553.6" y="265" text-anchor="middle" fill="#444">-3</text>
<line x1="581.1" y1="250" x2="581.1" y2="253" stroke="#444"/>
<text x="581.1" y="265" text-anchor="middle" fill="#444">-2</text>
<line x1="608.5" y1="250" x2="608.5" y2="253" stroke="#444"/>
<text x="608.5" y="265" text-anchor="middle" fill="#444">-1</text>
<line x1="636.0" y1="250" x2="636.0" y2="253" stroke="#444"/>
<text x="636.0" y="265" text-anchor="middle" fill="#444">0</text>
<line x1="663.5" y1="250" x2="663.5" y2="253" stroke="#444"/>
<text x="663.5" y="265" text-anchor="middle" fill="#444">1</text>
<line x1="690.9" y1="250" x2="690.9" y2="253" stroke="#444"/>
<text x="690.9" y="265" text-anchor="middle" fill="#444">2</text>
<line x1="718.4" y1="250" x2="718.4" y2="253" stroke="#444"/>
<text x="718.4" y="265" text-anchor="middle" fill="#444">3</text>
<line x1="745.8" y1="250" x2="745.8" y2="253" stroke="#444"/>
<text x="745.8" y="265" text-anchor="middle" fill="#444">4</text>
<line x1="773.3" y1="250" x2="773.3" y2="253" stroke="#444"/>
<text x="773.3" y="265" text-anchor="middle" fill="#444">5</text>
<line x1="482" y1="250.0" x2="485" y2="250.0" stroke="#444"/>
<text x="479" y="253.0" text-anchor="end" fill="#444">-1.1</text>
<line x1="482" y1="210.0" x2="485" y2="210.0" stroke="#444"/>
<text x="479" y="213.0" text-anchor="end" fill="#444">-0.53</text>
<line x1="482" y1="170.0" x2="485" y2="170.0" stroke="#444"/>
<text x="479" y="173.0" text-anchor="end" fill="#444">0.007</text>
<line x1="482" y1="130.0" x2="485" y2="130.0" stroke="#444"/>
<text x="479" y="133.0" text-anchor="end" fill="#444">0.54</text>
<line x1="482" y1="90.0" x2="485" y2="90.0" stroke="#444"/>
<text x="479" y="93.0" text-anchor="end" fill="#444">1.1</text>
<text x="636.0" y="284" text-anchor="middle" fill="#444">Event time (years from adoption)</text>
<text x="437" y="170.0" text-anchor="middle" fill="#444" transform="rotate(-90 437 170.0)">ATT (per 100k)</text>
<rect x="15" y="330" width="380" height="260" fill="#fafaf7" stroke="#e2e2dc"/>
<text x="205.0" y="348" text-anchor="middle" font-weight="600">Total suicide rate (per 100k) [net effect]</text>
<line x1="75" y1="460.1411767794875" x2="377" y2="460.1411767794875" stroke="#aaaaaa" stroke-width="0.7"/>
<polygon points="88.7,412.4 116.2,399.0 143.6,453.0 171.1,427.0 198.5,460.1 226.0,430.2 253.5,380.0 280.9,511.9 308.4,495.1 335.8,509.0 363.3,481.3 363.3,513.9 335.8,540.0 308.4,516.7 280.9,537.6 253.5,462.1 226.0,466.2 198.5,460.1 171.1,493.7 143.6,493.8 116.2,484.5 88.7,486.6" fill="#1f3a5f" opacity="0.18"/>
<polyline points="88.7,449.5 116.2,441.8 143.6,473.4 171.1,460.4 198.5,460.1 226.0,448.2 253.5,421.0 280.9,524.8 308.4,505.9 335.8,524.5 363.3,497.6" fill="none" stroke="#1f3a5f" stroke-width="1.6"/>
<circle cx="88.7" cy="449.5" r="2.6" fill="#1f3a5f"/>
<circle cx="116.2" cy="441.8" r="2.6" fill="#1f3a5f"/>
<circle cx="143.6" cy="473.4" r="2.6" fill="#1f3a5f"/>
<circle cx="171.1" cy="460.4" r="2.6" fill="#1f3a5f"/>
<circle cx="198.5" cy="460.1" r="2.6" fill="#1f3a5f"/>
<circle cx="226.0" cy="448.2" r="2.6" fill="#1f3a5f"/>
<circle cx="253.5" cy="421.0" r="2.6" fill="#1f3a5f"/>
<circle cx="280.9" cy="524.8" r="2.6" fill="#1f3a5f"/>
<circle cx="308.4" cy="505.9" r="2.6" fill="#1f3a5f"/>
<circle cx="335.8" cy="524.5" r="2.6" fill="#1f3a5f"/>
<circle cx="363.3" cy="497.6" r="2.6" fill="#1f3a5f"/>
<line x1="212.3" y1="380" x2="212.3" y2="540" stroke="#b9461a" stroke-dasharray="3 3"/>
<line x1="75" y1="540" x2="377" y2="540" stroke="#444"/>
<line x1="75" y1="380" x2="75" y2="540" stroke="#444"/>
<line x1="88.7" y1="540" x2="88.7" y2="543" stroke="#444"/>
<text x="88.7" y="555" text-anchor="middle" fill="#444">-5</text>
<line x1="116.2" y1="540" x2="116.2" y2="543" stroke="#444"/>
<text x="116.2" y="555" text-anchor="middle" fill="#444">-4</text>
<line x1="143.6" y1="540" x2="143.6" y2="543" stroke="#444"/>
<text x="143.6" y="555" text-anchor="middle" fill="#444">-3</text>
<line x1="171.1" y1="540" x2="171.1" y2="543" stroke="#444"/>
<text x="171.1" y="555" text-anchor="middle" fill="#444">-2</text>
<line x1="198.5" y1="540" x2="198.5" y2="543" stroke="#444"/>
<text x="198.5" y="555" text-anchor="middle" fill="#444">-1</text>
<line x1="226.0" y1="540" x2="226.0" y2="543" stroke="#444"/>
<text x="226.0" y="555" text-anchor="middle" fill="#444">0</text>
<line x1="253.5" y1="540" x2="253.5" y2="543" stroke="#444"/>
<text x="253.5" y="555" text-anchor="middle" fill="#444">1</text>
<line x1="280.9" y1="540" x2="280.9" y2="543" stroke="#444"/>
<text x="280.9" y="555" text-anchor="middle" fill="#444">2</text>
<line x1="308.4" y1="540" x2="308.4" y2="543" stroke="#444"/>
<text x="308.4" y="555" text-anchor="middle" fill="#444">3</text>
<line x1="335.8" y1="540" x2="335.8" y2="543" stroke="#444"/>
<text x="335.8" y="555" text-anchor="middle" fill="#444">4</text>
<line x1="363.3" y1="540" x2="363.3" y2="543" stroke="#444"/>
<text x="363.3" y="555" text-anchor="middle" fill="#444">5</text>
<line x1="72" y1="540.0" x2="75" y2="540.0" stroke="#444"/>
<text x="69" y="543.0" text-anchor="end" fill="#444">-1.9</text>
<line x1="72" y1="500.0" x2="75" y2="500.0" stroke="#444"/>
<text x="69" y="503.0" text-anchor="end" fill="#444">-0.96</text>
<line x1="72" y1="460.0" x2="75" y2="460.0" stroke="#444"/>
<text x="69" y="463.0" text-anchor="end" fill="#444">0.0034</text>
<line x1="72" y1="420.0" x2="75" y2="420.0" stroke="#444"/>
<text x="69" y="423.0" text-anchor="end" fill="#444">0.96</text>
<line x1="72" y1="380.0" x2="75" y2="380.0" stroke="#444"/>
<text x="69" y="383.0" text-anchor="end" fill="#444">1.9</text>
<text x="226.0" y="574" text-anchor="middle" fill="#444">Event time (years from adoption)</text>
<text x="27" y="460.0" text-anchor="middle" fill="#444" transform="rotate(-90 27 460.0)">ATT (per 100k)</text>
<rect x="425" y="330" width="380" height="260" fill="#fafaf7" stroke="#e2e2dc"/>
<text x="615.0" y="348" text-anchor="middle" font-weight="600">Firearm homicide rate (per 100k)</text>
<line x1="485" y1="447.39211443204476" x2="787" y2="447.39211443204476" stroke="#aaaaaa" stroke-width="0.7"/>
<polygon points="498.7,392.5 526.2,441.0 553.6,424.1 581.1,380.0 608.5,447.4 636.0,429.7 663.5,508.2 690.9,387.6 718.4,411.9 745.8,397.7 773.3,418.6 773.3,439.6 745.8,420.5 718.4,427.8 690.9,401.5 663.5,540.0 636.0,513.1 608.5,447.4 581.1,484.3 553.6,481.6 526.2,481.0 498.7,465.1" fill="#1f3a5f" opacity="0.18"/>
<polyline points="498.7,428.8 526.2,461.0 553.6,452.9 581.1,432.1 608.5,447.4 636.0,471.4 663.5,524.1 690.9,394.5 718.4,419.9 745.8,409.1 773.3,429.1" fill="none" stroke="#1f3a5f" stroke-width="1.6"/>
<circle cx="498.7" cy="428.8" r="2.6" fill="#1f3a5f"/>
<circle cx="526.2" cy="461.0" r="2.6" fill="#1f3a5f"/>
<circle cx="553.6" cy="452.9" r="2.6" fill="#1f3a5f"/>
<circle cx="581.1" cy="432.1" r="2.6" fill="#1f3a5f"/>
<circle cx="608.5" cy="447.4" r="2.6" fill="#1f3a5f"/>
<circle cx="636.0" cy="471.4" r="2.6" fill="#1f3a5f"/>
<circle cx="663.5" cy="524.1" r="2.6" fill="#1f3a5f"/>
<circle cx="690.9" cy="394.5" r="2.6" fill="#1f3a5f"/>
<circle cx="718.4" cy="419.9" r="2.6" fill="#1f3a5f"/>
<circle cx="745.8" cy="409.1" r="2.6" fill="#1f3a5f"/>
<circle cx="773.3" cy="429.1" r="2.6" fill="#1f3a5f"/>
<line x1="622.3" y1="380" x2="622.3" y2="540" stroke="#b9461a" stroke-dasharray="3 3"/>
<line x1="485" y1="540" x2="787" y2="540" stroke="#444"/>
<line x1="485" y1="380" x2="485" y2="540" stroke="#444"/>
<line x1="498.7" y1="540" x2="498.7" y2="543" stroke="#444"/>
<text x="498.7" y="555" text-anchor="middle" fill="#444">-5</text>
<line x1="526.2" y1="540" x2="526.2" y2="543" stroke="#444"/>
<text x="526.2" y="555" text-anchor="middle" fill="#444">-4</text>
<line x1="553.6" y1="540" x2="553.6" y2="543" stroke="#444"/>
<text x="553.6" y="555" text-anchor="middle" fill="#444">-3</text>
<line x1="581.1" y1="540" x2="581.1" y2="543" stroke="#444"/>
<text x="581.1" y="555" text-anchor="middle" fill="#444">-2</text>
<line x1="608.5" y1="540" x2="608.5" y2="543" stroke="#444"/>
<text x="608.5" y="555" text-anchor="middle" fill="#444">-1</text>
<line x1="636.0" y1="540" x2="636.0" y2="543" stroke="#444"/>
<text x="636.0" y="555" text-anchor="middle" fill="#444">0</text>
<line x1="663.5" y1="540" x2="663.5" y2="543" stroke="#444"/>
<text x="663.5" y="555" text-anchor="middle" fill="#444">1</text>
<line x1="690.9" y1="540" x2="690.9" y2="543" stroke="#444"/>
<text x="690.9" y="555" text-anchor="middle" fill="#444">2</text>
<line x1="718.4" y1="540" x2="718.4" y2="543" stroke="#444"/>
<text x="718.4" y="555" text-anchor="middle" fill="#444">3</text>
<line x1="745.8" y1="540" x2="745.8" y2="543" stroke="#444"/>
<text x="745.8" y="555" text-anchor="middle" fill="#444">4</text>
<line x1="773.3" y1="540" x2="773.3" y2="543" stroke="#444"/>
<text x="773.3" y="555" text-anchor="middle" fill="#444">5</text>
<line x1="482" y1="540.0" x2="485" y2="540.0" stroke="#444"/>
<text x="479" y="543.0" text-anchor="end" fill="#444">-2.2</text>
<line x1="482" y1="500.0" x2="485" y2="500.0" stroke="#444"/>
<text x="479" y="503.0" text-anchor="end" fill="#444">-1.3</text>
<line x1="482" y1="460.0" x2="485" y2="460.0" stroke="#444"/>
<text x="479" y="463.0" text-anchor="end" fill="#444">-0.3</text>
<line x1="482" y1="420.0" x2="485" y2="420.0" stroke="#444"/>
<text x="479" y="423.0" text-anchor="end" fill="#444">0.66</text>
<line x1="482" y1="380.0" x2="485" y2="380.0" stroke="#444"/>
<text x="479" y="383.0" text-anchor="end" fill="#444">1.6</text>
<text x="636.0" y="574" text-anchor="middle" fill="#444">Event time (years from adoption)</text>
<text x="437" y="460.0" text-anchor="middle" fill="#444" transform="rotate(-90 437 460.0)">ATT (per 100k)</text>
<rect x="15" y="620" width="380" height="260" fill="#fafaf7" stroke="#e2e2dc"/>
<text x="205.0" y="638" text-anchor="middle" font-weight="600">Total homicide rate (per 100k)</text>
<line x1="75" y1="734.4929936673243" x2="377" y2="734.4929936673243" stroke="#aaaaaa" stroke-width="0.7"/>
<polygon points="88.7,699.5 116.2,732.1 143.6,702.4 171.1,687.7 198.5,734.5 226.0,731.3 253.5,794.3 280.9,670.0 308.4,694.8 335.8,673.5 363.3,714.0 363.3,733.9 335.8,701.0 308.4,710.7 280.9,689.7 253.5,830.0 226.0,824.9 198.5,734.5 171.1,760.7 143.6,764.5 116.2,762.0 88.7,735.6" fill="#1f3a5f" opacity="0.18"/>
<polyline points="88.7,717.5 116.2,747.1 143.6,733.5 171.1,724.2 198.5,734.5 226.0,778.1 253.5,812.2 280.9,679.9 308.4,702.7 335.8,687.3 363.3,723.9" fill="none" stroke="#1f3a5f" stroke-width="1.6"/>
<circle cx="88.7" cy="717.5" r="2.6" fill="#1f3a5f"/>
<circle cx="116.2" cy="747.1" r="2.6" fill="#1f3a5f"/>
<circle cx="143.6" cy="733.5" r="2.6" fill="#1f3a5f"/>
<circle cx="171.1" cy="724.2" r="2.6" fill="#1f3a5f"/>
<circle cx="198.5" cy="734.5" r="2.6" fill="#1f3a5f"/>
<circle cx="226.0" cy="778.1" r="2.6" fill="#1f3a5f"/>
<circle cx="253.5" cy="812.2" r="2.6" fill="#1f3a5f"/>
<circle cx="280.9" cy="679.9" r="2.6" fill="#1f3a5f"/>
<circle cx="308.4" cy="702.7" r="2.6" fill="#1f3a5f"/>
<circle cx="335.8" cy="687.3" r="2.6" fill="#1f3a5f"/>
<circle cx="363.3" cy="723.9" r="2.6" fill="#1f3a5f"/>
<line x1="212.3" y1="670" x2="212.3" y2="830" stroke="#b9461a" stroke-dasharray="3 3"/>
<line x1="75" y1="830" x2="377" y2="830" stroke="#444"/>
<line x1="75" y1="670" x2="75" y2="830" stroke="#444"/>
<line x1="88.7" y1="830" x2="88.7" y2="833" stroke="#444"/>
<text x="88.7" y="845" text-anchor="middle" fill="#444">-5</text>
<line x1="116.2" y1="830" x2="116.2" y2="833" stroke="#444"/>
<text x="116.2" y="845" text-anchor="middle" fill="#444">-4</text>
<line x1="143.6" y1="830" x2="143.6" y2="833" stroke="#444"/>
<text x="143.6" y="845" text-anchor="middle" fill="#444">-3</text>
<line x1="171.1" y1="830" x2="171.1" y2="833" stroke="#444"/>
<text x="171.1" y="845" text-anchor="middle" fill="#444">-2</text>
<line x1="198.5" y1="830" x2="198.5" y2="833" stroke="#444"/>
<text x="198.5" y="845" text-anchor="middle" fill="#444">-1</text>
<line x1="226.0" y1="830" x2="226.0" y2="833" stroke="#444"/>
<text x="226.0" y="845" text-anchor="middle" fill="#444">0</text>
<line x1="253.5" y1="830" x2="253.5" y2="833" stroke="#444"/>
<text x="253.5" y="845" text-anchor="middle" fill="#444">1</text>
<line x1="280.9" y1="830" x2="280.9" y2="833" stroke="#444"/>
<text x="280.9" y="845" text-anchor="middle" fill="#444">2</text>
<line x1="308.4" y1="830" x2="308.4" y2="833" stroke="#444"/>
<text x="308.4" y="845" text-anchor="middle" fill="#444">3</text>
<line x1="335.8" y1="830" x2="335.8" y2="833" stroke="#444"/>
<text x="335.8" y="845" text-anchor="middle" fill="#444">4</text>
<line x1="363.3" y1="830" x2="363.3" y2="833" stroke="#444"/>
<text x="363.3" y="845" text-anchor="middle" fill="#444">5</text>
<line x1="72" y1="830.0" x2="75" y2="830.0" stroke="#444"/>
<text x="69" y="833.0" text-anchor="end" fill="#444">-2.1</text>
<line x1="72" y1="790.0" x2="75" y2="790.0" stroke="#444"/>
<text x="69" y="793.0" text-anchor="end" fill="#444">-1.2</text>
<line x1="72" y1="750.0" x2="75" y2="750.0" stroke="#444"/>
<text x="69" y="753.0" text-anchor="end" fill="#444">-0.34</text>
<line x1="72" y1="710.0" x2="75" y2="710.0" stroke="#444"/>
<text x="69" y="713.0" text-anchor="end" fill="#444">0.54</text>
<line x1="72" y1="670.0" x2="75" y2="670.0" stroke="#444"/>
<text x="69" y="673.0" text-anchor="end" fill="#444">1.4</text>
<text x="226.0" y="864" text-anchor="middle" fill="#444">Event time (years from adoption)</text>
<text x="27" y="750.0" text-anchor="middle" fill="#444" transform="rotate(-90 27 750.0)">ATT (per 100k)</text>
<rect x="425" y="620" width="380" height="260" fill="#fafaf7" stroke="#e2e2dc"/>
<text x="615.0" y="638" text-anchor="middle" font-weight="600">Motor vehicle theft rate (per 100k) [placebo]</text>
<line x1="485" y1="766.1589632790434" x2="787" y2="766.1589632790434" stroke="#aaaaaa" stroke-width="0.7"/>
<polygon points="498.7,716.6 526.2,737.6 553.6,738.5 581.1,755.0 608.5,766.2 636.0,670.0 663.5,725.1 690.9,781.6 718.4,788.9 745.8,796.7 773.3,809.7 773.3,830.0 745.8,819.3 718.4,806.2 690.9,791.2 663.5,794.6 636.0,780.7 608.5,766.2 581.1,789.3 553.6,817.3 526.2,826.1 498.7,823.0" fill="#1f3a5f" opacity="0.18"/>
<polyline points="498.7,769.8 526.2,781.8 553.6,777.9 581.1,772.2 608.5,766.2 636.0,725.4 663.5,759.8 690.9,786.4 718.4,797.5 745.8,808.0 773.3,819.9" fill="none" stroke="#1f3a5f" stroke-width="1.6"/>
<circle cx="498.7" cy="769.8" r="2.6" fill="#1f3a5f"/>
<circle cx="526.2" cy="781.8" r="2.6" fill="#1f3a5f"/>
<circle cx="553.6" cy="777.9" r="2.6" fill="#1f3a5f"/>
<circle cx="581.1" cy="772.2" r="2.6" fill="#1f3a5f"/>
<circle cx="608.5" cy="766.2" r="2.6" fill="#1f3a5f"/>
<circle cx="636.0" cy="725.4" r="2.6" fill="#1f3a5f"/>
<circle cx="663.5" cy="759.8" r="2.6" fill="#1f3a5f"/>
<circle cx="690.9" cy="786.4" r="2.6" fill="#1f3a5f"/>
<circle cx="718.4" cy="797.5" r="2.6" fill="#1f3a5f"/>
<circle cx="745.8" cy="808.0" r="2.6" fill="#1f3a5f"/>
<circle cx="773.3" cy="819.9" r="2.6" fill="#1f3a5f"/>
<line x1="622.3" y1="670" x2="622.3" y2="830" stroke="#b9461a" stroke-dasharray="3 3"/>
<line x1="485" y1="830" x2="787" y2="830" stroke="#444"/>
<line x1="485" y1="670" x2="485" y2="830" stroke="#444"/>
<line x1="498.7" y1="830" x2="498.7" y2="833" stroke="#444"/>
<text x="498.7" y="845" text-anchor="middle" fill="#444">-5</text>
<line x1="526.2" y1="830" x2="526.2" y2="833" stroke="#444"/>
<text x="526.2" y="845" text-anchor="middle" fill="#444">-4</text>
<line x1="553.6" y1="830" x2="553.6" y2="833" stroke="#444"/>
<text x="553.6" y="845" text-anchor="middle" fill="#444">-3</text>
<line x1="581.1" y1="830" x2="581.1" y2="833" stroke="#444"/>
<text x="581.1" y="845" text-anchor="middle" fill="#444">-2</text>
<line x1="608.5" y1="830" x2="608.5" y2="833" stroke="#444"/>
<text x="608.5" y="845" text-anchor="middle" fill="#444">-1</text>
<line x1="636.0" y1="830" x2="636.0" y2="833" stroke="#444"/>
<text x="636.0" y="845" text-anchor="middle" fill="#444">0</text>
<line x1="663.5" y1="830" x2="663.5" y2="833" stroke="#444"/>
<text x="663.5" y="845" text-anchor="middle" fill="#444">1</text>
<line x1="690.9" y1="830" x2="690.9" y2="833" stroke="#444"/>
<text x="690.9" y="845" text-anchor="middle" fill="#444">2</text>
<line x1="718.4" y1="830" x2="718.4" y2="833" stroke="#444"/>
<text x="718.4" y="845" text-anchor="middle" fill="#444">3</text>
<line x1="745.8" y1="830" x2="745.8" y2="833" stroke="#444"/>
<text x="745.8" y="845" text-anchor="middle" fill="#444">4</text>
<line x1="773.3" y1="830" x2="773.3" y2="833" stroke="#444"/>
<text x="773.3" y="845" text-anchor="middle" fill="#444">5</text>
<line x1="482" y1="830.0" x2="485" y2="830.0" stroke="#444"/>
<text x="479" y="833.0" text-anchor="end" fill="#444">-1.1e+02</text>
<line x1="482" y1="790.0" x2="485" y2="790.0" stroke="#444"/>
<text x="479" y="793.0" text-anchor="end" fill="#444">-43</text>
<line x1="482" y1="750.0" x2="485" y2="750.0" stroke="#444"/>
<text x="479" y="753.0" text-anchor="end" fill="#444">29</text>
<line x1="482" y1="710.0" x2="485" y2="710.0" stroke="#444"/>
<text x="479" y="713.0" text-anchor="end" fill="#444">1e+02</text>
<line x1="482" y1="670.0" x2="485" y2="670.0" stroke="#444"/>
<text x="479" y="673.0" text-anchor="end" fill="#444">1.7e+02</text>
<text x="636.0" y="864" text-anchor="middle" fill="#444">Event time (years from adoption)</text>
<text x="437" y="750.0" text-anchor="middle" fill="#444" transform="rotate(-90 437 750.0)">ATT (per 100k)</text>
<text x="805" y="608" text-anchor="end" fill="#888" font-size="10">Shaded band: pointwise 95% CI from cluster bootstrap. Vertical dashed line marks the year before adoption.</text>
</svg>