<svg xmlns="http://www.w3.org/2000/svg" viewBox="0 0 720 380" font-family="-apple-system, Segoe UI, Helvetica, Arial, sans-serif" font-size="12">
<rect x="0" y="0" width="720" height="380" fill="#fafaf7"/>
<text x="360.0" y="22" text-anchor="middle" font-size="14" font-weight="600">Connecticut (2013): Firearm suicide rate (per 100k)</text>
<polyline points="60.0,217.6 88.2,170.2 116.4,195.2 144.5,170.3 172.7,184.3 200.9,199.8 229.1,177.1 257.3,140.6 285.5,205.3 313.6,161.9 341.8,177.7 370.0,181.2 398.2,147.3 426.4,155.6 454.5,143.5 482.7,160.0 510.9,150.1 539.1,168.3 567.3,151.1 595.5,125.7 623.6,112.5 651.8,156.6 680.0,147.7" fill="none" stroke="#bbb" stroke-width="0.6" opacity="0.6"/>
<polyline points="60.0,236.1 88.2,238.2 116.4,234.1 144.5,240.8 172.7,242.8 200.9,235.5 229.1,237.2 257.3,231.0 285.5,218.5 313.6,226.3 341.8,227.3 370.0,216.2 398.2,215.5 426.4,221.9 454.5,210.5 482.7,205.3 510.9,200.2 539.1,205.5 567.3,208.0 595.5,208.8 623.6,193.4 651.8,196.2 680.0,196.5" fill="none" stroke="#bbb" stroke-width="0.6" opacity="0.6"/>
<polyline points="60.0,218.6 88.2,226.8 116.4,227.3 144.5,239.1 172.7,227.4 200.9,234.5 229.1,236.6 257.3,224.8 285.5,222.1 313.6,230.6 341.8,218.4 370.0,215.7 398.2,210.3 426.4,210.2 454.5,203.3 482.7,208.0 510.9,185.2 539.1,203.7 567.3,205.4 595.5,197.2 623.6,186.7 651.8,206.7 680.0,187.7" fill="none" stroke="#bbb" stroke-width="0.6" opacity="0.6"/>
<polyline points="60.0,234.1 88.2,218.1 116.4,236.6 144.5,235.0 172.7,237.0 200.9,230.5 229.1,235.4 257.3,240.1 285.5,230.1 313.6,224.0 341.8,215.9 370.0,219.1 398.2,221.8 426.4,218.8 454.5,216.4 482.7,210.1 510.9,205.6 539.1,206.8 567.3,207.6 595.5,206.8 623.6,196.4 651.8,182.2 680.0,188.9" fill="none" stroke="#bbb" stroke-width="0.6" opacity="0.6"/>
<polyline points="60.0,251.4 88.2,252.6 116.4,251.8 144.5,256.5 172.7,260.3 200.9,257.7 229.1,254.8 257.3,248.0 285.5,244.3 313.6,246.7 341.8,245.7 370.0,243.3 398.2,243.5 426.4,246.7 454.5,243.1 482.7,242.3 510.9,241.2 539.1,234.7 567.3,238.8 595.5,244.1 623.6,234.0 651.8,233.4 680.0,230.2" fill="none" stroke="#bbb" stroke-width="0.6" opacity="0.6"/>
<polyline points="60.0,249.8 88.2,253.4 116.4,249.7 144.5,258.2 172.7,261.7 200.9,262.0 229.1,258.5 257.3,262.6 285.5,248.7 313.6,250.4 341.8,248.7 370.0,248.7 398.2,249.7 426.4,239.8 454.5,243.0 482.7,238.4 510.9,235.4 539.1,227.6 567.3,232.1 595.5,234.7 623.6,216.6 651.8,225.0 680.0,219.5" fill="none" stroke="#bbb" stroke-width="0.6" opacity="0.6"/>
<polyline points="60.0,306.9 88.2,316.5 116.4,313.9 144.5,307.7 172.7,316.2 200.9,317.3 229.1,311.8 257.3,311.0 285.5,304.0 313.6,304.7 341.8,300.8 370.0,300.4 398.2,313.1 426.4,309.3 454.5,300.6 482.7,306.2 510.9,311.9 539.1,311.7 567.3,302.7 595.5,310.7 623.6,302.6 651.8,300.0 680.0,296.0" fill="none" stroke="#bbb" stroke-width="0.6" opacity="0.6"/>
<polyline points="60.0,274.3 88.2,274.5 116.4,266.5 144.5,275.7 172.7,270.0 200.9,278.4 229.1,284.7 257.3,266.8 285.5,274.6 313.6,269.0 341.8,266.3 370.0,270.3 398.2,253.4 426.4,263.9 454.5,264.7 482.7,252.0 510.9,254.5 539.1,251.5 567.3,250.7 595.5,241.1 623.6,230.2 651.8,232.1 680.0,240.6" fill="none" stroke="#bbb" stroke-width="0.6" opacity="0.6"/>
<polyline points="60.0,217.2 88.2,218.9 116.4,221.3 144.5,212.2 172.7,207.4 200.9,221.8 229.1,222.7 257.3,223.0 285.5,204.4 313.6,201.9 341.8,214.3 370.0,208.6 398.2,192.6 426.4,207.3 454.5,185.9 482.7,188.4 510.9,171.8 539.1,171.3 567.3,191.8 595.5,160.8 623.6,177.0 651.8,166.6 680.0,157.7" fill="none" stroke="#bbb" stroke-width="0.6" opacity="0.6"/>
<polyline points="60.0,258.5 88.2,252.0 116.4,258.1 144.5,264.7 172.7,259.5 200.9,255.2 229.1,264.7 257.3,254.5 285.5,253.7 313.6,255.0 341.8,263.2 370.0,245.4 398.2,244.1 426.4,243.6 454.5,245.8 482.7,233.1 510.9,231.4 539.1,234.5 567.3,238.2 595.5,231.9 623.6,218.2 651.8,219.2 680.0,208.9" fill="none" stroke="#bbb" stroke-width="0.6" opacity="0.6"/>
<polyline points="60.0,267.6 88.2,257.7 116.4,246.6 144.5,250.0 172.7,257.1 200.9,247.9 229.1,247.4 257.3,259.8 285.5,254.1 313.6,251.0 341.8,242.3 370.0,217.1 398.2,239.8 426.4,241.4 454.5,247.2 482.7,233.9 510.9,210.7 539.1,220.1 567.3,220.6 595.5,211.5 623.6,200.3 651.8,198.7 680.0,210.7" fill="none" stroke="#bbb" stroke-width="0.6" opacity="0.6"/>
<polyline points="60.0,242.1 88.2,233.4 116.4,224.0 144.5,231.1 172.7,232.9 200.9,230.8 229.1,221.1 257.3,229.4 285.5,228.1 313.6,228.5 341.8,216.2 370.0,212.3 398.2,216.9 426.4,213.0 454.5,205.7 482.7,207.1 510.9,214.1 539.1,204.4 567.3,220.9 595.5,202.3 623.6,199.1 651.8,201.3 680.0,198.4" fill="none" stroke="#bbb" stroke-width="0.6" opacity="0.6"/>
<polyline points="60.0,244.4 88.2,244.6 116.4,252.7 144.5,237.5 172.7,242.9 200.9,246.9 229.1,245.9 257.3,244.1 285.5,251.7 313.6,237.9 341.8,240.8 370.0,241.9 398.2,234.1 426.4,225.7 454.5,220.3 482.7,227.4 510.9,226.5 539.1,220.2 567.3,225.2 595.5,235.1 623.6,220.4 651.8,213.3 680.0,213.9" fill="none" stroke="#bbb" stroke-width="0.6" opacity="0.6"/>
<polyline points="60.0,258.6 88.2,265.3 116.4,272.9 144.5,250.2 172.7,248.1 200.9,260.0 229.1,257.1 257.3,245.7 285.5,243.1 313.6,253.4 341.8,237.7 370.0,238.7 398.2,216.8 426.4,235.3 454.5,224.8 482.7,238.9 510.9,205.4 539.1,209.1 567.3,212.2 595.5,223.1 623.6,203.6 651.8,206.4 680.0,205.6" fill="none" stroke="#bbb" stroke-width="0.6" opacity="0.6"/>
<polyline points="60.0,273.2 88.2,269.2 116.4,275.8 144.5,274.9 172.7,272.5 200.9,267.6 229.1,272.1 257.3,270.3 285.5,269.4 313.6,265.8 341.8,263.7 370.0,263.2 398.2,257.4 426.4,257.8 454.5,255.5 482.7,252.6 510.9,257.0 539.1,242.9 567.3,250.2 595.5,247.8 623.6,242.8 651.8,239.3 680.0,240.3" fill="none" stroke="#bbb" stroke-width="0.6" opacity="0.6"/>
<polyline points="60.0,279.7 88.2,281.1 116.4,280.2 144.5,275.2 172.7,278.6 200.9,281.8 229.1,277.2 257.3,272.1 285.5,274.4 313.6,275.1 341.8,266.5 370.0,269.5 398.2,263.8 426.4,270.9 454.5,272.1 482.7,266.6 510.9,260.4 539.1,262.8 567.3,264.4 595.5,263.8 623.6,256.7 651.8,254.9 680.0,260.0" fill="none" stroke="#bbb" stroke-width="0.6" opacity="0.6"/>
<polyline points="60.0,248.5 88.2,250.0 116.4,253.0 144.5,258.0 172.7,251.0 200.9,248.3 229.1,247.2 257.3,253.8 285.5,245.2 313.6,241.7 341.8,237.4 370.0,231.3 398.2,229.7 426.4,224.0 454.5,221.1 482.7,212.8 510.9,203.5 539.1,199.1 567.3,207.8 595.5,203.8 623.6,196.1 651.8,185.3 680.0,197.1" fill="none" stroke="#bbb" stroke-width="0.6" opacity="0.6"/>
<polyline points="60.0,239.3 88.2,233.7 116.4,236.9 144.5,238.0 172.7,236.0 200.9,249.1 229.1,225.6 257.3,223.6 285.5,230.7 313.6,236.4 341.8,232.1 370.0,221.4 398.2,228.3 426.4,239.2 454.5,223.3 482.7,232.4 510.9,221.8 539.1,214.9 567.3,216.4 595.5,227.8 623.6,205.5 651.8,218.2 680.0,208.8" fill="none" stroke="#bbb" stroke-width="0.6" opacity="0.6"/>
<polyline points="60.0,166.9 88.2,191.0 116.4,185.8 144.5,205.6 172.7,169.6 200.9,211.2 229.1,191.2 257.3,178.3 285.5,174.8 313.6,171.3 341.8,160.0 370.0,160.1 398.2,168.6 426.4,167.8 454.5,141.3 482.7,156.4 510.9,101.6 539.1,161.9 567.3,150.0 595.5,133.8 623.6,86.3 651.8,108.3 680.0,125.5" fill="none" stroke="#bbb" stroke-width="0.6" opacity="0.6"/>
<polyline points="60.0,246.8 88.2,248.6 116.4,251.5 144.5,254.3 172.7,252.3 200.9,250.0 229.1,258.7 257.3,252.2 285.5,252.6 313.6,250.4 341.8,249.0 370.0,252.1 398.2,245.6 426.4,247.8 454.5,245.5 482.7,246.3 510.9,241.6 539.1,238.9 567.3,250.0 595.5,240.2 623.6,235.9 651.8,229.0 680.0,229.8" fill="none" stroke="#bbb" stroke-width="0.6" opacity="0.6"/>
<polyline points="60.0,262.2 88.2,240.4 116.4,261.9 144.5,261.8 172.7,234.5 200.9,261.6 229.1,247.6 257.3,237.0 285.5,246.7 313.6,239.8 341.8,249.9 370.0,232.0 398.2,214.6 426.4,203.2 454.5,220.0 482.7,221.7 510.9,193.7 539.1,222.0 567.3,216.2 595.5,219.8 623.6,184.5 651.8,182.1 680.0,211.5" fill="none" stroke="#bbb" stroke-width="0.6" opacity="0.6"/>
<polyline points="60.0,264.2 88.2,266.0 116.4,275.7 144.5,278.6 172.7,270.4 200.9,267.5 229.1,278.1 257.3,272.6 285.5,276.3 313.6,269.0 341.8,266.5 370.0,264.5 398.2,267.4 426.4,254.4 454.5,266.6 482.7,265.8 510.9,260.3 539.1,249.2 567.3,244.1 595.5,253.2 623.6,250.8 651.8,227.7 680.0,240.1" fill="none" stroke="#bbb" stroke-width="0.6" opacity="0.6"/>
<polyline points="60.0,263.0 88.2,275.7 116.4,268.1 144.5,285.0 172.7,266.0 200.9,275.5 229.1,273.7 257.3,261.4 285.5,264.6 313.6,246.5 341.8,270.3 370.0,250.3 398.2,265.4 426.4,240.3 454.5,243.1 482.7,229.6 510.9,222.4 539.1,221.0 567.3,223.9 595.5,236.3 623.6,243.6 651.8,225.2 680.0,235.5" fill="none" stroke="#bbb" stroke-width="0.6" opacity="0.6"/>
<polyline points="60.0,218.1 88.2,205.2 116.4,206.8 144.5,217.4 172.7,229.6 200.9,221.9 229.1,225.2 257.3,222.5 285.5,225.6 313.6,221.6 341.8,213.4 370.0,208.6 398.2,213.0 426.4,200.8 454.5,183.6 482.7,201.1 510.9,191.6 539.1,181.0 567.3,179.5 595.5,169.7 623.6,169.5 651.8,168.7 680.0,181.3" fill="none" stroke="#bbb" stroke-width="0.6" opacity="0.6"/>
<polyline points="60.0,214.4 88.2,205.2 116.4,209.0 144.5,212.5 172.7,210.5 200.9,218.0 229.1,214.4 257.3,206.7 285.5,207.0 313.6,212.4 341.8,220.6 370.0,221.3 398.2,215.1 426.4,210.3 454.5,218.9 482.7,204.7 510.9,209.2 539.1,196.2 567.3,203.2 595.5,199.0 623.6,184.4 651.8,182.5 680.0,186.1" fill="none" stroke="#bbb" stroke-width="0.6" opacity="0.6"/>
<polyline points="60.0,267.9 88.2,267.6 116.4,278.2 144.5,269.7 172.7,268.7 200.9,273.1 229.1,269.7 257.3,267.3 285.5,277.0 313.6,263.6 341.8,263.4 370.0,257.6 398.2,256.2 426.4,261.9 454.5,250.4 482.7,243.9 510.9,245.1 539.1,241.0 567.3,239.2 595.5,246.8 623.6,238.7 651.8,233.4 680.0,234.5" fill="none" stroke="#bbb" stroke-width="0.6" opacity="0.6"/>
<polyline points="60.0,225.5 88.2,232.8 116.4,243.7 144.5,234.1 172.7,238.0 200.9,234.7 229.1,235.4 257.3,226.3 285.5,222.3 313.6,220.2 341.8,201.9 370.0,211.5 398.2,206.1 426.4,206.4 454.5,197.7 482.7,183.7 510.9,207.0 539.1,199.7 567.3,197.9 595.5,179.8 623.6,176.5 651.8,181.3 680.0,173.0" fill="none" stroke="#bbb" stroke-width="0.6" opacity="0.6"/>
<polyline points="60.0,242.8 88.2,240.4 116.4,228.6 144.5,240.3 172.7,235.2 200.9,240.2 229.1,235.2 257.3,238.8 285.5,231.8 313.6,222.6 341.8,233.7 370.0,227.3 398.2,221.7 426.4,213.2 454.5,229.1 482.7,219.2 510.9,213.6 539.1,218.3 567.3,208.3 595.5,212.3 623.6,198.8 651.8,206.2 680.0,203.2" fill="none" stroke="#bbb" stroke-width="0.6" opacity="0.6"/>
<polyline points="60.0,271.9 88.2,268.6 116.4,268.4 144.5,268.7 172.7,264.6 200.9,267.9 229.1,269.3 257.3,264.6 285.5,260.4 313.6,266.8 341.8,256.0 370.0,261.9 398.2,253.0 426.4,255.0 454.5,252.0 482.7,247.8 510.9,246.5 539.1,243.6 567.3,249.1 595.5,253.0 623.6,247.6 651.8,241.7 680.0,240.5" fill="none" stroke="#bbb" stroke-width="0.6" opacity="0.6"/>
<polyline points="60.0,247.6 88.2,250.7 116.4,245.1 144.5,246.2 172.7,251.1 200.9,251.8 229.1,254.5 257.3,247.6 285.5,240.5 313.6,238.1 341.8,230.8 370.0,230.1 398.2,222.3 426.4,221.5 454.5,225.4 482.7,213.7 510.9,213.9 539.1,224.0 567.3,216.6 595.5,210.9 623.6,214.6 651.8,211.5 680.0,221.7" fill="none" stroke="#bbb" stroke-width="0.6" opacity="0.6"/>
<polyline points="60.0,270.7 88.2,260.4 116.4,245.8 144.5,244.9 172.7,230.5 200.9,231.1 229.1,272.2 257.3,238.3 285.5,249.3 313.6,243.8 341.8,251.9 370.0,230.7 398.2,238.9 426.4,233.1 454.5,237.8 482.7,223.9 510.9,225.8 539.1,216.8 567.3,208.0 595.5,222.1 623.6,209.7 651.8,210.3 680.0,224.0" fill="none" stroke="#bbb" stroke-width="0.6" opacity="0.6"/>
<polyline points="60.0,239.6 88.2,232.4 116.4,238.9 144.5,233.4 172.7,229.4 200.9,227.2 229.1,233.8 257.3,222.8 285.5,230.7 313.6,229.5 341.8,229.4 370.0,224.0 398.2,215.8 426.4,222.4 454.5,224.3 482.7,218.8 510.9,213.7 539.1,218.3 567.3,209.8 595.5,207.3 623.6,201.0 651.8,199.7 680.0,194.1" fill="none" stroke="#bbb" stroke-width="0.6" opacity="0.6"/>
<polyline points="60.0,261.4 88.2,266.2 116.4,265.8 144.5,268.8 172.7,266.9 200.9,271.7 229.1,267.9 257.3,264.6 285.5,262.3 313.6,257.9 341.8,260.3 370.0,258.7 398.2,258.3 426.4,259.4 454.5,252.2 482.7,252.5 510.9,248.0 539.1,245.0 567.3,246.9 595.5,246.1 623.6,237.3 651.8,234.6 680.0,234.6" fill="none" stroke="#bbb" stroke-width="0.6" opacity="0.6"/>
<polyline points="60.0,244.1 88.2,250.1 116.4,248.6 144.5,249.6 172.7,248.1 200.9,250.4 229.1,250.0 257.3,253.3 285.5,246.0 313.6,221.1 341.8,226.1 370.0,221.5 398.2,218.5 426.4,226.9 454.5,215.3 482.7,219.0 510.9,207.9 539.1,212.1 567.3,217.4 595.5,215.5 623.6,210.1 651.8,205.8 680.0,197.1" fill="none" stroke="#bbb" stroke-width="0.6" opacity="0.6"/>
<polyline points="60.0,260.8 88.2,258.0 116.4,265.1 144.5,259.5 172.7,257.9 200.9,260.6 229.1,263.1 257.3,258.1 285.5,258.8 313.6,252.9 341.8,249.9 370.0,253.2 398.2,252.0 426.4,249.2 454.5,249.2 482.7,243.9 510.9,244.4 539.1,243.9 567.3,246.6 595.5,242.3 623.6,241.4 651.8,239.8 680.0,239.5" fill="none" stroke="#bbb" stroke-width="0.6" opacity="0.6"/>
<polyline points="60.0,268.2 88.2,270.5 116.4,270.5 144.5,271.3 172.7,272.9 200.9,273.9 229.1,266.4 257.3,265.5 285.5,265.6 313.6,259.3 341.8,265.1 370.0,265.9 398.2,248.1 426.4,265.4 454.5,251.2 482.7,245.1 510.9,249.3 539.1,252.6 567.3,251.3 595.5,248.5 623.6,241.0 651.8,232.5 680.0,238.2" fill="none" stroke="#bbb" stroke-width="0.6" opacity="0.6"/>
<polyline points="60.0,211.5 88.2,216.1 116.4,214.3 144.5,213.8 172.7,216.5 200.9,222.3 229.1,205.3 257.3,226.5 285.5,223.0 313.6,205.1 341.8,211.5 370.0,212.7 398.2,195.8 426.4,200.5 454.5,201.3 482.7,185.8 510.9,166.1 539.1,171.5 567.3,209.6 595.5,193.6 623.6,189.1 651.8,190.8 680.0,176.7" fill="none" stroke="#bbb" stroke-width="0.6" opacity="0.6"/>
<polyline points="60.0,194.3 88.2,146.8 116.4,164.1 144.5,226.8 172.7,209.5 200.9,174.4 229.1,187.9 257.3,147.2 285.5,161.9 313.6,165.8 341.8,165.1 370.0,131.4 398.2,159.5 426.4,181.7 454.5,148.7 482.7,164.3 510.9,138.5 539.1,119.9 567.3,108.3 595.5,81.9 623.6,62.7 651.8,129.4 680.0,106.8" fill="none" stroke="#bbb" stroke-width="0.6" opacity="0.6"/>
<polyline points="60.0,301.1 88.2,309.0 116.4,305.5 144.5,302.0 172.7,308.0 200.9,310.4 229.1,307.0 257.3,303.2 285.5,298.8 313.6,298.3 341.8,294.7 370.0,295.1 398.2,302.5 426.4,301.2 454.5,294.2 482.7,296.6 510.9,301.7 539.1,301.0 567.3,293.4 595.5,298.3 623.6,289.7 651.8,288.0 680.0,286.2" fill="none" stroke="#1f3a5f" stroke-width="2" stroke-dasharray="6 4"/>
<polyline points="60.0,297.3 88.2,307.6 116.4,306.4 144.5,301.2 172.7,299.0 200.9,310.1 229.1,310.4 257.3,300.2 285.5,305.6 313.6,300.6 341.8,300.3 370.0,300.4 398.2,306.6 426.4,296.0 454.5,302.7 482.7,300.6 510.9,301.0 539.1,295.0 567.3,297.9 595.5,300.7 623.6,297.0 651.8,294.0 680.0,300.6" fill="none" stroke="#b9461a" stroke-width="2.4"/>
<line x1="384.1" y1="50" x2="384.1" y2="330" stroke="#1f2024" stroke-width="0.8" stroke-dasharray="4 3"/>
<text x="384.1" y="45" text-anchor="middle" fill="#1f2024" font-size="10">adoption (2013)</text>
<line x1="60" y1="330" x2="680" y2="330" stroke="#444"/>
<line x1="60" y1="50" x2="60" y2="330" stroke="#444"/>
<line x1="60.0" y1="330" x2="60.0" y2="334" stroke="#444"/>
<text x="60.0" y="348" text-anchor="middle" fill="#444">2001</text>
<line x1="116.4" y1="330" x2="116.4" y2="334" stroke="#444"/>
<text x="116.4" y="348" text-anchor="middle" fill="#444">2003</text>
<line x1="172.7" y1="330" x2="172.7" y2="334" stroke="#444"/>
<text x="172.7" y="348" text-anchor="middle" fill="#444">2005</text>
<line x1="229.1" y1="330" x2="229.1" y2="334" stroke="#444"/>
<text x="229.1" y="348" text-anchor="middle" fill="#444">2007</text>
<line x1="285.5" y1="330" x2="285.5" y2="334" stroke="#444"/>
<text x="285.5" y="348" text-anchor="middle" fill="#444">2009</text>
<line x1="341.8" y1="330" x2="341.8" y2="334" stroke="#444"/>
<text x="341.8" y="348" text-anchor="middle" fill="#444">2011</text>
<line x1="398.2" y1="330" x2="398.2" y2="334" stroke="#444"/>
<text x="398.2" y="348" text-anchor="middle" fill="#444">2013</text>
<line x1="454.5" y1="330" x2="454.5" y2="334" stroke="#444"/>
<text x="454.5" y="348" text-anchor="middle" fill="#444">2015</text>
<line x1="510.9" y1="330" x2="510.9" y2="334" stroke="#444"/>
<text x="510.9" y="348" text-anchor="middle" fill="#444">2017</text>
<line x1="567.3" y1="330" x2="567.3" y2="334" stroke="#444"/>
<text x="567.3" y="348" text-anchor="middle" fill="#444">2019</text>
<line x1="623.6" y1="330" x2="623.6" y2="334" stroke="#444"/>
<text x="623.6" y="348" text-anchor="middle" fill="#444">2021</text>
<line x1="680.0" y1="330" x2="680.0" y2="334" stroke="#444"/>
<text x="680.0" y="348" text-anchor="middle" fill="#444">2023</text>
<line x1="56" y1="330.0" x2="60" y2="330.0" stroke="#444"/>
<text x="53" y="333.0" text-anchor="end" fill="#444">0.53</text>
<line x1="56" y1="260.0" x2="60" y2="260.0" stroke="#444"/>
<text x="53" y="263.0" text-anchor="end" fill="#444">6.6</text>
<line x1="56" y1="190.0" x2="60" y2="190.0" stroke="#444"/>
<text x="53" y="193.0" text-anchor="end" fill="#444">13</text>
<line x1="56" y1="120.0" x2="60" y2="120.0" stroke="#444"/>
<text x="53" y="123.0" text-anchor="end" fill="#444">19</text>
<line x1="56" y1="50.0" x2="60" y2="50.0" stroke="#444"/>
<text x="53" y="53.0" text-anchor="end" fill="#444">25</text>
<rect x="520" y="60" width="190" height="60" fill="white" stroke="#e2e2dc"/>
<line x1="530" y1="75" x2="560" y2="75" stroke="#b9461a" stroke-width="2.4"/>
<text x="565" y="79" font-size="11">Connecticut (treated)</text>
<line x1="530" y1="95" x2="560" y2="95" stroke="#1f3a5f" stroke-width="2" stroke-dasharray="6 4"/>
<text x="565" y="99" font-size="11">Synthetic counterfactual</text>
<line x1="530" y1="112" x2="560" y2="112" stroke="#bbb" stroke-width="0.6"/>
<text x="565" y="116" font-size="10">Donor states (gray)</text>
</svg>