<svg xmlns="http://www.w3.org/2000/svg" viewBox="0 0 720 380" font-family="-apple-system, Segoe UI, Helvetica, Arial, sans-serif" font-size="12">
<rect x="0" y="0" width="720" height="380" fill="#fafaf7"/>
<text x="360.0" y="22" text-anchor="middle" font-size="14" font-weight="600">Connecticut (2013): Total homicide rate (per 100k)</text>
<polyline points="60.0,244.7 88.2,258.3 116.4,246.5 144.5,251.8 172.7,262.7 200.9,255.3 229.1,242.8 257.3,274.7 285.5,285.3 313.6,269.2 341.8,271.9 370.0,272.4 398.2,265.5 426.4,252.7 454.5,219.7 482.7,233.1 510.9,214.6 539.1,241.4 567.3,200.7 595.5,237.3 623.6,245.0 651.8,198.8 680.0,219.6" fill="none" stroke="#bbb" stroke-width="0.6" opacity="0.6"/>
<polyline points="60.0,213.2 88.2,236.4 116.4,238.1 144.5,252.0 172.7,216.7 200.9,215.6 229.1,207.5 257.3,226.1 285.5,235.4 313.6,250.2 341.8,243.7 370.0,231.9 398.2,231.1 426.4,250.9 454.5,230.9 482.7,214.6 510.9,211.7 539.1,221.9 567.3,220.4 595.5,198.5 623.6,200.4 651.8,171.2 680.0,185.7" fill="none" stroke="#bbb" stroke-width="0.6" opacity="0.6"/>
<polyline points="60.0,253.6 88.2,257.0 116.4,238.7 144.5,241.4 172.7,235.8 200.9,229.3 229.1,233.4 257.3,249.8 285.5,244.1 313.6,265.9 341.8,254.3 370.0,248.1 398.2,255.7 426.4,248.1 454.5,242.1 482.7,229.7 510.9,215.8 539.1,228.1 567.3,221.8 595.5,184.6 623.6,178.7 651.8,188.9 680.0,198.3" fill="none" stroke="#bbb" stroke-width="0.6" opacity="0.6"/>
<polyline points="60.0,226.0 88.2,231.7 116.4,221.0 144.5,230.4 172.7,226.8 200.9,211.0 229.1,211.0 257.3,231.8 285.5,250.0 313.6,241.9 341.8,244.9 370.0,254.0 398.2,255.6 426.4,265.4 454.5,267.2 482.7,251.8 510.9,246.9 539.1,255.5 567.3,254.3 595.5,234.4 623.6,237.6 651.8,232.9 680.0,240.1" fill="none" stroke="#bbb" stroke-width="0.6" opacity="0.6"/>
<polyline points="60.0,255.7 88.2,254.1 116.4,254.4 144.5,254.3 172.7,260.7 200.9,243.5 229.1,238.8 257.3,241.7 285.5,253.7 313.6,257.1 341.8,258.2 370.0,257.3 398.2,260.8 426.4,261.2 454.5,258.4 482.7,255.2 510.9,259.8 539.1,257.4 567.3,257.3 595.5,247.6 623.6,269.9 651.8,255.3 680.0,262.7" fill="none" stroke="#bbb" stroke-width="0.6" opacity="0.6"/>
<polyline points="60.0,231.7 88.2,232.0 116.4,225.5 144.5,234.9 172.7,244.4 200.9,240.5 229.1,225.9 257.3,238.5 285.5,250.0 313.6,250.6 341.8,252.2 370.0,248.4 398.2,251.7 426.4,246.6 454.5,245.4 482.7,238.5 510.9,239.5 539.1,244.7 567.3,250.9 595.5,208.8 623.6,221.2 651.8,214.7 680.0,226.7" fill="none" stroke="#bbb" stroke-width="0.6" opacity="0.6"/>
<polyline points="60.0,292.7 88.2,301.8 116.4,304.1 144.5,292.6 172.7,302.4 200.9,305.8 229.1,302.6 257.3,300.6 285.5,303.9 313.6,303.1 341.8,308.3 370.0,307.5 398.2,297.2 426.4,308.9 454.5,310.0 482.7,294.8 510.9,290.9 539.1,289.8 567.3,292.6 595.5,288.5 623.6,306.4 651.8,300.7 680.0,294.2" fill="none" stroke="#bbb" stroke-width="0.6" opacity="0.6"/>
<polyline points="60.0,304.9 88.2,307.7 116.4,304.9 144.5,307.8 172.7,309.7 200.9,303.0 229.1,310.3 257.3,293.2 285.5,310.9 313.6,311.1 341.8,308.5 370.0,306.4 398.2,310.0 426.4,301.8 454.5,296.3 482.7,296.4 510.9,285.8 539.1,297.9 567.3,298.0 595.5,280.5 623.6,297.1 651.8,302.6 680.0,294.7" fill="none" stroke="#bbb" stroke-width="0.6" opacity="0.6"/>
<polyline points="60.0,297.2 88.2,291.7 116.4,302.2 144.5,297.9 172.7,294.8 200.9,295.7 229.1,283.7 257.3,307.5 285.5,306.9 313.6,309.0 341.8,298.0 370.0,302.5 398.2,303.6 426.4,301.5 454.5,301.7 482.7,288.5 510.9,294.9 539.1,301.7 567.3,306.8 595.5,297.6 623.6,297.4 651.8,291.0 680.0,293.6" fill="none" stroke="#bbb" stroke-width="0.6" opacity="0.6"/>
<polyline points="60.0,236.7 88.2,248.4 116.4,254.2 144.5,259.3 172.7,251.1 200.9,250.6 229.1,253.3 257.3,259.6 285.5,262.2 313.6,272.1 341.8,264.4 370.0,264.4 398.2,254.4 426.4,259.7 454.5,252.2 482.7,240.0 510.9,244.0 539.1,243.5 567.3,253.0 595.5,226.8 623.6,230.6 651.8,235.5 680.0,250.7" fill="none" stroke="#bbb" stroke-width="0.6" opacity="0.6"/>
<polyline points="60.0,281.9 88.2,289.0 116.4,265.9 144.5,267.6 172.7,278.2 200.9,266.8 229.1,276.3 257.3,273.4 285.5,267.9 313.6,282.0 341.8,275.6 370.0,288.1 398.2,273.3 426.4,285.1 454.5,269.3 482.7,266.5 510.9,265.7 539.1,271.2 567.3,283.8 595.5,281.5 623.6,262.5 651.8,263.5 680.0,256.4" fill="none" stroke="#bbb" stroke-width="0.6" opacity="0.6"/>
<polyline points="60.0,267.8 88.2,264.8 116.4,268.5 144.5,250.9 172.7,266.3 200.9,272.3 229.1,262.2 257.3,264.2 285.5,270.2 313.6,269.4 341.8,281.2 370.0,265.9 398.2,275.0 426.4,277.7 454.5,261.0 482.7,247.1 510.9,247.4 539.1,252.1 567.3,258.7 595.5,230.3 623.6,215.7 651.8,229.6 680.0,240.8" fill="none" stroke="#bbb" stroke-width="0.6" opacity="0.6"/>
<polyline points="60.0,176.3 88.2,148.7 116.4,152.1 144.5,155.6 172.7,192.9 200.9,152.8 229.1,131.0 257.3,161.1 285.5,168.6 313.6,179.1 341.8,178.3 370.0,184.2 398.2,183.6 426.4,189.4 454.5,185.4 482.7,167.7 510.9,161.1 539.1,173.2 567.3,169.1 595.5,114.2 623.6,62.7 651.8,104.5 680.0,130.7" fill="none" stroke="#bbb" stroke-width="0.6" opacity="0.6"/>
<polyline points="60.0,307.9 88.2,313.3 116.4,311.4 144.5,309.4 172.7,308.4 200.9,304.4 229.1,307.4 257.3,296.1 285.5,301.3 313.6,303.5 341.8,301.5 370.0,301.5 398.2,303.5 426.4,306.6 454.5,304.5 482.7,307.6 510.9,304.6 539.1,304.7 567.3,305.8 595.5,305.9 623.6,308.3 651.8,298.6 680.0,269.9" fill="none" stroke="#bbb" stroke-width="0.6" opacity="0.6"/>
<polyline points="60.0,237.1 88.2,236.6 116.4,245.8 144.5,241.8 172.7,243.7 200.9,231.3 229.1,239.1 257.3,253.0 285.5,243.4 313.6,248.5 341.8,243.4 370.0,232.0 398.2,242.5 426.4,253.7 454.5,248.1 482.7,244.6 510.9,250.8 539.1,252.7 567.3,249.9 595.5,225.6 623.6,225.4 651.8,234.0 680.0,247.8" fill="none" stroke="#bbb" stroke-width="0.6" opacity="0.6"/>
<polyline points="60.0,295.6 88.2,297.8 116.4,294.0 144.5,297.9 172.7,297.6 200.9,295.0 229.1,297.7 257.3,299.4 285.5,308.9 313.6,303.5 341.8,309.0 370.0,303.0 398.2,299.5 426.4,306.1 454.5,295.1 482.7,303.2 510.9,300.2 539.1,302.1 567.3,297.5 595.5,282.5 623.6,279.9 651.8,284.6 680.0,284.9" fill="none" stroke="#bbb" stroke-width="0.6" opacity="0.6"/>
<polyline points="60.0,238.7 88.2,249.0 116.4,259.6 144.5,244.8 172.7,234.1 200.9,242.5 229.1,243.5 257.3,223.6 285.5,240.5 313.6,233.2 341.8,245.5 370.0,240.4 398.2,245.4 426.4,237.8 454.5,215.9 482.7,208.4 510.9,195.3 539.1,195.6 567.3,201.0 595.5,168.9 623.6,189.8 651.8,189.8 680.0,201.3" fill="none" stroke="#bbb" stroke-width="0.6" opacity="0.6"/>
<polyline points="60.0,194.5 88.2,203.3 116.4,202.6 144.5,222.1 172.7,228.4 200.9,220.6 229.1,234.3 257.3,219.3 285.5,239.0 313.6,235.0 341.8,222.5 370.0,231.4 398.2,229.8 426.4,210.9 454.5,213.4 482.7,220.5 510.9,242.0 539.1,230.8 567.3,192.6 595.5,184.3 623.6,202.3 651.8,225.3 680.0,230.0" fill="none" stroke="#bbb" stroke-width="0.6" opacity="0.6"/>
<polyline points="60.0,277.1 88.2,304.2 116.4,283.7 144.5,284.2 172.7,301.9 200.9,280.7 229.1,289.8 257.3,272.0 285.5,283.5 313.6,293.8 341.8,288.6 370.0,288.9 398.2,297.3 426.4,277.7 454.5,278.1 482.7,279.7 510.9,275.3 539.1,280.7 567.3,287.5 595.5,260.3 623.6,283.9 651.8,265.3 680.0,284.9" fill="none" stroke="#bbb" stroke-width="0.6" opacity="0.6"/>
<polyline points="60.0,244.7 88.2,238.7 116.4,246.6 144.5,243.7 172.7,236.7 200.9,245.6 229.1,240.7 257.3,240.1 285.5,257.4 313.6,260.9 341.8,258.1 370.0,261.5 398.2,264.3 426.4,260.2 454.5,258.2 482.7,237.6 510.9,246.0 539.1,253.1 567.3,243.8 595.5,219.2 623.6,200.5 651.8,217.8 680.0,219.1" fill="none" stroke="#bbb" stroke-width="0.6" opacity="0.6"/>
<polyline points="60.0,313.1 88.2,317.3 116.4,308.7 144.5,310.9 172.7,302.4 200.9,298.2 229.1,292.0 257.3,304.7 285.5,302.8 313.6,307.9 341.8,280.5 370.0,279.7 398.2,298.0 426.4,285.9 454.5,290.4 482.7,299.3 510.9,310.0 539.1,295.8 567.3,283.7 595.5,271.4 623.6,303.6 651.8,277.6 680.0,279.9" fill="none" stroke="#bbb" stroke-width="0.6" opacity="0.6"/>
<polyline points="60.0,294.1 88.2,290.4 116.4,284.3 144.5,297.0 172.7,294.1 200.9,288.9 229.1,273.8 257.3,275.6 285.5,297.1 313.6,288.0 341.8,278.0 370.0,290.0 398.2,287.4 426.4,289.9 454.5,283.6 482.7,293.2 510.9,298.3 539.1,297.0 567.3,296.4 595.5,279.8 623.6,288.7 651.8,286.0 680.0,281.0" fill="none" stroke="#bbb" stroke-width="0.6" opacity="0.6"/>
<polyline points="60.0,309.7 88.2,315.2 116.4,310.1 144.5,310.2 172.7,308.3 200.9,314.6 229.1,315.6 257.3,313.5 285.5,316.7 313.6,314.6 341.8,311.5 370.0,312.6 398.2,306.5 426.4,311.6 454.5,312.7 482.7,308.7 510.9,314.9 539.1,307.0 567.3,295.1 595.5,316.1 623.6,315.3 651.8,301.8 680.0,303.8" fill="none" stroke="#bbb" stroke-width="0.6" opacity="0.6"/>
<polyline points="60.0,254.8 88.2,216.9 116.4,244.4 144.5,207.8 172.7,226.8 200.9,235.2 229.1,202.3 257.3,218.2 285.5,194.6 313.6,236.3 341.8,225.1 370.0,252.6 398.2,248.2 426.4,262.4 454.5,251.8 482.7,237.8 510.9,234.9 539.1,229.0 567.3,208.7 595.5,222.6 623.6,153.4 651.8,162.1 680.0,168.5" fill="none" stroke="#bbb" stroke-width="0.6" opacity="0.6"/>
<polyline points="60.0,211.8 88.2,215.0 116.4,209.1 144.5,228.2 172.7,212.4 200.9,205.4 229.1,226.2 257.3,242.1 285.5,248.1 313.6,248.9 341.8,258.8 370.0,267.0 398.2,248.9 426.4,246.9 454.5,244.4 482.7,223.0 510.9,206.9 539.1,237.7 567.3,264.9 595.5,250.3 623.6,225.2 651.8,231.3 680.0,229.4" fill="none" stroke="#bbb" stroke-width="0.6" opacity="0.6"/>
<polyline points="60.0,274.3 88.2,265.6 116.4,265.7 144.5,268.2 172.7,258.4 200.9,261.9 229.1,265.5 257.3,263.5 285.5,266.2 313.6,271.8 341.8,269.3 370.0,272.0 398.2,272.1 426.4,273.8 454.5,267.1 482.7,248.4 510.9,242.0 539.1,258.9 567.3,260.4 595.5,233.1 623.6,226.4 651.8,243.1 680.0,246.8" fill="none" stroke="#bbb" stroke-width="0.6" opacity="0.6"/>
<polyline points="60.0,255.8 88.2,264.7 116.4,248.5 144.5,256.5 172.7,256.5 200.9,248.6 229.1,244.2 257.3,248.1 285.5,242.1 313.6,257.8 341.8,252.1 370.0,249.9 398.2,258.4 426.4,265.2 454.5,244.8 482.7,242.7 510.9,244.3 539.1,254.1 567.3,234.0 595.5,227.3 623.6,224.9 651.8,233.7 680.0,243.0" fill="none" stroke="#bbb" stroke-width="0.6" opacity="0.6"/>
<polyline points="60.0,295.2 88.2,300.3 116.4,302.1 144.5,294.0 172.7,298.2 200.9,295.8 229.1,300.5 257.3,296.9 285.5,296.8 313.6,294.1 341.8,298.6 370.0,296.4 398.2,299.7 426.4,299.3 454.5,291.0 482.7,289.5 510.9,293.7 539.1,300.1 567.3,290.4 595.5,288.1 623.6,263.1 651.8,263.8 680.0,267.2" fill="none" stroke="#bbb" stroke-width="0.6" opacity="0.6"/>
<polyline points="60.0,256.4 88.2,259.5 116.4,257.2 144.5,257.0 172.7,245.5 200.9,247.4 229.1,249.0 257.3,251.3 285.5,256.7 313.6,258.5 341.8,260.1 370.0,253.0 398.2,263.3 426.4,263.4 454.5,257.6 482.7,256.6 510.9,249.5 539.1,245.1 567.3,256.5 595.5,221.1 623.6,214.9 651.8,217.9 680.0,237.2" fill="none" stroke="#bbb" stroke-width="0.6" opacity="0.6"/>
<polyline points="60.0,218.0 88.2,229.7 116.4,229.1 144.5,235.8 172.7,227.9 200.9,214.6 229.1,216.2 257.3,235.2 285.5,237.5 313.6,250.6 341.8,235.3 370.0,232.8 398.2,241.5 426.4,237.7 454.5,215.4 482.7,230.3 510.9,225.5 539.1,218.6 567.3,208.6 595.5,185.6 623.6,174.2 651.8,184.8 680.0,207.2" fill="none" stroke="#bbb" stroke-width="0.6" opacity="0.6"/>
<polyline points="60.0,315.5 88.2,308.4 116.4,310.3 144.5,298.1 172.7,296.5 200.9,276.0 229.1,275.3 257.3,265.7 285.5,278.0 313.6,289.8 341.8,295.1 370.0,290.6 398.2,299.1 426.4,291.5 454.5,275.9 482.7,284.0 510.9,286.1 539.1,309.5 567.3,303.5 595.5,267.3 623.6,287.2 651.8,268.5 680.0,289.6" fill="none" stroke="#bbb" stroke-width="0.6" opacity="0.6"/>
<polyline points="60.0,228.4 88.2,229.8 116.4,236.3 144.5,246.0 172.7,230.0 200.9,234.1 229.1,238.9 257.3,238.2 285.5,227.4 313.6,251.5 341.8,247.6 370.0,244.1 398.2,258.2 426.4,251.7 454.5,242.2 482.7,227.2 510.9,219.4 539.1,226.4 567.3,225.9 595.5,197.7 623.6,190.3 651.8,203.8 680.0,192.0" fill="none" stroke="#bbb" stroke-width="0.6" opacity="0.6"/>
<polyline points="60.0,243.6 88.2,246.9 116.4,240.9 144.5,245.8 172.7,244.9 200.9,248.2 229.1,247.6 257.3,251.7 285.5,255.3 313.6,261.0 341.8,268.3 370.0,268.3 398.2,269.8 426.4,268.2 454.5,263.0 482.7,256.3 510.9,260.8 539.1,265.2 567.3,261.1 595.5,239.0 623.6,232.4 651.8,234.5 680.0,244.9" fill="none" stroke="#bbb" stroke-width="0.6" opacity="0.6"/>
<polyline points="60.0,288.2 88.2,300.5 116.4,293.4 144.5,302.2 172.7,297.5 200.9,300.9 229.1,297.8 257.3,307.7 285.5,309.0 313.6,302.1 341.8,303.9 370.0,303.3 398.2,304.2 426.4,297.6 454.5,302.2 482.7,295.1 510.9,295.7 539.1,300.9 567.3,295.4 595.5,285.5 623.6,289.9 651.8,297.9 680.0,296.9" fill="none" stroke="#bbb" stroke-width="0.6" opacity="0.6"/>
<polyline points="60.0,259.5 88.2,255.9 116.4,251.5 144.5,257.4 172.7,246.0 200.9,256.6 229.1,255.1 257.3,263.5 285.5,264.4 313.6,264.5 341.8,277.2 370.0,274.7 398.2,275.6 426.4,271.1 454.5,264.9 482.7,250.4 510.9,252.8 539.1,261.6 567.3,257.3 595.5,245.4 623.6,238.4 651.8,228.1 680.0,244.1" fill="none" stroke="#bbb" stroke-width="0.6" opacity="0.6"/>
<polyline points="60.0,279.9 88.2,289.6 116.4,282.7 144.5,290.1 172.7,277.5 200.9,287.8 229.1,283.3 257.3,292.8 285.5,293.0 313.6,291.1 341.8,295.2 370.0,288.0 398.2,289.5 426.4,290.6 454.5,271.6 482.7,273.6 510.9,283.1 539.1,287.2 567.3,284.0 595.5,256.5 623.6,251.6 651.8,254.0 680.0,260.4" fill="none" stroke="#bbb" stroke-width="0.6" opacity="0.6"/>
<polyline points="60.0,297.9 88.2,285.2 116.4,273.4 144.5,277.2 172.7,266.8 200.9,268.4 229.1,279.4 257.3,278.0 285.5,265.5 313.6,285.6 341.8,264.5 370.0,276.9 398.2,282.7 426.4,266.5 454.5,265.5 482.7,265.1 510.9,255.0 539.1,271.0 567.3,252.6 595.5,239.2 623.6,246.1 651.8,255.5 680.0,246.9" fill="none" stroke="#bbb" stroke-width="0.6" opacity="0.6"/>
<polyline points="60.0,303.3 88.2,287.3 116.4,290.2 144.5,298.5 172.7,290.7 200.9,293.8 229.1,273.6 257.3,297.5 285.5,300.6 313.6,308.8 341.8,285.0 370.0,295.1 398.2,288.5 426.4,290.9 454.5,291.0 482.7,281.7 510.9,295.2 539.1,295.2 567.3,297.6 595.5,286.1 623.6,285.9 651.8,293.0 680.0,284.0" fill="none" stroke="#bbb" stroke-width="0.6" opacity="0.6"/>
<polyline points="60.0,285.9 88.2,292.4 116.4,286.7 144.5,286.8 172.7,285.7 200.9,280.0 229.1,280.7 257.3,275.8 285.5,284.0 313.6,284.9 341.8,280.9 370.0,283.6 398.2,285.9 426.4,286.1 454.5,281.0 482.7,281.6 510.9,279.7 539.1,279.8 567.3,281.2 595.5,270.2 623.6,278.1 651.8,269.6 680.0,260.5" fill="none" stroke="#1f3a5f" stroke-width="2" stroke-dasharray="6 4"/>
<polyline points="60.0,286.6 88.2,295.1 116.4,284.5 144.5,289.3 172.7,287.4 200.9,275.1 229.1,284.3 257.3,276.9 285.5,287.2 313.6,277.6 341.8,279.3 370.0,283.9 398.2,293.7 426.4,294.4 454.5,284.2 482.7,298.2 510.9,288.2 539.1,295.4 567.3,287.3 595.5,274.7 623.6,270.1 651.8,277.2 680.0,276.7" fill="none" stroke="#b9461a" stroke-width="2.4"/>
<line x1="384.1" y1="50" x2="384.1" y2="330" stroke="#1f2024" stroke-width="0.8" stroke-dasharray="4 3"/>
<text x="384.1" y="45" text-anchor="middle" fill="#1f2024" font-size="10">adoption (2013)</text>
<line x1="60" y1="330" x2="680" y2="330" stroke="#444"/>
<line x1="60" y1="50" x2="60" y2="330" stroke="#444"/>
<line x1="60.0" y1="330" x2="60.0" y2="334" stroke="#444"/>
<text x="60.0" y="348" text-anchor="middle" fill="#444">2001</text>
<line x1="116.4" y1="330" x2="116.4" y2="334" stroke="#444"/>
<text x="116.4" y="348" text-anchor="middle" fill="#444">2003</text>
<line x1="172.7" y1="330" x2="172.7" y2="334" stroke="#444"/>
<text x="172.7" y="348" text-anchor="middle" fill="#444">2005</text>
<line x1="229.1" y1="330" x2="229.1" y2="334" stroke="#444"/>
<text x="229.1" y="348" text-anchor="middle" fill="#444">2007</text>
<line x1="285.5" y1="330" x2="285.5" y2="334" stroke="#444"/>
<text x="285.5" y="348" text-anchor="middle" fill="#444">2009</text>
<line x1="341.8" y1="330" x2="341.8" y2="334" stroke="#444"/>
<text x="341.8" y="348" text-anchor="middle" fill="#444">2011</text>
<line x1="398.2" y1="330" x2="398.2" y2="334" stroke="#444"/>
<text x="398.2" y="348" text-anchor="middle" fill="#444">2013</text>
<line x1="454.5" y1="330" x2="454.5" y2="334" stroke="#444"/>
<text x="454.5" y="348" text-anchor="middle" fill="#444">2015</text>
<line x1="510.9" y1="330" x2="510.9" y2="334" stroke="#444"/>
<text x="510.9" y="348" text-anchor="middle" fill="#444">2017</text>
<line x1="567.3" y1="330" x2="567.3" y2="334" stroke="#444"/>
<text x="567.3" y="348" text-anchor="middle" fill="#444">2019</text>
<line x1="623.6" y1="330" x2="623.6" y2="334" stroke="#444"/>
<text x="623.6" y="348" text-anchor="middle" fill="#444">2021</text>
<line x1="680.0" y1="330" x2="680.0" y2="334" stroke="#444"/>
<text x="680.0" y="348" text-anchor="middle" fill="#444">2023</text>
<line x1="56" y1="330.0" x2="60" y2="330.0" stroke="#444"/>
<text x="53" y="333.0" text-anchor="end" fill="#444">-0.15</text>
<line x1="56" y1="260.0" x2="60" y2="260.0" stroke="#444"/>
<text x="53" y="263.0" text-anchor="end" fill="#444">5</text>
<line x1="56" y1="190.0" x2="60" y2="190.0" stroke="#444"/>
<text x="53" y="193.0" text-anchor="end" fill="#444">10</text>
<line x1="56" y1="120.0" x2="60" y2="120.0" stroke="#444"/>
<text x="53" y="123.0" text-anchor="end" fill="#444">15</text>
<line x1="56" y1="50.0" x2="60" y2="50.0" stroke="#444"/>
<text x="53" y="53.0" text-anchor="end" fill="#444">21</text>
<rect x="520" y="60" width="190" height="60" fill="white" stroke="#e2e2dc"/>
<line x1="530" y1="75" x2="560" y2="75" stroke="#b9461a" stroke-width="2.4"/>
<text x="565" y="79" font-size="11">Connecticut (treated)</text>
<line x1="530" y1="95" x2="560" y2="95" stroke="#1f3a5f" stroke-width="2" stroke-dasharray="6 4"/>
<text x="565" y="99" font-size="11">Synthetic counterfactual</text>
<line x1="530" y1="112" x2="560" y2="112" stroke="#bbb" stroke-width="0.6"/>
<text x="565" y="116" font-size="10">Donor states (gray)</text>
</svg>