<svg xmlns="http://www.w3.org/2000/svg" viewBox="0 0 720 380" font-family="-apple-system, Segoe UI, Helvetica, Arial, sans-serif" font-size="12">
<rect x="0" y="0" width="720" height="380" fill="#fafaf7"/>
<text x="360.0" y="22" text-anchor="middle" font-size="14" font-weight="600">Maryland (2013): Motor vehicle theft rate (per 100k) [placebo]</text>
<polyline points="60.0,227.4 88.2,234.0 116.4,235.3 144.5,244.4 172.7,232.6 200.9,235.5 229.1,240.8 257.3,268.6 285.5,267.6 313.6,271.1 341.8,279.3 370.0,275.4 398.2,270.3 426.4,268.9 454.5,259.2 482.7,227.6 510.9,189.5 539.1,196.9 567.3,240.6 595.5,261.1 623.6,267.1 651.8,266.1 680.0,261.0" fill="none" stroke="#bbb" stroke-width="0.6" opacity="0.6"/>
<polyline points="60.0,258.1 88.2,251.6 116.4,246.4 144.5,251.6 172.7,256.5 200.9,247.7 229.1,252.1 257.3,256.5 285.5,269.0 313.6,271.4 341.8,272.2 370.0,276.2 398.2,273.0 426.4,275.2 454.5,274.3 482.7,267.7 510.9,262.7 539.1,260.6 567.3,263.6 595.5,272.2 623.6,279.2 651.8,272.7 680.0,272.4" fill="none" stroke="#bbb" stroke-width="0.6" opacity="0.6"/>
<polyline points="60.0,260.6 88.2,265.2 116.4,272.6 144.5,268.7 172.7,262.7 200.9,261.6 229.1,266.4 257.3,270.5 285.5,274.8 313.6,279.6 341.8,278.2 370.0,278.7 398.2,279.2 426.4,279.7 454.5,278.4 482.7,267.9 510.9,267.6 539.1,267.3 567.3,266.2 595.5,262.9 623.6,258.6 651.8,265.1 680.0,273.0" fill="none" stroke="#bbb" stroke-width="0.6" opacity="0.6"/>
<polyline points="60.0,93.8 88.2,76.0 116.4,84.9 144.5,98.5 172.7,108.2 200.9,109.0 229.1,138.5 257.3,185.2 285.5,230.3 313.6,244.8 341.8,252.5 370.0,256.3 398.2,264.3 426.4,263.9 454.5,266.5 482.7,261.5 510.9,261.0 539.1,261.5 567.3,266.3 595.5,267.6 623.6,267.4 651.8,265.5 680.0,255.4" fill="none" stroke="#bbb" stroke-width="0.6" opacity="0.6"/>
<polyline points="60.0,213.2 88.2,203.6 116.4,206.7 144.5,202.0 172.7,193.1 200.9,222.4 229.1,243.9 257.3,260.9 285.5,266.0 313.6,271.9 341.8,273.8 370.0,269.6 398.2,268.6 426.4,269.1 454.5,255.3 482.7,241.0 510.9,232.7 539.1,233.6 567.3,235.8 595.5,201.4 623.6,157.5 651.8,138.9 680.0,169.7" fill="none" stroke="#bbb" stroke-width="0.6" opacity="0.6"/>
<polyline points="60.0,195.6 88.2,200.0 116.4,211.8 144.5,218.7 172.7,224.9 200.9,225.2 229.1,229.7 257.3,243.0 285.5,260.7 313.6,272.6 341.8,275.6 370.0,278.9 398.2,282.5 426.4,281.6 454.5,277.1 482.7,275.3 510.9,276.3 539.1,278.8 567.3,281.6 595.5,282.9 623.6,301.0 651.8,293.5 680.0,292.2" fill="none" stroke="#bbb" stroke-width="0.6" opacity="0.6"/>
<polyline points="60.0,219.5 88.2,219.9 116.4,207.1 144.5,208.0 172.7,210.1 200.9,216.3 229.1,219.9 257.3,228.3 285.5,245.2 313.6,251.0 341.8,253.4 370.0,256.6 398.2,260.5 426.4,259.8 454.5,261.8 482.7,264.1 510.9,265.6 539.1,267.7 567.3,274.6 595.5,268.4 623.6,279.2 651.8,275.2 680.0,263.7" fill="none" stroke="#bbb" stroke-width="0.6" opacity="0.6"/>
<polyline points="60.0,195.5 88.2,137.1 116.4,143.2 144.5,164.2 172.7,156.2 200.9,183.2 229.1,209.5 257.3,231.2 285.5,236.4 313.6,233.5 341.8,248.2 370.0,259.1 398.2,248.4 426.4,232.7 454.5,235.2 482.7,234.0 510.9,237.5 539.1,229.9 567.3,238.1 595.5,235.2 623.6,222.3 651.8,227.3 680.0,229.3" fill="none" stroke="#bbb" stroke-width="0.6" opacity="0.6"/>
<polyline points="60.0,280.2 88.2,277.7 116.4,279.3 144.5,279.5 172.7,280.8 200.9,284.6 229.1,285.5 257.3,290.1 285.5,293.8 313.6,295.0 341.8,293.6 370.0,293.4 398.2,292.0 426.4,293.0 454.5,291.3 482.7,286.8 510.9,283.2 539.1,286.3 567.3,283.0 595.5,278.0 623.6,279.8 651.8,285.9 680.0,285.6" fill="none" stroke="#bbb" stroke-width="0.6" opacity="0.6"/>
<polyline points="60.0,281.8 88.2,278.4 116.4,278.9 144.5,278.2 172.7,276.9 200.9,285.3 229.1,288.8 257.3,298.7 285.5,301.9 313.6,304.4 341.8,304.5 370.0,303.9 398.2,301.9 426.4,300.2 454.5,297.7 482.7,295.2 510.9,294.9 539.1,298.0 567.3,303.1 595.5,301.5 623.6,303.0 651.8,302.5 680.0,306.1" fill="none" stroke="#bbb" stroke-width="0.6" opacity="0.6"/>
<polyline points="60.0,242.0 88.2,247.0 116.4,245.7 144.5,244.9 172.7,242.9 200.9,244.1 229.1,252.6 257.3,259.9 285.5,273.7 313.6,275.5 341.8,270.9 370.0,275.3 398.2,273.6 426.4,275.0 454.5,276.3 482.7,273.2 510.9,272.4 539.1,271.0 567.3,276.3 595.5,270.7 623.6,275.1 651.8,277.9 680.0,269.3" fill="none" stroke="#bbb" stroke-width="0.6" opacity="0.6"/>
<polyline points="60.0,255.0 88.2,261.9 116.4,256.9 144.5,251.3 172.7,244.6 200.9,250.3 229.1,251.6 257.3,262.3 285.5,274.7 313.6,274.9 341.8,269.7 370.0,269.2 398.2,270.2 426.4,268.2 454.5,267.7 482.7,264.5 510.9,264.7 539.1,260.4 567.3,268.8 595.5,266.1 623.6,261.5 651.8,268.0 680.0,258.0" fill="none" stroke="#bbb" stroke-width="0.6" opacity="0.6"/>
<polyline points="60.0,272.7 88.2,270.8 116.4,277.3 144.5,274.6 172.7,274.8 200.9,272.0 229.1,276.3 257.3,282.2 285.5,291.1 313.6,290.6 341.8,288.2 370.0,288.2 398.2,291.9 426.4,290.4 454.5,282.5 482.7,271.7 510.9,269.7 539.1,269.3 567.3,270.3 595.5,264.0 623.6,266.9 651.8,271.5 680.0,257.5" fill="none" stroke="#bbb" stroke-width="0.6" opacity="0.6"/>
<polyline points="60.0,210.6 88.2,218.6 116.4,221.7 144.5,221.7 172.7,249.4 200.9,238.6 229.1,240.8 257.3,252.2 285.5,263.8 313.6,272.8 341.8,277.5 370.0,284.1 398.2,277.8 426.4,276.8 454.5,275.4 482.7,272.6 510.9,268.6 539.1,265.7 567.3,269.6 595.5,261.7 623.6,257.9 651.8,251.3 680.0,234.7" fill="none" stroke="#bbb" stroke-width="0.6" opacity="0.6"/>
<polyline points="60.0,293.7 88.2,298.3 116.4,298.1 144.5,301.0 172.7,300.2 200.9,300.3 229.1,301.5 257.3,303.2 285.5,306.0 313.6,306.7 341.8,305.2 370.0,306.7 398.2,308.1 426.4,310.1 454.5,309.8 482.7,310.5 510.9,310.3 539.1,310.6 567.3,311.6 595.5,309.2 623.6,308.9 651.8,307.3 680.0,305.5" fill="none" stroke="#bbb" stroke-width="0.6" opacity="0.6"/>
<polyline points="60.0,198.7 88.2,208.2 116.4,199.4 144.5,206.9 172.7,212.3 200.9,208.0 229.1,226.6 257.3,240.5 285.5,255.3 313.6,259.2 341.8,265.1 370.0,264.8 398.2,267.2 426.4,274.1 454.5,279.8 482.7,276.4 510.9,278.2 539.1,283.2 567.3,282.3 595.5,281.0 623.6,273.7 651.8,261.2 680.0,258.3" fill="none" stroke="#bbb" stroke-width="0.6" opacity="0.6"/>
<polyline points="60.0,253.6 88.2,259.7 116.4,260.6 144.5,262.1 172.7,258.9 200.9,264.0 229.1,267.2 257.3,278.4 285.5,286.2 313.6,286.3 341.8,288.5 370.0,287.4 398.2,289.8 426.4,288.3 454.5,290.1 482.7,287.2 510.9,282.1 539.1,281.9 567.3,277.4 595.5,265.6 623.6,265.3 651.8,256.4 680.0,261.7" fill="none" stroke="#bbb" stroke-width="0.6" opacity="0.6"/>
<polyline points="60.0,207.8 88.2,209.0 116.4,201.5 144.5,218.9 172.7,220.4 200.9,222.4 229.1,229.0 257.3,242.0 285.5,256.0 313.6,261.2 341.8,264.4 370.0,260.7 398.2,260.9 426.4,260.9 454.5,258.6 482.7,253.8 510.9,247.7 539.1,248.3 567.3,243.0 595.5,232.1 623.6,231.7 651.8,209.3 680.0,209.4" fill="none" stroke="#bbb" stroke-width="0.6" opacity="0.6"/>
<polyline points="60.0,246.6 88.2,246.4 116.4,251.1 144.5,260.6 172.7,263.9 200.9,257.2 229.1,266.5 257.3,274.4 285.5,281.0 313.6,281.9 341.8,285.6 370.0,290.2 398.2,289.8 426.4,289.2 454.5,290.7 482.7,290.4 510.9,290.1 539.1,283.8 567.3,279.2 595.5,276.2 623.6,279.3 651.8,283.4 680.0,279.5" fill="none" stroke="#bbb" stroke-width="0.6" opacity="0.6"/>
<polyline points="60.0,277.1 88.2,278.3 116.4,275.6 144.5,283.3 172.7,274.8 200.9,275.9 229.1,274.2 257.3,281.2 285.5,285.5 313.6,287.5 341.8,290.2 370.0,284.6 398.2,280.8 426.4,277.0 454.5,269.2 482.7,261.9 510.9,266.4 539.1,262.0 567.3,271.4 595.5,266.2 623.6,259.8 651.8,271.2 680.0,279.1" fill="none" stroke="#bbb" stroke-width="0.6" opacity="0.6"/>
<polyline points="60.0,253.8 88.2,254.1 116.4,249.4 144.5,250.2 172.7,247.3 200.9,244.6 229.1,251.9 257.3,256.3 285.5,274.4 313.6,279.3 341.8,283.4 370.0,285.5 398.2,289.9 426.4,292.1 454.5,292.9 482.7,288.9 510.9,287.4 539.1,287.0 567.3,282.3 595.5,278.9 623.6,280.1 651.8,277.6 680.0,262.6" fill="none" stroke="#bbb" stroke-width="0.6" opacity="0.6"/>
<polyline points="60.0,284.2 88.2,286.6 116.4,284.3 144.5,289.7 172.7,284.6 200.9,284.2 229.1,288.2 257.3,290.9 285.5,291.1 313.6,293.9 341.8,290.5 370.0,284.7 398.2,277.8 426.4,275.2 454.5,270.5 482.7,263.6 510.9,269.5 539.1,268.9 567.3,267.8 595.5,260.7 623.6,258.6 651.8,264.0 680.0,272.3" fill="none" stroke="#bbb" stroke-width="0.6" opacity="0.6"/>
<polyline points="60.0,235.8 88.2,237.3 116.4,241.5 144.5,253.3 172.7,249.8 200.9,255.8 229.1,255.0 257.3,268.7 285.5,278.4 313.6,278.0 341.8,271.9 370.0,271.7 398.2,268.3 426.4,267.9 454.5,274.6 482.7,266.1 510.9,259.7 539.1,264.6 567.3,263.9 595.5,263.2 623.6,269.3 651.8,259.6 680.0,226.7" fill="none" stroke="#bbb" stroke-width="0.6" opacity="0.6"/>
<polyline points="60.0,284.4 88.2,288.5 116.4,289.1 144.5,288.9 172.7,300.1 200.9,297.7 229.1,299.1 257.3,299.1 285.5,304.3 313.6,306.5 341.8,304.4 370.0,305.4 398.2,307.6 426.4,309.1 454.5,308.4 482.7,308.7 510.9,308.4 539.1,308.7 567.3,308.0 595.5,306.3 623.6,307.5 651.8,308.3 680.0,309.2" fill="none" stroke="#bbb" stroke-width="0.6" opacity="0.6"/>
<polyline points="60.0,232.9 88.2,230.1 116.4,234.1 144.5,226.9 172.7,227.8 200.9,213.6 229.1,218.3 257.3,229.6 285.5,248.4 313.6,264.7 341.8,263.3 370.0,262.8 398.2,257.0 426.4,253.6 454.5,226.9 482.7,192.3 510.9,193.2 539.1,212.0 567.3,219.8 595.5,224.0 623.6,211.7 651.8,197.8 680.0,202.7" fill="none" stroke="#bbb" stroke-width="0.6" opacity="0.6"/>
<polyline points="60.0,160.0 88.2,135.2 116.4,106.4 144.5,97.0 172.7,62.7 200.9,70.7 229.1,120.0 257.3,180.6 285.5,214.3 313.6,236.0 341.8,241.7 370.0,239.0 398.2,240.3 426.4,240.2 454.5,232.0 482.7,219.4 510.9,223.2 539.1,232.0 567.3,238.8 595.5,245.4 623.6,222.9 651.8,208.7 680.0,164.6" fill="none" stroke="#bbb" stroke-width="0.6" opacity="0.6"/>
<polyline points="60.0,237.4 88.2,236.4 116.4,240.2 144.5,241.0 172.7,239.5 200.9,246.7 229.1,254.8 257.3,266.2 285.5,278.2 313.6,281.3 341.8,281.7 370.0,284.1 398.2,284.7 426.4,287.6 454.5,289.1 482.7,284.4 510.9,282.6 539.1,284.2 567.3,286.7 595.5,284.0 623.6,281.3 651.8,268.8 680.0,260.1" fill="none" stroke="#bbb" stroke-width="0.6" opacity="0.6"/>
<polyline points="60.0,239.3 88.2,238.5 116.4,237.6 144.5,238.1 172.7,232.3 200.9,236.3 229.1,236.1 257.3,253.3 285.5,257.7 313.6,260.0 341.8,255.5 370.0,252.1 398.2,255.6 426.4,259.2 454.5,260.7 482.7,250.9 510.9,250.8 539.1,244.4 567.3,244.4 595.5,235.7 623.6,233.6 651.8,250.3 680.0,262.1" fill="none" stroke="#bbb" stroke-width="0.6" opacity="0.6"/>
<polyline points="60.0,224.1 88.2,214.3 116.4,199.5 144.5,203.3 172.7,200.2 200.9,231.6 229.1,232.7 257.3,253.9 285.5,263.1 313.6,268.5 341.8,269.1 370.0,262.6 398.2,265.1 426.4,263.6 454.5,261.9 482.7,248.0 510.9,228.1 539.1,230.7 567.3,238.0 595.5,232.6 623.6,213.5 651.8,195.9 680.0,227.3" fill="none" stroke="#bbb" stroke-width="0.6" opacity="0.6"/>
<polyline points="60.0,256.2 88.2,261.8 116.4,260.9 144.5,265.7 172.7,268.7 200.9,268.3 229.1,274.2 257.3,281.9 285.5,291.1 313.6,293.4 341.8,293.2 370.0,296.5 398.2,299.0 426.4,300.3 454.5,302.0 482.7,300.2 510.9,300.5 539.1,300.1 567.3,301.5 595.5,295.8 623.6,293.1 651.8,285.5 680.0,262.4" fill="none" stroke="#bbb" stroke-width="0.6" opacity="0.6"/>
<polyline points="60.0,212.7 88.2,217.3 116.4,228.7 144.5,235.7 172.7,228.2 200.9,245.0 229.1,253.5 257.3,252.8 285.5,270.8 313.6,270.7 341.8,271.2 370.0,265.5 398.2,274.4 426.4,283.4 454.5,293.4 482.7,299.8 510.9,291.3 539.1,290.2 567.3,294.0 595.5,290.8 623.6,288.9 651.8,286.7 680.0,291.5" fill="none" stroke="#bbb" stroke-width="0.6" opacity="0.6"/>
<polyline points="60.0,227.9 88.2,227.9 116.4,235.1 144.5,236.5 172.7,233.9 200.9,233.8 229.1,233.3 257.3,231.8 285.5,254.3 313.6,257.0 341.8,255.8 370.0,257.3 398.2,262.3 426.4,261.4 454.5,261.5 482.7,258.4 510.9,257.6 539.1,255.3 567.3,255.3 595.5,258.1 623.6,257.4 651.8,265.0 680.0,264.5" fill="none" stroke="#bbb" stroke-width="0.6" opacity="0.6"/>
<polyline points="60.0,299.0 88.2,299.0 116.4,297.4 144.5,298.4 172.7,298.8 200.9,299.2 229.1,301.1 257.3,297.5 285.5,299.2 313.6,301.2 341.8,297.2 370.0,294.1 398.2,298.3 426.4,296.5 454.5,291.6 482.7,283.4 510.9,284.8 539.1,285.5 567.3,277.7 595.5,263.5 623.6,269.5 651.8,267.5 680.0,266.8" fill="none" stroke="#bbb" stroke-width="0.6" opacity="0.6"/>
<polyline points="60.0,209.0 88.2,216.8 116.4,218.1 144.5,225.7 172.7,225.0 200.9,236.3 229.1,241.6 257.3,251.8 285.5,268.3 313.6,269.5 341.8,272.4 370.0,277.2 398.2,281.3 426.4,278.9 454.5,277.9 482.7,270.5 510.9,259.3 539.1,252.8 567.3,258.0 595.5,252.4 623.6,254.5 651.8,238.2 680.0,218.2" fill="none" stroke="#bbb" stroke-width="0.6" opacity="0.6"/>
<polyline points="60.0,211.7 88.2,213.6 116.4,220.1 144.5,226.1 172.7,228.8 200.9,229.1 229.1,232.1 257.3,242.0 285.5,251.8 313.6,261.1 341.8,265.8 370.0,265.7 398.2,266.1 426.4,264.8 454.5,266.5 482.7,266.3 510.9,268.0 539.1,266.9 567.3,260.9 595.5,257.0 623.6,253.3 651.8,246.4 680.0,228.8" fill="none" stroke="#bbb" stroke-width="0.6" opacity="0.6"/>
<polyline points="60.0,257.2 88.2,246.2 116.4,246.5 144.5,250.2 172.7,244.3 200.9,247.3 229.1,245.3 257.3,261.6 285.5,265.8 313.6,273.7 341.8,272.7 370.0,274.7 398.2,263.7 426.4,265.9 454.5,255.8 482.7,252.2 510.9,252.7 539.1,266.2 567.3,275.0 595.5,250.0 623.6,264.1 651.8,275.3 680.0,289.7" fill="none" stroke="#bbb" stroke-width="0.6" opacity="0.6"/>
<polyline points="60.0,262.9 88.2,264.8 116.4,267.0 144.5,269.5 172.7,274.7 200.9,278.8 229.1,281.4 257.3,284.0 285.5,289.5 313.6,293.2 341.8,296.0 370.0,298.1 398.2,299.8 426.4,302.5 454.5,301.2 482.7,296.8 510.9,296.0 539.1,294.5 567.3,296.0 595.5,294.6 623.6,293.2 651.8,286.2 680.0,283.5" fill="none" stroke="#bbb" stroke-width="0.6" opacity="0.6"/>
<polyline points="60.0,295.2 88.2,295.0 116.4,299.5 144.5,302.1 172.7,299.0 200.9,300.9 229.1,299.7 257.3,302.1 285.5,307.3 313.6,307.8 341.8,304.5 370.0,307.0 398.2,311.6 426.4,314.7 454.5,316.9 482.7,317.3 510.9,315.7 539.1,314.3 567.3,312.8 595.5,314.3 623.6,306.9 651.8,301.4 680.0,302.5" fill="none" stroke="#bbb" stroke-width="0.6" opacity="0.6"/>
<polyline points="60.0,260.4 88.2,266.2 116.4,271.3 144.5,275.8 172.7,270.9 200.9,265.1 229.1,267.9 257.3,276.2 285.5,287.2 313.6,290.6 341.8,290.3 370.0,290.5 398.2,294.0 426.4,283.9 454.5,279.5 482.7,283.8 510.9,285.9 539.1,289.2 567.3,293.9 595.5,286.5 623.6,250.6 651.8,271.1 680.0,284.2" fill="none" stroke="#bbb" stroke-width="0.6" opacity="0.6"/>
<polyline points="60.0,282.4 88.2,273.6 116.4,279.4 144.5,275.5 172.7,274.9 200.9,271.9 229.1,279.2 257.3,283.3 285.5,288.7 313.6,293.6 341.8,297.6 370.0,296.0 398.2,299.3 426.4,299.4 454.5,295.7 482.7,292.2 510.9,284.4 539.1,295.8 567.3,295.2 595.5,294.4 623.6,298.2 651.8,302.1 680.0,302.7" fill="none" stroke="#bbb" stroke-width="0.6" opacity="0.6"/>
<polyline points="60.0,291.2 88.2,289.3 116.4,287.0 144.5,287.2 172.7,290.2 200.9,287.6 229.1,287.8 257.3,292.0 285.5,291.6 313.6,299.6 341.8,302.7 370.0,300.5 398.2,301.0 426.4,300.0 454.5,300.5 482.7,292.2 510.9,293.4 539.1,292.4 567.3,295.0 595.5,285.4 623.6,271.8 651.8,286.2 680.0,293.1" fill="none" stroke="#bbb" stroke-width="0.6" opacity="0.6"/>
<polyline points="60.0,185.7 88.2,175.5 116.4,171.4 144.5,177.6 172.7,182.8 200.9,191.5 229.1,203.0 257.3,224.4 285.5,245.5 313.6,253.0 341.8,257.8 370.0,260.8 398.2,263.0 426.4,260.9 454.5,262.1 482.7,259.2 510.9,256.5 539.1,256.9 567.3,263.1 595.5,259.0 623.6,258.7 651.8,253.7 680.0,249.7" fill="none" stroke="#1f3a5f" stroke-width="2" stroke-dasharray="6 4"/>
<polyline points="60.0,184.9 88.2,178.0 116.4,169.5 144.5,173.1 172.7,181.4 200.9,196.9 229.1,205.8 257.3,218.9 285.5,243.6 313.6,251.2 341.8,259.7 370.0,264.7 398.2,271.3 426.4,272.8 454.5,271.8 482.7,270.2 510.9,271.6 539.1,277.0 567.3,280.6 595.5,283.7 623.6,278.9 651.8,269.3 680.0,193.8" fill="none" stroke="#b9461a" stroke-width="2.4"/>
<line x1="384.1" y1="50" x2="384.1" y2="330" stroke="#1f2024" stroke-width="0.8" stroke-dasharray="4 3"/>
<text x="384.1" y="45" text-anchor="middle" fill="#1f2024" font-size="10">adoption (2013)</text>
<line x1="60" y1="330" x2="680" y2="330" stroke="#444"/>
<line x1="60" y1="50" x2="60" y2="330" stroke="#444"/>
<line x1="60.0" y1="330" x2="60.0" y2="334" stroke="#444"/>
<text x="60.0" y="348" text-anchor="middle" fill="#444">2001</text>
<line x1="116.4" y1="330" x2="116.4" y2="334" stroke="#444"/>
<text x="116.4" y="348" text-anchor="middle" fill="#444">2003</text>
<line x1="172.7" y1="330" x2="172.7" y2="334" stroke="#444"/>
<text x="172.7" y="348" text-anchor="middle" fill="#444">2005</text>
<line x1="229.1" y1="330" x2="229.1" y2="334" stroke="#444"/>
<text x="229.1" y="348" text-anchor="middle" fill="#444">2007</text>
<line x1="285.5" y1="330" x2="285.5" y2="334" stroke="#444"/>
<text x="285.5" y="348" text-anchor="middle" fill="#444">2009</text>
<line x1="341.8" y1="330" x2="341.8" y2="334" stroke="#444"/>
<text x="341.8" y="348" text-anchor="middle" fill="#444">2011</text>
<line x1="398.2" y1="330" x2="398.2" y2="334" stroke="#444"/>
<text x="398.2" y="348" text-anchor="middle" fill="#444">2013</text>
<line x1="454.5" y1="330" x2="454.5" y2="334" stroke="#444"/>
<text x="454.5" y="348" text-anchor="middle" fill="#444">2015</text>
<line x1="510.9" y1="330" x2="510.9" y2="334" stroke="#444"/>
<text x="510.9" y="348" text-anchor="middle" fill="#444">2017</text>
<line x1="567.3" y1="330" x2="567.3" y2="334" stroke="#444"/>
<text x="567.3" y="348" text-anchor="middle" fill="#444">2019</text>
<line x1="623.6" y1="330" x2="623.6" y2="334" stroke="#444"/>
<text x="623.6" y="348" text-anchor="middle" fill="#444">2021</text>
<line x1="680.0" y1="330" x2="680.0" y2="334" stroke="#444"/>
<text x="680.0" y="348" text-anchor="middle" fill="#444">2023</text>
<line x1="56" y1="330.0" x2="60" y2="330.0" stroke="#444"/>
<text x="53" y="333.0" text-anchor="end" fill="#444">-25</text>
<line x1="56" y1="260.0" x2="60" y2="260.0" stroke="#444"/>
<text x="53" y="263.0" text-anchor="end" fill="#444">2.7e+02</text>
<line x1="56" y1="190.0" x2="60" y2="190.0" stroke="#444"/>
<text x="53" y="193.0" text-anchor="end" fill="#444">5.7e+02</text>
<line x1="56" y1="120.0" x2="60" y2="120.0" stroke="#444"/>
<text x="53" y="123.0" text-anchor="end" fill="#444">8.7e+02</text>
<line x1="56" y1="50.0" x2="60" y2="50.0" stroke="#444"/>
<text x="53" y="53.0" text-anchor="end" fill="#444">1.2e+03</text>
<rect x="520" y="60" width="190" height="60" fill="white" stroke="#e2e2dc"/>
<line x1="530" y1="75" x2="560" y2="75" stroke="#b9461a" stroke-width="2.4"/>
<text x="565" y="79" font-size="11">Maryland (treated)</text>
<line x1="530" y1="95" x2="560" y2="95" stroke="#1f3a5f" stroke-width="2" stroke-dasharray="6 4"/>
<text x="565" y="99" font-size="11">Synthetic counterfactual</text>
<line x1="530" y1="112" x2="560" y2="112" stroke="#bbb" stroke-width="0.6"/>
<text x="565" y="116" font-size="10">Donor states (gray)</text>
</svg>