<svg xmlns="http://www.w3.org/2000/svg" viewBox="0 0 820 620" font-family="-apple-system, Segoe UI, Helvetica, Arial, sans-serif" font-size="11">
<text x="410.0" y="22" text-anchor="middle" font-size="14" font-weight="600">Callaway-Sant'Anna ATT by event time (RA) -- age21 handgun</text>
<rect x="15" y="40" width="380" height="260" fill="#fafaf7" stroke="#e2e2dc"/>
<text x="205.0" y="58" text-anchor="middle" font-weight="600">Firearm suicide rate (per 100k)</text>
<line x1="75" y1="133.8088664245969" x2="377" y2="133.8088664245969" stroke="#aaaaaa" stroke-width="0.7"/>
<polygon points="88.7,140.4 116.2,110.3 143.6,100.5 171.1,157.3 226.0,94.8 253.5,152.9 280.9,90.0 308.4,130.6 335.8,147.0 363.3,165.6 363.3,206.9 335.8,250.0 308.4,219.5 280.9,144.6 253.5,180.7 226.0,161.0 171.1,185.8 143.6,185.8 116.2,156.5 88.7,241.1" fill="#1f3a5f" opacity="0.18"/>
<polyline points="88.7,190.7 116.2,133.4 143.6,143.1 171.1,171.5 226.0,127.9 253.5,166.8 280.9,117.3 308.4,175.1 335.8,198.5 363.3,186.2" fill="none" stroke="#1f3a5f" stroke-width="1.6"/>
<circle cx="88.7" cy="190.7" r="2.6" fill="#1f3a5f"/>
<circle cx="116.2" cy="133.4" r="2.6" fill="#1f3a5f"/>
<circle cx="143.6" cy="143.1" r="2.6" fill="#1f3a5f"/>
<circle cx="171.1" cy="171.5" r="2.6" fill="#1f3a5f"/>
<circle cx="226.0" cy="127.9" r="2.6" fill="#1f3a5f"/>
<circle cx="253.5" cy="166.8" r="2.6" fill="#1f3a5f"/>
<circle cx="280.9" cy="117.3" r="2.6" fill="#1f3a5f"/>
<circle cx="308.4" cy="175.1" r="2.6" fill="#1f3a5f"/>
<circle cx="335.8" cy="198.5" r="2.6" fill="#1f3a5f"/>
<circle cx="363.3" cy="186.2" r="2.6" fill="#1f3a5f"/>
<line x1="212.3" y1="90" x2="212.3" y2="250" stroke="#b9461a" stroke-dasharray="3 3"/>
<line x1="75" y1="250" x2="377" y2="250" stroke="#444"/>
<line x1="75" y1="90" x2="75" y2="250" stroke="#444"/>
<line x1="88.7" y1="250" x2="88.7" y2="253" stroke="#444"/>
<text x="88.7" y="265" text-anchor="middle" fill="#444">-5</text>
<line x1="116.2" y1="250" x2="116.2" y2="253" stroke="#444"/>
<text x="116.2" y="265" text-anchor="middle" fill="#444">-4</text>
<line x1="143.6" y1="250" x2="143.6" y2="253" stroke="#444"/>
<text x="143.6" y="265" text-anchor="middle" fill="#444">-3</text>
<line x1="171.1" y1="250" x2="171.1" y2="253" stroke="#444"/>
<text x="171.1" y="265" text-anchor="middle" fill="#444">-2</text>
<line x1="226.0" y1="250" x2="226.0" y2="253" stroke="#444"/>
<text x="226.0" y="265" text-anchor="middle" fill="#444">0</text>
<line x1="253.5" y1="250" x2="253.5" y2="253" stroke="#444"/>
<text x="253.5" y="265" text-anchor="middle" fill="#444">1</text>
<line x1="280.9" y1="250" x2="280.9" y2="253" stroke="#444"/>
<text x="280.9" y="265" text-anchor="middle" fill="#444">2</text>
<line x1="308.4" y1="250" x2="308.4" y2="253" stroke="#444"/>
<text x="308.4" y="265" text-anchor="middle" fill="#444">3</text>
<line x1="335.8" y1="250" x2="335.8" y2="253" stroke="#444"/>
<text x="335.8" y="265" text-anchor="middle" fill="#444">4</text>
<line x1="363.3" y1="250" x2="363.3" y2="253" stroke="#444"/>
<text x="363.3" y="265" text-anchor="middle" fill="#444">5</text>
<line x1="72" y1="250.0" x2="75" y2="250.0" stroke="#444"/>
<text x="69" y="253.0" text-anchor="end" fill="#444">-3.9</text>
<line x1="72" y1="210.0" x2="75" y2="210.0" stroke="#444"/>
<text x="69" y="213.0" text-anchor="end" fill="#444">-2.6</text>
<line x1="72" y1="170.0" x2="75" y2="170.0" stroke="#444"/>
<text x="69" y="173.0" text-anchor="end" fill="#444">-1.2</text>
<line x1="72" y1="130.0" x2="75" y2="130.0" stroke="#444"/>
<text x="69" y="133.0" text-anchor="end" fill="#444">0.13</text>
<line x1="72" y1="90.0" x2="75" y2="90.0" stroke="#444"/>
<text x="69" y="93.0" text-anchor="end" fill="#444">1.5</text>
<text x="226.0" y="284" text-anchor="middle" fill="#444">Event time (years from adoption)</text>
<text x="27" y="170.0" text-anchor="middle" fill="#444" transform="rotate(-90 27 170.0)">ATT (per 100k)</text>
<rect x="425" y="40" width="380" height="260" fill="#fafaf7" stroke="#e2e2dc"/>
<text x="615.0" y="58" text-anchor="middle" font-weight="600">Non-firearm suicide rate (per 100k) [substitution test]</text>
<line x1="485" y1="227.88611863284027" x2="787" y2="227.88611863284027" stroke="#aaaaaa" stroke-width="0.7"/>
<polygon points="498.7,164.5 526.2,150.3 553.6,192.9 581.1,168.6 636.0,170.2 663.5,129.3 690.9,90.0 718.4,164.6 745.8,141.4 773.3,132.7 773.3,231.8 745.8,194.3 718.4,240.6 690.9,185.7 663.5,217.2 636.0,246.8 581.1,237.3 553.6,243.4 526.2,228.3 498.7,250.0" fill="#1f3a5f" opacity="0.18"/>
<polyline points="498.7,207.3 526.2,189.3 553.6,218.1 581.1,203.0 636.0,208.5 663.5,173.2 690.9,137.8 718.4,202.6 745.8,167.9 773.3,182.2" fill="none" stroke="#1f3a5f" stroke-width="1.6"/>
<circle cx="498.7" cy="207.3" r="2.6" fill="#1f3a5f"/>
<circle cx="526.2" cy="189.3" r="2.6" fill="#1f3a5f"/>
<circle cx="553.6" cy="218.1" r="2.6" fill="#1f3a5f"/>
<circle cx="581.1" cy="203.0" r="2.6" fill="#1f3a5f"/>
<circle cx="636.0" cy="208.5" r="2.6" fill="#1f3a5f"/>
<circle cx="663.5" cy="173.2" r="2.6" fill="#1f3a5f"/>
<circle cx="690.9" cy="137.8" r="2.6" fill="#1f3a5f"/>
<circle cx="718.4" cy="202.6" r="2.6" fill="#1f3a5f"/>
<circle cx="745.8" cy="167.9" r="2.6" fill="#1f3a5f"/>
<circle cx="773.3" cy="182.2" r="2.6" fill="#1f3a5f"/>
<line x1="622.3" y1="90" x2="622.3" y2="250" stroke="#b9461a" stroke-dasharray="3 3"/>
<line x1="485" y1="250" x2="787" y2="250" stroke="#444"/>
<line x1="485" y1="90" x2="485" y2="250" stroke="#444"/>
<line x1="498.7" y1="250" x2="498.7" y2="253" stroke="#444"/>
<text x="498.7" y="265" text-anchor="middle" fill="#444">-5</text>
<line x1="526.2" y1="250" x2="526.2" y2="253" stroke="#444"/>
<text x="526.2" y="265" text-anchor="middle" fill="#444">-4</text>
<line x1="553.6" y1="250" x2="553.6" y2="253" stroke="#444"/>
<text x="553.6" y="265" text-anchor="middle" fill="#444">-3</text>
<line x1="581.1" y1="250" x2="581.1" y2="253" stroke="#444"/>
<text x="581.1" y="265" text-anchor="middle" fill="#444">-2</text>
<line x1="636.0" y1="250" x2="636.0" y2="253" stroke="#444"/>
<text x="636.0" y="265" text-anchor="middle" fill="#444">0</text>
<line x1="663.5" y1="250" x2="663.5" y2="253" stroke="#444"/>
<text x="663.5" y="265" text-anchor="middle" fill="#444">1</text>
<line x1="690.9" y1="250" x2="690.9" y2="253" stroke="#444"/>
<text x="690.9" y="265" text-anchor="middle" fill="#444">2</text>
<line x1="718.4" y1="250" x2="718.4" y2="253" stroke="#444"/>
<text x="718.4" y="265" text-anchor="middle" fill="#444">3</text>
<line x1="745.8" y1="250" x2="745.8" y2="253" stroke="#444"/>
<text x="745.8" y="265" text-anchor="middle" fill="#444">4</text>
<line x1="773.3" y1="250" x2="773.3" y2="253" stroke="#444"/>
<text x="773.3" y="265" text-anchor="middle" fill="#444">5</text>
<line x1="482" y1="250.0" x2="485" y2="250.0" stroke="#444"/>
<text x="479" y="253.0" text-anchor="end" fill="#444">-0.94</text>
<line x1="482" y1="210.0" x2="485" y2="210.0" stroke="#444"/>
<text x="479" y="213.0" text-anchor="end" fill="#444">0.76</text>
<line x1="482" y1="170.0" x2="485" y2="170.0" stroke="#444"/>
<text x="479" y="173.0" text-anchor="end" fill="#444">2.5</text>
<line x1="482" y1="130.0" x2="485" y2="130.0" stroke="#444"/>
<text x="479" y="133.0" text-anchor="end" fill="#444">4.2</text>
<line x1="482" y1="90.0" x2="485" y2="90.0" stroke="#444"/>
<text x="479" y="93.0" text-anchor="end" fill="#444">5.9</text>
<text x="636.0" y="284" text-anchor="middle" fill="#444">Event time (years from adoption)</text>
<text x="437" y="170.0" text-anchor="middle" fill="#444" transform="rotate(-90 437 170.0)">ATT (per 100k)</text>
<rect x="15" y="330" width="380" height="260" fill="#fafaf7" stroke="#e2e2dc"/>
<text x="205.0" y="348" text-anchor="middle" font-weight="600">Total suicide rate (per 100k) [net effect]</text>
<line x1="75" y1="506.27364166388736" x2="377" y2="506.27364166388736" stroke="#aaaaaa" stroke-width="0.7"/>
<polygon points="88.7,515.1 116.2,455.5 143.6,489.5 171.1,486.9 226.0,476.9 253.5,447.6 280.9,380.0 308.4,501.1 335.8,481.2 363.3,467.0 363.3,540.0 335.8,519.1 308.4,522.7 280.9,481.1 253.5,523.5 226.0,500.3 171.1,533.2 143.6,519.7 116.2,499.9 88.7,533.9" fill="#1f3a5f" opacity="0.18"/>
<polyline points="88.7,524.5 116.2,477.7 143.6,504.6 171.1,510.1 226.0,488.6 253.5,485.5 280.9,430.6 308.4,511.9 335.8,500.1 363.3,503.5" fill="none" stroke="#1f3a5f" stroke-width="1.6"/>
<circle cx="88.7" cy="524.5" r="2.6" fill="#1f3a5f"/>
<circle cx="116.2" cy="477.7" r="2.6" fill="#1f3a5f"/>
<circle cx="143.6" cy="504.6" r="2.6" fill="#1f3a5f"/>
<circle cx="171.1" cy="510.1" r="2.6" fill="#1f3a5f"/>
<circle cx="226.0" cy="488.6" r="2.6" fill="#1f3a5f"/>
<circle cx="253.5" cy="485.5" r="2.6" fill="#1f3a5f"/>
<circle cx="280.9" cy="430.6" r="2.6" fill="#1f3a5f"/>
<circle cx="308.4" cy="511.9" r="2.6" fill="#1f3a5f"/>
<circle cx="335.8" cy="500.1" r="2.6" fill="#1f3a5f"/>
<circle cx="363.3" cy="503.5" r="2.6" fill="#1f3a5f"/>
<line x1="212.3" y1="380" x2="212.3" y2="540" stroke="#b9461a" stroke-dasharray="3 3"/>
<line x1="75" y1="540" x2="377" y2="540" stroke="#444"/>
<line x1="75" y1="380" x2="75" y2="540" stroke="#444"/>
<line x1="88.7" y1="540" x2="88.7" y2="543" stroke="#444"/>
<text x="88.7" y="555" text-anchor="middle" fill="#444">-5</text>
<line x1="116.2" y1="540" x2="116.2" y2="543" stroke="#444"/>
<text x="116.2" y="555" text-anchor="middle" fill="#444">-4</text>
<line x1="143.6" y1="540" x2="143.6" y2="543" stroke="#444"/>
<text x="143.6" y="555" text-anchor="middle" fill="#444">-3</text>
<line x1="171.1" y1="540" x2="171.1" y2="543" stroke="#444"/>
<text x="171.1" y="555" text-anchor="middle" fill="#444">-2</text>
<line x1="226.0" y1="540" x2="226.0" y2="543" stroke="#444"/>
<text x="226.0" y="555" text-anchor="middle" fill="#444">0</text>
<line x1="253.5" y1="540" x2="253.5" y2="543" stroke="#444"/>
<text x="253.5" y="555" text-anchor="middle" fill="#444">1</text>
<line x1="280.9" y1="540" x2="280.9" y2="543" stroke="#444"/>
<text x="280.9" y="555" text-anchor="middle" fill="#444">2</text>
<line x1="308.4" y1="540" x2="308.4" y2="543" stroke="#444"/>
<text x="308.4" y="555" text-anchor="middle" fill="#444">3</text>
<line x1="335.8" y1="540" x2="335.8" y2="543" stroke="#444"/>
<text x="335.8" y="555" text-anchor="middle" fill="#444">4</text>
<line x1="363.3" y1="540" x2="363.3" y2="543" stroke="#444"/>
<text x="363.3" y="555" text-anchor="middle" fill="#444">5</text>
<line x1="72" y1="540.0" x2="75" y2="540.0" stroke="#444"/>
<text x="69" y="543.0" text-anchor="end" fill="#444">-2</text>
<line x1="72" y1="500.0" x2="75" y2="500.0" stroke="#444"/>
<text x="69" y="503.0" text-anchor="end" fill="#444">0.36</text>
<line x1="72" y1="460.0" x2="75" y2="460.0" stroke="#444"/>
<text x="69" y="463.0" text-anchor="end" fill="#444">2.7</text>
<line x1="72" y1="420.0" x2="75" y2="420.0" stroke="#444"/>
<text x="69" y="423.0" text-anchor="end" fill="#444">5</text>
<line x1="72" y1="380.0" x2="75" y2="380.0" stroke="#444"/>
<text x="69" y="383.0" text-anchor="end" fill="#444">7.3</text>
<text x="226.0" y="574" text-anchor="middle" fill="#444">Event time (years from adoption)</text>
<text x="27" y="460.0" text-anchor="middle" fill="#444" transform="rotate(-90 27 460.0)">ATT (per 100k)</text>
<rect x="425" y="330" width="380" height="260" fill="#fafaf7" stroke="#e2e2dc"/>
<text x="615.0" y="348" text-anchor="middle" font-weight="600">Firearm homicide rate (per 100k)</text>
<line x1="485" y1="411.46705137450346" x2="787" y2="411.46705137450346" stroke="#aaaaaa" stroke-width="0.7"/>
<polygon points="498.7,385.8 526.2,380.0 553.6,440.1 581.1,424.2 636.0,387.3 663.5,398.0 690.9,401.0 718.4,384.4 745.8,401.3 773.3,438.7 773.3,540.0 745.8,462.3 718.4,455.9 690.9,449.2 663.5,468.1 636.0,417.6 581.1,484.5 553.6,482.0 526.2,411.5 498.7,446.3" fill="#1f3a5f" opacity="0.18"/>
<polyline points="498.7,416.0 526.2,395.8 553.6,461.1 581.1,454.3 636.0,402.5 663.5,433.1 690.9,425.1 718.4,420.1 745.8,431.8 773.3,489.4" fill="none" stroke="#1f3a5f" stroke-width="1.6"/>
<circle cx="498.7" cy="416.0" r="2.6" fill="#1f3a5f"/>
<circle cx="526.2" cy="395.8" r="2.6" fill="#1f3a5f"/>
<circle cx="553.6" cy="461.1" r="2.6" fill="#1f3a5f"/>
<circle cx="581.1" cy="454.3" r="2.6" fill="#1f3a5f"/>
<circle cx="636.0" cy="402.5" r="2.6" fill="#1f3a5f"/>
<circle cx="663.5" cy="433.1" r="2.6" fill="#1f3a5f"/>
<circle cx="690.9" cy="425.1" r="2.6" fill="#1f3a5f"/>
<circle cx="718.4" cy="420.1" r="2.6" fill="#1f3a5f"/>
<circle cx="745.8" cy="431.8" r="2.6" fill="#1f3a5f"/>
<circle cx="773.3" cy="489.4" r="2.6" fill="#1f3a5f"/>
<line x1="622.3" y1="380" x2="622.3" y2="540" stroke="#b9461a" stroke-dasharray="3 3"/>
<line x1="485" y1="540" x2="787" y2="540" stroke="#444"/>
<line x1="485" y1="380" x2="485" y2="540" stroke="#444"/>
<line x1="498.7" y1="540" x2="498.7" y2="543" stroke="#444"/>
<text x="498.7" y="555" text-anchor="middle" fill="#444">-5</text>
<line x1="526.2" y1="540" x2="526.2" y2="543" stroke="#444"/>
<text x="526.2" y="555" text-anchor="middle" fill="#444">-4</text>
<line x1="553.6" y1="540" x2="553.6" y2="543" stroke="#444"/>
<text x="553.6" y="555" text-anchor="middle" fill="#444">-3</text>
<line x1="581.1" y1="540" x2="581.1" y2="543" stroke="#444"/>
<text x="581.1" y="555" text-anchor="middle" fill="#444">-2</text>
<line x1="636.0" y1="540" x2="636.0" y2="543" stroke="#444"/>
<text x="636.0" y="555" text-anchor="middle" fill="#444">0</text>
<line x1="663.5" y1="540" x2="663.5" y2="543" stroke="#444"/>
<text x="663.5" y="555" text-anchor="middle" fill="#444">1</text>
<line x1="690.9" y1="540" x2="690.9" y2="543" stroke="#444"/>
<text x="690.9" y="555" text-anchor="middle" fill="#444">2</text>
<line x1="718.4" y1="540" x2="718.4" y2="543" stroke="#444"/>
<text x="718.4" y="555" text-anchor="middle" fill="#444">3</text>
<line x1="745.8" y1="540" x2="745.8" y2="543" stroke="#444"/>
<text x="745.8" y="555" text-anchor="middle" fill="#444">4</text>
<line x1="773.3" y1="540" x2="773.3" y2="543" stroke="#444"/>
<text x="773.3" y="555" text-anchor="middle" fill="#444">5</text>
<line x1="482" y1="540.0" x2="485" y2="540.0" stroke="#444"/>
<text x="479" y="543.0" text-anchor="end" fill="#444">-1.3</text>
<line x1="482" y1="500.0" x2="485" y2="500.0" stroke="#444"/>
<text x="479" y="503.0" text-anchor="end" fill="#444">-0.9</text>
<line x1="482" y1="460.0" x2="485" y2="460.0" stroke="#444"/>
<text x="479" y="463.0" text-anchor="end" fill="#444">-0.49</text>
<line x1="482" y1="420.0" x2="485" y2="420.0" stroke="#444"/>
<text x="479" y="423.0" text-anchor="end" fill="#444">-0.087</text>
<line x1="482" y1="380.0" x2="485" y2="380.0" stroke="#444"/>
<text x="479" y="383.0" text-anchor="end" fill="#444">0.32</text>
<text x="636.0" y="574" text-anchor="middle" fill="#444">Event time (years from adoption)</text>
<text x="437" y="460.0" text-anchor="middle" fill="#444" transform="rotate(-90 437 460.0)">ATT (per 100k)</text>
<rect x="15" y="620" width="380" height="260" fill="#fafaf7" stroke="#e2e2dc"/>
<text x="205.0" y="638" text-anchor="middle" font-weight="600">Total homicide rate (per 100k)</text>
<line x1="75" y1="737.4275697747721" x2="377" y2="737.4275697747721" stroke="#aaaaaa" stroke-width="0.7"/>
<polygon points="88.7,697.5 116.2,715.4 143.6,738.9 171.1,746.6 226.0,706.1 253.5,670.0 280.9,693.6 308.4,742.3 335.8,708.7 363.3,775.3 363.3,830.0 335.8,754.4 308.4,797.2 280.9,759.1 253.5,776.5 226.0,763.8 171.1,808.2 143.6,813.5 116.2,804.9 88.7,775.6" fill="#1f3a5f" opacity="0.18"/>
<polyline points="88.7,736.6 116.2,760.2 143.6,776.2 171.1,777.4 226.0,735.0 253.5,723.3 280.9,726.3 308.4,769.7 335.8,731.5 363.3,802.6" fill="none" stroke="#1f3a5f" stroke-width="1.6"/>
<circle cx="88.7" cy="736.6" r="2.6" fill="#1f3a5f"/>
<circle cx="116.2" cy="760.2" r="2.6" fill="#1f3a5f"/>
<circle cx="143.6" cy="776.2" r="2.6" fill="#1f3a5f"/>
<circle cx="171.1" cy="777.4" r="2.6" fill="#1f3a5f"/>
<circle cx="226.0" cy="735.0" r="2.6" fill="#1f3a5f"/>
<circle cx="253.5" cy="723.3" r="2.6" fill="#1f3a5f"/>
<circle cx="280.9" cy="726.3" r="2.6" fill="#1f3a5f"/>
<circle cx="308.4" cy="769.7" r="2.6" fill="#1f3a5f"/>
<circle cx="335.8" cy="731.5" r="2.6" fill="#1f3a5f"/>
<circle cx="363.3" cy="802.6" r="2.6" fill="#1f3a5f"/>
<line x1="212.3" y1="670" x2="212.3" y2="830" stroke="#b9461a" stroke-dasharray="3 3"/>
<line x1="75" y1="830" x2="377" y2="830" stroke="#444"/>
<line x1="75" y1="670" x2="75" y2="830" stroke="#444"/>
<line x1="88.7" y1="830" x2="88.7" y2="833" stroke="#444"/>
<text x="88.7" y="845" text-anchor="middle" fill="#444">-5</text>
<line x1="116.2" y1="830" x2="116.2" y2="833" stroke="#444"/>
<text x="116.2" y="845" text-anchor="middle" fill="#444">-4</text>
<line x1="143.6" y1="830" x2="143.6" y2="833" stroke="#444"/>
<text x="143.6" y="845" text-anchor="middle" fill="#444">-3</text>
<line x1="171.1" y1="830" x2="171.1" y2="833" stroke="#444"/>
<text x="171.1" y="845" text-anchor="middle" fill="#444">-2</text>
<line x1="226.0" y1="830" x2="226.0" y2="833" stroke="#444"/>
<text x="226.0" y="845" text-anchor="middle" fill="#444">0</text>
<line x1="253.5" y1="830" x2="253.5" y2="833" stroke="#444"/>
<text x="253.5" y="845" text-anchor="middle" fill="#444">1</text>
<line x1="280.9" y1="830" x2="280.9" y2="833" stroke="#444"/>
<text x="280.9" y="845" text-anchor="middle" fill="#444">2</text>
<line x1="308.4" y1="830" x2="308.4" y2="833" stroke="#444"/>
<text x="308.4" y="845" text-anchor="middle" fill="#444">3</text>
<line x1="335.8" y1="830" x2="335.8" y2="833" stroke="#444"/>
<text x="335.8" y="845" text-anchor="middle" fill="#444">4</text>
<line x1="363.3" y1="830" x2="363.3" y2="833" stroke="#444"/>
<text x="363.3" y="845" text-anchor="middle" fill="#444">5</text>
<line x1="72" y1="830.0" x2="75" y2="830.0" stroke="#444"/>
<text x="69" y="833.0" text-anchor="end" fill="#444">-1.4</text>
<line x1="72" y1="790.0" x2="75" y2="790.0" stroke="#444"/>
<text x="69" y="793.0" text-anchor="end" fill="#444">-0.81</text>
<line x1="72" y1="750.0" x2="75" y2="750.0" stroke="#444"/>
<text x="69" y="753.0" text-anchor="end" fill="#444">-0.19</text>
<line x1="72" y1="710.0" x2="75" y2="710.0" stroke="#444"/>
<text x="69" y="713.0" text-anchor="end" fill="#444">0.42</text>
<line x1="72" y1="670.0" x2="75" y2="670.0" stroke="#444"/>
<text x="69" y="673.0" text-anchor="end" fill="#444">1</text>
<text x="226.0" y="864" text-anchor="middle" fill="#444">Event time (years from adoption)</text>
<text x="27" y="750.0" text-anchor="middle" fill="#444" transform="rotate(-90 27 750.0)">ATT (per 100k)</text>
<rect x="425" y="620" width="380" height="260" fill="#fafaf7" stroke="#e2e2dc"/>
<text x="615.0" y="638" text-anchor="middle" font-weight="600">Motor vehicle theft rate (per 100k) [placebo]</text>
<line x1="485" y1="710.6110270906419" x2="787" y2="710.6110270906419" stroke="#aaaaaa" stroke-width="0.7"/>
<polygon points="498.7,711.3 526.2,725.3 553.6,717.0 581.1,720.7 636.0,711.6 663.5,722.1 690.9,713.2 718.4,690.7 745.8,680.3 773.3,670.0 773.3,827.4 745.8,756.9 718.4,752.4 690.9,728.9 663.5,741.2 636.0,724.0 581.1,740.6 553.6,772.2 526.2,830.0 498.7,826.2" fill="#1f3a5f" opacity="0.18"/>
<polyline points="498.7,768.7 526.2,777.7 553.6,744.6 581.1,730.7 636.0,717.8 663.5,731.6 690.9,721.1 718.4,721.6 745.8,718.6 773.3,748.7" fill="none" stroke="#1f3a5f" stroke-width="1.6"/>
<circle cx="498.7" cy="768.7" r="2.6" fill="#1f3a5f"/>
<circle cx="526.2" cy="777.7" r="2.6" fill="#1f3a5f"/>
<circle cx="553.6" cy="744.6" r="2.6" fill="#1f3a5f"/>
<circle cx="581.1" cy="730.7" r="2.6" fill="#1f3a5f"/>
<circle cx="636.0" cy="717.8" r="2.6" fill="#1f3a5f"/>
<circle cx="663.5" cy="731.6" r="2.6" fill="#1f3a5f"/>
<circle cx="690.9" cy="721.1" r="2.6" fill="#1f3a5f"/>
<circle cx="718.4" cy="721.6" r="2.6" fill="#1f3a5f"/>
<circle cx="745.8" cy="718.6" r="2.6" fill="#1f3a5f"/>
<circle cx="773.3" cy="748.7" r="2.6" fill="#1f3a5f"/>
<line x1="622.3" y1="670" x2="622.3" y2="830" stroke="#b9461a" stroke-dasharray="3 3"/>
<line x1="485" y1="830" x2="787" y2="830" stroke="#444"/>
<line x1="485" y1="670" x2="485" y2="830" stroke="#444"/>
<line x1="498.7" y1="830" x2="498.7" y2="833" stroke="#444"/>
<text x="498.7" y="845" text-anchor="middle" fill="#444">-5</text>
<line x1="526.2" y1="830" x2="526.2" y2="833" stroke="#444"/>
<text x="526.2" y="845" text-anchor="middle" fill="#444">-4</text>
<line x1="553.6" y1="830" x2="553.6" y2="833" stroke="#444"/>
<text x="553.6" y="845" text-anchor="middle" fill="#444">-3</text>
<line x1="581.1" y1="830" x2="581.1" y2="833" stroke="#444"/>
<text x="581.1" y="845" text-anchor="middle" fill="#444">-2</text>
<line x1="636.0" y1="830" x2="636.0" y2="833" stroke="#444"/>
<text x="636.0" y="845" text-anchor="middle" fill="#444">0</text>
<line x1="663.5" y1="830" x2="663.5" y2="833" stroke="#444"/>
<text x="663.5" y="845" text-anchor="middle" fill="#444">1</text>
<line x1="690.9" y1="830" x2="690.9" y2="833" stroke="#444"/>
<text x="690.9" y="845" text-anchor="middle" fill="#444">2</text>
<line x1="718.4" y1="830" x2="718.4" y2="833" stroke="#444"/>
<text x="718.4" y="845" text-anchor="middle" fill="#444">3</text>
<line x1="745.8" y1="830" x2="745.8" y2="833" stroke="#444"/>
<text x="745.8" y="845" text-anchor="middle" fill="#444">4</text>
<line x1="773.3" y1="830" x2="773.3" y2="833" stroke="#444"/>
<text x="773.3" y="845" text-anchor="middle" fill="#444">5</text>
<line x1="482" y1="830.0" x2="485" y2="830.0" stroke="#444"/>
<text x="479" y="833.0" text-anchor="end" fill="#444">-1.3e+02</text>
<line x1="482" y1="790.0" x2="485" y2="790.0" stroke="#444"/>
<text x="479" y="793.0" text-anchor="end" fill="#444">-86</text>
<line x1="482" y1="750.0" x2="485" y2="750.0" stroke="#444"/>
<text x="479" y="753.0" text-anchor="end" fill="#444">-43</text>
<line x1="482" y1="710.0" x2="485" y2="710.0" stroke="#444"/>
<text x="479" y="713.0" text-anchor="end" fill="#444">0.66</text>
<line x1="482" y1="670.0" x2="485" y2="670.0" stroke="#444"/>
<text x="479" y="673.0" text-anchor="end" fill="#444">44</text>
<text x="636.0" y="864" text-anchor="middle" fill="#444">Event time (years from adoption)</text>
<text x="437" y="750.0" text-anchor="middle" fill="#444" transform="rotate(-90 437 750.0)">ATT (per 100k)</text>
<text x="805" y="608" text-anchor="end" fill="#888" font-size="10">Shaded band: pointwise 95% CI from cluster bootstrap. Vertical dashed line marks the year before adoption.</text>
</svg>