<svg xmlns="http://www.w3.org/2000/svg" viewBox="0 0 820 620" font-family="-apple-system, Segoe UI, Helvetica, Arial, sans-serif" font-size="11">
<text x="410.0" y="22" text-anchor="middle" font-size="14" font-weight="600">Callaway-Sant'Anna ATT by event time (RA) -- min age 21 for handgun purchase (age21handgunsale)</text>
<rect x="15" y="40" width="380" height="260" fill="#fafaf7" stroke="#e2e2dc"/>
<text x="205.0" y="58" text-anchor="middle" font-weight="600">Firearm suicide rate (per 100k)</text>
<line x1="75" y1="160.69613831500288" x2="377" y2="160.69613831500288" stroke="#aaaaaa" stroke-width="0.7"/>
<polygon points="88.7,130.6 116.2,116.4 143.6,108.2 171.1,90.0 226.0,91.9 253.5,140.0 280.9,116.9 308.4,128.6 335.8,149.9 363.3,139.1 363.3,203.7 335.8,250.0 308.4,196.8 280.9,167.8 253.5,177.7 226.0,159.0 171.1,149.5 143.6,182.0 116.2,159.7 88.7,224.8" fill="#1f3a5f" opacity="0.18"/>
<polyline points="88.7,177.7 116.2,138.1 143.6,145.1 171.1,119.8 226.0,125.4 253.5,158.9 280.9,142.3 308.4,162.7 335.8,200.0 363.3,171.4" fill="none" stroke="#1f3a5f" stroke-width="1.6"/>
<circle cx="88.7" cy="177.7" r="2.6" fill="#1f3a5f"/>
<circle cx="116.2" cy="138.1" r="2.6" fill="#1f3a5f"/>
<circle cx="143.6" cy="145.1" r="2.6" fill="#1f3a5f"/>
<circle cx="171.1" cy="119.8" r="2.6" fill="#1f3a5f"/>
<circle cx="226.0" cy="125.4" r="2.6" fill="#1f3a5f"/>
<circle cx="253.5" cy="158.9" r="2.6" fill="#1f3a5f"/>
<circle cx="280.9" cy="142.3" r="2.6" fill="#1f3a5f"/>
<circle cx="308.4" cy="162.7" r="2.6" fill="#1f3a5f"/>
<circle cx="335.8" cy="200.0" r="2.6" fill="#1f3a5f"/>
<circle cx="363.3" cy="171.4" r="2.6" fill="#1f3a5f"/>
<line x1="212.3" y1="90" x2="212.3" y2="250" stroke="#b9461a" stroke-dasharray="3 3"/>
<line x1="75" y1="250" x2="377" y2="250" stroke="#444"/>
<line x1="75" y1="90" x2="75" y2="250" stroke="#444"/>
<line x1="88.7" y1="250" x2="88.7" y2="253" stroke="#444"/>
<text x="88.7" y="265" text-anchor="middle" fill="#444">-5</text>
<line x1="116.2" y1="250" x2="116.2" y2="253" stroke="#444"/>
<text x="116.2" y="265" text-anchor="middle" fill="#444">-4</text>
<line x1="143.6" y1="250" x2="143.6" y2="253" stroke="#444"/>
<text x="143.6" y="265" text-anchor="middle" fill="#444">-3</text>
<line x1="171.1" y1="250" x2="171.1" y2="253" stroke="#444"/>
<text x="171.1" y="265" text-anchor="middle" fill="#444">-2</text>
<line x1="226.0" y1="250" x2="226.0" y2="253" stroke="#444"/>
<text x="226.0" y="265" text-anchor="middle" fill="#444">0</text>
<line x1="253.5" y1="250" x2="253.5" y2="253" stroke="#444"/>
<text x="253.5" y="265" text-anchor="middle" fill="#444">1</text>
<line x1="280.9" y1="250" x2="280.9" y2="253" stroke="#444"/>
<text x="280.9" y="265" text-anchor="middle" fill="#444">2</text>
<line x1="308.4" y1="250" x2="308.4" y2="253" stroke="#444"/>
<text x="308.4" y="265" text-anchor="middle" fill="#444">3</text>
<line x1="335.8" y1="250" x2="335.8" y2="253" stroke="#444"/>
<text x="335.8" y="265" text-anchor="middle" fill="#444">4</text>
<line x1="363.3" y1="250" x2="363.3" y2="253" stroke="#444"/>
<text x="363.3" y="265" text-anchor="middle" fill="#444">5</text>
<line x1="72" y1="250.0" x2="75" y2="250.0" stroke="#444"/>
<text x="69" y="253.0" text-anchor="end" fill="#444">-1.4</text>
<line x1="72" y1="210.0" x2="75" y2="210.0" stroke="#444"/>
<text x="69" y="213.0" text-anchor="end" fill="#444">-0.79</text>
<line x1="72" y1="170.0" x2="75" y2="170.0" stroke="#444"/>
<text x="69" y="173.0" text-anchor="end" fill="#444">-0.15</text>
<line x1="72" y1="130.0" x2="75" y2="130.0" stroke="#444"/>
<text x="69" y="133.0" text-anchor="end" fill="#444">0.49</text>
<line x1="72" y1="90.0" x2="75" y2="90.0" stroke="#444"/>
<text x="69" y="93.0" text-anchor="end" fill="#444">1.1</text>
<text x="226.0" y="284" text-anchor="middle" fill="#444">Event time (years from adoption)</text>
<text x="27" y="170.0" text-anchor="middle" fill="#444" transform="rotate(-90 27 170.0)">ATT (per 100k)</text>
<rect x="425" y="40" width="380" height="260" fill="#fafaf7" stroke="#e2e2dc"/>
<text x="615.0" y="58" text-anchor="middle" font-weight="600">Non-firearm suicide rate (per 100k) [substitution test]</text>
<line x1="485" y1="250.0" x2="787" y2="250.0" stroke="#aaaaaa" stroke-width="0.7"/>
<polygon points="498.7,151.2 526.2,99.8 553.6,183.4 581.1,169.9 636.0,186.0 663.5,148.7 690.9,90.0 718.4,153.2 745.8,158.5 773.3,102.0 773.3,182.8 745.8,211.7 718.4,224.7 690.9,166.4 663.5,198.6 636.0,249.8 581.1,202.2 553.6,209.9 526.2,167.9 498.7,201.7" fill="#1f3a5f" opacity="0.18"/>
<polyline points="498.7,176.5 526.2,133.8 553.6,196.7 581.1,186.0 636.0,217.9 663.5,173.6 690.9,128.2 718.4,189.0 745.8,185.1 773.3,142.4" fill="none" stroke="#1f3a5f" stroke-width="1.6"/>
<circle cx="498.7" cy="176.5" r="2.6" fill="#1f3a5f"/>
<circle cx="526.2" cy="133.8" r="2.6" fill="#1f3a5f"/>
<circle cx="553.6" cy="196.7" r="2.6" fill="#1f3a5f"/>
<circle cx="581.1" cy="186.0" r="2.6" fill="#1f3a5f"/>
<circle cx="636.0" cy="217.9" r="2.6" fill="#1f3a5f"/>
<circle cx="663.5" cy="173.6" r="2.6" fill="#1f3a5f"/>
<circle cx="690.9" cy="128.2" r="2.6" fill="#1f3a5f"/>
<circle cx="718.4" cy="189.0" r="2.6" fill="#1f3a5f"/>
<circle cx="745.8" cy="185.1" r="2.6" fill="#1f3a5f"/>
<circle cx="773.3" cy="142.4" r="2.6" fill="#1f3a5f"/>
<line x1="622.3" y1="90" x2="622.3" y2="250" stroke="#b9461a" stroke-dasharray="3 3"/>
<line x1="485" y1="250" x2="787" y2="250" stroke="#444"/>
<line x1="485" y1="90" x2="485" y2="250" stroke="#444"/>
<line x1="498.7" y1="250" x2="498.7" y2="253" stroke="#444"/>
<text x="498.7" y="265" text-anchor="middle" fill="#444">-5</text>
<line x1="526.2" y1="250" x2="526.2" y2="253" stroke="#444"/>
<text x="526.2" y="265" text-anchor="middle" fill="#444">-4</text>
<line x1="553.6" y1="250" x2="553.6" y2="253" stroke="#444"/>
<text x="553.6" y="265" text-anchor="middle" fill="#444">-3</text>
<line x1="581.1" y1="250" x2="581.1" y2="253" stroke="#444"/>
<text x="581.1" y="265" text-anchor="middle" fill="#444">-2</text>
<line x1="636.0" y1="250" x2="636.0" y2="253" stroke="#444"/>
<text x="636.0" y="265" text-anchor="middle" fill="#444">0</text>
<line x1="663.5" y1="250" x2="663.5" y2="253" stroke="#444"/>
<text x="663.5" y="265" text-anchor="middle" fill="#444">1</text>
<line x1="690.9" y1="250" x2="690.9" y2="253" stroke="#444"/>
<text x="690.9" y="265" text-anchor="middle" fill="#444">2</text>
<line x1="718.4" y1="250" x2="718.4" y2="253" stroke="#444"/>
<text x="718.4" y="265" text-anchor="middle" fill="#444">3</text>
<line x1="745.8" y1="250" x2="745.8" y2="253" stroke="#444"/>
<text x="745.8" y="265" text-anchor="middle" fill="#444">4</text>
<line x1="773.3" y1="250" x2="773.3" y2="253" stroke="#444"/>
<text x="773.3" y="265" text-anchor="middle" fill="#444">5</text>
<line x1="482" y1="250.0" x2="485" y2="250.0" stroke="#444"/>
<text x="479" y="253.0" text-anchor="end" fill="#444">0</text>
<line x1="482" y1="210.0" x2="485" y2="210.0" stroke="#444"/>
<text x="479" y="213.0" text-anchor="end" fill="#444">0.59</text>
<line x1="482" y1="170.0" x2="485" y2="170.0" stroke="#444"/>
<text x="479" y="173.0" text-anchor="end" fill="#444">1.2</text>
<line x1="482" y1="130.0" x2="485" y2="130.0" stroke="#444"/>
<text x="479" y="133.0" text-anchor="end" fill="#444">1.8</text>
<line x1="482" y1="90.0" x2="485" y2="90.0" stroke="#444"/>
<text x="479" y="93.0" text-anchor="end" fill="#444">2.4</text>
<text x="636.0" y="284" text-anchor="middle" fill="#444">Event time (years from adoption)</text>
<text x="437" y="170.0" text-anchor="middle" fill="#444" transform="rotate(-90 437 170.0)">ATT (per 100k)</text>
<rect x="15" y="330" width="380" height="260" fill="#fafaf7" stroke="#e2e2dc"/>
<text x="205.0" y="348" text-anchor="middle" font-weight="600">Total suicide rate (per 100k) [net effect]</text>
<line x1="75" y1="509.0912732485081" x2="377" y2="509.0912732485081" stroke="#aaaaaa" stroke-width="0.7"/>
<polygon points="88.7,446.1 116.2,389.9 143.6,439.8 171.1,418.5 226.0,446.4 253.5,449.3 280.9,380.0 308.4,439.4 335.8,449.2 363.3,413.5 363.3,480.5 335.8,540.0 308.4,502.8 280.9,455.1 253.5,467.6 226.0,481.0 171.1,459.8 143.6,487.7 116.2,446.5 88.7,500.8" fill="#1f3a5f" opacity="0.18"/>
<polyline points="88.7,473.5 116.2,418.2 143.6,463.7 171.1,439.1 226.0,463.7 253.5,458.5 280.9,417.6 308.4,471.1 335.8,494.6 363.3,447.0" fill="none" stroke="#1f3a5f" stroke-width="1.6"/>
<circle cx="88.7" cy="473.5" r="2.6" fill="#1f3a5f"/>
<circle cx="116.2" cy="418.2" r="2.6" fill="#1f3a5f"/>
<circle cx="143.6" cy="463.7" r="2.6" fill="#1f3a5f"/>
<circle cx="171.1" cy="439.1" r="2.6" fill="#1f3a5f"/>
<circle cx="226.0" cy="463.7" r="2.6" fill="#1f3a5f"/>
<circle cx="253.5" cy="458.5" r="2.6" fill="#1f3a5f"/>
<circle cx="280.9" cy="417.6" r="2.6" fill="#1f3a5f"/>
<circle cx="308.4" cy="471.1" r="2.6" fill="#1f3a5f"/>
<circle cx="335.8" cy="494.6" r="2.6" fill="#1f3a5f"/>
<circle cx="363.3" cy="447.0" r="2.6" fill="#1f3a5f"/>
<line x1="212.3" y1="380" x2="212.3" y2="540" stroke="#b9461a" stroke-dasharray="3 3"/>
<line x1="75" y1="540" x2="377" y2="540" stroke="#444"/>
<line x1="75" y1="380" x2="75" y2="540" stroke="#444"/>
<line x1="88.7" y1="540" x2="88.7" y2="543" stroke="#444"/>
<text x="88.7" y="555" text-anchor="middle" fill="#444">-5</text>
<line x1="116.2" y1="540" x2="116.2" y2="543" stroke="#444"/>
<text x="116.2" y="555" text-anchor="middle" fill="#444">-4</text>
<line x1="143.6" y1="540" x2="143.6" y2="543" stroke="#444"/>
<text x="143.6" y="555" text-anchor="middle" fill="#444">-3</text>
<line x1="171.1" y1="540" x2="171.1" y2="543" stroke="#444"/>
<text x="171.1" y="555" text-anchor="middle" fill="#444">-2</text>
<line x1="226.0" y1="540" x2="226.0" y2="543" stroke="#444"/>
<text x="226.0" y="555" text-anchor="middle" fill="#444">0</text>
<line x1="253.5" y1="540" x2="253.5" y2="543" stroke="#444"/>
<text x="253.5" y="555" text-anchor="middle" fill="#444">1</text>
<line x1="280.9" y1="540" x2="280.9" y2="543" stroke="#444"/>
<text x="280.9" y="555" text-anchor="middle" fill="#444">2</text>
<line x1="308.4" y1="540" x2="308.4" y2="543" stroke="#444"/>
<text x="308.4" y="555" text-anchor="middle" fill="#444">3</text>
<line x1="335.8" y1="540" x2="335.8" y2="543" stroke="#444"/>
<text x="335.8" y="555" text-anchor="middle" fill="#444">4</text>
<line x1="363.3" y1="540" x2="363.3" y2="543" stroke="#444"/>
<text x="363.3" y="555" text-anchor="middle" fill="#444">5</text>
<line x1="72" y1="540.0" x2="75" y2="540.0" stroke="#444"/>
<text x="69" y="543.0" text-anchor="end" fill="#444">-0.71</text>
<line x1="72" y1="500.0" x2="75" y2="500.0" stroke="#444"/>
<text x="69" y="503.0" text-anchor="end" fill="#444">0.21</text>
<line x1="72" y1="460.0" x2="75" y2="460.0" stroke="#444"/>
<text x="69" y="463.0" text-anchor="end" fill="#444">1.1</text>
<line x1="72" y1="420.0" x2="75" y2="420.0" stroke="#444"/>
<text x="69" y="423.0" text-anchor="end" fill="#444">2</text>
<line x1="72" y1="380.0" x2="75" y2="380.0" stroke="#444"/>
<text x="69" y="383.0" text-anchor="end" fill="#444">3</text>
<text x="226.0" y="574" text-anchor="middle" fill="#444">Event time (years from adoption)</text>
<text x="27" y="460.0" text-anchor="middle" fill="#444" transform="rotate(-90 27 460.0)">ATT (per 100k)</text>
<rect x="425" y="330" width="380" height="260" fill="#fafaf7" stroke="#e2e2dc"/>
<text x="615.0" y="348" text-anchor="middle" font-weight="600">Firearm homicide rate (per 100k)</text>
<line x1="485" y1="422.3422922536663" x2="787" y2="422.3422922536663" stroke="#aaaaaa" stroke-width="0.7"/>
<polygon points="498.7,404.0 526.2,430.7 553.6,463.2 581.1,463.8 636.0,430.0 663.5,381.7 690.9,424.7 718.4,491.4 745.8,380.0 773.3,441.6 773.3,540.0 745.8,460.4 718.4,530.1 690.9,493.7 663.5,439.9 636.0,482.9 581.1,497.5 553.6,500.7 526.2,484.5 498.7,447.9" fill="#1f3a5f" opacity="0.18"/>
<polyline points="498.7,425.9 526.2,457.6 553.6,481.9 581.1,480.6 636.0,456.5 663.5,410.8 690.9,459.2 718.4,510.8 745.8,420.2 773.3,490.8" fill="none" stroke="#1f3a5f" stroke-width="1.6"/>
<circle cx="498.7" cy="425.9" r="2.6" fill="#1f3a5f"/>
<circle cx="526.2" cy="457.6" r="2.6" fill="#1f3a5f"/>
<circle cx="553.6" cy="481.9" r="2.6" fill="#1f3a5f"/>
<circle cx="581.1" cy="480.6" r="2.6" fill="#1f3a5f"/>
<circle cx="636.0" cy="456.5" r="2.6" fill="#1f3a5f"/>
<circle cx="663.5" cy="410.8" r="2.6" fill="#1f3a5f"/>
<circle cx="690.9" cy="459.2" r="2.6" fill="#1f3a5f"/>
<circle cx="718.4" cy="510.8" r="2.6" fill="#1f3a5f"/>
<circle cx="745.8" cy="420.2" r="2.6" fill="#1f3a5f"/>
<circle cx="773.3" cy="490.8" r="2.6" fill="#1f3a5f"/>
<line x1="622.3" y1="380" x2="622.3" y2="540" stroke="#b9461a" stroke-dasharray="3 3"/>
<line x1="485" y1="540" x2="787" y2="540" stroke="#444"/>
<line x1="485" y1="380" x2="485" y2="540" stroke="#444"/>
<line x1="498.7" y1="540" x2="498.7" y2="543" stroke="#444"/>
<text x="498.7" y="555" text-anchor="middle" fill="#444">-5</text>
<line x1="526.2" y1="540" x2="526.2" y2="543" stroke="#444"/>
<text x="526.2" y="555" text-anchor="middle" fill="#444">-4</text>
<line x1="553.6" y1="540" x2="553.6" y2="543" stroke="#444"/>
<text x="553.6" y="555" text-anchor="middle" fill="#444">-3</text>
<line x1="581.1" y1="540" x2="581.1" y2="543" stroke="#444"/>
<text x="581.1" y="555" text-anchor="middle" fill="#444">-2</text>
<line x1="636.0" y1="540" x2="636.0" y2="543" stroke="#444"/>
<text x="636.0" y="555" text-anchor="middle" fill="#444">0</text>
<line x1="663.5" y1="540" x2="663.5" y2="543" stroke="#444"/>
<text x="663.5" y="555" text-anchor="middle" fill="#444">1</text>
<line x1="690.9" y1="540" x2="690.9" y2="543" stroke="#444"/>
<text x="690.9" y="555" text-anchor="middle" fill="#444">2</text>
<line x1="718.4" y1="540" x2="718.4" y2="543" stroke="#444"/>
<text x="718.4" y="555" text-anchor="middle" fill="#444">3</text>
<line x1="745.8" y1="540" x2="745.8" y2="543" stroke="#444"/>
<text x="745.8" y="555" text-anchor="middle" fill="#444">4</text>
<line x1="773.3" y1="540" x2="773.3" y2="543" stroke="#444"/>
<text x="773.3" y="555" text-anchor="middle" fill="#444">5</text>
<line x1="482" y1="540.0" x2="485" y2="540.0" stroke="#444"/>
<text x="479" y="543.0" text-anchor="end" fill="#444">-0.77</text>
<line x1="482" y1="500.0" x2="485" y2="500.0" stroke="#444"/>
<text x="479" y="503.0" text-anchor="end" fill="#444">-0.51</text>
<line x1="482" y1="460.0" x2="485" y2="460.0" stroke="#444"/>
<text x="479" y="463.0" text-anchor="end" fill="#444">-0.25</text>
<line x1="482" y1="420.0" x2="485" y2="420.0" stroke="#444"/>
<text x="479" y="423.0" text-anchor="end" fill="#444">0.015</text>
<line x1="482" y1="380.0" x2="485" y2="380.0" stroke="#444"/>
<text x="479" y="383.0" text-anchor="end" fill="#444">0.28</text>
<text x="636.0" y="574" text-anchor="middle" fill="#444">Event time (years from adoption)</text>
<text x="437" y="460.0" text-anchor="middle" fill="#444" transform="rotate(-90 437 460.0)">ATT (per 100k)</text>
<rect x="15" y="620" width="380" height="260" fill="#fafaf7" stroke="#e2e2dc"/>
<text x="205.0" y="638" text-anchor="middle" font-weight="600">Total homicide rate (per 100k)</text>
<line x1="75" y1="711.30461541879" x2="377" y2="711.30461541879" stroke="#aaaaaa" stroke-width="0.7"/>
<polygon points="88.7,685.4 116.2,703.7 143.6,711.6 171.1,723.4 226.0,739.5 253.5,670.0 280.9,734.9 308.4,747.8 335.8,690.8 363.3,738.1 363.3,813.8 335.8,744.3 308.4,830.0 280.9,777.1 253.5,736.5 226.0,771.0 171.1,754.7 143.6,805.1 116.2,765.9 88.7,733.4" fill="#1f3a5f" opacity="0.18"/>
<polyline points="88.7,709.4 116.2,734.8 143.6,758.3 171.1,739.0 226.0,755.3 253.5,703.3 280.9,756.0 308.4,788.9 335.8,717.5 363.3,775.9" fill="none" stroke="#1f3a5f" stroke-width="1.6"/>
<circle cx="88.7" cy="709.4" r="2.6" fill="#1f3a5f"/>
<circle cx="116.2" cy="734.8" r="2.6" fill="#1f3a5f"/>
<circle cx="143.6" cy="758.3" r="2.6" fill="#1f3a5f"/>
<circle cx="171.1" cy="739.0" r="2.6" fill="#1f3a5f"/>
<circle cx="226.0" cy="755.3" r="2.6" fill="#1f3a5f"/>
<circle cx="253.5" cy="703.3" r="2.6" fill="#1f3a5f"/>
<circle cx="280.9" cy="756.0" r="2.6" fill="#1f3a5f"/>
<circle cx="308.4" cy="788.9" r="2.6" fill="#1f3a5f"/>
<circle cx="335.8" cy="717.5" r="2.6" fill="#1f3a5f"/>
<circle cx="363.3" cy="775.9" r="2.6" fill="#1f3a5f"/>
<line x1="212.3" y1="670" x2="212.3" y2="830" stroke="#b9461a" stroke-dasharray="3 3"/>
<line x1="75" y1="830" x2="377" y2="830" stroke="#444"/>
<line x1="75" y1="670" x2="75" y2="830" stroke="#444"/>
<line x1="88.7" y1="830" x2="88.7" y2="833" stroke="#444"/>
<text x="88.7" y="845" text-anchor="middle" fill="#444">-5</text>
<line x1="116.2" y1="830" x2="116.2" y2="833" stroke="#444"/>
<text x="116.2" y="845" text-anchor="middle" fill="#444">-4</text>
<line x1="143.6" y1="830" x2="143.6" y2="833" stroke="#444"/>
<text x="143.6" y="845" text-anchor="middle" fill="#444">-3</text>
<line x1="171.1" y1="830" x2="171.1" y2="833" stroke="#444"/>
<text x="171.1" y="845" text-anchor="middle" fill="#444">-2</text>
<line x1="226.0" y1="830" x2="226.0" y2="833" stroke="#444"/>
<text x="226.0" y="845" text-anchor="middle" fill="#444">0</text>
<line x1="253.5" y1="830" x2="253.5" y2="833" stroke="#444"/>
<text x="253.5" y="845" text-anchor="middle" fill="#444">1</text>
<line x1="280.9" y1="830" x2="280.9" y2="833" stroke="#444"/>
<text x="280.9" y="845" text-anchor="middle" fill="#444">2</text>
<line x1="308.4" y1="830" x2="308.4" y2="833" stroke="#444"/>
<text x="308.4" y="845" text-anchor="middle" fill="#444">3</text>
<line x1="335.8" y1="830" x2="335.8" y2="833" stroke="#444"/>
<text x="335.8" y="845" text-anchor="middle" fill="#444">4</text>
<line x1="363.3" y1="830" x2="363.3" y2="833" stroke="#444"/>
<text x="363.3" y="845" text-anchor="middle" fill="#444">5</text>
<line x1="72" y1="830.0" x2="75" y2="830.0" stroke="#444"/>
<text x="69" y="833.0" text-anchor="end" fill="#444">-1.2</text>
<line x1="72" y1="790.0" x2="75" y2="790.0" stroke="#444"/>
<text x="69" y="793.0" text-anchor="end" fill="#444">-0.79</text>
<line x1="72" y1="750.0" x2="75" y2="750.0" stroke="#444"/>
<text x="69" y="753.0" text-anchor="end" fill="#444">-0.39</text>
<line x1="72" y1="710.0" x2="75" y2="710.0" stroke="#444"/>
<text x="69" y="713.0" text-anchor="end" fill="#444">0.013</text>
<line x1="72" y1="670.0" x2="75" y2="670.0" stroke="#444"/>
<text x="69" y="673.0" text-anchor="end" fill="#444">0.42</text>
<text x="226.0" y="864" text-anchor="middle" fill="#444">Event time (years from adoption)</text>
<text x="27" y="750.0" text-anchor="middle" fill="#444" transform="rotate(-90 27 750.0)">ATT (per 100k)</text>
<rect x="425" y="620" width="380" height="260" fill="#fafaf7" stroke="#e2e2dc"/>
<text x="615.0" y="638" text-anchor="middle" font-weight="600">Motor vehicle theft rate (per 100k) [placebo]</text>
<line x1="485" y1="714.001026447125" x2="787" y2="714.001026447125" stroke="#aaaaaa" stroke-width="0.7"/>
<polygon points="498.7,741.0 526.2,749.7 553.6,731.1 581.1,716.6 636.0,738.5 663.5,704.3 690.9,699.8 718.4,680.6 745.8,670.0 773.3,709.5 773.3,830.0 745.8,741.2 718.4,735.8 690.9,726.6 663.5,728.9 636.0,748.5 581.1,724.1 553.6,749.0 526.2,783.5 498.7,782.7" fill="#1f3a5f" opacity="0.18"/>
<polyline points="498.7,761.9 526.2,766.6 553.6,740.0 581.1,720.3 636.0,743.5 663.5,716.6 690.9,713.2 718.4,708.2 745.8,705.6 773.3,769.7" fill="none" stroke="#1f3a5f" stroke-width="1.6"/>
<circle cx="498.7" cy="761.9" r="2.6" fill="#1f3a5f"/>
<circle cx="526.2" cy="766.6" r="2.6" fill="#1f3a5f"/>
<circle cx="553.6" cy="740.0" r="2.6" fill="#1f3a5f"/>
<circle cx="581.1" cy="720.3" r="2.6" fill="#1f3a5f"/>
<circle cx="636.0" cy="743.5" r="2.6" fill="#1f3a5f"/>
<circle cx="663.5" cy="716.6" r="2.6" fill="#1f3a5f"/>
<circle cx="690.9" cy="713.2" r="2.6" fill="#1f3a5f"/>
<circle cx="718.4" cy="708.2" r="2.6" fill="#1f3a5f"/>
<circle cx="745.8" cy="705.6" r="2.6" fill="#1f3a5f"/>
<circle cx="773.3" cy="769.7" r="2.6" fill="#1f3a5f"/>
<line x1="622.3" y1="670" x2="622.3" y2="830" stroke="#b9461a" stroke-dasharray="3 3"/>
<line x1="485" y1="830" x2="787" y2="830" stroke="#444"/>
<line x1="485" y1="670" x2="485" y2="830" stroke="#444"/>
<line x1="498.7" y1="830" x2="498.7" y2="833" stroke="#444"/>
<text x="498.7" y="845" text-anchor="middle" fill="#444">-5</text>
<line x1="526.2" y1="830" x2="526.2" y2="833" stroke="#444"/>
<text x="526.2" y="845" text-anchor="middle" fill="#444">-4</text>
<line x1="553.6" y1="830" x2="553.6" y2="833" stroke="#444"/>
<text x="553.6" y="845" text-anchor="middle" fill="#444">-3</text>
<line x1="581.1" y1="830" x2="581.1" y2="833" stroke="#444"/>
<text x="581.1" y="845" text-anchor="middle" fill="#444">-2</text>
<line x1="636.0" y1="830" x2="636.0" y2="833" stroke="#444"/>
<text x="636.0" y="845" text-anchor="middle" fill="#444">0</text>
<line x1="663.5" y1="830" x2="663.5" y2="833" stroke="#444"/>
<text x="663.5" y="845" text-anchor="middle" fill="#444">1</text>
<line x1="690.9" y1="830" x2="690.9" y2="833" stroke="#444"/>
<text x="690.9" y="845" text-anchor="middle" fill="#444">2</text>
<line x1="718.4" y1="830" x2="718.4" y2="833" stroke="#444"/>
<text x="718.4" y="845" text-anchor="middle" fill="#444">3</text>
<line x1="745.8" y1="830" x2="745.8" y2="833" stroke="#444"/>
<text x="745.8" y="845" text-anchor="middle" fill="#444">4</text>
<line x1="773.3" y1="830" x2="773.3" y2="833" stroke="#444"/>
<text x="773.3" y="845" text-anchor="middle" fill="#444">5</text>
<line x1="482" y1="830.0" x2="485" y2="830.0" stroke="#444"/>
<text x="479" y="833.0" text-anchor="end" fill="#444">-1.2e+02</text>
<line x1="482" y1="790.0" x2="485" y2="790.0" stroke="#444"/>
<text x="479" y="793.0" text-anchor="end" fill="#444">-78</text>
<line x1="482" y1="750.0" x2="485" y2="750.0" stroke="#444"/>
<text x="479" y="753.0" text-anchor="end" fill="#444">-37</text>
<line x1="482" y1="710.0" x2="485" y2="710.0" stroke="#444"/>
<text x="479" y="713.0" text-anchor="end" fill="#444">4.1</text>
<line x1="482" y1="670.0" x2="485" y2="670.0" stroke="#444"/>
<text x="479" y="673.0" text-anchor="end" fill="#444">45</text>
<text x="636.0" y="864" text-anchor="middle" fill="#444">Event time (years from adoption)</text>
<text x="437" y="750.0" text-anchor="middle" fill="#444" transform="rotate(-90 437 750.0)">ATT (per 100k)</text>
<text x="805" y="608" text-anchor="end" fill="#888" font-size="10">Shaded band: pointwise 95% CI from cluster bootstrap. Vertical dashed line marks the year before adoption.</text>
</svg>