<svg xmlns="http://www.w3.org/2000/svg" viewBox="0 0 820 620" font-family="-apple-system, Segoe UI, Helvetica, Arial, sans-serif" font-size="11">
<text x="410.0" y="22" text-anchor="middle" font-size="14" font-weight="600">Callaway-Sant'Anna ATT by event time (RA) -- min age 21 for handgun purchase (age21handgunsale)</text>
<rect x="15" y="40" width="380" height="260" fill="#fafaf7" stroke="#e2e2dc"/>
<text x="205.0" y="58" text-anchor="middle" font-weight="600">Firearm suicide rate (per 100k)</text>
<line x1="75" y1="121.05318823429133" x2="377" y2="121.05318823429133" stroke="#aaaaaa" stroke-width="0.7"/>
<polygon points="88.7,140.9 88.7,135.3 88.7,112.4 116.2,127.3 116.2,110.2 116.2,127.5 143.6,115.4 143.6,113.3 143.6,104.1 171.1,103.4 171.1,151.4 171.1,161.5 226.0,102.6 226.0,94.2 226.0,96.5 253.5,130.3 253.5,142.7 253.5,117.8 280.9,90.0 280.9,90.3 280.9,102.7 308.4,134.1 308.4,129.4 308.4,100.3 335.8,118.6 335.8,164.5 335.8,162.7 363.3,143.4 363.3,155.2 363.3,110.3 363.3,135.8 363.3,191.7 363.3,182.7 335.8,237.7 335.8,241.9 335.8,160.3 308.4,130.8 308.4,195.4 308.4,197.0 280.9,122.6 280.9,149.1 280.9,148.3 253.5,134.2 253.5,165.6 253.5,155.8 226.0,125.1 226.0,148.6 226.0,157.4 171.1,196.4 171.1,184.1 171.1,121.5 143.6,137.5 143.6,178.9 143.6,181.5 116.2,159.4 116.2,125.8 116.2,155.4 88.7,151.6 88.7,244.2 88.7,250.0" fill="#1f3a5f" opacity="0.18"/>
<polyline points="88.7,195.4 88.7,189.8 88.7,132.0 116.2,141.4 116.2,118.0 116.2,143.4 143.6,148.5 143.6,146.1 143.6,120.8 171.1,112.4 171.1,167.8 171.1,178.9 226.0,130.0 226.0,121.4 226.0,110.8 253.5,143.0 253.5,154.2 253.5,126.0 280.9,119.1 280.9,119.7 280.9,112.7 308.4,165.6 308.4,162.4 308.4,115.5 335.8,139.4 335.8,203.2 335.8,200.2 363.3,163.1 363.3,173.4 363.3,123.0" fill="none" stroke="#1f3a5f" stroke-width="1.6"/>
<circle cx="88.7" cy="195.4" r="2.6" fill="#1f3a5f"/>
<circle cx="88.7" cy="189.8" r="2.6" fill="#1f3a5f"/>
<circle cx="88.7" cy="132.0" r="2.6" fill="#1f3a5f"/>
<circle cx="116.2" cy="141.4" r="2.6" fill="#1f3a5f"/>
<circle cx="116.2" cy="118.0" r="2.6" fill="#1f3a5f"/>
<circle cx="116.2" cy="143.4" r="2.6" fill="#1f3a5f"/>
<circle cx="143.6" cy="148.5" r="2.6" fill="#1f3a5f"/>
<circle cx="143.6" cy="146.1" r="2.6" fill="#1f3a5f"/>
<circle cx="143.6" cy="120.8" r="2.6" fill="#1f3a5f"/>
<circle cx="171.1" cy="112.4" r="2.6" fill="#1f3a5f"/>
<circle cx="171.1" cy="167.8" r="2.6" fill="#1f3a5f"/>
<circle cx="171.1" cy="178.9" r="2.6" fill="#1f3a5f"/>
<circle cx="226.0" cy="130.0" r="2.6" fill="#1f3a5f"/>
<circle cx="226.0" cy="121.4" r="2.6" fill="#1f3a5f"/>
<circle cx="226.0" cy="110.8" r="2.6" fill="#1f3a5f"/>
<circle cx="253.5" cy="143.0" r="2.6" fill="#1f3a5f"/>
<circle cx="253.5" cy="154.2" r="2.6" fill="#1f3a5f"/>
<circle cx="253.5" cy="126.0" r="2.6" fill="#1f3a5f"/>
<circle cx="280.9" cy="119.1" r="2.6" fill="#1f3a5f"/>
<circle cx="280.9" cy="119.7" r="2.6" fill="#1f3a5f"/>
<circle cx="280.9" cy="112.7" r="2.6" fill="#1f3a5f"/>
<circle cx="308.4" cy="165.6" r="2.6" fill="#1f3a5f"/>
<circle cx="308.4" cy="162.4" r="2.6" fill="#1f3a5f"/>
<circle cx="308.4" cy="115.5" r="2.6" fill="#1f3a5f"/>
<circle cx="335.8" cy="139.4" r="2.6" fill="#1f3a5f"/>
<circle cx="335.8" cy="203.2" r="2.6" fill="#1f3a5f"/>
<circle cx="335.8" cy="200.2" r="2.6" fill="#1f3a5f"/>
<circle cx="363.3" cy="163.1" r="2.6" fill="#1f3a5f"/>
<circle cx="363.3" cy="173.4" r="2.6" fill="#1f3a5f"/>
<circle cx="363.3" cy="123.0" r="2.6" fill="#1f3a5f"/>
<line x1="212.3" y1="90" x2="212.3" y2="250" stroke="#b9461a" stroke-dasharray="3 3"/>
<line x1="75" y1="250" x2="377" y2="250" stroke="#444"/>
<line x1="75" y1="90" x2="75" y2="250" stroke="#444"/>
<line x1="88.7" y1="250" x2="88.7" y2="253" stroke="#444"/>
<text x="88.7" y="265" text-anchor="middle" fill="#444">-5</text>
<line x1="116.2" y1="250" x2="116.2" y2="253" stroke="#444"/>
<text x="116.2" y="265" text-anchor="middle" fill="#444">-4</text>
<line x1="143.6" y1="250" x2="143.6" y2="253" stroke="#444"/>
<text x="143.6" y="265" text-anchor="middle" fill="#444">-3</text>
<line x1="171.1" y1="250" x2="171.1" y2="253" stroke="#444"/>
<text x="171.1" y="265" text-anchor="middle" fill="#444">-2</text>
<line x1="226.0" y1="250" x2="226.0" y2="253" stroke="#444"/>
<text x="226.0" y="265" text-anchor="middle" fill="#444">0</text>
<line x1="253.5" y1="250" x2="253.5" y2="253" stroke="#444"/>
<text x="253.5" y="265" text-anchor="middle" fill="#444">1</text>
<line x1="280.9" y1="250" x2="280.9" y2="253" stroke="#444"/>
<text x="280.9" y="265" text-anchor="middle" fill="#444">2</text>
<line x1="308.4" y1="250" x2="308.4" y2="253" stroke="#444"/>
<text x="308.4" y="265" text-anchor="middle" fill="#444">3</text>
<line x1="335.8" y1="250" x2="335.8" y2="253" stroke="#444"/>
<text x="335.8" y="265" text-anchor="middle" fill="#444">4</text>
<line x1="363.3" y1="250" x2="363.3" y2="253" stroke="#444"/>
<text x="363.3" y="265" text-anchor="middle" fill="#444">5</text>
<line x1="72" y1="250.0" x2="75" y2="250.0" stroke="#444"/>
<text x="69" y="253.0" text-anchor="end" fill="#444">-4.7</text>
<line x1="72" y1="210.0" x2="75" y2="210.0" stroke="#444"/>
<text x="69" y="213.0" text-anchor="end" fill="#444">-3.2</text>
<line x1="72" y1="170.0" x2="75" y2="170.0" stroke="#444"/>
<text x="69" y="173.0" text-anchor="end" fill="#444">-1.8</text>
<line x1="72" y1="130.0" x2="75" y2="130.0" stroke="#444"/>
<text x="69" y="133.0" text-anchor="end" fill="#444">-0.32</text>
<line x1="72" y1="90.0" x2="75" y2="90.0" stroke="#444"/>
<text x="69" y="93.0" text-anchor="end" fill="#444">1.1</text>
<text x="226.0" y="284" text-anchor="middle" fill="#444">Event time (years from adoption)</text>
<text x="27" y="170.0" text-anchor="middle" fill="#444" transform="rotate(-90 27 170.0)">ATT (per 100k)</text>
<rect x="425" y="40" width="380" height="260" fill="#fafaf7" stroke="#e2e2dc"/>
<text x="615.0" y="58" text-anchor="middle" font-weight="600">Non-firearm suicide rate (per 100k) [substitution test]</text>
<line x1="485" y1="212.26751709599353" x2="787" y2="212.26751709599353" stroke="#aaaaaa" stroke-width="0.7"/>
<polygon points="498.7,190.3 498.7,168.0 498.7,175.3 526.2,153.4 526.2,161.9 526.2,170.9 553.6,208.5 553.6,184.4 553.6,183.2 581.1,177.1 581.1,167.7 581.1,180.1 636.0,149.2 636.0,159.0 636.0,191.0 663.5,147.1 663.5,129.5 663.5,173.2 690.9,90.0 690.9,91.3 690.9,155.9 718.4,169.8 718.4,184.8 718.4,177.7 745.8,180.0 745.8,143.5 745.8,141.7 773.3,142.3 773.3,138.8 773.3,156.2 773.3,188.1 773.3,203.0 773.3,208.4 745.8,170.5 745.8,175.9 745.8,195.9 718.4,205.9 718.4,227.0 718.4,211.6 690.9,185.1 690.9,179.3 690.9,177.5 663.5,193.9 663.5,196.4 663.5,212.4 636.0,214.0 636.0,239.4 636.0,229.6 581.1,227.9 581.1,214.2 581.1,191.5 553.6,194.5 553.6,224.4 553.6,247.8 526.2,228.1 526.2,185.0 526.2,209.9 498.7,195.7 498.7,228.1 498.7,250.0" fill="#1f3a5f" opacity="0.18"/>
<polyline points="498.7,220.1 498.7,198.0 498.7,185.5 526.2,181.7 526.2,173.5 526.2,199.5 553.6,228.2 553.6,204.4 553.6,188.8 581.1,184.3 581.1,190.9 581.1,204.0 636.0,189.4 636.0,199.2 636.0,202.5 663.5,179.7 663.5,162.9 663.5,183.5 690.9,133.8 690.9,135.3 690.9,170.5 718.4,190.7 718.4,205.9 718.4,191.8 745.8,187.9 745.8,159.7 745.8,156.1 773.3,175.4 773.3,170.9 773.3,172.2" fill="none" stroke="#1f3a5f" stroke-width="1.6"/>
<circle cx="498.7" cy="220.1" r="2.6" fill="#1f3a5f"/>
<circle cx="498.7" cy="198.0" r="2.6" fill="#1f3a5f"/>
<circle cx="498.7" cy="185.5" r="2.6" fill="#1f3a5f"/>
<circle cx="526.2" cy="181.7" r="2.6" fill="#1f3a5f"/>
<circle cx="526.2" cy="173.5" r="2.6" fill="#1f3a5f"/>
<circle cx="526.2" cy="199.5" r="2.6" fill="#1f3a5f"/>
<circle cx="553.6" cy="228.2" r="2.6" fill="#1f3a5f"/>
<circle cx="553.6" cy="204.4" r="2.6" fill="#1f3a5f"/>
<circle cx="553.6" cy="188.8" r="2.6" fill="#1f3a5f"/>
<circle cx="581.1" cy="184.3" r="2.6" fill="#1f3a5f"/>
<circle cx="581.1" cy="190.9" r="2.6" fill="#1f3a5f"/>
<circle cx="581.1" cy="204.0" r="2.6" fill="#1f3a5f"/>
<circle cx="636.0" cy="189.4" r="2.6" fill="#1f3a5f"/>
<circle cx="636.0" cy="199.2" r="2.6" fill="#1f3a5f"/>
<circle cx="636.0" cy="202.5" r="2.6" fill="#1f3a5f"/>
<circle cx="663.5" cy="179.7" r="2.6" fill="#1f3a5f"/>
<circle cx="663.5" cy="162.9" r="2.6" fill="#1f3a5f"/>
<circle cx="663.5" cy="183.5" r="2.6" fill="#1f3a5f"/>
<circle cx="690.9" cy="133.8" r="2.6" fill="#1f3a5f"/>
<circle cx="690.9" cy="135.3" r="2.6" fill="#1f3a5f"/>
<circle cx="690.9" cy="170.5" r="2.6" fill="#1f3a5f"/>
<circle cx="718.4" cy="190.7" r="2.6" fill="#1f3a5f"/>
<circle cx="718.4" cy="205.9" r="2.6" fill="#1f3a5f"/>
<circle cx="718.4" cy="191.8" r="2.6" fill="#1f3a5f"/>
<circle cx="745.8" cy="187.9" r="2.6" fill="#1f3a5f"/>
<circle cx="745.8" cy="159.7" r="2.6" fill="#1f3a5f"/>
<circle cx="745.8" cy="156.1" r="2.6" fill="#1f3a5f"/>
<circle cx="773.3" cy="175.4" r="2.6" fill="#1f3a5f"/>
<circle cx="773.3" cy="170.9" r="2.6" fill="#1f3a5f"/>
<circle cx="773.3" cy="172.2" r="2.6" fill="#1f3a5f"/>
<line x1="622.3" y1="90" x2="622.3" y2="250" stroke="#b9461a" stroke-dasharray="3 3"/>
<line x1="485" y1="250" x2="787" y2="250" stroke="#444"/>
<line x1="485" y1="90" x2="485" y2="250" stroke="#444"/>
<line x1="498.7" y1="250" x2="498.7" y2="253" stroke="#444"/>
<text x="498.7" y="265" text-anchor="middle" fill="#444">-5</text>
<line x1="526.2" y1="250" x2="526.2" y2="253" stroke="#444"/>
<text x="526.2" y="265" text-anchor="middle" fill="#444">-4</text>
<line x1="553.6" y1="250" x2="553.6" y2="253" stroke="#444"/>
<text x="553.6" y="265" text-anchor="middle" fill="#444">-3</text>
<line x1="581.1" y1="250" x2="581.1" y2="253" stroke="#444"/>
<text x="581.1" y="265" text-anchor="middle" fill="#444">-2</text>
<line x1="636.0" y1="250" x2="636.0" y2="253" stroke="#444"/>
<text x="636.0" y="265" text-anchor="middle" fill="#444">0</text>
<line x1="663.5" y1="250" x2="663.5" y2="253" stroke="#444"/>
<text x="663.5" y="265" text-anchor="middle" fill="#444">1</text>
<line x1="690.9" y1="250" x2="690.9" y2="253" stroke="#444"/>
<text x="690.9" y="265" text-anchor="middle" fill="#444">2</text>
<line x1="718.4" y1="250" x2="718.4" y2="253" stroke="#444"/>
<text x="718.4" y="265" text-anchor="middle" fill="#444">3</text>
<line x1="745.8" y1="250" x2="745.8" y2="253" stroke="#444"/>
<text x="745.8" y="265" text-anchor="middle" fill="#444">4</text>
<line x1="773.3" y1="250" x2="773.3" y2="253" stroke="#444"/>
<text x="773.3" y="265" text-anchor="middle" fill="#444">5</text>
<line x1="482" y1="250.0" x2="485" y2="250.0" stroke="#444"/>
<text x="479" y="253.0" text-anchor="end" fill="#444">-1.6</text>
<line x1="482" y1="210.0" x2="485" y2="210.0" stroke="#444"/>
<text x="479" y="213.0" text-anchor="end" fill="#444">0.096</text>
<line x1="482" y1="170.0" x2="485" y2="170.0" stroke="#444"/>
<text x="479" y="173.0" text-anchor="end" fill="#444">1.8</text>
<line x1="482" y1="130.0" x2="485" y2="130.0" stroke="#444"/>
<text x="479" y="133.0" text-anchor="end" fill="#444">3.5</text>
<line x1="482" y1="90.0" x2="485" y2="90.0" stroke="#444"/>
<text x="479" y="93.0" text-anchor="end" fill="#444">5.2</text>
<text x="636.0" y="284" text-anchor="middle" fill="#444">Event time (years from adoption)</text>
<text x="437" y="170.0" text-anchor="middle" fill="#444" transform="rotate(-90 437 170.0)">ATT (per 100k)</text>
<rect x="15" y="330" width="380" height="260" fill="#fafaf7" stroke="#e2e2dc"/>
<text x="205.0" y="348" text-anchor="middle" font-weight="600">Total suicide rate (per 100k) [net effect]</text>
<line x1="75" y1="476.13797060454425" x2="377" y2="476.13797060454425" stroke="#aaaaaa" stroke-width="0.7"/>
<polygon points="88.7,505.0 88.7,488.4 88.7,458.3 116.2,451.5 116.2,441.9 116.2,463.1 143.6,488.3 143.6,472.5 143.6,452.6 171.1,447.1 171.1,469.1 171.1,483.2 226.0,453.2 226.0,453.9 226.0,459.1 253.5,444.7 253.5,440.2 253.5,456.2 280.9,380.0 280.9,381.1 280.9,430.9 308.4,477.2 308.4,484.0 308.4,447.7 335.8,456.6 335.8,468.2 335.8,465.1 363.3,448.6 363.3,452.5 363.3,440.7 363.3,461.7 363.3,504.2 363.3,502.4 335.8,502.1 335.8,507.0 335.8,484.5 308.4,471.9 308.4,505.9 308.4,496.4 280.9,457.9 280.9,469.7 280.9,468.3 253.5,464.3 253.5,484.8 253.5,489.7 226.0,469.2 226.0,481.8 226.0,479.3 171.1,522.7 171.1,507.3 171.1,459.3 143.6,469.0 143.6,497.4 143.6,515.0 116.2,497.5 116.2,456.7 116.2,483.6 88.7,471.4 88.7,521.6 88.7,540.0" fill="#1f3a5f" opacity="0.18"/>
<polyline points="88.7,522.5 88.7,505.0 88.7,464.8 116.2,467.6 116.2,449.3 116.2,480.3 143.6,501.7 143.6,485.0 143.6,460.8 171.1,453.2 171.1,488.2 171.1,502.9 226.0,466.3 226.0,467.9 226.0,464.1 253.5,467.2 253.5,462.5 253.5,460.2 280.9,424.1 280.9,425.4 280.9,444.4 308.4,486.8 308.4,494.9 308.4,459.8 335.8,470.5 335.8,487.6 335.8,483.6 363.3,475.5 363.3,478.4 363.3,451.2" fill="none" stroke="#1f3a5f" stroke-width="1.6"/>
<circle cx="88.7" cy="522.5" r="2.6" fill="#1f3a5f"/>
<circle cx="88.7" cy="505.0" r="2.6" fill="#1f3a5f"/>
<circle cx="88.7" cy="464.8" r="2.6" fill="#1f3a5f"/>
<circle cx="116.2" cy="467.6" r="2.6" fill="#1f3a5f"/>
<circle cx="116.2" cy="449.3" r="2.6" fill="#1f3a5f"/>
<circle cx="116.2" cy="480.3" r="2.6" fill="#1f3a5f"/>
<circle cx="143.6" cy="501.7" r="2.6" fill="#1f3a5f"/>
<circle cx="143.6" cy="485.0" r="2.6" fill="#1f3a5f"/>
<circle cx="143.6" cy="460.8" r="2.6" fill="#1f3a5f"/>
<circle cx="171.1" cy="453.2" r="2.6" fill="#1f3a5f"/>
<circle cx="171.1" cy="488.2" r="2.6" fill="#1f3a5f"/>
<circle cx="171.1" cy="502.9" r="2.6" fill="#1f3a5f"/>
<circle cx="226.0" cy="466.3" r="2.6" fill="#1f3a5f"/>
<circle cx="226.0" cy="467.9" r="2.6" fill="#1f3a5f"/>
<circle cx="226.0" cy="464.1" r="2.6" fill="#1f3a5f"/>
<circle cx="253.5" cy="467.2" r="2.6" fill="#1f3a5f"/>
<circle cx="253.5" cy="462.5" r="2.6" fill="#1f3a5f"/>
<circle cx="253.5" cy="460.2" r="2.6" fill="#1f3a5f"/>
<circle cx="280.9" cy="424.1" r="2.6" fill="#1f3a5f"/>
<circle cx="280.9" cy="425.4" r="2.6" fill="#1f3a5f"/>
<circle cx="280.9" cy="444.4" r="2.6" fill="#1f3a5f"/>
<circle cx="308.4" cy="486.8" r="2.6" fill="#1f3a5f"/>
<circle cx="308.4" cy="494.9" r="2.6" fill="#1f3a5f"/>
<circle cx="308.4" cy="459.8" r="2.6" fill="#1f3a5f"/>
<circle cx="335.8" cy="470.5" r="2.6" fill="#1f3a5f"/>
<circle cx="335.8" cy="487.6" r="2.6" fill="#1f3a5f"/>
<circle cx="335.8" cy="483.6" r="2.6" fill="#1f3a5f"/>
<circle cx="363.3" cy="475.5" r="2.6" fill="#1f3a5f"/>
<circle cx="363.3" cy="478.4" r="2.6" fill="#1f3a5f"/>
<circle cx="363.3" cy="451.2" r="2.6" fill="#1f3a5f"/>
<line x1="212.3" y1="380" x2="212.3" y2="540" stroke="#b9461a" stroke-dasharray="3 3"/>
<line x1="75" y1="540" x2="377" y2="540" stroke="#444"/>
<line x1="75" y1="380" x2="75" y2="540" stroke="#444"/>
<line x1="88.7" y1="540" x2="88.7" y2="543" stroke="#444"/>
<text x="88.7" y="555" text-anchor="middle" fill="#444">-5</text>
<line x1="116.2" y1="540" x2="116.2" y2="543" stroke="#444"/>
<text x="116.2" y="555" text-anchor="middle" fill="#444">-4</text>
<line x1="143.6" y1="540" x2="143.6" y2="543" stroke="#444"/>
<text x="143.6" y="555" text-anchor="middle" fill="#444">-3</text>
<line x1="171.1" y1="540" x2="171.1" y2="543" stroke="#444"/>
<text x="171.1" y="555" text-anchor="middle" fill="#444">-2</text>
<line x1="226.0" y1="540" x2="226.0" y2="543" stroke="#444"/>
<text x="226.0" y="555" text-anchor="middle" fill="#444">0</text>
<line x1="253.5" y1="540" x2="253.5" y2="543" stroke="#444"/>
<text x="253.5" y="555" text-anchor="middle" fill="#444">1</text>
<line x1="280.9" y1="540" x2="280.9" y2="543" stroke="#444"/>
<text x="280.9" y="555" text-anchor="middle" fill="#444">2</text>
<line x1="308.4" y1="540" x2="308.4" y2="543" stroke="#444"/>
<text x="308.4" y="555" text-anchor="middle" fill="#444">3</text>
<line x1="335.8" y1="540" x2="335.8" y2="543" stroke="#444"/>
<text x="335.8" y="555" text-anchor="middle" fill="#444">4</text>
<line x1="363.3" y1="540" x2="363.3" y2="543" stroke="#444"/>
<text x="363.3" y="555" text-anchor="middle" fill="#444">5</text>
<line x1="72" y1="540.0" x2="75" y2="540.0" stroke="#444"/>
<text x="69" y="543.0" text-anchor="end" fill="#444">-4.2</text>
<line x1="72" y1="500.0" x2="75" y2="500.0" stroke="#444"/>
<text x="69" y="503.0" text-anchor="end" fill="#444">-1.6</text>
<line x1="72" y1="460.0" x2="75" y2="460.0" stroke="#444"/>
<text x="69" y="463.0" text-anchor="end" fill="#444">1.1</text>
<line x1="72" y1="420.0" x2="75" y2="420.0" stroke="#444"/>
<text x="69" y="423.0" text-anchor="end" fill="#444">3.7</text>
<line x1="72" y1="380.0" x2="75" y2="380.0" stroke="#444"/>
<text x="69" y="383.0" text-anchor="end" fill="#444">6.3</text>
<text x="226.0" y="574" text-anchor="middle" fill="#444">Event time (years from adoption)</text>
<text x="27" y="460.0" text-anchor="middle" fill="#444" transform="rotate(-90 27 460.0)">ATT (per 100k)</text>
<rect x="425" y="330" width="380" height="260" fill="#fafaf7" stroke="#e2e2dc"/>
<text x="615.0" y="348" text-anchor="middle" font-weight="600">Firearm homicide rate (per 100k)</text>
<line x1="485" y1="428.545811446233" x2="787" y2="428.545811446233" stroke="#aaaaaa" stroke-width="0.7"/>
<polygon points="498.7,389.1 498.7,392.8 498.7,429.9 526.2,397.1 526.2,443.6 526.2,380.0 553.6,435.8 553.6,450.7 553.6,443.6 581.1,449.8 581.1,444.8 581.1,433.4 636.0,415.8 636.0,422.1 636.0,444.2 663.5,418.6 663.5,423.2 663.5,409.7 690.9,439.5 690.9,430.5 690.9,437.7 718.4,435.4 718.4,466.0 718.4,455.7 745.8,412.3 745.8,404.7 745.8,412.9 773.3,440.6 773.3,428.3 773.3,445.8 773.3,517.6 773.3,516.0 773.3,540.0 745.8,466.6 745.8,462.0 745.8,473.1 718.4,478.2 718.4,510.7 718.4,487.4 690.9,467.2 690.9,467.7 690.9,474.6 663.5,435.6 663.5,470.1 663.5,464.4 636.0,476.8 636.0,448.6 636.0,438.9 581.1,473.2 581.1,481.0 581.1,461.8 553.6,458.7 553.6,476.3 553.6,480.2 526.2,432.2 526.2,485.2 526.2,438.0 498.7,457.2 498.7,445.2 498.7,456.1" fill="#1f3a5f" opacity="0.18"/>
<polyline points="498.7,422.6 498.7,419.0 498.7,443.5 526.2,417.5 526.2,464.4 526.2,406.1 553.6,458.0 553.6,463.5 553.6,451.2 581.1,455.8 581.1,462.9 581.1,453.3 636.0,427.4 636.0,435.3 636.0,460.5 663.5,441.5 663.5,446.7 663.5,422.6 690.9,457.1 690.9,449.1 690.9,452.4 718.4,461.4 718.4,488.4 718.4,466.9 745.8,442.7 745.8,433.4 745.8,439.8 773.3,490.3 773.3,472.2 773.3,481.7" fill="none" stroke="#1f3a5f" stroke-width="1.6"/>
<circle cx="498.7" cy="422.6" r="2.6" fill="#1f3a5f"/>
<circle cx="498.7" cy="419.0" r="2.6" fill="#1f3a5f"/>
<circle cx="498.7" cy="443.5" r="2.6" fill="#1f3a5f"/>
<circle cx="526.2" cy="417.5" r="2.6" fill="#1f3a5f"/>
<circle cx="526.2" cy="464.4" r="2.6" fill="#1f3a5f"/>
<circle cx="526.2" cy="406.1" r="2.6" fill="#1f3a5f"/>
<circle cx="553.6" cy="458.0" r="2.6" fill="#1f3a5f"/>
<circle cx="553.6" cy="463.5" r="2.6" fill="#1f3a5f"/>
<circle cx="553.6" cy="451.2" r="2.6" fill="#1f3a5f"/>
<circle cx="581.1" cy="455.8" r="2.6" fill="#1f3a5f"/>
<circle cx="581.1" cy="462.9" r="2.6" fill="#1f3a5f"/>
<circle cx="581.1" cy="453.3" r="2.6" fill="#1f3a5f"/>
<circle cx="636.0" cy="427.4" r="2.6" fill="#1f3a5f"/>
<circle cx="636.0" cy="435.3" r="2.6" fill="#1f3a5f"/>
<circle cx="636.0" cy="460.5" r="2.6" fill="#1f3a5f"/>
<circle cx="663.5" cy="441.5" r="2.6" fill="#1f3a5f"/>
<circle cx="663.5" cy="446.7" r="2.6" fill="#1f3a5f"/>
<circle cx="663.5" cy="422.6" r="2.6" fill="#1f3a5f"/>
<circle cx="690.9" cy="457.1" r="2.6" fill="#1f3a5f"/>
<circle cx="690.9" cy="449.1" r="2.6" fill="#1f3a5f"/>
<circle cx="690.9" cy="452.4" r="2.6" fill="#1f3a5f"/>
<circle cx="718.4" cy="461.4" r="2.6" fill="#1f3a5f"/>
<circle cx="718.4" cy="488.4" r="2.6" fill="#1f3a5f"/>
<circle cx="718.4" cy="466.9" r="2.6" fill="#1f3a5f"/>
<circle cx="745.8" cy="442.7" r="2.6" fill="#1f3a5f"/>
<circle cx="745.8" cy="433.4" r="2.6" fill="#1f3a5f"/>
<circle cx="745.8" cy="439.8" r="2.6" fill="#1f3a5f"/>
<circle cx="773.3" cy="490.3" r="2.6" fill="#1f3a5f"/>
<circle cx="773.3" cy="472.2" r="2.6" fill="#1f3a5f"/>
<circle cx="773.3" cy="481.7" r="2.6" fill="#1f3a5f"/>
<line x1="622.3" y1="380" x2="622.3" y2="540" stroke="#b9461a" stroke-dasharray="3 3"/>
<line x1="485" y1="540" x2="787" y2="540" stroke="#444"/>
<line x1="485" y1="380" x2="485" y2="540" stroke="#444"/>
<line x1="498.7" y1="540" x2="498.7" y2="543" stroke="#444"/>
<text x="498.7" y="555" text-anchor="middle" fill="#444">-5</text>
<line x1="526.2" y1="540" x2="526.2" y2="543" stroke="#444"/>
<text x="526.2" y="555" text-anchor="middle" fill="#444">-4</text>
<line x1="553.6" y1="540" x2="553.6" y2="543" stroke="#444"/>
<text x="553.6" y="555" text-anchor="middle" fill="#444">-3</text>
<line x1="581.1" y1="540" x2="581.1" y2="543" stroke="#444"/>
<text x="581.1" y="555" text-anchor="middle" fill="#444">-2</text>
<line x1="636.0" y1="540" x2="636.0" y2="543" stroke="#444"/>
<text x="636.0" y="555" text-anchor="middle" fill="#444">0</text>
<line x1="663.5" y1="540" x2="663.5" y2="543" stroke="#444"/>
<text x="663.5" y="555" text-anchor="middle" fill="#444">1</text>
<line x1="690.9" y1="540" x2="690.9" y2="543" stroke="#444"/>
<text x="690.9" y="555" text-anchor="middle" fill="#444">2</text>
<line x1="718.4" y1="540" x2="718.4" y2="543" stroke="#444"/>
<text x="718.4" y="555" text-anchor="middle" fill="#444">3</text>
<line x1="745.8" y1="540" x2="745.8" y2="543" stroke="#444"/>
<text x="745.8" y="555" text-anchor="middle" fill="#444">4</text>
<line x1="773.3" y1="540" x2="773.3" y2="543" stroke="#444"/>
<text x="773.3" y="555" text-anchor="middle" fill="#444">5</text>
<line x1="482" y1="540.0" x2="485" y2="540.0" stroke="#444"/>
<text x="479" y="543.0" text-anchor="end" fill="#444">-1.5</text>
<line x1="482" y1="500.0" x2="485" y2="500.0" stroke="#444"/>
<text x="479" y="503.0" text-anchor="end" fill="#444">-0.94</text>
<line x1="482" y1="460.0" x2="485" y2="460.0" stroke="#444"/>
<text x="479" y="463.0" text-anchor="end" fill="#444">-0.41</text>
<line x1="482" y1="420.0" x2="485" y2="420.0" stroke="#444"/>
<text x="479" y="423.0" text-anchor="end" fill="#444">0.11</text>
<line x1="482" y1="380.0" x2="485" y2="380.0" stroke="#444"/>
<text x="479" y="383.0" text-anchor="end" fill="#444">0.64</text>
<text x="636.0" y="574" text-anchor="middle" fill="#444">Event time (years from adoption)</text>
<text x="437" y="460.0" text-anchor="middle" fill="#444" transform="rotate(-90 437 460.0)">ATT (per 100k)</text>
<rect x="15" y="620" width="380" height="260" fill="#fafaf7" stroke="#e2e2dc"/>
<text x="205.0" y="638" text-anchor="middle" font-weight="600">Total homicide rate (per 100k)</text>
<line x1="75" y1="731.2700929587849" x2="377" y2="731.2700929587849" stroke="#aaaaaa" stroke-width="0.7"/>
<polygon points="88.7,672.9 88.7,687.3 88.7,706.3 116.2,692.5 116.2,719.8 116.2,670.0 143.6,695.2 143.6,720.2 143.6,721.9 171.1,735.9 171.1,742.8 171.1,729.8 226.0,718.8 226.0,705.4 226.0,752.4 253.5,690.6 253.5,685.2 253.5,689.2 280.9,695.6 280.9,692.3 280.9,737.4 308.4,743.9 308.4,772.0 308.4,769.2 335.8,711.7 335.8,696.9 335.8,696.1 363.3,736.9 363.3,748.9 363.3,754.3 363.3,806.9 363.3,796.3 363.3,797.9 335.8,740.7 335.8,743.5 335.8,755.3 308.4,805.7 308.4,830.0 308.4,801.0 280.9,767.1 280.9,745.4 280.9,757.8 253.5,740.0 253.5,765.5 253.5,764.5 226.0,774.6 226.0,755.8 226.0,766.0 171.1,781.7 171.1,795.5 171.1,757.7 143.6,771.7 143.6,810.5 143.6,790.2 116.2,775.5 116.2,771.7 116.2,793.5 88.7,746.2 88.7,762.7 88.7,755.9" fill="#1f3a5f" opacity="0.18"/>
<polyline points="88.7,714.4 88.7,725.0 88.7,726.3 116.2,743.0 116.2,745.7 116.2,722.8 143.6,742.7 143.6,765.4 143.6,746.8 171.1,746.8 171.1,769.2 171.1,755.7 226.0,742.4 226.0,730.6 226.0,763.5 253.5,727.5 253.5,725.4 253.5,714.6 280.9,726.7 280.9,718.9 280.9,752.3 308.4,772.5 308.4,801.0 308.4,787.4 335.8,733.5 335.8,720.2 335.8,718.4 363.3,767.4 363.3,772.6 363.3,780.6" fill="none" stroke="#1f3a5f" stroke-width="1.6"/>
<circle cx="88.7" cy="714.4" r="2.6" fill="#1f3a5f"/>
<circle cx="88.7" cy="725.0" r="2.6" fill="#1f3a5f"/>
<circle cx="88.7" cy="726.3" r="2.6" fill="#1f3a5f"/>
<circle cx="116.2" cy="743.0" r="2.6" fill="#1f3a5f"/>
<circle cx="116.2" cy="745.7" r="2.6" fill="#1f3a5f"/>
<circle cx="116.2" cy="722.8" r="2.6" fill="#1f3a5f"/>
<circle cx="143.6" cy="742.7" r="2.6" fill="#1f3a5f"/>
<circle cx="143.6" cy="765.4" r="2.6" fill="#1f3a5f"/>
<circle cx="143.6" cy="746.8" r="2.6" fill="#1f3a5f"/>
<circle cx="171.1" cy="746.8" r="2.6" fill="#1f3a5f"/>
<circle cx="171.1" cy="769.2" r="2.6" fill="#1f3a5f"/>
<circle cx="171.1" cy="755.7" r="2.6" fill="#1f3a5f"/>
<circle cx="226.0" cy="742.4" r="2.6" fill="#1f3a5f"/>
<circle cx="226.0" cy="730.6" r="2.6" fill="#1f3a5f"/>
<circle cx="226.0" cy="763.5" r="2.6" fill="#1f3a5f"/>
<circle cx="253.5" cy="727.5" r="2.6" fill="#1f3a5f"/>
<circle cx="253.5" cy="725.4" r="2.6" fill="#1f3a5f"/>
<circle cx="253.5" cy="714.6" r="2.6" fill="#1f3a5f"/>
<circle cx="280.9" cy="726.7" r="2.6" fill="#1f3a5f"/>
<circle cx="280.9" cy="718.9" r="2.6" fill="#1f3a5f"/>
<circle cx="280.9" cy="752.3" r="2.6" fill="#1f3a5f"/>
<circle cx="308.4" cy="772.5" r="2.6" fill="#1f3a5f"/>
<circle cx="308.4" cy="801.0" r="2.6" fill="#1f3a5f"/>
<circle cx="308.4" cy="787.4" r="2.6" fill="#1f3a5f"/>
<circle cx="335.8" cy="733.5" r="2.6" fill="#1f3a5f"/>
<circle cx="335.8" cy="720.2" r="2.6" fill="#1f3a5f"/>
<circle cx="335.8" cy="718.4" r="2.6" fill="#1f3a5f"/>
<circle cx="363.3" cy="767.4" r="2.6" fill="#1f3a5f"/>
<circle cx="363.3" cy="772.6" r="2.6" fill="#1f3a5f"/>
<circle cx="363.3" cy="780.6" r="2.6" fill="#1f3a5f"/>
<line x1="212.3" y1="670" x2="212.3" y2="830" stroke="#b9461a" stroke-dasharray="3 3"/>
<line x1="75" y1="830" x2="377" y2="830" stroke="#444"/>
<line x1="75" y1="670" x2="75" y2="830" stroke="#444"/>
<line x1="88.7" y1="830" x2="88.7" y2="833" stroke="#444"/>
<text x="88.7" y="845" text-anchor="middle" fill="#444">-5</text>
<line x1="116.2" y1="830" x2="116.2" y2="833" stroke="#444"/>
<text x="116.2" y="845" text-anchor="middle" fill="#444">-4</text>
<line x1="143.6" y1="830" x2="143.6" y2="833" stroke="#444"/>
<text x="143.6" y="845" text-anchor="middle" fill="#444">-3</text>
<line x1="171.1" y1="830" x2="171.1" y2="833" stroke="#444"/>
<text x="171.1" y="845" text-anchor="middle" fill="#444">-2</text>
<line x1="226.0" y1="830" x2="226.0" y2="833" stroke="#444"/>
<text x="226.0" y="845" text-anchor="middle" fill="#444">0</text>
<line x1="253.5" y1="830" x2="253.5" y2="833" stroke="#444"/>
<text x="253.5" y="845" text-anchor="middle" fill="#444">1</text>
<line x1="280.9" y1="830" x2="280.9" y2="833" stroke="#444"/>
<text x="280.9" y="845" text-anchor="middle" fill="#444">2</text>
<line x1="308.4" y1="830" x2="308.4" y2="833" stroke="#444"/>
<text x="308.4" y="845" text-anchor="middle" fill="#444">3</text>
<line x1="335.8" y1="830" x2="335.8" y2="833" stroke="#444"/>
<text x="335.8" y="845" text-anchor="middle" fill="#444">4</text>
<line x1="363.3" y1="830" x2="363.3" y2="833" stroke="#444"/>
<text x="363.3" y="845" text-anchor="middle" fill="#444">5</text>
<line x1="72" y1="830.0" x2="75" y2="830.0" stroke="#444"/>
<text x="69" y="833.0" text-anchor="end" fill="#444">-1.6</text>
<line x1="72" y1="790.0" x2="75" y2="790.0" stroke="#444"/>
<text x="69" y="793.0" text-anchor="end" fill="#444">-0.97</text>
<line x1="72" y1="750.0" x2="75" y2="750.0" stroke="#444"/>
<text x="69" y="753.0" text-anchor="end" fill="#444">-0.31</text>
<line x1="72" y1="710.0" x2="75" y2="710.0" stroke="#444"/>
<text x="69" y="713.0" text-anchor="end" fill="#444">0.35</text>
<line x1="72" y1="670.0" x2="75" y2="670.0" stroke="#444"/>
<text x="69" y="673.0" text-anchor="end" fill="#444">1</text>
<text x="226.0" y="864" text-anchor="middle" fill="#444">Event time (years from adoption)</text>
<text x="27" y="750.0" text-anchor="middle" fill="#444" transform="rotate(-90 27 750.0)">ATT (per 100k)</text>
<rect x="425" y="620" width="380" height="260" fill="#fafaf7" stroke="#e2e2dc"/>
<text x="615.0" y="638" text-anchor="middle" font-weight="600">Motor vehicle theft rate (per 100k) [placebo]</text>
<line x1="485" y1="705.5562465280314" x2="787" y2="705.5562465280314" stroke="#aaaaaa" stroke-width="0.7"/>
<polygon points="498.7,728.7 498.7,721.3 498.7,744.0 526.2,726.0 526.2,741.6 526.2,744.3 553.6,729.7 553.6,714.3 553.6,725.3 581.1,712.3 581.1,713.2 581.1,715.1 636.0,707.8 636.0,703.8 636.0,723.8 663.5,700.1 663.5,708.0 663.5,706.4 690.9,697.4 690.9,685.2 690.9,702.7 718.4,691.2 718.4,687.7 718.4,688.8 745.8,680.6 745.8,687.1 745.8,686.0 773.3,681.3 773.3,670.0 773.3,721.6 773.3,830.0 773.3,800.2 773.3,818.8 745.8,744.6 745.8,754.5 745.8,739.7 718.4,733.7 718.4,733.3 718.4,730.6 690.9,714.8 690.9,701.6 690.9,716.4 663.5,721.2 663.5,727.1 663.5,718.0 636.0,728.7 636.0,713.8 636.0,717.6 581.1,733.2 581.1,731.8 581.1,721.6 553.6,745.9 553.6,759.4 553.6,772.0 526.2,822.7 526.2,776.9 526.2,808.6 498.7,778.7 498.7,813.1 498.7,822.6" fill="#1f3a5f" opacity="0.18"/>
<polyline points="498.7,775.6 498.7,767.2 498.7,761.4 526.2,767.3 526.2,759.2 526.2,783.5 553.6,750.9 553.6,736.9 553.6,735.6 581.1,717.0 581.1,722.5 581.1,724.2 636.0,712.7 636.0,708.8 636.0,726.2 663.5,709.0 663.5,717.5 663.5,713.8 690.9,706.9 690.9,693.4 690.9,708.7 718.4,710.9 718.4,710.5 718.4,711.3 745.8,710.2 745.8,720.8 745.8,715.3 773.3,750.1 773.3,735.1 773.3,775.8" fill="none" stroke="#1f3a5f" stroke-width="1.6"/>
<circle cx="498.7" cy="775.6" r="2.6" fill="#1f3a5f"/>
<circle cx="498.7" cy="767.2" r="2.6" fill="#1f3a5f"/>
<circle cx="498.7" cy="761.4" r="2.6" fill="#1f3a5f"/>
<circle cx="526.2" cy="767.3" r="2.6" fill="#1f3a5f"/>
<circle cx="526.2" cy="759.2" r="2.6" fill="#1f3a5f"/>
<circle cx="526.2" cy="783.5" r="2.6" fill="#1f3a5f"/>
<circle cx="553.6" cy="750.9" r="2.6" fill="#1f3a5f"/>
<circle cx="553.6" cy="736.9" r="2.6" fill="#1f3a5f"/>
<circle cx="553.6" cy="735.6" r="2.6" fill="#1f3a5f"/>
<circle cx="581.1" cy="717.0" r="2.6" fill="#1f3a5f"/>
<circle cx="581.1" cy="722.5" r="2.6" fill="#1f3a5f"/>
<circle cx="581.1" cy="724.2" r="2.6" fill="#1f3a5f"/>
<circle cx="636.0" cy="712.7" r="2.6" fill="#1f3a5f"/>
<circle cx="636.0" cy="708.8" r="2.6" fill="#1f3a5f"/>
<circle cx="636.0" cy="726.2" r="2.6" fill="#1f3a5f"/>
<circle cx="663.5" cy="709.0" r="2.6" fill="#1f3a5f"/>
<circle cx="663.5" cy="717.5" r="2.6" fill="#1f3a5f"/>
<circle cx="663.5" cy="713.8" r="2.6" fill="#1f3a5f"/>
<circle cx="690.9" cy="706.9" r="2.6" fill="#1f3a5f"/>
<circle cx="690.9" cy="693.4" r="2.6" fill="#1f3a5f"/>
<circle cx="690.9" cy="708.7" r="2.6" fill="#1f3a5f"/>
<circle cx="718.4" cy="710.9" r="2.6" fill="#1f3a5f"/>
<circle cx="718.4" cy="710.5" r="2.6" fill="#1f3a5f"/>
<circle cx="718.4" cy="711.3" r="2.6" fill="#1f3a5f"/>
<circle cx="745.8" cy="710.2" r="2.6" fill="#1f3a5f"/>
<circle cx="745.8" cy="720.8" r="2.6" fill="#1f3a5f"/>
<circle cx="745.8" cy="715.3" r="2.6" fill="#1f3a5f"/>
<circle cx="773.3" cy="750.1" r="2.6" fill="#1f3a5f"/>
<circle cx="773.3" cy="735.1" r="2.6" fill="#1f3a5f"/>
<circle cx="773.3" cy="775.8" r="2.6" fill="#1f3a5f"/>
<line x1="622.3" y1="670" x2="622.3" y2="830" stroke="#b9461a" stroke-dasharray="3 3"/>
<line x1="485" y1="830" x2="787" y2="830" stroke="#444"/>
<line x1="485" y1="670" x2="485" y2="830" stroke="#444"/>
<line x1="498.7" y1="830" x2="498.7" y2="833" stroke="#444"/>
<text x="498.7" y="845" text-anchor="middle" fill="#444">-5</text>
<line x1="526.2" y1="830" x2="526.2" y2="833" stroke="#444"/>
<text x="526.2" y="845" text-anchor="middle" fill="#444">-4</text>
<line x1="553.6" y1="830" x2="553.6" y2="833" stroke="#444"/>
<text x="553.6" y="845" text-anchor="middle" fill="#444">-3</text>
<line x1="581.1" y1="830" x2="581.1" y2="833" stroke="#444"/>
<text x="581.1" y="845" text-anchor="middle" fill="#444">-2</text>
<line x1="636.0" y1="830" x2="636.0" y2="833" stroke="#444"/>
<text x="636.0" y="845" text-anchor="middle" fill="#444">0</text>
<line x1="663.5" y1="830" x2="663.5" y2="833" stroke="#444"/>
<text x="663.5" y="845" text-anchor="middle" fill="#444">1</text>
<line x1="690.9" y1="830" x2="690.9" y2="833" stroke="#444"/>
<text x="690.9" y="845" text-anchor="middle" fill="#444">2</text>
<line x1="718.4" y1="830" x2="718.4" y2="833" stroke="#444"/>
<text x="718.4" y="845" text-anchor="middle" fill="#444">3</text>
<line x1="745.8" y1="830" x2="745.8" y2="833" stroke="#444"/>
<text x="745.8" y="845" text-anchor="middle" fill="#444">4</text>
<line x1="773.3" y1="830" x2="773.3" y2="833" stroke="#444"/>
<text x="773.3" y="845" text-anchor="middle" fill="#444">5</text>
<line x1="482" y1="830.0" x2="485" y2="830.0" stroke="#444"/>
<text x="479" y="833.0" text-anchor="end" fill="#444">-1.6e+02</text>
<line x1="482" y1="790.0" x2="485" y2="790.0" stroke="#444"/>
<text x="479" y="793.0" text-anchor="end" fill="#444">-1.1e+02</text>
<line x1="482" y1="750.0" x2="485" y2="750.0" stroke="#444"/>
<text x="479" y="753.0" text-anchor="end" fill="#444">-58</text>
<line x1="482" y1="710.0" x2="485" y2="710.0" stroke="#444"/>
<text x="479" y="713.0" text-anchor="end" fill="#444">-5.8</text>
<line x1="482" y1="670.0" x2="485" y2="670.0" stroke="#444"/>
<text x="479" y="673.0" text-anchor="end" fill="#444">47</text>
<text x="636.0" y="864" text-anchor="middle" fill="#444">Event time (years from adoption)</text>
<text x="437" y="750.0" text-anchor="middle" fill="#444" transform="rotate(-90 437 750.0)">ATT (per 100k)</text>
<text x="805" y="608" text-anchor="end" fill="#888" font-size="10">Shaded band: pointwise 95% CI from cluster bootstrap. Vertical dashed line marks the year before adoption.</text>
</svg>