<svg xmlns="http://www.w3.org/2000/svg" viewBox="0 0 820 620" font-family="-apple-system, Segoe UI, Helvetica, Arial, sans-serif" font-size="11">
<text x="410.0" y="22" text-anchor="middle" font-size="14" font-weight="600">Callaway-Sant'Anna ATT by event time (OR) -- age21 handgun</text>
<rect x="15" y="40" width="380" height="260" fill="#fafaf7" stroke="#e2e2dc"/>
<text x="205.0" y="58" text-anchor="middle" font-weight="600">Firearm suicide rate (per 100k)</text>
<line x1="75" y1="164.7612492886532" x2="377" y2="164.7612492886532" stroke="#aaaaaa" stroke-width="0.7"/>
<polygon points="88.7,101.2 116.2,125.7 143.6,102.9 171.1,90.0 226.0,97.6 253.5,135.6 280.9,103.4 308.4,118.9 335.8,127.4 363.3,134.3 363.3,182.7 335.8,250.0 308.4,199.4 280.9,180.5 253.5,189.0 226.0,156.6 171.1,149.2 143.6,208.7 116.2,163.6 88.7,230.2" fill="#1f3a5f" opacity="0.18"/>
<polyline points="88.7,165.7 116.2,144.7 143.6,155.8 171.1,119.6 226.0,127.1 253.5,162.3 280.9,141.9 308.4,159.1 335.8,188.7 363.3,158.5" fill="none" stroke="#1f3a5f" stroke-width="1.6"/>
<circle cx="88.7" cy="165.7" r="2.6" fill="#1f3a5f"/>
<circle cx="116.2" cy="144.7" r="2.6" fill="#1f3a5f"/>
<circle cx="143.6" cy="155.8" r="2.6" fill="#1f3a5f"/>
<circle cx="171.1" cy="119.6" r="2.6" fill="#1f3a5f"/>
<circle cx="226.0" cy="127.1" r="2.6" fill="#1f3a5f"/>
<circle cx="253.5" cy="162.3" r="2.6" fill="#1f3a5f"/>
<circle cx="280.9" cy="141.9" r="2.6" fill="#1f3a5f"/>
<circle cx="308.4" cy="159.1" r="2.6" fill="#1f3a5f"/>
<circle cx="335.8" cy="188.7" r="2.6" fill="#1f3a5f"/>
<circle cx="363.3" cy="158.5" r="2.6" fill="#1f3a5f"/>
<line x1="212.3" y1="90" x2="212.3" y2="250" stroke="#b9461a" stroke-dasharray="3 3"/>
<line x1="75" y1="250" x2="377" y2="250" stroke="#444"/>
<line x1="75" y1="90" x2="75" y2="250" stroke="#444"/>
<line x1="88.7" y1="250" x2="88.7" y2="253" stroke="#444"/>
<text x="88.7" y="265" text-anchor="middle" fill="#444">-5</text>
<line x1="116.2" y1="250" x2="116.2" y2="253" stroke="#444"/>
<text x="116.2" y="265" text-anchor="middle" fill="#444">-4</text>
<line x1="143.6" y1="250" x2="143.6" y2="253" stroke="#444"/>
<text x="143.6" y="265" text-anchor="middle" fill="#444">-3</text>
<line x1="171.1" y1="250" x2="171.1" y2="253" stroke="#444"/>
<text x="171.1" y="265" text-anchor="middle" fill="#444">-2</text>
<line x1="226.0" y1="250" x2="226.0" y2="253" stroke="#444"/>
<text x="226.0" y="265" text-anchor="middle" fill="#444">0</text>
<line x1="253.5" y1="250" x2="253.5" y2="253" stroke="#444"/>
<text x="253.5" y="265" text-anchor="middle" fill="#444">1</text>
<line x1="280.9" y1="250" x2="280.9" y2="253" stroke="#444"/>
<text x="280.9" y="265" text-anchor="middle" fill="#444">2</text>
<line x1="308.4" y1="250" x2="308.4" y2="253" stroke="#444"/>
<text x="308.4" y="265" text-anchor="middle" fill="#444">3</text>
<line x1="335.8" y1="250" x2="335.8" y2="253" stroke="#444"/>
<text x="335.8" y="265" text-anchor="middle" fill="#444">4</text>
<line x1="363.3" y1="250" x2="363.3" y2="253" stroke="#444"/>
<text x="363.3" y="265" text-anchor="middle" fill="#444">5</text>
<line x1="72" y1="250.0" x2="75" y2="250.0" stroke="#444"/>
<text x="69" y="253.0" text-anchor="end" fill="#444">-1.4</text>
<line x1="72" y1="210.0" x2="75" y2="210.0" stroke="#444"/>
<text x="69" y="213.0" text-anchor="end" fill="#444">-0.76</text>
<line x1="72" y1="170.0" x2="75" y2="170.0" stroke="#444"/>
<text x="69" y="173.0" text-anchor="end" fill="#444">-0.088</text>
<line x1="72" y1="130.0" x2="75" y2="130.0" stroke="#444"/>
<text x="69" y="133.0" text-anchor="end" fill="#444">0.58</text>
<line x1="72" y1="90.0" x2="75" y2="90.0" stroke="#444"/>
<text x="69" y="93.0" text-anchor="end" fill="#444">1.3</text>
<text x="226.0" y="284" text-anchor="middle" fill="#444">Event time (years from adoption)</text>
<text x="27" y="170.0" text-anchor="middle" fill="#444" transform="rotate(-90 27 170.0)">ATT (per 100k)</text>
<rect x="425" y="40" width="380" height="260" fill="#fafaf7" stroke="#e2e2dc"/>
<text x="615.0" y="58" text-anchor="middle" font-weight="600">Non-firearm suicide rate (per 100k) [substitution test]</text>
<line x1="485" y1="235.49107839542967" x2="787" y2="235.49107839542967" stroke="#aaaaaa" stroke-width="0.7"/>
<polygon points="498.7,168.1 526.2,114.0 553.6,179.4 581.1,185.5 636.0,165.8 663.5,160.9 690.9,90.0 718.4,144.9 745.8,151.2 773.3,97.0 773.3,201.4 745.8,222.0 718.4,235.3 690.9,200.5 663.5,210.1 636.0,250.0 581.1,209.6 553.6,218.7 526.2,188.8 498.7,213.9" fill="#1f3a5f" opacity="0.18"/>
<polyline points="498.7,191.0 526.2,151.4 553.6,199.0 581.1,197.6 636.0,207.9 663.5,185.5 690.9,145.3 718.4,190.1 745.8,186.6 773.3,149.2" fill="none" stroke="#1f3a5f" stroke-width="1.6"/>
<circle cx="498.7" cy="191.0" r="2.6" fill="#1f3a5f"/>
<circle cx="526.2" cy="151.4" r="2.6" fill="#1f3a5f"/>
<circle cx="553.6" cy="199.0" r="2.6" fill="#1f3a5f"/>
<circle cx="581.1" cy="197.6" r="2.6" fill="#1f3a5f"/>
<circle cx="636.0" cy="207.9" r="2.6" fill="#1f3a5f"/>
<circle cx="663.5" cy="185.5" r="2.6" fill="#1f3a5f"/>
<circle cx="690.9" cy="145.3" r="2.6" fill="#1f3a5f"/>
<circle cx="718.4" cy="190.1" r="2.6" fill="#1f3a5f"/>
<circle cx="745.8" cy="186.6" r="2.6" fill="#1f3a5f"/>
<circle cx="773.3" cy="149.2" r="2.6" fill="#1f3a5f"/>
<line x1="622.3" y1="90" x2="622.3" y2="250" stroke="#b9461a" stroke-dasharray="3 3"/>
<line x1="485" y1="250" x2="787" y2="250" stroke="#444"/>
<line x1="485" y1="90" x2="485" y2="250" stroke="#444"/>
<line x1="498.7" y1="250" x2="498.7" y2="253" stroke="#444"/>
<text x="498.7" y="265" text-anchor="middle" fill="#444">-5</text>
<line x1="526.2" y1="250" x2="526.2" y2="253" stroke="#444"/>
<text x="526.2" y="265" text-anchor="middle" fill="#444">-4</text>
<line x1="553.6" y1="250" x2="553.6" y2="253" stroke="#444"/>
<text x="553.6" y="265" text-anchor="middle" fill="#444">-3</text>
<line x1="581.1" y1="250" x2="581.1" y2="253" stroke="#444"/>
<text x="581.1" y="265" text-anchor="middle" fill="#444">-2</text>
<line x1="636.0" y1="250" x2="636.0" y2="253" stroke="#444"/>
<text x="636.0" y="265" text-anchor="middle" fill="#444">0</text>
<line x1="663.5" y1="250" x2="663.5" y2="253" stroke="#444"/>
<text x="663.5" y="265" text-anchor="middle" fill="#444">1</text>
<line x1="690.9" y1="250" x2="690.9" y2="253" stroke="#444"/>
<text x="690.9" y="265" text-anchor="middle" fill="#444">2</text>
<line x1="718.4" y1="250" x2="718.4" y2="253" stroke="#444"/>
<text x="718.4" y="265" text-anchor="middle" fill="#444">3</text>
<line x1="745.8" y1="250" x2="745.8" y2="253" stroke="#444"/>
<text x="745.8" y="265" text-anchor="middle" fill="#444">4</text>
<line x1="773.3" y1="250" x2="773.3" y2="253" stroke="#444"/>
<text x="773.3" y="265" text-anchor="middle" fill="#444">5</text>
<line x1="482" y1="250.0" x2="485" y2="250.0" stroke="#444"/>
<text x="479" y="253.0" text-anchor="end" fill="#444">-0.29</text>
<line x1="482" y1="210.0" x2="485" y2="210.0" stroke="#444"/>
<text x="479" y="213.0" text-anchor="end" fill="#444">0.51</text>
<line x1="482" y1="170.0" x2="485" y2="170.0" stroke="#444"/>
<text x="479" y="173.0" text-anchor="end" fill="#444">1.3</text>
<line x1="482" y1="130.0" x2="485" y2="130.0" stroke="#444"/>
<text x="479" y="133.0" text-anchor="end" fill="#444">2.1</text>
<line x1="482" y1="90.0" x2="485" y2="90.0" stroke="#444"/>
<text x="479" y="93.0" text-anchor="end" fill="#444">2.9</text>
<text x="636.0" y="284" text-anchor="middle" fill="#444">Event time (years from adoption)</text>
<text x="437" y="170.0" text-anchor="middle" fill="#444" transform="rotate(-90 437 170.0)">ATT (per 100k)</text>
<rect x="15" y="330" width="380" height="260" fill="#fafaf7" stroke="#e2e2dc"/>
<text x="205.0" y="348" text-anchor="middle" font-weight="600">Total suicide rate (per 100k) [net effect]</text>
<line x1="75" y1="506.48607890667137" x2="377" y2="506.48607890667137" stroke="#aaaaaa" stroke-width="0.7"/>
<polygon points="88.7,455.0 116.2,421.3 143.6,444.8 171.1,435.4 226.0,452.6 253.5,459.6 280.9,380.0 308.4,432.3 335.8,435.4 363.3,419.9 363.3,473.1 335.8,540.0 308.4,515.0 280.9,489.5 253.5,485.1 226.0,482.5 171.1,477.8 143.6,510.5 116.2,459.3 88.7,500.7" fill="#1f3a5f" opacity="0.18"/>
<polyline points="88.7,477.9 116.2,440.3 143.6,477.7 171.1,456.6 226.0,467.5 253.5,472.4 280.9,434.8 308.4,473.6 335.8,487.7 363.3,446.5" fill="none" stroke="#1f3a5f" stroke-width="1.6"/>
<circle cx="88.7" cy="477.9" r="2.6" fill="#1f3a5f"/>
<circle cx="116.2" cy="440.3" r="2.6" fill="#1f3a5f"/>
<circle cx="143.6" cy="477.7" r="2.6" fill="#1f3a5f"/>
<circle cx="171.1" cy="456.6" r="2.6" fill="#1f3a5f"/>
<circle cx="226.0" cy="467.5" r="2.6" fill="#1f3a5f"/>
<circle cx="253.5" cy="472.4" r="2.6" fill="#1f3a5f"/>
<circle cx="280.9" cy="434.8" r="2.6" fill="#1f3a5f"/>
<circle cx="308.4" cy="473.6" r="2.6" fill="#1f3a5f"/>
<circle cx="335.8" cy="487.7" r="2.6" fill="#1f3a5f"/>
<circle cx="363.3" cy="446.5" r="2.6" fill="#1f3a5f"/>
<line x1="212.3" y1="380" x2="212.3" y2="540" stroke="#b9461a" stroke-dasharray="3 3"/>
<line x1="75" y1="540" x2="377" y2="540" stroke="#444"/>
<line x1="75" y1="380" x2="75" y2="540" stroke="#444"/>
<line x1="88.7" y1="540" x2="88.7" y2="543" stroke="#444"/>
<text x="88.7" y="555" text-anchor="middle" fill="#444">-5</text>
<line x1="116.2" y1="540" x2="116.2" y2="543" stroke="#444"/>
<text x="116.2" y="555" text-anchor="middle" fill="#444">-4</text>
<line x1="143.6" y1="540" x2="143.6" y2="543" stroke="#444"/>
<text x="143.6" y="555" text-anchor="middle" fill="#444">-3</text>
<line x1="171.1" y1="540" x2="171.1" y2="543" stroke="#444"/>
<text x="171.1" y="555" text-anchor="middle" fill="#444">-2</text>
<line x1="226.0" y1="540" x2="226.0" y2="543" stroke="#444"/>
<text x="226.0" y="555" text-anchor="middle" fill="#444">0</text>
<line x1="253.5" y1="540" x2="253.5" y2="543" stroke="#444"/>
<text x="253.5" y="555" text-anchor="middle" fill="#444">1</text>
<line x1="280.9" y1="540" x2="280.9" y2="543" stroke="#444"/>
<text x="280.9" y="555" text-anchor="middle" fill="#444">2</text>
<line x1="308.4" y1="540" x2="308.4" y2="543" stroke="#444"/>
<text x="308.4" y="555" text-anchor="middle" fill="#444">3</text>
<line x1="335.8" y1="540" x2="335.8" y2="543" stroke="#444"/>
<text x="335.8" y="555" text-anchor="middle" fill="#444">4</text>
<line x1="363.3" y1="540" x2="363.3" y2="543" stroke="#444"/>
<text x="363.3" y="555" text-anchor="middle" fill="#444">5</text>
<line x1="72" y1="540.0" x2="75" y2="540.0" stroke="#444"/>
<text x="69" y="543.0" text-anchor="end" fill="#444">-1</text>
<line x1="72" y1="500.0" x2="75" y2="500.0" stroke="#444"/>
<text x="69" y="503.0" text-anchor="end" fill="#444">0.2</text>
<line x1="72" y1="460.0" x2="75" y2="460.0" stroke="#444"/>
<text x="69" y="463.0" text-anchor="end" fill="#444">1.4</text>
<line x1="72" y1="420.0" x2="75" y2="420.0" stroke="#444"/>
<text x="69" y="423.0" text-anchor="end" fill="#444">2.6</text>
<line x1="72" y1="380.0" x2="75" y2="380.0" stroke="#444"/>
<text x="69" y="383.0" text-anchor="end" fill="#444">3.8</text>
<text x="226.0" y="574" text-anchor="middle" fill="#444">Event time (years from adoption)</text>
<text x="27" y="460.0" text-anchor="middle" fill="#444" transform="rotate(-90 27 460.0)">ATT (per 100k)</text>
<rect x="425" y="330" width="380" height="260" fill="#fafaf7" stroke="#e2e2dc"/>
<text x="615.0" y="348" text-anchor="middle" font-weight="600">Firearm homicide rate (per 100k)</text>
<line x1="485" y1="428.21361212483737" x2="787" y2="428.21361212483737" stroke="#aaaaaa" stroke-width="0.7"/>
<polygon points="498.7,380.0 526.2,393.0 553.6,427.1 581.1,461.9 636.0,430.5 663.5,424.0 690.9,447.2 718.4,467.3 745.8,435.4 773.3,439.3 773.3,534.6 745.8,482.0 718.4,503.0 690.9,540.0 663.5,460.9 636.0,459.0 581.1,486.2 553.6,468.7 526.2,444.6 498.7,412.0" fill="#1f3a5f" opacity="0.18"/>
<polyline points="498.7,396.0 526.2,418.8 553.6,447.9 581.1,474.0 636.0,444.8 663.5,442.5 690.9,493.6 718.4,485.2 745.8,458.7 773.3,487.0" fill="none" stroke="#1f3a5f" stroke-width="1.6"/>
<circle cx="498.7" cy="396.0" r="2.6" fill="#1f3a5f"/>
<circle cx="526.2" cy="418.8" r="2.6" fill="#1f3a5f"/>
<circle cx="553.6" cy="447.9" r="2.6" fill="#1f3a5f"/>
<circle cx="581.1" cy="474.0" r="2.6" fill="#1f3a5f"/>
<circle cx="636.0" cy="444.8" r="2.6" fill="#1f3a5f"/>
<circle cx="663.5" cy="442.5" r="2.6" fill="#1f3a5f"/>
<circle cx="690.9" cy="493.6" r="2.6" fill="#1f3a5f"/>
<circle cx="718.4" cy="485.2" r="2.6" fill="#1f3a5f"/>
<circle cx="745.8" cy="458.7" r="2.6" fill="#1f3a5f"/>
<circle cx="773.3" cy="487.0" r="2.6" fill="#1f3a5f"/>
<line x1="622.3" y1="380" x2="622.3" y2="540" stroke="#b9461a" stroke-dasharray="3 3"/>
<line x1="485" y1="540" x2="787" y2="540" stroke="#444"/>
<line x1="485" y1="380" x2="485" y2="540" stroke="#444"/>
<line x1="498.7" y1="540" x2="498.7" y2="543" stroke="#444"/>
<text x="498.7" y="555" text-anchor="middle" fill="#444">-5</text>
<line x1="526.2" y1="540" x2="526.2" y2="543" stroke="#444"/>
<text x="526.2" y="555" text-anchor="middle" fill="#444">-4</text>
<line x1="553.6" y1="540" x2="553.6" y2="543" stroke="#444"/>
<text x="553.6" y="555" text-anchor="middle" fill="#444">-3</text>
<line x1="581.1" y1="540" x2="581.1" y2="543" stroke="#444"/>
<text x="581.1" y="555" text-anchor="middle" fill="#444">-2</text>
<line x1="636.0" y1="540" x2="636.0" y2="543" stroke="#444"/>
<text x="636.0" y="555" text-anchor="middle" fill="#444">0</text>
<line x1="663.5" y1="540" x2="663.5" y2="543" stroke="#444"/>
<text x="663.5" y="555" text-anchor="middle" fill="#444">1</text>
<line x1="690.9" y1="540" x2="690.9" y2="543" stroke="#444"/>
<text x="690.9" y="555" text-anchor="middle" fill="#444">2</text>
<line x1="718.4" y1="540" x2="718.4" y2="543" stroke="#444"/>
<text x="718.4" y="555" text-anchor="middle" fill="#444">3</text>
<line x1="745.8" y1="540" x2="745.8" y2="543" stroke="#444"/>
<text x="745.8" y="555" text-anchor="middle" fill="#444">4</text>
<line x1="773.3" y1="540" x2="773.3" y2="543" stroke="#444"/>
<text x="773.3" y="555" text-anchor="middle" fill="#444">5</text>
<line x1="482" y1="540.0" x2="485" y2="540.0" stroke="#444"/>
<text x="479" y="543.0" text-anchor="end" fill="#444">-1.2</text>
<line x1="482" y1="500.0" x2="485" y2="500.0" stroke="#444"/>
<text x="479" y="503.0" text-anchor="end" fill="#444">-0.8</text>
<line x1="482" y1="460.0" x2="485" y2="460.0" stroke="#444"/>
<text x="479" y="463.0" text-anchor="end" fill="#444">-0.35</text>
<line x1="482" y1="420.0" x2="485" y2="420.0" stroke="#444"/>
<text x="479" y="423.0" text-anchor="end" fill="#444">0.091</text>
<line x1="482" y1="380.0" x2="485" y2="380.0" stroke="#444"/>
<text x="479" y="383.0" text-anchor="end" fill="#444">0.54</text>
<text x="636.0" y="574" text-anchor="middle" fill="#444">Event time (years from adoption)</text>
<text x="437" y="460.0" text-anchor="middle" fill="#444" transform="rotate(-90 437 460.0)">ATT (per 100k)</text>
<rect x="15" y="620" width="380" height="260" fill="#fafaf7" stroke="#e2e2dc"/>
<text x="205.0" y="638" text-anchor="middle" font-weight="600">Total homicide rate (per 100k)</text>
<line x1="75" y1="711.1555553865975" x2="377" y2="711.1555553865975" stroke="#aaaaaa" stroke-width="0.7"/>
<polygon points="88.7,679.9 116.2,695.3 143.6,684.5 171.1,709.9 226.0,714.8 253.5,670.0 280.9,708.0 308.4,726.4 335.8,686.4 363.3,711.4 363.3,773.6 335.8,739.1 308.4,830.0 280.9,793.1 253.5,741.8 226.0,767.6 171.1,760.6 143.6,797.1 116.2,746.8 88.7,733.2" fill="#1f3a5f" opacity="0.18"/>
<polyline points="88.7,706.6 116.2,721.0 143.6,740.8 171.1,735.2 226.0,741.2 253.5,705.9 280.9,750.5 308.4,778.2 335.8,712.8 363.3,742.5" fill="none" stroke="#1f3a5f" stroke-width="1.6"/>
<circle cx="88.7" cy="706.6" r="2.6" fill="#1f3a5f"/>
<circle cx="116.2" cy="721.0" r="2.6" fill="#1f3a5f"/>
<circle cx="143.6" cy="740.8" r="2.6" fill="#1f3a5f"/>
<circle cx="171.1" cy="735.2" r="2.6" fill="#1f3a5f"/>
<circle cx="226.0" cy="741.2" r="2.6" fill="#1f3a5f"/>
<circle cx="253.5" cy="705.9" r="2.6" fill="#1f3a5f"/>
<circle cx="280.9" cy="750.5" r="2.6" fill="#1f3a5f"/>
<circle cx="308.4" cy="778.2" r="2.6" fill="#1f3a5f"/>
<circle cx="335.8" cy="712.8" r="2.6" fill="#1f3a5f"/>
<circle cx="363.3" cy="742.5" r="2.6" fill="#1f3a5f"/>
<line x1="212.3" y1="670" x2="212.3" y2="830" stroke="#b9461a" stroke-dasharray="3 3"/>
<line x1="75" y1="830" x2="377" y2="830" stroke="#444"/>
<line x1="75" y1="670" x2="75" y2="830" stroke="#444"/>
<line x1="88.7" y1="830" x2="88.7" y2="833" stroke="#444"/>
<text x="88.7" y="845" text-anchor="middle" fill="#444">-5</text>
<line x1="116.2" y1="830" x2="116.2" y2="833" stroke="#444"/>
<text x="116.2" y="845" text-anchor="middle" fill="#444">-4</text>
<line x1="143.6" y1="830" x2="143.6" y2="833" stroke="#444"/>
<text x="143.6" y="845" text-anchor="middle" fill="#444">-3</text>
<line x1="171.1" y1="830" x2="171.1" y2="833" stroke="#444"/>
<text x="171.1" y="845" text-anchor="middle" fill="#444">-2</text>
<line x1="226.0" y1="830" x2="226.0" y2="833" stroke="#444"/>
<text x="226.0" y="845" text-anchor="middle" fill="#444">0</text>
<line x1="253.5" y1="830" x2="253.5" y2="833" stroke="#444"/>
<text x="253.5" y="845" text-anchor="middle" fill="#444">1</text>
<line x1="280.9" y1="830" x2="280.9" y2="833" stroke="#444"/>
<text x="280.9" y="845" text-anchor="middle" fill="#444">2</text>
<line x1="308.4" y1="830" x2="308.4" y2="833" stroke="#444"/>
<text x="308.4" y="845" text-anchor="middle" fill="#444">3</text>
<line x1="335.8" y1="830" x2="335.8" y2="833" stroke="#444"/>
<text x="335.8" y="845" text-anchor="middle" fill="#444">4</text>
<line x1="363.3" y1="830" x2="363.3" y2="833" stroke="#444"/>
<text x="363.3" y="845" text-anchor="middle" fill="#444">5</text>
<line x1="72" y1="830.0" x2="75" y2="830.0" stroke="#444"/>
<text x="69" y="833.0" text-anchor="end" fill="#444">-1.6</text>
<line x1="72" y1="790.0" x2="75" y2="790.0" stroke="#444"/>
<text x="69" y="793.0" text-anchor="end" fill="#444">-1.1</text>
<line x1="72" y1="750.0" x2="75" y2="750.0" stroke="#444"/>
<text x="69" y="753.0" text-anchor="end" fill="#444">-0.52</text>
<line x1="72" y1="710.0" x2="75" y2="710.0" stroke="#444"/>
<text x="69" y="713.0" text-anchor="end" fill="#444">0.016</text>
<line x1="72" y1="670.0" x2="75" y2="670.0" stroke="#444"/>
<text x="69" y="673.0" text-anchor="end" fill="#444">0.56</text>
<text x="226.0" y="864" text-anchor="middle" fill="#444">Event time (years from adoption)</text>
<text x="27" y="750.0" text-anchor="middle" fill="#444" transform="rotate(-90 27 750.0)">ATT (per 100k)</text>
<rect x="425" y="620" width="380" height="260" fill="#fafaf7" stroke="#e2e2dc"/>
<text x="615.0" y="638" text-anchor="middle" font-weight="600">Motor vehicle theft rate (per 100k) [placebo]</text>
<line x1="485" y1="743.6353315373741" x2="787" y2="743.6353315373741" stroke="#aaaaaa" stroke-width="0.7"/>
<polygon points="498.7,780.4 526.2,788.2 553.6,767.5 581.1,751.0 636.0,768.0 663.5,737.2 690.9,722.3 718.4,679.7 745.8,670.0 773.3,726.0 773.3,815.5 745.8,744.9 718.4,757.8 690.9,750.4 663.5,762.2 636.0,779.5 581.1,767.5 553.6,793.4 526.2,830.0 498.7,825.3" fill="#1f3a5f" opacity="0.18"/>
<polyline points="498.7,802.9 526.2,809.1 553.6,780.4 581.1,759.2 636.0,773.8 663.5,749.7 690.9,736.4 718.4,718.8 745.8,707.5 773.3,770.8" fill="none" stroke="#1f3a5f" stroke-width="1.6"/>
<circle cx="498.7" cy="802.9" r="2.6" fill="#1f3a5f"/>
<circle cx="526.2" cy="809.1" r="2.6" fill="#1f3a5f"/>
<circle cx="553.6" cy="780.4" r="2.6" fill="#1f3a5f"/>
<circle cx="581.1" cy="759.2" r="2.6" fill="#1f3a5f"/>
<circle cx="636.0" cy="773.8" r="2.6" fill="#1f3a5f"/>
<circle cx="663.5" cy="749.7" r="2.6" fill="#1f3a5f"/>
<circle cx="690.9" cy="736.4" r="2.6" fill="#1f3a5f"/>
<circle cx="718.4" cy="718.8" r="2.6" fill="#1f3a5f"/>
<circle cx="745.8" cy="707.5" r="2.6" fill="#1f3a5f"/>
<circle cx="773.3" cy="770.8" r="2.6" fill="#1f3a5f"/>
<line x1="622.3" y1="670" x2="622.3" y2="830" stroke="#b9461a" stroke-dasharray="3 3"/>
<line x1="485" y1="830" x2="787" y2="830" stroke="#444"/>
<line x1="485" y1="670" x2="485" y2="830" stroke="#444"/>
<line x1="498.7" y1="830" x2="498.7" y2="833" stroke="#444"/>
<text x="498.7" y="845" text-anchor="middle" fill="#444">-5</text>
<line x1="526.2" y1="830" x2="526.2" y2="833" stroke="#444"/>
<text x="526.2" y="845" text-anchor="middle" fill="#444">-4</text>
<line x1="553.6" y1="830" x2="553.6" y2="833" stroke="#444"/>
<text x="553.6" y="845" text-anchor="middle" fill="#444">-3</text>
<line x1="581.1" y1="830" x2="581.1" y2="833" stroke="#444"/>
<text x="581.1" y="845" text-anchor="middle" fill="#444">-2</text>
<line x1="636.0" y1="830" x2="636.0" y2="833" stroke="#444"/>
<text x="636.0" y="845" text-anchor="middle" fill="#444">0</text>
<line x1="663.5" y1="830" x2="663.5" y2="833" stroke="#444"/>
<text x="663.5" y="845" text-anchor="middle" fill="#444">1</text>
<line x1="690.9" y1="830" x2="690.9" y2="833" stroke="#444"/>
<text x="690.9" y="845" text-anchor="middle" fill="#444">2</text>
<line x1="718.4" y1="830" x2="718.4" y2="833" stroke="#444"/>
<text x="718.4" y="845" text-anchor="middle" fill="#444">3</text>
<line x1="745.8" y1="830" x2="745.8" y2="833" stroke="#444"/>
<text x="745.8" y="845" text-anchor="middle" fill="#444">4</text>
<line x1="773.3" y1="830" x2="773.3" y2="833" stroke="#444"/>
<text x="773.3" y="845" text-anchor="middle" fill="#444">5</text>
<line x1="482" y1="830.0" x2="485" y2="830.0" stroke="#444"/>
<text x="479" y="833.0" text-anchor="end" fill="#444">-92</text>
<line x1="482" y1="790.0" x2="485" y2="790.0" stroke="#444"/>
<text x="479" y="793.0" text-anchor="end" fill="#444">-50</text>
<line x1="482" y1="750.0" x2="485" y2="750.0" stroke="#444"/>
<text x="479" y="753.0" text-anchor="end" fill="#444">-6.8</text>
<line x1="482" y1="710.0" x2="485" y2="710.0" stroke="#444"/>
<text x="479" y="713.0" text-anchor="end" fill="#444">36</text>
<line x1="482" y1="670.0" x2="485" y2="670.0" stroke="#444"/>
<text x="479" y="673.0" text-anchor="end" fill="#444">79</text>
<text x="636.0" y="864" text-anchor="middle" fill="#444">Event time (years from adoption)</text>
<text x="437" y="750.0" text-anchor="middle" fill="#444" transform="rotate(-90 437 750.0)">ATT (per 100k)</text>
<text x="805" y="608" text-anchor="end" fill="#888" font-size="10">Shaded band: pointwise 95% CI from cluster bootstrap. Vertical dashed line marks the year before adoption.</text>
</svg>