<svg xmlns="http://www.w3.org/2000/svg" viewBox="0 0 820 910" font-family="-apple-system, Segoe UI, Helvetica, Arial, sans-serif" font-size="11">
<text x="410.0" y="22" text-anchor="middle" font-size="14" font-weight="600">Callaway-Sant'Anna ATT by event time (OR) -- age21 handgun</text>
<rect x="15" y="40" width="380" height="260" fill="#fafaf7" stroke="#e2e2dc"/>
<text x="205.0" y="58" text-anchor="middle" font-weight="600">Firearm suicide rate (per 100k)</text>
<line x1="75" y1="164.3187661107005" x2="377" y2="164.3187661107005" stroke="#aaaaaa" stroke-width="0.7"/>
<line x1="212.3" y1="90" x2="212.3" y2="250" stroke="#b9461a" stroke-dasharray="3 3"/>
<line x1="88.7" y1="239.8" x2="88.7" y2="105.4" stroke="#1f3a5f" stroke-width="1.4" opacity="0.35"/>
<line x1="84.7" y1="239.8" x2="92.7" y2="239.8" stroke="#1f3a5f" stroke-width="1.2" opacity="0.35"/>
<line x1="84.7" y1="105.4" x2="92.7" y2="105.4" stroke="#1f3a5f" stroke-width="1.2" opacity="0.35"/>
<circle cx="88.7" cy="172.6" r="3.2" fill="white" stroke="#1f3a5f" stroke-width="1.3" opacity="0.35"/>
<line x1="116.2" y1="171.0" x2="116.2" y2="133.3" stroke="#1f3a5f" stroke-width="1.4" opacity="0.35"/>
<line x1="112.2" y1="171.0" x2="120.2" y2="171.0" stroke="#1f3a5f" stroke-width="1.2" opacity="0.35"/>
<line x1="112.2" y1="133.3" x2="120.2" y2="133.3" stroke="#1f3a5f" stroke-width="1.2" opacity="0.35"/>
<circle cx="116.2" cy="152.2" r="3.2" fill="white" stroke="#1f3a5f" stroke-width="1.3" opacity="0.35"/>
<line x1="143.6" y1="216.6" x2="143.6" y2="105.2" stroke="#1f3a5f" stroke-width="1.4" opacity="0.35"/>
<line x1="139.6" y1="216.6" x2="147.6" y2="216.6" stroke="#1f3a5f" stroke-width="1.2" opacity="0.35"/>
<line x1="139.6" y1="105.2" x2="147.6" y2="105.2" stroke="#1f3a5f" stroke-width="1.2" opacity="0.35"/>
<circle cx="143.6" cy="160.9" r="3.2" fill="white" stroke="#1f3a5f" stroke-width="1.3" opacity="0.35"/>
<line x1="171.1" y1="148.8" x2="171.1" y2="90.0" stroke="#1f3a5f" stroke-width="1.4" opacity="1.00"/>
<line x1="167.1" y1="148.8" x2="175.1" y2="148.8" stroke="#1f3a5f" stroke-width="1.2" opacity="1.00"/>
<line x1="167.1" y1="90.0" x2="175.1" y2="90.0" stroke="#1f3a5f" stroke-width="1.2" opacity="1.00"/>
<circle cx="171.1" cy="119.4" r="3.2" fill="#1f3a5f"/>
<line x1="226.0" y1="157.0" x2="226.0" y2="96.7" stroke="#1f3a5f" stroke-width="1.4" opacity="1.00"/>
<line x1="222.0" y1="157.0" x2="230.0" y2="157.0" stroke="#1f3a5f" stroke-width="1.2" opacity="1.00"/>
<line x1="222.0" y1="96.7" x2="230.0" y2="96.7" stroke="#1f3a5f" stroke-width="1.2" opacity="1.00"/>
<circle cx="226.0" cy="126.9" r="3.2" fill="#1f3a5f"/>
<line x1="253.5" y1="191.3" x2="253.5" y2="136.9" stroke="#1f3a5f" stroke-width="1.4" opacity="0.35"/>
<line x1="249.5" y1="191.3" x2="257.5" y2="191.3" stroke="#1f3a5f" stroke-width="1.2" opacity="0.35"/>
<line x1="249.5" y1="136.9" x2="257.5" y2="136.9" stroke="#1f3a5f" stroke-width="1.2" opacity="0.35"/>
<circle cx="253.5" cy="164.1" r="3.2" fill="white" stroke="#1f3a5f" stroke-width="1.3" opacity="0.35"/>
<line x1="280.9" y1="178.4" x2="280.9" y2="99.0" stroke="#1f3a5f" stroke-width="1.4" opacity="0.35"/>
<line x1="276.9" y1="178.4" x2="284.9" y2="178.4" stroke="#1f3a5f" stroke-width="1.2" opacity="0.35"/>
<line x1="276.9" y1="99.0" x2="284.9" y2="99.0" stroke="#1f3a5f" stroke-width="1.2" opacity="0.35"/>
<circle cx="280.9" cy="138.7" r="3.2" fill="white" stroke="#1f3a5f" stroke-width="1.3" opacity="0.35"/>
<line x1="308.4" y1="195.5" x2="308.4" y2="113.0" stroke="#1f3a5f" stroke-width="1.4" opacity="0.35"/>
<line x1="304.4" y1="195.5" x2="312.4" y2="195.5" stroke="#1f3a5f" stroke-width="1.2" opacity="0.35"/>
<line x1="304.4" y1="113.0" x2="312.4" y2="113.0" stroke="#1f3a5f" stroke-width="1.2" opacity="0.35"/>
<circle cx="308.4" cy="154.3" r="3.2" fill="white" stroke="#1f3a5f" stroke-width="1.3" opacity="0.35"/>
<line x1="335.8" y1="250.0" x2="335.8" y2="123.0" stroke="#1f3a5f" stroke-width="1.4" opacity="0.35"/>
<line x1="331.8" y1="250.0" x2="339.8" y2="250.0" stroke="#1f3a5f" stroke-width="1.2" opacity="0.35"/>
<line x1="331.8" y1="123.0" x2="339.8" y2="123.0" stroke="#1f3a5f" stroke-width="1.2" opacity="0.35"/>
<circle cx="335.8" cy="186.5" r="3.2" fill="white" stroke="#1f3a5f" stroke-width="1.3" opacity="0.35"/>
<line x1="363.3" y1="176.1" x2="363.3" y2="130.1" stroke="#1f3a5f" stroke-width="1.4" opacity="0.35"/>
<line x1="359.3" y1="176.1" x2="367.3" y2="176.1" stroke="#1f3a5f" stroke-width="1.2" opacity="0.35"/>
<line x1="359.3" y1="130.1" x2="367.3" y2="130.1" stroke="#1f3a5f" stroke-width="1.2" opacity="0.35"/>
<circle cx="363.3" cy="153.1" r="3.2" fill="white" stroke="#1f3a5f" stroke-width="1.3" opacity="0.35"/>
<line x1="75" y1="250" x2="377" y2="250" stroke="#444"/>
<line x1="75" y1="90" x2="75" y2="250" stroke="#444"/>
<line x1="88.7" y1="250" x2="88.7" y2="253" stroke="#444"/>
<text x="88.7" y="265" text-anchor="middle" fill="#444">-5</text>
<line x1="116.2" y1="250" x2="116.2" y2="253" stroke="#444"/>
<text x="116.2" y="265" text-anchor="middle" fill="#444">-4</text>
<line x1="143.6" y1="250" x2="143.6" y2="253" stroke="#444"/>
<text x="143.6" y="265" text-anchor="middle" fill="#444">-3</text>
<line x1="171.1" y1="250" x2="171.1" y2="253" stroke="#444"/>
<text x="171.1" y="265" text-anchor="middle" fill="#444">-2</text>
<line x1="226.0" y1="250" x2="226.0" y2="253" stroke="#444"/>
<text x="226.0" y="265" text-anchor="middle" fill="#444">0</text>
<line x1="253.5" y1="250" x2="253.5" y2="253" stroke="#444"/>
<text x="253.5" y="265" text-anchor="middle" fill="#444">1</text>
<line x1="280.9" y1="250" x2="280.9" y2="253" stroke="#444"/>
<text x="280.9" y="265" text-anchor="middle" fill="#444">2</text>
<line x1="308.4" y1="250" x2="308.4" y2="253" stroke="#444"/>
<text x="308.4" y="265" text-anchor="middle" fill="#444">3</text>
<line x1="335.8" y1="250" x2="335.8" y2="253" stroke="#444"/>
<text x="335.8" y="265" text-anchor="middle" fill="#444">4</text>
<line x1="363.3" y1="250" x2="363.3" y2="253" stroke="#444"/>
<text x="363.3" y="265" text-anchor="middle" fill="#444">5</text>
<line x1="72" y1="250.0" x2="75" y2="250.0" stroke="#444"/>
<text x="69" y="253.0" text-anchor="end" fill="#444">-1.4</text>
<line x1="72" y1="210.0" x2="75" y2="210.0" stroke="#444"/>
<text x="69" y="213.0" text-anchor="end" fill="#444">-0.74</text>
<line x1="72" y1="170.0" x2="75" y2="170.0" stroke="#444"/>
<text x="69" y="173.0" text-anchor="end" fill="#444">-0.092</text>
<line x1="72" y1="130.0" x2="75" y2="130.0" stroke="#444"/>
<text x="69" y="133.0" text-anchor="end" fill="#444">0.55</text>
<line x1="72" y1="90.0" x2="75" y2="90.0" stroke="#444"/>
<text x="69" y="93.0" text-anchor="end" fill="#444">1.2</text>
<text x="226.0" y="284" text-anchor="middle" fill="#444">Event time (years from adoption)</text>
<text x="27" y="170.0" text-anchor="middle" fill="#444" transform="rotate(-90 27 170.0)">ATT (per 100k)</text>
<rect x="425" y="40" width="380" height="260" fill="#fafaf7" stroke="#e2e2dc"/>
<text x="615.0" y="58" text-anchor="middle" font-weight="600">Non-firearm suicide rate (per 100k) [substitution test]</text>
<line x1="485" y1="235.33096728081054" x2="787" y2="235.33096728081054" stroke="#aaaaaa" stroke-width="0.7"/>
<line x1="622.3" y1="90" x2="622.3" y2="250" stroke="#b9461a" stroke-dasharray="3 3"/>
<line x1="498.7" y1="211.6" x2="498.7" y2="166.4" stroke="#1f3a5f" stroke-width="1.4" opacity="1.00"/>
<line x1="494.7" y1="211.6" x2="502.7" y2="211.6" stroke="#1f3a5f" stroke-width="1.2" opacity="1.00"/>
<line x1="494.7" y1="166.4" x2="502.7" y2="166.4" stroke="#1f3a5f" stroke-width="1.2" opacity="1.00"/>
<circle cx="498.7" cy="189.0" r="3.2" fill="#1f3a5f"/>
<line x1="526.2" y1="187.9" x2="526.2" y2="113.2" stroke="#1f3a5f" stroke-width="1.4" opacity="1.00"/>
<line x1="522.2" y1="187.9" x2="530.2" y2="187.9" stroke="#1f3a5f" stroke-width="1.2" opacity="1.00"/>
<line x1="522.2" y1="113.2" x2="530.2" y2="113.2" stroke="#1f3a5f" stroke-width="1.2" opacity="1.00"/>
<circle cx="526.2" cy="150.5" r="3.2" fill="#1f3a5f"/>
<line x1="553.6" y1="213.7" x2="553.6" y2="176.0" stroke="#1f3a5f" stroke-width="1.4" opacity="1.00"/>
<line x1="549.6" y1="213.7" x2="557.6" y2="213.7" stroke="#1f3a5f" stroke-width="1.2" opacity="1.00"/>
<line x1="549.6" y1="176.0" x2="557.6" y2="176.0" stroke="#1f3a5f" stroke-width="1.2" opacity="1.00"/>
<circle cx="553.6" cy="194.9" r="3.2" fill="#1f3a5f"/>
<line x1="581.1" y1="207.5" x2="581.1" y2="184.0" stroke="#1f3a5f" stroke-width="1.4" opacity="1.00"/>
<line x1="577.1" y1="207.5" x2="585.1" y2="207.5" stroke="#1f3a5f" stroke-width="1.2" opacity="1.00"/>
<line x1="577.1" y1="184.0" x2="585.1" y2="184.0" stroke="#1f3a5f" stroke-width="1.2" opacity="1.00"/>
<circle cx="581.1" cy="195.8" r="3.2" fill="#1f3a5f"/>
<line x1="636.0" y1="250.0" x2="636.0" y2="164.5" stroke="#1f3a5f" stroke-width="1.4" opacity="0.35"/>
<line x1="632.0" y1="250.0" x2="640.0" y2="250.0" stroke="#1f3a5f" stroke-width="1.2" opacity="0.35"/>
<line x1="632.0" y1="164.5" x2="640.0" y2="164.5" stroke="#1f3a5f" stroke-width="1.2" opacity="0.35"/>
<circle cx="636.0" cy="207.2" r="3.2" fill="white" stroke="#1f3a5f" stroke-width="1.3" opacity="0.35"/>
<line x1="663.5" y1="211.0" x2="663.5" y2="163.4" stroke="#1f3a5f" stroke-width="1.4" opacity="1.00"/>
<line x1="659.5" y1="211.0" x2="667.5" y2="211.0" stroke="#1f3a5f" stroke-width="1.2" opacity="1.00"/>
<line x1="659.5" y1="163.4" x2="667.5" y2="163.4" stroke="#1f3a5f" stroke-width="1.2" opacity="1.00"/>
<circle cx="663.5" cy="187.2" r="3.2" fill="#1f3a5f"/>
<line x1="690.9" y1="200.1" x2="690.9" y2="90.0" stroke="#1f3a5f" stroke-width="1.4" opacity="1.00"/>
<line x1="686.9" y1="200.1" x2="694.9" y2="200.1" stroke="#1f3a5f" stroke-width="1.2" opacity="1.00"/>
<line x1="686.9" y1="90.0" x2="694.9" y2="90.0" stroke="#1f3a5f" stroke-width="1.2" opacity="1.00"/>
<circle cx="690.9" cy="145.1" r="3.2" fill="#1f3a5f"/>
<line x1="718.4" y1="235.0" x2="718.4" y2="145.6" stroke="#1f3a5f" stroke-width="1.4" opacity="1.00"/>
<line x1="714.4" y1="235.0" x2="722.4" y2="235.0" stroke="#1f3a5f" stroke-width="1.2" opacity="1.00"/>
<line x1="714.4" y1="145.6" x2="722.4" y2="145.6" stroke="#1f3a5f" stroke-width="1.2" opacity="1.00"/>
<circle cx="718.4" cy="190.3" r="3.2" fill="#1f3a5f"/>
<line x1="745.8" y1="221.3" x2="745.8" y2="151.9" stroke="#1f3a5f" stroke-width="1.4" opacity="1.00"/>
<line x1="741.8" y1="221.3" x2="749.8" y2="221.3" stroke="#1f3a5f" stroke-width="1.2" opacity="1.00"/>
<line x1="741.8" y1="151.9" x2="749.8" y2="151.9" stroke="#1f3a5f" stroke-width="1.2" opacity="1.00"/>
<circle cx="745.8" cy="186.6" r="3.2" fill="#1f3a5f"/>
<line x1="773.3" y1="193.6" x2="773.3" y2="91.7" stroke="#1f3a5f" stroke-width="1.4" opacity="1.00"/>
<line x1="769.3" y1="193.6" x2="777.3" y2="193.6" stroke="#1f3a5f" stroke-width="1.2" opacity="1.00"/>
<line x1="769.3" y1="91.7" x2="777.3" y2="91.7" stroke="#1f3a5f" stroke-width="1.2" opacity="1.00"/>
<circle cx="773.3" cy="142.7" r="3.2" fill="#1f3a5f"/>
<line x1="485" y1="250" x2="787" y2="250" stroke="#444"/>
<line x1="485" y1="90" x2="485" y2="250" stroke="#444"/>
<line x1="498.7" y1="250" x2="498.7" y2="253" stroke="#444"/>
<text x="498.7" y="265" text-anchor="middle" fill="#444">-5</text>
<line x1="526.2" y1="250" x2="526.2" y2="253" stroke="#444"/>
<text x="526.2" y="265" text-anchor="middle" fill="#444">-4</text>
<line x1="553.6" y1="250" x2="553.6" y2="253" stroke="#444"/>
<text x="553.6" y="265" text-anchor="middle" fill="#444">-3</text>
<line x1="581.1" y1="250" x2="581.1" y2="253" stroke="#444"/>
<text x="581.1" y="265" text-anchor="middle" fill="#444">-2</text>
<line x1="636.0" y1="250" x2="636.0" y2="253" stroke="#444"/>
<text x="636.0" y="265" text-anchor="middle" fill="#444">0</text>
<line x1="663.5" y1="250" x2="663.5" y2="253" stroke="#444"/>
<text x="663.5" y="265" text-anchor="middle" fill="#444">1</text>
<line x1="690.9" y1="250" x2="690.9" y2="253" stroke="#444"/>
<text x="690.9" y="265" text-anchor="middle" fill="#444">2</text>
<line x1="718.4" y1="250" x2="718.4" y2="253" stroke="#444"/>
<text x="718.4" y="265" text-anchor="middle" fill="#444">3</text>
<line x1="745.8" y1="250" x2="745.8" y2="253" stroke="#444"/>
<text x="745.8" y="265" text-anchor="middle" fill="#444">4</text>
<line x1="773.3" y1="250" x2="773.3" y2="253" stroke="#444"/>
<text x="773.3" y="265" text-anchor="middle" fill="#444">5</text>
<line x1="482" y1="250.0" x2="485" y2="250.0" stroke="#444"/>
<text x="479" y="253.0" text-anchor="end" fill="#444">-0.29</text>
<line x1="482" y1="210.0" x2="485" y2="210.0" stroke="#444"/>
<text x="479" y="213.0" text-anchor="end" fill="#444">0.5</text>
<line x1="482" y1="170.0" x2="485" y2="170.0" stroke="#444"/>
<text x="479" y="173.0" text-anchor="end" fill="#444">1.3</text>
<line x1="482" y1="130.0" x2="485" y2="130.0" stroke="#444"/>
<text x="479" y="133.0" text-anchor="end" fill="#444">2.1</text>
<line x1="482" y1="90.0" x2="485" y2="90.0" stroke="#444"/>
<text x="479" y="93.0" text-anchor="end" fill="#444">2.9</text>
<text x="636.0" y="284" text-anchor="middle" fill="#444">Event time (years from adoption)</text>
<text x="437" y="170.0" text-anchor="middle" fill="#444" transform="rotate(-90 437 170.0)">ATT (per 100k)</text>
<rect x="15" y="330" width="380" height="260" fill="#fafaf7" stroke="#e2e2dc"/>
<text x="205.0" y="348" text-anchor="middle" font-weight="600">Total suicide rate (per 100k) [net effect]</text>
<line x1="75" y1="508.14389780129903" x2="377" y2="508.14389780129903" stroke="#aaaaaa" stroke-width="0.7"/>
<line x1="212.3" y1="380" x2="212.3" y2="540" stroke="#b9461a" stroke-dasharray="3 3"/>
<line x1="88.7" y1="505.3" x2="88.7" y2="458.7" stroke="#1f3a5f" stroke-width="1.4" opacity="1.00"/>
<line x1="84.7" y1="505.3" x2="92.7" y2="505.3" stroke="#1f3a5f" stroke-width="1.2" opacity="1.00"/>
<line x1="84.7" y1="458.7" x2="92.7" y2="458.7" stroke="#1f3a5f" stroke-width="1.2" opacity="1.00"/>
<circle cx="88.7" cy="482.0" r="3.2" fill="#1f3a5f"/>
<line x1="116.2" y1="464.8" x2="116.2" y2="426.6" stroke="#1f3a5f" stroke-width="1.4" opacity="1.00"/>
<line x1="112.2" y1="464.8" x2="120.2" y2="464.8" stroke="#1f3a5f" stroke-width="1.2" opacity="1.00"/>
<line x1="112.2" y1="426.6" x2="120.2" y2="426.6" stroke="#1f3a5f" stroke-width="1.2" opacity="1.00"/>
<circle cx="116.2" cy="445.7" r="3.2" fill="#1f3a5f"/>
<line x1="143.6" y1="512.5" x2="143.6" y2="446.8" stroke="#1f3a5f" stroke-width="1.4" opacity="0.35"/>
<line x1="139.6" y1="512.5" x2="147.6" y2="512.5" stroke="#1f3a5f" stroke-width="1.2" opacity="0.35"/>
<line x1="139.6" y1="446.8" x2="147.6" y2="446.8" stroke="#1f3a5f" stroke-width="1.2" opacity="0.35"/>
<circle cx="143.6" cy="479.6" r="3.2" fill="white" stroke="#1f3a5f" stroke-width="1.3" opacity="0.35"/>
<line x1="171.1" y1="478.8" x2="171.1" y2="437.3" stroke="#1f3a5f" stroke-width="1.4" opacity="1.00"/>
<line x1="167.1" y1="478.8" x2="175.1" y2="478.8" stroke="#1f3a5f" stroke-width="1.2" opacity="1.00"/>
<line x1="167.1" y1="437.3" x2="175.1" y2="437.3" stroke="#1f3a5f" stroke-width="1.2" opacity="1.00"/>
<circle cx="171.1" cy="458.0" r="3.2" fill="#1f3a5f"/>
<line x1="226.0" y1="484.8" x2="226.0" y2="454.4" stroke="#1f3a5f" stroke-width="1.4" opacity="1.00"/>
<line x1="222.0" y1="484.8" x2="230.0" y2="484.8" stroke="#1f3a5f" stroke-width="1.2" opacity="1.00"/>
<line x1="222.0" y1="454.4" x2="230.0" y2="454.4" stroke="#1f3a5f" stroke-width="1.2" opacity="1.00"/>
<circle cx="226.0" cy="469.6" r="3.2" fill="#1f3a5f"/>
<line x1="253.5" y1="488.6" x2="253.5" y2="464.1" stroke="#1f3a5f" stroke-width="1.4" opacity="1.00"/>
<line x1="249.5" y1="488.6" x2="257.5" y2="488.6" stroke="#1f3a5f" stroke-width="1.2" opacity="1.00"/>
<line x1="249.5" y1="464.1" x2="257.5" y2="464.1" stroke="#1f3a5f" stroke-width="1.2" opacity="1.00"/>
<circle cx="253.5" cy="476.3" r="3.2" fill="#1f3a5f"/>
<line x1="280.9" y1="489.8" x2="280.9" y2="380.0" stroke="#1f3a5f" stroke-width="1.4" opacity="1.00"/>
<line x1="276.9" y1="489.8" x2="284.9" y2="489.8" stroke="#1f3a5f" stroke-width="1.2" opacity="1.00"/>
<line x1="276.9" y1="380.0" x2="284.9" y2="380.0" stroke="#1f3a5f" stroke-width="1.2" opacity="1.00"/>
<circle cx="280.9" cy="434.9" r="3.2" fill="#1f3a5f"/>
<line x1="308.4" y1="514.1" x2="308.4" y2="432.0" stroke="#1f3a5f" stroke-width="1.4" opacity="0.35"/>
<line x1="304.4" y1="514.1" x2="312.4" y2="514.1" stroke="#1f3a5f" stroke-width="1.2" opacity="0.35"/>
<line x1="304.4" y1="432.0" x2="312.4" y2="432.0" stroke="#1f3a5f" stroke-width="1.2" opacity="0.35"/>
<circle cx="308.4" cy="473.0" r="3.2" fill="white" stroke="#1f3a5f" stroke-width="1.3" opacity="0.35"/>
<line x1="335.8" y1="540.0" x2="335.8" y2="435.7" stroke="#1f3a5f" stroke-width="1.4" opacity="0.35"/>
<line x1="331.8" y1="540.0" x2="339.8" y2="540.0" stroke="#1f3a5f" stroke-width="1.2" opacity="0.35"/>
<line x1="331.8" y1="435.7" x2="339.8" y2="435.7" stroke="#1f3a5f" stroke-width="1.2" opacity="0.35"/>
<circle cx="335.8" cy="487.9" r="3.2" fill="white" stroke="#1f3a5f" stroke-width="1.3" opacity="0.35"/>
<line x1="363.3" y1="466.7" x2="363.3" y2="415.4" stroke="#1f3a5f" stroke-width="1.4" opacity="1.00"/>
<line x1="359.3" y1="466.7" x2="367.3" y2="466.7" stroke="#1f3a5f" stroke-width="1.2" opacity="1.00"/>
<line x1="359.3" y1="415.4" x2="367.3" y2="415.4" stroke="#1f3a5f" stroke-width="1.2" opacity="1.00"/>
<circle cx="363.3" cy="441.0" r="3.2" fill="#1f3a5f"/>
<line x1="75" y1="540" x2="377" y2="540" stroke="#444"/>
<line x1="75" y1="380" x2="75" y2="540" stroke="#444"/>
<line x1="88.7" y1="540" x2="88.7" y2="543" stroke="#444"/>
<text x="88.7" y="555" text-anchor="middle" fill="#444">-5</text>
<line x1="116.2" y1="540" x2="116.2" y2="543" stroke="#444"/>
<text x="116.2" y="555" text-anchor="middle" fill="#444">-4</text>
<line x1="143.6" y1="540" x2="143.6" y2="543" stroke="#444"/>
<text x="143.6" y="555" text-anchor="middle" fill="#444">-3</text>
<line x1="171.1" y1="540" x2="171.1" y2="543" stroke="#444"/>
<text x="171.1" y="555" text-anchor="middle" fill="#444">-2</text>
<line x1="226.0" y1="540" x2="226.0" y2="543" stroke="#444"/>
<text x="226.0" y="555" text-anchor="middle" fill="#444">0</text>
<line x1="253.5" y1="540" x2="253.5" y2="543" stroke="#444"/>
<text x="253.5" y="555" text-anchor="middle" fill="#444">1</text>
<line x1="280.9" y1="540" x2="280.9" y2="543" stroke="#444"/>
<text x="280.9" y="555" text-anchor="middle" fill="#444">2</text>
<line x1="308.4" y1="540" x2="308.4" y2="543" stroke="#444"/>
<text x="308.4" y="555" text-anchor="middle" fill="#444">3</text>
<line x1="335.8" y1="540" x2="335.8" y2="543" stroke="#444"/>
<text x="335.8" y="555" text-anchor="middle" fill="#444">4</text>
<line x1="363.3" y1="540" x2="363.3" y2="543" stroke="#444"/>
<text x="363.3" y="555" text-anchor="middle" fill="#444">5</text>
<line x1="72" y1="540.0" x2="75" y2="540.0" stroke="#444"/>
<text x="69" y="543.0" text-anchor="end" fill="#444">-0.96</text>
<line x1="72" y1="500.0" x2="75" y2="500.0" stroke="#444"/>
<text x="69" y="503.0" text-anchor="end" fill="#444">0.25</text>
<line x1="72" y1="460.0" x2="75" y2="460.0" stroke="#444"/>
<text x="69" y="463.0" text-anchor="end" fill="#444">1.5</text>
<line x1="72" y1="420.0" x2="75" y2="420.0" stroke="#444"/>
<text x="69" y="423.0" text-anchor="end" fill="#444">2.7</text>
<line x1="72" y1="380.0" x2="75" y2="380.0" stroke="#444"/>
<text x="69" y="383.0" text-anchor="end" fill="#444">3.9</text>
<text x="226.0" y="574" text-anchor="middle" fill="#444">Event time (years from adoption)</text>
<text x="27" y="460.0" text-anchor="middle" fill="#444" transform="rotate(-90 27 460.0)">ATT (per 100k)</text>
<rect x="425" y="330" width="380" height="260" fill="#fafaf7" stroke="#e2e2dc"/>
<text x="615.0" y="348" text-anchor="middle" font-weight="600">Firearm homicide rate (per 100k)</text>
<line x1="485" y1="420.0224707707179" x2="787" y2="420.0224707707179" stroke="#aaaaaa" stroke-width="0.7"/>
<line x1="622.3" y1="380" x2="622.3" y2="540" stroke="#b9461a" stroke-dasharray="3 3"/>
<line x1="498.7" y1="413.2" x2="498.7" y2="380.0" stroke="#1f3a5f" stroke-width="1.4" opacity="1.00"/>
<line x1="494.7" y1="413.2" x2="502.7" y2="413.2" stroke="#1f3a5f" stroke-width="1.2" opacity="1.00"/>
<line x1="494.7" y1="380.0" x2="502.7" y2="380.0" stroke="#1f3a5f" stroke-width="1.2" opacity="1.00"/>
<circle cx="498.7" cy="396.6" r="3.2" fill="#1f3a5f"/>
<line x1="526.2" y1="450.1" x2="526.2" y2="394.4" stroke="#1f3a5f" stroke-width="1.4" opacity="0.35"/>
<line x1="522.2" y1="450.1" x2="530.2" y2="450.1" stroke="#1f3a5f" stroke-width="1.2" opacity="0.35"/>
<line x1="522.2" y1="394.4" x2="530.2" y2="394.4" stroke="#1f3a5f" stroke-width="1.2" opacity="0.35"/>
<circle cx="526.2" cy="422.3" r="3.2" fill="white" stroke="#1f3a5f" stroke-width="1.3" opacity="0.35"/>
<line x1="553.6" y1="471.3" x2="553.6" y2="426.1" stroke="#1f3a5f" stroke-width="1.4" opacity="1.00"/>
<line x1="549.6" y1="471.3" x2="557.6" y2="471.3" stroke="#1f3a5f" stroke-width="1.2" opacity="1.00"/>
<line x1="549.6" y1="426.1" x2="557.6" y2="426.1" stroke="#1f3a5f" stroke-width="1.2" opacity="1.00"/>
<circle cx="553.6" cy="448.7" r="3.2" fill="#1f3a5f"/>
<line x1="581.1" y1="494.0" x2="581.1" y2="466.2" stroke="#1f3a5f" stroke-width="1.4" opacity="1.00"/>
<line x1="577.1" y1="494.0" x2="585.1" y2="494.0" stroke="#1f3a5f" stroke-width="1.2" opacity="1.00"/>
<line x1="577.1" y1="466.2" x2="585.1" y2="466.2" stroke="#1f3a5f" stroke-width="1.2" opacity="1.00"/>
<circle cx="581.1" cy="480.1" r="3.2" fill="#1f3a5f"/>
<line x1="636.0" y1="457.0" x2="636.0" y2="426.4" stroke="#1f3a5f" stroke-width="1.4" opacity="1.00"/>
<line x1="632.0" y1="457.0" x2="640.0" y2="457.0" stroke="#1f3a5f" stroke-width="1.2" opacity="1.00"/>
<line x1="632.0" y1="426.4" x2="640.0" y2="426.4" stroke="#1f3a5f" stroke-width="1.2" opacity="1.00"/>
<circle cx="636.0" cy="441.7" r="3.2" fill="#1f3a5f"/>
<line x1="663.5" y1="453.8" x2="663.5" y2="414.1" stroke="#1f3a5f" stroke-width="1.4" opacity="0.35"/>
<line x1="659.5" y1="453.8" x2="667.5" y2="453.8" stroke="#1f3a5f" stroke-width="1.2" opacity="0.35"/>
<line x1="659.5" y1="414.1" x2="667.5" y2="414.1" stroke="#1f3a5f" stroke-width="1.2" opacity="0.35"/>
<circle cx="663.5" cy="433.9" r="3.2" fill="white" stroke="#1f3a5f" stroke-width="1.3" opacity="0.35"/>
<line x1="690.9" y1="540.0" x2="690.9" y2="437.2" stroke="#1f3a5f" stroke-width="1.4" opacity="1.00"/>
<line x1="686.9" y1="540.0" x2="694.9" y2="540.0" stroke="#1f3a5f" stroke-width="1.2" opacity="1.00"/>
<line x1="686.9" y1="437.2" x2="694.9" y2="437.2" stroke="#1f3a5f" stroke-width="1.2" opacity="1.00"/>
<circle cx="690.9" cy="488.6" r="3.2" fill="#1f3a5f"/>
<line x1="718.4" y1="493.5" x2="718.4" y2="453.4" stroke="#1f3a5f" stroke-width="1.4" opacity="1.00"/>
<line x1="714.4" y1="493.5" x2="722.4" y2="493.5" stroke="#1f3a5f" stroke-width="1.2" opacity="1.00"/>
<line x1="714.4" y1="453.4" x2="722.4" y2="453.4" stroke="#1f3a5f" stroke-width="1.2" opacity="1.00"/>
<circle cx="718.4" cy="473.4" r="3.2" fill="#1f3a5f"/>
<line x1="745.8" y1="460.8" x2="745.8" y2="414.0" stroke="#1f3a5f" stroke-width="1.4" opacity="0.35"/>
<line x1="741.8" y1="460.8" x2="749.8" y2="460.8" stroke="#1f3a5f" stroke-width="1.2" opacity="0.35"/>
<line x1="741.8" y1="414.0" x2="749.8" y2="414.0" stroke="#1f3a5f" stroke-width="1.2" opacity="0.35"/>
<circle cx="745.8" cy="437.4" r="3.2" fill="white" stroke="#1f3a5f" stroke-width="1.3" opacity="0.35"/>
<line x1="773.3" y1="528.4" x2="773.3" y2="425.3" stroke="#1f3a5f" stroke-width="1.4" opacity="1.00"/>
<line x1="769.3" y1="528.4" x2="777.3" y2="528.4" stroke="#1f3a5f" stroke-width="1.2" opacity="1.00"/>
<line x1="769.3" y1="425.3" x2="777.3" y2="425.3" stroke="#1f3a5f" stroke-width="1.2" opacity="1.00"/>
<circle cx="773.3" cy="476.8" r="3.2" fill="#1f3a5f"/>
<line x1="485" y1="540" x2="787" y2="540" stroke="#444"/>
<line x1="485" y1="380" x2="485" y2="540" stroke="#444"/>
<line x1="498.7" y1="540" x2="498.7" y2="543" stroke="#444"/>
<text x="498.7" y="555" text-anchor="middle" fill="#444">-5</text>
<line x1="526.2" y1="540" x2="526.2" y2="543" stroke="#444"/>
<text x="526.2" y="555" text-anchor="middle" fill="#444">-4</text>
<line x1="553.6" y1="540" x2="553.6" y2="543" stroke="#444"/>
<text x="553.6" y="555" text-anchor="middle" fill="#444">-3</text>
<line x1="581.1" y1="540" x2="581.1" y2="543" stroke="#444"/>
<text x="581.1" y="555" text-anchor="middle" fill="#444">-2</text>
<line x1="636.0" y1="540" x2="636.0" y2="543" stroke="#444"/>
<text x="636.0" y="555" text-anchor="middle" fill="#444">0</text>
<line x1="663.5" y1="540" x2="663.5" y2="543" stroke="#444"/>
<text x="663.5" y="555" text-anchor="middle" fill="#444">1</text>
<line x1="690.9" y1="540" x2="690.9" y2="543" stroke="#444"/>
<text x="690.9" y="555" text-anchor="middle" fill="#444">2</text>
<line x1="718.4" y1="540" x2="718.4" y2="543" stroke="#444"/>
<text x="718.4" y="555" text-anchor="middle" fill="#444">3</text>
<line x1="745.8" y1="540" x2="745.8" y2="543" stroke="#444"/>
<text x="745.8" y="555" text-anchor="middle" fill="#444">4</text>
<line x1="773.3" y1="540" x2="773.3" y2="543" stroke="#444"/>
<text x="773.3" y="555" text-anchor="middle" fill="#444">5</text>
<line x1="482" y1="540.0" x2="485" y2="540.0" stroke="#444"/>
<text x="479" y="543.0" text-anchor="end" fill="#444">-1.2</text>
<line x1="482" y1="500.0" x2="485" y2="500.0" stroke="#444"/>
<text x="479" y="503.0" text-anchor="end" fill="#444">-0.77</text>
<line x1="482" y1="460.0" x2="485" y2="460.0" stroke="#444"/>
<text x="479" y="463.0" text-anchor="end" fill="#444">-0.39</text>
<line x1="482" y1="420.0" x2="485" y2="420.0" stroke="#444"/>
<text x="479" y="423.0" text-anchor="end" fill="#444">0.00022</text>
<line x1="482" y1="380.0" x2="485" y2="380.0" stroke="#444"/>
<text x="479" y="383.0" text-anchor="end" fill="#444">0.39</text>
<text x="636.0" y="574" text-anchor="middle" fill="#444">Event time (years from adoption)</text>
<text x="437" y="460.0" text-anchor="middle" fill="#444" transform="rotate(-90 437 460.0)">ATT (per 100k)</text>
<rect x="15" y="620" width="380" height="260" fill="#fafaf7" stroke="#e2e2dc"/>
<text x="205.0" y="638" text-anchor="middle" font-weight="600">Total homicide rate (per 100k)</text>
<line x1="75" y1="713.4848051562884" x2="377" y2="713.4848051562884" stroke="#aaaaaa" stroke-width="0.7"/>
<line x1="212.3" y1="670" x2="212.3" y2="830" stroke="#b9461a" stroke-dasharray="3 3"/>
<line x1="88.7" y1="745.2" x2="88.7" y2="690.2" stroke="#1f3a5f" stroke-width="1.4" opacity="0.35"/>
<line x1="84.7" y1="745.2" x2="92.7" y2="745.2" stroke="#1f3a5f" stroke-width="1.2" opacity="0.35"/>
<line x1="84.7" y1="690.2" x2="92.7" y2="690.2" stroke="#1f3a5f" stroke-width="1.2" opacity="0.35"/>
<circle cx="88.7" cy="717.7" r="3.2" fill="white" stroke="#1f3a5f" stroke-width="1.3" opacity="0.35"/>
<line x1="116.2" y1="757.2" x2="116.2" y2="705.3" stroke="#1f3a5f" stroke-width="1.4" opacity="0.35"/>
<line x1="112.2" y1="757.2" x2="120.2" y2="757.2" stroke="#1f3a5f" stroke-width="1.2" opacity="0.35"/>
<line x1="112.2" y1="705.3" x2="120.2" y2="705.3" stroke="#1f3a5f" stroke-width="1.2" opacity="0.35"/>
<circle cx="116.2" cy="731.3" r="3.2" fill="white" stroke="#1f3a5f" stroke-width="1.3" opacity="0.35"/>
<line x1="143.6" y1="809.7" x2="143.6" y2="687.6" stroke="#1f3a5f" stroke-width="1.4" opacity="0.35"/>
<line x1="139.6" y1="809.7" x2="147.6" y2="809.7" stroke="#1f3a5f" stroke-width="1.2" opacity="0.35"/>
<line x1="139.6" y1="687.6" x2="147.6" y2="687.6" stroke="#1f3a5f" stroke-width="1.2" opacity="0.35"/>
<circle cx="143.6" cy="748.6" r="3.2" fill="white" stroke="#1f3a5f" stroke-width="1.3" opacity="0.35"/>
<line x1="171.1" y1="772.1" x2="171.1" y2="719.2" stroke="#1f3a5f" stroke-width="1.4" opacity="1.00"/>
<line x1="167.1" y1="772.1" x2="175.1" y2="772.1" stroke="#1f3a5f" stroke-width="1.2" opacity="1.00"/>
<line x1="167.1" y1="719.2" x2="175.1" y2="719.2" stroke="#1f3a5f" stroke-width="1.2" opacity="1.00"/>
<circle cx="171.1" cy="745.6" r="3.2" fill="#1f3a5f"/>
<line x1="226.0" y1="777.3" x2="226.0" y2="722.4" stroke="#1f3a5f" stroke-width="1.4" opacity="1.00"/>
<line x1="222.0" y1="777.3" x2="230.0" y2="777.3" stroke="#1f3a5f" stroke-width="1.2" opacity="1.00"/>
<line x1="222.0" y1="722.4" x2="230.0" y2="722.4" stroke="#1f3a5f" stroke-width="1.2" opacity="1.00"/>
<circle cx="226.0" cy="749.9" r="3.2" fill="#1f3a5f"/>
<line x1="253.5" y1="744.2" x2="253.5" y2="670.0" stroke="#1f3a5f" stroke-width="1.4" opacity="0.35"/>
<line x1="249.5" y1="744.2" x2="257.5" y2="744.2" stroke="#1f3a5f" stroke-width="1.2" opacity="0.35"/>
<line x1="249.5" y1="670.0" x2="257.5" y2="670.0" stroke="#1f3a5f" stroke-width="1.2" opacity="0.35"/>
<circle cx="253.5" cy="707.1" r="3.2" fill="white" stroke="#1f3a5f" stroke-width="1.3" opacity="0.35"/>
<line x1="280.9" y1="796.0" x2="280.9" y2="708.2" stroke="#1f3a5f" stroke-width="1.4" opacity="0.35"/>
<line x1="276.9" y1="796.0" x2="284.9" y2="796.0" stroke="#1f3a5f" stroke-width="1.2" opacity="0.35"/>
<line x1="276.9" y1="708.2" x2="284.9" y2="708.2" stroke="#1f3a5f" stroke-width="1.2" opacity="0.35"/>
<circle cx="280.9" cy="752.1" r="3.2" fill="white" stroke="#1f3a5f" stroke-width="1.3" opacity="0.35"/>
<line x1="308.4" y1="830.0" x2="308.4" y2="724.1" stroke="#1f3a5f" stroke-width="1.4" opacity="1.00"/>
<line x1="304.4" y1="830.0" x2="312.4" y2="830.0" stroke="#1f3a5f" stroke-width="1.2" opacity="1.00"/>
<line x1="304.4" y1="724.1" x2="312.4" y2="724.1" stroke="#1f3a5f" stroke-width="1.2" opacity="1.00"/>
<circle cx="308.4" cy="777.0" r="3.2" fill="#1f3a5f"/>
<line x1="335.8" y1="728.1" x2="335.8" y2="676.9" stroke="#1f3a5f" stroke-width="1.4" opacity="0.35"/>
<line x1="331.8" y1="728.1" x2="339.8" y2="728.1" stroke="#1f3a5f" stroke-width="1.2" opacity="0.35"/>
<line x1="331.8" y1="676.9" x2="339.8" y2="676.9" stroke="#1f3a5f" stroke-width="1.2" opacity="0.35"/>
<circle cx="335.8" cy="702.5" r="3.2" fill="white" stroke="#1f3a5f" stroke-width="1.3" opacity="0.35"/>
<line x1="363.3" y1="771.5" x2="363.3" y2="715.3" stroke="#1f3a5f" stroke-width="1.4" opacity="1.00"/>
<line x1="359.3" y1="771.5" x2="367.3" y2="771.5" stroke="#1f3a5f" stroke-width="1.2" opacity="1.00"/>
<line x1="359.3" y1="715.3" x2="367.3" y2="715.3" stroke="#1f3a5f" stroke-width="1.2" opacity="1.00"/>
<circle cx="363.3" cy="743.4" r="3.2" fill="#1f3a5f"/>
<line x1="75" y1="830" x2="377" y2="830" stroke="#444"/>
<line x1="75" y1="670" x2="75" y2="830" stroke="#444"/>
<line x1="88.7" y1="830" x2="88.7" y2="833" stroke="#444"/>
<text x="88.7" y="845" text-anchor="middle" fill="#444">-5</text>
<line x1="116.2" y1="830" x2="116.2" y2="833" stroke="#444"/>
<text x="116.2" y="845" text-anchor="middle" fill="#444">-4</text>
<line x1="143.6" y1="830" x2="143.6" y2="833" stroke="#444"/>
<text x="143.6" y="845" text-anchor="middle" fill="#444">-3</text>
<line x1="171.1" y1="830" x2="171.1" y2="833" stroke="#444"/>
<text x="171.1" y="845" text-anchor="middle" fill="#444">-2</text>
<line x1="226.0" y1="830" x2="226.0" y2="833" stroke="#444"/>
<text x="226.0" y="845" text-anchor="middle" fill="#444">0</text>
<line x1="253.5" y1="830" x2="253.5" y2="833" stroke="#444"/>
<text x="253.5" y="845" text-anchor="middle" fill="#444">1</text>
<line x1="280.9" y1="830" x2="280.9" y2="833" stroke="#444"/>
<text x="280.9" y="845" text-anchor="middle" fill="#444">2</text>
<line x1="308.4" y1="830" x2="308.4" y2="833" stroke="#444"/>
<text x="308.4" y="845" text-anchor="middle" fill="#444">3</text>
<line x1="335.8" y1="830" x2="335.8" y2="833" stroke="#444"/>
<text x="335.8" y="845" text-anchor="middle" fill="#444">4</text>
<line x1="363.3" y1="830" x2="363.3" y2="833" stroke="#444"/>
<text x="363.3" y="845" text-anchor="middle" fill="#444">5</text>
<line x1="72" y1="830.0" x2="75" y2="830.0" stroke="#444"/>
<text x="69" y="833.0" text-anchor="end" fill="#444">-1.5</text>
<line x1="72" y1="790.0" x2="75" y2="790.0" stroke="#444"/>
<text x="69" y="793.0" text-anchor="end" fill="#444">-0.97</text>
<line x1="72" y1="750.0" x2="75" y2="750.0" stroke="#444"/>
<text x="69" y="753.0" text-anchor="end" fill="#444">-0.46</text>
<line x1="72" y1="710.0" x2="75" y2="710.0" stroke="#444"/>
<text x="69" y="713.0" text-anchor="end" fill="#444">0.044</text>
<line x1="72" y1="670.0" x2="75" y2="670.0" stroke="#444"/>
<text x="69" y="673.0" text-anchor="end" fill="#444">0.55</text>
<text x="226.0" y="864" text-anchor="middle" fill="#444">Event time (years from adoption)</text>
<text x="27" y="750.0" text-anchor="middle" fill="#444" transform="rotate(-90 27 750.0)">ATT (per 100k)</text>
<rect x="425" y="620" width="380" height="260" fill="#fafaf7" stroke="#e2e2dc"/>
<text x="615.0" y="638" text-anchor="middle" font-weight="600">Motor vehicle theft rate (per 100k) [placebo]</text>
<line x1="485" y1="741.626774034675" x2="787" y2="741.626774034675" stroke="#aaaaaa" stroke-width="0.7"/>
<line x1="622.3" y1="670" x2="622.3" y2="830" stroke="#b9461a" stroke-dasharray="3 3"/>
<line x1="498.7" y1="828.2" x2="498.7" y2="788.4" stroke="#1f3a5f" stroke-width="1.4" opacity="1.00"/>
<line x1="494.7" y1="828.2" x2="502.7" y2="828.2" stroke="#1f3a5f" stroke-width="1.2" opacity="1.00"/>
<line x1="494.7" y1="788.4" x2="502.7" y2="788.4" stroke="#1f3a5f" stroke-width="1.2" opacity="1.00"/>
<circle cx="498.7" cy="808.3" r="3.2" fill="#1f3a5f"/>
<line x1="526.2" y1="830.0" x2="526.2" y2="792.9" stroke="#1f3a5f" stroke-width="1.4" opacity="1.00"/>
<line x1="522.2" y1="830.0" x2="530.2" y2="830.0" stroke="#1f3a5f" stroke-width="1.2" opacity="1.00"/>
<line x1="522.2" y1="792.9" x2="530.2" y2="792.9" stroke="#1f3a5f" stroke-width="1.2" opacity="1.00"/>
<circle cx="526.2" cy="811.4" r="3.2" fill="#1f3a5f"/>
<line x1="553.6" y1="790.8" x2="553.6" y2="770.2" stroke="#1f3a5f" stroke-width="1.4" opacity="1.00"/>
<line x1="549.6" y1="790.8" x2="557.6" y2="790.8" stroke="#1f3a5f" stroke-width="1.2" opacity="1.00"/>
<line x1="549.6" y1="770.2" x2="557.6" y2="770.2" stroke="#1f3a5f" stroke-width="1.2" opacity="1.00"/>
<circle cx="553.6" cy="780.5" r="3.2" fill="#1f3a5f"/>
<line x1="581.1" y1="766.2" x2="581.1" y2="751.7" stroke="#1f3a5f" stroke-width="1.4" opacity="1.00"/>
<line x1="577.1" y1="766.2" x2="585.1" y2="766.2" stroke="#1f3a5f" stroke-width="1.2" opacity="1.00"/>
<line x1="577.1" y1="751.7" x2="585.1" y2="751.7" stroke="#1f3a5f" stroke-width="1.2" opacity="1.00"/>
<circle cx="581.1" cy="758.9" r="3.2" fill="#1f3a5f"/>
<line x1="636.0" y1="779.8" x2="636.0" y2="768.9" stroke="#1f3a5f" stroke-width="1.4" opacity="1.00"/>
<line x1="632.0" y1="779.8" x2="640.0" y2="779.8" stroke="#1f3a5f" stroke-width="1.2" opacity="1.00"/>
<line x1="632.0" y1="768.9" x2="640.0" y2="768.9" stroke="#1f3a5f" stroke-width="1.2" opacity="1.00"/>
<circle cx="636.0" cy="774.3" r="3.2" fill="#1f3a5f"/>
<line x1="663.5" y1="759.1" x2="663.5" y2="736.1" stroke="#1f3a5f" stroke-width="1.4" opacity="0.35"/>
<line x1="659.5" y1="759.1" x2="667.5" y2="759.1" stroke="#1f3a5f" stroke-width="1.2" opacity="0.35"/>
<line x1="659.5" y1="736.1" x2="667.5" y2="736.1" stroke="#1f3a5f" stroke-width="1.2" opacity="0.35"/>
<circle cx="663.5" cy="747.6" r="3.2" fill="white" stroke="#1f3a5f" stroke-width="1.3" opacity="0.35"/>
<line x1="690.9" y1="746.9" x2="690.9" y2="721.9" stroke="#1f3a5f" stroke-width="1.4" opacity="0.35"/>
<line x1="686.9" y1="746.9" x2="694.9" y2="746.9" stroke="#1f3a5f" stroke-width="1.2" opacity="0.35"/>
<line x1="686.9" y1="721.9" x2="694.9" y2="721.9" stroke="#1f3a5f" stroke-width="1.2" opacity="0.35"/>
<circle cx="690.9" cy="734.4" r="3.2" fill="white" stroke="#1f3a5f" stroke-width="1.3" opacity="0.35"/>
<line x1="718.4" y1="754.7" x2="718.4" y2="677.8" stroke="#1f3a5f" stroke-width="1.4" opacity="0.35"/>
<line x1="714.4" y1="754.7" x2="722.4" y2="754.7" stroke="#1f3a5f" stroke-width="1.2" opacity="0.35"/>
<line x1="714.4" y1="677.8" x2="722.4" y2="677.8" stroke="#1f3a5f" stroke-width="1.2" opacity="0.35"/>
<circle cx="718.4" cy="716.2" r="3.2" fill="white" stroke="#1f3a5f" stroke-width="1.3" opacity="0.35"/>
<line x1="745.8" y1="743.7" x2="745.8" y2="670.0" stroke="#1f3a5f" stroke-width="1.4" opacity="0.35"/>
<line x1="741.8" y1="743.7" x2="749.8" y2="743.7" stroke="#1f3a5f" stroke-width="1.2" opacity="0.35"/>
<line x1="741.8" y1="670.0" x2="749.8" y2="670.0" stroke="#1f3a5f" stroke-width="1.2" opacity="0.35"/>
<circle cx="745.8" cy="706.8" r="3.2" fill="white" stroke="#1f3a5f" stroke-width="1.3" opacity="0.35"/>
<line x1="773.3" y1="816.1" x2="773.3" y2="727.6" stroke="#1f3a5f" stroke-width="1.4" opacity="0.35"/>
<line x1="769.3" y1="816.1" x2="777.3" y2="816.1" stroke="#1f3a5f" stroke-width="1.2" opacity="0.35"/>
<line x1="769.3" y1="727.6" x2="777.3" y2="727.6" stroke="#1f3a5f" stroke-width="1.2" opacity="0.35"/>
<circle cx="773.3" cy="771.8" r="3.2" fill="white" stroke="#1f3a5f" stroke-width="1.3" opacity="0.35"/>
<line x1="485" y1="830" x2="787" y2="830" stroke="#444"/>
<line x1="485" y1="670" x2="485" y2="830" stroke="#444"/>
<line x1="498.7" y1="830" x2="498.7" y2="833" stroke="#444"/>
<text x="498.7" y="845" text-anchor="middle" fill="#444">-5</text>
<line x1="526.2" y1="830" x2="526.2" y2="833" stroke="#444"/>
<text x="526.2" y="845" text-anchor="middle" fill="#444">-4</text>
<line x1="553.6" y1="830" x2="553.6" y2="833" stroke="#444"/>
<text x="553.6" y="845" text-anchor="middle" fill="#444">-3</text>
<line x1="581.1" y1="830" x2="581.1" y2="833" stroke="#444"/>
<text x="581.1" y="845" text-anchor="middle" fill="#444">-2</text>
<line x1="636.0" y1="830" x2="636.0" y2="833" stroke="#444"/>
<text x="636.0" y="845" text-anchor="middle" fill="#444">0</text>
<line x1="663.5" y1="830" x2="663.5" y2="833" stroke="#444"/>
<text x="663.5" y="845" text-anchor="middle" fill="#444">1</text>
<line x1="690.9" y1="830" x2="690.9" y2="833" stroke="#444"/>
<text x="690.9" y="845" text-anchor="middle" fill="#444">2</text>
<line x1="718.4" y1="830" x2="718.4" y2="833" stroke="#444"/>
<text x="718.4" y="845" text-anchor="middle" fill="#444">3</text>
<line x1="745.8" y1="830" x2="745.8" y2="833" stroke="#444"/>
<text x="745.8" y="845" text-anchor="middle" fill="#444">4</text>
<line x1="773.3" y1="830" x2="773.3" y2="833" stroke="#444"/>
<text x="773.3" y="845" text-anchor="middle" fill="#444">5</text>
<line x1="482" y1="830.0" x2="485" y2="830.0" stroke="#444"/>
<text x="479" y="833.0" text-anchor="end" fill="#444">-94</text>
<line x1="482" y1="790.0" x2="485" y2="790.0" stroke="#444"/>
<text x="479" y="793.0" text-anchor="end" fill="#444">-52</text>
<line x1="482" y1="750.0" x2="485" y2="750.0" stroke="#444"/>
<text x="479" y="753.0" text-anchor="end" fill="#444">-8.9</text>
<line x1="482" y1="710.0" x2="485" y2="710.0" stroke="#444"/>
<text x="479" y="713.0" text-anchor="end" fill="#444">34</text>
<line x1="482" y1="670.0" x2="485" y2="670.0" stroke="#444"/>
<text x="479" y="673.0" text-anchor="end" fill="#444">76</text>
<text x="636.0" y="864" text-anchor="middle" fill="#444">Event time (years from adoption)</text>
<text x="437" y="750.0" text-anchor="middle" fill="#444" transform="rotate(-90 437 750.0)">ATT (per 100k)</text>
<text x="805" y="898" text-anchor="end" fill="#888" font-size="10">Whiskers: pointwise 95% CI from cluster bootstrap. Solid dot = significant at 5%; hollow dot = not significant. Vertical dashed line marks the year before adoption.</text>
</svg>