<svg xmlns="http://www.w3.org/2000/svg" viewBox="0 0 820 620" font-family="-apple-system, Segoe UI, Helvetica, Arial, sans-serif" font-size="11">
<text x="410.0" y="22" text-anchor="middle" font-size="14" font-weight="600">Callaway-Sant'Anna ATT by event time (RA) -- min age 21 for handgun purchase (age21handgunsale)</text>
<rect x="15" y="40" width="380" height="260" fill="#fafaf7" stroke="#e2e2dc"/>
<text x="205.0" y="58" text-anchor="middle" font-weight="600">Firearm suicide rate (per 100k)</text>
<line x1="75" y1="144.4114216043019" x2="377" y2="144.4114216043019" stroke="#aaaaaa" stroke-width="0.7"/>
<polygon points="88.7,153.9 88.7,150.4 88.7,125.9 116.2,123.3 116.2,123.2 116.2,106.1 143.6,123.3 143.6,114.4 143.6,118.0 171.1,118.4 171.1,165.5 171.1,165.6 226.0,109.3 226.0,90.0 226.0,113.9 253.5,150.6 253.5,161.6 253.5,136.3 280.9,105.0 280.9,97.0 280.9,118.3 308.4,141.6 308.4,135.2 308.4,114.7 335.8,130.5 335.8,156.1 335.8,156.3 363.3,157.5 363.3,173.1 363.3,120.0 363.3,160.7 363.3,210.2 363.3,197.7 335.8,249.0 335.8,250.0 335.8,184.1 308.4,156.2 308.4,215.4 308.4,221.6 280.9,145.6 280.9,148.6 280.9,154.1 253.5,156.0 253.5,186.7 253.5,175.7 226.0,147.2 226.0,147.0 226.0,168.9 171.1,195.2 171.1,191.2 171.1,147.3 143.6,157.2 143.6,191.3 143.6,202.3 116.2,149.5 116.2,145.3 116.2,164.8 88.7,171.6 88.7,241.0 88.7,245.3" fill="#1f3a5f" opacity="0.18"/>
<polyline points="88.7,199.6 88.7,195.7 88.7,148.7 116.2,144.0 116.2,134.3 116.2,127.8 143.6,162.8 143.6,152.8 143.6,137.6 171.1,132.8 171.1,178.4 171.1,180.4 226.0,139.1 226.0,118.5 226.0,130.5 253.5,163.1 253.5,174.2 253.5,146.1 280.9,129.5 280.9,122.8 280.9,131.9 308.4,181.6 308.4,175.3 308.4,135.5 335.8,157.3 335.8,203.1 335.8,202.7 363.3,177.6 363.3,191.6 363.3,140.3" fill="none" stroke="#1f3a5f" stroke-width="1.6"/>
<circle cx="88.7" cy="199.6" r="2.6" fill="#1f3a5f"/>
<circle cx="88.7" cy="195.7" r="2.6" fill="#1f3a5f"/>
<circle cx="88.7" cy="148.7" r="2.6" fill="#1f3a5f"/>
<circle cx="116.2" cy="144.0" r="2.6" fill="#1f3a5f"/>
<circle cx="116.2" cy="134.3" r="2.6" fill="#1f3a5f"/>
<circle cx="116.2" cy="127.8" r="2.6" fill="#1f3a5f"/>
<circle cx="143.6" cy="162.8" r="2.6" fill="#1f3a5f"/>
<circle cx="143.6" cy="152.8" r="2.6" fill="#1f3a5f"/>
<circle cx="143.6" cy="137.6" r="2.6" fill="#1f3a5f"/>
<circle cx="171.1" cy="132.8" r="2.6" fill="#1f3a5f"/>
<circle cx="171.1" cy="178.4" r="2.6" fill="#1f3a5f"/>
<circle cx="171.1" cy="180.4" r="2.6" fill="#1f3a5f"/>
<circle cx="226.0" cy="139.1" r="2.6" fill="#1f3a5f"/>
<circle cx="226.0" cy="118.5" r="2.6" fill="#1f3a5f"/>
<circle cx="226.0" cy="130.5" r="2.6" fill="#1f3a5f"/>
<circle cx="253.5" cy="163.1" r="2.6" fill="#1f3a5f"/>
<circle cx="253.5" cy="174.2" r="2.6" fill="#1f3a5f"/>
<circle cx="253.5" cy="146.1" r="2.6" fill="#1f3a5f"/>
<circle cx="280.9" cy="129.5" r="2.6" fill="#1f3a5f"/>
<circle cx="280.9" cy="122.8" r="2.6" fill="#1f3a5f"/>
<circle cx="280.9" cy="131.9" r="2.6" fill="#1f3a5f"/>
<circle cx="308.4" cy="181.6" r="2.6" fill="#1f3a5f"/>
<circle cx="308.4" cy="175.3" r="2.6" fill="#1f3a5f"/>
<circle cx="308.4" cy="135.5" r="2.6" fill="#1f3a5f"/>
<circle cx="335.8" cy="157.3" r="2.6" fill="#1f3a5f"/>
<circle cx="335.8" cy="203.1" r="2.6" fill="#1f3a5f"/>
<circle cx="335.8" cy="202.7" r="2.6" fill="#1f3a5f"/>
<circle cx="363.3" cy="177.6" r="2.6" fill="#1f3a5f"/>
<circle cx="363.3" cy="191.6" r="2.6" fill="#1f3a5f"/>
<circle cx="363.3" cy="140.3" r="2.6" fill="#1f3a5f"/>
<line x1="212.3" y1="90" x2="212.3" y2="250" stroke="#b9461a" stroke-dasharray="3 3"/>
<line x1="75" y1="250" x2="377" y2="250" stroke="#444"/>
<line x1="75" y1="90" x2="75" y2="250" stroke="#444"/>
<line x1="88.7" y1="250" x2="88.7" y2="253" stroke="#444"/>
<text x="88.7" y="265" text-anchor="middle" fill="#444">-5</text>
<line x1="116.2" y1="250" x2="116.2" y2="253" stroke="#444"/>
<text x="116.2" y="265" text-anchor="middle" fill="#444">-4</text>
<line x1="143.6" y1="250" x2="143.6" y2="253" stroke="#444"/>
<text x="143.6" y="265" text-anchor="middle" fill="#444">-3</text>
<line x1="171.1" y1="250" x2="171.1" y2="253" stroke="#444"/>
<text x="171.1" y="265" text-anchor="middle" fill="#444">-2</text>
<line x1="226.0" y1="250" x2="226.0" y2="253" stroke="#444"/>
<text x="226.0" y="265" text-anchor="middle" fill="#444">0</text>
<line x1="253.5" y1="250" x2="253.5" y2="253" stroke="#444"/>
<text x="253.5" y="265" text-anchor="middle" fill="#444">1</text>
<line x1="280.9" y1="250" x2="280.9" y2="253" stroke="#444"/>
<text x="280.9" y="265" text-anchor="middle" fill="#444">2</text>
<line x1="308.4" y1="250" x2="308.4" y2="253" stroke="#444"/>
<text x="308.4" y="265" text-anchor="middle" fill="#444">3</text>
<line x1="335.8" y1="250" x2="335.8" y2="253" stroke="#444"/>
<text x="335.8" y="265" text-anchor="middle" fill="#444">4</text>
<line x1="363.3" y1="250" x2="363.3" y2="253" stroke="#444"/>
<text x="363.3" y="265" text-anchor="middle" fill="#444">5</text>
<line x1="72" y1="250.0" x2="75" y2="250.0" stroke="#444"/>
<text x="69" y="253.0" text-anchor="end" fill="#444">-4</text>
<line x1="72" y1="210.0" x2="75" y2="210.0" stroke="#444"/>
<text x="69" y="213.0" text-anchor="end" fill="#444">-2.5</text>
<line x1="72" y1="170.0" x2="75" y2="170.0" stroke="#444"/>
<text x="69" y="173.0" text-anchor="end" fill="#444">-0.96</text>
<line x1="72" y1="130.0" x2="75" y2="130.0" stroke="#444"/>
<text x="69" y="133.0" text-anchor="end" fill="#444">0.54</text>
<line x1="72" y1="90.0" x2="75" y2="90.0" stroke="#444"/>
<text x="69" y="93.0" text-anchor="end" fill="#444">2.1</text>
<text x="226.0" y="284" text-anchor="middle" fill="#444">Event time (years from adoption)</text>
<text x="27" y="170.0" text-anchor="middle" fill="#444" transform="rotate(-90 27 170.0)">ATT (per 100k)</text>
<rect x="425" y="40" width="380" height="260" fill="#fafaf7" stroke="#e2e2dc"/>
<text x="615.0" y="58" text-anchor="middle" font-weight="600">Non-firearm suicide rate (per 100k) [substitution test]</text>
<line x1="485" y1="216.99864217664197" x2="787" y2="216.99864217664197" stroke="#aaaaaa" stroke-width="0.7"/>
<polygon points="498.7,175.5 498.7,162.1 498.7,186.0 526.2,149.8 526.2,175.7 526.2,175.4 553.6,199.2 553.6,186.7 553.6,197.6 581.1,189.7 581.1,165.7 581.1,175.1 636.0,167.0 636.0,180.3 636.0,199.3 663.5,139.2 663.5,131.6 663.5,181.0 690.9,97.5 690.9,90.0 690.9,166.7 718.4,162.2 718.4,173.6 718.4,185.5 745.8,185.7 745.8,137.2 745.8,142.1 773.3,117.3 773.3,134.5 773.3,168.2 773.3,199.3 773.3,220.4 773.3,206.6 745.8,187.9 745.8,185.7 745.8,202.5 718.4,214.2 718.4,240.3 718.4,228.0 690.9,191.5 690.9,175.0 690.9,180.4 663.5,201.2 663.5,207.7 663.5,216.0 636.0,221.0 636.0,246.4 636.0,233.4 581.1,234.1 581.1,225.1 581.1,202.8 553.6,205.9 553.6,230.4 553.6,248.1 526.2,242.3 526.2,196.1 526.2,217.3 498.7,203.5 498.7,236.2 498.7,250.0" fill="#1f3a5f" opacity="0.18"/>
<polyline points="498.7,212.7 498.7,199.1 498.7,194.7 526.2,183.6 526.2,185.9 526.2,208.9 553.6,223.6 553.6,208.6 553.6,201.7 581.1,196.3 581.1,195.4 581.1,204.6 636.0,200.2 636.0,213.4 636.0,210.1 663.5,177.6 663.5,169.6 663.5,191.1 690.9,139.0 690.9,132.5 690.9,179.1 718.4,195.1 718.4,206.9 718.4,199.8 745.8,194.1 745.8,161.4 745.8,165.0 773.3,161.9 773.3,177.4 773.3,183.8" fill="none" stroke="#1f3a5f" stroke-width="1.6"/>
<circle cx="498.7" cy="212.7" r="2.6" fill="#1f3a5f"/>
<circle cx="498.7" cy="199.1" r="2.6" fill="#1f3a5f"/>
<circle cx="498.7" cy="194.7" r="2.6" fill="#1f3a5f"/>
<circle cx="526.2" cy="183.6" r="2.6" fill="#1f3a5f"/>
<circle cx="526.2" cy="185.9" r="2.6" fill="#1f3a5f"/>
<circle cx="526.2" cy="208.9" r="2.6" fill="#1f3a5f"/>
<circle cx="553.6" cy="223.6" r="2.6" fill="#1f3a5f"/>
<circle cx="553.6" cy="208.6" r="2.6" fill="#1f3a5f"/>
<circle cx="553.6" cy="201.7" r="2.6" fill="#1f3a5f"/>
<circle cx="581.1" cy="196.3" r="2.6" fill="#1f3a5f"/>
<circle cx="581.1" cy="195.4" r="2.6" fill="#1f3a5f"/>
<circle cx="581.1" cy="204.6" r="2.6" fill="#1f3a5f"/>
<circle cx="636.0" cy="200.2" r="2.6" fill="#1f3a5f"/>
<circle cx="636.0" cy="213.4" r="2.6" fill="#1f3a5f"/>
<circle cx="636.0" cy="210.1" r="2.6" fill="#1f3a5f"/>
<circle cx="663.5" cy="177.6" r="2.6" fill="#1f3a5f"/>
<circle cx="663.5" cy="169.6" r="2.6" fill="#1f3a5f"/>
<circle cx="663.5" cy="191.1" r="2.6" fill="#1f3a5f"/>
<circle cx="690.9" cy="139.0" r="2.6" fill="#1f3a5f"/>
<circle cx="690.9" cy="132.5" r="2.6" fill="#1f3a5f"/>
<circle cx="690.9" cy="179.1" r="2.6" fill="#1f3a5f"/>
<circle cx="718.4" cy="195.1" r="2.6" fill="#1f3a5f"/>
<circle cx="718.4" cy="206.9" r="2.6" fill="#1f3a5f"/>
<circle cx="718.4" cy="199.8" r="2.6" fill="#1f3a5f"/>
<circle cx="745.8" cy="194.1" r="2.6" fill="#1f3a5f"/>
<circle cx="745.8" cy="161.4" r="2.6" fill="#1f3a5f"/>
<circle cx="745.8" cy="165.0" r="2.6" fill="#1f3a5f"/>
<circle cx="773.3" cy="161.9" r="2.6" fill="#1f3a5f"/>
<circle cx="773.3" cy="177.4" r="2.6" fill="#1f3a5f"/>
<circle cx="773.3" cy="183.8" r="2.6" fill="#1f3a5f"/>
<line x1="622.3" y1="90" x2="622.3" y2="250" stroke="#b9461a" stroke-dasharray="3 3"/>
<line x1="485" y1="250" x2="787" y2="250" stroke="#444"/>
<line x1="485" y1="90" x2="485" y2="250" stroke="#444"/>
<line x1="498.7" y1="250" x2="498.7" y2="253" stroke="#444"/>
<text x="498.7" y="265" text-anchor="middle" fill="#444">-5</text>
<line x1="526.2" y1="250" x2="526.2" y2="253" stroke="#444"/>
<text x="526.2" y="265" text-anchor="middle" fill="#444">-4</text>
<line x1="553.6" y1="250" x2="553.6" y2="253" stroke="#444"/>
<text x="553.6" y="265" text-anchor="middle" fill="#444">-3</text>
<line x1="581.1" y1="250" x2="581.1" y2="253" stroke="#444"/>
<text x="581.1" y="265" text-anchor="middle" fill="#444">-2</text>
<line x1="636.0" y1="250" x2="636.0" y2="253" stroke="#444"/>
<text x="636.0" y="265" text-anchor="middle" fill="#444">0</text>
<line x1="663.5" y1="250" x2="663.5" y2="253" stroke="#444"/>
<text x="663.5" y="265" text-anchor="middle" fill="#444">1</text>
<line x1="690.9" y1="250" x2="690.9" y2="253" stroke="#444"/>
<text x="690.9" y="265" text-anchor="middle" fill="#444">2</text>
<line x1="718.4" y1="250" x2="718.4" y2="253" stroke="#444"/>
<text x="718.4" y="265" text-anchor="middle" fill="#444">3</text>
<line x1="745.8" y1="250" x2="745.8" y2="253" stroke="#444"/>
<text x="745.8" y="265" text-anchor="middle" fill="#444">4</text>
<line x1="773.3" y1="250" x2="773.3" y2="253" stroke="#444"/>
<text x="773.3" y="265" text-anchor="middle" fill="#444">5</text>
<line x1="482" y1="250.0" x2="485" y2="250.0" stroke="#444"/>
<text x="479" y="253.0" text-anchor="end" fill="#444">-1.6</text>
<line x1="482" y1="210.0" x2="485" y2="210.0" stroke="#444"/>
<text x="479" y="213.0" text-anchor="end" fill="#444">0.34</text>
<line x1="482" y1="170.0" x2="485" y2="170.0" stroke="#444"/>
<text x="479" y="173.0" text-anchor="end" fill="#444">2.3</text>
<line x1="482" y1="130.0" x2="485" y2="130.0" stroke="#444"/>
<text x="479" y="133.0" text-anchor="end" fill="#444">4.3</text>
<line x1="482" y1="90.0" x2="485" y2="90.0" stroke="#444"/>
<text x="479" y="93.0" text-anchor="end" fill="#444">6.2</text>
<text x="636.0" y="284" text-anchor="middle" fill="#444">Event time (years from adoption)</text>
<text x="437" y="170.0" text-anchor="middle" fill="#444" transform="rotate(-90 437 170.0)">ATT (per 100k)</text>
<rect x="15" y="330" width="380" height="260" fill="#fafaf7" stroke="#e2e2dc"/>
<text x="205.0" y="348" text-anchor="middle" font-weight="600">Total suicide rate (per 100k) [net effect]</text>
<line x1="75" y1="501.94045675564746" x2="377" y2="501.94045675564746" stroke="#aaaaaa" stroke-width="0.7"/>
<polygon points="88.7,521.2 88.7,509.8 88.7,476.9 116.2,456.9 116.2,463.2 116.2,465.9 143.6,500.0 143.6,487.1 143.6,476.3 171.1,472.1 171.1,484.8 171.1,492.4 226.0,475.9 226.0,472.4 226.0,483.6 253.5,448.6 253.5,449.9 253.5,479.1 280.9,389.9 280.9,380.0 280.9,452.7 308.4,497.4 308.4,500.5 308.4,467.1 335.8,474.1 335.8,475.6 335.8,479.7 363.3,445.7 363.3,467.1 363.3,458.8 363.3,490.5 363.3,531.9 363.3,513.8 335.8,513.3 335.8,512.5 335.8,510.3 308.4,500.7 308.4,524.0 308.4,516.5 280.9,479.9 280.9,472.1 280.9,479.6 253.5,487.9 253.5,517.2 253.5,517.8 226.0,493.9 226.0,496.1 226.0,496.6 171.1,534.4 171.1,525.8 171.1,487.3 143.6,496.8 143.6,513.8 143.6,535.0 116.2,506.6 116.2,482.3 116.2,496.3 88.7,498.6 88.7,526.4 88.7,540.0" fill="#1f3a5f" opacity="0.18"/>
<polyline points="88.7,530.6 88.7,518.1 88.7,487.7 116.2,476.6 116.2,472.7 116.2,486.2 143.6,517.5 143.6,500.5 143.6,486.5 171.1,479.7 171.1,505.3 171.1,513.4 226.0,486.3 226.0,484.2 226.0,488.8 253.5,483.2 253.5,483.5 253.5,483.5 280.9,434.8 280.9,426.1 280.9,466.3 308.4,506.9 308.4,512.2 308.4,483.9 335.8,492.2 335.8,494.1 335.8,496.5 363.3,479.8 363.3,499.5 363.3,474.6" fill="none" stroke="#1f3a5f" stroke-width="1.6"/>
<circle cx="88.7" cy="530.6" r="2.6" fill="#1f3a5f"/>
<circle cx="88.7" cy="518.1" r="2.6" fill="#1f3a5f"/>
<circle cx="88.7" cy="487.7" r="2.6" fill="#1f3a5f"/>
<circle cx="116.2" cy="476.6" r="2.6" fill="#1f3a5f"/>
<circle cx="116.2" cy="472.7" r="2.6" fill="#1f3a5f"/>
<circle cx="116.2" cy="486.2" r="2.6" fill="#1f3a5f"/>
<circle cx="143.6" cy="517.5" r="2.6" fill="#1f3a5f"/>
<circle cx="143.6" cy="500.5" r="2.6" fill="#1f3a5f"/>
<circle cx="143.6" cy="486.5" r="2.6" fill="#1f3a5f"/>
<circle cx="171.1" cy="479.7" r="2.6" fill="#1f3a5f"/>
<circle cx="171.1" cy="505.3" r="2.6" fill="#1f3a5f"/>
<circle cx="171.1" cy="513.4" r="2.6" fill="#1f3a5f"/>
<circle cx="226.0" cy="486.3" r="2.6" fill="#1f3a5f"/>
<circle cx="226.0" cy="484.2" r="2.6" fill="#1f3a5f"/>
<circle cx="226.0" cy="488.8" r="2.6" fill="#1f3a5f"/>
<circle cx="253.5" cy="483.2" r="2.6" fill="#1f3a5f"/>
<circle cx="253.5" cy="483.5" r="2.6" fill="#1f3a5f"/>
<circle cx="253.5" cy="483.5" r="2.6" fill="#1f3a5f"/>
<circle cx="280.9" cy="434.8" r="2.6" fill="#1f3a5f"/>
<circle cx="280.9" cy="426.1" r="2.6" fill="#1f3a5f"/>
<circle cx="280.9" cy="466.3" r="2.6" fill="#1f3a5f"/>
<circle cx="308.4" cy="506.9" r="2.6" fill="#1f3a5f"/>
<circle cx="308.4" cy="512.2" r="2.6" fill="#1f3a5f"/>
<circle cx="308.4" cy="483.9" r="2.6" fill="#1f3a5f"/>
<circle cx="335.8" cy="492.2" r="2.6" fill="#1f3a5f"/>
<circle cx="335.8" cy="494.1" r="2.6" fill="#1f3a5f"/>
<circle cx="335.8" cy="496.5" r="2.6" fill="#1f3a5f"/>
<circle cx="363.3" cy="479.8" r="2.6" fill="#1f3a5f"/>
<circle cx="363.3" cy="499.5" r="2.6" fill="#1f3a5f"/>
<circle cx="363.3" cy="474.6" r="2.6" fill="#1f3a5f"/>
<line x1="212.3" y1="380" x2="212.3" y2="540" stroke="#b9461a" stroke-dasharray="3 3"/>
<line x1="75" y1="540" x2="377" y2="540" stroke="#444"/>
<line x1="75" y1="380" x2="75" y2="540" stroke="#444"/>
<line x1="88.7" y1="540" x2="88.7" y2="543" stroke="#444"/>
<text x="88.7" y="555" text-anchor="middle" fill="#444">-5</text>
<line x1="116.2" y1="540" x2="116.2" y2="543" stroke="#444"/>
<text x="116.2" y="555" text-anchor="middle" fill="#444">-4</text>
<line x1="143.6" y1="540" x2="143.6" y2="543" stroke="#444"/>
<text x="143.6" y="555" text-anchor="middle" fill="#444">-3</text>
<line x1="171.1" y1="540" x2="171.1" y2="543" stroke="#444"/>
<text x="171.1" y="555" text-anchor="middle" fill="#444">-2</text>
<line x1="226.0" y1="540" x2="226.0" y2="543" stroke="#444"/>
<text x="226.0" y="555" text-anchor="middle" fill="#444">0</text>
<line x1="253.5" y1="540" x2="253.5" y2="543" stroke="#444"/>
<text x="253.5" y="555" text-anchor="middle" fill="#444">1</text>
<line x1="280.9" y1="540" x2="280.9" y2="543" stroke="#444"/>
<text x="280.9" y="555" text-anchor="middle" fill="#444">2</text>
<line x1="308.4" y1="540" x2="308.4" y2="543" stroke="#444"/>
<text x="308.4" y="555" text-anchor="middle" fill="#444">3</text>
<line x1="335.8" y1="540" x2="335.8" y2="543" stroke="#444"/>
<text x="335.8" y="555" text-anchor="middle" fill="#444">4</text>
<line x1="363.3" y1="540" x2="363.3" y2="543" stroke="#444"/>
<text x="363.3" y="555" text-anchor="middle" fill="#444">5</text>
<line x1="72" y1="540.0" x2="75" y2="540.0" stroke="#444"/>
<text x="69" y="543.0" text-anchor="end" fill="#444">-2.5</text>
<line x1="72" y1="500.0" x2="75" y2="500.0" stroke="#444"/>
<text x="69" y="503.0" text-anchor="end" fill="#444">0.13</text>
<line x1="72" y1="460.0" x2="75" y2="460.0" stroke="#444"/>
<text x="69" y="463.0" text-anchor="end" fill="#444">2.7</text>
<line x1="72" y1="420.0" x2="75" y2="420.0" stroke="#444"/>
<text x="69" y="423.0" text-anchor="end" fill="#444">5.4</text>
<line x1="72" y1="380.0" x2="75" y2="380.0" stroke="#444"/>
<text x="69" y="383.0" text-anchor="end" fill="#444">8</text>
<text x="226.0" y="574" text-anchor="middle" fill="#444">Event time (years from adoption)</text>
<text x="27" y="460.0" text-anchor="middle" fill="#444" transform="rotate(-90 27 460.0)">ATT (per 100k)</text>
<rect x="425" y="330" width="380" height="260" fill="#fafaf7" stroke="#e2e2dc"/>
<text x="615.0" y="348" text-anchor="middle" font-weight="600">Firearm homicide rate (per 100k)</text>
<line x1="485" y1="432.7432870653904" x2="787" y2="432.7432870653904" stroke="#aaaaaa" stroke-width="0.7"/>
<polygon points="498.7,388.4 498.7,413.9 498.7,443.0 526.2,409.7 526.2,450.6 526.2,380.0 553.6,421.7 553.6,453.7 553.6,448.6 581.1,457.1 581.1,442.1 581.1,415.5 636.0,415.1 636.0,421.1 636.0,452.0 663.5,407.0 663.5,422.9 663.5,412.7 690.9,425.1 690.9,412.8 690.9,440.3 718.4,412.9 718.4,433.6 718.4,453.4 745.8,448.1 745.8,411.7 745.8,425.3 773.3,468.6 773.3,452.7 773.3,485.4 773.3,524.3 773.3,526.7 773.3,540.0 745.8,469.9 745.8,460.6 745.8,481.2 718.4,475.4 718.4,481.1 718.4,465.2 690.9,469.4 690.9,449.7 690.9,460.3 663.5,456.5 663.5,474.2 663.5,455.6 636.0,484.5 636.0,448.9 636.0,437.3 581.1,459.8 581.1,486.1 581.1,471.4 553.6,471.7 553.6,484.3 553.6,465.8 526.2,415.7 526.2,490.1 526.2,432.8 498.7,461.8 498.7,458.2 498.7,443.4" fill="#1f3a5f" opacity="0.18"/>
<polyline points="498.7,415.9 498.7,436.1 498.7,452.4 526.2,421.3 526.2,470.3 526.2,397.8 553.6,443.7 553.6,469.0 553.6,460.1 581.1,464.3 581.1,464.1 581.1,437.6 636.0,426.2 636.0,435.0 636.0,468.2 663.5,431.3 663.5,448.5 663.5,434.6 690.9,442.7 690.9,431.3 690.9,454.8 718.4,439.1 718.4,457.4 718.4,464.4 745.8,464.6 745.8,436.1 745.8,447.6 773.3,504.3 773.3,489.7 773.3,504.8" fill="none" stroke="#1f3a5f" stroke-width="1.6"/>
<circle cx="498.7" cy="415.9" r="2.6" fill="#1f3a5f"/>
<circle cx="498.7" cy="436.1" r="2.6" fill="#1f3a5f"/>
<circle cx="498.7" cy="452.4" r="2.6" fill="#1f3a5f"/>
<circle cx="526.2" cy="421.3" r="2.6" fill="#1f3a5f"/>
<circle cx="526.2" cy="470.3" r="2.6" fill="#1f3a5f"/>
<circle cx="526.2" cy="397.8" r="2.6" fill="#1f3a5f"/>
<circle cx="553.6" cy="443.7" r="2.6" fill="#1f3a5f"/>
<circle cx="553.6" cy="469.0" r="2.6" fill="#1f3a5f"/>
<circle cx="553.6" cy="460.1" r="2.6" fill="#1f3a5f"/>
<circle cx="581.1" cy="464.3" r="2.6" fill="#1f3a5f"/>
<circle cx="581.1" cy="464.1" r="2.6" fill="#1f3a5f"/>
<circle cx="581.1" cy="437.6" r="2.6" fill="#1f3a5f"/>
<circle cx="636.0" cy="426.2" r="2.6" fill="#1f3a5f"/>
<circle cx="636.0" cy="435.0" r="2.6" fill="#1f3a5f"/>
<circle cx="636.0" cy="468.2" r="2.6" fill="#1f3a5f"/>
<circle cx="663.5" cy="431.3" r="2.6" fill="#1f3a5f"/>
<circle cx="663.5" cy="448.5" r="2.6" fill="#1f3a5f"/>
<circle cx="663.5" cy="434.6" r="2.6" fill="#1f3a5f"/>
<circle cx="690.9" cy="442.7" r="2.6" fill="#1f3a5f"/>
<circle cx="690.9" cy="431.3" r="2.6" fill="#1f3a5f"/>
<circle cx="690.9" cy="454.8" r="2.6" fill="#1f3a5f"/>
<circle cx="718.4" cy="439.1" r="2.6" fill="#1f3a5f"/>
<circle cx="718.4" cy="457.4" r="2.6" fill="#1f3a5f"/>
<circle cx="718.4" cy="464.4" r="2.6" fill="#1f3a5f"/>
<circle cx="745.8" cy="464.6" r="2.6" fill="#1f3a5f"/>
<circle cx="745.8" cy="436.1" r="2.6" fill="#1f3a5f"/>
<circle cx="745.8" cy="447.6" r="2.6" fill="#1f3a5f"/>
<circle cx="773.3" cy="504.3" r="2.6" fill="#1f3a5f"/>
<circle cx="773.3" cy="489.7" r="2.6" fill="#1f3a5f"/>
<circle cx="773.3" cy="504.8" r="2.6" fill="#1f3a5f"/>
<line x1="622.3" y1="380" x2="622.3" y2="540" stroke="#b9461a" stroke-dasharray="3 3"/>
<line x1="485" y1="540" x2="787" y2="540" stroke="#444"/>
<line x1="485" y1="380" x2="485" y2="540" stroke="#444"/>
<line x1="498.7" y1="540" x2="498.7" y2="543" stroke="#444"/>
<text x="498.7" y="555" text-anchor="middle" fill="#444">-5</text>
<line x1="526.2" y1="540" x2="526.2" y2="543" stroke="#444"/>
<text x="526.2" y="555" text-anchor="middle" fill="#444">-4</text>
<line x1="553.6" y1="540" x2="553.6" y2="543" stroke="#444"/>
<text x="553.6" y="555" text-anchor="middle" fill="#444">-3</text>
<line x1="581.1" y1="540" x2="581.1" y2="543" stroke="#444"/>
<text x="581.1" y="555" text-anchor="middle" fill="#444">-2</text>
<line x1="636.0" y1="540" x2="636.0" y2="543" stroke="#444"/>
<text x="636.0" y="555" text-anchor="middle" fill="#444">0</text>
<line x1="663.5" y1="540" x2="663.5" y2="543" stroke="#444"/>
<text x="663.5" y="555" text-anchor="middle" fill="#444">1</text>
<line x1="690.9" y1="540" x2="690.9" y2="543" stroke="#444"/>
<text x="690.9" y="555" text-anchor="middle" fill="#444">2</text>
<line x1="718.4" y1="540" x2="718.4" y2="543" stroke="#444"/>
<text x="718.4" y="555" text-anchor="middle" fill="#444">3</text>
<line x1="745.8" y1="540" x2="745.8" y2="543" stroke="#444"/>
<text x="745.8" y="555" text-anchor="middle" fill="#444">4</text>
<line x1="773.3" y1="540" x2="773.3" y2="543" stroke="#444"/>
<text x="773.3" y="555" text-anchor="middle" fill="#444">5</text>
<line x1="482" y1="540.0" x2="485" y2="540.0" stroke="#444"/>
<text x="479" y="543.0" text-anchor="end" fill="#444">-1.5</text>
<line x1="482" y1="500.0" x2="485" y2="500.0" stroke="#444"/>
<text x="479" y="503.0" text-anchor="end" fill="#444">-0.93</text>
<line x1="482" y1="460.0" x2="485" y2="460.0" stroke="#444"/>
<text x="479" y="463.0" text-anchor="end" fill="#444">-0.38</text>
<line x1="482" y1="420.0" x2="485" y2="420.0" stroke="#444"/>
<text x="479" y="423.0" text-anchor="end" fill="#444">0.18</text>
<line x1="482" y1="380.0" x2="485" y2="380.0" stroke="#444"/>
<text x="479" y="383.0" text-anchor="end" fill="#444">0.73</text>
<text x="636.0" y="574" text-anchor="middle" fill="#444">Event time (years from adoption)</text>
<text x="437" y="460.0" text-anchor="middle" fill="#444" transform="rotate(-90 437 460.0)">ATT (per 100k)</text>
<rect x="15" y="620" width="380" height="260" fill="#fafaf7" stroke="#e2e2dc"/>
<text x="205.0" y="638" text-anchor="middle" font-weight="600">Total homicide rate (per 100k)</text>
<line x1="75" y1="734.7369396971246" x2="377" y2="734.7369396971246" stroke="#aaaaaa" stroke-width="0.7"/>
<polygon points="88.7,670.0 88.7,700.7 88.7,709.1 116.2,715.9 116.2,724.6 116.2,695.4 143.6,700.0 143.6,736.0 143.6,727.3 171.1,747.5 171.1,742.5 171.1,723.7 226.0,708.0 226.0,701.1 226.0,748.5 253.5,686.8 253.5,677.1 253.5,684.0 280.9,697.3 280.9,699.4 280.9,744.5 308.4,738.9 308.4,775.8 308.4,779.1 335.8,744.8 335.8,719.2 335.8,710.2 363.3,765.4 363.3,767.1 363.3,777.5 363.3,829.1 363.3,813.8 363.3,814.1 335.8,749.2 335.8,763.3 335.8,775.5 308.4,808.6 308.4,830.0 308.4,785.8 280.9,776.8 280.9,748.4 280.9,753.2 253.5,761.0 253.5,768.2 253.5,775.1 226.0,781.5 226.0,755.1 226.0,757.3 171.1,782.2 171.1,795.2 171.1,772.0 143.6,766.2 143.6,799.8 143.6,767.4 116.2,777.8 116.2,763.1 116.2,792.4 88.7,746.5 88.7,767.4 88.7,748.5" fill="#1f3a5f" opacity="0.18"/>
<polyline points="88.7,709.3 88.7,734.0 88.7,727.8 116.2,754.2 116.2,743.9 116.2,736.6 143.6,733.7 143.6,767.9 143.6,746.8 171.1,759.8 171.1,768.9 171.1,752.9 226.0,732.6 226.0,728.1 226.0,765.0 253.5,730.9 253.5,722.6 253.5,722.5 280.9,725.3 280.9,723.9 280.9,760.7 308.4,762.3 308.4,802.9 308.4,793.9 335.8,760.2 335.8,741.3 335.8,729.7 363.3,789.8 363.3,790.5 363.3,803.3" fill="none" stroke="#1f3a5f" stroke-width="1.6"/>
<circle cx="88.7" cy="709.3" r="2.6" fill="#1f3a5f"/>
<circle cx="88.7" cy="734.0" r="2.6" fill="#1f3a5f"/>
<circle cx="88.7" cy="727.8" r="2.6" fill="#1f3a5f"/>
<circle cx="116.2" cy="754.2" r="2.6" fill="#1f3a5f"/>
<circle cx="116.2" cy="743.9" r="2.6" fill="#1f3a5f"/>
<circle cx="116.2" cy="736.6" r="2.6" fill="#1f3a5f"/>
<circle cx="143.6" cy="733.7" r="2.6" fill="#1f3a5f"/>
<circle cx="143.6" cy="767.9" r="2.6" fill="#1f3a5f"/>
<circle cx="143.6" cy="746.8" r="2.6" fill="#1f3a5f"/>
<circle cx="171.1" cy="759.8" r="2.6" fill="#1f3a5f"/>
<circle cx="171.1" cy="768.9" r="2.6" fill="#1f3a5f"/>
<circle cx="171.1" cy="752.9" r="2.6" fill="#1f3a5f"/>
<circle cx="226.0" cy="732.6" r="2.6" fill="#1f3a5f"/>
<circle cx="226.0" cy="728.1" r="2.6" fill="#1f3a5f"/>
<circle cx="226.0" cy="765.0" r="2.6" fill="#1f3a5f"/>
<circle cx="253.5" cy="730.9" r="2.6" fill="#1f3a5f"/>
<circle cx="253.5" cy="722.6" r="2.6" fill="#1f3a5f"/>
<circle cx="253.5" cy="722.5" r="2.6" fill="#1f3a5f"/>
<circle cx="280.9" cy="725.3" r="2.6" fill="#1f3a5f"/>
<circle cx="280.9" cy="723.9" r="2.6" fill="#1f3a5f"/>
<circle cx="280.9" cy="760.7" r="2.6" fill="#1f3a5f"/>
<circle cx="308.4" cy="762.3" r="2.6" fill="#1f3a5f"/>
<circle cx="308.4" cy="802.9" r="2.6" fill="#1f3a5f"/>
<circle cx="308.4" cy="793.9" r="2.6" fill="#1f3a5f"/>
<circle cx="335.8" cy="760.2" r="2.6" fill="#1f3a5f"/>
<circle cx="335.8" cy="741.3" r="2.6" fill="#1f3a5f"/>
<circle cx="335.8" cy="729.7" r="2.6" fill="#1f3a5f"/>
<circle cx="363.3" cy="789.8" r="2.6" fill="#1f3a5f"/>
<circle cx="363.3" cy="790.5" r="2.6" fill="#1f3a5f"/>
<circle cx="363.3" cy="803.3" r="2.6" fill="#1f3a5f"/>
<line x1="212.3" y1="670" x2="212.3" y2="830" stroke="#b9461a" stroke-dasharray="3 3"/>
<line x1="75" y1="830" x2="377" y2="830" stroke="#444"/>
<line x1="75" y1="670" x2="75" y2="830" stroke="#444"/>
<line x1="88.7" y1="830" x2="88.7" y2="833" stroke="#444"/>
<text x="88.7" y="845" text-anchor="middle" fill="#444">-5</text>
<line x1="116.2" y1="830" x2="116.2" y2="833" stroke="#444"/>
<text x="116.2" y="845" text-anchor="middle" fill="#444">-4</text>
<line x1="143.6" y1="830" x2="143.6" y2="833" stroke="#444"/>
<text x="143.6" y="845" text-anchor="middle" fill="#444">-3</text>
<line x1="171.1" y1="830" x2="171.1" y2="833" stroke="#444"/>
<text x="171.1" y="845" text-anchor="middle" fill="#444">-2</text>
<line x1="226.0" y1="830" x2="226.0" y2="833" stroke="#444"/>
<text x="226.0" y="845" text-anchor="middle" fill="#444">0</text>
<line x1="253.5" y1="830" x2="253.5" y2="833" stroke="#444"/>
<text x="253.5" y="845" text-anchor="middle" fill="#444">1</text>
<line x1="280.9" y1="830" x2="280.9" y2="833" stroke="#444"/>
<text x="280.9" y="845" text-anchor="middle" fill="#444">2</text>
<line x1="308.4" y1="830" x2="308.4" y2="833" stroke="#444"/>
<text x="308.4" y="845" text-anchor="middle" fill="#444">3</text>
<line x1="335.8" y1="830" x2="335.8" y2="833" stroke="#444"/>
<text x="335.8" y="845" text-anchor="middle" fill="#444">4</text>
<line x1="363.3" y1="830" x2="363.3" y2="833" stroke="#444"/>
<text x="363.3" y="845" text-anchor="middle" fill="#444">5</text>
<line x1="72" y1="830.0" x2="75" y2="830.0" stroke="#444"/>
<text x="69" y="833.0" text-anchor="end" fill="#444">-1.7</text>
<line x1="72" y1="790.0" x2="75" y2="790.0" stroke="#444"/>
<text x="69" y="793.0" text-anchor="end" fill="#444">-1</text>
<line x1="72" y1="750.0" x2="75" y2="750.0" stroke="#444"/>
<text x="69" y="753.0" text-anchor="end" fill="#444">-0.28</text>
<line x1="72" y1="710.0" x2="75" y2="710.0" stroke="#444"/>
<text x="69" y="713.0" text-anchor="end" fill="#444">0.45</text>
<line x1="72" y1="670.0" x2="75" y2="670.0" stroke="#444"/>
<text x="69" y="673.0" text-anchor="end" fill="#444">1.2</text>
<text x="226.0" y="864" text-anchor="middle" fill="#444">Event time (years from adoption)</text>
<text x="27" y="750.0" text-anchor="middle" fill="#444" transform="rotate(-90 27 750.0)">ATT (per 100k)</text>
<rect x="425" y="620" width="380" height="260" fill="#fafaf7" stroke="#e2e2dc"/>
<text x="615.0" y="638" text-anchor="middle" font-weight="600">Motor vehicle theft rate (per 100k) [placebo]</text>
<line x1="485" y1="702.6792790281742" x2="787" y2="702.6792790281742" stroke="#aaaaaa" stroke-width="0.7"/>
<polygon points="498.7,703.2 498.7,703.2 498.7,724.8 526.2,714.5 526.2,721.9 526.2,727.2 553.6,717.2 553.6,707.8 553.6,714.8 581.1,705.8 581.1,710.8 581.1,712.2 636.0,703.5 636.0,700.2 636.0,715.2 663.5,702.7 663.5,711.9 663.5,703.7 690.9,704.8 690.9,693.3 690.9,702.8 718.4,686.6 718.4,684.5 718.4,680.8 745.8,675.2 745.8,682.4 745.8,678.3 773.3,684.5 773.3,670.0 773.3,701.1 773.3,830.0 773.3,796.7 773.3,816.0 745.8,739.9 745.8,743.7 745.8,746.7 718.4,743.2 718.4,736.0 718.4,736.3 690.9,716.2 690.9,706.7 690.9,717.4 663.5,723.7 663.5,727.3 663.5,717.3 636.0,722.1 636.0,710.1 636.0,713.5 581.1,725.9 581.1,726.8 581.1,714.5 553.6,738.9 553.6,752.3 553.6,758.9 526.2,804.2 526.2,767.4 526.2,798.8 498.7,767.4 498.7,795.7 498.7,798.1" fill="#1f3a5f" opacity="0.18"/>
<polyline points="498.7,750.7 498.7,749.4 498.7,746.1 526.2,756.6 526.2,744.7 526.2,765.7 553.6,738.0 553.6,730.0 553.6,726.9 581.1,710.1 581.1,718.8 581.1,719.0 636.0,708.5 636.0,705.1 636.0,718.7 663.5,710.0 663.5,719.6 663.5,713.7 690.9,711.1 690.9,700.0 690.9,709.5 718.4,711.5 718.4,710.2 718.4,712.0 745.8,711.0 745.8,713.1 745.8,709.1 773.3,750.3 773.3,733.3 773.3,765.6" fill="none" stroke="#1f3a5f" stroke-width="1.6"/>
<circle cx="498.7" cy="750.7" r="2.6" fill="#1f3a5f"/>
<circle cx="498.7" cy="749.4" r="2.6" fill="#1f3a5f"/>
<circle cx="498.7" cy="746.1" r="2.6" fill="#1f3a5f"/>
<circle cx="526.2" cy="756.6" r="2.6" fill="#1f3a5f"/>
<circle cx="526.2" cy="744.7" r="2.6" fill="#1f3a5f"/>
<circle cx="526.2" cy="765.7" r="2.6" fill="#1f3a5f"/>
<circle cx="553.6" cy="738.0" r="2.6" fill="#1f3a5f"/>
<circle cx="553.6" cy="730.0" r="2.6" fill="#1f3a5f"/>
<circle cx="553.6" cy="726.9" r="2.6" fill="#1f3a5f"/>
<circle cx="581.1" cy="710.1" r="2.6" fill="#1f3a5f"/>
<circle cx="581.1" cy="718.8" r="2.6" fill="#1f3a5f"/>
<circle cx="581.1" cy="719.0" r="2.6" fill="#1f3a5f"/>
<circle cx="636.0" cy="708.5" r="2.6" fill="#1f3a5f"/>
<circle cx="636.0" cy="705.1" r="2.6" fill="#1f3a5f"/>
<circle cx="636.0" cy="718.7" r="2.6" fill="#1f3a5f"/>
<circle cx="663.5" cy="710.0" r="2.6" fill="#1f3a5f"/>
<circle cx="663.5" cy="719.6" r="2.6" fill="#1f3a5f"/>
<circle cx="663.5" cy="713.7" r="2.6" fill="#1f3a5f"/>
<circle cx="690.9" cy="711.1" r="2.6" fill="#1f3a5f"/>
<circle cx="690.9" cy="700.0" r="2.6" fill="#1f3a5f"/>
<circle cx="690.9" cy="709.5" r="2.6" fill="#1f3a5f"/>
<circle cx="718.4" cy="711.5" r="2.6" fill="#1f3a5f"/>
<circle cx="718.4" cy="710.2" r="2.6" fill="#1f3a5f"/>
<circle cx="718.4" cy="712.0" r="2.6" fill="#1f3a5f"/>
<circle cx="745.8" cy="711.0" r="2.6" fill="#1f3a5f"/>
<circle cx="745.8" cy="713.1" r="2.6" fill="#1f3a5f"/>
<circle cx="745.8" cy="709.1" r="2.6" fill="#1f3a5f"/>
<circle cx="773.3" cy="750.3" r="2.6" fill="#1f3a5f"/>
<circle cx="773.3" cy="733.3" r="2.6" fill="#1f3a5f"/>
<circle cx="773.3" cy="765.6" r="2.6" fill="#1f3a5f"/>
<line x1="622.3" y1="670" x2="622.3" y2="830" stroke="#b9461a" stroke-dasharray="3 3"/>
<line x1="485" y1="830" x2="787" y2="830" stroke="#444"/>
<line x1="485" y1="670" x2="485" y2="830" stroke="#444"/>
<line x1="498.7" y1="830" x2="498.7" y2="833" stroke="#444"/>
<text x="498.7" y="845" text-anchor="middle" fill="#444">-5</text>
<line x1="526.2" y1="830" x2="526.2" y2="833" stroke="#444"/>
<text x="526.2" y="845" text-anchor="middle" fill="#444">-4</text>
<line x1="553.6" y1="830" x2="553.6" y2="833" stroke="#444"/>
<text x="553.6" y="845" text-anchor="middle" fill="#444">-3</text>
<line x1="581.1" y1="830" x2="581.1" y2="833" stroke="#444"/>
<text x="581.1" y="845" text-anchor="middle" fill="#444">-2</text>
<line x1="636.0" y1="830" x2="636.0" y2="833" stroke="#444"/>
<text x="636.0" y="845" text-anchor="middle" fill="#444">0</text>
<line x1="663.5" y1="830" x2="663.5" y2="833" stroke="#444"/>
<text x="663.5" y="845" text-anchor="middle" fill="#444">1</text>
<line x1="690.9" y1="830" x2="690.9" y2="833" stroke="#444"/>
<text x="690.9" y="845" text-anchor="middle" fill="#444">2</text>
<line x1="718.4" y1="830" x2="718.4" y2="833" stroke="#444"/>
<text x="718.4" y="845" text-anchor="middle" fill="#444">3</text>
<line x1="745.8" y1="830" x2="745.8" y2="833" stroke="#444"/>
<text x="745.8" y="845" text-anchor="middle" fill="#444">4</text>
<line x1="773.3" y1="830" x2="773.3" y2="833" stroke="#444"/>
<text x="773.3" y="845" text-anchor="middle" fill="#444">5</text>
<line x1="482" y1="830.0" x2="485" y2="830.0" stroke="#444"/>
<text x="479" y="833.0" text-anchor="end" fill="#444">-1.7e+02</text>
<line x1="482" y1="790.0" x2="485" y2="790.0" stroke="#444"/>
<text x="479" y="793.0" text-anchor="end" fill="#444">-1.2e+02</text>
<line x1="482" y1="750.0" x2="485" y2="750.0" stroke="#444"/>
<text x="479" y="753.0" text-anchor="end" fill="#444">-64</text>
<line x1="482" y1="710.0" x2="485" y2="710.0" stroke="#444"/>
<text x="479" y="713.0" text-anchor="end" fill="#444">-9.9</text>
<line x1="482" y1="670.0" x2="485" y2="670.0" stroke="#444"/>
<text x="479" y="673.0" text-anchor="end" fill="#444">44</text>
<text x="636.0" y="864" text-anchor="middle" fill="#444">Event time (years from adoption)</text>
<text x="437" y="750.0" text-anchor="middle" fill="#444" transform="rotate(-90 437 750.0)">ATT (per 100k)</text>
<text x="805" y="608" text-anchor="end" fill="#888" font-size="10">Shaded band: pointwise 95% CI from cluster bootstrap. Vertical dashed line marks the year before adoption.</text>
</svg>