<svg xmlns="http://www.w3.org/2000/svg" viewBox="0 0 720 380" font-family="-apple-system, Segoe UI, Helvetica, Arial, sans-serif" font-size="12">
<rect x="0" y="0" width="720" height="380" fill="#fafaf7"/>
<text x="360.0" y="22" text-anchor="middle" font-size="14" font-weight="600">Florida (2023): Total homicide rate (per 100k)</text>
<polyline points="60.0,281.2 111.7,283.5 163.3,275.2 215.0,286.3 266.7,278.0 318.3,272.7 370.0,260.8 421.7,264.7 473.3,260.3 525.0,236.2 576.7,211.2 628.3,207.3 680.0,229.0" fill="none" stroke="#bbb" stroke-width="0.6" opacity="0.6"/>
<polyline points="60.0,210.0 111.7,191.3 163.3,208.5 215.0,226.9 266.7,217.7 318.3,211.9 370.0,222.0 421.7,225.2 473.3,220.6 525.0,180.8 576.7,180.4 628.3,194.5 680.0,217.2" fill="none" stroke="#bbb" stroke-width="0.6" opacity="0.6"/>
<polyline points="60.0,317.3 111.7,307.6 163.3,301.8 215.0,312.6 266.7,294.6 318.3,307.9 370.0,303.0 421.7,306.1 473.3,298.5 525.0,274.0 576.7,269.6 628.3,277.5 680.0,277.9" fill="none" stroke="#bbb" stroke-width="0.6" opacity="0.6"/>
<polyline points="60.0,234.1 111.7,239.5 163.3,244.2 215.0,237.4 266.7,234.2 318.3,200.5 370.0,214.2 421.7,225.9 473.3,210.6 525.0,170.4 576.7,139.8 628.3,168.1 680.0,170.3" fill="none" stroke="#bbb" stroke-width="0.6" opacity="0.6"/>
<polyline points="60.0,180.0 111.7,225.0 163.3,217.8 215.0,241.1 266.7,223.8 318.3,200.7 370.0,196.0 421.7,186.4 473.3,153.2 525.0,175.9 576.7,62.7 628.3,76.9 680.0,87.3" fill="none" stroke="#bbb" stroke-width="0.6" opacity="0.6"/>
<polyline points="60.0,235.2 111.7,248.6 163.3,219.0 215.0,215.7 266.7,211.6 318.3,176.6 370.0,150.2 421.7,200.6 473.3,245.2 525.0,221.3 576.7,180.1 628.3,190.1 680.0,187.1" fill="none" stroke="#bbb" stroke-width="0.6" opacity="0.6"/>
<polyline points="60.0,300.2 111.7,296.7 163.3,302.1 215.0,301.5 266.7,287.8 318.3,285.5 370.0,292.3 421.7,302.8 473.3,286.9 525.0,283.1 576.7,242.2 628.3,243.4 680.0,248.9" fill="none" stroke="#bbb" stroke-width="0.6" opacity="0.6"/>
<polyline points="60.0,237.3 111.7,225.7 163.3,242.5 215.0,242.7 266.7,233.2 318.3,231.6 370.0,219.9 421.7,212.7 473.3,231.4 525.0,173.5 576.7,163.3 628.3,168.2 680.0,199.8" fill="none" stroke="#bbb" stroke-width="0.6" opacity="0.6"/>
<polyline points="60.0,265.3 111.7,261.2 163.3,262.7 215.0,255.3 266.7,245.1 318.3,221.5 370.0,225.4 421.7,239.7 473.3,232.7 525.0,213.3 576.7,201.8 628.3,184.9 680.0,211.2" fill="none" stroke="#bbb" stroke-width="0.6" opacity="0.6"/>
<polyline points="60.0,295.4 111.7,278.6 163.3,295.3 215.0,292.5 266.7,280.9 318.3,289.0 370.0,280.9 421.7,278.9 473.3,288.7 525.0,261.7 576.7,253.6 628.3,234.6 680.0,241.8" fill="none" stroke="#bbb" stroke-width="0.6" opacity="0.6"/>
<polyline points="60.0,294.8 111.7,283.0 163.3,285.5 215.0,287.2 266.7,256.2 318.3,259.3 370.0,274.9 421.7,281.6 473.3,276.5 525.0,231.4 576.7,223.3 628.3,227.3 680.0,237.8" fill="none" stroke="#bbb" stroke-width="0.6" opacity="0.6"/>
<polyline points="60.0,245.3 111.7,233.8 163.3,237.6 215.0,250.7 266.7,239.6 318.3,235.4 370.0,235.9 421.7,245.7 473.3,247.1 525.0,214.1 576.7,206.8 628.3,218.5 680.0,231.0" fill="none" stroke="#1f3a5f" stroke-width="2" stroke-dasharray="6 4"/>
<polyline points="60.0,234.1 111.7,232.7 163.3,238.5 215.0,239.1 266.7,234.5 318.3,229.2 370.0,236.7 421.7,232.9 473.3,232.7 525.0,216.9 576.7,253.3 628.3,229.4 680.0,241.5" fill="none" stroke="#b9461a" stroke-width="2.4"/>
<line x1="654.2" y1="50" x2="654.2" y2="330" stroke="#1f2024" stroke-width="0.8" stroke-dasharray="4 3"/>
<text x="654.2" y="45" text-anchor="middle" fill="#1f2024" font-size="10">adoption (2023)</text>
<line x1="60" y1="330" x2="680" y2="330" stroke="#444"/>
<line x1="60" y1="50" x2="60" y2="330" stroke="#444"/>
<line x1="60.0" y1="330" x2="60.0" y2="334" stroke="#444"/>
<text x="60.0" y="348" text-anchor="middle" fill="#444">2011</text>
<line x1="163.3" y1="330" x2="163.3" y2="334" stroke="#444"/>
<text x="163.3" y="348" text-anchor="middle" fill="#444">2013</text>
<line x1="266.7" y1="330" x2="266.7" y2="334" stroke="#444"/>
<text x="266.7" y="348" text-anchor="middle" fill="#444">2015</text>
<line x1="370.0" y1="330" x2="370.0" y2="334" stroke="#444"/>
<text x="370.0" y="348" text-anchor="middle" fill="#444">2017</text>
<line x1="473.3" y1="330" x2="473.3" y2="334" stroke="#444"/>
<text x="473.3" y="348" text-anchor="middle" fill="#444">2019</text>
<line x1="576.7" y1="330" x2="576.7" y2="334" stroke="#444"/>
<text x="576.7" y="348" text-anchor="middle" fill="#444">2021</text>
<line x1="680.0" y1="330" x2="680.0" y2="334" stroke="#444"/>
<text x="680.0" y="348" text-anchor="middle" fill="#444">2023</text>
<line x1="56" y1="330.0" x2="60" y2="330.0" stroke="#444"/>
<text x="53" y="333.0" text-anchor="end" fill="#444">0.83</text>
<line x1="56" y1="260.0" x2="60" y2="260.0" stroke="#444"/>
<text x="53" y="263.0" text-anchor="end" fill="#444">4</text>
<line x1="56" y1="190.0" x2="60" y2="190.0" stroke="#444"/>
<text x="53" y="193.0" text-anchor="end" fill="#444">7.2</text>
<line x1="56" y1="120.0" x2="60" y2="120.0" stroke="#444"/>
<text x="53" y="123.0" text-anchor="end" fill="#444">10</text>
<line x1="56" y1="50.0" x2="60" y2="50.0" stroke="#444"/>
<text x="53" y="53.0" text-anchor="end" fill="#444">13</text>
<rect x="520" y="60" width="190" height="60" fill="white" stroke="#e2e2dc"/>
<line x1="530" y1="75" x2="560" y2="75" stroke="#b9461a" stroke-width="2.4"/>
<text x="565" y="79" font-size="11">Florida (treated)</text>
<line x1="530" y1="95" x2="560" y2="95" stroke="#1f3a5f" stroke-width="2" stroke-dasharray="6 4"/>
<text x="565" y="99" font-size="11">Synthetic counterfactual</text>
<line x1="530" y1="112" x2="560" y2="112" stroke="#bbb" stroke-width="0.6"/>
<text x="565" y="116" font-size="10">Donor states (gray)</text>
</svg>