<svg xmlns="http://www.w3.org/2000/svg" viewBox="0 0 720 380" font-family="-apple-system, Segoe UI, Helvetica, Arial, sans-serif" font-size="12">
<rect x="0" y="0" width="720" height="380" fill="#fafaf7"/>
<text x="360.0" y="22" text-anchor="middle" font-size="14" font-weight="600">Florida (2023): Motor vehicle theft rate (per 100k) [placebo]</text>
<polyline points="60.0,272.7 111.7,266.1 163.3,264.5 215.0,265.3 266.7,243.9 318.3,221.6 370.0,208.6 421.7,210.1 473.3,213.6 525.0,160.0 576.7,91.7 628.3,62.7 680.0,110.7" fill="none" stroke="#bbb" stroke-width="0.6" opacity="0.6"/>
<polyline points="60.0,259.2 111.7,258.6 163.3,262.4 215.0,273.1 266.7,282.0 318.3,276.7 370.0,279.5 421.7,287.3 473.3,285.9 525.0,283.8 576.7,272.5 628.3,253.1 680.0,248.6" fill="none" stroke="#bbb" stroke-width="0.6" opacity="0.6"/>
<polyline points="60.0,295.5 111.7,293.8 163.3,297.5 215.0,295.2 266.7,298.0 318.3,293.5 370.0,285.6 421.7,285.2 473.3,278.3 525.0,259.9 576.7,259.4 628.3,245.6 680.0,253.8" fill="none" stroke="#bbb" stroke-width="0.6" opacity="0.6"/>
<polyline points="60.0,287.6 111.7,290.8 163.3,297.8 215.0,301.1 266.7,302.3 318.3,296.1 370.0,293.9 421.7,293.2 473.3,285.9 525.0,280.5 576.7,282.4 628.3,278.6 680.0,255.2" fill="none" stroke="#bbb" stroke-width="0.6" opacity="0.6"/>
<polyline points="60.0,256.4 111.7,255.5 163.3,246.6 215.0,241.1 266.7,199.6 318.3,145.8 370.0,147.2 421.7,176.4 473.3,188.7 525.0,195.2 576.7,176.0 628.3,154.4 680.0,162.0" fill="none" stroke="#bbb" stroke-width="0.6" opacity="0.6"/>
<polyline points="60.0,222.7 111.7,218.5 163.3,220.5 215.0,220.3 266.7,207.6 318.3,187.9 370.0,194.0 421.7,207.6 473.3,218.2 525.0,228.5 576.7,193.5 628.3,171.3 680.0,102.7" fill="none" stroke="#bbb" stroke-width="0.6" opacity="0.6"/>
<polyline points="60.0,265.3 111.7,255.3 163.3,259.1 215.0,256.8 266.7,254.2 318.3,232.5 370.0,201.5 421.7,205.6 473.3,216.9 525.0,208.5 576.7,178.8 628.3,151.3 680.0,200.4" fill="none" stroke="#bbb" stroke-width="0.6" opacity="0.6"/>
<polyline points="60.0,302.8 111.7,307.9 163.3,311.8 215.0,313.9 266.7,316.5 318.3,313.8 370.0,314.1 421.7,313.7 473.3,315.7 525.0,307.0 576.7,302.6 628.3,290.9 680.0,254.9" fill="none" stroke="#bbb" stroke-width="0.6" opacity="0.6"/>
<polyline points="60.0,307.1 111.7,310.4 163.3,313.1 215.0,317.3 266.7,315.4 318.3,308.4 370.0,307.2 421.7,304.9 473.3,307.1 525.0,305.0 576.7,302.8 628.3,291.9 680.0,287.8" fill="none" stroke="#bbb" stroke-width="0.6" opacity="0.6"/>
<polyline points="60.0,218.5 111.7,210.1 163.3,202.5 215.0,193.4 266.7,213.8 318.3,189.3 370.0,206.9 421.7,216.0 473.3,232.4 525.0,221.3 576.7,183.4 628.3,117.5 680.0,103.1" fill="none" stroke="#bbb" stroke-width="0.6" opacity="0.6"/>
<polyline points="60.0,298.3 111.7,298.7 163.3,304.2 215.0,288.4 266.7,281.6 318.3,288.2 370.0,291.5 421.7,296.6 473.3,303.9 525.0,292.4 576.7,236.6 628.3,268.5 680.0,288.8" fill="none" stroke="#bbb" stroke-width="0.6" opacity="0.6"/>
<polyline points="60.0,269.2 111.7,267.9 163.3,270.1 215.0,267.0 266.7,259.2 318.3,247.1 370.0,248.0 421.7,255.6 473.3,260.1 525.0,254.8 576.7,227.8 628.3,219.1 680.0,205.9" fill="none" stroke="#1f3a5f" stroke-width="2" stroke-dasharray="6 4"/>
<polyline points="60.0,275.4 111.7,280.6 163.3,286.2 215.0,284.8 266.7,277.9 318.3,275.0 370.0,276.5 421.7,280.4 473.3,284.8 525.0,286.9 576.7,315.0 628.3,303.3 680.0,301.3" fill="none" stroke="#b9461a" stroke-width="2.4"/>
<line x1="654.2" y1="50" x2="654.2" y2="330" stroke="#1f2024" stroke-width="0.8" stroke-dasharray="4 3"/>
<text x="654.2" y="45" text-anchor="middle" fill="#1f2024" font-size="10">adoption (2023)</text>
<line x1="60" y1="330" x2="680" y2="330" stroke="#444"/>
<line x1="60" y1="50" x2="60" y2="330" stroke="#444"/>
<line x1="60.0" y1="330" x2="60.0" y2="334" stroke="#444"/>
<text x="60.0" y="348" text-anchor="middle" fill="#444">2011</text>
<line x1="163.3" y1="330" x2="163.3" y2="334" stroke="#444"/>
<text x="163.3" y="348" text-anchor="middle" fill="#444">2013</text>
<line x1="266.7" y1="330" x2="266.7" y2="334" stroke="#444"/>
<text x="266.7" y="348" text-anchor="middle" fill="#444">2015</text>
<line x1="370.0" y1="330" x2="370.0" y2="334" stroke="#444"/>
<text x="370.0" y="348" text-anchor="middle" fill="#444">2017</text>
<line x1="473.3" y1="330" x2="473.3" y2="334" stroke="#444"/>
<text x="473.3" y="348" text-anchor="middle" fill="#444">2019</text>
<line x1="576.7" y1="330" x2="576.7" y2="334" stroke="#444"/>
<text x="576.7" y="348" text-anchor="middle" fill="#444">2021</text>
<line x1="680.0" y1="330" x2="680.0" y2="334" stroke="#444"/>
<text x="680.0" y="348" text-anchor="middle" fill="#444">2023</text>
<line x1="56" y1="330.0" x2="60" y2="330.0" stroke="#444"/>
<text x="53" y="333.0" text-anchor="end" fill="#444">58</text>
<line x1="56" y1="260.0" x2="60" y2="260.0" stroke="#444"/>
<text x="53" y="263.0" text-anchor="end" fill="#444">2.5e+02</text>
<line x1="56" y1="190.0" x2="60" y2="190.0" stroke="#444"/>
<text x="53" y="193.0" text-anchor="end" fill="#444">4.4e+02</text>
<line x1="56" y1="120.0" x2="60" y2="120.0" stroke="#444"/>
<text x="53" y="123.0" text-anchor="end" fill="#444">6.3e+02</text>
<line x1="56" y1="50.0" x2="60" y2="50.0" stroke="#444"/>
<text x="53" y="53.0" text-anchor="end" fill="#444">8.3e+02</text>
<rect x="520" y="60" width="190" height="60" fill="white" stroke="#e2e2dc"/>
<line x1="530" y1="75" x2="560" y2="75" stroke="#b9461a" stroke-width="2.4"/>
<text x="565" y="79" font-size="11">Florida (treated)</text>
<line x1="530" y1="95" x2="560" y2="95" stroke="#1f3a5f" stroke-width="2" stroke-dasharray="6 4"/>
<text x="565" y="99" font-size="11">Synthetic counterfactual</text>
<line x1="530" y1="112" x2="560" y2="112" stroke="#bbb" stroke-width="0.6"/>
<text x="565" y="116" font-size="10">Donor states (gray)</text>
</svg>