<svg xmlns="http://www.w3.org/2000/svg" viewBox="0 0 720 380" font-family="-apple-system, Segoe UI, Helvetica, Arial, sans-serif" font-size="12">
<rect x="0" y="0" width="720" height="380" fill="#fafaf7"/>
<text x="360.0" y="22" text-anchor="middle" font-size="14" font-weight="600">Florida (2023): Total suicide rate (per 100k) [net effect]</text>
<polyline points="60.0,206.5 111.7,159.5 163.3,182.0 215.0,160.6 266.7,164.3 318.3,144.0 370.0,144.4 421.7,116.5 473.3,111.2 525.0,118.2 576.7,91.5 628.3,124.4 680.0,126.7" fill="none" stroke="#bbb" stroke-width="0.6" opacity="0.6"/>
<polyline points="60.0,313.8 111.7,304.6 163.3,299.6 215.0,288.5 266.7,278.0 318.3,287.4 370.0,268.6 421.7,252.4 473.3,268.5 525.0,271.4 576.7,265.4 628.3,262.2 680.0,258.2" fill="none" stroke="#bbb" stroke-width="0.6" opacity="0.6"/>
<polyline points="60.0,307.5 111.7,317.3 163.3,309.4 215.0,308.2 266.7,294.2 318.3,290.4 370.0,279.9 421.7,296.7 473.3,266.8 525.0,292.3 576.7,278.2 628.3,260.8 680.0,278.4" fill="none" stroke="#bbb" stroke-width="0.6" opacity="0.6"/>
<polyline points="60.0,310.2 111.7,297.9 163.3,299.2 215.0,288.4 266.7,280.7 318.3,291.4 370.0,266.8 421.7,274.7 473.3,302.6 525.0,288.5 576.7,286.3 628.3,260.0 680.0,267.6" fill="none" stroke="#bbb" stroke-width="0.6" opacity="0.6"/>
<polyline points="60.0,161.6 111.7,141.8 163.3,152.0 215.0,135.4 266.7,88.1 318.3,114.1 370.0,97.0 421.7,62.7 473.3,78.7 525.0,79.0 576.7,65.0 628.3,71.5 680.0,105.9" fill="none" stroke="#bbb" stroke-width="0.6" opacity="0.6"/>
<polyline points="60.0,189.4 111.7,189.2 163.3,182.2 215.0,164.7 266.7,181.0 318.3,128.8 370.0,149.8 421.7,136.8 473.3,150.5 525.0,180.6 576.7,127.3 628.3,126.7 680.0,136.6" fill="none" stroke="#bbb" stroke-width="0.6" opacity="0.6"/>
<polyline points="60.0,223.9 111.7,192.5 163.3,208.1 215.0,170.7 266.7,189.7 318.3,186.9 370.0,166.5 421.7,165.9 473.3,140.0 525.0,172.7 576.7,147.6 628.3,149.6 680.0,148.0" fill="none" stroke="#bbb" stroke-width="0.6" opacity="0.6"/>
<polyline points="60.0,286.6 111.7,301.8 163.3,280.9 215.0,276.6 266.7,265.9 318.3,253.9 370.0,244.9 421.7,247.5 473.3,265.0 525.0,295.1 576.7,271.3 628.3,260.3 680.0,257.9" fill="none" stroke="#bbb" stroke-width="0.6" opacity="0.6"/>
<polyline points="60.0,299.8 111.7,300.5 163.3,300.8 215.0,291.5 266.7,295.1 318.3,284.0 370.0,283.1 421.7,269.9 473.3,294.2 525.0,281.0 576.7,286.1 628.3,282.4 680.0,276.2" fill="none" stroke="#bbb" stroke-width="0.6" opacity="0.6"/>
<polyline points="60.0,264.6 111.7,262.3 163.3,266.5 215.0,246.9 266.7,246.4 318.3,248.7 370.0,212.9 421.7,232.2 473.3,231.8 525.0,246.8 576.7,244.6 628.3,243.1 680.0,234.7" fill="none" stroke="#bbb" stroke-width="0.6" opacity="0.6"/>
<polyline points="60.0,299.1 111.7,307.2 163.3,265.2 215.0,293.1 266.7,257.6 318.3,264.6 370.0,245.1 421.7,256.1 473.3,270.8 525.0,264.3 576.7,253.9 628.3,248.8 680.0,251.5" fill="none" stroke="#bbb" stroke-width="0.6" opacity="0.6"/>
<polyline points="60.0,272.8 111.7,271.7 163.3,270.3 215.0,255.6 266.7,257.7 318.3,248.7 370.0,236.3 421.7,235.7 473.3,246.0 525.0,256.1 576.7,246.9 628.3,243.2 680.0,238.8" fill="none" stroke="#1f3a5f" stroke-width="2" stroke-dasharray="6 4"/>
<polyline points="60.0,259.2 111.7,250.9 163.3,261.8 215.0,256.4 266.7,245.7 318.3,256.6 370.0,254.1 421.7,227.6 473.3,239.5 525.0,272.5 576.7,254.6 628.3,253.7 680.0,245.8" fill="none" stroke="#b9461a" stroke-width="2.4"/>
<line x1="654.2" y1="50" x2="654.2" y2="330" stroke="#1f2024" stroke-width="0.8" stroke-dasharray="4 3"/>
<text x="654.2" y="45" text-anchor="middle" fill="#1f2024" font-size="10">adoption (2023)</text>
<line x1="60" y1="330" x2="680" y2="330" stroke="#444"/>
<line x1="60" y1="50" x2="60" y2="330" stroke="#444"/>
<line x1="60.0" y1="330" x2="60.0" y2="334" stroke="#444"/>
<text x="60.0" y="348" text-anchor="middle" fill="#444">2011</text>
<line x1="163.3" y1="330" x2="163.3" y2="334" stroke="#444"/>
<text x="163.3" y="348" text-anchor="middle" fill="#444">2013</text>
<line x1="266.7" y1="330" x2="266.7" y2="334" stroke="#444"/>
<text x="266.7" y="348" text-anchor="middle" fill="#444">2015</text>
<line x1="370.0" y1="330" x2="370.0" y2="334" stroke="#444"/>
<text x="370.0" y="348" text-anchor="middle" fill="#444">2017</text>
<line x1="473.3" y1="330" x2="473.3" y2="334" stroke="#444"/>
<text x="473.3" y="348" text-anchor="middle" fill="#444">2019</text>
<line x1="576.7" y1="330" x2="576.7" y2="334" stroke="#444"/>
<text x="576.7" y="348" text-anchor="middle" fill="#444">2021</text>
<line x1="680.0" y1="330" x2="680.0" y2="334" stroke="#444"/>
<text x="680.0" y="348" text-anchor="middle" fill="#444">2023</text>
<line x1="56" y1="330.0" x2="60" y2="330.0" stroke="#444"/>
<text x="53" y="333.0" text-anchor="end" fill="#444">11</text>
<line x1="56" y1="260.0" x2="60" y2="260.0" stroke="#444"/>
<text x="53" y="263.0" text-anchor="end" fill="#444">15</text>
<line x1="56" y1="190.0" x2="60" y2="190.0" stroke="#444"/>
<text x="53" y="193.0" text-anchor="end" fill="#444">19</text>
<line x1="56" y1="120.0" x2="60" y2="120.0" stroke="#444"/>
<text x="53" y="123.0" text-anchor="end" fill="#444">22</text>
<line x1="56" y1="50.0" x2="60" y2="50.0" stroke="#444"/>
<text x="53" y="53.0" text-anchor="end" fill="#444">26</text>
<rect x="520" y="60" width="190" height="60" fill="white" stroke="#e2e2dc"/>
<line x1="530" y1="75" x2="560" y2="75" stroke="#b9461a" stroke-width="2.4"/>
<text x="565" y="79" font-size="11">Florida (treated)</text>
<line x1="530" y1="95" x2="560" y2="95" stroke="#1f3a5f" stroke-width="2" stroke-dasharray="6 4"/>
<text x="565" y="99" font-size="11">Synthetic counterfactual</text>
<line x1="530" y1="112" x2="560" y2="112" stroke="#bbb" stroke-width="0.6"/>
<text x="565" y="116" font-size="10">Donor states (gray)</text>
</svg>