<svg xmlns="http://www.w3.org/2000/svg" viewBox="0 0 720 380" font-family="-apple-system, Segoe UI, Helvetica, Arial, sans-serif" font-size="12">
<rect x="0" y="0" width="720" height="380" fill="#fafaf7"/>
<text x="360.0" y="22" text-anchor="middle" font-size="14" font-weight="600">Washington (2019): Firearm suicide rate (per 100k)</text>
<polyline points="60.0,170.8 98.8,127.4 137.5,204.4 176.2,152.7 215.0,171.5 253.8,175.7 292.5,135.4 331.2,145.2 370.0,130.8 408.8,150.4 447.5,138.7 486.2,160.4 525.0,139.9 563.8,109.7 602.5,93.9 641.2,146.4 680.0,135.8" fill="none" stroke="#bbb" stroke-width="0.6" opacity="0.6"/>
<polyline points="60.0,242.3 98.8,234.9 137.5,220.1 176.2,229.4 215.0,230.6 253.8,217.4 292.5,216.6 331.2,224.1 370.0,210.5 408.8,204.4 447.5,198.3 486.2,204.6 525.0,207.7 563.8,208.5 602.5,190.2 641.2,193.6 680.0,193.9" fill="none" stroke="#bbb" stroke-width="0.6" opacity="0.6"/>
<polyline points="60.0,241.6 98.8,227.5 137.5,224.3 176.2,234.5 215.0,220.0 253.8,216.8 292.5,210.3 331.2,210.2 370.0,202.0 408.8,207.6 447.5,180.5 486.2,202.5 525.0,204.6 563.8,194.8 602.5,182.3 641.2,206.1 680.0,183.4" fill="none" stroke="#bbb" stroke-width="0.6" opacity="0.6"/>
<polyline points="60.0,240.2 98.8,245.8 137.5,233.8 176.2,226.6 215.0,217.0 253.8,220.8 292.5,224.0 331.2,220.4 370.0,217.6 408.8,210.2 447.5,204.7 486.2,206.2 525.0,207.1 563.8,206.1 602.5,193.8 641.2,176.9 680.0,184.9" fill="none" stroke="#bbb" stroke-width="0.6" opacity="0.6"/>
<polyline points="60.0,267.7 98.8,272.6 137.5,256.1 176.2,258.1 215.0,256.1 253.8,256.0 292.5,257.2 331.2,245.5 370.0,249.2 408.8,243.8 447.5,240.3 486.2,231.0 525.0,236.3 563.8,239.4 602.5,217.9 641.2,227.9 680.0,221.3" fill="none" stroke="#bbb" stroke-width="0.6" opacity="0.6"/>
<polyline points="60.0,225.1 98.8,225.5 137.5,203.4 176.2,200.3 215.0,215.1 253.8,208.3 292.5,189.3 331.2,206.8 370.0,181.3 408.8,184.3 447.5,164.5 486.2,163.9 525.0,188.3 563.8,151.4 602.5,170.8 641.2,158.3 680.0,147.8" fill="none" stroke="#bbb" stroke-width="0.6" opacity="0.6"/>
<polyline points="60.0,314.8 98.8,313.4 137.5,317.3 176.2,312.7 215.0,310.8 253.8,307.7 292.5,307.1 331.2,303.2 370.0,307.1 408.8,305.7 447.5,298.1 486.2,298.2 525.0,301.5 563.8,300.7 602.5,289.0 641.2,286.4 680.0,285.2" fill="none" stroke="#bbb" stroke-width="0.6" opacity="0.6"/>
<polyline points="60.0,275.1 98.8,263.0 137.5,262.0 176.2,263.5 215.0,273.3 253.8,252.1 292.5,250.5 331.2,249.9 370.0,252.6 408.8,237.5 447.5,235.4 486.2,239.2 525.0,243.6 563.8,236.0 602.5,219.7 641.2,220.9 680.0,208.6" fill="none" stroke="#bbb" stroke-width="0.6" opacity="0.6"/>
<polyline points="60.0,254.5 98.8,269.2 137.5,262.4 176.2,258.8 215.0,248.4 253.8,218.4 292.5,245.5 331.2,247.3 370.0,254.2 408.8,238.4 447.5,210.8 486.2,222.0 525.0,222.6 563.8,211.8 602.5,198.5 641.2,196.5 680.0,210.9" fill="none" stroke="#bbb" stroke-width="0.6" opacity="0.6"/>
<polyline points="60.0,223.1 98.8,233.1 137.5,231.5 176.2,231.9 215.0,217.4 253.8,212.7 292.5,218.2 331.2,213.5 370.0,204.9 408.8,206.5 447.5,214.8 486.2,203.3 525.0,223.0 563.8,200.8 602.5,197.0 641.2,199.6 680.0,196.1" fill="none" stroke="#bbb" stroke-width="0.6" opacity="0.6"/>
<polyline points="60.0,252.7 98.8,250.6 137.5,259.6 176.2,243.2 215.0,246.7 253.8,247.9 292.5,238.7 331.2,228.7 370.0,222.2 408.8,230.7 447.5,229.6 486.2,222.2 525.0,228.0 563.8,239.8 602.5,222.4 641.2,213.9 680.0,214.6" fill="none" stroke="#bbb" stroke-width="0.6" opacity="0.6"/>
<polyline points="60.0,266.1 98.8,252.4 137.5,249.4 176.2,261.7 215.0,243.0 253.8,244.1 292.5,218.1 331.2,240.1 370.0,227.6 408.8,244.3 447.5,204.5 486.2,208.9 525.0,212.6 563.8,225.5 602.5,202.4 641.2,205.7 680.0,204.7" fill="none" stroke="#bbb" stroke-width="0.6" opacity="0.6"/>
<polyline points="60.0,283.9 98.8,281.7 137.5,280.7 176.2,276.4 215.0,273.8 253.8,273.3 292.5,266.4 331.2,266.9 370.0,264.1 408.8,260.7 447.5,265.9 486.2,249.1 525.0,257.8 563.8,255.0 602.5,249.1 641.2,244.8 680.0,246.0" fill="none" stroke="#bbb" stroke-width="0.6" opacity="0.6"/>
<polyline points="60.0,289.9 98.8,283.9 137.5,286.7 176.2,287.5 215.0,277.2 253.8,280.8 292.5,274.0 331.2,282.4 370.0,283.9 408.8,277.3 447.5,270.0 486.2,272.8 525.0,274.7 563.8,274.0 602.5,265.5 641.2,263.4 680.0,269.4" fill="none" stroke="#bbb" stroke-width="0.6" opacity="0.6"/>
<polyline points="60.0,254.3 98.8,262.1 137.5,251.8 176.2,247.7 215.0,242.6 253.8,235.3 292.5,233.5 331.2,226.6 370.0,223.2 408.8,213.3 447.5,202.3 486.2,197.0 525.0,207.4 563.8,202.6 602.5,193.5 641.2,180.5 680.0,194.7" fill="none" stroke="#bbb" stroke-width="0.6" opacity="0.6"/>
<polyline points="60.0,228.5 98.8,226.1 137.5,234.7 176.2,241.3 215.0,236.2 253.8,223.6 292.5,231.7 331.2,244.7 370.0,225.8 408.8,236.7 447.5,224.0 486.2,215.8 525.0,217.6 563.8,231.1 602.5,204.6 641.2,219.7 680.0,208.6" fill="none" stroke="#bbb" stroke-width="0.6" opacity="0.6"/>
<polyline points="60.0,187.6 98.8,172.3 137.5,168.1 176.2,163.9 215.0,150.5 253.8,150.5 292.5,160.8 331.2,159.7 370.0,128.2 408.8,146.2 447.5,80.9 486.2,152.8 525.0,138.5 563.8,119.3 602.5,62.7 641.2,88.9 680.0,109.4" fill="none" stroke="#bbb" stroke-width="0.6" opacity="0.6"/>
<polyline points="60.0,267.9 98.8,260.3 137.5,260.6 176.2,258.1 215.0,256.3 253.8,260.0 292.5,252.3 331.2,254.9 370.0,252.2 408.8,253.2 447.5,247.6 486.2,244.4 525.0,257.6 563.8,246.0 602.5,240.8 641.2,232.6 680.0,233.6" fill="none" stroke="#bbb" stroke-width="0.6" opacity="0.6"/>
<polyline points="60.0,254.7 98.8,242.1 137.5,253.7 176.2,245.5 215.0,257.5 253.8,236.2 292.5,215.5 331.2,201.9 370.0,221.9 408.8,223.9 447.5,190.6 486.2,224.3 525.0,217.4 563.8,221.6 602.5,179.6 641.2,176.8 680.0,211.8" fill="none" stroke="#bbb" stroke-width="0.6" opacity="0.6"/>
<polyline points="60.0,285.8 98.8,271.2 137.5,274.9 176.2,253.5 215.0,281.8 253.8,258.0 292.5,275.9 331.2,246.0 370.0,249.4 408.8,233.3 447.5,224.8 486.2,223.1 525.0,226.5 563.8,241.2 602.5,250.0 641.2,228.0 680.0,240.3" fill="none" stroke="#bbb" stroke-width="0.6" opacity="0.6"/>
<polyline points="60.0,228.0 98.8,224.8 137.5,228.6 176.2,223.7 215.0,214.0 253.8,208.3 292.5,213.6 331.2,199.0 370.0,178.5 408.8,199.4 447.5,188.0 486.2,175.5 525.0,173.6 563.8,162.1 602.5,161.8 641.2,160.8 680.0,175.8" fill="none" stroke="#bbb" stroke-width="0.6" opacity="0.6"/>
<polyline points="60.0,215.2 98.8,206.0 137.5,206.5 176.2,212.8 215.0,222.6 253.8,223.4 292.5,216.0 331.2,210.3 370.0,220.6 408.8,203.7 447.5,209.0 486.2,193.6 525.0,201.9 563.8,196.9 602.5,179.5 641.2,177.2 680.0,181.5" fill="none" stroke="#bbb" stroke-width="0.6" opacity="0.6"/>
<polyline points="60.0,240.2 98.8,229.3 137.5,224.6 176.2,222.1 215.0,200.3 253.8,211.8 292.5,205.3 331.2,205.7 370.0,195.4 408.8,178.7 447.5,206.4 486.2,197.8 525.0,195.5 563.8,174.0 602.5,170.1 641.2,175.8 680.0,166.0" fill="none" stroke="#bbb" stroke-width="0.6" opacity="0.6"/>
<polyline points="60.0,240.0 98.8,244.3 137.5,236.0 176.2,225.0 215.0,238.2 253.8,230.5 292.5,223.9 331.2,213.8 370.0,232.7 408.8,220.9 447.5,214.2 486.2,219.8 525.0,208.0 563.8,212.8 602.5,196.7 641.2,205.5 680.0,201.8" fill="none" stroke="#bbb" stroke-width="0.6" opacity="0.6"/>
<polyline points="60.0,280.5 98.8,275.0 137.5,270.0 176.2,277.5 215.0,264.7 253.8,271.8 292.5,261.2 331.2,263.6 370.0,259.9 408.8,255.0 447.5,253.4 486.2,249.9 525.0,256.5 563.8,261.2 602.5,254.7 641.2,247.7 680.0,246.2" fill="none" stroke="#bbb" stroke-width="0.6" opacity="0.6"/>
<polyline points="60.0,284.1 98.8,243.7 137.5,256.8 176.2,250.2 215.0,259.9 253.8,234.6 292.5,244.4 331.2,237.5 370.0,243.1 408.8,226.5 447.5,228.7 486.2,218.1 525.0,207.6 563.8,224.4 602.5,209.6 641.2,210.3 680.0,226.7" fill="none" stroke="#bbb" stroke-width="0.6" opacity="0.6"/>
<polyline points="60.0,238.3 98.8,225.2 137.5,234.6 176.2,233.2 215.0,233.1 253.8,226.6 292.5,216.9 331.2,224.7 370.0,227.0 408.8,220.4 447.5,214.4 486.2,219.8 525.0,209.7 563.8,206.8 602.5,199.2 641.2,197.7 680.0,191.0" fill="none" stroke="#bbb" stroke-width="0.6" opacity="0.6"/>
<polyline points="60.0,278.9 98.8,274.9 137.5,272.2 176.2,266.9 215.0,269.8 253.8,268.0 292.5,267.5 331.2,268.8 370.0,260.2 408.8,260.5 447.5,255.2 486.2,251.6 525.0,253.9 563.8,252.9 602.5,242.4 641.2,239.2 680.0,239.3" fill="none" stroke="#bbb" stroke-width="0.6" opacity="0.6"/>
<polyline points="60.0,257.6 98.8,261.5 137.5,252.8 176.2,223.1 215.0,229.2 253.8,223.7 292.5,220.1 331.2,230.1 370.0,216.3 408.8,220.7 447.5,207.4 486.2,212.5 525.0,218.8 563.8,216.5 602.5,210.1 641.2,205.0 680.0,194.6" fill="none" stroke="#bbb" stroke-width="0.6" opacity="0.6"/>
<polyline points="60.0,273.2 98.8,267.3 137.5,268.1 176.2,261.0 215.0,257.4 253.8,261.4 292.5,260.0 331.2,256.6 370.0,256.7 408.8,250.3 447.5,250.9 486.2,250.4 525.0,253.5 563.8,248.4 602.5,247.4 641.2,245.5 680.0,245.1" fill="none" stroke="#bbb" stroke-width="0.6" opacity="0.6"/>
<polyline points="60.0,277.1 98.8,276.0 137.5,276.1 176.2,268.6 215.0,275.5 253.8,276.5 292.5,255.4 331.2,276.0 370.0,259.0 408.8,251.7 447.5,256.8 486.2,260.7 525.0,259.2 563.8,255.8 602.5,246.8 641.2,236.8 680.0,243.6" fill="none" stroke="#bbb" stroke-width="0.6" opacity="0.6"/>
<polyline points="60.0,270.1 98.8,268.4 137.5,267.9 176.2,265.0 215.0,263.1 253.8,258.4 292.5,260.1 331.2,257.5 370.0,255.6 408.8,256.4 447.5,241.2 486.2,248.9 525.0,247.9 563.8,248.1 602.5,226.8 641.2,233.4 680.0,232.7" fill="none" stroke="#1f3a5f" stroke-width="2" stroke-dasharray="6 4"/>
<polyline points="60.0,272.2 98.8,267.8 137.5,263.0 176.2,265.1 215.0,260.4 253.8,254.5 292.5,264.7 331.2,252.7 370.0,257.0 408.8,262.8 447.5,241.3 486.2,250.7 525.0,245.0 563.8,249.5 602.5,250.4 641.2,242.7 680.0,238.2" fill="none" stroke="#b9461a" stroke-width="2.4"/>
<line x1="505.6" y1="50" x2="505.6" y2="330" stroke="#1f2024" stroke-width="0.8" stroke-dasharray="4 3"/>
<text x="505.6" y="45" text-anchor="middle" fill="#1f2024" font-size="10">adoption (2019)</text>
<line x1="60" y1="330" x2="680" y2="330" stroke="#444"/>
<line x1="60" y1="50" x2="60" y2="330" stroke="#444"/>
<line x1="60.0" y1="330" x2="60.0" y2="334" stroke="#444"/>
<text x="60.0" y="348" text-anchor="middle" fill="#444">2007</text>
<line x1="137.5" y1="330" x2="137.5" y2="334" stroke="#444"/>
<text x="137.5" y="348" text-anchor="middle" fill="#444">2009</text>
<line x1="215.0" y1="330" x2="215.0" y2="334" stroke="#444"/>
<text x="215.0" y="348" text-anchor="middle" fill="#444">2011</text>
<line x1="292.5" y1="330" x2="292.5" y2="334" stroke="#444"/>
<text x="292.5" y="348" text-anchor="middle" fill="#444">2013</text>
<line x1="370.0" y1="330" x2="370.0" y2="334" stroke="#444"/>
<text x="370.0" y="348" text-anchor="middle" fill="#444">2015</text>
<line x1="447.5" y1="330" x2="447.5" y2="334" stroke="#444"/>
<text x="447.5" y="348" text-anchor="middle" fill="#444">2017</text>
<line x1="525.0" y1="330" x2="525.0" y2="334" stroke="#444"/>
<text x="525.0" y="348" text-anchor="middle" fill="#444">2019</text>
<line x1="602.5" y1="330" x2="602.5" y2="334" stroke="#444"/>
<text x="602.5" y="348" text-anchor="middle" fill="#444">2021</text>
<line x1="680.0" y1="330" x2="680.0" y2="334" stroke="#444"/>
<text x="680.0" y="348" text-anchor="middle" fill="#444">2023</text>
<line x1="56" y1="330.0" x2="60" y2="330.0" stroke="#444"/>
<text x="53" y="333.0" text-anchor="end" fill="#444">2.2</text>
<line x1="56" y1="260.0" x2="60" y2="260.0" stroke="#444"/>
<text x="53" y="263.0" text-anchor="end" fill="#444">7.3</text>
<line x1="56" y1="190.0" x2="60" y2="190.0" stroke="#444"/>
<text x="53" y="193.0" text-anchor="end" fill="#444">12</text>
<line x1="56" y1="120.0" x2="60" y2="120.0" stroke="#444"/>
<text x="53" y="123.0" text-anchor="end" fill="#444">17</text>
<line x1="56" y1="50.0" x2="60" y2="50.0" stroke="#444"/>
<text x="53" y="53.0" text-anchor="end" fill="#444">23</text>
<rect x="520" y="60" width="190" height="60" fill="white" stroke="#e2e2dc"/>
<line x1="530" y1="75" x2="560" y2="75" stroke="#b9461a" stroke-width="2.4"/>
<text x="565" y="79" font-size="11">Washington (treated)</text>
<line x1="530" y1="95" x2="560" y2="95" stroke="#1f3a5f" stroke-width="2" stroke-dasharray="6 4"/>
<text x="565" y="99" font-size="11">Synthetic counterfactual</text>
<line x1="530" y1="112" x2="560" y2="112" stroke="#bbb" stroke-width="0.6"/>
<text x="565" y="116" font-size="10">Donor states (gray)</text>
</svg>