<svg xmlns="http://www.w3.org/2000/svg" viewBox="0 0 720 380" font-family="-apple-system, Segoe UI, Helvetica, Arial, sans-serif" font-size="12">
<rect x="0" y="0" width="720" height="380" fill="#fafaf7"/>
<text x="360.0" y="22" text-anchor="middle" font-size="14" font-weight="600">Washington (2019): Firearm homicide rate (per 100k)</text>
<polyline points="60.0,270.2 98.8,289.1 137.5,286.0 176.2,262.9 215.0,283.4 253.8,287.4 292.5,284.0 331.2,280.6 370.0,244.1 408.8,239.2 447.5,237.3 486.2,252.7 525.0,227.6 563.8,269.8 602.5,263.0 641.2,245.4 680.0,235.2" fill="none" stroke="#bbb" stroke-width="0.6" opacity="0.6"/>
<polyline points="60.0,212.2 98.8,220.9 137.5,230.6 176.2,241.1 215.0,239.0 253.8,235.6 292.5,232.9 331.2,239.8 370.0,213.7 408.8,197.1 447.5,183.7 486.2,194.1 525.0,189.7 563.8,169.8 602.5,151.6 641.2,159.1 680.0,158.1" fill="none" stroke="#bbb" stroke-width="0.6" opacity="0.6"/>
<polyline points="60.0,247.8 98.8,251.9 137.5,247.4 176.2,259.0 215.0,253.8 253.8,244.8 292.5,251.2 331.2,247.4 370.0,250.3 408.8,238.9 447.5,235.0 486.2,234.4 525.0,228.6 563.8,197.5 602.5,197.8 641.2,194.8 680.0,206.2" fill="none" stroke="#bbb" stroke-width="0.6" opacity="0.6"/>
<polyline points="60.0,245.4 98.8,251.4 137.5,272.8 176.2,262.7 215.0,265.9 253.8,267.4 292.5,268.5 331.2,276.7 370.0,272.8 408.8,261.0 447.5,261.5 486.2,264.7 525.0,266.9 563.8,251.0 602.5,241.2 641.2,231.8 680.0,246.7" fill="none" stroke="#bbb" stroke-width="0.6" opacity="0.6"/>
<polyline points="60.0,242.2 98.8,248.9 137.5,257.6 176.2,258.4 215.0,259.7 253.8,254.9 292.5,256.5 331.2,252.8 370.0,243.7 408.8,235.8 447.5,235.1 486.2,238.5 525.0,233.5 563.8,209.3 602.5,195.5 641.2,195.7 680.0,213.5" fill="none" stroke="#bbb" stroke-width="0.6" opacity="0.6"/>
<polyline points="60.0,292.4 98.8,306.3 137.5,308.9 176.2,307.4 215.0,304.3 253.8,302.8 292.5,306.1 331.2,300.7 370.0,300.2 408.8,305.8 447.5,297.0 486.2,294.5 525.0,304.3 563.8,299.0 602.5,298.4 641.2,292.1 680.0,295.7" fill="none" stroke="#bbb" stroke-width="0.6" opacity="0.6"/>
<polyline points="60.0,259.7 98.8,254.3 137.5,254.7 176.2,259.4 215.0,256.3 253.8,252.8 292.5,259.7 331.2,255.9 370.0,248.0 408.8,222.4 447.5,223.4 486.2,238.1 525.0,236.9 563.8,198.0 602.5,186.4 641.2,206.0 680.0,219.4" fill="none" stroke="#bbb" stroke-width="0.6" opacity="0.6"/>
<polyline points="60.0,266.4 98.8,269.9 137.5,268.2 176.2,273.0 215.0,277.4 253.8,267.9 292.5,258.9 331.2,266.8 370.0,260.1 408.8,245.9 447.5,245.7 486.2,247.3 525.0,249.4 563.8,222.8 602.5,219.7 641.2,229.3 680.0,235.7" fill="none" stroke="#bbb" stroke-width="0.6" opacity="0.6"/>
<polyline points="60.0,284.4 98.8,281.9 137.5,275.3 176.2,286.6 215.0,281.0 253.8,287.4 292.5,282.1 331.2,284.9 370.0,275.3 408.8,267.3 447.5,256.8 486.2,262.9 525.0,273.5 563.8,246.6 602.5,253.8 641.2,261.6 680.0,256.7" fill="none" stroke="#bbb" stroke-width="0.6" opacity="0.6"/>
<polyline points="60.0,271.2 98.8,269.0 137.5,277.6 176.2,280.2 215.0,278.1 253.8,270.6 292.5,276.9 331.2,277.0 370.0,266.7 408.8,249.4 447.5,251.4 486.2,257.7 525.0,259.4 563.8,219.3 602.5,213.4 641.2,236.7 680.0,243.8" fill="none" stroke="#bbb" stroke-width="0.6" opacity="0.6"/>
<polyline points="60.0,171.0 98.8,191.8 137.5,188.7 176.2,194.7 215.0,196.0 253.8,197.6 292.5,193.2 331.2,200.8 370.0,191.6 408.8,172.7 447.5,170.6 486.2,180.0 525.0,167.2 563.8,110.3 602.5,93.7 641.2,110.0 680.0,110.3" fill="none" stroke="#bbb" stroke-width="0.6" opacity="0.6"/>
<polyline points="60.0,302.6 98.8,305.5 137.5,302.6 176.2,304.7 215.0,302.7 253.8,302.8 292.5,304.7 331.2,307.6 370.0,303.7 408.8,309.5 447.5,307.6 486.2,308.6 525.0,304.8 563.8,303.0 602.5,306.1 641.2,299.7 680.0,284.2" fill="none" stroke="#bbb" stroke-width="0.6" opacity="0.6"/>
<polyline points="60.0,252.6 98.8,254.4 137.5,253.4 176.2,260.0 215.0,250.7 253.8,241.9 292.5,253.2 331.2,263.9 370.0,260.7 408.8,254.8 447.5,260.7 486.2,255.6 525.0,258.3 563.8,230.5 602.5,227.4 641.2,235.3 680.0,251.2" fill="none" stroke="#bbb" stroke-width="0.6" opacity="0.6"/>
<polyline points="60.0,299.9 98.8,299.8 137.5,306.0 176.2,301.5 215.0,303.1 253.8,302.7 292.5,299.2 331.2,303.4 370.0,295.7 408.8,297.9 447.5,299.3 486.2,302.1 525.0,294.0 563.8,285.9 602.5,280.4 641.2,285.1 680.0,288.6" fill="none" stroke="#bbb" stroke-width="0.6" opacity="0.6"/>
<polyline points="60.0,259.3 98.8,238.9 137.5,248.7 176.2,245.3 215.0,252.4 253.8,250.8 292.5,254.9 331.2,247.9 370.0,220.2 408.8,219.3 447.5,198.6 486.2,200.5 525.0,204.7 563.8,174.4 602.5,190.3 641.2,186.3 680.0,208.2" fill="none" stroke="#bbb" stroke-width="0.6" opacity="0.6"/>
<polyline points="60.0,220.7 98.8,210.0 137.5,231.4 176.2,228.4 215.0,221.8 253.8,224.2 292.5,224.8 331.2,206.0 370.0,203.7 408.8,195.9 447.5,190.1 486.2,179.4 525.0,159.0 563.8,100.8 602.5,62.7 641.2,93.8 680.0,101.7" fill="none" stroke="#bbb" stroke-width="0.6" opacity="0.6"/>
<polyline points="60.0,297.1 98.8,296.0 137.5,289.6 176.2,295.2 215.0,303.1 253.8,304.5 292.5,299.5 331.2,299.7 370.0,292.4 408.8,295.1 447.5,291.5 486.2,293.0 525.0,288.4 563.8,278.0 602.5,282.4 641.2,272.5 680.0,283.1" fill="none" stroke="#bbb" stroke-width="0.6" opacity="0.6"/>
<polyline points="60.0,252.2 98.8,252.1 137.5,261.4 176.2,266.5 215.0,266.6 253.8,261.6 292.5,263.4 331.2,266.7 370.0,261.2 408.8,246.5 447.5,251.9 486.2,256.7 525.0,250.9 563.8,227.0 602.5,213.7 641.2,223.4 680.0,231.3" fill="none" stroke="#bbb" stroke-width="0.6" opacity="0.6"/>
<polyline points="60.0,307.2 98.8,317.3 137.5,307.3 176.2,302.0 215.0,302.2 253.8,302.6 292.5,306.6 331.2,306.8 370.0,298.6 408.8,300.3 447.5,303.6 486.2,295.3 525.0,300.4 563.8,288.7 602.5,284.2 641.2,289.3 680.0,289.5" fill="none" stroke="#bbb" stroke-width="0.6" opacity="0.6"/>
<polyline points="60.0,266.3 98.8,261.5 137.5,258.4 176.2,269.8 215.0,272.2 253.8,267.9 292.5,266.7 331.2,270.4 370.0,261.1 408.8,247.4 447.5,255.0 486.2,233.8 525.0,220.3 563.8,226.2 602.5,177.5 641.2,184.6 680.0,185.0" fill="none" stroke="#bbb" stroke-width="0.6" opacity="0.6"/>
<polyline points="60.0,251.6 98.8,267.8 137.5,270.0 176.2,274.4 215.0,277.6 253.8,281.4 292.5,276.7 331.2,269.2 370.0,260.3 408.8,252.1 447.5,251.6 486.2,250.3 525.0,268.0 563.8,256.6 602.5,235.9 641.2,244.3 680.0,243.2" fill="none" stroke="#bbb" stroke-width="0.6" opacity="0.6"/>
<polyline points="60.0,263.6 98.8,265.3 137.5,265.6 176.2,272.3 215.0,260.9 253.8,253.9 292.5,257.8 331.2,265.2 370.0,244.6 408.8,239.2 447.5,242.6 486.2,256.9 525.0,237.3 563.8,230.3 602.5,234.4 641.2,240.6 680.0,247.3" fill="none" stroke="#bbb" stroke-width="0.6" opacity="0.6"/>
<polyline points="60.0,302.5 98.8,300.6 137.5,298.8 176.2,297.1 215.0,296.7 253.8,299.8 292.5,299.6 331.2,300.1 370.0,287.3 408.8,292.8 447.5,294.6 486.2,296.7 525.0,293.5 563.8,284.2 602.5,273.1 641.2,270.3 680.0,276.7" fill="none" stroke="#bbb" stroke-width="0.6" opacity="0.6"/>
<polyline points="60.0,259.9 98.8,263.1 137.5,268.0 176.2,266.5 215.0,265.6 253.8,262.1 292.5,268.3 331.2,270.4 370.0,264.8 408.8,263.1 447.5,256.8 486.2,258.9 525.0,262.2 563.8,238.0 602.5,232.1 641.2,234.6 680.0,248.8" fill="none" stroke="#bbb" stroke-width="0.6" opacity="0.6"/>
<polyline points="60.0,309.2 98.8,301.3 137.5,301.4 176.2,312.5 215.0,307.9 253.8,308.0 292.5,311.2 331.2,305.2 370.0,294.8 408.8,296.5 447.5,301.0 486.2,293.9 525.0,301.3 563.8,279.8 602.5,281.4 641.2,279.1 680.0,301.9" fill="none" stroke="#bbb" stroke-width="0.6" opacity="0.6"/>
<polyline points="60.0,245.6 98.8,247.7 137.5,246.4 176.2,257.9 215.0,255.2 253.8,252.1 292.5,256.1 331.2,255.4 370.0,246.5 408.8,233.3 447.5,227.8 486.2,221.5 525.0,228.0 563.8,195.4 602.5,185.4 641.2,206.3 680.0,197.2" fill="none" stroke="#bbb" stroke-width="0.6" opacity="0.6"/>
<polyline points="60.0,261.9 98.8,264.1 137.5,265.2 176.2,270.6 215.0,276.6 253.8,273.1 292.5,272.9 331.2,271.2 370.0,265.3 408.8,260.8 447.5,260.3 486.2,265.9 525.0,259.6 563.8,241.3 602.5,232.8 641.2,239.2 680.0,245.8" fill="none" stroke="#bbb" stroke-width="0.6" opacity="0.6"/>
<polyline points="60.0,297.8 98.8,306.0 137.5,303.4 176.2,304.7 215.0,304.9 253.8,304.7 292.5,302.6 331.2,301.5 370.0,299.7 408.8,297.0 447.5,295.3 486.2,303.4 525.0,296.8 563.8,287.6 602.5,290.3 641.2,299.1 680.0,294.5" fill="none" stroke="#bbb" stroke-width="0.6" opacity="0.6"/>
<polyline points="60.0,265.9 98.8,275.7 137.5,272.9 176.2,273.7 215.0,280.6 253.8,282.1 292.5,281.0 331.2,281.0 370.0,274.9 408.8,263.3 447.5,264.9 486.2,266.8 525.0,265.7 563.8,251.4 602.5,242.2 641.2,234.9 680.0,247.3" fill="none" stroke="#bbb" stroke-width="0.6" opacity="0.6"/>
<polyline points="60.0,287.0 98.8,298.8 137.5,293.8 176.2,293.3 215.0,297.9 253.8,289.0 292.5,291.5 331.2,290.2 370.0,278.3 408.8,275.4 447.5,282.0 486.2,283.4 525.0,283.5 563.8,261.5 602.5,253.8 641.2,256.9 680.0,266.1" fill="none" stroke="#bbb" stroke-width="0.6" opacity="0.6"/>
<polyline points="60.0,292.2 98.8,293.6 137.5,294.3 176.2,296.0 215.0,297.2 253.8,296.0 292.5,295.9 331.2,295.6 370.0,288.6 408.8,290.3 447.5,288.4 486.2,288.1 525.0,287.9 563.8,275.1 602.5,274.7 641.2,272.7 680.0,282.1" fill="none" stroke="#1f3a5f" stroke-width="2" stroke-dasharray="6 4"/>
<polyline points="60.0,292.6 98.8,292.3 137.5,294.5 176.2,295.5 215.0,300.7 253.8,293.6 292.5,295.9 331.2,295.4 370.0,288.2 408.8,291.5 447.5,288.6 486.2,287.7 525.0,289.4 563.8,282.0 602.5,275.1 641.2,265.6 680.0,265.4" fill="none" stroke="#b9461a" stroke-width="2.4"/>
<line x1="505.6" y1="50" x2="505.6" y2="330" stroke="#1f2024" stroke-width="0.8" stroke-dasharray="4 3"/>
<text x="505.6" y="45" text-anchor="middle" fill="#1f2024" font-size="10">adoption (2019)</text>
<line x1="60" y1="330" x2="680" y2="330" stroke="#444"/>
<line x1="60" y1="50" x2="60" y2="330" stroke="#444"/>
<line x1="60.0" y1="330" x2="60.0" y2="334" stroke="#444"/>
<text x="60.0" y="348" text-anchor="middle" fill="#444">2007</text>
<line x1="137.5" y1="330" x2="137.5" y2="334" stroke="#444"/>
<text x="137.5" y="348" text-anchor="middle" fill="#444">2009</text>
<line x1="215.0" y1="330" x2="215.0" y2="334" stroke="#444"/>
<text x="215.0" y="348" text-anchor="middle" fill="#444">2011</text>
<line x1="292.5" y1="330" x2="292.5" y2="334" stroke="#444"/>
<text x="292.5" y="348" text-anchor="middle" fill="#444">2013</text>
<line x1="370.0" y1="330" x2="370.0" y2="334" stroke="#444"/>
<text x="370.0" y="348" text-anchor="middle" fill="#444">2015</text>
<line x1="447.5" y1="330" x2="447.5" y2="334" stroke="#444"/>
<text x="447.5" y="348" text-anchor="middle" fill="#444">2017</text>
<line x1="525.0" y1="330" x2="525.0" y2="334" stroke="#444"/>
<text x="525.0" y="348" text-anchor="middle" fill="#444">2019</text>
<line x1="602.5" y1="330" x2="602.5" y2="334" stroke="#444"/>
<text x="602.5" y="348" text-anchor="middle" fill="#444">2021</text>
<line x1="680.0" y1="330" x2="680.0" y2="334" stroke="#444"/>
<text x="680.0" y="348" text-anchor="middle" fill="#444">2023</text>
<line x1="56" y1="330.0" x2="60" y2="330.0" stroke="#444"/>
<text x="53" y="333.0" text-anchor="end" fill="#444">-0.99</text>
<line x1="56" y1="260.0" x2="60" y2="260.0" stroke="#444"/>
<text x="53" y="263.0" text-anchor="end" fill="#444">4.5</text>
<line x1="56" y1="190.0" x2="60" y2="190.0" stroke="#444"/>
<text x="53" y="193.0" text-anchor="end" fill="#444">9.9</text>
<line x1="56" y1="120.0" x2="60" y2="120.0" stroke="#444"/>
<text x="53" y="123.0" text-anchor="end" fill="#444">15</text>
<line x1="56" y1="50.0" x2="60" y2="50.0" stroke="#444"/>
<text x="53" y="53.0" text-anchor="end" fill="#444">21</text>
<rect x="520" y="60" width="190" height="60" fill="white" stroke="#e2e2dc"/>
<line x1="530" y1="75" x2="560" y2="75" stroke="#b9461a" stroke-width="2.4"/>
<text x="565" y="79" font-size="11">Washington (treated)</text>
<line x1="530" y1="95" x2="560" y2="95" stroke="#1f3a5f" stroke-width="2" stroke-dasharray="6 4"/>
<text x="565" y="99" font-size="11">Synthetic counterfactual</text>
<line x1="530" y1="112" x2="560" y2="112" stroke="#bbb" stroke-width="0.6"/>
<text x="565" y="116" font-size="10">Donor states (gray)</text>
</svg>