<svg xmlns="http://www.w3.org/2000/svg" viewBox="0 0 720 380" font-family="-apple-system, Segoe UI, Helvetica, Arial, sans-serif" font-size="12">
<rect x="0" y="0" width="720" height="380" fill="#fafaf7"/>
<text x="360.0" y="22" text-anchor="middle" font-size="14" font-weight="600">Washington (2019): Total homicide rate (per 100k)</text>
<polyline points="60.0,243.2 98.8,275.2 137.5,285.8 176.2,269.7 215.0,272.3 253.8,272.8 292.5,266.0 331.2,253.1 370.0,220.1 408.8,233.4 447.5,214.9 486.2,241.8 525.0,201.0 563.8,237.7 602.5,245.4 641.2,199.1 680.0,219.9" fill="none" stroke="#bbb" stroke-width="0.6" opacity="0.6"/>
<polyline points="60.0,207.8 98.8,226.4 137.5,235.8 176.2,250.6 215.0,244.1 253.8,232.3 292.5,231.5 331.2,251.3 370.0,231.3 408.8,215.0 447.5,212.0 486.2,222.3 525.0,220.8 563.8,198.8 602.5,200.7 641.2,171.4 680.0,186.0" fill="none" stroke="#bbb" stroke-width="0.6" opacity="0.6"/>
<polyline points="60.0,233.8 98.8,250.2 137.5,244.5 176.2,266.3 215.0,254.7 253.8,248.5 292.5,256.1 331.2,248.5 370.0,242.5 408.8,230.1 447.5,216.1 486.2,228.5 525.0,222.2 563.8,184.9 602.5,179.0 641.2,189.2 680.0,198.7" fill="none" stroke="#bbb" stroke-width="0.6" opacity="0.6"/>
<polyline points="60.0,211.3 98.8,232.2 137.5,250.4 176.2,242.3 215.0,245.3 253.8,254.4 292.5,256.0 331.2,265.9 370.0,267.7 408.8,252.2 447.5,247.4 486.2,256.0 525.0,254.7 563.8,234.8 602.5,238.0 641.2,233.3 680.0,240.5" fill="none" stroke="#bbb" stroke-width="0.6" opacity="0.6"/>
<polyline points="60.0,226.2 98.8,238.9 137.5,250.4 176.2,251.0 215.0,252.7 253.8,248.8 292.5,252.1 331.2,247.0 370.0,245.8 408.8,238.9 447.5,239.9 486.2,245.1 525.0,251.3 563.8,209.1 602.5,221.6 641.2,215.1 680.0,227.1" fill="none" stroke="#bbb" stroke-width="0.6" opacity="0.6"/>
<polyline points="60.0,284.2 98.8,308.1 137.5,307.5 176.2,309.5 215.0,298.6 253.8,303.0 292.5,304.2 331.2,302.0 370.0,302.3 408.8,289.0 447.5,295.4 486.2,302.2 525.0,307.3 563.8,298.1 602.5,297.9 641.2,291.5 680.0,294.1" fill="none" stroke="#bbb" stroke-width="0.6" opacity="0.6"/>
<polyline points="60.0,249.2 98.8,245.5 137.5,247.3 176.2,254.2 215.0,246.2 253.8,247.4 292.5,252.6 331.2,255.9 370.0,248.9 408.8,216.4 447.5,224.3 486.2,232.4 525.0,237.4 563.8,204.5 602.5,205.6 641.2,221.1 680.0,238.9" fill="none" stroke="#bbb" stroke-width="0.6" opacity="0.6"/>
<polyline points="60.0,253.7 98.8,260.1 137.5,262.7 176.2,272.5 215.0,264.9 253.8,264.9 292.5,254.9 331.2,260.1 370.0,252.7 408.8,240.4 447.5,244.4 486.2,243.9 525.0,253.4 563.8,227.2 602.5,231.0 641.2,235.9 680.0,251.1" fill="none" stroke="#bbb" stroke-width="0.6" opacity="0.6"/>
<polyline points="60.0,276.8 98.8,273.9 137.5,268.4 176.2,282.5 215.0,276.1 253.8,288.6 292.5,273.7 331.2,285.6 370.0,269.8 408.8,267.0 447.5,266.1 486.2,271.7 525.0,284.3 563.8,282.0 602.5,263.0 641.2,263.9 680.0,256.9" fill="none" stroke="#bbb" stroke-width="0.6" opacity="0.6"/>
<polyline points="60.0,262.7 98.8,264.7 137.5,270.7 176.2,269.9 215.0,281.6 253.8,266.3 292.5,275.5 331.2,278.1 370.0,261.4 408.8,247.5 447.5,247.9 486.2,252.5 525.0,259.1 563.8,230.7 602.5,216.0 641.2,230.0 680.0,241.2" fill="none" stroke="#bbb" stroke-width="0.6" opacity="0.6"/>
<polyline points="60.0,131.1 98.8,161.3 137.5,168.8 176.2,179.4 215.0,178.5 253.8,184.4 292.5,183.8 331.2,189.7 370.0,185.6 408.8,167.9 447.5,161.3 486.2,173.4 525.0,169.3 563.8,114.3 602.5,62.7 641.2,104.6 680.0,130.8" fill="none" stroke="#bbb" stroke-width="0.6" opacity="0.6"/>
<polyline points="60.0,307.9 98.8,296.6 137.5,301.8 176.2,304.0 215.0,302.0 253.8,302.0 292.5,304.0 331.2,307.1 370.0,305.1 408.8,308.1 447.5,305.2 486.2,305.2 525.0,306.4 563.8,306.4 602.5,308.8 641.2,299.2 680.0,270.4" fill="none" stroke="#bbb" stroke-width="0.6" opacity="0.6"/>
<polyline points="60.0,239.5 98.8,253.4 137.5,243.8 176.2,248.9 215.0,243.8 253.8,232.3 292.5,242.9 331.2,254.1 370.0,248.5 408.8,245.0 447.5,251.2 486.2,253.2 525.0,250.3 563.8,225.9 602.5,225.7 641.2,234.3 680.0,248.2" fill="none" stroke="#bbb" stroke-width="0.6" opacity="0.6"/>
<polyline points="60.0,298.3 98.8,300.0 137.5,309.5 176.2,304.0 215.0,309.5 253.8,303.6 292.5,300.0 331.2,306.7 370.0,295.6 408.8,303.7 447.5,300.8 486.2,302.7 525.0,298.0 563.8,283.0 602.5,280.3 641.2,285.1 680.0,285.4" fill="none" stroke="#bbb" stroke-width="0.6" opacity="0.6"/>
<polyline points="60.0,243.9 98.8,223.9 137.5,240.9 176.2,233.5 215.0,245.9 253.8,240.8 292.5,245.8 331.2,238.2 370.0,216.3 408.8,208.8 447.5,195.6 486.2,195.8 525.0,201.3 563.8,169.2 602.5,190.1 641.2,190.0 680.0,201.6" fill="none" stroke="#bbb" stroke-width="0.6" opacity="0.6"/>
<polyline points="60.0,234.7 98.8,219.6 137.5,239.4 176.2,235.4 215.0,222.9 253.8,231.8 292.5,230.2 331.2,211.2 370.0,213.8 408.8,220.9 447.5,242.4 486.2,231.2 525.0,192.9 563.8,184.6 602.5,202.6 641.2,225.7 680.0,230.4" fill="none" stroke="#bbb" stroke-width="0.6" opacity="0.6"/>
<polyline points="60.0,290.3 98.8,272.5 137.5,284.0 176.2,294.3 215.0,289.1 253.8,289.4 292.5,297.8 331.2,278.2 370.0,278.6 408.8,280.2 447.5,275.7 486.2,281.2 525.0,288.0 563.8,260.8 602.5,284.4 641.2,265.7 680.0,285.4" fill="none" stroke="#bbb" stroke-width="0.6" opacity="0.6"/>
<polyline points="60.0,241.1 98.8,240.5 137.5,257.8 176.2,261.3 215.0,258.6 253.8,261.9 292.5,264.8 331.2,260.6 370.0,258.7 408.8,238.0 447.5,246.4 486.2,253.6 525.0,244.2 563.8,219.5 602.5,200.8 641.2,218.1 680.0,219.5" fill="none" stroke="#bbb" stroke-width="0.6" opacity="0.6"/>
<polyline points="60.0,292.5 98.8,305.3 137.5,303.4 176.2,308.4 215.0,281.0 253.8,280.2 292.5,298.6 331.2,286.4 370.0,290.9 408.8,299.8 447.5,310.6 486.2,296.3 525.0,284.1 563.8,271.8 602.5,304.1 641.2,278.1 680.0,280.4" fill="none" stroke="#bbb" stroke-width="0.6" opacity="0.6"/>
<polyline points="60.0,316.2 98.8,314.1 137.5,317.3 176.2,315.1 215.0,312.1 253.8,313.1 292.5,307.0 331.2,312.2 370.0,313.2 408.8,309.2 447.5,315.5 486.2,307.5 525.0,295.6 563.8,316.6 602.5,315.8 641.2,302.3 680.0,304.4" fill="none" stroke="#bbb" stroke-width="0.6" opacity="0.6"/>
<polyline points="60.0,202.6 98.8,218.5 137.5,194.9 176.2,236.6 215.0,225.5 253.8,253.0 292.5,248.6 331.2,262.9 370.0,252.3 408.8,238.2 447.5,235.3 486.2,229.4 525.0,209.1 563.8,223.0 602.5,153.6 641.2,162.3 680.0,168.7" fill="none" stroke="#bbb" stroke-width="0.6" opacity="0.6"/>
<polyline points="60.0,226.5 98.8,242.5 137.5,248.5 176.2,249.3 215.0,259.2 253.8,267.5 292.5,249.4 331.2,247.3 370.0,244.8 408.8,223.3 447.5,207.2 486.2,238.1 525.0,265.4 563.8,250.8 602.5,225.5 641.2,231.7 680.0,229.8" fill="none" stroke="#bbb" stroke-width="0.6" opacity="0.6"/>
<polyline points="60.0,244.6 98.8,248.5 137.5,242.5 176.2,258.2 215.0,252.6 253.8,250.4 292.5,258.9 331.2,265.6 370.0,245.2 408.8,243.1 447.5,244.7 486.2,254.5 525.0,234.4 563.8,227.7 602.5,225.2 641.2,234.1 680.0,243.4" fill="none" stroke="#bbb" stroke-width="0.6" opacity="0.6"/>
<polyline points="60.0,301.0 98.8,297.4 137.5,297.3 176.2,294.6 215.0,299.1 253.8,296.9 292.5,300.2 331.2,299.9 370.0,291.5 408.8,290.0 447.5,294.2 486.2,300.6 525.0,290.9 563.8,288.6 602.5,263.5 641.2,264.3 680.0,267.6" fill="none" stroke="#bbb" stroke-width="0.6" opacity="0.6"/>
<polyline points="60.0,249.5 98.8,251.7 137.5,257.1 176.2,258.9 215.0,260.5 253.8,253.4 292.5,263.7 331.2,263.9 370.0,258.0 408.8,257.1 447.5,249.9 486.2,245.5 525.0,256.9 563.8,221.5 602.5,215.3 641.2,218.2 680.0,237.6" fill="none" stroke="#bbb" stroke-width="0.6" opacity="0.6"/>
<polyline points="60.0,275.7 98.8,266.1 137.5,278.5 176.2,290.3 215.0,295.6 253.8,291.1 292.5,299.7 331.2,292.0 370.0,276.4 408.8,284.5 447.5,286.6 486.2,310.0 525.0,304.1 563.8,267.8 602.5,287.7 641.2,268.9 680.0,290.1" fill="none" stroke="#bbb" stroke-width="0.6" opacity="0.6"/>
<polyline points="60.0,239.3 98.8,238.6 137.5,227.7 176.2,252.0 215.0,248.0 253.8,244.5 292.5,258.6 331.2,252.1 370.0,242.6 408.8,227.6 447.5,219.8 486.2,226.8 525.0,226.3 563.8,198.0 602.5,190.6 641.2,204.1 680.0,192.3" fill="none" stroke="#bbb" stroke-width="0.6" opacity="0.6"/>
<polyline points="60.0,248.0 98.8,252.2 137.5,255.8 176.2,261.5 215.0,268.8 253.8,268.8 292.5,270.2 331.2,268.6 370.0,263.4 408.8,256.7 447.5,261.3 486.2,265.7 525.0,261.5 563.8,239.4 602.5,232.8 641.2,234.8 680.0,245.3" fill="none" stroke="#bbb" stroke-width="0.6" opacity="0.6"/>
<polyline points="60.0,298.3 98.8,308.2 137.5,309.5 176.2,302.6 215.0,304.4 253.8,303.8 292.5,304.7 331.2,298.1 370.0,302.7 408.8,295.6 447.5,296.2 486.2,301.4 525.0,295.9 563.8,286.0 602.5,290.4 641.2,298.5 680.0,297.4" fill="none" stroke="#bbb" stroke-width="0.6" opacity="0.6"/>
<polyline points="60.0,255.6 98.8,264.0 137.5,264.9 176.2,265.0 215.0,277.7 253.8,275.2 292.5,276.1 331.2,271.5 370.0,265.3 408.8,250.9 447.5,253.2 486.2,262.0 525.0,257.7 563.8,245.8 602.5,238.8 641.2,228.4 680.0,244.5" fill="none" stroke="#bbb" stroke-width="0.6" opacity="0.6"/>
<polyline points="60.0,283.7 98.8,293.4 137.5,293.5 176.2,291.6 215.0,295.8 253.8,288.5 292.5,290.0 331.2,291.1 370.0,272.1 408.8,274.0 447.5,283.6 486.2,287.7 525.0,284.5 563.8,256.9 602.5,252.0 641.2,254.4 680.0,260.9" fill="none" stroke="#bbb" stroke-width="0.6" opacity="0.6"/>
<polyline points="60.0,291.2 98.8,287.7 137.5,292.3 176.2,295.6 215.0,292.8 253.8,289.4 292.5,294.6 331.2,293.7 370.0,288.7 408.8,289.6 447.5,287.9 486.2,288.4 525.0,287.8 563.8,275.1 602.5,279.0 641.2,273.9 680.0,265.2" fill="none" stroke="#1f3a5f" stroke-width="2" stroke-dasharray="6 4"/>
<polyline points="60.0,292.1 98.8,288.6 137.5,289.9 176.2,297.6 215.0,296.1 253.8,285.9 292.5,296.1 331.2,294.4 370.0,287.2 408.8,292.2 447.5,287.3 486.2,286.0 525.0,292.0 563.8,275.5 602.5,270.5 641.2,258.9 680.0,263.3" fill="none" stroke="#b9461a" stroke-width="2.4"/>
<line x1="505.6" y1="50" x2="505.6" y2="330" stroke="#1f2024" stroke-width="0.8" stroke-dasharray="4 3"/>
<text x="505.6" y="45" text-anchor="middle" fill="#1f2024" font-size="10">adoption (2019)</text>
<line x1="60" y1="330" x2="680" y2="330" stroke="#444"/>
<line x1="60" y1="50" x2="60" y2="330" stroke="#444"/>
<line x1="60.0" y1="330" x2="60.0" y2="334" stroke="#444"/>
<text x="60.0" y="348" text-anchor="middle" fill="#444">2007</text>
<line x1="137.5" y1="330" x2="137.5" y2="334" stroke="#444"/>
<text x="137.5" y="348" text-anchor="middle" fill="#444">2009</text>
<line x1="215.0" y1="330" x2="215.0" y2="334" stroke="#444"/>
<text x="215.0" y="348" text-anchor="middle" fill="#444">2011</text>
<line x1="292.5" y1="330" x2="292.5" y2="334" stroke="#444"/>
<text x="292.5" y="348" text-anchor="middle" fill="#444">2013</text>
<line x1="370.0" y1="330" x2="370.0" y2="334" stroke="#444"/>
<text x="370.0" y="348" text-anchor="middle" fill="#444">2015</text>
<line x1="447.5" y1="330" x2="447.5" y2="334" stroke="#444"/>
<text x="447.5" y="348" text-anchor="middle" fill="#444">2017</text>
<line x1="525.0" y1="330" x2="525.0" y2="334" stroke="#444"/>
<text x="525.0" y="348" text-anchor="middle" fill="#444">2019</text>
<line x1="602.5" y1="330" x2="602.5" y2="334" stroke="#444"/>
<text x="602.5" y="348" text-anchor="middle" fill="#444">2021</text>
<line x1="680.0" y1="330" x2="680.0" y2="334" stroke="#444"/>
<text x="680.0" y="348" text-anchor="middle" fill="#444">2023</text>
<line x1="56" y1="330.0" x2="60" y2="330.0" stroke="#444"/>
<text x="53" y="333.0" text-anchor="end" fill="#444">-0.11</text>
<line x1="56" y1="260.0" x2="60" y2="260.0" stroke="#444"/>
<text x="53" y="263.0" text-anchor="end" fill="#444">5.1</text>
<line x1="56" y1="190.0" x2="60" y2="190.0" stroke="#444"/>
<text x="53" y="193.0" text-anchor="end" fill="#444">10</text>
<line x1="56" y1="120.0" x2="60" y2="120.0" stroke="#444"/>
<text x="53" y="123.0" text-anchor="end" fill="#444">15</text>
<line x1="56" y1="50.0" x2="60" y2="50.0" stroke="#444"/>
<text x="53" y="53.0" text-anchor="end" fill="#444">21</text>
<rect x="520" y="60" width="190" height="60" fill="white" stroke="#e2e2dc"/>
<line x1="530" y1="75" x2="560" y2="75" stroke="#b9461a" stroke-width="2.4"/>
<text x="565" y="79" font-size="11">Washington (treated)</text>
<line x1="530" y1="95" x2="560" y2="95" stroke="#1f3a5f" stroke-width="2" stroke-dasharray="6 4"/>
<text x="565" y="99" font-size="11">Synthetic counterfactual</text>
<line x1="530" y1="112" x2="560" y2="112" stroke="#bbb" stroke-width="0.6"/>
<text x="565" y="116" font-size="10">Donor states (gray)</text>
</svg>