<svg xmlns="http://www.w3.org/2000/svg" viewBox="0 0 720 380" font-family="-apple-system, Segoe UI, Helvetica, Arial, sans-serif" font-size="12">
<rect x="0" y="0" width="720" height="380" fill="#fafaf7"/>
<text x="360.0" y="22" text-anchor="middle" font-size="14" font-weight="600">Washington (2019): Motor vehicle theft rate (per 100k) [placebo]</text>
<polyline points="60.0,223.3 98.8,260.2 137.5,258.9 176.2,263.5 215.0,274.4 253.8,269.2 292.5,262.5 331.2,260.6 370.0,247.7 408.8,205.7 447.5,155.1 486.2,164.9 525.0,223.0 563.8,250.2 602.5,258.2 641.2,256.9 680.0,250.1" fill="none" stroke="#bbb" stroke-width="0.6" opacity="0.6"/>
<polyline points="60.0,238.3 98.8,244.2 137.5,260.7 176.2,263.9 215.0,265.0 253.8,270.3 292.5,266.0 331.2,268.9 370.0,267.8 408.8,259.0 447.5,252.4 486.2,249.5 525.0,253.5 563.8,265.0 602.5,274.2 641.2,265.6 680.0,265.2" fill="none" stroke="#bbb" stroke-width="0.6" opacity="0.6"/>
<polyline points="60.0,257.2 98.8,262.7 137.5,268.4 176.2,274.8 215.0,273.0 253.8,273.6 292.5,274.3 331.2,274.9 370.0,273.2 408.8,259.2 447.5,258.9 486.2,258.5 525.0,257.0 563.8,252.6 602.5,246.9 641.2,255.5 680.0,266.0" fill="none" stroke="#bbb" stroke-width="0.6" opacity="0.6"/>
<polyline points="60.0,87.3 98.8,149.3 137.5,209.3 176.2,228.6 215.0,238.8 253.8,243.9 292.5,254.5 331.2,254.0 370.0,257.4 408.8,250.8 447.5,250.0 486.2,250.8 525.0,257.1 563.8,258.8 602.5,258.6 641.2,256.1 680.0,242.7" fill="none" stroke="#bbb" stroke-width="0.6" opacity="0.6"/>
<polyline points="60.0,195.4 98.8,206.7 137.5,229.0 176.2,236.8 215.0,239.9 253.8,244.3 292.5,249.5 331.2,248.5 370.0,251.2 408.8,254.2 447.5,256.2 486.2,259.0 525.0,268.2 563.8,259.9 602.5,274.3 641.2,269.0 680.0,253.6" fill="none" stroke="#bbb" stroke-width="0.6" opacity="0.6"/>
<polyline points="60.0,287.0 98.8,300.2 137.5,304.4 176.2,307.7 215.0,307.9 253.8,307.1 292.5,304.4 331.2,302.1 370.0,298.8 408.8,295.6 447.5,295.1 486.2,299.3 525.0,306.1 563.8,304.0 602.5,305.9 641.2,305.3 680.0,310.0" fill="none" stroke="#bbb" stroke-width="0.6" opacity="0.6"/>
<polyline points="60.0,252.0 98.8,255.5 137.5,269.7 176.2,264.0 215.0,262.9 253.8,270.5 292.5,283.6 331.2,290.8 370.0,291.2 408.8,285.9 447.5,283.2 486.2,285.5 525.0,287.3 563.8,281.3 602.5,280.4 641.2,246.0 680.0,227.6" fill="none" stroke="#bbb" stroke-width="0.6" opacity="0.6"/>
<polyline points="60.0,238.9 98.8,248.6 137.5,267.0 176.2,269.3 215.0,263.3 253.8,269.1 292.5,266.9 331.2,268.7 370.0,270.4 408.8,266.3 447.5,265.2 486.2,263.4 525.0,270.4 563.8,262.9 602.5,268.8 641.2,272.5 680.0,261.1" fill="none" stroke="#bbb" stroke-width="0.6" opacity="0.6"/>
<polyline points="60.0,237.6 98.8,251.8 137.5,268.3 176.2,268.5 215.0,261.6 253.8,260.9 292.5,262.4 331.2,259.7 370.0,259.1 408.8,254.7 447.5,255.0 486.2,249.3 525.0,260.4 563.8,256.8 602.5,250.7 641.2,259.4 680.0,246.1" fill="none" stroke="#bbb" stroke-width="0.6" opacity="0.6"/>
<polyline points="60.0,270.4 98.8,278.2 137.5,290.1 176.2,289.4 215.0,286.3 253.8,286.3 292.5,291.1 331.2,289.1 370.0,278.7 408.8,264.3 447.5,261.7 486.2,261.1 525.0,262.5 563.8,254.1 602.5,257.9 641.2,264.0 680.0,245.4" fill="none" stroke="#bbb" stroke-width="0.6" opacity="0.6"/>
<polyline points="60.0,223.2 98.8,238.3 137.5,253.8 176.2,265.8 215.0,272.1 253.8,280.8 292.5,272.4 331.2,271.1 370.0,269.2 408.8,265.5 447.5,260.1 486.2,256.3 525.0,261.5 563.8,251.0 602.5,246.0 641.2,237.1 680.0,215.1" fill="none" stroke="#bbb" stroke-width="0.6" opacity="0.6"/>
<polyline points="60.0,303.9 98.8,306.2 137.5,309.9 176.2,310.9 215.0,308.8 253.8,310.8 292.5,312.7 331.2,315.3 370.0,315.0 408.8,315.9 447.5,315.6 486.2,316.0 525.0,317.3 563.8,314.2 602.5,313.8 641.2,311.7 680.0,309.2" fill="none" stroke="#bbb" stroke-width="0.6" opacity="0.6"/>
<polyline points="60.0,204.3 98.8,222.8 137.5,242.4 176.2,247.7 215.0,255.6 253.8,255.1 292.5,258.3 331.2,267.5 370.0,275.1 408.8,270.6 447.5,272.9 486.2,279.6 525.0,278.4 563.8,276.6 602.5,266.9 641.2,250.4 680.0,246.5" fill="none" stroke="#bbb" stroke-width="0.6" opacity="0.6"/>
<polyline points="60.0,258.3 98.8,273.3 137.5,283.6 176.2,283.7 215.0,286.6 253.8,285.1 292.5,288.3 331.2,286.3 370.0,288.8 408.8,284.9 447.5,278.2 486.2,277.8 525.0,271.9 563.8,256.2 602.5,255.8 641.2,244.0 680.0,251.0" fill="none" stroke="#bbb" stroke-width="0.6" opacity="0.6"/>
<polyline points="60.0,207.5 98.8,224.8 137.5,243.5 176.2,250.3 215.0,254.6 253.8,249.7 292.5,249.9 331.2,250.0 370.0,246.9 408.8,240.6 447.5,232.5 486.2,233.1 525.0,226.2 563.8,211.7 602.5,211.1 641.2,181.4 680.0,181.6" fill="none" stroke="#bbb" stroke-width="0.6" opacity="0.6"/>
<polyline points="60.0,257.4 98.8,267.8 137.5,276.7 176.2,277.9 215.0,282.8 253.8,288.9 292.5,288.4 331.2,287.5 370.0,289.6 408.8,289.2 447.5,288.8 486.2,280.3 525.0,274.3 563.8,270.2 602.5,274.4 641.2,279.8 680.0,274.7" fill="none" stroke="#bbb" stroke-width="0.6" opacity="0.6"/>
<polyline points="60.0,267.6 98.8,276.9 137.5,282.6 176.2,285.3 215.0,288.9 253.8,281.5 292.5,276.4 331.2,271.4 370.0,261.0 408.8,251.3 447.5,257.3 486.2,251.4 525.0,263.8 563.8,257.0 602.5,248.6 641.2,263.7 680.0,274.1" fill="none" stroke="#bbb" stroke-width="0.6" opacity="0.6"/>
<polyline points="60.0,238.0 98.8,243.9 137.5,267.9 176.2,274.4 215.0,279.8 253.8,282.6 292.5,288.5 331.2,291.4 370.0,292.4 408.8,287.2 447.5,285.2 486.2,284.6 525.0,278.4 563.8,273.8 602.5,275.5 641.2,272.1 680.0,252.2" fill="none" stroke="#bbb" stroke-width="0.6" opacity="0.6"/>
<polyline points="60.0,286.3 98.8,289.9 137.5,290.1 176.2,293.8 215.0,289.3 253.8,281.7 292.5,272.4 331.2,269.0 370.0,262.7 408.8,253.6 447.5,261.4 486.2,260.5 525.0,259.1 563.8,249.7 602.5,246.9 641.2,254.0 680.0,265.1" fill="none" stroke="#bbb" stroke-width="0.6" opacity="0.6"/>
<polyline points="60.0,300.7 98.8,300.8 137.5,307.6 176.2,310.5 215.0,307.8 253.8,309.1 292.5,312.0 331.2,314.0 370.0,313.1 408.8,313.5 447.5,313.1 486.2,313.4 525.0,312.5 563.8,310.3 602.5,311.8 641.2,313.0 680.0,314.1" fill="none" stroke="#bbb" stroke-width="0.6" opacity="0.6"/>
<polyline points="60.0,193.4 98.8,208.3 137.5,233.4 176.2,255.0 215.0,253.2 253.8,252.5 292.5,244.8 331.2,240.2 370.0,204.7 408.8,158.8 447.5,160.0 486.2,184.9 525.0,195.4 563.8,201.0 602.5,184.5 641.2,166.1 680.0,172.6" fill="none" stroke="#bbb" stroke-width="0.6" opacity="0.6"/>
<polyline points="60.0,62.7 98.8,143.3 137.5,188.1 176.2,216.8 215.0,224.5 253.8,220.9 292.5,222.6 331.2,222.4 370.0,211.5 408.8,194.7 447.5,199.9 486.2,211.5 525.0,220.6 563.8,229.4 602.5,199.5 641.2,180.6 680.0,122.0" fill="none" stroke="#bbb" stroke-width="0.6" opacity="0.6"/>
<polyline points="60.0,217.0 98.8,239.9 137.5,245.7 176.2,248.7 215.0,242.8 253.8,238.3 292.5,242.9 331.2,247.7 370.0,249.7 408.8,236.6 447.5,236.6 486.2,228.1 525.0,228.1 563.8,216.4 602.5,213.6 641.2,235.9 680.0,251.5" fill="none" stroke="#bbb" stroke-width="0.6" opacity="0.6"/>
<polyline points="60.0,212.5 98.8,240.6 137.5,252.9 176.2,260.0 215.0,260.8 253.8,252.2 292.5,255.5 331.2,253.5 370.0,251.3 408.8,232.8 447.5,206.3 486.2,209.8 525.0,219.5 563.8,212.4 602.5,187.0 641.2,163.5 680.0,205.4" fill="none" stroke="#bbb" stroke-width="0.6" opacity="0.6"/>
<polyline points="60.0,267.7 98.8,277.8 137.5,290.1 176.2,293.1 215.0,292.9 253.8,297.2 292.5,300.5 331.2,302.3 370.0,304.5 408.8,302.3 447.5,302.5 486.2,302.1 525.0,303.9 563.8,296.4 602.5,292.7 641.2,282.7 680.0,252.0" fill="none" stroke="#bbb" stroke-width="0.6" opacity="0.6"/>
<polyline points="60.0,303.4 98.8,298.5 137.5,300.9 176.2,303.6 215.0,298.2 253.8,294.0 292.5,299.6 331.2,297.2 370.0,290.7 408.8,279.9 447.5,281.7 486.2,282.6 525.0,272.3 563.8,253.3 602.5,261.4 641.2,258.8 680.0,257.8" fill="none" stroke="#bbb" stroke-width="0.6" opacity="0.6"/>
<polyline points="60.0,224.3 98.8,237.9 137.5,259.8 176.2,261.4 215.0,265.3 253.8,271.6 292.5,277.0 331.2,273.9 370.0,272.5 408.8,262.7 447.5,247.9 486.2,239.1 525.0,246.1 563.8,238.7 602.5,241.5 641.2,219.8 680.0,193.2" fill="none" stroke="#bbb" stroke-width="0.6" opacity="0.6"/>
<polyline points="60.0,211.7 98.8,224.8 137.5,237.9 176.2,250.2 215.0,256.4 253.8,256.4 292.5,256.8 331.2,255.1 370.0,257.5 408.8,257.1 447.5,259.4 486.2,257.9 525.0,249.9 563.8,244.7 602.5,239.9 641.2,230.7 680.0,207.3" fill="none" stroke="#bbb" stroke-width="0.6" opacity="0.6"/>
<polyline points="60.0,229.2 98.8,250.9 137.5,256.5 176.2,267.0 215.0,265.6 253.8,268.3 292.5,253.7 331.2,256.6 370.0,243.2 408.8,238.3 447.5,239.1 486.2,257.0 525.0,268.6 563.8,235.5 602.5,254.2 641.2,269.1 680.0,288.3" fill="none" stroke="#bbb" stroke-width="0.6" opacity="0.6"/>
<polyline points="60.0,277.2 98.8,280.6 137.5,287.9 176.2,292.9 215.0,296.5 253.8,299.4 292.5,301.6 331.2,305.2 370.0,303.6 408.8,297.6 447.5,296.6 486.2,294.6 525.0,296.5 563.8,294.7 602.5,292.8 641.2,283.5 680.0,280.0" fill="none" stroke="#bbb" stroke-width="0.6" opacity="0.6"/>
<polyline points="60.0,259.3 98.8,270.2 137.5,284.9 176.2,289.5 215.0,289.0 253.8,289.3 292.5,294.0 331.2,280.5 370.0,274.7 408.8,280.4 447.5,283.2 486.2,287.6 525.0,293.8 563.8,283.9 602.5,236.3 641.2,263.5 680.0,280.9" fill="none" stroke="#bbb" stroke-width="0.6" opacity="0.6"/>
<polyline points="60.0,137.4 98.8,188.1 137.5,215.6 176.2,233.6 215.0,234.9 253.8,231.3 292.5,233.0 331.2,234.2 370.0,225.5 408.8,206.7 447.5,209.4 486.2,214.8 525.0,220.6 563.8,221.1 602.5,203.2 641.2,200.2 680.0,177.8" fill="none" stroke="#1f3a5f" stroke-width="2" stroke-dasharray="6 4"/>
<polyline points="60.0,150.6 98.8,195.6 137.5,223.1 176.2,215.2 215.0,220.8 253.8,213.7 292.5,207.2 331.2,199.4 370.0,216.8 408.8,195.9 447.5,211.0 486.2,218.7 525.0,232.7 563.8,223.2 602.5,190.9 641.2,134.6 680.0,122.3" fill="none" stroke="#b9461a" stroke-width="2.4"/>
<line x1="505.6" y1="50" x2="505.6" y2="330" stroke="#1f2024" stroke-width="0.8" stroke-dasharray="4 3"/>
<text x="505.6" y="45" text-anchor="middle" fill="#1f2024" font-size="10">adoption (2019)</text>
<line x1="60" y1="330" x2="680" y2="330" stroke="#444"/>
<line x1="60" y1="50" x2="60" y2="330" stroke="#444"/>
<line x1="60.0" y1="330" x2="60.0" y2="334" stroke="#444"/>
<text x="60.0" y="348" text-anchor="middle" fill="#444">2007</text>
<line x1="137.5" y1="330" x2="137.5" y2="334" stroke="#444"/>
<text x="137.5" y="348" text-anchor="middle" fill="#444">2009</text>
<line x1="215.0" y1="330" x2="215.0" y2="334" stroke="#444"/>
<text x="215.0" y="348" text-anchor="middle" fill="#444">2011</text>
<line x1="292.5" y1="330" x2="292.5" y2="334" stroke="#444"/>
<text x="292.5" y="348" text-anchor="middle" fill="#444">2013</text>
<line x1="370.0" y1="330" x2="370.0" y2="334" stroke="#444"/>
<text x="370.0" y="348" text-anchor="middle" fill="#444">2015</text>
<line x1="447.5" y1="330" x2="447.5" y2="334" stroke="#444"/>
<text x="447.5" y="348" text-anchor="middle" fill="#444">2017</text>
<line x1="525.0" y1="330" x2="525.0" y2="334" stroke="#444"/>
<text x="525.0" y="348" text-anchor="middle" fill="#444">2019</text>
<line x1="602.5" y1="330" x2="602.5" y2="334" stroke="#444"/>
<text x="602.5" y="348" text-anchor="middle" fill="#444">2021</text>
<line x1="680.0" y1="330" x2="680.0" y2="334" stroke="#444"/>
<text x="680.0" y="348" text-anchor="middle" fill="#444">2023</text>
<line x1="56" y1="330.0" x2="60" y2="330.0" stroke="#444"/>
<text x="53" y="333.0" text-anchor="end" fill="#444">13</text>
<line x1="56" y1="260.0" x2="60" y2="260.0" stroke="#444"/>
<text x="53" y="263.0" text-anchor="end" fill="#444">2.4e+02</text>
<line x1="56" y1="190.0" x2="60" y2="190.0" stroke="#444"/>
<text x="53" y="193.0" text-anchor="end" fill="#444">4.6e+02</text>
<line x1="56" y1="120.0" x2="60" y2="120.0" stroke="#444"/>
<text x="53" y="123.0" text-anchor="end" fill="#444">6.9e+02</text>
<line x1="56" y1="50.0" x2="60" y2="50.0" stroke="#444"/>
<text x="53" y="53.0" text-anchor="end" fill="#444">9.1e+02</text>
<rect x="520" y="60" width="190" height="60" fill="white" stroke="#e2e2dc"/>
<line x1="530" y1="75" x2="560" y2="75" stroke="#b9461a" stroke-width="2.4"/>
<text x="565" y="79" font-size="11">Washington (treated)</text>
<line x1="530" y1="95" x2="560" y2="95" stroke="#1f3a5f" stroke-width="2" stroke-dasharray="6 4"/>
<text x="565" y="99" font-size="11">Synthetic counterfactual</text>
<line x1="530" y1="112" x2="560" y2="112" stroke="#bbb" stroke-width="0.6"/>
<text x="565" y="116" font-size="10">Donor states (gray)</text>
</svg>