<svg xmlns="http://www.w3.org/2000/svg" viewBox="0 0 820 620" font-family="-apple-system, Segoe UI, Helvetica, Arial, sans-serif" font-size="11">
<text x="410.0" y="22" text-anchor="middle" font-size="14" font-weight="600">Spatial RDD event study (red_flag, secondary outcomes)</text>
<rect x="15" y="40" width="380" height="260" fill="#fafaf7" stroke="#e2e2dc"/>
<text x="205.0" y="58" text-anchor="middle" font-weight="600">State firearm suicide rate (per 100,000)</text>
<line x1="75" y1="145.53668389187408" x2="377" y2="145.53668389187408" stroke="#aaaaaa" stroke-width="0.7"/>
<polygon points="88.7,90.0 116.2,111.1 143.6,166.2 171.1,146.4 198.5,145.5 226.0,150.9 253.5,139.4 280.9,167.1 308.4,135.0 335.8,173.2 363.3,208.6 363.3,250.0 335.8,209.3 308.4,211.6 280.9,210.8 253.5,202.2 226.0,184.1 198.5,145.5 171.1,194.2 143.6,209.5 116.2,153.3 88.7,132.3" fill="#1f3a5f" opacity="0.18"/>
<polyline points="88.7,111.1 116.2,132.2 143.6,187.9 171.1,170.3 198.5,145.5 226.0,167.5 253.5,170.8 280.9,189.0 308.4,173.3 335.8,191.3 363.3,229.3" fill="none" stroke="#1f3a5f" stroke-width="1.6"/>
<circle cx="88.7" cy="111.1" r="2.6" fill="#1f3a5f"/>
<circle cx="116.2" cy="132.2" r="2.6" fill="#1f3a5f"/>
<circle cx="143.6" cy="187.9" r="2.6" fill="#1f3a5f"/>
<circle cx="171.1" cy="170.3" r="2.6" fill="#1f3a5f"/>
<circle cx="198.5" cy="145.5" r="2.6" fill="#1f3a5f"/>
<circle cx="226.0" cy="167.5" r="2.6" fill="#1f3a5f"/>
<circle cx="253.5" cy="170.8" r="2.6" fill="#1f3a5f"/>
<circle cx="280.9" cy="189.0" r="2.6" fill="#1f3a5f"/>
<circle cx="308.4" cy="173.3" r="2.6" fill="#1f3a5f"/>
<circle cx="335.8" cy="191.3" r="2.6" fill="#1f3a5f"/>
<circle cx="363.3" cy="229.3" r="2.6" fill="#1f3a5f"/>
<line x1="212.3" y1="90" x2="212.3" y2="250" stroke="#b9461a" stroke-dasharray="3 3"/>
<line x1="75" y1="250" x2="377" y2="250" stroke="#444"/>
<line x1="75" y1="90" x2="75" y2="250" stroke="#444"/>
<line x1="88.7" y1="250" x2="88.7" y2="253" stroke="#444"/>
<text x="88.7" y="265" text-anchor="middle" fill="#444">-5</text>
<line x1="116.2" y1="250" x2="116.2" y2="253" stroke="#444"/>
<text x="116.2" y="265" text-anchor="middle" fill="#444">-4</text>
<line x1="143.6" y1="250" x2="143.6" y2="253" stroke="#444"/>
<text x="143.6" y="265" text-anchor="middle" fill="#444">-3</text>
<line x1="171.1" y1="250" x2="171.1" y2="253" stroke="#444"/>
<text x="171.1" y="265" text-anchor="middle" fill="#444">-2</text>
<line x1="198.5" y1="250" x2="198.5" y2="253" stroke="#444"/>
<text x="198.5" y="265" text-anchor="middle" fill="#444">-1</text>
<line x1="226.0" y1="250" x2="226.0" y2="253" stroke="#444"/>
<text x="226.0" y="265" text-anchor="middle" fill="#444">0</text>
<line x1="253.5" y1="250" x2="253.5" y2="253" stroke="#444"/>
<text x="253.5" y="265" text-anchor="middle" fill="#444">1</text>
<line x1="280.9" y1="250" x2="280.9" y2="253" stroke="#444"/>
<text x="280.9" y="265" text-anchor="middle" fill="#444">2</text>
<line x1="308.4" y1="250" x2="308.4" y2="253" stroke="#444"/>
<text x="308.4" y="265" text-anchor="middle" fill="#444">3</text>
<line x1="335.8" y1="250" x2="335.8" y2="253" stroke="#444"/>
<text x="335.8" y="265" text-anchor="middle" fill="#444">4</text>
<line x1="363.3" y1="250" x2="363.3" y2="253" stroke="#444"/>
<text x="363.3" y="265" text-anchor="middle" fill="#444">5</text>
<line x1="72" y1="250.0" x2="75" y2="250.0" stroke="#444"/>
<text x="69" y="253.0" text-anchor="end" fill="#444">-1</text>
<line x1="72" y1="210.0" x2="75" y2="210.0" stroke="#444"/>
<text x="69" y="213.0" text-anchor="end" fill="#444">-0.62</text>
<line x1="72" y1="170.0" x2="75" y2="170.0" stroke="#444"/>
<text x="69" y="173.0" text-anchor="end" fill="#444">-0.24</text>
<line x1="72" y1="130.0" x2="75" y2="130.0" stroke="#444"/>
<text x="69" y="133.0" text-anchor="end" fill="#444">0.15</text>
<line x1="72" y1="90.0" x2="75" y2="90.0" stroke="#444"/>
<text x="69" y="93.0" text-anchor="end" fill="#444">0.54</text>
<text x="226.0" y="284" text-anchor="middle" fill="#444">Event time (years from adoption)</text>
<text x="27" y="170.0" text-anchor="middle" fill="#444" transform="rotate(-90 27 170.0)">Coefficient (per 100k)</text>
<rect x="425" y="40" width="380" height="260" fill="#fafaf7" stroke="#e2e2dc"/>
<text x="615.0" y="58" text-anchor="middle" font-weight="600">State total suicide rate (per 100,000)</text>
<line x1="485" y1="162.76283084703024" x2="787" y2="162.76283084703024" stroke="#aaaaaa" stroke-width="0.7"/>
<polygon points="498.7,90.0 526.2,148.6 553.6,176.9 581.1,161.1 608.5,162.8 636.0,136.5 663.5,114.7 690.9,189.1 718.4,166.0 745.8,149.7 773.3,156.9 773.3,229.1 745.8,201.8 718.4,228.5 690.9,250.0 663.5,211.8 636.0,186.1 608.5,162.8 581.1,215.6 553.6,220.4 526.2,199.2 498.7,127.4" fill="#1f3a5f" opacity="0.18"/>
<polyline points="498.7,108.7 526.2,173.9 553.6,198.7 581.1,188.3 608.5,162.8 636.0,161.3 663.5,163.3 690.9,219.5 718.4,197.2 745.8,175.7 773.3,193.0" fill="none" stroke="#1f3a5f" stroke-width="1.6"/>
<circle cx="498.7" cy="108.7" r="2.6" fill="#1f3a5f"/>
<circle cx="526.2" cy="173.9" r="2.6" fill="#1f3a5f"/>
<circle cx="553.6" cy="198.7" r="2.6" fill="#1f3a5f"/>
<circle cx="581.1" cy="188.3" r="2.6" fill="#1f3a5f"/>
<circle cx="608.5" cy="162.8" r="2.6" fill="#1f3a5f"/>
<circle cx="636.0" cy="161.3" r="2.6" fill="#1f3a5f"/>
<circle cx="663.5" cy="163.3" r="2.6" fill="#1f3a5f"/>
<circle cx="690.9" cy="219.5" r="2.6" fill="#1f3a5f"/>
<circle cx="718.4" cy="197.2" r="2.6" fill="#1f3a5f"/>
<circle cx="745.8" cy="175.7" r="2.6" fill="#1f3a5f"/>
<circle cx="773.3" cy="193.0" r="2.6" fill="#1f3a5f"/>
<line x1="622.3" y1="90" x2="622.3" y2="250" stroke="#b9461a" stroke-dasharray="3 3"/>
<line x1="485" y1="250" x2="787" y2="250" stroke="#444"/>
<line x1="485" y1="90" x2="485" y2="250" stroke="#444"/>
<line x1="498.7" y1="250" x2="498.7" y2="253" stroke="#444"/>
<text x="498.7" y="265" text-anchor="middle" fill="#444">-5</text>
<line x1="526.2" y1="250" x2="526.2" y2="253" stroke="#444"/>
<text x="526.2" y="265" text-anchor="middle" fill="#444">-4</text>
<line x1="553.6" y1="250" x2="553.6" y2="253" stroke="#444"/>
<text x="553.6" y="265" text-anchor="middle" fill="#444">-3</text>
<line x1="581.1" y1="250" x2="581.1" y2="253" stroke="#444"/>
<text x="581.1" y="265" text-anchor="middle" fill="#444">-2</text>
<line x1="608.5" y1="250" x2="608.5" y2="253" stroke="#444"/>
<text x="608.5" y="265" text-anchor="middle" fill="#444">-1</text>
<line x1="636.0" y1="250" x2="636.0" y2="253" stroke="#444"/>
<text x="636.0" y="265" text-anchor="middle" fill="#444">0</text>
<line x1="663.5" y1="250" x2="663.5" y2="253" stroke="#444"/>
<text x="663.5" y="265" text-anchor="middle" fill="#444">1</text>
<line x1="690.9" y1="250" x2="690.9" y2="253" stroke="#444"/>
<text x="690.9" y="265" text-anchor="middle" fill="#444">2</text>
<line x1="718.4" y1="250" x2="718.4" y2="253" stroke="#444"/>
<text x="718.4" y="265" text-anchor="middle" fill="#444">3</text>
<line x1="745.8" y1="250" x2="745.8" y2="253" stroke="#444"/>
<text x="745.8" y="265" text-anchor="middle" fill="#444">4</text>
<line x1="773.3" y1="250" x2="773.3" y2="253" stroke="#444"/>
<text x="773.3" y="265" text-anchor="middle" fill="#444">5</text>
<line x1="482" y1="250.0" x2="485" y2="250.0" stroke="#444"/>
<text x="479" y="253.0" text-anchor="end" fill="#444">-0.96</text>
<line x1="482" y1="210.0" x2="485" y2="210.0" stroke="#444"/>
<text x="479" y="213.0" text-anchor="end" fill="#444">-0.52</text>
<line x1="482" y1="170.0" x2="485" y2="170.0" stroke="#444"/>
<text x="479" y="173.0" text-anchor="end" fill="#444">-0.08</text>
<line x1="482" y1="130.0" x2="485" y2="130.0" stroke="#444"/>
<text x="479" y="133.0" text-anchor="end" fill="#444">0.36</text>
<line x1="482" y1="90.0" x2="485" y2="90.0" stroke="#444"/>
<text x="479" y="93.0" text-anchor="end" fill="#444">0.8</text>
<text x="636.0" y="284" text-anchor="middle" fill="#444">Event time (years from adoption)</text>
<text x="437" y="170.0" text-anchor="middle" fill="#444" transform="rotate(-90 437 170.0)">Coefficient (per 100k)</text>
<rect x="15" y="330" width="380" height="260" fill="#fafaf7" stroke="#e2e2dc"/>
<text x="205.0" y="348" text-anchor="middle" font-weight="600">State non-firearm suicide rate (per 100,000) [substitution]</text>
<line x1="75" y1="481.6071204576221" x2="377" y2="481.6071204576221" stroke="#aaaaaa" stroke-width="0.7"/>
<polygon points="88.7,410.4 116.2,495.1 143.6,447.5 171.1,455.5 198.5,481.6 226.0,418.0 253.5,407.4 280.9,486.9 308.4,472.0 335.8,401.2 363.3,380.0 363.3,447.2 335.8,476.6 308.4,523.1 280.9,535.2 253.5,487.6 226.0,480.0 198.5,481.6 171.1,519.8 143.6,511.9 116.2,540.0 88.7,477.5" fill="#1f3a5f" opacity="0.18"/>
<polyline points="88.7,443.9 116.2,517.5 143.6,479.7 171.1,487.7 198.5,481.6 226.0,449.0 253.5,447.5 280.9,511.1 308.4,497.6 335.8,438.9 363.3,413.6" fill="none" stroke="#1f3a5f" stroke-width="1.6"/>
<circle cx="88.7" cy="443.9" r="2.6" fill="#1f3a5f"/>
<circle cx="116.2" cy="517.5" r="2.6" fill="#1f3a5f"/>
<circle cx="143.6" cy="479.7" r="2.6" fill="#1f3a5f"/>
<circle cx="171.1" cy="487.7" r="2.6" fill="#1f3a5f"/>
<circle cx="198.5" cy="481.6" r="2.6" fill="#1f3a5f"/>
<circle cx="226.0" cy="449.0" r="2.6" fill="#1f3a5f"/>
<circle cx="253.5" cy="447.5" r="2.6" fill="#1f3a5f"/>
<circle cx="280.9" cy="511.1" r="2.6" fill="#1f3a5f"/>
<circle cx="308.4" cy="497.6" r="2.6" fill="#1f3a5f"/>
<circle cx="335.8" cy="438.9" r="2.6" fill="#1f3a5f"/>
<circle cx="363.3" cy="413.6" r="2.6" fill="#1f3a5f"/>
<line x1="212.3" y1="380" x2="212.3" y2="540" stroke="#b9461a" stroke-dasharray="3 3"/>
<line x1="75" y1="540" x2="377" y2="540" stroke="#444"/>
<line x1="75" y1="380" x2="75" y2="540" stroke="#444"/>
<line x1="88.7" y1="540" x2="88.7" y2="543" stroke="#444"/>
<text x="88.7" y="555" text-anchor="middle" fill="#444">-5</text>
<line x1="116.2" y1="540" x2="116.2" y2="543" stroke="#444"/>
<text x="116.2" y="555" text-anchor="middle" fill="#444">-4</text>
<line x1="143.6" y1="540" x2="143.6" y2="543" stroke="#444"/>
<text x="143.6" y="555" text-anchor="middle" fill="#444">-3</text>
<line x1="171.1" y1="540" x2="171.1" y2="543" stroke="#444"/>
<text x="171.1" y="555" text-anchor="middle" fill="#444">-2</text>
<line x1="198.5" y1="540" x2="198.5" y2="543" stroke="#444"/>
<text x="198.5" y="555" text-anchor="middle" fill="#444">-1</text>
<line x1="226.0" y1="540" x2="226.0" y2="543" stroke="#444"/>
<text x="226.0" y="555" text-anchor="middle" fill="#444">0</text>
<line x1="253.5" y1="540" x2="253.5" y2="543" stroke="#444"/>
<text x="253.5" y="555" text-anchor="middle" fill="#444">1</text>
<line x1="280.9" y1="540" x2="280.9" y2="543" stroke="#444"/>
<text x="280.9" y="555" text-anchor="middle" fill="#444">2</text>
<line x1="308.4" y1="540" x2="308.4" y2="543" stroke="#444"/>
<text x="308.4" y="555" text-anchor="middle" fill="#444">3</text>
<line x1="335.8" y1="540" x2="335.8" y2="543" stroke="#444"/>
<text x="335.8" y="555" text-anchor="middle" fill="#444">4</text>
<line x1="363.3" y1="540" x2="363.3" y2="543" stroke="#444"/>
<text x="363.3" y="555" text-anchor="middle" fill="#444">5</text>
<line x1="72" y1="540.0" x2="75" y2="540.0" stroke="#444"/>
<text x="69" y="543.0" text-anchor="end" fill="#444">-0.41</text>
<line x1="72" y1="500.0" x2="75" y2="500.0" stroke="#444"/>
<text x="69" y="503.0" text-anchor="end" fill="#444">-0.13</text>
<line x1="72" y1="460.0" x2="75" y2="460.0" stroke="#444"/>
<text x="69" y="463.0" text-anchor="end" fill="#444">0.15</text>
<line x1="72" y1="420.0" x2="75" y2="420.0" stroke="#444"/>
<text x="69" y="423.0" text-anchor="end" fill="#444">0.43</text>
<line x1="72" y1="380.0" x2="75" y2="380.0" stroke="#444"/>
<text x="69" y="383.0" text-anchor="end" fill="#444">0.71</text>
<text x="226.0" y="574" text-anchor="middle" fill="#444">Event time (years from adoption)</text>
<text x="27" y="460.0" text-anchor="middle" fill="#444" transform="rotate(-90 27 460.0)">Coefficient (per 100k)</text>
<rect x="425" y="330" width="380" height="260" fill="#fafaf7" stroke="#e2e2dc"/>
<text x="615.0" y="348" text-anchor="middle" font-weight="600">State firearm homicide rate (per 100,000)</text>
<line x1="485" y1="485.4147878103435" x2="787" y2="485.4147878103435" stroke="#aaaaaa" stroke-width="0.7"/>
<polygon points="498.7,474.6 526.2,500.0 553.6,439.5 581.1,478.8 608.5,485.4 636.0,491.2 663.5,449.1 690.9,380.0 718.4,434.5 745.8,468.1 773.3,483.7 773.3,510.8 745.8,505.7 718.4,496.8 690.9,487.0 663.5,500.3 636.0,528.4 608.5,485.4 581.1,507.4 553.6,479.5 526.2,540.0 498.7,508.3" fill="#1f3a5f" opacity="0.18"/>
<polyline points="498.7,491.4 526.2,520.0 553.6,459.5 581.1,493.1 608.5,485.4 636.0,509.8 663.5,474.7 690.9,433.5 718.4,465.7 745.8,486.9 773.3,497.3" fill="none" stroke="#1f3a5f" stroke-width="1.6"/>
<circle cx="498.7" cy="491.4" r="2.6" fill="#1f3a5f"/>
<circle cx="526.2" cy="520.0" r="2.6" fill="#1f3a5f"/>
<circle cx="553.6" cy="459.5" r="2.6" fill="#1f3a5f"/>
<circle cx="581.1" cy="493.1" r="2.6" fill="#1f3a5f"/>
<circle cx="608.5" cy="485.4" r="2.6" fill="#1f3a5f"/>
<circle cx="636.0" cy="509.8" r="2.6" fill="#1f3a5f"/>
<circle cx="663.5" cy="474.7" r="2.6" fill="#1f3a5f"/>
<circle cx="690.9" cy="433.5" r="2.6" fill="#1f3a5f"/>
<circle cx="718.4" cy="465.7" r="2.6" fill="#1f3a5f"/>
<circle cx="745.8" cy="486.9" r="2.6" fill="#1f3a5f"/>
<circle cx="773.3" cy="497.3" r="2.6" fill="#1f3a5f"/>
<line x1="622.3" y1="380" x2="622.3" y2="540" stroke="#b9461a" stroke-dasharray="3 3"/>
<line x1="485" y1="540" x2="787" y2="540" stroke="#444"/>
<line x1="485" y1="380" x2="485" y2="540" stroke="#444"/>
<line x1="498.7" y1="540" x2="498.7" y2="543" stroke="#444"/>
<text x="498.7" y="555" text-anchor="middle" fill="#444">-5</text>
<line x1="526.2" y1="540" x2="526.2" y2="543" stroke="#444"/>
<text x="526.2" y="555" text-anchor="middle" fill="#444">-4</text>
<line x1="553.6" y1="540" x2="553.6" y2="543" stroke="#444"/>
<text x="553.6" y="555" text-anchor="middle" fill="#444">-3</text>
<line x1="581.1" y1="540" x2="581.1" y2="543" stroke="#444"/>
<text x="581.1" y="555" text-anchor="middle" fill="#444">-2</text>
<line x1="608.5" y1="540" x2="608.5" y2="543" stroke="#444"/>
<text x="608.5" y="555" text-anchor="middle" fill="#444">-1</text>
<line x1="636.0" y1="540" x2="636.0" y2="543" stroke="#444"/>
<text x="636.0" y="555" text-anchor="middle" fill="#444">0</text>
<line x1="663.5" y1="540" x2="663.5" y2="543" stroke="#444"/>
<text x="663.5" y="555" text-anchor="middle" fill="#444">1</text>
<line x1="690.9" y1="540" x2="690.9" y2="543" stroke="#444"/>
<text x="690.9" y="555" text-anchor="middle" fill="#444">2</text>
<line x1="718.4" y1="540" x2="718.4" y2="543" stroke="#444"/>
<text x="718.4" y="555" text-anchor="middle" fill="#444">3</text>
<line x1="745.8" y1="540" x2="745.8" y2="543" stroke="#444"/>
<text x="745.8" y="555" text-anchor="middle" fill="#444">4</text>
<line x1="773.3" y1="540" x2="773.3" y2="543" stroke="#444"/>
<text x="773.3" y="555" text-anchor="middle" fill="#444">5</text>
<line x1="482" y1="540.0" x2="485" y2="540.0" stroke="#444"/>
<text x="479" y="543.0" text-anchor="end" fill="#444">-0.62</text>
<line x1="482" y1="500.0" x2="485" y2="500.0" stroke="#444"/>
<text x="479" y="503.0" text-anchor="end" fill="#444">-0.16</text>
<line x1="482" y1="460.0" x2="485" y2="460.0" stroke="#444"/>
<text x="479" y="463.0" text-anchor="end" fill="#444">0.29</text>
<line x1="482" y1="420.0" x2="485" y2="420.0" stroke="#444"/>
<text x="479" y="423.0" text-anchor="end" fill="#444">0.74</text>
<line x1="482" y1="380.0" x2="485" y2="380.0" stroke="#444"/>
<text x="479" y="383.0" text-anchor="end" fill="#444">1.2</text>
<text x="636.0" y="574" text-anchor="middle" fill="#444">Event time (years from adoption)</text>
<text x="437" y="460.0" text-anchor="middle" fill="#444" transform="rotate(-90 437 460.0)">Coefficient (per 100k)</text>
<text x="805" y="608" text-anchor="end" fill="#888" font-size="10">Shaded band: pointwise 95% CI from cluster-robust SE. Vertical dashed line marks the year before adoption.</text>
</svg>