<svg xmlns="http://www.w3.org/2000/svg" viewBox="0 0 820 910" font-family="-apple-system, Segoe UI, Helvetica, Arial, sans-serif" font-size="11">
<text x="410.0" y="22" text-anchor="middle" font-size="14" font-weight="600">Spatial RDD event study (red_flag, primary outcomes)</text>
<rect x="15" y="40" width="380" height="260" fill="#fafaf7" stroke="#e2e2dc"/>
<text x="205.0" y="58" text-anchor="middle" font-weight="600">County violent crime rate (per 100,000)</text>
<line x1="75" y1="139.4986819156897" x2="377" y2="139.4986819156897" stroke="#aaaaaa" stroke-width="0.7"/>
<polygon points="88.7,125.8 116.2,126.0 143.6,120.8 171.1,91.8 198.5,139.5 226.0,119.6 253.5,90.0 280.9,164.5 308.4,149.3 335.8,136.4 363.3,142.7 363.3,196.7 335.8,170.5 308.4,211.0 280.9,250.0 253.5,150.9 226.0,142.9 198.5,139.5 171.1,137.4 143.6,149.3 116.2,144.7 88.7,147.1" fill="#1f3a5f" opacity="0.18"/>
<polyline points="88.7,136.4 116.2,135.4 143.6,135.1 171.1,114.6 198.5,139.5 226.0,131.2 253.5,120.5 280.9,207.2 308.4,180.2 335.8,153.4 363.3,169.7" fill="none" stroke="#1f3a5f" stroke-width="1.6"/>
<circle cx="88.7" cy="136.4" r="2.6" fill="#1f3a5f"/>
<circle cx="116.2" cy="135.4" r="2.6" fill="#1f3a5f"/>
<circle cx="143.6" cy="135.1" r="2.6" fill="#1f3a5f"/>
<circle cx="171.1" cy="114.6" r="2.6" fill="#1f3a5f"/>
<circle cx="198.5" cy="139.5" r="2.6" fill="#1f3a5f"/>
<circle cx="226.0" cy="131.2" r="2.6" fill="#1f3a5f"/>
<circle cx="253.5" cy="120.5" r="2.6" fill="#1f3a5f"/>
<circle cx="280.9" cy="207.2" r="2.6" fill="#1f3a5f"/>
<circle cx="308.4" cy="180.2" r="2.6" fill="#1f3a5f"/>
<circle cx="335.8" cy="153.4" r="2.6" fill="#1f3a5f"/>
<circle cx="363.3" cy="169.7" r="2.6" fill="#1f3a5f"/>
<line x1="212.3" y1="90" x2="212.3" y2="250" stroke="#b9461a" stroke-dasharray="3 3"/>
<line x1="75" y1="250" x2="377" y2="250" stroke="#444"/>
<line x1="75" y1="90" x2="75" y2="250" stroke="#444"/>
<line x1="88.7" y1="250" x2="88.7" y2="253" stroke="#444"/>
<text x="88.7" y="265" text-anchor="middle" fill="#444">-5</text>
<line x1="116.2" y1="250" x2="116.2" y2="253" stroke="#444"/>
<text x="116.2" y="265" text-anchor="middle" fill="#444">-4</text>
<line x1="143.6" y1="250" x2="143.6" y2="253" stroke="#444"/>
<text x="143.6" y="265" text-anchor="middle" fill="#444">-3</text>
<line x1="171.1" y1="250" x2="171.1" y2="253" stroke="#444"/>
<text x="171.1" y="265" text-anchor="middle" fill="#444">-2</text>
<line x1="198.5" y1="250" x2="198.5" y2="253" stroke="#444"/>
<text x="198.5" y="265" text-anchor="middle" fill="#444">-1</text>
<line x1="226.0" y1="250" x2="226.0" y2="253" stroke="#444"/>
<text x="226.0" y="265" text-anchor="middle" fill="#444">0</text>
<line x1="253.5" y1="250" x2="253.5" y2="253" stroke="#444"/>
<text x="253.5" y="265" text-anchor="middle" fill="#444">1</text>
<line x1="280.9" y1="250" x2="280.9" y2="253" stroke="#444"/>
<text x="280.9" y="265" text-anchor="middle" fill="#444">2</text>
<line x1="308.4" y1="250" x2="308.4" y2="253" stroke="#444"/>
<text x="308.4" y="265" text-anchor="middle" fill="#444">3</text>
<line x1="335.8" y1="250" x2="335.8" y2="253" stroke="#444"/>
<text x="335.8" y="265" text-anchor="middle" fill="#444">4</text>
<line x1="363.3" y1="250" x2="363.3" y2="253" stroke="#444"/>
<text x="363.3" y="265" text-anchor="middle" fill="#444">5</text>
<line x1="72" y1="250.0" x2="75" y2="250.0" stroke="#444"/>
<text x="69" y="253.0" text-anchor="end" fill="#444">-1.1e+02</text>
<line x1="72" y1="210.0" x2="75" y2="210.0" stroke="#444"/>
<text x="69" y="213.0" text-anchor="end" fill="#444">-68</text>
<line x1="72" y1="170.0" x2="75" y2="170.0" stroke="#444"/>
<text x="69" y="173.0" text-anchor="end" fill="#444">-30</text>
<line x1="72" y1="130.0" x2="75" y2="130.0" stroke="#444"/>
<text x="69" y="133.0" text-anchor="end" fill="#444">9.2</text>
<line x1="72" y1="90.0" x2="75" y2="90.0" stroke="#444"/>
<text x="69" y="93.0" text-anchor="end" fill="#444">48</text>
<text x="226.0" y="284" text-anchor="middle" fill="#444">Event time (years from adoption)</text>
<text x="27" y="170.0" text-anchor="middle" fill="#444" transform="rotate(-90 27 170.0)">Coefficient (per 100k)</text>
<rect x="425" y="40" width="380" height="260" fill="#fafaf7" stroke="#e2e2dc"/>
<text x="615.0" y="58" text-anchor="middle" font-weight="600">County murder rate (per 100,000)</text>
<line x1="485" y1="231.0233222450026" x2="787" y2="231.0233222450026" stroke="#aaaaaa" stroke-width="0.7"/>
<polygon points="498.7,231.0 526.2,231.1 553.6,229.8 581.1,90.0 608.5,231.0 636.0,228.4 663.5,227.9 690.9,232.8 718.4,229.3 745.8,233.6 773.3,231.5 773.3,244.4 745.8,247.8 718.4,248.0 690.9,250.0 663.5,245.2 636.0,238.4 608.5,231.0 581.1,244.7 553.6,241.5 526.2,241.7 498.7,240.3" fill="#1f3a5f" opacity="0.18"/>
<polyline points="498.7,235.6 526.2,236.4 553.6,235.6 581.1,167.4 608.5,231.0 636.0,233.4 663.5,236.6 690.9,241.4 718.4,238.6 745.8,240.7 773.3,237.9" fill="none" stroke="#1f3a5f" stroke-width="1.6"/>
<circle cx="498.7" cy="235.6" r="2.6" fill="#1f3a5f"/>
<circle cx="526.2" cy="236.4" r="2.6" fill="#1f3a5f"/>
<circle cx="553.6" cy="235.6" r="2.6" fill="#1f3a5f"/>
<circle cx="581.1" cy="167.4" r="2.6" fill="#1f3a5f"/>
<circle cx="608.5" cy="231.0" r="2.6" fill="#1f3a5f"/>
<circle cx="636.0" cy="233.4" r="2.6" fill="#1f3a5f"/>
<circle cx="663.5" cy="236.6" r="2.6" fill="#1f3a5f"/>
<circle cx="690.9" cy="241.4" r="2.6" fill="#1f3a5f"/>
<circle cx="718.4" cy="238.6" r="2.6" fill="#1f3a5f"/>
<circle cx="745.8" cy="240.7" r="2.6" fill="#1f3a5f"/>
<circle cx="773.3" cy="237.9" r="2.6" fill="#1f3a5f"/>
<line x1="622.3" y1="90" x2="622.3" y2="250" stroke="#b9461a" stroke-dasharray="3 3"/>
<line x1="485" y1="250" x2="787" y2="250" stroke="#444"/>
<line x1="485" y1="90" x2="485" y2="250" stroke="#444"/>
<line x1="498.7" y1="250" x2="498.7" y2="253" stroke="#444"/>
<text x="498.7" y="265" text-anchor="middle" fill="#444">-5</text>
<line x1="526.2" y1="250" x2="526.2" y2="253" stroke="#444"/>
<text x="526.2" y="265" text-anchor="middle" fill="#444">-4</text>
<line x1="553.6" y1="250" x2="553.6" y2="253" stroke="#444"/>
<text x="553.6" y="265" text-anchor="middle" fill="#444">-3</text>
<line x1="581.1" y1="250" x2="581.1" y2="253" stroke="#444"/>
<text x="581.1" y="265" text-anchor="middle" fill="#444">-2</text>
<line x1="608.5" y1="250" x2="608.5" y2="253" stroke="#444"/>
<text x="608.5" y="265" text-anchor="middle" fill="#444">-1</text>
<line x1="636.0" y1="250" x2="636.0" y2="253" stroke="#444"/>
<text x="636.0" y="265" text-anchor="middle" fill="#444">0</text>
<line x1="663.5" y1="250" x2="663.5" y2="253" stroke="#444"/>
<text x="663.5" y="265" text-anchor="middle" fill="#444">1</text>
<line x1="690.9" y1="250" x2="690.9" y2="253" stroke="#444"/>
<text x="690.9" y="265" text-anchor="middle" fill="#444">2</text>
<line x1="718.4" y1="250" x2="718.4" y2="253" stroke="#444"/>
<text x="718.4" y="265" text-anchor="middle" fill="#444">3</text>
<line x1="745.8" y1="250" x2="745.8" y2="253" stroke="#444"/>
<text x="745.8" y="265" text-anchor="middle" fill="#444">4</text>
<line x1="773.3" y1="250" x2="773.3" y2="253" stroke="#444"/>
<text x="773.3" y="265" text-anchor="middle" fill="#444">5</text>
<line x1="482" y1="250.0" x2="485" y2="250.0" stroke="#444"/>
<text x="479" y="253.0" text-anchor="end" fill="#444">-3.6</text>
<line x1="482" y1="210.0" x2="485" y2="210.0" stroke="#444"/>
<text x="479" y="213.0" text-anchor="end" fill="#444">4</text>
<line x1="482" y1="170.0" x2="485" y2="170.0" stroke="#444"/>
<text x="479" y="173.0" text-anchor="end" fill="#444">12</text>
<line x1="482" y1="130.0" x2="485" y2="130.0" stroke="#444"/>
<text x="479" y="133.0" text-anchor="end" fill="#444">19</text>
<line x1="482" y1="90.0" x2="485" y2="90.0" stroke="#444"/>
<text x="479" y="93.0" text-anchor="end" fill="#444">27</text>
<text x="636.0" y="284" text-anchor="middle" fill="#444">Event time (years from adoption)</text>
<text x="437" y="170.0" text-anchor="middle" fill="#444" transform="rotate(-90 437 170.0)">Coefficient (per 100k)</text>
<rect x="15" y="330" width="380" height="260" fill="#fafaf7" stroke="#e2e2dc"/>
<text x="205.0" y="348" text-anchor="middle" font-weight="600">County property crime rate (per 100,000)</text>
<line x1="75" y1="447.42575459929753" x2="377" y2="447.42575459929753" stroke="#aaaaaa" stroke-width="0.7"/>
<polygon points="88.7,402.9 116.2,429.4 143.6,419.1 171.1,414.3 198.5,447.4 226.0,398.9 253.5,380.0 280.9,467.0 308.4,434.9 335.8,438.1 363.3,417.4 363.3,498.2 335.8,473.4 308.4,492.7 280.9,540.0 253.5,424.7 226.0,430.7 198.5,447.4 171.1,451.2 143.6,453.9 116.2,449.0 88.7,438.6" fill="#1f3a5f" opacity="0.18"/>
<polyline points="88.7,420.8 116.2,439.2 143.6,436.5 171.1,432.8 198.5,447.4 226.0,414.8 253.5,402.4 280.9,503.5 308.4,463.8 335.8,455.8 363.3,457.8" fill="none" stroke="#1f3a5f" stroke-width="1.6"/>
<circle cx="88.7" cy="420.8" r="2.6" fill="#1f3a5f"/>
<circle cx="116.2" cy="439.2" r="2.6" fill="#1f3a5f"/>
<circle cx="143.6" cy="436.5" r="2.6" fill="#1f3a5f"/>
<circle cx="171.1" cy="432.8" r="2.6" fill="#1f3a5f"/>
<circle cx="198.5" cy="447.4" r="2.6" fill="#1f3a5f"/>
<circle cx="226.0" cy="414.8" r="2.6" fill="#1f3a5f"/>
<circle cx="253.5" cy="402.4" r="2.6" fill="#1f3a5f"/>
<circle cx="280.9" cy="503.5" r="2.6" fill="#1f3a5f"/>
<circle cx="308.4" cy="463.8" r="2.6" fill="#1f3a5f"/>
<circle cx="335.8" cy="455.8" r="2.6" fill="#1f3a5f"/>
<circle cx="363.3" cy="457.8" r="2.6" fill="#1f3a5f"/>
<line x1="212.3" y1="380" x2="212.3" y2="540" stroke="#b9461a" stroke-dasharray="3 3"/>
<line x1="75" y1="540" x2="377" y2="540" stroke="#444"/>
<line x1="75" y1="380" x2="75" y2="540" stroke="#444"/>
<line x1="88.7" y1="540" x2="88.7" y2="543" stroke="#444"/>
<text x="88.7" y="555" text-anchor="middle" fill="#444">-5</text>
<line x1="116.2" y1="540" x2="116.2" y2="543" stroke="#444"/>
<text x="116.2" y="555" text-anchor="middle" fill="#444">-4</text>
<line x1="143.6" y1="540" x2="143.6" y2="543" stroke="#444"/>
<text x="143.6" y="555" text-anchor="middle" fill="#444">-3</text>
<line x1="171.1" y1="540" x2="171.1" y2="543" stroke="#444"/>
<text x="171.1" y="555" text-anchor="middle" fill="#444">-2</text>
<line x1="198.5" y1="540" x2="198.5" y2="543" stroke="#444"/>
<text x="198.5" y="555" text-anchor="middle" fill="#444">-1</text>
<line x1="226.0" y1="540" x2="226.0" y2="543" stroke="#444"/>
<text x="226.0" y="555" text-anchor="middle" fill="#444">0</text>
<line x1="253.5" y1="540" x2="253.5" y2="543" stroke="#444"/>
<text x="253.5" y="555" text-anchor="middle" fill="#444">1</text>
<line x1="280.9" y1="540" x2="280.9" y2="543" stroke="#444"/>
<text x="280.9" y="555" text-anchor="middle" fill="#444">2</text>
<line x1="308.4" y1="540" x2="308.4" y2="543" stroke="#444"/>
<text x="308.4" y="555" text-anchor="middle" fill="#444">3</text>
<line x1="335.8" y1="540" x2="335.8" y2="543" stroke="#444"/>
<text x="335.8" y="555" text-anchor="middle" fill="#444">4</text>
<line x1="363.3" y1="540" x2="363.3" y2="543" stroke="#444"/>
<text x="363.3" y="555" text-anchor="middle" fill="#444">5</text>
<line x1="72" y1="540.0" x2="75" y2="540.0" stroke="#444"/>
<text x="69" y="543.0" text-anchor="end" fill="#444">-3.6e+02</text>
<line x1="72" y1="500.0" x2="75" y2="500.0" stroke="#444"/>
<text x="69" y="503.0" text-anchor="end" fill="#444">-2.1e+02</text>
<line x1="72" y1="460.0" x2="75" y2="460.0" stroke="#444"/>
<text x="69" y="463.0" text-anchor="end" fill="#444">-49</text>
<line x1="72" y1="420.0" x2="75" y2="420.0" stroke="#444"/>
<text x="69" y="423.0" text-anchor="end" fill="#444">1.1e+02</text>
<line x1="72" y1="380.0" x2="75" y2="380.0" stroke="#444"/>
<text x="69" y="383.0" text-anchor="end" fill="#444">2.6e+02</text>
<text x="226.0" y="574" text-anchor="middle" fill="#444">Event time (years from adoption)</text>
<text x="27" y="460.0" text-anchor="middle" fill="#444" transform="rotate(-90 27 460.0)">Coefficient (per 100k)</text>
<rect x="425" y="330" width="380" height="260" fill="#fafaf7" stroke="#e2e2dc"/>
<text x="615.0" y="348" text-anchor="middle" font-weight="600">County burglary rate (per 100,000) [placebo]</text>
<line x1="485" y1="454.34712973625733" x2="787" y2="454.34712973625733" stroke="#aaaaaa" stroke-width="0.7"/>
<polygon points="498.7,413.7 526.2,436.6 553.6,429.2 581.1,434.3 608.5,454.3 636.0,402.0 663.5,389.6 690.9,473.8 718.4,414.9 745.8,420.5 773.3,380.0 773.3,482.2 745.8,464.0 718.4,483.7 690.9,540.0 663.5,443.2 636.0,434.7 608.5,454.3 581.1,466.1 553.6,456.6 526.2,464.9 498.7,452.7" fill="#1f3a5f" opacity="0.18"/>
<polyline points="498.7,433.2 526.2,450.7 553.6,442.9 581.1,450.2 608.5,454.3 636.0,418.3 663.5,416.4 690.9,506.9 718.4,449.3 745.8,442.3 773.3,431.1" fill="none" stroke="#1f3a5f" stroke-width="1.6"/>
<circle cx="498.7" cy="433.2" r="2.6" fill="#1f3a5f"/>
<circle cx="526.2" cy="450.7" r="2.6" fill="#1f3a5f"/>
<circle cx="553.6" cy="442.9" r="2.6" fill="#1f3a5f"/>
<circle cx="581.1" cy="450.2" r="2.6" fill="#1f3a5f"/>
<circle cx="608.5" cy="454.3" r="2.6" fill="#1f3a5f"/>
<circle cx="636.0" cy="418.3" r="2.6" fill="#1f3a5f"/>
<circle cx="663.5" cy="416.4" r="2.6" fill="#1f3a5f"/>
<circle cx="690.9" cy="506.9" r="2.6" fill="#1f3a5f"/>
<circle cx="718.4" cy="449.3" r="2.6" fill="#1f3a5f"/>
<circle cx="745.8" cy="442.3" r="2.6" fill="#1f3a5f"/>
<circle cx="773.3" cy="431.1" r="2.6" fill="#1f3a5f"/>
<line x1="622.3" y1="380" x2="622.3" y2="540" stroke="#b9461a" stroke-dasharray="3 3"/>
<line x1="485" y1="540" x2="787" y2="540" stroke="#444"/>
<line x1="485" y1="380" x2="485" y2="540" stroke="#444"/>
<line x1="498.7" y1="540" x2="498.7" y2="543" stroke="#444"/>
<text x="498.7" y="555" text-anchor="middle" fill="#444">-5</text>
<line x1="526.2" y1="540" x2="526.2" y2="543" stroke="#444"/>
<text x="526.2" y="555" text-anchor="middle" fill="#444">-4</text>
<line x1="553.6" y1="540" x2="553.6" y2="543" stroke="#444"/>
<text x="553.6" y="555" text-anchor="middle" fill="#444">-3</text>
<line x1="581.1" y1="540" x2="581.1" y2="543" stroke="#444"/>
<text x="581.1" y="555" text-anchor="middle" fill="#444">-2</text>
<line x1="608.5" y1="540" x2="608.5" y2="543" stroke="#444"/>
<text x="608.5" y="555" text-anchor="middle" fill="#444">-1</text>
<line x1="636.0" y1="540" x2="636.0" y2="543" stroke="#444"/>
<text x="636.0" y="555" text-anchor="middle" fill="#444">0</text>
<line x1="663.5" y1="540" x2="663.5" y2="543" stroke="#444"/>
<text x="663.5" y="555" text-anchor="middle" fill="#444">1</text>
<line x1="690.9" y1="540" x2="690.9" y2="543" stroke="#444"/>
<text x="690.9" y="555" text-anchor="middle" fill="#444">2</text>
<line x1="718.4" y1="540" x2="718.4" y2="543" stroke="#444"/>
<text x="718.4" y="555" text-anchor="middle" fill="#444">3</text>
<line x1="745.8" y1="540" x2="745.8" y2="543" stroke="#444"/>
<text x="745.8" y="555" text-anchor="middle" fill="#444">4</text>
<line x1="773.3" y1="540" x2="773.3" y2="543" stroke="#444"/>
<text x="773.3" y="555" text-anchor="middle" fill="#444">5</text>
<line x1="482" y1="540.0" x2="485" y2="540.0" stroke="#444"/>
<text x="479" y="543.0" text-anchor="end" fill="#444">-76</text>
<line x1="482" y1="500.0" x2="485" y2="500.0" stroke="#444"/>
<text x="479" y="503.0" text-anchor="end" fill="#444">-41</text>
<line x1="482" y1="460.0" x2="485" y2="460.0" stroke="#444"/>
<text x="479" y="463.0" text-anchor="end" fill="#444">-5</text>
<line x1="482" y1="420.0" x2="485" y2="420.0" stroke="#444"/>
<text x="479" y="423.0" text-anchor="end" fill="#444">31</text>
<line x1="482" y1="380.0" x2="485" y2="380.0" stroke="#444"/>
<text x="479" y="383.0" text-anchor="end" fill="#444">66</text>
<text x="636.0" y="574" text-anchor="middle" fill="#444">Event time (years from adoption)</text>
<text x="437" y="460.0" text-anchor="middle" fill="#444" transform="rotate(-90 437 460.0)">Coefficient (per 100k)</text>
<rect x="15" y="620" width="380" height="260" fill="#fafaf7" stroke="#e2e2dc"/>
<text x="205.0" y="638" text-anchor="middle" font-weight="600">County motor vehicle theft rate (per 100,000) [placebo]</text>
<line x1="75" y1="725.8999385183557" x2="377" y2="725.8999385183557" stroke="#aaaaaa" stroke-width="0.7"/>
<polygon points="88.7,701.8 116.2,710.5 143.6,709.7 171.1,694.1 198.5,725.9 226.0,672.7 253.5,670.0 280.9,735.1 308.4,705.1 335.8,700.4 363.3,683.5 363.3,761.9 335.8,766.8 308.4,792.8 280.9,830.0 253.5,728.8 226.0,710.9 198.5,725.9 171.1,730.4 143.6,746.6 116.2,734.6 88.7,718.7" fill="#1f3a5f" opacity="0.18"/>
<polyline points="88.7,710.2 116.2,722.5 143.6,728.2 171.1,712.2 198.5,725.9 226.0,691.8 253.5,699.4 280.9,782.6 308.4,748.9 335.8,733.6 363.3,722.7" fill="none" stroke="#1f3a5f" stroke-width="1.6"/>
<circle cx="88.7" cy="710.2" r="2.6" fill="#1f3a5f"/>
<circle cx="116.2" cy="722.5" r="2.6" fill="#1f3a5f"/>
<circle cx="143.6" cy="728.2" r="2.6" fill="#1f3a5f"/>
<circle cx="171.1" cy="712.2" r="2.6" fill="#1f3a5f"/>
<circle cx="198.5" cy="725.9" r="2.6" fill="#1f3a5f"/>
<circle cx="226.0" cy="691.8" r="2.6" fill="#1f3a5f"/>
<circle cx="253.5" cy="699.4" r="2.6" fill="#1f3a5f"/>
<circle cx="280.9" cy="782.6" r="2.6" fill="#1f3a5f"/>
<circle cx="308.4" cy="748.9" r="2.6" fill="#1f3a5f"/>
<circle cx="335.8" cy="733.6" r="2.6" fill="#1f3a5f"/>
<circle cx="363.3" cy="722.7" r="2.6" fill="#1f3a5f"/>
<line x1="212.3" y1="670" x2="212.3" y2="830" stroke="#b9461a" stroke-dasharray="3 3"/>
<line x1="75" y1="830" x2="377" y2="830" stroke="#444"/>
<line x1="75" y1="670" x2="75" y2="830" stroke="#444"/>
<line x1="88.7" y1="830" x2="88.7" y2="833" stroke="#444"/>
<text x="88.7" y="845" text-anchor="middle" fill="#444">-5</text>
<line x1="116.2" y1="830" x2="116.2" y2="833" stroke="#444"/>
<text x="116.2" y="845" text-anchor="middle" fill="#444">-4</text>
<line x1="143.6" y1="830" x2="143.6" y2="833" stroke="#444"/>
<text x="143.6" y="845" text-anchor="middle" fill="#444">-3</text>
<line x1="171.1" y1="830" x2="171.1" y2="833" stroke="#444"/>
<text x="171.1" y="845" text-anchor="middle" fill="#444">-2</text>
<line x1="198.5" y1="830" x2="198.5" y2="833" stroke="#444"/>
<text x="198.5" y="845" text-anchor="middle" fill="#444">-1</text>
<line x1="226.0" y1="830" x2="226.0" y2="833" stroke="#444"/>
<text x="226.0" y="845" text-anchor="middle" fill="#444">0</text>
<line x1="253.5" y1="830" x2="253.5" y2="833" stroke="#444"/>
<text x="253.5" y="845" text-anchor="middle" fill="#444">1</text>
<line x1="280.9" y1="830" x2="280.9" y2="833" stroke="#444"/>
<text x="280.9" y="845" text-anchor="middle" fill="#444">2</text>
<line x1="308.4" y1="830" x2="308.4" y2="833" stroke="#444"/>
<text x="308.4" y="845" text-anchor="middle" fill="#444">3</text>
<line x1="335.8" y1="830" x2="335.8" y2="833" stroke="#444"/>
<text x="335.8" y="845" text-anchor="middle" fill="#444">4</text>
<line x1="363.3" y1="830" x2="363.3" y2="833" stroke="#444"/>
<text x="363.3" y="845" text-anchor="middle" fill="#444">5</text>
<line x1="72" y1="830.0" x2="75" y2="830.0" stroke="#444"/>
<text x="69" y="833.0" text-anchor="end" fill="#444">-42</text>
<line x1="72" y1="790.0" x2="75" y2="790.0" stroke="#444"/>
<text x="69" y="793.0" text-anchor="end" fill="#444">-26</text>
<line x1="72" y1="750.0" x2="75" y2="750.0" stroke="#444"/>
<text x="69" y="753.0" text-anchor="end" fill="#444">-9.8</text>
<line x1="72" y1="710.0" x2="75" y2="710.0" stroke="#444"/>
<text x="69" y="713.0" text-anchor="end" fill="#444">6.5</text>
<line x1="72" y1="670.0" x2="75" y2="670.0" stroke="#444"/>
<text x="69" y="673.0" text-anchor="end" fill="#444">23</text>
<text x="226.0" y="864" text-anchor="middle" fill="#444">Event time (years from adoption)</text>
<text x="27" y="750.0" text-anchor="middle" fill="#444" transform="rotate(-90 27 750.0)">Coefficient (per 100k)</text>
<text x="805" y="898" text-anchor="end" fill="#888" font-size="10">Shaded band: pointwise 95% CI from cluster-robust SE. Vertical dashed line marks the year before adoption.</text>
</svg>