<svg xmlns="http://www.w3.org/2000/svg" viewBox="0 0 820 620" font-family="-apple-system, Segoe UI, Helvetica, Arial, sans-serif" font-size="11">
<text x="410.0" y="22" text-anchor="middle" font-size="14" font-weight="600">Callaway-Sant'Anna ATT by event time (RA) -- stacked DiD (ubc)</text>
<rect x="15" y="40" width="380" height="260" fill="#fafaf7" stroke="#e2e2dc"/>
<text x="205.0" y="58" text-anchor="middle" font-weight="600">Firearm suicide rate (per 100k)</text>
<line x1="75" y1="152.08811524985438" x2="377" y2="152.08811524985438" stroke="#aaaaaa" stroke-width="0.7"/>
<polygon points="88.7,90.0 116.2,90.3 143.6,118.7 171.1,102.4 198.5,152.1 226.0,117.3 253.5,114.6 280.9,151.5 308.4,121.9 335.8,158.2 363.3,125.8 363.3,224.1 335.8,250.0 308.4,196.8 280.9,200.2 253.5,182.9 226.0,183.0 198.5,152.1 171.1,176.2 143.6,179.8 116.2,148.4 88.7,165.4" fill="#1f3a5f" opacity="0.18"/>
<polyline points="88.7,127.7 116.2,119.4 143.6,149.3 171.1,139.3 198.5,152.1 226.0,150.1 253.5,148.7 280.9,175.8 308.4,159.4 335.8,204.1 363.3,175.0" fill="none" stroke="#1f3a5f" stroke-width="1.6"/>
<circle cx="88.7" cy="127.7" r="2.6" fill="#1f3a5f"/>
<circle cx="116.2" cy="119.4" r="2.6" fill="#1f3a5f"/>
<circle cx="143.6" cy="149.3" r="2.6" fill="#1f3a5f"/>
<circle cx="171.1" cy="139.3" r="2.6" fill="#1f3a5f"/>
<circle cx="198.5" cy="152.1" r="2.6" fill="#1f3a5f"/>
<circle cx="226.0" cy="150.1" r="2.6" fill="#1f3a5f"/>
<circle cx="253.5" cy="148.7" r="2.6" fill="#1f3a5f"/>
<circle cx="280.9" cy="175.8" r="2.6" fill="#1f3a5f"/>
<circle cx="308.4" cy="159.4" r="2.6" fill="#1f3a5f"/>
<circle cx="335.8" cy="204.1" r="2.6" fill="#1f3a5f"/>
<circle cx="363.3" cy="175.0" r="2.6" fill="#1f3a5f"/>
<line x1="212.3" y1="90" x2="212.3" y2="250" stroke="#b9461a" stroke-dasharray="3 3"/>
<line x1="75" y1="250" x2="377" y2="250" stroke="#444"/>
<line x1="75" y1="90" x2="75" y2="250" stroke="#444"/>
<line x1="88.7" y1="250" x2="88.7" y2="253" stroke="#444"/>
<text x="88.7" y="265" text-anchor="middle" fill="#444">-5</text>
<line x1="116.2" y1="250" x2="116.2" y2="253" stroke="#444"/>
<text x="116.2" y="265" text-anchor="middle" fill="#444">-4</text>
<line x1="143.6" y1="250" x2="143.6" y2="253" stroke="#444"/>
<text x="143.6" y="265" text-anchor="middle" fill="#444">-3</text>
<line x1="171.1" y1="250" x2="171.1" y2="253" stroke="#444"/>
<text x="171.1" y="265" text-anchor="middle" fill="#444">-2</text>
<line x1="198.5" y1="250" x2="198.5" y2="253" stroke="#444"/>
<text x="198.5" y="265" text-anchor="middle" fill="#444">-1</text>
<line x1="226.0" y1="250" x2="226.0" y2="253" stroke="#444"/>
<text x="226.0" y="265" text-anchor="middle" fill="#444">0</text>
<line x1="253.5" y1="250" x2="253.5" y2="253" stroke="#444"/>
<text x="253.5" y="265" text-anchor="middle" fill="#444">1</text>
<line x1="280.9" y1="250" x2="280.9" y2="253" stroke="#444"/>
<text x="280.9" y="265" text-anchor="middle" fill="#444">2</text>
<line x1="308.4" y1="250" x2="308.4" y2="253" stroke="#444"/>
<text x="308.4" y="265" text-anchor="middle" fill="#444">3</text>
<line x1="335.8" y1="250" x2="335.8" y2="253" stroke="#444"/>
<text x="335.8" y="265" text-anchor="middle" fill="#444">4</text>
<line x1="363.3" y1="250" x2="363.3" y2="253" stroke="#444"/>
<text x="363.3" y="265" text-anchor="middle" fill="#444">5</text>
<line x1="72" y1="250.0" x2="75" y2="250.0" stroke="#444"/>
<text x="69" y="253.0" text-anchor="end" fill="#444">-1.1</text>
<line x1="72" y1="210.0" x2="75" y2="210.0" stroke="#444"/>
<text x="69" y="213.0" text-anchor="end" fill="#444">-0.65</text>
<line x1="72" y1="170.0" x2="75" y2="170.0" stroke="#444"/>
<text x="69" y="173.0" text-anchor="end" fill="#444">-0.2</text>
<line x1="72" y1="130.0" x2="75" y2="130.0" stroke="#444"/>
<text x="69" y="133.0" text-anchor="end" fill="#444">0.25</text>
<line x1="72" y1="90.0" x2="75" y2="90.0" stroke="#444"/>
<text x="69" y="93.0" text-anchor="end" fill="#444">0.7</text>
<text x="226.0" y="284" text-anchor="middle" fill="#444">Event time (years from adoption)</text>
<text x="27" y="170.0" text-anchor="middle" fill="#444" transform="rotate(-90 27 170.0)">ATT (per 100k)</text>
<rect x="425" y="40" width="380" height="260" fill="#fafaf7" stroke="#e2e2dc"/>
<text x="615.0" y="58" text-anchor="middle" font-weight="600">Non-firearm suicide rate (per 100k) [substitution test]</text>
<line x1="485" y1="174.53723574384054" x2="787" y2="174.53723574384054" stroke="#aaaaaa" stroke-width="0.7"/>
<polygon points="498.7,119.1 526.2,90.0 553.6,138.9 581.1,166.6 608.5,174.5 636.0,150.6 663.5,168.7 690.9,170.5 718.4,133.3 745.8,150.9 773.3,151.6 773.3,248.2 745.8,226.7 718.4,250.0 690.9,213.0 663.5,205.5 636.0,184.2 608.5,174.5 581.1,213.9 553.6,212.0 526.2,175.6 498.7,194.0" fill="#1f3a5f" opacity="0.18"/>
<polyline points="498.7,156.5 526.2,132.8 553.6,175.4 581.1,190.2 608.5,174.5 636.0,167.4 663.5,187.1 690.9,191.8 718.4,191.6 745.8,188.8 773.3,199.9" fill="none" stroke="#1f3a5f" stroke-width="1.6"/>
<circle cx="498.7" cy="156.5" r="2.6" fill="#1f3a5f"/>
<circle cx="526.2" cy="132.8" r="2.6" fill="#1f3a5f"/>
<circle cx="553.6" cy="175.4" r="2.6" fill="#1f3a5f"/>
<circle cx="581.1" cy="190.2" r="2.6" fill="#1f3a5f"/>
<circle cx="608.5" cy="174.5" r="2.6" fill="#1f3a5f"/>
<circle cx="636.0" cy="167.4" r="2.6" fill="#1f3a5f"/>
<circle cx="663.5" cy="187.1" r="2.6" fill="#1f3a5f"/>
<circle cx="690.9" cy="191.8" r="2.6" fill="#1f3a5f"/>
<circle cx="718.4" cy="191.6" r="2.6" fill="#1f3a5f"/>
<circle cx="745.8" cy="188.8" r="2.6" fill="#1f3a5f"/>
<circle cx="773.3" cy="199.9" r="2.6" fill="#1f3a5f"/>
<line x1="622.3" y1="90" x2="622.3" y2="250" stroke="#b9461a" stroke-dasharray="3 3"/>
<line x1="485" y1="250" x2="787" y2="250" stroke="#444"/>
<line x1="485" y1="90" x2="485" y2="250" stroke="#444"/>
<line x1="498.7" y1="250" x2="498.7" y2="253" stroke="#444"/>
<text x="498.7" y="265" text-anchor="middle" fill="#444">-5</text>
<line x1="526.2" y1="250" x2="526.2" y2="253" stroke="#444"/>
<text x="526.2" y="265" text-anchor="middle" fill="#444">-4</text>
<line x1="553.6" y1="250" x2="553.6" y2="253" stroke="#444"/>
<text x="553.6" y="265" text-anchor="middle" fill="#444">-3</text>
<line x1="581.1" y1="250" x2="581.1" y2="253" stroke="#444"/>
<text x="581.1" y="265" text-anchor="middle" fill="#444">-2</text>
<line x1="608.5" y1="250" x2="608.5" y2="253" stroke="#444"/>
<text x="608.5" y="265" text-anchor="middle" fill="#444">-1</text>
<line x1="636.0" y1="250" x2="636.0" y2="253" stroke="#444"/>
<text x="636.0" y="265" text-anchor="middle" fill="#444">0</text>
<line x1="663.5" y1="250" x2="663.5" y2="253" stroke="#444"/>
<text x="663.5" y="265" text-anchor="middle" fill="#444">1</text>
<line x1="690.9" y1="250" x2="690.9" y2="253" stroke="#444"/>
<text x="690.9" y="265" text-anchor="middle" fill="#444">2</text>
<line x1="718.4" y1="250" x2="718.4" y2="253" stroke="#444"/>
<text x="718.4" y="265" text-anchor="middle" fill="#444">3</text>
<line x1="745.8" y1="250" x2="745.8" y2="253" stroke="#444"/>
<text x="745.8" y="265" text-anchor="middle" fill="#444">4</text>
<line x1="773.3" y1="250" x2="773.3" y2="253" stroke="#444"/>
<text x="773.3" y="265" text-anchor="middle" fill="#444">5</text>
<line x1="482" y1="250.0" x2="485" y2="250.0" stroke="#444"/>
<text x="479" y="253.0" text-anchor="end" fill="#444">-0.9</text>
<line x1="482" y1="210.0" x2="485" y2="210.0" stroke="#444"/>
<text x="479" y="213.0" text-anchor="end" fill="#444">-0.42</text>
<line x1="482" y1="170.0" x2="485" y2="170.0" stroke="#444"/>
<text x="479" y="173.0" text-anchor="end" fill="#444">0.054</text>
<line x1="482" y1="130.0" x2="485" y2="130.0" stroke="#444"/>
<text x="479" y="133.0" text-anchor="end" fill="#444">0.53</text>
<line x1="482" y1="90.0" x2="485" y2="90.0" stroke="#444"/>
<text x="479" y="93.0" text-anchor="end" fill="#444">1</text>
<text x="636.0" y="284" text-anchor="middle" fill="#444">Event time (years from adoption)</text>
<text x="437" y="170.0" text-anchor="middle" fill="#444" transform="rotate(-90 437 170.0)">ATT (per 100k)</text>
<rect x="15" y="330" width="380" height="260" fill="#fafaf7" stroke="#e2e2dc"/>
<text x="205.0" y="348" text-anchor="middle" font-weight="600">Total suicide rate (per 100k) [net effect]</text>
<line x1="75" y1="455.5188025685163" x2="377" y2="455.5188025685163" stroke="#aaaaaa" stroke-width="0.7"/>
<polygon points="88.7,395.5 116.2,380.0 143.6,422.6 171.1,431.7 198.5,455.5 226.0,432.6 253.5,435.6 280.9,464.2 308.4,429.2 335.8,448.5 363.3,437.1 363.3,531.3 335.8,540.0 308.4,511.2 280.9,495.4 253.5,487.0 226.0,467.5 198.5,455.5 171.1,483.8 143.6,486.3 116.2,442.2 88.7,465.4" fill="#1f3a5f" opacity="0.18"/>
<polyline points="88.7,430.4 116.2,411.1 143.6,454.4 171.1,457.7 198.5,455.5 226.0,450.0 253.5,461.3 280.9,479.8 308.4,470.2 335.8,494.2 363.3,484.2" fill="none" stroke="#1f3a5f" stroke-width="1.6"/>
<circle cx="88.7" cy="430.4" r="2.6" fill="#1f3a5f"/>
<circle cx="116.2" cy="411.1" r="2.6" fill="#1f3a5f"/>
<circle cx="143.6" cy="454.4" r="2.6" fill="#1f3a5f"/>
<circle cx="171.1" cy="457.7" r="2.6" fill="#1f3a5f"/>
<circle cx="198.5" cy="455.5" r="2.6" fill="#1f3a5f"/>
<circle cx="226.0" cy="450.0" r="2.6" fill="#1f3a5f"/>
<circle cx="253.5" cy="461.3" r="2.6" fill="#1f3a5f"/>
<circle cx="280.9" cy="479.8" r="2.6" fill="#1f3a5f"/>
<circle cx="308.4" cy="470.2" r="2.6" fill="#1f3a5f"/>
<circle cx="335.8" cy="494.2" r="2.6" fill="#1f3a5f"/>
<circle cx="363.3" cy="484.2" r="2.6" fill="#1f3a5f"/>
<line x1="212.3" y1="380" x2="212.3" y2="540" stroke="#b9461a" stroke-dasharray="3 3"/>
<line x1="75" y1="540" x2="377" y2="540" stroke="#444"/>
<line x1="75" y1="380" x2="75" y2="540" stroke="#444"/>
<line x1="88.7" y1="540" x2="88.7" y2="543" stroke="#444"/>
<text x="88.7" y="555" text-anchor="middle" fill="#444">-5</text>
<line x1="116.2" y1="540" x2="116.2" y2="543" stroke="#444"/>
<text x="116.2" y="555" text-anchor="middle" fill="#444">-4</text>
<line x1="143.6" y1="540" x2="143.6" y2="543" stroke="#444"/>
<text x="143.6" y="555" text-anchor="middle" fill="#444">-3</text>
<line x1="171.1" y1="540" x2="171.1" y2="543" stroke="#444"/>
<text x="171.1" y="555" text-anchor="middle" fill="#444">-2</text>
<line x1="198.5" y1="540" x2="198.5" y2="543" stroke="#444"/>
<text x="198.5" y="555" text-anchor="middle" fill="#444">-1</text>
<line x1="226.0" y1="540" x2="226.0" y2="543" stroke="#444"/>
<text x="226.0" y="555" text-anchor="middle" fill="#444">0</text>
<line x1="253.5" y1="540" x2="253.5" y2="543" stroke="#444"/>
<text x="253.5" y="555" text-anchor="middle" fill="#444">1</text>
<line x1="280.9" y1="540" x2="280.9" y2="543" stroke="#444"/>
<text x="280.9" y="555" text-anchor="middle" fill="#444">2</text>
<line x1="308.4" y1="540" x2="308.4" y2="543" stroke="#444"/>
<text x="308.4" y="555" text-anchor="middle" fill="#444">3</text>
<line x1="335.8" y1="540" x2="335.8" y2="543" stroke="#444"/>
<text x="335.8" y="555" text-anchor="middle" fill="#444">4</text>
<line x1="363.3" y1="540" x2="363.3" y2="543" stroke="#444"/>
<text x="363.3" y="555" text-anchor="middle" fill="#444">5</text>
<line x1="72" y1="540.0" x2="75" y2="540.0" stroke="#444"/>
<text x="69" y="543.0" text-anchor="end" fill="#444">-1.6</text>
<line x1="72" y1="500.0" x2="75" y2="500.0" stroke="#444"/>
<text x="69" y="503.0" text-anchor="end" fill="#444">-0.87</text>
<line x1="72" y1="460.0" x2="75" y2="460.0" stroke="#444"/>
<text x="69" y="463.0" text-anchor="end" fill="#444">-0.087</text>
<line x1="72" y1="420.0" x2="75" y2="420.0" stroke="#444"/>
<text x="69" y="423.0" text-anchor="end" fill="#444">0.69</text>
<line x1="72" y1="380.0" x2="75" y2="380.0" stroke="#444"/>
<text x="69" y="383.0" text-anchor="end" fill="#444">1.5</text>
<text x="226.0" y="574" text-anchor="middle" fill="#444">Event time (years from adoption)</text>
<text x="27" y="460.0" text-anchor="middle" fill="#444" transform="rotate(-90 27 460.0)">ATT (per 100k)</text>
<rect x="425" y="330" width="380" height="260" fill="#fafaf7" stroke="#e2e2dc"/>
<text x="615.0" y="348" text-anchor="middle" font-weight="600">Firearm homicide rate (per 100k)</text>
<line x1="485" y1="456.44791644384594" x2="787" y2="456.44791644384594" stroke="#aaaaaa" stroke-width="0.7"/>
<polygon points="498.7,380.0 526.2,391.2 553.6,401.3 581.1,425.8 608.5,456.4 636.0,419.3 663.5,450.3 690.9,415.9 718.4,420.4 745.8,403.5 773.3,454.4 773.3,540.0 745.8,529.5 718.4,518.3 690.9,527.4 663.5,509.2 636.0,458.3 608.5,456.4 581.1,497.9 553.6,465.5 526.2,483.1 498.7,489.8" fill="#1f3a5f" opacity="0.18"/>
<polyline points="498.7,434.9 526.2,437.2 553.6,433.4 581.1,461.8 608.5,456.4 636.0,438.8 663.5,479.8 690.9,471.7 718.4,469.3 745.8,466.5 773.3,497.2" fill="none" stroke="#1f3a5f" stroke-width="1.6"/>
<circle cx="498.7" cy="434.9" r="2.6" fill="#1f3a5f"/>
<circle cx="526.2" cy="437.2" r="2.6" fill="#1f3a5f"/>
<circle cx="553.6" cy="433.4" r="2.6" fill="#1f3a5f"/>
<circle cx="581.1" cy="461.8" r="2.6" fill="#1f3a5f"/>
<circle cx="608.5" cy="456.4" r="2.6" fill="#1f3a5f"/>
<circle cx="636.0" cy="438.8" r="2.6" fill="#1f3a5f"/>
<circle cx="663.5" cy="479.8" r="2.6" fill="#1f3a5f"/>
<circle cx="690.9" cy="471.7" r="2.6" fill="#1f3a5f"/>
<circle cx="718.4" cy="469.3" r="2.6" fill="#1f3a5f"/>
<circle cx="745.8" cy="466.5" r="2.6" fill="#1f3a5f"/>
<circle cx="773.3" cy="497.2" r="2.6" fill="#1f3a5f"/>
<line x1="622.3" y1="380" x2="622.3" y2="540" stroke="#b9461a" stroke-dasharray="3 3"/>
<line x1="485" y1="540" x2="787" y2="540" stroke="#444"/>
<line x1="485" y1="380" x2="485" y2="540" stroke="#444"/>
<line x1="498.7" y1="540" x2="498.7" y2="543" stroke="#444"/>
<text x="498.7" y="555" text-anchor="middle" fill="#444">-5</text>
<line x1="526.2" y1="540" x2="526.2" y2="543" stroke="#444"/>
<text x="526.2" y="555" text-anchor="middle" fill="#444">-4</text>
<line x1="553.6" y1="540" x2="553.6" y2="543" stroke="#444"/>
<text x="553.6" y="555" text-anchor="middle" fill="#444">-3</text>
<line x1="581.1" y1="540" x2="581.1" y2="543" stroke="#444"/>
<text x="581.1" y="555" text-anchor="middle" fill="#444">-2</text>
<line x1="608.5" y1="540" x2="608.5" y2="543" stroke="#444"/>
<text x="608.5" y="555" text-anchor="middle" fill="#444">-1</text>
<line x1="636.0" y1="540" x2="636.0" y2="543" stroke="#444"/>
<text x="636.0" y="555" text-anchor="middle" fill="#444">0</text>
<line x1="663.5" y1="540" x2="663.5" y2="543" stroke="#444"/>
<text x="663.5" y="555" text-anchor="middle" fill="#444">1</text>
<line x1="690.9" y1="540" x2="690.9" y2="543" stroke="#444"/>
<text x="690.9" y="555" text-anchor="middle" fill="#444">2</text>
<line x1="718.4" y1="540" x2="718.4" y2="543" stroke="#444"/>
<text x="718.4" y="555" text-anchor="middle" fill="#444">3</text>
<line x1="745.8" y1="540" x2="745.8" y2="543" stroke="#444"/>
<text x="745.8" y="555" text-anchor="middle" fill="#444">4</text>
<line x1="773.3" y1="540" x2="773.3" y2="543" stroke="#444"/>
<text x="773.3" y="555" text-anchor="middle" fill="#444">5</text>
<line x1="482" y1="540.0" x2="485" y2="540.0" stroke="#444"/>
<text x="479" y="543.0" text-anchor="end" fill="#444">-1.1</text>
<line x1="482" y1="500.0" x2="485" y2="500.0" stroke="#444"/>
<text x="479" y="503.0" text-anchor="end" fill="#444">-0.56</text>
<line x1="482" y1="460.0" x2="485" y2="460.0" stroke="#444"/>
<text x="479" y="463.0" text-anchor="end" fill="#444">-0.046</text>
<line x1="482" y1="420.0" x2="485" y2="420.0" stroke="#444"/>
<text x="479" y="423.0" text-anchor="end" fill="#444">0.47</text>
<line x1="482" y1="380.0" x2="485" y2="380.0" stroke="#444"/>
<text x="479" y="383.0" text-anchor="end" fill="#444">0.98</text>
<text x="636.0" y="574" text-anchor="middle" fill="#444">Event time (years from adoption)</text>
<text x="437" y="460.0" text-anchor="middle" fill="#444" transform="rotate(-90 437 460.0)">ATT (per 100k)</text>
<rect x="15" y="620" width="380" height="260" fill="#fafaf7" stroke="#e2e2dc"/>
<text x="205.0" y="638" text-anchor="middle" font-weight="600">Total homicide rate (per 100k)</text>
<line x1="75" y1="741.6699385221564" x2="377" y2="741.6699385221564" stroke="#aaaaaa" stroke-width="0.7"/>
<polygon points="88.7,677.7 116.2,689.8 143.6,691.9 171.1,705.6 198.5,741.7 226.0,670.0 253.5,729.1 280.9,681.7 308.4,702.8 335.8,672.7 363.3,751.4 363.3,830.0 335.8,801.2 308.4,824.3 280.9,818.1 253.5,789.9 226.0,751.4 198.5,741.7 171.1,760.4 143.6,765.4 116.2,780.0 88.7,794.1" fill="#1f3a5f" opacity="0.18"/>
<polyline points="88.7,735.9 116.2,734.9 143.6,728.6 171.1,733.0 198.5,741.7 226.0,710.7 253.5,759.5 280.9,749.9 308.4,763.6 335.8,736.9 363.3,790.7" fill="none" stroke="#1f3a5f" stroke-width="1.6"/>
<circle cx="88.7" cy="735.9" r="2.6" fill="#1f3a5f"/>
<circle cx="116.2" cy="734.9" r="2.6" fill="#1f3a5f"/>
<circle cx="143.6" cy="728.6" r="2.6" fill="#1f3a5f"/>
<circle cx="171.1" cy="733.0" r="2.6" fill="#1f3a5f"/>
<circle cx="198.5" cy="741.7" r="2.6" fill="#1f3a5f"/>
<circle cx="226.0" cy="710.7" r="2.6" fill="#1f3a5f"/>
<circle cx="253.5" cy="759.5" r="2.6" fill="#1f3a5f"/>
<circle cx="280.9" cy="749.9" r="2.6" fill="#1f3a5f"/>
<circle cx="308.4" cy="763.6" r="2.6" fill="#1f3a5f"/>
<circle cx="335.8" cy="736.9" r="2.6" fill="#1f3a5f"/>
<circle cx="363.3" cy="790.7" r="2.6" fill="#1f3a5f"/>
<line x1="212.3" y1="670" x2="212.3" y2="830" stroke="#b9461a" stroke-dasharray="3 3"/>
<line x1="75" y1="830" x2="377" y2="830" stroke="#444"/>
<line x1="75" y1="670" x2="75" y2="830" stroke="#444"/>
<line x1="88.7" y1="830" x2="88.7" y2="833" stroke="#444"/>
<text x="88.7" y="845" text-anchor="middle" fill="#444">-5</text>
<line x1="116.2" y1="830" x2="116.2" y2="833" stroke="#444"/>
<text x="116.2" y="845" text-anchor="middle" fill="#444">-4</text>
<line x1="143.6" y1="830" x2="143.6" y2="833" stroke="#444"/>
<text x="143.6" y="845" text-anchor="middle" fill="#444">-3</text>
<line x1="171.1" y1="830" x2="171.1" y2="833" stroke="#444"/>
<text x="171.1" y="845" text-anchor="middle" fill="#444">-2</text>
<line x1="198.5" y1="830" x2="198.5" y2="833" stroke="#444"/>
<text x="198.5" y="845" text-anchor="middle" fill="#444">-1</text>
<line x1="226.0" y1="830" x2="226.0" y2="833" stroke="#444"/>
<text x="226.0" y="845" text-anchor="middle" fill="#444">0</text>
<line x1="253.5" y1="830" x2="253.5" y2="833" stroke="#444"/>
<text x="253.5" y="845" text-anchor="middle" fill="#444">1</text>
<line x1="280.9" y1="830" x2="280.9" y2="833" stroke="#444"/>
<text x="280.9" y="845" text-anchor="middle" fill="#444">2</text>
<line x1="308.4" y1="830" x2="308.4" y2="833" stroke="#444"/>
<text x="308.4" y="845" text-anchor="middle" fill="#444">3</text>
<line x1="335.8" y1="830" x2="335.8" y2="833" stroke="#444"/>
<text x="335.8" y="845" text-anchor="middle" fill="#444">4</text>
<line x1="363.3" y1="830" x2="363.3" y2="833" stroke="#444"/>
<text x="363.3" y="845" text-anchor="middle" fill="#444">5</text>
<line x1="72" y1="830.0" x2="75" y2="830.0" stroke="#444"/>
<text x="69" y="833.0" text-anchor="end" fill="#444">-1.2</text>
<line x1="72" y1="790.0" x2="75" y2="790.0" stroke="#444"/>
<text x="69" y="793.0" text-anchor="end" fill="#444">-0.63</text>
<line x1="72" y1="750.0" x2="75" y2="750.0" stroke="#444"/>
<text x="69" y="753.0" text-anchor="end" fill="#444">-0.11</text>
<line x1="72" y1="710.0" x2="75" y2="710.0" stroke="#444"/>
<text x="69" y="713.0" text-anchor="end" fill="#444">0.41</text>
<line x1="72" y1="670.0" x2="75" y2="670.0" stroke="#444"/>
<text x="69" y="673.0" text-anchor="end" fill="#444">0.93</text>
<text x="226.0" y="864" text-anchor="middle" fill="#444">Event time (years from adoption)</text>
<text x="27" y="750.0" text-anchor="middle" fill="#444" transform="rotate(-90 27 750.0)">ATT (per 100k)</text>
<rect x="425" y="620" width="380" height="260" fill="#fafaf7" stroke="#e2e2dc"/>
<text x="615.0" y="638" text-anchor="middle" font-weight="600">Motor vehicle theft rate (per 100k) [placebo]</text>
<line x1="485" y1="768.5351892984327" x2="787" y2="768.5351892984327" stroke="#aaaaaa" stroke-width="0.7"/>
<polygon points="498.7,752.4 526.2,758.2 553.6,740.8 581.1,748.5 608.5,768.5 636.0,757.0 663.5,765.1 690.9,670.0 718.4,722.9 745.8,715.2 773.3,701.6 773.3,793.4 745.8,786.3 718.4,803.6 690.9,790.8 663.5,794.0 636.0,802.1 608.5,768.5 581.1,799.6 553.6,799.6 526.2,803.0 498.7,830.0" fill="#1f3a5f" opacity="0.18"/>
<polyline points="498.7,791.2 526.2,780.6 553.6,770.2 581.1,774.1 608.5,768.5 636.0,779.6 663.5,779.6 690.9,730.4 718.4,763.2 745.8,750.8 773.3,747.5" fill="none" stroke="#1f3a5f" stroke-width="1.6"/>
<circle cx="498.7" cy="791.2" r="2.6" fill="#1f3a5f"/>
<circle cx="526.2" cy="780.6" r="2.6" fill="#1f3a5f"/>
<circle cx="553.6" cy="770.2" r="2.6" fill="#1f3a5f"/>
<circle cx="581.1" cy="774.1" r="2.6" fill="#1f3a5f"/>
<circle cx="608.5" cy="768.5" r="2.6" fill="#1f3a5f"/>
<circle cx="636.0" cy="779.6" r="2.6" fill="#1f3a5f"/>
<circle cx="663.5" cy="779.6" r="2.6" fill="#1f3a5f"/>
<circle cx="690.9" cy="730.4" r="2.6" fill="#1f3a5f"/>
<circle cx="718.4" cy="763.2" r="2.6" fill="#1f3a5f"/>
<circle cx="745.8" cy="750.8" r="2.6" fill="#1f3a5f"/>
<circle cx="773.3" cy="747.5" r="2.6" fill="#1f3a5f"/>
<line x1="622.3" y1="670" x2="622.3" y2="830" stroke="#b9461a" stroke-dasharray="3 3"/>
<line x1="485" y1="830" x2="787" y2="830" stroke="#444"/>
<line x1="485" y1="670" x2="485" y2="830" stroke="#444"/>
<line x1="498.7" y1="830" x2="498.7" y2="833" stroke="#444"/>
<text x="498.7" y="845" text-anchor="middle" fill="#444">-5</text>
<line x1="526.2" y1="830" x2="526.2" y2="833" stroke="#444"/>
<text x="526.2" y="845" text-anchor="middle" fill="#444">-4</text>
<line x1="553.6" y1="830" x2="553.6" y2="833" stroke="#444"/>
<text x="553.6" y="845" text-anchor="middle" fill="#444">-3</text>
<line x1="581.1" y1="830" x2="581.1" y2="833" stroke="#444"/>
<text x="581.1" y="845" text-anchor="middle" fill="#444">-2</text>
<line x1="608.5" y1="830" x2="608.5" y2="833" stroke="#444"/>
<text x="608.5" y="845" text-anchor="middle" fill="#444">-1</text>
<line x1="636.0" y1="830" x2="636.0" y2="833" stroke="#444"/>
<text x="636.0" y="845" text-anchor="middle" fill="#444">0</text>
<line x1="663.5" y1="830" x2="663.5" y2="833" stroke="#444"/>
<text x="663.5" y="845" text-anchor="middle" fill="#444">1</text>
<line x1="690.9" y1="830" x2="690.9" y2="833" stroke="#444"/>
<text x="690.9" y="845" text-anchor="middle" fill="#444">2</text>
<line x1="718.4" y1="830" x2="718.4" y2="833" stroke="#444"/>
<text x="718.4" y="845" text-anchor="middle" fill="#444">3</text>
<line x1="745.8" y1="830" x2="745.8" y2="833" stroke="#444"/>
<text x="745.8" y="845" text-anchor="middle" fill="#444">4</text>
<line x1="773.3" y1="830" x2="773.3" y2="833" stroke="#444"/>
<text x="773.3" y="845" text-anchor="middle" fill="#444">5</text>
<line x1="482" y1="830.0" x2="485" y2="830.0" stroke="#444"/>
<text x="479" y="833.0" text-anchor="end" fill="#444">-61</text>
<line x1="482" y1="790.0" x2="485" y2="790.0" stroke="#444"/>
<text x="479" y="793.0" text-anchor="end" fill="#444">-21</text>
<line x1="482" y1="750.0" x2="485" y2="750.0" stroke="#444"/>
<text x="479" y="753.0" text-anchor="end" fill="#444">18</text>
<line x1="482" y1="710.0" x2="485" y2="710.0" stroke="#444"/>
<text x="479" y="713.0" text-anchor="end" fill="#444">58</text>
<line x1="482" y1="670.0" x2="485" y2="670.0" stroke="#444"/>
<text x="479" y="673.0" text-anchor="end" fill="#444">97</text>
<text x="636.0" y="864" text-anchor="middle" fill="#444">Event time (years from adoption)</text>
<text x="437" y="750.0" text-anchor="middle" fill="#444" transform="rotate(-90 437 750.0)">ATT (per 100k)</text>
<text x="805" y="608" text-anchor="end" fill="#888" font-size="10">Shaded band: pointwise 95% CI from cluster bootstrap. Vertical dashed line marks the year before adoption.</text>
</svg>