<svg xmlns="http://www.w3.org/2000/svg" viewBox="0 0 820 620" font-family="-apple-system, Segoe UI, Helvetica, Arial, sans-serif" font-size="11">
<text x="410.0" y="22" text-anchor="middle" font-size="14" font-weight="600">Callaway-Sant'Anna ATT by event time (UNWEIGHTED) -- stacked DiD (ubc)</text>
<rect x="15" y="40" width="380" height="260" fill="#fafaf7" stroke="#e2e2dc"/>
<text x="205.0" y="58" text-anchor="middle" font-weight="600">Firearm suicide rate (per 100k)</text>
<line x1="75" y1="152.57426445492" x2="377" y2="152.57426445492" stroke="#aaaaaa" stroke-width="0.7"/>
<polygon points="88.7,90.0 116.2,90.4 143.6,118.1 171.1,102.7 198.5,152.6 226.0,117.6 253.5,118.0 280.9,153.5 308.4,123.3 335.8,163.2 363.3,129.6 363.3,224.1 335.8,250.0 308.4,193.7 280.9,202.2 253.5,184.9 226.0,183.7 198.5,152.6 171.1,175.0 143.6,177.7 116.2,146.6 88.7,163.2" fill="#1f3a5f" opacity="0.18"/>
<polyline points="88.7,126.6 116.2,118.5 143.6,147.9 171.1,138.8 198.5,152.6 226.0,150.7 253.5,151.4 280.9,177.8 308.4,158.5 335.8,206.6 363.3,176.9" fill="none" stroke="#1f3a5f" stroke-width="1.6"/>
<circle cx="88.7" cy="126.6" r="2.6" fill="#1f3a5f"/>
<circle cx="116.2" cy="118.5" r="2.6" fill="#1f3a5f"/>
<circle cx="143.6" cy="147.9" r="2.6" fill="#1f3a5f"/>
<circle cx="171.1" cy="138.8" r="2.6" fill="#1f3a5f"/>
<circle cx="198.5" cy="152.6" r="2.6" fill="#1f3a5f"/>
<circle cx="226.0" cy="150.7" r="2.6" fill="#1f3a5f"/>
<circle cx="253.5" cy="151.4" r="2.6" fill="#1f3a5f"/>
<circle cx="280.9" cy="177.8" r="2.6" fill="#1f3a5f"/>
<circle cx="308.4" cy="158.5" r="2.6" fill="#1f3a5f"/>
<circle cx="335.8" cy="206.6" r="2.6" fill="#1f3a5f"/>
<circle cx="363.3" cy="176.9" r="2.6" fill="#1f3a5f"/>
<line x1="212.3" y1="90" x2="212.3" y2="250" stroke="#b9461a" stroke-dasharray="3 3"/>
<line x1="75" y1="250" x2="377" y2="250" stroke="#444"/>
<line x1="75" y1="90" x2="75" y2="250" stroke="#444"/>
<line x1="88.7" y1="250" x2="88.7" y2="253" stroke="#444"/>
<text x="88.7" y="265" text-anchor="middle" fill="#444">-5</text>
<line x1="116.2" y1="250" x2="116.2" y2="253" stroke="#444"/>
<text x="116.2" y="265" text-anchor="middle" fill="#444">-4</text>
<line x1="143.6" y1="250" x2="143.6" y2="253" stroke="#444"/>
<text x="143.6" y="265" text-anchor="middle" fill="#444">-3</text>
<line x1="171.1" y1="250" x2="171.1" y2="253" stroke="#444"/>
<text x="171.1" y="265" text-anchor="middle" fill="#444">-2</text>
<line x1="198.5" y1="250" x2="198.5" y2="253" stroke="#444"/>
<text x="198.5" y="265" text-anchor="middle" fill="#444">-1</text>
<line x1="226.0" y1="250" x2="226.0" y2="253" stroke="#444"/>
<text x="226.0" y="265" text-anchor="middle" fill="#444">0</text>
<line x1="253.5" y1="250" x2="253.5" y2="253" stroke="#444"/>
<text x="253.5" y="265" text-anchor="middle" fill="#444">1</text>
<line x1="280.9" y1="250" x2="280.9" y2="253" stroke="#444"/>
<text x="280.9" y="265" text-anchor="middle" fill="#444">2</text>
<line x1="308.4" y1="250" x2="308.4" y2="253" stroke="#444"/>
<text x="308.4" y="265" text-anchor="middle" fill="#444">3</text>
<line x1="335.8" y1="250" x2="335.8" y2="253" stroke="#444"/>
<text x="335.8" y="265" text-anchor="middle" fill="#444">4</text>
<line x1="363.3" y1="250" x2="363.3" y2="253" stroke="#444"/>
<text x="363.3" y="265" text-anchor="middle" fill="#444">5</text>
<line x1="72" y1="250.0" x2="75" y2="250.0" stroke="#444"/>
<text x="69" y="253.0" text-anchor="end" fill="#444">-1.1</text>
<line x1="72" y1="210.0" x2="75" y2="210.0" stroke="#444"/>
<text x="69" y="213.0" text-anchor="end" fill="#444">-0.65</text>
<line x1="72" y1="170.0" x2="75" y2="170.0" stroke="#444"/>
<text x="69" y="173.0" text-anchor="end" fill="#444">-0.2</text>
<line x1="72" y1="130.0" x2="75" y2="130.0" stroke="#444"/>
<text x="69" y="133.0" text-anchor="end" fill="#444">0.25</text>
<line x1="72" y1="90.0" x2="75" y2="90.0" stroke="#444"/>
<text x="69" y="93.0" text-anchor="end" fill="#444">0.71</text>
<text x="226.0" y="284" text-anchor="middle" fill="#444">Event time (years from adoption)</text>
<text x="27" y="170.0" text-anchor="middle" fill="#444" transform="rotate(-90 27 170.0)">ATT (per 100k)</text>
<rect x="425" y="40" width="380" height="260" fill="#fafaf7" stroke="#e2e2dc"/>
<text x="615.0" y="58" text-anchor="middle" font-weight="600">Non-firearm suicide rate (per 100k) [substitution test]</text>
<line x1="485" y1="170.99501090276118" x2="787" y2="170.99501090276118" stroke="#aaaaaa" stroke-width="0.7"/>
<polygon points="498.7,117.1 526.2,90.0 553.6,131.2 581.1,161.2 608.5,171.0 636.0,147.6 663.5,167.3 690.9,171.1 718.4,135.0 745.8,158.2 773.3,160.5 773.3,250.0 745.8,226.1 718.4,245.3 690.9,210.6 663.5,201.0 636.0,177.0 608.5,171.0 581.1,203.1 553.6,201.3 526.2,165.5 498.7,185.0" fill="#1f3a5f" opacity="0.18"/>
<polyline points="498.7,151.1 526.2,127.7 553.6,166.3 581.1,182.2 608.5,171.0 636.0,162.3 663.5,184.2 690.9,190.9 718.4,190.2 745.8,192.1 773.3,205.2" fill="none" stroke="#1f3a5f" stroke-width="1.6"/>
<circle cx="498.7" cy="151.1" r="2.6" fill="#1f3a5f"/>
<circle cx="526.2" cy="127.7" r="2.6" fill="#1f3a5f"/>
<circle cx="553.6" cy="166.3" r="2.6" fill="#1f3a5f"/>
<circle cx="581.1" cy="182.2" r="2.6" fill="#1f3a5f"/>
<circle cx="608.5" cy="171.0" r="2.6" fill="#1f3a5f"/>
<circle cx="636.0" cy="162.3" r="2.6" fill="#1f3a5f"/>
<circle cx="663.5" cy="184.2" r="2.6" fill="#1f3a5f"/>
<circle cx="690.9" cy="190.9" r="2.6" fill="#1f3a5f"/>
<circle cx="718.4" cy="190.2" r="2.6" fill="#1f3a5f"/>
<circle cx="745.8" cy="192.1" r="2.6" fill="#1f3a5f"/>
<circle cx="773.3" cy="205.2" r="2.6" fill="#1f3a5f"/>
<line x1="622.3" y1="90" x2="622.3" y2="250" stroke="#b9461a" stroke-dasharray="3 3"/>
<line x1="485" y1="250" x2="787" y2="250" stroke="#444"/>
<line x1="485" y1="90" x2="485" y2="250" stroke="#444"/>
<line x1="498.7" y1="250" x2="498.7" y2="253" stroke="#444"/>
<text x="498.7" y="265" text-anchor="middle" fill="#444">-5</text>
<line x1="526.2" y1="250" x2="526.2" y2="253" stroke="#444"/>
<text x="526.2" y="265" text-anchor="middle" fill="#444">-4</text>
<line x1="553.6" y1="250" x2="553.6" y2="253" stroke="#444"/>
<text x="553.6" y="265" text-anchor="middle" fill="#444">-3</text>
<line x1="581.1" y1="250" x2="581.1" y2="253" stroke="#444"/>
<text x="581.1" y="265" text-anchor="middle" fill="#444">-2</text>
<line x1="608.5" y1="250" x2="608.5" y2="253" stroke="#444"/>
<text x="608.5" y="265" text-anchor="middle" fill="#444">-1</text>
<line x1="636.0" y1="250" x2="636.0" y2="253" stroke="#444"/>
<text x="636.0" y="265" text-anchor="middle" fill="#444">0</text>
<line x1="663.5" y1="250" x2="663.5" y2="253" stroke="#444"/>
<text x="663.5" y="265" text-anchor="middle" fill="#444">1</text>
<line x1="690.9" y1="250" x2="690.9" y2="253" stroke="#444"/>
<text x="690.9" y="265" text-anchor="middle" fill="#444">2</text>
<line x1="718.4" y1="250" x2="718.4" y2="253" stroke="#444"/>
<text x="718.4" y="265" text-anchor="middle" fill="#444">3</text>
<line x1="745.8" y1="250" x2="745.8" y2="253" stroke="#444"/>
<text x="745.8" y="265" text-anchor="middle" fill="#444">4</text>
<line x1="773.3" y1="250" x2="773.3" y2="253" stroke="#444"/>
<text x="773.3" y="265" text-anchor="middle" fill="#444">5</text>
<line x1="482" y1="250.0" x2="485" y2="250.0" stroke="#444"/>
<text x="479" y="253.0" text-anchor="end" fill="#444">-1</text>
<line x1="482" y1="210.0" x2="485" y2="210.0" stroke="#444"/>
<text x="479" y="213.0" text-anchor="end" fill="#444">-0.49</text>
<line x1="482" y1="170.0" x2="485" y2="170.0" stroke="#444"/>
<text x="479" y="173.0" text-anchor="end" fill="#444">0.013</text>
<line x1="482" y1="130.0" x2="485" y2="130.0" stroke="#444"/>
<text x="479" y="133.0" text-anchor="end" fill="#444">0.52</text>
<line x1="482" y1="90.0" x2="485" y2="90.0" stroke="#444"/>
<text x="479" y="93.0" text-anchor="end" fill="#444">1</text>
<text x="636.0" y="284" text-anchor="middle" fill="#444">Event time (years from adoption)</text>
<text x="437" y="170.0" text-anchor="middle" fill="#444" transform="rotate(-90 437 170.0)">ATT (per 100k)</text>
<rect x="15" y="330" width="380" height="260" fill="#fafaf7" stroke="#e2e2dc"/>
<text x="205.0" y="348" text-anchor="middle" font-weight="600">Total suicide rate (per 100k) [net effect]</text>
<line x1="75" y1="454.4753450953469" x2="377" y2="454.4753450953469" stroke="#aaaaaa" stroke-width="0.7"/>
<polygon points="88.7,394.6 116.2,380.0 143.6,417.9 171.1,430.6 198.5,454.5 226.0,430.2 253.5,438.4 280.9,466.4 308.4,432.1 335.8,456.7 363.3,448.0 363.3,531.8 335.8,540.0 308.4,507.9 280.9,496.3 253.5,485.9 226.0,465.6 198.5,454.5 171.1,477.0 143.6,479.8 116.2,435.6 88.7,459.7" fill="#1f3a5f" opacity="0.18"/>
<polyline points="88.7,427.2 116.2,407.8 143.6,448.9 171.1,453.8 198.5,454.5 226.0,447.9 253.5,462.2 280.9,481.3 308.4,470.0 335.8,498.3 363.3,489.9" fill="none" stroke="#1f3a5f" stroke-width="1.6"/>
<circle cx="88.7" cy="427.2" r="2.6" fill="#1f3a5f"/>
<circle cx="116.2" cy="407.8" r="2.6" fill="#1f3a5f"/>
<circle cx="143.6" cy="448.9" r="2.6" fill="#1f3a5f"/>
<circle cx="171.1" cy="453.8" r="2.6" fill="#1f3a5f"/>
<circle cx="198.5" cy="454.5" r="2.6" fill="#1f3a5f"/>
<circle cx="226.0" cy="447.9" r="2.6" fill="#1f3a5f"/>
<circle cx="253.5" cy="462.2" r="2.6" fill="#1f3a5f"/>
<circle cx="280.9" cy="481.3" r="2.6" fill="#1f3a5f"/>
<circle cx="308.4" cy="470.0" r="2.6" fill="#1f3a5f"/>
<circle cx="335.8" cy="498.3" r="2.6" fill="#1f3a5f"/>
<circle cx="363.3" cy="489.9" r="2.6" fill="#1f3a5f"/>
<line x1="212.3" y1="380" x2="212.3" y2="540" stroke="#b9461a" stroke-dasharray="3 3"/>
<line x1="75" y1="540" x2="377" y2="540" stroke="#444"/>
<line x1="75" y1="380" x2="75" y2="540" stroke="#444"/>
<line x1="88.7" y1="540" x2="88.7" y2="543" stroke="#444"/>
<text x="88.7" y="555" text-anchor="middle" fill="#444">-5</text>
<line x1="116.2" y1="540" x2="116.2" y2="543" stroke="#444"/>
<text x="116.2" y="555" text-anchor="middle" fill="#444">-4</text>
<line x1="143.6" y1="540" x2="143.6" y2="543" stroke="#444"/>
<text x="143.6" y="555" text-anchor="middle" fill="#444">-3</text>
<line x1="171.1" y1="540" x2="171.1" y2="543" stroke="#444"/>
<text x="171.1" y="555" text-anchor="middle" fill="#444">-2</text>
<line x1="198.5" y1="540" x2="198.5" y2="543" stroke="#444"/>
<text x="198.5" y="555" text-anchor="middle" fill="#444">-1</text>
<line x1="226.0" y1="540" x2="226.0" y2="543" stroke="#444"/>
<text x="226.0" y="555" text-anchor="middle" fill="#444">0</text>
<line x1="253.5" y1="540" x2="253.5" y2="543" stroke="#444"/>
<text x="253.5" y="555" text-anchor="middle" fill="#444">1</text>
<line x1="280.9" y1="540" x2="280.9" y2="543" stroke="#444"/>
<text x="280.9" y="555" text-anchor="middle" fill="#444">2</text>
<line x1="308.4" y1="540" x2="308.4" y2="543" stroke="#444"/>
<text x="308.4" y="555" text-anchor="middle" fill="#444">3</text>
<line x1="335.8" y1="540" x2="335.8" y2="543" stroke="#444"/>
<text x="335.8" y="555" text-anchor="middle" fill="#444">4</text>
<line x1="363.3" y1="540" x2="363.3" y2="543" stroke="#444"/>
<text x="363.3" y="555" text-anchor="middle" fill="#444">5</text>
<line x1="72" y1="540.0" x2="75" y2="540.0" stroke="#444"/>
<text x="69" y="543.0" text-anchor="end" fill="#444">-1.7</text>
<line x1="72" y1="500.0" x2="75" y2="500.0" stroke="#444"/>
<text x="69" y="503.0" text-anchor="end" fill="#444">-0.91</text>
<line x1="72" y1="460.0" x2="75" y2="460.0" stroke="#444"/>
<text x="69" y="463.0" text-anchor="end" fill="#444">-0.11</text>
<line x1="72" y1="420.0" x2="75" y2="420.0" stroke="#444"/>
<text x="69" y="423.0" text-anchor="end" fill="#444">0.69</text>
<line x1="72" y1="380.0" x2="75" y2="380.0" stroke="#444"/>
<text x="69" y="383.0" text-anchor="end" fill="#444">1.5</text>
<text x="226.0" y="574" text-anchor="middle" fill="#444">Event time (years from adoption)</text>
<text x="27" y="460.0" text-anchor="middle" fill="#444" transform="rotate(-90 27 460.0)">ATT (per 100k)</text>
<rect x="425" y="330" width="380" height="260" fill="#fafaf7" stroke="#e2e2dc"/>
<text x="615.0" y="348" text-anchor="middle" font-weight="600">Firearm homicide rate (per 100k)</text>
<line x1="485" y1="452.1689647309711" x2="787" y2="452.1689647309711" stroke="#aaaaaa" stroke-width="0.7"/>
<polygon points="498.7,380.0 526.2,387.7 553.6,396.7 581.1,415.3 608.5,452.2 636.0,414.0 663.5,442.0 690.9,418.6 718.4,422.3 745.8,403.3 773.3,464.3 773.3,540.0 745.8,529.0 718.4,534.1 690.9,520.3 663.5,489.9 636.0,450.6 608.5,452.2 581.1,489.5 553.6,462.4 526.2,475.0 498.7,479.9" fill="#1f3a5f" opacity="0.18"/>
<polyline points="498.7,430.0 526.2,431.3 553.6,429.5 581.1,452.4 608.5,452.2 636.0,432.3 663.5,465.9 690.9,469.5 718.4,478.2 745.8,466.2 773.3,502.1" fill="none" stroke="#1f3a5f" stroke-width="1.6"/>
<circle cx="498.7" cy="430.0" r="2.6" fill="#1f3a5f"/>
<circle cx="526.2" cy="431.3" r="2.6" fill="#1f3a5f"/>
<circle cx="553.6" cy="429.5" r="2.6" fill="#1f3a5f"/>
<circle cx="581.1" cy="452.4" r="2.6" fill="#1f3a5f"/>
<circle cx="608.5" cy="452.2" r="2.6" fill="#1f3a5f"/>
<circle cx="636.0" cy="432.3" r="2.6" fill="#1f3a5f"/>
<circle cx="663.5" cy="465.9" r="2.6" fill="#1f3a5f"/>
<circle cx="690.9" cy="469.5" r="2.6" fill="#1f3a5f"/>
<circle cx="718.4" cy="478.2" r="2.6" fill="#1f3a5f"/>
<circle cx="745.8" cy="466.2" r="2.6" fill="#1f3a5f"/>
<circle cx="773.3" cy="502.1" r="2.6" fill="#1f3a5f"/>
<line x1="622.3" y1="380" x2="622.3" y2="540" stroke="#b9461a" stroke-dasharray="3 3"/>
<line x1="485" y1="540" x2="787" y2="540" stroke="#444"/>
<line x1="485" y1="380" x2="485" y2="540" stroke="#444"/>
<line x1="498.7" y1="540" x2="498.7" y2="543" stroke="#444"/>
<text x="498.7" y="555" text-anchor="middle" fill="#444">-5</text>
<line x1="526.2" y1="540" x2="526.2" y2="543" stroke="#444"/>
<text x="526.2" y="555" text-anchor="middle" fill="#444">-4</text>
<line x1="553.6" y1="540" x2="553.6" y2="543" stroke="#444"/>
<text x="553.6" y="555" text-anchor="middle" fill="#444">-3</text>
<line x1="581.1" y1="540" x2="581.1" y2="543" stroke="#444"/>
<text x="581.1" y="555" text-anchor="middle" fill="#444">-2</text>
<line x1="608.5" y1="540" x2="608.5" y2="543" stroke="#444"/>
<text x="608.5" y="555" text-anchor="middle" fill="#444">-1</text>
<line x1="636.0" y1="540" x2="636.0" y2="543" stroke="#444"/>
<text x="636.0" y="555" text-anchor="middle" fill="#444">0</text>
<line x1="663.5" y1="540" x2="663.5" y2="543" stroke="#444"/>
<text x="663.5" y="555" text-anchor="middle" fill="#444">1</text>
<line x1="690.9" y1="540" x2="690.9" y2="543" stroke="#444"/>
<text x="690.9" y="555" text-anchor="middle" fill="#444">2</text>
<line x1="718.4" y1="540" x2="718.4" y2="543" stroke="#444"/>
<text x="718.4" y="555" text-anchor="middle" fill="#444">3</text>
<line x1="745.8" y1="540" x2="745.8" y2="543" stroke="#444"/>
<text x="745.8" y="555" text-anchor="middle" fill="#444">4</text>
<line x1="773.3" y1="540" x2="773.3" y2="543" stroke="#444"/>
<text x="773.3" y="555" text-anchor="middle" fill="#444">5</text>
<line x1="482" y1="540.0" x2="485" y2="540.0" stroke="#444"/>
<text x="479" y="543.0" text-anchor="end" fill="#444">-1.2</text>
<line x1="482" y1="500.0" x2="485" y2="500.0" stroke="#444"/>
<text x="479" y="503.0" text-anchor="end" fill="#444">-0.66</text>
<line x1="482" y1="460.0" x2="485" y2="460.0" stroke="#444"/>
<text x="479" y="463.0" text-anchor="end" fill="#444">-0.11</text>
<line x1="482" y1="420.0" x2="485" y2="420.0" stroke="#444"/>
<text x="479" y="423.0" text-anchor="end" fill="#444">0.44</text>
<line x1="482" y1="380.0" x2="485" y2="380.0" stroke="#444"/>
<text x="479" y="383.0" text-anchor="end" fill="#444">0.99</text>
<text x="636.0" y="574" text-anchor="middle" fill="#444">Event time (years from adoption)</text>
<text x="437" y="460.0" text-anchor="middle" fill="#444" transform="rotate(-90 437 460.0)">ATT (per 100k)</text>
<rect x="15" y="620" width="380" height="260" fill="#fafaf7" stroke="#e2e2dc"/>
<text x="205.0" y="638" text-anchor="middle" font-weight="600">Total homicide rate (per 100k)</text>
<line x1="75" y1="739.6702174530745" x2="377" y2="739.6702174530745" stroke="#aaaaaa" stroke-width="0.7"/>
<polygon points="88.7,678.2 116.2,688.2 143.6,691.5 171.1,701.8 198.5,739.7 226.0,670.0 253.5,726.4 280.9,685.7 308.4,702.6 335.8,675.4 363.3,757.6 363.3,824.5 335.8,800.2 308.4,830.0 280.9,813.9 253.5,780.3 226.0,748.2 198.5,739.7 171.1,755.6 143.6,761.8 116.2,774.1 88.7,785.9" fill="#1f3a5f" opacity="0.18"/>
<polyline points="88.7,732.1 116.2,731.1 143.6,726.7 171.1,728.7 198.5,739.7 226.0,709.1 253.5,753.3 280.9,749.8 308.4,766.3 335.8,737.8 363.3,791.1" fill="none" stroke="#1f3a5f" stroke-width="1.6"/>
<circle cx="88.7" cy="732.1" r="2.6" fill="#1f3a5f"/>
<circle cx="116.2" cy="731.1" r="2.6" fill="#1f3a5f"/>
<circle cx="143.6" cy="726.7" r="2.6" fill="#1f3a5f"/>
<circle cx="171.1" cy="728.7" r="2.6" fill="#1f3a5f"/>
<circle cx="198.5" cy="739.7" r="2.6" fill="#1f3a5f"/>
<circle cx="226.0" cy="709.1" r="2.6" fill="#1f3a5f"/>
<circle cx="253.5" cy="753.3" r="2.6" fill="#1f3a5f"/>
<circle cx="280.9" cy="749.8" r="2.6" fill="#1f3a5f"/>
<circle cx="308.4" cy="766.3" r="2.6" fill="#1f3a5f"/>
<circle cx="335.8" cy="737.8" r="2.6" fill="#1f3a5f"/>
<circle cx="363.3" cy="791.1" r="2.6" fill="#1f3a5f"/>
<line x1="212.3" y1="670" x2="212.3" y2="830" stroke="#b9461a" stroke-dasharray="3 3"/>
<line x1="75" y1="830" x2="377" y2="830" stroke="#444"/>
<line x1="75" y1="670" x2="75" y2="830" stroke="#444"/>
<line x1="88.7" y1="830" x2="88.7" y2="833" stroke="#444"/>
<text x="88.7" y="845" text-anchor="middle" fill="#444">-5</text>
<line x1="116.2" y1="830" x2="116.2" y2="833" stroke="#444"/>
<text x="116.2" y="845" text-anchor="middle" fill="#444">-4</text>
<line x1="143.6" y1="830" x2="143.6" y2="833" stroke="#444"/>
<text x="143.6" y="845" text-anchor="middle" fill="#444">-3</text>
<line x1="171.1" y1="830" x2="171.1" y2="833" stroke="#444"/>
<text x="171.1" y="845" text-anchor="middle" fill="#444">-2</text>
<line x1="198.5" y1="830" x2="198.5" y2="833" stroke="#444"/>
<text x="198.5" y="845" text-anchor="middle" fill="#444">-1</text>
<line x1="226.0" y1="830" x2="226.0" y2="833" stroke="#444"/>
<text x="226.0" y="845" text-anchor="middle" fill="#444">0</text>
<line x1="253.5" y1="830" x2="253.5" y2="833" stroke="#444"/>
<text x="253.5" y="845" text-anchor="middle" fill="#444">1</text>
<line x1="280.9" y1="830" x2="280.9" y2="833" stroke="#444"/>
<text x="280.9" y="845" text-anchor="middle" fill="#444">2</text>
<line x1="308.4" y1="830" x2="308.4" y2="833" stroke="#444"/>
<text x="308.4" y="845" text-anchor="middle" fill="#444">3</text>
<line x1="335.8" y1="830" x2="335.8" y2="833" stroke="#444"/>
<text x="335.8" y="845" text-anchor="middle" fill="#444">4</text>
<line x1="363.3" y1="830" x2="363.3" y2="833" stroke="#444"/>
<text x="363.3" y="845" text-anchor="middle" fill="#444">5</text>
<line x1="72" y1="830.0" x2="75" y2="830.0" stroke="#444"/>
<text x="69" y="833.0" text-anchor="end" fill="#444">-1.3</text>
<line x1="72" y1="790.0" x2="75" y2="790.0" stroke="#444"/>
<text x="69" y="793.0" text-anchor="end" fill="#444">-0.7</text>
<line x1="72" y1="750.0" x2="75" y2="750.0" stroke="#444"/>
<text x="69" y="753.0" text-anchor="end" fill="#444">-0.14</text>
<line x1="72" y1="710.0" x2="75" y2="710.0" stroke="#444"/>
<text x="69" y="713.0" text-anchor="end" fill="#444">0.41</text>
<line x1="72" y1="670.0" x2="75" y2="670.0" stroke="#444"/>
<text x="69" y="673.0" text-anchor="end" fill="#444">0.96</text>
<text x="226.0" y="864" text-anchor="middle" fill="#444">Event time (years from adoption)</text>
<text x="27" y="750.0" text-anchor="middle" fill="#444" transform="rotate(-90 27 750.0)">ATT (per 100k)</text>
<rect x="425" y="620" width="380" height="260" fill="#fafaf7" stroke="#e2e2dc"/>
<text x="615.0" y="638" text-anchor="middle" font-weight="600">Motor vehicle theft rate (per 100k) [placebo]</text>
<line x1="485" y1="768.8761674702132" x2="787" y2="768.8761674702132" stroke="#aaaaaa" stroke-width="0.7"/>
<polygon points="498.7,749.1 526.2,756.9 553.6,736.7 581.1,746.3 608.5,768.9 636.0,758.8 663.5,772.0 690.9,670.0 718.4,727.4 745.8,721.7 773.3,706.1 773.3,798.6 745.8,790.7 718.4,795.6 690.9,794.0 663.5,797.7 636.0,801.3 608.5,768.9 581.1,798.5 553.6,794.9 526.2,799.5 498.7,830.0" fill="#1f3a5f" opacity="0.18"/>
<polyline points="498.7,789.6 526.2,778.2 553.6,765.8 581.1,772.4 608.5,768.9 636.0,780.0 663.5,784.9 690.9,732.0 718.4,761.5 745.8,756.2 773.3,752.4" fill="none" stroke="#1f3a5f" stroke-width="1.6"/>
<circle cx="498.7" cy="789.6" r="2.6" fill="#1f3a5f"/>
<circle cx="526.2" cy="778.2" r="2.6" fill="#1f3a5f"/>
<circle cx="553.6" cy="765.8" r="2.6" fill="#1f3a5f"/>
<circle cx="581.1" cy="772.4" r="2.6" fill="#1f3a5f"/>
<circle cx="608.5" cy="768.9" r="2.6" fill="#1f3a5f"/>
<circle cx="636.0" cy="780.0" r="2.6" fill="#1f3a5f"/>
<circle cx="663.5" cy="784.9" r="2.6" fill="#1f3a5f"/>
<circle cx="690.9" cy="732.0" r="2.6" fill="#1f3a5f"/>
<circle cx="718.4" cy="761.5" r="2.6" fill="#1f3a5f"/>
<circle cx="745.8" cy="756.2" r="2.6" fill="#1f3a5f"/>
<circle cx="773.3" cy="752.4" r="2.6" fill="#1f3a5f"/>
<line x1="622.3" y1="670" x2="622.3" y2="830" stroke="#b9461a" stroke-dasharray="3 3"/>
<line x1="485" y1="830" x2="787" y2="830" stroke="#444"/>
<line x1="485" y1="670" x2="485" y2="830" stroke="#444"/>
<line x1="498.7" y1="830" x2="498.7" y2="833" stroke="#444"/>
<text x="498.7" y="845" text-anchor="middle" fill="#444">-5</text>
<line x1="526.2" y1="830" x2="526.2" y2="833" stroke="#444"/>
<text x="526.2" y="845" text-anchor="middle" fill="#444">-4</text>
<line x1="553.6" y1="830" x2="553.6" y2="833" stroke="#444"/>
<text x="553.6" y="845" text-anchor="middle" fill="#444">-3</text>
<line x1="581.1" y1="830" x2="581.1" y2="833" stroke="#444"/>
<text x="581.1" y="845" text-anchor="middle" fill="#444">-2</text>
<line x1="608.5" y1="830" x2="608.5" y2="833" stroke="#444"/>
<text x="608.5" y="845" text-anchor="middle" fill="#444">-1</text>
<line x1="636.0" y1="830" x2="636.0" y2="833" stroke="#444"/>
<text x="636.0" y="845" text-anchor="middle" fill="#444">0</text>
<line x1="663.5" y1="830" x2="663.5" y2="833" stroke="#444"/>
<text x="663.5" y="845" text-anchor="middle" fill="#444">1</text>
<line x1="690.9" y1="830" x2="690.9" y2="833" stroke="#444"/>
<text x="690.9" y="845" text-anchor="middle" fill="#444">2</text>
<line x1="718.4" y1="830" x2="718.4" y2="833" stroke="#444"/>
<text x="718.4" y="845" text-anchor="middle" fill="#444">3</text>
<line x1="745.8" y1="830" x2="745.8" y2="833" stroke="#444"/>
<text x="745.8" y="845" text-anchor="middle" fill="#444">4</text>
<line x1="773.3" y1="830" x2="773.3" y2="833" stroke="#444"/>
<text x="773.3" y="845" text-anchor="middle" fill="#444">5</text>
<line x1="482" y1="830.0" x2="485" y2="830.0" stroke="#444"/>
<text x="479" y="833.0" text-anchor="end" fill="#444">-57</text>
<line x1="482" y1="790.0" x2="485" y2="790.0" stroke="#444"/>
<text x="479" y="793.0" text-anchor="end" fill="#444">-20</text>
<line x1="482" y1="750.0" x2="485" y2="750.0" stroke="#444"/>
<text x="479" y="753.0" text-anchor="end" fill="#444">18</text>
<line x1="482" y1="710.0" x2="485" y2="710.0" stroke="#444"/>
<text x="479" y="713.0" text-anchor="end" fill="#444">55</text>
<line x1="482" y1="670.0" x2="485" y2="670.0" stroke="#444"/>
<text x="479" y="673.0" text-anchor="end" fill="#444">92</text>
<text x="636.0" y="864" text-anchor="middle" fill="#444">Event time (years from adoption)</text>
<text x="437" y="750.0" text-anchor="middle" fill="#444" transform="rotate(-90 437 750.0)">ATT (per 100k)</text>
<text x="805" y="608" text-anchor="end" fill="#888" font-size="10">Shaded band: pointwise 95% CI from cluster bootstrap. Vertical dashed line marks the year before adoption.</text>
</svg>