<svg xmlns="http://www.w3.org/2000/svg" viewBox="0 0 820 620" font-family="-apple-system, Segoe UI, Helvetica, Arial, sans-serif" font-size="11">
<text x="410.0" y="22" text-anchor="middle" font-size="14" font-weight="600">Spatial RDD event study (stand_your_ground, secondary outcomes)</text>
<rect x="15" y="40" width="380" height="260" fill="#fafaf7" stroke="#e2e2dc"/>
<text x="205.0" y="58" text-anchor="middle" font-weight="600">State firearm suicide rate (per 100,000)</text>
<line x1="75" y1="166.2924195518389" x2="377" y2="166.2924195518389" stroke="#aaaaaa" stroke-width="0.7"/>
<line x1="212.3" y1="90" x2="212.3" y2="250" stroke="#b9461a" stroke-dasharray="3 3"/>
<line x1="88.7" y1="250.0" x2="88.7" y2="219.5" stroke="#1f3a5f" stroke-width="1.4" opacity="1.00"/>
<line x1="84.7" y1="250.0" x2="92.7" y2="250.0" stroke="#1f3a5f" stroke-width="1.2" opacity="1.00"/>
<line x1="84.7" y1="219.5" x2="92.7" y2="219.5" stroke="#1f3a5f" stroke-width="1.2" opacity="1.00"/>
<circle cx="88.7" cy="234.7" r="3.2" fill="#1f3a5f"/>
<line x1="116.2" y1="209.0" x2="116.2" y2="120.1" stroke="#1f3a5f" stroke-width="1.4" opacity="0.35"/>
<line x1="112.2" y1="209.0" x2="120.2" y2="209.0" stroke="#1f3a5f" stroke-width="1.2" opacity="0.35"/>
<line x1="112.2" y1="120.1" x2="120.2" y2="120.1" stroke="#1f3a5f" stroke-width="1.2" opacity="0.35"/>
<circle cx="116.2" cy="164.5" r="3.2" fill="white" stroke="#1f3a5f" stroke-width="1.3" opacity="0.35"/>
<line x1="143.6" y1="239.3" x2="143.6" y2="194.0" stroke="#1f3a5f" stroke-width="1.4" opacity="1.00"/>
<line x1="139.6" y1="239.3" x2="147.6" y2="239.3" stroke="#1f3a5f" stroke-width="1.2" opacity="1.00"/>
<line x1="139.6" y1="194.0" x2="147.6" y2="194.0" stroke="#1f3a5f" stroke-width="1.2" opacity="1.00"/>
<circle cx="143.6" cy="216.6" r="3.2" fill="#1f3a5f"/>
<line x1="171.1" y1="213.5" x2="171.1" y2="169.9" stroke="#1f3a5f" stroke-width="1.4" opacity="1.00"/>
<line x1="167.1" y1="213.5" x2="175.1" y2="213.5" stroke="#1f3a5f" stroke-width="1.2" opacity="1.00"/>
<line x1="167.1" y1="169.9" x2="175.1" y2="169.9" stroke="#1f3a5f" stroke-width="1.2" opacity="1.00"/>
<circle cx="171.1" cy="191.7" r="3.2" fill="#1f3a5f"/>
<line x1="198.5" y1="166.3" x2="198.5" y2="166.3" stroke="#1f3a5f" stroke-width="1.4" opacity="0.35"/>
<line x1="194.5" y1="166.3" x2="202.5" y2="166.3" stroke="#1f3a5f" stroke-width="1.2" opacity="0.35"/>
<line x1="194.5" y1="166.3" x2="202.5" y2="166.3" stroke="#1f3a5f" stroke-width="1.2" opacity="0.35"/>
<circle cx="198.5" cy="166.3" r="3.2" fill="white" stroke="#1f3a5f" stroke-width="1.3" opacity="0.35"/>
<line x1="226.0" y1="160.5" x2="226.0" y2="97.2" stroke="#1f3a5f" stroke-width="1.4" opacity="1.00"/>
<line x1="222.0" y1="160.5" x2="230.0" y2="160.5" stroke="#1f3a5f" stroke-width="1.2" opacity="1.00"/>
<line x1="222.0" y1="97.2" x2="230.0" y2="97.2" stroke="#1f3a5f" stroke-width="1.2" opacity="1.00"/>
<circle cx="226.0" cy="128.8" r="3.2" fill="#1f3a5f"/>
<line x1="253.5" y1="218.3" x2="253.5" y2="160.0" stroke="#1f3a5f" stroke-width="1.4" opacity="0.35"/>
<line x1="249.5" y1="218.3" x2="257.5" y2="218.3" stroke="#1f3a5f" stroke-width="1.2" opacity="0.35"/>
<line x1="249.5" y1="160.0" x2="257.5" y2="160.0" stroke="#1f3a5f" stroke-width="1.2" opacity="0.35"/>
<circle cx="253.5" cy="189.2" r="3.2" fill="white" stroke="#1f3a5f" stroke-width="1.3" opacity="0.35"/>
<line x1="280.9" y1="155.1" x2="280.9" y2="103.3" stroke="#1f3a5f" stroke-width="1.4" opacity="1.00"/>
<line x1="276.9" y1="155.1" x2="284.9" y2="155.1" stroke="#1f3a5f" stroke-width="1.2" opacity="1.00"/>
<line x1="276.9" y1="103.3" x2="284.9" y2="103.3" stroke="#1f3a5f" stroke-width="1.2" opacity="1.00"/>
<circle cx="280.9" cy="129.2" r="3.2" fill="#1f3a5f"/>
<line x1="308.4" y1="151.1" x2="308.4" y2="90.0" stroke="#1f3a5f" stroke-width="1.4" opacity="1.00"/>
<line x1="304.4" y1="151.1" x2="312.4" y2="151.1" stroke="#1f3a5f" stroke-width="1.2" opacity="1.00"/>
<line x1="304.4" y1="90.0" x2="312.4" y2="90.0" stroke="#1f3a5f" stroke-width="1.2" opacity="1.00"/>
<circle cx="308.4" cy="120.5" r="3.2" fill="#1f3a5f"/>
<line x1="335.8" y1="168.2" x2="335.8" y2="117.7" stroke="#1f3a5f" stroke-width="1.4" opacity="0.35"/>
<line x1="331.8" y1="168.2" x2="339.8" y2="168.2" stroke="#1f3a5f" stroke-width="1.2" opacity="0.35"/>
<line x1="331.8" y1="117.7" x2="339.8" y2="117.7" stroke="#1f3a5f" stroke-width="1.2" opacity="0.35"/>
<circle cx="335.8" cy="143.0" r="3.2" fill="white" stroke="#1f3a5f" stroke-width="1.3" opacity="0.35"/>
<line x1="363.3" y1="187.2" x2="363.3" y2="131.1" stroke="#1f3a5f" stroke-width="1.4" opacity="0.35"/>
<line x1="359.3" y1="187.2" x2="367.3" y2="187.2" stroke="#1f3a5f" stroke-width="1.2" opacity="0.35"/>
<line x1="359.3" y1="131.1" x2="367.3" y2="131.1" stroke="#1f3a5f" stroke-width="1.2" opacity="0.35"/>
<circle cx="363.3" cy="159.1" r="3.2" fill="white" stroke="#1f3a5f" stroke-width="1.3" opacity="0.35"/>
<line x1="75" y1="250" x2="377" y2="250" stroke="#444"/>
<line x1="75" y1="90" x2="75" y2="250" stroke="#444"/>
<line x1="88.7" y1="250" x2="88.7" y2="253" stroke="#444"/>
<text x="88.7" y="265" text-anchor="middle" fill="#444">-5</text>
<line x1="116.2" y1="250" x2="116.2" y2="253" stroke="#444"/>
<text x="116.2" y="265" text-anchor="middle" fill="#444">-4</text>
<line x1="143.6" y1="250" x2="143.6" y2="253" stroke="#444"/>
<text x="143.6" y="265" text-anchor="middle" fill="#444">-3</text>
<line x1="171.1" y1="250" x2="171.1" y2="253" stroke="#444"/>
<text x="171.1" y="265" text-anchor="middle" fill="#444">-2</text>
<line x1="198.5" y1="250" x2="198.5" y2="253" stroke="#444"/>
<text x="198.5" y="265" text-anchor="middle" fill="#444">-1</text>
<line x1="226.0" y1="250" x2="226.0" y2="253" stroke="#444"/>
<text x="226.0" y="265" text-anchor="middle" fill="#444">0</text>
<line x1="253.5" y1="250" x2="253.5" y2="253" stroke="#444"/>
<text x="253.5" y="265" text-anchor="middle" fill="#444">1</text>
<line x1="280.9" y1="250" x2="280.9" y2="253" stroke="#444"/>
<text x="280.9" y="265" text-anchor="middle" fill="#444">2</text>
<line x1="308.4" y1="250" x2="308.4" y2="253" stroke="#444"/>
<text x="308.4" y="265" text-anchor="middle" fill="#444">3</text>
<line x1="335.8" y1="250" x2="335.8" y2="253" stroke="#444"/>
<text x="335.8" y="265" text-anchor="middle" fill="#444">4</text>
<line x1="363.3" y1="250" x2="363.3" y2="253" stroke="#444"/>
<text x="363.3" y="265" text-anchor="middle" fill="#444">5</text>
<line x1="72" y1="250.0" x2="75" y2="250.0" stroke="#444"/>
<text x="69" y="253.0" text-anchor="end" fill="#444">-0.76</text>
<line x1="72" y1="210.0" x2="75" y2="210.0" stroke="#444"/>
<text x="69" y="213.0" text-anchor="end" fill="#444">-0.4</text>
<line x1="72" y1="170.0" x2="75" y2="170.0" stroke="#444"/>
<text x="69" y="173.0" text-anchor="end" fill="#444">-0.034</text>
<line x1="72" y1="130.0" x2="75" y2="130.0" stroke="#444"/>
<text x="69" y="133.0" text-anchor="end" fill="#444">0.33</text>
<line x1="72" y1="90.0" x2="75" y2="90.0" stroke="#444"/>
<text x="69" y="93.0" text-anchor="end" fill="#444">0.69</text>
<text x="226.0" y="284" text-anchor="middle" fill="#444">Event time (years from adoption)</text>
<text x="27" y="170.0" text-anchor="middle" fill="#444" transform="rotate(-90 27 170.0)">Coefficient (per 100k)</text>
<rect x="425" y="40" width="380" height="260" fill="#fafaf7" stroke="#e2e2dc"/>
<text x="615.0" y="58" text-anchor="middle" font-weight="600">State total suicide rate (per 100,000)</text>
<line x1="485" y1="171.12041142041792" x2="787" y2="171.12041142041792" stroke="#aaaaaa" stroke-width="0.7"/>
<line x1="622.3" y1="90" x2="622.3" y2="250" stroke="#b9461a" stroke-dasharray="3 3"/>
<line x1="498.7" y1="250.0" x2="498.7" y2="181.5" stroke="#1f3a5f" stroke-width="1.4" opacity="1.00"/>
<line x1="494.7" y1="250.0" x2="502.7" y2="250.0" stroke="#1f3a5f" stroke-width="1.2" opacity="1.00"/>
<line x1="494.7" y1="181.5" x2="502.7" y2="181.5" stroke="#1f3a5f" stroke-width="1.2" opacity="1.00"/>
<circle cx="498.7" cy="215.7" r="3.2" fill="#1f3a5f"/>
<line x1="526.2" y1="219.6" x2="526.2" y2="131.0" stroke="#1f3a5f" stroke-width="1.4" opacity="0.35"/>
<line x1="522.2" y1="219.6" x2="530.2" y2="219.6" stroke="#1f3a5f" stroke-width="1.2" opacity="0.35"/>
<line x1="522.2" y1="131.0" x2="530.2" y2="131.0" stroke="#1f3a5f" stroke-width="1.2" opacity="0.35"/>
<circle cx="526.2" cy="175.3" r="3.2" fill="white" stroke="#1f3a5f" stroke-width="1.3" opacity="0.35"/>
<line x1="553.6" y1="245.9" x2="553.6" y2="162.0" stroke="#1f3a5f" stroke-width="1.4" opacity="0.35"/>
<line x1="549.6" y1="245.9" x2="557.6" y2="245.9" stroke="#1f3a5f" stroke-width="1.2" opacity="0.35"/>
<line x1="549.6" y1="162.0" x2="557.6" y2="162.0" stroke="#1f3a5f" stroke-width="1.2" opacity="0.35"/>
<circle cx="553.6" cy="204.0" r="3.2" fill="white" stroke="#1f3a5f" stroke-width="1.3" opacity="0.35"/>
<line x1="581.1" y1="215.7" x2="581.1" y2="175.8" stroke="#1f3a5f" stroke-width="1.4" opacity="1.00"/>
<line x1="577.1" y1="215.7" x2="585.1" y2="215.7" stroke="#1f3a5f" stroke-width="1.2" opacity="1.00"/>
<line x1="577.1" y1="175.8" x2="585.1" y2="175.8" stroke="#1f3a5f" stroke-width="1.2" opacity="1.00"/>
<circle cx="581.1" cy="195.7" r="3.2" fill="#1f3a5f"/>
<line x1="608.5" y1="171.1" x2="608.5" y2="171.1" stroke="#1f3a5f" stroke-width="1.4" opacity="0.35"/>
<line x1="604.5" y1="171.1" x2="612.5" y2="171.1" stroke="#1f3a5f" stroke-width="1.2" opacity="0.35"/>
<line x1="604.5" y1="171.1" x2="612.5" y2="171.1" stroke="#1f3a5f" stroke-width="1.2" opacity="0.35"/>
<circle cx="608.5" cy="171.1" r="3.2" fill="white" stroke="#1f3a5f" stroke-width="1.3" opacity="0.35"/>
<line x1="636.0" y1="178.0" x2="636.0" y2="116.9" stroke="#1f3a5f" stroke-width="1.4" opacity="0.35"/>
<line x1="632.0" y1="178.0" x2="640.0" y2="178.0" stroke="#1f3a5f" stroke-width="1.2" opacity="0.35"/>
<line x1="632.0" y1="116.9" x2="640.0" y2="116.9" stroke="#1f3a5f" stroke-width="1.2" opacity="0.35"/>
<circle cx="636.0" cy="147.5" r="3.2" fill="white" stroke="#1f3a5f" stroke-width="1.3" opacity="0.35"/>
<line x1="663.5" y1="225.3" x2="663.5" y2="162.7" stroke="#1f3a5f" stroke-width="1.4" opacity="0.35"/>
<line x1="659.5" y1="225.3" x2="667.5" y2="225.3" stroke="#1f3a5f" stroke-width="1.2" opacity="0.35"/>
<line x1="659.5" y1="162.7" x2="667.5" y2="162.7" stroke="#1f3a5f" stroke-width="1.2" opacity="0.35"/>
<circle cx="663.5" cy="194.0" r="3.2" fill="white" stroke="#1f3a5f" stroke-width="1.3" opacity="0.35"/>
<line x1="690.9" y1="165.6" x2="690.9" y2="90.0" stroke="#1f3a5f" stroke-width="1.4" opacity="1.00"/>
<line x1="686.9" y1="165.6" x2="694.9" y2="165.6" stroke="#1f3a5f" stroke-width="1.2" opacity="1.00"/>
<line x1="686.9" y1="90.0" x2="694.9" y2="90.0" stroke="#1f3a5f" stroke-width="1.2" opacity="1.00"/>
<circle cx="690.9" cy="127.8" r="3.2" fill="#1f3a5f"/>
<line x1="718.4" y1="157.1" x2="718.4" y2="90.8" stroke="#1f3a5f" stroke-width="1.4" opacity="1.00"/>
<line x1="714.4" y1="157.1" x2="722.4" y2="157.1" stroke="#1f3a5f" stroke-width="1.2" opacity="1.00"/>
<line x1="714.4" y1="90.8" x2="722.4" y2="90.8" stroke="#1f3a5f" stroke-width="1.2" opacity="1.00"/>
<circle cx="718.4" cy="123.9" r="3.2" fill="#1f3a5f"/>
<line x1="745.8" y1="166.6" x2="745.8" y2="123.5" stroke="#1f3a5f" stroke-width="1.4" opacity="1.00"/>
<line x1="741.8" y1="166.6" x2="749.8" y2="166.6" stroke="#1f3a5f" stroke-width="1.2" opacity="1.00"/>
<line x1="741.8" y1="123.5" x2="749.8" y2="123.5" stroke="#1f3a5f" stroke-width="1.2" opacity="1.00"/>
<circle cx="745.8" cy="145.0" r="3.2" fill="#1f3a5f"/>
<line x1="773.3" y1="173.7" x2="773.3" y2="93.5" stroke="#1f3a5f" stroke-width="1.4" opacity="0.35"/>
<line x1="769.3" y1="173.7" x2="777.3" y2="173.7" stroke="#1f3a5f" stroke-width="1.2" opacity="0.35"/>
<line x1="769.3" y1="93.5" x2="777.3" y2="93.5" stroke="#1f3a5f" stroke-width="1.2" opacity="0.35"/>
<circle cx="773.3" cy="133.6" r="3.2" fill="white" stroke="#1f3a5f" stroke-width="1.3" opacity="0.35"/>
<line x1="485" y1="250" x2="787" y2="250" stroke="#444"/>
<line x1="485" y1="90" x2="485" y2="250" stroke="#444"/>
<line x1="498.7" y1="250" x2="498.7" y2="253" stroke="#444"/>
<text x="498.7" y="265" text-anchor="middle" fill="#444">-5</text>
<line x1="526.2" y1="250" x2="526.2" y2="253" stroke="#444"/>
<text x="526.2" y="265" text-anchor="middle" fill="#444">-4</text>
<line x1="553.6" y1="250" x2="553.6" y2="253" stroke="#444"/>
<text x="553.6" y="265" text-anchor="middle" fill="#444">-3</text>
<line x1="581.1" y1="250" x2="581.1" y2="253" stroke="#444"/>
<text x="581.1" y="265" text-anchor="middle" fill="#444">-2</text>
<line x1="608.5" y1="250" x2="608.5" y2="253" stroke="#444"/>
<text x="608.5" y="265" text-anchor="middle" fill="#444">-1</text>
<line x1="636.0" y1="250" x2="636.0" y2="253" stroke="#444"/>
<text x="636.0" y="265" text-anchor="middle" fill="#444">0</text>
<line x1="663.5" y1="250" x2="663.5" y2="253" stroke="#444"/>
<text x="663.5" y="265" text-anchor="middle" fill="#444">1</text>
<line x1="690.9" y1="250" x2="690.9" y2="253" stroke="#444"/>
<text x="690.9" y="265" text-anchor="middle" fill="#444">2</text>
<line x1="718.4" y1="250" x2="718.4" y2="253" stroke="#444"/>
<text x="718.4" y="265" text-anchor="middle" fill="#444">3</text>
<line x1="745.8" y1="250" x2="745.8" y2="253" stroke="#444"/>
<text x="745.8" y="265" text-anchor="middle" fill="#444">4</text>
<line x1="773.3" y1="250" x2="773.3" y2="253" stroke="#444"/>
<text x="773.3" y="265" text-anchor="middle" fill="#444">5</text>
<line x1="482" y1="250.0" x2="485" y2="250.0" stroke="#444"/>
<text x="479" y="253.0" text-anchor="end" fill="#444">-0.9</text>
<line x1="482" y1="210.0" x2="485" y2="210.0" stroke="#444"/>
<text x="479" y="213.0" text-anchor="end" fill="#444">-0.44</text>
<line x1="482" y1="170.0" x2="485" y2="170.0" stroke="#444"/>
<text x="479" y="173.0" text-anchor="end" fill="#444">0.013</text>
<line x1="482" y1="130.0" x2="485" y2="130.0" stroke="#444"/>
<text x="479" y="133.0" text-anchor="end" fill="#444">0.47</text>
<line x1="482" y1="90.0" x2="485" y2="90.0" stroke="#444"/>
<text x="479" y="93.0" text-anchor="end" fill="#444">0.93</text>
<text x="636.0" y="284" text-anchor="middle" fill="#444">Event time (years from adoption)</text>
<text x="437" y="170.0" text-anchor="middle" fill="#444" transform="rotate(-90 437 170.0)">Coefficient (per 100k)</text>
<rect x="15" y="330" width="380" height="260" fill="#fafaf7" stroke="#e2e2dc"/>
<text x="205.0" y="348" text-anchor="middle" font-weight="600">State non-firearm suicide rate (per 100,000) [substitution]</text>
<line x1="75" y1="490.1040720130924" x2="377" y2="490.1040720130924" stroke="#aaaaaa" stroke-width="0.7"/>
<line x1="212.3" y1="380" x2="212.3" y2="540" stroke="#b9461a" stroke-dasharray="3 3"/>
<line x1="88.7" y1="530.3" x2="88.7" y2="412.4" stroke="#1f3a5f" stroke-width="1.4" opacity="0.35"/>
<line x1="84.7" y1="530.3" x2="92.7" y2="530.3" stroke="#1f3a5f" stroke-width="1.2" opacity="0.35"/>
<line x1="84.7" y1="412.4" x2="92.7" y2="412.4" stroke="#1f3a5f" stroke-width="1.2" opacity="0.35"/>
<circle cx="88.7" cy="471.4" r="3.2" fill="white" stroke="#1f3a5f" stroke-width="1.3" opacity="0.35"/>
<line x1="116.2" y1="528.0" x2="116.2" y2="473.5" stroke="#1f3a5f" stroke-width="1.4" opacity="0.35"/>
<line x1="112.2" y1="528.0" x2="120.2" y2="528.0" stroke="#1f3a5f" stroke-width="1.2" opacity="0.35"/>
<line x1="112.2" y1="473.5" x2="120.2" y2="473.5" stroke="#1f3a5f" stroke-width="1.2" opacity="0.35"/>
<circle cx="116.2" cy="500.8" r="3.2" fill="white" stroke="#1f3a5f" stroke-width="1.3" opacity="0.35"/>
<line x1="143.6" y1="536.4" x2="143.6" y2="416.3" stroke="#1f3a5f" stroke-width="1.4" opacity="0.35"/>
<line x1="139.6" y1="536.4" x2="147.6" y2="536.4" stroke="#1f3a5f" stroke-width="1.2" opacity="0.35"/>
<line x1="139.6" y1="416.3" x2="147.6" y2="416.3" stroke="#1f3a5f" stroke-width="1.2" opacity="0.35"/>
<circle cx="143.6" cy="476.3" r="3.2" fill="white" stroke="#1f3a5f" stroke-width="1.3" opacity="0.35"/>
<line x1="171.1" y1="520.7" x2="171.1" y2="476.2" stroke="#1f3a5f" stroke-width="1.4" opacity="0.35"/>
<line x1="167.1" y1="520.7" x2="175.1" y2="520.7" stroke="#1f3a5f" stroke-width="1.2" opacity="0.35"/>
<line x1="167.1" y1="476.2" x2="175.1" y2="476.2" stroke="#1f3a5f" stroke-width="1.2" opacity="0.35"/>
<circle cx="171.1" cy="498.5" r="3.2" fill="white" stroke="#1f3a5f" stroke-width="1.3" opacity="0.35"/>
<line x1="198.5" y1="490.1" x2="198.5" y2="490.1" stroke="#1f3a5f" stroke-width="1.4" opacity="0.35"/>
<line x1="194.5" y1="490.1" x2="202.5" y2="490.1" stroke="#1f3a5f" stroke-width="1.2" opacity="0.35"/>
<line x1="194.5" y1="490.1" x2="202.5" y2="490.1" stroke="#1f3a5f" stroke-width="1.2" opacity="0.35"/>
<circle cx="198.5" cy="490.1" r="3.2" fill="white" stroke="#1f3a5f" stroke-width="1.3" opacity="0.35"/>
<line x1="226.0" y1="540.0" x2="226.0" y2="463.8" stroke="#1f3a5f" stroke-width="1.4" opacity="0.35"/>
<line x1="222.0" y1="540.0" x2="230.0" y2="540.0" stroke="#1f3a5f" stroke-width="1.2" opacity="0.35"/>
<line x1="222.0" y1="463.8" x2="230.0" y2="463.8" stroke="#1f3a5f" stroke-width="1.2" opacity="0.35"/>
<circle cx="226.0" cy="501.9" r="3.2" fill="white" stroke="#1f3a5f" stroke-width="1.3" opacity="0.35"/>
<line x1="253.5" y1="527.4" x2="253.5" y2="470.5" stroke="#1f3a5f" stroke-width="1.4" opacity="0.35"/>
<line x1="249.5" y1="527.4" x2="257.5" y2="527.4" stroke="#1f3a5f" stroke-width="1.2" opacity="0.35"/>
<line x1="249.5" y1="470.5" x2="257.5" y2="470.5" stroke="#1f3a5f" stroke-width="1.2" opacity="0.35"/>
<circle cx="253.5" cy="499.0" r="3.2" fill="white" stroke="#1f3a5f" stroke-width="1.3" opacity="0.35"/>
<line x1="280.9" y1="511.1" x2="280.9" y2="416.3" stroke="#1f3a5f" stroke-width="1.4" opacity="0.35"/>
<line x1="276.9" y1="511.1" x2="284.9" y2="511.1" stroke="#1f3a5f" stroke-width="1.2" opacity="0.35"/>
<line x1="276.9" y1="416.3" x2="284.9" y2="416.3" stroke="#1f3a5f" stroke-width="1.2" opacity="0.35"/>
<circle cx="280.9" cy="463.7" r="3.2" fill="white" stroke="#1f3a5f" stroke-width="1.3" opacity="0.35"/>
<line x1="308.4" y1="511.2" x2="308.4" y2="427.8" stroke="#1f3a5f" stroke-width="1.4" opacity="0.35"/>
<line x1="304.4" y1="511.2" x2="312.4" y2="511.2" stroke="#1f3a5f" stroke-width="1.2" opacity="0.35"/>
<line x1="304.4" y1="427.8" x2="312.4" y2="427.8" stroke="#1f3a5f" stroke-width="1.2" opacity="0.35"/>
<circle cx="308.4" cy="469.5" r="3.2" fill="white" stroke="#1f3a5f" stroke-width="1.3" opacity="0.35"/>
<line x1="335.8" y1="511.0" x2="335.8" y2="440.4" stroke="#1f3a5f" stroke-width="1.4" opacity="0.35"/>
<line x1="331.8" y1="511.0" x2="339.8" y2="511.0" stroke="#1f3a5f" stroke-width="1.2" opacity="0.35"/>
<line x1="331.8" y1="440.4" x2="339.8" y2="440.4" stroke="#1f3a5f" stroke-width="1.2" opacity="0.35"/>
<circle cx="335.8" cy="475.7" r="3.2" fill="white" stroke="#1f3a5f" stroke-width="1.3" opacity="0.35"/>
<line x1="363.3" y1="478.8" x2="363.3" y2="380.0" stroke="#1f3a5f" stroke-width="1.4" opacity="1.00"/>
<line x1="359.3" y1="478.8" x2="367.3" y2="478.8" stroke="#1f3a5f" stroke-width="1.2" opacity="1.00"/>
<line x1="359.3" y1="380.0" x2="367.3" y2="380.0" stroke="#1f3a5f" stroke-width="1.2" opacity="1.00"/>
<circle cx="363.3" cy="429.4" r="3.2" fill="#1f3a5f"/>
<line x1="75" y1="540" x2="377" y2="540" stroke="#444"/>
<line x1="75" y1="380" x2="75" y2="540" stroke="#444"/>
<line x1="88.7" y1="540" x2="88.7" y2="543" stroke="#444"/>
<text x="88.7" y="555" text-anchor="middle" fill="#444">-5</text>
<line x1="116.2" y1="540" x2="116.2" y2="543" stroke="#444"/>
<text x="116.2" y="555" text-anchor="middle" fill="#444">-4</text>
<line x1="143.6" y1="540" x2="143.6" y2="543" stroke="#444"/>
<text x="143.6" y="555" text-anchor="middle" fill="#444">-3</text>
<line x1="171.1" y1="540" x2="171.1" y2="543" stroke="#444"/>
<text x="171.1" y="555" text-anchor="middle" fill="#444">-2</text>
<line x1="198.5" y1="540" x2="198.5" y2="543" stroke="#444"/>
<text x="198.5" y="555" text-anchor="middle" fill="#444">-1</text>
<line x1="226.0" y1="540" x2="226.0" y2="543" stroke="#444"/>
<text x="226.0" y="555" text-anchor="middle" fill="#444">0</text>
<line x1="253.5" y1="540" x2="253.5" y2="543" stroke="#444"/>
<text x="253.5" y="555" text-anchor="middle" fill="#444">1</text>
<line x1="280.9" y1="540" x2="280.9" y2="543" stroke="#444"/>
<text x="280.9" y="555" text-anchor="middle" fill="#444">2</text>
<line x1="308.4" y1="540" x2="308.4" y2="543" stroke="#444"/>
<text x="308.4" y="555" text-anchor="middle" fill="#444">3</text>
<line x1="335.8" y1="540" x2="335.8" y2="543" stroke="#444"/>
<text x="335.8" y="555" text-anchor="middle" fill="#444">4</text>
<line x1="363.3" y1="540" x2="363.3" y2="543" stroke="#444"/>
<text x="363.3" y="555" text-anchor="middle" fill="#444">5</text>
<line x1="72" y1="540.0" x2="75" y2="540.0" stroke="#444"/>
<text x="69" y="543.0" text-anchor="end" fill="#444">-0.3</text>
<line x1="72" y1="500.0" x2="75" y2="500.0" stroke="#444"/>
<text x="69" y="503.0" text-anchor="end" fill="#444">-0.059</text>
<line x1="72" y1="460.0" x2="75" y2="460.0" stroke="#444"/>
<text x="69" y="463.0" text-anchor="end" fill="#444">0.18</text>
<line x1="72" y1="420.0" x2="75" y2="420.0" stroke="#444"/>
<text x="69" y="423.0" text-anchor="end" fill="#444">0.42</text>
<line x1="72" y1="380.0" x2="75" y2="380.0" stroke="#444"/>
<text x="69" y="383.0" text-anchor="end" fill="#444">0.66</text>
<text x="226.0" y="574" text-anchor="middle" fill="#444">Event time (years from adoption)</text>
<text x="27" y="460.0" text-anchor="middle" fill="#444" transform="rotate(-90 27 460.0)">Coefficient (per 100k)</text>
<rect x="425" y="330" width="380" height="260" fill="#fafaf7" stroke="#e2e2dc"/>
<text x="615.0" y="348" text-anchor="middle" font-weight="600">State firearm homicide rate (per 100,000)</text>
<line x1="485" y1="460.66468234518254" x2="787" y2="460.66468234518254" stroke="#aaaaaa" stroke-width="0.7"/>
<line x1="622.3" y1="380" x2="622.3" y2="540" stroke="#b9461a" stroke-dasharray="3 3"/>
<line x1="498.7" y1="523.5" x2="498.7" y2="468.1" stroke="#1f3a5f" stroke-width="1.4" opacity="1.00"/>
<line x1="494.7" y1="523.5" x2="502.7" y2="523.5" stroke="#1f3a5f" stroke-width="1.2" opacity="1.00"/>
<line x1="494.7" y1="468.1" x2="502.7" y2="468.1" stroke="#1f3a5f" stroke-width="1.2" opacity="1.00"/>
<circle cx="498.7" cy="495.8" r="3.2" fill="#1f3a5f"/>
<line x1="526.2" y1="537.4" x2="526.2" y2="463.0" stroke="#1f3a5f" stroke-width="1.4" opacity="1.00"/>
<line x1="522.2" y1="537.4" x2="530.2" y2="537.4" stroke="#1f3a5f" stroke-width="1.2" opacity="1.00"/>
<line x1="522.2" y1="463.0" x2="530.2" y2="463.0" stroke="#1f3a5f" stroke-width="1.2" opacity="1.00"/>
<circle cx="526.2" cy="500.2" r="3.2" fill="#1f3a5f"/>
<line x1="553.6" y1="540.0" x2="553.6" y2="459.7" stroke="#1f3a5f" stroke-width="1.4" opacity="0.35"/>
<line x1="549.6" y1="540.0" x2="557.6" y2="540.0" stroke="#1f3a5f" stroke-width="1.2" opacity="0.35"/>
<line x1="549.6" y1="459.7" x2="557.6" y2="459.7" stroke="#1f3a5f" stroke-width="1.2" opacity="0.35"/>
<circle cx="553.6" cy="499.9" r="3.2" fill="white" stroke="#1f3a5f" stroke-width="1.3" opacity="0.35"/>
<line x1="581.1" y1="517.6" x2="581.1" y2="456.4" stroke="#1f3a5f" stroke-width="1.4" opacity="0.35"/>
<line x1="577.1" y1="517.6" x2="585.1" y2="517.6" stroke="#1f3a5f" stroke-width="1.2" opacity="0.35"/>
<line x1="577.1" y1="456.4" x2="585.1" y2="456.4" stroke="#1f3a5f" stroke-width="1.2" opacity="0.35"/>
<circle cx="581.1" cy="487.0" r="3.2" fill="white" stroke="#1f3a5f" stroke-width="1.3" opacity="0.35"/>
<line x1="608.5" y1="460.7" x2="608.5" y2="460.7" stroke="#1f3a5f" stroke-width="1.4" opacity="0.35"/>
<line x1="604.5" y1="460.7" x2="612.5" y2="460.7" stroke="#1f3a5f" stroke-width="1.2" opacity="0.35"/>
<line x1="604.5" y1="460.7" x2="612.5" y2="460.7" stroke="#1f3a5f" stroke-width="1.2" opacity="0.35"/>
<circle cx="608.5" cy="460.7" r="3.2" fill="white" stroke="#1f3a5f" stroke-width="1.3" opacity="0.35"/>
<line x1="636.0" y1="502.6" x2="636.0" y2="448.8" stroke="#1f3a5f" stroke-width="1.4" opacity="0.35"/>
<line x1="632.0" y1="502.6" x2="640.0" y2="502.6" stroke="#1f3a5f" stroke-width="1.2" opacity="0.35"/>
<line x1="632.0" y1="448.8" x2="640.0" y2="448.8" stroke="#1f3a5f" stroke-width="1.2" opacity="0.35"/>
<circle cx="636.0" cy="475.7" r="3.2" fill="white" stroke="#1f3a5f" stroke-width="1.3" opacity="0.35"/>
<line x1="663.5" y1="450.7" x2="663.5" y2="408.0" stroke="#1f3a5f" stroke-width="1.4" opacity="1.00"/>
<line x1="659.5" y1="450.7" x2="667.5" y2="450.7" stroke="#1f3a5f" stroke-width="1.2" opacity="1.00"/>
<line x1="659.5" y1="408.0" x2="667.5" y2="408.0" stroke="#1f3a5f" stroke-width="1.2" opacity="1.00"/>
<circle cx="663.5" cy="429.4" r="3.2" fill="#1f3a5f"/>
<line x1="690.9" y1="445.9" x2="690.9" y2="380.0" stroke="#1f3a5f" stroke-width="1.4" opacity="1.00"/>
<line x1="686.9" y1="445.9" x2="694.9" y2="445.9" stroke="#1f3a5f" stroke-width="1.2" opacity="1.00"/>
<line x1="686.9" y1="380.0" x2="694.9" y2="380.0" stroke="#1f3a5f" stroke-width="1.2" opacity="1.00"/>
<circle cx="690.9" cy="412.9" r="3.2" fill="#1f3a5f"/>
<line x1="718.4" y1="480.4" x2="718.4" y2="425.4" stroke="#1f3a5f" stroke-width="1.4" opacity="0.35"/>
<line x1="714.4" y1="480.4" x2="722.4" y2="480.4" stroke="#1f3a5f" stroke-width="1.2" opacity="0.35"/>
<line x1="714.4" y1="425.4" x2="722.4" y2="425.4" stroke="#1f3a5f" stroke-width="1.2" opacity="0.35"/>
<circle cx="718.4" cy="452.9" r="3.2" fill="white" stroke="#1f3a5f" stroke-width="1.3" opacity="0.35"/>
<line x1="745.8" y1="505.0" x2="745.8" y2="421.0" stroke="#1f3a5f" stroke-width="1.4" opacity="0.35"/>
<line x1="741.8" y1="505.0" x2="749.8" y2="505.0" stroke="#1f3a5f" stroke-width="1.2" opacity="0.35"/>
<line x1="741.8" y1="421.0" x2="749.8" y2="421.0" stroke="#1f3a5f" stroke-width="1.2" opacity="0.35"/>
<circle cx="745.8" cy="463.0" r="3.2" fill="white" stroke="#1f3a5f" stroke-width="1.3" opacity="0.35"/>
<line x1="773.3" y1="523.4" x2="773.3" y2="456.9" stroke="#1f3a5f" stroke-width="1.4" opacity="0.35"/>
<line x1="769.3" y1="523.4" x2="777.3" y2="523.4" stroke="#1f3a5f" stroke-width="1.2" opacity="0.35"/>
<line x1="769.3" y1="456.9" x2="777.3" y2="456.9" stroke="#1f3a5f" stroke-width="1.2" opacity="0.35"/>
<circle cx="773.3" cy="490.1" r="3.2" fill="white" stroke="#1f3a5f" stroke-width="1.3" opacity="0.35"/>
<line x1="485" y1="540" x2="787" y2="540" stroke="#444"/>
<line x1="485" y1="380" x2="485" y2="540" stroke="#444"/>
<line x1="498.7" y1="540" x2="498.7" y2="543" stroke="#444"/>
<text x="498.7" y="555" text-anchor="middle" fill="#444">-5</text>
<line x1="526.2" y1="540" x2="526.2" y2="543" stroke="#444"/>
<text x="526.2" y="555" text-anchor="middle" fill="#444">-4</text>
<line x1="553.6" y1="540" x2="553.6" y2="543" stroke="#444"/>
<text x="553.6" y="555" text-anchor="middle" fill="#444">-3</text>
<line x1="581.1" y1="540" x2="581.1" y2="543" stroke="#444"/>
<text x="581.1" y="555" text-anchor="middle" fill="#444">-2</text>
<line x1="608.5" y1="540" x2="608.5" y2="543" stroke="#444"/>
<text x="608.5" y="555" text-anchor="middle" fill="#444">-1</text>
<line x1="636.0" y1="540" x2="636.0" y2="543" stroke="#444"/>
<text x="636.0" y="555" text-anchor="middle" fill="#444">0</text>
<line x1="663.5" y1="540" x2="663.5" y2="543" stroke="#444"/>
<text x="663.5" y="555" text-anchor="middle" fill="#444">1</text>
<line x1="690.9" y1="540" x2="690.9" y2="543" stroke="#444"/>
<text x="690.9" y="555" text-anchor="middle" fill="#444">2</text>
<line x1="718.4" y1="540" x2="718.4" y2="543" stroke="#444"/>
<text x="718.4" y="555" text-anchor="middle" fill="#444">3</text>
<line x1="745.8" y1="540" x2="745.8" y2="543" stroke="#444"/>
<text x="745.8" y="555" text-anchor="middle" fill="#444">4</text>
<line x1="773.3" y1="540" x2="773.3" y2="543" stroke="#444"/>
<text x="773.3" y="555" text-anchor="middle" fill="#444">5</text>
<line x1="482" y1="540.0" x2="485" y2="540.0" stroke="#444"/>
<text x="479" y="543.0" text-anchor="end" fill="#444">-0.64</text>
<line x1="482" y1="500.0" x2="485" y2="500.0" stroke="#444"/>
<text x="479" y="503.0" text-anchor="end" fill="#444">-0.32</text>
<line x1="482" y1="460.0" x2="485" y2="460.0" stroke="#444"/>
<text x="479" y="463.0" text-anchor="end" fill="#444">0.0054</text>
<line x1="482" y1="420.0" x2="485" y2="420.0" stroke="#444"/>
<text x="479" y="423.0" text-anchor="end" fill="#444">0.33</text>
<line x1="482" y1="380.0" x2="485" y2="380.0" stroke="#444"/>
<text x="479" y="383.0" text-anchor="end" fill="#444">0.65</text>
<text x="636.0" y="574" text-anchor="middle" fill="#444">Event time (years from adoption)</text>
<text x="437" y="460.0" text-anchor="middle" fill="#444" transform="rotate(-90 437 460.0)">Coefficient (per 100k)</text>
<text x="805" y="608" text-anchor="end" fill="#888" font-size="10">Whiskers: pointwise 95% CI from cluster-robust SE. Solid dot = significant at 5%; hollow dot = not significant. Vertical dashed line marks the year before adoption.</text>
</svg>