<svg xmlns="http://www.w3.org/2000/svg" viewBox="0 0 820 910" font-family="-apple-system, Segoe UI, Helvetica, Arial, sans-serif" font-size="11">
<text x="410.0" y="22" text-anchor="middle" font-size="14" font-weight="600">Spatial RDD event study (stand_your_ground, primary outcomes)</text>
<rect x="15" y="40" width="380" height="260" fill="#fafaf7" stroke="#e2e2dc"/>
<text x="205.0" y="58" text-anchor="middle" font-weight="600">County violent crime rate (per 100,000)</text>
<line x1="75" y1="193.83044257280488" x2="377" y2="193.83044257280488" stroke="#aaaaaa" stroke-width="0.7"/>
<polygon points="88.7,181.2 116.2,182.2 143.6,155.1 171.1,186.3 198.5,193.8 226.0,112.3 253.5,146.1 280.9,141.0 308.4,128.2 335.8,139.9 363.3,90.0 363.3,204.9 335.8,221.4 308.4,186.5 280.9,199.8 253.5,243.6 226.0,192.2 198.5,193.8 171.1,250.0 143.6,230.8 116.2,246.1 88.7,245.5" fill="#1f3a5f" opacity="0.18"/>
<polyline points="88.7,213.3 116.2,214.1 143.6,192.9 171.1,218.1 198.5,193.8 226.0,152.3 253.5,194.9 280.9,170.4 308.4,157.3 335.8,180.7 363.3,147.5" fill="none" stroke="#1f3a5f" stroke-width="1.6"/>
<circle cx="88.7" cy="213.3" r="2.6" fill="#1f3a5f"/>
<circle cx="116.2" cy="214.1" r="2.6" fill="#1f3a5f"/>
<circle cx="143.6" cy="192.9" r="2.6" fill="#1f3a5f"/>
<circle cx="171.1" cy="218.1" r="2.6" fill="#1f3a5f"/>
<circle cx="198.5" cy="193.8" r="2.6" fill="#1f3a5f"/>
<circle cx="226.0" cy="152.3" r="2.6" fill="#1f3a5f"/>
<circle cx="253.5" cy="194.9" r="2.6" fill="#1f3a5f"/>
<circle cx="280.9" cy="170.4" r="2.6" fill="#1f3a5f"/>
<circle cx="308.4" cy="157.3" r="2.6" fill="#1f3a5f"/>
<circle cx="335.8" cy="180.7" r="2.6" fill="#1f3a5f"/>
<circle cx="363.3" cy="147.5" r="2.6" fill="#1f3a5f"/>
<line x1="212.3" y1="90" x2="212.3" y2="250" stroke="#b9461a" stroke-dasharray="3 3"/>
<line x1="75" y1="250" x2="377" y2="250" stroke="#444"/>
<line x1="75" y1="90" x2="75" y2="250" stroke="#444"/>
<line x1="88.7" y1="250" x2="88.7" y2="253" stroke="#444"/>
<text x="88.7" y="265" text-anchor="middle" fill="#444">-5</text>
<line x1="116.2" y1="250" x2="116.2" y2="253" stroke="#444"/>
<text x="116.2" y="265" text-anchor="middle" fill="#444">-4</text>
<line x1="143.6" y1="250" x2="143.6" y2="253" stroke="#444"/>
<text x="143.6" y="265" text-anchor="middle" fill="#444">-3</text>
<line x1="171.1" y1="250" x2="171.1" y2="253" stroke="#444"/>
<text x="171.1" y="265" text-anchor="middle" fill="#444">-2</text>
<line x1="198.5" y1="250" x2="198.5" y2="253" stroke="#444"/>
<text x="198.5" y="265" text-anchor="middle" fill="#444">-1</text>
<line x1="226.0" y1="250" x2="226.0" y2="253" stroke="#444"/>
<text x="226.0" y="265" text-anchor="middle" fill="#444">0</text>
<line x1="253.5" y1="250" x2="253.5" y2="253" stroke="#444"/>
<text x="253.5" y="265" text-anchor="middle" fill="#444">1</text>
<line x1="280.9" y1="250" x2="280.9" y2="253" stroke="#444"/>
<text x="280.9" y="265" text-anchor="middle" fill="#444">2</text>
<line x1="308.4" y1="250" x2="308.4" y2="253" stroke="#444"/>
<text x="308.4" y="265" text-anchor="middle" fill="#444">3</text>
<line x1="335.8" y1="250" x2="335.8" y2="253" stroke="#444"/>
<text x="335.8" y="265" text-anchor="middle" fill="#444">4</text>
<line x1="363.3" y1="250" x2="363.3" y2="253" stroke="#444"/>
<text x="363.3" y="265" text-anchor="middle" fill="#444">5</text>
<line x1="72" y1="250.0" x2="75" y2="250.0" stroke="#444"/>
<text x="69" y="253.0" text-anchor="end" fill="#444">-24</text>
<line x1="72" y1="210.0" x2="75" y2="210.0" stroke="#444"/>
<text x="69" y="213.0" text-anchor="end" fill="#444">-6.8</text>
<line x1="72" y1="170.0" x2="75" y2="170.0" stroke="#444"/>
<text x="69" y="173.0" text-anchor="end" fill="#444">10</text>
<line x1="72" y1="130.0" x2="75" y2="130.0" stroke="#444"/>
<text x="69" y="133.0" text-anchor="end" fill="#444">27</text>
<line x1="72" y1="90.0" x2="75" y2="90.0" stroke="#444"/>
<text x="69" y="93.0" text-anchor="end" fill="#444">44</text>
<text x="226.0" y="284" text-anchor="middle" fill="#444">Event time (years from adoption)</text>
<text x="27" y="170.0" text-anchor="middle" fill="#444" transform="rotate(-90 27 170.0)">Coefficient (per 100k)</text>
<rect x="425" y="40" width="380" height="260" fill="#fafaf7" stroke="#e2e2dc"/>
<text x="615.0" y="58" text-anchor="middle" font-weight="600">County murder rate (per 100,000)</text>
<line x1="485" y1="108.54156995107198" x2="787" y2="108.54156995107198" stroke="#aaaaaa" stroke-width="0.7"/>
<polygon points="498.7,91.5 526.2,96.3 553.6,97.7 581.1,96.7 608.5,108.5 636.0,93.2 663.5,91.6 690.9,96.5 718.4,97.8 745.8,90.0 773.3,94.9 773.3,111.7 745.8,110.7 718.4,108.2 690.9,109.4 663.5,250.0 636.0,105.9 608.5,108.5 581.1,108.3 553.6,109.3 526.2,110.8 498.7,103.4" fill="#1f3a5f" opacity="0.18"/>
<polyline points="498.7,97.5 526.2,103.6 553.6,103.5 581.1,102.5 608.5,108.5 636.0,99.6 663.5,170.8 690.9,103.0 718.4,103.0 745.8,100.3 773.3,103.3" fill="none" stroke="#1f3a5f" stroke-width="1.6"/>
<circle cx="498.7" cy="97.5" r="2.6" fill="#1f3a5f"/>
<circle cx="526.2" cy="103.6" r="2.6" fill="#1f3a5f"/>
<circle cx="553.6" cy="103.5" r="2.6" fill="#1f3a5f"/>
<circle cx="581.1" cy="102.5" r="2.6" fill="#1f3a5f"/>
<circle cx="608.5" cy="108.5" r="2.6" fill="#1f3a5f"/>
<circle cx="636.0" cy="99.6" r="2.6" fill="#1f3a5f"/>
<circle cx="663.5" cy="170.8" r="2.6" fill="#1f3a5f"/>
<circle cx="690.9" cy="103.0" r="2.6" fill="#1f3a5f"/>
<circle cx="718.4" cy="103.0" r="2.6" fill="#1f3a5f"/>
<circle cx="745.8" cy="100.3" r="2.6" fill="#1f3a5f"/>
<circle cx="773.3" cy="103.3" r="2.6" fill="#1f3a5f"/>
<line x1="622.3" y1="90" x2="622.3" y2="250" stroke="#b9461a" stroke-dasharray="3 3"/>
<line x1="485" y1="250" x2="787" y2="250" stroke="#444"/>
<line x1="485" y1="90" x2="485" y2="250" stroke="#444"/>
<line x1="498.7" y1="250" x2="498.7" y2="253" stroke="#444"/>
<text x="498.7" y="265" text-anchor="middle" fill="#444">-5</text>
<line x1="526.2" y1="250" x2="526.2" y2="253" stroke="#444"/>
<text x="526.2" y="265" text-anchor="middle" fill="#444">-4</text>
<line x1="553.6" y1="250" x2="553.6" y2="253" stroke="#444"/>
<text x="553.6" y="265" text-anchor="middle" fill="#444">-3</text>
<line x1="581.1" y1="250" x2="581.1" y2="253" stroke="#444"/>
<text x="581.1" y="265" text-anchor="middle" fill="#444">-2</text>
<line x1="608.5" y1="250" x2="608.5" y2="253" stroke="#444"/>
<text x="608.5" y="265" text-anchor="middle" fill="#444">-1</text>
<line x1="636.0" y1="250" x2="636.0" y2="253" stroke="#444"/>
<text x="636.0" y="265" text-anchor="middle" fill="#444">0</text>
<line x1="663.5" y1="250" x2="663.5" y2="253" stroke="#444"/>
<text x="663.5" y="265" text-anchor="middle" fill="#444">1</text>
<line x1="690.9" y1="250" x2="690.9" y2="253" stroke="#444"/>
<text x="690.9" y="265" text-anchor="middle" fill="#444">2</text>
<line x1="718.4" y1="250" x2="718.4" y2="253" stroke="#444"/>
<text x="718.4" y="265" text-anchor="middle" fill="#444">3</text>
<line x1="745.8" y1="250" x2="745.8" y2="253" stroke="#444"/>
<text x="745.8" y="265" text-anchor="middle" fill="#444">4</text>
<line x1="773.3" y1="250" x2="773.3" y2="253" stroke="#444"/>
<text x="773.3" y="265" text-anchor="middle" fill="#444">5</text>
<line x1="482" y1="250.0" x2="485" y2="250.0" stroke="#444"/>
<text x="479" y="253.0" text-anchor="end" fill="#444">-18</text>
<line x1="482" y1="210.0" x2="485" y2="210.0" stroke="#444"/>
<text x="479" y="213.0" text-anchor="end" fill="#444">-13</text>
<line x1="482" y1="170.0" x2="485" y2="170.0" stroke="#444"/>
<text x="479" y="173.0" text-anchor="end" fill="#444">-7.7</text>
<line x1="482" y1="130.0" x2="485" y2="130.0" stroke="#444"/>
<text x="479" y="133.0" text-anchor="end" fill="#444">-2.7</text>
<line x1="482" y1="90.0" x2="485" y2="90.0" stroke="#444"/>
<text x="479" y="93.0" text-anchor="end" fill="#444">2.3</text>
<text x="636.0" y="284" text-anchor="middle" fill="#444">Event time (years from adoption)</text>
<text x="437" y="170.0" text-anchor="middle" fill="#444" transform="rotate(-90 437 170.0)">Coefficient (per 100k)</text>
<rect x="15" y="330" width="380" height="260" fill="#fafaf7" stroke="#e2e2dc"/>
<text x="205.0" y="348" text-anchor="middle" font-weight="600">County property crime rate (per 100,000)</text>
<line x1="75" y1="434.9851723949741" x2="377" y2="434.9851723949741" stroke="#aaaaaa" stroke-width="0.7"/>
<polygon points="88.7,414.9 116.2,393.9 143.6,390.4 171.1,416.9 198.5,435.0 226.0,387.6 253.5,391.8 280.9,388.9 308.4,380.0 335.8,383.7 363.3,406.5 363.3,540.0 335.8,452.0 308.4,433.1 280.9,439.2 253.5,447.9 226.0,441.1 198.5,435.0 171.1,457.9 143.6,446.9 116.2,436.6 88.7,483.4" fill="#1f3a5f" opacity="0.18"/>
<polyline points="88.7,449.2 116.2,415.2 143.6,418.6 171.1,437.4 198.5,435.0 226.0,414.3 253.5,419.8 280.9,414.1 308.4,406.6 335.8,417.8 363.3,473.2" fill="none" stroke="#1f3a5f" stroke-width="1.6"/>
<circle cx="88.7" cy="449.2" r="2.6" fill="#1f3a5f"/>
<circle cx="116.2" cy="415.2" r="2.6" fill="#1f3a5f"/>
<circle cx="143.6" cy="418.6" r="2.6" fill="#1f3a5f"/>
<circle cx="171.1" cy="437.4" r="2.6" fill="#1f3a5f"/>
<circle cx="198.5" cy="435.0" r="2.6" fill="#1f3a5f"/>
<circle cx="226.0" cy="414.3" r="2.6" fill="#1f3a5f"/>
<circle cx="253.5" cy="419.8" r="2.6" fill="#1f3a5f"/>
<circle cx="280.9" cy="414.1" r="2.6" fill="#1f3a5f"/>
<circle cx="308.4" cy="406.6" r="2.6" fill="#1f3a5f"/>
<circle cx="335.8" cy="417.8" r="2.6" fill="#1f3a5f"/>
<circle cx="363.3" cy="473.2" r="2.6" fill="#1f3a5f"/>
<line x1="212.3" y1="380" x2="212.3" y2="540" stroke="#b9461a" stroke-dasharray="3 3"/>
<line x1="75" y1="540" x2="377" y2="540" stroke="#444"/>
<line x1="75" y1="380" x2="75" y2="540" stroke="#444"/>
<line x1="88.7" y1="540" x2="88.7" y2="543" stroke="#444"/>
<text x="88.7" y="555" text-anchor="middle" fill="#444">-5</text>
<line x1="116.2" y1="540" x2="116.2" y2="543" stroke="#444"/>
<text x="116.2" y="555" text-anchor="middle" fill="#444">-4</text>
<line x1="143.6" y1="540" x2="143.6" y2="543" stroke="#444"/>
<text x="143.6" y="555" text-anchor="middle" fill="#444">-3</text>
<line x1="171.1" y1="540" x2="171.1" y2="543" stroke="#444"/>
<text x="171.1" y="555" text-anchor="middle" fill="#444">-2</text>
<line x1="198.5" y1="540" x2="198.5" y2="543" stroke="#444"/>
<text x="198.5" y="555" text-anchor="middle" fill="#444">-1</text>
<line x1="226.0" y1="540" x2="226.0" y2="543" stroke="#444"/>
<text x="226.0" y="555" text-anchor="middle" fill="#444">0</text>
<line x1="253.5" y1="540" x2="253.5" y2="543" stroke="#444"/>
<text x="253.5" y="555" text-anchor="middle" fill="#444">1</text>
<line x1="280.9" y1="540" x2="280.9" y2="543" stroke="#444"/>
<text x="280.9" y="555" text-anchor="middle" fill="#444">2</text>
<line x1="308.4" y1="540" x2="308.4" y2="543" stroke="#444"/>
<text x="308.4" y="555" text-anchor="middle" fill="#444">3</text>
<line x1="335.8" y1="540" x2="335.8" y2="543" stroke="#444"/>
<text x="335.8" y="555" text-anchor="middle" fill="#444">4</text>
<line x1="363.3" y1="540" x2="363.3" y2="543" stroke="#444"/>
<text x="363.3" y="555" text-anchor="middle" fill="#444">5</text>
<line x1="72" y1="540.0" x2="75" y2="540.0" stroke="#444"/>
<text x="69" y="543.0" text-anchor="end" fill="#444">-2.2e+02</text>
<line x1="72" y1="500.0" x2="75" y2="500.0" stroke="#444"/>
<text x="69" y="503.0" text-anchor="end" fill="#444">-1.4e+02</text>
<line x1="72" y1="460.0" x2="75" y2="460.0" stroke="#444"/>
<text x="69" y="463.0" text-anchor="end" fill="#444">-53</text>
<line x1="72" y1="420.0" x2="75" y2="420.0" stroke="#444"/>
<text x="69" y="423.0" text-anchor="end" fill="#444">32</text>
<line x1="72" y1="380.0" x2="75" y2="380.0" stroke="#444"/>
<text x="69" y="383.0" text-anchor="end" fill="#444">1.2e+02</text>
<text x="226.0" y="574" text-anchor="middle" fill="#444">Event time (years from adoption)</text>
<text x="27" y="460.0" text-anchor="middle" fill="#444" transform="rotate(-90 27 460.0)">Coefficient (per 100k)</text>
<rect x="425" y="330" width="380" height="260" fill="#fafaf7" stroke="#e2e2dc"/>
<text x="615.0" y="348" text-anchor="middle" font-weight="600">County burglary rate (per 100,000) [placebo]</text>
<line x1="485" y1="474.9184734134437" x2="787" y2="474.9184734134437" stroke="#aaaaaa" stroke-width="0.7"/>
<polygon points="498.7,435.3 526.2,435.3 553.6,451.6 581.1,411.8 608.5,474.9 636.0,380.0 663.5,421.6 690.9,417.4 718.4,389.3 745.8,429.9 773.3,437.0 773.3,521.5 745.8,488.3 718.4,480.4 690.9,493.4 663.5,520.7 636.0,475.0 608.5,474.9 581.1,488.6 553.6,527.5 526.2,493.1 498.7,540.0" fill="#1f3a5f" opacity="0.18"/>
<polyline points="498.7,487.7 526.2,464.2 553.6,489.5 581.1,450.2 608.5,474.9 636.0,427.5 663.5,471.1 690.9,455.4 718.4,434.8 745.8,459.1 773.3,479.2" fill="none" stroke="#1f3a5f" stroke-width="1.6"/>
<circle cx="498.7" cy="487.7" r="2.6" fill="#1f3a5f"/>
<circle cx="526.2" cy="464.2" r="2.6" fill="#1f3a5f"/>
<circle cx="553.6" cy="489.5" r="2.6" fill="#1f3a5f"/>
<circle cx="581.1" cy="450.2" r="2.6" fill="#1f3a5f"/>
<circle cx="608.5" cy="474.9" r="2.6" fill="#1f3a5f"/>
<circle cx="636.0" cy="427.5" r="2.6" fill="#1f3a5f"/>
<circle cx="663.5" cy="471.1" r="2.6" fill="#1f3a5f"/>
<circle cx="690.9" cy="455.4" r="2.6" fill="#1f3a5f"/>
<circle cx="718.4" cy="434.8" r="2.6" fill="#1f3a5f"/>
<circle cx="745.8" cy="459.1" r="2.6" fill="#1f3a5f"/>
<circle cx="773.3" cy="479.2" r="2.6" fill="#1f3a5f"/>
<line x1="622.3" y1="380" x2="622.3" y2="540" stroke="#b9461a" stroke-dasharray="3 3"/>
<line x1="485" y1="540" x2="787" y2="540" stroke="#444"/>
<line x1="485" y1="380" x2="485" y2="540" stroke="#444"/>
<line x1="498.7" y1="540" x2="498.7" y2="543" stroke="#444"/>
<text x="498.7" y="555" text-anchor="middle" fill="#444">-5</text>
<line x1="526.2" y1="540" x2="526.2" y2="543" stroke="#444"/>
<text x="526.2" y="555" text-anchor="middle" fill="#444">-4</text>
<line x1="553.6" y1="540" x2="553.6" y2="543" stroke="#444"/>
<text x="553.6" y="555" text-anchor="middle" fill="#444">-3</text>
<line x1="581.1" y1="540" x2="581.1" y2="543" stroke="#444"/>
<text x="581.1" y="555" text-anchor="middle" fill="#444">-2</text>
<line x1="608.5" y1="540" x2="608.5" y2="543" stroke="#444"/>
<text x="608.5" y="555" text-anchor="middle" fill="#444">-1</text>
<line x1="636.0" y1="540" x2="636.0" y2="543" stroke="#444"/>
<text x="636.0" y="555" text-anchor="middle" fill="#444">0</text>
<line x1="663.5" y1="540" x2="663.5" y2="543" stroke="#444"/>
<text x="663.5" y="555" text-anchor="middle" fill="#444">1</text>
<line x1="690.9" y1="540" x2="690.9" y2="543" stroke="#444"/>
<text x="690.9" y="555" text-anchor="middle" fill="#444">2</text>
<line x1="718.4" y1="540" x2="718.4" y2="543" stroke="#444"/>
<text x="718.4" y="555" text-anchor="middle" fill="#444">3</text>
<line x1="745.8" y1="540" x2="745.8" y2="543" stroke="#444"/>
<text x="745.8" y="555" text-anchor="middle" fill="#444">4</text>
<line x1="773.3" y1="540" x2="773.3" y2="543" stroke="#444"/>
<text x="773.3" y="555" text-anchor="middle" fill="#444">5</text>
<line x1="482" y1="540.0" x2="485" y2="540.0" stroke="#444"/>
<text x="479" y="543.0" text-anchor="end" fill="#444">-32</text>
<line x1="482" y1="500.0" x2="485" y2="500.0" stroke="#444"/>
<text x="479" y="503.0" text-anchor="end" fill="#444">-12</text>
<line x1="482" y1="460.0" x2="485" y2="460.0" stroke="#444"/>
<text x="479" y="463.0" text-anchor="end" fill="#444">7.4</text>
<line x1="482" y1="420.0" x2="485" y2="420.0" stroke="#444"/>
<text x="479" y="423.0" text-anchor="end" fill="#444">27</text>
<line x1="482" y1="380.0" x2="485" y2="380.0" stroke="#444"/>
<text x="479" y="383.0" text-anchor="end" fill="#444">47</text>
<text x="636.0" y="574" text-anchor="middle" fill="#444">Event time (years from adoption)</text>
<text x="437" y="460.0" text-anchor="middle" fill="#444" transform="rotate(-90 437 460.0)">Coefficient (per 100k)</text>
<rect x="15" y="620" width="380" height="260" fill="#fafaf7" stroke="#e2e2dc"/>
<text x="205.0" y="638" text-anchor="middle" font-weight="600">County motor vehicle theft rate (per 100,000) [placebo]</text>
<line x1="75" y1="699.5724991390089" x2="377" y2="699.5724991390089" stroke="#aaaaaa" stroke-width="0.7"/>
<polygon points="88.7,692.0 116.2,695.0 143.6,694.5 171.1,696.6 198.5,699.6 226.0,690.4 253.5,690.8 280.9,689.7 308.4,684.4 335.8,677.4 363.3,670.0 363.3,830.0 335.8,698.0 308.4,698.8 280.9,703.6 253.5,703.5 226.0,702.2 198.5,699.6 171.1,706.9 143.6,710.4 116.2,705.6 88.7,707.0" fill="#1f3a5f" opacity="0.18"/>
<polyline points="88.7,699.5 116.2,700.3 143.6,702.4 171.1,701.7 198.5,699.6 226.0,696.3 253.5,697.1 280.9,696.7 308.4,691.6 335.8,687.7 363.3,750.0" fill="none" stroke="#1f3a5f" stroke-width="1.6"/>
<circle cx="88.7" cy="699.5" r="2.6" fill="#1f3a5f"/>
<circle cx="116.2" cy="700.3" r="2.6" fill="#1f3a5f"/>
<circle cx="143.6" cy="702.4" r="2.6" fill="#1f3a5f"/>
<circle cx="171.1" cy="701.7" r="2.6" fill="#1f3a5f"/>
<circle cx="198.5" cy="699.6" r="2.6" fill="#1f3a5f"/>
<circle cx="226.0" cy="696.3" r="2.6" fill="#1f3a5f"/>
<circle cx="253.5" cy="697.1" r="2.6" fill="#1f3a5f"/>
<circle cx="280.9" cy="696.7" r="2.6" fill="#1f3a5f"/>
<circle cx="308.4" cy="691.6" r="2.6" fill="#1f3a5f"/>
<circle cx="335.8" cy="687.7" r="2.6" fill="#1f3a5f"/>
<circle cx="363.3" cy="750.0" r="2.6" fill="#1f3a5f"/>
<line x1="212.3" y1="670" x2="212.3" y2="830" stroke="#b9461a" stroke-dasharray="3 3"/>
<line x1="75" y1="830" x2="377" y2="830" stroke="#444"/>
<line x1="75" y1="670" x2="75" y2="830" stroke="#444"/>
<line x1="88.7" y1="830" x2="88.7" y2="833" stroke="#444"/>
<text x="88.7" y="845" text-anchor="middle" fill="#444">-5</text>
<line x1="116.2" y1="830" x2="116.2" y2="833" stroke="#444"/>
<text x="116.2" y="845" text-anchor="middle" fill="#444">-4</text>
<line x1="143.6" y1="830" x2="143.6" y2="833" stroke="#444"/>
<text x="143.6" y="845" text-anchor="middle" fill="#444">-3</text>
<line x1="171.1" y1="830" x2="171.1" y2="833" stroke="#444"/>
<text x="171.1" y="845" text-anchor="middle" fill="#444">-2</text>
<line x1="198.5" y1="830" x2="198.5" y2="833" stroke="#444"/>
<text x="198.5" y="845" text-anchor="middle" fill="#444">-1</text>
<line x1="226.0" y1="830" x2="226.0" y2="833" stroke="#444"/>
<text x="226.0" y="845" text-anchor="middle" fill="#444">0</text>
<line x1="253.5" y1="830" x2="253.5" y2="833" stroke="#444"/>
<text x="253.5" y="845" text-anchor="middle" fill="#444">1</text>
<line x1="280.9" y1="830" x2="280.9" y2="833" stroke="#444"/>
<text x="280.9" y="845" text-anchor="middle" fill="#444">2</text>
<line x1="308.4" y1="830" x2="308.4" y2="833" stroke="#444"/>
<text x="308.4" y="845" text-anchor="middle" fill="#444">3</text>
<line x1="335.8" y1="830" x2="335.8" y2="833" stroke="#444"/>
<text x="335.8" y="845" text-anchor="middle" fill="#444">4</text>
<line x1="363.3" y1="830" x2="363.3" y2="833" stroke="#444"/>
<text x="363.3" y="845" text-anchor="middle" fill="#444">5</text>
<line x1="72" y1="830.0" x2="75" y2="830.0" stroke="#444"/>
<text x="69" y="833.0" text-anchor="end" fill="#444">-1.8e+02</text>
<line x1="72" y1="790.0" x2="75" y2="790.0" stroke="#444"/>
<text x="69" y="793.0" text-anchor="end" fill="#444">-1.2e+02</text>
<line x1="72" y1="750.0" x2="75" y2="750.0" stroke="#444"/>
<text x="69" y="753.0" text-anchor="end" fill="#444">-69</text>
<line x1="72" y1="710.0" x2="75" y2="710.0" stroke="#444"/>
<text x="69" y="713.0" text-anchor="end" fill="#444">-14</text>
<line x1="72" y1="670.0" x2="75" y2="670.0" stroke="#444"/>
<text x="69" y="673.0" text-anchor="end" fill="#444">40</text>
<text x="226.0" y="864" text-anchor="middle" fill="#444">Event time (years from adoption)</text>
<text x="27" y="750.0" text-anchor="middle" fill="#444" transform="rotate(-90 27 750.0)">Coefficient (per 100k)</text>
<text x="805" y="898" text-anchor="end" fill="#888" font-size="10">Shaded band: pointwise 95% CI from cluster-robust SE. Vertical dashed line marks the year before adoption.</text>
</svg>