<svg xmlns="http://www.w3.org/2000/svg" viewBox="0 0 720 380" font-family="-apple-system, Segoe UI, Helvetica, Arial, sans-serif" font-size="12">
<rect x="0" y="0" width="720" height="380" fill="#fafaf7"/>
<text x="360.0" y="22" text-anchor="middle" font-size="14" font-weight="600">Wyoming (2010): Firearm suicide rate (per 100k)</text>
<polyline points="60.0,243.8 85.8,164.9 111.7,227.0 137.5,176.8 163.3,203.3 189.2,176.9 215.0,191.7 240.8,208.1 266.7,184.0 292.5,145.4 318.3,214.0 344.2,167.9 370.0,184.7 395.8,188.4 421.7,152.5 447.5,161.2 473.3,148.4 499.2,165.9 525.0,155.4 550.8,174.7 576.7,156.5 602.5,129.6 628.3,115.5 654.2,162.3 680.0,152.9" fill="none" stroke="#bbb" stroke-width="0.6" opacity="0.6"/>
<polyline points="60.0,231.7 85.8,235.0 111.7,246.6 137.5,248.9 163.3,244.6 189.2,251.7 215.0,253.8 240.8,246.1 266.7,247.8 292.5,241.2 318.3,228.0 344.2,236.3 370.0,237.3 395.8,225.6 421.7,224.9 447.5,231.6 473.3,219.5 499.2,214.0 525.0,208.6 550.8,214.2 576.7,216.9 602.5,217.7 628.3,201.4 654.2,204.4 680.0,204.6" fill="none" stroke="#bbb" stroke-width="0.6" opacity="0.6"/>
<polyline points="60.0,244.1 85.8,240.8 111.7,228.1 137.5,236.8 163.3,237.4 189.2,249.9 215.0,237.5 240.8,245.0 266.7,247.2 292.5,234.6 318.3,231.8 344.2,240.9 370.0,227.9 395.8,225.1 421.7,219.3 447.5,219.2 473.3,211.9 499.2,216.9 525.0,192.7 550.8,212.3 576.7,214.2 602.5,205.4 628.3,194.3 654.2,215.5 680.0,195.3" fill="none" stroke="#bbb" stroke-width="0.6" opacity="0.6"/>
<polyline points="60.0,235.6 85.8,235.9 111.7,244.5 137.5,227.5 163.3,247.2 189.2,245.5 215.0,247.6 240.8,240.8 266.7,246.0 292.5,250.9 318.3,240.3 344.2,233.8 370.0,225.2 395.8,228.7 421.7,231.5 447.5,228.3 473.3,225.8 499.2,219.1 525.0,214.3 550.8,215.6 576.7,216.4 602.5,215.6 628.3,204.5 654.2,189.5 680.0,196.6" fill="none" stroke="#bbb" stroke-width="0.6" opacity="0.6"/>
<polyline points="60.0,256.7 85.8,264.7 111.7,261.2 137.5,265.0 163.3,261.1 189.2,270.1 215.0,273.9 240.8,274.2 266.7,270.4 292.5,274.8 318.3,260.1 344.2,261.9 370.0,260.1 395.8,260.1 421.7,261.1 447.5,250.6 473.3,254.0 499.2,249.2 525.0,246.0 550.8,237.7 576.7,242.4 602.5,245.2 628.3,226.0 654.2,235.0 680.0,229.0" fill="none" stroke="#bbb" stroke-width="0.6" opacity="0.6"/>
<polyline points="60.0,231.6 85.8,251.4 111.7,226.6 137.5,228.4 163.3,231.0 189.2,221.3 215.0,216.3 240.8,231.5 266.7,232.5 292.5,232.8 318.3,213.1 344.2,210.3 370.0,223.5 395.8,217.5 421.7,200.6 447.5,216.2 473.3,193.4 499.2,196.1 525.0,178.4 550.8,177.9 576.7,199.7 602.5,166.7 628.3,184.0 654.2,172.9 680.0,163.5" fill="none" stroke="#bbb" stroke-width="0.6" opacity="0.6"/>
<polyline points="60.0,304.9 85.8,310.3 111.7,303.2 137.5,307.3 163.3,313.6 189.2,315.4 215.0,312.1 240.8,317.3 266.7,312.5 292.5,311.2 318.3,314.6 344.2,310.6 370.0,308.9 395.8,306.1 421.7,305.6 447.5,302.1 473.3,305.6 499.2,304.3 525.0,297.5 550.8,297.7 576.7,300.5 602.5,299.9 628.3,289.5 654.2,287.1 680.0,286.1" fill="none" stroke="#bbb" stroke-width="0.6" opacity="0.6"/>
<polyline points="60.0,277.9 85.8,269.9 111.7,270.4 137.5,263.6 163.3,270.1 189.2,277.1 215.0,271.5 240.8,266.9 266.7,277.0 292.5,266.2 318.3,265.3 344.2,266.7 370.0,275.4 395.8,256.5 421.7,255.2 447.5,254.6 473.3,257.0 499.2,243.5 525.0,241.6 550.8,245.0 576.7,248.9 602.5,242.2 628.3,227.7 654.2,228.8 680.0,217.8" fill="none" stroke="#bbb" stroke-width="0.6" opacity="0.6"/>
<polyline points="60.0,276.5 85.8,267.9 111.7,280.1 137.5,269.6 163.3,257.9 189.2,261.4 215.0,269.0 240.8,259.2 266.7,258.7 292.5,271.8 318.3,265.8 344.2,262.5 370.0,253.2 395.8,226.5 421.7,250.6 447.5,252.3 473.3,258.4 499.2,244.3 525.0,219.7 550.8,229.7 576.7,230.2 602.5,220.6 628.3,208.7 654.2,207.0 680.0,219.8" fill="none" stroke="#bbb" stroke-width="0.6" opacity="0.6"/>
<polyline points="60.0,250.5 85.8,239.6 111.7,253.0 137.5,243.8 163.3,233.8 189.2,241.4 215.0,243.3 240.8,241.1 266.7,230.7 292.5,239.6 318.3,238.2 344.2,238.6 370.0,225.6 395.8,221.4 421.7,226.3 447.5,222.1 473.3,214.4 499.2,215.9 525.0,223.3 550.8,213.0 576.7,230.6 602.5,210.8 628.3,207.4 654.2,209.7 680.0,206.7" fill="none" stroke="#bbb" stroke-width="0.6" opacity="0.6"/>
<polyline points="60.0,245.4 85.8,263.3 111.7,255.5 137.5,255.7 163.3,264.3 189.2,248.1 215.0,253.9 240.8,258.1 266.7,257.1 292.5,255.2 318.3,263.2 344.2,248.6 370.0,251.7 395.8,252.8 421.7,244.6 447.5,235.6 473.3,229.9 499.2,237.5 525.0,236.5 550.8,229.8 576.7,235.1 602.5,245.6 628.3,230.1 654.2,222.5 680.0,223.1" fill="none" stroke="#bbb" stroke-width="0.6" opacity="0.6"/>
<polyline points="60.0,264.9 85.8,258.5 111.7,270.6 137.5,277.7 163.3,285.7 189.2,261.7 215.0,259.4 240.8,272.1 266.7,269.0 292.5,256.8 318.3,254.2 344.2,265.1 370.0,248.4 395.8,249.4 421.7,226.3 447.5,245.8 473.3,234.7 499.2,249.6 525.0,214.1 550.8,218.0 576.7,221.4 602.5,232.8 628.3,212.2 654.2,215.2 680.0,214.3" fill="none" stroke="#bbb" stroke-width="0.6" opacity="0.6"/>
<polyline points="60.0,285.5 85.8,287.3 111.7,286.1 137.5,281.8 163.3,288.8 189.2,287.8 215.0,285.3 240.8,280.1 266.7,284.9 292.5,282.9 318.3,282.1 344.2,278.2 370.0,275.9 395.8,275.5 421.7,269.3 447.5,269.7 473.3,267.3 499.2,264.2 525.0,268.8 550.8,253.9 576.7,261.7 602.5,259.1 628.3,253.8 654.2,250.0 680.0,251.1" fill="none" stroke="#bbb" stroke-width="0.6" opacity="0.6"/>
<polyline points="60.0,295.3 85.8,297.2 111.7,293.0 137.5,294.5 163.3,293.5 189.2,288.2 215.0,291.8 240.8,295.1 266.7,290.3 292.5,284.9 318.3,287.4 344.2,288.1 370.0,278.9 395.8,282.1 421.7,276.1 447.5,283.6 473.3,284.9 499.2,279.0 525.0,272.5 550.8,275.0 576.7,276.7 602.5,276.0 628.3,268.5 654.2,266.6 680.0,272.0" fill="none" stroke="#bbb" stroke-width="0.6" opacity="0.6"/>
<polyline points="60.0,246.6 85.8,257.9 111.7,250.1 137.5,244.1 163.3,247.5 189.2,248.7 215.0,246.6 240.8,260.5 266.7,235.5 292.5,233.4 318.3,241.0 344.2,247.0 370.0,242.4 395.8,231.1 421.7,238.4 447.5,250.0 473.3,233.1 499.2,242.8 525.0,231.5 550.8,224.2 576.7,225.8 602.5,237.8 628.3,214.2 654.2,227.7 680.0,217.7" fill="none" stroke="#bbb" stroke-width="0.6" opacity="0.6"/>
<polyline points="60.0,220.7 85.8,207.3 111.7,173.3 137.5,198.8 163.3,193.3 189.2,214.3 215.0,176.1 240.8,220.3 266.7,199.1 292.5,185.4 318.3,181.6 344.2,177.9 370.0,165.9 395.8,166.0 421.7,175.1 447.5,174.2 473.3,146.1 499.2,162.1 525.0,104.0 550.8,168.0 576.7,155.3 602.5,138.2 628.3,87.7 654.2,111.1 680.0,129.3" fill="none" stroke="#bbb" stroke-width="0.6" opacity="0.6"/>
<polyline points="60.0,264.8 85.8,258.2 111.7,258.1 137.5,259.9 163.3,263.0 189.2,265.9 215.0,263.9 240.8,261.4 266.7,270.6 292.5,263.8 318.3,264.1 344.2,261.8 370.0,260.3 395.8,263.6 421.7,256.8 447.5,259.0 473.3,256.7 499.2,257.5 525.0,252.5 550.8,249.7 576.7,261.5 602.5,251.1 628.3,246.4 654.2,239.2 680.0,240.0" fill="none" stroke="#bbb" stroke-width="0.6" opacity="0.6"/>
<polyline points="60.0,278.3 85.8,286.0 111.7,274.4 137.5,251.2 163.3,274.1 189.2,274.0 215.0,244.9 240.8,273.7 266.7,258.8 292.5,247.6 318.3,258.0 344.2,250.7 370.0,261.3 395.8,242.3 421.7,223.9 447.5,211.8 473.3,229.6 499.2,231.4 525.0,201.7 550.8,231.7 576.7,225.6 602.5,229.4 628.3,191.9 654.2,189.4 680.0,220.6" fill="none" stroke="#bbb" stroke-width="0.6" opacity="0.6"/>
<polyline points="60.0,288.6 85.8,286.3 111.7,275.2 137.5,288.7 163.3,280.7 189.2,298.6 215.0,278.4 240.8,288.4 266.7,286.6 292.5,273.6 318.3,276.9 344.2,257.8 370.0,283.0 395.8,261.8 421.7,277.7 447.5,251.1 473.3,254.1 499.2,239.7 525.0,232.2 550.8,230.7 576.7,233.7 602.5,246.8 628.3,254.7 654.2,235.1 680.0,246.1" fill="none" stroke="#bbb" stroke-width="0.6" opacity="0.6"/>
<polyline points="60.0,229.3 85.8,234.8 111.7,227.5 137.5,213.9 163.3,215.6 189.2,226.9 215.0,239.8 240.8,231.7 266.7,235.1 292.5,232.2 318.3,235.6 344.2,231.2 370.0,222.6 395.8,217.5 421.7,222.2 447.5,209.2 473.3,191.0 499.2,209.5 525.0,199.4 550.8,188.2 576.7,186.6 602.5,176.3 628.3,176.0 654.2,175.2 680.0,188.5" fill="none" stroke="#bbb" stroke-width="0.6" opacity="0.6"/>
<polyline points="60.0,187.2 85.8,204.8 111.7,223.7 137.5,213.9 163.3,217.9 189.2,221.7 215.0,219.6 240.8,227.4 266.7,223.7 292.5,215.5 318.3,215.9 344.2,221.5 370.0,230.3 395.8,230.9 421.7,224.4 447.5,219.3 473.3,228.4 499.2,213.4 525.0,218.2 550.8,204.4 576.7,211.8 602.5,207.4 628.3,191.8 654.2,189.8 680.0,193.6" fill="none" stroke="#bbb" stroke-width="0.6" opacity="0.6"/>
<polyline points="60.0,239.1 85.8,245.8 111.7,235.5 137.5,243.2 163.3,254.7 189.2,244.6 215.0,248.7 240.8,245.2 266.7,246.0 292.5,236.3 318.3,232.0 344.2,229.8 370.0,210.4 395.8,220.6 421.7,214.8 447.5,215.2 473.3,206.0 499.2,191.1 525.0,215.8 550.8,208.1 576.7,206.1 602.5,187.0 628.3,183.4 654.2,188.5 680.0,179.8" fill="none" stroke="#bbb" stroke-width="0.6" opacity="0.6"/>
<polyline points="60.0,240.1 85.8,244.5 111.7,253.7 137.5,251.2 163.3,238.8 189.2,251.1 215.0,245.7 240.8,251.0 266.7,245.7 292.5,249.5 318.3,242.2 344.2,232.4 370.0,244.1 395.8,237.3 421.7,231.4 447.5,222.4 473.3,239.2 499.2,228.7 525.0,222.8 550.8,227.8 576.7,217.2 602.5,221.5 628.3,207.1 654.2,215.0 680.0,211.7" fill="none" stroke="#bbb" stroke-width="0.6" opacity="0.6"/>
<polyline points="60.0,281.8 85.8,277.3 111.7,284.6 137.5,281.2 163.3,281.0 189.2,281.3 215.0,276.9 240.8,280.4 266.7,281.9 292.5,276.9 318.3,272.5 344.2,279.2 370.0,267.8 395.8,274.1 421.7,264.6 447.5,266.8 473.3,263.5 499.2,259.1 525.0,257.7 550.8,254.6 576.7,260.4 602.5,264.6 628.3,258.8 654.2,252.7 680.0,251.3" fill="none" stroke="#bbb" stroke-width="0.6" opacity="0.6"/>
<polyline points="60.0,261.1 85.8,269.9 111.7,283.3 137.5,272.5 163.3,257.0 189.2,256.0 215.0,240.7 240.8,241.4 266.7,285.0 292.5,249.1 318.3,260.7 344.2,254.9 370.0,263.5 395.8,240.9 421.7,249.7 447.5,243.5 473.3,248.5 499.2,233.7 525.0,235.7 550.8,226.2 576.7,216.9 602.5,231.9 628.3,218.7 654.2,219.3 680.0,233.9" fill="none" stroke="#bbb" stroke-width="0.6" opacity="0.6"/>
<polyline points="60.0,244.1 85.8,244.8 111.7,250.3 137.5,242.7 163.3,249.7 189.2,243.8 215.0,239.6 240.8,237.2 266.7,244.2 292.5,232.6 318.3,241.0 344.2,239.7 370.0,239.6 395.8,233.8 421.7,225.1 447.5,232.2 473.3,234.2 499.2,228.3 525.0,222.9 550.8,227.7 576.7,218.8 602.5,216.1 628.3,209.4 654.2,208.1 680.0,202.1" fill="none" stroke="#bbb" stroke-width="0.6" opacity="0.6"/>
<polyline points="60.0,279.4 85.8,278.2 111.7,273.5 137.5,278.6 163.3,278.1 189.2,281.3 215.0,279.4 240.8,284.4 266.7,280.4 292.5,276.9 318.3,274.4 344.2,269.8 370.0,272.3 395.8,270.7 421.7,270.2 447.5,271.4 473.3,263.8 499.2,264.0 525.0,259.3 550.8,256.1 576.7,258.2 602.5,257.2 628.3,247.9 654.2,245.1 680.0,245.1" fill="none" stroke="#bbb" stroke-width="0.6" opacity="0.6"/>
<polyline points="60.0,266.8 85.8,257.2 111.7,255.1 137.5,261.5 163.3,260.0 189.2,261.0 215.0,259.5 240.8,261.9 266.7,261.4 292.5,264.9 318.3,257.2 344.2,230.7 370.0,236.1 395.8,231.2 421.7,228.0 447.5,236.9 473.3,224.6 499.2,228.5 525.0,216.7 550.8,221.2 576.7,226.9 602.5,224.8 628.3,219.1 654.2,214.6 680.0,205.3" fill="none" stroke="#bbb" stroke-width="0.6" opacity="0.6"/>
<polyline points="60.0,264.5 85.8,268.9 111.7,272.9 137.5,269.9 163.3,277.5 189.2,271.5 215.0,269.8 240.8,272.7 266.7,275.3 292.5,270.1 318.3,270.8 344.2,264.5 370.0,261.3 395.8,264.8 421.7,263.5 447.5,260.6 473.3,260.6 499.2,254.9 525.0,255.5 550.8,255.0 576.7,257.8 602.5,253.3 628.3,252.3 654.2,250.7 680.0,250.3" fill="none" stroke="#bbb" stroke-width="0.6" opacity="0.6"/>
<polyline points="60.0,283.8 85.8,283.3 111.7,280.7 137.5,283.2 163.3,283.2 189.2,284.0 215.0,285.8 240.8,286.8 266.7,278.8 292.5,277.8 318.3,278.0 344.2,271.3 370.0,277.4 395.8,278.3 421.7,259.4 447.5,277.8 473.3,262.7 499.2,256.2 525.0,260.7 550.8,264.2 576.7,262.8 602.5,259.8 628.3,251.8 654.2,242.9 680.0,249.0" fill="none" stroke="#bbb" stroke-width="0.6" opacity="0.6"/>
<polyline points="60.0,221.9 85.8,199.3 111.7,187.8 137.5,196.2 163.3,197.4 189.2,208.1 215.0,183.0 240.8,218.7 266.7,198.6 292.5,180.8 318.3,190.7 344.2,180.1 370.0,175.3 395.8,176.1 421.7,175.5 447.5,176.0 473.3,154.1 499.2,167.5 525.0,123.9 550.8,172.6 576.7,160.8 602.5,143.0 628.3,102.4 654.2,127.8 680.0,139.6" fill="none" stroke="#1f3a5f" stroke-width="2" stroke-dasharray="6 4"/>
<polyline points="60.0,195.0 85.8,228.6 111.7,202.3 137.5,151.9 163.3,170.3 189.2,236.9 215.0,218.5 240.8,181.2 266.7,195.6 292.5,152.4 318.3,167.9 344.2,172.1 370.0,171.4 395.8,135.6 421.7,165.4 447.5,189.0 473.3,153.9 499.2,170.5 525.0,143.1 550.8,123.4 576.7,111.1 602.5,83.0 628.3,62.7 654.2,133.5 680.0,109.5" fill="none" stroke="#b9461a" stroke-width="2.4"/>
<line x1="331.2" y1="50" x2="331.2" y2="330" stroke="#1f2024" stroke-width="0.8" stroke-dasharray="4 3"/>
<text x="331.2" y="45" text-anchor="middle" fill="#1f2024" font-size="10">adoption (2010)</text>
<line x1="60" y1="330" x2="680" y2="330" stroke="#444"/>
<line x1="60" y1="50" x2="60" y2="330" stroke="#444"/>
<line x1="60.0" y1="330" x2="60.0" y2="334" stroke="#444"/>
<text x="60.0" y="348" text-anchor="middle" fill="#444">1999</text>
<line x1="111.7" y1="330" x2="111.7" y2="334" stroke="#444"/>
<text x="111.7" y="348" text-anchor="middle" fill="#444">2001</text>
<line x1="163.3" y1="330" x2="163.3" y2="334" stroke="#444"/>
<text x="163.3" y="348" text-anchor="middle" fill="#444">2003</text>
<line x1="215.0" y1="330" x2="215.0" y2="334" stroke="#444"/>
<text x="215.0" y="348" text-anchor="middle" fill="#444">2005</text>
<line x1="266.7" y1="330" x2="266.7" y2="334" stroke="#444"/>
<text x="266.7" y="348" text-anchor="middle" fill="#444">2007</text>
<line x1="318.3" y1="330" x2="318.3" y2="334" stroke="#444"/>
<text x="318.3" y="348" text-anchor="middle" fill="#444">2009</text>
<line x1="370.0" y1="330" x2="370.0" y2="334" stroke="#444"/>
<text x="370.0" y="348" text-anchor="middle" fill="#444">2011</text>
<line x1="421.7" y1="330" x2="421.7" y2="334" stroke="#444"/>
<text x="421.7" y="348" text-anchor="middle" fill="#444">2013</text>
<line x1="473.3" y1="330" x2="473.3" y2="334" stroke="#444"/>
<text x="473.3" y="348" text-anchor="middle" fill="#444">2015</text>
<line x1="525.0" y1="330" x2="525.0" y2="334" stroke="#444"/>
<text x="525.0" y="348" text-anchor="middle" fill="#444">2017</text>
<line x1="576.7" y1="330" x2="576.7" y2="334" stroke="#444"/>
<text x="576.7" y="348" text-anchor="middle" fill="#444">2019</text>
<line x1="628.3" y1="330" x2="628.3" y2="334" stroke="#444"/>
<text x="628.3" y="348" text-anchor="middle" fill="#444">2021</text>
<line x1="680.0" y1="330" x2="680.0" y2="334" stroke="#444"/>
<text x="680.0" y="348" text-anchor="middle" fill="#444">2023</text>
<line x1="56" y1="330.0" x2="60" y2="330.0" stroke="#444"/>
<text x="53" y="333.0" text-anchor="end" fill="#444">1.9</text>
<line x1="56" y1="260.0" x2="60" y2="260.0" stroke="#444"/>
<text x="53" y="263.0" text-anchor="end" fill="#444">7.6</text>
<line x1="56" y1="190.0" x2="60" y2="190.0" stroke="#444"/>
<text x="53" y="193.0" text-anchor="end" fill="#444">13</text>
<line x1="56" y1="120.0" x2="60" y2="120.0" stroke="#444"/>
<text x="53" y="123.0" text-anchor="end" fill="#444">19</text>
<line x1="56" y1="50.0" x2="60" y2="50.0" stroke="#444"/>
<text x="53" y="53.0" text-anchor="end" fill="#444">25</text>
<rect x="520" y="60" width="190" height="60" fill="white" stroke="#e2e2dc"/>
<line x1="530" y1="75" x2="560" y2="75" stroke="#b9461a" stroke-width="2.4"/>
<text x="565" y="79" font-size="11">Wyoming (treated)</text>
<line x1="530" y1="95" x2="560" y2="95" stroke="#1f3a5f" stroke-width="2" stroke-dasharray="6 4"/>
<text x="565" y="99" font-size="11">Synthetic counterfactual</text>
<line x1="530" y1="112" x2="560" y2="112" stroke="#bbb" stroke-width="0.6"/>
<text x="565" y="116" font-size="10">Donor states (gray)</text>
</svg>