<svg xmlns="http://www.w3.org/2000/svg" viewBox="0 0 720 380" font-family="-apple-system, Segoe UI, Helvetica, Arial, sans-serif" font-size="12">
<rect x="0" y="0" width="720" height="380" fill="#fafaf7"/>
<text x="360.0" y="22" text-anchor="middle" font-size="14" font-weight="600">Texas (2021): Firearm homicide rate (per 100k)</text>
<polyline points="60.0,284.8 104.3,290.4 148.6,289.2 192.9,283.0 237.1,288.3 281.4,291.0 325.7,275.6 370.0,265.5 414.3,266.8 458.6,255.4 502.9,267.0 547.1,236.4 591.4,218.6 635.7,207.1 680.0,226.8" fill="none" stroke="#bbb" stroke-width="0.6" opacity="0.6"/>
<polyline points="60.0,213.0 104.3,226.1 148.6,207.7 192.9,190.2 237.1,212.6 281.4,233.8 325.7,227.6 370.0,215.8 414.3,227.5 458.6,217.4 502.9,222.7 547.1,167.7 591.4,161.6 635.7,177.3 680.0,208.6" fill="none" stroke="#bbb" stroke-width="0.6" opacity="0.6"/>
<polyline points="60.0,317.3 104.3,308.3 148.6,311.4 192.9,310.6 237.1,303.8 281.4,312.0 325.7,296.8 370.0,301.2 414.3,303.9 458.6,309.6 502.9,293.4 547.1,277.4 591.4,266.5 635.7,275.8 680.0,282.8" fill="none" stroke="#bbb" stroke-width="0.6" opacity="0.6"/>
<polyline points="60.0,229.0 104.3,239.1 148.6,239.3 192.9,229.3 237.1,232.9 281.4,239.3 325.7,228.4 370.0,199.4 414.3,210.1 458.6,219.5 502.9,208.1 547.1,160.7 591.4,134.5 635.7,153.7 680.0,169.3" fill="none" stroke="#bbb" stroke-width="0.6" opacity="0.6"/>
<polyline points="60.0,222.9 104.3,245.5 148.6,250.2 192.9,241.8 237.1,239.3 281.4,246.7 325.7,228.3 370.0,201.2 414.3,216.3 458.6,174.1 502.9,147.5 547.1,159.3 591.4,62.7 635.7,76.7 680.0,77.6" fill="none" stroke="#bbb" stroke-width="0.6" opacity="0.6"/>
<polyline points="60.0,246.0 104.3,254.6 148.6,260.9 192.9,268.4 237.1,259.2 281.4,244.4 325.7,226.7 370.0,210.4 414.3,209.5 458.6,206.8 502.9,241.9 547.1,219.4 591.4,178.5 635.7,195.1 680.0,192.9" fill="none" stroke="#bbb" stroke-width="0.6" opacity="0.6"/>
<polyline points="60.0,302.9 104.3,299.6 148.6,298.7 192.9,304.9 237.1,304.5 281.4,305.5 325.7,280.1 370.0,291.0 414.3,294.6 458.6,298.8 502.9,292.4 547.1,274.0 591.4,252.1 635.7,246.5 680.0,259.3" fill="none" stroke="#bbb" stroke-width="0.6" opacity="0.6"/>
<polyline points="60.0,241.9 104.3,239.0 148.6,237.1 192.9,230.3 237.1,242.6 281.4,246.7 325.7,235.6 370.0,232.3 414.3,219.7 458.6,223.9 502.9,230.5 547.1,182.5 591.4,171.0 635.7,175.9 680.0,203.9" fill="none" stroke="#bbb" stroke-width="0.6" opacity="0.6"/>
<polyline points="60.0,251.6 104.3,253.2 148.6,266.8 192.9,269.8 237.1,267.7 281.4,267.6 325.7,255.6 370.0,232.6 414.3,235.7 458.6,239.6 502.9,237.4 547.1,209.0 591.4,190.9 635.7,176.4 680.0,201.0" fill="none" stroke="#bbb" stroke-width="0.6" opacity="0.6"/>
<polyline points="60.0,294.4 104.3,296.3 148.6,306.7 192.9,292.6 237.1,297.1 281.4,296.2 325.7,282.0 370.0,288.5 414.3,282.8 458.6,281.0 502.9,284.3 547.1,269.6 591.4,255.9 635.7,237.2 680.0,236.7" fill="none" stroke="#bbb" stroke-width="0.6" opacity="0.6"/>
<polyline points="60.0,243.9 104.3,249.5 148.6,254.6 192.9,248.5 237.1,251.2 281.4,254.5 325.7,242.9 370.0,221.7 414.3,226.3 458.6,232.4 502.9,227.1 547.1,189.0 591.4,167.7 635.7,171.5 680.0,189.1" fill="none" stroke="#1f3a5f" stroke-width="2" stroke-dasharray="6 4"/>
<polyline points="60.0,236.4 104.3,247.0 148.6,258.9 192.9,252.1 237.1,251.7 281.4,248.3 325.7,236.6 370.0,227.8 414.3,226.6 458.6,237.9 502.9,225.4 547.1,189.0 591.4,172.2 635.7,185.0 680.0,198.1" fill="none" stroke="#b9461a" stroke-width="2.4"/>
<line x1="569.3" y1="50" x2="569.3" y2="330" stroke="#1f2024" stroke-width="0.8" stroke-dasharray="4 3"/>
<text x="569.3" y="45" text-anchor="middle" fill="#1f2024" font-size="10">adoption (2021)</text>
<line x1="60" y1="330" x2="680" y2="330" stroke="#444"/>
<line x1="60" y1="50" x2="60" y2="330" stroke="#444"/>
<line x1="60.0" y1="330" x2="60.0" y2="334" stroke="#444"/>
<text x="60.0" y="348" text-anchor="middle" fill="#444">2009</text>
<line x1="148.6" y1="330" x2="148.6" y2="334" stroke="#444"/>
<text x="148.6" y="348" text-anchor="middle" fill="#444">2011</text>
<line x1="237.1" y1="330" x2="237.1" y2="334" stroke="#444"/>
<text x="237.1" y="348" text-anchor="middle" fill="#444">2013</text>
<line x1="325.7" y1="330" x2="325.7" y2="334" stroke="#444"/>
<text x="325.7" y="348" text-anchor="middle" fill="#444">2015</text>
<line x1="414.3" y1="330" x2="414.3" y2="334" stroke="#444"/>
<text x="414.3" y="348" text-anchor="middle" fill="#444">2017</text>
<line x1="502.9" y1="330" x2="502.9" y2="334" stroke="#444"/>
<text x="502.9" y="348" text-anchor="middle" fill="#444">2019</text>
<line x1="591.4" y1="330" x2="591.4" y2="334" stroke="#444"/>
<text x="591.4" y="348" text-anchor="middle" fill="#444">2021</text>
<line x1="680.0" y1="330" x2="680.0" y2="334" stroke="#444"/>
<text x="680.0" y="348" text-anchor="middle" fill="#444">2023</text>
<line x1="56" y1="330.0" x2="60" y2="330.0" stroke="#444"/>
<text x="53" y="333.0" text-anchor="end" fill="#444">0.37</text>
<line x1="56" y1="260.0" x2="60" y2="260.0" stroke="#444"/>
<text x="53" y="263.0" text-anchor="end" fill="#444">3.1</text>
<line x1="56" y1="190.0" x2="60" y2="190.0" stroke="#444"/>
<text x="53" y="193.0" text-anchor="end" fill="#444">5.9</text>
<line x1="56" y1="120.0" x2="60" y2="120.0" stroke="#444"/>
<text x="53" y="123.0" text-anchor="end" fill="#444">8.6</text>
<line x1="56" y1="50.0" x2="60" y2="50.0" stroke="#444"/>
<text x="53" y="53.0" text-anchor="end" fill="#444">11</text>
<rect x="520" y="60" width="190" height="60" fill="white" stroke="#e2e2dc"/>
<line x1="530" y1="75" x2="560" y2="75" stroke="#b9461a" stroke-width="2.4"/>
<text x="565" y="79" font-size="11">Texas (treated)</text>
<line x1="530" y1="95" x2="560" y2="95" stroke="#1f3a5f" stroke-width="2" stroke-dasharray="6 4"/>
<text x="565" y="99" font-size="11">Synthetic counterfactual</text>
<line x1="530" y1="112" x2="560" y2="112" stroke="#bbb" stroke-width="0.6"/>
<text x="565" y="116" font-size="10">Donor states (gray)</text>
</svg>