<svg xmlns="http://www.w3.org/2000/svg" viewBox="0 0 720 380" font-family="-apple-system, Segoe UI, Helvetica, Arial, sans-serif" font-size="12">
<rect x="0" y="0" width="720" height="380" fill="#fafaf7"/>
<text x="360.0" y="22" text-anchor="middle" font-size="14" font-weight="600">Texas (2021): Total homicide rate (per 100k)</text>
<polyline points="60.0,278.3 104.3,291.7 148.6,281.2 192.9,283.5 237.1,275.2 281.4,286.3 325.7,278.0 370.0,272.7 414.3,260.8 458.6,264.7 502.9,260.3 547.1,236.2 591.4,211.2 635.7,207.3 680.0,229.0" fill="none" stroke="#bbb" stroke-width="0.6" opacity="0.6"/>
<polyline points="60.0,210.0 104.3,218.3 148.6,210.0 192.9,191.3 237.1,208.5 281.4,226.9 325.7,217.7 370.0,211.9 414.3,222.0 458.6,225.2 502.9,220.6 547.1,180.8 591.4,180.4 635.7,194.5 680.0,217.2" fill="none" stroke="#bbb" stroke-width="0.6" opacity="0.6"/>
<polyline points="60.0,317.2 104.3,308.3 148.6,317.3 192.9,307.6 237.1,301.8 281.4,312.6 325.7,294.6 370.0,307.9 414.3,303.0 458.6,306.1 502.9,298.5 547.1,274.0 591.4,269.6 635.7,277.5 680.0,277.9" fill="none" stroke="#bbb" stroke-width="0.6" opacity="0.6"/>
<polyline points="60.0,232.9 104.3,238.5 148.6,234.1 192.9,239.5 237.1,244.2 281.4,237.4 325.7,234.2 370.0,200.5 414.3,214.2 458.6,225.9 502.9,210.6 547.1,170.4 591.4,139.8 635.7,168.1 680.0,170.3" fill="none" stroke="#bbb" stroke-width="0.6" opacity="0.6"/>
<polyline points="60.0,130.2 104.3,198.3 148.6,180.0 192.9,225.0 237.1,217.8 281.4,241.1 325.7,223.8 370.0,200.7 414.3,196.0 458.6,186.4 502.9,153.2 547.1,175.9 591.4,62.7 635.7,76.9 680.0,87.3" fill="none" stroke="#bbb" stroke-width="0.6" opacity="0.6"/>
<polyline points="60.0,217.6 104.3,219.0 148.6,235.2 192.9,248.6 237.1,219.0 281.4,215.7 325.7,211.6 370.0,176.6 414.3,150.2 458.6,200.6 502.9,245.2 547.1,221.3 591.4,180.1 635.7,190.1 680.0,187.1" fill="none" stroke="#bbb" stroke-width="0.6" opacity="0.6"/>
<polyline points="60.0,297.4 104.3,292.9 148.6,300.2 192.9,296.7 237.1,302.1 281.4,301.5 325.7,287.8 370.0,285.5 414.3,292.3 458.6,302.8 502.9,286.9 547.1,283.1 591.4,242.2 635.7,243.4 680.0,248.9" fill="none" stroke="#bbb" stroke-width="0.6" opacity="0.6"/>
<polyline points="60.0,231.7 104.3,234.6 148.6,237.3 192.9,225.7 237.1,242.5 281.4,242.7 325.7,233.2 370.0,231.6 414.3,219.9 458.6,212.7 502.9,231.4 547.1,173.5 591.4,163.3 635.7,168.2 680.0,199.8" fill="none" stroke="#bbb" stroke-width="0.6" opacity="0.6"/>
<polyline points="60.0,244.4 104.3,244.6 148.6,265.3 192.9,261.2 237.1,262.7 281.4,255.3 325.7,245.1 370.0,221.5 414.3,225.4 458.6,239.7 502.9,232.7 547.1,213.3 591.4,201.8 635.7,184.9 680.0,211.2" fill="none" stroke="#bbb" stroke-width="0.6" opacity="0.6"/>
<polyline points="60.0,285.2 104.3,297.8 148.6,295.4 192.9,278.6 237.1,295.3 281.4,292.5 325.7,280.9 370.0,289.0 414.3,280.9 458.6,278.9 502.9,288.7 547.1,261.7 591.4,253.6 635.7,234.6 680.0,241.8" fill="none" stroke="#bbb" stroke-width="0.6" opacity="0.6"/>
<polyline points="60.0,236.4 104.3,243.6 148.6,249.2 192.9,245.6 237.1,250.9 281.4,255.0 325.7,243.9 370.0,231.1 414.3,234.1 458.6,240.3 502.9,232.6 547.1,208.6 591.4,188.0 635.7,189.0 680.0,208.0" fill="none" stroke="#1f3a5f" stroke-width="2" stroke-dasharray="6 4"/>
<polyline points="60.0,229.5 104.3,238.8 148.6,250.7 192.9,250.8 237.1,253.1 281.4,250.5 325.7,242.0 370.0,231.0 414.3,238.5 458.6,245.7 502.9,238.9 547.1,202.7 591.4,192.0 635.7,195.3 680.0,212.3" fill="none" stroke="#b9461a" stroke-width="2.4"/>
<line x1="569.3" y1="50" x2="569.3" y2="330" stroke="#1f2024" stroke-width="0.8" stroke-dasharray="4 3"/>
<text x="569.3" y="45" text-anchor="middle" fill="#1f2024" font-size="10">adoption (2021)</text>
<line x1="60" y1="330" x2="680" y2="330" stroke="#444"/>
<line x1="60" y1="50" x2="60" y2="330" stroke="#444"/>
<line x1="60.0" y1="330" x2="60.0" y2="334" stroke="#444"/>
<text x="60.0" y="348" text-anchor="middle" fill="#444">2009</text>
<line x1="148.6" y1="330" x2="148.6" y2="334" stroke="#444"/>
<text x="148.6" y="348" text-anchor="middle" fill="#444">2011</text>
<line x1="237.1" y1="330" x2="237.1" y2="334" stroke="#444"/>
<text x="237.1" y="348" text-anchor="middle" fill="#444">2013</text>
<line x1="325.7" y1="330" x2="325.7" y2="334" stroke="#444"/>
<text x="325.7" y="348" text-anchor="middle" fill="#444">2015</text>
<line x1="414.3" y1="330" x2="414.3" y2="334" stroke="#444"/>
<text x="414.3" y="348" text-anchor="middle" fill="#444">2017</text>
<line x1="502.9" y1="330" x2="502.9" y2="334" stroke="#444"/>
<text x="502.9" y="348" text-anchor="middle" fill="#444">2019</text>
<line x1="591.4" y1="330" x2="591.4" y2="334" stroke="#444"/>
<text x="591.4" y="348" text-anchor="middle" fill="#444">2021</text>
<line x1="680.0" y1="330" x2="680.0" y2="334" stroke="#444"/>
<text x="680.0" y="348" text-anchor="middle" fill="#444">2023</text>
<line x1="56" y1="330.0" x2="60" y2="330.0" stroke="#444"/>
<text x="53" y="333.0" text-anchor="end" fill="#444">0.83</text>
<line x1="56" y1="260.0" x2="60" y2="260.0" stroke="#444"/>
<text x="53" y="263.0" text-anchor="end" fill="#444">4</text>
<line x1="56" y1="190.0" x2="60" y2="190.0" stroke="#444"/>
<text x="53" y="193.0" text-anchor="end" fill="#444">7.2</text>
<line x1="56" y1="120.0" x2="60" y2="120.0" stroke="#444"/>
<text x="53" y="123.0" text-anchor="end" fill="#444">10</text>
<line x1="56" y1="50.0" x2="60" y2="50.0" stroke="#444"/>
<text x="53" y="53.0" text-anchor="end" fill="#444">13</text>
<rect x="520" y="60" width="190" height="60" fill="white" stroke="#e2e2dc"/>
<line x1="530" y1="75" x2="560" y2="75" stroke="#b9461a" stroke-width="2.4"/>
<text x="565" y="79" font-size="11">Texas (treated)</text>
<line x1="530" y1="95" x2="560" y2="95" stroke="#1f3a5f" stroke-width="2" stroke-dasharray="6 4"/>
<text x="565" y="99" font-size="11">Synthetic counterfactual</text>
<line x1="530" y1="112" x2="560" y2="112" stroke="#bbb" stroke-width="0.6"/>
<text x="565" y="116" font-size="10">Donor states (gray)</text>
</svg>