<svg xmlns="http://www.w3.org/2000/svg" viewBox="0 0 720 380" font-family="-apple-system, Segoe UI, Helvetica, Arial, sans-serif" font-size="12">
<rect x="0" y="0" width="720" height="380" fill="#fafaf7"/>
<text x="360.0" y="22" text-anchor="middle" font-size="14" font-weight="600">Texas (2021): Total suicide rate (per 100k) [net effect]</text>
<polyline points="60.0,180.4 104.3,207.8 148.6,196.2 192.9,152.6 237.1,173.5 281.4,153.6 325.7,157.0 370.0,138.2 414.3,138.5 458.6,112.6 502.9,107.7 547.1,114.2 591.4,89.4 635.7,120.0 680.0,122.1" fill="none" stroke="#bbb" stroke-width="0.6" opacity="0.6"/>
<polyline points="60.0,305.9 104.3,288.6 148.6,295.9 192.9,287.4 237.1,282.8 281.4,272.4 325.7,262.6 370.0,271.4 414.3,253.9 458.6,238.8 502.9,253.8 547.1,256.5 591.4,251.0 635.7,248.0 680.0,244.3" fill="none" stroke="#bbb" stroke-width="0.6" opacity="0.6"/>
<polyline points="60.0,317.3 104.3,313.6 148.6,290.0 192.9,299.1 237.1,291.8 281.4,290.7 325.7,277.7 370.0,274.1 414.3,264.4 458.6,280.0 502.9,252.3 547.1,275.9 591.4,262.8 635.7,246.6 680.0,263.1" fill="none" stroke="#bbb" stroke-width="0.6" opacity="0.6"/>
<polyline points="60.0,291.7 104.3,295.4 148.6,292.6 192.9,281.2 237.1,282.4 281.4,272.4 325.7,265.1 370.0,275.1 414.3,252.3 458.6,259.5 502.9,285.5 547.1,272.4 591.4,270.4 635.7,246.0 680.0,253.0" fill="none" stroke="#bbb" stroke-width="0.6" opacity="0.6"/>
<polyline points="60.0,180.7 104.3,156.6 148.6,154.5 192.9,136.2 237.1,145.6 281.4,130.2 325.7,86.3 370.0,110.4 414.3,94.6 458.6,62.7 502.9,77.6 547.1,77.8 591.4,64.9 635.7,70.9 680.0,102.9" fill="none" stroke="#bbb" stroke-width="0.6" opacity="0.6"/>
<polyline points="60.0,173.6 104.3,156.3 148.6,180.4 192.9,180.2 237.1,173.7 281.4,157.5 325.7,172.6 370.0,124.1 414.3,143.6 458.6,131.5 502.9,144.2 547.1,172.2 591.4,122.7 635.7,122.2 680.0,131.3" fill="none" stroke="#bbb" stroke-width="0.6" opacity="0.6"/>
<polyline points="60.0,214.3 104.3,195.6 148.6,212.4 192.9,183.3 237.1,197.7 281.4,163.0 325.7,180.6 370.0,178.0 414.3,159.1 458.6,158.5 502.9,134.5 547.1,164.9 591.4,141.5 635.7,143.4 680.0,141.9" fill="none" stroke="#bbb" stroke-width="0.6" opacity="0.6"/>
<polyline points="60.0,284.1 104.3,293.8 148.6,270.6 192.9,284.8 237.1,265.3 281.4,261.4 325.7,251.4 370.0,240.3 414.3,231.9 458.6,234.3 502.9,250.6 547.1,278.5 591.4,256.5 635.7,246.2 680.0,244.0" fill="none" stroke="#bbb" stroke-width="0.6" opacity="0.6"/>
<polyline points="60.0,297.5 104.3,300.3 148.6,282.9 192.9,283.5 237.1,283.9 281.4,275.2 325.7,278.5 370.0,268.2 414.3,267.4 458.6,255.1 502.9,277.7 547.1,265.5 591.4,270.1 635.7,266.7 680.0,261.0" fill="none" stroke="#bbb" stroke-width="0.6" opacity="0.6"/>
<polyline points="60.0,268.3 104.3,261.0 148.6,250.2 192.9,248.1 237.1,252.0 281.4,233.8 325.7,233.3 370.0,235.4 414.3,202.1 458.6,220.2 502.9,219.7 547.1,233.7 591.4,231.6 635.7,230.2 680.0,222.5" fill="none" stroke="#bbb" stroke-width="0.6" opacity="0.6"/>
<polyline points="60.0,314.6 104.3,311.8 148.6,289.8 192.9,297.2 237.1,290.8 281.4,288.8 325.7,277.0 370.0,273.9 414.3,263.8 458.6,277.4 502.9,255.7 547.1,275.1 591.4,263.7 635.7,247.7 680.0,262.4" fill="none" stroke="#1f3a5f" stroke-width="2" stroke-dasharray="6 4"/>
<polyline points="60.0,313.2 104.3,310.1 148.6,314.3 192.9,307.4 237.1,309.0 281.4,300.2 325.7,294.6 370.0,292.3 414.3,277.2 458.6,271.1 502.9,276.1 547.1,276.7 591.4,261.9 635.7,256.1 680.0,260.4" fill="none" stroke="#b9461a" stroke-width="2.4"/>
<line x1="569.3" y1="50" x2="569.3" y2="330" stroke="#1f2024" stroke-width="0.8" stroke-dasharray="4 3"/>
<text x="569.3" y="45" text-anchor="middle" fill="#1f2024" font-size="10">adoption (2021)</text>
<line x1="60" y1="330" x2="680" y2="330" stroke="#444"/>
<line x1="60" y1="50" x2="60" y2="330" stroke="#444"/>
<line x1="60.0" y1="330" x2="60.0" y2="334" stroke="#444"/>
<text x="60.0" y="348" text-anchor="middle" fill="#444">2009</text>
<line x1="148.6" y1="330" x2="148.6" y2="334" stroke="#444"/>
<text x="148.6" y="348" text-anchor="middle" fill="#444">2011</text>
<line x1="237.1" y1="330" x2="237.1" y2="334" stroke="#444"/>
<text x="237.1" y="348" text-anchor="middle" fill="#444">2013</text>
<line x1="325.7" y1="330" x2="325.7" y2="334" stroke="#444"/>
<text x="325.7" y="348" text-anchor="middle" fill="#444">2015</text>
<line x1="414.3" y1="330" x2="414.3" y2="334" stroke="#444"/>
<text x="414.3" y="348" text-anchor="middle" fill="#444">2017</text>
<line x1="502.9" y1="330" x2="502.9" y2="334" stroke="#444"/>
<text x="502.9" y="348" text-anchor="middle" fill="#444">2019</text>
<line x1="591.4" y1="330" x2="591.4" y2="334" stroke="#444"/>
<text x="591.4" y="348" text-anchor="middle" fill="#444">2021</text>
<line x1="680.0" y1="330" x2="680.0" y2="334" stroke="#444"/>
<text x="680.0" y="348" text-anchor="middle" fill="#444">2023</text>
<line x1="56" y1="330.0" x2="60" y2="330.0" stroke="#444"/>
<text x="53" y="333.0" text-anchor="end" fill="#444">10</text>
<line x1="56" y1="260.0" x2="60" y2="260.0" stroke="#444"/>
<text x="53" y="263.0" text-anchor="end" fill="#444">14</text>
<line x1="56" y1="190.0" x2="60" y2="190.0" stroke="#444"/>
<text x="53" y="193.0" text-anchor="end" fill="#444">18</text>
<line x1="56" y1="120.0" x2="60" y2="120.0" stroke="#444"/>
<text x="53" y="123.0" text-anchor="end" fill="#444">22</text>
<line x1="56" y1="50.0" x2="60" y2="50.0" stroke="#444"/>
<text x="53" y="53.0" text-anchor="end" fill="#444">26</text>
<rect x="520" y="60" width="190" height="60" fill="white" stroke="#e2e2dc"/>
<line x1="530" y1="75" x2="560" y2="75" stroke="#b9461a" stroke-width="2.4"/>
<text x="565" y="79" font-size="11">Texas (treated)</text>
<line x1="530" y1="95" x2="560" y2="95" stroke="#1f3a5f" stroke-width="2" stroke-dasharray="6 4"/>
<text x="565" y="99" font-size="11">Synthetic counterfactual</text>
<line x1="530" y1="112" x2="560" y2="112" stroke="#bbb" stroke-width="0.6"/>
<text x="565" y="116" font-size="10">Donor states (gray)</text>
</svg>