<svg xmlns="http://www.w3.org/2000/svg" viewBox="0 0 720 380" font-family="-apple-system, Segoe UI, Helvetica, Arial, sans-serif" font-size="12">
<rect x="0" y="0" width="720" height="380" fill="#fafaf7"/>
<text x="360.0" y="22" text-anchor="middle" font-size="14" font-weight="600">Vermont (2018): Firearm suicide rate (per 100k)</text>
<polyline points="60.0,199.8 96.5,177.1 132.9,140.6 169.4,205.3 205.9,161.9 242.4,177.7 278.8,181.2 315.3,147.3 351.8,155.6 388.2,143.5 424.7,160.0 461.2,150.1 497.6,168.3 534.1,151.1 570.6,125.7 607.1,112.5 643.5,156.6 680.0,147.7" fill="none" stroke="#bbb" stroke-width="0.6" opacity="0.6"/>
<polyline points="60.0,235.5 96.5,237.2 132.9,231.0 169.4,218.5 205.9,226.3 242.4,227.3 278.8,216.2 315.3,215.5 351.8,221.9 388.2,210.5 424.7,205.3 461.2,200.2 497.6,205.5 534.1,208.0 570.6,208.8 607.1,193.4 643.5,196.2 680.0,196.5" fill="none" stroke="#bbb" stroke-width="0.6" opacity="0.6"/>
<polyline points="60.0,234.5 96.5,236.6 132.9,224.8 169.4,222.1 205.9,230.6 242.4,218.4 278.8,215.7 315.3,210.3 351.8,210.2 388.2,203.3 424.7,208.0 461.2,185.2 497.6,203.7 534.1,205.4 570.6,197.2 607.1,186.7 643.5,206.7 680.0,187.7" fill="none" stroke="#bbb" stroke-width="0.6" opacity="0.6"/>
<polyline points="60.0,230.5 96.5,235.4 132.9,240.1 169.4,230.1 205.9,224.0 242.4,215.9 278.8,219.1 315.3,221.8 351.8,218.8 388.2,216.4 424.7,210.1 461.2,205.6 497.6,206.8 534.1,207.6 570.6,206.8 607.1,196.4 643.5,182.2 680.0,188.9" fill="none" stroke="#bbb" stroke-width="0.6" opacity="0.6"/>
<polyline points="60.0,257.7 96.5,254.8 132.9,248.0 169.4,244.3 205.9,246.7 242.4,245.7 278.8,243.3 315.3,243.5 351.8,246.7 388.2,243.1 424.7,242.3 461.2,241.2 497.6,234.7 534.1,238.8 570.6,244.1 607.1,234.0 643.5,233.4 680.0,230.2" fill="none" stroke="#bbb" stroke-width="0.6" opacity="0.6"/>
<polyline points="60.0,262.0 96.5,258.5 132.9,262.6 169.4,248.7 205.9,250.4 242.4,248.7 278.8,248.7 315.3,249.7 351.8,239.8 388.2,243.0 424.7,238.4 461.2,235.4 497.6,227.6 534.1,232.1 570.6,234.7 607.1,216.6 643.5,225.0 680.0,219.5" fill="none" stroke="#bbb" stroke-width="0.6" opacity="0.6"/>
<polyline points="60.0,317.3 96.5,311.8 132.9,311.0 169.4,304.0 205.9,304.7 242.4,300.8 278.8,300.4 315.3,313.1 351.8,309.3 388.2,300.6 424.7,306.2 461.2,311.9 497.6,311.7 534.1,302.7 570.6,310.7 607.1,302.6 643.5,300.0 680.0,296.0" fill="none" stroke="#bbb" stroke-width="0.6" opacity="0.6"/>
<polyline points="60.0,278.4 96.5,284.7 132.9,266.8 169.4,274.6 205.9,269.0 242.4,266.3 278.8,270.3 315.3,253.4 351.8,263.9 388.2,264.7 424.7,252.0 461.2,254.5 497.6,251.5 534.1,250.7 570.6,241.1 607.1,230.2 643.5,232.1 680.0,240.6" fill="none" stroke="#bbb" stroke-width="0.6" opacity="0.6"/>
<polyline points="60.0,221.8 96.5,222.7 132.9,223.0 169.4,204.4 205.9,201.9 242.4,214.3 278.8,208.6 315.3,192.6 351.8,207.3 388.2,185.9 424.7,188.4 461.2,171.8 497.6,171.3 534.1,191.8 570.6,160.8 607.1,177.0 643.5,166.6 680.0,157.7" fill="none" stroke="#bbb" stroke-width="0.6" opacity="0.6"/>
<polyline points="60.0,255.2 96.5,264.7 132.9,254.5 169.4,253.7 205.9,255.0 242.4,263.2 278.8,245.4 315.3,244.1 351.8,243.6 388.2,245.8 424.7,233.1 461.2,231.4 497.6,234.5 534.1,238.2 570.6,231.9 607.1,218.2 643.5,219.2 680.0,208.9" fill="none" stroke="#bbb" stroke-width="0.6" opacity="0.6"/>
<polyline points="60.0,247.9 96.5,247.4 132.9,259.8 169.4,254.1 205.9,251.0 242.4,242.3 278.8,217.1 315.3,239.8 351.8,241.4 388.2,247.2 424.7,233.9 461.2,210.7 497.6,220.1 534.1,220.6 570.6,211.5 607.1,200.3 643.5,198.7 680.0,210.7" fill="none" stroke="#bbb" stroke-width="0.6" opacity="0.6"/>
<polyline points="60.0,230.8 96.5,221.1 132.9,229.4 169.4,228.1 205.9,228.5 242.4,216.2 278.8,212.3 315.3,216.9 351.8,213.0 388.2,205.7 424.7,207.1 461.2,214.1 497.6,204.4 534.1,220.9 570.6,202.3 607.1,199.1 643.5,201.3 680.0,198.4" fill="none" stroke="#bbb" stroke-width="0.6" opacity="0.6"/>
<polyline points="60.0,246.9 96.5,245.9 132.9,244.1 169.4,251.7 205.9,237.9 242.4,240.8 278.8,241.9 315.3,234.1 351.8,225.7 388.2,220.3 424.7,227.4 461.2,226.5 497.6,220.2 534.1,225.2 570.6,235.1 607.1,220.4 643.5,213.3 680.0,213.9" fill="none" stroke="#bbb" stroke-width="0.6" opacity="0.6"/>
<polyline points="60.0,260.0 96.5,257.1 132.9,245.7 169.4,243.1 205.9,253.4 242.4,237.7 278.8,238.7 315.3,216.8 351.8,235.3 388.2,224.8 424.7,238.9 461.2,205.4 497.6,209.1 534.1,212.2 570.6,223.1 607.1,203.6 643.5,206.4 680.0,205.6" fill="none" stroke="#bbb" stroke-width="0.6" opacity="0.6"/>
<polyline points="60.0,267.6 96.5,272.1 132.9,270.3 169.4,269.4 205.9,265.8 242.4,263.7 278.8,263.2 315.3,257.4 351.8,257.8 388.2,255.5 424.7,252.6 461.2,257.0 497.6,242.9 534.1,250.2 570.6,247.8 607.1,242.8 643.5,239.3 680.0,240.3" fill="none" stroke="#bbb" stroke-width="0.6" opacity="0.6"/>
<polyline points="60.0,281.8 96.5,277.2 132.9,272.1 169.4,274.4 205.9,275.1 242.4,266.5 278.8,269.5 315.3,263.8 351.8,270.9 388.2,272.1 424.7,266.6 461.2,260.4 497.6,262.8 534.1,264.4 570.6,263.8 607.1,256.7 643.5,254.9 680.0,260.0" fill="none" stroke="#bbb" stroke-width="0.6" opacity="0.6"/>
<polyline points="60.0,248.3 96.5,247.2 132.9,253.8 169.4,245.2 205.9,241.7 242.4,237.4 278.8,231.3 315.3,229.7 351.8,224.0 388.2,221.1 424.7,212.8 461.2,203.5 497.6,199.1 534.1,207.8 570.6,203.8 607.1,196.1 643.5,185.3 680.0,197.1" fill="none" stroke="#bbb" stroke-width="0.6" opacity="0.6"/>
<polyline points="60.0,249.1 96.5,225.6 132.9,223.6 169.4,230.7 205.9,236.4 242.4,232.1 278.8,221.4 315.3,228.3 351.8,239.2 388.2,223.3 424.7,232.4 461.2,221.8 497.6,214.9 534.1,216.4 570.6,227.8 607.1,205.5 643.5,218.2 680.0,208.8" fill="none" stroke="#bbb" stroke-width="0.6" opacity="0.6"/>
<polyline points="60.0,211.2 96.5,191.2 132.9,178.3 169.4,174.8 205.9,171.3 242.4,160.0 278.8,160.1 315.3,168.6 351.8,167.8 388.2,141.3 424.7,156.4 461.2,101.6 497.6,161.9 534.1,150.0 570.6,133.8 607.1,86.3 643.5,108.3 680.0,125.5" fill="none" stroke="#bbb" stroke-width="0.6" opacity="0.6"/>
<polyline points="60.0,250.0 96.5,258.7 132.9,252.2 169.4,252.6 205.9,250.4 242.4,249.0 278.8,252.1 315.3,245.6 351.8,247.8 388.2,245.5 424.7,246.3 461.2,241.6 497.6,238.9 534.1,250.0 570.6,240.2 607.1,235.9 643.5,229.0 680.0,229.8" fill="none" stroke="#bbb" stroke-width="0.6" opacity="0.6"/>
<polyline points="60.0,261.6 96.5,247.6 132.9,237.0 169.4,246.7 205.9,239.8 242.4,249.9 278.8,232.0 315.3,214.6 351.8,203.2 388.2,220.0 424.7,221.7 461.2,193.7 497.6,222.0 534.1,216.2 570.6,219.8 607.1,184.5 643.5,182.1 680.0,211.5" fill="none" stroke="#bbb" stroke-width="0.6" opacity="0.6"/>
<polyline points="60.0,267.5 96.5,278.1 132.9,272.6 169.4,276.3 205.9,269.0 242.4,266.5 278.8,264.5 315.3,267.4 351.8,254.4 388.2,266.6 424.7,265.8 461.2,260.3 497.6,249.2 534.1,244.1 570.6,253.2 607.1,250.8 643.5,227.7 680.0,240.1" fill="none" stroke="#bbb" stroke-width="0.6" opacity="0.6"/>
<polyline points="60.0,275.5 96.5,273.7 132.9,261.4 169.4,264.6 205.9,246.5 242.4,270.3 278.8,250.3 315.3,265.4 351.8,240.3 388.2,243.1 424.7,229.6 461.2,222.4 497.6,221.0 534.1,223.9 570.6,236.3 607.1,243.6 643.5,225.2 680.0,235.5" fill="none" stroke="#bbb" stroke-width="0.6" opacity="0.6"/>
<polyline points="60.0,221.9 96.5,225.2 132.9,222.5 169.4,225.6 205.9,221.6 242.4,213.4 278.8,208.6 315.3,213.0 351.8,200.8 388.2,183.6 424.7,201.1 461.2,191.6 497.6,181.0 534.1,179.5 570.6,169.7 607.1,169.5 643.5,168.7 680.0,181.3" fill="none" stroke="#bbb" stroke-width="0.6" opacity="0.6"/>
<polyline points="60.0,218.0 96.5,214.4 132.9,206.7 169.4,207.0 205.9,212.4 242.4,220.6 278.8,221.3 315.3,215.1 351.8,210.3 388.2,218.9 424.7,204.7 461.2,209.2 497.6,196.2 534.1,203.2 570.6,199.0 607.1,184.4 643.5,182.5 680.0,186.1" fill="none" stroke="#bbb" stroke-width="0.6" opacity="0.6"/>
<polyline points="60.0,273.1 96.5,269.7 132.9,267.3 169.4,277.0 205.9,263.6 242.4,263.4 278.8,257.6 315.3,256.2 351.8,261.9 388.2,250.4 424.7,243.9 461.2,245.1 497.6,241.0 534.1,239.2 570.6,246.8 607.1,238.7 643.5,233.4 680.0,234.5" fill="none" stroke="#bbb" stroke-width="0.6" opacity="0.6"/>
<polyline points="60.0,234.7 96.5,235.4 132.9,226.3 169.4,222.3 205.9,220.2 242.4,201.9 278.8,211.5 315.3,206.1 351.8,206.4 388.2,197.7 424.7,183.7 461.2,207.0 497.6,199.7 534.1,197.9 570.6,179.8 607.1,176.5 643.5,181.3 680.0,173.0" fill="none" stroke="#bbb" stroke-width="0.6" opacity="0.6"/>
<polyline points="60.0,240.2 96.5,235.2 132.9,238.8 169.4,231.8 205.9,222.6 242.4,233.7 278.8,227.3 315.3,221.7 351.8,213.2 388.2,229.1 424.7,219.2 461.2,213.6 497.6,218.3 534.1,208.3 570.6,212.3 607.1,198.8 643.5,206.2 680.0,203.2" fill="none" stroke="#bbb" stroke-width="0.6" opacity="0.6"/>
<polyline points="60.0,267.9 96.5,269.3 132.9,264.6 169.4,260.4 205.9,266.8 242.4,256.0 278.8,261.9 315.3,253.0 351.8,255.0 388.2,252.0 424.7,247.8 461.2,246.5 497.6,243.6 534.1,249.1 570.6,253.0 607.1,247.6 643.5,241.7 680.0,240.5" fill="none" stroke="#bbb" stroke-width="0.6" opacity="0.6"/>
<polyline points="60.0,251.8 96.5,254.5 132.9,247.6 169.4,240.5 205.9,238.1 242.4,230.8 278.8,230.1 315.3,222.3 351.8,221.5 388.2,225.4 424.7,213.7 461.2,213.9 497.6,224.0 534.1,216.6 570.6,210.9 607.1,214.6 643.5,211.5 680.0,221.7" fill="none" stroke="#bbb" stroke-width="0.6" opacity="0.6"/>
<polyline points="60.0,231.1 96.5,272.2 132.9,238.3 169.4,249.3 205.9,243.8 242.4,251.9 278.8,230.7 315.3,238.9 351.8,233.1 388.2,237.8 424.7,223.9 461.2,225.8 497.6,216.8 534.1,208.0 570.6,222.1 607.1,209.7 643.5,210.3 680.0,224.0" fill="none" stroke="#bbb" stroke-width="0.6" opacity="0.6"/>
<polyline points="60.0,227.2 96.5,233.8 132.9,222.8 169.4,230.7 205.9,229.5 242.4,229.4 278.8,224.0 315.3,215.8 351.8,222.4 388.2,224.3 424.7,218.8 461.2,213.7 497.6,218.3 534.1,209.8 570.6,207.3 607.1,201.0 643.5,199.7 680.0,194.1" fill="none" stroke="#bbb" stroke-width="0.6" opacity="0.6"/>
<polyline points="60.0,271.7 96.5,267.9 132.9,264.6 169.4,262.3 205.9,257.9 242.4,260.3 278.8,258.7 315.3,258.3 351.8,259.4 388.2,252.2 424.7,252.5 461.2,248.0 497.6,245.0 534.1,246.9 570.6,246.1 607.1,237.3 643.5,234.6 680.0,234.6" fill="none" stroke="#bbb" stroke-width="0.6" opacity="0.6"/>
<polyline points="60.0,250.4 96.5,250.0 132.9,253.3 169.4,246.0 205.9,221.1 242.4,226.1 278.8,221.5 315.3,218.5 351.8,226.9 388.2,215.3 424.7,219.0 461.2,207.9 497.6,212.1 534.1,217.4 570.6,215.5 607.1,210.1 643.5,205.8 680.0,197.1" fill="none" stroke="#bbb" stroke-width="0.6" opacity="0.6"/>
<polyline points="60.0,260.6 96.5,263.1 132.9,258.1 169.4,258.8 205.9,252.9 242.4,249.9 278.8,253.2 315.3,252.0 351.8,249.2 388.2,249.2 424.7,243.9 461.2,244.4 497.6,243.9 534.1,246.6 570.6,242.3 607.1,241.4 643.5,239.8 680.0,239.5" fill="none" stroke="#bbb" stroke-width="0.6" opacity="0.6"/>
<polyline points="60.0,273.9 96.5,266.4 132.9,265.5 169.4,265.6 205.9,259.3 242.4,265.1 278.8,265.9 315.3,248.1 351.8,265.4 388.2,251.2 424.7,245.1 461.2,249.3 497.6,252.6 534.1,251.3 570.6,248.5 607.1,241.0 643.5,232.5 680.0,238.2" fill="none" stroke="#bbb" stroke-width="0.6" opacity="0.6"/>
<polyline points="60.0,222.3 96.5,205.3 132.9,226.5 169.4,223.0 205.9,205.1 242.4,211.5 278.8,212.7 315.3,195.8 351.8,200.5 388.2,201.3 424.7,185.8 461.2,166.1 497.6,171.5 534.1,209.6 570.6,193.6 607.1,189.1 643.5,190.8 680.0,176.7" fill="none" stroke="#bbb" stroke-width="0.6" opacity="0.6"/>
<polyline points="60.0,174.4 96.5,187.9 132.9,147.2 169.4,161.9 205.9,165.8 242.4,165.1 278.8,131.4 315.3,159.5 351.8,181.7 388.2,148.7 424.7,164.3 461.2,138.5 497.6,119.9 534.1,108.3 570.6,81.9 607.1,62.7 643.5,129.4 680.0,106.8" fill="none" stroke="#bbb" stroke-width="0.6" opacity="0.6"/>
<polyline points="60.0,250.0 96.5,249.4 132.9,245.6 169.4,239.3 205.9,232.6 242.4,223.3 278.8,227.4 315.3,225.1 351.8,225.7 388.2,217.8 424.7,211.1 461.2,221.2 497.6,217.3 534.1,217.2 570.6,208.1 607.1,202.0 643.5,204.4 680.0,196.8" fill="none" stroke="#1f3a5f" stroke-width="2" stroke-dasharray="6 4"/>
<polyline points="60.0,256.4 96.5,256.1 132.9,254.2 169.4,226.4 205.9,214.1 242.4,206.9 278.8,243.8 315.3,227.2 351.8,227.2 388.2,227.1 424.7,208.4 461.2,221.2 497.6,206.9 534.1,226.8 570.6,208.1 607.1,203.9 643.5,213.0 680.0,214.9" fill="none" stroke="#b9461a" stroke-width="2.4"/>
<line x1="479.4" y1="50" x2="479.4" y2="330" stroke="#1f2024" stroke-width="0.8" stroke-dasharray="4 3"/>
<text x="479.4" y="45" text-anchor="middle" fill="#1f2024" font-size="10">adoption (2018)</text>
<line x1="60" y1="330" x2="680" y2="330" stroke="#444"/>
<line x1="60" y1="50" x2="60" y2="330" stroke="#444"/>
<line x1="60.0" y1="330" x2="60.0" y2="334" stroke="#444"/>
<text x="60.0" y="348" text-anchor="middle" fill="#444">2006</text>
<line x1="132.9" y1="330" x2="132.9" y2="334" stroke="#444"/>
<text x="132.9" y="348" text-anchor="middle" fill="#444">2008</text>
<line x1="205.9" y1="330" x2="205.9" y2="334" stroke="#444"/>
<text x="205.9" y="348" text-anchor="middle" fill="#444">2010</text>
<line x1="278.8" y1="330" x2="278.8" y2="334" stroke="#444"/>
<text x="278.8" y="348" text-anchor="middle" fill="#444">2012</text>
<line x1="351.8" y1="330" x2="351.8" y2="334" stroke="#444"/>
<text x="351.8" y="348" text-anchor="middle" fill="#444">2014</text>
<line x1="424.7" y1="330" x2="424.7" y2="334" stroke="#444"/>
<text x="424.7" y="348" text-anchor="middle" fill="#444">2016</text>
<line x1="497.6" y1="330" x2="497.6" y2="334" stroke="#444"/>
<text x="497.6" y="348" text-anchor="middle" fill="#444">2018</text>
<line x1="570.6" y1="330" x2="570.6" y2="334" stroke="#444"/>
<text x="570.6" y="348" text-anchor="middle" fill="#444">2020</text>
<line x1="643.5" y1="330" x2="643.5" y2="334" stroke="#444"/>
<text x="643.5" y="348" text-anchor="middle" fill="#444">2022</text>
<line x1="56" y1="330.0" x2="60" y2="330.0" stroke="#444"/>
<text x="53" y="333.0" text-anchor="end" fill="#444">0.53</text>
<line x1="56" y1="260.0" x2="60" y2="260.0" stroke="#444"/>
<text x="53" y="263.0" text-anchor="end" fill="#444">6.6</text>
<line x1="56" y1="190.0" x2="60" y2="190.0" stroke="#444"/>
<text x="53" y="193.0" text-anchor="end" fill="#444">13</text>
<line x1="56" y1="120.0" x2="60" y2="120.0" stroke="#444"/>
<text x="53" y="123.0" text-anchor="end" fill="#444">19</text>
<line x1="56" y1="50.0" x2="60" y2="50.0" stroke="#444"/>
<text x="53" y="53.0" text-anchor="end" fill="#444">25</text>
<rect x="520" y="60" width="190" height="60" fill="white" stroke="#e2e2dc"/>
<line x1="530" y1="75" x2="560" y2="75" stroke="#b9461a" stroke-width="2.4"/>
<text x="565" y="79" font-size="11">Vermont (treated)</text>
<line x1="530" y1="95" x2="560" y2="95" stroke="#1f3a5f" stroke-width="2" stroke-dasharray="6 4"/>
<text x="565" y="99" font-size="11">Synthetic counterfactual</text>
<line x1="530" y1="112" x2="560" y2="112" stroke="#bbb" stroke-width="0.6"/>
<text x="565" y="116" font-size="10">Donor states (gray)</text>
</svg>