<svg xmlns="http://www.w3.org/2000/svg" viewBox="0 0 720 380" font-family="-apple-system, Segoe UI, Helvetica, Arial, sans-serif" font-size="12">
<rect x="0" y="0" width="720" height="380" fill="#fafaf7"/>
<text x="360.0" y="22" text-anchor="middle" font-size="14" font-weight="600">Vermont (2018): Motor vehicle theft rate (per 100k) [placebo]</text>
<polyline points="60.0,232.9 96.5,238.3 132.9,267.1 169.4,266.0 205.9,269.6 242.4,278.0 278.8,274.0 315.3,268.8 351.8,267.4 388.2,257.3 424.7,224.7 461.2,185.4 497.6,193.0 534.1,238.2 570.6,259.3 607.1,265.5 643.5,264.5 680.0,259.2" fill="none" stroke="#bbb" stroke-width="0.6" opacity="0.6"/>
<polyline points="60.0,245.5 96.5,250.0 132.9,254.6 169.4,267.5 205.9,269.9 242.4,270.7 278.8,274.9 315.3,271.6 351.8,273.8 388.2,272.9 424.7,266.1 461.2,260.9 497.6,258.7 534.1,261.9 570.6,270.7 607.1,277.9 643.5,271.2 680.0,270.9" fill="none" stroke="#bbb" stroke-width="0.6" opacity="0.6"/>
<polyline points="60.0,259.8 96.5,264.7 132.9,269.0 169.4,273.4 205.9,278.4 242.4,276.9 278.8,277.4 315.3,278.0 351.8,278.5 388.2,277.2 424.7,266.3 461.2,266.0 497.6,265.7 534.1,264.5 570.6,261.1 607.1,256.7 643.5,263.4 680.0,271.6" fill="none" stroke="#bbb" stroke-width="0.6" opacity="0.6"/>
<polyline points="60.0,102.3 96.5,132.7 132.9,180.9 169.4,227.5 205.9,242.5 242.4,250.4 278.8,254.3 315.3,262.6 351.8,262.2 388.2,264.9 424.7,259.7 461.2,259.1 497.6,259.7 534.1,264.6 570.6,266.0 607.1,265.8 643.5,263.8 680.0,253.4" fill="none" stroke="#bbb" stroke-width="0.6" opacity="0.6"/>
<polyline points="60.0,222.2 96.5,226.9 132.9,240.6 169.4,258.9 205.9,271.2 242.4,274.2 278.8,277.7 315.3,281.3 351.8,280.4 388.2,275.8 424.7,273.9 461.2,274.9 497.6,277.6 534.1,280.4 570.6,281.8 607.1,300.5 643.5,292.7 680.0,291.4" fill="none" stroke="#bbb" stroke-width="0.6" opacity="0.6"/>
<polyline points="60.0,213.0 96.5,216.7 132.9,225.4 169.4,242.8 205.9,248.9 242.4,251.3 278.8,254.7 315.3,258.7 351.8,257.9 388.2,260.0 424.7,262.4 461.2,264.0 497.6,266.1 534.1,273.2 570.6,266.8 607.1,278.0 643.5,273.9 680.0,261.9" fill="none" stroke="#bbb" stroke-width="0.6" opacity="0.6"/>
<polyline points="60.0,178.8 96.5,206.0 132.9,228.4 169.4,233.7 205.9,230.8 242.4,246.0 278.8,257.2 315.3,246.1 351.8,229.9 388.2,232.5 424.7,231.3 461.2,235.0 497.6,227.1 534.1,235.5 570.6,232.6 607.1,219.2 643.5,224.3 680.0,226.4" fill="none" stroke="#bbb" stroke-width="0.6" opacity="0.6"/>
<polyline points="60.0,283.5 96.5,284.4 132.9,289.2 169.4,293.0 205.9,294.3 242.4,292.9 278.8,292.6 315.3,291.1 351.8,292.2 388.2,290.5 424.7,285.8 461.2,282.1 497.6,285.3 534.1,281.9 570.6,276.8 607.1,278.6 643.5,284.9 680.0,284.5" fill="none" stroke="#bbb" stroke-width="0.6" opacity="0.6"/>
<polyline points="60.0,284.2 96.5,287.9 132.9,298.1 169.4,301.4 205.9,304.0 242.4,304.1 278.8,303.5 315.3,301.4 351.8,299.6 388.2,297.0 424.7,294.5 461.2,294.2 497.6,297.4 534.1,302.7 570.6,301.0 607.1,302.5 643.5,302.1 680.0,305.7" fill="none" stroke="#bbb" stroke-width="0.6" opacity="0.6"/>
<polyline points="60.0,241.7 96.5,250.5 132.9,258.1 169.4,272.3 205.9,274.1 242.4,269.4 278.8,274.0 315.3,272.2 351.8,273.6 388.2,274.9 424.7,271.8 461.2,270.9 497.6,269.5 534.1,275.0 570.6,269.2 607.1,273.7 643.5,276.6 680.0,267.7" fill="none" stroke="#bbb" stroke-width="0.6" opacity="0.6"/>
<polyline points="60.0,248.1 96.5,249.5 132.9,260.5 169.4,273.3 205.9,273.5 242.4,268.1 278.8,267.6 315.3,268.7 351.8,266.6 388.2,266.1 424.7,262.7 461.2,263.0 497.6,258.5 534.1,267.2 570.6,264.4 607.1,259.6 643.5,266.4 680.0,256.1" fill="none" stroke="#bbb" stroke-width="0.6" opacity="0.6"/>
<polyline points="60.0,270.6 96.5,274.9 132.9,281.0 169.4,290.2 205.9,289.7 242.4,287.3 278.8,287.3 315.3,291.1 351.8,289.5 388.2,281.4 424.7,270.2 461.2,268.2 497.6,267.7 534.1,268.8 570.6,262.3 607.1,265.2 643.5,270.0 680.0,255.5" fill="none" stroke="#bbb" stroke-width="0.6" opacity="0.6"/>
<polyline points="60.0,236.1 96.5,238.3 132.9,250.1 169.4,262.0 205.9,271.4 242.4,276.2 278.8,283.0 315.3,276.5 351.8,275.5 388.2,274.0 424.7,271.1 461.2,267.0 497.6,264.0 534.1,268.0 570.6,259.9 607.1,256.0 643.5,249.1 680.0,232.0" fill="none" stroke="#bbb" stroke-width="0.6" opacity="0.6"/>
<polyline points="60.0,299.8 96.5,301.0 132.9,302.8 169.4,305.7 205.9,306.4 242.4,304.8 278.8,306.4 315.3,307.8 351.8,309.9 388.2,309.6 424.7,310.3 461.2,310.0 497.6,310.4 534.1,311.4 570.6,309.0 607.1,308.7 643.5,307.0 680.0,305.1" fill="none" stroke="#bbb" stroke-width="0.6" opacity="0.6"/>
<polyline points="60.0,204.4 96.5,223.6 132.9,238.0 169.4,253.2 205.9,257.3 242.4,263.4 278.8,263.0 315.3,265.6 351.8,272.7 388.2,278.6 424.7,275.1 461.2,276.9 497.6,282.1 534.1,281.2 570.6,279.8 607.1,272.3 643.5,259.4 680.0,256.4" fill="none" stroke="#bbb" stroke-width="0.6" opacity="0.6"/>
<polyline points="60.0,262.3 96.5,265.6 132.9,277.2 169.4,285.2 205.9,285.3 242.4,287.6 278.8,286.4 315.3,288.9 351.8,287.3 388.2,289.2 424.7,286.2 461.2,281.0 497.6,280.7 534.1,276.1 570.6,263.9 607.1,263.6 643.5,254.5 680.0,259.9" fill="none" stroke="#bbb" stroke-width="0.6" opacity="0.6"/>
<polyline points="60.0,219.3 96.5,226.1 132.9,239.5 169.4,254.0 205.9,259.3 242.4,262.7 278.8,258.9 315.3,259.0 351.8,259.1 388.2,256.7 424.7,251.8 461.2,245.5 497.6,246.0 534.1,240.6 570.6,229.3 607.1,228.9 643.5,205.8 680.0,205.9" fill="none" stroke="#bbb" stroke-width="0.6" opacity="0.6"/>
<polyline points="60.0,255.2 96.5,264.8 132.9,273.0 169.4,279.9 205.9,280.8 242.4,284.6 278.8,289.4 315.3,289.0 351.8,288.3 388.2,289.9 424.7,289.5 461.2,289.3 497.6,282.7 534.1,278.0 570.6,274.8 607.1,278.1 643.5,282.3 680.0,278.3" fill="none" stroke="#bbb" stroke-width="0.6" opacity="0.6"/>
<polyline points="60.0,274.6 96.5,272.8 132.9,280.0 169.4,284.4 205.9,286.6 242.4,289.3 278.8,283.6 315.3,279.6 351.8,275.7 388.2,267.6 424.7,260.1 461.2,264.8 497.6,260.2 534.1,269.9 570.6,264.5 607.1,258.0 643.5,269.7 680.0,277.9" fill="none" stroke="#bbb" stroke-width="0.6" opacity="0.6"/>
<polyline points="60.0,242.2 96.5,249.8 132.9,254.3 169.4,273.0 205.9,278.1 242.4,282.3 278.8,284.4 315.3,289.0 351.8,291.3 388.2,292.1 424.7,288.0 461.2,286.5 497.6,286.0 534.1,281.2 570.6,277.6 607.1,278.9 643.5,276.3 680.0,260.8" fill="none" stroke="#bbb" stroke-width="0.6" opacity="0.6"/>
<polyline points="60.0,283.1 96.5,287.3 132.9,290.1 169.4,290.3 205.9,293.1 242.4,289.6 278.8,283.7 315.3,276.5 351.8,273.9 388.2,269.0 424.7,261.9 461.2,268.0 497.6,267.3 534.1,266.2 570.6,258.9 607.1,256.7 643.5,262.2 680.0,270.8" fill="none" stroke="#bbb" stroke-width="0.6" opacity="0.6"/>
<polyline points="60.0,253.8 96.5,252.9 132.9,267.1 169.4,277.2 205.9,276.7 242.4,270.5 278.8,270.2 315.3,266.7 351.8,266.3 388.2,273.3 424.7,264.5 461.2,257.8 497.6,262.9 534.1,262.2 570.6,261.4 607.1,267.7 643.5,257.8 680.0,223.8" fill="none" stroke="#bbb" stroke-width="0.6" opacity="0.6"/>
<polyline points="60.0,297.1 96.5,298.5 132.9,298.6 169.4,303.8 205.9,306.1 242.4,304.0 278.8,305.0 315.3,307.3 351.8,308.8 388.2,308.1 424.7,308.5 461.2,308.1 497.6,308.4 534.1,307.7 570.6,305.9 607.1,307.1 643.5,308.0 680.0,308.9" fill="none" stroke="#bbb" stroke-width="0.6" opacity="0.6"/>
<polyline points="60.0,210.2 96.5,215.1 132.9,226.7 169.4,246.2 205.9,263.0 242.4,261.6 278.8,261.0 315.3,255.1 351.8,251.5 388.2,223.9 424.7,188.3 461.2,189.2 497.6,208.5 534.1,216.7 570.6,221.0 607.1,208.3 643.5,193.9 680.0,199.0" fill="none" stroke="#bbb" stroke-width="0.6" opacity="0.6"/>
<polyline points="60.0,62.7 96.5,113.6 132.9,176.2 169.4,211.0 205.9,233.3 242.4,239.3 278.8,236.5 315.3,237.8 351.8,237.6 388.2,229.2 424.7,216.2 461.2,220.2 497.6,229.2 534.1,236.2 570.6,243.1 607.1,219.9 643.5,205.2 680.0,159.6" fill="none" stroke="#bbb" stroke-width="0.6" opacity="0.6"/>
<polyline points="60.0,244.4 96.5,252.8 132.9,264.5 169.4,276.9 205.9,280.1 242.4,280.6 278.8,283.1 315.3,283.6 351.8,286.7 388.2,288.2 424.7,283.3 461.2,281.5 497.6,283.1 534.1,285.8 570.6,282.9 607.1,280.2 643.5,267.2 680.0,258.3" fill="none" stroke="#bbb" stroke-width="0.6" opacity="0.6"/>
<polyline points="60.0,233.6 96.5,233.5 132.9,251.2 169.4,255.8 205.9,258.1 242.4,253.5 278.8,250.0 315.3,253.6 351.8,257.3 388.2,258.9 424.7,248.7 461.2,248.7 497.6,242.1 534.1,242.1 570.6,233.0 607.1,230.9 643.5,248.1 680.0,260.3" fill="none" stroke="#bbb" stroke-width="0.6" opacity="0.6"/>
<polyline points="60.0,228.8 96.5,230.0 132.9,251.8 169.4,261.3 205.9,266.9 242.4,267.5 278.8,260.8 315.3,263.4 351.8,261.8 388.2,260.1 424.7,245.8 461.2,225.2 497.6,227.9 534.1,235.4 570.6,229.9 607.1,210.2 643.5,191.9 680.0,224.4" fill="none" stroke="#bbb" stroke-width="0.6" opacity="0.6"/>
<polyline points="60.0,266.7 96.5,272.8 132.9,280.7 169.4,290.2 205.9,292.6 242.4,292.4 278.8,295.8 315.3,298.4 351.8,299.7 388.2,301.5 424.7,299.7 461.2,299.9 497.6,299.6 534.1,301.0 570.6,295.1 607.1,292.3 643.5,284.5 680.0,260.6" fill="none" stroke="#bbb" stroke-width="0.6" opacity="0.6"/>
<polyline points="60.0,231.0 96.5,230.6 132.9,229.0 169.4,252.2 205.9,255.1 242.4,253.9 278.8,255.4 315.3,260.6 351.8,259.6 388.2,259.6 424.7,256.5 461.2,255.7 497.6,253.3 534.1,253.3 570.6,256.2 607.1,255.5 643.5,263.3 680.0,262.8" fill="none" stroke="#bbb" stroke-width="0.6" opacity="0.6"/>
<polyline points="60.0,298.6 96.5,300.6 132.9,296.8 169.4,298.6 205.9,300.7 242.4,296.5 278.8,293.3 315.3,297.6 351.8,295.8 388.2,290.8 424.7,282.3 461.2,283.8 497.6,284.5 534.1,276.5 570.6,261.7 607.1,267.9 643.5,265.9 680.0,265.1" fill="none" stroke="#bbb" stroke-width="0.6" opacity="0.6"/>
<polyline points="60.0,233.7 96.5,239.1 132.9,249.7 169.4,266.7 205.9,268.0 242.4,271.0 278.8,275.9 315.3,280.1 351.8,277.7 388.2,276.6 424.7,269.0 461.2,257.5 497.6,250.7 534.1,256.1 570.6,250.3 607.1,252.5 643.5,235.6 680.0,215.0" fill="none" stroke="#bbb" stroke-width="0.6" opacity="0.6"/>
<polyline points="60.0,226.3 96.5,229.3 132.9,239.5 169.4,249.7 205.9,259.3 242.4,264.1 278.8,264.1 315.3,264.4 351.8,263.1 388.2,264.9 424.7,264.6 461.2,266.4 497.6,265.3 534.1,259.1 570.6,255.0 607.1,251.3 643.5,244.1 680.0,225.9" fill="none" stroke="#bbb" stroke-width="0.6" opacity="0.6"/>
<polyline points="60.0,245.0 96.5,242.9 132.9,259.8 169.4,264.2 205.9,272.3 242.4,271.3 278.8,273.3 315.3,262.0 351.8,264.2 388.2,253.8 424.7,250.1 461.2,250.6 497.6,264.5 534.1,273.6 570.6,247.9 607.1,262.3 643.5,274.0 680.0,288.8" fill="none" stroke="#bbb" stroke-width="0.6" opacity="0.6"/>
<polyline points="60.0,277.6 96.5,280.2 132.9,282.9 169.4,288.6 205.9,292.4 242.4,295.3 278.8,297.4 315.3,299.2 351.8,302.0 388.2,300.7 424.7,296.1 461.2,295.3 497.6,293.8 534.1,295.3 570.6,293.9 607.1,292.4 643.5,285.2 680.0,282.4" fill="none" stroke="#bbb" stroke-width="0.6" opacity="0.6"/>
<polyline points="60.0,263.4 96.5,266.3 132.9,274.8 169.4,286.2 205.9,289.8 242.4,289.4 278.8,289.6 315.3,293.3 351.8,282.8 388.2,278.3 424.7,282.7 461.2,284.9 497.6,288.3 534.1,293.1 570.6,285.5 607.1,248.5 643.5,269.6 680.0,283.1" fill="none" stroke="#bbb" stroke-width="0.6" opacity="0.6"/>
<polyline points="60.0,270.5 96.5,278.0 132.9,282.2 169.4,287.8 205.9,292.9 242.4,296.9 278.8,295.3 315.3,298.8 351.8,298.8 388.2,295.0 424.7,291.4 461.2,283.3 497.6,295.1 534.1,294.5 570.6,293.6 607.1,297.6 643.5,301.6 680.0,302.2" fill="none" stroke="#bbb" stroke-width="0.6" opacity="0.6"/>
<polyline points="60.0,286.7 96.5,286.8 132.9,291.1 169.4,290.8 205.9,299.1 242.4,302.2 278.8,299.9 315.3,300.4 351.8,299.5 388.2,300.0 424.7,291.3 461.2,292.6 497.6,291.6 534.1,294.3 570.6,284.4 607.1,270.3 643.5,285.2 680.0,292.3" fill="none" stroke="#bbb" stroke-width="0.6" opacity="0.6"/>
<polyline points="60.0,247.9 96.5,252.4 132.9,263.4 169.4,272.5 205.9,276.8 242.4,277.9 278.8,277.5 315.3,278.1 351.8,277.6 388.2,274.9 424.7,267.5 461.2,262.3 497.6,263.6 534.1,266.7 570.6,262.2 607.1,262.7 643.5,259.3 680.0,258.9" fill="none" stroke="#1f3a5f" stroke-width="2" stroke-dasharray="6 4"/>
<polyline points="60.0,300.4 96.5,299.1 132.9,301.6 169.4,306.9 205.9,307.5 242.4,304.0 278.8,306.6 315.3,311.4 351.8,314.6 388.2,316.8 424.7,317.3 461.2,315.7 497.6,314.2 534.1,312.6 570.6,314.2 607.1,306.5 643.5,300.9 680.0,302.0" fill="none" stroke="#b9461a" stroke-width="2.4"/>
<line x1="479.4" y1="50" x2="479.4" y2="330" stroke="#1f2024" stroke-width="0.8" stroke-dasharray="4 3"/>
<text x="479.4" y="45" text-anchor="middle" fill="#1f2024" font-size="10">adoption (2018)</text>
<line x1="60" y1="330" x2="680" y2="330" stroke="#444"/>
<line x1="60" y1="50" x2="60" y2="330" stroke="#444"/>
<line x1="60.0" y1="330" x2="60.0" y2="334" stroke="#444"/>
<text x="60.0" y="348" text-anchor="middle" fill="#444">2006</text>
<line x1="132.9" y1="330" x2="132.9" y2="334" stroke="#444"/>
<text x="132.9" y="348" text-anchor="middle" fill="#444">2008</text>
<line x1="205.9" y1="330" x2="205.9" y2="334" stroke="#444"/>
<text x="205.9" y="348" text-anchor="middle" fill="#444">2010</text>
<line x1="278.8" y1="330" x2="278.8" y2="334" stroke="#444"/>
<text x="278.8" y="348" text-anchor="middle" fill="#444">2012</text>
<line x1="351.8" y1="330" x2="351.8" y2="334" stroke="#444"/>
<text x="351.8" y="348" text-anchor="middle" fill="#444">2014</text>
<line x1="424.7" y1="330" x2="424.7" y2="334" stroke="#444"/>
<text x="424.7" y="348" text-anchor="middle" fill="#444">2016</text>
<line x1="497.6" y1="330" x2="497.6" y2="334" stroke="#444"/>
<text x="497.6" y="348" text-anchor="middle" fill="#444">2018</text>
<line x1="570.6" y1="330" x2="570.6" y2="334" stroke="#444"/>
<text x="570.6" y="348" text-anchor="middle" fill="#444">2020</text>
<line x1="643.5" y1="330" x2="643.5" y2="334" stroke="#444"/>
<text x="643.5" y="348" text-anchor="middle" fill="#444">2022</text>
<line x1="56" y1="330.0" x2="60" y2="330.0" stroke="#444"/>
<text x="53" y="333.0" text-anchor="end" fill="#444">-23</text>
<line x1="56" y1="260.0" x2="60" y2="260.0" stroke="#444"/>
<text x="53" y="263.0" text-anchor="end" fill="#444">2.7e+02</text>
<line x1="56" y1="190.0" x2="60" y2="190.0" stroke="#444"/>
<text x="53" y="193.0" text-anchor="end" fill="#444">5.6e+02</text>
<line x1="56" y1="120.0" x2="60" y2="120.0" stroke="#444"/>
<text x="53" y="123.0" text-anchor="end" fill="#444">8.5e+02</text>
<line x1="56" y1="50.0" x2="60" y2="50.0" stroke="#444"/>
<text x="53" y="53.0" text-anchor="end" fill="#444">1.1e+03</text>
<rect x="520" y="60" width="190" height="60" fill="white" stroke="#e2e2dc"/>
<line x1="530" y1="75" x2="560" y2="75" stroke="#b9461a" stroke-width="2.4"/>
<text x="565" y="79" font-size="11">Vermont (treated)</text>
<line x1="530" y1="95" x2="560" y2="95" stroke="#1f3a5f" stroke-width="2" stroke-dasharray="6 4"/>
<text x="565" y="99" font-size="11">Synthetic counterfactual</text>
<line x1="530" y1="112" x2="560" y2="112" stroke="#bbb" stroke-width="0.6"/>
<text x="565" y="116" font-size="10">Donor states (gray)</text>
</svg>