<svg xmlns="http://www.w3.org/2000/svg" viewBox="0 0 820 620" font-family="-apple-system, Segoe UI, Helvetica, Arial, sans-serif" font-size="11">
<text x="410.0" y="22" text-anchor="middle" font-size="14" font-weight="600">Spatial RDD event study (ubc, secondary outcomes)</text>
<rect x="15" y="40" width="380" height="260" fill="#fafaf7" stroke="#e2e2dc"/>
<text x="205.0" y="58" text-anchor="middle" font-weight="600">State firearm suicide rate (per 100,000)</text>
<line x1="75" y1="144.2439170139839" x2="377" y2="144.2439170139839" stroke="#aaaaaa" stroke-width="0.7"/>
<polygon points="88.7,99.6 116.2,93.1 143.6,114.4 171.1,102.9 198.5,144.2 226.0,99.9 253.5,96.4 280.9,147.0 308.4,90.0 335.8,129.1 363.3,120.5 363.3,210.1 335.8,209.0 308.4,203.7 280.9,212.8 253.5,176.1 226.0,156.1 198.5,144.2 171.1,212.9 143.6,250.0 116.2,182.3 88.7,170.9" fill="#1f3a5f" opacity="0.18"/>
<polyline points="88.7,135.3 116.2,137.7 143.6,182.2 171.1,157.9 198.5,144.2 226.0,128.0 253.5,136.3 280.9,179.9 308.4,146.9 335.8,169.1 363.3,165.3" fill="none" stroke="#1f3a5f" stroke-width="1.6"/>
<circle cx="88.7" cy="135.3" r="2.6" fill="#1f3a5f"/>
<circle cx="116.2" cy="137.7" r="2.6" fill="#1f3a5f"/>
<circle cx="143.6" cy="182.2" r="2.6" fill="#1f3a5f"/>
<circle cx="171.1" cy="157.9" r="2.6" fill="#1f3a5f"/>
<circle cx="198.5" cy="144.2" r="2.6" fill="#1f3a5f"/>
<circle cx="226.0" cy="128.0" r="2.6" fill="#1f3a5f"/>
<circle cx="253.5" cy="136.3" r="2.6" fill="#1f3a5f"/>
<circle cx="280.9" cy="179.9" r="2.6" fill="#1f3a5f"/>
<circle cx="308.4" cy="146.9" r="2.6" fill="#1f3a5f"/>
<circle cx="335.8" cy="169.1" r="2.6" fill="#1f3a5f"/>
<circle cx="363.3" cy="165.3" r="2.6" fill="#1f3a5f"/>
<line x1="212.3" y1="90" x2="212.3" y2="250" stroke="#b9461a" stroke-dasharray="3 3"/>
<line x1="75" y1="250" x2="377" y2="250" stroke="#444"/>
<line x1="75" y1="90" x2="75" y2="250" stroke="#444"/>
<line x1="88.7" y1="250" x2="88.7" y2="253" stroke="#444"/>
<text x="88.7" y="265" text-anchor="middle" fill="#444">-5</text>
<line x1="116.2" y1="250" x2="116.2" y2="253" stroke="#444"/>
<text x="116.2" y="265" text-anchor="middle" fill="#444">-4</text>
<line x1="143.6" y1="250" x2="143.6" y2="253" stroke="#444"/>
<text x="143.6" y="265" text-anchor="middle" fill="#444">-3</text>
<line x1="171.1" y1="250" x2="171.1" y2="253" stroke="#444"/>
<text x="171.1" y="265" text-anchor="middle" fill="#444">-2</text>
<line x1="198.5" y1="250" x2="198.5" y2="253" stroke="#444"/>
<text x="198.5" y="265" text-anchor="middle" fill="#444">-1</text>
<line x1="226.0" y1="250" x2="226.0" y2="253" stroke="#444"/>
<text x="226.0" y="265" text-anchor="middle" fill="#444">0</text>
<line x1="253.5" y1="250" x2="253.5" y2="253" stroke="#444"/>
<text x="253.5" y="265" text-anchor="middle" fill="#444">1</text>
<line x1="280.9" y1="250" x2="280.9" y2="253" stroke="#444"/>
<text x="280.9" y="265" text-anchor="middle" fill="#444">2</text>
<line x1="308.4" y1="250" x2="308.4" y2="253" stroke="#444"/>
<text x="308.4" y="265" text-anchor="middle" fill="#444">3</text>
<line x1="335.8" y1="250" x2="335.8" y2="253" stroke="#444"/>
<text x="335.8" y="265" text-anchor="middle" fill="#444">4</text>
<line x1="363.3" y1="250" x2="363.3" y2="253" stroke="#444"/>
<text x="363.3" y="265" text-anchor="middle" fill="#444">5</text>
<line x1="72" y1="250.0" x2="75" y2="250.0" stroke="#444"/>
<text x="69" y="253.0" text-anchor="end" fill="#444">-0.58</text>
<line x1="72" y1="210.0" x2="75" y2="210.0" stroke="#444"/>
<text x="69" y="213.0" text-anchor="end" fill="#444">-0.36</text>
<line x1="72" y1="170.0" x2="75" y2="170.0" stroke="#444"/>
<text x="69" y="173.0" text-anchor="end" fill="#444">-0.14</text>
<line x1="72" y1="130.0" x2="75" y2="130.0" stroke="#444"/>
<text x="69" y="133.0" text-anchor="end" fill="#444">0.078</text>
<line x1="72" y1="90.0" x2="75" y2="90.0" stroke="#444"/>
<text x="69" y="93.0" text-anchor="end" fill="#444">0.3</text>
<text x="226.0" y="284" text-anchor="middle" fill="#444">Event time (years from adoption)</text>
<text x="27" y="170.0" text-anchor="middle" fill="#444" transform="rotate(-90 27 170.0)">Coefficient (per 100k)</text>
<rect x="425" y="40" width="380" height="260" fill="#fafaf7" stroke="#e2e2dc"/>
<text x="615.0" y="58" text-anchor="middle" font-weight="600">State total suicide rate (per 100,000)</text>
<line x1="485" y1="169.61026622416085" x2="787" y2="169.61026622416085" stroke="#aaaaaa" stroke-width="0.7"/>
<polygon points="498.7,159.3 526.2,90.0 553.6,142.0 581.1,146.1 608.5,169.6 636.0,141.9 663.5,160.6 690.9,187.3 718.4,129.3 745.8,148.6 773.3,163.8 773.3,238.7 745.8,238.5 718.4,195.2 690.9,237.8 663.5,230.6 636.0,187.3 608.5,169.6 581.1,209.3 553.6,250.0 526.2,170.0 498.7,209.5" fill="#1f3a5f" opacity="0.18"/>
<polyline points="498.7,184.4 526.2,130.0 553.6,196.0 581.1,177.7 608.5,169.6 636.0,164.6 663.5,195.6 690.9,212.6 718.4,162.2 745.8,193.5 773.3,201.3" fill="none" stroke="#1f3a5f" stroke-width="1.6"/>
<circle cx="498.7" cy="184.4" r="2.6" fill="#1f3a5f"/>
<circle cx="526.2" cy="130.0" r="2.6" fill="#1f3a5f"/>
<circle cx="553.6" cy="196.0" r="2.6" fill="#1f3a5f"/>
<circle cx="581.1" cy="177.7" r="2.6" fill="#1f3a5f"/>
<circle cx="608.5" cy="169.6" r="2.6" fill="#1f3a5f"/>
<circle cx="636.0" cy="164.6" r="2.6" fill="#1f3a5f"/>
<circle cx="663.5" cy="195.6" r="2.6" fill="#1f3a5f"/>
<circle cx="690.9" cy="212.6" r="2.6" fill="#1f3a5f"/>
<circle cx="718.4" cy="162.2" r="2.6" fill="#1f3a5f"/>
<circle cx="745.8" cy="193.5" r="2.6" fill="#1f3a5f"/>
<circle cx="773.3" cy="201.3" r="2.6" fill="#1f3a5f"/>
<line x1="622.3" y1="90" x2="622.3" y2="250" stroke="#b9461a" stroke-dasharray="3 3"/>
<line x1="485" y1="250" x2="787" y2="250" stroke="#444"/>
<line x1="485" y1="90" x2="485" y2="250" stroke="#444"/>
<line x1="498.7" y1="250" x2="498.7" y2="253" stroke="#444"/>
<text x="498.7" y="265" text-anchor="middle" fill="#444">-5</text>
<line x1="526.2" y1="250" x2="526.2" y2="253" stroke="#444"/>
<text x="526.2" y="265" text-anchor="middle" fill="#444">-4</text>
<line x1="553.6" y1="250" x2="553.6" y2="253" stroke="#444"/>
<text x="553.6" y="265" text-anchor="middle" fill="#444">-3</text>
<line x1="581.1" y1="250" x2="581.1" y2="253" stroke="#444"/>
<text x="581.1" y="265" text-anchor="middle" fill="#444">-2</text>
<line x1="608.5" y1="250" x2="608.5" y2="253" stroke="#444"/>
<text x="608.5" y="265" text-anchor="middle" fill="#444">-1</text>
<line x1="636.0" y1="250" x2="636.0" y2="253" stroke="#444"/>
<text x="636.0" y="265" text-anchor="middle" fill="#444">0</text>
<line x1="663.5" y1="250" x2="663.5" y2="253" stroke="#444"/>
<text x="663.5" y="265" text-anchor="middle" fill="#444">1</text>
<line x1="690.9" y1="250" x2="690.9" y2="253" stroke="#444"/>
<text x="690.9" y="265" text-anchor="middle" fill="#444">2</text>
<line x1="718.4" y1="250" x2="718.4" y2="253" stroke="#444"/>
<text x="718.4" y="265" text-anchor="middle" fill="#444">3</text>
<line x1="745.8" y1="250" x2="745.8" y2="253" stroke="#444"/>
<text x="745.8" y="265" text-anchor="middle" fill="#444">4</text>
<line x1="773.3" y1="250" x2="773.3" y2="253" stroke="#444"/>
<text x="773.3" y="265" text-anchor="middle" fill="#444">5</text>
<line x1="482" y1="250.0" x2="485" y2="250.0" stroke="#444"/>
<text x="479" y="253.0" text-anchor="end" fill="#444">-0.77</text>
<line x1="482" y1="210.0" x2="485" y2="210.0" stroke="#444"/>
<text x="479" y="213.0" text-anchor="end" fill="#444">-0.39</text>
<line x1="482" y1="170.0" x2="485" y2="170.0" stroke="#444"/>
<text x="479" y="173.0" text-anchor="end" fill="#444">-0.0037</text>
<line x1="482" y1="130.0" x2="485" y2="130.0" stroke="#444"/>
<text x="479" y="133.0" text-anchor="end" fill="#444">0.38</text>
<line x1="482" y1="90.0" x2="485" y2="90.0" stroke="#444"/>
<text x="479" y="93.0" text-anchor="end" fill="#444">0.76</text>
<text x="636.0" y="284" text-anchor="middle" fill="#444">Event time (years from adoption)</text>
<text x="437" y="170.0" text-anchor="middle" fill="#444" transform="rotate(-90 437 170.0)">Coefficient (per 100k)</text>
<rect x="15" y="330" width="380" height="260" fill="#fafaf7" stroke="#e2e2dc"/>
<text x="205.0" y="348" text-anchor="middle" font-weight="600">State non-firearm suicide rate (per 100,000) [substitution]</text>
<line x1="75" y1="462.2513592491202" x2="377" y2="462.2513592491202" stroke="#aaaaaa" stroke-width="0.7"/>
<polygon points="88.7,460.8 116.2,380.0 143.6,432.4 171.1,431.3 198.5,462.3 226.0,443.4 253.5,463.7 280.9,469.5 308.4,413.3 335.8,439.3 363.3,455.2 363.3,520.0 335.8,510.2 308.4,488.2 280.9,513.4 253.5,540.0 226.0,492.4 198.5,462.3 171.1,493.8 143.6,504.0 116.2,451.6 88.7,515.4" fill="#1f3a5f" opacity="0.18"/>
<polyline points="88.7,488.1 116.2,415.8 143.6,468.2 171.1,462.5 198.5,462.3 226.0,467.9 253.5,501.9 280.9,491.4 308.4,450.7 335.8,474.7 363.3,487.6" fill="none" stroke="#1f3a5f" stroke-width="1.6"/>
<circle cx="88.7" cy="488.1" r="2.6" fill="#1f3a5f"/>
<circle cx="116.2" cy="415.8" r="2.6" fill="#1f3a5f"/>
<circle cx="143.6" cy="468.2" r="2.6" fill="#1f3a5f"/>
<circle cx="171.1" cy="462.5" r="2.6" fill="#1f3a5f"/>
<circle cx="198.5" cy="462.3" r="2.6" fill="#1f3a5f"/>
<circle cx="226.0" cy="467.9" r="2.6" fill="#1f3a5f"/>
<circle cx="253.5" cy="501.9" r="2.6" fill="#1f3a5f"/>
<circle cx="280.9" cy="491.4" r="2.6" fill="#1f3a5f"/>
<circle cx="308.4" cy="450.7" r="2.6" fill="#1f3a5f"/>
<circle cx="335.8" cy="474.7" r="2.6" fill="#1f3a5f"/>
<circle cx="363.3" cy="487.6" r="2.6" fill="#1f3a5f"/>
<line x1="212.3" y1="380" x2="212.3" y2="540" stroke="#b9461a" stroke-dasharray="3 3"/>
<line x1="75" y1="540" x2="377" y2="540" stroke="#444"/>
<line x1="75" y1="380" x2="75" y2="540" stroke="#444"/>
<line x1="88.7" y1="540" x2="88.7" y2="543" stroke="#444"/>
<text x="88.7" y="555" text-anchor="middle" fill="#444">-5</text>
<line x1="116.2" y1="540" x2="116.2" y2="543" stroke="#444"/>
<text x="116.2" y="555" text-anchor="middle" fill="#444">-4</text>
<line x1="143.6" y1="540" x2="143.6" y2="543" stroke="#444"/>
<text x="143.6" y="555" text-anchor="middle" fill="#444">-3</text>
<line x1="171.1" y1="540" x2="171.1" y2="543" stroke="#444"/>
<text x="171.1" y="555" text-anchor="middle" fill="#444">-2</text>
<line x1="198.5" y1="540" x2="198.5" y2="543" stroke="#444"/>
<text x="198.5" y="555" text-anchor="middle" fill="#444">-1</text>
<line x1="226.0" y1="540" x2="226.0" y2="543" stroke="#444"/>
<text x="226.0" y="555" text-anchor="middle" fill="#444">0</text>
<line x1="253.5" y1="540" x2="253.5" y2="543" stroke="#444"/>
<text x="253.5" y="555" text-anchor="middle" fill="#444">1</text>
<line x1="280.9" y1="540" x2="280.9" y2="543" stroke="#444"/>
<text x="280.9" y="555" text-anchor="middle" fill="#444">2</text>
<line x1="308.4" y1="540" x2="308.4" y2="543" stroke="#444"/>
<text x="308.4" y="555" text-anchor="middle" fill="#444">3</text>
<line x1="335.8" y1="540" x2="335.8" y2="543" stroke="#444"/>
<text x="335.8" y="555" text-anchor="middle" fill="#444">4</text>
<line x1="363.3" y1="540" x2="363.3" y2="543" stroke="#444"/>
<text x="363.3" y="555" text-anchor="middle" fill="#444">5</text>
<line x1="72" y1="540.0" x2="75" y2="540.0" stroke="#444"/>
<text x="69" y="543.0" text-anchor="end" fill="#444">-0.58</text>
<line x1="72" y1="500.0" x2="75" y2="500.0" stroke="#444"/>
<text x="69" y="503.0" text-anchor="end" fill="#444">-0.28</text>
<line x1="72" y1="460.0" x2="75" y2="460.0" stroke="#444"/>
<text x="69" y="463.0" text-anchor="end" fill="#444">0.017</text>
<line x1="72" y1="420.0" x2="75" y2="420.0" stroke="#444"/>
<text x="69" y="423.0" text-anchor="end" fill="#444">0.31</text>
<line x1="72" y1="380.0" x2="75" y2="380.0" stroke="#444"/>
<text x="69" y="383.0" text-anchor="end" fill="#444">0.61</text>
<text x="226.0" y="574" text-anchor="middle" fill="#444">Event time (years from adoption)</text>
<text x="27" y="460.0" text-anchor="middle" fill="#444" transform="rotate(-90 27 460.0)">Coefficient (per 100k)</text>
<rect x="425" y="330" width="380" height="260" fill="#fafaf7" stroke="#e2e2dc"/>
<text x="615.0" y="348" text-anchor="middle" font-weight="600">State firearm homicide rate (per 100,000)</text>
<line x1="485" y1="465.892728194744" x2="787" y2="465.892728194744" stroke="#aaaaaa" stroke-width="0.7"/>
<polygon points="498.7,428.9 526.2,413.0 553.6,412.4 581.1,423.5 608.5,465.9 636.0,425.0 663.5,450.1 690.9,380.0 718.4,400.1 745.8,381.0 773.3,443.4 773.3,505.9 745.8,540.0 718.4,512.5 690.9,485.1 663.5,534.6 636.0,513.4 608.5,465.9 581.1,470.1 553.6,480.9 526.2,486.2 498.7,494.0" fill="#1f3a5f" opacity="0.18"/>
<polyline points="498.7,461.4 526.2,449.6 553.6,446.6 581.1,446.8 608.5,465.9 636.0,469.2 663.5,492.3 690.9,432.6 718.4,456.3 745.8,460.5 773.3,474.6" fill="none" stroke="#1f3a5f" stroke-width="1.6"/>
<circle cx="498.7" cy="461.4" r="2.6" fill="#1f3a5f"/>
<circle cx="526.2" cy="449.6" r="2.6" fill="#1f3a5f"/>
<circle cx="553.6" cy="446.6" r="2.6" fill="#1f3a5f"/>
<circle cx="581.1" cy="446.8" r="2.6" fill="#1f3a5f"/>
<circle cx="608.5" cy="465.9" r="2.6" fill="#1f3a5f"/>
<circle cx="636.0" cy="469.2" r="2.6" fill="#1f3a5f"/>
<circle cx="663.5" cy="492.3" r="2.6" fill="#1f3a5f"/>
<circle cx="690.9" cy="432.6" r="2.6" fill="#1f3a5f"/>
<circle cx="718.4" cy="456.3" r="2.6" fill="#1f3a5f"/>
<circle cx="745.8" cy="460.5" r="2.6" fill="#1f3a5f"/>
<circle cx="773.3" cy="474.6" r="2.6" fill="#1f3a5f"/>
<line x1="622.3" y1="380" x2="622.3" y2="540" stroke="#b9461a" stroke-dasharray="3 3"/>
<line x1="485" y1="540" x2="787" y2="540" stroke="#444"/>
<line x1="485" y1="380" x2="485" y2="540" stroke="#444"/>
<line x1="498.7" y1="540" x2="498.7" y2="543" stroke="#444"/>
<text x="498.7" y="555" text-anchor="middle" fill="#444">-5</text>
<line x1="526.2" y1="540" x2="526.2" y2="543" stroke="#444"/>
<text x="526.2" y="555" text-anchor="middle" fill="#444">-4</text>
<line x1="553.6" y1="540" x2="553.6" y2="543" stroke="#444"/>
<text x="553.6" y="555" text-anchor="middle" fill="#444">-3</text>
<line x1="581.1" y1="540" x2="581.1" y2="543" stroke="#444"/>
<text x="581.1" y="555" text-anchor="middle" fill="#444">-2</text>
<line x1="608.5" y1="540" x2="608.5" y2="543" stroke="#444"/>
<text x="608.5" y="555" text-anchor="middle" fill="#444">-1</text>
<line x1="636.0" y1="540" x2="636.0" y2="543" stroke="#444"/>
<text x="636.0" y="555" text-anchor="middle" fill="#444">0</text>
<line x1="663.5" y1="540" x2="663.5" y2="543" stroke="#444"/>
<text x="663.5" y="555" text-anchor="middle" fill="#444">1</text>
<line x1="690.9" y1="540" x2="690.9" y2="543" stroke="#444"/>
<text x="690.9" y="555" text-anchor="middle" fill="#444">2</text>
<line x1="718.4" y1="540" x2="718.4" y2="543" stroke="#444"/>
<text x="718.4" y="555" text-anchor="middle" fill="#444">3</text>
<line x1="745.8" y1="540" x2="745.8" y2="543" stroke="#444"/>
<text x="745.8" y="555" text-anchor="middle" fill="#444">4</text>
<line x1="773.3" y1="540" x2="773.3" y2="543" stroke="#444"/>
<text x="773.3" y="555" text-anchor="middle" fill="#444">5</text>
<line x1="482" y1="540.0" x2="485" y2="540.0" stroke="#444"/>
<text x="479" y="543.0" text-anchor="end" fill="#444">-0.51</text>
<line x1="482" y1="500.0" x2="485" y2="500.0" stroke="#444"/>
<text x="479" y="503.0" text-anchor="end" fill="#444">-0.24</text>
<line x1="482" y1="460.0" x2="485" y2="460.0" stroke="#444"/>
<text x="479" y="463.0" text-anchor="end" fill="#444">0.041</text>
<line x1="482" y1="420.0" x2="485" y2="420.0" stroke="#444"/>
<text x="479" y="423.0" text-anchor="end" fill="#444">0.32</text>
<line x1="482" y1="380.0" x2="485" y2="380.0" stroke="#444"/>
<text x="479" y="383.0" text-anchor="end" fill="#444">0.59</text>
<text x="636.0" y="574" text-anchor="middle" fill="#444">Event time (years from adoption)</text>
<text x="437" y="460.0" text-anchor="middle" fill="#444" transform="rotate(-90 437 460.0)">Coefficient (per 100k)</text>
<text x="805" y="608" text-anchor="end" fill="#888" font-size="10">Shaded band: pointwise 95% CI from cluster-robust SE. Vertical dashed line marks the year before adoption.</text>
</svg>