<svg xmlns="http://www.w3.org/2000/svg" viewBox="0 0 820 910" font-family="-apple-system, Segoe UI, Helvetica, Arial, sans-serif" font-size="11">
<text x="410.0" y="22" text-anchor="middle" font-size="14" font-weight="600">Spatial RDD event study (ubc, primary outcomes)</text>
<rect x="15" y="40" width="380" height="260" fill="#fafaf7" stroke="#e2e2dc"/>
<text x="205.0" y="58" text-anchor="middle" font-weight="600">County violent crime rate (per 100,000)</text>
<line x1="75" y1="176.16686069900132" x2="377" y2="176.16686069900132" stroke="#aaaaaa" stroke-width="0.7"/>
<line x1="212.3" y1="90" x2="212.3" y2="250" stroke="#b9461a" stroke-dasharray="3 3"/>
<line x1="88.7" y1="215.1" x2="88.7" y2="157.6" stroke="#1f3a5f" stroke-width="1.4" opacity="0.35"/>
<line x1="84.7" y1="215.1" x2="92.7" y2="215.1" stroke="#1f3a5f" stroke-width="1.2" opacity="0.35"/>
<line x1="84.7" y1="157.6" x2="92.7" y2="157.6" stroke="#1f3a5f" stroke-width="1.2" opacity="0.35"/>
<circle cx="88.7" cy="186.4" r="3.2" fill="white" stroke="#1f3a5f" stroke-width="1.3" opacity="0.35"/>
<line x1="116.2" y1="212.0" x2="116.2" y2="169.0" stroke="#1f3a5f" stroke-width="1.4" opacity="0.35"/>
<line x1="112.2" y1="212.0" x2="120.2" y2="212.0" stroke="#1f3a5f" stroke-width="1.2" opacity="0.35"/>
<line x1="112.2" y1="169.0" x2="120.2" y2="169.0" stroke="#1f3a5f" stroke-width="1.2" opacity="0.35"/>
<circle cx="116.2" cy="190.5" r="3.2" fill="white" stroke="#1f3a5f" stroke-width="1.3" opacity="0.35"/>
<line x1="143.6" y1="216.0" x2="143.6" y2="177.1" stroke="#1f3a5f" stroke-width="1.4" opacity="1.00"/>
<line x1="139.6" y1="216.0" x2="147.6" y2="216.0" stroke="#1f3a5f" stroke-width="1.2" opacity="1.00"/>
<line x1="139.6" y1="177.1" x2="147.6" y2="177.1" stroke="#1f3a5f" stroke-width="1.2" opacity="1.00"/>
<circle cx="143.6" cy="196.6" r="3.2" fill="#1f3a5f"/>
<line x1="171.1" y1="204.5" x2="171.1" y2="150.6" stroke="#1f3a5f" stroke-width="1.4" opacity="0.35"/>
<line x1="167.1" y1="204.5" x2="175.1" y2="204.5" stroke="#1f3a5f" stroke-width="1.2" opacity="0.35"/>
<line x1="167.1" y1="150.6" x2="175.1" y2="150.6" stroke="#1f3a5f" stroke-width="1.2" opacity="0.35"/>
<circle cx="171.1" cy="177.6" r="3.2" fill="white" stroke="#1f3a5f" stroke-width="1.3" opacity="0.35"/>
<line x1="198.5" y1="176.2" x2="198.5" y2="176.2" stroke="#1f3a5f" stroke-width="1.4" opacity="0.35"/>
<line x1="194.5" y1="176.2" x2="202.5" y2="176.2" stroke="#1f3a5f" stroke-width="1.2" opacity="0.35"/>
<line x1="194.5" y1="176.2" x2="202.5" y2="176.2" stroke="#1f3a5f" stroke-width="1.2" opacity="0.35"/>
<circle cx="198.5" cy="176.2" r="3.2" fill="white" stroke="#1f3a5f" stroke-width="1.3" opacity="0.35"/>
<line x1="226.0" y1="250.0" x2="226.0" y2="207.7" stroke="#1f3a5f" stroke-width="1.4" opacity="1.00"/>
<line x1="222.0" y1="250.0" x2="230.0" y2="250.0" stroke="#1f3a5f" stroke-width="1.2" opacity="1.00"/>
<line x1="222.0" y1="207.7" x2="230.0" y2="207.7" stroke="#1f3a5f" stroke-width="1.2" opacity="1.00"/>
<circle cx="226.0" cy="228.8" r="3.2" fill="#1f3a5f"/>
<line x1="253.5" y1="182.1" x2="253.5" y2="151.3" stroke="#1f3a5f" stroke-width="1.4" opacity="0.35"/>
<line x1="249.5" y1="182.1" x2="257.5" y2="182.1" stroke="#1f3a5f" stroke-width="1.2" opacity="0.35"/>
<line x1="249.5" y1="151.3" x2="257.5" y2="151.3" stroke="#1f3a5f" stroke-width="1.2" opacity="0.35"/>
<circle cx="253.5" cy="166.7" r="3.2" fill="white" stroke="#1f3a5f" stroke-width="1.3" opacity="0.35"/>
<line x1="280.9" y1="171.3" x2="280.9" y2="135.7" stroke="#1f3a5f" stroke-width="1.4" opacity="1.00"/>
<line x1="276.9" y1="171.3" x2="284.9" y2="171.3" stroke="#1f3a5f" stroke-width="1.2" opacity="1.00"/>
<line x1="276.9" y1="135.7" x2="284.9" y2="135.7" stroke="#1f3a5f" stroke-width="1.2" opacity="1.00"/>
<circle cx="280.9" cy="153.5" r="3.2" fill="#1f3a5f"/>
<line x1="308.4" y1="160.5" x2="308.4" y2="90.0" stroke="#1f3a5f" stroke-width="1.4" opacity="1.00"/>
<line x1="304.4" y1="160.5" x2="312.4" y2="160.5" stroke="#1f3a5f" stroke-width="1.2" opacity="1.00"/>
<line x1="304.4" y1="90.0" x2="312.4" y2="90.0" stroke="#1f3a5f" stroke-width="1.2" opacity="1.00"/>
<circle cx="308.4" cy="125.2" r="3.2" fill="#1f3a5f"/>
<line x1="335.8" y1="161.6" x2="335.8" y2="104.1" stroke="#1f3a5f" stroke-width="1.4" opacity="1.00"/>
<line x1="331.8" y1="161.6" x2="339.8" y2="161.6" stroke="#1f3a5f" stroke-width="1.2" opacity="1.00"/>
<line x1="331.8" y1="104.1" x2="339.8" y2="104.1" stroke="#1f3a5f" stroke-width="1.2" opacity="1.00"/>
<circle cx="335.8" cy="132.9" r="3.2" fill="#1f3a5f"/>
<line x1="363.3" y1="200.2" x2="363.3" y2="135.6" stroke="#1f3a5f" stroke-width="1.4" opacity="0.35"/>
<line x1="359.3" y1="200.2" x2="367.3" y2="200.2" stroke="#1f3a5f" stroke-width="1.2" opacity="0.35"/>
<line x1="359.3" y1="135.6" x2="367.3" y2="135.6" stroke="#1f3a5f" stroke-width="1.2" opacity="0.35"/>
<circle cx="363.3" cy="167.9" r="3.2" fill="white" stroke="#1f3a5f" stroke-width="1.3" opacity="0.35"/>
<line x1="75" y1="250" x2="377" y2="250" stroke="#444"/>
<line x1="75" y1="90" x2="75" y2="250" stroke="#444"/>
<line x1="88.7" y1="250" x2="88.7" y2="253" stroke="#444"/>
<text x="88.7" y="265" text-anchor="middle" fill="#444">-5</text>
<line x1="116.2" y1="250" x2="116.2" y2="253" stroke="#444"/>
<text x="116.2" y="265" text-anchor="middle" fill="#444">-4</text>
<line x1="143.6" y1="250" x2="143.6" y2="253" stroke="#444"/>
<text x="143.6" y="265" text-anchor="middle" fill="#444">-3</text>
<line x1="171.1" y1="250" x2="171.1" y2="253" stroke="#444"/>
<text x="171.1" y="265" text-anchor="middle" fill="#444">-2</text>
<line x1="198.5" y1="250" x2="198.5" y2="253" stroke="#444"/>
<text x="198.5" y="265" text-anchor="middle" fill="#444">-1</text>
<line x1="226.0" y1="250" x2="226.0" y2="253" stroke="#444"/>
<text x="226.0" y="265" text-anchor="middle" fill="#444">0</text>
<line x1="253.5" y1="250" x2="253.5" y2="253" stroke="#444"/>
<text x="253.5" y="265" text-anchor="middle" fill="#444">1</text>
<line x1="280.9" y1="250" x2="280.9" y2="253" stroke="#444"/>
<text x="280.9" y="265" text-anchor="middle" fill="#444">2</text>
<line x1="308.4" y1="250" x2="308.4" y2="253" stroke="#444"/>
<text x="308.4" y="265" text-anchor="middle" fill="#444">3</text>
<line x1="335.8" y1="250" x2="335.8" y2="253" stroke="#444"/>
<text x="335.8" y="265" text-anchor="middle" fill="#444">4</text>
<line x1="363.3" y1="250" x2="363.3" y2="253" stroke="#444"/>
<text x="363.3" y="265" text-anchor="middle" fill="#444">5</text>
<line x1="72" y1="250.0" x2="75" y2="250.0" stroke="#444"/>
<text x="69" y="253.0" text-anchor="end" fill="#444">-50</text>
<line x1="72" y1="210.0" x2="75" y2="210.0" stroke="#444"/>
<text x="69" y="213.0" text-anchor="end" fill="#444">-23</text>
<line x1="72" y1="170.0" x2="75" y2="170.0" stroke="#444"/>
<text x="69" y="173.0" text-anchor="end" fill="#444">4.2</text>
<line x1="72" y1="130.0" x2="75" y2="130.0" stroke="#444"/>
<text x="69" y="133.0" text-anchor="end" fill="#444">31</text>
<line x1="72" y1="90.0" x2="75" y2="90.0" stroke="#444"/>
<text x="69" y="93.0" text-anchor="end" fill="#444">58</text>
<text x="226.0" y="284" text-anchor="middle" fill="#444">Event time (years from adoption)</text>
<text x="27" y="170.0" text-anchor="middle" fill="#444" transform="rotate(-90 27 170.0)">Coefficient (per 100k)</text>
<rect x="425" y="40" width="380" height="260" fill="#fafaf7" stroke="#e2e2dc"/>
<text x="615.0" y="58" text-anchor="middle" font-weight="600">County murder rate (per 100,000)</text>
<line x1="485" y1="178.47272402868126" x2="787" y2="178.47272402868126" stroke="#aaaaaa" stroke-width="0.7"/>
<line x1="622.3" y1="90" x2="622.3" y2="250" stroke="#b9461a" stroke-dasharray="3 3"/>
<line x1="498.7" y1="163.8" x2="498.7" y2="136.2" stroke="#1f3a5f" stroke-width="1.4" opacity="1.00"/>
<line x1="494.7" y1="163.8" x2="502.7" y2="163.8" stroke="#1f3a5f" stroke-width="1.2" opacity="1.00"/>
<line x1="494.7" y1="136.2" x2="502.7" y2="136.2" stroke="#1f3a5f" stroke-width="1.2" opacity="1.00"/>
<circle cx="498.7" cy="150.0" r="3.2" fill="#1f3a5f"/>
<line x1="526.2" y1="184.9" x2="526.2" y2="158.3" stroke="#1f3a5f" stroke-width="1.4" opacity="0.35"/>
<line x1="522.2" y1="184.9" x2="530.2" y2="184.9" stroke="#1f3a5f" stroke-width="1.2" opacity="0.35"/>
<line x1="522.2" y1="158.3" x2="530.2" y2="158.3" stroke="#1f3a5f" stroke-width="1.2" opacity="0.35"/>
<circle cx="526.2" cy="171.6" r="3.2" fill="white" stroke="#1f3a5f" stroke-width="1.3" opacity="0.35"/>
<line x1="553.6" y1="200.8" x2="553.6" y2="161.7" stroke="#1f3a5f" stroke-width="1.4" opacity="0.35"/>
<line x1="549.6" y1="200.8" x2="557.6" y2="200.8" stroke="#1f3a5f" stroke-width="1.2" opacity="0.35"/>
<line x1="549.6" y1="161.7" x2="557.6" y2="161.7" stroke="#1f3a5f" stroke-width="1.2" opacity="0.35"/>
<circle cx="553.6" cy="181.2" r="3.2" fill="white" stroke="#1f3a5f" stroke-width="1.3" opacity="0.35"/>
<line x1="581.1" y1="171.2" x2="581.1" y2="132.8" stroke="#1f3a5f" stroke-width="1.4" opacity="1.00"/>
<line x1="577.1" y1="171.2" x2="585.1" y2="171.2" stroke="#1f3a5f" stroke-width="1.2" opacity="1.00"/>
<line x1="577.1" y1="132.8" x2="585.1" y2="132.8" stroke="#1f3a5f" stroke-width="1.2" opacity="1.00"/>
<circle cx="581.1" cy="152.0" r="3.2" fill="#1f3a5f"/>
<line x1="608.5" y1="178.5" x2="608.5" y2="178.5" stroke="#1f3a5f" stroke-width="1.4" opacity="0.35"/>
<line x1="604.5" y1="178.5" x2="612.5" y2="178.5" stroke="#1f3a5f" stroke-width="1.2" opacity="0.35"/>
<line x1="604.5" y1="178.5" x2="612.5" y2="178.5" stroke="#1f3a5f" stroke-width="1.2" opacity="0.35"/>
<circle cx="608.5" cy="178.5" r="3.2" fill="white" stroke="#1f3a5f" stroke-width="1.3" opacity="0.35"/>
<line x1="636.0" y1="234.3" x2="636.0" y2="173.7" stroke="#1f3a5f" stroke-width="1.4" opacity="0.35"/>
<line x1="632.0" y1="234.3" x2="640.0" y2="234.3" stroke="#1f3a5f" stroke-width="1.2" opacity="0.35"/>
<line x1="632.0" y1="173.7" x2="640.0" y2="173.7" stroke="#1f3a5f" stroke-width="1.2" opacity="0.35"/>
<circle cx="636.0" cy="204.0" r="3.2" fill="white" stroke="#1f3a5f" stroke-width="1.3" opacity="0.35"/>
<line x1="663.5" y1="234.3" x2="663.5" y2="180.0" stroke="#1f3a5f" stroke-width="1.4" opacity="1.00"/>
<line x1="659.5" y1="234.3" x2="667.5" y2="234.3" stroke="#1f3a5f" stroke-width="1.2" opacity="1.00"/>
<line x1="659.5" y1="180.0" x2="667.5" y2="180.0" stroke="#1f3a5f" stroke-width="1.2" opacity="1.00"/>
<circle cx="663.5" cy="207.2" r="3.2" fill="#1f3a5f"/>
<line x1="690.9" y1="184.7" x2="690.9" y2="90.0" stroke="#1f3a5f" stroke-width="1.4" opacity="0.35"/>
<line x1="686.9" y1="184.7" x2="694.9" y2="184.7" stroke="#1f3a5f" stroke-width="1.2" opacity="0.35"/>
<line x1="686.9" y1="90.0" x2="694.9" y2="90.0" stroke="#1f3a5f" stroke-width="1.2" opacity="0.35"/>
<circle cx="690.9" cy="137.3" r="3.2" fill="white" stroke="#1f3a5f" stroke-width="1.3" opacity="0.35"/>
<line x1="718.4" y1="196.9" x2="718.4" y2="154.2" stroke="#1f3a5f" stroke-width="1.4" opacity="0.35"/>
<line x1="714.4" y1="196.9" x2="722.4" y2="196.9" stroke="#1f3a5f" stroke-width="1.2" opacity="0.35"/>
<line x1="714.4" y1="154.2" x2="722.4" y2="154.2" stroke="#1f3a5f" stroke-width="1.2" opacity="0.35"/>
<circle cx="718.4" cy="175.5" r="3.2" fill="white" stroke="#1f3a5f" stroke-width="1.3" opacity="0.35"/>
<line x1="745.8" y1="250.0" x2="745.8" y2="180.7" stroke="#1f3a5f" stroke-width="1.4" opacity="1.00"/>
<line x1="741.8" y1="250.0" x2="749.8" y2="250.0" stroke="#1f3a5f" stroke-width="1.2" opacity="1.00"/>
<line x1="741.8" y1="180.7" x2="749.8" y2="180.7" stroke="#1f3a5f" stroke-width="1.2" opacity="1.00"/>
<circle cx="745.8" cy="215.4" r="3.2" fill="#1f3a5f"/>
<line x1="773.3" y1="200.3" x2="773.3" y2="168.7" stroke="#1f3a5f" stroke-width="1.4" opacity="0.35"/>
<line x1="769.3" y1="200.3" x2="777.3" y2="200.3" stroke="#1f3a5f" stroke-width="1.2" opacity="0.35"/>
<line x1="769.3" y1="168.7" x2="777.3" y2="168.7" stroke="#1f3a5f" stroke-width="1.2" opacity="0.35"/>
<circle cx="773.3" cy="184.5" r="3.2" fill="white" stroke="#1f3a5f" stroke-width="1.3" opacity="0.35"/>
<line x1="485" y1="250" x2="787" y2="250" stroke="#444"/>
<line x1="485" y1="90" x2="485" y2="250" stroke="#444"/>
<line x1="498.7" y1="250" x2="498.7" y2="253" stroke="#444"/>
<text x="498.7" y="265" text-anchor="middle" fill="#444">-5</text>
<line x1="526.2" y1="250" x2="526.2" y2="253" stroke="#444"/>
<text x="526.2" y="265" text-anchor="middle" fill="#444">-4</text>
<line x1="553.6" y1="250" x2="553.6" y2="253" stroke="#444"/>
<text x="553.6" y="265" text-anchor="middle" fill="#444">-3</text>
<line x1="581.1" y1="250" x2="581.1" y2="253" stroke="#444"/>
<text x="581.1" y="265" text-anchor="middle" fill="#444">-2</text>
<line x1="608.5" y1="250" x2="608.5" y2="253" stroke="#444"/>
<text x="608.5" y="265" text-anchor="middle" fill="#444">-1</text>
<line x1="636.0" y1="250" x2="636.0" y2="253" stroke="#444"/>
<text x="636.0" y="265" text-anchor="middle" fill="#444">0</text>
<line x1="663.5" y1="250" x2="663.5" y2="253" stroke="#444"/>
<text x="663.5" y="265" text-anchor="middle" fill="#444">1</text>
<line x1="690.9" y1="250" x2="690.9" y2="253" stroke="#444"/>
<text x="690.9" y="265" text-anchor="middle" fill="#444">2</text>
<line x1="718.4" y1="250" x2="718.4" y2="253" stroke="#444"/>
<text x="718.4" y="265" text-anchor="middle" fill="#444">3</text>
<line x1="745.8" y1="250" x2="745.8" y2="253" stroke="#444"/>
<text x="745.8" y="265" text-anchor="middle" fill="#444">4</text>
<line x1="773.3" y1="250" x2="773.3" y2="253" stroke="#444"/>
<text x="773.3" y="265" text-anchor="middle" fill="#444">5</text>
<line x1="482" y1="250.0" x2="485" y2="250.0" stroke="#444"/>
<text x="479" y="253.0" text-anchor="end" fill="#444">-2.1</text>
<line x1="482" y1="210.0" x2="485" y2="210.0" stroke="#444"/>
<text x="479" y="213.0" text-anchor="end" fill="#444">-0.91</text>
<line x1="482" y1="170.0" x2="485" y2="170.0" stroke="#444"/>
<text x="479" y="173.0" text-anchor="end" fill="#444">0.24</text>
<line x1="482" y1="130.0" x2="485" y2="130.0" stroke="#444"/>
<text x="479" y="133.0" text-anchor="end" fill="#444">1.4</text>
<line x1="482" y1="90.0" x2="485" y2="90.0" stroke="#444"/>
<text x="479" y="93.0" text-anchor="end" fill="#444">2.6</text>
<text x="636.0" y="284" text-anchor="middle" fill="#444">Event time (years from adoption)</text>
<text x="437" y="170.0" text-anchor="middle" fill="#444" transform="rotate(-90 437 170.0)">Coefficient (per 100k)</text>
<rect x="15" y="330" width="380" height="260" fill="#fafaf7" stroke="#e2e2dc"/>
<text x="205.0" y="348" text-anchor="middle" font-weight="600">County property crime rate (per 100,000)</text>
<line x1="75" y1="479.37911916234657" x2="377" y2="479.37911916234657" stroke="#aaaaaa" stroke-width="0.7"/>
<line x1="212.3" y1="380" x2="212.3" y2="540" stroke="#b9461a" stroke-dasharray="3 3"/>
<line x1="88.7" y1="514.4" x2="88.7" y2="479.9" stroke="#1f3a5f" stroke-width="1.4" opacity="1.00"/>
<line x1="84.7" y1="514.4" x2="92.7" y2="514.4" stroke="#1f3a5f" stroke-width="1.2" opacity="1.00"/>
<line x1="84.7" y1="479.9" x2="92.7" y2="479.9" stroke="#1f3a5f" stroke-width="1.2" opacity="1.00"/>
<circle cx="88.7" cy="497.2" r="3.2" fill="#1f3a5f"/>
<line x1="116.2" y1="509.9" x2="116.2" y2="380.0" stroke="#1f3a5f" stroke-width="1.4" opacity="0.35"/>
<line x1="112.2" y1="509.9" x2="120.2" y2="509.9" stroke="#1f3a5f" stroke-width="1.2" opacity="0.35"/>
<line x1="112.2" y1="380.0" x2="120.2" y2="380.0" stroke="#1f3a5f" stroke-width="1.2" opacity="0.35"/>
<circle cx="116.2" cy="444.9" r="3.2" fill="white" stroke="#1f3a5f" stroke-width="1.3" opacity="0.35"/>
<line x1="143.6" y1="510.5" x2="143.6" y2="475.5" stroke="#1f3a5f" stroke-width="1.4" opacity="0.35"/>
<line x1="139.6" y1="510.5" x2="147.6" y2="510.5" stroke="#1f3a5f" stroke-width="1.2" opacity="0.35"/>
<line x1="139.6" y1="475.5" x2="147.6" y2="475.5" stroke="#1f3a5f" stroke-width="1.2" opacity="0.35"/>
<circle cx="143.6" cy="493.0" r="3.2" fill="white" stroke="#1f3a5f" stroke-width="1.3" opacity="0.35"/>
<line x1="171.1" y1="484.8" x2="171.1" y2="436.0" stroke="#1f3a5f" stroke-width="1.4" opacity="0.35"/>
<line x1="167.1" y1="484.8" x2="175.1" y2="484.8" stroke="#1f3a5f" stroke-width="1.2" opacity="0.35"/>
<line x1="167.1" y1="436.0" x2="175.1" y2="436.0" stroke="#1f3a5f" stroke-width="1.2" opacity="0.35"/>
<circle cx="171.1" cy="460.4" r="3.2" fill="white" stroke="#1f3a5f" stroke-width="1.3" opacity="0.35"/>
<line x1="198.5" y1="479.4" x2="198.5" y2="479.4" stroke="#1f3a5f" stroke-width="1.4" opacity="0.35"/>
<line x1="194.5" y1="479.4" x2="202.5" y2="479.4" stroke="#1f3a5f" stroke-width="1.2" opacity="0.35"/>
<line x1="194.5" y1="479.4" x2="202.5" y2="479.4" stroke="#1f3a5f" stroke-width="1.2" opacity="0.35"/>
<circle cx="198.5" cy="479.4" r="3.2" fill="white" stroke="#1f3a5f" stroke-width="1.3" opacity="0.35"/>
<line x1="226.0" y1="540.0" x2="226.0" y2="482.5" stroke="#1f3a5f" stroke-width="1.4" opacity="1.00"/>
<line x1="222.0" y1="540.0" x2="230.0" y2="540.0" stroke="#1f3a5f" stroke-width="1.2" opacity="1.00"/>
<line x1="222.0" y1="482.5" x2="230.0" y2="482.5" stroke="#1f3a5f" stroke-width="1.2" opacity="1.00"/>
<circle cx="226.0" cy="511.2" r="3.2" fill="#1f3a5f"/>
<line x1="253.5" y1="490.6" x2="253.5" y2="438.7" stroke="#1f3a5f" stroke-width="1.4" opacity="0.35"/>
<line x1="249.5" y1="490.6" x2="257.5" y2="490.6" stroke="#1f3a5f" stroke-width="1.2" opacity="0.35"/>
<line x1="249.5" y1="438.7" x2="257.5" y2="438.7" stroke="#1f3a5f" stroke-width="1.2" opacity="0.35"/>
<circle cx="253.5" cy="464.6" r="3.2" fill="white" stroke="#1f3a5f" stroke-width="1.3" opacity="0.35"/>
<line x1="280.9" y1="501.0" x2="280.9" y2="435.3" stroke="#1f3a5f" stroke-width="1.4" opacity="0.35"/>
<line x1="276.9" y1="501.0" x2="284.9" y2="501.0" stroke="#1f3a5f" stroke-width="1.2" opacity="0.35"/>
<line x1="276.9" y1="435.3" x2="284.9" y2="435.3" stroke="#1f3a5f" stroke-width="1.2" opacity="0.35"/>
<circle cx="280.9" cy="468.1" r="3.2" fill="white" stroke="#1f3a5f" stroke-width="1.3" opacity="0.35"/>
<line x1="308.4" y1="450.7" x2="308.4" y2="389.9" stroke="#1f3a5f" stroke-width="1.4" opacity="1.00"/>
<line x1="304.4" y1="450.7" x2="312.4" y2="450.7" stroke="#1f3a5f" stroke-width="1.2" opacity="1.00"/>
<line x1="304.4" y1="389.9" x2="312.4" y2="389.9" stroke="#1f3a5f" stroke-width="1.2" opacity="1.00"/>
<circle cx="308.4" cy="420.3" r="3.2" fill="#1f3a5f"/>
<line x1="335.8" y1="486.9" x2="335.8" y2="419.5" stroke="#1f3a5f" stroke-width="1.4" opacity="0.35"/>
<line x1="331.8" y1="486.9" x2="339.8" y2="486.9" stroke="#1f3a5f" stroke-width="1.2" opacity="0.35"/>
<line x1="331.8" y1="419.5" x2="339.8" y2="419.5" stroke="#1f3a5f" stroke-width="1.2" opacity="0.35"/>
<circle cx="335.8" cy="453.2" r="3.2" fill="white" stroke="#1f3a5f" stroke-width="1.3" opacity="0.35"/>
<line x1="363.3" y1="511.1" x2="363.3" y2="468.0" stroke="#1f3a5f" stroke-width="1.4" opacity="0.35"/>
<line x1="359.3" y1="511.1" x2="367.3" y2="511.1" stroke="#1f3a5f" stroke-width="1.2" opacity="0.35"/>
<line x1="359.3" y1="468.0" x2="367.3" y2="468.0" stroke="#1f3a5f" stroke-width="1.2" opacity="0.35"/>
<circle cx="363.3" cy="489.5" r="3.2" fill="white" stroke="#1f3a5f" stroke-width="1.3" opacity="0.35"/>
<line x1="75" y1="540" x2="377" y2="540" stroke="#444"/>
<line x1="75" y1="380" x2="75" y2="540" stroke="#444"/>
<line x1="88.7" y1="540" x2="88.7" y2="543" stroke="#444"/>
<text x="88.7" y="555" text-anchor="middle" fill="#444">-5</text>
<line x1="116.2" y1="540" x2="116.2" y2="543" stroke="#444"/>
<text x="116.2" y="555" text-anchor="middle" fill="#444">-4</text>
<line x1="143.6" y1="540" x2="143.6" y2="543" stroke="#444"/>
<text x="143.6" y="555" text-anchor="middle" fill="#444">-3</text>
<line x1="171.1" y1="540" x2="171.1" y2="543" stroke="#444"/>
<text x="171.1" y="555" text-anchor="middle" fill="#444">-2</text>
<line x1="198.5" y1="540" x2="198.5" y2="543" stroke="#444"/>
<text x="198.5" y="555" text-anchor="middle" fill="#444">-1</text>
<line x1="226.0" y1="540" x2="226.0" y2="543" stroke="#444"/>
<text x="226.0" y="555" text-anchor="middle" fill="#444">0</text>
<line x1="253.5" y1="540" x2="253.5" y2="543" stroke="#444"/>
<text x="253.5" y="555" text-anchor="middle" fill="#444">1</text>
<line x1="280.9" y1="540" x2="280.9" y2="543" stroke="#444"/>
<text x="280.9" y="555" text-anchor="middle" fill="#444">2</text>
<line x1="308.4" y1="540" x2="308.4" y2="543" stroke="#444"/>
<text x="308.4" y="555" text-anchor="middle" fill="#444">3</text>
<line x1="335.8" y1="540" x2="335.8" y2="543" stroke="#444"/>
<text x="335.8" y="555" text-anchor="middle" fill="#444">4</text>
<line x1="363.3" y1="540" x2="363.3" y2="543" stroke="#444"/>
<text x="363.3" y="555" text-anchor="middle" fill="#444">5</text>
<line x1="72" y1="540.0" x2="75" y2="540.0" stroke="#444"/>
<text x="69" y="543.0" text-anchor="end" fill="#444">-1.7e+02</text>
<line x1="72" y1="500.0" x2="75" y2="500.0" stroke="#444"/>
<text x="69" y="503.0" text-anchor="end" fill="#444">-59</text>
<line x1="72" y1="460.0" x2="75" y2="460.0" stroke="#444"/>
<text x="69" y="463.0" text-anchor="end" fill="#444">56</text>
<line x1="72" y1="420.0" x2="75" y2="420.0" stroke="#444"/>
<text x="69" y="423.0" text-anchor="end" fill="#444">1.7e+02</text>
<line x1="72" y1="380.0" x2="75" y2="380.0" stroke="#444"/>
<text x="69" y="383.0" text-anchor="end" fill="#444">2.9e+02</text>
<text x="226.0" y="574" text-anchor="middle" fill="#444">Event time (years from adoption)</text>
<text x="27" y="460.0" text-anchor="middle" fill="#444" transform="rotate(-90 27 460.0)">Coefficient (per 100k)</text>
<rect x="425" y="330" width="380" height="260" fill="#fafaf7" stroke="#e2e2dc"/>
<text x="615.0" y="348" text-anchor="middle" font-weight="600">County burglary rate (per 100,000) [placebo]</text>
<line x1="485" y1="473.9035433453678" x2="787" y2="473.9035433453678" stroke="#aaaaaa" stroke-width="0.7"/>
<line x1="622.3" y1="380" x2="622.3" y2="540" stroke="#b9461a" stroke-dasharray="3 3"/>
<line x1="498.7" y1="540.0" x2="498.7" y2="479.7" stroke="#1f3a5f" stroke-width="1.4" opacity="1.00"/>
<line x1="494.7" y1="540.0" x2="502.7" y2="540.0" stroke="#1f3a5f" stroke-width="1.2" opacity="1.00"/>
<line x1="494.7" y1="479.7" x2="502.7" y2="479.7" stroke="#1f3a5f" stroke-width="1.2" opacity="1.00"/>
<circle cx="498.7" cy="509.9" r="3.2" fill="#1f3a5f"/>
<line x1="526.2" y1="493.2" x2="526.2" y2="432.2" stroke="#1f3a5f" stroke-width="1.4" opacity="0.35"/>
<line x1="522.2" y1="493.2" x2="530.2" y2="493.2" stroke="#1f3a5f" stroke-width="1.2" opacity="0.35"/>
<line x1="522.2" y1="432.2" x2="530.2" y2="432.2" stroke="#1f3a5f" stroke-width="1.2" opacity="0.35"/>
<circle cx="526.2" cy="462.7" r="3.2" fill="white" stroke="#1f3a5f" stroke-width="1.3" opacity="0.35"/>
<line x1="553.6" y1="502.8" x2="553.6" y2="453.8" stroke="#1f3a5f" stroke-width="1.4" opacity="0.35"/>
<line x1="549.6" y1="502.8" x2="557.6" y2="502.8" stroke="#1f3a5f" stroke-width="1.2" opacity="0.35"/>
<line x1="549.6" y1="453.8" x2="557.6" y2="453.8" stroke="#1f3a5f" stroke-width="1.2" opacity="0.35"/>
<circle cx="553.6" cy="478.3" r="3.2" fill="white" stroke="#1f3a5f" stroke-width="1.3" opacity="0.35"/>
<line x1="581.1" y1="478.4" x2="581.1" y2="401.7" stroke="#1f3a5f" stroke-width="1.4" opacity="0.35"/>
<line x1="577.1" y1="478.4" x2="585.1" y2="478.4" stroke="#1f3a5f" stroke-width="1.2" opacity="0.35"/>
<line x1="577.1" y1="401.7" x2="585.1" y2="401.7" stroke="#1f3a5f" stroke-width="1.2" opacity="0.35"/>
<circle cx="581.1" cy="440.1" r="3.2" fill="white" stroke="#1f3a5f" stroke-width="1.3" opacity="0.35"/>
<line x1="608.5" y1="473.9" x2="608.5" y2="473.9" stroke="#1f3a5f" stroke-width="1.4" opacity="0.35"/>
<line x1="604.5" y1="473.9" x2="612.5" y2="473.9" stroke="#1f3a5f" stroke-width="1.2" opacity="0.35"/>
<line x1="604.5" y1="473.9" x2="612.5" y2="473.9" stroke="#1f3a5f" stroke-width="1.2" opacity="0.35"/>
<circle cx="608.5" cy="473.9" r="3.2" fill="white" stroke="#1f3a5f" stroke-width="1.3" opacity="0.35"/>
<line x1="636.0" y1="534.2" x2="636.0" y2="447.2" stroke="#1f3a5f" stroke-width="1.4" opacity="0.35"/>
<line x1="632.0" y1="534.2" x2="640.0" y2="534.2" stroke="#1f3a5f" stroke-width="1.2" opacity="0.35"/>
<line x1="632.0" y1="447.2" x2="640.0" y2="447.2" stroke="#1f3a5f" stroke-width="1.2" opacity="0.35"/>
<circle cx="636.0" cy="490.7" r="3.2" fill="white" stroke="#1f3a5f" stroke-width="1.3" opacity="0.35"/>
<line x1="663.5" y1="493.5" x2="663.5" y2="417.3" stroke="#1f3a5f" stroke-width="1.4" opacity="0.35"/>
<line x1="659.5" y1="493.5" x2="667.5" y2="493.5" stroke="#1f3a5f" stroke-width="1.2" opacity="0.35"/>
<line x1="659.5" y1="417.3" x2="667.5" y2="417.3" stroke="#1f3a5f" stroke-width="1.2" opacity="0.35"/>
<circle cx="663.5" cy="455.4" r="3.2" fill="white" stroke="#1f3a5f" stroke-width="1.3" opacity="0.35"/>
<line x1="690.9" y1="524.6" x2="690.9" y2="396.2" stroke="#1f3a5f" stroke-width="1.4" opacity="0.35"/>
<line x1="686.9" y1="524.6" x2="694.9" y2="524.6" stroke="#1f3a5f" stroke-width="1.2" opacity="0.35"/>
<line x1="686.9" y1="396.2" x2="694.9" y2="396.2" stroke="#1f3a5f" stroke-width="1.2" opacity="0.35"/>
<circle cx="690.9" cy="460.4" r="3.2" fill="white" stroke="#1f3a5f" stroke-width="1.3" opacity="0.35"/>
<line x1="718.4" y1="463.4" x2="718.4" y2="380.0" stroke="#1f3a5f" stroke-width="1.4" opacity="1.00"/>
<line x1="714.4" y1="463.4" x2="722.4" y2="463.4" stroke="#1f3a5f" stroke-width="1.2" opacity="1.00"/>
<line x1="714.4" y1="380.0" x2="722.4" y2="380.0" stroke="#1f3a5f" stroke-width="1.2" opacity="1.00"/>
<circle cx="718.4" cy="421.7" r="3.2" fill="#1f3a5f"/>
<line x1="745.8" y1="499.8" x2="745.8" y2="384.5" stroke="#1f3a5f" stroke-width="1.4" opacity="0.35"/>
<line x1="741.8" y1="499.8" x2="749.8" y2="499.8" stroke="#1f3a5f" stroke-width="1.2" opacity="0.35"/>
<line x1="741.8" y1="384.5" x2="749.8" y2="384.5" stroke="#1f3a5f" stroke-width="1.2" opacity="0.35"/>
<circle cx="745.8" cy="442.2" r="3.2" fill="white" stroke="#1f3a5f" stroke-width="1.3" opacity="0.35"/>
<line x1="773.3" y1="527.3" x2="773.3" y2="485.9" stroke="#1f3a5f" stroke-width="1.4" opacity="1.00"/>
<line x1="769.3" y1="527.3" x2="777.3" y2="527.3" stroke="#1f3a5f" stroke-width="1.2" opacity="1.00"/>
<line x1="769.3" y1="485.9" x2="777.3" y2="485.9" stroke="#1f3a5f" stroke-width="1.2" opacity="1.00"/>
<circle cx="773.3" cy="506.6" r="3.2" fill="#1f3a5f"/>
<line x1="485" y1="540" x2="787" y2="540" stroke="#444"/>
<line x1="485" y1="380" x2="485" y2="540" stroke="#444"/>
<line x1="498.7" y1="540" x2="498.7" y2="543" stroke="#444"/>
<text x="498.7" y="555" text-anchor="middle" fill="#444">-5</text>
<line x1="526.2" y1="540" x2="526.2" y2="543" stroke="#444"/>
<text x="526.2" y="555" text-anchor="middle" fill="#444">-4</text>
<line x1="553.6" y1="540" x2="553.6" y2="543" stroke="#444"/>
<text x="553.6" y="555" text-anchor="middle" fill="#444">-3</text>
<line x1="581.1" y1="540" x2="581.1" y2="543" stroke="#444"/>
<text x="581.1" y="555" text-anchor="middle" fill="#444">-2</text>
<line x1="608.5" y1="540" x2="608.5" y2="543" stroke="#444"/>
<text x="608.5" y="555" text-anchor="middle" fill="#444">-1</text>
<line x1="636.0" y1="540" x2="636.0" y2="543" stroke="#444"/>
<text x="636.0" y="555" text-anchor="middle" fill="#444">0</text>
<line x1="663.5" y1="540" x2="663.5" y2="543" stroke="#444"/>
<text x="663.5" y="555" text-anchor="middle" fill="#444">1</text>
<line x1="690.9" y1="540" x2="690.9" y2="543" stroke="#444"/>
<text x="690.9" y="555" text-anchor="middle" fill="#444">2</text>
<line x1="718.4" y1="540" x2="718.4" y2="543" stroke="#444"/>
<text x="718.4" y="555" text-anchor="middle" fill="#444">3</text>
<line x1="745.8" y1="540" x2="745.8" y2="543" stroke="#444"/>
<text x="745.8" y="555" text-anchor="middle" fill="#444">4</text>
<line x1="773.3" y1="540" x2="773.3" y2="543" stroke="#444"/>
<text x="773.3" y="555" text-anchor="middle" fill="#444">5</text>
<line x1="482" y1="540.0" x2="485" y2="540.0" stroke="#444"/>
<text x="479" y="543.0" text-anchor="end" fill="#444">-46</text>
<line x1="482" y1="500.0" x2="485" y2="500.0" stroke="#444"/>
<text x="479" y="503.0" text-anchor="end" fill="#444">-18</text>
<line x1="482" y1="460.0" x2="485" y2="460.0" stroke="#444"/>
<text x="479" y="463.0" text-anchor="end" fill="#444">9.6</text>
<line x1="482" y1="420.0" x2="485" y2="420.0" stroke="#444"/>
<text x="479" y="423.0" text-anchor="end" fill="#444">37</text>
<line x1="482" y1="380.0" x2="485" y2="380.0" stroke="#444"/>
<text x="479" y="383.0" text-anchor="end" fill="#444">65</text>
<text x="636.0" y="574" text-anchor="middle" fill="#444">Event time (years from adoption)</text>
<text x="437" y="460.0" text-anchor="middle" fill="#444" transform="rotate(-90 437 460.0)">Coefficient (per 100k)</text>
<rect x="15" y="620" width="380" height="260" fill="#fafaf7" stroke="#e2e2dc"/>
<text x="205.0" y="638" text-anchor="middle" font-weight="600">County motor vehicle theft rate (per 100,000) [placebo]</text>
<line x1="75" y1="804.6853011880307" x2="377" y2="804.6853011880307" stroke="#aaaaaa" stroke-width="0.7"/>
<line x1="212.3" y1="670" x2="212.3" y2="830" stroke="#b9461a" stroke-dasharray="3 3"/>
<line x1="88.7" y1="822.7" x2="88.7" y2="803.0" stroke="#1f3a5f" stroke-width="1.4" opacity="0.35"/>
<line x1="84.7" y1="822.7" x2="92.7" y2="822.7" stroke="#1f3a5f" stroke-width="1.2" opacity="0.35"/>
<line x1="84.7" y1="803.0" x2="92.7" y2="803.0" stroke="#1f3a5f" stroke-width="1.2" opacity="0.35"/>
<circle cx="88.7" cy="812.8" r="3.2" fill="white" stroke="#1f3a5f" stroke-width="1.3" opacity="0.35"/>
<line x1="116.2" y1="830.0" x2="116.2" y2="670.0" stroke="#1f3a5f" stroke-width="1.4" opacity="0.35"/>
<line x1="112.2" y1="830.0" x2="120.2" y2="830.0" stroke="#1f3a5f" stroke-width="1.2" opacity="0.35"/>
<line x1="112.2" y1="670.0" x2="120.2" y2="670.0" stroke="#1f3a5f" stroke-width="1.2" opacity="0.35"/>
<circle cx="116.2" cy="750.0" r="3.2" fill="white" stroke="#1f3a5f" stroke-width="1.3" opacity="0.35"/>
<line x1="143.6" y1="813.4" x2="143.6" y2="802.4" stroke="#1f3a5f" stroke-width="1.4" opacity="0.35"/>
<line x1="139.6" y1="813.4" x2="147.6" y2="813.4" stroke="#1f3a5f" stroke-width="1.2" opacity="0.35"/>
<line x1="139.6" y1="802.4" x2="147.6" y2="802.4" stroke="#1f3a5f" stroke-width="1.2" opacity="0.35"/>
<circle cx="143.6" cy="807.9" r="3.2" fill="white" stroke="#1f3a5f" stroke-width="1.3" opacity="0.35"/>
<line x1="171.1" y1="814.1" x2="171.1" y2="803.4" stroke="#1f3a5f" stroke-width="1.4" opacity="0.35"/>
<line x1="167.1" y1="814.1" x2="175.1" y2="814.1" stroke="#1f3a5f" stroke-width="1.2" opacity="0.35"/>
<line x1="167.1" y1="803.4" x2="175.1" y2="803.4" stroke="#1f3a5f" stroke-width="1.2" opacity="0.35"/>
<circle cx="171.1" cy="808.7" r="3.2" fill="white" stroke="#1f3a5f" stroke-width="1.3" opacity="0.35"/>
<line x1="198.5" y1="804.7" x2="198.5" y2="804.7" stroke="#1f3a5f" stroke-width="1.4" opacity="0.35"/>
<line x1="194.5" y1="804.7" x2="202.5" y2="804.7" stroke="#1f3a5f" stroke-width="1.2" opacity="0.35"/>
<line x1="194.5" y1="804.7" x2="202.5" y2="804.7" stroke="#1f3a5f" stroke-width="1.2" opacity="0.35"/>
<circle cx="198.5" cy="804.7" r="3.2" fill="white" stroke="#1f3a5f" stroke-width="1.3" opacity="0.35"/>
<line x1="226.0" y1="815.8" x2="226.0" y2="806.5" stroke="#1f3a5f" stroke-width="1.4" opacity="1.00"/>
<line x1="222.0" y1="815.8" x2="230.0" y2="815.8" stroke="#1f3a5f" stroke-width="1.2" opacity="1.00"/>
<line x1="222.0" y1="806.5" x2="230.0" y2="806.5" stroke="#1f3a5f" stroke-width="1.2" opacity="1.00"/>
<circle cx="226.0" cy="811.1" r="3.2" fill="#1f3a5f"/>
<line x1="253.5" y1="816.0" x2="253.5" y2="801.7" stroke="#1f3a5f" stroke-width="1.4" opacity="0.35"/>
<line x1="249.5" y1="816.0" x2="257.5" y2="816.0" stroke="#1f3a5f" stroke-width="1.2" opacity="0.35"/>
<line x1="249.5" y1="801.7" x2="257.5" y2="801.7" stroke="#1f3a5f" stroke-width="1.2" opacity="0.35"/>
<circle cx="253.5" cy="808.9" r="3.2" fill="white" stroke="#1f3a5f" stroke-width="1.3" opacity="0.35"/>
<line x1="280.9" y1="810.7" x2="280.9" y2="798.8" stroke="#1f3a5f" stroke-width="1.4" opacity="0.35"/>
<line x1="276.9" y1="810.7" x2="284.9" y2="810.7" stroke="#1f3a5f" stroke-width="1.2" opacity="0.35"/>
<line x1="276.9" y1="798.8" x2="284.9" y2="798.8" stroke="#1f3a5f" stroke-width="1.2" opacity="0.35"/>
<circle cx="280.9" cy="804.7" r="3.2" fill="white" stroke="#1f3a5f" stroke-width="1.3" opacity="0.35"/>
<line x1="308.4" y1="804.3" x2="308.4" y2="794.6" stroke="#1f3a5f" stroke-width="1.4" opacity="1.00"/>
<line x1="304.4" y1="804.3" x2="312.4" y2="804.3" stroke="#1f3a5f" stroke-width="1.2" opacity="1.00"/>
<line x1="304.4" y1="794.6" x2="312.4" y2="794.6" stroke="#1f3a5f" stroke-width="1.2" opacity="1.00"/>
<circle cx="308.4" cy="799.4" r="3.2" fill="#1f3a5f"/>
<line x1="335.8" y1="813.9" x2="335.8" y2="803.1" stroke="#1f3a5f" stroke-width="1.4" opacity="0.35"/>
<line x1="331.8" y1="813.9" x2="339.8" y2="813.9" stroke="#1f3a5f" stroke-width="1.2" opacity="0.35"/>
<line x1="331.8" y1="803.1" x2="339.8" y2="803.1" stroke="#1f3a5f" stroke-width="1.2" opacity="0.35"/>
<circle cx="335.8" cy="808.5" r="3.2" fill="white" stroke="#1f3a5f" stroke-width="1.3" opacity="0.35"/>
<line x1="363.3" y1="818.0" x2="363.3" y2="801.5" stroke="#1f3a5f" stroke-width="1.4" opacity="0.35"/>
<line x1="359.3" y1="818.0" x2="367.3" y2="818.0" stroke="#1f3a5f" stroke-width="1.2" opacity="0.35"/>
<line x1="359.3" y1="801.5" x2="367.3" y2="801.5" stroke="#1f3a5f" stroke-width="1.2" opacity="0.35"/>
<circle cx="363.3" cy="809.8" r="3.2" fill="white" stroke="#1f3a5f" stroke-width="1.3" opacity="0.35"/>
<line x1="75" y1="830" x2="377" y2="830" stroke="#444"/>
<line x1="75" y1="670" x2="75" y2="830" stroke="#444"/>
<line x1="88.7" y1="830" x2="88.7" y2="833" stroke="#444"/>
<text x="88.7" y="845" text-anchor="middle" fill="#444">-5</text>
<line x1="116.2" y1="830" x2="116.2" y2="833" stroke="#444"/>
<text x="116.2" y="845" text-anchor="middle" fill="#444">-4</text>
<line x1="143.6" y1="830" x2="143.6" y2="833" stroke="#444"/>
<text x="143.6" y="845" text-anchor="middle" fill="#444">-3</text>
<line x1="171.1" y1="830" x2="171.1" y2="833" stroke="#444"/>
<text x="171.1" y="845" text-anchor="middle" fill="#444">-2</text>
<line x1="198.5" y1="830" x2="198.5" y2="833" stroke="#444"/>
<text x="198.5" y="845" text-anchor="middle" fill="#444">-1</text>
<line x1="226.0" y1="830" x2="226.0" y2="833" stroke="#444"/>
<text x="226.0" y="845" text-anchor="middle" fill="#444">0</text>
<line x1="253.5" y1="830" x2="253.5" y2="833" stroke="#444"/>
<text x="253.5" y="845" text-anchor="middle" fill="#444">1</text>
<line x1="280.9" y1="830" x2="280.9" y2="833" stroke="#444"/>
<text x="280.9" y="845" text-anchor="middle" fill="#444">2</text>
<line x1="308.4" y1="830" x2="308.4" y2="833" stroke="#444"/>
<text x="308.4" y="845" text-anchor="middle" fill="#444">3</text>
<line x1="335.8" y1="830" x2="335.8" y2="833" stroke="#444"/>
<text x="335.8" y="845" text-anchor="middle" fill="#444">4</text>
<line x1="363.3" y1="830" x2="363.3" y2="833" stroke="#444"/>
<text x="363.3" y="845" text-anchor="middle" fill="#444">5</text>
<line x1="72" y1="830.0" x2="75" y2="830.0" stroke="#444"/>
<text x="69" y="833.0" text-anchor="end" fill="#444">-51</text>
<line x1="72" y1="790.0" x2="75" y2="790.0" stroke="#444"/>
<text x="69" y="793.0" text-anchor="end" fill="#444">30</text>
<line x1="72" y1="750.0" x2="75" y2="750.0" stroke="#444"/>
<text x="69" y="753.0" text-anchor="end" fill="#444">1.1e+02</text>
<line x1="72" y1="710.0" x2="75" y2="710.0" stroke="#444"/>
<text x="69" y="713.0" text-anchor="end" fill="#444">1.9e+02</text>
<line x1="72" y1="670.0" x2="75" y2="670.0" stroke="#444"/>
<text x="69" y="673.0" text-anchor="end" fill="#444">2.7e+02</text>
<text x="226.0" y="864" text-anchor="middle" fill="#444">Event time (years from adoption)</text>
<text x="27" y="750.0" text-anchor="middle" fill="#444" transform="rotate(-90 27 750.0)">Coefficient (per 100k)</text>
<text x="805" y="898" text-anchor="end" fill="#888" font-size="10">Whiskers: pointwise 95% CI from cluster-robust SE. Solid dot = significant at 5%; hollow dot = not significant. Vertical dashed line marks the year before adoption.</text>
</svg>