<svg xmlns="http://www.w3.org/2000/svg" viewBox="0 0 820 620" font-family="-apple-system, Segoe UI, Helvetica, Arial, sans-serif" font-size="11">
<text x="410.0" y="22" text-anchor="middle" font-size="14" font-weight="600">Spatial RDD event study (assault_weapons_ban, secondary outcomes)</text>
<rect x="15" y="40" width="380" height="260" fill="#fafaf7" stroke="#e2e2dc"/>
<text x="205.0" y="58" text-anchor="middle" font-weight="600">State firearm suicide rate (per 100,000)</text>
<line x1="75" y1="150.50726219416822" x2="377" y2="150.50726219416822" stroke="#aaaaaa" stroke-width="0.7"/>
<polygon points="88.7,159.4 116.2,105.3 143.6,180.1 171.1,172.9 198.5,150.5 226.0,158.4 253.5,90.0 280.9,152.4 308.4,199.6 335.8,158.6 363.3,189.3 363.3,243.2 335.8,250.0 308.4,227.4 280.9,163.6 253.5,108.4 226.0,201.6 198.5,150.5 171.1,217.8 143.6,216.5 116.2,164.9 88.7,197.6" fill="#1f3a5f" opacity="0.18"/>
<polyline points="88.7,178.5 116.2,135.1 143.6,198.3 171.1,195.3 198.5,150.5 226.0,180.0 253.5,99.2 280.9,158.0 308.4,213.5 335.8,204.3 363.3,216.3" fill="none" stroke="#1f3a5f" stroke-width="1.6"/>
<circle cx="88.7" cy="178.5" r="2.6" fill="#1f3a5f"/>
<circle cx="116.2" cy="135.1" r="2.6" fill="#1f3a5f"/>
<circle cx="143.6" cy="198.3" r="2.6" fill="#1f3a5f"/>
<circle cx="171.1" cy="195.3" r="2.6" fill="#1f3a5f"/>
<circle cx="198.5" cy="150.5" r="2.6" fill="#1f3a5f"/>
<circle cx="226.0" cy="180.0" r="2.6" fill="#1f3a5f"/>
<circle cx="253.5" cy="99.2" r="2.6" fill="#1f3a5f"/>
<circle cx="280.9" cy="158.0" r="2.6" fill="#1f3a5f"/>
<circle cx="308.4" cy="213.5" r="2.6" fill="#1f3a5f"/>
<circle cx="335.8" cy="204.3" r="2.6" fill="#1f3a5f"/>
<circle cx="363.3" cy="216.3" r="2.6" fill="#1f3a5f"/>
<line x1="212.3" y1="90" x2="212.3" y2="250" stroke="#b9461a" stroke-dasharray="3 3"/>
<line x1="75" y1="250" x2="377" y2="250" stroke="#444"/>
<line x1="75" y1="90" x2="75" y2="250" stroke="#444"/>
<line x1="88.7" y1="250" x2="88.7" y2="253" stroke="#444"/>
<text x="88.7" y="265" text-anchor="middle" fill="#444">-5</text>
<line x1="116.2" y1="250" x2="116.2" y2="253" stroke="#444"/>
<text x="116.2" y="265" text-anchor="middle" fill="#444">-4</text>
<line x1="143.6" y1="250" x2="143.6" y2="253" stroke="#444"/>
<text x="143.6" y="265" text-anchor="middle" fill="#444">-3</text>
<line x1="171.1" y1="250" x2="171.1" y2="253" stroke="#444"/>
<text x="171.1" y="265" text-anchor="middle" fill="#444">-2</text>
<line x1="198.5" y1="250" x2="198.5" y2="253" stroke="#444"/>
<text x="198.5" y="265" text-anchor="middle" fill="#444">-1</text>
<line x1="226.0" y1="250" x2="226.0" y2="253" stroke="#444"/>
<text x="226.0" y="265" text-anchor="middle" fill="#444">0</text>
<line x1="253.5" y1="250" x2="253.5" y2="253" stroke="#444"/>
<text x="253.5" y="265" text-anchor="middle" fill="#444">1</text>
<line x1="280.9" y1="250" x2="280.9" y2="253" stroke="#444"/>
<text x="280.9" y="265" text-anchor="middle" fill="#444">2</text>
<line x1="308.4" y1="250" x2="308.4" y2="253" stroke="#444"/>
<text x="308.4" y="265" text-anchor="middle" fill="#444">3</text>
<line x1="335.8" y1="250" x2="335.8" y2="253" stroke="#444"/>
<text x="335.8" y="265" text-anchor="middle" fill="#444">4</text>
<line x1="363.3" y1="250" x2="363.3" y2="253" stroke="#444"/>
<text x="363.3" y="265" text-anchor="middle" fill="#444">5</text>
<line x1="72" y1="250.0" x2="75" y2="250.0" stroke="#444"/>
<text x="69" y="253.0" text-anchor="end" fill="#444">-1.3</text>
<line x1="72" y1="210.0" x2="75" y2="210.0" stroke="#444"/>
<text x="69" y="213.0" text-anchor="end" fill="#444">-0.77</text>
<line x1="72" y1="170.0" x2="75" y2="170.0" stroke="#444"/>
<text x="69" y="173.0" text-anchor="end" fill="#444">-0.25</text>
<line x1="72" y1="130.0" x2="75" y2="130.0" stroke="#444"/>
<text x="69" y="133.0" text-anchor="end" fill="#444">0.27</text>
<line x1="72" y1="90.0" x2="75" y2="90.0" stroke="#444"/>
<text x="69" y="93.0" text-anchor="end" fill="#444">0.78</text>
<text x="226.0" y="284" text-anchor="middle" fill="#444">Event time (years from adoption)</text>
<text x="27" y="170.0" text-anchor="middle" fill="#444" transform="rotate(-90 27 170.0)">Coefficient (per 100k)</text>
<rect x="425" y="40" width="380" height="260" fill="#fafaf7" stroke="#e2e2dc"/>
<text x="615.0" y="58" text-anchor="middle" font-weight="600">State total suicide rate (per 100,000)</text>
<line x1="485" y1="147.3097167624345" x2="787" y2="147.3097167624345" stroke="#aaaaaa" stroke-width="0.7"/>
<polygon points="498.7,171.1 526.2,90.0 553.6,165.4 581.1,163.2 608.5,147.3 636.0,118.7 663.5,101.7 690.9,189.5 718.4,186.0 745.8,134.8 773.3,122.6 773.3,248.7 745.8,250.0 718.4,225.1 690.9,207.2 663.5,147.9 636.0,176.7 608.5,147.3 581.1,228.8 553.6,235.7 526.2,172.1 498.7,225.7" fill="#1f3a5f" opacity="0.18"/>
<polyline points="498.7,198.4 526.2,131.1 553.6,200.6 581.1,196.0 608.5,147.3 636.0,147.7 663.5,124.8 690.9,198.3 718.4,205.6 745.8,192.4 773.3,185.6" fill="none" stroke="#1f3a5f" stroke-width="1.6"/>
<circle cx="498.7" cy="198.4" r="2.6" fill="#1f3a5f"/>
<circle cx="526.2" cy="131.1" r="2.6" fill="#1f3a5f"/>
<circle cx="553.6" cy="200.6" r="2.6" fill="#1f3a5f"/>
<circle cx="581.1" cy="196.0" r="2.6" fill="#1f3a5f"/>
<circle cx="608.5" cy="147.3" r="2.6" fill="#1f3a5f"/>
<circle cx="636.0" cy="147.7" r="2.6" fill="#1f3a5f"/>
<circle cx="663.5" cy="124.8" r="2.6" fill="#1f3a5f"/>
<circle cx="690.9" cy="198.3" r="2.6" fill="#1f3a5f"/>
<circle cx="718.4" cy="205.6" r="2.6" fill="#1f3a5f"/>
<circle cx="745.8" cy="192.4" r="2.6" fill="#1f3a5f"/>
<circle cx="773.3" cy="185.6" r="2.6" fill="#1f3a5f"/>
<line x1="622.3" y1="90" x2="622.3" y2="250" stroke="#b9461a" stroke-dasharray="3 3"/>
<line x1="485" y1="250" x2="787" y2="250" stroke="#444"/>
<line x1="485" y1="90" x2="485" y2="250" stroke="#444"/>
<line x1="498.7" y1="250" x2="498.7" y2="253" stroke="#444"/>
<text x="498.7" y="265" text-anchor="middle" fill="#444">-5</text>
<line x1="526.2" y1="250" x2="526.2" y2="253" stroke="#444"/>
<text x="526.2" y="265" text-anchor="middle" fill="#444">-4</text>
<line x1="553.6" y1="250" x2="553.6" y2="253" stroke="#444"/>
<text x="553.6" y="265" text-anchor="middle" fill="#444">-3</text>
<line x1="581.1" y1="250" x2="581.1" y2="253" stroke="#444"/>
<text x="581.1" y="265" text-anchor="middle" fill="#444">-2</text>
<line x1="608.5" y1="250" x2="608.5" y2="253" stroke="#444"/>
<text x="608.5" y="265" text-anchor="middle" fill="#444">-1</text>
<line x1="636.0" y1="250" x2="636.0" y2="253" stroke="#444"/>
<text x="636.0" y="265" text-anchor="middle" fill="#444">0</text>
<line x1="663.5" y1="250" x2="663.5" y2="253" stroke="#444"/>
<text x="663.5" y="265" text-anchor="middle" fill="#444">1</text>
<line x1="690.9" y1="250" x2="690.9" y2="253" stroke="#444"/>
<text x="690.9" y="265" text-anchor="middle" fill="#444">2</text>
<line x1="718.4" y1="250" x2="718.4" y2="253" stroke="#444"/>
<text x="718.4" y="265" text-anchor="middle" fill="#444">3</text>
<line x1="745.8" y1="250" x2="745.8" y2="253" stroke="#444"/>
<text x="745.8" y="265" text-anchor="middle" fill="#444">4</text>
<line x1="773.3" y1="250" x2="773.3" y2="253" stroke="#444"/>
<text x="773.3" y="265" text-anchor="middle" fill="#444">5</text>
<line x1="482" y1="250.0" x2="485" y2="250.0" stroke="#444"/>
<text x="479" y="253.0" text-anchor="end" fill="#444">-1.4</text>
<line x1="482" y1="210.0" x2="485" y2="210.0" stroke="#444"/>
<text x="479" y="213.0" text-anchor="end" fill="#444">-0.84</text>
<line x1="482" y1="170.0" x2="485" y2="170.0" stroke="#444"/>
<text x="479" y="173.0" text-anchor="end" fill="#444">-0.3</text>
<line x1="482" y1="130.0" x2="485" y2="130.0" stroke="#444"/>
<text x="479" y="133.0" text-anchor="end" fill="#444">0.23</text>
<line x1="482" y1="90.0" x2="485" y2="90.0" stroke="#444"/>
<text x="479" y="93.0" text-anchor="end" fill="#444">0.77</text>
<text x="636.0" y="284" text-anchor="middle" fill="#444">Event time (years from adoption)</text>
<text x="437" y="170.0" text-anchor="middle" fill="#444" transform="rotate(-90 437 170.0)">Coefficient (per 100k)</text>
<rect x="15" y="330" width="380" height="260" fill="#fafaf7" stroke="#e2e2dc"/>
<text x="205.0" y="348" text-anchor="middle" font-weight="600">State non-firearm suicide rate (per 100,000) [substitution]</text>
<line x1="75" y1="472.9743502802971" x2="377" y2="472.9743502802971" stroke="#aaaaaa" stroke-width="0.7"/>
<polygon points="88.7,492.1 116.2,431.9 143.6,453.5 171.1,454.7 198.5,473.0 226.0,394.6 253.5,487.9 280.9,525.7 308.4,427.9 335.8,440.2 363.3,380.0 363.3,496.8 335.8,486.7 308.4,510.7 280.9,540.0 253.5,532.2 226.0,474.3 198.5,473.0 171.1,505.8 143.6,511.6 116.2,510.3 88.7,519.5" fill="#1f3a5f" opacity="0.18"/>
<polyline points="88.7,505.8 116.2,471.1 143.6,482.6 171.1,480.3 198.5,473.0 226.0,434.5 253.5,510.1 280.9,532.8 308.4,469.3 335.8,463.5 363.3,438.4" fill="none" stroke="#1f3a5f" stroke-width="1.6"/>
<circle cx="88.7" cy="505.8" r="2.6" fill="#1f3a5f"/>
<circle cx="116.2" cy="471.1" r="2.6" fill="#1f3a5f"/>
<circle cx="143.6" cy="482.6" r="2.6" fill="#1f3a5f"/>
<circle cx="171.1" cy="480.3" r="2.6" fill="#1f3a5f"/>
<circle cx="198.5" cy="473.0" r="2.6" fill="#1f3a5f"/>
<circle cx="226.0" cy="434.5" r="2.6" fill="#1f3a5f"/>
<circle cx="253.5" cy="510.1" r="2.6" fill="#1f3a5f"/>
<circle cx="280.9" cy="532.8" r="2.6" fill="#1f3a5f"/>
<circle cx="308.4" cy="469.3" r="2.6" fill="#1f3a5f"/>
<circle cx="335.8" cy="463.5" r="2.6" fill="#1f3a5f"/>
<circle cx="363.3" cy="438.4" r="2.6" fill="#1f3a5f"/>
<line x1="212.3" y1="380" x2="212.3" y2="540" stroke="#b9461a" stroke-dasharray="3 3"/>
<line x1="75" y1="540" x2="377" y2="540" stroke="#444"/>
<line x1="75" y1="380" x2="75" y2="540" stroke="#444"/>
<line x1="88.7" y1="540" x2="88.7" y2="543" stroke="#444"/>
<text x="88.7" y="555" text-anchor="middle" fill="#444">-5</text>
<line x1="116.2" y1="540" x2="116.2" y2="543" stroke="#444"/>
<text x="116.2" y="555" text-anchor="middle" fill="#444">-4</text>
<line x1="143.6" y1="540" x2="143.6" y2="543" stroke="#444"/>
<text x="143.6" y="555" text-anchor="middle" fill="#444">-3</text>
<line x1="171.1" y1="540" x2="171.1" y2="543" stroke="#444"/>
<text x="171.1" y="555" text-anchor="middle" fill="#444">-2</text>
<line x1="198.5" y1="540" x2="198.5" y2="543" stroke="#444"/>
<text x="198.5" y="555" text-anchor="middle" fill="#444">-1</text>
<line x1="226.0" y1="540" x2="226.0" y2="543" stroke="#444"/>
<text x="226.0" y="555" text-anchor="middle" fill="#444">0</text>
<line x1="253.5" y1="540" x2="253.5" y2="543" stroke="#444"/>
<text x="253.5" y="555" text-anchor="middle" fill="#444">1</text>
<line x1="280.9" y1="540" x2="280.9" y2="543" stroke="#444"/>
<text x="280.9" y="555" text-anchor="middle" fill="#444">2</text>
<line x1="308.4" y1="540" x2="308.4" y2="543" stroke="#444"/>
<text x="308.4" y="555" text-anchor="middle" fill="#444">3</text>
<line x1="335.8" y1="540" x2="335.8" y2="543" stroke="#444"/>
<text x="335.8" y="555" text-anchor="middle" fill="#444">4</text>
<line x1="363.3" y1="540" x2="363.3" y2="543" stroke="#444"/>
<text x="363.3" y="555" text-anchor="middle" fill="#444">5</text>
<line x1="72" y1="540.0" x2="75" y2="540.0" stroke="#444"/>
<text x="69" y="543.0" text-anchor="end" fill="#444">-0.66</text>
<line x1="72" y1="500.0" x2="75" y2="500.0" stroke="#444"/>
<text x="69" y="503.0" text-anchor="end" fill="#444">-0.26</text>
<line x1="72" y1="460.0" x2="75" y2="460.0" stroke="#444"/>
<text x="69" y="463.0" text-anchor="end" fill="#444">0.13</text>
<line x1="72" y1="420.0" x2="75" y2="420.0" stroke="#444"/>
<text x="69" y="423.0" text-anchor="end" fill="#444">0.52</text>
<line x1="72" y1="380.0" x2="75" y2="380.0" stroke="#444"/>
<text x="69" y="383.0" text-anchor="end" fill="#444">0.91</text>
<text x="226.0" y="574" text-anchor="middle" fill="#444">Event time (years from adoption)</text>
<text x="27" y="460.0" text-anchor="middle" fill="#444" transform="rotate(-90 27 460.0)">Coefficient (per 100k)</text>
<rect x="425" y="330" width="380" height="260" fill="#fafaf7" stroke="#e2e2dc"/>
<text x="615.0" y="348" text-anchor="middle" font-weight="600">State firearm homicide rate (per 100,000)</text>
<line x1="485" y1="458.2988053475375" x2="787" y2="458.2988053475375" stroke="#aaaaaa" stroke-width="0.7"/>
<polygon points="498.7,465.7 526.2,468.4 553.6,432.7 581.1,380.0 608.5,458.3 636.0,440.6 663.5,521.1 690.9,383.4 718.4,429.1 745.8,421.9 773.3,435.6 773.3,441.7 745.8,443.7 718.4,446.9 690.9,418.5 663.5,540.0 636.0,466.1 608.5,458.3 581.1,446.8 553.6,470.8 526.2,490.1 498.7,502.0" fill="#1f3a5f" opacity="0.18"/>
<polyline points="498.7,483.9 526.2,479.3 553.6,451.7 581.1,413.4 608.5,458.3 636.0,453.4 663.5,530.6 690.9,401.0 718.4,438.0 745.8,432.8 773.3,438.6" fill="none" stroke="#1f3a5f" stroke-width="1.6"/>
<circle cx="498.7" cy="483.9" r="2.6" fill="#1f3a5f"/>
<circle cx="526.2" cy="479.3" r="2.6" fill="#1f3a5f"/>
<circle cx="553.6" cy="451.7" r="2.6" fill="#1f3a5f"/>
<circle cx="581.1" cy="413.4" r="2.6" fill="#1f3a5f"/>
<circle cx="608.5" cy="458.3" r="2.6" fill="#1f3a5f"/>
<circle cx="636.0" cy="453.4" r="2.6" fill="#1f3a5f"/>
<circle cx="663.5" cy="530.6" r="2.6" fill="#1f3a5f"/>
<circle cx="690.9" cy="401.0" r="2.6" fill="#1f3a5f"/>
<circle cx="718.4" cy="438.0" r="2.6" fill="#1f3a5f"/>
<circle cx="745.8" cy="432.8" r="2.6" fill="#1f3a5f"/>
<circle cx="773.3" cy="438.6" r="2.6" fill="#1f3a5f"/>
<line x1="622.3" y1="380" x2="622.3" y2="540" stroke="#b9461a" stroke-dasharray="3 3"/>
<line x1="485" y1="540" x2="787" y2="540" stroke="#444"/>
<line x1="485" y1="380" x2="485" y2="540" stroke="#444"/>
<line x1="498.7" y1="540" x2="498.7" y2="543" stroke="#444"/>
<text x="498.7" y="555" text-anchor="middle" fill="#444">-5</text>
<line x1="526.2" y1="540" x2="526.2" y2="543" stroke="#444"/>
<text x="526.2" y="555" text-anchor="middle" fill="#444">-4</text>
<line x1="553.6" y1="540" x2="553.6" y2="543" stroke="#444"/>
<text x="553.6" y="555" text-anchor="middle" fill="#444">-3</text>
<line x1="581.1" y1="540" x2="581.1" y2="543" stroke="#444"/>
<text x="581.1" y="555" text-anchor="middle" fill="#444">-2</text>
<line x1="608.5" y1="540" x2="608.5" y2="543" stroke="#444"/>
<text x="608.5" y="555" text-anchor="middle" fill="#444">-1</text>
<line x1="636.0" y1="540" x2="636.0" y2="543" stroke="#444"/>
<text x="636.0" y="555" text-anchor="middle" fill="#444">0</text>
<line x1="663.5" y1="540" x2="663.5" y2="543" stroke="#444"/>
<text x="663.5" y="555" text-anchor="middle" fill="#444">1</text>
<line x1="690.9" y1="540" x2="690.9" y2="543" stroke="#444"/>
<text x="690.9" y="555" text-anchor="middle" fill="#444">2</text>
<line x1="718.4" y1="540" x2="718.4" y2="543" stroke="#444"/>
<text x="718.4" y="555" text-anchor="middle" fill="#444">3</text>
<line x1="745.8" y1="540" x2="745.8" y2="543" stroke="#444"/>
<text x="745.8" y="555" text-anchor="middle" fill="#444">4</text>
<line x1="773.3" y1="540" x2="773.3" y2="543" stroke="#444"/>
<text x="773.3" y="555" text-anchor="middle" fill="#444">5</text>
<line x1="482" y1="540.0" x2="485" y2="540.0" stroke="#444"/>
<text x="479" y="543.0" text-anchor="end" fill="#444">-1.8</text>
<line x1="482" y1="500.0" x2="485" y2="500.0" stroke="#444"/>
<text x="479" y="503.0" text-anchor="end" fill="#444">-0.93</text>
<line x1="482" y1="460.0" x2="485" y2="460.0" stroke="#444"/>
<text x="479" y="463.0" text-anchor="end" fill="#444">-0.038</text>
<line x1="482" y1="420.0" x2="485" y2="420.0" stroke="#444"/>
<text x="479" y="423.0" text-anchor="end" fill="#444">0.86</text>
<line x1="482" y1="380.0" x2="485" y2="380.0" stroke="#444"/>
<text x="479" y="383.0" text-anchor="end" fill="#444">1.8</text>
<text x="636.0" y="574" text-anchor="middle" fill="#444">Event time (years from adoption)</text>
<text x="437" y="460.0" text-anchor="middle" fill="#444" transform="rotate(-90 437 460.0)">Coefficient (per 100k)</text>
<text x="805" y="608" text-anchor="end" fill="#888" font-size="10">Shaded band: pointwise 95% CI from cluster-robust SE. Vertical dashed line marks the year before adoption.</text>
</svg>