<svg xmlns="http://www.w3.org/2000/svg" viewBox="0 0 820 910" font-family="-apple-system, Segoe UI, Helvetica, Arial, sans-serif" font-size="11">
<text x="410.0" y="22" text-anchor="middle" font-size="14" font-weight="600">Spatial RDD event study (assault_weapons_ban, primary outcomes)</text>
<rect x="15" y="40" width="380" height="260" fill="#fafaf7" stroke="#e2e2dc"/>
<text x="205.0" y="58" text-anchor="middle" font-weight="600">County violent crime rate (per 100,000)</text>
<line x1="75" y1="132.21978828264832" x2="377" y2="132.21978828264832" stroke="#aaaaaa" stroke-width="0.7"/>
<polygon points="88.7,97.4 116.2,94.1 143.6,121.0 171.1,176.4 198.5,132.2 226.0,121.0 253.5,105.9 280.9,128.2 308.4,122.3 335.8,115.6 363.3,90.0 363.3,113.8 335.8,124.1 308.4,134.9 280.9,157.5 253.5,142.0 226.0,164.1 198.5,132.2 171.1,250.0 143.6,166.7 116.2,128.1 88.7,123.9" fill="#1f3a5f" opacity="0.18"/>
<polyline points="88.7,110.6 116.2,111.1 143.6,143.9 171.1,213.2 198.5,132.2 226.0,142.6 253.5,124.0 280.9,142.8 308.4,128.6 335.8,119.8 363.3,101.9" fill="none" stroke="#1f3a5f" stroke-width="1.6"/>
<circle cx="88.7" cy="110.6" r="2.6" fill="#1f3a5f"/>
<circle cx="116.2" cy="111.1" r="2.6" fill="#1f3a5f"/>
<circle cx="143.6" cy="143.9" r="2.6" fill="#1f3a5f"/>
<circle cx="171.1" cy="213.2" r="2.6" fill="#1f3a5f"/>
<circle cx="198.5" cy="132.2" r="2.6" fill="#1f3a5f"/>
<circle cx="226.0" cy="142.6" r="2.6" fill="#1f3a5f"/>
<circle cx="253.5" cy="124.0" r="2.6" fill="#1f3a5f"/>
<circle cx="280.9" cy="142.8" r="2.6" fill="#1f3a5f"/>
<circle cx="308.4" cy="128.6" r="2.6" fill="#1f3a5f"/>
<circle cx="335.8" cy="119.8" r="2.6" fill="#1f3a5f"/>
<circle cx="363.3" cy="101.9" r="2.6" fill="#1f3a5f"/>
<line x1="212.3" y1="90" x2="212.3" y2="250" stroke="#b9461a" stroke-dasharray="3 3"/>
<line x1="75" y1="250" x2="377" y2="250" stroke="#444"/>
<line x1="75" y1="90" x2="75" y2="250" stroke="#444"/>
<line x1="88.7" y1="250" x2="88.7" y2="253" stroke="#444"/>
<text x="88.7" y="265" text-anchor="middle" fill="#444">-5</text>
<line x1="116.2" y1="250" x2="116.2" y2="253" stroke="#444"/>
<text x="116.2" y="265" text-anchor="middle" fill="#444">-4</text>
<line x1="143.6" y1="250" x2="143.6" y2="253" stroke="#444"/>
<text x="143.6" y="265" text-anchor="middle" fill="#444">-3</text>
<line x1="171.1" y1="250" x2="171.1" y2="253" stroke="#444"/>
<text x="171.1" y="265" text-anchor="middle" fill="#444">-2</text>
<line x1="198.5" y1="250" x2="198.5" y2="253" stroke="#444"/>
<text x="198.5" y="265" text-anchor="middle" fill="#444">-1</text>
<line x1="226.0" y1="250" x2="226.0" y2="253" stroke="#444"/>
<text x="226.0" y="265" text-anchor="middle" fill="#444">0</text>
<line x1="253.5" y1="250" x2="253.5" y2="253" stroke="#444"/>
<text x="253.5" y="265" text-anchor="middle" fill="#444">1</text>
<line x1="280.9" y1="250" x2="280.9" y2="253" stroke="#444"/>
<text x="280.9" y="265" text-anchor="middle" fill="#444">2</text>
<line x1="308.4" y1="250" x2="308.4" y2="253" stroke="#444"/>
<text x="308.4" y="265" text-anchor="middle" fill="#444">3</text>
<line x1="335.8" y1="250" x2="335.8" y2="253" stroke="#444"/>
<text x="335.8" y="265" text-anchor="middle" fill="#444">4</text>
<line x1="363.3" y1="250" x2="363.3" y2="253" stroke="#444"/>
<text x="363.3" y="265" text-anchor="middle" fill="#444">5</text>
<line x1="72" y1="250.0" x2="75" y2="250.0" stroke="#444"/>
<text x="69" y="253.0" text-anchor="end" fill="#444">-1.4e+02</text>
<line x1="72" y1="210.0" x2="75" y2="210.0" stroke="#444"/>
<text x="69" y="213.0" text-anchor="end" fill="#444">-93</text>
<line x1="72" y1="170.0" x2="75" y2="170.0" stroke="#444"/>
<text x="69" y="173.0" text-anchor="end" fill="#444">-45</text>
<line x1="72" y1="130.0" x2="75" y2="130.0" stroke="#444"/>
<text x="69" y="133.0" text-anchor="end" fill="#444">2.6</text>
<line x1="72" y1="90.0" x2="75" y2="90.0" stroke="#444"/>
<text x="69" y="93.0" text-anchor="end" fill="#444">50</text>
<text x="226.0" y="284" text-anchor="middle" fill="#444">Event time (years from adoption)</text>
<text x="27" y="170.0" text-anchor="middle" fill="#444" transform="rotate(-90 27 170.0)">Coefficient (per 100k)</text>
<rect x="425" y="40" width="380" height="260" fill="#fafaf7" stroke="#e2e2dc"/>
<text x="615.0" y="58" text-anchor="middle" font-weight="600">County murder rate (per 100,000)</text>
<line x1="485" y1="121.9438767158029" x2="787" y2="121.9438767158029" stroke="#aaaaaa" stroke-width="0.7"/>
<polygon points="498.7,135.0 526.2,109.3 553.6,103.7 581.1,141.2 608.5,121.9 636.0,119.8 663.5,115.3 690.9,110.3 718.4,122.6 745.8,90.0 773.3,99.8 773.3,115.1 745.8,110.6 718.4,149.3 690.9,156.4 663.5,202.7 636.0,224.9 608.5,121.9 581.1,250.0 553.6,225.4 526.2,194.8 498.7,234.7" fill="#1f3a5f" opacity="0.18"/>
<polyline points="498.7,184.9 526.2,152.1 553.6,164.6 581.1,195.6 608.5,121.9 636.0,172.3 663.5,159.0 690.9,133.3 718.4,136.0 745.8,100.3 773.3,107.5" fill="none" stroke="#1f3a5f" stroke-width="1.6"/>
<circle cx="498.7" cy="184.9" r="2.6" fill="#1f3a5f"/>
<circle cx="526.2" cy="152.1" r="2.6" fill="#1f3a5f"/>
<circle cx="553.6" cy="164.6" r="2.6" fill="#1f3a5f"/>
<circle cx="581.1" cy="195.6" r="2.6" fill="#1f3a5f"/>
<circle cx="608.5" cy="121.9" r="2.6" fill="#1f3a5f"/>
<circle cx="636.0" cy="172.3" r="2.6" fill="#1f3a5f"/>
<circle cx="663.5" cy="159.0" r="2.6" fill="#1f3a5f"/>
<circle cx="690.9" cy="133.3" r="2.6" fill="#1f3a5f"/>
<circle cx="718.4" cy="136.0" r="2.6" fill="#1f3a5f"/>
<circle cx="745.8" cy="100.3" r="2.6" fill="#1f3a5f"/>
<circle cx="773.3" cy="107.5" r="2.6" fill="#1f3a5f"/>
<line x1="622.3" y1="90" x2="622.3" y2="250" stroke="#b9461a" stroke-dasharray="3 3"/>
<line x1="485" y1="250" x2="787" y2="250" stroke="#444"/>
<line x1="485" y1="90" x2="485" y2="250" stroke="#444"/>
<line x1="498.7" y1="250" x2="498.7" y2="253" stroke="#444"/>
<text x="498.7" y="265" text-anchor="middle" fill="#444">-5</text>
<line x1="526.2" y1="250" x2="526.2" y2="253" stroke="#444"/>
<text x="526.2" y="265" text-anchor="middle" fill="#444">-4</text>
<line x1="553.6" y1="250" x2="553.6" y2="253" stroke="#444"/>
<text x="553.6" y="265" text-anchor="middle" fill="#444">-3</text>
<line x1="581.1" y1="250" x2="581.1" y2="253" stroke="#444"/>
<text x="581.1" y="265" text-anchor="middle" fill="#444">-2</text>
<line x1="608.5" y1="250" x2="608.5" y2="253" stroke="#444"/>
<text x="608.5" y="265" text-anchor="middle" fill="#444">-1</text>
<line x1="636.0" y1="250" x2="636.0" y2="253" stroke="#444"/>
<text x="636.0" y="265" text-anchor="middle" fill="#444">0</text>
<line x1="663.5" y1="250" x2="663.5" y2="253" stroke="#444"/>
<text x="663.5" y="265" text-anchor="middle" fill="#444">1</text>
<line x1="690.9" y1="250" x2="690.9" y2="253" stroke="#444"/>
<text x="690.9" y="265" text-anchor="middle" fill="#444">2</text>
<line x1="718.4" y1="250" x2="718.4" y2="253" stroke="#444"/>
<text x="718.4" y="265" text-anchor="middle" fill="#444">3</text>
<line x1="745.8" y1="250" x2="745.8" y2="253" stroke="#444"/>
<text x="745.8" y="265" text-anchor="middle" fill="#444">4</text>
<line x1="773.3" y1="250" x2="773.3" y2="253" stroke="#444"/>
<text x="773.3" y="265" text-anchor="middle" fill="#444">5</text>
<line x1="482" y1="250.0" x2="485" y2="250.0" stroke="#444"/>
<text x="479" y="253.0" text-anchor="end" fill="#444">-5.4</text>
<line x1="482" y1="210.0" x2="485" y2="210.0" stroke="#444"/>
<text x="479" y="213.0" text-anchor="end" fill="#444">-3.7</text>
<line x1="482" y1="170.0" x2="485" y2="170.0" stroke="#444"/>
<text x="479" y="173.0" text-anchor="end" fill="#444">-2</text>
<line x1="482" y1="130.0" x2="485" y2="130.0" stroke="#444"/>
<text x="479" y="133.0" text-anchor="end" fill="#444">-0.34</text>
<line x1="482" y1="90.0" x2="485" y2="90.0" stroke="#444"/>
<text x="479" y="93.0" text-anchor="end" fill="#444">1.4</text>
<text x="636.0" y="284" text-anchor="middle" fill="#444">Event time (years from adoption)</text>
<text x="437" y="170.0" text-anchor="middle" fill="#444" transform="rotate(-90 437 170.0)">Coefficient (per 100k)</text>
<rect x="15" y="330" width="380" height="260" fill="#fafaf7" stroke="#e2e2dc"/>
<text x="205.0" y="348" text-anchor="middle" font-weight="600">County property crime rate (per 100,000)</text>
<line x1="75" y1="437.5054381113449" x2="377" y2="437.5054381113449" stroke="#aaaaaa" stroke-width="0.7"/>
<polygon points="88.7,380.2 116.2,380.0 143.6,414.7 171.1,470.8 198.5,437.5 226.0,408.6 253.5,380.6 280.9,410.1 308.4,398.9 335.8,383.8 363.3,408.6 363.3,430.1 335.8,438.7 308.4,416.3 280.9,433.4 253.5,435.8 226.0,447.6 198.5,437.5 171.1,540.0 143.6,464.9 116.2,441.3 88.7,446.5" fill="#1f3a5f" opacity="0.18"/>
<polyline points="88.7,413.3 116.2,410.6 143.6,439.8 171.1,505.4 198.5,437.5 226.0,428.1 253.5,408.2 280.9,421.8 308.4,407.6 335.8,411.3 363.3,419.3" fill="none" stroke="#1f3a5f" stroke-width="1.6"/>
<circle cx="88.7" cy="413.3" r="2.6" fill="#1f3a5f"/>
<circle cx="116.2" cy="410.6" r="2.6" fill="#1f3a5f"/>
<circle cx="143.6" cy="439.8" r="2.6" fill="#1f3a5f"/>
<circle cx="171.1" cy="505.4" r="2.6" fill="#1f3a5f"/>
<circle cx="198.5" cy="437.5" r="2.6" fill="#1f3a5f"/>
<circle cx="226.0" cy="428.1" r="2.6" fill="#1f3a5f"/>
<circle cx="253.5" cy="408.2" r="2.6" fill="#1f3a5f"/>
<circle cx="280.9" cy="421.8" r="2.6" fill="#1f3a5f"/>
<circle cx="308.4" cy="407.6" r="2.6" fill="#1f3a5f"/>
<circle cx="335.8" cy="411.3" r="2.6" fill="#1f3a5f"/>
<circle cx="363.3" cy="419.3" r="2.6" fill="#1f3a5f"/>
<line x1="212.3" y1="380" x2="212.3" y2="540" stroke="#b9461a" stroke-dasharray="3 3"/>
<line x1="75" y1="540" x2="377" y2="540" stroke="#444"/>
<line x1="75" y1="380" x2="75" y2="540" stroke="#444"/>
<line x1="88.7" y1="540" x2="88.7" y2="543" stroke="#444"/>
<text x="88.7" y="555" text-anchor="middle" fill="#444">-5</text>
<line x1="116.2" y1="540" x2="116.2" y2="543" stroke="#444"/>
<text x="116.2" y="555" text-anchor="middle" fill="#444">-4</text>
<line x1="143.6" y1="540" x2="143.6" y2="543" stroke="#444"/>
<text x="143.6" y="555" text-anchor="middle" fill="#444">-3</text>
<line x1="171.1" y1="540" x2="171.1" y2="543" stroke="#444"/>
<text x="171.1" y="555" text-anchor="middle" fill="#444">-2</text>
<line x1="198.5" y1="540" x2="198.5" y2="543" stroke="#444"/>
<text x="198.5" y="555" text-anchor="middle" fill="#444">-1</text>
<line x1="226.0" y1="540" x2="226.0" y2="543" stroke="#444"/>
<text x="226.0" y="555" text-anchor="middle" fill="#444">0</text>
<line x1="253.5" y1="540" x2="253.5" y2="543" stroke="#444"/>
<text x="253.5" y="555" text-anchor="middle" fill="#444">1</text>
<line x1="280.9" y1="540" x2="280.9" y2="543" stroke="#444"/>
<text x="280.9" y="555" text-anchor="middle" fill="#444">2</text>
<line x1="308.4" y1="540" x2="308.4" y2="543" stroke="#444"/>
<text x="308.4" y="555" text-anchor="middle" fill="#444">3</text>
<line x1="335.8" y1="540" x2="335.8" y2="543" stroke="#444"/>
<text x="335.8" y="555" text-anchor="middle" fill="#444">4</text>
<line x1="363.3" y1="540" x2="363.3" y2="543" stroke="#444"/>
<text x="363.3" y="555" text-anchor="middle" fill="#444">5</text>
<line x1="72" y1="540.0" x2="75" y2="540.0" stroke="#444"/>
<text x="69" y="543.0" text-anchor="end" fill="#444">-4.5e+02</text>
<line x1="72" y1="500.0" x2="75" y2="500.0" stroke="#444"/>
<text x="69" y="503.0" text-anchor="end" fill="#444">-2.7e+02</text>
<line x1="72" y1="460.0" x2="75" y2="460.0" stroke="#444"/>
<text x="69" y="463.0" text-anchor="end" fill="#444">-98</text>
<line x1="72" y1="420.0" x2="75" y2="420.0" stroke="#444"/>
<text x="69" y="423.0" text-anchor="end" fill="#444">77</text>
<line x1="72" y1="380.0" x2="75" y2="380.0" stroke="#444"/>
<text x="69" y="383.0" text-anchor="end" fill="#444">2.5e+02</text>
<text x="226.0" y="574" text-anchor="middle" fill="#444">Event time (years from adoption)</text>
<text x="27" y="460.0" text-anchor="middle" fill="#444" transform="rotate(-90 27 460.0)">Coefficient (per 100k)</text>
<rect x="425" y="330" width="380" height="260" fill="#fafaf7" stroke="#e2e2dc"/>
<text x="615.0" y="348" text-anchor="middle" font-weight="600">County burglary rate (per 100,000) [placebo]</text>
<line x1="485" y1="463.74144678949995" x2="787" y2="463.74144678949995" stroke="#aaaaaa" stroke-width="0.7"/>
<polygon points="498.7,427.8 526.2,419.5 553.6,449.6 581.1,491.8 608.5,463.7 636.0,427.9 663.5,380.0 690.9,448.6 718.4,468.6 745.8,422.3 773.3,433.6 773.3,471.9 745.8,473.6 718.4,480.6 690.9,464.9 663.5,458.3 636.0,467.3 608.5,463.7 581.1,540.0 553.6,486.4 526.2,473.1 498.7,471.8" fill="#1f3a5f" opacity="0.18"/>
<polyline points="498.7,449.8 526.2,446.3 553.6,468.0 581.1,515.9 608.5,463.7 636.0,447.6 663.5,419.2 690.9,456.7 718.4,474.6 745.8,448.0 773.3,452.7" fill="none" stroke="#1f3a5f" stroke-width="1.6"/>
<circle cx="498.7" cy="449.8" r="2.6" fill="#1f3a5f"/>
<circle cx="526.2" cy="446.3" r="2.6" fill="#1f3a5f"/>
<circle cx="553.6" cy="468.0" r="2.6" fill="#1f3a5f"/>
<circle cx="581.1" cy="515.9" r="2.6" fill="#1f3a5f"/>
<circle cx="608.5" cy="463.7" r="2.6" fill="#1f3a5f"/>
<circle cx="636.0" cy="447.6" r="2.6" fill="#1f3a5f"/>
<circle cx="663.5" cy="419.2" r="2.6" fill="#1f3a5f"/>
<circle cx="690.9" cy="456.7" r="2.6" fill="#1f3a5f"/>
<circle cx="718.4" cy="474.6" r="2.6" fill="#1f3a5f"/>
<circle cx="745.8" cy="448.0" r="2.6" fill="#1f3a5f"/>
<circle cx="773.3" cy="452.7" r="2.6" fill="#1f3a5f"/>
<line x1="622.3" y1="380" x2="622.3" y2="540" stroke="#b9461a" stroke-dasharray="3 3"/>
<line x1="485" y1="540" x2="787" y2="540" stroke="#444"/>
<line x1="485" y1="380" x2="485" y2="540" stroke="#444"/>
<line x1="498.7" y1="540" x2="498.7" y2="543" stroke="#444"/>
<text x="498.7" y="555" text-anchor="middle" fill="#444">-5</text>
<line x1="526.2" y1="540" x2="526.2" y2="543" stroke="#444"/>
<text x="526.2" y="555" text-anchor="middle" fill="#444">-4</text>
<line x1="553.6" y1="540" x2="553.6" y2="543" stroke="#444"/>
<text x="553.6" y="555" text-anchor="middle" fill="#444">-3</text>
<line x1="581.1" y1="540" x2="581.1" y2="543" stroke="#444"/>
<text x="581.1" y="555" text-anchor="middle" fill="#444">-2</text>
<line x1="608.5" y1="540" x2="608.5" y2="543" stroke="#444"/>
<text x="608.5" y="555" text-anchor="middle" fill="#444">-1</text>
<line x1="636.0" y1="540" x2="636.0" y2="543" stroke="#444"/>
<text x="636.0" y="555" text-anchor="middle" fill="#444">0</text>
<line x1="663.5" y1="540" x2="663.5" y2="543" stroke="#444"/>
<text x="663.5" y="555" text-anchor="middle" fill="#444">1</text>
<line x1="690.9" y1="540" x2="690.9" y2="543" stroke="#444"/>
<text x="690.9" y="555" text-anchor="middle" fill="#444">2</text>
<line x1="718.4" y1="540" x2="718.4" y2="543" stroke="#444"/>
<text x="718.4" y="555" text-anchor="middle" fill="#444">3</text>
<line x1="745.8" y1="540" x2="745.8" y2="543" stroke="#444"/>
<text x="745.8" y="555" text-anchor="middle" fill="#444">4</text>
<line x1="773.3" y1="540" x2="773.3" y2="543" stroke="#444"/>
<text x="773.3" y="555" text-anchor="middle" fill="#444">5</text>
<line x1="482" y1="540.0" x2="485" y2="540.0" stroke="#444"/>
<text x="479" y="543.0" text-anchor="end" fill="#444">-99</text>
<line x1="482" y1="500.0" x2="485" y2="500.0" stroke="#444"/>
<text x="479" y="503.0" text-anchor="end" fill="#444">-47</text>
<line x1="482" y1="460.0" x2="485" y2="460.0" stroke="#444"/>
<text x="479" y="463.0" text-anchor="end" fill="#444">4.9</text>
<line x1="482" y1="420.0" x2="485" y2="420.0" stroke="#444"/>
<text x="479" y="423.0" text-anchor="end" fill="#444">57</text>
<line x1="482" y1="380.0" x2="485" y2="380.0" stroke="#444"/>
<text x="479" y="383.0" text-anchor="end" fill="#444">1.1e+02</text>
<text x="636.0" y="574" text-anchor="middle" fill="#444">Event time (years from adoption)</text>
<text x="437" y="460.0" text-anchor="middle" fill="#444" transform="rotate(-90 437 460.0)">Coefficient (per 100k)</text>
<rect x="15" y="620" width="380" height="260" fill="#fafaf7" stroke="#e2e2dc"/>
<text x="205.0" y="638" text-anchor="middle" font-weight="600">County motor vehicle theft rate (per 100,000) [placebo]</text>
<line x1="75" y1="718.0317272938162" x2="377" y2="718.0317272938162" stroke="#aaaaaa" stroke-width="0.7"/>
<polygon points="88.7,683.3 116.2,688.9 143.6,716.0 171.1,761.0 198.5,718.0 226.0,677.9 253.5,670.0 280.9,696.6 308.4,704.5 335.8,694.3 363.3,716.5 363.3,724.3 335.8,749.7 308.4,735.2 280.9,738.7 253.5,709.5 226.0,728.8 198.5,718.0 171.1,830.0 143.6,772.1 116.2,740.2 88.7,757.1" fill="#1f3a5f" opacity="0.18"/>
<polyline points="88.7,720.2 116.2,714.6 143.6,744.1 171.1,795.5 198.5,718.0 226.0,703.4 253.5,689.7 280.9,717.6 308.4,719.8 335.8,722.0 363.3,720.4" fill="none" stroke="#1f3a5f" stroke-width="1.6"/>
<circle cx="88.7" cy="720.2" r="2.6" fill="#1f3a5f"/>
<circle cx="116.2" cy="714.6" r="2.6" fill="#1f3a5f"/>
<circle cx="143.6" cy="744.1" r="2.6" fill="#1f3a5f"/>
<circle cx="171.1" cy="795.5" r="2.6" fill="#1f3a5f"/>
<circle cx="198.5" cy="718.0" r="2.6" fill="#1f3a5f"/>
<circle cx="226.0" cy="703.4" r="2.6" fill="#1f3a5f"/>
<circle cx="253.5" cy="689.7" r="2.6" fill="#1f3a5f"/>
<circle cx="280.9" cy="717.6" r="2.6" fill="#1f3a5f"/>
<circle cx="308.4" cy="719.8" r="2.6" fill="#1f3a5f"/>
<circle cx="335.8" cy="722.0" r="2.6" fill="#1f3a5f"/>
<circle cx="363.3" cy="720.4" r="2.6" fill="#1f3a5f"/>
<line x1="212.3" y1="670" x2="212.3" y2="830" stroke="#b9461a" stroke-dasharray="3 3"/>
<line x1="75" y1="830" x2="377" y2="830" stroke="#444"/>
<line x1="75" y1="670" x2="75" y2="830" stroke="#444"/>
<line x1="88.7" y1="830" x2="88.7" y2="833" stroke="#444"/>
<text x="88.7" y="845" text-anchor="middle" fill="#444">-5</text>
<line x1="116.2" y1="830" x2="116.2" y2="833" stroke="#444"/>
<text x="116.2" y="845" text-anchor="middle" fill="#444">-4</text>
<line x1="143.6" y1="830" x2="143.6" y2="833" stroke="#444"/>
<text x="143.6" y="845" text-anchor="middle" fill="#444">-3</text>
<line x1="171.1" y1="830" x2="171.1" y2="833" stroke="#444"/>
<text x="171.1" y="845" text-anchor="middle" fill="#444">-2</text>
<line x1="198.5" y1="830" x2="198.5" y2="833" stroke="#444"/>
<text x="198.5" y="845" text-anchor="middle" fill="#444">-1</text>
<line x1="226.0" y1="830" x2="226.0" y2="833" stroke="#444"/>
<text x="226.0" y="845" text-anchor="middle" fill="#444">0</text>
<line x1="253.5" y1="830" x2="253.5" y2="833" stroke="#444"/>
<text x="253.5" y="845" text-anchor="middle" fill="#444">1</text>
<line x1="280.9" y1="830" x2="280.9" y2="833" stroke="#444"/>
<text x="280.9" y="845" text-anchor="middle" fill="#444">2</text>
<line x1="308.4" y1="830" x2="308.4" y2="833" stroke="#444"/>
<text x="308.4" y="845" text-anchor="middle" fill="#444">3</text>
<line x1="335.8" y1="830" x2="335.8" y2="833" stroke="#444"/>
<text x="335.8" y="845" text-anchor="middle" fill="#444">4</text>
<line x1="363.3" y1="830" x2="363.3" y2="833" stroke="#444"/>
<text x="363.3" y="845" text-anchor="middle" fill="#444">5</text>
<line x1="72" y1="830.0" x2="75" y2="830.0" stroke="#444"/>
<text x="69" y="833.0" text-anchor="end" fill="#444">-65</text>
<line x1="72" y1="790.0" x2="75" y2="790.0" stroke="#444"/>
<text x="69" y="793.0" text-anchor="end" fill="#444">-42</text>
<line x1="72" y1="750.0" x2="75" y2="750.0" stroke="#444"/>
<text x="69" y="753.0" text-anchor="end" fill="#444">-18</text>
<line x1="72" y1="710.0" x2="75" y2="710.0" stroke="#444"/>
<text x="69" y="713.0" text-anchor="end" fill="#444">4.6</text>
<line x1="72" y1="670.0" x2="75" y2="670.0" stroke="#444"/>
<text x="69" y="673.0" text-anchor="end" fill="#444">28</text>
<text x="226.0" y="864" text-anchor="middle" fill="#444">Event time (years from adoption)</text>
<text x="27" y="750.0" text-anchor="middle" fill="#444" transform="rotate(-90 27 750.0)">Coefficient (per 100k)</text>
<text x="805" y="898" text-anchor="end" fill="#888" font-size="10">Shaded band: pointwise 95% CI from cluster-robust SE. Vertical dashed line marks the year before adoption.</text>
</svg>