<svg xmlns="http://www.w3.org/2000/svg" viewBox="0 0 820 620" font-family="-apple-system, Segoe UI, Helvetica, Arial, sans-serif" font-size="11">
<text x="410.0" y="22" text-anchor="middle" font-size="14" font-weight="600">Callaway-Sant'Anna ATT by event time (RA) -- permitless carry (permitconcealed)</text>
<rect x="15" y="40" width="380" height="260" fill="#fafaf7" stroke="#e2e2dc"/>
<text x="205.0" y="58" text-anchor="middle" font-weight="600">Firearm suicide rate (per 100k)</text>
<line x1="75" y1="215.79184441653945" x2="377" y2="215.79184441653945" stroke="#aaaaaa" stroke-width="0.7"/>
<polygon points="88.7,205.6 88.7,189.5 88.7,211.5 116.2,178.3 116.2,190.9 116.2,197.4 143.6,102.6 143.6,90.0 143.6,181.8 171.1,215.1 171.1,157.1 171.1,163.0 226.0,120.1 226.0,133.0 226.0,175.5 253.5,129.6 253.5,129.8 253.5,163.9 280.9,96.6 280.9,116.5 280.9,152.8 308.4,176.9 308.4,183.4 308.4,201.9 335.8,156.6 335.8,134.6 335.8,127.7 363.3,163.7 363.3,159.0 363.3,167.4 363.3,214.3 363.3,207.9 363.3,211.1 335.8,190.9 335.8,203.0 335.8,205.0 308.4,226.2 308.4,233.9 308.4,221.1 280.9,176.5 280.9,142.6 280.9,129.2 253.5,188.2 253.5,156.5 253.5,163.0 226.0,205.0 226.0,185.3 226.0,177.8 171.1,196.5 171.1,192.8 171.1,235.9 143.6,210.5 143.6,145.2 143.6,156.5 116.2,250.0 116.2,226.9 116.2,231.5 88.7,231.7 88.7,219.2 88.7,237.2" fill="#1f3a5f" opacity="0.18"/>
<polyline points="88.7,221.4 88.7,204.4 88.7,221.6 116.2,204.9 116.2,208.9 116.2,223.7 143.6,129.6 143.6,117.6 143.6,196.2 171.1,225.5 171.1,174.9 171.1,179.7 226.0,149.0 226.0,159.1 226.0,190.3 253.5,146.3 253.5,143.1 253.5,176.1 280.9,112.9 280.9,129.5 280.9,164.6 308.4,199.0 308.4,208.6 308.4,214.0 335.8,180.8 335.8,168.8 335.8,159.3 363.3,187.4 363.3,183.4 363.3,190.8" fill="none" stroke="#1f3a5f" stroke-width="1.6"/>
<circle cx="88.7" cy="221.4" r="2.6" fill="#1f3a5f"/>
<circle cx="88.7" cy="204.4" r="2.6" fill="#1f3a5f"/>
<circle cx="88.7" cy="221.6" r="2.6" fill="#1f3a5f"/>
<circle cx="116.2" cy="204.9" r="2.6" fill="#1f3a5f"/>
<circle cx="116.2" cy="208.9" r="2.6" fill="#1f3a5f"/>
<circle cx="116.2" cy="223.7" r="2.6" fill="#1f3a5f"/>
<circle cx="143.6" cy="129.6" r="2.6" fill="#1f3a5f"/>
<circle cx="143.6" cy="117.6" r="2.6" fill="#1f3a5f"/>
<circle cx="143.6" cy="196.2" r="2.6" fill="#1f3a5f"/>
<circle cx="171.1" cy="225.5" r="2.6" fill="#1f3a5f"/>
<circle cx="171.1" cy="174.9" r="2.6" fill="#1f3a5f"/>
<circle cx="171.1" cy="179.7" r="2.6" fill="#1f3a5f"/>
<circle cx="226.0" cy="149.0" r="2.6" fill="#1f3a5f"/>
<circle cx="226.0" cy="159.1" r="2.6" fill="#1f3a5f"/>
<circle cx="226.0" cy="190.3" r="2.6" fill="#1f3a5f"/>
<circle cx="253.5" cy="146.3" r="2.6" fill="#1f3a5f"/>
<circle cx="253.5" cy="143.1" r="2.6" fill="#1f3a5f"/>
<circle cx="253.5" cy="176.1" r="2.6" fill="#1f3a5f"/>
<circle cx="280.9" cy="112.9" r="2.6" fill="#1f3a5f"/>
<circle cx="280.9" cy="129.5" r="2.6" fill="#1f3a5f"/>
<circle cx="280.9" cy="164.6" r="2.6" fill="#1f3a5f"/>
<circle cx="308.4" cy="199.0" r="2.6" fill="#1f3a5f"/>
<circle cx="308.4" cy="208.6" r="2.6" fill="#1f3a5f"/>
<circle cx="308.4" cy="214.0" r="2.6" fill="#1f3a5f"/>
<circle cx="335.8" cy="180.8" r="2.6" fill="#1f3a5f"/>
<circle cx="335.8" cy="168.8" r="2.6" fill="#1f3a5f"/>
<circle cx="335.8" cy="159.3" r="2.6" fill="#1f3a5f"/>
<circle cx="363.3" cy="187.4" r="2.6" fill="#1f3a5f"/>
<circle cx="363.3" cy="183.4" r="2.6" fill="#1f3a5f"/>
<circle cx="363.3" cy="190.8" r="2.6" fill="#1f3a5f"/>
<line x1="212.3" y1="90" x2="212.3" y2="250" stroke="#b9461a" stroke-dasharray="3 3"/>
<line x1="75" y1="250" x2="377" y2="250" stroke="#444"/>
<line x1="75" y1="90" x2="75" y2="250" stroke="#444"/>
<line x1="88.7" y1="250" x2="88.7" y2="253" stroke="#444"/>
<text x="88.7" y="265" text-anchor="middle" fill="#444">-5</text>
<line x1="116.2" y1="250" x2="116.2" y2="253" stroke="#444"/>
<text x="116.2" y="265" text-anchor="middle" fill="#444">-4</text>
<line x1="143.6" y1="250" x2="143.6" y2="253" stroke="#444"/>
<text x="143.6" y="265" text-anchor="middle" fill="#444">-3</text>
<line x1="171.1" y1="250" x2="171.1" y2="253" stroke="#444"/>
<text x="171.1" y="265" text-anchor="middle" fill="#444">-2</text>
<line x1="226.0" y1="250" x2="226.0" y2="253" stroke="#444"/>
<text x="226.0" y="265" text-anchor="middle" fill="#444">0</text>
<line x1="253.5" y1="250" x2="253.5" y2="253" stroke="#444"/>
<text x="253.5" y="265" text-anchor="middle" fill="#444">1</text>
<line x1="280.9" y1="250" x2="280.9" y2="253" stroke="#444"/>
<text x="280.9" y="265" text-anchor="middle" fill="#444">2</text>
<line x1="308.4" y1="250" x2="308.4" y2="253" stroke="#444"/>
<text x="308.4" y="265" text-anchor="middle" fill="#444">3</text>
<line x1="335.8" y1="250" x2="335.8" y2="253" stroke="#444"/>
<text x="335.8" y="265" text-anchor="middle" fill="#444">4</text>
<line x1="363.3" y1="250" x2="363.3" y2="253" stroke="#444"/>
<text x="363.3" y="265" text-anchor="middle" fill="#444">5</text>
<line x1="72" y1="250.0" x2="75" y2="250.0" stroke="#444"/>
<text x="69" y="253.0" text-anchor="end" fill="#444">-0.52</text>
<line x1="72" y1="210.0" x2="75" y2="210.0" stroke="#444"/>
<text x="69" y="213.0" text-anchor="end" fill="#444">0.087</text>
<line x1="72" y1="170.0" x2="75" y2="170.0" stroke="#444"/>
<text x="69" y="173.0" text-anchor="end" fill="#444">0.69</text>
<line x1="72" y1="130.0" x2="75" y2="130.0" stroke="#444"/>
<text x="69" y="133.0" text-anchor="end" fill="#444">1.3</text>
<line x1="72" y1="90.0" x2="75" y2="90.0" stroke="#444"/>
<text x="69" y="93.0" text-anchor="end" fill="#444">1.9</text>
<text x="226.0" y="284" text-anchor="middle" fill="#444">Event time (years from adoption)</text>
<text x="27" y="170.0" text-anchor="middle" fill="#444" transform="rotate(-90 27 170.0)">ATT (per 100k)</text>
<rect x="425" y="40" width="380" height="260" fill="#fafaf7" stroke="#e2e2dc"/>
<text x="615.0" y="58" text-anchor="middle" font-weight="600">Non-firearm suicide rate (per 100k) [substitution test]</text>
<line x1="485" y1="187.48912323417835" x2="787" y2="187.48912323417835" stroke="#aaaaaa" stroke-width="0.7"/>
<polygon points="498.7,157.5 498.7,177.4 498.7,175.6 526.2,148.8 526.2,165.2 526.2,138.5 553.6,160.5 553.6,200.9 553.6,183.6 581.1,178.7 581.1,192.3 581.1,180.9 636.0,189.8 636.0,168.4 636.0,184.9 663.5,90.0 663.5,95.5 663.5,141.5 690.9,163.4 690.9,158.3 690.9,181.4 718.4,148.6 718.4,133.9 718.4,170.1 745.8,151.5 745.8,140.2 745.8,143.1 773.3,157.4 773.3,174.2 773.3,174.3 773.3,235.9 773.3,219.4 773.3,209.4 745.8,195.9 745.8,190.9 745.8,190.4 718.4,214.7 718.4,202.9 718.4,225.6 690.9,211.3 690.9,220.5 690.9,225.4 663.5,175.0 663.5,176.0 663.5,165.6 636.0,208.6 636.0,214.6 636.0,226.1 581.1,232.6 581.1,250.0 581.1,206.3 553.6,210.1 553.6,244.1 553.6,213.8 526.2,196.7 526.2,196.0 526.2,209.6 498.7,208.0 498.7,242.0 498.7,218.9" fill="#1f3a5f" opacity="0.18"/>
<polyline points="498.7,188.2 498.7,209.7 498.7,191.8 526.2,179.2 526.2,180.6 526.2,167.6 553.6,187.2 553.6,222.5 553.6,196.8 581.1,192.5 581.1,221.2 581.1,206.7 636.0,207.9 636.0,191.5 636.0,196.7 663.5,127.8 663.5,135.7 663.5,158.3 690.9,194.4 690.9,189.4 690.9,196.3 718.4,187.1 718.4,168.4 718.4,192.4 745.8,170.9 745.8,165.5 745.8,169.5 773.3,183.4 773.3,196.8 773.3,205.1" fill="none" stroke="#1f3a5f" stroke-width="1.6"/>
<circle cx="498.7" cy="188.2" r="2.6" fill="#1f3a5f"/>
<circle cx="498.7" cy="209.7" r="2.6" fill="#1f3a5f"/>
<circle cx="498.7" cy="191.8" r="2.6" fill="#1f3a5f"/>
<circle cx="526.2" cy="179.2" r="2.6" fill="#1f3a5f"/>
<circle cx="526.2" cy="180.6" r="2.6" fill="#1f3a5f"/>
<circle cx="526.2" cy="167.6" r="2.6" fill="#1f3a5f"/>
<circle cx="553.6" cy="187.2" r="2.6" fill="#1f3a5f"/>
<circle cx="553.6" cy="222.5" r="2.6" fill="#1f3a5f"/>
<circle cx="553.6" cy="196.8" r="2.6" fill="#1f3a5f"/>
<circle cx="581.1" cy="192.5" r="2.6" fill="#1f3a5f"/>
<circle cx="581.1" cy="221.2" r="2.6" fill="#1f3a5f"/>
<circle cx="581.1" cy="206.7" r="2.6" fill="#1f3a5f"/>
<circle cx="636.0" cy="207.9" r="2.6" fill="#1f3a5f"/>
<circle cx="636.0" cy="191.5" r="2.6" fill="#1f3a5f"/>
<circle cx="636.0" cy="196.7" r="2.6" fill="#1f3a5f"/>
<circle cx="663.5" cy="127.8" r="2.6" fill="#1f3a5f"/>
<circle cx="663.5" cy="135.7" r="2.6" fill="#1f3a5f"/>
<circle cx="663.5" cy="158.3" r="2.6" fill="#1f3a5f"/>
<circle cx="690.9" cy="194.4" r="2.6" fill="#1f3a5f"/>
<circle cx="690.9" cy="189.4" r="2.6" fill="#1f3a5f"/>
<circle cx="690.9" cy="196.3" r="2.6" fill="#1f3a5f"/>
<circle cx="718.4" cy="187.1" r="2.6" fill="#1f3a5f"/>
<circle cx="718.4" cy="168.4" r="2.6" fill="#1f3a5f"/>
<circle cx="718.4" cy="192.4" r="2.6" fill="#1f3a5f"/>
<circle cx="745.8" cy="170.9" r="2.6" fill="#1f3a5f"/>
<circle cx="745.8" cy="165.5" r="2.6" fill="#1f3a5f"/>
<circle cx="745.8" cy="169.5" r="2.6" fill="#1f3a5f"/>
<circle cx="773.3" cy="183.4" r="2.6" fill="#1f3a5f"/>
<circle cx="773.3" cy="196.8" r="2.6" fill="#1f3a5f"/>
<circle cx="773.3" cy="205.1" r="2.6" fill="#1f3a5f"/>
<line x1="622.3" y1="90" x2="622.3" y2="250" stroke="#b9461a" stroke-dasharray="3 3"/>
<line x1="485" y1="250" x2="787" y2="250" stroke="#444"/>
<line x1="485" y1="90" x2="485" y2="250" stroke="#444"/>
<line x1="498.7" y1="250" x2="498.7" y2="253" stroke="#444"/>
<text x="498.7" y="265" text-anchor="middle" fill="#444">-5</text>
<line x1="526.2" y1="250" x2="526.2" y2="253" stroke="#444"/>
<text x="526.2" y="265" text-anchor="middle" fill="#444">-4</text>
<line x1="553.6" y1="250" x2="553.6" y2="253" stroke="#444"/>
<text x="553.6" y="265" text-anchor="middle" fill="#444">-3</text>
<line x1="581.1" y1="250" x2="581.1" y2="253" stroke="#444"/>
<text x="581.1" y="265" text-anchor="middle" fill="#444">-2</text>
<line x1="636.0" y1="250" x2="636.0" y2="253" stroke="#444"/>
<text x="636.0" y="265" text-anchor="middle" fill="#444">0</text>
<line x1="663.5" y1="250" x2="663.5" y2="253" stroke="#444"/>
<text x="663.5" y="265" text-anchor="middle" fill="#444">1</text>
<line x1="690.9" y1="250" x2="690.9" y2="253" stroke="#444"/>
<text x="690.9" y="265" text-anchor="middle" fill="#444">2</text>
<line x1="718.4" y1="250" x2="718.4" y2="253" stroke="#444"/>
<text x="718.4" y="265" text-anchor="middle" fill="#444">3</text>
<line x1="745.8" y1="250" x2="745.8" y2="253" stroke="#444"/>
<text x="745.8" y="265" text-anchor="middle" fill="#444">4</text>
<line x1="773.3" y1="250" x2="773.3" y2="253" stroke="#444"/>
<text x="773.3" y="265" text-anchor="middle" fill="#444">5</text>
<line x1="482" y1="250.0" x2="485" y2="250.0" stroke="#444"/>
<text x="479" y="253.0" text-anchor="end" fill="#444">-0.88</text>
<line x1="482" y1="210.0" x2="485" y2="210.0" stroke="#444"/>
<text x="479" y="213.0" text-anchor="end" fill="#444">-0.32</text>
<line x1="482" y1="170.0" x2="485" y2="170.0" stroke="#444"/>
<text x="479" y="173.0" text-anchor="end" fill="#444">0.25</text>
<line x1="482" y1="130.0" x2="485" y2="130.0" stroke="#444"/>
<text x="479" y="133.0" text-anchor="end" fill="#444">0.81</text>
<line x1="482" y1="90.0" x2="485" y2="90.0" stroke="#444"/>
<text x="479" y="93.0" text-anchor="end" fill="#444">1.4</text>
<text x="636.0" y="284" text-anchor="middle" fill="#444">Event time (years from adoption)</text>
<text x="437" y="170.0" text-anchor="middle" fill="#444" transform="rotate(-90 437 170.0)">ATT (per 100k)</text>
<rect x="15" y="330" width="380" height="260" fill="#fafaf7" stroke="#e2e2dc"/>
<text x="205.0" y="348" text-anchor="middle" font-weight="600">Total suicide rate (per 100k) [net effect]</text>
<line x1="75" y1="507.8521075974816" x2="377" y2="507.8521075974816" stroke="#aaaaaa" stroke-width="0.7"/>
<polygon points="88.7,485.9 88.7,491.2 88.7,499.5 116.2,452.4 116.2,477.7 116.2,460.1 143.6,402.8 143.6,422.0 143.6,484.7 171.1,504.2 171.1,471.3 171.1,466.5 226.0,446.9 226.0,441.0 226.0,480.8 253.5,380.0 253.5,381.9 253.5,440.1 280.9,406.2 280.9,414.1 280.9,457.1 308.4,458.6 308.4,453.8 308.4,490.6 335.8,443.6 335.8,415.1 335.8,410.1 363.3,450.2 363.3,456.3 363.3,473.5 363.3,528.4 363.3,520.6 363.3,512.8 335.8,485.5 335.8,490.1 335.8,489.4 308.4,529.8 308.4,520.9 308.4,529.0 280.9,488.4 280.9,463.3 280.9,451.7 253.5,465.8 253.5,435.5 253.5,430.3 226.0,507.3 226.0,488.1 226.0,490.8 171.1,519.7 171.1,529.2 171.1,535.1 143.6,513.1 143.6,486.6 143.6,471.2 116.2,538.1 116.2,516.1 116.2,532.8 88.7,532.3 88.7,539.8 88.7,540.0" fill="#1f3a5f" opacity="0.18"/>
<polyline points="88.7,513.0 88.7,515.5 88.7,515.9 116.2,492.6 116.2,496.9 116.2,499.1 143.6,437.0 143.6,454.3 143.6,498.9 171.1,519.6 171.1,500.2 171.1,493.1 226.0,468.8 226.0,464.5 226.0,494.0 253.5,405.2 253.5,408.7 253.5,452.9 280.9,429.0 280.9,438.7 280.9,472.7 308.4,493.8 308.4,487.3 308.4,510.2 335.8,466.5 335.8,452.6 335.8,447.8 363.3,481.5 363.3,488.5 363.3,500.9" fill="none" stroke="#1f3a5f" stroke-width="1.6"/>
<circle cx="88.7" cy="513.0" r="2.6" fill="#1f3a5f"/>
<circle cx="88.7" cy="515.5" r="2.6" fill="#1f3a5f"/>
<circle cx="88.7" cy="515.9" r="2.6" fill="#1f3a5f"/>
<circle cx="116.2" cy="492.6" r="2.6" fill="#1f3a5f"/>
<circle cx="116.2" cy="496.9" r="2.6" fill="#1f3a5f"/>
<circle cx="116.2" cy="499.1" r="2.6" fill="#1f3a5f"/>
<circle cx="143.6" cy="437.0" r="2.6" fill="#1f3a5f"/>
<circle cx="143.6" cy="454.3" r="2.6" fill="#1f3a5f"/>
<circle cx="143.6" cy="498.9" r="2.6" fill="#1f3a5f"/>
<circle cx="171.1" cy="519.6" r="2.6" fill="#1f3a5f"/>
<circle cx="171.1" cy="500.2" r="2.6" fill="#1f3a5f"/>
<circle cx="171.1" cy="493.1" r="2.6" fill="#1f3a5f"/>
<circle cx="226.0" cy="468.8" r="2.6" fill="#1f3a5f"/>
<circle cx="226.0" cy="464.5" r="2.6" fill="#1f3a5f"/>
<circle cx="226.0" cy="494.0" r="2.6" fill="#1f3a5f"/>
<circle cx="253.5" cy="405.2" r="2.6" fill="#1f3a5f"/>
<circle cx="253.5" cy="408.7" r="2.6" fill="#1f3a5f"/>
<circle cx="253.5" cy="452.9" r="2.6" fill="#1f3a5f"/>
<circle cx="280.9" cy="429.0" r="2.6" fill="#1f3a5f"/>
<circle cx="280.9" cy="438.7" r="2.6" fill="#1f3a5f"/>
<circle cx="280.9" cy="472.7" r="2.6" fill="#1f3a5f"/>
<circle cx="308.4" cy="493.8" r="2.6" fill="#1f3a5f"/>
<circle cx="308.4" cy="487.3" r="2.6" fill="#1f3a5f"/>
<circle cx="308.4" cy="510.2" r="2.6" fill="#1f3a5f"/>
<circle cx="335.8" cy="466.5" r="2.6" fill="#1f3a5f"/>
<circle cx="335.8" cy="452.6" r="2.6" fill="#1f3a5f"/>
<circle cx="335.8" cy="447.8" r="2.6" fill="#1f3a5f"/>
<circle cx="363.3" cy="481.5" r="2.6" fill="#1f3a5f"/>
<circle cx="363.3" cy="488.5" r="2.6" fill="#1f3a5f"/>
<circle cx="363.3" cy="500.9" r="2.6" fill="#1f3a5f"/>
<line x1="212.3" y1="380" x2="212.3" y2="540" stroke="#b9461a" stroke-dasharray="3 3"/>
<line x1="75" y1="540" x2="377" y2="540" stroke="#444"/>
<line x1="75" y1="380" x2="75" y2="540" stroke="#444"/>
<line x1="88.7" y1="540" x2="88.7" y2="543" stroke="#444"/>
<text x="88.7" y="555" text-anchor="middle" fill="#444">-5</text>
<line x1="116.2" y1="540" x2="116.2" y2="543" stroke="#444"/>
<text x="116.2" y="555" text-anchor="middle" fill="#444">-4</text>
<line x1="143.6" y1="540" x2="143.6" y2="543" stroke="#444"/>
<text x="143.6" y="555" text-anchor="middle" fill="#444">-3</text>
<line x1="171.1" y1="540" x2="171.1" y2="543" stroke="#444"/>
<text x="171.1" y="555" text-anchor="middle" fill="#444">-2</text>
<line x1="226.0" y1="540" x2="226.0" y2="543" stroke="#444"/>
<text x="226.0" y="555" text-anchor="middle" fill="#444">0</text>
<line x1="253.5" y1="540" x2="253.5" y2="543" stroke="#444"/>
<text x="253.5" y="555" text-anchor="middle" fill="#444">1</text>
<line x1="280.9" y1="540" x2="280.9" y2="543" stroke="#444"/>
<text x="280.9" y="555" text-anchor="middle" fill="#444">2</text>
<line x1="308.4" y1="540" x2="308.4" y2="543" stroke="#444"/>
<text x="308.4" y="555" text-anchor="middle" fill="#444">3</text>
<line x1="335.8" y1="540" x2="335.8" y2="543" stroke="#444"/>
<text x="335.8" y="555" text-anchor="middle" fill="#444">4</text>
<line x1="363.3" y1="540" x2="363.3" y2="543" stroke="#444"/>
<text x="363.3" y="555" text-anchor="middle" fill="#444">5</text>
<line x1="72" y1="540.0" x2="75" y2="540.0" stroke="#444"/>
<text x="69" y="543.0" text-anchor="end" fill="#444">-0.59</text>
<line x1="72" y1="500.0" x2="75" y2="500.0" stroke="#444"/>
<text x="69" y="503.0" text-anchor="end" fill="#444">0.14</text>
<line x1="72" y1="460.0" x2="75" y2="460.0" stroke="#444"/>
<text x="69" y="463.0" text-anchor="end" fill="#444">0.88</text>
<line x1="72" y1="420.0" x2="75" y2="420.0" stroke="#444"/>
<text x="69" y="423.0" text-anchor="end" fill="#444">1.6</text>
<line x1="72" y1="380.0" x2="75" y2="380.0" stroke="#444"/>
<text x="69" y="383.0" text-anchor="end" fill="#444">2.4</text>
<text x="226.0" y="574" text-anchor="middle" fill="#444">Event time (years from adoption)</text>
<text x="27" y="460.0" text-anchor="middle" fill="#444" transform="rotate(-90 27 460.0)">ATT (per 100k)</text>
<rect x="425" y="330" width="380" height="260" fill="#fafaf7" stroke="#e2e2dc"/>
<text x="615.0" y="348" text-anchor="middle" font-weight="600">Firearm homicide rate (per 100k)</text>
<line x1="485" y1="484.5518703243115" x2="787" y2="484.5518703243115" stroke="#aaaaaa" stroke-width="0.7"/>
<polygon points="498.7,476.4 498.7,515.2 498.7,475.0 526.2,497.8 526.2,465.6 526.2,467.8 553.6,474.3 553.6,503.5 553.6,474.2 581.1,470.0 581.1,466.6 581.1,464.8 636.0,453.6 636.0,459.9 636.0,479.2 663.5,457.5 663.5,434.6 663.5,484.5 690.9,426.6 690.9,453.5 690.9,476.5 718.4,442.8 718.4,453.9 718.4,466.5 745.8,476.1 745.8,459.7 745.8,436.7 773.3,423.8 773.3,380.0 773.3,466.8 773.3,500.8 773.3,447.0 773.3,512.1 745.8,479.2 745.8,500.4 745.8,505.1 718.4,492.4 718.4,492.1 718.4,481.5 690.9,497.6 690.9,483.6 690.9,459.6 663.5,498.7 663.5,463.1 663.5,481.1 636.0,492.3 636.0,488.1 636.0,487.6 581.1,486.7 581.1,492.4 581.1,481.4 553.6,487.8 553.6,529.2 553.6,501.3 526.2,499.6 526.2,478.8 526.2,523.3 498.7,490.0 498.7,540.0 498.7,507.9" fill="#1f3a5f" opacity="0.18"/>
<polyline points="498.7,492.2 498.7,527.6 498.7,482.5 526.2,510.6 526.2,472.2 526.2,483.7 553.6,487.8 553.6,516.4 553.6,481.0 581.1,475.7 581.1,479.5 581.1,475.7 636.0,470.6 636.0,474.0 636.0,485.8 663.5,469.3 663.5,448.8 663.5,491.6 690.9,443.1 690.9,468.6 690.9,487.0 718.4,462.2 718.4,473.0 718.4,479.4 745.8,490.6 745.8,480.0 745.8,457.9 773.3,467.9 773.3,413.5 773.3,483.8" fill="none" stroke="#1f3a5f" stroke-width="1.6"/>
<circle cx="498.7" cy="492.2" r="2.6" fill="#1f3a5f"/>
<circle cx="498.7" cy="527.6" r="2.6" fill="#1f3a5f"/>
<circle cx="498.7" cy="482.5" r="2.6" fill="#1f3a5f"/>
<circle cx="526.2" cy="510.6" r="2.6" fill="#1f3a5f"/>
<circle cx="526.2" cy="472.2" r="2.6" fill="#1f3a5f"/>
<circle cx="526.2" cy="483.7" r="2.6" fill="#1f3a5f"/>
<circle cx="553.6" cy="487.8" r="2.6" fill="#1f3a5f"/>
<circle cx="553.6" cy="516.4" r="2.6" fill="#1f3a5f"/>
<circle cx="553.6" cy="481.0" r="2.6" fill="#1f3a5f"/>
<circle cx="581.1" cy="475.7" r="2.6" fill="#1f3a5f"/>
<circle cx="581.1" cy="479.5" r="2.6" fill="#1f3a5f"/>
<circle cx="581.1" cy="475.7" r="2.6" fill="#1f3a5f"/>
<circle cx="636.0" cy="470.6" r="2.6" fill="#1f3a5f"/>
<circle cx="636.0" cy="474.0" r="2.6" fill="#1f3a5f"/>
<circle cx="636.0" cy="485.8" r="2.6" fill="#1f3a5f"/>
<circle cx="663.5" cy="469.3" r="2.6" fill="#1f3a5f"/>
<circle cx="663.5" cy="448.8" r="2.6" fill="#1f3a5f"/>
<circle cx="663.5" cy="491.6" r="2.6" fill="#1f3a5f"/>
<circle cx="690.9" cy="443.1" r="2.6" fill="#1f3a5f"/>
<circle cx="690.9" cy="468.6" r="2.6" fill="#1f3a5f"/>
<circle cx="690.9" cy="487.0" r="2.6" fill="#1f3a5f"/>
<circle cx="718.4" cy="462.2" r="2.6" fill="#1f3a5f"/>
<circle cx="718.4" cy="473.0" r="2.6" fill="#1f3a5f"/>
<circle cx="718.4" cy="479.4" r="2.6" fill="#1f3a5f"/>
<circle cx="745.8" cy="490.6" r="2.6" fill="#1f3a5f"/>
<circle cx="745.8" cy="480.0" r="2.6" fill="#1f3a5f"/>
<circle cx="745.8" cy="457.9" r="2.6" fill="#1f3a5f"/>
<circle cx="773.3" cy="467.9" r="2.6" fill="#1f3a5f"/>
<circle cx="773.3" cy="413.5" r="2.6" fill="#1f3a5f"/>
<circle cx="773.3" cy="483.8" r="2.6" fill="#1f3a5f"/>
<line x1="622.3" y1="380" x2="622.3" y2="540" stroke="#b9461a" stroke-dasharray="3 3"/>
<line x1="485" y1="540" x2="787" y2="540" stroke="#444"/>
<line x1="485" y1="380" x2="485" y2="540" stroke="#444"/>
<line x1="498.7" y1="540" x2="498.7" y2="543" stroke="#444"/>
<text x="498.7" y="555" text-anchor="middle" fill="#444">-5</text>
<line x1="526.2" y1="540" x2="526.2" y2="543" stroke="#444"/>
<text x="526.2" y="555" text-anchor="middle" fill="#444">-4</text>
<line x1="553.6" y1="540" x2="553.6" y2="543" stroke="#444"/>
<text x="553.6" y="555" text-anchor="middle" fill="#444">-3</text>
<line x1="581.1" y1="540" x2="581.1" y2="543" stroke="#444"/>
<text x="581.1" y="555" text-anchor="middle" fill="#444">-2</text>
<line x1="636.0" y1="540" x2="636.0" y2="543" stroke="#444"/>
<text x="636.0" y="555" text-anchor="middle" fill="#444">0</text>
<line x1="663.5" y1="540" x2="663.5" y2="543" stroke="#444"/>
<text x="663.5" y="555" text-anchor="middle" fill="#444">1</text>
<line x1="690.9" y1="540" x2="690.9" y2="543" stroke="#444"/>
<text x="690.9" y="555" text-anchor="middle" fill="#444">2</text>
<line x1="718.4" y1="540" x2="718.4" y2="543" stroke="#444"/>
<text x="718.4" y="555" text-anchor="middle" fill="#444">3</text>
<line x1="745.8" y1="540" x2="745.8" y2="543" stroke="#444"/>
<text x="745.8" y="555" text-anchor="middle" fill="#444">4</text>
<line x1="773.3" y1="540" x2="773.3" y2="543" stroke="#444"/>
<text x="773.3" y="555" text-anchor="middle" fill="#444">5</text>
<line x1="482" y1="540.0" x2="485" y2="540.0" stroke="#444"/>
<text x="479" y="543.0" text-anchor="end" fill="#444">-1.7</text>
<line x1="482" y1="500.0" x2="485" y2="500.0" stroke="#444"/>
<text x="479" y="503.0" text-anchor="end" fill="#444">-0.48</text>
<line x1="482" y1="460.0" x2="485" y2="460.0" stroke="#444"/>
<text x="479" y="463.0" text-anchor="end" fill="#444">0.76</text>
<line x1="482" y1="420.0" x2="485" y2="420.0" stroke="#444"/>
<text x="479" y="423.0" text-anchor="end" fill="#444">2</text>
<line x1="482" y1="380.0" x2="485" y2="380.0" stroke="#444"/>
<text x="479" y="383.0" text-anchor="end" fill="#444">3.2</text>
<text x="636.0" y="574" text-anchor="middle" fill="#444">Event time (years from adoption)</text>
<text x="437" y="460.0" text-anchor="middle" fill="#444" transform="rotate(-90 437 460.0)">ATT (per 100k)</text>
<rect x="15" y="620" width="380" height="260" fill="#fafaf7" stroke="#e2e2dc"/>
<text x="205.0" y="638" text-anchor="middle" font-weight="600">Total homicide rate (per 100k)</text>
<line x1="75" y1="781.6390016336716" x2="377" y2="781.6390016336716" stroke="#aaaaaa" stroke-width="0.7"/>
<polygon points="88.7,761.3 88.7,806.5 88.7,761.4 116.2,791.0 116.2,755.9 116.2,753.1 143.6,762.6 143.6,789.5 143.6,762.5 171.1,771.5 171.1,763.3 171.1,760.5 226.0,757.2 226.0,761.7 226.0,783.1 253.5,754.7 253.5,728.8 253.5,781.6 280.9,724.5 280.9,758.4 280.9,784.0 308.4,725.6 308.4,749.7 308.4,762.5 335.8,778.6 335.8,776.2 335.8,729.6 363.3,776.0 363.3,670.0 363.3,779.7 363.3,818.1 363.3,751.9 363.3,811.0 335.8,793.9 335.8,806.5 335.8,812.0 308.4,795.7 308.4,790.1 308.4,775.7 280.9,811.8 280.9,793.3 280.9,764.0 253.5,800.3 253.5,761.6 253.5,779.4 226.0,799.7 226.0,787.8 226.0,786.9 171.1,785.4 171.1,791.6 171.1,786.7 143.6,777.9 143.6,817.3 143.6,796.7 116.2,793.7 116.2,773.3 116.2,823.7 88.7,780.8 88.7,830.0 88.7,805.7" fill="#1f3a5f" opacity="0.18"/>
<polyline points="88.7,783.5 88.7,818.2 88.7,771.1 116.2,807.4 116.2,764.6 116.2,773.4 143.6,779.6 143.6,803.4 143.6,770.2 171.1,779.1 171.1,777.5 171.1,772.9 226.0,772.1 226.0,774.7 226.0,791.4 253.5,767.0 253.5,745.2 253.5,791.0 280.9,744.3 280.9,775.9 280.9,797.9 308.4,750.7 308.4,769.9 308.4,779.1 335.8,795.3 335.8,791.4 335.8,761.7 363.3,793.5 363.3,710.9 363.3,798.9" fill="none" stroke="#1f3a5f" stroke-width="1.6"/>
<circle cx="88.7" cy="783.5" r="2.6" fill="#1f3a5f"/>
<circle cx="88.7" cy="818.2" r="2.6" fill="#1f3a5f"/>
<circle cx="88.7" cy="771.1" r="2.6" fill="#1f3a5f"/>
<circle cx="116.2" cy="807.4" r="2.6" fill="#1f3a5f"/>
<circle cx="116.2" cy="764.6" r="2.6" fill="#1f3a5f"/>
<circle cx="116.2" cy="773.4" r="2.6" fill="#1f3a5f"/>
<circle cx="143.6" cy="779.6" r="2.6" fill="#1f3a5f"/>
<circle cx="143.6" cy="803.4" r="2.6" fill="#1f3a5f"/>
<circle cx="143.6" cy="770.2" r="2.6" fill="#1f3a5f"/>
<circle cx="171.1" cy="779.1" r="2.6" fill="#1f3a5f"/>
<circle cx="171.1" cy="777.5" r="2.6" fill="#1f3a5f"/>
<circle cx="171.1" cy="772.9" r="2.6" fill="#1f3a5f"/>
<circle cx="226.0" cy="772.1" r="2.6" fill="#1f3a5f"/>
<circle cx="226.0" cy="774.7" r="2.6" fill="#1f3a5f"/>
<circle cx="226.0" cy="791.4" r="2.6" fill="#1f3a5f"/>
<circle cx="253.5" cy="767.0" r="2.6" fill="#1f3a5f"/>
<circle cx="253.5" cy="745.2" r="2.6" fill="#1f3a5f"/>
<circle cx="253.5" cy="791.0" r="2.6" fill="#1f3a5f"/>
<circle cx="280.9" cy="744.3" r="2.6" fill="#1f3a5f"/>
<circle cx="280.9" cy="775.9" r="2.6" fill="#1f3a5f"/>
<circle cx="280.9" cy="797.9" r="2.6" fill="#1f3a5f"/>
<circle cx="308.4" cy="750.7" r="2.6" fill="#1f3a5f"/>
<circle cx="308.4" cy="769.9" r="2.6" fill="#1f3a5f"/>
<circle cx="308.4" cy="779.1" r="2.6" fill="#1f3a5f"/>
<circle cx="335.8" cy="795.3" r="2.6" fill="#1f3a5f"/>
<circle cx="335.8" cy="791.4" r="2.6" fill="#1f3a5f"/>
<circle cx="335.8" cy="761.7" r="2.6" fill="#1f3a5f"/>
<circle cx="363.3" cy="793.5" r="2.6" fill="#1f3a5f"/>
<circle cx="363.3" cy="710.9" r="2.6" fill="#1f3a5f"/>
<circle cx="363.3" cy="798.9" r="2.6" fill="#1f3a5f"/>
<line x1="212.3" y1="670" x2="212.3" y2="830" stroke="#b9461a" stroke-dasharray="3 3"/>
<line x1="75" y1="830" x2="377" y2="830" stroke="#444"/>
<line x1="75" y1="670" x2="75" y2="830" stroke="#444"/>
<line x1="88.7" y1="830" x2="88.7" y2="833" stroke="#444"/>
<text x="88.7" y="845" text-anchor="middle" fill="#444">-5</text>
<line x1="116.2" y1="830" x2="116.2" y2="833" stroke="#444"/>
<text x="116.2" y="845" text-anchor="middle" fill="#444">-4</text>
<line x1="143.6" y1="830" x2="143.6" y2="833" stroke="#444"/>
<text x="143.6" y="845" text-anchor="middle" fill="#444">-3</text>
<line x1="171.1" y1="830" x2="171.1" y2="833" stroke="#444"/>
<text x="171.1" y="845" text-anchor="middle" fill="#444">-2</text>
<line x1="226.0" y1="830" x2="226.0" y2="833" stroke="#444"/>
<text x="226.0" y="845" text-anchor="middle" fill="#444">0</text>
<line x1="253.5" y1="830" x2="253.5" y2="833" stroke="#444"/>
<text x="253.5" y="845" text-anchor="middle" fill="#444">1</text>
<line x1="280.9" y1="830" x2="280.9" y2="833" stroke="#444"/>
<text x="280.9" y="845" text-anchor="middle" fill="#444">2</text>
<line x1="308.4" y1="830" x2="308.4" y2="833" stroke="#444"/>
<text x="308.4" y="845" text-anchor="middle" fill="#444">3</text>
<line x1="335.8" y1="830" x2="335.8" y2="833" stroke="#444"/>
<text x="335.8" y="845" text-anchor="middle" fill="#444">4</text>
<line x1="363.3" y1="830" x2="363.3" y2="833" stroke="#444"/>
<text x="363.3" y="845" text-anchor="middle" fill="#444">5</text>
<line x1="72" y1="830.0" x2="75" y2="830.0" stroke="#444"/>
<text x="69" y="833.0" text-anchor="end" fill="#444">-1.5</text>
<line x1="72" y1="790.0" x2="75" y2="790.0" stroke="#444"/>
<text x="69" y="793.0" text-anchor="end" fill="#444">-0.25</text>
<line x1="72" y1="750.0" x2="75" y2="750.0" stroke="#444"/>
<text x="69" y="753.0" text-anchor="end" fill="#444">0.95</text>
<line x1="72" y1="710.0" x2="75" y2="710.0" stroke="#444"/>
<text x="69" y="713.0" text-anchor="end" fill="#444">2.2</text>
<line x1="72" y1="670.0" x2="75" y2="670.0" stroke="#444"/>
<text x="69" y="673.0" text-anchor="end" fill="#444">3.4</text>
<text x="226.0" y="864" text-anchor="middle" fill="#444">Event time (years from adoption)</text>
<text x="27" y="750.0" text-anchor="middle" fill="#444" transform="rotate(-90 27 750.0)">ATT (per 100k)</text>
<rect x="425" y="620" width="380" height="260" fill="#fafaf7" stroke="#e2e2dc"/>
<text x="615.0" y="638" text-anchor="middle" font-weight="600">Motor vehicle theft rate (per 100k) [placebo]</text>
<line x1="485" y1="728.5924191937421" x2="787" y2="728.5924191937421" stroke="#aaaaaa" stroke-width="0.7"/>
<polygon points="498.7,789.5 498.7,795.9 498.7,715.6 526.2,751.7 526.2,710.6 526.2,747.1 553.6,741.8 553.6,736.9 553.6,712.8 581.1,719.5 581.1,725.5 581.1,728.9 636.0,689.4 636.0,681.3 636.0,730.9 663.5,670.0 663.5,683.7 663.5,745.4 690.9,703.7 690.9,682.1 690.9,741.0 718.4,712.5 718.4,682.4 718.4,747.8 745.8,743.1 745.8,694.4 745.8,710.2 773.3,693.2 773.3,711.7 773.3,751.3 773.3,797.5 773.3,753.2 773.3,733.3 745.8,741.9 745.8,731.7 745.8,773.5 718.4,771.8 718.4,718.7 718.4,746.0 690.9,768.2 690.9,715.0 690.9,732.5 663.5,766.6 663.5,704.8 663.5,691.2 636.0,748.8 636.0,700.2 636.0,705.2 581.1,744.3 581.1,742.1 581.1,729.8 553.6,725.4 553.6,768.8 553.6,769.8 526.2,776.7 526.2,727.1 526.2,783.9 498.7,735.8 498.7,830.0 498.7,823.4" fill="#1f3a5f" opacity="0.18"/>
<polyline points="498.7,806.4 498.7,812.9 498.7,725.7 526.2,767.8 526.2,718.9 526.2,761.9 553.6,755.8 553.6,752.9 553.6,719.1 581.1,724.6 581.1,733.8 581.1,736.6 636.0,697.3 636.0,690.8 636.0,739.8 663.5,680.6 663.5,694.3 663.5,756.0 690.9,718.1 690.9,698.5 690.9,754.6 718.4,729.3 718.4,700.5 718.4,759.8 745.8,758.3 745.8,713.1 745.8,726.1 773.3,713.3 773.3,732.4 773.3,774.4" fill="none" stroke="#1f3a5f" stroke-width="1.6"/>
<circle cx="498.7" cy="806.4" r="2.6" fill="#1f3a5f"/>
<circle cx="498.7" cy="812.9" r="2.6" fill="#1f3a5f"/>
<circle cx="498.7" cy="725.7" r="2.6" fill="#1f3a5f"/>
<circle cx="526.2" cy="767.8" r="2.6" fill="#1f3a5f"/>
<circle cx="526.2" cy="718.9" r="2.6" fill="#1f3a5f"/>
<circle cx="526.2" cy="761.9" r="2.6" fill="#1f3a5f"/>
<circle cx="553.6" cy="755.8" r="2.6" fill="#1f3a5f"/>
<circle cx="553.6" cy="752.9" r="2.6" fill="#1f3a5f"/>
<circle cx="553.6" cy="719.1" r="2.6" fill="#1f3a5f"/>
<circle cx="581.1" cy="724.6" r="2.6" fill="#1f3a5f"/>
<circle cx="581.1" cy="733.8" r="2.6" fill="#1f3a5f"/>
<circle cx="581.1" cy="736.6" r="2.6" fill="#1f3a5f"/>
<circle cx="636.0" cy="697.3" r="2.6" fill="#1f3a5f"/>
<circle cx="636.0" cy="690.8" r="2.6" fill="#1f3a5f"/>
<circle cx="636.0" cy="739.8" r="2.6" fill="#1f3a5f"/>
<circle cx="663.5" cy="680.6" r="2.6" fill="#1f3a5f"/>
<circle cx="663.5" cy="694.3" r="2.6" fill="#1f3a5f"/>
<circle cx="663.5" cy="756.0" r="2.6" fill="#1f3a5f"/>
<circle cx="690.9" cy="718.1" r="2.6" fill="#1f3a5f"/>
<circle cx="690.9" cy="698.5" r="2.6" fill="#1f3a5f"/>
<circle cx="690.9" cy="754.6" r="2.6" fill="#1f3a5f"/>
<circle cx="718.4" cy="729.3" r="2.6" fill="#1f3a5f"/>
<circle cx="718.4" cy="700.5" r="2.6" fill="#1f3a5f"/>
<circle cx="718.4" cy="759.8" r="2.6" fill="#1f3a5f"/>
<circle cx="745.8" cy="758.3" r="2.6" fill="#1f3a5f"/>
<circle cx="745.8" cy="713.1" r="2.6" fill="#1f3a5f"/>
<circle cx="745.8" cy="726.1" r="2.6" fill="#1f3a5f"/>
<circle cx="773.3" cy="713.3" r="2.6" fill="#1f3a5f"/>
<circle cx="773.3" cy="732.4" r="2.6" fill="#1f3a5f"/>
<circle cx="773.3" cy="774.4" r="2.6" fill="#1f3a5f"/>
<line x1="622.3" y1="670" x2="622.3" y2="830" stroke="#b9461a" stroke-dasharray="3 3"/>
<line x1="485" y1="830" x2="787" y2="830" stroke="#444"/>
<line x1="485" y1="670" x2="485" y2="830" stroke="#444"/>
<line x1="498.7" y1="830" x2="498.7" y2="833" stroke="#444"/>
<text x="498.7" y="845" text-anchor="middle" fill="#444">-5</text>
<line x1="526.2" y1="830" x2="526.2" y2="833" stroke="#444"/>
<text x="526.2" y="845" text-anchor="middle" fill="#444">-4</text>
<line x1="553.6" y1="830" x2="553.6" y2="833" stroke="#444"/>
<text x="553.6" y="845" text-anchor="middle" fill="#444">-3</text>
<line x1="581.1" y1="830" x2="581.1" y2="833" stroke="#444"/>
<text x="581.1" y="845" text-anchor="middle" fill="#444">-2</text>
<line x1="636.0" y1="830" x2="636.0" y2="833" stroke="#444"/>
<text x="636.0" y="845" text-anchor="middle" fill="#444">0</text>
<line x1="663.5" y1="830" x2="663.5" y2="833" stroke="#444"/>
<text x="663.5" y="845" text-anchor="middle" fill="#444">1</text>
<line x1="690.9" y1="830" x2="690.9" y2="833" stroke="#444"/>
<text x="690.9" y="845" text-anchor="middle" fill="#444">2</text>
<line x1="718.4" y1="830" x2="718.4" y2="833" stroke="#444"/>
<text x="718.4" y="845" text-anchor="middle" fill="#444">3</text>
<line x1="745.8" y1="830" x2="745.8" y2="833" stroke="#444"/>
<text x="745.8" y="845" text-anchor="middle" fill="#444">4</text>
<line x1="773.3" y1="830" x2="773.3" y2="833" stroke="#444"/>
<text x="773.3" y="845" text-anchor="middle" fill="#444">5</text>
<line x1="482" y1="830.0" x2="485" y2="830.0" stroke="#444"/>
<text x="479" y="833.0" text-anchor="end" fill="#444">-1.7e+02</text>
<line x1="482" y1="790.0" x2="485" y2="790.0" stroke="#444"/>
<text x="479" y="793.0" text-anchor="end" fill="#444">-1.1e+02</text>
<line x1="482" y1="750.0" x2="485" y2="750.0" stroke="#444"/>
<text x="479" y="753.0" text-anchor="end" fill="#444">-37</text>
<line x1="482" y1="710.0" x2="485" y2="710.0" stroke="#444"/>
<text x="479" y="713.0" text-anchor="end" fill="#444">32</text>
<line x1="482" y1="670.0" x2="485" y2="670.0" stroke="#444"/>
<text x="479" y="673.0" text-anchor="end" fill="#444">1e+02</text>
<text x="636.0" y="864" text-anchor="middle" fill="#444">Event time (years from adoption)</text>
<text x="437" y="750.0" text-anchor="middle" fill="#444" transform="rotate(-90 437 750.0)">ATT (per 100k)</text>
<text x="805" y="608" text-anchor="end" fill="#888" font-size="10">Shaded band: pointwise 95% CI from cluster bootstrap. Vertical dashed line marks the year before adoption.</text>
</svg>