<svg xmlns="http://www.w3.org/2000/svg" viewBox="0 0 820 620" font-family="-apple-system, Segoe UI, Helvetica, Arial, sans-serif" font-size="11">
<text x="410.0" y="22" text-anchor="middle" font-size="14" font-weight="600">Callaway-Sant'Anna ATT by event time (OR) -- permitless carry (permitconcealed)</text>
<rect x="15" y="40" width="380" height="260" fill="#fafaf7" stroke="#e2e2dc"/>
<text x="205.0" y="58" text-anchor="middle" font-weight="600">Firearm suicide rate (per 100k)</text>
<line x1="75" y1="192.99007893645182" x2="377" y2="192.99007893645182" stroke="#aaaaaa" stroke-width="0.7"/>
<polygon points="88.7,200.9 116.2,154.4 143.6,151.2 171.1,191.8 226.0,125.6 253.5,121.6 280.9,113.2 308.4,180.8 335.8,90.0 363.3,111.9 363.3,213.8 335.8,203.9 308.4,230.5 280.9,162.1 253.5,180.1 226.0,194.1 171.1,239.4 143.6,216.3 116.2,227.0 88.7,250.0" fill="#1f3a5f" opacity="0.18"/>
<polyline points="88.7,225.4 116.2,190.7 143.6,183.7 171.1,215.6 226.0,159.9 253.5,150.8 280.9,137.7 308.4,205.7 335.8,147.0 363.3,162.9" fill="none" stroke="#1f3a5f" stroke-width="1.6"/>
<circle cx="88.7" cy="225.4" r="2.6" fill="#1f3a5f"/>
<circle cx="116.2" cy="190.7" r="2.6" fill="#1f3a5f"/>
<circle cx="143.6" cy="183.7" r="2.6" fill="#1f3a5f"/>
<circle cx="171.1" cy="215.6" r="2.6" fill="#1f3a5f"/>
<circle cx="226.0" cy="159.9" r="2.6" fill="#1f3a5f"/>
<circle cx="253.5" cy="150.8" r="2.6" fill="#1f3a5f"/>
<circle cx="280.9" cy="137.7" r="2.6" fill="#1f3a5f"/>
<circle cx="308.4" cy="205.7" r="2.6" fill="#1f3a5f"/>
<circle cx="335.8" cy="147.0" r="2.6" fill="#1f3a5f"/>
<circle cx="363.3" cy="162.9" r="2.6" fill="#1f3a5f"/>
<line x1="212.3" y1="90" x2="212.3" y2="250" stroke="#b9461a" stroke-dasharray="3 3"/>
<line x1="75" y1="250" x2="377" y2="250" stroke="#444"/>
<line x1="75" y1="90" x2="75" y2="250" stroke="#444"/>
<line x1="88.7" y1="250" x2="88.7" y2="253" stroke="#444"/>
<text x="88.7" y="265" text-anchor="middle" fill="#444">-5</text>
<line x1="116.2" y1="250" x2="116.2" y2="253" stroke="#444"/>
<text x="116.2" y="265" text-anchor="middle" fill="#444">-4</text>
<line x1="143.6" y1="250" x2="143.6" y2="253" stroke="#444"/>
<text x="143.6" y="265" text-anchor="middle" fill="#444">-3</text>
<line x1="171.1" y1="250" x2="171.1" y2="253" stroke="#444"/>
<text x="171.1" y="265" text-anchor="middle" fill="#444">-2</text>
<line x1="226.0" y1="250" x2="226.0" y2="253" stroke="#444"/>
<text x="226.0" y="265" text-anchor="middle" fill="#444">0</text>
<line x1="253.5" y1="250" x2="253.5" y2="253" stroke="#444"/>
<text x="253.5" y="265" text-anchor="middle" fill="#444">1</text>
<line x1="280.9" y1="250" x2="280.9" y2="253" stroke="#444"/>
<text x="280.9" y="265" text-anchor="middle" fill="#444">2</text>
<line x1="308.4" y1="250" x2="308.4" y2="253" stroke="#444"/>
<text x="308.4" y="265" text-anchor="middle" fill="#444">3</text>
<line x1="335.8" y1="250" x2="335.8" y2="253" stroke="#444"/>
<text x="335.8" y="265" text-anchor="middle" fill="#444">4</text>
<line x1="363.3" y1="250" x2="363.3" y2="253" stroke="#444"/>
<text x="363.3" y="265" text-anchor="middle" fill="#444">5</text>
<line x1="72" y1="250.0" x2="75" y2="250.0" stroke="#444"/>
<text x="69" y="253.0" text-anchor="end" fill="#444">-0.61</text>
<line x1="72" y1="210.0" x2="75" y2="210.0" stroke="#444"/>
<text x="69" y="213.0" text-anchor="end" fill="#444">-0.18</text>
<line x1="72" y1="170.0" x2="75" y2="170.0" stroke="#444"/>
<text x="69" y="173.0" text-anchor="end" fill="#444">0.24</text>
<line x1="72" y1="130.0" x2="75" y2="130.0" stroke="#444"/>
<text x="69" y="133.0" text-anchor="end" fill="#444">0.67</text>
<line x1="72" y1="90.0" x2="75" y2="90.0" stroke="#444"/>
<text x="69" y="93.0" text-anchor="end" fill="#444">1.1</text>
<text x="226.0" y="284" text-anchor="middle" fill="#444">Event time (years from adoption)</text>
<text x="27" y="170.0" text-anchor="middle" fill="#444" transform="rotate(-90 27 170.0)">ATT (per 100k)</text>
<rect x="425" y="40" width="380" height="260" fill="#fafaf7" stroke="#e2e2dc"/>
<text x="615.0" y="58" text-anchor="middle" font-weight="600">Non-firearm suicide rate (per 100k) [substitution test]</text>
<line x1="485" y1="175.179124638774" x2="787" y2="175.179124638774" stroke="#aaaaaa" stroke-width="0.7"/>
<polygon points="498.7,176.3 526.2,136.6 553.6,176.0 581.1,150.9 636.0,160.3 663.5,98.9 690.9,147.2 718.4,117.9 745.8,90.0 773.3,111.7 773.3,250.0 745.8,191.0 718.4,220.8 690.9,238.2 663.5,168.3 636.0,209.6 581.1,233.8 553.6,241.0 526.2,220.0 498.7,244.1" fill="#1f3a5f" opacity="0.18"/>
<polyline points="498.7,210.2 526.2,178.3 553.6,208.5 581.1,192.3 636.0,184.9 663.5,133.6 690.9,192.7 718.4,169.3 745.8,140.5 773.3,180.9" fill="none" stroke="#1f3a5f" stroke-width="1.6"/>
<circle cx="498.7" cy="210.2" r="2.6" fill="#1f3a5f"/>
<circle cx="526.2" cy="178.3" r="2.6" fill="#1f3a5f"/>
<circle cx="553.6" cy="208.5" r="2.6" fill="#1f3a5f"/>
<circle cx="581.1" cy="192.3" r="2.6" fill="#1f3a5f"/>
<circle cx="636.0" cy="184.9" r="2.6" fill="#1f3a5f"/>
<circle cx="663.5" cy="133.6" r="2.6" fill="#1f3a5f"/>
<circle cx="690.9" cy="192.7" r="2.6" fill="#1f3a5f"/>
<circle cx="718.4" cy="169.3" r="2.6" fill="#1f3a5f"/>
<circle cx="745.8" cy="140.5" r="2.6" fill="#1f3a5f"/>
<circle cx="773.3" cy="180.9" r="2.6" fill="#1f3a5f"/>
<line x1="622.3" y1="90" x2="622.3" y2="250" stroke="#b9461a" stroke-dasharray="3 3"/>
<line x1="485" y1="250" x2="787" y2="250" stroke="#444"/>
<line x1="485" y1="90" x2="485" y2="250" stroke="#444"/>
<line x1="498.7" y1="250" x2="498.7" y2="253" stroke="#444"/>
<text x="498.7" y="265" text-anchor="middle" fill="#444">-5</text>
<line x1="526.2" y1="250" x2="526.2" y2="253" stroke="#444"/>
<text x="526.2" y="265" text-anchor="middle" fill="#444">-4</text>
<line x1="553.6" y1="250" x2="553.6" y2="253" stroke="#444"/>
<text x="553.6" y="265" text-anchor="middle" fill="#444">-3</text>
<line x1="581.1" y1="250" x2="581.1" y2="253" stroke="#444"/>
<text x="581.1" y="265" text-anchor="middle" fill="#444">-2</text>
<line x1="636.0" y1="250" x2="636.0" y2="253" stroke="#444"/>
<text x="636.0" y="265" text-anchor="middle" fill="#444">0</text>
<line x1="663.5" y1="250" x2="663.5" y2="253" stroke="#444"/>
<text x="663.5" y="265" text-anchor="middle" fill="#444">1</text>
<line x1="690.9" y1="250" x2="690.9" y2="253" stroke="#444"/>
<text x="690.9" y="265" text-anchor="middle" fill="#444">2</text>
<line x1="718.4" y1="250" x2="718.4" y2="253" stroke="#444"/>
<text x="718.4" y="265" text-anchor="middle" fill="#444">3</text>
<line x1="745.8" y1="250" x2="745.8" y2="253" stroke="#444"/>
<text x="745.8" y="265" text-anchor="middle" fill="#444">4</text>
<line x1="773.3" y1="250" x2="773.3" y2="253" stroke="#444"/>
<text x="773.3" y="265" text-anchor="middle" fill="#444">5</text>
<line x1="482" y1="250.0" x2="485" y2="250.0" stroke="#444"/>
<text x="479" y="253.0" text-anchor="end" fill="#444">-0.61</text>
<line x1="482" y1="210.0" x2="485" y2="210.0" stroke="#444"/>
<text x="479" y="213.0" text-anchor="end" fill="#444">-0.28</text>
<line x1="482" y1="170.0" x2="485" y2="170.0" stroke="#444"/>
<text x="479" y="173.0" text-anchor="end" fill="#444">0.042</text>
<line x1="482" y1="130.0" x2="485" y2="130.0" stroke="#444"/>
<text x="479" y="133.0" text-anchor="end" fill="#444">0.37</text>
<line x1="482" y1="90.0" x2="485" y2="90.0" stroke="#444"/>
<text x="479" y="93.0" text-anchor="end" fill="#444">0.7</text>
<text x="636.0" y="284" text-anchor="middle" fill="#444">Event time (years from adoption)</text>
<text x="437" y="170.0" text-anchor="middle" fill="#444" transform="rotate(-90 437 170.0)">ATT (per 100k)</text>
<rect x="15" y="330" width="380" height="260" fill="#fafaf7" stroke="#e2e2dc"/>
<text x="205.0" y="348" text-anchor="middle" font-weight="600">Total suicide rate (per 100k) [net effect]</text>
<line x1="75" y1="470.23263731270754" x2="377" y2="470.23263731270754" stroke="#aaaaaa" stroke-width="0.7"/>
<polygon points="88.7,484.2 116.2,439.5 143.6,455.1 171.1,468.9 226.0,423.9 253.5,392.4 280.9,410.5 308.4,446.4 335.8,380.0 363.3,395.4 363.3,508.8 335.8,458.0 308.4,505.6 280.9,470.9 253.5,443.5 226.0,480.4 171.1,522.0 143.6,508.4 116.2,501.1 88.7,540.0" fill="#1f3a5f" opacity="0.18"/>
<polyline points="88.7,512.1 116.2,470.3 143.6,481.8 171.1,495.5 226.0,452.2 253.5,418.0 280.9,440.7 308.4,476.0 335.8,419.0 363.3,452.1" fill="none" stroke="#1f3a5f" stroke-width="1.6"/>
<circle cx="88.7" cy="512.1" r="2.6" fill="#1f3a5f"/>
<circle cx="116.2" cy="470.3" r="2.6" fill="#1f3a5f"/>
<circle cx="143.6" cy="481.8" r="2.6" fill="#1f3a5f"/>
<circle cx="171.1" cy="495.5" r="2.6" fill="#1f3a5f"/>
<circle cx="226.0" cy="452.2" r="2.6" fill="#1f3a5f"/>
<circle cx="253.5" cy="418.0" r="2.6" fill="#1f3a5f"/>
<circle cx="280.9" cy="440.7" r="2.6" fill="#1f3a5f"/>
<circle cx="308.4" cy="476.0" r="2.6" fill="#1f3a5f"/>
<circle cx="335.8" cy="419.0" r="2.6" fill="#1f3a5f"/>
<circle cx="363.3" cy="452.1" r="2.6" fill="#1f3a5f"/>
<line x1="212.3" y1="380" x2="212.3" y2="540" stroke="#b9461a" stroke-dasharray="3 3"/>
<line x1="75" y1="540" x2="377" y2="540" stroke="#444"/>
<line x1="75" y1="380" x2="75" y2="540" stroke="#444"/>
<line x1="88.7" y1="540" x2="88.7" y2="543" stroke="#444"/>
<text x="88.7" y="555" text-anchor="middle" fill="#444">-5</text>
<line x1="116.2" y1="540" x2="116.2" y2="543" stroke="#444"/>
<text x="116.2" y="555" text-anchor="middle" fill="#444">-4</text>
<line x1="143.6" y1="540" x2="143.6" y2="543" stroke="#444"/>
<text x="143.6" y="555" text-anchor="middle" fill="#444">-3</text>
<line x1="171.1" y1="540" x2="171.1" y2="543" stroke="#444"/>
<text x="171.1" y="555" text-anchor="middle" fill="#444">-2</text>
<line x1="226.0" y1="540" x2="226.0" y2="543" stroke="#444"/>
<text x="226.0" y="555" text-anchor="middle" fill="#444">0</text>
<line x1="253.5" y1="540" x2="253.5" y2="543" stroke="#444"/>
<text x="253.5" y="555" text-anchor="middle" fill="#444">1</text>
<line x1="280.9" y1="540" x2="280.9" y2="543" stroke="#444"/>
<text x="280.9" y="555" text-anchor="middle" fill="#444">2</text>
<line x1="308.4" y1="540" x2="308.4" y2="543" stroke="#444"/>
<text x="308.4" y="555" text-anchor="middle" fill="#444">3</text>
<line x1="335.8" y1="540" x2="335.8" y2="543" stroke="#444"/>
<text x="335.8" y="555" text-anchor="middle" fill="#444">4</text>
<line x1="363.3" y1="540" x2="363.3" y2="543" stroke="#444"/>
<text x="363.3" y="555" text-anchor="middle" fill="#444">5</text>
<line x1="72" y1="540.0" x2="75" y2="540.0" stroke="#444"/>
<text x="69" y="543.0" text-anchor="end" fill="#444">-1.1</text>
<line x1="72" y1="500.0" x2="75" y2="500.0" stroke="#444"/>
<text x="69" y="503.0" text-anchor="end" fill="#444">-0.45</text>
<line x1="72" y1="460.0" x2="75" y2="460.0" stroke="#444"/>
<text x="69" y="463.0" text-anchor="end" fill="#444">0.15</text>
<line x1="72" y1="420.0" x2="75" y2="420.0" stroke="#444"/>
<text x="69" y="423.0" text-anchor="end" fill="#444">0.76</text>
<line x1="72" y1="380.0" x2="75" y2="380.0" stroke="#444"/>
<text x="69" y="383.0" text-anchor="end" fill="#444">1.4</text>
<text x="226.0" y="574" text-anchor="middle" fill="#444">Event time (years from adoption)</text>
<text x="27" y="460.0" text-anchor="middle" fill="#444" transform="rotate(-90 27 460.0)">ATT (per 100k)</text>
<rect x="425" y="330" width="380" height="260" fill="#fafaf7" stroke="#e2e2dc"/>
<text x="615.0" y="348" text-anchor="middle" font-weight="600">Firearm homicide rate (per 100k)</text>
<line x1="485" y1="465.0152737641244" x2="787" y2="465.0152737641244" stroke="#aaaaaa" stroke-width="0.7"/>
<polygon points="498.7,444.9 526.2,431.1 553.6,448.4 581.1,434.5 636.0,450.5 663.5,453.2 690.9,437.4 718.4,422.6 745.8,436.1 773.3,380.0 773.3,540.0 745.8,514.8 718.4,493.2 690.9,487.2 663.5,490.4 636.0,487.1 581.1,469.5 553.6,486.1 526.2,477.1 498.7,490.9" fill="#1f3a5f" opacity="0.18"/>
<polyline points="498.7,467.9 526.2,454.1 553.6,467.3 581.1,452.0 636.0,468.8 663.5,471.8 690.9,462.3 718.4,457.9 745.8,475.4 773.3,460.0" fill="none" stroke="#1f3a5f" stroke-width="1.6"/>
<circle cx="498.7" cy="467.9" r="2.6" fill="#1f3a5f"/>
<circle cx="526.2" cy="454.1" r="2.6" fill="#1f3a5f"/>
<circle cx="553.6" cy="467.3" r="2.6" fill="#1f3a5f"/>
<circle cx="581.1" cy="452.0" r="2.6" fill="#1f3a5f"/>
<circle cx="636.0" cy="468.8" r="2.6" fill="#1f3a5f"/>
<circle cx="663.5" cy="471.8" r="2.6" fill="#1f3a5f"/>
<circle cx="690.9" cy="462.3" r="2.6" fill="#1f3a5f"/>
<circle cx="718.4" cy="457.9" r="2.6" fill="#1f3a5f"/>
<circle cx="745.8" cy="475.4" r="2.6" fill="#1f3a5f"/>
<circle cx="773.3" cy="460.0" r="2.6" fill="#1f3a5f"/>
<line x1="622.3" y1="380" x2="622.3" y2="540" stroke="#b9461a" stroke-dasharray="3 3"/>
<line x1="485" y1="540" x2="787" y2="540" stroke="#444"/>
<line x1="485" y1="380" x2="485" y2="540" stroke="#444"/>
<line x1="498.7" y1="540" x2="498.7" y2="543" stroke="#444"/>
<text x="498.7" y="555" text-anchor="middle" fill="#444">-5</text>
<line x1="526.2" y1="540" x2="526.2" y2="543" stroke="#444"/>
<text x="526.2" y="555" text-anchor="middle" fill="#444">-4</text>
<line x1="553.6" y1="540" x2="553.6" y2="543" stroke="#444"/>
<text x="553.6" y="555" text-anchor="middle" fill="#444">-3</text>
<line x1="581.1" y1="540" x2="581.1" y2="543" stroke="#444"/>
<text x="581.1" y="555" text-anchor="middle" fill="#444">-2</text>
<line x1="636.0" y1="540" x2="636.0" y2="543" stroke="#444"/>
<text x="636.0" y="555" text-anchor="middle" fill="#444">0</text>
<line x1="663.5" y1="540" x2="663.5" y2="543" stroke="#444"/>
<text x="663.5" y="555" text-anchor="middle" fill="#444">1</text>
<line x1="690.9" y1="540" x2="690.9" y2="543" stroke="#444"/>
<text x="690.9" y="555" text-anchor="middle" fill="#444">2</text>
<line x1="718.4" y1="540" x2="718.4" y2="543" stroke="#444"/>
<text x="718.4" y="555" text-anchor="middle" fill="#444">3</text>
<line x1="745.8" y1="540" x2="745.8" y2="543" stroke="#444"/>
<text x="745.8" y="555" text-anchor="middle" fill="#444">4</text>
<line x1="773.3" y1="540" x2="773.3" y2="543" stroke="#444"/>
<text x="773.3" y="555" text-anchor="middle" fill="#444">5</text>
<line x1="482" y1="540.0" x2="485" y2="540.0" stroke="#444"/>
<text x="479" y="543.0" text-anchor="end" fill="#444">-1.1</text>
<line x1="482" y1="500.0" x2="485" y2="500.0" stroke="#444"/>
<text x="479" y="503.0" text-anchor="end" fill="#444">-0.53</text>
<line x1="482" y1="460.0" x2="485" y2="460.0" stroke="#444"/>
<text x="479" y="463.0" text-anchor="end" fill="#444">0.076</text>
<line x1="482" y1="420.0" x2="485" y2="420.0" stroke="#444"/>
<text x="479" y="423.0" text-anchor="end" fill="#444">0.68</text>
<line x1="482" y1="380.0" x2="485" y2="380.0" stroke="#444"/>
<text x="479" y="383.0" text-anchor="end" fill="#444">1.3</text>
<text x="636.0" y="574" text-anchor="middle" fill="#444">Event time (years from adoption)</text>
<text x="437" y="460.0" text-anchor="middle" fill="#444" transform="rotate(-90 437 460.0)">ATT (per 100k)</text>
<rect x="15" y="620" width="380" height="260" fill="#fafaf7" stroke="#e2e2dc"/>
<text x="205.0" y="638" text-anchor="middle" font-weight="600">Total homicide rate (per 100k)</text>
<line x1="75" y1="726.195451069932" x2="377" y2="726.195451069932" stroke="#aaaaaa" stroke-width="0.7"/>
<polygon points="88.7,685.5 116.2,670.0 143.6,692.0 171.1,700.0 226.0,714.5 253.5,715.5 280.9,716.2 308.4,681.2 335.8,738.4 363.3,753.7 363.3,830.0 335.8,805.8 308.4,764.7 280.9,785.5 253.5,765.2 226.0,764.8 171.1,744.9 143.6,745.6 116.2,734.2 88.7,754.1" fill="#1f3a5f" opacity="0.18"/>
<polyline points="88.7,719.8 116.2,702.1 143.6,718.8 171.1,722.5 226.0,739.6 253.5,740.3 280.9,750.9 308.4,723.0 335.8,772.1 363.3,791.9" fill="none" stroke="#1f3a5f" stroke-width="1.6"/>
<circle cx="88.7" cy="719.8" r="2.6" fill="#1f3a5f"/>
<circle cx="116.2" cy="702.1" r="2.6" fill="#1f3a5f"/>
<circle cx="143.6" cy="718.8" r="2.6" fill="#1f3a5f"/>
<circle cx="171.1" cy="722.5" r="2.6" fill="#1f3a5f"/>
<circle cx="226.0" cy="739.6" r="2.6" fill="#1f3a5f"/>
<circle cx="253.5" cy="740.3" r="2.6" fill="#1f3a5f"/>
<circle cx="280.9" cy="750.9" r="2.6" fill="#1f3a5f"/>
<circle cx="308.4" cy="723.0" r="2.6" fill="#1f3a5f"/>
<circle cx="335.8" cy="772.1" r="2.6" fill="#1f3a5f"/>
<circle cx="363.3" cy="791.9" r="2.6" fill="#1f3a5f"/>
<line x1="212.3" y1="670" x2="212.3" y2="830" stroke="#b9461a" stroke-dasharray="3 3"/>
<line x1="75" y1="830" x2="377" y2="830" stroke="#444"/>
<line x1="75" y1="670" x2="75" y2="830" stroke="#444"/>
<line x1="88.7" y1="830" x2="88.7" y2="833" stroke="#444"/>
<text x="88.7" y="845" text-anchor="middle" fill="#444">-5</text>
<line x1="116.2" y1="830" x2="116.2" y2="833" stroke="#444"/>
<text x="116.2" y="845" text-anchor="middle" fill="#444">-4</text>
<line x1="143.6" y1="830" x2="143.6" y2="833" stroke="#444"/>
<text x="143.6" y="845" text-anchor="middle" fill="#444">-3</text>
<line x1="171.1" y1="830" x2="171.1" y2="833" stroke="#444"/>
<text x="171.1" y="845" text-anchor="middle" fill="#444">-2</text>
<line x1="226.0" y1="830" x2="226.0" y2="833" stroke="#444"/>
<text x="226.0" y="845" text-anchor="middle" fill="#444">0</text>
<line x1="253.5" y1="830" x2="253.5" y2="833" stroke="#444"/>
<text x="253.5" y="845" text-anchor="middle" fill="#444">1</text>
<line x1="280.9" y1="830" x2="280.9" y2="833" stroke="#444"/>
<text x="280.9" y="845" text-anchor="middle" fill="#444">2</text>
<line x1="308.4" y1="830" x2="308.4" y2="833" stroke="#444"/>
<text x="308.4" y="845" text-anchor="middle" fill="#444">3</text>
<line x1="335.8" y1="830" x2="335.8" y2="833" stroke="#444"/>
<text x="335.8" y="845" text-anchor="middle" fill="#444">4</text>
<line x1="363.3" y1="830" x2="363.3" y2="833" stroke="#444"/>
<text x="363.3" y="845" text-anchor="middle" fill="#444">5</text>
<line x1="72" y1="830.0" x2="75" y2="830.0" stroke="#444"/>
<text x="69" y="833.0" text-anchor="end" fill="#444">-1.4</text>
<line x1="72" y1="790.0" x2="75" y2="790.0" stroke="#444"/>
<text x="69" y="793.0" text-anchor="end" fill="#444">-0.88</text>
<line x1="72" y1="750.0" x2="75" y2="750.0" stroke="#444"/>
<text x="69" y="753.0" text-anchor="end" fill="#444">-0.33</text>
<line x1="72" y1="710.0" x2="75" y2="710.0" stroke="#444"/>
<text x="69" y="713.0" text-anchor="end" fill="#444">0.22</text>
<line x1="72" y1="670.0" x2="75" y2="670.0" stroke="#444"/>
<text x="69" y="673.0" text-anchor="end" fill="#444">0.77</text>
<text x="226.0" y="864" text-anchor="middle" fill="#444">Event time (years from adoption)</text>
<text x="27" y="750.0" text-anchor="middle" fill="#444" transform="rotate(-90 27 750.0)">ATT (per 100k)</text>
<rect x="425" y="620" width="380" height="260" fill="#fafaf7" stroke="#e2e2dc"/>
<text x="615.0" y="638" text-anchor="middle" font-weight="600">Motor vehicle theft rate (per 100k) [placebo]</text>
<line x1="485" y1="720.7361862243072" x2="787" y2="720.7361862243072" stroke="#aaaaaa" stroke-width="0.7"/>
<polygon points="498.7,675.3 526.2,670.0 553.6,676.3 581.1,694.6 636.0,721.9 663.5,736.5 690.9,741.2 718.4,731.2 745.8,744.3 773.3,744.2 773.3,830.0 745.8,806.6 718.4,783.1 690.9,812.2 663.5,781.3 636.0,754.2 581.1,717.6 553.6,705.3 526.2,703.3 498.7,715.6" fill="#1f3a5f" opacity="0.18"/>
<polyline points="498.7,695.5 526.2,686.6 553.6,690.8 581.1,706.1 636.0,738.0 663.5,758.9 690.9,776.7 718.4,757.2 745.8,775.5 773.3,787.1" fill="none" stroke="#1f3a5f" stroke-width="1.6"/>
<circle cx="498.7" cy="695.5" r="2.6" fill="#1f3a5f"/>
<circle cx="526.2" cy="686.6" r="2.6" fill="#1f3a5f"/>
<circle cx="553.6" cy="690.8" r="2.6" fill="#1f3a5f"/>
<circle cx="581.1" cy="706.1" r="2.6" fill="#1f3a5f"/>
<circle cx="636.0" cy="738.0" r="2.6" fill="#1f3a5f"/>
<circle cx="663.5" cy="758.9" r="2.6" fill="#1f3a5f"/>
<circle cx="690.9" cy="776.7" r="2.6" fill="#1f3a5f"/>
<circle cx="718.4" cy="757.2" r="2.6" fill="#1f3a5f"/>
<circle cx="745.8" cy="775.5" r="2.6" fill="#1f3a5f"/>
<circle cx="773.3" cy="787.1" r="2.6" fill="#1f3a5f"/>
<line x1="622.3" y1="670" x2="622.3" y2="830" stroke="#b9461a" stroke-dasharray="3 3"/>
<line x1="485" y1="830" x2="787" y2="830" stroke="#444"/>
<line x1="485" y1="670" x2="485" y2="830" stroke="#444"/>
<line x1="498.7" y1="830" x2="498.7" y2="833" stroke="#444"/>
<text x="498.7" y="845" text-anchor="middle" fill="#444">-5</text>
<line x1="526.2" y1="830" x2="526.2" y2="833" stroke="#444"/>
<text x="526.2" y="845" text-anchor="middle" fill="#444">-4</text>
<line x1="553.6" y1="830" x2="553.6" y2="833" stroke="#444"/>
<text x="553.6" y="845" text-anchor="middle" fill="#444">-3</text>
<line x1="581.1" y1="830" x2="581.1" y2="833" stroke="#444"/>
<text x="581.1" y="845" text-anchor="middle" fill="#444">-2</text>
<line x1="636.0" y1="830" x2="636.0" y2="833" stroke="#444"/>
<text x="636.0" y="845" text-anchor="middle" fill="#444">0</text>
<line x1="663.5" y1="830" x2="663.5" y2="833" stroke="#444"/>
<text x="663.5" y="845" text-anchor="middle" fill="#444">1</text>
<line x1="690.9" y1="830" x2="690.9" y2="833" stroke="#444"/>
<text x="690.9" y="845" text-anchor="middle" fill="#444">2</text>
<line x1="718.4" y1="830" x2="718.4" y2="833" stroke="#444"/>
<text x="718.4" y="845" text-anchor="middle" fill="#444">3</text>
<line x1="745.8" y1="830" x2="745.8" y2="833" stroke="#444"/>
<text x="745.8" y="845" text-anchor="middle" fill="#444">4</text>
<line x1="773.3" y1="830" x2="773.3" y2="833" stroke="#444"/>
<text x="773.3" y="845" text-anchor="middle" fill="#444">5</text>
<line x1="482" y1="830.0" x2="485" y2="830.0" stroke="#444"/>
<text x="479" y="833.0" text-anchor="end" fill="#444">-1.1e+02</text>
<line x1="482" y1="790.0" x2="485" y2="790.0" stroke="#444"/>
<text x="479" y="793.0" text-anchor="end" fill="#444">-71</text>
<line x1="482" y1="750.0" x2="485" y2="750.0" stroke="#444"/>
<text x="479" y="753.0" text-anchor="end" fill="#444">-30</text>
<line x1="482" y1="710.0" x2="485" y2="710.0" stroke="#444"/>
<text x="479" y="713.0" text-anchor="end" fill="#444">11</text>
<line x1="482" y1="670.0" x2="485" y2="670.0" stroke="#444"/>
<text x="479" y="673.0" text-anchor="end" fill="#444">52</text>
<text x="636.0" y="864" text-anchor="middle" fill="#444">Event time (years from adoption)</text>
<text x="437" y="750.0" text-anchor="middle" fill="#444" transform="rotate(-90 437 750.0)">ATT (per 100k)</text>
<text x="805" y="608" text-anchor="end" fill="#888" font-size="10">Shaded band: pointwise 95% CI from cluster bootstrap. Vertical dashed line marks the year before adoption.</text>
</svg>