<svg xmlns="http://www.w3.org/2000/svg" viewBox="0 0 820 620" font-family="-apple-system, Segoe UI, Helvetica, Arial, sans-serif" font-size="11">
<text x="410.0" y="22" text-anchor="middle" font-size="14" font-weight="600">Callaway-Sant'Anna ATT by event time (OR) -- permitless carry (permitconcealed)</text>
<rect x="15" y="40" width="380" height="260" fill="#fafaf7" stroke="#e2e2dc"/>
<text x="205.0" y="58" text-anchor="middle" font-weight="600">Firearm suicide rate (per 100k)</text>
<line x1="75" y1="189.41455887415304" x2="377" y2="189.41455887415304" stroke="#aaaaaa" stroke-width="0.7"/>
<polygon points="88.7,215.3 116.2,173.5 143.6,167.3 171.1,195.7 226.0,136.1 253.5,126.4 280.9,117.3 308.4,161.0 335.8,90.0 363.3,100.1 363.3,175.3 335.8,177.4 308.4,196.1 280.9,152.9 253.5,170.5 226.0,187.2 171.1,230.9 143.6,216.2 116.2,228.1 88.7,250.0" fill="#1f3a5f" opacity="0.18"/>
<polyline points="88.7,232.7 116.2,200.8 143.6,191.7 171.1,213.3 226.0,161.7 253.5,148.5 280.9,135.1 308.4,178.5 335.8,133.7 363.3,137.7" fill="none" stroke="#1f3a5f" stroke-width="1.6"/>
<circle cx="88.7" cy="232.7" r="2.6" fill="#1f3a5f"/>
<circle cx="116.2" cy="200.8" r="2.6" fill="#1f3a5f"/>
<circle cx="143.6" cy="191.7" r="2.6" fill="#1f3a5f"/>
<circle cx="171.1" cy="213.3" r="2.6" fill="#1f3a5f"/>
<circle cx="226.0" cy="161.7" r="2.6" fill="#1f3a5f"/>
<circle cx="253.5" cy="148.5" r="2.6" fill="#1f3a5f"/>
<circle cx="280.9" cy="135.1" r="2.6" fill="#1f3a5f"/>
<circle cx="308.4" cy="178.5" r="2.6" fill="#1f3a5f"/>
<circle cx="335.8" cy="133.7" r="2.6" fill="#1f3a5f"/>
<circle cx="363.3" cy="137.7" r="2.6" fill="#1f3a5f"/>
<line x1="212.3" y1="90" x2="212.3" y2="250" stroke="#b9461a" stroke-dasharray="3 3"/>
<line x1="75" y1="250" x2="377" y2="250" stroke="#444"/>
<line x1="75" y1="90" x2="75" y2="250" stroke="#444"/>
<line x1="88.7" y1="250" x2="88.7" y2="253" stroke="#444"/>
<text x="88.7" y="265" text-anchor="middle" fill="#444">-5</text>
<line x1="116.2" y1="250" x2="116.2" y2="253" stroke="#444"/>
<text x="116.2" y="265" text-anchor="middle" fill="#444">-4</text>
<line x1="143.6" y1="250" x2="143.6" y2="253" stroke="#444"/>
<text x="143.6" y="265" text-anchor="middle" fill="#444">-3</text>
<line x1="171.1" y1="250" x2="171.1" y2="253" stroke="#444"/>
<text x="171.1" y="265" text-anchor="middle" fill="#444">-2</text>
<line x1="226.0" y1="250" x2="226.0" y2="253" stroke="#444"/>
<text x="226.0" y="265" text-anchor="middle" fill="#444">0</text>
<line x1="253.5" y1="250" x2="253.5" y2="253" stroke="#444"/>
<text x="253.5" y="265" text-anchor="middle" fill="#444">1</text>
<line x1="280.9" y1="250" x2="280.9" y2="253" stroke="#444"/>
<text x="280.9" y="265" text-anchor="middle" fill="#444">2</text>
<line x1="308.4" y1="250" x2="308.4" y2="253" stroke="#444"/>
<text x="308.4" y="265" text-anchor="middle" fill="#444">3</text>
<line x1="335.8" y1="250" x2="335.8" y2="253" stroke="#444"/>
<text x="335.8" y="265" text-anchor="middle" fill="#444">4</text>
<line x1="363.3" y1="250" x2="363.3" y2="253" stroke="#444"/>
<text x="363.3" y="265" text-anchor="middle" fill="#444">5</text>
<line x1="72" y1="250.0" x2="75" y2="250.0" stroke="#444"/>
<text x="69" y="253.0" text-anchor="end" fill="#444">-0.84</text>
<line x1="72" y1="210.0" x2="75" y2="210.0" stroke="#444"/>
<text x="69" y="213.0" text-anchor="end" fill="#444">-0.29</text>
<line x1="72" y1="170.0" x2="75" y2="170.0" stroke="#444"/>
<text x="69" y="173.0" text-anchor="end" fill="#444">0.27</text>
<line x1="72" y1="130.0" x2="75" y2="130.0" stroke="#444"/>
<text x="69" y="133.0" text-anchor="end" fill="#444">0.82</text>
<line x1="72" y1="90.0" x2="75" y2="90.0" stroke="#444"/>
<text x="69" y="93.0" text-anchor="end" fill="#444">1.4</text>
<text x="226.0" y="284" text-anchor="middle" fill="#444">Event time (years from adoption)</text>
<text x="27" y="170.0" text-anchor="middle" fill="#444" transform="rotate(-90 27 170.0)">ATT (per 100k)</text>
<rect x="425" y="40" width="380" height="260" fill="#fafaf7" stroke="#e2e2dc"/>
<text x="615.0" y="58" text-anchor="middle" font-weight="600">Non-firearm suicide rate (per 100k) [substitution test]</text>
<line x1="485" y1="178.12142160848364" x2="787" y2="178.12142160848364" stroke="#aaaaaa" stroke-width="0.7"/>
<polygon points="498.7,183.6 526.2,145.6 553.6,179.7 581.1,160.5 636.0,165.2 663.5,102.5 690.9,152.5 718.4,125.8 745.8,90.0 773.3,109.1 773.3,248.7 745.8,190.0 718.4,229.4 690.9,243.4 663.5,173.5 636.0,215.2 581.1,245.2 553.6,244.5 526.2,229.8 498.7,250.0" fill="#1f3a5f" opacity="0.18"/>
<polyline points="498.7,216.8 526.2,187.7 553.6,212.1 581.1,202.8 636.0,190.2 663.5,138.0 690.9,198.0 718.4,177.6 745.8,140.0 773.3,178.9" fill="none" stroke="#1f3a5f" stroke-width="1.6"/>
<circle cx="498.7" cy="216.8" r="2.6" fill="#1f3a5f"/>
<circle cx="526.2" cy="187.7" r="2.6" fill="#1f3a5f"/>
<circle cx="553.6" cy="212.1" r="2.6" fill="#1f3a5f"/>
<circle cx="581.1" cy="202.8" r="2.6" fill="#1f3a5f"/>
<circle cx="636.0" cy="190.2" r="2.6" fill="#1f3a5f"/>
<circle cx="663.5" cy="138.0" r="2.6" fill="#1f3a5f"/>
<circle cx="690.9" cy="198.0" r="2.6" fill="#1f3a5f"/>
<circle cx="718.4" cy="177.6" r="2.6" fill="#1f3a5f"/>
<circle cx="745.8" cy="140.0" r="2.6" fill="#1f3a5f"/>
<circle cx="773.3" cy="178.9" r="2.6" fill="#1f3a5f"/>
<line x1="622.3" y1="90" x2="622.3" y2="250" stroke="#b9461a" stroke-dasharray="3 3"/>
<line x1="485" y1="250" x2="787" y2="250" stroke="#444"/>
<line x1="485" y1="90" x2="485" y2="250" stroke="#444"/>
<line x1="498.7" y1="250" x2="498.7" y2="253" stroke="#444"/>
<text x="498.7" y="265" text-anchor="middle" fill="#444">-5</text>
<line x1="526.2" y1="250" x2="526.2" y2="253" stroke="#444"/>
<text x="526.2" y="265" text-anchor="middle" fill="#444">-4</text>
<line x1="553.6" y1="250" x2="553.6" y2="253" stroke="#444"/>
<text x="553.6" y="265" text-anchor="middle" fill="#444">-3</text>
<line x1="581.1" y1="250" x2="581.1" y2="253" stroke="#444"/>
<text x="581.1" y="265" text-anchor="middle" fill="#444">-2</text>
<line x1="636.0" y1="250" x2="636.0" y2="253" stroke="#444"/>
<text x="636.0" y="265" text-anchor="middle" fill="#444">0</text>
<line x1="663.5" y1="250" x2="663.5" y2="253" stroke="#444"/>
<text x="663.5" y="265" text-anchor="middle" fill="#444">1</text>
<line x1="690.9" y1="250" x2="690.9" y2="253" stroke="#444"/>
<text x="690.9" y="265" text-anchor="middle" fill="#444">2</text>
<line x1="718.4" y1="250" x2="718.4" y2="253" stroke="#444"/>
<text x="718.4" y="265" text-anchor="middle" fill="#444">3</text>
<line x1="745.8" y1="250" x2="745.8" y2="253" stroke="#444"/>
<text x="745.8" y="265" text-anchor="middle" fill="#444">4</text>
<line x1="773.3" y1="250" x2="773.3" y2="253" stroke="#444"/>
<text x="773.3" y="265" text-anchor="middle" fill="#444">5</text>
<line x1="482" y1="250.0" x2="485" y2="250.0" stroke="#444"/>
<text x="479" y="253.0" text-anchor="end" fill="#444">-0.57</text>
<line x1="482" y1="210.0" x2="485" y2="210.0" stroke="#444"/>
<text x="479" y="213.0" text-anchor="end" fill="#444">-0.25</text>
<line x1="482" y1="170.0" x2="485" y2="170.0" stroke="#444"/>
<text x="479" y="173.0" text-anchor="end" fill="#444">0.065</text>
<line x1="482" y1="130.0" x2="485" y2="130.0" stroke="#444"/>
<text x="479" y="133.0" text-anchor="end" fill="#444">0.38</text>
<line x1="482" y1="90.0" x2="485" y2="90.0" stroke="#444"/>
<text x="479" y="93.0" text-anchor="end" fill="#444">0.7</text>
<text x="636.0" y="284" text-anchor="middle" fill="#444">Event time (years from adoption)</text>
<text x="437" y="170.0" text-anchor="middle" fill="#444" transform="rotate(-90 437 170.0)">ATT (per 100k)</text>
<rect x="15" y="330" width="380" height="260" fill="#fafaf7" stroke="#e2e2dc"/>
<text x="205.0" y="348" text-anchor="middle" font-weight="600">Total suicide rate (per 100k) [net effect]</text>
<line x1="75" y1="469.1345817700822" x2="377" y2="469.1345817700822" stroke="#aaaaaa" stroke-width="0.7"/>
<polygon points="88.7,496.6 116.2,457.3 143.6,464.3 171.1,476.5 226.0,431.3 253.5,400.8 280.9,413.1 308.4,437.5 335.8,380.0 363.3,385.7 363.3,475.6 335.8,441.8 308.4,484.0 280.9,460.8 253.5,441.4 226.0,475.7 171.1,518.9 143.6,506.8 116.2,506.3 88.7,540.0" fill="#1f3a5f" opacity="0.18"/>
<polyline points="88.7,518.3 116.2,481.8 143.6,485.5 171.1,497.7 226.0,453.5 253.5,421.1 280.9,436.9 308.4,460.7 335.8,410.9 363.3,430.6" fill="none" stroke="#1f3a5f" stroke-width="1.6"/>
<circle cx="88.7" cy="518.3" r="2.6" fill="#1f3a5f"/>
<circle cx="116.2" cy="481.8" r="2.6" fill="#1f3a5f"/>
<circle cx="143.6" cy="485.5" r="2.6" fill="#1f3a5f"/>
<circle cx="171.1" cy="497.7" r="2.6" fill="#1f3a5f"/>
<circle cx="226.0" cy="453.5" r="2.6" fill="#1f3a5f"/>
<circle cx="253.5" cy="421.1" r="2.6" fill="#1f3a5f"/>
<circle cx="280.9" cy="436.9" r="2.6" fill="#1f3a5f"/>
<circle cx="308.4" cy="460.7" r="2.6" fill="#1f3a5f"/>
<circle cx="335.8" cy="410.9" r="2.6" fill="#1f3a5f"/>
<circle cx="363.3" cy="430.6" r="2.6" fill="#1f3a5f"/>
<line x1="212.3" y1="380" x2="212.3" y2="540" stroke="#b9461a" stroke-dasharray="3 3"/>
<line x1="75" y1="540" x2="377" y2="540" stroke="#444"/>
<line x1="75" y1="380" x2="75" y2="540" stroke="#444"/>
<line x1="88.7" y1="540" x2="88.7" y2="543" stroke="#444"/>
<text x="88.7" y="555" text-anchor="middle" fill="#444">-5</text>
<line x1="116.2" y1="540" x2="116.2" y2="543" stroke="#444"/>
<text x="116.2" y="555" text-anchor="middle" fill="#444">-4</text>
<line x1="143.6" y1="540" x2="143.6" y2="543" stroke="#444"/>
<text x="143.6" y="555" text-anchor="middle" fill="#444">-3</text>
<line x1="171.1" y1="540" x2="171.1" y2="543" stroke="#444"/>
<text x="171.1" y="555" text-anchor="middle" fill="#444">-2</text>
<line x1="226.0" y1="540" x2="226.0" y2="543" stroke="#444"/>
<text x="226.0" y="555" text-anchor="middle" fill="#444">0</text>
<line x1="253.5" y1="540" x2="253.5" y2="543" stroke="#444"/>
<text x="253.5" y="555" text-anchor="middle" fill="#444">1</text>
<line x1="280.9" y1="540" x2="280.9" y2="543" stroke="#444"/>
<text x="280.9" y="555" text-anchor="middle" fill="#444">2</text>
<line x1="308.4" y1="540" x2="308.4" y2="543" stroke="#444"/>
<text x="308.4" y="555" text-anchor="middle" fill="#444">3</text>
<line x1="335.8" y1="540" x2="335.8" y2="543" stroke="#444"/>
<text x="335.8" y="555" text-anchor="middle" fill="#444">4</text>
<line x1="363.3" y1="540" x2="363.3" y2="543" stroke="#444"/>
<text x="363.3" y="555" text-anchor="middle" fill="#444">5</text>
<line x1="72" y1="540.0" x2="75" y2="540.0" stroke="#444"/>
<text x="69" y="543.0" text-anchor="end" fill="#444">-1.3</text>
<line x1="72" y1="500.0" x2="75" y2="500.0" stroke="#444"/>
<text x="69" y="503.0" text-anchor="end" fill="#444">-0.57</text>
<line x1="72" y1="460.0" x2="75" y2="460.0" stroke="#444"/>
<text x="69" y="463.0" text-anchor="end" fill="#444">0.17</text>
<line x1="72" y1="420.0" x2="75" y2="420.0" stroke="#444"/>
<text x="69" y="423.0" text-anchor="end" fill="#444">0.91</text>
<line x1="72" y1="380.0" x2="75" y2="380.0" stroke="#444"/>
<text x="69" y="383.0" text-anchor="end" fill="#444">1.6</text>
<text x="226.0" y="574" text-anchor="middle" fill="#444">Event time (years from adoption)</text>
<text x="27" y="460.0" text-anchor="middle" fill="#444" transform="rotate(-90 27 460.0)">ATT (per 100k)</text>
<rect x="425" y="330" width="380" height="260" fill="#fafaf7" stroke="#e2e2dc"/>
<text x="615.0" y="348" text-anchor="middle" font-weight="600">Firearm homicide rate (per 100k)</text>
<line x1="485" y1="488.5178722972177" x2="787" y2="488.5178722972177" stroke="#aaaaaa" stroke-width="0.7"/>
<polygon points="498.7,483.9 526.2,469.6 553.6,483.2 581.1,466.4 636.0,469.7 663.5,464.2 690.9,447.3 718.4,429.0 745.8,441.9 773.3,380.0 773.3,540.0 745.8,518.0 718.4,499.5 690.9,491.8 663.5,499.8 636.0,504.3 581.1,498.1 553.6,518.7 526.2,513.8 498.7,529.7" fill="#1f3a5f" opacity="0.18"/>
<polyline points="498.7,506.8 526.2,491.7 553.6,501.0 581.1,482.2 636.0,487.0 663.5,482.0 690.9,469.6 718.4,464.3 745.8,480.0 773.3,460.0" fill="none" stroke="#1f3a5f" stroke-width="1.6"/>
<circle cx="498.7" cy="506.8" r="2.6" fill="#1f3a5f"/>
<circle cx="526.2" cy="491.7" r="2.6" fill="#1f3a5f"/>
<circle cx="553.6" cy="501.0" r="2.6" fill="#1f3a5f"/>
<circle cx="581.1" cy="482.2" r="2.6" fill="#1f3a5f"/>
<circle cx="636.0" cy="487.0" r="2.6" fill="#1f3a5f"/>
<circle cx="663.5" cy="482.0" r="2.6" fill="#1f3a5f"/>
<circle cx="690.9" cy="469.6" r="2.6" fill="#1f3a5f"/>
<circle cx="718.4" cy="464.3" r="2.6" fill="#1f3a5f"/>
<circle cx="745.8" cy="480.0" r="2.6" fill="#1f3a5f"/>
<circle cx="773.3" cy="460.0" r="2.6" fill="#1f3a5f"/>
<line x1="622.3" y1="380" x2="622.3" y2="540" stroke="#b9461a" stroke-dasharray="3 3"/>
<line x1="485" y1="540" x2="787" y2="540" stroke="#444"/>
<line x1="485" y1="380" x2="485" y2="540" stroke="#444"/>
<line x1="498.7" y1="540" x2="498.7" y2="543" stroke="#444"/>
<text x="498.7" y="555" text-anchor="middle" fill="#444">-5</text>
<line x1="526.2" y1="540" x2="526.2" y2="543" stroke="#444"/>
<text x="526.2" y="555" text-anchor="middle" fill="#444">-4</text>
<line x1="553.6" y1="540" x2="553.6" y2="543" stroke="#444"/>
<text x="553.6" y="555" text-anchor="middle" fill="#444">-3</text>
<line x1="581.1" y1="540" x2="581.1" y2="543" stroke="#444"/>
<text x="581.1" y="555" text-anchor="middle" fill="#444">-2</text>
<line x1="636.0" y1="540" x2="636.0" y2="543" stroke="#444"/>
<text x="636.0" y="555" text-anchor="middle" fill="#444">0</text>
<line x1="663.5" y1="540" x2="663.5" y2="543" stroke="#444"/>
<text x="663.5" y="555" text-anchor="middle" fill="#444">1</text>
<line x1="690.9" y1="540" x2="690.9" y2="543" stroke="#444"/>
<text x="690.9" y="555" text-anchor="middle" fill="#444">2</text>
<line x1="718.4" y1="540" x2="718.4" y2="543" stroke="#444"/>
<text x="718.4" y="555" text-anchor="middle" fill="#444">3</text>
<line x1="745.8" y1="540" x2="745.8" y2="543" stroke="#444"/>
<text x="745.8" y="555" text-anchor="middle" fill="#444">4</text>
<line x1="773.3" y1="540" x2="773.3" y2="543" stroke="#444"/>
<text x="773.3" y="555" text-anchor="middle" fill="#444">5</text>
<line x1="482" y1="540.0" x2="485" y2="540.0" stroke="#444"/>
<text x="479" y="543.0" text-anchor="end" fill="#444">-0.78</text>
<line x1="482" y1="500.0" x2="485" y2="500.0" stroke="#444"/>
<text x="479" y="503.0" text-anchor="end" fill="#444">-0.17</text>
<line x1="482" y1="460.0" x2="485" y2="460.0" stroke="#444"/>
<text x="479" y="463.0" text-anchor="end" fill="#444">0.43</text>
<line x1="482" y1="420.0" x2="485" y2="420.0" stroke="#444"/>
<text x="479" y="423.0" text-anchor="end" fill="#444">1</text>
<line x1="482" y1="380.0" x2="485" y2="380.0" stroke="#444"/>
<text x="479" y="383.0" text-anchor="end" fill="#444">1.6</text>
<text x="636.0" y="574" text-anchor="middle" fill="#444">Event time (years from adoption)</text>
<text x="437" y="460.0" text-anchor="middle" fill="#444" transform="rotate(-90 437 460.0)">ATT (per 100k)</text>
<rect x="15" y="620" width="380" height="260" fill="#fafaf7" stroke="#e2e2dc"/>
<text x="205.0" y="638" text-anchor="middle" font-weight="600">Total homicide rate (per 100k)</text>
<line x1="75" y1="749.0028230826784" x2="377" y2="749.0028230826784" stroke="#aaaaaa" stroke-width="0.7"/>
<polygon points="88.7,722.3 116.2,701.3 143.6,723.1 171.1,729.5 226.0,730.7 253.5,718.3 280.9,718.8 308.4,670.0 335.8,740.9 363.3,748.0 363.3,830.0 335.8,812.7 308.4,769.8 280.9,792.8 253.5,773.3 226.0,787.5 171.1,780.4 143.6,785.1 116.2,774.3 88.7,801.2" fill="#1f3a5f" opacity="0.18"/>
<polyline points="88.7,761.8 116.2,737.8 143.6,754.1 171.1,755.0 226.0,759.1 253.5,745.8 280.9,755.8 308.4,719.9 335.8,776.8 363.3,789.0" fill="none" stroke="#1f3a5f" stroke-width="1.6"/>
<circle cx="88.7" cy="761.8" r="2.6" fill="#1f3a5f"/>
<circle cx="116.2" cy="737.8" r="2.6" fill="#1f3a5f"/>
<circle cx="143.6" cy="754.1" r="2.6" fill="#1f3a5f"/>
<circle cx="171.1" cy="755.0" r="2.6" fill="#1f3a5f"/>
<circle cx="226.0" cy="759.1" r="2.6" fill="#1f3a5f"/>
<circle cx="253.5" cy="745.8" r="2.6" fill="#1f3a5f"/>
<circle cx="280.9" cy="755.8" r="2.6" fill="#1f3a5f"/>
<circle cx="308.4" cy="719.9" r="2.6" fill="#1f3a5f"/>
<circle cx="335.8" cy="776.8" r="2.6" fill="#1f3a5f"/>
<circle cx="363.3" cy="789.0" r="2.6" fill="#1f3a5f"/>
<line x1="212.3" y1="670" x2="212.3" y2="830" stroke="#b9461a" stroke-dasharray="3 3"/>
<line x1="75" y1="830" x2="377" y2="830" stroke="#444"/>
<line x1="75" y1="670" x2="75" y2="830" stroke="#444"/>
<line x1="88.7" y1="830" x2="88.7" y2="833" stroke="#444"/>
<text x="88.7" y="845" text-anchor="middle" fill="#444">-5</text>
<line x1="116.2" y1="830" x2="116.2" y2="833" stroke="#444"/>
<text x="116.2" y="845" text-anchor="middle" fill="#444">-4</text>
<line x1="143.6" y1="830" x2="143.6" y2="833" stroke="#444"/>
<text x="143.6" y="845" text-anchor="middle" fill="#444">-3</text>
<line x1="171.1" y1="830" x2="171.1" y2="833" stroke="#444"/>
<text x="171.1" y="845" text-anchor="middle" fill="#444">-2</text>
<line x1="226.0" y1="830" x2="226.0" y2="833" stroke="#444"/>
<text x="226.0" y="845" text-anchor="middle" fill="#444">0</text>
<line x1="253.5" y1="830" x2="253.5" y2="833" stroke="#444"/>
<text x="253.5" y="845" text-anchor="middle" fill="#444">1</text>
<line x1="280.9" y1="830" x2="280.9" y2="833" stroke="#444"/>
<text x="280.9" y="845" text-anchor="middle" fill="#444">2</text>
<line x1="308.4" y1="830" x2="308.4" y2="833" stroke="#444"/>
<text x="308.4" y="845" text-anchor="middle" fill="#444">3</text>
<line x1="335.8" y1="830" x2="335.8" y2="833" stroke="#444"/>
<text x="335.8" y="845" text-anchor="middle" fill="#444">4</text>
<line x1="363.3" y1="830" x2="363.3" y2="833" stroke="#444"/>
<text x="363.3" y="845" text-anchor="middle" fill="#444">5</text>
<line x1="72" y1="830.0" x2="75" y2="830.0" stroke="#444"/>
<text x="69" y="833.0" text-anchor="end" fill="#444">-0.91</text>
<line x1="72" y1="790.0" x2="75" y2="790.0" stroke="#444"/>
<text x="69" y="793.0" text-anchor="end" fill="#444">-0.46</text>
<line x1="72" y1="750.0" x2="75" y2="750.0" stroke="#444"/>
<text x="69" y="753.0" text-anchor="end" fill="#444">-0.011</text>
<line x1="72" y1="710.0" x2="75" y2="710.0" stroke="#444"/>
<text x="69" y="713.0" text-anchor="end" fill="#444">0.44</text>
<line x1="72" y1="670.0" x2="75" y2="670.0" stroke="#444"/>
<text x="69" y="673.0" text-anchor="end" fill="#444">0.89</text>
<text x="226.0" y="864" text-anchor="middle" fill="#444">Event time (years from adoption)</text>
<text x="27" y="750.0" text-anchor="middle" fill="#444" transform="rotate(-90 27 750.0)">ATT (per 100k)</text>
<rect x="425" y="620" width="380" height="260" fill="#fafaf7" stroke="#e2e2dc"/>
<text x="615.0" y="638" text-anchor="middle" font-weight="600">Motor vehicle theft rate (per 100k) [placebo]</text>
<line x1="485" y1="720.8662944595598" x2="787" y2="720.8662944595598" stroke="#aaaaaa" stroke-width="0.7"/>
<polygon points="498.7,681.1 526.2,670.0 553.6,675.5 581.1,694.6 636.0,716.5 663.5,727.3 690.9,733.1 718.4,715.6 745.8,732.7 773.3,715.9 773.3,820.7 745.8,808.6 718.4,776.3 690.9,830.0 663.5,783.2 636.0,757.8 581.1,722.7 553.6,708.9 526.2,706.1 498.7,726.9" fill="#1f3a5f" opacity="0.18"/>
<polyline points="498.7,704.0 526.2,688.1 553.6,692.2 581.1,708.7 636.0,737.1 663.5,755.3 690.9,781.5 718.4,745.9 745.8,770.7 773.3,768.3" fill="none" stroke="#1f3a5f" stroke-width="1.6"/>
<circle cx="498.7" cy="704.0" r="2.6" fill="#1f3a5f"/>
<circle cx="526.2" cy="688.1" r="2.6" fill="#1f3a5f"/>
<circle cx="553.6" cy="692.2" r="2.6" fill="#1f3a5f"/>
<circle cx="581.1" cy="708.7" r="2.6" fill="#1f3a5f"/>
<circle cx="636.0" cy="737.1" r="2.6" fill="#1f3a5f"/>
<circle cx="663.5" cy="755.3" r="2.6" fill="#1f3a5f"/>
<circle cx="690.9" cy="781.5" r="2.6" fill="#1f3a5f"/>
<circle cx="718.4" cy="745.9" r="2.6" fill="#1f3a5f"/>
<circle cx="745.8" cy="770.7" r="2.6" fill="#1f3a5f"/>
<circle cx="773.3" cy="768.3" r="2.6" fill="#1f3a5f"/>
<line x1="622.3" y1="670" x2="622.3" y2="830" stroke="#b9461a" stroke-dasharray="3 3"/>
<line x1="485" y1="830" x2="787" y2="830" stroke="#444"/>
<line x1="485" y1="670" x2="485" y2="830" stroke="#444"/>
<line x1="498.7" y1="830" x2="498.7" y2="833" stroke="#444"/>
<text x="498.7" y="845" text-anchor="middle" fill="#444">-5</text>
<line x1="526.2" y1="830" x2="526.2" y2="833" stroke="#444"/>
<text x="526.2" y="845" text-anchor="middle" fill="#444">-4</text>
<line x1="553.6" y1="830" x2="553.6" y2="833" stroke="#444"/>
<text x="553.6" y="845" text-anchor="middle" fill="#444">-3</text>
<line x1="581.1" y1="830" x2="581.1" y2="833" stroke="#444"/>
<text x="581.1" y="845" text-anchor="middle" fill="#444">-2</text>
<line x1="636.0" y1="830" x2="636.0" y2="833" stroke="#444"/>
<text x="636.0" y="845" text-anchor="middle" fill="#444">0</text>
<line x1="663.5" y1="830" x2="663.5" y2="833" stroke="#444"/>
<text x="663.5" y="845" text-anchor="middle" fill="#444">1</text>
<line x1="690.9" y1="830" x2="690.9" y2="833" stroke="#444"/>
<text x="690.9" y="845" text-anchor="middle" fill="#444">2</text>
<line x1="718.4" y1="830" x2="718.4" y2="833" stroke="#444"/>
<text x="718.4" y="845" text-anchor="middle" fill="#444">3</text>
<line x1="745.8" y1="830" x2="745.8" y2="833" stroke="#444"/>
<text x="745.8" y="845" text-anchor="middle" fill="#444">4</text>
<line x1="773.3" y1="830" x2="773.3" y2="833" stroke="#444"/>
<text x="773.3" y="845" text-anchor="middle" fill="#444">5</text>
<line x1="482" y1="830.0" x2="485" y2="830.0" stroke="#444"/>
<text x="479" y="833.0" text-anchor="end" fill="#444">-75</text>
<line x1="482" y1="790.0" x2="485" y2="790.0" stroke="#444"/>
<text x="479" y="793.0" text-anchor="end" fill="#444">-48</text>
<line x1="482" y1="750.0" x2="485" y2="750.0" stroke="#444"/>
<text x="479" y="753.0" text-anchor="end" fill="#444">-20</text>
<line x1="482" y1="710.0" x2="485" y2="710.0" stroke="#444"/>
<text x="479" y="713.0" text-anchor="end" fill="#444">7.5</text>
<line x1="482" y1="670.0" x2="485" y2="670.0" stroke="#444"/>
<text x="479" y="673.0" text-anchor="end" fill="#444">35</text>
<text x="636.0" y="864" text-anchor="middle" fill="#444">Event time (years from adoption)</text>
<text x="437" y="750.0" text-anchor="middle" fill="#444" transform="rotate(-90 437 750.0)">ATT (per 100k)</text>
<text x="805" y="608" text-anchor="end" fill="#888" font-size="10">Shaded band: pointwise 95% CI from cluster bootstrap. Vertical dashed line marks the year before adoption.</text>
</svg>