<svg xmlns="http://www.w3.org/2000/svg" viewBox="0 0 820 620" font-family="-apple-system, Segoe UI, Helvetica, Arial, sans-serif" font-size="11">
<text x="410.0" y="22" text-anchor="middle" font-size="14" font-weight="600">Callaway-Sant'Anna ATT by event time (RA) -- permitless carry (permitconcealed)</text>
<rect x="15" y="40" width="380" height="260" fill="#fafaf7" stroke="#e2e2dc"/>
<text x="205.0" y="58" text-anchor="middle" font-weight="600">Firearm suicide rate (per 100k)</text>
<line x1="75" y1="169.80965830445638" x2="377" y2="169.80965830445638" stroke="#aaaaaa" stroke-width="0.7"/>
<polygon points="88.7,148.0 116.2,116.8 143.6,122.3 171.1,147.6 226.0,112.2 253.5,104.1 280.9,90.0 308.4,194.4 335.8,141.6 363.3,182.2 363.3,250.0 335.8,208.2 308.4,238.1 280.9,130.0 253.5,143.8 226.0,153.9 171.1,184.7 143.6,163.3 116.2,166.9 88.7,184.7" fill="#1f3a5f" opacity="0.18"/>
<polyline points="88.7,166.4 116.2,141.9 143.6,142.8 171.1,166.2 226.0,133.1 253.5,123.9 280.9,110.0 308.4,216.2 335.8,174.9 363.3,216.1" fill="none" stroke="#1f3a5f" stroke-width="1.6"/>
<circle cx="88.7" cy="166.4" r="2.6" fill="#1f3a5f"/>
<circle cx="116.2" cy="141.9" r="2.6" fill="#1f3a5f"/>
<circle cx="143.6" cy="142.8" r="2.6" fill="#1f3a5f"/>
<circle cx="171.1" cy="166.2" r="2.6" fill="#1f3a5f"/>
<circle cx="226.0" cy="133.1" r="2.6" fill="#1f3a5f"/>
<circle cx="253.5" cy="123.9" r="2.6" fill="#1f3a5f"/>
<circle cx="280.9" cy="110.0" r="2.6" fill="#1f3a5f"/>
<circle cx="308.4" cy="216.2" r="2.6" fill="#1f3a5f"/>
<circle cx="335.8" cy="174.9" r="2.6" fill="#1f3a5f"/>
<circle cx="363.3" cy="216.1" r="2.6" fill="#1f3a5f"/>
<line x1="212.3" y1="90" x2="212.3" y2="250" stroke="#b9461a" stroke-dasharray="3 3"/>
<line x1="75" y1="250" x2="377" y2="250" stroke="#444"/>
<line x1="75" y1="90" x2="75" y2="250" stroke="#444"/>
<line x1="88.7" y1="250" x2="88.7" y2="253" stroke="#444"/>
<text x="88.7" y="265" text-anchor="middle" fill="#444">-5</text>
<line x1="116.2" y1="250" x2="116.2" y2="253" stroke="#444"/>
<text x="116.2" y="265" text-anchor="middle" fill="#444">-4</text>
<line x1="143.6" y1="250" x2="143.6" y2="253" stroke="#444"/>
<text x="143.6" y="265" text-anchor="middle" fill="#444">-3</text>
<line x1="171.1" y1="250" x2="171.1" y2="253" stroke="#444"/>
<text x="171.1" y="265" text-anchor="middle" fill="#444">-2</text>
<line x1="226.0" y1="250" x2="226.0" y2="253" stroke="#444"/>
<text x="226.0" y="265" text-anchor="middle" fill="#444">0</text>
<line x1="253.5" y1="250" x2="253.5" y2="253" stroke="#444"/>
<text x="253.5" y="265" text-anchor="middle" fill="#444">1</text>
<line x1="280.9" y1="250" x2="280.9" y2="253" stroke="#444"/>
<text x="280.9" y="265" text-anchor="middle" fill="#444">2</text>
<line x1="308.4" y1="250" x2="308.4" y2="253" stroke="#444"/>
<text x="308.4" y="265" text-anchor="middle" fill="#444">3</text>
<line x1="335.8" y1="250" x2="335.8" y2="253" stroke="#444"/>
<text x="335.8" y="265" text-anchor="middle" fill="#444">4</text>
<line x1="363.3" y1="250" x2="363.3" y2="253" stroke="#444"/>
<text x="363.3" y="265" text-anchor="middle" fill="#444">5</text>
<line x1="72" y1="250.0" x2="75" y2="250.0" stroke="#444"/>
<text x="69" y="253.0" text-anchor="end" fill="#444">-0.85</text>
<line x1="72" y1="210.0" x2="75" y2="210.0" stroke="#444"/>
<text x="69" y="213.0" text-anchor="end" fill="#444">-0.43</text>
<line x1="72" y1="170.0" x2="75" y2="170.0" stroke="#444"/>
<text x="69" y="173.0" text-anchor="end" fill="#444">-0.002</text>
<line x1="72" y1="130.0" x2="75" y2="130.0" stroke="#444"/>
<text x="69" y="133.0" text-anchor="end" fill="#444">0.42</text>
<line x1="72" y1="90.0" x2="75" y2="90.0" stroke="#444"/>
<text x="69" y="93.0" text-anchor="end" fill="#444">0.84</text>
<text x="226.0" y="284" text-anchor="middle" fill="#444">Event time (years from adoption)</text>
<text x="27" y="170.0" text-anchor="middle" fill="#444" transform="rotate(-90 27 170.0)">ATT (per 100k)</text>
<rect x="425" y="40" width="380" height="260" fill="#fafaf7" stroke="#e2e2dc"/>
<text x="615.0" y="58" text-anchor="middle" font-weight="600">Non-firearm suicide rate (per 100k) [substitution test]</text>
<line x1="485" y1="145.66726730375098" x2="787" y2="145.66726730375098" stroke="#aaaaaa" stroke-width="0.7"/>
<polygon points="498.7,133.9 526.2,110.5 553.6,152.6 581.1,124.1 636.0,130.7 663.5,90.0 690.9,152.3 718.4,142.9 745.8,116.9 773.3,168.8 773.3,250.0 745.8,181.1 718.4,210.8 690.9,197.6 663.5,132.1 636.0,164.8 581.1,169.8 553.6,189.3 526.2,153.0 498.7,171.6" fill="#1f3a5f" opacity="0.18"/>
<polyline points="498.7,152.8 526.2,131.7 553.6,171.0 581.1,146.9 636.0,147.7 663.5,111.1 690.9,175.0 718.4,176.8 745.8,149.0 773.3,209.4" fill="none" stroke="#1f3a5f" stroke-width="1.6"/>
<circle cx="498.7" cy="152.8" r="2.6" fill="#1f3a5f"/>
<circle cx="526.2" cy="131.7" r="2.6" fill="#1f3a5f"/>
<circle cx="553.6" cy="171.0" r="2.6" fill="#1f3a5f"/>
<circle cx="581.1" cy="146.9" r="2.6" fill="#1f3a5f"/>
<circle cx="636.0" cy="147.7" r="2.6" fill="#1f3a5f"/>
<circle cx="663.5" cy="111.1" r="2.6" fill="#1f3a5f"/>
<circle cx="690.9" cy="175.0" r="2.6" fill="#1f3a5f"/>
<circle cx="718.4" cy="176.8" r="2.6" fill="#1f3a5f"/>
<circle cx="745.8" cy="149.0" r="2.6" fill="#1f3a5f"/>
<circle cx="773.3" cy="209.4" r="2.6" fill="#1f3a5f"/>
<line x1="622.3" y1="90" x2="622.3" y2="250" stroke="#b9461a" stroke-dasharray="3 3"/>
<line x1="485" y1="250" x2="787" y2="250" stroke="#444"/>
<line x1="485" y1="90" x2="485" y2="250" stroke="#444"/>
<line x1="498.7" y1="250" x2="498.7" y2="253" stroke="#444"/>
<text x="498.7" y="265" text-anchor="middle" fill="#444">-5</text>
<line x1="526.2" y1="250" x2="526.2" y2="253" stroke="#444"/>
<text x="526.2" y="265" text-anchor="middle" fill="#444">-4</text>
<line x1="553.6" y1="250" x2="553.6" y2="253" stroke="#444"/>
<text x="553.6" y="265" text-anchor="middle" fill="#444">-3</text>
<line x1="581.1" y1="250" x2="581.1" y2="253" stroke="#444"/>
<text x="581.1" y="265" text-anchor="middle" fill="#444">-2</text>
<line x1="636.0" y1="250" x2="636.0" y2="253" stroke="#444"/>
<text x="636.0" y="265" text-anchor="middle" fill="#444">0</text>
<line x1="663.5" y1="250" x2="663.5" y2="253" stroke="#444"/>
<text x="663.5" y="265" text-anchor="middle" fill="#444">1</text>
<line x1="690.9" y1="250" x2="690.9" y2="253" stroke="#444"/>
<text x="690.9" y="265" text-anchor="middle" fill="#444">2</text>
<line x1="718.4" y1="250" x2="718.4" y2="253" stroke="#444"/>
<text x="718.4" y="265" text-anchor="middle" fill="#444">3</text>
<line x1="745.8" y1="250" x2="745.8" y2="253" stroke="#444"/>
<text x="745.8" y="265" text-anchor="middle" fill="#444">4</text>
<line x1="773.3" y1="250" x2="773.3" y2="253" stroke="#444"/>
<text x="773.3" y="265" text-anchor="middle" fill="#444">5</text>
<line x1="482" y1="250.0" x2="485" y2="250.0" stroke="#444"/>
<text x="479" y="253.0" text-anchor="end" fill="#444">-0.96</text>
<line x1="482" y1="210.0" x2="485" y2="210.0" stroke="#444"/>
<text x="479" y="213.0" text-anchor="end" fill="#444">-0.59</text>
<line x1="482" y1="170.0" x2="485" y2="170.0" stroke="#444"/>
<text x="479" y="173.0" text-anchor="end" fill="#444">-0.22</text>
<line x1="482" y1="130.0" x2="485" y2="130.0" stroke="#444"/>
<text x="479" y="133.0" text-anchor="end" fill="#444">0.14</text>
<line x1="482" y1="90.0" x2="485" y2="90.0" stroke="#444"/>
<text x="479" y="93.0" text-anchor="end" fill="#444">0.51</text>
<text x="636.0" y="284" text-anchor="middle" fill="#444">Event time (years from adoption)</text>
<text x="437" y="170.0" text-anchor="middle" fill="#444" transform="rotate(-90 437 170.0)">ATT (per 100k)</text>
<rect x="15" y="330" width="380" height="260" fill="#fafaf7" stroke="#e2e2dc"/>
<text x="205.0" y="348" text-anchor="middle" font-weight="600">Total suicide rate (per 100k) [net effect]</text>
<line x1="75" y1="443.57024767917727" x2="377" y2="443.57024767917727" stroke="#aaaaaa" stroke-width="0.7"/>
<polygon points="88.7,429.4 116.2,397.8 143.6,425.0 171.1,424.8 226.0,406.7 253.5,380.0 280.9,402.9 308.4,465.0 335.8,425.4 363.3,475.0 363.3,540.0 335.8,471.8 308.4,514.6 280.9,441.0 253.5,411.6 226.0,436.5 171.1,459.2 143.6,455.9 116.2,438.9 88.7,461.2" fill="#1f3a5f" opacity="0.18"/>
<polyline points="88.7,445.3 116.2,418.4 143.6,440.4 171.1,442.0 226.0,421.6 253.5,395.8 280.9,422.0 308.4,489.8 335.8,448.6 363.3,507.5" fill="none" stroke="#1f3a5f" stroke-width="1.6"/>
<circle cx="88.7" cy="445.3" r="2.6" fill="#1f3a5f"/>
<circle cx="116.2" cy="418.4" r="2.6" fill="#1f3a5f"/>
<circle cx="143.6" cy="440.4" r="2.6" fill="#1f3a5f"/>
<circle cx="171.1" cy="442.0" r="2.6" fill="#1f3a5f"/>
<circle cx="226.0" cy="421.6" r="2.6" fill="#1f3a5f"/>
<circle cx="253.5" cy="395.8" r="2.6" fill="#1f3a5f"/>
<circle cx="280.9" cy="422.0" r="2.6" fill="#1f3a5f"/>
<circle cx="308.4" cy="489.8" r="2.6" fill="#1f3a5f"/>
<circle cx="335.8" cy="448.6" r="2.6" fill="#1f3a5f"/>
<circle cx="363.3" cy="507.5" r="2.6" fill="#1f3a5f"/>
<line x1="212.3" y1="380" x2="212.3" y2="540" stroke="#b9461a" stroke-dasharray="3 3"/>
<line x1="75" y1="540" x2="377" y2="540" stroke="#444"/>
<line x1="75" y1="380" x2="75" y2="540" stroke="#444"/>
<line x1="88.7" y1="540" x2="88.7" y2="543" stroke="#444"/>
<text x="88.7" y="555" text-anchor="middle" fill="#444">-5</text>
<line x1="116.2" y1="540" x2="116.2" y2="543" stroke="#444"/>
<text x="116.2" y="555" text-anchor="middle" fill="#444">-4</text>
<line x1="143.6" y1="540" x2="143.6" y2="543" stroke="#444"/>
<text x="143.6" y="555" text-anchor="middle" fill="#444">-3</text>
<line x1="171.1" y1="540" x2="171.1" y2="543" stroke="#444"/>
<text x="171.1" y="555" text-anchor="middle" fill="#444">-2</text>
<line x1="226.0" y1="540" x2="226.0" y2="543" stroke="#444"/>
<text x="226.0" y="555" text-anchor="middle" fill="#444">0</text>
<line x1="253.5" y1="540" x2="253.5" y2="543" stroke="#444"/>
<text x="253.5" y="555" text-anchor="middle" fill="#444">1</text>
<line x1="280.9" y1="540" x2="280.9" y2="543" stroke="#444"/>
<text x="280.9" y="555" text-anchor="middle" fill="#444">2</text>
<line x1="308.4" y1="540" x2="308.4" y2="543" stroke="#444"/>
<text x="308.4" y="555" text-anchor="middle" fill="#444">3</text>
<line x1="335.8" y1="540" x2="335.8" y2="543" stroke="#444"/>
<text x="335.8" y="555" text-anchor="middle" fill="#444">4</text>
<line x1="363.3" y1="540" x2="363.3" y2="543" stroke="#444"/>
<text x="363.3" y="555" text-anchor="middle" fill="#444">5</text>
<line x1="72" y1="540.0" x2="75" y2="540.0" stroke="#444"/>
<text x="69" y="543.0" text-anchor="end" fill="#444">-1.6</text>
<line x1="72" y1="500.0" x2="75" y2="500.0" stroke="#444"/>
<text x="69" y="503.0" text-anchor="end" fill="#444">-0.95</text>
<line x1="72" y1="460.0" x2="75" y2="460.0" stroke="#444"/>
<text x="69" y="463.0" text-anchor="end" fill="#444">-0.28</text>
<line x1="72" y1="420.0" x2="75" y2="420.0" stroke="#444"/>
<text x="69" y="423.0" text-anchor="end" fill="#444">0.4</text>
<line x1="72" y1="380.0" x2="75" y2="380.0" stroke="#444"/>
<text x="69" y="383.0" text-anchor="end" fill="#444">1.1</text>
<text x="226.0" y="574" text-anchor="middle" fill="#444">Event time (years from adoption)</text>
<text x="27" y="460.0" text-anchor="middle" fill="#444" transform="rotate(-90 27 460.0)">ATT (per 100k)</text>
<rect x="425" y="330" width="380" height="260" fill="#fafaf7" stroke="#e2e2dc"/>
<text x="615.0" y="348" text-anchor="middle" font-weight="600">Firearm homicide rate (per 100k)</text>
<line x1="485" y1="444.4884788080853" x2="787" y2="444.4884788080853" stroke="#aaaaaa" stroke-width="0.7"/>
<polygon points="498.7,388.5 526.2,380.0 553.6,408.9 581.1,419.6 636.0,441.4 663.5,425.5 690.9,436.5 718.4,422.7 745.8,471.2 773.3,421.7 773.3,534.2 745.8,540.0 718.4,480.9 690.9,499.3 663.5,467.8 636.0,477.7 581.1,451.6 553.6,444.1 526.2,416.1 498.7,428.8" fill="#1f3a5f" opacity="0.18"/>
<polyline points="498.7,408.6 526.2,398.1 553.6,426.5 581.1,435.6 636.0,459.6 663.5,446.7 690.9,467.9 718.4,451.8 745.8,505.6 773.3,478.0" fill="none" stroke="#1f3a5f" stroke-width="1.6"/>
<circle cx="498.7" cy="408.6" r="2.6" fill="#1f3a5f"/>
<circle cx="526.2" cy="398.1" r="2.6" fill="#1f3a5f"/>
<circle cx="553.6" cy="426.5" r="2.6" fill="#1f3a5f"/>
<circle cx="581.1" cy="435.6" r="2.6" fill="#1f3a5f"/>
<circle cx="636.0" cy="459.6" r="2.6" fill="#1f3a5f"/>
<circle cx="663.5" cy="446.7" r="2.6" fill="#1f3a5f"/>
<circle cx="690.9" cy="467.9" r="2.6" fill="#1f3a5f"/>
<circle cx="718.4" cy="451.8" r="2.6" fill="#1f3a5f"/>
<circle cx="745.8" cy="505.6" r="2.6" fill="#1f3a5f"/>
<circle cx="773.3" cy="478.0" r="2.6" fill="#1f3a5f"/>
<line x1="622.3" y1="380" x2="622.3" y2="540" stroke="#b9461a" stroke-dasharray="3 3"/>
<line x1="485" y1="540" x2="787" y2="540" stroke="#444"/>
<line x1="485" y1="380" x2="485" y2="540" stroke="#444"/>
<line x1="498.7" y1="540" x2="498.7" y2="543" stroke="#444"/>
<text x="498.7" y="555" text-anchor="middle" fill="#444">-5</text>
<line x1="526.2" y1="540" x2="526.2" y2="543" stroke="#444"/>
<text x="526.2" y="555" text-anchor="middle" fill="#444">-4</text>
<line x1="553.6" y1="540" x2="553.6" y2="543" stroke="#444"/>
<text x="553.6" y="555" text-anchor="middle" fill="#444">-3</text>
<line x1="581.1" y1="540" x2="581.1" y2="543" stroke="#444"/>
<text x="581.1" y="555" text-anchor="middle" fill="#444">-2</text>
<line x1="636.0" y1="540" x2="636.0" y2="543" stroke="#444"/>
<text x="636.0" y="555" text-anchor="middle" fill="#444">0</text>
<line x1="663.5" y1="540" x2="663.5" y2="543" stroke="#444"/>
<text x="663.5" y="555" text-anchor="middle" fill="#444">1</text>
<line x1="690.9" y1="540" x2="690.9" y2="543" stroke="#444"/>
<text x="690.9" y="555" text-anchor="middle" fill="#444">2</text>
<line x1="718.4" y1="540" x2="718.4" y2="543" stroke="#444"/>
<text x="718.4" y="555" text-anchor="middle" fill="#444">3</text>
<line x1="745.8" y1="540" x2="745.8" y2="543" stroke="#444"/>
<text x="745.8" y="555" text-anchor="middle" fill="#444">4</text>
<line x1="773.3" y1="540" x2="773.3" y2="543" stroke="#444"/>
<text x="773.3" y="555" text-anchor="middle" fill="#444">5</text>
<line x1="482" y1="540.0" x2="485" y2="540.0" stroke="#444"/>
<text x="479" y="543.0" text-anchor="end" fill="#444">-1.2</text>
<line x1="482" y1="500.0" x2="485" y2="500.0" stroke="#444"/>
<text x="479" y="503.0" text-anchor="end" fill="#444">-0.69</text>
<line x1="482" y1="460.0" x2="485" y2="460.0" stroke="#444"/>
<text x="479" y="463.0" text-anchor="end" fill="#444">-0.19</text>
<line x1="482" y1="420.0" x2="485" y2="420.0" stroke="#444"/>
<text x="479" y="423.0" text-anchor="end" fill="#444">0.31</text>
<line x1="482" y1="380.0" x2="485" y2="380.0" stroke="#444"/>
<text x="479" y="383.0" text-anchor="end" fill="#444">0.8</text>
<text x="636.0" y="574" text-anchor="middle" fill="#444">Event time (years from adoption)</text>
<text x="437" y="460.0" text-anchor="middle" fill="#444" transform="rotate(-90 437 460.0)">ATT (per 100k)</text>
<rect x="15" y="620" width="380" height="260" fill="#fafaf7" stroke="#e2e2dc"/>
<text x="205.0" y="638" text-anchor="middle" font-weight="600">Total homicide rate (per 100k)</text>
<line x1="75" y1="715.9900591398698" x2="377" y2="715.9900591398698" stroke="#aaaaaa" stroke-width="0.7"/>
<polygon points="88.7,672.9 116.2,670.0 143.6,686.3 171.1,718.4 226.0,730.6 253.5,706.9 280.9,742.2 308.4,698.9 335.8,756.5 363.3,756.5 363.3,830.0 335.8,810.7 308.4,754.2 280.9,805.9 253.5,755.7 226.0,769.0 171.1,750.2 143.6,720.1 116.2,703.3 88.7,711.9" fill="#1f3a5f" opacity="0.18"/>
<polyline points="88.7,692.4 116.2,686.6 143.6,703.2 171.1,734.3 226.0,749.8 253.5,731.3 280.9,774.1 308.4,726.5 335.8,783.6 363.3,793.3" fill="none" stroke="#1f3a5f" stroke-width="1.6"/>
<circle cx="88.7" cy="692.4" r="2.6" fill="#1f3a5f"/>
<circle cx="116.2" cy="686.6" r="2.6" fill="#1f3a5f"/>
<circle cx="143.6" cy="703.2" r="2.6" fill="#1f3a5f"/>
<circle cx="171.1" cy="734.3" r="2.6" fill="#1f3a5f"/>
<circle cx="226.0" cy="749.8" r="2.6" fill="#1f3a5f"/>
<circle cx="253.5" cy="731.3" r="2.6" fill="#1f3a5f"/>
<circle cx="280.9" cy="774.1" r="2.6" fill="#1f3a5f"/>
<circle cx="308.4" cy="726.5" r="2.6" fill="#1f3a5f"/>
<circle cx="335.8" cy="783.6" r="2.6" fill="#1f3a5f"/>
<circle cx="363.3" cy="793.3" r="2.6" fill="#1f3a5f"/>
<line x1="212.3" y1="670" x2="212.3" y2="830" stroke="#b9461a" stroke-dasharray="3 3"/>
<line x1="75" y1="830" x2="377" y2="830" stroke="#444"/>
<line x1="75" y1="670" x2="75" y2="830" stroke="#444"/>
<line x1="88.7" y1="830" x2="88.7" y2="833" stroke="#444"/>
<text x="88.7" y="845" text-anchor="middle" fill="#444">-5</text>
<line x1="116.2" y1="830" x2="116.2" y2="833" stroke="#444"/>
<text x="116.2" y="845" text-anchor="middle" fill="#444">-4</text>
<line x1="143.6" y1="830" x2="143.6" y2="833" stroke="#444"/>
<text x="143.6" y="845" text-anchor="middle" fill="#444">-3</text>
<line x1="171.1" y1="830" x2="171.1" y2="833" stroke="#444"/>
<text x="171.1" y="845" text-anchor="middle" fill="#444">-2</text>
<line x1="226.0" y1="830" x2="226.0" y2="833" stroke="#444"/>
<text x="226.0" y="845" text-anchor="middle" fill="#444">0</text>
<line x1="253.5" y1="830" x2="253.5" y2="833" stroke="#444"/>
<text x="253.5" y="845" text-anchor="middle" fill="#444">1</text>
<line x1="280.9" y1="830" x2="280.9" y2="833" stroke="#444"/>
<text x="280.9" y="845" text-anchor="middle" fill="#444">2</text>
<line x1="308.4" y1="830" x2="308.4" y2="833" stroke="#444"/>
<text x="308.4" y="845" text-anchor="middle" fill="#444">3</text>
<line x1="335.8" y1="830" x2="335.8" y2="833" stroke="#444"/>
<text x="335.8" y="845" text-anchor="middle" fill="#444">4</text>
<line x1="363.3" y1="830" x2="363.3" y2="833" stroke="#444"/>
<text x="363.3" y="845" text-anchor="middle" fill="#444">5</text>
<line x1="72" y1="830.0" x2="75" y2="830.0" stroke="#444"/>
<text x="69" y="833.0" text-anchor="end" fill="#444">-1.9</text>
<line x1="72" y1="790.0" x2="75" y2="790.0" stroke="#444"/>
<text x="69" y="793.0" text-anchor="end" fill="#444">-1.3</text>
<line x1="72" y1="750.0" x2="75" y2="750.0" stroke="#444"/>
<text x="69" y="753.0" text-anchor="end" fill="#444">-0.58</text>
<line x1="72" y1="710.0" x2="75" y2="710.0" stroke="#444"/>
<text x="69" y="713.0" text-anchor="end" fill="#444">0.1</text>
<line x1="72" y1="670.0" x2="75" y2="670.0" stroke="#444"/>
<text x="69" y="673.0" text-anchor="end" fill="#444">0.78</text>
<text x="226.0" y="864" text-anchor="middle" fill="#444">Event time (years from adoption)</text>
<text x="27" y="750.0" text-anchor="middle" fill="#444" transform="rotate(-90 27 750.0)">ATT (per 100k)</text>
<rect x="425" y="620" width="380" height="260" fill="#fafaf7" stroke="#e2e2dc"/>
<text x="615.0" y="638" text-anchor="middle" font-weight="600">Motor vehicle theft rate (per 100k) [placebo]</text>
<line x1="485" y1="700.7776173825946" x2="787" y2="700.7776173825946" stroke="#aaaaaa" stroke-width="0.7"/>
<polygon points="498.7,670.0 526.2,673.9 553.6,678.3 581.1,692.6 636.0,700.4 663.5,712.8 690.9,718.4 718.4,733.6 745.8,745.2 773.3,773.4 773.3,830.0 745.8,777.1 718.4,757.1 690.9,737.6 663.5,731.3 636.0,716.0 581.1,701.5 553.6,691.5 526.2,689.5 498.7,687.5" fill="#1f3a5f" opacity="0.18"/>
<polyline points="498.7,678.8 526.2,681.7 553.6,684.9 581.1,697.0 636.0,708.2 663.5,722.1 690.9,728.0 718.4,745.4 745.8,761.2 773.3,801.7" fill="none" stroke="#1f3a5f" stroke-width="1.6"/>
<circle cx="498.7" cy="678.8" r="2.6" fill="#1f3a5f"/>
<circle cx="526.2" cy="681.7" r="2.6" fill="#1f3a5f"/>
<circle cx="553.6" cy="684.9" r="2.6" fill="#1f3a5f"/>
<circle cx="581.1" cy="697.0" r="2.6" fill="#1f3a5f"/>
<circle cx="636.0" cy="708.2" r="2.6" fill="#1f3a5f"/>
<circle cx="663.5" cy="722.1" r="2.6" fill="#1f3a5f"/>
<circle cx="690.9" cy="728.0" r="2.6" fill="#1f3a5f"/>
<circle cx="718.4" cy="745.4" r="2.6" fill="#1f3a5f"/>
<circle cx="745.8" cy="761.2" r="2.6" fill="#1f3a5f"/>
<circle cx="773.3" cy="801.7" r="2.6" fill="#1f3a5f"/>
<line x1="622.3" y1="670" x2="622.3" y2="830" stroke="#b9461a" stroke-dasharray="3 3"/>
<line x1="485" y1="830" x2="787" y2="830" stroke="#444"/>
<line x1="485" y1="670" x2="485" y2="830" stroke="#444"/>
<line x1="498.7" y1="830" x2="498.7" y2="833" stroke="#444"/>
<text x="498.7" y="845" text-anchor="middle" fill="#444">-5</text>
<line x1="526.2" y1="830" x2="526.2" y2="833" stroke="#444"/>
<text x="526.2" y="845" text-anchor="middle" fill="#444">-4</text>
<line x1="553.6" y1="830" x2="553.6" y2="833" stroke="#444"/>
<text x="553.6" y="845" text-anchor="middle" fill="#444">-3</text>
<line x1="581.1" y1="830" x2="581.1" y2="833" stroke="#444"/>
<text x="581.1" y="845" text-anchor="middle" fill="#444">-2</text>
<line x1="636.0" y1="830" x2="636.0" y2="833" stroke="#444"/>
<text x="636.0" y="845" text-anchor="middle" fill="#444">0</text>
<line x1="663.5" y1="830" x2="663.5" y2="833" stroke="#444"/>
<text x="663.5" y="845" text-anchor="middle" fill="#444">1</text>
<line x1="690.9" y1="830" x2="690.9" y2="833" stroke="#444"/>
<text x="690.9" y="845" text-anchor="middle" fill="#444">2</text>
<line x1="718.4" y1="830" x2="718.4" y2="833" stroke="#444"/>
<text x="718.4" y="845" text-anchor="middle" fill="#444">3</text>
<line x1="745.8" y1="830" x2="745.8" y2="833" stroke="#444"/>
<text x="745.8" y="845" text-anchor="middle" fill="#444">4</text>
<line x1="773.3" y1="830" x2="773.3" y2="833" stroke="#444"/>
<text x="773.3" y="845" text-anchor="middle" fill="#444">5</text>
<line x1="482" y1="830.0" x2="485" y2="830.0" stroke="#444"/>
<text x="479" y="833.0" text-anchor="end" fill="#444">-2.8e+02</text>
<line x1="482" y1="790.0" x2="485" y2="790.0" stroke="#444"/>
<text x="479" y="793.0" text-anchor="end" fill="#444">-1.9e+02</text>
<line x1="482" y1="750.0" x2="485" y2="750.0" stroke="#444"/>
<text x="479" y="753.0" text-anchor="end" fill="#444">-1.1e+02</text>
<line x1="482" y1="710.0" x2="485" y2="710.0" stroke="#444"/>
<text x="479" y="713.0" text-anchor="end" fill="#444">-20</text>
<line x1="482" y1="670.0" x2="485" y2="670.0" stroke="#444"/>
<text x="479" y="673.0" text-anchor="end" fill="#444">66</text>
<text x="636.0" y="864" text-anchor="middle" fill="#444">Event time (years from adoption)</text>
<text x="437" y="750.0" text-anchor="middle" fill="#444" transform="rotate(-90 437 750.0)">ATT (per 100k)</text>
<text x="805" y="608" text-anchor="end" fill="#888" font-size="10">Shaded band: pointwise 95% CI from cluster bootstrap. Vertical dashed line marks the year before adoption.</text>
</svg>