<svg xmlns="http://www.w3.org/2000/svg" viewBox="0 0 820 620" font-family="-apple-system, Segoe UI, Helvetica, Arial, sans-serif" font-size="11">
<text x="410.0" y="22" text-anchor="middle" font-size="14" font-weight="600">Permitless carry adoption: Callaway-Sant'Anna ATT by event time (RA)</text>
<rect x="15" y="40" width="380" height="260" fill="#fafaf7" stroke="#e2e2dc"/>
<text x="205.0" y="58" text-anchor="middle" font-weight="600">Firearm suicide rate (per 100k)</text>
<line x1="75" y1="169.80965830445638" x2="377" y2="169.80965830445638" stroke="#aaaaaa" stroke-width="0.7"/>
<polygon points="88.7,148.0 116.2,116.8 143.6,122.3 171.1,147.6 226.0,112.2 253.5,104.1 280.9,90.0 308.4,194.4 335.8,141.6 363.3,182.2 363.3,250.0 335.8,208.2 308.4,238.1 280.9,130.0 253.5,143.8 226.0,153.9 171.1,184.7 143.6,163.3 116.2,166.9 88.7,184.7" fill="#1f3a5f" opacity="0.18"/>
<polyline points="88.7,166.4 116.2,141.9 143.6,142.8 171.1,166.2 226.0,133.1 253.5,123.9 280.9,110.0 308.4,216.2 335.8,174.9 363.3,216.1" fill="none" stroke="#1f3a5f" stroke-width="1.6"/>
<circle cx="88.7" cy="166.4" r="2.6" fill="#1f3a5f"/>
<circle cx="116.2" cy="141.9" r="2.6" fill="#1f3a5f"/>
<circle cx="143.6" cy="142.8" r="2.6" fill="#1f3a5f"/>
<circle cx="171.1" cy="166.2" r="2.6" fill="#1f3a5f"/>
<circle cx="226.0" cy="133.1" r="2.6" fill="#1f3a5f"/>
<circle cx="253.5" cy="123.9" r="2.6" fill="#1f3a5f"/>
<circle cx="280.9" cy="110.0" r="2.6" fill="#1f3a5f"/>
<circle cx="308.4" cy="216.2" r="2.6" fill="#1f3a5f"/>
<circle cx="335.8" cy="174.9" r="2.6" fill="#1f3a5f"/>
<circle cx="363.3" cy="216.1" r="2.6" fill="#1f3a5f"/>
<line x1="212.3" y1="90" x2="212.3" y2="250" stroke="#b9461a" stroke-dasharray="3 3"/>
<line x1="75" y1="250" x2="377" y2="250" stroke="#444"/>
<line x1="75" y1="90" x2="75" y2="250" stroke="#444"/>
<line x1="88.7" y1="250" x2="88.7" y2="253" stroke="#444"/>
<text x="88.7" y="265" text-anchor="middle" fill="#444">-5</text>
<line x1="116.2" y1="250" x2="116.2" y2="253" stroke="#444"/>
<text x="116.2" y="265" text-anchor="middle" fill="#444">-4</text>
<line x1="143.6" y1="250" x2="143.6" y2="253" stroke="#444"/>
<text x="143.6" y="265" text-anchor="middle" fill="#444">-3</text>
<line x1="171.1" y1="250" x2="171.1" y2="253" stroke="#444"/>
<text x="171.1" y="265" text-anchor="middle" fill="#444">-2</text>
<line x1="226.0" y1="250" x2="226.0" y2="253" stroke="#444"/>
<text x="226.0" y="265" text-anchor="middle" fill="#444">0</text>
<line x1="253.5" y1="250" x2="253.5" y2="253" stroke="#444"/>
<text x="253.5" y="265" text-anchor="middle" fill="#444">1</text>
<line x1="280.9" y1="250" x2="280.9" y2="253" stroke="#444"/>
<text x="280.9" y="265" text-anchor="middle" fill="#444">2</text>
<line x1="308.4" y1="250" x2="308.4" y2="253" stroke="#444"/>
<text x="308.4" y="265" text-anchor="middle" fill="#444">3</text>
<line x1="335.8" y1="250" x2="335.8" y2="253" stroke="#444"/>
<text x="335.8" y="265" text-anchor="middle" fill="#444">4</text>
<line x1="363.3" y1="250" x2="363.3" y2="253" stroke="#444"/>
<text x="363.3" y="265" text-anchor="middle" fill="#444">5</text>
<line x1="72" y1="250.0" x2="75" y2="250.0" stroke="#444"/>
<text x="69" y="253.0" text-anchor="end" fill="#444">-0.85</text>
<line x1="72" y1="210.0" x2="75" y2="210.0" stroke="#444"/>
<text x="69" y="213.0" text-anchor="end" fill="#444">-0.43</text>
<line x1="72" y1="170.0" x2="75" y2="170.0" stroke="#444"/>
<text x="69" y="173.0" text-anchor="end" fill="#444">-0.002</text>
<line x1="72" y1="130.0" x2="75" y2="130.0" stroke="#444"/>
<text x="69" y="133.0" text-anchor="end" fill="#444">0.42</text>
<line x1="72" y1="90.0" x2="75" y2="90.0" stroke="#444"/>
<text x="69" y="93.0" text-anchor="end" fill="#444">0.84</text>
<text x="226.0" y="284" text-anchor="middle" fill="#444">Event time (years from adoption)</text>
<text x="27" y="170.0" text-anchor="middle" fill="#444" transform="rotate(-90 27 170.0)">ATT (per 100k)</text>
<rect x="425" y="40" width="380" height="260" fill="#fafaf7" stroke="#e2e2dc"/>
<text x="615.0" y="58" text-anchor="middle" font-weight="600">Firearm homicide rate (per 100k)</text>
<line x1="485" y1="154.4884788080853" x2="787" y2="154.4884788080853" stroke="#aaaaaa" stroke-width="0.7"/>
<polygon points="498.7,98.5 526.2,90.0 553.6,118.9 581.1,129.6 636.0,151.4 663.5,135.5 690.9,146.5 718.4,132.7 745.8,181.2 773.3,131.7 773.3,244.2 745.8,250.0 718.4,190.9 690.9,209.3 663.5,177.8 636.0,187.7 581.1,161.6 553.6,154.1 526.2,126.1 498.7,138.8" fill="#1f3a5f" opacity="0.18"/>
<polyline points="498.7,118.6 526.2,108.1 553.6,136.5 581.1,145.6 636.0,169.6 663.5,156.7 690.9,177.9 718.4,161.8 745.8,215.6 773.3,188.0" fill="none" stroke="#1f3a5f" stroke-width="1.6"/>
<circle cx="498.7" cy="118.6" r="2.6" fill="#1f3a5f"/>
<circle cx="526.2" cy="108.1" r="2.6" fill="#1f3a5f"/>
<circle cx="553.6" cy="136.5" r="2.6" fill="#1f3a5f"/>
<circle cx="581.1" cy="145.6" r="2.6" fill="#1f3a5f"/>
<circle cx="636.0" cy="169.6" r="2.6" fill="#1f3a5f"/>
<circle cx="663.5" cy="156.7" r="2.6" fill="#1f3a5f"/>
<circle cx="690.9" cy="177.9" r="2.6" fill="#1f3a5f"/>
<circle cx="718.4" cy="161.8" r="2.6" fill="#1f3a5f"/>
<circle cx="745.8" cy="215.6" r="2.6" fill="#1f3a5f"/>
<circle cx="773.3" cy="188.0" r="2.6" fill="#1f3a5f"/>
<line x1="622.3" y1="90" x2="622.3" y2="250" stroke="#b9461a" stroke-dasharray="3 3"/>
<line x1="485" y1="250" x2="787" y2="250" stroke="#444"/>
<line x1="485" y1="90" x2="485" y2="250" stroke="#444"/>
<line x1="498.7" y1="250" x2="498.7" y2="253" stroke="#444"/>
<text x="498.7" y="265" text-anchor="middle" fill="#444">-5</text>
<line x1="526.2" y1="250" x2="526.2" y2="253" stroke="#444"/>
<text x="526.2" y="265" text-anchor="middle" fill="#444">-4</text>
<line x1="553.6" y1="250" x2="553.6" y2="253" stroke="#444"/>
<text x="553.6" y="265" text-anchor="middle" fill="#444">-3</text>
<line x1="581.1" y1="250" x2="581.1" y2="253" stroke="#444"/>
<text x="581.1" y="265" text-anchor="middle" fill="#444">-2</text>
<line x1="636.0" y1="250" x2="636.0" y2="253" stroke="#444"/>
<text x="636.0" y="265" text-anchor="middle" fill="#444">0</text>
<line x1="663.5" y1="250" x2="663.5" y2="253" stroke="#444"/>
<text x="663.5" y="265" text-anchor="middle" fill="#444">1</text>
<line x1="690.9" y1="250" x2="690.9" y2="253" stroke="#444"/>
<text x="690.9" y="265" text-anchor="middle" fill="#444">2</text>
<line x1="718.4" y1="250" x2="718.4" y2="253" stroke="#444"/>
<text x="718.4" y="265" text-anchor="middle" fill="#444">3</text>
<line x1="745.8" y1="250" x2="745.8" y2="253" stroke="#444"/>
<text x="745.8" y="265" text-anchor="middle" fill="#444">4</text>
<line x1="773.3" y1="250" x2="773.3" y2="253" stroke="#444"/>
<text x="773.3" y="265" text-anchor="middle" fill="#444">5</text>
<line x1="482" y1="250.0" x2="485" y2="250.0" stroke="#444"/>
<text x="479" y="253.0" text-anchor="end" fill="#444">-1.2</text>
<line x1="482" y1="210.0" x2="485" y2="210.0" stroke="#444"/>
<text x="479" y="213.0" text-anchor="end" fill="#444">-0.69</text>
<line x1="482" y1="170.0" x2="485" y2="170.0" stroke="#444"/>
<text x="479" y="173.0" text-anchor="end" fill="#444">-0.19</text>
<line x1="482" y1="130.0" x2="485" y2="130.0" stroke="#444"/>
<text x="479" y="133.0" text-anchor="end" fill="#444">0.31</text>
<line x1="482" y1="90.0" x2="485" y2="90.0" stroke="#444"/>
<text x="479" y="93.0" text-anchor="end" fill="#444">0.8</text>
<text x="636.0" y="284" text-anchor="middle" fill="#444">Event time (years from adoption)</text>
<text x="437" y="170.0" text-anchor="middle" fill="#444" transform="rotate(-90 437 170.0)">ATT (per 100k)</text>
<rect x="15" y="330" width="380" height="260" fill="#fafaf7" stroke="#e2e2dc"/>
<text x="205.0" y="348" text-anchor="middle" font-weight="600">Total homicide rate (per 100k)</text>
<line x1="75" y1="425.9900591398698" x2="377" y2="425.9900591398698" stroke="#aaaaaa" stroke-width="0.7"/>
<polygon points="88.7,382.9 116.2,380.0 143.6,396.3 171.1,428.4 226.0,440.6 253.5,416.9 280.9,452.2 308.4,408.9 335.8,466.5 363.3,466.5 363.3,540.0 335.8,520.7 308.4,464.2 280.9,515.9 253.5,465.7 226.0,479.0 171.1,460.2 143.6,430.1 116.2,413.3 88.7,421.9" fill="#1f3a5f" opacity="0.18"/>
<polyline points="88.7,402.4 116.2,396.6 143.6,413.2 171.1,444.3 226.0,459.8 253.5,441.3 280.9,484.1 308.4,436.5 335.8,493.6 363.3,503.3" fill="none" stroke="#1f3a5f" stroke-width="1.6"/>
<circle cx="88.7" cy="402.4" r="2.6" fill="#1f3a5f"/>
<circle cx="116.2" cy="396.6" r="2.6" fill="#1f3a5f"/>
<circle cx="143.6" cy="413.2" r="2.6" fill="#1f3a5f"/>
<circle cx="171.1" cy="444.3" r="2.6" fill="#1f3a5f"/>
<circle cx="226.0" cy="459.8" r="2.6" fill="#1f3a5f"/>
<circle cx="253.5" cy="441.3" r="2.6" fill="#1f3a5f"/>
<circle cx="280.9" cy="484.1" r="2.6" fill="#1f3a5f"/>
<circle cx="308.4" cy="436.5" r="2.6" fill="#1f3a5f"/>
<circle cx="335.8" cy="493.6" r="2.6" fill="#1f3a5f"/>
<circle cx="363.3" cy="503.3" r="2.6" fill="#1f3a5f"/>
<line x1="212.3" y1="380" x2="212.3" y2="540" stroke="#b9461a" stroke-dasharray="3 3"/>
<line x1="75" y1="540" x2="377" y2="540" stroke="#444"/>
<line x1="75" y1="380" x2="75" y2="540" stroke="#444"/>
<line x1="88.7" y1="540" x2="88.7" y2="543" stroke="#444"/>
<text x="88.7" y="555" text-anchor="middle" fill="#444">-5</text>
<line x1="116.2" y1="540" x2="116.2" y2="543" stroke="#444"/>
<text x="116.2" y="555" text-anchor="middle" fill="#444">-4</text>
<line x1="143.6" y1="540" x2="143.6" y2="543" stroke="#444"/>
<text x="143.6" y="555" text-anchor="middle" fill="#444">-3</text>
<line x1="171.1" y1="540" x2="171.1" y2="543" stroke="#444"/>
<text x="171.1" y="555" text-anchor="middle" fill="#444">-2</text>
<line x1="226.0" y1="540" x2="226.0" y2="543" stroke="#444"/>
<text x="226.0" y="555" text-anchor="middle" fill="#444">0</text>
<line x1="253.5" y1="540" x2="253.5" y2="543" stroke="#444"/>
<text x="253.5" y="555" text-anchor="middle" fill="#444">1</text>
<line x1="280.9" y1="540" x2="280.9" y2="543" stroke="#444"/>
<text x="280.9" y="555" text-anchor="middle" fill="#444">2</text>
<line x1="308.4" y1="540" x2="308.4" y2="543" stroke="#444"/>
<text x="308.4" y="555" text-anchor="middle" fill="#444">3</text>
<line x1="335.8" y1="540" x2="335.8" y2="543" stroke="#444"/>
<text x="335.8" y="555" text-anchor="middle" fill="#444">4</text>
<line x1="363.3" y1="540" x2="363.3" y2="543" stroke="#444"/>
<text x="363.3" y="555" text-anchor="middle" fill="#444">5</text>
<line x1="72" y1="540.0" x2="75" y2="540.0" stroke="#444"/>
<text x="69" y="543.0" text-anchor="end" fill="#444">-1.9</text>
<line x1="72" y1="500.0" x2="75" y2="500.0" stroke="#444"/>
<text x="69" y="503.0" text-anchor="end" fill="#444">-1.3</text>
<line x1="72" y1="460.0" x2="75" y2="460.0" stroke="#444"/>
<text x="69" y="463.0" text-anchor="end" fill="#444">-0.58</text>
<line x1="72" y1="420.0" x2="75" y2="420.0" stroke="#444"/>
<text x="69" y="423.0" text-anchor="end" fill="#444">0.1</text>
<line x1="72" y1="380.0" x2="75" y2="380.0" stroke="#444"/>
<text x="69" y="383.0" text-anchor="end" fill="#444">0.78</text>
<text x="226.0" y="574" text-anchor="middle" fill="#444">Event time (years from adoption)</text>
<text x="27" y="460.0" text-anchor="middle" fill="#444" transform="rotate(-90 27 460.0)">ATT (per 100k)</text>
<rect x="425" y="330" width="380" height="260" fill="#fafaf7" stroke="#e2e2dc"/>
<text x="615.0" y="348" text-anchor="middle" font-weight="600">Motor vehicle theft rate (per 100k) [placebo]</text>
<line x1="485" y1="410.77761738259454" x2="787" y2="410.77761738259454" stroke="#aaaaaa" stroke-width="0.7"/>
<polygon points="498.7,380.0 526.2,383.9 553.6,388.3 581.1,402.6 636.0,410.4 663.5,422.8 690.9,428.4 718.4,443.6 745.8,455.2 773.3,483.4 773.3,540.0 745.8,487.1 718.4,467.1 690.9,447.6 663.5,441.3 636.0,426.0 581.1,411.5 553.6,401.5 526.2,399.5 498.7,397.5" fill="#1f3a5f" opacity="0.18"/>
<polyline points="498.7,388.8 526.2,391.7 553.6,394.9 581.1,407.0 636.0,418.2 663.5,432.1 690.9,438.0 718.4,455.4 745.8,471.2 773.3,511.7" fill="none" stroke="#1f3a5f" stroke-width="1.6"/>
<circle cx="498.7" cy="388.8" r="2.6" fill="#1f3a5f"/>
<circle cx="526.2" cy="391.7" r="2.6" fill="#1f3a5f"/>
<circle cx="553.6" cy="394.9" r="2.6" fill="#1f3a5f"/>
<circle cx="581.1" cy="407.0" r="2.6" fill="#1f3a5f"/>
<circle cx="636.0" cy="418.2" r="2.6" fill="#1f3a5f"/>
<circle cx="663.5" cy="432.1" r="2.6" fill="#1f3a5f"/>
<circle cx="690.9" cy="438.0" r="2.6" fill="#1f3a5f"/>
<circle cx="718.4" cy="455.4" r="2.6" fill="#1f3a5f"/>
<circle cx="745.8" cy="471.2" r="2.6" fill="#1f3a5f"/>
<circle cx="773.3" cy="511.7" r="2.6" fill="#1f3a5f"/>
<line x1="622.3" y1="380" x2="622.3" y2="540" stroke="#b9461a" stroke-dasharray="3 3"/>
<line x1="485" y1="540" x2="787" y2="540" stroke="#444"/>
<line x1="485" y1="380" x2="485" y2="540" stroke="#444"/>
<line x1="498.7" y1="540" x2="498.7" y2="543" stroke="#444"/>
<text x="498.7" y="555" text-anchor="middle" fill="#444">-5</text>
<line x1="526.2" y1="540" x2="526.2" y2="543" stroke="#444"/>
<text x="526.2" y="555" text-anchor="middle" fill="#444">-4</text>
<line x1="553.6" y1="540" x2="553.6" y2="543" stroke="#444"/>
<text x="553.6" y="555" text-anchor="middle" fill="#444">-3</text>
<line x1="581.1" y1="540" x2="581.1" y2="543" stroke="#444"/>
<text x="581.1" y="555" text-anchor="middle" fill="#444">-2</text>
<line x1="636.0" y1="540" x2="636.0" y2="543" stroke="#444"/>
<text x="636.0" y="555" text-anchor="middle" fill="#444">0</text>
<line x1="663.5" y1="540" x2="663.5" y2="543" stroke="#444"/>
<text x="663.5" y="555" text-anchor="middle" fill="#444">1</text>
<line x1="690.9" y1="540" x2="690.9" y2="543" stroke="#444"/>
<text x="690.9" y="555" text-anchor="middle" fill="#444">2</text>
<line x1="718.4" y1="540" x2="718.4" y2="543" stroke="#444"/>
<text x="718.4" y="555" text-anchor="middle" fill="#444">3</text>
<line x1="745.8" y1="540" x2="745.8" y2="543" stroke="#444"/>
<text x="745.8" y="555" text-anchor="middle" fill="#444">4</text>
<line x1="773.3" y1="540" x2="773.3" y2="543" stroke="#444"/>
<text x="773.3" y="555" text-anchor="middle" fill="#444">5</text>
<line x1="482" y1="540.0" x2="485" y2="540.0" stroke="#444"/>
<text x="479" y="543.0" text-anchor="end" fill="#444">-2.8e+02</text>
<line x1="482" y1="500.0" x2="485" y2="500.0" stroke="#444"/>
<text x="479" y="503.0" text-anchor="end" fill="#444">-1.9e+02</text>
<line x1="482" y1="460.0" x2="485" y2="460.0" stroke="#444"/>
<text x="479" y="463.0" text-anchor="end" fill="#444">-1.1e+02</text>
<line x1="482" y1="420.0" x2="485" y2="420.0" stroke="#444"/>
<text x="479" y="423.0" text-anchor="end" fill="#444">-20</text>
<line x1="482" y1="380.0" x2="485" y2="380.0" stroke="#444"/>
<text x="479" y="383.0" text-anchor="end" fill="#444">66</text>
<text x="636.0" y="574" text-anchor="middle" fill="#444">Event time (years from adoption)</text>
<text x="437" y="460.0" text-anchor="middle" fill="#444" transform="rotate(-90 437 460.0)">ATT (per 100k)</text>
<text x="805" y="608" text-anchor="end" fill="#888" font-size="10">Shaded band: pointwise 95% CI from cluster bootstrap. Vertical dashed line marks the year before adoption.</text>
</svg>