<svg xmlns="http://www.w3.org/2000/svg" viewBox="0 0 820 620" font-family="-apple-system, Segoe UI, Helvetica, Arial, sans-serif" font-size="11">
<text x="410.0" y="22" text-anchor="middle" font-size="14" font-weight="600">Callaway-Sant'Anna ATT by event time (RA) -- permitless carry</text>
<rect x="15" y="40" width="380" height="260" fill="#fafaf7" stroke="#e2e2dc"/>
<text x="205.0" y="58" text-anchor="middle" font-weight="600">Firearm suicide rate (per 100k)</text>
<line x1="75" y1="232.18970471495436" x2="377" y2="232.18970471495436" stroke="#aaaaaa" stroke-width="0.7"/>
<polygon points="88.7,202.5 116.2,189.8 143.6,90.0 171.1,165.8 226.0,124.0 253.5,134.9 280.9,97.5 308.4,188.2 335.8,132.6 363.3,168.0 363.3,223.3 335.8,204.1 308.4,238.2 280.9,134.4 253.5,165.2 226.0,189.3 171.1,206.2 143.6,152.4 116.2,250.0 88.7,236.0" fill="#1f3a5f" opacity="0.18"/>
<polyline points="88.7,219.3 116.2,219.9 143.6,121.2 171.1,186.0 226.0,156.7 253.5,150.1 280.9,115.9 308.4,213.2 335.8,168.4 363.3,195.6" fill="none" stroke="#1f3a5f" stroke-width="1.6"/>
<circle cx="88.7" cy="219.3" r="2.6" fill="#1f3a5f"/>
<circle cx="116.2" cy="219.9" r="2.6" fill="#1f3a5f"/>
<circle cx="143.6" cy="121.2" r="2.6" fill="#1f3a5f"/>
<circle cx="171.1" cy="186.0" r="2.6" fill="#1f3a5f"/>
<circle cx="226.0" cy="156.7" r="2.6" fill="#1f3a5f"/>
<circle cx="253.5" cy="150.1" r="2.6" fill="#1f3a5f"/>
<circle cx="280.9" cy="115.9" r="2.6" fill="#1f3a5f"/>
<circle cx="308.4" cy="213.2" r="2.6" fill="#1f3a5f"/>
<circle cx="335.8" cy="168.4" r="2.6" fill="#1f3a5f"/>
<circle cx="363.3" cy="195.6" r="2.6" fill="#1f3a5f"/>
<line x1="212.3" y1="90" x2="212.3" y2="250" stroke="#b9461a" stroke-dasharray="3 3"/>
<line x1="75" y1="250" x2="377" y2="250" stroke="#444"/>
<line x1="75" y1="90" x2="75" y2="250" stroke="#444"/>
<line x1="88.7" y1="250" x2="88.7" y2="253" stroke="#444"/>
<text x="88.7" y="265" text-anchor="middle" fill="#444">-5</text>
<line x1="116.2" y1="250" x2="116.2" y2="253" stroke="#444"/>
<text x="116.2" y="265" text-anchor="middle" fill="#444">-4</text>
<line x1="143.6" y1="250" x2="143.6" y2="253" stroke="#444"/>
<text x="143.6" y="265" text-anchor="middle" fill="#444">-3</text>
<line x1="171.1" y1="250" x2="171.1" y2="253" stroke="#444"/>
<text x="171.1" y="265" text-anchor="middle" fill="#444">-2</text>
<line x1="226.0" y1="250" x2="226.0" y2="253" stroke="#444"/>
<text x="226.0" y="265" text-anchor="middle" fill="#444">0</text>
<line x1="253.5" y1="250" x2="253.5" y2="253" stroke="#444"/>
<text x="253.5" y="265" text-anchor="middle" fill="#444">1</text>
<line x1="280.9" y1="250" x2="280.9" y2="253" stroke="#444"/>
<text x="280.9" y="265" text-anchor="middle" fill="#444">2</text>
<line x1="308.4" y1="250" x2="308.4" y2="253" stroke="#444"/>
<text x="308.4" y="265" text-anchor="middle" fill="#444">3</text>
<line x1="335.8" y1="250" x2="335.8" y2="253" stroke="#444"/>
<text x="335.8" y="265" text-anchor="middle" fill="#444">4</text>
<line x1="363.3" y1="250" x2="363.3" y2="253" stroke="#444"/>
<text x="363.3" y="265" text-anchor="middle" fill="#444">5</text>
<line x1="72" y1="250.0" x2="75" y2="250.0" stroke="#444"/>
<text x="69" y="253.0" text-anchor="end" fill="#444">-0.24</text>
<line x1="72" y1="210.0" x2="75" y2="210.0" stroke="#444"/>
<text x="69" y="213.0" text-anchor="end" fill="#444">0.3</text>
<line x1="72" y1="170.0" x2="75" y2="170.0" stroke="#444"/>
<text x="69" y="173.0" text-anchor="end" fill="#444">0.83</text>
<line x1="72" y1="130.0" x2="75" y2="130.0" stroke="#444"/>
<text x="69" y="133.0" text-anchor="end" fill="#444">1.4</text>
<line x1="72" y1="90.0" x2="75" y2="90.0" stroke="#444"/>
<text x="69" y="93.0" text-anchor="end" fill="#444">1.9</text>
<text x="226.0" y="284" text-anchor="middle" fill="#444">Event time (years from adoption)</text>
<text x="27" y="170.0" text-anchor="middle" fill="#444" transform="rotate(-90 27 170.0)">ATT (per 100k)</text>
<rect x="425" y="40" width="380" height="260" fill="#fafaf7" stroke="#e2e2dc"/>
<text x="615.0" y="58" text-anchor="middle" font-weight="600">Non-firearm suicide rate (per 100k) [substitution test]</text>
<line x1="485" y1="185.26484044671272" x2="787" y2="185.26484044671272" stroke="#aaaaaa" stroke-width="0.7"/>
<polygon points="498.7,174.8 526.2,145.2 553.6,199.1 581.1,190.3 636.0,187.7 663.5,90.0 690.9,160.3 718.4,145.0 745.8,139.3 773.3,171.5 773.3,218.3 745.8,193.9 718.4,224.7 690.9,224.5 663.5,173.4 636.0,225.2 581.1,250.0 553.6,243.9 526.2,208.2 498.7,241.7" fill="#1f3a5f" opacity="0.18"/>
<polyline points="498.7,208.3 526.2,176.7 553.6,221.5 581.1,220.1 636.0,206.4 663.5,131.7 690.9,192.4 718.4,184.9 745.8,166.6 773.3,194.9" fill="none" stroke="#1f3a5f" stroke-width="1.6"/>
<circle cx="498.7" cy="208.3" r="2.6" fill="#1f3a5f"/>
<circle cx="526.2" cy="176.7" r="2.6" fill="#1f3a5f"/>
<circle cx="553.6" cy="221.5" r="2.6" fill="#1f3a5f"/>
<circle cx="581.1" cy="220.1" r="2.6" fill="#1f3a5f"/>
<circle cx="636.0" cy="206.4" r="2.6" fill="#1f3a5f"/>
<circle cx="663.5" cy="131.7" r="2.6" fill="#1f3a5f"/>
<circle cx="690.9" cy="192.4" r="2.6" fill="#1f3a5f"/>
<circle cx="718.4" cy="184.9" r="2.6" fill="#1f3a5f"/>
<circle cx="745.8" cy="166.6" r="2.6" fill="#1f3a5f"/>
<circle cx="773.3" cy="194.9" r="2.6" fill="#1f3a5f"/>
<line x1="622.3" y1="90" x2="622.3" y2="250" stroke="#b9461a" stroke-dasharray="3 3"/>
<line x1="485" y1="250" x2="787" y2="250" stroke="#444"/>
<line x1="485" y1="90" x2="485" y2="250" stroke="#444"/>
<line x1="498.7" y1="250" x2="498.7" y2="253" stroke="#444"/>
<text x="498.7" y="265" text-anchor="middle" fill="#444">-5</text>
<line x1="526.2" y1="250" x2="526.2" y2="253" stroke="#444"/>
<text x="526.2" y="265" text-anchor="middle" fill="#444">-4</text>
<line x1="553.6" y1="250" x2="553.6" y2="253" stroke="#444"/>
<text x="553.6" y="265" text-anchor="middle" fill="#444">-3</text>
<line x1="581.1" y1="250" x2="581.1" y2="253" stroke="#444"/>
<text x="581.1" y="265" text-anchor="middle" fill="#444">-2</text>
<line x1="636.0" y1="250" x2="636.0" y2="253" stroke="#444"/>
<text x="636.0" y="265" text-anchor="middle" fill="#444">0</text>
<line x1="663.5" y1="250" x2="663.5" y2="253" stroke="#444"/>
<text x="663.5" y="265" text-anchor="middle" fill="#444">1</text>
<line x1="690.9" y1="250" x2="690.9" y2="253" stroke="#444"/>
<text x="690.9" y="265" text-anchor="middle" fill="#444">2</text>
<line x1="718.4" y1="250" x2="718.4" y2="253" stroke="#444"/>
<text x="718.4" y="265" text-anchor="middle" fill="#444">3</text>
<line x1="745.8" y1="250" x2="745.8" y2="253" stroke="#444"/>
<text x="745.8" y="265" text-anchor="middle" fill="#444">4</text>
<line x1="773.3" y1="250" x2="773.3" y2="253" stroke="#444"/>
<text x="773.3" y="265" text-anchor="middle" fill="#444">5</text>
<line x1="482" y1="250.0" x2="485" y2="250.0" stroke="#444"/>
<text x="479" y="253.0" text-anchor="end" fill="#444">-0.88</text>
<line x1="482" y1="210.0" x2="485" y2="210.0" stroke="#444"/>
<text x="479" y="213.0" text-anchor="end" fill="#444">-0.34</text>
<line x1="482" y1="170.0" x2="485" y2="170.0" stroke="#444"/>
<text x="479" y="173.0" text-anchor="end" fill="#444">0.21</text>
<line x1="482" y1="130.0" x2="485" y2="130.0" stroke="#444"/>
<text x="479" y="133.0" text-anchor="end" fill="#444">0.75</text>
<line x1="482" y1="90.0" x2="485" y2="90.0" stroke="#444"/>
<text x="479" y="93.0" text-anchor="end" fill="#444">1.3</text>
<text x="636.0" y="284" text-anchor="middle" fill="#444">Event time (years from adoption)</text>
<text x="437" y="170.0" text-anchor="middle" fill="#444" transform="rotate(-90 437 170.0)">ATT (per 100k)</text>
<rect x="15" y="330" width="380" height="260" fill="#fafaf7" stroke="#e2e2dc"/>
<text x="205.0" y="348" text-anchor="middle" font-weight="600">Total suicide rate (per 100k) [net effect]</text>
<line x1="75" y1="507.62487668425996" x2="377" y2="507.62487668425996" stroke="#aaaaaa" stroke-width="0.7"/>
<polygon points="88.7,490.8 116.2,451.4 143.6,420.7 171.1,470.6 226.0,445.9 253.5,380.0 280.9,404.6 308.4,457.7 335.8,408.6 363.3,455.4 363.3,520.6 335.8,485.0 308.4,529.1 280.9,450.8 253.5,434.3 226.0,490.3 171.1,529.2 143.6,486.1 116.2,532.9 88.7,540.0" fill="#1f3a5f" opacity="0.18"/>
<polyline points="88.7,515.4 116.2,492.1 143.6,453.4 171.1,499.9 226.0,468.1 253.5,407.1 280.9,427.7 308.4,493.4 335.8,446.8 363.3,488.0" fill="none" stroke="#1f3a5f" stroke-width="1.6"/>
<circle cx="88.7" cy="515.4" r="2.6" fill="#1f3a5f"/>
<circle cx="116.2" cy="492.1" r="2.6" fill="#1f3a5f"/>
<circle cx="143.6" cy="453.4" r="2.6" fill="#1f3a5f"/>
<circle cx="171.1" cy="499.9" r="2.6" fill="#1f3a5f"/>
<circle cx="226.0" cy="468.1" r="2.6" fill="#1f3a5f"/>
<circle cx="253.5" cy="407.1" r="2.6" fill="#1f3a5f"/>
<circle cx="280.9" cy="427.7" r="2.6" fill="#1f3a5f"/>
<circle cx="308.4" cy="493.4" r="2.6" fill="#1f3a5f"/>
<circle cx="335.8" cy="446.8" r="2.6" fill="#1f3a5f"/>
<circle cx="363.3" cy="488.0" r="2.6" fill="#1f3a5f"/>
<line x1="212.3" y1="380" x2="212.3" y2="540" stroke="#b9461a" stroke-dasharray="3 3"/>
<line x1="75" y1="540" x2="377" y2="540" stroke="#444"/>
<line x1="75" y1="380" x2="75" y2="540" stroke="#444"/>
<line x1="88.7" y1="540" x2="88.7" y2="543" stroke="#444"/>
<text x="88.7" y="555" text-anchor="middle" fill="#444">-5</text>
<line x1="116.2" y1="540" x2="116.2" y2="543" stroke="#444"/>
<text x="116.2" y="555" text-anchor="middle" fill="#444">-4</text>
<line x1="143.6" y1="540" x2="143.6" y2="543" stroke="#444"/>
<text x="143.6" y="555" text-anchor="middle" fill="#444">-3</text>
<line x1="171.1" y1="540" x2="171.1" y2="543" stroke="#444"/>
<text x="171.1" y="555" text-anchor="middle" fill="#444">-2</text>
<line x1="226.0" y1="540" x2="226.0" y2="543" stroke="#444"/>
<text x="226.0" y="555" text-anchor="middle" fill="#444">0</text>
<line x1="253.5" y1="540" x2="253.5" y2="543" stroke="#444"/>
<text x="253.5" y="555" text-anchor="middle" fill="#444">1</text>
<line x1="280.9" y1="540" x2="280.9" y2="543" stroke="#444"/>
<text x="280.9" y="555" text-anchor="middle" fill="#444">2</text>
<line x1="308.4" y1="540" x2="308.4" y2="543" stroke="#444"/>
<text x="308.4" y="555" text-anchor="middle" fill="#444">3</text>
<line x1="335.8" y1="540" x2="335.8" y2="543" stroke="#444"/>
<text x="335.8" y="555" text-anchor="middle" fill="#444">4</text>
<line x1="363.3" y1="540" x2="363.3" y2="543" stroke="#444"/>
<text x="363.3" y="555" text-anchor="middle" fill="#444">5</text>
<line x1="72" y1="540.0" x2="75" y2="540.0" stroke="#444"/>
<text x="69" y="543.0" text-anchor="end" fill="#444">-0.59</text>
<line x1="72" y1="500.0" x2="75" y2="500.0" stroke="#444"/>
<text x="69" y="503.0" text-anchor="end" fill="#444">0.14</text>
<line x1="72" y1="460.0" x2="75" y2="460.0" stroke="#444"/>
<text x="69" y="463.0" text-anchor="end" fill="#444">0.87</text>
<line x1="72" y1="420.0" x2="75" y2="420.0" stroke="#444"/>
<text x="69" y="423.0" text-anchor="end" fill="#444">1.6</text>
<line x1="72" y1="380.0" x2="75" y2="380.0" stroke="#444"/>
<text x="69" y="383.0" text-anchor="end" fill="#444">2.3</text>
<text x="226.0" y="574" text-anchor="middle" fill="#444">Event time (years from adoption)</text>
<text x="27" y="460.0" text-anchor="middle" fill="#444" transform="rotate(-90 27 460.0)">ATT (per 100k)</text>
<rect x="425" y="330" width="380" height="260" fill="#fafaf7" stroke="#e2e2dc"/>
<text x="615.0" y="348" text-anchor="middle" font-weight="600">Firearm homicide rate (per 100k)</text>
<line x1="485" y1="484.5518703243115" x2="787" y2="484.5518703243115" stroke="#aaaaaa" stroke-width="0.7"/>
<polygon points="498.7,515.2 526.2,497.8 553.6,503.5 581.1,466.6 636.0,453.6 663.5,434.6 690.9,426.6 718.4,442.8 745.8,436.7 773.3,380.0 773.3,447.0 745.8,479.2 718.4,481.5 690.9,459.6 663.5,463.1 636.0,487.6 581.1,492.4 553.6,529.2 526.2,523.3 498.7,540.0" fill="#1f3a5f" opacity="0.18"/>
<polyline points="498.7,527.6 526.2,510.6 553.6,516.4 581.1,479.5 636.0,470.6 663.5,448.8 690.9,443.1 718.4,462.2 745.8,457.9 773.3,413.5" fill="none" stroke="#1f3a5f" stroke-width="1.6"/>
<circle cx="498.7" cy="527.6" r="2.6" fill="#1f3a5f"/>
<circle cx="526.2" cy="510.6" r="2.6" fill="#1f3a5f"/>
<circle cx="553.6" cy="516.4" r="2.6" fill="#1f3a5f"/>
<circle cx="581.1" cy="479.5" r="2.6" fill="#1f3a5f"/>
<circle cx="636.0" cy="470.6" r="2.6" fill="#1f3a5f"/>
<circle cx="663.5" cy="448.8" r="2.6" fill="#1f3a5f"/>
<circle cx="690.9" cy="443.1" r="2.6" fill="#1f3a5f"/>
<circle cx="718.4" cy="462.2" r="2.6" fill="#1f3a5f"/>
<circle cx="745.8" cy="457.9" r="2.6" fill="#1f3a5f"/>
<circle cx="773.3" cy="413.5" r="2.6" fill="#1f3a5f"/>
<line x1="622.3" y1="380" x2="622.3" y2="540" stroke="#b9461a" stroke-dasharray="3 3"/>
<line x1="485" y1="540" x2="787" y2="540" stroke="#444"/>
<line x1="485" y1="380" x2="485" y2="540" stroke="#444"/>
<line x1="498.7" y1="540" x2="498.7" y2="543" stroke="#444"/>
<text x="498.7" y="555" text-anchor="middle" fill="#444">-5</text>
<line x1="526.2" y1="540" x2="526.2" y2="543" stroke="#444"/>
<text x="526.2" y="555" text-anchor="middle" fill="#444">-4</text>
<line x1="553.6" y1="540" x2="553.6" y2="543" stroke="#444"/>
<text x="553.6" y="555" text-anchor="middle" fill="#444">-3</text>
<line x1="581.1" y1="540" x2="581.1" y2="543" stroke="#444"/>
<text x="581.1" y="555" text-anchor="middle" fill="#444">-2</text>
<line x1="636.0" y1="540" x2="636.0" y2="543" stroke="#444"/>
<text x="636.0" y="555" text-anchor="middle" fill="#444">0</text>
<line x1="663.5" y1="540" x2="663.5" y2="543" stroke="#444"/>
<text x="663.5" y="555" text-anchor="middle" fill="#444">1</text>
<line x1="690.9" y1="540" x2="690.9" y2="543" stroke="#444"/>
<text x="690.9" y="555" text-anchor="middle" fill="#444">2</text>
<line x1="718.4" y1="540" x2="718.4" y2="543" stroke="#444"/>
<text x="718.4" y="555" text-anchor="middle" fill="#444">3</text>
<line x1="745.8" y1="540" x2="745.8" y2="543" stroke="#444"/>
<text x="745.8" y="555" text-anchor="middle" fill="#444">4</text>
<line x1="773.3" y1="540" x2="773.3" y2="543" stroke="#444"/>
<text x="773.3" y="555" text-anchor="middle" fill="#444">5</text>
<line x1="482" y1="540.0" x2="485" y2="540.0" stroke="#444"/>
<text x="479" y="543.0" text-anchor="end" fill="#444">-1.7</text>
<line x1="482" y1="500.0" x2="485" y2="500.0" stroke="#444"/>
<text x="479" y="503.0" text-anchor="end" fill="#444">-0.48</text>
<line x1="482" y1="460.0" x2="485" y2="460.0" stroke="#444"/>
<text x="479" y="463.0" text-anchor="end" fill="#444">0.76</text>
<line x1="482" y1="420.0" x2="485" y2="420.0" stroke="#444"/>
<text x="479" y="423.0" text-anchor="end" fill="#444">2</text>
<line x1="482" y1="380.0" x2="485" y2="380.0" stroke="#444"/>
<text x="479" y="383.0" text-anchor="end" fill="#444">3.2</text>
<text x="636.0" y="574" text-anchor="middle" fill="#444">Event time (years from adoption)</text>
<text x="437" y="460.0" text-anchor="middle" fill="#444" transform="rotate(-90 437 460.0)">ATT (per 100k)</text>
<rect x="15" y="620" width="380" height="260" fill="#fafaf7" stroke="#e2e2dc"/>
<text x="205.0" y="638" text-anchor="middle" font-weight="600">Total homicide rate (per 100k)</text>
<line x1="75" y1="781.6390016336716" x2="377" y2="781.6390016336716" stroke="#aaaaaa" stroke-width="0.7"/>
<polygon points="88.7,806.5 116.2,791.0 143.6,789.5 171.1,763.3 226.0,757.2 253.5,728.8 280.9,724.5 308.4,725.6 335.8,729.6 363.3,670.0 363.3,751.9 335.8,793.9 308.4,775.7 280.9,764.0 253.5,761.6 226.0,786.9 171.1,791.6 143.6,817.3 116.2,823.7 88.7,830.0" fill="#1f3a5f" opacity="0.18"/>
<polyline points="88.7,818.2 116.2,807.4 143.6,803.4 171.1,777.5 226.0,772.1 253.5,745.2 280.9,744.3 308.4,750.7 335.8,761.7 363.3,710.9" fill="none" stroke="#1f3a5f" stroke-width="1.6"/>
<circle cx="88.7" cy="818.2" r="2.6" fill="#1f3a5f"/>
<circle cx="116.2" cy="807.4" r="2.6" fill="#1f3a5f"/>
<circle cx="143.6" cy="803.4" r="2.6" fill="#1f3a5f"/>
<circle cx="171.1" cy="777.5" r="2.6" fill="#1f3a5f"/>
<circle cx="226.0" cy="772.1" r="2.6" fill="#1f3a5f"/>
<circle cx="253.5" cy="745.2" r="2.6" fill="#1f3a5f"/>
<circle cx="280.9" cy="744.3" r="2.6" fill="#1f3a5f"/>
<circle cx="308.4" cy="750.7" r="2.6" fill="#1f3a5f"/>
<circle cx="335.8" cy="761.7" r="2.6" fill="#1f3a5f"/>
<circle cx="363.3" cy="710.9" r="2.6" fill="#1f3a5f"/>
<line x1="212.3" y1="670" x2="212.3" y2="830" stroke="#b9461a" stroke-dasharray="3 3"/>
<line x1="75" y1="830" x2="377" y2="830" stroke="#444"/>
<line x1="75" y1="670" x2="75" y2="830" stroke="#444"/>
<line x1="88.7" y1="830" x2="88.7" y2="833" stroke="#444"/>
<text x="88.7" y="845" text-anchor="middle" fill="#444">-5</text>
<line x1="116.2" y1="830" x2="116.2" y2="833" stroke="#444"/>
<text x="116.2" y="845" text-anchor="middle" fill="#444">-4</text>
<line x1="143.6" y1="830" x2="143.6" y2="833" stroke="#444"/>
<text x="143.6" y="845" text-anchor="middle" fill="#444">-3</text>
<line x1="171.1" y1="830" x2="171.1" y2="833" stroke="#444"/>
<text x="171.1" y="845" text-anchor="middle" fill="#444">-2</text>
<line x1="226.0" y1="830" x2="226.0" y2="833" stroke="#444"/>
<text x="226.0" y="845" text-anchor="middle" fill="#444">0</text>
<line x1="253.5" y1="830" x2="253.5" y2="833" stroke="#444"/>
<text x="253.5" y="845" text-anchor="middle" fill="#444">1</text>
<line x1="280.9" y1="830" x2="280.9" y2="833" stroke="#444"/>
<text x="280.9" y="845" text-anchor="middle" fill="#444">2</text>
<line x1="308.4" y1="830" x2="308.4" y2="833" stroke="#444"/>
<text x="308.4" y="845" text-anchor="middle" fill="#444">3</text>
<line x1="335.8" y1="830" x2="335.8" y2="833" stroke="#444"/>
<text x="335.8" y="845" text-anchor="middle" fill="#444">4</text>
<line x1="363.3" y1="830" x2="363.3" y2="833" stroke="#444"/>
<text x="363.3" y="845" text-anchor="middle" fill="#444">5</text>
<line x1="72" y1="830.0" x2="75" y2="830.0" stroke="#444"/>
<text x="69" y="833.0" text-anchor="end" fill="#444">-1.5</text>
<line x1="72" y1="790.0" x2="75" y2="790.0" stroke="#444"/>
<text x="69" y="793.0" text-anchor="end" fill="#444">-0.25</text>
<line x1="72" y1="750.0" x2="75" y2="750.0" stroke="#444"/>
<text x="69" y="753.0" text-anchor="end" fill="#444">0.95</text>
<line x1="72" y1="710.0" x2="75" y2="710.0" stroke="#444"/>
<text x="69" y="713.0" text-anchor="end" fill="#444">2.2</text>
<line x1="72" y1="670.0" x2="75" y2="670.0" stroke="#444"/>
<text x="69" y="673.0" text-anchor="end" fill="#444">3.4</text>
<text x="226.0" y="864" text-anchor="middle" fill="#444">Event time (years from adoption)</text>
<text x="27" y="750.0" text-anchor="middle" fill="#444" transform="rotate(-90 27 750.0)">ATT (per 100k)</text>
<rect x="425" y="620" width="380" height="260" fill="#fafaf7" stroke="#e2e2dc"/>
<text x="615.0" y="638" text-anchor="middle" font-weight="600">Motor vehicle theft rate (per 100k) [placebo]</text>
<line x1="485" y1="719.1128518389547" x2="787" y2="719.1128518389547" stroke="#aaaaaa" stroke-width="0.7"/>
<polygon points="498.7,792.7 526.2,744.4 553.6,728.2 581.1,715.7 636.0,676.2 663.5,670.0 690.9,691.9 718.4,701.6 745.8,699.0 773.3,700.6 773.3,746.1 745.8,733.7 718.4,738.1 690.9,723.4 663.5,693.1 636.0,693.5 581.1,733.9 553.6,763.1 526.2,779.6 498.7,830.0" fill="#1f3a5f" opacity="0.18"/>
<polyline points="498.7,811.3 526.2,762.0 553.6,745.6 581.1,724.8 636.0,684.9 663.5,681.6 690.9,707.7 718.4,719.8 745.8,716.4 773.3,723.3" fill="none" stroke="#1f3a5f" stroke-width="1.6"/>
<circle cx="498.7" cy="811.3" r="2.6" fill="#1f3a5f"/>
<circle cx="526.2" cy="762.0" r="2.6" fill="#1f3a5f"/>
<circle cx="553.6" cy="745.6" r="2.6" fill="#1f3a5f"/>
<circle cx="581.1" cy="724.8" r="2.6" fill="#1f3a5f"/>
<circle cx="636.0" cy="684.9" r="2.6" fill="#1f3a5f"/>
<circle cx="663.5" cy="681.6" r="2.6" fill="#1f3a5f"/>
<circle cx="690.9" cy="707.7" r="2.6" fill="#1f3a5f"/>
<circle cx="718.4" cy="719.8" r="2.6" fill="#1f3a5f"/>
<circle cx="745.8" cy="716.4" r="2.6" fill="#1f3a5f"/>
<circle cx="773.3" cy="723.3" r="2.6" fill="#1f3a5f"/>
<line x1="622.3" y1="670" x2="622.3" y2="830" stroke="#b9461a" stroke-dasharray="3 3"/>
<line x1="485" y1="830" x2="787" y2="830" stroke="#444"/>
<line x1="485" y1="670" x2="485" y2="830" stroke="#444"/>
<line x1="498.7" y1="830" x2="498.7" y2="833" stroke="#444"/>
<text x="498.7" y="845" text-anchor="middle" fill="#444">-5</text>
<line x1="526.2" y1="830" x2="526.2" y2="833" stroke="#444"/>
<text x="526.2" y="845" text-anchor="middle" fill="#444">-4</text>
<line x1="553.6" y1="830" x2="553.6" y2="833" stroke="#444"/>
<text x="553.6" y="845" text-anchor="middle" fill="#444">-3</text>
<line x1="581.1" y1="830" x2="581.1" y2="833" stroke="#444"/>
<text x="581.1" y="845" text-anchor="middle" fill="#444">-2</text>
<line x1="636.0" y1="830" x2="636.0" y2="833" stroke="#444"/>
<text x="636.0" y="845" text-anchor="middle" fill="#444">0</text>
<line x1="663.5" y1="830" x2="663.5" y2="833" stroke="#444"/>
<text x="663.5" y="845" text-anchor="middle" fill="#444">1</text>
<line x1="690.9" y1="830" x2="690.9" y2="833" stroke="#444"/>
<text x="690.9" y="845" text-anchor="middle" fill="#444">2</text>
<line x1="718.4" y1="830" x2="718.4" y2="833" stroke="#444"/>
<text x="718.4" y="845" text-anchor="middle" fill="#444">3</text>
<line x1="745.8" y1="830" x2="745.8" y2="833" stroke="#444"/>
<text x="745.8" y="845" text-anchor="middle" fill="#444">4</text>
<line x1="773.3" y1="830" x2="773.3" y2="833" stroke="#444"/>
<text x="773.3" y="845" text-anchor="middle" fill="#444">5</text>
<line x1="482" y1="830.0" x2="485" y2="830.0" stroke="#444"/>
<text x="479" y="833.0" text-anchor="end" fill="#444">-1.7e+02</text>
<line x1="482" y1="790.0" x2="485" y2="790.0" stroke="#444"/>
<text x="479" y="793.0" text-anchor="end" fill="#444">-1.1e+02</text>
<line x1="482" y1="750.0" x2="485" y2="750.0" stroke="#444"/>
<text x="479" y="753.0" text-anchor="end" fill="#444">-49</text>
<line x1="482" y1="710.0" x2="485" y2="710.0" stroke="#444"/>
<text x="479" y="713.0" text-anchor="end" fill="#444">14</text>
<line x1="482" y1="670.0" x2="485" y2="670.0" stroke="#444"/>
<text x="479" y="673.0" text-anchor="end" fill="#444">77</text>
<text x="636.0" y="864" text-anchor="middle" fill="#444">Event time (years from adoption)</text>
<text x="437" y="750.0" text-anchor="middle" fill="#444" transform="rotate(-90 437 750.0)">ATT (per 100k)</text>
<text x="805" y="608" text-anchor="end" fill="#888" font-size="10">Shaded band: pointwise 95% CI from cluster bootstrap. Vertical dashed line marks the year before adoption.</text>
</svg>