<svg xmlns="http://www.w3.org/2000/svg" viewBox="0 0 820 620" font-family="-apple-system, Segoe UI, Helvetica, Arial, sans-serif" font-size="11">
<text x="410.0" y="22" text-anchor="middle" font-size="14" font-weight="600">Permitless carry adoption: Callaway-Sant'Anna ATT by event time</text>
<rect x="15" y="40" width="380" height="260" fill="#fafaf7" stroke="#e2e2dc"/>
<text x="205.0" y="58" text-anchor="middle" font-weight="600">Firearm suicide rate (per 100k)</text>
<line x1="75" y1="189.41455887415304" x2="377" y2="189.41455887415304" stroke="#aaaaaa" stroke-width="0.7"/>
<polygon points="88.7,215.3 116.2,173.5 143.6,167.3 171.1,195.7 226.0,136.1 253.5,126.4 280.9,117.3 308.4,161.0 335.8,90.0 363.3,100.1 363.3,175.3 335.8,177.4 308.4,196.1 280.9,152.9 253.5,170.5 226.0,187.2 171.1,230.9 143.6,216.2 116.2,228.1 88.7,250.0" fill="#1f3a5f" opacity="0.18"/>
<polyline points="88.7,232.7 116.2,200.8 143.6,191.7 171.1,213.3 226.0,161.7 253.5,148.5 280.9,135.1 308.4,178.5 335.8,133.7 363.3,137.7" fill="none" stroke="#1f3a5f" stroke-width="1.6"/>
<circle cx="88.7" cy="232.7" r="2.6" fill="#1f3a5f"/>
<circle cx="116.2" cy="200.8" r="2.6" fill="#1f3a5f"/>
<circle cx="143.6" cy="191.7" r="2.6" fill="#1f3a5f"/>
<circle cx="171.1" cy="213.3" r="2.6" fill="#1f3a5f"/>
<circle cx="226.0" cy="161.7" r="2.6" fill="#1f3a5f"/>
<circle cx="253.5" cy="148.5" r="2.6" fill="#1f3a5f"/>
<circle cx="280.9" cy="135.1" r="2.6" fill="#1f3a5f"/>
<circle cx="308.4" cy="178.5" r="2.6" fill="#1f3a5f"/>
<circle cx="335.8" cy="133.7" r="2.6" fill="#1f3a5f"/>
<circle cx="363.3" cy="137.7" r="2.6" fill="#1f3a5f"/>
<line x1="212.3" y1="90" x2="212.3" y2="250" stroke="#b9461a" stroke-dasharray="3 3"/>
<line x1="75" y1="250" x2="377" y2="250" stroke="#444"/>
<line x1="75" y1="90" x2="75" y2="250" stroke="#444"/>
<line x1="88.7" y1="250" x2="88.7" y2="253" stroke="#444"/>
<text x="88.7" y="265" text-anchor="middle" fill="#444">-5</text>
<line x1="116.2" y1="250" x2="116.2" y2="253" stroke="#444"/>
<text x="116.2" y="265" text-anchor="middle" fill="#444">-4</text>
<line x1="143.6" y1="250" x2="143.6" y2="253" stroke="#444"/>
<text x="143.6" y="265" text-anchor="middle" fill="#444">-3</text>
<line x1="171.1" y1="250" x2="171.1" y2="253" stroke="#444"/>
<text x="171.1" y="265" text-anchor="middle" fill="#444">-2</text>
<line x1="226.0" y1="250" x2="226.0" y2="253" stroke="#444"/>
<text x="226.0" y="265" text-anchor="middle" fill="#444">0</text>
<line x1="253.5" y1="250" x2="253.5" y2="253" stroke="#444"/>
<text x="253.5" y="265" text-anchor="middle" fill="#444">1</text>
<line x1="280.9" y1="250" x2="280.9" y2="253" stroke="#444"/>
<text x="280.9" y="265" text-anchor="middle" fill="#444">2</text>
<line x1="308.4" y1="250" x2="308.4" y2="253" stroke="#444"/>
<text x="308.4" y="265" text-anchor="middle" fill="#444">3</text>
<line x1="335.8" y1="250" x2="335.8" y2="253" stroke="#444"/>
<text x="335.8" y="265" text-anchor="middle" fill="#444">4</text>
<line x1="363.3" y1="250" x2="363.3" y2="253" stroke="#444"/>
<text x="363.3" y="265" text-anchor="middle" fill="#444">5</text>
<line x1="72" y1="250.0" x2="75" y2="250.0" stroke="#444"/>
<text x="69" y="253.0" text-anchor="end" fill="#444">-0.84</text>
<line x1="72" y1="210.0" x2="75" y2="210.0" stroke="#444"/>
<text x="69" y="213.0" text-anchor="end" fill="#444">-0.29</text>
<line x1="72" y1="170.0" x2="75" y2="170.0" stroke="#444"/>
<text x="69" y="173.0" text-anchor="end" fill="#444">0.27</text>
<line x1="72" y1="130.0" x2="75" y2="130.0" stroke="#444"/>
<text x="69" y="133.0" text-anchor="end" fill="#444">0.82</text>
<line x1="72" y1="90.0" x2="75" y2="90.0" stroke="#444"/>
<text x="69" y="93.0" text-anchor="end" fill="#444">1.4</text>
<text x="226.0" y="284" text-anchor="middle" fill="#444">Event time (years from adoption)</text>
<text x="27" y="170.0" text-anchor="middle" fill="#444" transform="rotate(-90 27 170.0)">ATT (per 100k)</text>
<rect x="425" y="40" width="380" height="260" fill="#fafaf7" stroke="#e2e2dc"/>
<text x="615.0" y="58" text-anchor="middle" font-weight="600">Firearm homicide rate (per 100k)</text>
<line x1="485" y1="198.5178722972177" x2="787" y2="198.5178722972177" stroke="#aaaaaa" stroke-width="0.7"/>
<polygon points="498.7,193.9 526.2,179.6 553.6,193.2 581.1,176.4 636.0,179.7 663.5,174.2 690.9,157.3 718.4,139.0 745.8,151.9 773.3,90.0 773.3,250.0 745.8,228.0 718.4,209.5 690.9,201.8 663.5,209.8 636.0,214.3 581.1,208.1 553.6,228.7 526.2,223.8 498.7,239.7" fill="#1f3a5f" opacity="0.18"/>
<polyline points="498.7,216.8 526.2,201.7 553.6,211.0 581.1,192.2 636.0,197.0 663.5,192.0 690.9,179.6 718.4,174.3 745.8,190.0 773.3,170.0" fill="none" stroke="#1f3a5f" stroke-width="1.6"/>
<circle cx="498.7" cy="216.8" r="2.6" fill="#1f3a5f"/>
<circle cx="526.2" cy="201.7" r="2.6" fill="#1f3a5f"/>
<circle cx="553.6" cy="211.0" r="2.6" fill="#1f3a5f"/>
<circle cx="581.1" cy="192.2" r="2.6" fill="#1f3a5f"/>
<circle cx="636.0" cy="197.0" r="2.6" fill="#1f3a5f"/>
<circle cx="663.5" cy="192.0" r="2.6" fill="#1f3a5f"/>
<circle cx="690.9" cy="179.6" r="2.6" fill="#1f3a5f"/>
<circle cx="718.4" cy="174.3" r="2.6" fill="#1f3a5f"/>
<circle cx="745.8" cy="190.0" r="2.6" fill="#1f3a5f"/>
<circle cx="773.3" cy="170.0" r="2.6" fill="#1f3a5f"/>
<line x1="622.3" y1="90" x2="622.3" y2="250" stroke="#b9461a" stroke-dasharray="3 3"/>
<line x1="485" y1="250" x2="787" y2="250" stroke="#444"/>
<line x1="485" y1="90" x2="485" y2="250" stroke="#444"/>
<line x1="498.7" y1="250" x2="498.7" y2="253" stroke="#444"/>
<text x="498.7" y="265" text-anchor="middle" fill="#444">-5</text>
<line x1="526.2" y1="250" x2="526.2" y2="253" stroke="#444"/>
<text x="526.2" y="265" text-anchor="middle" fill="#444">-4</text>
<line x1="553.6" y1="250" x2="553.6" y2="253" stroke="#444"/>
<text x="553.6" y="265" text-anchor="middle" fill="#444">-3</text>
<line x1="581.1" y1="250" x2="581.1" y2="253" stroke="#444"/>
<text x="581.1" y="265" text-anchor="middle" fill="#444">-2</text>
<line x1="636.0" y1="250" x2="636.0" y2="253" stroke="#444"/>
<text x="636.0" y="265" text-anchor="middle" fill="#444">0</text>
<line x1="663.5" y1="250" x2="663.5" y2="253" stroke="#444"/>
<text x="663.5" y="265" text-anchor="middle" fill="#444">1</text>
<line x1="690.9" y1="250" x2="690.9" y2="253" stroke="#444"/>
<text x="690.9" y="265" text-anchor="middle" fill="#444">2</text>
<line x1="718.4" y1="250" x2="718.4" y2="253" stroke="#444"/>
<text x="718.4" y="265" text-anchor="middle" fill="#444">3</text>
<line x1="745.8" y1="250" x2="745.8" y2="253" stroke="#444"/>
<text x="745.8" y="265" text-anchor="middle" fill="#444">4</text>
<line x1="773.3" y1="250" x2="773.3" y2="253" stroke="#444"/>
<text x="773.3" y="265" text-anchor="middle" fill="#444">5</text>
<line x1="482" y1="250.0" x2="485" y2="250.0" stroke="#444"/>
<text x="479" y="253.0" text-anchor="end" fill="#444">-0.78</text>
<line x1="482" y1="210.0" x2="485" y2="210.0" stroke="#444"/>
<text x="479" y="213.0" text-anchor="end" fill="#444">-0.17</text>
<line x1="482" y1="170.0" x2="485" y2="170.0" stroke="#444"/>
<text x="479" y="173.0" text-anchor="end" fill="#444">0.43</text>
<line x1="482" y1="130.0" x2="485" y2="130.0" stroke="#444"/>
<text x="479" y="133.0" text-anchor="end" fill="#444">1</text>
<line x1="482" y1="90.0" x2="485" y2="90.0" stroke="#444"/>
<text x="479" y="93.0" text-anchor="end" fill="#444">1.6</text>
<text x="636.0" y="284" text-anchor="middle" fill="#444">Event time (years from adoption)</text>
<text x="437" y="170.0" text-anchor="middle" fill="#444" transform="rotate(-90 437 170.0)">ATT (per 100k)</text>
<rect x="15" y="330" width="380" height="260" fill="#fafaf7" stroke="#e2e2dc"/>
<text x="205.0" y="348" text-anchor="middle" font-weight="600">Total homicide rate (per 100k)</text>
<line x1="75" y1="459.0028230826785" x2="377" y2="459.0028230826785" stroke="#aaaaaa" stroke-width="0.7"/>
<polygon points="88.7,432.3 116.2,411.3 143.6,433.1 171.1,439.5 226.0,440.7 253.5,428.3 280.9,428.8 308.4,380.0 335.8,450.9 363.3,458.0 363.3,540.0 335.8,522.7 308.4,479.8 280.9,502.8 253.5,483.3 226.0,497.5 171.1,490.4 143.6,495.1 116.2,484.3 88.7,511.2" fill="#1f3a5f" opacity="0.18"/>
<polyline points="88.7,471.8 116.2,447.8 143.6,464.1 171.1,465.0 226.0,469.1 253.5,455.8 280.9,465.8 308.4,429.9 335.8,486.8 363.3,499.0" fill="none" stroke="#1f3a5f" stroke-width="1.6"/>
<circle cx="88.7" cy="471.8" r="2.6" fill="#1f3a5f"/>
<circle cx="116.2" cy="447.8" r="2.6" fill="#1f3a5f"/>
<circle cx="143.6" cy="464.1" r="2.6" fill="#1f3a5f"/>
<circle cx="171.1" cy="465.0" r="2.6" fill="#1f3a5f"/>
<circle cx="226.0" cy="469.1" r="2.6" fill="#1f3a5f"/>
<circle cx="253.5" cy="455.8" r="2.6" fill="#1f3a5f"/>
<circle cx="280.9" cy="465.8" r="2.6" fill="#1f3a5f"/>
<circle cx="308.4" cy="429.9" r="2.6" fill="#1f3a5f"/>
<circle cx="335.8" cy="486.8" r="2.6" fill="#1f3a5f"/>
<circle cx="363.3" cy="499.0" r="2.6" fill="#1f3a5f"/>
<line x1="212.3" y1="380" x2="212.3" y2="540" stroke="#b9461a" stroke-dasharray="3 3"/>
<line x1="75" y1="540" x2="377" y2="540" stroke="#444"/>
<line x1="75" y1="380" x2="75" y2="540" stroke="#444"/>
<line x1="88.7" y1="540" x2="88.7" y2="543" stroke="#444"/>
<text x="88.7" y="555" text-anchor="middle" fill="#444">-5</text>
<line x1="116.2" y1="540" x2="116.2" y2="543" stroke="#444"/>
<text x="116.2" y="555" text-anchor="middle" fill="#444">-4</text>
<line x1="143.6" y1="540" x2="143.6" y2="543" stroke="#444"/>
<text x="143.6" y="555" text-anchor="middle" fill="#444">-3</text>
<line x1="171.1" y1="540" x2="171.1" y2="543" stroke="#444"/>
<text x="171.1" y="555" text-anchor="middle" fill="#444">-2</text>
<line x1="226.0" y1="540" x2="226.0" y2="543" stroke="#444"/>
<text x="226.0" y="555" text-anchor="middle" fill="#444">0</text>
<line x1="253.5" y1="540" x2="253.5" y2="543" stroke="#444"/>
<text x="253.5" y="555" text-anchor="middle" fill="#444">1</text>
<line x1="280.9" y1="540" x2="280.9" y2="543" stroke="#444"/>
<text x="280.9" y="555" text-anchor="middle" fill="#444">2</text>
<line x1="308.4" y1="540" x2="308.4" y2="543" stroke="#444"/>
<text x="308.4" y="555" text-anchor="middle" fill="#444">3</text>
<line x1="335.8" y1="540" x2="335.8" y2="543" stroke="#444"/>
<text x="335.8" y="555" text-anchor="middle" fill="#444">4</text>
<line x1="363.3" y1="540" x2="363.3" y2="543" stroke="#444"/>
<text x="363.3" y="555" text-anchor="middle" fill="#444">5</text>
<line x1="72" y1="540.0" x2="75" y2="540.0" stroke="#444"/>
<text x="69" y="543.0" text-anchor="end" fill="#444">-0.91</text>
<line x1="72" y1="500.0" x2="75" y2="500.0" stroke="#444"/>
<text x="69" y="503.0" text-anchor="end" fill="#444">-0.46</text>
<line x1="72" y1="460.0" x2="75" y2="460.0" stroke="#444"/>
<text x="69" y="463.0" text-anchor="end" fill="#444">-0.011</text>
<line x1="72" y1="420.0" x2="75" y2="420.0" stroke="#444"/>
<text x="69" y="423.0" text-anchor="end" fill="#444">0.44</text>
<line x1="72" y1="380.0" x2="75" y2="380.0" stroke="#444"/>
<text x="69" y="383.0" text-anchor="end" fill="#444">0.89</text>
<text x="226.0" y="574" text-anchor="middle" fill="#444">Event time (years from adoption)</text>
<text x="27" y="460.0" text-anchor="middle" fill="#444" transform="rotate(-90 27 460.0)">ATT (per 100k)</text>
<rect x="425" y="330" width="380" height="260" fill="#fafaf7" stroke="#e2e2dc"/>
<text x="615.0" y="348" text-anchor="middle" font-weight="600">Motor vehicle theft rate (per 100k) [placebo]</text>
<line x1="485" y1="430.86629445955975" x2="787" y2="430.86629445955975" stroke="#aaaaaa" stroke-width="0.7"/>
<polygon points="498.7,391.1 526.2,380.0 553.6,385.5 581.1,404.6 636.0,426.5 663.5,437.3 690.9,443.1 718.4,425.6 745.8,442.7 773.3,425.9 773.3,530.7 745.8,518.6 718.4,486.3 690.9,540.0 663.5,493.2 636.0,467.8 581.1,432.7 553.6,418.9 526.2,416.1 498.7,436.9" fill="#1f3a5f" opacity="0.18"/>
<polyline points="498.7,414.0 526.2,398.1 553.6,402.2 581.1,418.7 636.0,447.1 663.5,465.3 690.9,491.5 718.4,455.9 745.8,480.7 773.3,478.3" fill="none" stroke="#1f3a5f" stroke-width="1.6"/>
<circle cx="498.7" cy="414.0" r="2.6" fill="#1f3a5f"/>
<circle cx="526.2" cy="398.1" r="2.6" fill="#1f3a5f"/>
<circle cx="553.6" cy="402.2" r="2.6" fill="#1f3a5f"/>
<circle cx="581.1" cy="418.7" r="2.6" fill="#1f3a5f"/>
<circle cx="636.0" cy="447.1" r="2.6" fill="#1f3a5f"/>
<circle cx="663.5" cy="465.3" r="2.6" fill="#1f3a5f"/>
<circle cx="690.9" cy="491.5" r="2.6" fill="#1f3a5f"/>
<circle cx="718.4" cy="455.9" r="2.6" fill="#1f3a5f"/>
<circle cx="745.8" cy="480.7" r="2.6" fill="#1f3a5f"/>
<circle cx="773.3" cy="478.3" r="2.6" fill="#1f3a5f"/>
<line x1="622.3" y1="380" x2="622.3" y2="540" stroke="#b9461a" stroke-dasharray="3 3"/>
<line x1="485" y1="540" x2="787" y2="540" stroke="#444"/>
<line x1="485" y1="380" x2="485" y2="540" stroke="#444"/>
<line x1="498.7" y1="540" x2="498.7" y2="543" stroke="#444"/>
<text x="498.7" y="555" text-anchor="middle" fill="#444">-5</text>
<line x1="526.2" y1="540" x2="526.2" y2="543" stroke="#444"/>
<text x="526.2" y="555" text-anchor="middle" fill="#444">-4</text>
<line x1="553.6" y1="540" x2="553.6" y2="543" stroke="#444"/>
<text x="553.6" y="555" text-anchor="middle" fill="#444">-3</text>
<line x1="581.1" y1="540" x2="581.1" y2="543" stroke="#444"/>
<text x="581.1" y="555" text-anchor="middle" fill="#444">-2</text>
<line x1="636.0" y1="540" x2="636.0" y2="543" stroke="#444"/>
<text x="636.0" y="555" text-anchor="middle" fill="#444">0</text>
<line x1="663.5" y1="540" x2="663.5" y2="543" stroke="#444"/>
<text x="663.5" y="555" text-anchor="middle" fill="#444">1</text>
<line x1="690.9" y1="540" x2="690.9" y2="543" stroke="#444"/>
<text x="690.9" y="555" text-anchor="middle" fill="#444">2</text>
<line x1="718.4" y1="540" x2="718.4" y2="543" stroke="#444"/>
<text x="718.4" y="555" text-anchor="middle" fill="#444">3</text>
<line x1="745.8" y1="540" x2="745.8" y2="543" stroke="#444"/>
<text x="745.8" y="555" text-anchor="middle" fill="#444">4</text>
<line x1="773.3" y1="540" x2="773.3" y2="543" stroke="#444"/>
<text x="773.3" y="555" text-anchor="middle" fill="#444">5</text>
<line x1="482" y1="540.0" x2="485" y2="540.0" stroke="#444"/>
<text x="479" y="543.0" text-anchor="end" fill="#444">-75</text>
<line x1="482" y1="500.0" x2="485" y2="500.0" stroke="#444"/>
<text x="479" y="503.0" text-anchor="end" fill="#444">-48</text>
<line x1="482" y1="460.0" x2="485" y2="460.0" stroke="#444"/>
<text x="479" y="463.0" text-anchor="end" fill="#444">-20</text>
<line x1="482" y1="420.0" x2="485" y2="420.0" stroke="#444"/>
<text x="479" y="423.0" text-anchor="end" fill="#444">7.5</text>
<line x1="482" y1="380.0" x2="485" y2="380.0" stroke="#444"/>
<text x="479" y="383.0" text-anchor="end" fill="#444">35</text>
<text x="636.0" y="574" text-anchor="middle" fill="#444">Event time (years from adoption)</text>
<text x="437" y="460.0" text-anchor="middle" fill="#444" transform="rotate(-90 437 460.0)">ATT (per 100k)</text>
<text x="805" y="608" text-anchor="end" fill="#888" font-size="10">Shaded band: pointwise 95% CI from cluster bootstrap. Vertical dashed line marks the year before adoption.</text>
</svg>