<svg xmlns="http://www.w3.org/2000/svg" viewBox="0 0 820 620" font-family="-apple-system, Segoe UI, Helvetica, Arial, sans-serif" font-size="11">
<text x="410.0" y="22" text-anchor="middle" font-size="14" font-weight="600">Callaway-Sant'Anna ATT by event time (RA) -- permitless carry (permitconcealed)</text>
<rect x="15" y="40" width="380" height="260" fill="#fafaf7" stroke="#e2e2dc"/>
<text x="205.0" y="58" text-anchor="middle" font-weight="600">Firearm suicide rate (per 100k)</text>
<line x1="75" y1="185.4164846117078" x2="377" y2="185.4164846117078" stroke="#aaaaaa" stroke-width="0.7"/>
<polygon points="88.7,188.8 88.7,188.8 88.7,183.6 116.2,167.8 116.2,152.5 116.2,167.8 143.6,90.0 143.6,90.0 143.6,153.3 171.1,176.7 171.1,149.4 171.1,149.4 226.0,107.8 226.0,107.8 226.0,155.3 253.5,105.3 253.5,105.3 253.5,135.0 280.9,103.4 280.9,103.4 280.9,116.8 308.4,179.4 308.4,179.4 308.4,183.9 335.8,136.7 335.8,94.6 335.8,94.6 363.3,124.2 363.3,124.2 363.3,180.8 363.3,221.7 363.3,201.2 363.3,201.2 335.8,189.5 335.8,189.5 335.8,177.7 308.4,235.8 308.4,218.7 308.4,218.7 280.9,151.0 280.9,145.8 280.9,145.8 253.5,169.6 253.5,158.5 253.5,158.5 226.0,198.9 226.0,177.1 226.0,177.1 171.1,210.2 171.1,210.2 171.1,210.9 143.6,186.1 143.6,172.9 143.6,172.9 116.2,250.0 116.2,205.4 116.2,250.0 88.7,219.0 88.7,245.0 88.7,245.0" fill="#1f3a5f" opacity="0.18"/>
<polyline points="88.7,216.9 88.7,216.9 88.7,201.3 116.2,208.9 116.2,178.9 116.2,208.9 143.6,131.4 143.6,131.4 143.6,169.7 171.1,193.8 171.1,179.8 171.1,179.8 226.0,142.5 226.0,142.5 226.0,177.1 253.5,131.9 253.5,131.9 253.5,152.3 280.9,124.6 280.9,124.6 280.9,133.9 308.4,199.0 308.4,199.0 308.4,209.9 335.8,157.2 335.8,142.1 335.8,142.1 363.3,162.7 363.3,162.7 363.3,201.3" fill="none" stroke="#1f3a5f" stroke-width="1.6"/>
<circle cx="88.7" cy="216.9" r="2.6" fill="#1f3a5f"/>
<circle cx="88.7" cy="216.9" r="2.6" fill="#1f3a5f"/>
<circle cx="88.7" cy="201.3" r="2.6" fill="#1f3a5f"/>
<circle cx="116.2" cy="208.9" r="2.6" fill="#1f3a5f"/>
<circle cx="116.2" cy="178.9" r="2.6" fill="#1f3a5f"/>
<circle cx="116.2" cy="208.9" r="2.6" fill="#1f3a5f"/>
<circle cx="143.6" cy="131.4" r="2.6" fill="#1f3a5f"/>
<circle cx="143.6" cy="131.4" r="2.6" fill="#1f3a5f"/>
<circle cx="143.6" cy="169.7" r="2.6" fill="#1f3a5f"/>
<circle cx="171.1" cy="193.8" r="2.6" fill="#1f3a5f"/>
<circle cx="171.1" cy="179.8" r="2.6" fill="#1f3a5f"/>
<circle cx="171.1" cy="179.8" r="2.6" fill="#1f3a5f"/>
<circle cx="226.0" cy="142.5" r="2.6" fill="#1f3a5f"/>
<circle cx="226.0" cy="142.5" r="2.6" fill="#1f3a5f"/>
<circle cx="226.0" cy="177.1" r="2.6" fill="#1f3a5f"/>
<circle cx="253.5" cy="131.9" r="2.6" fill="#1f3a5f"/>
<circle cx="253.5" cy="131.9" r="2.6" fill="#1f3a5f"/>
<circle cx="253.5" cy="152.3" r="2.6" fill="#1f3a5f"/>
<circle cx="280.9" cy="124.6" r="2.6" fill="#1f3a5f"/>
<circle cx="280.9" cy="124.6" r="2.6" fill="#1f3a5f"/>
<circle cx="280.9" cy="133.9" r="2.6" fill="#1f3a5f"/>
<circle cx="308.4" cy="199.0" r="2.6" fill="#1f3a5f"/>
<circle cx="308.4" cy="199.0" r="2.6" fill="#1f3a5f"/>
<circle cx="308.4" cy="209.9" r="2.6" fill="#1f3a5f"/>
<circle cx="335.8" cy="157.2" r="2.6" fill="#1f3a5f"/>
<circle cx="335.8" cy="142.1" r="2.6" fill="#1f3a5f"/>
<circle cx="335.8" cy="142.1" r="2.6" fill="#1f3a5f"/>
<circle cx="363.3" cy="162.7" r="2.6" fill="#1f3a5f"/>
<circle cx="363.3" cy="162.7" r="2.6" fill="#1f3a5f"/>
<circle cx="363.3" cy="201.3" r="2.6" fill="#1f3a5f"/>
<line x1="212.3" y1="90" x2="212.3" y2="250" stroke="#b9461a" stroke-dasharray="3 3"/>
<line x1="75" y1="250" x2="377" y2="250" stroke="#444"/>
<line x1="75" y1="90" x2="75" y2="250" stroke="#444"/>
<line x1="88.7" y1="250" x2="88.7" y2="253" stroke="#444"/>
<text x="88.7" y="265" text-anchor="middle" fill="#444">-5</text>
<line x1="116.2" y1="250" x2="116.2" y2="253" stroke="#444"/>
<text x="116.2" y="265" text-anchor="middle" fill="#444">-4</text>
<line x1="143.6" y1="250" x2="143.6" y2="253" stroke="#444"/>
<text x="143.6" y="265" text-anchor="middle" fill="#444">-3</text>
<line x1="171.1" y1="250" x2="171.1" y2="253" stroke="#444"/>
<text x="171.1" y="265" text-anchor="middle" fill="#444">-2</text>
<line x1="226.0" y1="250" x2="226.0" y2="253" stroke="#444"/>
<text x="226.0" y="265" text-anchor="middle" fill="#444">0</text>
<line x1="253.5" y1="250" x2="253.5" y2="253" stroke="#444"/>
<text x="253.5" y="265" text-anchor="middle" fill="#444">1</text>
<line x1="280.9" y1="250" x2="280.9" y2="253" stroke="#444"/>
<text x="280.9" y="265" text-anchor="middle" fill="#444">2</text>
<line x1="308.4" y1="250" x2="308.4" y2="253" stroke="#444"/>
<text x="308.4" y="265" text-anchor="middle" fill="#444">3</text>
<line x1="335.8" y1="250" x2="335.8" y2="253" stroke="#444"/>
<text x="335.8" y="265" text-anchor="middle" fill="#444">4</text>
<line x1="363.3" y1="250" x2="363.3" y2="253" stroke="#444"/>
<text x="363.3" y="265" text-anchor="middle" fill="#444">5</text>
<line x1="72" y1="250.0" x2="75" y2="250.0" stroke="#444"/>
<text x="69" y="253.0" text-anchor="end" fill="#444">-0.91</text>
<line x1="72" y1="210.0" x2="75" y2="210.0" stroke="#444"/>
<text x="69" y="213.0" text-anchor="end" fill="#444">-0.35</text>
<line x1="72" y1="170.0" x2="75" y2="170.0" stroke="#444"/>
<text x="69" y="173.0" text-anchor="end" fill="#444">0.22</text>
<line x1="72" y1="130.0" x2="75" y2="130.0" stroke="#444"/>
<text x="69" y="133.0" text-anchor="end" fill="#444">0.78</text>
<line x1="72" y1="90.0" x2="75" y2="90.0" stroke="#444"/>
<text x="69" y="93.0" text-anchor="end" fill="#444">1.3</text>
<text x="226.0" y="284" text-anchor="middle" fill="#444">Event time (years from adoption)</text>
<text x="27" y="170.0" text-anchor="middle" fill="#444" transform="rotate(-90 27 170.0)">ATT (per 100k)</text>
<rect x="425" y="40" width="380" height="260" fill="#fafaf7" stroke="#e2e2dc"/>
<text x="615.0" y="58" text-anchor="middle" font-weight="600">Non-firearm suicide rate (per 100k) [substitution test]</text>
<line x1="485" y1="173.076346321398" x2="787" y2="173.076346321398" stroke="#aaaaaa" stroke-width="0.7"/>
<polygon points="498.7,169.7 498.7,169.7 498.7,128.8 526.2,147.5 526.2,122.5 526.2,147.5 553.6,168.0 553.6,168.0 553.6,126.7 581.1,126.6 581.1,177.8 581.1,177.8 636.0,155.1 636.0,155.1 636.0,136.3 663.5,102.3 663.5,102.3 663.5,97.1 690.9,169.6 690.9,169.6 690.9,118.9 718.4,158.2 718.4,158.2 718.4,144.7 745.8,90.0 745.8,131.2 745.8,131.2 773.3,131.2 773.3,131.2 773.3,126.2 773.3,218.1 773.3,222.5 773.3,222.5 745.8,201.9 745.8,201.9 745.8,146.2 718.4,203.4 718.4,233.0 718.4,233.0 690.9,168.3 690.9,213.7 690.9,213.7 663.5,150.1 663.5,159.5 663.5,159.5 636.0,169.9 636.0,205.5 636.0,205.5 581.1,250.0 581.1,250.0 581.1,169.0 553.6,178.3 553.6,238.8 553.6,238.8 526.2,226.7 526.2,174.5 526.2,226.7 498.7,183.3 498.7,219.7 498.7,219.7" fill="#1f3a5f" opacity="0.18"/>
<polyline points="498.7,194.7 498.7,194.7 498.7,156.1 526.2,187.1 526.2,148.5 526.2,187.1 553.6,203.4 553.6,203.4 553.6,152.5 581.1,147.8 581.1,213.9 581.1,213.9 636.0,180.3 636.0,180.3 636.0,153.1 663.5,130.9 663.5,130.9 663.5,123.6 690.9,191.7 690.9,191.7 690.9,143.6 718.4,195.6 718.4,195.6 718.4,174.1 745.8,118.1 745.8,166.5 745.8,166.5 773.3,176.8 773.3,176.8 773.3,172.2" fill="none" stroke="#1f3a5f" stroke-width="1.6"/>
<circle cx="498.7" cy="194.7" r="2.6" fill="#1f3a5f"/>
<circle cx="498.7" cy="194.7" r="2.6" fill="#1f3a5f"/>
<circle cx="498.7" cy="156.1" r="2.6" fill="#1f3a5f"/>
<circle cx="526.2" cy="187.1" r="2.6" fill="#1f3a5f"/>
<circle cx="526.2" cy="148.5" r="2.6" fill="#1f3a5f"/>
<circle cx="526.2" cy="187.1" r="2.6" fill="#1f3a5f"/>
<circle cx="553.6" cy="203.4" r="2.6" fill="#1f3a5f"/>
<circle cx="553.6" cy="203.4" r="2.6" fill="#1f3a5f"/>
<circle cx="553.6" cy="152.5" r="2.6" fill="#1f3a5f"/>
<circle cx="581.1" cy="147.8" r="2.6" fill="#1f3a5f"/>
<circle cx="581.1" cy="213.9" r="2.6" fill="#1f3a5f"/>
<circle cx="581.1" cy="213.9" r="2.6" fill="#1f3a5f"/>
<circle cx="636.0" cy="180.3" r="2.6" fill="#1f3a5f"/>
<circle cx="636.0" cy="180.3" r="2.6" fill="#1f3a5f"/>
<circle cx="636.0" cy="153.1" r="2.6" fill="#1f3a5f"/>
<circle cx="663.5" cy="130.9" r="2.6" fill="#1f3a5f"/>
<circle cx="663.5" cy="130.9" r="2.6" fill="#1f3a5f"/>
<circle cx="663.5" cy="123.6" r="2.6" fill="#1f3a5f"/>
<circle cx="690.9" cy="191.7" r="2.6" fill="#1f3a5f"/>
<circle cx="690.9" cy="191.7" r="2.6" fill="#1f3a5f"/>
<circle cx="690.9" cy="143.6" r="2.6" fill="#1f3a5f"/>
<circle cx="718.4" cy="195.6" r="2.6" fill="#1f3a5f"/>
<circle cx="718.4" cy="195.6" r="2.6" fill="#1f3a5f"/>
<circle cx="718.4" cy="174.1" r="2.6" fill="#1f3a5f"/>
<circle cx="745.8" cy="118.1" r="2.6" fill="#1f3a5f"/>
<circle cx="745.8" cy="166.5" r="2.6" fill="#1f3a5f"/>
<circle cx="745.8" cy="166.5" r="2.6" fill="#1f3a5f"/>
<circle cx="773.3" cy="176.8" r="2.6" fill="#1f3a5f"/>
<circle cx="773.3" cy="176.8" r="2.6" fill="#1f3a5f"/>
<circle cx="773.3" cy="172.2" r="2.6" fill="#1f3a5f"/>
<line x1="622.3" y1="90" x2="622.3" y2="250" stroke="#b9461a" stroke-dasharray="3 3"/>
<line x1="485" y1="250" x2="787" y2="250" stroke="#444"/>
<line x1="485" y1="90" x2="485" y2="250" stroke="#444"/>
<line x1="498.7" y1="250" x2="498.7" y2="253" stroke="#444"/>
<text x="498.7" y="265" text-anchor="middle" fill="#444">-5</text>
<line x1="526.2" y1="250" x2="526.2" y2="253" stroke="#444"/>
<text x="526.2" y="265" text-anchor="middle" fill="#444">-4</text>
<line x1="553.6" y1="250" x2="553.6" y2="253" stroke="#444"/>
<text x="553.6" y="265" text-anchor="middle" fill="#444">-3</text>
<line x1="581.1" y1="250" x2="581.1" y2="253" stroke="#444"/>
<text x="581.1" y="265" text-anchor="middle" fill="#444">-2</text>
<line x1="636.0" y1="250" x2="636.0" y2="253" stroke="#444"/>
<text x="636.0" y="265" text-anchor="middle" fill="#444">0</text>
<line x1="663.5" y1="250" x2="663.5" y2="253" stroke="#444"/>
<text x="663.5" y="265" text-anchor="middle" fill="#444">1</text>
<line x1="690.9" y1="250" x2="690.9" y2="253" stroke="#444"/>
<text x="690.9" y="265" text-anchor="middle" fill="#444">2</text>
<line x1="718.4" y1="250" x2="718.4" y2="253" stroke="#444"/>
<text x="718.4" y="265" text-anchor="middle" fill="#444">3</text>
<line x1="745.8" y1="250" x2="745.8" y2="253" stroke="#444"/>
<text x="745.8" y="265" text-anchor="middle" fill="#444">4</text>
<line x1="773.3" y1="250" x2="773.3" y2="253" stroke="#444"/>
<text x="773.3" y="265" text-anchor="middle" fill="#444">5</text>
<line x1="482" y1="250.0" x2="485" y2="250.0" stroke="#444"/>
<text x="479" y="253.0" text-anchor="end" fill="#444">-0.95</text>
<line x1="482" y1="210.0" x2="485" y2="210.0" stroke="#444"/>
<text x="479" y="213.0" text-anchor="end" fill="#444">-0.46</text>
<line x1="482" y1="170.0" x2="485" y2="170.0" stroke="#444"/>
<text x="479" y="173.0" text-anchor="end" fill="#444">0.038</text>
<line x1="482" y1="130.0" x2="485" y2="130.0" stroke="#444"/>
<text x="479" y="133.0" text-anchor="end" fill="#444">0.53</text>
<line x1="482" y1="90.0" x2="485" y2="90.0" stroke="#444"/>
<text x="479" y="93.0" text-anchor="end" fill="#444">1</text>
<text x="636.0" y="284" text-anchor="middle" fill="#444">Event time (years from adoption)</text>
<text x="437" y="170.0" text-anchor="middle" fill="#444" transform="rotate(-90 437 170.0)">ATT (per 100k)</text>
<rect x="15" y="330" width="380" height="260" fill="#fafaf7" stroke="#e2e2dc"/>
<text x="205.0" y="348" text-anchor="middle" font-weight="600">Total suicide rate (per 100k) [net effect]</text>
<line x1="75" y1="473.3745649922836" x2="377" y2="473.3745649922836" stroke="#aaaaaa" stroke-width="0.7"/>
<polygon points="88.7,481.8 88.7,481.8 88.7,451.9 116.2,459.8 116.2,424.0 116.2,459.8 143.6,423.6 143.6,423.6 143.6,425.7 171.1,442.7 171.1,461.4 171.1,461.4 226.0,421.1 226.0,421.1 226.0,436.9 253.5,380.0 253.5,380.0 253.5,398.4 280.9,418.3 280.9,418.3 280.9,395.0 308.4,471.7 308.4,471.7 308.4,461.2 335.8,393.0 335.8,400.9 335.8,400.9 363.3,414.0 363.3,414.0 363.3,446.4 363.3,522.7 363.3,503.9 363.3,503.9 335.8,473.1 335.8,473.1 335.8,440.4 308.4,523.1 308.4,524.5 308.4,524.5 280.9,437.0 280.9,462.5 280.9,462.5 253.5,434.8 253.5,432.5 253.5,432.5 226.0,471.6 226.0,471.4 226.0,471.4 171.1,530.1 171.1,530.1 171.1,483.6 143.6,471.0 143.6,482.6 143.6,482.6 116.2,540.0 116.2,481.2 116.2,540.0 88.7,496.3 88.7,539.7 88.7,539.7" fill="#1f3a5f" opacity="0.18"/>
<polyline points="88.7,510.7 88.7,510.7 88.7,474.1 116.2,499.9 116.2,452.6 116.2,499.9 143.6,453.1 143.6,453.1 143.6,448.3 171.1,463.2 171.1,495.7 171.1,495.7 226.0,446.3 226.0,446.3 226.0,454.2 253.5,406.3 253.5,406.3 253.5,416.6 280.9,440.4 280.9,440.4 280.9,416.0 308.4,498.1 308.4,498.1 308.4,492.2 335.8,416.7 335.8,437.0 335.8,437.0 363.3,459.0 363.3,459.0 363.3,484.5" fill="none" stroke="#1f3a5f" stroke-width="1.6"/>
<circle cx="88.7" cy="510.7" r="2.6" fill="#1f3a5f"/>
<circle cx="88.7" cy="510.7" r="2.6" fill="#1f3a5f"/>
<circle cx="88.7" cy="474.1" r="2.6" fill="#1f3a5f"/>
<circle cx="116.2" cy="499.9" r="2.6" fill="#1f3a5f"/>
<circle cx="116.2" cy="452.6" r="2.6" fill="#1f3a5f"/>
<circle cx="116.2" cy="499.9" r="2.6" fill="#1f3a5f"/>
<circle cx="143.6" cy="453.1" r="2.6" fill="#1f3a5f"/>
<circle cx="143.6" cy="453.1" r="2.6" fill="#1f3a5f"/>
<circle cx="143.6" cy="448.3" r="2.6" fill="#1f3a5f"/>
<circle cx="171.1" cy="463.2" r="2.6" fill="#1f3a5f"/>
<circle cx="171.1" cy="495.7" r="2.6" fill="#1f3a5f"/>
<circle cx="171.1" cy="495.7" r="2.6" fill="#1f3a5f"/>
<circle cx="226.0" cy="446.3" r="2.6" fill="#1f3a5f"/>
<circle cx="226.0" cy="446.3" r="2.6" fill="#1f3a5f"/>
<circle cx="226.0" cy="454.2" r="2.6" fill="#1f3a5f"/>
<circle cx="253.5" cy="406.3" r="2.6" fill="#1f3a5f"/>
<circle cx="253.5" cy="406.3" r="2.6" fill="#1f3a5f"/>
<circle cx="253.5" cy="416.6" r="2.6" fill="#1f3a5f"/>
<circle cx="280.9" cy="440.4" r="2.6" fill="#1f3a5f"/>
<circle cx="280.9" cy="440.4" r="2.6" fill="#1f3a5f"/>
<circle cx="280.9" cy="416.0" r="2.6" fill="#1f3a5f"/>
<circle cx="308.4" cy="498.1" r="2.6" fill="#1f3a5f"/>
<circle cx="308.4" cy="498.1" r="2.6" fill="#1f3a5f"/>
<circle cx="308.4" cy="492.2" r="2.6" fill="#1f3a5f"/>
<circle cx="335.8" cy="416.7" r="2.6" fill="#1f3a5f"/>
<circle cx="335.8" cy="437.0" r="2.6" fill="#1f3a5f"/>
<circle cx="335.8" cy="437.0" r="2.6" fill="#1f3a5f"/>
<circle cx="363.3" cy="459.0" r="2.6" fill="#1f3a5f"/>
<circle cx="363.3" cy="459.0" r="2.6" fill="#1f3a5f"/>
<circle cx="363.3" cy="484.5" r="2.6" fill="#1f3a5f"/>
<line x1="212.3" y1="380" x2="212.3" y2="540" stroke="#b9461a" stroke-dasharray="3 3"/>
<line x1="75" y1="540" x2="377" y2="540" stroke="#444"/>
<line x1="75" y1="380" x2="75" y2="540" stroke="#444"/>
<line x1="88.7" y1="540" x2="88.7" y2="543" stroke="#444"/>
<text x="88.7" y="555" text-anchor="middle" fill="#444">-5</text>
<line x1="116.2" y1="540" x2="116.2" y2="543" stroke="#444"/>
<text x="116.2" y="555" text-anchor="middle" fill="#444">-4</text>
<line x1="143.6" y1="540" x2="143.6" y2="543" stroke="#444"/>
<text x="143.6" y="555" text-anchor="middle" fill="#444">-3</text>
<line x1="171.1" y1="540" x2="171.1" y2="543" stroke="#444"/>
<text x="171.1" y="555" text-anchor="middle" fill="#444">-2</text>
<line x1="226.0" y1="540" x2="226.0" y2="543" stroke="#444"/>
<text x="226.0" y="555" text-anchor="middle" fill="#444">0</text>
<line x1="253.5" y1="540" x2="253.5" y2="543" stroke="#444"/>
<text x="253.5" y="555" text-anchor="middle" fill="#444">1</text>
<line x1="280.9" y1="540" x2="280.9" y2="543" stroke="#444"/>
<text x="280.9" y="555" text-anchor="middle" fill="#444">2</text>
<line x1="308.4" y1="540" x2="308.4" y2="543" stroke="#444"/>
<text x="308.4" y="555" text-anchor="middle" fill="#444">3</text>
<line x1="335.8" y1="540" x2="335.8" y2="543" stroke="#444"/>
<text x="335.8" y="555" text-anchor="middle" fill="#444">4</text>
<line x1="363.3" y1="540" x2="363.3" y2="543" stroke="#444"/>
<text x="363.3" y="555" text-anchor="middle" fill="#444">5</text>
<line x1="72" y1="540.0" x2="75" y2="540.0" stroke="#444"/>
<text x="69" y="543.0" text-anchor="end" fill="#444">-1.3</text>
<line x1="72" y1="500.0" x2="75" y2="500.0" stroke="#444"/>
<text x="69" y="503.0" text-anchor="end" fill="#444">-0.51</text>
<line x1="72" y1="460.0" x2="75" y2="460.0" stroke="#444"/>
<text x="69" y="463.0" text-anchor="end" fill="#444">0.25</text>
<line x1="72" y1="420.0" x2="75" y2="420.0" stroke="#444"/>
<text x="69" y="423.0" text-anchor="end" fill="#444">1</text>
<line x1="72" y1="380.0" x2="75" y2="380.0" stroke="#444"/>
<text x="69" y="383.0" text-anchor="end" fill="#444">1.8</text>
<text x="226.0" y="574" text-anchor="middle" fill="#444">Event time (years from adoption)</text>
<text x="27" y="460.0" text-anchor="middle" fill="#444" transform="rotate(-90 27 460.0)">ATT (per 100k)</text>
<rect x="425" y="330" width="380" height="260" fill="#fafaf7" stroke="#e2e2dc"/>
<text x="615.0" y="348" text-anchor="middle" font-weight="600">Firearm homicide rate (per 100k)</text>
<line x1="485" y1="472.9700433031978" x2="787" y2="472.9700433031978" stroke="#aaaaaa" stroke-width="0.7"/>
<polygon points="498.7,450.8 498.7,450.8 498.7,443.5 526.2,439.0 526.2,411.9 526.2,439.0 553.6,452.6 553.6,452.6 553.6,389.2 581.1,397.0 581.1,438.4 581.1,438.4 636.0,431.8 636.0,431.8 636.0,450.0 663.5,431.0 663.5,431.0 663.5,424.8 690.9,430.4 690.9,430.4 690.9,380.0 718.4,436.5 718.4,436.5 718.4,420.7 745.8,402.9 745.8,446.6 745.8,446.6 773.3,393.6 773.3,393.6 773.3,403.0 773.3,534.7 773.3,540.0 773.3,540.0 745.8,518.2 745.8,518.2 745.8,474.1 718.4,479.1 718.4,501.4 718.4,501.4 690.9,477.1 690.9,482.5 690.9,482.5 663.5,482.5 663.5,472.7 663.5,472.7 636.0,485.3 636.0,478.9 636.0,478.9 581.1,474.8 581.1,474.8 581.1,478.4 553.6,474.5 553.6,498.9 553.6,498.9 526.2,492.8 526.2,457.5 526.2,492.8 498.7,480.0 498.7,504.2 498.7,504.2" fill="#1f3a5f" opacity="0.18"/>
<polyline points="498.7,477.5 498.7,477.5 498.7,461.7 526.2,465.9 526.2,434.7 526.2,465.9 553.6,475.7 553.6,475.7 553.6,431.8 581.1,437.7 581.1,456.6 581.1,456.6 636.0,455.3 636.0,455.3 636.0,467.6 663.5,451.8 663.5,451.8 663.5,453.7 690.9,456.5 690.9,456.5 690.9,428.6 718.4,468.9 718.4,468.9 718.4,449.9 745.8,438.5 745.8,482.4 745.8,482.4 773.3,466.8 773.3,466.8 773.3,468.8" fill="none" stroke="#1f3a5f" stroke-width="1.6"/>
<circle cx="498.7" cy="477.5" r="2.6" fill="#1f3a5f"/>
<circle cx="498.7" cy="477.5" r="2.6" fill="#1f3a5f"/>
<circle cx="498.7" cy="461.7" r="2.6" fill="#1f3a5f"/>
<circle cx="526.2" cy="465.9" r="2.6" fill="#1f3a5f"/>
<circle cx="526.2" cy="434.7" r="2.6" fill="#1f3a5f"/>
<circle cx="526.2" cy="465.9" r="2.6" fill="#1f3a5f"/>
<circle cx="553.6" cy="475.7" r="2.6" fill="#1f3a5f"/>
<circle cx="553.6" cy="475.7" r="2.6" fill="#1f3a5f"/>
<circle cx="553.6" cy="431.8" r="2.6" fill="#1f3a5f"/>
<circle cx="581.1" cy="437.7" r="2.6" fill="#1f3a5f"/>
<circle cx="581.1" cy="456.6" r="2.6" fill="#1f3a5f"/>
<circle cx="581.1" cy="456.6" r="2.6" fill="#1f3a5f"/>
<circle cx="636.0" cy="455.3" r="2.6" fill="#1f3a5f"/>
<circle cx="636.0" cy="455.3" r="2.6" fill="#1f3a5f"/>
<circle cx="636.0" cy="467.6" r="2.6" fill="#1f3a5f"/>
<circle cx="663.5" cy="451.8" r="2.6" fill="#1f3a5f"/>
<circle cx="663.5" cy="451.8" r="2.6" fill="#1f3a5f"/>
<circle cx="663.5" cy="453.7" r="2.6" fill="#1f3a5f"/>
<circle cx="690.9" cy="456.5" r="2.6" fill="#1f3a5f"/>
<circle cx="690.9" cy="456.5" r="2.6" fill="#1f3a5f"/>
<circle cx="690.9" cy="428.6" r="2.6" fill="#1f3a5f"/>
<circle cx="718.4" cy="468.9" r="2.6" fill="#1f3a5f"/>
<circle cx="718.4" cy="468.9" r="2.6" fill="#1f3a5f"/>
<circle cx="718.4" cy="449.9" r="2.6" fill="#1f3a5f"/>
<circle cx="745.8" cy="438.5" r="2.6" fill="#1f3a5f"/>
<circle cx="745.8" cy="482.4" r="2.6" fill="#1f3a5f"/>
<circle cx="745.8" cy="482.4" r="2.6" fill="#1f3a5f"/>
<circle cx="773.3" cy="466.8" r="2.6" fill="#1f3a5f"/>
<circle cx="773.3" cy="466.8" r="2.6" fill="#1f3a5f"/>
<circle cx="773.3" cy="468.8" r="2.6" fill="#1f3a5f"/>
<line x1="622.3" y1="380" x2="622.3" y2="540" stroke="#b9461a" stroke-dasharray="3 3"/>
<line x1="485" y1="540" x2="787" y2="540" stroke="#444"/>
<line x1="485" y1="380" x2="485" y2="540" stroke="#444"/>
<line x1="498.7" y1="540" x2="498.7" y2="543" stroke="#444"/>
<text x="498.7" y="555" text-anchor="middle" fill="#444">-5</text>
<line x1="526.2" y1="540" x2="526.2" y2="543" stroke="#444"/>
<text x="526.2" y="555" text-anchor="middle" fill="#444">-4</text>
<line x1="553.6" y1="540" x2="553.6" y2="543" stroke="#444"/>
<text x="553.6" y="555" text-anchor="middle" fill="#444">-3</text>
<line x1="581.1" y1="540" x2="581.1" y2="543" stroke="#444"/>
<text x="581.1" y="555" text-anchor="middle" fill="#444">-2</text>
<line x1="636.0" y1="540" x2="636.0" y2="543" stroke="#444"/>
<text x="636.0" y="555" text-anchor="middle" fill="#444">0</text>
<line x1="663.5" y1="540" x2="663.5" y2="543" stroke="#444"/>
<text x="663.5" y="555" text-anchor="middle" fill="#444">1</text>
<line x1="690.9" y1="540" x2="690.9" y2="543" stroke="#444"/>
<text x="690.9" y="555" text-anchor="middle" fill="#444">2</text>
<line x1="718.4" y1="540" x2="718.4" y2="543" stroke="#444"/>
<text x="718.4" y="555" text-anchor="middle" fill="#444">3</text>
<line x1="745.8" y1="540" x2="745.8" y2="543" stroke="#444"/>
<text x="745.8" y="555" text-anchor="middle" fill="#444">4</text>
<line x1="773.3" y1="540" x2="773.3" y2="543" stroke="#444"/>
<text x="773.3" y="555" text-anchor="middle" fill="#444">5</text>
<line x1="482" y1="540.0" x2="485" y2="540.0" stroke="#444"/>
<text x="479" y="543.0" text-anchor="end" fill="#444">-1.2</text>
<line x1="482" y1="500.0" x2="485" y2="500.0" stroke="#444"/>
<text x="479" y="503.0" text-anchor="end" fill="#444">-0.5</text>
<line x1="482" y1="460.0" x2="485" y2="460.0" stroke="#444"/>
<text x="479" y="463.0" text-anchor="end" fill="#444">0.24</text>
<line x1="482" y1="420.0" x2="485" y2="420.0" stroke="#444"/>
<text x="479" y="423.0" text-anchor="end" fill="#444">0.97</text>
<line x1="482" y1="380.0" x2="485" y2="380.0" stroke="#444"/>
<text x="479" y="383.0" text-anchor="end" fill="#444">1.7</text>
<text x="636.0" y="574" text-anchor="middle" fill="#444">Event time (years from adoption)</text>
<text x="437" y="460.0" text-anchor="middle" fill="#444" transform="rotate(-90 437 460.0)">ATT (per 100k)</text>
<rect x="15" y="620" width="380" height="260" fill="#fafaf7" stroke="#e2e2dc"/>
<text x="205.0" y="638" text-anchor="middle" font-weight="600">Total homicide rate (per 100k)</text>
<line x1="75" y1="755.5455948832597" x2="377" y2="755.5455948832597" stroke="#aaaaaa" stroke-width="0.7"/>
<polygon points="88.7,717.0 88.7,717.0 88.7,713.0 116.2,708.2 116.2,670.0 116.2,708.2 143.6,724.5 143.6,724.5 143.6,681.6 171.1,738.0 171.1,723.0 171.1,723.0 226.0,725.1 226.0,725.1 226.0,748.7 253.5,719.5 253.5,719.5 253.5,713.0 280.9,730.7 280.9,730.7 280.9,706.9 308.4,722.3 308.4,722.3 308.4,727.3 335.8,738.5 335.8,761.3 335.8,761.3 363.3,769.3 363.3,769.3 363.3,774.2 363.3,826.0 363.3,830.0 363.3,830.0 335.8,814.1 335.8,814.1 335.8,797.8 308.4,791.9 308.4,785.2 308.4,785.2 280.9,801.4 280.9,785.5 280.9,785.5 253.5,777.3 253.5,758.9 253.5,758.9 226.0,782.8 226.0,765.7 226.0,765.7 171.1,762.2 171.1,762.2 171.1,805.0 143.6,766.7 143.6,776.8 143.6,776.8 116.2,768.8 116.2,770.2 116.2,768.8 88.7,786.9 88.7,785.3 88.7,785.3" fill="#1f3a5f" opacity="0.18"/>
<polyline points="88.7,751.1 88.7,751.1 88.7,750.0 116.2,738.5 116.2,720.1 116.2,738.5 143.6,750.7 143.6,750.7 143.6,724.1 171.1,771.5 171.1,742.6 171.1,742.6 226.0,745.4 226.0,745.4 226.0,765.8 253.5,739.2 253.5,739.2 253.5,745.1 280.9,758.1 280.9,758.1 280.9,754.1 308.4,753.8 308.4,753.8 308.4,759.6 335.8,768.2 335.8,787.7 335.8,787.7 363.3,799.6 363.3,799.6 363.3,800.1" fill="none" stroke="#1f3a5f" stroke-width="1.6"/>
<circle cx="88.7" cy="751.1" r="2.6" fill="#1f3a5f"/>
<circle cx="88.7" cy="751.1" r="2.6" fill="#1f3a5f"/>
<circle cx="88.7" cy="750.0" r="2.6" fill="#1f3a5f"/>
<circle cx="116.2" cy="738.5" r="2.6" fill="#1f3a5f"/>
<circle cx="116.2" cy="720.1" r="2.6" fill="#1f3a5f"/>
<circle cx="116.2" cy="738.5" r="2.6" fill="#1f3a5f"/>
<circle cx="143.6" cy="750.7" r="2.6" fill="#1f3a5f"/>
<circle cx="143.6" cy="750.7" r="2.6" fill="#1f3a5f"/>
<circle cx="143.6" cy="724.1" r="2.6" fill="#1f3a5f"/>
<circle cx="171.1" cy="771.5" r="2.6" fill="#1f3a5f"/>
<circle cx="171.1" cy="742.6" r="2.6" fill="#1f3a5f"/>
<circle cx="171.1" cy="742.6" r="2.6" fill="#1f3a5f"/>
<circle cx="226.0" cy="745.4" r="2.6" fill="#1f3a5f"/>
<circle cx="226.0" cy="745.4" r="2.6" fill="#1f3a5f"/>
<circle cx="226.0" cy="765.8" r="2.6" fill="#1f3a5f"/>
<circle cx="253.5" cy="739.2" r="2.6" fill="#1f3a5f"/>
<circle cx="253.5" cy="739.2" r="2.6" fill="#1f3a5f"/>
<circle cx="253.5" cy="745.1" r="2.6" fill="#1f3a5f"/>
<circle cx="280.9" cy="758.1" r="2.6" fill="#1f3a5f"/>
<circle cx="280.9" cy="758.1" r="2.6" fill="#1f3a5f"/>
<circle cx="280.9" cy="754.1" r="2.6" fill="#1f3a5f"/>
<circle cx="308.4" cy="753.8" r="2.6" fill="#1f3a5f"/>
<circle cx="308.4" cy="753.8" r="2.6" fill="#1f3a5f"/>
<circle cx="308.4" cy="759.6" r="2.6" fill="#1f3a5f"/>
<circle cx="335.8" cy="768.2" r="2.6" fill="#1f3a5f"/>
<circle cx="335.8" cy="787.7" r="2.6" fill="#1f3a5f"/>
<circle cx="335.8" cy="787.7" r="2.6" fill="#1f3a5f"/>
<circle cx="363.3" cy="799.6" r="2.6" fill="#1f3a5f"/>
<circle cx="363.3" cy="799.6" r="2.6" fill="#1f3a5f"/>
<circle cx="363.3" cy="800.1" r="2.6" fill="#1f3a5f"/>
<line x1="212.3" y1="670" x2="212.3" y2="830" stroke="#b9461a" stroke-dasharray="3 3"/>
<line x1="75" y1="830" x2="377" y2="830" stroke="#444"/>
<line x1="75" y1="670" x2="75" y2="830" stroke="#444"/>
<line x1="88.7" y1="830" x2="88.7" y2="833" stroke="#444"/>
<text x="88.7" y="845" text-anchor="middle" fill="#444">-5</text>
<line x1="116.2" y1="830" x2="116.2" y2="833" stroke="#444"/>
<text x="116.2" y="845" text-anchor="middle" fill="#444">-4</text>
<line x1="143.6" y1="830" x2="143.6" y2="833" stroke="#444"/>
<text x="143.6" y="845" text-anchor="middle" fill="#444">-3</text>
<line x1="171.1" y1="830" x2="171.1" y2="833" stroke="#444"/>
<text x="171.1" y="845" text-anchor="middle" fill="#444">-2</text>
<line x1="226.0" y1="830" x2="226.0" y2="833" stroke="#444"/>
<text x="226.0" y="845" text-anchor="middle" fill="#444">0</text>
<line x1="253.5" y1="830" x2="253.5" y2="833" stroke="#444"/>
<text x="253.5" y="845" text-anchor="middle" fill="#444">1</text>
<line x1="280.9" y1="830" x2="280.9" y2="833" stroke="#444"/>
<text x="280.9" y="845" text-anchor="middle" fill="#444">2</text>
<line x1="308.4" y1="830" x2="308.4" y2="833" stroke="#444"/>
<text x="308.4" y="845" text-anchor="middle" fill="#444">3</text>
<line x1="335.8" y1="830" x2="335.8" y2="833" stroke="#444"/>
<text x="335.8" y="845" text-anchor="middle" fill="#444">4</text>
<line x1="363.3" y1="830" x2="363.3" y2="833" stroke="#444"/>
<text x="363.3" y="845" text-anchor="middle" fill="#444">5</text>
<line x1="72" y1="830.0" x2="75" y2="830.0" stroke="#444"/>
<text x="69" y="833.0" text-anchor="end" fill="#444">-1.5</text>
<line x1="72" y1="790.0" x2="75" y2="790.0" stroke="#444"/>
<text x="69" y="793.0" text-anchor="end" fill="#444">-0.7</text>
<line x1="72" y1="750.0" x2="75" y2="750.0" stroke="#444"/>
<text x="69" y="753.0" text-anchor="end" fill="#444">0.11</text>
<line x1="72" y1="710.0" x2="75" y2="710.0" stroke="#444"/>
<text x="69" y="713.0" text-anchor="end" fill="#444">0.92</text>
<line x1="72" y1="670.0" x2="75" y2="670.0" stroke="#444"/>
<text x="69" y="673.0" text-anchor="end" fill="#444">1.7</text>
<text x="226.0" y="864" text-anchor="middle" fill="#444">Event time (years from adoption)</text>
<text x="27" y="750.0" text-anchor="middle" fill="#444" transform="rotate(-90 27 750.0)">ATT (per 100k)</text>
<rect x="425" y="620" width="380" height="260" fill="#fafaf7" stroke="#e2e2dc"/>
<text x="615.0" y="638" text-anchor="middle" font-weight="600">Motor vehicle theft rate (per 100k) [placebo]</text>
<line x1="485" y1="744.8608351003634" x2="787" y2="744.8608351003634" stroke="#aaaaaa" stroke-width="0.7"/>
<polygon points="498.7,739.2 498.7,739.2 498.7,685.9 526.2,733.7 526.2,700.8 526.2,733.7 553.6,734.5 553.6,734.5 553.6,710.5 581.1,727.6 581.1,736.5 581.1,736.5 636.0,738.2 636.0,738.2 636.0,718.3 663.5,732.7 663.5,732.7 663.5,761.6 690.9,743.8 690.9,743.8 690.9,670.0 718.4,748.7 718.4,748.7 718.4,733.4 745.8,693.1 745.8,760.0 745.8,760.0 773.3,759.8 773.3,759.8 773.3,763.2 773.3,830.0 773.3,822.3 773.3,822.3 745.8,808.1 745.8,808.1 745.8,751.4 718.4,784.7 718.4,788.3 718.4,788.3 690.9,754.9 690.9,776.3 690.9,776.3 663.5,803.6 663.5,763.2 663.5,763.2 636.0,823.8 636.0,757.7 636.0,757.7 581.1,753.0 581.1,753.0 581.1,770.7 553.6,759.3 553.6,760.1 553.6,760.1 526.2,763.7 526.2,758.3 526.2,763.7 498.7,770.6 498.7,777.3 498.7,777.3" fill="#1f3a5f" opacity="0.18"/>
<polyline points="498.7,758.2 498.7,758.2 498.7,728.3 526.2,748.7 526.2,729.6 526.2,748.7 553.6,747.3 553.6,747.3 553.6,734.9 581.1,749.2 581.1,744.8 581.1,744.8 636.0,747.9 636.0,747.9 636.0,771.0 663.5,748.0 663.5,748.0 663.5,782.6 690.9,760.1 690.9,760.1 690.9,712.4 718.4,768.5 718.4,768.5 718.4,759.1 745.8,722.2 745.8,784.1 745.8,784.1 773.3,791.1 773.3,791.1 773.3,796.6" fill="none" stroke="#1f3a5f" stroke-width="1.6"/>
<circle cx="498.7" cy="758.2" r="2.6" fill="#1f3a5f"/>
<circle cx="498.7" cy="758.2" r="2.6" fill="#1f3a5f"/>
<circle cx="498.7" cy="728.3" r="2.6" fill="#1f3a5f"/>
<circle cx="526.2" cy="748.7" r="2.6" fill="#1f3a5f"/>
<circle cx="526.2" cy="729.6" r="2.6" fill="#1f3a5f"/>
<circle cx="526.2" cy="748.7" r="2.6" fill="#1f3a5f"/>
<circle cx="553.6" cy="747.3" r="2.6" fill="#1f3a5f"/>
<circle cx="553.6" cy="747.3" r="2.6" fill="#1f3a5f"/>
<circle cx="553.6" cy="734.9" r="2.6" fill="#1f3a5f"/>
<circle cx="581.1" cy="749.2" r="2.6" fill="#1f3a5f"/>
<circle cx="581.1" cy="744.8" r="2.6" fill="#1f3a5f"/>
<circle cx="581.1" cy="744.8" r="2.6" fill="#1f3a5f"/>
<circle cx="636.0" cy="747.9" r="2.6" fill="#1f3a5f"/>
<circle cx="636.0" cy="747.9" r="2.6" fill="#1f3a5f"/>
<circle cx="636.0" cy="771.0" r="2.6" fill="#1f3a5f"/>
<circle cx="663.5" cy="748.0" r="2.6" fill="#1f3a5f"/>
<circle cx="663.5" cy="748.0" r="2.6" fill="#1f3a5f"/>
<circle cx="663.5" cy="782.6" r="2.6" fill="#1f3a5f"/>
<circle cx="690.9" cy="760.1" r="2.6" fill="#1f3a5f"/>
<circle cx="690.9" cy="760.1" r="2.6" fill="#1f3a5f"/>
<circle cx="690.9" cy="712.4" r="2.6" fill="#1f3a5f"/>
<circle cx="718.4" cy="768.5" r="2.6" fill="#1f3a5f"/>
<circle cx="718.4" cy="768.5" r="2.6" fill="#1f3a5f"/>
<circle cx="718.4" cy="759.1" r="2.6" fill="#1f3a5f"/>
<circle cx="745.8" cy="722.2" r="2.6" fill="#1f3a5f"/>
<circle cx="745.8" cy="784.1" r="2.6" fill="#1f3a5f"/>
<circle cx="745.8" cy="784.1" r="2.6" fill="#1f3a5f"/>
<circle cx="773.3" cy="791.1" r="2.6" fill="#1f3a5f"/>
<circle cx="773.3" cy="791.1" r="2.6" fill="#1f3a5f"/>
<circle cx="773.3" cy="796.6" r="2.6" fill="#1f3a5f"/>
<line x1="622.3" y1="670" x2="622.3" y2="830" stroke="#b9461a" stroke-dasharray="3 3"/>
<line x1="485" y1="830" x2="787" y2="830" stroke="#444"/>
<line x1="485" y1="670" x2="485" y2="830" stroke="#444"/>
<line x1="498.7" y1="830" x2="498.7" y2="833" stroke="#444"/>
<text x="498.7" y="845" text-anchor="middle" fill="#444">-5</text>
<line x1="526.2" y1="830" x2="526.2" y2="833" stroke="#444"/>
<text x="526.2" y="845" text-anchor="middle" fill="#444">-4</text>
<line x1="553.6" y1="830" x2="553.6" y2="833" stroke="#444"/>
<text x="553.6" y="845" text-anchor="middle" fill="#444">-3</text>
<line x1="581.1" y1="830" x2="581.1" y2="833" stroke="#444"/>
<text x="581.1" y="845" text-anchor="middle" fill="#444">-2</text>
<line x1="636.0" y1="830" x2="636.0" y2="833" stroke="#444"/>
<text x="636.0" y="845" text-anchor="middle" fill="#444">0</text>
<line x1="663.5" y1="830" x2="663.5" y2="833" stroke="#444"/>
<text x="663.5" y="845" text-anchor="middle" fill="#444">1</text>
<line x1="690.9" y1="830" x2="690.9" y2="833" stroke="#444"/>
<text x="690.9" y="845" text-anchor="middle" fill="#444">2</text>
<line x1="718.4" y1="830" x2="718.4" y2="833" stroke="#444"/>
<text x="718.4" y="845" text-anchor="middle" fill="#444">3</text>
<line x1="745.8" y1="830" x2="745.8" y2="833" stroke="#444"/>
<text x="745.8" y="845" text-anchor="middle" fill="#444">4</text>
<line x1="773.3" y1="830" x2="773.3" y2="833" stroke="#444"/>
<text x="773.3" y="845" text-anchor="middle" fill="#444">5</text>
<line x1="482" y1="830.0" x2="485" y2="830.0" stroke="#444"/>
<text x="479" y="833.0" text-anchor="end" fill="#444">-1.1e+02</text>
<line x1="482" y1="790.0" x2="485" y2="790.0" stroke="#444"/>
<text x="479" y="793.0" text-anchor="end" fill="#444">-59</text>
<line x1="482" y1="750.0" x2="485" y2="750.0" stroke="#444"/>
<text x="479" y="753.0" text-anchor="end" fill="#444">-6.8</text>
<line x1="482" y1="710.0" x2="485" y2="710.0" stroke="#444"/>
<text x="479" y="713.0" text-anchor="end" fill="#444">46</text>
<line x1="482" y1="670.0" x2="485" y2="670.0" stroke="#444"/>
<text x="479" y="673.0" text-anchor="end" fill="#444">99</text>
<text x="636.0" y="864" text-anchor="middle" fill="#444">Event time (years from adoption)</text>
<text x="437" y="750.0" text-anchor="middle" fill="#444" transform="rotate(-90 437 750.0)">ATT (per 100k)</text>
<text x="805" y="608" text-anchor="end" fill="#888" font-size="10">Shaded band: pointwise 95% CI from cluster bootstrap. Vertical dashed line marks the year before adoption.</text>
</svg>