<svg xmlns="http://www.w3.org/2000/svg" viewBox="0 0 820 620" font-family="-apple-system, Segoe UI, Helvetica, Arial, sans-serif" font-size="11">
<text x="410.0" y="22" text-anchor="middle" font-size="14" font-weight="600">Cross-border outcome means by signed distance (permitless_carry)</text>
<rect x="15" y="40" width="380" height="260" fill="#fafaf7" stroke="#e2e2dc"/>
<text x="205.0" y="58" text-anchor="middle" font-weight="600">Violent crime (per 100k)</text>
<line x1="75" y1="250" x2="377" y2="250" stroke="#444"/>
<line x1="75" y1="90" x2="75" y2="250" stroke="#444"/>
<line x1="75" y1="250.0" x2="377" y2="250.0" stroke="#eeeeee" stroke-width="0.5"/>
<line x1="75" y1="210.0" x2="377" y2="210.0" stroke="#eeeeee" stroke-width="0.5"/>
<line x1="75" y1="170.0" x2="377" y2="170.0" stroke="#eeeeee" stroke-width="0.5"/>
<line x1="75" y1="130.0" x2="377" y2="130.0" stroke="#eeeeee" stroke-width="0.5"/>
<line x1="75" y1="90.0" x2="377" y2="90.0" stroke="#eeeeee" stroke-width="0.5"/>
<line x1="226.0" y1="90" x2="226.0" y2="250" stroke="#b9461a" stroke-dasharray="3 3"/>
<polyline points="84.4,224.2 103.3,97.3 122.2,158.0 141.1,145.6 159.9,184.7 178.8,205.3 197.7,195.3 216.6,177.9 235.4,173.5 254.3,233.6 273.2,200.8 292.1,242.7 310.9,229.8 329.8,144.4 348.7,137.8 367.6,189.1" fill="none" stroke="#1f3a5f" stroke-width="1.6"/>
<circle cx="84.4" cy="224.2" r="2.6" fill="#1f3a5f"/>
<circle cx="103.3" cy="97.3" r="2.6" fill="#1f3a5f"/>
<circle cx="122.2" cy="158.0" r="2.6" fill="#1f3a5f"/>
<circle cx="141.1" cy="145.6" r="2.6" fill="#1f3a5f"/>
<circle cx="159.9" cy="184.7" r="2.6" fill="#1f3a5f"/>
<circle cx="178.8" cy="205.3" r="2.6" fill="#1f3a5f"/>
<circle cx="197.7" cy="195.3" r="2.6" fill="#1f3a5f"/>
<circle cx="216.6" cy="177.9" r="2.6" fill="#1f3a5f"/>
<circle cx="235.4" cy="173.5" r="2.6" fill="#1f3a5f"/>
<circle cx="254.3" cy="233.6" r="2.6" fill="#1f3a5f"/>
<circle cx="273.2" cy="200.8" r="2.6" fill="#1f3a5f"/>
<circle cx="292.1" cy="242.7" r="2.6" fill="#1f3a5f"/>
<circle cx="310.9" cy="229.8" r="2.6" fill="#1f3a5f"/>
<circle cx="329.8" cy="144.4" r="2.6" fill="#1f3a5f"/>
<circle cx="348.7" cy="137.8" r="2.6" fill="#1f3a5f"/>
<circle cx="367.6" cy="189.1" r="2.6" fill="#1f3a5f"/>
<line x1="75.0" y1="250" x2="75.0" y2="253" stroke="#444"/>
<text x="75.0" y="265" text-anchor="middle" fill="#444">-200</text>
<line x1="112.8" y1="250" x2="112.8" y2="253" stroke="#444"/>
<text x="112.8" y="265" text-anchor="middle" fill="#444">-150</text>
<line x1="150.5" y1="250" x2="150.5" y2="253" stroke="#444"/>
<text x="150.5" y="265" text-anchor="middle" fill="#444">-100</text>
<line x1="188.2" y1="250" x2="188.2" y2="253" stroke="#444"/>
<text x="188.2" y="265" text-anchor="middle" fill="#444">-50</text>
<line x1="226.0" y1="250" x2="226.0" y2="253" stroke="#444"/>
<text x="226.0" y="265" text-anchor="middle" fill="#444">0</text>
<line x1="263.8" y1="250" x2="263.8" y2="253" stroke="#444"/>
<text x="263.8" y="265" text-anchor="middle" fill="#444">50</text>
<line x1="301.5" y1="250" x2="301.5" y2="253" stroke="#444"/>
<text x="301.5" y="265" text-anchor="middle" fill="#444">100</text>
<line x1="339.2" y1="250" x2="339.2" y2="253" stroke="#444"/>
<text x="339.2" y="265" text-anchor="middle" fill="#444">150</text>
<line x1="377.0" y1="250" x2="377.0" y2="253" stroke="#444"/>
<text x="377.0" y="265" text-anchor="middle" fill="#444">200</text>
<line x1="72" y1="250.0" x2="75" y2="250.0" stroke="#444"/>
<text x="69" y="253.0" text-anchor="end" fill="#444">169</text>
<line x1="72" y1="210.0" x2="75" y2="210.0" stroke="#444"/>
<text x="69" y="213.0" text-anchor="end" fill="#444">204</text>
<line x1="72" y1="170.0" x2="75" y2="170.0" stroke="#444"/>
<text x="69" y="173.0" text-anchor="end" fill="#444">239</text>
<line x1="72" y1="130.0" x2="75" y2="130.0" stroke="#444"/>
<text x="69" y="133.0" text-anchor="end" fill="#444">274</text>
<line x1="72" y1="90.0" x2="75" y2="90.0" stroke="#444"/>
<text x="69" y="93.0" text-anchor="end" fill="#444">309</text>
<text x="226.0" y="284" text-anchor="middle" fill="#444">Signed distance to border (km)</text>
<text x="27" y="170.0" text-anchor="middle" fill="#444" transform="rotate(-90 27 170.0)">Mean rate per 100k</text>
<rect x="425" y="40" width="380" height="260" fill="#fafaf7" stroke="#e2e2dc"/>
<text x="615.0" y="58" text-anchor="middle" font-weight="600">Murder (per 100k)</text>
<line x1="485" y1="250" x2="787" y2="250" stroke="#444"/>
<line x1="485" y1="90" x2="485" y2="250" stroke="#444"/>
<line x1="485" y1="250.0" x2="787" y2="250.0" stroke="#eeeeee" stroke-width="0.5"/>
<line x1="485" y1="210.0" x2="787" y2="210.0" stroke="#eeeeee" stroke-width="0.5"/>
<line x1="485" y1="170.0" x2="787" y2="170.0" stroke="#eeeeee" stroke-width="0.5"/>
<line x1="485" y1="130.0" x2="787" y2="130.0" stroke="#eeeeee" stroke-width="0.5"/>
<line x1="485" y1="90.0" x2="787" y2="90.0" stroke="#eeeeee" stroke-width="0.5"/>
<line x1="636.0" y1="90" x2="636.0" y2="250" stroke="#b9461a" stroke-dasharray="3 3"/>
<polyline points="494.4,242.7 513.3,180.8 532.2,176.0 551.1,205.3 569.9,194.0 588.8,97.3 607.7,181.2 626.6,146.2 645.4,159.2 664.3,198.1 683.2,204.5 702.1,201.9 720.9,216.5 739.8,188.9 758.7,210.5 777.6,170.7" fill="none" stroke="#1f3a5f" stroke-width="1.6"/>
<circle cx="494.4" cy="242.7" r="2.6" fill="#1f3a5f"/>
<circle cx="513.3" cy="180.8" r="2.6" fill="#1f3a5f"/>
<circle cx="532.2" cy="176.0" r="2.6" fill="#1f3a5f"/>
<circle cx="551.1" cy="205.3" r="2.6" fill="#1f3a5f"/>
<circle cx="569.9" cy="194.0" r="2.6" fill="#1f3a5f"/>
<circle cx="588.8" cy="97.3" r="2.6" fill="#1f3a5f"/>
<circle cx="607.7" cy="181.2" r="2.6" fill="#1f3a5f"/>
<circle cx="626.6" cy="146.2" r="2.6" fill="#1f3a5f"/>
<circle cx="645.4" cy="159.2" r="2.6" fill="#1f3a5f"/>
<circle cx="664.3" cy="198.1" r="2.6" fill="#1f3a5f"/>
<circle cx="683.2" cy="204.5" r="2.6" fill="#1f3a5f"/>
<circle cx="702.1" cy="201.9" r="2.6" fill="#1f3a5f"/>
<circle cx="720.9" cy="216.5" r="2.6" fill="#1f3a5f"/>
<circle cx="739.8" cy="188.9" r="2.6" fill="#1f3a5f"/>
<circle cx="758.7" cy="210.5" r="2.6" fill="#1f3a5f"/>
<circle cx="777.6" cy="170.7" r="2.6" fill="#1f3a5f"/>
<line x1="485.0" y1="250" x2="485.0" y2="253" stroke="#444"/>
<text x="485.0" y="265" text-anchor="middle" fill="#444">-200</text>
<line x1="522.8" y1="250" x2="522.8" y2="253" stroke="#444"/>
<text x="522.8" y="265" text-anchor="middle" fill="#444">-150</text>
<line x1="560.5" y1="250" x2="560.5" y2="253" stroke="#444"/>
<text x="560.5" y="265" text-anchor="middle" fill="#444">-100</text>
<line x1="598.2" y1="250" x2="598.2" y2="253" stroke="#444"/>
<text x="598.2" y="265" text-anchor="middle" fill="#444">-50</text>
<line x1="636.0" y1="250" x2="636.0" y2="253" stroke="#444"/>
<text x="636.0" y="265" text-anchor="middle" fill="#444">0</text>
<line x1="673.8" y1="250" x2="673.8" y2="253" stroke="#444"/>
<text x="673.8" y="265" text-anchor="middle" fill="#444">50</text>
<line x1="711.5" y1="250" x2="711.5" y2="253" stroke="#444"/>
<text x="711.5" y="265" text-anchor="middle" fill="#444">100</text>
<line x1="749.2" y1="250" x2="749.2" y2="253" stroke="#444"/>
<text x="749.2" y="265" text-anchor="middle" fill="#444">150</text>
<line x1="787.0" y1="250" x2="787.0" y2="253" stroke="#444"/>
<text x="787.0" y="265" text-anchor="middle" fill="#444">200</text>
<line x1="482" y1="250.0" x2="485" y2="250.0" stroke="#444"/>
<text x="479" y="253.0" text-anchor="end" fill="#444">1.6</text>
<line x1="482" y1="210.0" x2="485" y2="210.0" stroke="#444"/>
<text x="479" y="213.0" text-anchor="end" fill="#444">3</text>
<line x1="482" y1="170.0" x2="485" y2="170.0" stroke="#444"/>
<text x="479" y="173.0" text-anchor="end" fill="#444">4.4</text>
<line x1="482" y1="130.0" x2="485" y2="130.0" stroke="#444"/>
<text x="479" y="133.0" text-anchor="end" fill="#444">5.7</text>
<line x1="482" y1="90.0" x2="485" y2="90.0" stroke="#444"/>
<text x="479" y="93.0" text-anchor="end" fill="#444">7.1</text>
<text x="636.0" y="284" text-anchor="middle" fill="#444">Signed distance to border (km)</text>
<text x="437" y="170.0" text-anchor="middle" fill="#444" transform="rotate(-90 437 170.0)">Mean rate per 100k</text>
<rect x="15" y="330" width="380" height="260" fill="#fafaf7" stroke="#e2e2dc"/>
<text x="205.0" y="348" text-anchor="middle" font-weight="600">Property crime (per 100k)</text>
<line x1="75" y1="540" x2="377" y2="540" stroke="#444"/>
<line x1="75" y1="380" x2="75" y2="540" stroke="#444"/>
<line x1="75" y1="540.0" x2="377" y2="540.0" stroke="#eeeeee" stroke-width="0.5"/>
<line x1="75" y1="500.0" x2="377" y2="500.0" stroke="#eeeeee" stroke-width="0.5"/>
<line x1="75" y1="460.0" x2="377" y2="460.0" stroke="#eeeeee" stroke-width="0.5"/>
<line x1="75" y1="420.0" x2="377" y2="420.0" stroke="#eeeeee" stroke-width="0.5"/>
<line x1="75" y1="380.0" x2="377" y2="380.0" stroke="#eeeeee" stroke-width="0.5"/>
<line x1="226.0" y1="380" x2="226.0" y2="540" stroke="#b9461a" stroke-dasharray="3 3"/>
<polyline points="84.4,497.8 103.3,387.3 122.2,448.9 141.1,453.7 159.9,479.3 178.8,509.8 197.7,504.9 216.6,470.0 235.4,467.4 254.3,529.5 273.2,530.9 292.1,532.7 310.9,471.3 329.8,475.5 348.7,456.5 367.6,492.9" fill="none" stroke="#1f3a5f" stroke-width="1.6"/>
<circle cx="84.4" cy="497.8" r="2.6" fill="#1f3a5f"/>
<circle cx="103.3" cy="387.3" r="2.6" fill="#1f3a5f"/>
<circle cx="122.2" cy="448.9" r="2.6" fill="#1f3a5f"/>
<circle cx="141.1" cy="453.7" r="2.6" fill="#1f3a5f"/>
<circle cx="159.9" cy="479.3" r="2.6" fill="#1f3a5f"/>
<circle cx="178.8" cy="509.8" r="2.6" fill="#1f3a5f"/>
<circle cx="197.7" cy="504.9" r="2.6" fill="#1f3a5f"/>
<circle cx="216.6" cy="470.0" r="2.6" fill="#1f3a5f"/>
<circle cx="235.4" cy="467.4" r="2.6" fill="#1f3a5f"/>
<circle cx="254.3" cy="529.5" r="2.6" fill="#1f3a5f"/>
<circle cx="273.2" cy="530.9" r="2.6" fill="#1f3a5f"/>
<circle cx="292.1" cy="532.7" r="2.6" fill="#1f3a5f"/>
<circle cx="310.9" cy="471.3" r="2.6" fill="#1f3a5f"/>
<circle cx="329.8" cy="475.5" r="2.6" fill="#1f3a5f"/>
<circle cx="348.7" cy="456.5" r="2.6" fill="#1f3a5f"/>
<circle cx="367.6" cy="492.9" r="2.6" fill="#1f3a5f"/>
<line x1="75.0" y1="540" x2="75.0" y2="543" stroke="#444"/>
<text x="75.0" y="555" text-anchor="middle" fill="#444">-200</text>
<line x1="112.8" y1="540" x2="112.8" y2="543" stroke="#444"/>
<text x="112.8" y="555" text-anchor="middle" fill="#444">-150</text>
<line x1="150.5" y1="540" x2="150.5" y2="543" stroke="#444"/>
<text x="150.5" y="555" text-anchor="middle" fill="#444">-100</text>
<line x1="188.2" y1="540" x2="188.2" y2="543" stroke="#444"/>
<text x="188.2" y="555" text-anchor="middle" fill="#444">-50</text>
<line x1="226.0" y1="540" x2="226.0" y2="543" stroke="#444"/>
<text x="226.0" y="555" text-anchor="middle" fill="#444">0</text>
<line x1="263.8" y1="540" x2="263.8" y2="543" stroke="#444"/>
<text x="263.8" y="555" text-anchor="middle" fill="#444">50</text>
<line x1="301.5" y1="540" x2="301.5" y2="543" stroke="#444"/>
<text x="301.5" y="555" text-anchor="middle" fill="#444">100</text>
<line x1="339.2" y1="540" x2="339.2" y2="543" stroke="#444"/>
<text x="339.2" y="555" text-anchor="middle" fill="#444">150</text>
<line x1="377.0" y1="540" x2="377.0" y2="543" stroke="#444"/>
<text x="377.0" y="555" text-anchor="middle" fill="#444">200</text>
<line x1="72" y1="540.0" x2="75" y2="540.0" stroke="#444"/>
<text x="69" y="543.0" text-anchor="end" fill="#444">979</text>
<line x1="72" y1="500.0" x2="75" y2="500.0" stroke="#444"/>
<text x="69" y="503.0" text-anchor="end" fill="#444">1198</text>
<line x1="72" y1="460.0" x2="75" y2="460.0" stroke="#444"/>
<text x="69" y="463.0" text-anchor="end" fill="#444">1416</text>
<line x1="72" y1="420.0" x2="75" y2="420.0" stroke="#444"/>
<text x="69" y="423.0" text-anchor="end" fill="#444">1635</text>
<line x1="72" y1="380.0" x2="75" y2="380.0" stroke="#444"/>
<text x="69" y="383.0" text-anchor="end" fill="#444">1854</text>
<text x="226.0" y="574" text-anchor="middle" fill="#444">Signed distance to border (km)</text>
<text x="27" y="460.0" text-anchor="middle" fill="#444" transform="rotate(-90 27 460.0)">Mean rate per 100k</text>
<rect x="425" y="330" width="380" height="260" fill="#fafaf7" stroke="#e2e2dc"/>
<text x="615.0" y="348" text-anchor="middle" font-weight="600">Burglary (per 100k)</text>
<line x1="485" y1="540" x2="787" y2="540" stroke="#444"/>
<line x1="485" y1="380" x2="485" y2="540" stroke="#444"/>
<line x1="485" y1="540.0" x2="787" y2="540.0" stroke="#eeeeee" stroke-width="0.5"/>
<line x1="485" y1="500.0" x2="787" y2="500.0" stroke="#eeeeee" stroke-width="0.5"/>
<line x1="485" y1="460.0" x2="787" y2="460.0" stroke="#eeeeee" stroke-width="0.5"/>
<line x1="485" y1="420.0" x2="787" y2="420.0" stroke="#eeeeee" stroke-width="0.5"/>
<line x1="485" y1="380.0" x2="787" y2="380.0" stroke="#eeeeee" stroke-width="0.5"/>
<line x1="636.0" y1="380" x2="636.0" y2="540" stroke="#b9461a" stroke-dasharray="3 3"/>
<polyline points="494.4,532.7 513.3,387.3 532.2,445.8 551.1,406.1 569.9,483.9 588.8,522.2 607.7,504.5 626.6,485.0 645.4,458.2 664.3,530.3 683.2,512.5 702.1,530.2 720.9,521.0 739.8,481.2 758.7,449.6 777.6,429.4" fill="none" stroke="#1f3a5f" stroke-width="1.6"/>
<circle cx="494.4" cy="532.7" r="2.6" fill="#1f3a5f"/>
<circle cx="513.3" cy="387.3" r="2.6" fill="#1f3a5f"/>
<circle cx="532.2" cy="445.8" r="2.6" fill="#1f3a5f"/>
<circle cx="551.1" cy="406.1" r="2.6" fill="#1f3a5f"/>
<circle cx="569.9" cy="483.9" r="2.6" fill="#1f3a5f"/>
<circle cx="588.8" cy="522.2" r="2.6" fill="#1f3a5f"/>
<circle cx="607.7" cy="504.5" r="2.6" fill="#1f3a5f"/>
<circle cx="626.6" cy="485.0" r="2.6" fill="#1f3a5f"/>
<circle cx="645.4" cy="458.2" r="2.6" fill="#1f3a5f"/>
<circle cx="664.3" cy="530.3" r="2.6" fill="#1f3a5f"/>
<circle cx="683.2" cy="512.5" r="2.6" fill="#1f3a5f"/>
<circle cx="702.1" cy="530.2" r="2.6" fill="#1f3a5f"/>
<circle cx="720.9" cy="521.0" r="2.6" fill="#1f3a5f"/>
<circle cx="739.8" cy="481.2" r="2.6" fill="#1f3a5f"/>
<circle cx="758.7" cy="449.6" r="2.6" fill="#1f3a5f"/>
<circle cx="777.6" cy="429.4" r="2.6" fill="#1f3a5f"/>
<line x1="485.0" y1="540" x2="485.0" y2="543" stroke="#444"/>
<text x="485.0" y="555" text-anchor="middle" fill="#444">-200</text>
<line x1="522.8" y1="540" x2="522.8" y2="543" stroke="#444"/>
<text x="522.8" y="555" text-anchor="middle" fill="#444">-150</text>
<line x1="560.5" y1="540" x2="560.5" y2="543" stroke="#444"/>
<text x="560.5" y="555" text-anchor="middle" fill="#444">-100</text>
<line x1="598.2" y1="540" x2="598.2" y2="543" stroke="#444"/>
<text x="598.2" y="555" text-anchor="middle" fill="#444">-50</text>
<line x1="636.0" y1="540" x2="636.0" y2="543" stroke="#444"/>
<text x="636.0" y="555" text-anchor="middle" fill="#444">0</text>
<line x1="673.8" y1="540" x2="673.8" y2="543" stroke="#444"/>
<text x="673.8" y="555" text-anchor="middle" fill="#444">50</text>
<line x1="711.5" y1="540" x2="711.5" y2="543" stroke="#444"/>
<text x="711.5" y="555" text-anchor="middle" fill="#444">100</text>
<line x1="749.2" y1="540" x2="749.2" y2="543" stroke="#444"/>
<text x="749.2" y="555" text-anchor="middle" fill="#444">150</text>
<line x1="787.0" y1="540" x2="787.0" y2="543" stroke="#444"/>
<text x="787.0" y="555" text-anchor="middle" fill="#444">200</text>
<line x1="482" y1="540.0" x2="485" y2="540.0" stroke="#444"/>
<text x="479" y="543.0" text-anchor="end" fill="#444">221</text>
<line x1="482" y1="500.0" x2="485" y2="500.0" stroke="#444"/>
<text x="479" y="503.0" text-anchor="end" fill="#444">248</text>
<line x1="482" y1="460.0" x2="485" y2="460.0" stroke="#444"/>
<text x="479" y="463.0" text-anchor="end" fill="#444">275</text>
<line x1="482" y1="420.0" x2="485" y2="420.0" stroke="#444"/>
<text x="479" y="423.0" text-anchor="end" fill="#444">303</text>
<line x1="482" y1="380.0" x2="485" y2="380.0" stroke="#444"/>
<text x="479" y="383.0" text-anchor="end" fill="#444">330</text>
<text x="636.0" y="574" text-anchor="middle" fill="#444">Signed distance to border (km)</text>
<text x="437" y="460.0" text-anchor="middle" fill="#444" transform="rotate(-90 437 460.0)">Mean rate per 100k</text>
<text x="805" y="608" text-anchor="end" fill="#888" font-size="10">Negative x = control side, positive x = treated side. Pooled across years where the pair straddled. Bin width 25 km.</text>
</svg>