<svg xmlns="http://www.w3.org/2000/svg" viewBox="0 0 820 620" font-family="-apple-system, Segoe UI, Helvetica, Arial, sans-serif" font-size="11">
<text x="410.0" y="22" text-anchor="middle" font-size="14" font-weight="600">Cross-border outcome means by signed distance (red_flag)</text>
<rect x="15" y="40" width="380" height="260" fill="#fafaf7" stroke="#e2e2dc"/>
<text x="205.0" y="58" text-anchor="middle" font-weight="600">Violent crime (per 100k)</text>
<line x1="75" y1="250" x2="377" y2="250" stroke="#444"/>
<line x1="75" y1="90" x2="75" y2="250" stroke="#444"/>
<line x1="75" y1="250.0" x2="377" y2="250.0" stroke="#eeeeee" stroke-width="0.5"/>
<line x1="75" y1="210.0" x2="377" y2="210.0" stroke="#eeeeee" stroke-width="0.5"/>
<line x1="75" y1="170.0" x2="377" y2="170.0" stroke="#eeeeee" stroke-width="0.5"/>
<line x1="75" y1="130.0" x2="377" y2="130.0" stroke="#eeeeee" stroke-width="0.5"/>
<line x1="75" y1="90.0" x2="377" y2="90.0" stroke="#eeeeee" stroke-width="0.5"/>
<line x1="226.0" y1="90" x2="226.0" y2="250" stroke="#b9461a" stroke-dasharray="3 3"/>
<polyline points="84.4,138.1 103.3,177.7 122.2,239.2 141.1,240.7 159.9,235.5 178.8,213.2 197.7,234.1 216.6,97.3 235.4,212.6 254.3,218.1 273.2,233.0 292.1,242.7 310.9,183.3 329.8,198.3 348.7,128.2 367.6,139.5" fill="none" stroke="#1f3a5f" stroke-width="1.6"/>
<circle cx="84.4" cy="138.1" r="2.6" fill="#1f3a5f"/>
<circle cx="103.3" cy="177.7" r="2.6" fill="#1f3a5f"/>
<circle cx="122.2" cy="239.2" r="2.6" fill="#1f3a5f"/>
<circle cx="141.1" cy="240.7" r="2.6" fill="#1f3a5f"/>
<circle cx="159.9" cy="235.5" r="2.6" fill="#1f3a5f"/>
<circle cx="178.8" cy="213.2" r="2.6" fill="#1f3a5f"/>
<circle cx="197.7" cy="234.1" r="2.6" fill="#1f3a5f"/>
<circle cx="216.6" cy="97.3" r="2.6" fill="#1f3a5f"/>
<circle cx="235.4" cy="212.6" r="2.6" fill="#1f3a5f"/>
<circle cx="254.3" cy="218.1" r="2.6" fill="#1f3a5f"/>
<circle cx="273.2" cy="233.0" r="2.6" fill="#1f3a5f"/>
<circle cx="292.1" cy="242.7" r="2.6" fill="#1f3a5f"/>
<circle cx="310.9" cy="183.3" r="2.6" fill="#1f3a5f"/>
<circle cx="329.8" cy="198.3" r="2.6" fill="#1f3a5f"/>
<circle cx="348.7" cy="128.2" r="2.6" fill="#1f3a5f"/>
<circle cx="367.6" cy="139.5" r="2.6" fill="#1f3a5f"/>
<line x1="75.0" y1="250" x2="75.0" y2="253" stroke="#444"/>
<text x="75.0" y="265" text-anchor="middle" fill="#444">-200</text>
<line x1="112.8" y1="250" x2="112.8" y2="253" stroke="#444"/>
<text x="112.8" y="265" text-anchor="middle" fill="#444">-150</text>
<line x1="150.5" y1="250" x2="150.5" y2="253" stroke="#444"/>
<text x="150.5" y="265" text-anchor="middle" fill="#444">-100</text>
<line x1="188.2" y1="250" x2="188.2" y2="253" stroke="#444"/>
<text x="188.2" y="265" text-anchor="middle" fill="#444">-50</text>
<line x1="226.0" y1="250" x2="226.0" y2="253" stroke="#444"/>
<text x="226.0" y="265" text-anchor="middle" fill="#444">0</text>
<line x1="263.8" y1="250" x2="263.8" y2="253" stroke="#444"/>
<text x="263.8" y="265" text-anchor="middle" fill="#444">50</text>
<line x1="301.5" y1="250" x2="301.5" y2="253" stroke="#444"/>
<text x="301.5" y="265" text-anchor="middle" fill="#444">100</text>
<line x1="339.2" y1="250" x2="339.2" y2="253" stroke="#444"/>
<text x="339.2" y="265" text-anchor="middle" fill="#444">150</text>
<line x1="377.0" y1="250" x2="377.0" y2="253" stroke="#444"/>
<text x="377.0" y="265" text-anchor="middle" fill="#444">200</text>
<line x1="72" y1="250.0" x2="75" y2="250.0" stroke="#444"/>
<text x="69" y="253.0" text-anchor="end" fill="#444">158</text>
<line x1="72" y1="210.0" x2="75" y2="210.0" stroke="#444"/>
<text x="69" y="213.0" text-anchor="end" fill="#444">199</text>
<line x1="72" y1="170.0" x2="75" y2="170.0" stroke="#444"/>
<text x="69" y="173.0" text-anchor="end" fill="#444">240</text>
<line x1="72" y1="130.0" x2="75" y2="130.0" stroke="#444"/>
<text x="69" y="133.0" text-anchor="end" fill="#444">281</text>
<line x1="72" y1="90.0" x2="75" y2="90.0" stroke="#444"/>
<text x="69" y="93.0" text-anchor="end" fill="#444">323</text>
<text x="226.0" y="284" text-anchor="middle" fill="#444">Signed distance to border (km)</text>
<text x="27" y="170.0" text-anchor="middle" fill="#444" transform="rotate(-90 27 170.0)">Mean rate per 100k</text>
<rect x="425" y="40" width="380" height="260" fill="#fafaf7" stroke="#e2e2dc"/>
<text x="615.0" y="58" text-anchor="middle" font-weight="600">Murder (per 100k)</text>
<line x1="485" y1="250" x2="787" y2="250" stroke="#444"/>
<line x1="485" y1="90" x2="485" y2="250" stroke="#444"/>
<line x1="485" y1="250.0" x2="787" y2="250.0" stroke="#eeeeee" stroke-width="0.5"/>
<line x1="485" y1="210.0" x2="787" y2="210.0" stroke="#eeeeee" stroke-width="0.5"/>
<line x1="485" y1="170.0" x2="787" y2="170.0" stroke="#eeeeee" stroke-width="0.5"/>
<line x1="485" y1="130.0" x2="787" y2="130.0" stroke="#eeeeee" stroke-width="0.5"/>
<line x1="485" y1="90.0" x2="787" y2="90.0" stroke="#eeeeee" stroke-width="0.5"/>
<line x1="636.0" y1="90" x2="636.0" y2="250" stroke="#b9461a" stroke-dasharray="3 3"/>
<polyline points="494.4,151.2 513.3,182.7 532.2,222.6 551.1,211.5 569.9,212.8 588.8,212.9 607.7,210.0 626.6,97.3 645.4,216.4 664.3,231.6 683.2,242.7 702.1,241.0 720.9,222.5 739.8,209.9 758.7,172.3 777.6,201.7" fill="none" stroke="#1f3a5f" stroke-width="1.6"/>
<circle cx="494.4" cy="151.2" r="2.6" fill="#1f3a5f"/>
<circle cx="513.3" cy="182.7" r="2.6" fill="#1f3a5f"/>
<circle cx="532.2" cy="222.6" r="2.6" fill="#1f3a5f"/>
<circle cx="551.1" cy="211.5" r="2.6" fill="#1f3a5f"/>
<circle cx="569.9" cy="212.8" r="2.6" fill="#1f3a5f"/>
<circle cx="588.8" cy="212.9" r="2.6" fill="#1f3a5f"/>
<circle cx="607.7" cy="210.0" r="2.6" fill="#1f3a5f"/>
<circle cx="626.6" cy="97.3" r="2.6" fill="#1f3a5f"/>
<circle cx="645.4" cy="216.4" r="2.6" fill="#1f3a5f"/>
<circle cx="664.3" cy="231.6" r="2.6" fill="#1f3a5f"/>
<circle cx="683.2" cy="242.7" r="2.6" fill="#1f3a5f"/>
<circle cx="702.1" cy="241.0" r="2.6" fill="#1f3a5f"/>
<circle cx="720.9" cy="222.5" r="2.6" fill="#1f3a5f"/>
<circle cx="739.8" cy="209.9" r="2.6" fill="#1f3a5f"/>
<circle cx="758.7" cy="172.3" r="2.6" fill="#1f3a5f"/>
<circle cx="777.6" cy="201.7" r="2.6" fill="#1f3a5f"/>
<line x1="485.0" y1="250" x2="485.0" y2="253" stroke="#444"/>
<text x="485.0" y="265" text-anchor="middle" fill="#444">-200</text>
<line x1="522.8" y1="250" x2="522.8" y2="253" stroke="#444"/>
<text x="522.8" y="265" text-anchor="middle" fill="#444">-150</text>
<line x1="560.5" y1="250" x2="560.5" y2="253" stroke="#444"/>
<text x="560.5" y="265" text-anchor="middle" fill="#444">-100</text>
<line x1="598.2" y1="250" x2="598.2" y2="253" stroke="#444"/>
<text x="598.2" y="265" text-anchor="middle" fill="#444">-50</text>
<line x1="636.0" y1="250" x2="636.0" y2="253" stroke="#444"/>
<text x="636.0" y="265" text-anchor="middle" fill="#444">0</text>
<line x1="673.8" y1="250" x2="673.8" y2="253" stroke="#444"/>
<text x="673.8" y="265" text-anchor="middle" fill="#444">50</text>
<line x1="711.5" y1="250" x2="711.5" y2="253" stroke="#444"/>
<text x="711.5" y="265" text-anchor="middle" fill="#444">100</text>
<line x1="749.2" y1="250" x2="749.2" y2="253" stroke="#444"/>
<text x="749.2" y="265" text-anchor="middle" fill="#444">150</text>
<line x1="787.0" y1="250" x2="787.0" y2="253" stroke="#444"/>
<text x="787.0" y="265" text-anchor="middle" fill="#444">200</text>
<line x1="482" y1="250.0" x2="485" y2="250.0" stroke="#444"/>
<text x="479" y="253.0" text-anchor="end" fill="#444">1.3</text>
<line x1="482" y1="210.0" x2="485" y2="210.0" stroke="#444"/>
<text x="479" y="213.0" text-anchor="end" fill="#444">2.8</text>
<line x1="482" y1="170.0" x2="485" y2="170.0" stroke="#444"/>
<text x="479" y="173.0" text-anchor="end" fill="#444">4.3</text>
<line x1="482" y1="130.0" x2="485" y2="130.0" stroke="#444"/>
<text x="479" y="133.0" text-anchor="end" fill="#444">5.9</text>
<line x1="482" y1="90.0" x2="485" y2="90.0" stroke="#444"/>
<text x="479" y="93.0" text-anchor="end" fill="#444">7.4</text>
<text x="636.0" y="284" text-anchor="middle" fill="#444">Signed distance to border (km)</text>
<text x="437" y="170.0" text-anchor="middle" fill="#444" transform="rotate(-90 437 170.0)">Mean rate per 100k</text>
<rect x="15" y="330" width="380" height="260" fill="#fafaf7" stroke="#e2e2dc"/>
<text x="205.0" y="348" text-anchor="middle" font-weight="600">Property crime (per 100k)</text>
<line x1="75" y1="540" x2="377" y2="540" stroke="#444"/>
<line x1="75" y1="380" x2="75" y2="540" stroke="#444"/>
<line x1="75" y1="540.0" x2="377" y2="540.0" stroke="#eeeeee" stroke-width="0.5"/>
<line x1="75" y1="500.0" x2="377" y2="500.0" stroke="#eeeeee" stroke-width="0.5"/>
<line x1="75" y1="460.0" x2="377" y2="460.0" stroke="#eeeeee" stroke-width="0.5"/>
<line x1="75" y1="420.0" x2="377" y2="420.0" stroke="#eeeeee" stroke-width="0.5"/>
<line x1="75" y1="380.0" x2="377" y2="380.0" stroke="#eeeeee" stroke-width="0.5"/>
<line x1="226.0" y1="380" x2="226.0" y2="540" stroke="#b9461a" stroke-dasharray="3 3"/>
<polyline points="84.4,505.7 103.3,478.3 122.2,530.0 141.1,510.9 159.9,532.7 178.8,527.8 197.7,520.7 216.6,397.8 235.4,489.9 254.3,517.3 273.2,526.7 292.1,513.5 310.9,483.5 329.8,463.0 348.7,387.3 367.6,449.7" fill="none" stroke="#1f3a5f" stroke-width="1.6"/>
<circle cx="84.4" cy="505.7" r="2.6" fill="#1f3a5f"/>
<circle cx="103.3" cy="478.3" r="2.6" fill="#1f3a5f"/>
<circle cx="122.2" cy="530.0" r="2.6" fill="#1f3a5f"/>
<circle cx="141.1" cy="510.9" r="2.6" fill="#1f3a5f"/>
<circle cx="159.9" cy="532.7" r="2.6" fill="#1f3a5f"/>
<circle cx="178.8" cy="527.8" r="2.6" fill="#1f3a5f"/>
<circle cx="197.7" cy="520.7" r="2.6" fill="#1f3a5f"/>
<circle cx="216.6" cy="397.8" r="2.6" fill="#1f3a5f"/>
<circle cx="235.4" cy="489.9" r="2.6" fill="#1f3a5f"/>
<circle cx="254.3" cy="517.3" r="2.6" fill="#1f3a5f"/>
<circle cx="273.2" cy="526.7" r="2.6" fill="#1f3a5f"/>
<circle cx="292.1" cy="513.5" r="2.6" fill="#1f3a5f"/>
<circle cx="310.9" cy="483.5" r="2.6" fill="#1f3a5f"/>
<circle cx="329.8" cy="463.0" r="2.6" fill="#1f3a5f"/>
<circle cx="348.7" cy="387.3" r="2.6" fill="#1f3a5f"/>
<circle cx="367.6" cy="449.7" r="2.6" fill="#1f3a5f"/>
<line x1="75.0" y1="540" x2="75.0" y2="543" stroke="#444"/>
<text x="75.0" y="555" text-anchor="middle" fill="#444">-200</text>
<line x1="112.8" y1="540" x2="112.8" y2="543" stroke="#444"/>
<text x="112.8" y="555" text-anchor="middle" fill="#444">-150</text>
<line x1="150.5" y1="540" x2="150.5" y2="543" stroke="#444"/>
<text x="150.5" y="555" text-anchor="middle" fill="#444">-100</text>
<line x1="188.2" y1="540" x2="188.2" y2="543" stroke="#444"/>
<text x="188.2" y="555" text-anchor="middle" fill="#444">-50</text>
<line x1="226.0" y1="540" x2="226.0" y2="543" stroke="#444"/>
<text x="226.0" y="555" text-anchor="middle" fill="#444">0</text>
<line x1="263.8" y1="540" x2="263.8" y2="543" stroke="#444"/>
<text x="263.8" y="555" text-anchor="middle" fill="#444">50</text>
<line x1="301.5" y1="540" x2="301.5" y2="543" stroke="#444"/>
<text x="301.5" y="555" text-anchor="middle" fill="#444">100</text>
<line x1="339.2" y1="540" x2="339.2" y2="543" stroke="#444"/>
<text x="339.2" y="555" text-anchor="middle" fill="#444">150</text>
<line x1="377.0" y1="540" x2="377.0" y2="543" stroke="#444"/>
<text x="377.0" y="555" text-anchor="middle" fill="#444">200</text>
<line x1="72" y1="540.0" x2="75" y2="540.0" stroke="#444"/>
<text x="69" y="543.0" text-anchor="end" fill="#444">800</text>
<line x1="72" y1="500.0" x2="75" y2="500.0" stroke="#444"/>
<text x="69" y="503.0" text-anchor="end" fill="#444">1081</text>
<line x1="72" y1="460.0" x2="75" y2="460.0" stroke="#444"/>
<text x="69" y="463.0" text-anchor="end" fill="#444">1361</text>
<line x1="72" y1="420.0" x2="75" y2="420.0" stroke="#444"/>
<text x="69" y="423.0" text-anchor="end" fill="#444">1641</text>
<line x1="72" y1="380.0" x2="75" y2="380.0" stroke="#444"/>
<text x="69" y="383.0" text-anchor="end" fill="#444">1922</text>
<text x="226.0" y="574" text-anchor="middle" fill="#444">Signed distance to border (km)</text>
<text x="27" y="460.0" text-anchor="middle" fill="#444" transform="rotate(-90 27 460.0)">Mean rate per 100k</text>
<rect x="425" y="330" width="380" height="260" fill="#fafaf7" stroke="#e2e2dc"/>
<text x="615.0" y="348" text-anchor="middle" font-weight="600">Burglary (per 100k)</text>
<line x1="485" y1="540" x2="787" y2="540" stroke="#444"/>
<line x1="485" y1="380" x2="485" y2="540" stroke="#444"/>
<line x1="485" y1="540.0" x2="787" y2="540.0" stroke="#eeeeee" stroke-width="0.5"/>
<line x1="485" y1="500.0" x2="787" y2="500.0" stroke="#eeeeee" stroke-width="0.5"/>
<line x1="485" y1="460.0" x2="787" y2="460.0" stroke="#eeeeee" stroke-width="0.5"/>
<line x1="485" y1="420.0" x2="787" y2="420.0" stroke="#eeeeee" stroke-width="0.5"/>
<line x1="485" y1="380.0" x2="787" y2="380.0" stroke="#eeeeee" stroke-width="0.5"/>
<line x1="636.0" y1="380" x2="636.0" y2="540" stroke="#b9461a" stroke-dasharray="3 3"/>
<polyline points="494.4,424.4 513.3,466.1 532.2,527.1 551.1,532.2 569.9,532.7 588.8,514.2 607.7,522.5 626.6,387.3 645.4,463.8 664.3,491.8 683.2,501.9 702.1,483.0 720.9,417.1 739.8,453.8 758.7,395.4 777.6,420.2" fill="none" stroke="#1f3a5f" stroke-width="1.6"/>
<circle cx="494.4" cy="424.4" r="2.6" fill="#1f3a5f"/>
<circle cx="513.3" cy="466.1" r="2.6" fill="#1f3a5f"/>
<circle cx="532.2" cy="527.1" r="2.6" fill="#1f3a5f"/>
<circle cx="551.1" cy="532.2" r="2.6" fill="#1f3a5f"/>
<circle cx="569.9" cy="532.7" r="2.6" fill="#1f3a5f"/>
<circle cx="588.8" cy="514.2" r="2.6" fill="#1f3a5f"/>
<circle cx="607.7" cy="522.5" r="2.6" fill="#1f3a5f"/>
<circle cx="626.6" cy="387.3" r="2.6" fill="#1f3a5f"/>
<circle cx="645.4" cy="463.8" r="2.6" fill="#1f3a5f"/>
<circle cx="664.3" cy="491.8" r="2.6" fill="#1f3a5f"/>
<circle cx="683.2" cy="501.9" r="2.6" fill="#1f3a5f"/>
<circle cx="702.1" cy="483.0" r="2.6" fill="#1f3a5f"/>
<circle cx="720.9" cy="417.1" r="2.6" fill="#1f3a5f"/>
<circle cx="739.8" cy="453.8" r="2.6" fill="#1f3a5f"/>
<circle cx="758.7" cy="395.4" r="2.6" fill="#1f3a5f"/>
<circle cx="777.6" cy="420.2" r="2.6" fill="#1f3a5f"/>
<line x1="485.0" y1="540" x2="485.0" y2="543" stroke="#444"/>
<text x="485.0" y="555" text-anchor="middle" fill="#444">-200</text>
<line x1="522.8" y1="540" x2="522.8" y2="543" stroke="#444"/>
<text x="522.8" y="555" text-anchor="middle" fill="#444">-150</text>
<line x1="560.5" y1="540" x2="560.5" y2="543" stroke="#444"/>
<text x="560.5" y="555" text-anchor="middle" fill="#444">-100</text>
<line x1="598.2" y1="540" x2="598.2" y2="543" stroke="#444"/>
<text x="598.2" y="555" text-anchor="middle" fill="#444">-50</text>
<line x1="636.0" y1="540" x2="636.0" y2="543" stroke="#444"/>
<text x="636.0" y="555" text-anchor="middle" fill="#444">0</text>
<line x1="673.8" y1="540" x2="673.8" y2="543" stroke="#444"/>
<text x="673.8" y="555" text-anchor="middle" fill="#444">50</text>
<line x1="711.5" y1="540" x2="711.5" y2="543" stroke="#444"/>
<text x="711.5" y="555" text-anchor="middle" fill="#444">100</text>
<line x1="749.2" y1="540" x2="749.2" y2="543" stroke="#444"/>
<text x="749.2" y="555" text-anchor="middle" fill="#444">150</text>
<line x1="787.0" y1="540" x2="787.0" y2="543" stroke="#444"/>
<text x="787.0" y="555" text-anchor="middle" fill="#444">200</text>
<line x1="482" y1="540.0" x2="485" y2="540.0" stroke="#444"/>
<text x="479" y="543.0" text-anchor="end" fill="#444">130</text>
<line x1="482" y1="500.0" x2="485" y2="500.0" stroke="#444"/>
<text x="479" y="503.0" text-anchor="end" fill="#444">174</text>
<line x1="482" y1="460.0" x2="485" y2="460.0" stroke="#444"/>
<text x="479" y="463.0" text-anchor="end" fill="#444">218</text>
<line x1="482" y1="420.0" x2="485" y2="420.0" stroke="#444"/>
<text x="479" y="423.0" text-anchor="end" fill="#444">262</text>
<line x1="482" y1="380.0" x2="485" y2="380.0" stroke="#444"/>
<text x="479" y="383.0" text-anchor="end" fill="#444">305</text>
<text x="636.0" y="574" text-anchor="middle" fill="#444">Signed distance to border (km)</text>
<text x="437" y="460.0" text-anchor="middle" fill="#444" transform="rotate(-90 437 460.0)">Mean rate per 100k</text>
<text x="805" y="608" text-anchor="end" fill="#888" font-size="10">Negative x = control side, positive x = treated side. Pooled across years where the pair straddled. Bin width 25 km.</text>
</svg>