<svg xmlns="http://www.w3.org/2000/svg" viewBox="0 0 820 620" font-family="-apple-system, Segoe UI, Helvetica, Arial, sans-serif" font-size="11">
<text x="410.0" y="22" text-anchor="middle" font-size="14" font-weight="600">Cross-border outcome means by signed distance (ubc)</text>
<rect x="15" y="40" width="380" height="260" fill="#fafaf7" stroke="#e2e2dc"/>
<text x="205.0" y="58" text-anchor="middle" font-weight="600">Violent crime (per 100k)</text>
<line x1="75" y1="250" x2="377" y2="250" stroke="#444"/>
<line x1="75" y1="90" x2="75" y2="250" stroke="#444"/>
<line x1="75" y1="250.0" x2="377" y2="250.0" stroke="#eeeeee" stroke-width="0.5"/>
<line x1="75" y1="210.0" x2="377" y2="210.0" stroke="#eeeeee" stroke-width="0.5"/>
<line x1="75" y1="170.0" x2="377" y2="170.0" stroke="#eeeeee" stroke-width="0.5"/>
<line x1="75" y1="130.0" x2="377" y2="130.0" stroke="#eeeeee" stroke-width="0.5"/>
<line x1="75" y1="90.0" x2="377" y2="90.0" stroke="#eeeeee" stroke-width="0.5"/>
<line x1="226.0" y1="90" x2="226.0" y2="250" stroke="#b9461a" stroke-dasharray="3 3"/>
<polyline points="84.4,134.2 103.3,97.3 122.2,207.0 141.1,145.5 159.9,203.9 178.8,153.0 197.7,242.7 216.6,160.7 235.4,167.4 254.3,211.5 273.2,210.2 292.1,236.9 310.9,224.6 329.8,234.8 348.7,109.8 367.6,155.1" fill="none" stroke="#1f3a5f" stroke-width="1.6"/>
<circle cx="84.4" cy="134.2" r="2.6" fill="#1f3a5f"/>
<circle cx="103.3" cy="97.3" r="2.6" fill="#1f3a5f"/>
<circle cx="122.2" cy="207.0" r="2.6" fill="#1f3a5f"/>
<circle cx="141.1" cy="145.5" r="2.6" fill="#1f3a5f"/>
<circle cx="159.9" cy="203.9" r="2.6" fill="#1f3a5f"/>
<circle cx="178.8" cy="153.0" r="2.6" fill="#1f3a5f"/>
<circle cx="197.7" cy="242.7" r="2.6" fill="#1f3a5f"/>
<circle cx="216.6" cy="160.7" r="2.6" fill="#1f3a5f"/>
<circle cx="235.4" cy="167.4" r="2.6" fill="#1f3a5f"/>
<circle cx="254.3" cy="211.5" r="2.6" fill="#1f3a5f"/>
<circle cx="273.2" cy="210.2" r="2.6" fill="#1f3a5f"/>
<circle cx="292.1" cy="236.9" r="2.6" fill="#1f3a5f"/>
<circle cx="310.9" cy="224.6" r="2.6" fill="#1f3a5f"/>
<circle cx="329.8" cy="234.8" r="2.6" fill="#1f3a5f"/>
<circle cx="348.7" cy="109.8" r="2.6" fill="#1f3a5f"/>
<circle cx="367.6" cy="155.1" r="2.6" fill="#1f3a5f"/>
<line x1="75.0" y1="250" x2="75.0" y2="253" stroke="#444"/>
<text x="75.0" y="265" text-anchor="middle" fill="#444">-200</text>
<line x1="112.8" y1="250" x2="112.8" y2="253" stroke="#444"/>
<text x="112.8" y="265" text-anchor="middle" fill="#444">-150</text>
<line x1="150.5" y1="250" x2="150.5" y2="253" stroke="#444"/>
<text x="150.5" y="265" text-anchor="middle" fill="#444">-100</text>
<line x1="188.2" y1="250" x2="188.2" y2="253" stroke="#444"/>
<text x="188.2" y="265" text-anchor="middle" fill="#444">-50</text>
<line x1="226.0" y1="250" x2="226.0" y2="253" stroke="#444"/>
<text x="226.0" y="265" text-anchor="middle" fill="#444">0</text>
<line x1="263.8" y1="250" x2="263.8" y2="253" stroke="#444"/>
<text x="263.8" y="265" text-anchor="middle" fill="#444">50</text>
<line x1="301.5" y1="250" x2="301.5" y2="253" stroke="#444"/>
<text x="301.5" y="265" text-anchor="middle" fill="#444">100</text>
<line x1="339.2" y1="250" x2="339.2" y2="253" stroke="#444"/>
<text x="339.2" y="265" text-anchor="middle" fill="#444">150</text>
<line x1="377.0" y1="250" x2="377.0" y2="253" stroke="#444"/>
<text x="377.0" y="265" text-anchor="middle" fill="#444">200</text>
<line x1="72" y1="250.0" x2="75" y2="250.0" stroke="#444"/>
<text x="69" y="253.0" text-anchor="end" fill="#444">195</text>
<line x1="72" y1="210.0" x2="75" y2="210.0" stroke="#444"/>
<text x="69" y="213.0" text-anchor="end" fill="#444">226</text>
<line x1="72" y1="170.0" x2="75" y2="170.0" stroke="#444"/>
<text x="69" y="173.0" text-anchor="end" fill="#444">257</text>
<line x1="72" y1="130.0" x2="75" y2="130.0" stroke="#444"/>
<text x="69" y="133.0" text-anchor="end" fill="#444">289</text>
<line x1="72" y1="90.0" x2="75" y2="90.0" stroke="#444"/>
<text x="69" y="93.0" text-anchor="end" fill="#444">320</text>
<text x="226.0" y="284" text-anchor="middle" fill="#444">Signed distance to border (km)</text>
<text x="27" y="170.0" text-anchor="middle" fill="#444" transform="rotate(-90 27 170.0)">Mean rate per 100k</text>
<rect x="425" y="40" width="380" height="260" fill="#fafaf7" stroke="#e2e2dc"/>
<text x="615.0" y="58" text-anchor="middle" font-weight="600">Murder (per 100k)</text>
<line x1="485" y1="250" x2="787" y2="250" stroke="#444"/>
<line x1="485" y1="90" x2="485" y2="250" stroke="#444"/>
<line x1="485" y1="250.0" x2="787" y2="250.0" stroke="#eeeeee" stroke-width="0.5"/>
<line x1="485" y1="210.0" x2="787" y2="210.0" stroke="#eeeeee" stroke-width="0.5"/>
<line x1="485" y1="170.0" x2="787" y2="170.0" stroke="#eeeeee" stroke-width="0.5"/>
<line x1="485" y1="130.0" x2="787" y2="130.0" stroke="#eeeeee" stroke-width="0.5"/>
<line x1="485" y1="90.0" x2="787" y2="90.0" stroke="#eeeeee" stroke-width="0.5"/>
<line x1="636.0" y1="90" x2="636.0" y2="250" stroke="#b9461a" stroke-dasharray="3 3"/>
<polyline points="494.4,97.3 513.3,148.7 532.2,229.7 551.1,242.7 569.9,157.5 588.8,143.8 607.7,169.6 626.6,125.2 645.4,156.5 664.3,140.6 683.2,132.9 702.1,197.5 720.9,214.8 739.8,208.6 758.7,164.8 777.6,172.5" fill="none" stroke="#1f3a5f" stroke-width="1.6"/>
<circle cx="494.4" cy="97.3" r="2.6" fill="#1f3a5f"/>
<circle cx="513.3" cy="148.7" r="2.6" fill="#1f3a5f"/>
<circle cx="532.2" cy="229.7" r="2.6" fill="#1f3a5f"/>
<circle cx="551.1" cy="242.7" r="2.6" fill="#1f3a5f"/>
<circle cx="569.9" cy="157.5" r="2.6" fill="#1f3a5f"/>
<circle cx="588.8" cy="143.8" r="2.6" fill="#1f3a5f"/>
<circle cx="607.7" cy="169.6" r="2.6" fill="#1f3a5f"/>
<circle cx="626.6" cy="125.2" r="2.6" fill="#1f3a5f"/>
<circle cx="645.4" cy="156.5" r="2.6" fill="#1f3a5f"/>
<circle cx="664.3" cy="140.6" r="2.6" fill="#1f3a5f"/>
<circle cx="683.2" cy="132.9" r="2.6" fill="#1f3a5f"/>
<circle cx="702.1" cy="197.5" r="2.6" fill="#1f3a5f"/>
<circle cx="720.9" cy="214.8" r="2.6" fill="#1f3a5f"/>
<circle cx="739.8" cy="208.6" r="2.6" fill="#1f3a5f"/>
<circle cx="758.7" cy="164.8" r="2.6" fill="#1f3a5f"/>
<circle cx="777.6" cy="172.5" r="2.6" fill="#1f3a5f"/>
<line x1="485.0" y1="250" x2="485.0" y2="253" stroke="#444"/>
<text x="485.0" y="265" text-anchor="middle" fill="#444">-200</text>
<line x1="522.8" y1="250" x2="522.8" y2="253" stroke="#444"/>
<text x="522.8" y="265" text-anchor="middle" fill="#444">-150</text>
<line x1="560.5" y1="250" x2="560.5" y2="253" stroke="#444"/>
<text x="560.5" y="265" text-anchor="middle" fill="#444">-100</text>
<line x1="598.2" y1="250" x2="598.2" y2="253" stroke="#444"/>
<text x="598.2" y="265" text-anchor="middle" fill="#444">-50</text>
<line x1="636.0" y1="250" x2="636.0" y2="253" stroke="#444"/>
<text x="636.0" y="265" text-anchor="middle" fill="#444">0</text>
<line x1="673.8" y1="250" x2="673.8" y2="253" stroke="#444"/>
<text x="673.8" y="265" text-anchor="middle" fill="#444">50</text>
<line x1="711.5" y1="250" x2="711.5" y2="253" stroke="#444"/>
<text x="711.5" y="265" text-anchor="middle" fill="#444">100</text>
<line x1="749.2" y1="250" x2="749.2" y2="253" stroke="#444"/>
<text x="749.2" y="265" text-anchor="middle" fill="#444">150</text>
<line x1="787.0" y1="250" x2="787.0" y2="253" stroke="#444"/>
<text x="787.0" y="265" text-anchor="middle" fill="#444">200</text>
<line x1="482" y1="250.0" x2="485" y2="250.0" stroke="#444"/>
<text x="479" y="253.0" text-anchor="end" fill="#444">2.7</text>
<line x1="482" y1="210.0" x2="485" y2="210.0" stroke="#444"/>
<text x="479" y="213.0" text-anchor="end" fill="#444">3.2</text>
<line x1="482" y1="170.0" x2="485" y2="170.0" stroke="#444"/>
<text x="479" y="173.0" text-anchor="end" fill="#444">3.8</text>
<line x1="482" y1="130.0" x2="485" y2="130.0" stroke="#444"/>
<text x="479" y="133.0" text-anchor="end" fill="#444">4.3</text>
<line x1="482" y1="90.0" x2="485" y2="90.0" stroke="#444"/>
<text x="479" y="93.0" text-anchor="end" fill="#444">4.8</text>
<text x="636.0" y="284" text-anchor="middle" fill="#444">Signed distance to border (km)</text>
<text x="437" y="170.0" text-anchor="middle" fill="#444" transform="rotate(-90 437 170.0)">Mean rate per 100k</text>
<rect x="15" y="330" width="380" height="260" fill="#fafaf7" stroke="#e2e2dc"/>
<text x="205.0" y="348" text-anchor="middle" font-weight="600">Property crime (per 100k)</text>
<line x1="75" y1="540" x2="377" y2="540" stroke="#444"/>
<line x1="75" y1="380" x2="75" y2="540" stroke="#444"/>
<line x1="75" y1="540.0" x2="377" y2="540.0" stroke="#eeeeee" stroke-width="0.5"/>
<line x1="75" y1="500.0" x2="377" y2="500.0" stroke="#eeeeee" stroke-width="0.5"/>
<line x1="75" y1="460.0" x2="377" y2="460.0" stroke="#eeeeee" stroke-width="0.5"/>
<line x1="75" y1="420.0" x2="377" y2="420.0" stroke="#eeeeee" stroke-width="0.5"/>
<line x1="75" y1="380.0" x2="377" y2="380.0" stroke="#eeeeee" stroke-width="0.5"/>
<line x1="226.0" y1="380" x2="226.0" y2="540" stroke="#b9461a" stroke-dasharray="3 3"/>
<polyline points="84.4,502.1 103.3,461.6 122.2,529.9 141.1,387.3 159.9,530.0 178.8,520.6 197.7,532.7 216.6,504.1 235.4,496.3 254.3,484.5 273.2,512.6 292.1,510.1 310.9,500.3 329.8,482.6 348.7,423.9 367.6,474.2" fill="none" stroke="#1f3a5f" stroke-width="1.6"/>
<circle cx="84.4" cy="502.1" r="2.6" fill="#1f3a5f"/>
<circle cx="103.3" cy="461.6" r="2.6" fill="#1f3a5f"/>
<circle cx="122.2" cy="529.9" r="2.6" fill="#1f3a5f"/>
<circle cx="141.1" cy="387.3" r="2.6" fill="#1f3a5f"/>
<circle cx="159.9" cy="530.0" r="2.6" fill="#1f3a5f"/>
<circle cx="178.8" cy="520.6" r="2.6" fill="#1f3a5f"/>
<circle cx="197.7" cy="532.7" r="2.6" fill="#1f3a5f"/>
<circle cx="216.6" cy="504.1" r="2.6" fill="#1f3a5f"/>
<circle cx="235.4" cy="496.3" r="2.6" fill="#1f3a5f"/>
<circle cx="254.3" cy="484.5" r="2.6" fill="#1f3a5f"/>
<circle cx="273.2" cy="512.6" r="2.6" fill="#1f3a5f"/>
<circle cx="292.1" cy="510.1" r="2.6" fill="#1f3a5f"/>
<circle cx="310.9" cy="500.3" r="2.6" fill="#1f3a5f"/>
<circle cx="329.8" cy="482.6" r="2.6" fill="#1f3a5f"/>
<circle cx="348.7" cy="423.9" r="2.6" fill="#1f3a5f"/>
<circle cx="367.6" cy="474.2" r="2.6" fill="#1f3a5f"/>
<line x1="75.0" y1="540" x2="75.0" y2="543" stroke="#444"/>
<text x="75.0" y="555" text-anchor="middle" fill="#444">-200</text>
<line x1="112.8" y1="540" x2="112.8" y2="543" stroke="#444"/>
<text x="112.8" y="555" text-anchor="middle" fill="#444">-150</text>
<line x1="150.5" y1="540" x2="150.5" y2="543" stroke="#444"/>
<text x="150.5" y="555" text-anchor="middle" fill="#444">-100</text>
<line x1="188.2" y1="540" x2="188.2" y2="543" stroke="#444"/>
<text x="188.2" y="555" text-anchor="middle" fill="#444">-50</text>
<line x1="226.0" y1="540" x2="226.0" y2="543" stroke="#444"/>
<text x="226.0" y="555" text-anchor="middle" fill="#444">0</text>
<line x1="263.8" y1="540" x2="263.8" y2="543" stroke="#444"/>
<text x="263.8" y="555" text-anchor="middle" fill="#444">50</text>
<line x1="301.5" y1="540" x2="301.5" y2="543" stroke="#444"/>
<text x="301.5" y="555" text-anchor="middle" fill="#444">100</text>
<line x1="339.2" y1="540" x2="339.2" y2="543" stroke="#444"/>
<text x="339.2" y="555" text-anchor="middle" fill="#444">150</text>
<line x1="377.0" y1="540" x2="377.0" y2="543" stroke="#444"/>
<text x="377.0" y="555" text-anchor="middle" fill="#444">200</text>
<line x1="72" y1="540.0" x2="75" y2="540.0" stroke="#444"/>
<text x="69" y="543.0" text-anchor="end" fill="#444">1102</text>
<line x1="72" y1="500.0" x2="75" y2="500.0" stroke="#444"/>
<text x="69" y="503.0" text-anchor="end" fill="#444">1462</text>
<line x1="72" y1="460.0" x2="75" y2="460.0" stroke="#444"/>
<text x="69" y="463.0" text-anchor="end" fill="#444">1822</text>
<line x1="72" y1="420.0" x2="75" y2="420.0" stroke="#444"/>
<text x="69" y="423.0" text-anchor="end" fill="#444">2182</text>
<line x1="72" y1="380.0" x2="75" y2="380.0" stroke="#444"/>
<text x="69" y="383.0" text-anchor="end" fill="#444">2541</text>
<text x="226.0" y="574" text-anchor="middle" fill="#444">Signed distance to border (km)</text>
<text x="27" y="460.0" text-anchor="middle" fill="#444" transform="rotate(-90 27 460.0)">Mean rate per 100k</text>
<rect x="425" y="330" width="380" height="260" fill="#fafaf7" stroke="#e2e2dc"/>
<text x="615.0" y="348" text-anchor="middle" font-weight="600">Burglary (per 100k)</text>
<line x1="485" y1="540" x2="787" y2="540" stroke="#444"/>
<line x1="485" y1="380" x2="485" y2="540" stroke="#444"/>
<line x1="485" y1="540.0" x2="787" y2="540.0" stroke="#eeeeee" stroke-width="0.5"/>
<line x1="485" y1="500.0" x2="787" y2="500.0" stroke="#eeeeee" stroke-width="0.5"/>
<line x1="485" y1="460.0" x2="787" y2="460.0" stroke="#eeeeee" stroke-width="0.5"/>
<line x1="485" y1="420.0" x2="787" y2="420.0" stroke="#eeeeee" stroke-width="0.5"/>
<line x1="485" y1="380.0" x2="787" y2="380.0" stroke="#eeeeee" stroke-width="0.5"/>
<line x1="636.0" y1="380" x2="636.0" y2="540" stroke="#b9461a" stroke-dasharray="3 3"/>
<polyline points="494.4,394.9 513.3,387.3 532.2,532.7 551.1,435.9 569.9,497.2 588.8,484.5 607.7,524.3 626.6,476.3 645.4,531.5 664.3,505.9 683.2,526.3 702.1,510.1 720.9,464.3 739.8,484.5 758.7,394.5 777.6,409.6" fill="none" stroke="#1f3a5f" stroke-width="1.6"/>
<circle cx="494.4" cy="394.9" r="2.6" fill="#1f3a5f"/>
<circle cx="513.3" cy="387.3" r="2.6" fill="#1f3a5f"/>
<circle cx="532.2" cy="532.7" r="2.6" fill="#1f3a5f"/>
<circle cx="551.1" cy="435.9" r="2.6" fill="#1f3a5f"/>
<circle cx="569.9" cy="497.2" r="2.6" fill="#1f3a5f"/>
<circle cx="588.8" cy="484.5" r="2.6" fill="#1f3a5f"/>
<circle cx="607.7" cy="524.3" r="2.6" fill="#1f3a5f"/>
<circle cx="626.6" cy="476.3" r="2.6" fill="#1f3a5f"/>
<circle cx="645.4" cy="531.5" r="2.6" fill="#1f3a5f"/>
<circle cx="664.3" cy="505.9" r="2.6" fill="#1f3a5f"/>
<circle cx="683.2" cy="526.3" r="2.6" fill="#1f3a5f"/>
<circle cx="702.1" cy="510.1" r="2.6" fill="#1f3a5f"/>
<circle cx="720.9" cy="464.3" r="2.6" fill="#1f3a5f"/>
<circle cx="739.8" cy="484.5" r="2.6" fill="#1f3a5f"/>
<circle cx="758.7" cy="394.5" r="2.6" fill="#1f3a5f"/>
<circle cx="777.6" cy="409.6" r="2.6" fill="#1f3a5f"/>
<line x1="485.0" y1="540" x2="485.0" y2="543" stroke="#444"/>
<text x="485.0" y="555" text-anchor="middle" fill="#444">-200</text>
<line x1="522.8" y1="540" x2="522.8" y2="543" stroke="#444"/>
<text x="522.8" y="555" text-anchor="middle" fill="#444">-150</text>
<line x1="560.5" y1="540" x2="560.5" y2="543" stroke="#444"/>
<text x="560.5" y="555" text-anchor="middle" fill="#444">-100</text>
<line x1="598.2" y1="540" x2="598.2" y2="543" stroke="#444"/>
<text x="598.2" y="555" text-anchor="middle" fill="#444">-50</text>
<line x1="636.0" y1="540" x2="636.0" y2="543" stroke="#444"/>
<text x="636.0" y="555" text-anchor="middle" fill="#444">0</text>
<line x1="673.8" y1="540" x2="673.8" y2="543" stroke="#444"/>
<text x="673.8" y="555" text-anchor="middle" fill="#444">50</text>
<line x1="711.5" y1="540" x2="711.5" y2="543" stroke="#444"/>
<text x="711.5" y="555" text-anchor="middle" fill="#444">100</text>
<line x1="749.2" y1="540" x2="749.2" y2="543" stroke="#444"/>
<text x="749.2" y="555" text-anchor="middle" fill="#444">150</text>
<line x1="787.0" y1="540" x2="787.0" y2="543" stroke="#444"/>
<text x="787.0" y="555" text-anchor="middle" fill="#444">200</text>
<line x1="482" y1="540.0" x2="485" y2="540.0" stroke="#444"/>
<text x="479" y="543.0" text-anchor="end" fill="#444">218</text>
<line x1="482" y1="500.0" x2="485" y2="500.0" stroke="#444"/>
<text x="479" y="503.0" text-anchor="end" fill="#444">267</text>
<line x1="482" y1="460.0" x2="485" y2="460.0" stroke="#444"/>
<text x="479" y="463.0" text-anchor="end" fill="#444">316</text>
<line x1="482" y1="420.0" x2="485" y2="420.0" stroke="#444"/>
<text x="479" y="423.0" text-anchor="end" fill="#444">365</text>
<line x1="482" y1="380.0" x2="485" y2="380.0" stroke="#444"/>
<text x="479" y="383.0" text-anchor="end" fill="#444">414</text>
<text x="636.0" y="574" text-anchor="middle" fill="#444">Signed distance to border (km)</text>
<text x="437" y="460.0" text-anchor="middle" fill="#444" transform="rotate(-90 437 460.0)">Mean rate per 100k</text>
<text x="805" y="608" text-anchor="end" fill="#888" font-size="10">Negative x = control side, positive x = treated side. Pooled across years where the pair straddled. Bin width 25 km.</text>
</svg>