<svg xmlns="http://www.w3.org/2000/svg" viewBox="0 0 820 620" font-family="-apple-system, Segoe UI, Helvetica, Arial, sans-serif" font-size="11">
<text x="410.0" y="22" text-anchor="middle" font-size="14" font-weight="600">Within-pair (treated - control) outcome gap by year (permitless_carry)</text>
<rect x="15" y="40" width="380" height="260" fill="#fafaf7" stroke="#e2e2dc"/>
<text x="205.0" y="58" text-anchor="middle" font-weight="600">Violent crime (per 100k)</text>
<line x1="75" y1="142.6" x2="377" y2="142.6" stroke="#aaaaaa" stroke-width="0.7"/>
<line x1="75" y1="250" x2="377" y2="250" stroke="#444"/>
<line x1="75" y1="90" x2="75" y2="250" stroke="#444"/>
<line x1="75" y1="250.0" x2="377" y2="250.0" stroke="#eeeeee" stroke-width="0.5"/>
<line x1="75" y1="210.0" x2="377" y2="210.0" stroke="#eeeeee" stroke-width="0.5"/>
<line x1="75" y1="170.0" x2="377" y2="170.0" stroke="#eeeeee" stroke-width="0.5"/>
<line x1="75" y1="130.0" x2="377" y2="130.0" stroke="#eeeeee" stroke-width="0.5"/>
<line x1="75" y1="90.0" x2="377" y2="90.0" stroke="#eeeeee" stroke-width="0.5"/>
<line x1="310.9" y1="90" x2="310.9" y2="250" stroke="#b9461a" stroke-dasharray="3 3"/>
<polyline points="84.4,192.8 103.3,139.1 122.2,109.0 141.1,164.0 159.9,185.5 178.8,204.0 197.7,242.7 216.6,231.7 235.4,189.7 254.3,200.5 273.2,213.7 292.1,173.1 310.9,97.3 329.8,165.9 348.7,196.2 367.6,173.6" fill="none" stroke="#1f3a5f" stroke-width="1.6"/>
<circle cx="84.4" cy="192.8" r="2.6" fill="#1f3a5f"/>
<circle cx="103.3" cy="139.1" r="2.6" fill="#1f3a5f"/>
<circle cx="122.2" cy="109.0" r="2.6" fill="#1f3a5f"/>
<circle cx="141.1" cy="164.0" r="2.6" fill="#1f3a5f"/>
<circle cx="159.9" cy="185.5" r="2.6" fill="#1f3a5f"/>
<circle cx="178.8" cy="204.0" r="2.6" fill="#1f3a5f"/>
<circle cx="197.7" cy="242.7" r="2.6" fill="#1f3a5f"/>
<circle cx="216.6" cy="231.7" r="2.6" fill="#1f3a5f"/>
<circle cx="235.4" cy="189.7" r="2.6" fill="#1f3a5f"/>
<circle cx="254.3" cy="200.5" r="2.6" fill="#1f3a5f"/>
<circle cx="273.2" cy="213.7" r="2.6" fill="#1f3a5f"/>
<circle cx="292.1" cy="173.1" r="2.6" fill="#1f3a5f"/>
<circle cx="310.9" cy="97.3" r="2.6" fill="#1f3a5f"/>
<circle cx="329.8" cy="165.9" r="2.6" fill="#1f3a5f"/>
<circle cx="348.7" cy="196.2" r="2.6" fill="#1f3a5f"/>
<circle cx="367.6" cy="173.6" r="2.6" fill="#1f3a5f"/>
<line x1="84.4" y1="250" x2="84.4" y2="253" stroke="#444"/>
<text x="84.4" y="265" text-anchor="middle" fill="#444">2009</text>
<line x1="122.2" y1="250" x2="122.2" y2="253" stroke="#444"/>
<text x="122.2" y="265" text-anchor="middle" fill="#444">2011</text>
<line x1="159.9" y1="250" x2="159.9" y2="253" stroke="#444"/>
<text x="159.9" y="265" text-anchor="middle" fill="#444">2013</text>
<line x1="197.7" y1="250" x2="197.7" y2="253" stroke="#444"/>
<text x="197.7" y="265" text-anchor="middle" fill="#444">2015</text>
<line x1="235.4" y1="250" x2="235.4" y2="253" stroke="#444"/>
<text x="235.4" y="265" text-anchor="middle" fill="#444">2017</text>
<line x1="273.2" y1="250" x2="273.2" y2="253" stroke="#444"/>
<text x="273.2" y="265" text-anchor="middle" fill="#444">2019</text>
<line x1="310.9" y1="250" x2="310.9" y2="253" stroke="#444"/>
<text x="310.9" y="265" text-anchor="middle" fill="#444">2021</text>
<line x1="348.7" y1="250" x2="348.7" y2="253" stroke="#444"/>
<text x="348.7" y="265" text-anchor="middle" fill="#444">2023</text>
<line x1="72" y1="250.0" x2="75" y2="250.0" stroke="#444"/>
<text x="69" y="253.0" text-anchor="end" fill="#444">-80.4</text>
<line x1="72" y1="210.0" x2="75" y2="210.0" stroke="#444"/>
<text x="69" y="213.0" text-anchor="end" fill="#444">-50.5</text>
<line x1="72" y1="170.0" x2="75" y2="170.0" stroke="#444"/>
<text x="69" y="173.0" text-anchor="end" fill="#444">-20.5</text>
<line x1="72" y1="130.0" x2="75" y2="130.0" stroke="#444"/>
<text x="69" y="133.0" text-anchor="end" fill="#444">9.4</text>
<line x1="72" y1="90.0" x2="75" y2="90.0" stroke="#444"/>
<text x="69" y="93.0" text-anchor="end" fill="#444">39.4</text>
<text x="226.0" y="284" text-anchor="middle" fill="#444">Year</text>
<text x="27" y="170.0" text-anchor="middle" fill="#444" transform="rotate(-90 27 170.0)">Mean gap (per 100k)</text>
<rect x="425" y="40" width="380" height="260" fill="#fafaf7" stroke="#e2e2dc"/>
<text x="615.0" y="58" text-anchor="middle" font-weight="600">Murder (per 100k)</text>
<line x1="485" y1="169.5" x2="787" y2="169.5" stroke="#aaaaaa" stroke-width="0.7"/>
<line x1="485" y1="250" x2="787" y2="250" stroke="#444"/>
<line x1="485" y1="90" x2="485" y2="250" stroke="#444"/>
<line x1="485" y1="250.0" x2="787" y2="250.0" stroke="#eeeeee" stroke-width="0.5"/>
<line x1="485" y1="210.0" x2="787" y2="210.0" stroke="#eeeeee" stroke-width="0.5"/>
<line x1="485" y1="170.0" x2="787" y2="170.0" stroke="#eeeeee" stroke-width="0.5"/>
<line x1="485" y1="130.0" x2="787" y2="130.0" stroke="#eeeeee" stroke-width="0.5"/>
<line x1="485" y1="90.0" x2="787" y2="90.0" stroke="#eeeeee" stroke-width="0.5"/>
<line x1="720.9" y1="90" x2="720.9" y2="250" stroke="#b9461a" stroke-dasharray="3 3"/>
<polyline points="494.4,155.5 513.3,97.3 532.2,165.3 551.1,141.8 569.9,146.9 588.8,145.4 607.7,175.1 626.6,179.6 645.4,242.7 664.3,172.8 683.2,175.2 702.1,158.3 720.9,158.9 739.8,202.0 758.7,181.3 777.6,179.7" fill="none" stroke="#1f3a5f" stroke-width="1.6"/>
<circle cx="494.4" cy="155.5" r="2.6" fill="#1f3a5f"/>
<circle cx="513.3" cy="97.3" r="2.6" fill="#1f3a5f"/>
<circle cx="532.2" cy="165.3" r="2.6" fill="#1f3a5f"/>
<circle cx="551.1" cy="141.8" r="2.6" fill="#1f3a5f"/>
<circle cx="569.9" cy="146.9" r="2.6" fill="#1f3a5f"/>
<circle cx="588.8" cy="145.4" r="2.6" fill="#1f3a5f"/>
<circle cx="607.7" cy="175.1" r="2.6" fill="#1f3a5f"/>
<circle cx="626.6" cy="179.6" r="2.6" fill="#1f3a5f"/>
<circle cx="645.4" cy="242.7" r="2.6" fill="#1f3a5f"/>
<circle cx="664.3" cy="172.8" r="2.6" fill="#1f3a5f"/>
<circle cx="683.2" cy="175.2" r="2.6" fill="#1f3a5f"/>
<circle cx="702.1" cy="158.3" r="2.6" fill="#1f3a5f"/>
<circle cx="720.9" cy="158.9" r="2.6" fill="#1f3a5f"/>
<circle cx="739.8" cy="202.0" r="2.6" fill="#1f3a5f"/>
<circle cx="758.7" cy="181.3" r="2.6" fill="#1f3a5f"/>
<circle cx="777.6" cy="179.7" r="2.6" fill="#1f3a5f"/>
<line x1="494.4" y1="250" x2="494.4" y2="253" stroke="#444"/>
<text x="494.4" y="265" text-anchor="middle" fill="#444">2009</text>
<line x1="532.2" y1="250" x2="532.2" y2="253" stroke="#444"/>
<text x="532.2" y="265" text-anchor="middle" fill="#444">2011</text>
<line x1="569.9" y1="250" x2="569.9" y2="253" stroke="#444"/>
<text x="569.9" y="265" text-anchor="middle" fill="#444">2013</text>
<line x1="607.7" y1="250" x2="607.7" y2="253" stroke="#444"/>
<text x="607.7" y="265" text-anchor="middle" fill="#444">2015</text>
<line x1="645.4" y1="250" x2="645.4" y2="253" stroke="#444"/>
<text x="645.4" y="265" text-anchor="middle" fill="#444">2017</text>
<line x1="683.2" y1="250" x2="683.2" y2="253" stroke="#444"/>
<text x="683.2" y="265" text-anchor="middle" fill="#444">2019</text>
<line x1="720.9" y1="250" x2="720.9" y2="253" stroke="#444"/>
<text x="720.9" y="265" text-anchor="middle" fill="#444">2021</text>
<line x1="758.7" y1="250" x2="758.7" y2="253" stroke="#444"/>
<text x="758.7" y="265" text-anchor="middle" fill="#444">2023</text>
<line x1="482" y1="250.0" x2="485" y2="250.0" stroke="#444"/>
<text x="479" y="253.0" text-anchor="end" fill="#444">-3.9</text>
<line x1="482" y1="210.0" x2="485" y2="210.0" stroke="#444"/>
<text x="479" y="213.0" text-anchor="end" fill="#444">-2</text>
<line x1="482" y1="170.0" x2="485" y2="170.0" stroke="#444"/>
<text x="479" y="173.0" text-anchor="end" fill="#444">-0.025</text>
<line x1="482" y1="130.0" x2="485" y2="130.0" stroke="#444"/>
<text x="479" y="133.0" text-anchor="end" fill="#444">1.9</text>
<line x1="482" y1="90.0" x2="485" y2="90.0" stroke="#444"/>
<text x="479" y="93.0" text-anchor="end" fill="#444">3.8</text>
<text x="636.0" y="284" text-anchor="middle" fill="#444">Year</text>
<text x="437" y="170.0" text-anchor="middle" fill="#444" transform="rotate(-90 437 170.0)">Mean gap (per 100k)</text>
<rect x="15" y="330" width="380" height="260" fill="#fafaf7" stroke="#e2e2dc"/>
<text x="205.0" y="348" text-anchor="middle" font-weight="600">Property crime (per 100k)</text>
<line x1="75" y1="458.9" x2="377" y2="458.9" stroke="#aaaaaa" stroke-width="0.7"/>
<line x1="75" y1="540" x2="377" y2="540" stroke="#444"/>
<line x1="75" y1="380" x2="75" y2="540" stroke="#444"/>
<line x1="75" y1="540.0" x2="377" y2="540.0" stroke="#eeeeee" stroke-width="0.5"/>
<line x1="75" y1="500.0" x2="377" y2="500.0" stroke="#eeeeee" stroke-width="0.5"/>
<line x1="75" y1="460.0" x2="377" y2="460.0" stroke="#eeeeee" stroke-width="0.5"/>
<line x1="75" y1="420.0" x2="377" y2="420.0" stroke="#eeeeee" stroke-width="0.5"/>
<line x1="75" y1="380.0" x2="377" y2="380.0" stroke="#eeeeee" stroke-width="0.5"/>
<line x1="310.9" y1="380" x2="310.9" y2="540" stroke="#b9461a" stroke-dasharray="3 3"/>
<polyline points="84.4,431.7 103.3,387.3 122.2,405.9 141.1,405.8 159.9,416.0 178.8,429.4 197.7,532.7 216.6,511.0 235.4,487.2 254.3,497.7 273.2,482.0 292.1,466.5 310.9,459.0 329.8,482.1 348.7,500.1 367.6,481.0" fill="none" stroke="#1f3a5f" stroke-width="1.6"/>
<circle cx="84.4" cy="431.7" r="2.6" fill="#1f3a5f"/>
<circle cx="103.3" cy="387.3" r="2.6" fill="#1f3a5f"/>
<circle cx="122.2" cy="405.9" r="2.6" fill="#1f3a5f"/>
<circle cx="141.1" cy="405.8" r="2.6" fill="#1f3a5f"/>
<circle cx="159.9" cy="416.0" r="2.6" fill="#1f3a5f"/>
<circle cx="178.8" cy="429.4" r="2.6" fill="#1f3a5f"/>
<circle cx="197.7" cy="532.7" r="2.6" fill="#1f3a5f"/>
<circle cx="216.6" cy="511.0" r="2.6" fill="#1f3a5f"/>
<circle cx="235.4" cy="487.2" r="2.6" fill="#1f3a5f"/>
<circle cx="254.3" cy="497.7" r="2.6" fill="#1f3a5f"/>
<circle cx="273.2" cy="482.0" r="2.6" fill="#1f3a5f"/>
<circle cx="292.1" cy="466.5" r="2.6" fill="#1f3a5f"/>
<circle cx="310.9" cy="459.0" r="2.6" fill="#1f3a5f"/>
<circle cx="329.8" cy="482.1" r="2.6" fill="#1f3a5f"/>
<circle cx="348.7" cy="500.1" r="2.6" fill="#1f3a5f"/>
<circle cx="367.6" cy="481.0" r="2.6" fill="#1f3a5f"/>
<line x1="84.4" y1="540" x2="84.4" y2="543" stroke="#444"/>
<text x="84.4" y="555" text-anchor="middle" fill="#444">2009</text>
<line x1="122.2" y1="540" x2="122.2" y2="543" stroke="#444"/>
<text x="122.2" y="555" text-anchor="middle" fill="#444">2011</text>
<line x1="159.9" y1="540" x2="159.9" y2="543" stroke="#444"/>
<text x="159.9" y="555" text-anchor="middle" fill="#444">2013</text>
<line x1="197.7" y1="540" x2="197.7" y2="543" stroke="#444"/>
<text x="197.7" y="555" text-anchor="middle" fill="#444">2015</text>
<line x1="235.4" y1="540" x2="235.4" y2="543" stroke="#444"/>
<text x="235.4" y="555" text-anchor="middle" fill="#444">2017</text>
<line x1="273.2" y1="540" x2="273.2" y2="543" stroke="#444"/>
<text x="273.2" y="555" text-anchor="middle" fill="#444">2019</text>
<line x1="310.9" y1="540" x2="310.9" y2="543" stroke="#444"/>
<text x="310.9" y="555" text-anchor="middle" fill="#444">2021</text>
<line x1="348.7" y1="540" x2="348.7" y2="543" stroke="#444"/>
<text x="348.7" y="555" text-anchor="middle" fill="#444">2023</text>
<line x1="72" y1="540.0" x2="75" y2="540.0" stroke="#444"/>
<text x="69" y="543.0" text-anchor="end" fill="#444">-550</text>
<line x1="72" y1="500.0" x2="75" y2="500.0" stroke="#444"/>
<text x="69" y="503.0" text-anchor="end" fill="#444">-279</text>
<line x1="72" y1="460.0" x2="75" y2="460.0" stroke="#444"/>
<text x="69" y="463.0" text-anchor="end" fill="#444">-7.8</text>
<line x1="72" y1="420.0" x2="75" y2="420.0" stroke="#444"/>
<text x="69" y="423.0" text-anchor="end" fill="#444">263</text>
<line x1="72" y1="380.0" x2="75" y2="380.0" stroke="#444"/>
<text x="69" y="383.0" text-anchor="end" fill="#444">535</text>
<text x="226.0" y="574" text-anchor="middle" fill="#444">Year</text>
<text x="27" y="460.0" text-anchor="middle" fill="#444" transform="rotate(-90 27 460.0)">Mean gap (per 100k)</text>
<rect x="425" y="330" width="380" height="260" fill="#fafaf7" stroke="#e2e2dc"/>
<text x="615.0" y="348" text-anchor="middle" font-weight="600">Burglary (per 100k)</text>
<line x1="485" y1="488.7" x2="787" y2="488.7" stroke="#aaaaaa" stroke-width="0.7"/>
<line x1="485" y1="540" x2="787" y2="540" stroke="#444"/>
<line x1="485" y1="380" x2="485" y2="540" stroke="#444"/>
<line x1="485" y1="540.0" x2="787" y2="540.0" stroke="#eeeeee" stroke-width="0.5"/>
<line x1="485" y1="500.0" x2="787" y2="500.0" stroke="#eeeeee" stroke-width="0.5"/>
<line x1="485" y1="460.0" x2="787" y2="460.0" stroke="#eeeeee" stroke-width="0.5"/>
<line x1="485" y1="420.0" x2="787" y2="420.0" stroke="#eeeeee" stroke-width="0.5"/>
<line x1="485" y1="380.0" x2="787" y2="380.0" stroke="#eeeeee" stroke-width="0.5"/>
<line x1="720.9" y1="380" x2="720.9" y2="540" stroke="#b9461a" stroke-dasharray="3 3"/>
<polyline points="494.4,387.3 513.3,430.0 532.2,457.6 551.1,447.2 569.9,456.1 588.8,467.1 607.7,532.7 626.6,529.8 645.4,515.7 664.3,524.3 683.2,500.1 702.1,479.5 720.9,482.6 739.8,498.7 758.7,516.7 777.6,511.4" fill="none" stroke="#1f3a5f" stroke-width="1.6"/>
<circle cx="494.4" cy="387.3" r="2.6" fill="#1f3a5f"/>
<circle cx="513.3" cy="430.0" r="2.6" fill="#1f3a5f"/>
<circle cx="532.2" cy="457.6" r="2.6" fill="#1f3a5f"/>
<circle cx="551.1" cy="447.2" r="2.6" fill="#1f3a5f"/>
<circle cx="569.9" cy="456.1" r="2.6" fill="#1f3a5f"/>
<circle cx="588.8" cy="467.1" r="2.6" fill="#1f3a5f"/>
<circle cx="607.7" cy="532.7" r="2.6" fill="#1f3a5f"/>
<circle cx="626.6" cy="529.8" r="2.6" fill="#1f3a5f"/>
<circle cx="645.4" cy="515.7" r="2.6" fill="#1f3a5f"/>
<circle cx="664.3" cy="524.3" r="2.6" fill="#1f3a5f"/>
<circle cx="683.2" cy="500.1" r="2.6" fill="#1f3a5f"/>
<circle cx="702.1" cy="479.5" r="2.6" fill="#1f3a5f"/>
<circle cx="720.9" cy="482.6" r="2.6" fill="#1f3a5f"/>
<circle cx="739.8" cy="498.7" r="2.6" fill="#1f3a5f"/>
<circle cx="758.7" cy="516.7" r="2.6" fill="#1f3a5f"/>
<circle cx="777.6" cy="511.4" r="2.6" fill="#1f3a5f"/>
<line x1="494.4" y1="540" x2="494.4" y2="543" stroke="#444"/>
<text x="494.4" y="555" text-anchor="middle" fill="#444">2009</text>
<line x1="532.2" y1="540" x2="532.2" y2="543" stroke="#444"/>
<text x="532.2" y="555" text-anchor="middle" fill="#444">2011</text>
<line x1="569.9" y1="540" x2="569.9" y2="543" stroke="#444"/>
<text x="569.9" y="555" text-anchor="middle" fill="#444">2013</text>
<line x1="607.7" y1="540" x2="607.7" y2="543" stroke="#444"/>
<text x="607.7" y="555" text-anchor="middle" fill="#444">2015</text>
<line x1="645.4" y1="540" x2="645.4" y2="543" stroke="#444"/>
<text x="645.4" y="555" text-anchor="middle" fill="#444">2017</text>
<line x1="683.2" y1="540" x2="683.2" y2="543" stroke="#444"/>
<text x="683.2" y="555" text-anchor="middle" fill="#444">2019</text>
<line x1="720.9" y1="540" x2="720.9" y2="543" stroke="#444"/>
<text x="720.9" y="555" text-anchor="middle" fill="#444">2021</text>
<line x1="758.7" y1="540" x2="758.7" y2="543" stroke="#444"/>
<text x="758.7" y="555" text-anchor="middle" fill="#444">2023</text>
<line x1="482" y1="540.0" x2="485" y2="540.0" stroke="#444"/>
<text x="479" y="543.0" text-anchor="end" fill="#444">-85.6</text>
<line x1="482" y1="500.0" x2="485" y2="500.0" stroke="#444"/>
<text x="479" y="503.0" text-anchor="end" fill="#444">-18.8</text>
<line x1="482" y1="460.0" x2="485" y2="460.0" stroke="#444"/>
<text x="479" y="463.0" text-anchor="end" fill="#444">48.0</text>
<line x1="482" y1="420.0" x2="485" y2="420.0" stroke="#444"/>
<text x="479" y="423.0" text-anchor="end" fill="#444">115</text>
<line x1="482" y1="380.0" x2="485" y2="380.0" stroke="#444"/>
<text x="479" y="383.0" text-anchor="end" fill="#444">182</text>
<text x="636.0" y="574" text-anchor="middle" fill="#444">Year</text>
<text x="437" y="460.0" text-anchor="middle" fill="#444" transform="rotate(-90 437 460.0)">Mean gap (per 100k)</text>
<text x="805" y="608" text-anchor="end" fill="#888" font-size="10">Vertical dashed line at modal cohort year (2021). Gap averaged over state-pairs that ever straddled the policy.</text>
</svg>