<svg xmlns="http://www.w3.org/2000/svg" viewBox="0 0 820 620" font-family="-apple-system, Segoe UI, Helvetica, Arial, sans-serif" font-size="11">
<text x="410.0" y="22" text-anchor="middle" font-size="14" font-weight="600">Within-pair (treated - control) outcome gap by year (red_flag)</text>
<rect x="15" y="40" width="380" height="260" fill="#fafaf7" stroke="#e2e2dc"/>
<text x="205.0" y="58" text-anchor="middle" font-weight="600">Violent crime (per 100k)</text>
<line x1="75" y1="205.5" x2="377" y2="205.5" stroke="#aaaaaa" stroke-width="0.7"/>
<line x1="75" y1="250" x2="377" y2="250" stroke="#444"/>
<line x1="75" y1="90" x2="75" y2="250" stroke="#444"/>
<line x1="75" y1="250.0" x2="377" y2="250.0" stroke="#eeeeee" stroke-width="0.5"/>
<line x1="75" y1="210.0" x2="377" y2="210.0" stroke="#eeeeee" stroke-width="0.5"/>
<line x1="75" y1="170.0" x2="377" y2="170.0" stroke="#eeeeee" stroke-width="0.5"/>
<line x1="75" y1="130.0" x2="377" y2="130.0" stroke="#eeeeee" stroke-width="0.5"/>
<line x1="75" y1="90.0" x2="377" y2="90.0" stroke="#eeeeee" stroke-width="0.5"/>
<line x1="273.2" y1="90" x2="273.2" y2="250" stroke="#b9461a" stroke-dasharray="3 3"/>
<polyline points="216.6,97.3 235.4,99.5 254.3,120.1 273.2,172.5 292.1,179.8 310.9,242.7 329.8,184.6 348.7,167.3 367.6,136.2" fill="none" stroke="#1f3a5f" stroke-width="1.6"/>
<circle cx="216.6" cy="97.3" r="2.6" fill="#1f3a5f"/>
<circle cx="235.4" cy="99.5" r="2.6" fill="#1f3a5f"/>
<circle cx="254.3" cy="120.1" r="2.6" fill="#1f3a5f"/>
<circle cx="273.2" cy="172.5" r="2.6" fill="#1f3a5f"/>
<circle cx="292.1" cy="179.8" r="2.6" fill="#1f3a5f"/>
<circle cx="310.9" cy="242.7" r="2.6" fill="#1f3a5f"/>
<circle cx="329.8" cy="184.6" r="2.6" fill="#1f3a5f"/>
<circle cx="348.7" cy="167.3" r="2.6" fill="#1f3a5f"/>
<circle cx="367.6" cy="136.2" r="2.6" fill="#1f3a5f"/>
<line x1="84.4" y1="250" x2="84.4" y2="253" stroke="#444"/>
<text x="84.4" y="265" text-anchor="middle" fill="#444">2009</text>
<line x1="122.2" y1="250" x2="122.2" y2="253" stroke="#444"/>
<text x="122.2" y="265" text-anchor="middle" fill="#444">2011</text>
<line x1="159.9" y1="250" x2="159.9" y2="253" stroke="#444"/>
<text x="159.9" y="265" text-anchor="middle" fill="#444">2013</text>
<line x1="197.7" y1="250" x2="197.7" y2="253" stroke="#444"/>
<text x="197.7" y="265" text-anchor="middle" fill="#444">2015</text>
<line x1="235.4" y1="250" x2="235.4" y2="253" stroke="#444"/>
<text x="235.4" y="265" text-anchor="middle" fill="#444">2017</text>
<line x1="273.2" y1="250" x2="273.2" y2="253" stroke="#444"/>
<text x="273.2" y="265" text-anchor="middle" fill="#444">2019</text>
<line x1="310.9" y1="250" x2="310.9" y2="253" stroke="#444"/>
<text x="310.9" y="265" text-anchor="middle" fill="#444">2021</text>
<line x1="348.7" y1="250" x2="348.7" y2="253" stroke="#444"/>
<text x="348.7" y="265" text-anchor="middle" fill="#444">2023</text>
<line x1="72" y1="250.0" x2="75" y2="250.0" stroke="#444"/>
<text x="69" y="253.0" text-anchor="end" fill="#444">-27.1</text>
<line x1="72" y1="210.0" x2="75" y2="210.0" stroke="#444"/>
<text x="69" y="213.0" text-anchor="end" fill="#444">-2.8</text>
<line x1="72" y1="170.0" x2="75" y2="170.0" stroke="#444"/>
<text x="69" y="173.0" text-anchor="end" fill="#444">21.6</text>
<line x1="72" y1="130.0" x2="75" y2="130.0" stroke="#444"/>
<text x="69" y="133.0" text-anchor="end" fill="#444">45.9</text>
<line x1="72" y1="90.0" x2="75" y2="90.0" stroke="#444"/>
<text x="69" y="93.0" text-anchor="end" fill="#444">70.2</text>
<text x="226.0" y="284" text-anchor="middle" fill="#444">Year</text>
<text x="27" y="170.0" text-anchor="middle" fill="#444" transform="rotate(-90 27 170.0)">Mean gap (per 100k)</text>
<rect x="425" y="40" width="380" height="260" fill="#fafaf7" stroke="#e2e2dc"/>
<text x="615.0" y="58" text-anchor="middle" font-weight="600">Murder (per 100k)</text>
<line x1="485" y1="125.2" x2="787" y2="125.2" stroke="#aaaaaa" stroke-width="0.7"/>
<line x1="485" y1="250" x2="787" y2="250" stroke="#444"/>
<line x1="485" y1="90" x2="485" y2="250" stroke="#444"/>
<line x1="485" y1="250.0" x2="787" y2="250.0" stroke="#eeeeee" stroke-width="0.5"/>
<line x1="485" y1="210.0" x2="787" y2="210.0" stroke="#eeeeee" stroke-width="0.5"/>
<line x1="485" y1="170.0" x2="787" y2="170.0" stroke="#eeeeee" stroke-width="0.5"/>
<line x1="485" y1="130.0" x2="787" y2="130.0" stroke="#eeeeee" stroke-width="0.5"/>
<line x1="485" y1="90.0" x2="787" y2="90.0" stroke="#eeeeee" stroke-width="0.5"/>
<line x1="683.2" y1="90" x2="683.2" y2="250" stroke="#b9461a" stroke-dasharray="3 3"/>
<polyline points="626.6,242.7 645.4,102.3 664.3,159.5 683.2,136.1 702.1,140.3 720.9,191.3 739.8,97.3 758.7,118.9 777.6,102.1" fill="none" stroke="#1f3a5f" stroke-width="1.6"/>
<circle cx="626.6" cy="242.7" r="2.6" fill="#1f3a5f"/>
<circle cx="645.4" cy="102.3" r="2.6" fill="#1f3a5f"/>
<circle cx="664.3" cy="159.5" r="2.6" fill="#1f3a5f"/>
<circle cx="683.2" cy="136.1" r="2.6" fill="#1f3a5f"/>
<circle cx="702.1" cy="140.3" r="2.6" fill="#1f3a5f"/>
<circle cx="720.9" cy="191.3" r="2.6" fill="#1f3a5f"/>
<circle cx="739.8" cy="97.3" r="2.6" fill="#1f3a5f"/>
<circle cx="758.7" cy="118.9" r="2.6" fill="#1f3a5f"/>
<circle cx="777.6" cy="102.1" r="2.6" fill="#1f3a5f"/>
<line x1="494.4" y1="250" x2="494.4" y2="253" stroke="#444"/>
<text x="494.4" y="265" text-anchor="middle" fill="#444">2009</text>
<line x1="532.2" y1="250" x2="532.2" y2="253" stroke="#444"/>
<text x="532.2" y="265" text-anchor="middle" fill="#444">2011</text>
<line x1="569.9" y1="250" x2="569.9" y2="253" stroke="#444"/>
<text x="569.9" y="265" text-anchor="middle" fill="#444">2013</text>
<line x1="607.7" y1="250" x2="607.7" y2="253" stroke="#444"/>
<text x="607.7" y="265" text-anchor="middle" fill="#444">2015</text>
<line x1="645.4" y1="250" x2="645.4" y2="253" stroke="#444"/>
<text x="645.4" y="265" text-anchor="middle" fill="#444">2017</text>
<line x1="683.2" y1="250" x2="683.2" y2="253" stroke="#444"/>
<text x="683.2" y="265" text-anchor="middle" fill="#444">2019</text>
<line x1="720.9" y1="250" x2="720.9" y2="253" stroke="#444"/>
<text x="720.9" y="265" text-anchor="middle" fill="#444">2021</text>
<line x1="758.7" y1="250" x2="758.7" y2="253" stroke="#444"/>
<text x="758.7" y="265" text-anchor="middle" fill="#444">2023</text>
<line x1="482" y1="250.0" x2="485" y2="250.0" stroke="#444"/>
<text x="479" y="253.0" text-anchor="end" fill="#444">-2.6</text>
<line x1="482" y1="210.0" x2="485" y2="210.0" stroke="#444"/>
<text x="479" y="213.0" text-anchor="end" fill="#444">-1.8</text>
<line x1="482" y1="170.0" x2="485" y2="170.0" stroke="#444"/>
<text x="479" y="173.0" text-anchor="end" fill="#444">-0.93</text>
<line x1="482" y1="130.0" x2="485" y2="130.0" stroke="#444"/>
<text x="479" y="133.0" text-anchor="end" fill="#444">-0.099</text>
<line x1="482" y1="90.0" x2="485" y2="90.0" stroke="#444"/>
<text x="479" y="93.0" text-anchor="end" fill="#444">0.73</text>
<text x="636.0" y="284" text-anchor="middle" fill="#444">Year</text>
<text x="437" y="170.0" text-anchor="middle" fill="#444" transform="rotate(-90 437 170.0)">Mean gap (per 100k)</text>
<rect x="15" y="330" width="380" height="260" fill="#fafaf7" stroke="#e2e2dc"/>
<text x="205.0" y="348" text-anchor="middle" font-weight="600">Property crime (per 100k)</text>
<line x1="75" y1="522.8" x2="377" y2="522.8" stroke="#aaaaaa" stroke-width="0.7"/>
<line x1="75" y1="540" x2="377" y2="540" stroke="#444"/>
<line x1="75" y1="380" x2="75" y2="540" stroke="#444"/>
<line x1="75" y1="540.0" x2="377" y2="540.0" stroke="#eeeeee" stroke-width="0.5"/>
<line x1="75" y1="500.0" x2="377" y2="500.0" stroke="#eeeeee" stroke-width="0.5"/>
<line x1="75" y1="460.0" x2="377" y2="460.0" stroke="#eeeeee" stroke-width="0.5"/>
<line x1="75" y1="420.0" x2="377" y2="420.0" stroke="#eeeeee" stroke-width="0.5"/>
<line x1="75" y1="380.0" x2="377" y2="380.0" stroke="#eeeeee" stroke-width="0.5"/>
<line x1="273.2" y1="380" x2="273.2" y2="540" stroke="#b9461a" stroke-dasharray="3 3"/>
<polyline points="216.6,387.3 235.4,456.2 254.3,433.9 273.2,452.2 292.1,475.3 310.9,532.7 329.8,480.8 348.7,469.7 367.6,490.0" fill="none" stroke="#1f3a5f" stroke-width="1.6"/>
<circle cx="216.6" cy="387.3" r="2.6" fill="#1f3a5f"/>
<circle cx="235.4" cy="456.2" r="2.6" fill="#1f3a5f"/>
<circle cx="254.3" cy="433.9" r="2.6" fill="#1f3a5f"/>
<circle cx="273.2" cy="452.2" r="2.6" fill="#1f3a5f"/>
<circle cx="292.1" cy="475.3" r="2.6" fill="#1f3a5f"/>
<circle cx="310.9" cy="532.7" r="2.6" fill="#1f3a5f"/>
<circle cx="329.8" cy="480.8" r="2.6" fill="#1f3a5f"/>
<circle cx="348.7" cy="469.7" r="2.6" fill="#1f3a5f"/>
<circle cx="367.6" cy="490.0" r="2.6" fill="#1f3a5f"/>
<line x1="84.4" y1="540" x2="84.4" y2="543" stroke="#444"/>
<text x="84.4" y="555" text-anchor="middle" fill="#444">2009</text>
<line x1="122.2" y1="540" x2="122.2" y2="543" stroke="#444"/>
<text x="122.2" y="555" text-anchor="middle" fill="#444">2011</text>
<line x1="159.9" y1="540" x2="159.9" y2="543" stroke="#444"/>
<text x="159.9" y="555" text-anchor="middle" fill="#444">2013</text>
<line x1="197.7" y1="540" x2="197.7" y2="543" stroke="#444"/>
<text x="197.7" y="555" text-anchor="middle" fill="#444">2015</text>
<line x1="235.4" y1="540" x2="235.4" y2="543" stroke="#444"/>
<text x="235.4" y="555" text-anchor="middle" fill="#444">2017</text>
<line x1="273.2" y1="540" x2="273.2" y2="543" stroke="#444"/>
<text x="273.2" y="555" text-anchor="middle" fill="#444">2019</text>
<line x1="310.9" y1="540" x2="310.9" y2="543" stroke="#444"/>
<text x="310.9" y="555" text-anchor="middle" fill="#444">2021</text>
<line x1="348.7" y1="540" x2="348.7" y2="543" stroke="#444"/>
<text x="348.7" y="555" text-anchor="middle" fill="#444">2023</text>
<line x1="72" y1="540.0" x2="75" y2="540.0" stroke="#444"/>
<text x="69" y="543.0" text-anchor="end" fill="#444">-53.7</text>
<line x1="72" y1="500.0" x2="75" y2="500.0" stroke="#444"/>
<text x="69" y="503.0" text-anchor="end" fill="#444">71.2</text>
<line x1="72" y1="460.0" x2="75" y2="460.0" stroke="#444"/>
<text x="69" y="463.0" text-anchor="end" fill="#444">196</text>
<line x1="72" y1="420.0" x2="75" y2="420.0" stroke="#444"/>
<text x="69" y="423.0" text-anchor="end" fill="#444">321</text>
<line x1="72" y1="380.0" x2="75" y2="380.0" stroke="#444"/>
<text x="69" y="383.0" text-anchor="end" fill="#444">446</text>
<text x="226.0" y="574" text-anchor="middle" fill="#444">Year</text>
<text x="27" y="460.0" text-anchor="middle" fill="#444" transform="rotate(-90 27 460.0)">Mean gap (per 100k)</text>
<rect x="425" y="330" width="380" height="260" fill="#fafaf7" stroke="#e2e2dc"/>
<text x="615.0" y="348" text-anchor="middle" font-weight="600">Burglary (per 100k)</text>
<line x1="485" y1="526.1" x2="787" y2="526.1" stroke="#aaaaaa" stroke-width="0.7"/>
<line x1="485" y1="540" x2="787" y2="540" stroke="#444"/>
<line x1="485" y1="380" x2="485" y2="540" stroke="#444"/>
<line x1="485" y1="540.0" x2="787" y2="540.0" stroke="#eeeeee" stroke-width="0.5"/>
<line x1="485" y1="500.0" x2="787" y2="500.0" stroke="#eeeeee" stroke-width="0.5"/>
<line x1="485" y1="460.0" x2="787" y2="460.0" stroke="#eeeeee" stroke-width="0.5"/>
<line x1="485" y1="420.0" x2="787" y2="420.0" stroke="#eeeeee" stroke-width="0.5"/>
<line x1="485" y1="380.0" x2="787" y2="380.0" stroke="#eeeeee" stroke-width="0.5"/>
<line x1="683.2" y1="380" x2="683.2" y2="540" stroke="#b9461a" stroke-dasharray="3 3"/>
<polyline points="626.6,387.3 645.4,482.0 664.3,463.4 683.2,477.1 702.1,486.7 720.9,532.7 739.8,474.7 758.7,486.3 777.6,483.0" fill="none" stroke="#1f3a5f" stroke-width="1.6"/>
<circle cx="626.6" cy="387.3" r="2.6" fill="#1f3a5f"/>
<circle cx="645.4" cy="482.0" r="2.6" fill="#1f3a5f"/>
<circle cx="664.3" cy="463.4" r="2.6" fill="#1f3a5f"/>
<circle cx="683.2" cy="477.1" r="2.6" fill="#1f3a5f"/>
<circle cx="702.1" cy="486.7" r="2.6" fill="#1f3a5f"/>
<circle cx="720.9" cy="532.7" r="2.6" fill="#1f3a5f"/>
<circle cx="739.8" cy="474.7" r="2.6" fill="#1f3a5f"/>
<circle cx="758.7" cy="486.3" r="2.6" fill="#1f3a5f"/>
<circle cx="777.6" cy="483.0" r="2.6" fill="#1f3a5f"/>
<line x1="494.4" y1="540" x2="494.4" y2="543" stroke="#444"/>
<text x="494.4" y="555" text-anchor="middle" fill="#444">2009</text>
<line x1="532.2" y1="540" x2="532.2" y2="543" stroke="#444"/>
<text x="532.2" y="555" text-anchor="middle" fill="#444">2011</text>
<line x1="569.9" y1="540" x2="569.9" y2="543" stroke="#444"/>
<text x="569.9" y="555" text-anchor="middle" fill="#444">2013</text>
<line x1="607.7" y1="540" x2="607.7" y2="543" stroke="#444"/>
<text x="607.7" y="555" text-anchor="middle" fill="#444">2015</text>
<line x1="645.4" y1="540" x2="645.4" y2="543" stroke="#444"/>
<text x="645.4" y="555" text-anchor="middle" fill="#444">2017</text>
<line x1="683.2" y1="540" x2="683.2" y2="543" stroke="#444"/>
<text x="683.2" y="555" text-anchor="middle" fill="#444">2019</text>
<line x1="720.9" y1="540" x2="720.9" y2="543" stroke="#444"/>
<text x="720.9" y="555" text-anchor="middle" fill="#444">2021</text>
<line x1="758.7" y1="540" x2="758.7" y2="543" stroke="#444"/>
<text x="758.7" y="555" text-anchor="middle" fill="#444">2023</text>
<line x1="482" y1="540.0" x2="485" y2="540.0" stroke="#444"/>
<text x="479" y="543.0" text-anchor="end" fill="#444">-12.2</text>
<line x1="482" y1="500.0" x2="485" y2="500.0" stroke="#444"/>
<text x="479" y="503.0" text-anchor="end" fill="#444">22.8</text>
<line x1="482" y1="460.0" x2="485" y2="460.0" stroke="#444"/>
<text x="479" y="463.0" text-anchor="end" fill="#444">57.8</text>
<line x1="482" y1="420.0" x2="485" y2="420.0" stroke="#444"/>
<text x="479" y="423.0" text-anchor="end" fill="#444">92.9</text>
<line x1="482" y1="380.0" x2="485" y2="380.0" stroke="#444"/>
<text x="479" y="383.0" text-anchor="end" fill="#444">128</text>
<text x="636.0" y="574" text-anchor="middle" fill="#444">Year</text>
<text x="437" y="460.0" text-anchor="middle" fill="#444" transform="rotate(-90 437 460.0)">Mean gap (per 100k)</text>
<text x="805" y="608" text-anchor="end" fill="#888" font-size="10">Vertical dashed line at modal cohort year (2019). Gap averaged over state-pairs that ever straddled the policy.</text>
</svg>