<svg xmlns="http://www.w3.org/2000/svg" viewBox="0 0 720 380" font-family="-apple-system, Segoe UI, Helvetica, Arial, sans-serif" font-size="12">
<rect x="0" y="0" width="720" height="380" fill="#fafaf7"/>
<text x="360.0" y="22" text-anchor="middle" font-size="14" font-weight="600">West Virginia (2010): Firearm homicide rate (per 100k)</text>
<polyline points="60.0,261.2 85.8,284.4 111.7,266.5 137.5,265.1 163.3,253.8 189.2,278.0 215.0,270.7 240.8,263.5 266.7,270.2 292.5,289.1 318.3,286.0 344.2,262.9 370.0,283.4 395.8,287.4 421.7,284.0 447.5,280.6 473.3,244.1 499.2,239.2 525.0,237.3 550.8,252.7 576.7,227.6 602.5,269.8 628.3,263.0 654.2,245.4 680.0,235.2" fill="none" stroke="#bbb" stroke-width="0.6" opacity="0.6"/>
<polyline points="60.0,231.7 85.8,232.2 111.7,230.4 137.5,233.7 163.3,225.7 189.2,243.1 215.0,227.5 240.8,224.1 266.7,212.2 292.5,220.9 318.3,230.6 344.2,241.1 370.0,239.0 395.8,235.6 421.7,232.9 447.5,239.8 473.3,213.7 499.2,197.1 525.0,183.7 550.8,194.1 576.7,189.7 602.5,169.8 628.3,151.6 654.2,159.1 680.0,158.1" fill="none" stroke="#bbb" stroke-width="0.6" opacity="0.6"/>
<polyline points="60.0,259.8 85.8,249.9 111.7,264.8 137.5,248.2 163.3,259.6 189.2,251.7 215.0,246.2 240.8,246.3 266.7,247.8 292.5,251.9 318.3,247.4 344.2,259.0 370.0,253.8 395.8,244.8 421.7,251.2 447.5,247.4 473.3,250.3 499.2,238.9 525.0,235.0 550.8,234.4 576.7,228.6 602.5,197.5 628.3,197.8 654.2,194.8 680.0,206.2" fill="none" stroke="#bbb" stroke-width="0.6" opacity="0.6"/>
<polyline points="60.0,239.0 85.8,248.6 111.7,236.7 137.5,233.9 163.3,243.5 189.2,241.7 215.0,236.3 240.8,236.5 266.7,245.4 292.5,251.4 318.3,272.8 344.2,262.7 370.0,265.9 395.8,267.4 421.7,268.5 447.5,276.7 473.3,272.8 499.2,261.0 525.0,261.5 550.8,264.7 576.7,266.9 602.5,251.0 628.3,241.2 654.2,231.8 680.0,246.7" fill="none" stroke="#bbb" stroke-width="0.6" opacity="0.6"/>
<polyline points="60.0,247.0 85.8,247.8 111.7,247.6 137.5,245.7 163.3,245.0 189.2,257.2 215.0,255.7 240.8,249.2 266.7,242.2 292.5,248.9 318.3,257.6 344.2,258.4 370.0,259.7 395.8,254.9 421.7,256.5 447.5,252.8 473.3,243.7 499.2,235.8 525.0,235.1 550.8,238.5 576.7,233.5 602.5,209.3 628.3,195.5 654.2,195.7 680.0,213.5" fill="none" stroke="#bbb" stroke-width="0.6" opacity="0.6"/>
<polyline points="60.0,301.0 85.8,303.4 111.7,293.0 137.5,303.0 163.3,299.6 189.2,302.7 215.0,292.2 240.8,296.2 266.7,292.4 292.5,306.3 318.3,308.9 344.2,307.4 370.0,304.3 395.8,302.8 421.7,306.1 447.5,300.7 473.3,300.2 499.2,305.8 525.0,297.0 550.8,294.5 576.7,304.3 602.5,299.0 628.3,298.4 654.2,292.1 680.0,295.7" fill="none" stroke="#bbb" stroke-width="0.6" opacity="0.6"/>
<polyline points="60.0,245.3 85.8,247.4 111.7,240.3 137.5,242.7 163.3,246.3 189.2,259.2 215.0,259.9 240.8,254.6 266.7,259.7 292.5,254.3 318.3,254.7 344.2,259.4 370.0,256.3 395.8,252.8 421.7,259.7 447.5,255.9 473.3,248.0 499.2,222.4 525.0,223.4 550.8,238.1 576.7,236.9 602.5,198.0 628.3,186.4 654.2,206.0 680.0,219.4" fill="none" stroke="#bbb" stroke-width="0.6" opacity="0.6"/>
<polyline points="60.0,259.4 85.8,271.1 111.7,256.3 137.5,266.7 163.3,266.0 189.2,271.0 215.0,264.6 240.8,263.5 266.7,266.4 292.5,269.9 318.3,268.2 344.2,273.0 370.0,277.4 395.8,267.9 421.7,258.9 447.5,266.8 473.3,260.1 499.2,245.9 525.0,245.7 550.8,247.3 576.7,249.4 602.5,222.8 628.3,219.7 654.2,229.3 680.0,235.7" fill="none" stroke="#bbb" stroke-width="0.6" opacity="0.6"/>
<polyline points="60.0,274.8 85.8,268.9 111.7,273.9 137.5,282.2 163.3,280.5 189.2,277.3 215.0,288.7 240.8,283.3 266.7,284.4 292.5,281.9 318.3,275.3 344.2,286.6 370.0,281.0 395.8,287.4 421.7,282.1 447.5,284.9 473.3,275.3 499.2,267.3 525.0,256.8 550.8,262.9 576.7,273.5 602.5,246.6 628.3,253.8 654.2,261.6 680.0,256.7" fill="none" stroke="#bbb" stroke-width="0.6" opacity="0.6"/>
<polyline points="60.0,271.7 85.8,274.9 111.7,273.6 137.5,277.4 163.3,281.4 189.2,270.2 215.0,270.5 240.8,283.3 266.7,271.2 292.5,269.0 318.3,277.6 344.2,280.2 370.0,278.1 395.8,270.6 421.7,276.9 447.5,277.0 473.3,266.7 499.2,249.4 525.0,251.4 550.8,257.7 576.7,259.4 602.5,219.3 628.3,213.4 654.2,236.7 680.0,243.8" fill="none" stroke="#bbb" stroke-width="0.6" opacity="0.6"/>
<polyline points="60.0,218.2 85.8,194.3 111.7,201.3 137.5,181.0 163.3,178.3 189.2,175.2 215.0,181.1 240.8,184.3 266.7,171.0 292.5,191.8 318.3,188.7 344.2,194.7 370.0,196.0 395.8,197.6 421.7,193.2 447.5,200.8 473.3,191.6 499.2,172.7 525.0,170.6 550.8,180.0 576.7,167.2 602.5,110.3 628.3,93.7 654.2,110.0 680.0,110.3" fill="none" stroke="#bbb" stroke-width="0.6" opacity="0.6"/>
<polyline points="60.0,302.1 85.8,306.2 111.7,310.3 137.5,309.3 163.3,311.3 189.2,306.4 215.0,309.4 240.8,302.7 266.7,302.6 292.5,305.5 318.3,302.6 344.2,304.7 370.0,302.7 395.8,302.8 421.7,304.7 447.5,307.6 473.3,303.7 499.2,309.5 525.0,307.6 550.8,308.6 576.7,304.8 602.5,303.0 628.3,306.1 654.2,299.7 680.0,284.2" fill="none" stroke="#bbb" stroke-width="0.6" opacity="0.6"/>
<polyline points="60.0,250.0 85.8,252.0 111.7,252.8 137.5,254.3 163.3,256.0 189.2,254.7 215.0,254.5 240.8,249.0 266.7,252.6 292.5,254.4 318.3,253.4 344.2,260.0 370.0,250.7 395.8,241.9 421.7,253.2 447.5,263.9 473.3,260.7 499.2,254.8 525.0,260.7 550.8,255.6 576.7,258.3 602.5,230.5 628.3,227.4 654.2,235.3 680.0,251.2" fill="none" stroke="#bbb" stroke-width="0.6" opacity="0.6"/>
<polyline points="60.0,303.0 85.8,297.1 111.7,299.6 137.5,303.1 163.3,298.1 189.2,295.8 215.0,295.2 240.8,297.8 266.7,299.9 292.5,299.8 318.3,306.0 344.2,301.5 370.0,303.1 395.8,302.7 421.7,299.2 447.5,303.4 473.3,295.7 499.2,297.9 525.0,299.3 550.8,302.1 576.7,294.0 602.5,285.9 628.3,280.4 654.2,285.1 680.0,288.6" fill="none" stroke="#bbb" stroke-width="0.6" opacity="0.6"/>
<polyline points="60.0,219.5 85.8,220.5 111.7,216.3 137.5,223.9 163.3,227.4 189.2,227.3 215.0,239.6 240.8,219.1 266.7,220.7 292.5,210.0 318.3,231.4 344.2,228.4 370.0,221.8 395.8,224.2 421.7,224.8 447.5,206.0 473.3,203.7 499.2,195.9 525.0,190.1 550.8,179.4 576.7,159.0 602.5,100.8 628.3,62.7 654.2,93.8 680.0,101.7" fill="none" stroke="#bbb" stroke-width="0.6" opacity="0.6"/>
<polyline points="60.0,292.7 85.8,293.0 111.7,289.0 137.5,304.6 163.3,289.4 189.2,300.7 215.0,293.9 240.8,302.3 266.7,297.1 292.5,296.0 318.3,289.6 344.2,295.2 370.0,303.1 395.8,304.5 421.7,299.5 447.5,299.7 473.3,292.4 499.2,295.1 525.0,291.5 550.8,293.0 576.7,288.4 602.5,278.0 628.3,282.4 654.2,272.5 680.0,283.1" fill="none" stroke="#bbb" stroke-width="0.6" opacity="0.6"/>
<polyline points="60.0,242.6 85.8,244.1 111.7,251.5 137.5,245.0 163.3,257.0 189.2,255.7 215.0,250.7 240.8,253.5 266.7,252.2 292.5,252.1 318.3,261.4 344.2,266.5 370.0,266.6 395.8,261.6 421.7,263.4 447.5,266.7 473.3,261.2 499.2,246.5 525.0,251.9 550.8,256.7 576.7,250.9 602.5,227.0 628.3,213.7 654.2,223.4 680.0,231.3" fill="none" stroke="#bbb" stroke-width="0.6" opacity="0.6"/>
<polyline points="60.0,303.2 85.8,307.3 111.7,307.2 137.5,311.2 163.3,293.1 189.2,305.2 215.0,311.2 240.8,315.2 266.7,307.2 292.5,317.3 318.3,307.3 344.2,302.0 370.0,302.2 395.8,302.6 421.7,306.6 447.5,306.8 473.3,298.6 499.2,300.3 525.0,303.6 550.8,295.3 576.7,300.4 602.5,288.7 628.3,284.2 654.2,289.3 680.0,289.5" fill="none" stroke="#bbb" stroke-width="0.6" opacity="0.6"/>
<polyline points="60.0,251.8 85.8,247.2 111.7,270.5 137.5,261.4 163.3,257.9 189.2,262.7 215.0,266.0 240.8,269.2 266.7,266.3 292.5,261.5 318.3,258.4 344.2,269.8 370.0,272.2 395.8,267.9 421.7,266.7 447.5,270.4 473.3,261.1 499.2,247.4 525.0,255.0 550.8,233.8 576.7,220.3 602.5,226.2 628.3,177.5 654.2,184.6 680.0,185.0" fill="none" stroke="#bbb" stroke-width="0.6" opacity="0.6"/>
<polyline points="60.0,250.2 85.8,260.0 111.7,249.9 137.5,249.5 163.3,252.0 189.2,249.3 215.0,255.9 240.8,249.7 266.7,251.6 292.5,267.8 318.3,270.0 344.2,274.4 370.0,277.6 395.8,281.4 421.7,276.7 447.5,269.2 473.3,260.3 499.2,252.1 525.0,251.6 550.8,250.3 576.7,268.0 602.5,256.6 628.3,235.9 654.2,244.3 680.0,243.2" fill="none" stroke="#bbb" stroke-width="0.6" opacity="0.6"/>
<polyline points="60.0,260.8 85.8,274.4 111.7,270.6 137.5,275.7 163.3,266.4 189.2,272.2 215.0,268.1 240.8,262.6 266.7,263.6 292.5,265.3 318.3,265.6 344.2,272.3 370.0,260.9 395.8,253.9 421.7,257.8 447.5,265.2 473.3,244.6 499.2,239.2 525.0,242.6 550.8,256.9 576.7,237.3 602.5,230.3 628.3,234.4 654.2,240.6 680.0,247.3" fill="none" stroke="#bbb" stroke-width="0.6" opacity="0.6"/>
<polyline points="60.0,294.3 85.8,294.0 111.7,299.8 137.5,293.8 163.3,298.5 189.2,294.1 215.0,298.3 240.8,295.4 266.7,302.5 292.5,300.6 318.3,298.8 344.2,297.1 370.0,296.7 395.8,299.8 421.7,299.6 447.5,300.1 473.3,287.3 499.2,292.8 525.0,294.6 550.8,296.7 576.7,293.5 602.5,284.2 628.3,273.1 654.2,270.3 680.0,276.7" fill="none" stroke="#bbb" stroke-width="0.6" opacity="0.6"/>
<polyline points="60.0,272.3 85.8,271.3 111.7,270.9 137.5,269.7 163.3,268.7 189.2,264.9 215.0,261.8 240.8,255.9 266.7,259.9 292.5,263.1 318.3,268.0 344.2,266.5 370.0,265.6 395.8,262.1 421.7,268.3 447.5,270.4 473.3,264.8 499.2,263.1 525.0,256.8 550.8,258.9 576.7,262.2 602.5,238.0 628.3,232.1 654.2,234.6 680.0,248.8" fill="none" stroke="#bbb" stroke-width="0.6" opacity="0.6"/>
<polyline points="60.0,301.8 85.8,315.6 111.7,305.4 137.5,308.8 163.3,310.6 189.2,305.6 215.0,305.7 240.8,312.3 266.7,309.2 292.5,301.3 318.3,301.4 344.2,312.5 370.0,307.9 395.8,308.0 421.7,311.2 447.5,305.2 473.3,294.8 499.2,296.5 525.0,301.0 550.8,293.9 576.7,301.3 602.5,279.8 628.3,281.4 654.2,279.1 680.0,301.9" fill="none" stroke="#bbb" stroke-width="0.6" opacity="0.6"/>
<polyline points="60.0,251.6 85.8,239.7 111.7,248.5 137.5,245.7 163.3,251.7 189.2,255.1 215.0,237.4 240.8,247.0 266.7,245.6 292.5,247.7 318.3,246.4 344.2,257.9 370.0,255.2 395.8,252.1 421.7,256.1 447.5,255.4 473.3,246.5 499.2,233.3 525.0,227.8 550.8,221.5 576.7,228.0 602.5,195.4 628.3,185.4 654.2,206.3 680.0,197.2" fill="none" stroke="#bbb" stroke-width="0.6" opacity="0.6"/>
<polyline points="60.0,267.3 85.8,267.7 111.7,264.5 137.5,264.6 163.3,260.8 189.2,264.8 215.0,261.0 240.8,260.7 266.7,261.9 292.5,264.1 318.3,265.2 344.2,270.6 370.0,276.6 395.8,273.1 421.7,272.9 447.5,271.2 473.3,265.3 499.2,260.8 525.0,260.3 550.8,265.9 576.7,259.6 602.5,241.3 628.3,232.8 654.2,239.2 680.0,245.8" fill="none" stroke="#bbb" stroke-width="0.6" opacity="0.6"/>
<polyline points="60.0,299.6 85.8,308.1 111.7,294.8 137.5,302.4 163.3,297.4 189.2,301.5 215.0,300.3 240.8,302.6 266.7,297.8 292.5,306.0 318.3,303.4 344.2,304.7 370.0,304.9 395.8,304.7 421.7,302.6 447.5,301.5 473.3,299.7 499.2,297.0 525.0,295.3 550.8,303.4 576.7,296.8 602.5,287.6 628.3,290.3 654.2,299.1 680.0,294.5" fill="none" stroke="#bbb" stroke-width="0.6" opacity="0.6"/>
<polyline points="60.0,265.7 85.8,265.6 111.7,267.9 137.5,266.6 163.3,258.5 189.2,266.4 215.0,257.1 240.8,269.5 266.7,265.9 292.5,275.7 318.3,272.9 344.2,273.7 370.0,280.6 395.8,282.1 421.7,281.0 447.5,281.0 473.3,274.9 499.2,263.3 525.0,264.9 550.8,266.8 576.7,265.7 602.5,251.4 628.3,242.2 654.2,234.9 680.0,247.3" fill="none" stroke="#bbb" stroke-width="0.6" opacity="0.6"/>
<polyline points="60.0,286.3 85.8,290.4 111.7,285.3 137.5,288.4 163.3,284.3 189.2,295.5 215.0,280.2 240.8,291.8 266.7,287.0 292.5,298.8 318.3,293.8 344.2,293.3 370.0,297.9 395.8,289.0 421.7,291.5 447.5,290.2 473.3,278.3 499.2,275.4 525.0,282.0 550.8,283.4 576.7,283.5 602.5,261.5 628.3,253.8 654.2,256.9 680.0,266.1" fill="none" stroke="#bbb" stroke-width="0.6" opacity="0.6"/>
<polyline points="60.0,274.9 85.8,277.5 111.7,282.7 137.5,275.8 163.3,276.2 189.2,279.3 215.0,279.6 240.8,277.4 266.7,281.7 292.5,284.6 318.3,281.8 344.2,279.8 370.0,283.6 395.8,283.9 421.7,283.8 447.5,283.4 473.3,268.5 499.2,265.9 525.0,267.2 550.8,267.4 576.7,257.4 602.5,258.8 628.3,243.3 654.2,239.3 680.0,241.7" fill="none" stroke="#1f3a5f" stroke-width="2" stroke-dasharray="6 4"/>
<polyline points="60.0,273.1 85.8,277.4 111.7,290.3 137.5,270.4 163.3,274.7 189.2,280.4 215.0,276.9 240.8,276.9 266.7,284.6 292.5,291.0 318.3,277.0 344.2,284.6 370.0,275.0 395.8,271.5 421.7,287.4 447.5,276.9 473.3,282.4 499.2,262.5 525.0,268.4 550.8,270.2 576.7,262.7 602.5,254.5 628.3,255.3 654.2,258.5 680.0,272.2" fill="none" stroke="#b9461a" stroke-width="2.4"/>
<line x1="331.2" y1="50" x2="331.2" y2="330" stroke="#1f2024" stroke-width="0.8" stroke-dasharray="4 3"/>
<text x="331.2" y="45" text-anchor="middle" fill="#1f2024" font-size="10">adoption (2010)</text>
<line x1="60" y1="330" x2="680" y2="330" stroke="#444"/>
<line x1="60" y1="50" x2="60" y2="330" stroke="#444"/>
<line x1="60.0" y1="330" x2="60.0" y2="334" stroke="#444"/>
<text x="60.0" y="348" text-anchor="middle" fill="#444">1999</text>
<line x1="111.7" y1="330" x2="111.7" y2="334" stroke="#444"/>
<text x="111.7" y="348" text-anchor="middle" fill="#444">2001</text>
<line x1="163.3" y1="330" x2="163.3" y2="334" stroke="#444"/>
<text x="163.3" y="348" text-anchor="middle" fill="#444">2003</text>
<line x1="215.0" y1="330" x2="215.0" y2="334" stroke="#444"/>
<text x="215.0" y="348" text-anchor="middle" fill="#444">2005</text>
<line x1="266.7" y1="330" x2="266.7" y2="334" stroke="#444"/>
<text x="266.7" y="348" text-anchor="middle" fill="#444">2007</text>
<line x1="318.3" y1="330" x2="318.3" y2="334" stroke="#444"/>
<text x="318.3" y="348" text-anchor="middle" fill="#444">2009</text>
<line x1="370.0" y1="330" x2="370.0" y2="334" stroke="#444"/>
<text x="370.0" y="348" text-anchor="middle" fill="#444">2011</text>
<line x1="421.7" y1="330" x2="421.7" y2="334" stroke="#444"/>
<text x="421.7" y="348" text-anchor="middle" fill="#444">2013</text>
<line x1="473.3" y1="330" x2="473.3" y2="334" stroke="#444"/>
<text x="473.3" y="348" text-anchor="middle" fill="#444">2015</text>
<line x1="525.0" y1="330" x2="525.0" y2="334" stroke="#444"/>
<text x="525.0" y="348" text-anchor="middle" fill="#444">2017</text>
<line x1="576.7" y1="330" x2="576.7" y2="334" stroke="#444"/>
<text x="576.7" y="348" text-anchor="middle" fill="#444">2019</text>
<line x1="628.3" y1="330" x2="628.3" y2="334" stroke="#444"/>
<text x="628.3" y="348" text-anchor="middle" fill="#444">2021</text>
<line x1="680.0" y1="330" x2="680.0" y2="334" stroke="#444"/>
<text x="680.0" y="348" text-anchor="middle" fill="#444">2023</text>
<line x1="56" y1="330.0" x2="60" y2="330.0" stroke="#444"/>
<text x="53" y="333.0" text-anchor="end" fill="#444">-0.99</text>
<line x1="56" y1="260.0" x2="60" y2="260.0" stroke="#444"/>
<text x="53" y="263.0" text-anchor="end" fill="#444">4.5</text>
<line x1="56" y1="190.0" x2="60" y2="190.0" stroke="#444"/>
<text x="53" y="193.0" text-anchor="end" fill="#444">9.9</text>
<line x1="56" y1="120.0" x2="60" y2="120.0" stroke="#444"/>
<text x="53" y="123.0" text-anchor="end" fill="#444">15</text>
<line x1="56" y1="50.0" x2="60" y2="50.0" stroke="#444"/>
<text x="53" y="53.0" text-anchor="end" fill="#444">21</text>
<rect x="520" y="60" width="190" height="60" fill="white" stroke="#e2e2dc"/>
<line x1="530" y1="75" x2="560" y2="75" stroke="#b9461a" stroke-width="2.4"/>
<text x="565" y="79" font-size="11">West Virginia (treated)</text>
<line x1="530" y1="95" x2="560" y2="95" stroke="#1f3a5f" stroke-width="2" stroke-dasharray="6 4"/>
<text x="565" y="99" font-size="11">Synthetic counterfactual</text>
<line x1="530" y1="112" x2="560" y2="112" stroke="#bbb" stroke-width="0.6"/>
<text x="565" y="116" font-size="10">Donor states (gray)</text>
</svg>