<svg xmlns="http://www.w3.org/2000/svg" viewBox="0 0 720 380" font-family="-apple-system, Segoe UI, Helvetica, Arial, sans-serif" font-size="12">
<rect x="0" y="0" width="720" height="380" fill="#fafaf7"/>
<text x="360.0" y="22" text-anchor="middle" font-size="14" font-weight="600">West Virginia (2010): Firearm suicide rate (per 100k)</text>
<polyline points="60.0,235.8 85.8,148.3 111.7,217.2 137.5,161.5 163.3,190.9 189.2,161.6 215.0,178.1 240.8,196.2 266.7,169.5 292.5,126.7 318.3,202.8 344.2,151.7 370.0,170.3 395.8,174.4 421.7,134.5 447.5,144.3 473.3,130.0 499.2,149.4 525.0,137.8 550.8,159.2 576.7,139.0 602.5,109.1 628.3,93.5 654.2,145.4 680.0,135.0" fill="none" stroke="#bbb" stroke-width="0.6" opacity="0.6"/>
<polyline points="60.0,222.4 85.8,226.0 111.7,238.9 137.5,241.4 163.3,236.7 189.2,244.5 215.0,246.9 240.8,238.3 266.7,240.3 292.5,232.9 318.3,218.3 344.2,227.4 370.0,228.6 395.8,215.6 421.7,214.8 447.5,222.3 473.3,208.8 499.2,202.8 525.0,196.7 550.8,203.0 576.7,206.0 602.5,206.8 628.3,188.8 654.2,192.1 680.0,192.4" fill="none" stroke="#bbb" stroke-width="0.6" opacity="0.6"/>
<polyline points="60.0,236.1 85.8,232.5 111.7,218.4 137.5,228.1 163.3,228.7 189.2,242.5 215.0,228.8 240.8,237.1 266.7,239.6 292.5,225.6 318.3,222.5 344.2,232.6 370.0,218.2 395.8,215.0 421.7,208.6 447.5,208.5 473.3,200.4 499.2,206.0 525.0,179.1 550.8,200.9 576.7,202.9 602.5,193.2 628.3,180.9 654.2,204.4 680.0,182.0" fill="none" stroke="#bbb" stroke-width="0.6" opacity="0.6"/>
<polyline points="60.0,226.7 85.8,227.0 111.7,236.6 137.5,217.8 163.3,239.6 189.2,237.7 215.0,240.0 240.8,232.5 266.7,238.2 292.5,243.7 318.3,231.9 344.2,224.7 370.0,215.2 395.8,219.0 421.7,222.2 447.5,218.6 473.3,215.8 499.2,208.5 525.0,203.1 550.8,204.5 576.7,205.4 602.5,204.5 628.3,192.2 654.2,175.6 680.0,183.5" fill="none" stroke="#bbb" stroke-width="0.6" opacity="0.6"/>
<polyline points="60.0,250.1 85.8,259.0 111.7,255.1 137.5,259.3 163.3,255.0 189.2,264.9 215.0,269.1 240.8,269.5 266.7,265.3 292.5,270.2 318.3,253.8 344.2,255.8 370.0,253.8 395.8,253.8 421.7,255.0 447.5,243.4 473.3,247.1 499.2,241.7 525.0,238.2 550.8,229.0 576.7,234.3 602.5,237.4 628.3,216.1 654.2,226.0 680.0,219.4" fill="none" stroke="#bbb" stroke-width="0.6" opacity="0.6"/>
<polyline points="60.0,222.3 85.8,244.2 111.7,216.8 137.5,218.7 163.3,221.6 189.2,210.9 215.0,205.2 240.8,222.1 266.7,223.3 292.5,223.6 318.3,201.8 344.2,198.7 370.0,213.3 395.8,206.6 421.7,187.9 447.5,205.2 473.3,179.9 499.2,182.9 525.0,163.3 550.8,162.7 576.7,186.9 602.5,150.3 628.3,169.5 654.2,157.2 680.0,146.8" fill="none" stroke="#bbb" stroke-width="0.6" opacity="0.6"/>
<polyline points="60.0,303.6 85.8,309.5 111.7,301.7 137.5,306.2 163.3,313.2 189.2,315.2 215.0,311.5 240.8,317.3 266.7,311.9 292.5,310.5 318.3,314.3 344.2,309.8 370.0,308.0 395.8,304.9 421.7,304.3 447.5,300.4 473.3,304.3 499.2,302.9 525.0,295.4 550.8,295.5 576.7,298.7 602.5,298.0 628.3,286.4 654.2,283.8 680.0,282.7" fill="none" stroke="#bbb" stroke-width="0.6" opacity="0.6"/>
<polyline points="60.0,273.6 85.8,264.7 111.7,265.3 137.5,257.7 163.3,264.9 189.2,272.7 215.0,266.5 240.8,261.4 266.7,272.6 292.5,260.7 318.3,259.7 344.2,261.2 370.0,270.9 395.8,249.9 421.7,248.4 447.5,247.8 473.3,250.4 499.2,235.5 525.0,233.4 550.8,237.1 576.7,241.5 602.5,234.0 628.3,217.9 654.2,219.1 680.0,207.0" fill="none" stroke="#bbb" stroke-width="0.6" opacity="0.6"/>
<polyline points="60.0,272.0 85.8,262.6 111.7,276.1 137.5,264.4 163.3,251.4 189.2,255.3 215.0,263.7 240.8,252.8 266.7,252.3 292.5,266.9 318.3,260.2 344.2,256.5 370.0,246.3 395.8,216.6 421.7,243.4 447.5,245.2 473.3,252.0 499.2,236.4 525.0,209.1 550.8,220.2 576.7,220.8 602.5,210.0 628.3,196.9 654.2,195.0 680.0,209.2" fill="none" stroke="#bbb" stroke-width="0.6" opacity="0.6"/>
<polyline points="60.0,243.2 85.8,231.1 111.7,246.0 137.5,235.8 163.3,224.7 189.2,233.1 215.0,235.2 240.8,232.8 266.7,221.3 292.5,231.1 318.3,229.6 344.2,230.0 370.0,215.6 395.8,211.0 421.7,216.4 447.5,211.8 473.3,203.2 499.2,204.9 525.0,213.1 550.8,201.7 576.7,221.2 602.5,199.2 628.3,195.5 654.2,198.0 680.0,194.6" fill="none" stroke="#bbb" stroke-width="0.6" opacity="0.6"/>
<polyline points="60.0,237.6 85.8,257.4 111.7,248.8 137.5,249.0 163.3,258.5 189.2,240.6 215.0,247.0 240.8,251.7 266.7,250.5 292.5,248.4 318.3,257.3 344.2,241.1 370.0,244.6 395.8,245.8 421.7,236.7 447.5,226.8 473.3,220.3 499.2,228.8 525.0,227.7 550.8,220.3 576.7,226.1 602.5,237.8 628.3,220.6 654.2,212.1 680.0,212.8" fill="none" stroke="#bbb" stroke-width="0.6" opacity="0.6"/>
<polyline points="60.0,259.2 85.8,252.1 111.7,265.5 137.5,273.4 163.3,282.3 189.2,255.6 215.0,253.1 240.8,267.1 266.7,263.7 292.5,250.2 318.3,247.3 344.2,259.4 370.0,240.9 395.8,242.0 421.7,216.3 447.5,238.0 473.3,225.7 499.2,242.2 525.0,202.9 550.8,207.2 576.7,210.9 602.5,223.7 628.3,200.8 654.2,204.1 680.0,203.1" fill="none" stroke="#bbb" stroke-width="0.6" opacity="0.6"/>
<polyline points="60.0,282.0 85.8,284.0 111.7,282.7 137.5,278.0 163.3,285.7 189.2,284.6 215.0,281.8 240.8,276.1 266.7,281.3 292.5,279.2 318.3,278.2 344.2,274.0 370.0,271.4 395.8,270.9 421.7,264.0 447.5,264.6 473.3,261.8 499.2,258.4 525.0,263.5 550.8,247.0 576.7,255.6 602.5,252.8 628.3,246.9 654.2,242.7 680.0,243.9" fill="none" stroke="#bbb" stroke-width="0.6" opacity="0.6"/>
<polyline points="60.0,292.9 85.8,295.0 111.7,290.3 137.5,292.0 163.3,290.9 189.2,285.0 215.0,289.0 240.8,292.7 266.7,287.3 292.5,281.4 318.3,284.1 344.2,284.9 370.0,274.7 395.8,278.3 421.7,271.6 447.5,279.9 473.3,281.4 499.2,274.9 525.0,267.6 550.8,270.4 576.7,272.3 602.5,271.6 628.3,263.2 654.2,261.1 680.0,267.1" fill="none" stroke="#bbb" stroke-width="0.6" opacity="0.6"/>
<polyline points="60.0,238.9 85.8,251.5 111.7,242.8 137.5,236.1 163.3,239.9 189.2,241.3 215.0,238.9 240.8,254.3 266.7,226.6 292.5,224.3 318.3,232.7 344.2,239.3 370.0,234.3 395.8,221.8 421.7,229.8 447.5,242.6 473.3,223.9 499.2,234.7 525.0,222.2 550.8,214.1 576.7,215.9 602.5,229.2 628.3,202.9 654.2,217.9 680.0,206.9" fill="none" stroke="#bbb" stroke-width="0.6" opacity="0.6"/>
<polyline points="60.0,210.2 85.8,195.3 111.7,157.6 137.5,185.9 163.3,179.8 189.2,203.1 215.0,160.7 240.8,209.8 266.7,186.2 292.5,171.0 318.3,166.9 344.2,162.8 370.0,149.5 395.8,149.5 421.7,159.6 447.5,158.6 473.3,127.4 499.2,145.2 525.0,80.7 550.8,151.7 576.7,137.7 602.5,118.7 628.3,62.7 654.2,88.6 680.0,108.9" fill="none" stroke="#bbb" stroke-width="0.6" opacity="0.6"/>
<polyline points="60.0,259.1 85.8,251.7 111.7,251.6 137.5,253.6 163.3,257.1 189.2,260.4 215.0,258.1 240.8,255.3 266.7,265.5 292.5,258.0 318.3,258.4 344.2,255.8 370.0,254.1 395.8,257.8 421.7,250.2 447.5,252.7 473.3,250.1 499.2,251.0 525.0,245.4 550.8,242.3 576.7,255.4 602.5,243.9 628.3,238.7 654.2,230.7 680.0,231.6" fill="none" stroke="#bbb" stroke-width="0.6" opacity="0.6"/>
<polyline points="60.0,274.0 85.8,282.5 111.7,269.7 137.5,244.0 163.3,269.4 189.2,269.3 215.0,237.1 240.8,269.0 266.7,252.5 292.5,240.0 318.3,251.5 344.2,243.4 370.0,255.2 395.8,234.2 421.7,213.7 447.5,200.3 473.3,220.1 499.2,222.0 525.0,189.2 550.8,222.4 576.7,215.6 602.5,219.8 628.3,178.3 654.2,175.5 680.0,210.1" fill="none" stroke="#bbb" stroke-width="0.6" opacity="0.6"/>
<polyline points="60.0,285.5 85.8,282.9 111.7,270.6 137.5,285.6 163.3,276.7 189.2,296.5 215.0,274.1 240.8,285.3 266.7,283.3 292.5,268.8 318.3,272.5 344.2,251.3 370.0,279.3 395.8,255.7 421.7,273.4 447.5,243.9 473.3,247.3 499.2,231.3 525.0,222.9 550.8,221.3 576.7,224.6 602.5,239.2 628.3,247.9 654.2,226.1 680.0,238.3" fill="none" stroke="#bbb" stroke-width="0.6" opacity="0.6"/>
<polyline points="60.0,219.8 85.8,225.8 111.7,217.8 137.5,202.7 163.3,204.5 189.2,217.0 215.0,231.3 240.8,222.3 266.7,226.1 292.5,223.0 318.3,226.7 344.2,221.9 370.0,212.3 395.8,206.6 421.7,211.8 447.5,197.5 473.3,177.2 499.2,197.8 525.0,186.6 550.8,174.2 576.7,172.4 602.5,160.9 628.3,160.7 654.2,159.7 680.0,174.5" fill="none" stroke="#bbb" stroke-width="0.6" opacity="0.6"/>
<polyline points="60.0,173.0 85.8,192.6 111.7,213.5 137.5,202.6 163.3,207.1 189.2,211.3 215.0,208.9 240.8,217.6 266.7,213.5 292.5,204.4 318.3,204.8 344.2,211.1 370.0,220.8 395.8,221.5 421.7,214.3 447.5,208.6 473.3,218.8 499.2,202.1 525.0,207.4 550.8,192.1 576.7,200.3 602.5,195.4 628.3,178.2 654.2,175.9 680.0,180.1" fill="none" stroke="#bbb" stroke-width="0.6" opacity="0.6"/>
<polyline points="60.0,230.6 85.8,238.0 111.7,226.6 137.5,235.2 163.3,247.9 189.2,236.6 215.0,241.2 240.8,237.3 266.7,238.2 292.5,227.4 318.3,222.7 344.2,220.3 370.0,198.8 395.8,210.1 421.7,203.7 447.5,204.0 473.3,193.9 499.2,177.4 525.0,204.7 550.8,196.2 576.7,194.0 602.5,172.8 628.3,168.9 654.2,174.5 680.0,164.8" fill="none" stroke="#bbb" stroke-width="0.6" opacity="0.6"/>
<polyline points="60.0,231.7 85.8,236.6 111.7,246.8 137.5,244.0 163.3,230.2 189.2,243.9 215.0,237.9 240.8,243.8 266.7,238.0 292.5,242.2 318.3,234.0 344.2,223.1 370.0,236.1 395.8,228.6 421.7,222.0 447.5,212.1 473.3,230.7 499.2,219.1 525.0,212.5 550.8,218.0 576.7,206.3 602.5,211.0 628.3,195.2 654.2,203.9 680.0,200.3" fill="none" stroke="#bbb" stroke-width="0.6" opacity="0.6"/>
<polyline points="60.0,277.9 85.8,272.9 111.7,281.1 137.5,277.3 163.3,277.0 189.2,277.4 215.0,272.5 240.8,276.4 266.7,278.0 292.5,272.5 318.3,267.6 344.2,275.1 370.0,262.4 395.8,269.4 421.7,258.9 447.5,261.2 473.3,257.6 499.2,252.8 525.0,251.2 550.8,247.8 576.7,254.2 602.5,258.9 628.3,252.5 654.2,245.6 680.0,244.1" fill="none" stroke="#bbb" stroke-width="0.6" opacity="0.6"/>
<polyline points="60.0,255.0 85.8,264.8 111.7,279.7 137.5,267.6 163.3,250.4 189.2,249.3 215.0,232.4 240.8,233.1 266.7,281.5 292.5,241.6 318.3,254.5 344.2,248.1 370.0,257.6 395.8,232.6 421.7,242.3 447.5,235.5 473.3,241.0 499.2,224.6 525.0,226.8 550.8,216.3 576.7,205.9 602.5,222.6 628.3,207.9 654.2,208.6 680.0,224.8" fill="none" stroke="#bbb" stroke-width="0.6" opacity="0.6"/>
<polyline points="60.0,236.1 85.8,236.9 111.7,243.1 137.5,234.6 163.3,242.3 189.2,235.8 215.0,231.1 240.8,228.5 266.7,236.2 292.5,223.3 318.3,232.6 344.2,231.3 370.0,231.1 395.8,224.8 421.7,215.1 447.5,222.9 473.3,225.2 499.2,218.6 525.0,212.6 550.8,218.0 576.7,208.0 602.5,205.1 628.3,197.7 654.2,196.2 680.0,189.5" fill="none" stroke="#bbb" stroke-width="0.6" opacity="0.6"/>
<polyline points="60.0,275.3 85.8,273.9 111.7,268.7 137.5,274.4 163.3,273.9 189.2,277.4 215.0,275.2 240.8,280.8 266.7,276.4 292.5,272.5 318.3,269.8 344.2,264.6 370.0,267.5 395.8,265.6 421.7,265.1 447.5,266.4 473.3,257.9 499.2,258.2 525.0,253.0 550.8,249.4 576.7,251.7 602.5,250.7 628.3,240.4 654.2,237.2 680.0,237.3" fill="none" stroke="#bbb" stroke-width="0.6" opacity="0.6"/>
<polyline points="60.0,261.3 85.8,250.7 111.7,248.4 137.5,255.5 163.3,253.7 189.2,254.8 215.0,253.2 240.8,255.8 266.7,255.4 292.5,259.2 318.3,250.7 344.2,221.3 370.0,227.2 395.8,221.8 421.7,218.3 447.5,228.1 473.3,214.5 499.2,218.9 525.0,205.8 550.8,210.8 576.7,217.0 602.5,214.7 628.3,208.4 654.2,203.4 680.0,193.1" fill="none" stroke="#bbb" stroke-width="0.6" opacity="0.6"/>
<polyline points="60.0,258.8 85.8,263.7 111.7,268.1 137.5,264.8 163.3,273.1 189.2,266.5 215.0,264.6 240.8,267.9 266.7,270.8 292.5,264.9 318.3,265.7 344.2,258.7 370.0,255.2 395.8,259.1 421.7,257.7 447.5,254.4 473.3,254.4 499.2,248.2 525.0,248.7 550.8,248.2 576.7,251.3 602.5,246.3 628.3,245.3 654.2,243.4 680.0,243.0" fill="none" stroke="#bbb" stroke-width="0.6" opacity="0.6"/>
<polyline points="60.0,280.2 85.8,279.6 111.7,276.8 137.5,279.5 163.3,279.5 189.2,280.4 215.0,282.3 240.8,283.5 266.7,274.6 292.5,273.5 318.3,273.7 344.2,266.3 370.0,273.1 395.8,274.0 421.7,253.2 447.5,273.5 473.3,256.7 499.2,249.6 525.0,254.6 550.8,258.4 576.7,256.9 602.5,253.6 628.3,244.7 654.2,234.8 680.0,241.5" fill="none" stroke="#bbb" stroke-width="0.6" opacity="0.6"/>
<polyline points="60.0,226.9 85.8,225.3 111.7,217.3 137.5,214.3 163.3,210.7 189.2,219.9 215.0,217.0 240.8,224.5 266.7,217.6 292.5,217.2 318.3,214.6 344.2,211.6 370.0,203.1 395.8,198.9 421.7,201.7 447.5,197.1 473.3,178.7 499.2,189.7 525.0,174.7 550.8,179.4 576.7,186.2 602.5,167.3 628.3,157.7 654.2,161.1 680.0,167.1" fill="none" stroke="#1f3a5f" stroke-width="2" stroke-dasharray="6 4"/>
<polyline points="60.0,229.4 85.8,226.5 111.7,210.1 137.5,215.5 163.3,213.4 189.2,212.7 215.0,215.9 240.8,222.7 266.7,202.7 292.5,227.7 318.3,223.6 344.2,202.5 370.0,210.0 395.8,211.5 421.7,191.6 447.5,197.1 473.3,198.0 499.2,179.8 525.0,156.6 550.8,163.0 576.7,207.9 602.5,188.9 628.3,183.7 654.2,185.6 680.0,169.1" fill="none" stroke="#b9461a" stroke-width="2.4"/>
<line x1="331.2" y1="50" x2="331.2" y2="330" stroke="#1f2024" stroke-width="0.8" stroke-dasharray="4 3"/>
<text x="331.2" y="45" text-anchor="middle" fill="#1f2024" font-size="10">adoption (2010)</text>
<line x1="60" y1="330" x2="680" y2="330" stroke="#444"/>
<line x1="60" y1="50" x2="60" y2="330" stroke="#444"/>
<line x1="60.0" y1="330" x2="60.0" y2="334" stroke="#444"/>
<text x="60.0" y="348" text-anchor="middle" fill="#444">1999</text>
<line x1="111.7" y1="330" x2="111.7" y2="334" stroke="#444"/>
<text x="111.7" y="348" text-anchor="middle" fill="#444">2001</text>
<line x1="163.3" y1="330" x2="163.3" y2="334" stroke="#444"/>
<text x="163.3" y="348" text-anchor="middle" fill="#444">2003</text>
<line x1="215.0" y1="330" x2="215.0" y2="334" stroke="#444"/>
<text x="215.0" y="348" text-anchor="middle" fill="#444">2005</text>
<line x1="266.7" y1="330" x2="266.7" y2="334" stroke="#444"/>
<text x="266.7" y="348" text-anchor="middle" fill="#444">2007</text>
<line x1="318.3" y1="330" x2="318.3" y2="334" stroke="#444"/>
<text x="318.3" y="348" text-anchor="middle" fill="#444">2009</text>
<line x1="370.0" y1="330" x2="370.0" y2="334" stroke="#444"/>
<text x="370.0" y="348" text-anchor="middle" fill="#444">2011</text>
<line x1="421.7" y1="330" x2="421.7" y2="334" stroke="#444"/>
<text x="421.7" y="348" text-anchor="middle" fill="#444">2013</text>
<line x1="473.3" y1="330" x2="473.3" y2="334" stroke="#444"/>
<text x="473.3" y="348" text-anchor="middle" fill="#444">2015</text>
<line x1="525.0" y1="330" x2="525.0" y2="334" stroke="#444"/>
<text x="525.0" y="348" text-anchor="middle" fill="#444">2017</text>
<line x1="576.7" y1="330" x2="576.7" y2="334" stroke="#444"/>
<text x="576.7" y="348" text-anchor="middle" fill="#444">2019</text>
<line x1="628.3" y1="330" x2="628.3" y2="334" stroke="#444"/>
<text x="628.3" y="348" text-anchor="middle" fill="#444">2021</text>
<line x1="680.0" y1="330" x2="680.0" y2="334" stroke="#444"/>
<text x="680.0" y="348" text-anchor="middle" fill="#444">2023</text>
<line x1="56" y1="330.0" x2="60" y2="330.0" stroke="#444"/>
<text x="53" y="333.0" text-anchor="end" fill="#444">2</text>
<line x1="56" y1="260.0" x2="60" y2="260.0" stroke="#444"/>
<text x="53" y="263.0" text-anchor="end" fill="#444">7.1</text>
<line x1="56" y1="190.0" x2="60" y2="190.0" stroke="#444"/>
<text x="53" y="193.0" text-anchor="end" fill="#444">12</text>
<line x1="56" y1="120.0" x2="60" y2="120.0" stroke="#444"/>
<text x="53" y="123.0" text-anchor="end" fill="#444">17</text>
<line x1="56" y1="50.0" x2="60" y2="50.0" stroke="#444"/>
<text x="53" y="53.0" text-anchor="end" fill="#444">23</text>
<rect x="520" y="60" width="190" height="60" fill="white" stroke="#e2e2dc"/>
<line x1="530" y1="75" x2="560" y2="75" stroke="#b9461a" stroke-width="2.4"/>
<text x="565" y="79" font-size="11">West Virginia (treated)</text>
<line x1="530" y1="95" x2="560" y2="95" stroke="#1f3a5f" stroke-width="2" stroke-dasharray="6 4"/>
<text x="565" y="99" font-size="11">Synthetic counterfactual</text>
<line x1="530" y1="112" x2="560" y2="112" stroke="#bbb" stroke-width="0.6"/>
<text x="565" y="116" font-size="10">Donor states (gray)</text>
</svg>