<svg xmlns="http://www.w3.org/2000/svg" viewBox="0 0 720 380" font-family="-apple-system, Segoe UI, Helvetica, Arial, sans-serif" font-size="12">
<rect x="0" y="0" width="720" height="380" fill="#fafaf7"/>
<text x="360.0" y="22" text-anchor="middle" font-size="14" font-weight="600">West Virginia (2010): Total homicide rate (per 100k)</text>
<polyline points="60.0,213.0 85.8,267.9 111.7,243.1 137.5,256.6 163.3,244.9 189.2,250.2 215.0,260.9 240.8,253.6 266.7,241.2 292.5,272.9 318.3,283.4 344.2,267.4 370.0,270.0 395.8,270.5 421.7,263.8 447.5,251.0 473.3,218.4 499.2,231.6 525.0,213.2 550.8,239.9 576.7,199.5 602.5,235.7 628.3,243.4 654.2,197.6 680.0,218.2" fill="none" stroke="#bbb" stroke-width="0.6" opacity="0.6"/>
<polyline points="60.0,219.7 85.8,226.4 111.7,211.9 137.5,234.9 163.3,236.6 189.2,250.3 215.0,215.3 240.8,214.2 266.7,206.2 292.5,224.6 318.3,233.9 344.2,248.6 370.0,242.1 395.8,230.4 421.7,229.6 447.5,249.2 473.3,229.5 499.2,213.3 525.0,210.4 550.8,220.5 576.7,219.1 602.5,197.3 628.3,199.2 654.2,170.2 680.0,184.6" fill="none" stroke="#bbb" stroke-width="0.6" opacity="0.6"/>
<polyline points="60.0,250.5 85.8,241.3 111.7,252.0 137.5,255.3 163.3,237.1 189.2,239.8 215.0,234.3 240.8,227.8 266.7,231.9 292.5,248.1 318.3,242.5 344.2,264.1 370.0,252.6 395.8,246.5 421.7,254.0 447.5,246.5 473.3,240.5 499.2,228.2 525.0,214.4 550.8,226.7 576.7,220.4 602.5,183.6 628.3,177.7 654.2,187.8 680.0,197.2" fill="none" stroke="#bbb" stroke-width="0.6" opacity="0.6"/>
<polyline points="60.0,217.8 85.8,231.8 111.7,224.5 137.5,230.2 163.3,219.6 189.2,228.9 215.0,225.4 240.8,209.7 266.7,209.7 292.5,230.3 318.3,248.4 344.2,240.3 370.0,243.3 395.8,252.3 421.7,253.9 447.5,263.6 473.3,265.4 499.2,250.1 525.0,245.3 550.8,253.9 576.7,252.6 602.5,232.9 628.3,236.1 654.2,231.4 680.0,238.6" fill="none" stroke="#bbb" stroke-width="0.6" opacity="0.6"/>
<polyline points="60.0,225.2 85.8,219.0 111.7,230.2 137.5,230.5 163.3,224.1 189.2,233.4 215.0,242.8 240.8,239.0 266.7,224.5 292.5,237.0 318.3,248.4 344.2,249.0 370.0,250.6 395.8,246.8 421.7,250.1 447.5,245.0 473.3,243.8 499.2,236.9 525.0,237.9 550.8,243.1 576.7,249.3 602.5,207.5 628.3,219.8 654.2,213.4 680.0,225.3" fill="none" stroke="#bbb" stroke-width="0.6" opacity="0.6"/>
<polyline points="60.0,298.8 85.8,309.0 111.7,295.2 137.5,289.7 163.3,300.1 189.2,295.8 215.0,292.8 240.8,293.6 266.7,281.8 292.5,305.4 318.3,304.8 344.2,306.8 370.0,296.0 395.8,300.4 421.7,301.5 447.5,299.4 473.3,299.7 499.2,286.5 525.0,292.9 550.8,299.6 576.7,304.6 602.5,295.5 628.3,295.3 654.2,289.0 680.0,291.6" fill="none" stroke="#bbb" stroke-width="0.6" opacity="0.6"/>
<polyline points="60.0,221.8 85.8,228.6 111.7,220.4 137.5,223.2 163.3,230.7 189.2,243.3 215.0,244.7 240.8,244.1 266.7,247.2 292.5,243.5 318.3,245.3 344.2,252.1 370.0,244.2 395.8,245.4 421.7,250.5 447.5,253.8 473.3,246.9 499.2,214.8 525.0,222.5 550.8,230.5 576.7,235.5 602.5,203.0 628.3,204.1 654.2,219.4 680.0,236.9" fill="none" stroke="#bbb" stroke-width="0.6" opacity="0.6"/>
<polyline points="60.0,237.4 85.8,248.0 111.7,235.2 137.5,246.8 163.3,252.5 189.2,257.6 215.0,249.4 240.8,248.9 266.7,251.6 292.5,257.9 318.3,260.5 344.2,270.2 370.0,262.6 395.8,262.6 421.7,252.8 447.5,257.9 473.3,250.6 499.2,238.5 525.0,242.5 550.8,241.9 576.7,251.3 602.5,225.4 628.3,229.2 654.2,234.0 680.0,249.0" fill="none" stroke="#bbb" stroke-width="0.6" opacity="0.6"/>
<polyline points="60.0,244.8 85.8,241.3 111.7,280.0 137.5,287.0 163.3,264.1 189.2,265.8 215.0,276.3 240.8,265.0 266.7,274.4 292.5,271.5 318.3,266.2 344.2,280.1 370.0,273.8 395.8,286.1 421.7,271.4 447.5,283.1 473.3,267.5 499.2,264.7 525.0,263.9 550.8,269.4 576.7,281.9 602.5,279.6 628.3,260.8 654.2,261.7 680.0,254.7" fill="none" stroke="#bbb" stroke-width="0.6" opacity="0.6"/>
<polyline points="60.0,256.9 85.8,261.6 111.7,266.0 137.5,263.0 163.3,266.7 189.2,249.2 215.0,264.6 240.8,270.5 266.7,260.5 292.5,262.5 318.3,268.4 344.2,267.6 370.0,279.2 395.8,264.1 421.7,273.2 447.5,275.8 473.3,259.2 499.2,245.5 525.0,245.8 550.8,250.5 576.7,257.0 602.5,228.9 628.3,214.3 654.2,228.1 680.0,239.3" fill="none" stroke="#bbb" stroke-width="0.6" opacity="0.6"/>
<polyline points="60.0,182.1 85.8,157.6 111.7,175.3 137.5,147.9 163.3,151.3 189.2,154.8 215.0,191.7 240.8,152.0 266.7,130.4 292.5,160.2 318.3,167.7 344.2,178.1 370.0,177.3 395.8,183.1 421.7,182.5 447.5,188.3 473.3,184.3 499.2,166.8 525.0,160.2 550.8,172.2 576.7,168.1 602.5,113.7 628.3,62.7 654.2,104.2 680.0,130.1" fill="none" stroke="#bbb" stroke-width="0.6" opacity="0.6"/>
<polyline points="60.0,298.9 85.8,309.8 111.7,305.8 137.5,311.1 163.3,309.2 189.2,307.3 215.0,306.3 240.8,302.3 266.7,305.3 292.5,294.0 318.3,299.2 344.2,301.4 370.0,299.4 395.8,299.4 421.7,301.4 447.5,304.5 473.3,302.4 499.2,305.5 525.0,302.5 550.8,302.6 576.7,303.7 602.5,303.8 628.3,306.1 654.2,296.6 680.0,268.1" fill="none" stroke="#bbb" stroke-width="0.6" opacity="0.6"/>
<polyline points="60.0,231.1 85.8,235.3 111.7,235.6 137.5,235.1 163.3,244.2 189.2,240.3 215.0,242.1 240.8,229.8 266.7,237.6 292.5,251.3 318.3,241.8 344.2,246.9 370.0,241.8 395.8,230.5 421.7,240.9 447.5,252.0 473.3,246.5 499.2,243.0 525.0,249.1 550.8,251.1 576.7,248.3 602.5,224.2 628.3,223.9 654.2,232.5 680.0,246.2" fill="none" stroke="#bbb" stroke-width="0.6" opacity="0.6"/>
<polyline points="60.0,288.0 85.8,284.5 111.7,293.6 137.5,295.7 163.3,292.0 189.2,295.9 215.0,295.5 240.8,292.9 266.7,295.7 292.5,297.4 318.3,306.8 344.2,301.4 370.0,306.8 395.8,300.9 421.7,297.4 447.5,304.0 473.3,293.1 499.2,301.1 525.0,298.2 550.8,300.0 576.7,295.4 602.5,280.6 628.3,278.0 654.2,282.7 680.0,283.0" fill="none" stroke="#bbb" stroke-width="0.6" opacity="0.6"/>
<polyline points="60.0,222.4 85.8,205.4 111.7,193.4 137.5,202.1 163.3,201.4 189.2,220.7 215.0,226.9 240.8,219.2 266.7,232.8 292.5,217.9 318.3,237.5 344.2,233.5 370.0,221.1 395.8,230.0 421.7,228.4 447.5,209.6 473.3,212.1 499.2,219.2 525.0,240.4 550.8,229.3 576.7,191.4 602.5,183.2 628.3,201.0 654.2,223.9 680.0,228.6" fill="none" stroke="#bbb" stroke-width="0.6" opacity="0.6"/>
<polyline points="60.0,292.2 85.8,295.9 111.7,275.3 137.5,302.1 163.3,281.8 189.2,282.2 215.0,299.8 240.8,278.8 266.7,287.8 292.5,270.2 318.3,281.6 344.2,291.8 370.0,286.6 395.8,286.9 421.7,295.2 447.5,275.8 473.3,276.2 499.2,277.8 525.0,273.4 550.8,278.8 576.7,285.5 602.5,258.6 628.3,282.0 654.2,263.5 680.0,282.9" fill="none" stroke="#bbb" stroke-width="0.6" opacity="0.6"/>
<polyline points="60.0,228.9 85.8,232.3 111.7,243.1 137.5,237.1 163.3,245.0 189.2,242.1 215.0,235.2 240.8,244.0 266.7,239.2 292.5,238.5 318.3,255.7 344.2,259.1 370.0,256.4 395.8,259.7 421.7,262.6 447.5,258.4 473.3,256.5 499.2,236.1 525.0,244.4 550.8,251.5 576.7,242.2 602.5,217.8 628.3,199.3 654.2,216.4 680.0,217.8" fill="none" stroke="#bbb" stroke-width="0.6" opacity="0.6"/>
<polyline points="60.0,304.5 85.8,317.3 111.7,310.9 137.5,315.0 163.3,306.6 189.2,308.8 215.0,300.3 240.8,296.1 266.7,290.0 292.5,302.6 318.3,300.7 344.2,305.7 370.0,278.6 395.8,277.8 421.7,296.0 447.5,283.9 473.3,288.4 499.2,297.2 525.0,307.9 550.8,293.8 576.7,281.7 602.5,269.5 628.3,301.5 654.2,275.7 680.0,278.0" fill="none" stroke="#bbb" stroke-width="0.6" opacity="0.6"/>
<polyline points="60.0,305.5 85.8,301.7 111.7,307.5 137.5,313.0 163.3,307.9 189.2,308.1 215.0,306.1 240.8,312.4 266.7,313.4 292.5,311.4 318.3,314.5 344.2,312.4 370.0,309.3 395.8,310.4 421.7,304.3 447.5,309.5 473.3,310.5 499.2,306.5 525.0,312.7 550.8,304.8 576.7,293.1 602.5,313.8 628.3,313.1 654.2,299.7 680.0,301.7" fill="none" stroke="#bbb" stroke-width="0.6" opacity="0.6"/>
<polyline points="60.0,194.6 85.8,226.1 111.7,253.1 137.5,215.6 163.3,242.8 189.2,206.5 215.0,225.3 240.8,233.7 266.7,201.0 292.5,216.8 318.3,193.5 344.2,234.7 370.0,223.7 395.8,251.0 421.7,246.6 447.5,260.7 473.3,250.2 499.2,236.2 525.0,233.4 550.8,227.6 576.7,207.5 602.5,221.2 628.3,152.6 654.2,161.3 680.0,167.6" fill="none" stroke="#bbb" stroke-width="0.6" opacity="0.6"/>
<polyline points="60.0,203.3 85.8,239.0 111.7,210.5 137.5,213.6 163.3,207.8 189.2,226.7 215.0,211.1 240.8,204.2 266.7,224.7 292.5,240.5 318.3,246.5 344.2,247.3 370.0,257.1 395.8,265.2 421.7,247.3 447.5,245.3 473.3,242.8 499.2,221.6 525.0,205.6 550.8,236.1 576.7,263.1 602.5,248.7 628.3,223.7 654.2,229.8 680.0,228.0" fill="none" stroke="#bbb" stroke-width="0.6" opacity="0.6"/>
<polyline points="60.0,233.4 85.8,254.9 111.7,254.1 137.5,263.0 163.3,246.8 189.2,254.8 215.0,254.8 240.8,246.9 266.7,242.6 292.5,246.5 318.3,240.5 344.2,256.1 370.0,250.5 395.8,248.3 421.7,256.7 447.5,263.4 473.3,243.2 499.2,241.1 525.0,242.8 550.8,252.4 576.7,232.5 602.5,225.9 628.3,223.5 654.2,232.2 680.0,241.5" fill="none" stroke="#bbb" stroke-width="0.6" opacity="0.6"/>
<polyline points="60.0,290.0 85.8,298.2 111.7,293.2 137.5,298.2 163.3,300.0 189.2,292.0 215.0,296.1 240.8,293.7 266.7,298.4 292.5,294.8 318.3,294.8 344.2,292.1 370.0,296.5 395.8,294.3 421.7,297.6 447.5,297.3 473.3,289.0 499.2,287.6 525.0,291.7 550.8,298.0 576.7,288.4 602.5,286.1 628.3,261.3 654.2,262.0 680.0,265.4" fill="none" stroke="#bbb" stroke-width="0.6" opacity="0.6"/>
<polyline points="60.0,259.4 85.8,259.9 111.7,254.7 137.5,257.7 163.3,255.5 189.2,255.3 215.0,243.9 240.8,245.7 266.7,247.4 292.5,249.7 318.3,255.0 344.2,256.8 370.0,258.4 395.8,251.3 421.7,261.5 447.5,261.7 473.3,255.9 499.2,254.9 525.0,247.8 550.8,243.5 576.7,254.8 602.5,219.8 628.3,213.6 654.2,216.5 680.0,235.7" fill="none" stroke="#bbb" stroke-width="0.6" opacity="0.6"/>
<polyline points="60.0,292.7 85.8,313.2 111.7,313.2 137.5,306.2 163.3,308.1 189.2,296.0 215.0,294.5 240.8,274.2 266.7,273.4 292.5,263.9 318.3,276.1 344.2,287.9 370.0,293.1 395.8,288.6 421.7,297.1 447.5,289.5 473.3,274.0 499.2,282.0 525.0,284.2 550.8,307.3 576.7,301.4 602.5,265.5 628.3,285.2 654.2,266.7 680.0,287.7" fill="none" stroke="#bbb" stroke-width="0.6" opacity="0.6"/>
<polyline points="60.0,230.0 85.8,229.0 111.7,227.0 137.5,228.3 163.3,234.8 189.2,244.4 215.0,228.6 240.8,232.6 266.7,237.4 292.5,236.7 318.3,225.9 344.2,249.9 370.0,246.0 395.8,242.5 421.7,256.5 447.5,250.0 473.3,240.6 499.2,225.8 525.0,218.1 550.8,225.0 576.7,224.5 602.5,196.5 628.3,189.2 654.2,202.6 680.0,190.9" fill="none" stroke="#bbb" stroke-width="0.6" opacity="0.6"/>
<polyline points="60.0,244.2 85.8,246.0 111.7,242.0 137.5,245.3 163.3,239.3 189.2,244.2 215.0,243.3 240.8,246.6 266.7,246.0 292.5,250.1 318.3,253.6 344.2,259.3 370.0,266.5 395.8,266.5 421.7,267.9 447.5,266.4 473.3,261.2 499.2,254.6 525.0,259.1 550.8,263.5 576.7,259.4 602.5,237.4 628.3,230.9 654.2,233.0 680.0,243.3" fill="none" stroke="#bbb" stroke-width="0.6" opacity="0.6"/>
<polyline points="60.0,297.9 85.8,299.8 111.7,286.2 137.5,298.4 163.3,291.4 189.2,300.1 215.0,295.5 240.8,298.8 266.7,295.7 292.5,305.5 318.3,306.8 344.2,300.0 370.0,301.8 395.8,301.2 421.7,302.1 447.5,295.6 473.3,300.1 499.2,293.0 525.0,293.6 550.8,298.8 576.7,293.4 602.5,283.5 628.3,287.9 654.2,295.9 680.0,294.9" fill="none" stroke="#bbb" stroke-width="0.6" opacity="0.6"/>
<polyline points="60.0,249.1 85.8,249.6 111.7,257.8 137.5,254.2 163.3,249.9 189.2,255.7 215.0,244.4 240.8,254.9 266.7,253.5 292.5,261.8 318.3,262.7 344.2,262.8 370.0,275.3 395.8,272.9 421.7,273.7 447.5,269.3 473.3,263.1 499.2,248.8 525.0,251.2 550.8,259.8 576.7,255.6 602.5,243.8 628.3,236.9 654.2,226.6 680.0,242.6" fill="none" stroke="#bbb" stroke-width="0.6" opacity="0.6"/>
<polyline points="60.0,279.9 85.8,283.4 111.7,278.0 137.5,287.7 163.3,280.8 189.2,288.1 215.0,275.6 240.8,285.8 266.7,281.3 292.5,290.8 318.3,291.0 344.2,289.1 370.0,293.2 395.8,286.0 421.7,287.6 447.5,288.6 473.3,269.8 499.2,271.7 525.0,281.2 550.8,285.2 576.7,282.1 602.5,254.8 628.3,249.9 654.2,252.3 680.0,258.7" fill="none" stroke="#bbb" stroke-width="0.6" opacity="0.6"/>
<polyline points="60.0,268.8 85.8,285.5 111.7,285.4 137.5,282.9 163.3,279.7 189.2,277.0 215.0,274.0 240.8,268.5 266.7,265.3 292.5,273.3 318.3,271.5 344.2,282.7 370.0,270.6 395.8,274.7 421.7,280.2 447.5,276.3 473.3,273.1 499.2,272.8 525.0,274.1 550.8,275.2 576.7,270.8 602.5,259.0 628.3,261.6 654.2,250.1 680.0,252.0" fill="none" stroke="#1f3a5f" stroke-width="2" stroke-dasharray="6 4"/>
<polyline points="60.0,267.0 85.8,291.5 111.7,295.8 137.5,283.3 163.3,271.6 189.2,275.3 215.0,265.0 240.8,266.6 266.7,277.5 292.5,276.1 318.3,263.7 344.2,283.7 370.0,262.7 395.8,275.1 421.7,280.8 447.5,264.7 473.3,263.7 499.2,263.3 525.0,253.3 550.8,269.1 576.7,250.9 602.5,237.7 628.3,244.5 654.2,253.9 680.0,245.3" fill="none" stroke="#b9461a" stroke-width="2.4"/>
<line x1="331.2" y1="50" x2="331.2" y2="330" stroke="#1f2024" stroke-width="0.8" stroke-dasharray="4 3"/>
<text x="331.2" y="45" text-anchor="middle" fill="#1f2024" font-size="10">adoption (2010)</text>
<line x1="60" y1="330" x2="680" y2="330" stroke="#444"/>
<line x1="60" y1="50" x2="60" y2="330" stroke="#444"/>
<line x1="60.0" y1="330" x2="60.0" y2="334" stroke="#444"/>
<text x="60.0" y="348" text-anchor="middle" fill="#444">1999</text>
<line x1="111.7" y1="330" x2="111.7" y2="334" stroke="#444"/>
<text x="111.7" y="348" text-anchor="middle" fill="#444">2001</text>
<line x1="163.3" y1="330" x2="163.3" y2="334" stroke="#444"/>
<text x="163.3" y="348" text-anchor="middle" fill="#444">2003</text>
<line x1="215.0" y1="330" x2="215.0" y2="334" stroke="#444"/>
<text x="215.0" y="348" text-anchor="middle" fill="#444">2005</text>
<line x1="266.7" y1="330" x2="266.7" y2="334" stroke="#444"/>
<text x="266.7" y="348" text-anchor="middle" fill="#444">2007</text>
<line x1="318.3" y1="330" x2="318.3" y2="334" stroke="#444"/>
<text x="318.3" y="348" text-anchor="middle" fill="#444">2009</text>
<line x1="370.0" y1="330" x2="370.0" y2="334" stroke="#444"/>
<text x="370.0" y="348" text-anchor="middle" fill="#444">2011</text>
<line x1="421.7" y1="330" x2="421.7" y2="334" stroke="#444"/>
<text x="421.7" y="348" text-anchor="middle" fill="#444">2013</text>
<line x1="473.3" y1="330" x2="473.3" y2="334" stroke="#444"/>
<text x="473.3" y="348" text-anchor="middle" fill="#444">2015</text>
<line x1="525.0" y1="330" x2="525.0" y2="334" stroke="#444"/>
<text x="525.0" y="348" text-anchor="middle" fill="#444">2017</text>
<line x1="576.7" y1="330" x2="576.7" y2="334" stroke="#444"/>
<text x="576.7" y="348" text-anchor="middle" fill="#444">2019</text>
<line x1="628.3" y1="330" x2="628.3" y2="334" stroke="#444"/>
<text x="628.3" y="348" text-anchor="middle" fill="#444">2021</text>
<line x1="680.0" y1="330" x2="680.0" y2="334" stroke="#444"/>
<text x="680.0" y="348" text-anchor="middle" fill="#444">2023</text>
<line x1="56" y1="330.0" x2="60" y2="330.0" stroke="#444"/>
<text x="53" y="333.0" text-anchor="end" fill="#444">-0.33</text>
<line x1="56" y1="260.0" x2="60" y2="260.0" stroke="#444"/>
<text x="53" y="263.0" text-anchor="end" fill="#444">4.9</text>
<line x1="56" y1="190.0" x2="60" y2="190.0" stroke="#444"/>
<text x="53" y="193.0" text-anchor="end" fill="#444">10</text>
<line x1="56" y1="120.0" x2="60" y2="120.0" stroke="#444"/>
<text x="53" y="123.0" text-anchor="end" fill="#444">15</text>
<line x1="56" y1="50.0" x2="60" y2="50.0" stroke="#444"/>
<text x="53" y="53.0" text-anchor="end" fill="#444">21</text>
<rect x="520" y="60" width="190" height="60" fill="white" stroke="#e2e2dc"/>
<line x1="530" y1="75" x2="560" y2="75" stroke="#b9461a" stroke-width="2.4"/>
<text x="565" y="79" font-size="11">West Virginia (treated)</text>
<line x1="530" y1="95" x2="560" y2="95" stroke="#1f3a5f" stroke-width="2" stroke-dasharray="6 4"/>
<text x="565" y="99" font-size="11">Synthetic counterfactual</text>
<line x1="530" y1="112" x2="560" y2="112" stroke="#bbb" stroke-width="0.6"/>
<text x="565" y="116" font-size="10">Donor states (gray)</text>
</svg>