<svg xmlns="http://www.w3.org/2000/svg" viewBox="0 0 720 380" font-family="-apple-system, Segoe UI, Helvetica, Arial, sans-serif" font-size="12">
<rect x="0" y="0" width="720" height="380" fill="#fafaf7"/>
<text x="360.0" y="22" text-anchor="middle" font-size="14" font-weight="600">West Virginia (2010): Motor vehicle theft rate (per 100k) [placebo]</text>
<polyline points="60.0,227.4 85.8,240.4 111.7,231.2 137.5,237.9 163.3,239.2 189.2,248.6 215.0,236.5 240.8,239.5 266.7,244.9 292.5,273.4 318.3,272.3 344.2,275.9 370.0,284.3 395.8,280.3 421.7,275.1 447.5,273.7 473.3,263.8 499.2,231.4 525.0,192.4 550.8,200.0 576.7,244.7 602.5,265.7 628.3,271.8 654.2,270.8 680.0,265.6" fill="none" stroke="#bbb" stroke-width="0.6" opacity="0.6"/>
<polyline points="60.0,258.2 85.8,261.2 111.7,262.5 137.5,255.9 163.3,250.6 189.2,256.0 215.0,261.0 240.8,252.0 266.7,256.5 292.5,261.0 318.3,273.8 344.2,276.2 370.0,277.0 395.8,281.1 421.7,277.8 447.5,280.1 473.3,279.2 499.2,272.4 525.0,267.3 550.8,265.1 576.7,268.2 602.5,277.0 628.3,284.2 654.2,277.5 680.0,277.2" fill="none" stroke="#bbb" stroke-width="0.6" opacity="0.6"/>
<polyline points="60.0,267.6 85.8,268.1 111.7,265.1 137.5,269.9 163.3,277.4 189.2,273.4 215.0,267.3 240.8,266.1 266.7,271.0 292.5,275.3 318.3,279.6 344.2,284.6 370.0,283.2 395.8,283.6 421.7,284.2 447.5,284.7 473.3,283.4 499.2,272.6 525.0,272.3 550.8,272.0 576.7,270.9 602.5,267.5 628.3,263.1 654.2,269.7 680.0,277.8" fill="none" stroke="#bbb" stroke-width="0.6" opacity="0.6"/>
<polyline points="60.0,138.4 85.8,128.5 111.7,94.5 137.5,76.3 163.3,85.4 189.2,99.4 215.0,109.2 240.8,110.1 266.7,140.3 292.5,188.0 318.3,234.2 344.2,249.0 370.0,256.8 395.8,260.8 421.7,268.9 447.5,268.6 473.3,271.2 499.2,266.1 525.0,265.5 550.8,266.1 576.7,271.0 602.5,272.3 628.3,272.1 654.2,270.2 680.0,259.9" fill="none" stroke="#bbb" stroke-width="0.6" opacity="0.6"/>
<polyline points="60.0,206.8 85.8,216.9 111.7,223.1 137.5,223.5 163.3,210.4 189.2,211.4 215.0,213.5 240.8,219.9 266.7,223.5 292.5,232.1 318.3,249.4 344.2,255.4 370.0,257.7 395.8,261.1 421.7,265.1 447.5,264.3 473.3,266.4 499.2,268.7 525.0,270.3 550.8,272.4 576.7,279.5 602.5,273.1 628.3,284.2 654.2,280.1 680.0,268.3" fill="none" stroke="#bbb" stroke-width="0.6" opacity="0.6"/>
<polyline points="60.0,293.9 85.8,291.6 111.7,286.9 137.5,283.3 163.3,283.8 189.2,283.2 215.0,281.9 240.8,290.4 266.7,294.0 292.5,304.1 318.3,307.4 344.2,309.9 370.0,310.1 395.8,309.4 421.7,307.4 447.5,305.6 473.3,303.1 499.2,300.6 525.0,300.2 550.8,303.4 576.7,308.7 602.5,307.0 628.3,308.5 654.2,308.0 680.0,311.7" fill="none" stroke="#bbb" stroke-width="0.6" opacity="0.6"/>
<polyline points="60.0,218.3 85.8,233.2 111.7,236.9 137.5,244.9 163.3,251.3 189.2,254.1 215.0,256.3 240.8,259.9 266.7,267.0 292.5,269.7 318.3,280.7 344.2,276.3 370.0,275.4 395.8,281.2 421.7,291.4 447.5,296.9 473.3,297.2 499.2,293.1 525.0,291.0 550.8,292.8 576.7,294.2 602.5,289.6 628.3,288.9 654.2,262.4 680.0,248.3" fill="none" stroke="#bbb" stroke-width="0.6" opacity="0.6"/>
<polyline points="60.0,248.4 85.8,247.1 111.7,246.1 137.5,251.3 163.3,249.9 189.2,249.0 215.0,247.1 240.8,248.3 266.7,256.9 292.5,264.4 318.3,278.6 344.2,280.4 370.0,275.7 395.8,280.2 421.7,278.5 447.5,279.9 473.3,281.2 499.2,278.1 525.0,277.2 550.8,275.8 576.7,281.2 602.5,275.5 628.3,279.9 654.2,282.8 680.0,274.0" fill="none" stroke="#bbb" stroke-width="0.6" opacity="0.6"/>
<polyline points="60.0,275.6 85.8,272.3 111.7,259.4 137.5,266.5 163.3,261.3 189.2,255.6 215.0,248.8 240.8,254.6 266.7,256.0 292.5,266.9 318.3,279.6 344.2,279.8 370.0,274.4 395.8,273.9 421.7,275.0 447.5,272.9 473.3,272.5 499.2,269.1 525.0,269.3 550.8,264.9 576.7,273.5 602.5,270.8 628.3,266.0 654.2,272.7 680.0,262.5" fill="none" stroke="#bbb" stroke-width="0.6" opacity="0.6"/>
<polyline points="60.0,276.6 85.8,275.2 111.7,277.5 137.5,275.6 163.3,282.2 189.2,279.5 215.0,279.7 240.8,276.9 266.7,281.2 292.5,287.2 318.3,296.3 344.2,295.8 370.0,293.4 395.8,293.4 421.7,297.1 447.5,295.6 473.3,287.6 499.2,276.5 525.0,274.5 550.8,274.0 576.7,275.1 602.5,268.7 628.3,271.5 654.2,276.3 680.0,262.0" fill="none" stroke="#bbb" stroke-width="0.6" opacity="0.6"/>
<polyline points="60.0,211.3 85.8,216.2 111.7,214.0 137.5,222.2 163.3,225.4 189.2,225.4 215.0,253.7 240.8,242.7 266.7,244.9 292.5,256.5 318.3,268.4 344.2,277.6 370.0,282.5 395.8,289.2 421.7,282.8 447.5,281.8 473.3,280.3 499.2,277.4 525.0,273.3 550.8,270.4 576.7,274.3 602.5,266.2 628.3,262.4 654.2,255.6 680.0,238.6" fill="none" stroke="#bbb" stroke-width="0.6" opacity="0.6"/>
<polyline points="60.0,297.8 85.8,305.4 111.7,299.0 137.5,303.8 163.3,303.6 189.2,306.5 215.0,305.7 240.8,305.8 266.7,307.0 292.5,308.7 318.3,311.6 344.2,312.3 370.0,310.8 395.8,312.3 421.7,313.8 447.5,315.8 473.3,315.5 499.2,316.2 525.0,316.0 550.8,316.3 576.7,317.3 602.5,314.9 628.3,314.6 654.2,313.0 680.0,311.1" fill="none" stroke="#bbb" stroke-width="0.6" opacity="0.6"/>
<polyline points="60.0,192.2 85.8,195.9 111.7,201.8 137.5,211.6 163.3,202.6 189.2,210.3 215.0,215.7 240.8,211.3 266.7,230.3 292.5,244.6 318.3,259.7 344.2,263.7 370.0,269.8 395.8,269.4 421.7,271.9 447.5,278.9 473.3,284.8 499.2,281.3 525.0,283.1 550.8,288.3 576.7,287.4 602.5,286.0 628.3,278.5 654.2,265.8 680.0,262.8" fill="none" stroke="#bbb" stroke-width="0.6" opacity="0.6"/>
<polyline points="60.0,263.6 85.8,264.8 111.7,258.0 137.5,264.2 163.3,265.2 189.2,266.7 215.0,263.5 240.8,268.6 266.7,271.9 292.5,283.4 318.3,291.3 344.2,291.5 370.0,293.7 395.8,292.5 421.7,295.0 447.5,293.5 473.3,295.3 499.2,292.4 525.0,287.2 550.8,286.9 576.7,282.4 602.5,270.3 628.3,269.9 654.2,260.9 680.0,266.3" fill="none" stroke="#bbb" stroke-width="0.6" opacity="0.6"/>
<polyline points="60.0,213.1 85.8,271.5 111.7,250.8 137.5,250.6 163.3,255.4 189.2,265.1 215.0,268.5 240.8,261.6 266.7,271.2 292.5,279.2 318.3,286.1 344.2,287.0 370.0,290.7 395.8,295.5 421.7,295.1 447.5,294.4 473.3,296.0 499.2,295.6 525.0,295.4 550.8,288.8 576.7,284.2 602.5,281.1 628.3,284.3 654.2,288.4 680.0,284.5" fill="none" stroke="#bbb" stroke-width="0.6" opacity="0.6"/>
<polyline points="60.0,279.3 85.8,279.8 111.7,282.0 137.5,283.3 163.3,280.5 189.2,288.4 215.0,279.7 240.8,280.8 266.7,279.0 292.5,286.2 318.3,290.6 344.2,292.7 370.0,295.4 395.8,289.7 421.7,285.8 447.5,282.0 473.3,274.0 499.2,266.5 525.0,271.1 550.8,266.6 576.7,276.2 602.5,270.9 628.3,264.4 654.2,276.0 680.0,284.1" fill="none" stroke="#bbb" stroke-width="0.6" opacity="0.6"/>
<polyline points="60.0,250.1 85.8,255.0 111.7,258.2 137.5,258.5 163.3,253.7 189.2,254.5 215.0,251.6 240.8,248.8 266.7,256.3 292.5,260.8 318.3,279.2 344.2,284.3 370.0,288.4 395.8,290.6 421.7,295.2 447.5,297.4 473.3,298.2 499.2,294.1 525.0,292.6 550.8,292.1 576.7,287.4 602.5,283.8 628.3,285.1 654.2,282.5 680.0,267.2" fill="none" stroke="#bbb" stroke-width="0.6" opacity="0.6"/>
<polyline points="60.0,291.0 85.8,293.4 111.7,289.3 137.5,291.7 163.3,289.4 189.2,294.9 215.0,289.7 240.8,289.3 266.7,293.4 292.5,296.2 318.3,296.4 344.2,299.2 370.0,295.7 395.8,289.9 421.7,282.7 447.5,280.1 473.3,275.3 499.2,268.2 525.0,274.3 550.8,273.6 576.7,272.5 602.5,265.3 628.3,263.1 654.2,268.6 680.0,277.1" fill="none" stroke="#bbb" stroke-width="0.6" opacity="0.6"/>
<polyline points="60.0,303.2 85.8,288.6 111.7,289.5 137.5,293.7 163.3,294.3 189.2,294.1 215.0,305.5 240.8,303.1 266.7,304.5 292.5,304.6 318.3,309.8 344.2,312.1 370.0,309.9 395.8,310.9 421.7,313.2 447.5,314.8 473.3,314.1 499.2,314.4 525.0,314.1 550.8,314.3 576.7,313.6 602.5,311.9 628.3,313.1 654.2,314.0 680.0,314.8" fill="none" stroke="#bbb" stroke-width="0.6" opacity="0.6"/>
<polyline points="60.0,218.3 85.8,233.5 111.7,236.8 137.5,234.0 163.3,238.1 189.2,230.7 215.0,231.6 240.8,217.1 266.7,221.9 292.5,233.4 318.3,252.7 344.2,269.3 370.0,268.0 395.8,267.4 421.7,261.5 447.5,257.9 473.3,230.7 499.2,195.3 525.0,196.2 550.8,215.4 576.7,223.5 602.5,227.8 628.3,215.1 654.2,200.9 680.0,206.0" fill="none" stroke="#bbb" stroke-width="0.6" opacity="0.6"/>
<polyline points="60.0,156.8 85.8,172.3 111.7,162.3 137.5,136.9 163.3,107.4 189.2,97.7 215.0,62.7 240.8,70.9 266.7,121.3 292.5,183.3 318.3,217.8 344.2,240.0 370.0,245.8 395.8,243.1 421.7,244.4 447.5,244.2 473.3,235.9 499.2,223.0 525.0,226.9 550.8,235.9 576.7,242.8 602.5,249.6 628.3,226.6 654.2,212.0 680.0,166.9" fill="none" stroke="#bbb" stroke-width="0.6" opacity="0.6"/>
<polyline points="60.0,243.6 85.8,244.5 111.7,243.4 137.5,242.5 163.3,241.7 189.2,242.1 215.0,236.2 240.8,240.2 266.7,240.1 292.5,257.7 318.3,262.2 344.2,264.5 370.0,260.0 395.8,256.5 421.7,260.0 447.5,263.7 473.3,265.2 499.2,255.2 525.0,255.2 550.8,248.6 576.7,248.6 602.5,239.6 628.3,237.5 654.2,254.6 680.0,266.7" fill="none" stroke="#bbb" stroke-width="0.6" opacity="0.6"/>
<polyline points="60.0,231.7 85.8,232.6 111.7,227.8 137.5,217.7 163.3,202.7 189.2,206.5 215.0,203.4 240.8,235.4 266.7,236.6 292.5,258.3 318.3,267.7 344.2,273.2 370.0,273.8 395.8,267.2 421.7,269.7 447.5,268.2 473.3,266.5 499.2,252.3 525.0,231.9 550.8,234.6 576.7,242.0 602.5,236.5 628.3,217.0 654.2,198.9 680.0,231.1" fill="none" stroke="#bbb" stroke-width="0.6" opacity="0.6"/>
<polyline points="60.0,251.8 85.8,259.3 111.7,260.7 137.5,266.4 163.3,265.4 189.2,270.3 215.0,273.4 240.8,273.0 266.7,279.1 292.5,286.9 318.3,296.3 344.2,298.7 370.0,298.5 395.8,301.8 421.7,304.4 447.5,305.8 473.3,307.5 499.2,305.7 525.0,305.9 550.8,305.6 576.7,307.0 602.5,301.2 628.3,298.3 654.2,290.6 680.0,267.0" fill="none" stroke="#bbb" stroke-width="0.6" opacity="0.6"/>
<polyline points="60.0,302.1 85.8,304.9 111.7,304.4 137.5,304.4 163.3,302.8 189.2,303.9 215.0,304.3 240.8,304.6 266.7,306.6 292.5,302.8 318.3,304.7 344.2,306.7 370.0,302.6 395.8,299.4 421.7,303.7 447.5,301.8 473.3,296.9 499.2,288.5 525.0,289.9 550.8,290.6 576.7,282.7 602.5,268.1 628.3,274.2 654.2,272.2 680.0,271.5" fill="none" stroke="#bbb" stroke-width="0.6" opacity="0.6"/>
<polyline points="60.0,219.9 85.8,214.3 111.7,212.4 137.5,220.4 163.3,221.7 189.2,229.5 215.0,228.7 240.8,240.3 266.7,245.7 292.5,256.2 318.3,273.1 344.2,274.3 370.0,277.3 395.8,282.1 421.7,286.3 447.5,283.9 473.3,282.8 499.2,275.3 525.0,263.9 550.8,257.1 576.7,262.5 602.5,256.8 628.3,258.9 654.2,242.2 680.0,221.8" fill="none" stroke="#bbb" stroke-width="0.6" opacity="0.6"/>
<polyline points="60.0,220.2 85.8,223.2 111.7,215.1 137.5,217.0 163.3,223.7 189.2,229.9 215.0,232.6 240.8,232.9 266.7,236.0 292.5,246.1 318.3,256.2 344.2,265.7 370.0,270.4 395.8,270.4 421.7,270.7 447.5,269.4 473.3,271.2 499.2,271.0 525.0,272.7 550.8,271.6 576.7,265.4 602.5,261.4 628.3,257.7 654.2,250.6 680.0,232.6" fill="none" stroke="#bbb" stroke-width="0.6" opacity="0.6"/>
<polyline points="60.0,247.2 85.8,260.9 111.7,261.7 137.5,250.4 163.3,250.7 189.2,254.5 215.0,248.5 240.8,251.6 266.7,249.5 292.5,266.2 318.3,270.5 344.2,278.6 370.0,277.5 395.8,279.6 421.7,268.4 447.5,270.6 473.3,260.3 499.2,256.5 525.0,257.1 550.8,270.9 576.7,279.8 602.5,254.4 628.3,268.7 654.2,280.2 680.0,294.9" fill="none" stroke="#bbb" stroke-width="0.6" opacity="0.6"/>
<polyline points="60.0,267.6 85.8,269.9 111.7,267.5 137.5,269.5 163.3,271.7 189.2,274.3 215.0,279.5 240.8,283.8 266.7,286.4 292.5,289.0 318.3,294.7 344.2,298.5 370.0,301.3 395.8,303.5 421.7,305.2 447.5,308.0 473.3,306.7 499.2,302.2 525.0,301.4 550.8,299.8 576.7,301.3 602.5,299.9 628.3,298.5 654.2,291.3 680.0,288.6" fill="none" stroke="#bbb" stroke-width="0.6" opacity="0.6"/>
<polyline points="60.0,267.1 85.8,264.8 111.7,265.0 137.5,270.9 163.3,276.1 189.2,280.7 215.0,275.7 240.8,269.7 266.7,272.6 292.5,281.1 318.3,292.4 344.2,295.9 370.0,295.5 395.8,295.8 421.7,299.4 447.5,289.0 473.3,284.5 499.2,288.9 525.0,291.0 550.8,294.4 576.7,299.2 602.5,291.6 628.3,255.0 654.2,275.9 680.0,289.2" fill="none" stroke="#bbb" stroke-width="0.6" opacity="0.6"/>
<polyline points="60.0,259.7 85.8,265.3 111.7,263.2 137.5,262.4 163.3,261.7 189.2,264.0 215.0,262.4 240.8,263.3 266.7,267.7 292.5,276.6 318.3,284.4 344.2,289.0 370.0,289.2 395.8,289.0 421.7,287.6 447.5,287.3 473.3,283.4 499.2,277.3 525.0,277.1 550.8,279.4 576.7,281.3 602.5,274.7 628.3,274.7 654.2,275.0 680.0,274.9" fill="none" stroke="#1f3a5f" stroke-width="2" stroke-dasharray="6 4"/>
<polyline points="60.0,280.3 85.8,286.3 111.7,287.4 137.5,278.5 163.3,284.4 189.2,280.4 215.0,279.7 240.8,276.7 266.7,284.2 292.5,288.4 318.3,293.9 344.2,298.9 370.0,303.0 395.8,301.4 421.7,304.8 447.5,304.8 473.3,301.0 499.2,297.5 525.0,289.5 550.8,301.1 576.7,300.6 602.5,299.7 628.3,303.7 654.2,307.6 680.0,308.2" fill="none" stroke="#b9461a" stroke-width="2.4"/>
<line x1="331.2" y1="50" x2="331.2" y2="330" stroke="#1f2024" stroke-width="0.8" stroke-dasharray="4 3"/>
<text x="331.2" y="45" text-anchor="middle" fill="#1f2024" font-size="10">adoption (2010)</text>
<line x1="60" y1="330" x2="680" y2="330" stroke="#444"/>
<line x1="60" y1="50" x2="60" y2="330" stroke="#444"/>
<line x1="60.0" y1="330" x2="60.0" y2="334" stroke="#444"/>
<text x="60.0" y="348" text-anchor="middle" fill="#444">1999</text>
<line x1="111.7" y1="330" x2="111.7" y2="334" stroke="#444"/>
<text x="111.7" y="348" text-anchor="middle" fill="#444">2001</text>
<line x1="163.3" y1="330" x2="163.3" y2="334" stroke="#444"/>
<text x="163.3" y="348" text-anchor="middle" fill="#444">2003</text>
<line x1="215.0" y1="330" x2="215.0" y2="334" stroke="#444"/>
<text x="215.0" y="348" text-anchor="middle" fill="#444">2005</text>
<line x1="266.7" y1="330" x2="266.7" y2="334" stroke="#444"/>
<text x="266.7" y="348" text-anchor="middle" fill="#444">2007</text>
<line x1="318.3" y1="330" x2="318.3" y2="334" stroke="#444"/>
<text x="318.3" y="348" text-anchor="middle" fill="#444">2009</text>
<line x1="370.0" y1="330" x2="370.0" y2="334" stroke="#444"/>
<text x="370.0" y="348" text-anchor="middle" fill="#444">2011</text>
<line x1="421.7" y1="330" x2="421.7" y2="334" stroke="#444"/>
<text x="421.7" y="348" text-anchor="middle" fill="#444">2013</text>
<line x1="473.3" y1="330" x2="473.3" y2="334" stroke="#444"/>
<text x="473.3" y="348" text-anchor="middle" fill="#444">2015</text>
<line x1="525.0" y1="330" x2="525.0" y2="334" stroke="#444"/>
<text x="525.0" y="348" text-anchor="middle" fill="#444">2017</text>
<line x1="576.7" y1="330" x2="576.7" y2="334" stroke="#444"/>
<text x="576.7" y="348" text-anchor="middle" fill="#444">2019</text>
<line x1="628.3" y1="330" x2="628.3" y2="334" stroke="#444"/>
<text x="628.3" y="348" text-anchor="middle" fill="#444">2021</text>
<line x1="680.0" y1="330" x2="680.0" y2="334" stroke="#444"/>
<text x="680.0" y="348" text-anchor="middle" fill="#444">2023</text>
<line x1="56" y1="330.0" x2="60" y2="330.0" stroke="#444"/>
<text x="53" y="333.0" text-anchor="end" fill="#444">0.82</text>
<line x1="56" y1="260.0" x2="60" y2="260.0" stroke="#444"/>
<text x="53" y="263.0" text-anchor="end" fill="#444">2.9e+02</text>
<line x1="56" y1="190.0" x2="60" y2="190.0" stroke="#444"/>
<text x="53" y="193.0" text-anchor="end" fill="#444">5.9e+02</text>
<line x1="56" y1="120.0" x2="60" y2="120.0" stroke="#444"/>
<text x="53" y="123.0" text-anchor="end" fill="#444">8.8e+02</text>
<line x1="56" y1="50.0" x2="60" y2="50.0" stroke="#444"/>
<text x="53" y="53.0" text-anchor="end" fill="#444">1.2e+03</text>
<rect x="520" y="60" width="190" height="60" fill="white" stroke="#e2e2dc"/>
<line x1="530" y1="75" x2="560" y2="75" stroke="#b9461a" stroke-width="2.4"/>
<text x="565" y="79" font-size="11">West Virginia (treated)</text>
<line x1="530" y1="95" x2="560" y2="95" stroke="#1f3a5f" stroke-width="2" stroke-dasharray="6 4"/>
<text x="565" y="99" font-size="11">Synthetic counterfactual</text>
<line x1="530" y1="112" x2="560" y2="112" stroke="#bbb" stroke-width="0.6"/>
<text x="565" y="116" font-size="10">Donor states (gray)</text>
</svg>