<svg xmlns="http://www.w3.org/2000/svg" viewBox="0 0 820 620" font-family="-apple-system, Segoe UI, Helvetica, Arial, sans-serif" font-size="11">
<text x="410.0" y="22" text-anchor="middle" font-size="14" font-weight="600">Callaway-Sant'Anna ATT by event time (UNWEIGHTED) -- stacked DiD (magazine_ban)</text>
<rect x="15" y="40" width="380" height="260" fill="#fafaf7" stroke="#e2e2dc"/>
<text x="205.0" y="58" text-anchor="middle" font-weight="600">Firearm suicide rate (per 100k)</text>
<line x1="75" y1="151.5466183158058" x2="377" y2="151.5466183158058" stroke="#aaaaaa" stroke-width="0.7"/>
<polygon points="88.7,99.4 116.2,119.5 143.6,111.0 171.1,101.6 198.5,151.5 226.0,120.8 253.5,106.7 280.9,112.5 308.4,90.0 335.8,170.7 363.3,100.2 363.3,231.6 335.8,250.0 308.4,195.4 280.9,199.2 253.5,171.2 226.0,206.2 198.5,151.5 171.1,173.9 143.6,196.7 116.2,160.2 88.7,187.0" fill="#1f3a5f" opacity="0.18"/>
<polyline points="88.7,143.2 116.2,139.8 143.6,153.8 171.1,137.8 198.5,151.5 226.0,163.5 253.5,139.0 280.9,155.8 308.4,142.7 335.8,210.3 363.3,165.9" fill="none" stroke="#1f3a5f" stroke-width="1.6"/>
<circle cx="88.7" cy="143.2" r="2.6" fill="#1f3a5f"/>
<circle cx="116.2" cy="139.8" r="2.6" fill="#1f3a5f"/>
<circle cx="143.6" cy="153.8" r="2.6" fill="#1f3a5f"/>
<circle cx="171.1" cy="137.8" r="2.6" fill="#1f3a5f"/>
<circle cx="198.5" cy="151.5" r="2.6" fill="#1f3a5f"/>
<circle cx="226.0" cy="163.5" r="2.6" fill="#1f3a5f"/>
<circle cx="253.5" cy="139.0" r="2.6" fill="#1f3a5f"/>
<circle cx="280.9" cy="155.8" r="2.6" fill="#1f3a5f"/>
<circle cx="308.4" cy="142.7" r="2.6" fill="#1f3a5f"/>
<circle cx="335.8" cy="210.3" r="2.6" fill="#1f3a5f"/>
<circle cx="363.3" cy="165.9" r="2.6" fill="#1f3a5f"/>
<line x1="212.3" y1="90" x2="212.3" y2="250" stroke="#b9461a" stroke-dasharray="3 3"/>
<line x1="75" y1="250" x2="377" y2="250" stroke="#444"/>
<line x1="75" y1="90" x2="75" y2="250" stroke="#444"/>
<line x1="88.7" y1="250" x2="88.7" y2="253" stroke="#444"/>
<text x="88.7" y="265" text-anchor="middle" fill="#444">-5</text>
<line x1="116.2" y1="250" x2="116.2" y2="253" stroke="#444"/>
<text x="116.2" y="265" text-anchor="middle" fill="#444">-4</text>
<line x1="143.6" y1="250" x2="143.6" y2="253" stroke="#444"/>
<text x="143.6" y="265" text-anchor="middle" fill="#444">-3</text>
<line x1="171.1" y1="250" x2="171.1" y2="253" stroke="#444"/>
<text x="171.1" y="265" text-anchor="middle" fill="#444">-2</text>
<line x1="198.5" y1="250" x2="198.5" y2="253" stroke="#444"/>
<text x="198.5" y="265" text-anchor="middle" fill="#444">-1</text>
<line x1="226.0" y1="250" x2="226.0" y2="253" stroke="#444"/>
<text x="226.0" y="265" text-anchor="middle" fill="#444">0</text>
<line x1="253.5" y1="250" x2="253.5" y2="253" stroke="#444"/>
<text x="253.5" y="265" text-anchor="middle" fill="#444">1</text>
<line x1="280.9" y1="250" x2="280.9" y2="253" stroke="#444"/>
<text x="280.9" y="265" text-anchor="middle" fill="#444">2</text>
<line x1="308.4" y1="250" x2="308.4" y2="253" stroke="#444"/>
<text x="308.4" y="265" text-anchor="middle" fill="#444">3</text>
<line x1="335.8" y1="250" x2="335.8" y2="253" stroke="#444"/>
<text x="335.8" y="265" text-anchor="middle" fill="#444">4</text>
<line x1="363.3" y1="250" x2="363.3" y2="253" stroke="#444"/>
<text x="363.3" y="265" text-anchor="middle" fill="#444">5</text>
<line x1="72" y1="250.0" x2="75" y2="250.0" stroke="#444"/>
<text x="69" y="253.0" text-anchor="end" fill="#444">-1.3</text>
<line x1="72" y1="210.0" x2="75" y2="210.0" stroke="#444"/>
<text x="69" y="213.0" text-anchor="end" fill="#444">-0.78</text>
<line x1="72" y1="170.0" x2="75" y2="170.0" stroke="#444"/>
<text x="69" y="173.0" text-anchor="end" fill="#444">-0.24</text>
<line x1="72" y1="130.0" x2="75" y2="130.0" stroke="#444"/>
<text x="69" y="133.0" text-anchor="end" fill="#444">0.29</text>
<line x1="72" y1="90.0" x2="75" y2="90.0" stroke="#444"/>
<text x="69" y="93.0" text-anchor="end" fill="#444">0.82</text>
<text x="226.0" y="284" text-anchor="middle" fill="#444">Event time (years from adoption)</text>
<text x="27" y="170.0" text-anchor="middle" fill="#444" transform="rotate(-90 27 170.0)">ATT (per 100k)</text>
<rect x="425" y="40" width="380" height="260" fill="#fafaf7" stroke="#e2e2dc"/>
<text x="615.0" y="58" text-anchor="middle" font-weight="600">Non-firearm suicide rate (per 100k) [substitution test]</text>
<line x1="485" y1="199.34904693245903" x2="787" y2="199.34904693245903" stroke="#aaaaaa" stroke-width="0.7"/>
<polygon points="498.7,168.3 526.2,141.3 553.6,187.7 581.1,183.1 608.5,199.3 636.0,156.8 663.5,181.5 690.9,198.2 718.4,90.0 745.8,172.7 773.3,166.7 773.3,194.5 745.8,217.8 718.4,221.9 690.9,245.8 663.5,238.8 636.0,225.9 608.5,199.3 581.1,249.1 553.6,250.0 526.2,223.0 498.7,214.8" fill="#1f3a5f" opacity="0.18"/>
<polyline points="498.7,191.6 526.2,182.1 553.6,218.9 581.1,216.1 608.5,199.3 636.0,191.4 663.5,210.1 690.9,222.0 718.4,156.0 745.8,195.2 773.3,180.6" fill="none" stroke="#1f3a5f" stroke-width="1.6"/>
<circle cx="498.7" cy="191.6" r="2.6" fill="#1f3a5f"/>
<circle cx="526.2" cy="182.1" r="2.6" fill="#1f3a5f"/>
<circle cx="553.6" cy="218.9" r="2.6" fill="#1f3a5f"/>
<circle cx="581.1" cy="216.1" r="2.6" fill="#1f3a5f"/>
<circle cx="608.5" cy="199.3" r="2.6" fill="#1f3a5f"/>
<circle cx="636.0" cy="191.4" r="2.6" fill="#1f3a5f"/>
<circle cx="663.5" cy="210.1" r="2.6" fill="#1f3a5f"/>
<circle cx="690.9" cy="222.0" r="2.6" fill="#1f3a5f"/>
<circle cx="718.4" cy="156.0" r="2.6" fill="#1f3a5f"/>
<circle cx="745.8" cy="195.2" r="2.6" fill="#1f3a5f"/>
<circle cx="773.3" cy="180.6" r="2.6" fill="#1f3a5f"/>
<line x1="622.3" y1="90" x2="622.3" y2="250" stroke="#b9461a" stroke-dasharray="3 3"/>
<line x1="485" y1="250" x2="787" y2="250" stroke="#444"/>
<line x1="485" y1="90" x2="485" y2="250" stroke="#444"/>
<line x1="498.7" y1="250" x2="498.7" y2="253" stroke="#444"/>
<text x="498.7" y="265" text-anchor="middle" fill="#444">-5</text>
<line x1="526.2" y1="250" x2="526.2" y2="253" stroke="#444"/>
<text x="526.2" y="265" text-anchor="middle" fill="#444">-4</text>
<line x1="553.6" y1="250" x2="553.6" y2="253" stroke="#444"/>
<text x="553.6" y="265" text-anchor="middle" fill="#444">-3</text>
<line x1="581.1" y1="250" x2="581.1" y2="253" stroke="#444"/>
<text x="581.1" y="265" text-anchor="middle" fill="#444">-2</text>
<line x1="608.5" y1="250" x2="608.5" y2="253" stroke="#444"/>
<text x="608.5" y="265" text-anchor="middle" fill="#444">-1</text>
<line x1="636.0" y1="250" x2="636.0" y2="253" stroke="#444"/>
<text x="636.0" y="265" text-anchor="middle" fill="#444">0</text>
<line x1="663.5" y1="250" x2="663.5" y2="253" stroke="#444"/>
<text x="663.5" y="265" text-anchor="middle" fill="#444">1</text>
<line x1="690.9" y1="250" x2="690.9" y2="253" stroke="#444"/>
<text x="690.9" y="265" text-anchor="middle" fill="#444">2</text>
<line x1="718.4" y1="250" x2="718.4" y2="253" stroke="#444"/>
<text x="718.4" y="265" text-anchor="middle" fill="#444">3</text>
<line x1="745.8" y1="250" x2="745.8" y2="253" stroke="#444"/>
<text x="745.8" y="265" text-anchor="middle" fill="#444">4</text>
<line x1="773.3" y1="250" x2="773.3" y2="253" stroke="#444"/>
<text x="773.3" y="265" text-anchor="middle" fill="#444">5</text>
<line x1="482" y1="250.0" x2="485" y2="250.0" stroke="#444"/>
<text x="479" y="253.0" text-anchor="end" fill="#444">-0.91</text>
<line x1="482" y1="210.0" x2="485" y2="210.0" stroke="#444"/>
<text x="479" y="213.0" text-anchor="end" fill="#444">-0.19</text>
<line x1="482" y1="170.0" x2="485" y2="170.0" stroke="#444"/>
<text x="479" y="173.0" text-anchor="end" fill="#444">0.53</text>
<line x1="482" y1="130.0" x2="485" y2="130.0" stroke="#444"/>
<text x="479" y="133.0" text-anchor="end" fill="#444">1.2</text>
<line x1="482" y1="90.0" x2="485" y2="90.0" stroke="#444"/>
<text x="479" y="93.0" text-anchor="end" fill="#444">2</text>
<text x="636.0" y="284" text-anchor="middle" fill="#444">Event time (years from adoption)</text>
<text x="437" y="170.0" text-anchor="middle" fill="#444" transform="rotate(-90 437 170.0)">ATT (per 100k)</text>
<rect x="15" y="330" width="380" height="260" fill="#fafaf7" stroke="#e2e2dc"/>
<text x="205.0" y="348" text-anchor="middle" font-weight="600">Total suicide rate (per 100k) [net effect]</text>
<line x1="75" y1="479.0254634985621" x2="377" y2="479.0254634985621" stroke="#aaaaaa" stroke-width="0.7"/>
<polygon points="88.7,427.7 116.2,418.5 143.6,455.0 171.1,453.2 198.5,479.0 226.0,454.9 253.5,438.2 280.9,485.1 308.4,380.0 335.8,485.4 363.3,429.4 363.3,514.6 335.8,540.0 308.4,492.5 280.9,517.3 253.5,522.4 226.0,504.5 198.5,479.0 171.1,516.1 143.6,539.4 116.2,495.2 88.7,506.5" fill="#1f3a5f" opacity="0.18"/>
<polyline points="88.7,467.1 116.2,456.9 143.6,497.2 171.1,484.7 198.5,479.0 226.0,479.7 253.5,480.3 280.9,501.2 308.4,436.3 335.8,512.7 363.3,472.0" fill="none" stroke="#1f3a5f" stroke-width="1.6"/>
<circle cx="88.7" cy="467.1" r="2.6" fill="#1f3a5f"/>
<circle cx="116.2" cy="456.9" r="2.6" fill="#1f3a5f"/>
<circle cx="143.6" cy="497.2" r="2.6" fill="#1f3a5f"/>
<circle cx="171.1" cy="484.7" r="2.6" fill="#1f3a5f"/>
<circle cx="198.5" cy="479.0" r="2.6" fill="#1f3a5f"/>
<circle cx="226.0" cy="479.7" r="2.6" fill="#1f3a5f"/>
<circle cx="253.5" cy="480.3" r="2.6" fill="#1f3a5f"/>
<circle cx="280.9" cy="501.2" r="2.6" fill="#1f3a5f"/>
<circle cx="308.4" cy="436.3" r="2.6" fill="#1f3a5f"/>
<circle cx="335.8" cy="512.7" r="2.6" fill="#1f3a5f"/>
<circle cx="363.3" cy="472.0" r="2.6" fill="#1f3a5f"/>
<line x1="212.3" y1="380" x2="212.3" y2="540" stroke="#b9461a" stroke-dasharray="3 3"/>
<line x1="75" y1="540" x2="377" y2="540" stroke="#444"/>
<line x1="75" y1="380" x2="75" y2="540" stroke="#444"/>
<line x1="88.7" y1="540" x2="88.7" y2="543" stroke="#444"/>
<text x="88.7" y="555" text-anchor="middle" fill="#444">-5</text>
<line x1="116.2" y1="540" x2="116.2" y2="543" stroke="#444"/>
<text x="116.2" y="555" text-anchor="middle" fill="#444">-4</text>
<line x1="143.6" y1="540" x2="143.6" y2="543" stroke="#444"/>
<text x="143.6" y="555" text-anchor="middle" fill="#444">-3</text>
<line x1="171.1" y1="540" x2="171.1" y2="543" stroke="#444"/>
<text x="171.1" y="555" text-anchor="middle" fill="#444">-2</text>
<line x1="198.5" y1="540" x2="198.5" y2="543" stroke="#444"/>
<text x="198.5" y="555" text-anchor="middle" fill="#444">-1</text>
<line x1="226.0" y1="540" x2="226.0" y2="543" stroke="#444"/>
<text x="226.0" y="555" text-anchor="middle" fill="#444">0</text>
<line x1="253.5" y1="540" x2="253.5" y2="543" stroke="#444"/>
<text x="253.5" y="555" text-anchor="middle" fill="#444">1</text>
<line x1="280.9" y1="540" x2="280.9" y2="543" stroke="#444"/>
<text x="280.9" y="555" text-anchor="middle" fill="#444">2</text>
<line x1="308.4" y1="540" x2="308.4" y2="543" stroke="#444"/>
<text x="308.4" y="555" text-anchor="middle" fill="#444">3</text>
<line x1="335.8" y1="540" x2="335.8" y2="543" stroke="#444"/>
<text x="335.8" y="555" text-anchor="middle" fill="#444">4</text>
<line x1="363.3" y1="540" x2="363.3" y2="543" stroke="#444"/>
<text x="363.3" y="555" text-anchor="middle" fill="#444">5</text>
<line x1="72" y1="540.0" x2="75" y2="540.0" stroke="#444"/>
<text x="69" y="543.0" text-anchor="end" fill="#444">-1.3</text>
<line x1="72" y1="500.0" x2="75" y2="500.0" stroke="#444"/>
<text x="69" y="503.0" text-anchor="end" fill="#444">-0.44</text>
<line x1="72" y1="460.0" x2="75" y2="460.0" stroke="#444"/>
<text x="69" y="463.0" text-anchor="end" fill="#444">0.4</text>
<line x1="72" y1="420.0" x2="75" y2="420.0" stroke="#444"/>
<text x="69" y="423.0" text-anchor="end" fill="#444">1.2</text>
<line x1="72" y1="380.0" x2="75" y2="380.0" stroke="#444"/>
<text x="69" y="383.0" text-anchor="end" fill="#444">2.1</text>
<text x="226.0" y="574" text-anchor="middle" fill="#444">Event time (years from adoption)</text>
<text x="27" y="460.0" text-anchor="middle" fill="#444" transform="rotate(-90 27 460.0)">ATT (per 100k)</text>
<rect x="425" y="330" width="380" height="260" fill="#fafaf7" stroke="#e2e2dc"/>
<text x="615.0" y="348" text-anchor="middle" font-weight="600">Firearm homicide rate (per 100k)</text>
<line x1="485" y1="441.40978948521445" x2="787" y2="441.40978948521445" stroke="#aaaaaa" stroke-width="0.7"/>
<polygon points="498.7,395.6 526.2,395.0 553.6,390.2 581.1,380.0 608.5,441.4 636.0,427.8 663.5,422.7 690.9,436.7 718.4,435.8 745.8,455.8 773.3,418.1 773.3,517.5 745.8,505.4 718.4,540.0 690.9,524.8 663.5,501.8 636.0,495.6 608.5,441.4 581.1,454.3 553.6,441.9 526.2,457.3 498.7,452.2" fill="#1f3a5f" opacity="0.18"/>
<polyline points="498.7,423.9 526.2,426.1 553.6,416.1 581.1,417.1 608.5,441.4 636.0,461.7 663.5,462.3 690.9,480.7 718.4,487.9 745.8,480.6 773.3,467.8" fill="none" stroke="#1f3a5f" stroke-width="1.6"/>
<circle cx="498.7" cy="423.9" r="2.6" fill="#1f3a5f"/>
<circle cx="526.2" cy="426.1" r="2.6" fill="#1f3a5f"/>
<circle cx="553.6" cy="416.1" r="2.6" fill="#1f3a5f"/>
<circle cx="581.1" cy="417.1" r="2.6" fill="#1f3a5f"/>
<circle cx="608.5" cy="441.4" r="2.6" fill="#1f3a5f"/>
<circle cx="636.0" cy="461.7" r="2.6" fill="#1f3a5f"/>
<circle cx="663.5" cy="462.3" r="2.6" fill="#1f3a5f"/>
<circle cx="690.9" cy="480.7" r="2.6" fill="#1f3a5f"/>
<circle cx="718.4" cy="487.9" r="2.6" fill="#1f3a5f"/>
<circle cx="745.8" cy="480.6" r="2.6" fill="#1f3a5f"/>
<circle cx="773.3" cy="467.8" r="2.6" fill="#1f3a5f"/>
<line x1="622.3" y1="380" x2="622.3" y2="540" stroke="#b9461a" stroke-dasharray="3 3"/>
<line x1="485" y1="540" x2="787" y2="540" stroke="#444"/>
<line x1="485" y1="380" x2="485" y2="540" stroke="#444"/>
<line x1="498.7" y1="540" x2="498.7" y2="543" stroke="#444"/>
<text x="498.7" y="555" text-anchor="middle" fill="#444">-5</text>
<line x1="526.2" y1="540" x2="526.2" y2="543" stroke="#444"/>
<text x="526.2" y="555" text-anchor="middle" fill="#444">-4</text>
<line x1="553.6" y1="540" x2="553.6" y2="543" stroke="#444"/>
<text x="553.6" y="555" text-anchor="middle" fill="#444">-3</text>
<line x1="581.1" y1="540" x2="581.1" y2="543" stroke="#444"/>
<text x="581.1" y="555" text-anchor="middle" fill="#444">-2</text>
<line x1="608.5" y1="540" x2="608.5" y2="543" stroke="#444"/>
<text x="608.5" y="555" text-anchor="middle" fill="#444">-1</text>
<line x1="636.0" y1="540" x2="636.0" y2="543" stroke="#444"/>
<text x="636.0" y="555" text-anchor="middle" fill="#444">0</text>
<line x1="663.5" y1="540" x2="663.5" y2="543" stroke="#444"/>
<text x="663.5" y="555" text-anchor="middle" fill="#444">1</text>
<line x1="690.9" y1="540" x2="690.9" y2="543" stroke="#444"/>
<text x="690.9" y="555" text-anchor="middle" fill="#444">2</text>
<line x1="718.4" y1="540" x2="718.4" y2="543" stroke="#444"/>
<text x="718.4" y="555" text-anchor="middle" fill="#444">3</text>
<line x1="745.8" y1="540" x2="745.8" y2="543" stroke="#444"/>
<text x="745.8" y="555" text-anchor="middle" fill="#444">4</text>
<line x1="773.3" y1="540" x2="773.3" y2="543" stroke="#444"/>
<text x="773.3" y="555" text-anchor="middle" fill="#444">5</text>
<line x1="482" y1="540.0" x2="485" y2="540.0" stroke="#444"/>
<text x="479" y="543.0" text-anchor="end" fill="#444">-1.8</text>
<line x1="482" y1="500.0" x2="485" y2="500.0" stroke="#444"/>
<text x="479" y="503.0" text-anchor="end" fill="#444">-1.1</text>
<line x1="482" y1="460.0" x2="485" y2="460.0" stroke="#444"/>
<text x="479" y="463.0" text-anchor="end" fill="#444">-0.34</text>
<line x1="482" y1="420.0" x2="485" y2="420.0" stroke="#444"/>
<text x="479" y="423.0" text-anchor="end" fill="#444">0.39</text>
<line x1="482" y1="380.0" x2="485" y2="380.0" stroke="#444"/>
<text x="479" y="383.0" text-anchor="end" fill="#444">1.1</text>
<text x="636.0" y="574" text-anchor="middle" fill="#444">Event time (years from adoption)</text>
<text x="437" y="460.0" text-anchor="middle" fill="#444" transform="rotate(-90 437 460.0)">ATT (per 100k)</text>
<rect x="15" y="620" width="380" height="260" fill="#fafaf7" stroke="#e2e2dc"/>
<text x="205.0" y="638" text-anchor="middle" font-weight="600">Total homicide rate (per 100k)</text>
<line x1="75" y1="716.3878325205159" x2="377" y2="716.3878325205159" stroke="#aaaaaa" stroke-width="0.7"/>
<polygon points="88.7,686.6 116.2,696.3 143.6,670.0 171.1,670.9 198.5,716.4 226.0,702.5 253.5,693.6 280.9,710.8 308.4,745.8 335.8,692.1 363.3,695.7 363.3,763.8 335.8,755.2 308.4,830.0 280.9,763.4 253.5,765.7 226.0,786.8 198.5,716.4 171.1,717.7 143.6,730.4 116.2,726.5 88.7,722.1" fill="#1f3a5f" opacity="0.18"/>
<polyline points="88.7,704.3 116.2,711.4 143.6,700.2 171.1,694.3 198.5,716.4 226.0,744.6 253.5,729.6 280.9,737.1 308.4,787.9 335.8,723.7 363.3,729.8" fill="none" stroke="#1f3a5f" stroke-width="1.6"/>
<circle cx="88.7" cy="704.3" r="2.6" fill="#1f3a5f"/>
<circle cx="116.2" cy="711.4" r="2.6" fill="#1f3a5f"/>
<circle cx="143.6" cy="700.2" r="2.6" fill="#1f3a5f"/>
<circle cx="171.1" cy="694.3" r="2.6" fill="#1f3a5f"/>
<circle cx="198.5" cy="716.4" r="2.6" fill="#1f3a5f"/>
<circle cx="226.0" cy="744.6" r="2.6" fill="#1f3a5f"/>
<circle cx="253.5" cy="729.6" r="2.6" fill="#1f3a5f"/>
<circle cx="280.9" cy="737.1" r="2.6" fill="#1f3a5f"/>
<circle cx="308.4" cy="787.9" r="2.6" fill="#1f3a5f"/>
<circle cx="335.8" cy="723.7" r="2.6" fill="#1f3a5f"/>
<circle cx="363.3" cy="729.8" r="2.6" fill="#1f3a5f"/>
<line x1="212.3" y1="670" x2="212.3" y2="830" stroke="#b9461a" stroke-dasharray="3 3"/>
<line x1="75" y1="830" x2="377" y2="830" stroke="#444"/>
<line x1="75" y1="670" x2="75" y2="830" stroke="#444"/>
<line x1="88.7" y1="830" x2="88.7" y2="833" stroke="#444"/>
<text x="88.7" y="845" text-anchor="middle" fill="#444">-5</text>
<line x1="116.2" y1="830" x2="116.2" y2="833" stroke="#444"/>
<text x="116.2" y="845" text-anchor="middle" fill="#444">-4</text>
<line x1="143.6" y1="830" x2="143.6" y2="833" stroke="#444"/>
<text x="143.6" y="845" text-anchor="middle" fill="#444">-3</text>
<line x1="171.1" y1="830" x2="171.1" y2="833" stroke="#444"/>
<text x="171.1" y="845" text-anchor="middle" fill="#444">-2</text>
<line x1="198.5" y1="830" x2="198.5" y2="833" stroke="#444"/>
<text x="198.5" y="845" text-anchor="middle" fill="#444">-1</text>
<line x1="226.0" y1="830" x2="226.0" y2="833" stroke="#444"/>
<text x="226.0" y="845" text-anchor="middle" fill="#444">0</text>
<line x1="253.5" y1="830" x2="253.5" y2="833" stroke="#444"/>
<text x="253.5" y="845" text-anchor="middle" fill="#444">1</text>
<line x1="280.9" y1="830" x2="280.9" y2="833" stroke="#444"/>
<text x="280.9" y="845" text-anchor="middle" fill="#444">2</text>
<line x1="308.4" y1="830" x2="308.4" y2="833" stroke="#444"/>
<text x="308.4" y="845" text-anchor="middle" fill="#444">3</text>
<line x1="335.8" y1="830" x2="335.8" y2="833" stroke="#444"/>
<text x="335.8" y="845" text-anchor="middle" fill="#444">4</text>
<line x1="363.3" y1="830" x2="363.3" y2="833" stroke="#444"/>
<text x="363.3" y="845" text-anchor="middle" fill="#444">5</text>
<line x1="72" y1="830.0" x2="75" y2="830.0" stroke="#444"/>
<text x="69" y="833.0" text-anchor="end" fill="#444">-2.1</text>
<line x1="72" y1="790.0" x2="75" y2="790.0" stroke="#444"/>
<text x="69" y="793.0" text-anchor="end" fill="#444">-1.4</text>
<line x1="72" y1="750.0" x2="75" y2="750.0" stroke="#444"/>
<text x="69" y="753.0" text-anchor="end" fill="#444">-0.62</text>
<line x1="72" y1="710.0" x2="75" y2="710.0" stroke="#444"/>
<text x="69" y="713.0" text-anchor="end" fill="#444">0.12</text>
<line x1="72" y1="670.0" x2="75" y2="670.0" stroke="#444"/>
<text x="69" y="673.0" text-anchor="end" fill="#444">0.85</text>
<text x="226.0" y="864" text-anchor="middle" fill="#444">Event time (years from adoption)</text>
<text x="27" y="750.0" text-anchor="middle" fill="#444" transform="rotate(-90 27 750.0)">ATT (per 100k)</text>
<rect x="425" y="620" width="380" height="260" fill="#fafaf7" stroke="#e2e2dc"/>
<text x="615.0" y="638" text-anchor="middle" font-weight="600">Motor vehicle theft rate (per 100k) [placebo]</text>
<line x1="485" y1="769.3947850367572" x2="787" y2="769.3947850367572" stroke="#aaaaaa" stroke-width="0.7"/>
<polygon points="498.7,762.3 526.2,761.0 553.6,760.8 581.1,770.4 608.5,769.4 636.0,677.3 663.5,670.0 690.9,746.8 718.4,713.6 745.8,686.5 773.3,690.5 773.3,797.2 745.8,788.4 718.4,788.7 690.9,792.0 663.5,803.0 636.0,787.9 608.5,769.4 581.1,829.4 553.6,830.0 526.2,818.4 498.7,823.3" fill="#1f3a5f" opacity="0.18"/>
<polyline points="498.7,792.8 526.2,789.7 553.6,795.4 581.1,799.9 608.5,769.4 636.0,732.6 663.5,736.5 690.9,769.4 718.4,751.2 745.8,737.4 773.3,743.8" fill="none" stroke="#1f3a5f" stroke-width="1.6"/>
<circle cx="498.7" cy="792.8" r="2.6" fill="#1f3a5f"/>
<circle cx="526.2" cy="789.7" r="2.6" fill="#1f3a5f"/>
<circle cx="553.6" cy="795.4" r="2.6" fill="#1f3a5f"/>
<circle cx="581.1" cy="799.9" r="2.6" fill="#1f3a5f"/>
<circle cx="608.5" cy="769.4" r="2.6" fill="#1f3a5f"/>
<circle cx="636.0" cy="732.6" r="2.6" fill="#1f3a5f"/>
<circle cx="663.5" cy="736.5" r="2.6" fill="#1f3a5f"/>
<circle cx="690.9" cy="769.4" r="2.6" fill="#1f3a5f"/>
<circle cx="718.4" cy="751.2" r="2.6" fill="#1f3a5f"/>
<circle cx="745.8" cy="737.4" r="2.6" fill="#1f3a5f"/>
<circle cx="773.3" cy="743.8" r="2.6" fill="#1f3a5f"/>
<line x1="622.3" y1="670" x2="622.3" y2="830" stroke="#b9461a" stroke-dasharray="3 3"/>
<line x1="485" y1="830" x2="787" y2="830" stroke="#444"/>
<line x1="485" y1="670" x2="485" y2="830" stroke="#444"/>
<line x1="498.7" y1="830" x2="498.7" y2="833" stroke="#444"/>
<text x="498.7" y="845" text-anchor="middle" fill="#444">-5</text>
<line x1="526.2" y1="830" x2="526.2" y2="833" stroke="#444"/>
<text x="526.2" y="845" text-anchor="middle" fill="#444">-4</text>
<line x1="553.6" y1="830" x2="553.6" y2="833" stroke="#444"/>
<text x="553.6" y="845" text-anchor="middle" fill="#444">-3</text>
<line x1="581.1" y1="830" x2="581.1" y2="833" stroke="#444"/>
<text x="581.1" y="845" text-anchor="middle" fill="#444">-2</text>
<line x1="608.5" y1="830" x2="608.5" y2="833" stroke="#444"/>
<text x="608.5" y="845" text-anchor="middle" fill="#444">-1</text>
<line x1="636.0" y1="830" x2="636.0" y2="833" stroke="#444"/>
<text x="636.0" y="845" text-anchor="middle" fill="#444">0</text>
<line x1="663.5" y1="830" x2="663.5" y2="833" stroke="#444"/>
<text x="663.5" y="845" text-anchor="middle" fill="#444">1</text>
<line x1="690.9" y1="830" x2="690.9" y2="833" stroke="#444"/>
<text x="690.9" y="845" text-anchor="middle" fill="#444">2</text>
<line x1="718.4" y1="830" x2="718.4" y2="833" stroke="#444"/>
<text x="718.4" y="845" text-anchor="middle" fill="#444">3</text>
<line x1="745.8" y1="830" x2="745.8" y2="833" stroke="#444"/>
<text x="745.8" y="845" text-anchor="middle" fill="#444">4</text>
<line x1="773.3" y1="830" x2="773.3" y2="833" stroke="#444"/>
<text x="773.3" y="845" text-anchor="middle" fill="#444">5</text>
<line x1="482" y1="830.0" x2="485" y2="830.0" stroke="#444"/>
<text x="479" y="833.0" text-anchor="end" fill="#444">-64</text>
<line x1="482" y1="790.0" x2="485" y2="790.0" stroke="#444"/>
<text x="479" y="793.0" text-anchor="end" fill="#444">-22</text>
<line x1="482" y1="750.0" x2="485" y2="750.0" stroke="#444"/>
<text x="479" y="753.0" text-anchor="end" fill="#444">21</text>
<line x1="482" y1="710.0" x2="485" y2="710.0" stroke="#444"/>
<text x="479" y="713.0" text-anchor="end" fill="#444">63</text>
<line x1="482" y1="670.0" x2="485" y2="670.0" stroke="#444"/>
<text x="479" y="673.0" text-anchor="end" fill="#444">1.1e+02</text>
<text x="636.0" y="864" text-anchor="middle" fill="#444">Event time (years from adoption)</text>
<text x="437" y="750.0" text-anchor="middle" fill="#444" transform="rotate(-90 437 750.0)">ATT (per 100k)</text>
<text x="805" y="608" text-anchor="end" fill="#888" font-size="10">Shaded band: pointwise 95% CI from cluster bootstrap. Vertical dashed line marks the year before adoption.</text>
</svg>