<svg xmlns="http://www.w3.org/2000/svg" viewBox="0 0 820 620" font-family="-apple-system, Segoe UI, Helvetica, Arial, sans-serif" font-size="11">
<text x="410.0" y="22" text-anchor="middle" font-size="14" font-weight="600">Callaway-Sant'Anna ATT by event time (RA) -- stacked DiD (magazine_ban)</text>
<rect x="15" y="40" width="380" height="260" fill="#fafaf7" stroke="#e2e2dc"/>
<text x="205.0" y="58" text-anchor="middle" font-weight="600">Firearm suicide rate (per 100k)</text>
<line x1="75" y1="154.0205229652156" x2="377" y2="154.0205229652156" stroke="#aaaaaa" stroke-width="0.7"/>
<polygon points="88.7,101.7 116.2,121.4 143.6,115.0 171.1,106.0 198.5,154.0 226.0,123.8 253.5,108.6 280.9,114.7 308.4,90.0 335.8,173.5 363.3,103.4 363.3,232.1 335.8,250.0 308.4,196.7 280.9,200.7 253.5,173.7 226.0,208.0 198.5,154.0 171.1,177.0 143.6,199.3 116.2,162.8 88.7,189.9" fill="#1f3a5f" opacity="0.18"/>
<polyline points="88.7,145.8 116.2,142.1 143.6,157.1 171.1,141.5 198.5,154.0 226.0,165.9 253.5,141.1 280.9,157.7 308.4,143.3 335.8,211.7 363.3,167.8" fill="none" stroke="#1f3a5f" stroke-width="1.6"/>
<circle cx="88.7" cy="145.8" r="2.6" fill="#1f3a5f"/>
<circle cx="116.2" cy="142.1" r="2.6" fill="#1f3a5f"/>
<circle cx="143.6" cy="157.1" r="2.6" fill="#1f3a5f"/>
<circle cx="171.1" cy="141.5" r="2.6" fill="#1f3a5f"/>
<circle cx="198.5" cy="154.0" r="2.6" fill="#1f3a5f"/>
<circle cx="226.0" cy="165.9" r="2.6" fill="#1f3a5f"/>
<circle cx="253.5" cy="141.1" r="2.6" fill="#1f3a5f"/>
<circle cx="280.9" cy="157.7" r="2.6" fill="#1f3a5f"/>
<circle cx="308.4" cy="143.3" r="2.6" fill="#1f3a5f"/>
<circle cx="335.8" cy="211.7" r="2.6" fill="#1f3a5f"/>
<circle cx="363.3" cy="167.8" r="2.6" fill="#1f3a5f"/>
<line x1="212.3" y1="90" x2="212.3" y2="250" stroke="#b9461a" stroke-dasharray="3 3"/>
<line x1="75" y1="250" x2="377" y2="250" stroke="#444"/>
<line x1="75" y1="90" x2="75" y2="250" stroke="#444"/>
<line x1="88.7" y1="250" x2="88.7" y2="253" stroke="#444"/>
<text x="88.7" y="265" text-anchor="middle" fill="#444">-5</text>
<line x1="116.2" y1="250" x2="116.2" y2="253" stroke="#444"/>
<text x="116.2" y="265" text-anchor="middle" fill="#444">-4</text>
<line x1="143.6" y1="250" x2="143.6" y2="253" stroke="#444"/>
<text x="143.6" y="265" text-anchor="middle" fill="#444">-3</text>
<line x1="171.1" y1="250" x2="171.1" y2="253" stroke="#444"/>
<text x="171.1" y="265" text-anchor="middle" fill="#444">-2</text>
<line x1="198.5" y1="250" x2="198.5" y2="253" stroke="#444"/>
<text x="198.5" y="265" text-anchor="middle" fill="#444">-1</text>
<line x1="226.0" y1="250" x2="226.0" y2="253" stroke="#444"/>
<text x="226.0" y="265" text-anchor="middle" fill="#444">0</text>
<line x1="253.5" y1="250" x2="253.5" y2="253" stroke="#444"/>
<text x="253.5" y="265" text-anchor="middle" fill="#444">1</text>
<line x1="280.9" y1="250" x2="280.9" y2="253" stroke="#444"/>
<text x="280.9" y="265" text-anchor="middle" fill="#444">2</text>
<line x1="308.4" y1="250" x2="308.4" y2="253" stroke="#444"/>
<text x="308.4" y="265" text-anchor="middle" fill="#444">3</text>
<line x1="335.8" y1="250" x2="335.8" y2="253" stroke="#444"/>
<text x="335.8" y="265" text-anchor="middle" fill="#444">4</text>
<line x1="363.3" y1="250" x2="363.3" y2="253" stroke="#444"/>
<text x="363.3" y="265" text-anchor="middle" fill="#444">5</text>
<line x1="72" y1="250.0" x2="75" y2="250.0" stroke="#444"/>
<text x="69" y="253.0" text-anchor="end" fill="#444">-1.3</text>
<line x1="72" y1="210.0" x2="75" y2="210.0" stroke="#444"/>
<text x="69" y="213.0" text-anchor="end" fill="#444">-0.74</text>
<line x1="72" y1="170.0" x2="75" y2="170.0" stroke="#444"/>
<text x="69" y="173.0" text-anchor="end" fill="#444">-0.21</text>
<line x1="72" y1="130.0" x2="75" y2="130.0" stroke="#444"/>
<text x="69" y="133.0" text-anchor="end" fill="#444">0.32</text>
<line x1="72" y1="90.0" x2="75" y2="90.0" stroke="#444"/>
<text x="69" y="93.0" text-anchor="end" fill="#444">0.85</text>
<text x="226.0" y="284" text-anchor="middle" fill="#444">Event time (years from adoption)</text>
<text x="27" y="170.0" text-anchor="middle" fill="#444" transform="rotate(-90 27 170.0)">ATT (per 100k)</text>
<rect x="425" y="40" width="380" height="260" fill="#fafaf7" stroke="#e2e2dc"/>
<text x="615.0" y="58" text-anchor="middle" font-weight="600">Non-firearm suicide rate (per 100k) [substitution test]</text>
<line x1="485" y1="198.10643800139002" x2="787" y2="198.10643800139002" stroke="#aaaaaa" stroke-width="0.7"/>
<polygon points="498.7,163.0 526.2,136.6 553.6,183.1 581.1,180.0 608.5,198.1 636.0,156.7 663.5,176.7 690.9,200.1 718.4,90.0 745.8,175.7 773.3,156.1 773.3,203.4 745.8,217.6 718.4,222.8 690.9,244.2 663.5,243.0 636.0,226.2 608.5,198.1 581.1,245.5 553.6,250.0 526.2,222.7 498.7,214.1" fill="#1f3a5f" opacity="0.18"/>
<polyline points="498.7,188.5 526.2,179.7 553.6,216.6 581.1,212.8 608.5,198.1 636.0,191.5 663.5,209.8 690.9,222.1 718.4,156.4 745.8,196.7 773.3,179.7" fill="none" stroke="#1f3a5f" stroke-width="1.6"/>
<circle cx="498.7" cy="188.5" r="2.6" fill="#1f3a5f"/>
<circle cx="526.2" cy="179.7" r="2.6" fill="#1f3a5f"/>
<circle cx="553.6" cy="216.6" r="2.6" fill="#1f3a5f"/>
<circle cx="581.1" cy="212.8" r="2.6" fill="#1f3a5f"/>
<circle cx="608.5" cy="198.1" r="2.6" fill="#1f3a5f"/>
<circle cx="636.0" cy="191.5" r="2.6" fill="#1f3a5f"/>
<circle cx="663.5" cy="209.8" r="2.6" fill="#1f3a5f"/>
<circle cx="690.9" cy="222.1" r="2.6" fill="#1f3a5f"/>
<circle cx="718.4" cy="156.4" r="2.6" fill="#1f3a5f"/>
<circle cx="745.8" cy="196.7" r="2.6" fill="#1f3a5f"/>
<circle cx="773.3" cy="179.7" r="2.6" fill="#1f3a5f"/>
<line x1="622.3" y1="90" x2="622.3" y2="250" stroke="#b9461a" stroke-dasharray="3 3"/>
<line x1="485" y1="250" x2="787" y2="250" stroke="#444"/>
<line x1="485" y1="90" x2="485" y2="250" stroke="#444"/>
<line x1="498.7" y1="250" x2="498.7" y2="253" stroke="#444"/>
<text x="498.7" y="265" text-anchor="middle" fill="#444">-5</text>
<line x1="526.2" y1="250" x2="526.2" y2="253" stroke="#444"/>
<text x="526.2" y="265" text-anchor="middle" fill="#444">-4</text>
<line x1="553.6" y1="250" x2="553.6" y2="253" stroke="#444"/>
<text x="553.6" y="265" text-anchor="middle" fill="#444">-3</text>
<line x1="581.1" y1="250" x2="581.1" y2="253" stroke="#444"/>
<text x="581.1" y="265" text-anchor="middle" fill="#444">-2</text>
<line x1="608.5" y1="250" x2="608.5" y2="253" stroke="#444"/>
<text x="608.5" y="265" text-anchor="middle" fill="#444">-1</text>
<line x1="636.0" y1="250" x2="636.0" y2="253" stroke="#444"/>
<text x="636.0" y="265" text-anchor="middle" fill="#444">0</text>
<line x1="663.5" y1="250" x2="663.5" y2="253" stroke="#444"/>
<text x="663.5" y="265" text-anchor="middle" fill="#444">1</text>
<line x1="690.9" y1="250" x2="690.9" y2="253" stroke="#444"/>
<text x="690.9" y="265" text-anchor="middle" fill="#444">2</text>
<line x1="718.4" y1="250" x2="718.4" y2="253" stroke="#444"/>
<text x="718.4" y="265" text-anchor="middle" fill="#444">3</text>
<line x1="745.8" y1="250" x2="745.8" y2="253" stroke="#444"/>
<text x="745.8" y="265" text-anchor="middle" fill="#444">4</text>
<line x1="773.3" y1="250" x2="773.3" y2="253" stroke="#444"/>
<text x="773.3" y="265" text-anchor="middle" fill="#444">5</text>
<line x1="482" y1="250.0" x2="485" y2="250.0" stroke="#444"/>
<text x="479" y="253.0" text-anchor="end" fill="#444">-0.89</text>
<line x1="482" y1="210.0" x2="485" y2="210.0" stroke="#444"/>
<text x="479" y="213.0" text-anchor="end" fill="#444">-0.2</text>
<line x1="482" y1="170.0" x2="485" y2="170.0" stroke="#444"/>
<text x="479" y="173.0" text-anchor="end" fill="#444">0.48</text>
<line x1="482" y1="130.0" x2="485" y2="130.0" stroke="#444"/>
<text x="479" y="133.0" text-anchor="end" fill="#444">1.2</text>
<line x1="482" y1="90.0" x2="485" y2="90.0" stroke="#444"/>
<text x="479" y="93.0" text-anchor="end" fill="#444">1.9</text>
<text x="636.0" y="284" text-anchor="middle" fill="#444">Event time (years from adoption)</text>
<text x="437" y="170.0" text-anchor="middle" fill="#444" transform="rotate(-90 437 170.0)">ATT (per 100k)</text>
<rect x="15" y="330" width="380" height="260" fill="#fafaf7" stroke="#e2e2dc"/>
<text x="205.0" y="348" text-anchor="middle" font-weight="600">Total suicide rate (per 100k) [net effect]</text>
<line x1="75" y1="475.3895136129603" x2="377" y2="475.3895136129603" stroke="#aaaaaa" stroke-width="0.7"/>
<polygon points="88.7,422.3 116.2,415.3 143.6,450.0 171.1,448.7 198.5,475.4 226.0,454.6 253.5,434.0 280.9,478.9 308.4,380.0 335.8,479.0 363.3,416.8 363.3,521.5 335.8,540.0 308.4,491.4 280.9,514.6 253.5,519.6 226.0,500.1 198.5,475.4 171.1,510.1 143.6,534.0 116.2,491.5 88.7,503.2" fill="#1f3a5f" opacity="0.18"/>
<polyline points="88.7,462.8 116.2,453.4 143.6,492.0 171.1,479.4 198.5,475.4 226.0,477.4 253.5,476.8 280.9,496.7 308.4,435.7 335.8,509.5 363.3,469.2" fill="none" stroke="#1f3a5f" stroke-width="1.6"/>
<circle cx="88.7" cy="462.8" r="2.6" fill="#1f3a5f"/>
<circle cx="116.2" cy="453.4" r="2.6" fill="#1f3a5f"/>
<circle cx="143.6" cy="492.0" r="2.6" fill="#1f3a5f"/>
<circle cx="171.1" cy="479.4" r="2.6" fill="#1f3a5f"/>
<circle cx="198.5" cy="475.4" r="2.6" fill="#1f3a5f"/>
<circle cx="226.0" cy="477.4" r="2.6" fill="#1f3a5f"/>
<circle cx="253.5" cy="476.8" r="2.6" fill="#1f3a5f"/>
<circle cx="280.9" cy="496.7" r="2.6" fill="#1f3a5f"/>
<circle cx="308.4" cy="435.7" r="2.6" fill="#1f3a5f"/>
<circle cx="335.8" cy="509.5" r="2.6" fill="#1f3a5f"/>
<circle cx="363.3" cy="469.2" r="2.6" fill="#1f3a5f"/>
<line x1="212.3" y1="380" x2="212.3" y2="540" stroke="#b9461a" stroke-dasharray="3 3"/>
<line x1="75" y1="540" x2="377" y2="540" stroke="#444"/>
<line x1="75" y1="380" x2="75" y2="540" stroke="#444"/>
<line x1="88.7" y1="540" x2="88.7" y2="543" stroke="#444"/>
<text x="88.7" y="555" text-anchor="middle" fill="#444">-5</text>
<line x1="116.2" y1="540" x2="116.2" y2="543" stroke="#444"/>
<text x="116.2" y="555" text-anchor="middle" fill="#444">-4</text>
<line x1="143.6" y1="540" x2="143.6" y2="543" stroke="#444"/>
<text x="143.6" y="555" text-anchor="middle" fill="#444">-3</text>
<line x1="171.1" y1="540" x2="171.1" y2="543" stroke="#444"/>
<text x="171.1" y="555" text-anchor="middle" fill="#444">-2</text>
<line x1="198.5" y1="540" x2="198.5" y2="543" stroke="#444"/>
<text x="198.5" y="555" text-anchor="middle" fill="#444">-1</text>
<line x1="226.0" y1="540" x2="226.0" y2="543" stroke="#444"/>
<text x="226.0" y="555" text-anchor="middle" fill="#444">0</text>
<line x1="253.5" y1="540" x2="253.5" y2="543" stroke="#444"/>
<text x="253.5" y="555" text-anchor="middle" fill="#444">1</text>
<line x1="280.9" y1="540" x2="280.9" y2="543" stroke="#444"/>
<text x="280.9" y="555" text-anchor="middle" fill="#444">2</text>
<line x1="308.4" y1="540" x2="308.4" y2="543" stroke="#444"/>
<text x="308.4" y="555" text-anchor="middle" fill="#444">3</text>
<line x1="335.8" y1="540" x2="335.8" y2="543" stroke="#444"/>
<text x="335.8" y="555" text-anchor="middle" fill="#444">4</text>
<line x1="363.3" y1="540" x2="363.3" y2="543" stroke="#444"/>
<text x="363.3" y="555" text-anchor="middle" fill="#444">5</text>
<line x1="72" y1="540.0" x2="75" y2="540.0" stroke="#444"/>
<text x="69" y="543.0" text-anchor="end" fill="#444">-1.4</text>
<line x1="72" y1="500.0" x2="75" y2="500.0" stroke="#444"/>
<text x="69" y="503.0" text-anchor="end" fill="#444">-0.53</text>
<line x1="72" y1="460.0" x2="75" y2="460.0" stroke="#444"/>
<text x="69" y="463.0" text-anchor="end" fill="#444">0.33</text>
<line x1="72" y1="420.0" x2="75" y2="420.0" stroke="#444"/>
<text x="69" y="423.0" text-anchor="end" fill="#444">1.2</text>
<line x1="72" y1="380.0" x2="75" y2="380.0" stroke="#444"/>
<text x="69" y="383.0" text-anchor="end" fill="#444">2.1</text>
<text x="226.0" y="574" text-anchor="middle" fill="#444">Event time (years from adoption)</text>
<text x="27" y="460.0" text-anchor="middle" fill="#444" transform="rotate(-90 27 460.0)">ATT (per 100k)</text>
<rect x="425" y="330" width="380" height="260" fill="#fafaf7" stroke="#e2e2dc"/>
<text x="615.0" y="348" text-anchor="middle" font-weight="600">Firearm homicide rate (per 100k)</text>
<line x1="485" y1="437.55412731423405" x2="787" y2="437.55412731423405" stroke="#aaaaaa" stroke-width="0.7"/>
<polygon points="498.7,404.0 526.2,402.4 553.6,389.4 581.1,380.0 608.5,437.6 636.0,425.0 663.5,423.8 690.9,435.1 718.4,423.6 745.8,441.6 773.3,401.6 773.3,520.7 745.8,501.1 718.4,540.0 690.9,508.1 663.5,485.4 636.0,480.4 608.5,437.6 581.1,441.4 553.6,444.0 526.2,458.5 498.7,451.2" fill="#1f3a5f" opacity="0.18"/>
<polyline points="498.7,427.6 526.2,430.5 553.6,416.7 581.1,410.7 608.5,437.6 636.0,452.7 663.5,454.6 690.9,471.6 718.4,481.8 745.8,471.4 773.3,461.2" fill="none" stroke="#1f3a5f" stroke-width="1.6"/>
<circle cx="498.7" cy="427.6" r="2.6" fill="#1f3a5f"/>
<circle cx="526.2" cy="430.5" r="2.6" fill="#1f3a5f"/>
<circle cx="553.6" cy="416.7" r="2.6" fill="#1f3a5f"/>
<circle cx="581.1" cy="410.7" r="2.6" fill="#1f3a5f"/>
<circle cx="608.5" cy="437.6" r="2.6" fill="#1f3a5f"/>
<circle cx="636.0" cy="452.7" r="2.6" fill="#1f3a5f"/>
<circle cx="663.5" cy="454.6" r="2.6" fill="#1f3a5f"/>
<circle cx="690.9" cy="471.6" r="2.6" fill="#1f3a5f"/>
<circle cx="718.4" cy="481.8" r="2.6" fill="#1f3a5f"/>
<circle cx="745.8" cy="471.4" r="2.6" fill="#1f3a5f"/>
<circle cx="773.3" cy="461.2" r="2.6" fill="#1f3a5f"/>
<line x1="622.3" y1="380" x2="622.3" y2="540" stroke="#b9461a" stroke-dasharray="3 3"/>
<line x1="485" y1="540" x2="787" y2="540" stroke="#444"/>
<line x1="485" y1="380" x2="485" y2="540" stroke="#444"/>
<line x1="498.7" y1="540" x2="498.7" y2="543" stroke="#444"/>
<text x="498.7" y="555" text-anchor="middle" fill="#444">-5</text>
<line x1="526.2" y1="540" x2="526.2" y2="543" stroke="#444"/>
<text x="526.2" y="555" text-anchor="middle" fill="#444">-4</text>
<line x1="553.6" y1="540" x2="553.6" y2="543" stroke="#444"/>
<text x="553.6" y="555" text-anchor="middle" fill="#444">-3</text>
<line x1="581.1" y1="540" x2="581.1" y2="543" stroke="#444"/>
<text x="581.1" y="555" text-anchor="middle" fill="#444">-2</text>
<line x1="608.5" y1="540" x2="608.5" y2="543" stroke="#444"/>
<text x="608.5" y="555" text-anchor="middle" fill="#444">-1</text>
<line x1="636.0" y1="540" x2="636.0" y2="543" stroke="#444"/>
<text x="636.0" y="555" text-anchor="middle" fill="#444">0</text>
<line x1="663.5" y1="540" x2="663.5" y2="543" stroke="#444"/>
<text x="663.5" y="555" text-anchor="middle" fill="#444">1</text>
<line x1="690.9" y1="540" x2="690.9" y2="543" stroke="#444"/>
<text x="690.9" y="555" text-anchor="middle" fill="#444">2</text>
<line x1="718.4" y1="540" x2="718.4" y2="543" stroke="#444"/>
<text x="718.4" y="555" text-anchor="middle" fill="#444">3</text>
<line x1="745.8" y1="540" x2="745.8" y2="543" stroke="#444"/>
<text x="745.8" y="555" text-anchor="middle" fill="#444">4</text>
<line x1="773.3" y1="540" x2="773.3" y2="543" stroke="#444"/>
<text x="773.3" y="555" text-anchor="middle" fill="#444">5</text>
<line x1="482" y1="540.0" x2="485" y2="540.0" stroke="#444"/>
<text x="479" y="543.0" text-anchor="end" fill="#444">-2.2</text>
<line x1="482" y1="500.0" x2="485" y2="500.0" stroke="#444"/>
<text x="479" y="503.0" text-anchor="end" fill="#444">-1.3</text>
<line x1="482" y1="460.0" x2="485" y2="460.0" stroke="#444"/>
<text x="479" y="463.0" text-anchor="end" fill="#444">-0.48</text>
<line x1="482" y1="420.0" x2="485" y2="420.0" stroke="#444"/>
<text x="479" y="423.0" text-anchor="end" fill="#444">0.37</text>
<line x1="482" y1="380.0" x2="485" y2="380.0" stroke="#444"/>
<text x="479" y="383.0" text-anchor="end" fill="#444">1.2</text>
<text x="636.0" y="574" text-anchor="middle" fill="#444">Event time (years from adoption)</text>
<text x="437" y="460.0" text-anchor="middle" fill="#444" transform="rotate(-90 437 460.0)">ATT (per 100k)</text>
<rect x="15" y="620" width="380" height="260" fill="#fafaf7" stroke="#e2e2dc"/>
<text x="205.0" y="638" text-anchor="middle" font-weight="600">Total homicide rate (per 100k)</text>
<line x1="75" y1="719.6168317105237" x2="377" y2="719.6168317105237" stroke="#aaaaaa" stroke-width="0.7"/>
<polygon points="88.7,691.8 116.2,703.4 143.6,674.6 171.1,670.0 198.5,719.6 226.0,702.6 253.5,699.6 280.9,713.0 308.4,745.8 335.8,685.5 363.3,690.4 363.3,776.4 335.8,764.5 308.4,830.0 280.9,768.7 253.5,764.1 226.0,787.1 198.5,719.6 171.1,717.7 143.6,737.5 116.2,738.9 88.7,736.0" fill="#1f3a5f" opacity="0.18"/>
<polyline points="88.7,713.9 116.2,721.1 143.6,706.1 171.1,693.8 198.5,719.6 226.0,744.8 253.5,731.8 280.9,740.8 308.4,787.9 335.8,725.0 363.3,733.4" fill="none" stroke="#1f3a5f" stroke-width="1.6"/>
<circle cx="88.7" cy="713.9" r="2.6" fill="#1f3a5f"/>
<circle cx="116.2" cy="721.1" r="2.6" fill="#1f3a5f"/>
<circle cx="143.6" cy="706.1" r="2.6" fill="#1f3a5f"/>
<circle cx="171.1" cy="693.8" r="2.6" fill="#1f3a5f"/>
<circle cx="198.5" cy="719.6" r="2.6" fill="#1f3a5f"/>
<circle cx="226.0" cy="744.8" r="2.6" fill="#1f3a5f"/>
<circle cx="253.5" cy="731.8" r="2.6" fill="#1f3a5f"/>
<circle cx="280.9" cy="740.8" r="2.6" fill="#1f3a5f"/>
<circle cx="308.4" cy="787.9" r="2.6" fill="#1f3a5f"/>
<circle cx="335.8" cy="725.0" r="2.6" fill="#1f3a5f"/>
<circle cx="363.3" cy="733.4" r="2.6" fill="#1f3a5f"/>
<line x1="212.3" y1="670" x2="212.3" y2="830" stroke="#b9461a" stroke-dasharray="3 3"/>
<line x1="75" y1="830" x2="377" y2="830" stroke="#444"/>
<line x1="75" y1="670" x2="75" y2="830" stroke="#444"/>
<line x1="88.7" y1="830" x2="88.7" y2="833" stroke="#444"/>
<text x="88.7" y="845" text-anchor="middle" fill="#444">-5</text>
<line x1="116.2" y1="830" x2="116.2" y2="833" stroke="#444"/>
<text x="116.2" y="845" text-anchor="middle" fill="#444">-4</text>
<line x1="143.6" y1="830" x2="143.6" y2="833" stroke="#444"/>
<text x="143.6" y="845" text-anchor="middle" fill="#444">-3</text>
<line x1="171.1" y1="830" x2="171.1" y2="833" stroke="#444"/>
<text x="171.1" y="845" text-anchor="middle" fill="#444">-2</text>
<line x1="198.5" y1="830" x2="198.5" y2="833" stroke="#444"/>
<text x="198.5" y="845" text-anchor="middle" fill="#444">-1</text>
<line x1="226.0" y1="830" x2="226.0" y2="833" stroke="#444"/>
<text x="226.0" y="845" text-anchor="middle" fill="#444">0</text>
<line x1="253.5" y1="830" x2="253.5" y2="833" stroke="#444"/>
<text x="253.5" y="845" text-anchor="middle" fill="#444">1</text>
<line x1="280.9" y1="830" x2="280.9" y2="833" stroke="#444"/>
<text x="280.9" y="845" text-anchor="middle" fill="#444">2</text>
<line x1="308.4" y1="830" x2="308.4" y2="833" stroke="#444"/>
<text x="308.4" y="845" text-anchor="middle" fill="#444">3</text>
<line x1="335.8" y1="830" x2="335.8" y2="833" stroke="#444"/>
<text x="335.8" y="845" text-anchor="middle" fill="#444">4</text>
<line x1="363.3" y1="830" x2="363.3" y2="833" stroke="#444"/>
<text x="363.3" y="845" text-anchor="middle" fill="#444">5</text>
<line x1="72" y1="830.0" x2="75" y2="830.0" stroke="#444"/>
<text x="69" y="833.0" text-anchor="end" fill="#444">-2</text>
<line x1="72" y1="790.0" x2="75" y2="790.0" stroke="#444"/>
<text x="69" y="793.0" text-anchor="end" fill="#444">-1.3</text>
<line x1="72" y1="750.0" x2="75" y2="750.0" stroke="#444"/>
<text x="69" y="753.0" text-anchor="end" fill="#444">-0.56</text>
<line x1="72" y1="710.0" x2="75" y2="710.0" stroke="#444"/>
<text x="69" y="713.0" text-anchor="end" fill="#444">0.18</text>
<line x1="72" y1="670.0" x2="75" y2="670.0" stroke="#444"/>
<text x="69" y="673.0" text-anchor="end" fill="#444">0.91</text>
<text x="226.0" y="864" text-anchor="middle" fill="#444">Event time (years from adoption)</text>
<text x="27" y="750.0" text-anchor="middle" fill="#444" transform="rotate(-90 27 750.0)">ATT (per 100k)</text>
<rect x="425" y="620" width="380" height="260" fill="#fafaf7" stroke="#e2e2dc"/>
<text x="615.0" y="638" text-anchor="middle" font-weight="600">Motor vehicle theft rate (per 100k) [placebo]</text>
<line x1="485" y1="767.0739193778352" x2="787" y2="767.0739193778352" stroke="#aaaaaa" stroke-width="0.7"/>
<polygon points="498.7,758.7 526.2,758.9 553.6,761.5 581.1,770.5 608.5,767.1 636.0,677.4 663.5,670.0 690.9,740.0 718.4,702.4 745.8,679.2 773.3,687.2 773.3,793.5 745.8,784.9 718.4,785.4 690.9,789.6 663.5,798.1 636.0,785.2 608.5,767.1 581.1,830.0 553.6,828.2 526.2,814.3 498.7,821.9" fill="#1f3a5f" opacity="0.18"/>
<polyline points="498.7,790.3 526.2,786.6 553.6,794.9 581.1,800.2 608.5,767.1 636.0,731.3 663.5,734.1 690.9,764.8 718.4,743.9 745.8,732.0 773.3,740.3" fill="none" stroke="#1f3a5f" stroke-width="1.6"/>
<circle cx="498.7" cy="790.3" r="2.6" fill="#1f3a5f"/>
<circle cx="526.2" cy="786.6" r="2.6" fill="#1f3a5f"/>
<circle cx="553.6" cy="794.9" r="2.6" fill="#1f3a5f"/>
<circle cx="581.1" cy="800.2" r="2.6" fill="#1f3a5f"/>
<circle cx="608.5" cy="767.1" r="2.6" fill="#1f3a5f"/>
<circle cx="636.0" cy="731.3" r="2.6" fill="#1f3a5f"/>
<circle cx="663.5" cy="734.1" r="2.6" fill="#1f3a5f"/>
<circle cx="690.9" cy="764.8" r="2.6" fill="#1f3a5f"/>
<circle cx="718.4" cy="743.9" r="2.6" fill="#1f3a5f"/>
<circle cx="745.8" cy="732.0" r="2.6" fill="#1f3a5f"/>
<circle cx="773.3" cy="740.3" r="2.6" fill="#1f3a5f"/>
<line x1="622.3" y1="670" x2="622.3" y2="830" stroke="#b9461a" stroke-dasharray="3 3"/>
<line x1="485" y1="830" x2="787" y2="830" stroke="#444"/>
<line x1="485" y1="670" x2="485" y2="830" stroke="#444"/>
<line x1="498.7" y1="830" x2="498.7" y2="833" stroke="#444"/>
<text x="498.7" y="845" text-anchor="middle" fill="#444">-5</text>
<line x1="526.2" y1="830" x2="526.2" y2="833" stroke="#444"/>
<text x="526.2" y="845" text-anchor="middle" fill="#444">-4</text>
<line x1="553.6" y1="830" x2="553.6" y2="833" stroke="#444"/>
<text x="553.6" y="845" text-anchor="middle" fill="#444">-3</text>
<line x1="581.1" y1="830" x2="581.1" y2="833" stroke="#444"/>
<text x="581.1" y="845" text-anchor="middle" fill="#444">-2</text>
<line x1="608.5" y1="830" x2="608.5" y2="833" stroke="#444"/>
<text x="608.5" y="845" text-anchor="middle" fill="#444">-1</text>
<line x1="636.0" y1="830" x2="636.0" y2="833" stroke="#444"/>
<text x="636.0" y="845" text-anchor="middle" fill="#444">0</text>
<line x1="663.5" y1="830" x2="663.5" y2="833" stroke="#444"/>
<text x="663.5" y="845" text-anchor="middle" fill="#444">1</text>
<line x1="690.9" y1="830" x2="690.9" y2="833" stroke="#444"/>
<text x="690.9" y="845" text-anchor="middle" fill="#444">2</text>
<line x1="718.4" y1="830" x2="718.4" y2="833" stroke="#444"/>
<text x="718.4" y="845" text-anchor="middle" fill="#444">3</text>
<line x1="745.8" y1="830" x2="745.8" y2="833" stroke="#444"/>
<text x="745.8" y="845" text-anchor="middle" fill="#444">4</text>
<line x1="773.3" y1="830" x2="773.3" y2="833" stroke="#444"/>
<text x="773.3" y="845" text-anchor="middle" fill="#444">5</text>
<line x1="482" y1="830.0" x2="485" y2="830.0" stroke="#444"/>
<text x="479" y="833.0" text-anchor="end" fill="#444">-69</text>
<line x1="482" y1="790.0" x2="485" y2="790.0" stroke="#444"/>
<text x="479" y="793.0" text-anchor="end" fill="#444">-25</text>
<line x1="482" y1="750.0" x2="485" y2="750.0" stroke="#444"/>
<text x="479" y="753.0" text-anchor="end" fill="#444">19</text>
<line x1="482" y1="710.0" x2="485" y2="710.0" stroke="#444"/>
<text x="479" y="713.0" text-anchor="end" fill="#444">62</text>
<line x1="482" y1="670.0" x2="485" y2="670.0" stroke="#444"/>
<text x="479" y="673.0" text-anchor="end" fill="#444">1.1e+02</text>
<text x="636.0" y="864" text-anchor="middle" fill="#444">Event time (years from adoption)</text>
<text x="437" y="750.0" text-anchor="middle" fill="#444" transform="rotate(-90 437 750.0)">ATT (per 100k)</text>
<text x="805" y="608" text-anchor="end" fill="#888" font-size="10">Shaded band: pointwise 95% CI from cluster bootstrap. Vertical dashed line marks the year before adoption.</text>
</svg>