<svg xmlns="http://www.w3.org/2000/svg" viewBox="0 0 820 620" font-family="-apple-system, Segoe UI, Helvetica, Arial, sans-serif" font-size="11">
<text x="410.0" y="22" text-anchor="middle" font-size="14" font-weight="600">Callaway-Sant'Anna ATT by event time (EB) -- stacked DiD (magazine_ban)</text>
<rect x="15" y="40" width="380" height="260" fill="#fafaf7" stroke="#e2e2dc"/>
<text x="205.0" y="58" text-anchor="middle" font-weight="600">Firearm suicide rate (per 100k)</text>
<line x1="75" y1="147.2470565985908" x2="377" y2="147.2470565985908" stroke="#aaaaaa" stroke-width="0.7"/>
<polygon points="88.7,112.3 116.2,97.4 143.6,122.2 171.1,99.3 198.5,147.2 226.0,127.5 253.5,124.6 280.9,159.2 308.4,100.3 335.8,180.6 363.3,90.0 363.3,203.5 335.8,250.0 308.4,152.5 280.9,179.5 253.5,184.5 226.0,183.6 198.5,147.2 171.1,168.7 143.6,165.5 116.2,136.2 88.7,158.8" fill="#1f3a5f" opacity="0.18"/>
<polyline points="88.7,135.5 116.2,116.8 143.6,143.9 171.1,134.0 198.5,147.2 226.0,155.6 253.5,154.6 280.9,169.4 308.4,126.4 335.8,215.3 363.3,146.8" fill="none" stroke="#1f3a5f" stroke-width="1.6"/>
<circle cx="88.7" cy="135.5" r="2.6" fill="#1f3a5f"/>
<circle cx="116.2" cy="116.8" r="2.6" fill="#1f3a5f"/>
<circle cx="143.6" cy="143.9" r="2.6" fill="#1f3a5f"/>
<circle cx="171.1" cy="134.0" r="2.6" fill="#1f3a5f"/>
<circle cx="198.5" cy="147.2" r="2.6" fill="#1f3a5f"/>
<circle cx="226.0" cy="155.6" r="2.6" fill="#1f3a5f"/>
<circle cx="253.5" cy="154.6" r="2.6" fill="#1f3a5f"/>
<circle cx="280.9" cy="169.4" r="2.6" fill="#1f3a5f"/>
<circle cx="308.4" cy="126.4" r="2.6" fill="#1f3a5f"/>
<circle cx="335.8" cy="215.3" r="2.6" fill="#1f3a5f"/>
<circle cx="363.3" cy="146.8" r="2.6" fill="#1f3a5f"/>
<line x1="212.3" y1="90" x2="212.3" y2="250" stroke="#b9461a" stroke-dasharray="3 3"/>
<line x1="75" y1="250" x2="377" y2="250" stroke="#444"/>
<line x1="75" y1="90" x2="75" y2="250" stroke="#444"/>
<line x1="88.7" y1="250" x2="88.7" y2="253" stroke="#444"/>
<text x="88.7" y="265" text-anchor="middle" fill="#444">-5</text>
<line x1="116.2" y1="250" x2="116.2" y2="253" stroke="#444"/>
<text x="116.2" y="265" text-anchor="middle" fill="#444">-4</text>
<line x1="143.6" y1="250" x2="143.6" y2="253" stroke="#444"/>
<text x="143.6" y="265" text-anchor="middle" fill="#444">-3</text>
<line x1="171.1" y1="250" x2="171.1" y2="253" stroke="#444"/>
<text x="171.1" y="265" text-anchor="middle" fill="#444">-2</text>
<line x1="198.5" y1="250" x2="198.5" y2="253" stroke="#444"/>
<text x="198.5" y="265" text-anchor="middle" fill="#444">-1</text>
<line x1="226.0" y1="250" x2="226.0" y2="253" stroke="#444"/>
<text x="226.0" y="265" text-anchor="middle" fill="#444">0</text>
<line x1="253.5" y1="250" x2="253.5" y2="253" stroke="#444"/>
<text x="253.5" y="265" text-anchor="middle" fill="#444">1</text>
<line x1="280.9" y1="250" x2="280.9" y2="253" stroke="#444"/>
<text x="280.9" y="265" text-anchor="middle" fill="#444">2</text>
<line x1="308.4" y1="250" x2="308.4" y2="253" stroke="#444"/>
<text x="308.4" y="265" text-anchor="middle" fill="#444">3</text>
<line x1="335.8" y1="250" x2="335.8" y2="253" stroke="#444"/>
<text x="335.8" y="265" text-anchor="middle" fill="#444">4</text>
<line x1="363.3" y1="250" x2="363.3" y2="253" stroke="#444"/>
<text x="363.3" y="265" text-anchor="middle" fill="#444">5</text>
<line x1="72" y1="250.0" x2="75" y2="250.0" stroke="#444"/>
<text x="69" y="253.0" text-anchor="end" fill="#444">-3</text>
<line x1="72" y1="210.0" x2="75" y2="210.0" stroke="#444"/>
<text x="69" y="213.0" text-anchor="end" fill="#444">-1.8</text>
<line x1="72" y1="170.0" x2="75" y2="170.0" stroke="#444"/>
<text x="69" y="173.0" text-anchor="end" fill="#444">-0.66</text>
<line x1="72" y1="130.0" x2="75" y2="130.0" stroke="#444"/>
<text x="69" y="133.0" text-anchor="end" fill="#444">0.5</text>
<line x1="72" y1="90.0" x2="75" y2="90.0" stroke="#444"/>
<text x="69" y="93.0" text-anchor="end" fill="#444">1.7</text>
<text x="226.0" y="284" text-anchor="middle" fill="#444">Event time (years from adoption)</text>
<text x="27" y="170.0" text-anchor="middle" fill="#444" transform="rotate(-90 27 170.0)">ATT (per 100k)</text>
<rect x="425" y="40" width="380" height="260" fill="#fafaf7" stroke="#e2e2dc"/>
<text x="615.0" y="58" text-anchor="middle" font-weight="600">Non-firearm suicide rate (per 100k) [substitution test]</text>
<line x1="485" y1="190.68853007927558" x2="787" y2="190.68853007927558" stroke="#aaaaaa" stroke-width="0.7"/>
<polygon points="498.7,154.9 526.2,156.6 553.6,186.1 581.1,184.4 608.5,190.7 636.0,176.7 663.5,171.5 690.9,130.1 718.4,90.0 745.8,178.1 773.3,187.2 773.3,244.8 745.8,194.6 718.4,250.0 690.9,204.6 663.5,209.4 636.0,224.0 608.5,190.7 581.1,232.6 553.6,239.6 526.2,196.5 498.7,190.7" fill="#1f3a5f" opacity="0.18"/>
<polyline points="498.7,172.8 526.2,176.6 553.6,212.8 581.1,208.5 608.5,190.7 636.0,200.3 663.5,190.5 690.9,167.4 718.4,170.0 745.8,186.4 773.3,216.0" fill="none" stroke="#1f3a5f" stroke-width="1.6"/>
<circle cx="498.7" cy="172.8" r="2.6" fill="#1f3a5f"/>
<circle cx="526.2" cy="176.6" r="2.6" fill="#1f3a5f"/>
<circle cx="553.6" cy="212.8" r="2.6" fill="#1f3a5f"/>
<circle cx="581.1" cy="208.5" r="2.6" fill="#1f3a5f"/>
<circle cx="608.5" cy="190.7" r="2.6" fill="#1f3a5f"/>
<circle cx="636.0" cy="200.3" r="2.6" fill="#1f3a5f"/>
<circle cx="663.5" cy="190.5" r="2.6" fill="#1f3a5f"/>
<circle cx="690.9" cy="167.4" r="2.6" fill="#1f3a5f"/>
<circle cx="718.4" cy="170.0" r="2.6" fill="#1f3a5f"/>
<circle cx="745.8" cy="186.4" r="2.6" fill="#1f3a5f"/>
<circle cx="773.3" cy="216.0" r="2.6" fill="#1f3a5f"/>
<line x1="622.3" y1="90" x2="622.3" y2="250" stroke="#b9461a" stroke-dasharray="3 3"/>
<line x1="485" y1="250" x2="787" y2="250" stroke="#444"/>
<line x1="485" y1="90" x2="485" y2="250" stroke="#444"/>
<line x1="498.7" y1="250" x2="498.7" y2="253" stroke="#444"/>
<text x="498.7" y="265" text-anchor="middle" fill="#444">-5</text>
<line x1="526.2" y1="250" x2="526.2" y2="253" stroke="#444"/>
<text x="526.2" y="265" text-anchor="middle" fill="#444">-4</text>
<line x1="553.6" y1="250" x2="553.6" y2="253" stroke="#444"/>
<text x="553.6" y="265" text-anchor="middle" fill="#444">-3</text>
<line x1="581.1" y1="250" x2="581.1" y2="253" stroke="#444"/>
<text x="581.1" y="265" text-anchor="middle" fill="#444">-2</text>
<line x1="608.5" y1="250" x2="608.5" y2="253" stroke="#444"/>
<text x="608.5" y="265" text-anchor="middle" fill="#444">-1</text>
<line x1="636.0" y1="250" x2="636.0" y2="253" stroke="#444"/>
<text x="636.0" y="265" text-anchor="middle" fill="#444">0</text>
<line x1="663.5" y1="250" x2="663.5" y2="253" stroke="#444"/>
<text x="663.5" y="265" text-anchor="middle" fill="#444">1</text>
<line x1="690.9" y1="250" x2="690.9" y2="253" stroke="#444"/>
<text x="690.9" y="265" text-anchor="middle" fill="#444">2</text>
<line x1="718.4" y1="250" x2="718.4" y2="253" stroke="#444"/>
<text x="718.4" y="265" text-anchor="middle" fill="#444">3</text>
<line x1="745.8" y1="250" x2="745.8" y2="253" stroke="#444"/>
<text x="745.8" y="265" text-anchor="middle" fill="#444">4</text>
<line x1="773.3" y1="250" x2="773.3" y2="253" stroke="#444"/>
<text x="773.3" y="265" text-anchor="middle" fill="#444">5</text>
<line x1="482" y1="250.0" x2="485" y2="250.0" stroke="#444"/>
<text x="479" y="253.0" text-anchor="end" fill="#444">-1.8</text>
<line x1="482" y1="210.0" x2="485" y2="210.0" stroke="#444"/>
<text x="479" y="213.0" text-anchor="end" fill="#444">-0.59</text>
<line x1="482" y1="170.0" x2="485" y2="170.0" stroke="#444"/>
<text x="479" y="173.0" text-anchor="end" fill="#444">0.64</text>
<line x1="482" y1="130.0" x2="485" y2="130.0" stroke="#444"/>
<text x="479" y="133.0" text-anchor="end" fill="#444">1.9</text>
<line x1="482" y1="90.0" x2="485" y2="90.0" stroke="#444"/>
<text x="479" y="93.0" text-anchor="end" fill="#444">3.1</text>
<text x="636.0" y="284" text-anchor="middle" fill="#444">Event time (years from adoption)</text>
<text x="437" y="170.0" text-anchor="middle" fill="#444" transform="rotate(-90 437 170.0)">ATT (per 100k)</text>
<rect x="15" y="330" width="380" height="260" fill="#fafaf7" stroke="#e2e2dc"/>
<text x="205.0" y="348" text-anchor="middle" font-weight="600">Total suicide rate (per 100k) [net effect]</text>
<line x1="75" y1="471.99935065184" x2="377" y2="471.99935065184" stroke="#aaaaaa" stroke-width="0.7"/>
<polygon points="88.7,431.6 116.2,418.1 143.6,460.8 171.1,454.5 198.5,472.0 226.0,464.9 253.5,455.2 280.9,439.2 308.4,380.0 335.8,488.0 363.3,466.5 363.3,512.3 335.8,540.0 308.4,507.5 280.9,501.4 253.5,498.2 226.0,503.5 198.5,472.0 171.1,496.9 143.6,509.7 116.2,465.9 88.7,471.9" fill="#1f3a5f" opacity="0.18"/>
<polyline points="88.7,451.7 116.2,442.0 143.6,485.3 171.1,475.7 198.5,472.0 226.0,484.2 253.5,476.7 280.9,470.3 308.4,443.7 335.8,514.0 363.3,489.4" fill="none" stroke="#1f3a5f" stroke-width="1.6"/>
<circle cx="88.7" cy="451.7" r="2.6" fill="#1f3a5f"/>
<circle cx="116.2" cy="442.0" r="2.6" fill="#1f3a5f"/>
<circle cx="143.6" cy="485.3" r="2.6" fill="#1f3a5f"/>
<circle cx="171.1" cy="475.7" r="2.6" fill="#1f3a5f"/>
<circle cx="198.5" cy="472.0" r="2.6" fill="#1f3a5f"/>
<circle cx="226.0" cy="484.2" r="2.6" fill="#1f3a5f"/>
<circle cx="253.5" cy="476.7" r="2.6" fill="#1f3a5f"/>
<circle cx="280.9" cy="470.3" r="2.6" fill="#1f3a5f"/>
<circle cx="308.4" cy="443.7" r="2.6" fill="#1f3a5f"/>
<circle cx="335.8" cy="514.0" r="2.6" fill="#1f3a5f"/>
<circle cx="363.3" cy="489.4" r="2.6" fill="#1f3a5f"/>
<line x1="212.3" y1="380" x2="212.3" y2="540" stroke="#b9461a" stroke-dasharray="3 3"/>
<line x1="75" y1="540" x2="377" y2="540" stroke="#444"/>
<line x1="75" y1="380" x2="75" y2="540" stroke="#444"/>
<line x1="88.7" y1="540" x2="88.7" y2="543" stroke="#444"/>
<text x="88.7" y="555" text-anchor="middle" fill="#444">-5</text>
<line x1="116.2" y1="540" x2="116.2" y2="543" stroke="#444"/>
<text x="116.2" y="555" text-anchor="middle" fill="#444">-4</text>
<line x1="143.6" y1="540" x2="143.6" y2="543" stroke="#444"/>
<text x="143.6" y="555" text-anchor="middle" fill="#444">-3</text>
<line x1="171.1" y1="540" x2="171.1" y2="543" stroke="#444"/>
<text x="171.1" y="555" text-anchor="middle" fill="#444">-2</text>
<line x1="198.5" y1="540" x2="198.5" y2="543" stroke="#444"/>
<text x="198.5" y="555" text-anchor="middle" fill="#444">-1</text>
<line x1="226.0" y1="540" x2="226.0" y2="543" stroke="#444"/>
<text x="226.0" y="555" text-anchor="middle" fill="#444">0</text>
<line x1="253.5" y1="540" x2="253.5" y2="543" stroke="#444"/>
<text x="253.5" y="555" text-anchor="middle" fill="#444">1</text>
<line x1="280.9" y1="540" x2="280.9" y2="543" stroke="#444"/>
<text x="280.9" y="555" text-anchor="middle" fill="#444">2</text>
<line x1="308.4" y1="540" x2="308.4" y2="543" stroke="#444"/>
<text x="308.4" y="555" text-anchor="middle" fill="#444">3</text>
<line x1="335.8" y1="540" x2="335.8" y2="543" stroke="#444"/>
<text x="335.8" y="555" text-anchor="middle" fill="#444">4</text>
<line x1="363.3" y1="540" x2="363.3" y2="543" stroke="#444"/>
<text x="363.3" y="555" text-anchor="middle" fill="#444">5</text>
<line x1="72" y1="540.0" x2="75" y2="540.0" stroke="#444"/>
<text x="69" y="543.0" text-anchor="end" fill="#444">-3</text>
<line x1="72" y1="500.0" x2="75" y2="500.0" stroke="#444"/>
<text x="69" y="503.0" text-anchor="end" fill="#444">-1.2</text>
<line x1="72" y1="460.0" x2="75" y2="460.0" stroke="#444"/>
<text x="69" y="463.0" text-anchor="end" fill="#444">0.53</text>
<line x1="72" y1="420.0" x2="75" y2="420.0" stroke="#444"/>
<text x="69" y="423.0" text-anchor="end" fill="#444">2.3</text>
<line x1="72" y1="380.0" x2="75" y2="380.0" stroke="#444"/>
<text x="69" y="383.0" text-anchor="end" fill="#444">4</text>
<text x="226.0" y="574" text-anchor="middle" fill="#444">Event time (years from adoption)</text>
<text x="27" y="460.0" text-anchor="middle" fill="#444" transform="rotate(-90 27 460.0)">ATT (per 100k)</text>
<rect x="425" y="330" width="380" height="260" fill="#fafaf7" stroke="#e2e2dc"/>
<text x="615.0" y="348" text-anchor="middle" font-weight="600">Firearm homicide rate (per 100k)</text>
<line x1="485" y1="465.90240102222333" x2="787" y2="465.90240102222333" stroke="#aaaaaa" stroke-width="0.7"/>
<polygon points="498.7,416.0 526.2,457.4 553.6,416.8 581.1,380.0 608.5,465.9 636.0,462.4 663.5,445.7 690.9,481.4 718.4,433.6 745.8,438.4 773.3,418.0 773.3,536.6 745.8,476.8 718.4,540.0 690.9,488.6 663.5,530.3 636.0,523.4 608.5,465.9 581.1,475.1 553.6,520.8 526.2,486.6 498.7,515.8" fill="#1f3a5f" opacity="0.18"/>
<polyline points="498.7,465.9 526.2,472.0 553.6,468.8 581.1,427.5 608.5,465.9 636.0,492.9 663.5,488.0 690.9,485.0 718.4,486.8 745.8,457.6 773.3,477.3" fill="none" stroke="#1f3a5f" stroke-width="1.6"/>
<circle cx="498.7" cy="465.9" r="2.6" fill="#1f3a5f"/>
<circle cx="526.2" cy="472.0" r="2.6" fill="#1f3a5f"/>
<circle cx="553.6" cy="468.8" r="2.6" fill="#1f3a5f"/>
<circle cx="581.1" cy="427.5" r="2.6" fill="#1f3a5f"/>
<circle cx="608.5" cy="465.9" r="2.6" fill="#1f3a5f"/>
<circle cx="636.0" cy="492.9" r="2.6" fill="#1f3a5f"/>
<circle cx="663.5" cy="488.0" r="2.6" fill="#1f3a5f"/>
<circle cx="690.9" cy="485.0" r="2.6" fill="#1f3a5f"/>
<circle cx="718.4" cy="486.8" r="2.6" fill="#1f3a5f"/>
<circle cx="745.8" cy="457.6" r="2.6" fill="#1f3a5f"/>
<circle cx="773.3" cy="477.3" r="2.6" fill="#1f3a5f"/>
<line x1="622.3" y1="380" x2="622.3" y2="540" stroke="#b9461a" stroke-dasharray="3 3"/>
<line x1="485" y1="540" x2="787" y2="540" stroke="#444"/>
<line x1="485" y1="380" x2="485" y2="540" stroke="#444"/>
<line x1="498.7" y1="540" x2="498.7" y2="543" stroke="#444"/>
<text x="498.7" y="555" text-anchor="middle" fill="#444">-5</text>
<line x1="526.2" y1="540" x2="526.2" y2="543" stroke="#444"/>
<text x="526.2" y="555" text-anchor="middle" fill="#444">-4</text>
<line x1="553.6" y1="540" x2="553.6" y2="543" stroke="#444"/>
<text x="553.6" y="555" text-anchor="middle" fill="#444">-3</text>
<line x1="581.1" y1="540" x2="581.1" y2="543" stroke="#444"/>
<text x="581.1" y="555" text-anchor="middle" fill="#444">-2</text>
<line x1="608.5" y1="540" x2="608.5" y2="543" stroke="#444"/>
<text x="608.5" y="555" text-anchor="middle" fill="#444">-1</text>
<line x1="636.0" y1="540" x2="636.0" y2="543" stroke="#444"/>
<text x="636.0" y="555" text-anchor="middle" fill="#444">0</text>
<line x1="663.5" y1="540" x2="663.5" y2="543" stroke="#444"/>
<text x="663.5" y="555" text-anchor="middle" fill="#444">1</text>
<line x1="690.9" y1="540" x2="690.9" y2="543" stroke="#444"/>
<text x="690.9" y="555" text-anchor="middle" fill="#444">2</text>
<line x1="718.4" y1="540" x2="718.4" y2="543" stroke="#444"/>
<text x="718.4" y="555" text-anchor="middle" fill="#444">3</text>
<line x1="745.8" y1="540" x2="745.8" y2="543" stroke="#444"/>
<text x="745.8" y="555" text-anchor="middle" fill="#444">4</text>
<line x1="773.3" y1="540" x2="773.3" y2="543" stroke="#444"/>
<text x="773.3" y="555" text-anchor="middle" fill="#444">5</text>
<line x1="482" y1="540.0" x2="485" y2="540.0" stroke="#444"/>
<text x="479" y="543.0" text-anchor="end" fill="#444">-1.3</text>
<line x1="482" y1="500.0" x2="485" y2="500.0" stroke="#444"/>
<text x="479" y="503.0" text-anchor="end" fill="#444">-0.59</text>
<line x1="482" y1="460.0" x2="485" y2="460.0" stroke="#444"/>
<text x="479" y="463.0" text-anchor="end" fill="#444">0.1</text>
<line x1="482" y1="420.0" x2="485" y2="420.0" stroke="#444"/>
<text x="479" y="423.0" text-anchor="end" fill="#444">0.8</text>
<line x1="482" y1="380.0" x2="485" y2="380.0" stroke="#444"/>
<text x="479" y="383.0" text-anchor="end" fill="#444">1.5</text>
<text x="636.0" y="574" text-anchor="middle" fill="#444">Event time (years from adoption)</text>
<text x="437" y="460.0" text-anchor="middle" fill="#444" transform="rotate(-90 437 460.0)">ATT (per 100k)</text>
<rect x="15" y="620" width="380" height="260" fill="#fafaf7" stroke="#e2e2dc"/>
<text x="205.0" y="638" text-anchor="middle" font-weight="600">Total homicide rate (per 100k)</text>
<line x1="75" y1="753.2235378870547" x2="377" y2="753.2235378870547" stroke="#aaaaaa" stroke-width="0.7"/>
<polygon points="88.7,724.3 116.2,727.0 143.6,688.6 171.1,712.5 198.5,753.2 226.0,751.1 253.5,743.7 280.9,748.2 308.4,738.2 335.8,670.0 363.3,722.9 363.3,778.5 335.8,718.4 308.4,797.4 280.9,775.1 253.5,817.6 226.0,830.0 198.5,753.2 171.1,786.7 143.6,786.4 116.2,763.6 88.7,790.1" fill="#1f3a5f" opacity="0.18"/>
<polyline points="88.7,757.2 116.2,745.3 143.6,737.5 171.1,749.6 198.5,753.2 226.0,790.5 253.5,780.7 280.9,761.7 308.4,767.8 335.8,694.2 363.3,750.7" fill="none" stroke="#1f3a5f" stroke-width="1.6"/>
<circle cx="88.7" cy="757.2" r="2.6" fill="#1f3a5f"/>
<circle cx="116.2" cy="745.3" r="2.6" fill="#1f3a5f"/>
<circle cx="143.6" cy="737.5" r="2.6" fill="#1f3a5f"/>
<circle cx="171.1" cy="749.6" r="2.6" fill="#1f3a5f"/>
<circle cx="198.5" cy="753.2" r="2.6" fill="#1f3a5f"/>
<circle cx="226.0" cy="790.5" r="2.6" fill="#1f3a5f"/>
<circle cx="253.5" cy="780.7" r="2.6" fill="#1f3a5f"/>
<circle cx="280.9" cy="761.7" r="2.6" fill="#1f3a5f"/>
<circle cx="308.4" cy="767.8" r="2.6" fill="#1f3a5f"/>
<circle cx="335.8" cy="694.2" r="2.6" fill="#1f3a5f"/>
<circle cx="363.3" cy="750.7" r="2.6" fill="#1f3a5f"/>
<line x1="212.3" y1="670" x2="212.3" y2="830" stroke="#b9461a" stroke-dasharray="3 3"/>
<line x1="75" y1="830" x2="377" y2="830" stroke="#444"/>
<line x1="75" y1="670" x2="75" y2="830" stroke="#444"/>
<line x1="88.7" y1="830" x2="88.7" y2="833" stroke="#444"/>
<text x="88.7" y="845" text-anchor="middle" fill="#444">-5</text>
<line x1="116.2" y1="830" x2="116.2" y2="833" stroke="#444"/>
<text x="116.2" y="845" text-anchor="middle" fill="#444">-4</text>
<line x1="143.6" y1="830" x2="143.6" y2="833" stroke="#444"/>
<text x="143.6" y="845" text-anchor="middle" fill="#444">-3</text>
<line x1="171.1" y1="830" x2="171.1" y2="833" stroke="#444"/>
<text x="171.1" y="845" text-anchor="middle" fill="#444">-2</text>
<line x1="198.5" y1="830" x2="198.5" y2="833" stroke="#444"/>
<text x="198.5" y="845" text-anchor="middle" fill="#444">-1</text>
<line x1="226.0" y1="830" x2="226.0" y2="833" stroke="#444"/>
<text x="226.0" y="845" text-anchor="middle" fill="#444">0</text>
<line x1="253.5" y1="830" x2="253.5" y2="833" stroke="#444"/>
<text x="253.5" y="845" text-anchor="middle" fill="#444">1</text>
<line x1="280.9" y1="830" x2="280.9" y2="833" stroke="#444"/>
<text x="280.9" y="845" text-anchor="middle" fill="#444">2</text>
<line x1="308.4" y1="830" x2="308.4" y2="833" stroke="#444"/>
<text x="308.4" y="845" text-anchor="middle" fill="#444">3</text>
<line x1="335.8" y1="830" x2="335.8" y2="833" stroke="#444"/>
<text x="335.8" y="845" text-anchor="middle" fill="#444">4</text>
<line x1="363.3" y1="830" x2="363.3" y2="833" stroke="#444"/>
<text x="363.3" y="845" text-anchor="middle" fill="#444">5</text>
<line x1="72" y1="830.0" x2="75" y2="830.0" stroke="#444"/>
<text x="69" y="833.0" text-anchor="end" fill="#444">-1.7</text>
<line x1="72" y1="790.0" x2="75" y2="790.0" stroke="#444"/>
<text x="69" y="793.0" text-anchor="end" fill="#444">-0.8</text>
<line x1="72" y1="750.0" x2="75" y2="750.0" stroke="#444"/>
<text x="69" y="753.0" text-anchor="end" fill="#444">0.071</text>
<line x1="72" y1="710.0" x2="75" y2="710.0" stroke="#444"/>
<text x="69" y="713.0" text-anchor="end" fill="#444">0.95</text>
<line x1="72" y1="670.0" x2="75" y2="670.0" stroke="#444"/>
<text x="69" y="673.0" text-anchor="end" fill="#444">1.8</text>
<text x="226.0" y="864" text-anchor="middle" fill="#444">Event time (years from adoption)</text>
<text x="27" y="750.0" text-anchor="middle" fill="#444" transform="rotate(-90 27 750.0)">ATT (per 100k)</text>
<rect x="425" y="620" width="380" height="260" fill="#fafaf7" stroke="#e2e2dc"/>
<text x="615.0" y="638" text-anchor="middle" font-weight="600">Motor vehicle theft rate (per 100k) [placebo]</text>
<line x1="485" y1="762.2554013984986" x2="787" y2="762.2554013984986" stroke="#aaaaaa" stroke-width="0.7"/>
<polygon points="498.7,713.0 526.2,725.8 553.6,721.6 581.1,738.4 608.5,762.3 636.0,698.2 663.5,670.0 690.9,767.9 718.4,728.8 745.8,690.9 773.3,688.1 773.3,786.0 745.8,781.7 718.4,812.0 690.9,808.8 663.5,817.0 636.0,822.1 608.5,762.3 581.1,799.8 553.6,799.3 526.2,827.0 498.7,830.0" fill="#1f3a5f" opacity="0.18"/>
<polyline points="498.7,771.5 526.2,776.4 553.6,760.4 581.1,769.1 608.5,762.3 636.0,760.1 663.5,743.5 690.9,788.4 718.4,770.4 745.8,736.3 773.3,737.0" fill="none" stroke="#1f3a5f" stroke-width="1.6"/>
<circle cx="498.7" cy="771.5" r="2.6" fill="#1f3a5f"/>
<circle cx="526.2" cy="776.4" r="2.6" fill="#1f3a5f"/>
<circle cx="553.6" cy="760.4" r="2.6" fill="#1f3a5f"/>
<circle cx="581.1" cy="769.1" r="2.6" fill="#1f3a5f"/>
<circle cx="608.5" cy="762.3" r="2.6" fill="#1f3a5f"/>
<circle cx="636.0" cy="760.1" r="2.6" fill="#1f3a5f"/>
<circle cx="663.5" cy="743.5" r="2.6" fill="#1f3a5f"/>
<circle cx="690.9" cy="788.4" r="2.6" fill="#1f3a5f"/>
<circle cx="718.4" cy="770.4" r="2.6" fill="#1f3a5f"/>
<circle cx="745.8" cy="736.3" r="2.6" fill="#1f3a5f"/>
<circle cx="773.3" cy="737.0" r="2.6" fill="#1f3a5f"/>
<line x1="622.3" y1="670" x2="622.3" y2="830" stroke="#b9461a" stroke-dasharray="3 3"/>
<line x1="485" y1="830" x2="787" y2="830" stroke="#444"/>
<line x1="485" y1="670" x2="485" y2="830" stroke="#444"/>
<line x1="498.7" y1="830" x2="498.7" y2="833" stroke="#444"/>
<text x="498.7" y="845" text-anchor="middle" fill="#444">-5</text>
<line x1="526.2" y1="830" x2="526.2" y2="833" stroke="#444"/>
<text x="526.2" y="845" text-anchor="middle" fill="#444">-4</text>
<line x1="553.6" y1="830" x2="553.6" y2="833" stroke="#444"/>
<text x="553.6" y="845" text-anchor="middle" fill="#444">-3</text>
<line x1="581.1" y1="830" x2="581.1" y2="833" stroke="#444"/>
<text x="581.1" y="845" text-anchor="middle" fill="#444">-2</text>
<line x1="608.5" y1="830" x2="608.5" y2="833" stroke="#444"/>
<text x="608.5" y="845" text-anchor="middle" fill="#444">-1</text>
<line x1="636.0" y1="830" x2="636.0" y2="833" stroke="#444"/>
<text x="636.0" y="845" text-anchor="middle" fill="#444">0</text>
<line x1="663.5" y1="830" x2="663.5" y2="833" stroke="#444"/>
<text x="663.5" y="845" text-anchor="middle" fill="#444">1</text>
<line x1="690.9" y1="830" x2="690.9" y2="833" stroke="#444"/>
<text x="690.9" y="845" text-anchor="middle" fill="#444">2</text>
<line x1="718.4" y1="830" x2="718.4" y2="833" stroke="#444"/>
<text x="718.4" y="845" text-anchor="middle" fill="#444">3</text>
<line x1="745.8" y1="830" x2="745.8" y2="833" stroke="#444"/>
<text x="745.8" y="845" text-anchor="middle" fill="#444">4</text>
<line x1="773.3" y1="830" x2="773.3" y2="833" stroke="#444"/>
<text x="773.3" y="845" text-anchor="middle" fill="#444">5</text>
<line x1="482" y1="830.0" x2="485" y2="830.0" stroke="#444"/>
<text x="479" y="833.0" text-anchor="end" fill="#444">-83</text>
<line x1="482" y1="790.0" x2="485" y2="790.0" stroke="#444"/>
<text x="479" y="793.0" text-anchor="end" fill="#444">-34</text>
<line x1="482" y1="750.0" x2="485" y2="750.0" stroke="#444"/>
<text x="479" y="753.0" text-anchor="end" fill="#444">15</text>
<line x1="482" y1="710.0" x2="485" y2="710.0" stroke="#444"/>
<text x="479" y="713.0" text-anchor="end" fill="#444">64</text>
<line x1="482" y1="670.0" x2="485" y2="670.0" stroke="#444"/>
<text x="479" y="673.0" text-anchor="end" fill="#444">1.1e+02</text>
<text x="636.0" y="864" text-anchor="middle" fill="#444">Event time (years from adoption)</text>
<text x="437" y="750.0" text-anchor="middle" fill="#444" transform="rotate(-90 437 750.0)">ATT (per 100k)</text>
<text x="805" y="608" text-anchor="end" fill="#888" font-size="10">Shaded band: pointwise 95% CI from cluster bootstrap. Vertical dashed line marks the year before adoption.</text>
</svg>