<svg xmlns="http://www.w3.org/2000/svg" viewBox="0 0 820 1200" font-family="-apple-system, Segoe UI, Helvetica, Arial, sans-serif" font-size="11">
<text x="410.0" y="22" text-anchor="middle" font-size="14" font-weight="600">Callaway-Sant'Anna ATT by event time, county grain (OR) -- red-flag (law_gvro)</text>
<rect x="15" y="40" width="380" height="260" fill="#fafaf7" stroke="#e2e2dc"/>
<text x="205.0" y="58" text-anchor="middle" font-weight="600">Violent crime rate (per 100k, county UCR)</text>
<line x1="75" y1="108.85424724054775" x2="377" y2="108.85424724054775" stroke="#aaaaaa" stroke-width="0.7"/>
<polygon points="88.7,96.5 116.2,99.5 143.6,104.4 171.1,96.8 226.0,90.0 253.5,112.3 280.9,123.8 308.4,94.2 335.8,97.4 363.3,103.0 363.3,250.0 335.8,160.4 308.4,203.5 280.9,232.6 253.5,150.9 226.0,115.4 171.1,133.8 143.6,137.7 116.2,142.3 88.7,140.2" fill="#1f3a5f" opacity="0.18"/>
<polyline points="88.7,118.3 116.2,120.9 143.6,121.0 171.1,115.3 226.0,102.7 253.5,131.6 280.9,178.2 308.4,148.9 335.8,128.9 363.3,176.5" fill="none" stroke="#1f3a5f" stroke-width="1.6"/>
<circle cx="88.7" cy="118.3" r="2.6" fill="#1f3a5f"/>
<circle cx="116.2" cy="120.9" r="2.6" fill="#1f3a5f"/>
<circle cx="143.6" cy="121.0" r="2.6" fill="#1f3a5f"/>
<circle cx="171.1" cy="115.3" r="2.6" fill="#1f3a5f"/>
<circle cx="226.0" cy="102.7" r="2.6" fill="#1f3a5f"/>
<circle cx="253.5" cy="131.6" r="2.6" fill="#1f3a5f"/>
<circle cx="280.9" cy="178.2" r="2.6" fill="#1f3a5f"/>
<circle cx="308.4" cy="148.9" r="2.6" fill="#1f3a5f"/>
<circle cx="335.8" cy="128.9" r="2.6" fill="#1f3a5f"/>
<circle cx="363.3" cy="176.5" r="2.6" fill="#1f3a5f"/>
<line x1="212.3" y1="90" x2="212.3" y2="250" stroke="#b9461a" stroke-dasharray="3 3"/>
<line x1="75" y1="250" x2="377" y2="250" stroke="#444"/>
<line x1="75" y1="90" x2="75" y2="250" stroke="#444"/>
<line x1="88.7" y1="250" x2="88.7" y2="253" stroke="#444"/>
<text x="88.7" y="265" text-anchor="middle" fill="#444">-5</text>
<line x1="116.2" y1="250" x2="116.2" y2="253" stroke="#444"/>
<text x="116.2" y="265" text-anchor="middle" fill="#444">-4</text>
<line x1="143.6" y1="250" x2="143.6" y2="253" stroke="#444"/>
<text x="143.6" y="265" text-anchor="middle" fill="#444">-3</text>
<line x1="171.1" y1="250" x2="171.1" y2="253" stroke="#444"/>
<text x="171.1" y="265" text-anchor="middle" fill="#444">-2</text>
<line x1="226.0" y1="250" x2="226.0" y2="253" stroke="#444"/>
<text x="226.0" y="265" text-anchor="middle" fill="#444">0</text>
<line x1="253.5" y1="250" x2="253.5" y2="253" stroke="#444"/>
<text x="253.5" y="265" text-anchor="middle" fill="#444">1</text>
<line x1="280.9" y1="250" x2="280.9" y2="253" stroke="#444"/>
<text x="280.9" y="265" text-anchor="middle" fill="#444">2</text>
<line x1="308.4" y1="250" x2="308.4" y2="253" stroke="#444"/>
<text x="308.4" y="265" text-anchor="middle" fill="#444">3</text>
<line x1="335.8" y1="250" x2="335.8" y2="253" stroke="#444"/>
<text x="335.8" y="265" text-anchor="middle" fill="#444">4</text>
<line x1="363.3" y1="250" x2="363.3" y2="253" stroke="#444"/>
<text x="363.3" y="265" text-anchor="middle" fill="#444">5</text>
<line x1="72" y1="250.0" x2="75" y2="250.0" stroke="#444"/>
<text x="69" y="253.0" text-anchor="end" fill="#444">-1.1e+02</text>
<line x1="72" y1="210.0" x2="75" y2="210.0" stroke="#444"/>
<text x="69" y="213.0" text-anchor="end" fill="#444">-80</text>
<line x1="72" y1="170.0" x2="75" y2="170.0" stroke="#444"/>
<text x="69" y="173.0" text-anchor="end" fill="#444">-49</text>
<line x1="72" y1="130.0" x2="75" y2="130.0" stroke="#444"/>
<text x="69" y="133.0" text-anchor="end" fill="#444">-17</text>
<line x1="72" y1="90.0" x2="75" y2="90.0" stroke="#444"/>
<text x="69" y="93.0" text-anchor="end" fill="#444">15</text>
<text x="226.0" y="284" text-anchor="middle" fill="#444">Event time (years from state-level adoption)</text>
<text x="27" y="170.0" text-anchor="middle" fill="#444" transform="rotate(-90 27 170.0)">ATT (per 100k)</text>
<rect x="425" y="40" width="380" height="260" fill="#fafaf7" stroke="#e2e2dc"/>
<text x="615.0" y="58" text-anchor="middle" font-weight="600">Murder rate (per 100k, county UCR)</text>
<line x1="485" y1="227.9145848141323" x2="787" y2="227.9145848141323" stroke="#aaaaaa" stroke-width="0.7"/>
<polygon points="498.7,215.1 526.2,224.0 553.6,224.9 581.1,90.0 636.0,220.6 663.5,228.9 690.9,228.0 718.4,229.7 745.8,228.7 773.3,230.4 773.3,245.2 745.8,237.6 718.4,241.0 690.9,244.2 663.5,236.0 636.0,226.4 581.1,250.0 553.6,233.3 526.2,231.6 498.7,226.6" fill="#1f3a5f" opacity="0.18"/>
<polyline points="498.7,220.8 526.2,227.8 553.6,229.1 581.1,170.0 636.0,223.5 663.5,232.4 690.9,236.1 718.4,235.3 745.8,233.2 773.3,237.8" fill="none" stroke="#1f3a5f" stroke-width="1.6"/>
<circle cx="498.7" cy="220.8" r="2.6" fill="#1f3a5f"/>
<circle cx="526.2" cy="227.8" r="2.6" fill="#1f3a5f"/>
<circle cx="553.6" cy="229.1" r="2.6" fill="#1f3a5f"/>
<circle cx="581.1" cy="170.0" r="2.6" fill="#1f3a5f"/>
<circle cx="636.0" cy="223.5" r="2.6" fill="#1f3a5f"/>
<circle cx="663.5" cy="232.4" r="2.6" fill="#1f3a5f"/>
<circle cx="690.9" cy="236.1" r="2.6" fill="#1f3a5f"/>
<circle cx="718.4" cy="235.3" r="2.6" fill="#1f3a5f"/>
<circle cx="745.8" cy="233.2" r="2.6" fill="#1f3a5f"/>
<circle cx="773.3" cy="237.8" r="2.6" fill="#1f3a5f"/>
<line x1="622.3" y1="90" x2="622.3" y2="250" stroke="#b9461a" stroke-dasharray="3 3"/>
<line x1="485" y1="250" x2="787" y2="250" stroke="#444"/>
<line x1="485" y1="90" x2="485" y2="250" stroke="#444"/>
<line x1="498.7" y1="250" x2="498.7" y2="253" stroke="#444"/>
<text x="498.7" y="265" text-anchor="middle" fill="#444">-5</text>
<line x1="526.2" y1="250" x2="526.2" y2="253" stroke="#444"/>
<text x="526.2" y="265" text-anchor="middle" fill="#444">-4</text>
<line x1="553.6" y1="250" x2="553.6" y2="253" stroke="#444"/>
<text x="553.6" y="265" text-anchor="middle" fill="#444">-3</text>
<line x1="581.1" y1="250" x2="581.1" y2="253" stroke="#444"/>
<text x="581.1" y="265" text-anchor="middle" fill="#444">-2</text>
<line x1="636.0" y1="250" x2="636.0" y2="253" stroke="#444"/>
<text x="636.0" y="265" text-anchor="middle" fill="#444">0</text>
<line x1="663.5" y1="250" x2="663.5" y2="253" stroke="#444"/>
<text x="663.5" y="265" text-anchor="middle" fill="#444">1</text>
<line x1="690.9" y1="250" x2="690.9" y2="253" stroke="#444"/>
<text x="690.9" y="265" text-anchor="middle" fill="#444">2</text>
<line x1="718.4" y1="250" x2="718.4" y2="253" stroke="#444"/>
<text x="718.4" y="265" text-anchor="middle" fill="#444">3</text>
<line x1="745.8" y1="250" x2="745.8" y2="253" stroke="#444"/>
<text x="745.8" y="265" text-anchor="middle" fill="#444">4</text>
<line x1="773.3" y1="250" x2="773.3" y2="253" stroke="#444"/>
<text x="773.3" y="265" text-anchor="middle" fill="#444">5</text>
<line x1="482" y1="250.0" x2="485" y2="250.0" stroke="#444"/>
<text x="479" y="253.0" text-anchor="end" fill="#444">-2.2</text>
<line x1="482" y1="210.0" x2="485" y2="210.0" stroke="#444"/>
<text x="479" y="213.0" text-anchor="end" fill="#444">1.8</text>
<line x1="482" y1="170.0" x2="485" y2="170.0" stroke="#444"/>
<text x="479" y="173.0" text-anchor="end" fill="#444">5.8</text>
<line x1="482" y1="130.0" x2="485" y2="130.0" stroke="#444"/>
<text x="479" y="133.0" text-anchor="end" fill="#444">9.8</text>
<line x1="482" y1="90.0" x2="485" y2="90.0" stroke="#444"/>
<text x="479" y="93.0" text-anchor="end" fill="#444">14</text>
<text x="636.0" y="284" text-anchor="middle" fill="#444">Event time (years from state-level adoption)</text>
<text x="437" y="170.0" text-anchor="middle" fill="#444" transform="rotate(-90 437 170.0)">ATT (per 100k)</text>
<rect x="15" y="330" width="380" height="260" fill="#fafaf7" stroke="#e2e2dc"/>
<text x="205.0" y="348" text-anchor="middle" font-weight="600">Property crime rate (per 100k, county UCR)</text>
<line x1="75" y1="439.45225179685775" x2="377" y2="439.45225179685775" stroke="#aaaaaa" stroke-width="0.7"/>
<polygon points="88.7,430.4 116.2,428.7 143.6,425.4 171.1,428.2 226.0,417.6 253.5,405.9 280.9,414.9 308.4,380.0 335.8,383.1 363.3,407.2 363.3,528.3 335.8,468.3 308.4,508.2 280.9,540.0 253.5,457.7 226.0,439.4 171.1,451.8 143.6,456.7 116.2,464.5 88.7,475.2" fill="#1f3a5f" opacity="0.18"/>
<polyline points="88.7,452.8 116.2,446.6 143.6,441.0 171.1,440.0 226.0,428.5 253.5,431.8 280.9,477.4 308.4,444.1 335.8,425.7 363.3,467.8" fill="none" stroke="#1f3a5f" stroke-width="1.6"/>
<circle cx="88.7" cy="452.8" r="2.6" fill="#1f3a5f"/>
<circle cx="116.2" cy="446.6" r="2.6" fill="#1f3a5f"/>
<circle cx="143.6" cy="441.0" r="2.6" fill="#1f3a5f"/>
<circle cx="171.1" cy="440.0" r="2.6" fill="#1f3a5f"/>
<circle cx="226.0" cy="428.5" r="2.6" fill="#1f3a5f"/>
<circle cx="253.5" cy="431.8" r="2.6" fill="#1f3a5f"/>
<circle cx="280.9" cy="477.4" r="2.6" fill="#1f3a5f"/>
<circle cx="308.4" cy="444.1" r="2.6" fill="#1f3a5f"/>
<circle cx="335.8" cy="425.7" r="2.6" fill="#1f3a5f"/>
<circle cx="363.3" cy="467.8" r="2.6" fill="#1f3a5f"/>
<line x1="212.3" y1="380" x2="212.3" y2="540" stroke="#b9461a" stroke-dasharray="3 3"/>
<line x1="75" y1="540" x2="377" y2="540" stroke="#444"/>
<line x1="75" y1="380" x2="75" y2="540" stroke="#444"/>
<line x1="88.7" y1="540" x2="88.7" y2="543" stroke="#444"/>
<text x="88.7" y="555" text-anchor="middle" fill="#444">-5</text>
<line x1="116.2" y1="540" x2="116.2" y2="543" stroke="#444"/>
<text x="116.2" y="555" text-anchor="middle" fill="#444">-4</text>
<line x1="143.6" y1="540" x2="143.6" y2="543" stroke="#444"/>
<text x="143.6" y="555" text-anchor="middle" fill="#444">-3</text>
<line x1="171.1" y1="540" x2="171.1" y2="543" stroke="#444"/>
<text x="171.1" y="555" text-anchor="middle" fill="#444">-2</text>
<line x1="226.0" y1="540" x2="226.0" y2="543" stroke="#444"/>
<text x="226.0" y="555" text-anchor="middle" fill="#444">0</text>
<line x1="253.5" y1="540" x2="253.5" y2="543" stroke="#444"/>
<text x="253.5" y="555" text-anchor="middle" fill="#444">1</text>
<line x1="280.9" y1="540" x2="280.9" y2="543" stroke="#444"/>
<text x="280.9" y="555" text-anchor="middle" fill="#444">2</text>
<line x1="308.4" y1="540" x2="308.4" y2="543" stroke="#444"/>
<text x="308.4" y="555" text-anchor="middle" fill="#444">3</text>
<line x1="335.8" y1="540" x2="335.8" y2="543" stroke="#444"/>
<text x="335.8" y="555" text-anchor="middle" fill="#444">4</text>
<line x1="363.3" y1="540" x2="363.3" y2="543" stroke="#444"/>
<text x="363.3" y="555" text-anchor="middle" fill="#444">5</text>
<line x1="72" y1="540.0" x2="75" y2="540.0" stroke="#444"/>
<text x="69" y="543.0" text-anchor="end" fill="#444">-4.1e+02</text>
<line x1="72" y1="500.0" x2="75" y2="500.0" stroke="#444"/>
<text x="69" y="503.0" text-anchor="end" fill="#444">-2.4e+02</text>
<line x1="72" y1="460.0" x2="75" y2="460.0" stroke="#444"/>
<text x="69" y="463.0" text-anchor="end" fill="#444">-83</text>
<line x1="72" y1="420.0" x2="75" y2="420.0" stroke="#444"/>
<text x="69" y="423.0" text-anchor="end" fill="#444">79</text>
<line x1="72" y1="380.0" x2="75" y2="380.0" stroke="#444"/>
<text x="69" y="383.0" text-anchor="end" fill="#444">2.4e+02</text>
<text x="226.0" y="574" text-anchor="middle" fill="#444">Event time (years from state-level adoption)</text>
<text x="27" y="460.0" text-anchor="middle" fill="#444" transform="rotate(-90 27 460.0)">ATT (per 100k)</text>
<rect x="425" y="330" width="380" height="260" fill="#fafaf7" stroke="#e2e2dc"/>
<text x="615.0" y="348" text-anchor="middle" font-weight="600">Burglary rate (per 100k, county UCR)</text>
<line x1="485" y1="452.94007308931486" x2="787" y2="452.94007308931486" stroke="#aaaaaa" stroke-width="0.7"/>
<polygon points="498.7,453.8 526.2,441.7 553.6,438.8 581.1,447.6 636.0,422.4 663.5,410.3 690.9,412.9 718.4,380.0 745.8,387.8 773.3,392.7 773.3,508.8 745.8,465.4 718.4,514.3 690.9,540.0 663.5,474.0 636.0,450.2 581.1,470.2 553.6,471.6 526.2,481.5 498.7,509.3" fill="#1f3a5f" opacity="0.18"/>
<polyline points="498.7,481.6 526.2,461.6 553.6,455.2 581.1,458.9 636.0,436.3 663.5,442.1 690.9,476.4 718.4,447.2 745.8,426.6 773.3,450.8" fill="none" stroke="#1f3a5f" stroke-width="1.6"/>
<circle cx="498.7" cy="481.6" r="2.6" fill="#1f3a5f"/>
<circle cx="526.2" cy="461.6" r="2.6" fill="#1f3a5f"/>
<circle cx="553.6" cy="455.2" r="2.6" fill="#1f3a5f"/>
<circle cx="581.1" cy="458.9" r="2.6" fill="#1f3a5f"/>
<circle cx="636.0" cy="436.3" r="2.6" fill="#1f3a5f"/>
<circle cx="663.5" cy="442.1" r="2.6" fill="#1f3a5f"/>
<circle cx="690.9" cy="476.4" r="2.6" fill="#1f3a5f"/>
<circle cx="718.4" cy="447.2" r="2.6" fill="#1f3a5f"/>
<circle cx="745.8" cy="426.6" r="2.6" fill="#1f3a5f"/>
<circle cx="773.3" cy="450.8" r="2.6" fill="#1f3a5f"/>
<line x1="622.3" y1="380" x2="622.3" y2="540" stroke="#b9461a" stroke-dasharray="3 3"/>
<line x1="485" y1="540" x2="787" y2="540" stroke="#444"/>
<line x1="485" y1="380" x2="485" y2="540" stroke="#444"/>
<line x1="498.7" y1="540" x2="498.7" y2="543" stroke="#444"/>
<text x="498.7" y="555" text-anchor="middle" fill="#444">-5</text>
<line x1="526.2" y1="540" x2="526.2" y2="543" stroke="#444"/>
<text x="526.2" y="555" text-anchor="middle" fill="#444">-4</text>
<line x1="553.6" y1="540" x2="553.6" y2="543" stroke="#444"/>
<text x="553.6" y="555" text-anchor="middle" fill="#444">-3</text>
<line x1="581.1" y1="540" x2="581.1" y2="543" stroke="#444"/>
<text x="581.1" y="555" text-anchor="middle" fill="#444">-2</text>
<line x1="636.0" y1="540" x2="636.0" y2="543" stroke="#444"/>
<text x="636.0" y="555" text-anchor="middle" fill="#444">0</text>
<line x1="663.5" y1="540" x2="663.5" y2="543" stroke="#444"/>
<text x="663.5" y="555" text-anchor="middle" fill="#444">1</text>
<line x1="690.9" y1="540" x2="690.9" y2="543" stroke="#444"/>
<text x="690.9" y="555" text-anchor="middle" fill="#444">2</text>
<line x1="718.4" y1="540" x2="718.4" y2="543" stroke="#444"/>
<text x="718.4" y="555" text-anchor="middle" fill="#444">3</text>
<line x1="745.8" y1="540" x2="745.8" y2="543" stroke="#444"/>
<text x="745.8" y="555" text-anchor="middle" fill="#444">4</text>
<line x1="773.3" y1="540" x2="773.3" y2="543" stroke="#444"/>
<text x="773.3" y="555" text-anchor="middle" fill="#444">5</text>
<line x1="482" y1="540.0" x2="485" y2="540.0" stroke="#444"/>
<text x="479" y="543.0" text-anchor="end" fill="#444">-72</text>
<line x1="482" y1="500.0" x2="485" y2="500.0" stroke="#444"/>
<text x="479" y="503.0" text-anchor="end" fill="#444">-39</text>
<line x1="482" y1="460.0" x2="485" y2="460.0" stroke="#444"/>
<text x="479" y="463.0" text-anchor="end" fill="#444">-5.8</text>
<line x1="482" y1="420.0" x2="485" y2="420.0" stroke="#444"/>
<text x="479" y="423.0" text-anchor="end" fill="#444">27</text>
<line x1="482" y1="380.0" x2="485" y2="380.0" stroke="#444"/>
<text x="479" y="383.0" text-anchor="end" fill="#444">60</text>
<text x="636.0" y="574" text-anchor="middle" fill="#444">Event time (years from state-level adoption)</text>
<text x="437" y="460.0" text-anchor="middle" fill="#444" transform="rotate(-90 437 460.0)">ATT (per 100k)</text>
<rect x="15" y="620" width="380" height="260" fill="#fafaf7" stroke="#e2e2dc"/>
<text x="205.0" y="638" text-anchor="middle" font-weight="600">Motor vehicle theft rate (per 100k, county UCR) [placebo]</text>
<line x1="75" y1="726.5379971096578" x2="377" y2="726.5379971096578" stroke="#aaaaaa" stroke-width="0.7"/>
<polygon points="88.7,714.5 116.2,712.2 143.6,712.9 171.1,715.0 226.0,708.5 253.5,694.5 280.9,683.3 308.4,677.1 335.8,675.9 363.3,670.0 363.3,830.0 335.8,725.1 308.4,765.5 280.9,791.5 253.5,743.8 226.0,727.4 171.1,740.2 143.6,740.1 116.2,757.8 88.7,756.2" fill="#1f3a5f" opacity="0.18"/>
<polyline points="88.7,735.4 116.2,735.0 143.6,726.5 171.1,727.6 226.0,718.0 253.5,719.2 280.9,737.4 308.4,721.3 335.8,700.5 363.3,750.0" fill="none" stroke="#1f3a5f" stroke-width="1.6"/>
<circle cx="88.7" cy="735.4" r="2.6" fill="#1f3a5f"/>
<circle cx="116.2" cy="735.0" r="2.6" fill="#1f3a5f"/>
<circle cx="143.6" cy="726.5" r="2.6" fill="#1f3a5f"/>
<circle cx="171.1" cy="727.6" r="2.6" fill="#1f3a5f"/>
<circle cx="226.0" cy="718.0" r="2.6" fill="#1f3a5f"/>
<circle cx="253.5" cy="719.2" r="2.6" fill="#1f3a5f"/>
<circle cx="280.9" cy="737.4" r="2.6" fill="#1f3a5f"/>
<circle cx="308.4" cy="721.3" r="2.6" fill="#1f3a5f"/>
<circle cx="335.8" cy="700.5" r="2.6" fill="#1f3a5f"/>
<circle cx="363.3" cy="750.0" r="2.6" fill="#1f3a5f"/>
<line x1="212.3" y1="670" x2="212.3" y2="830" stroke="#b9461a" stroke-dasharray="3 3"/>
<line x1="75" y1="830" x2="377" y2="830" stroke="#444"/>
<line x1="75" y1="670" x2="75" y2="830" stroke="#444"/>
<line x1="88.7" y1="830" x2="88.7" y2="833" stroke="#444"/>
<text x="88.7" y="845" text-anchor="middle" fill="#444">-5</text>
<line x1="116.2" y1="830" x2="116.2" y2="833" stroke="#444"/>
<text x="116.2" y="845" text-anchor="middle" fill="#444">-4</text>
<line x1="143.6" y1="830" x2="143.6" y2="833" stroke="#444"/>
<text x="143.6" y="845" text-anchor="middle" fill="#444">-3</text>
<line x1="171.1" y1="830" x2="171.1" y2="833" stroke="#444"/>
<text x="171.1" y="845" text-anchor="middle" fill="#444">-2</text>
<line x1="226.0" y1="830" x2="226.0" y2="833" stroke="#444"/>
<text x="226.0" y="845" text-anchor="middle" fill="#444">0</text>
<line x1="253.5" y1="830" x2="253.5" y2="833" stroke="#444"/>
<text x="253.5" y="845" text-anchor="middle" fill="#444">1</text>
<line x1="280.9" y1="830" x2="280.9" y2="833" stroke="#444"/>
<text x="280.9" y="845" text-anchor="middle" fill="#444">2</text>
<line x1="308.4" y1="830" x2="308.4" y2="833" stroke="#444"/>
<text x="308.4" y="845" text-anchor="middle" fill="#444">3</text>
<line x1="335.8" y1="830" x2="335.8" y2="833" stroke="#444"/>
<text x="335.8" y="845" text-anchor="middle" fill="#444">4</text>
<line x1="363.3" y1="830" x2="363.3" y2="833" stroke="#444"/>
<text x="363.3" y="845" text-anchor="middle" fill="#444">5</text>
<line x1="72" y1="830.0" x2="75" y2="830.0" stroke="#444"/>
<text x="69" y="833.0" text-anchor="end" fill="#444">-67</text>
<line x1="72" y1="790.0" x2="75" y2="790.0" stroke="#444"/>
<text x="69" y="793.0" text-anchor="end" fill="#444">-41</text>
<line x1="72" y1="750.0" x2="75" y2="750.0" stroke="#444"/>
<text x="69" y="753.0" text-anchor="end" fill="#444">-15</text>
<line x1="72" y1="710.0" x2="75" y2="710.0" stroke="#444"/>
<text x="69" y="713.0" text-anchor="end" fill="#444">11</text>
<line x1="72" y1="670.0" x2="75" y2="670.0" stroke="#444"/>
<text x="69" y="673.0" text-anchor="end" fill="#444">36</text>
<text x="226.0" y="864" text-anchor="middle" fill="#444">Event time (years from state-level adoption)</text>
<text x="27" y="750.0" text-anchor="middle" fill="#444" transform="rotate(-90 27 750.0)">ATT (per 100k)</text>
<rect x="425" y="620" width="380" height="260" fill="#fafaf7" stroke="#e2e2dc"/>
<text x="615.0" y="638" text-anchor="middle" font-weight="600">State firearm suicide rate (joined down) [no county variation]</text>
<line x1="485" y1="731.4808739366532" x2="787" y2="731.4808739366532" stroke="#aaaaaa" stroke-width="0.7"/>
<polygon points="498.7,670.0 526.2,690.0 553.6,710.3 581.1,708.8 636.0,725.6 663.5,720.7 690.9,727.8 718.4,728.4 745.8,739.2 773.3,773.0 773.3,830.0 745.8,779.6 718.4,774.1 690.9,778.4 663.5,758.7 636.0,752.4 581.1,745.1 553.6,743.2 526.2,728.6 498.7,712.0" fill="#1f3a5f" opacity="0.18"/>
<polyline points="498.7,691.0 526.2,709.3 553.6,726.8 581.1,727.0 636.0,739.0 663.5,739.7 690.9,753.1 718.4,751.3 745.8,759.4 773.3,801.5" fill="none" stroke="#1f3a5f" stroke-width="1.6"/>
<circle cx="498.7" cy="691.0" r="2.6" fill="#1f3a5f"/>
<circle cx="526.2" cy="709.3" r="2.6" fill="#1f3a5f"/>
<circle cx="553.6" cy="726.8" r="2.6" fill="#1f3a5f"/>
<circle cx="581.1" cy="727.0" r="2.6" fill="#1f3a5f"/>
<circle cx="636.0" cy="739.0" r="2.6" fill="#1f3a5f"/>
<circle cx="663.5" cy="739.7" r="2.6" fill="#1f3a5f"/>
<circle cx="690.9" cy="753.1" r="2.6" fill="#1f3a5f"/>
<circle cx="718.4" cy="751.3" r="2.6" fill="#1f3a5f"/>
<circle cx="745.8" cy="759.4" r="2.6" fill="#1f3a5f"/>
<circle cx="773.3" cy="801.5" r="2.6" fill="#1f3a5f"/>
<line x1="622.3" y1="670" x2="622.3" y2="830" stroke="#b9461a" stroke-dasharray="3 3"/>
<line x1="485" y1="830" x2="787" y2="830" stroke="#444"/>
<line x1="485" y1="670" x2="485" y2="830" stroke="#444"/>
<line x1="498.7" y1="830" x2="498.7" y2="833" stroke="#444"/>
<text x="498.7" y="845" text-anchor="middle" fill="#444">-5</text>
<line x1="526.2" y1="830" x2="526.2" y2="833" stroke="#444"/>
<text x="526.2" y="845" text-anchor="middle" fill="#444">-4</text>
<line x1="553.6" y1="830" x2="553.6" y2="833" stroke="#444"/>
<text x="553.6" y="845" text-anchor="middle" fill="#444">-3</text>
<line x1="581.1" y1="830" x2="581.1" y2="833" stroke="#444"/>
<text x="581.1" y="845" text-anchor="middle" fill="#444">-2</text>
<line x1="636.0" y1="830" x2="636.0" y2="833" stroke="#444"/>
<text x="636.0" y="845" text-anchor="middle" fill="#444">0</text>
<line x1="663.5" y1="830" x2="663.5" y2="833" stroke="#444"/>
<text x="663.5" y="845" text-anchor="middle" fill="#444">1</text>
<line x1="690.9" y1="830" x2="690.9" y2="833" stroke="#444"/>
<text x="690.9" y="845" text-anchor="middle" fill="#444">2</text>
<line x1="718.4" y1="830" x2="718.4" y2="833" stroke="#444"/>
<text x="718.4" y="845" text-anchor="middle" fill="#444">3</text>
<line x1="745.8" y1="830" x2="745.8" y2="833" stroke="#444"/>
<text x="745.8" y="845" text-anchor="middle" fill="#444">4</text>
<line x1="773.3" y1="830" x2="773.3" y2="833" stroke="#444"/>
<text x="773.3" y="845" text-anchor="middle" fill="#444">5</text>
<line x1="482" y1="830.0" x2="485" y2="830.0" stroke="#444"/>
<text x="479" y="833.0" text-anchor="end" fill="#444">-1.4</text>
<line x1="482" y1="790.0" x2="485" y2="790.0" stroke="#444"/>
<text x="479" y="793.0" text-anchor="end" fill="#444">-0.83</text>
<line x1="482" y1="750.0" x2="485" y2="750.0" stroke="#444"/>
<text x="479" y="753.0" text-anchor="end" fill="#444">-0.26</text>
<line x1="482" y1="710.0" x2="485" y2="710.0" stroke="#444"/>
<text x="479" y="713.0" text-anchor="end" fill="#444">0.31</text>
<line x1="482" y1="670.0" x2="485" y2="670.0" stroke="#444"/>
<text x="479" y="673.0" text-anchor="end" fill="#444">0.88</text>
<text x="636.0" y="864" text-anchor="middle" fill="#444">Event time (years from state-level adoption)</text>
<text x="437" y="750.0" text-anchor="middle" fill="#444" transform="rotate(-90 437 750.0)">ATT (per 100k)</text>
<rect x="15" y="910" width="380" height="260" fill="#fafaf7" stroke="#e2e2dc"/>
<text x="205.0" y="928" text-anchor="middle" font-weight="600">State total suicide rate (joined down) [no county variation]</text>
<line x1="75" y1="1035.615555452552" x2="377" y2="1035.615555452552" stroke="#aaaaaa" stroke-width="0.7"/>
<polygon points="88.7,960.0 116.2,1000.6 143.6,1018.7 171.1,1013.2 226.0,1013.6 253.5,1009.5 280.9,1022.7 308.4,1029.9 335.8,1027.1 363.3,1054.0 363.3,1120.0 335.8,1087.7 308.4,1078.4 280.9,1089.1 253.5,1064.2 226.0,1050.0 171.1,1061.0 143.6,1051.0 116.2,1047.9 88.7,1014.8" fill="#1f3a5f" opacity="0.18"/>
<polyline points="88.7,987.4 116.2,1024.3 143.6,1034.9 171.1,1037.1 226.0,1031.8 253.5,1036.9 280.9,1055.9 308.4,1054.1 335.8,1057.4 363.3,1087.0" fill="none" stroke="#1f3a5f" stroke-width="1.6"/>
<circle cx="88.7" cy="987.4" r="2.6" fill="#1f3a5f"/>
<circle cx="116.2" cy="1024.3" r="2.6" fill="#1f3a5f"/>
<circle cx="143.6" cy="1034.9" r="2.6" fill="#1f3a5f"/>
<circle cx="171.1" cy="1037.1" r="2.6" fill="#1f3a5f"/>
<circle cx="226.0" cy="1031.8" r="2.6" fill="#1f3a5f"/>
<circle cx="253.5" cy="1036.9" r="2.6" fill="#1f3a5f"/>
<circle cx="280.9" cy="1055.9" r="2.6" fill="#1f3a5f"/>
<circle cx="308.4" cy="1054.1" r="2.6" fill="#1f3a5f"/>
<circle cx="335.8" cy="1057.4" r="2.6" fill="#1f3a5f"/>
<circle cx="363.3" cy="1087.0" r="2.6" fill="#1f3a5f"/>
<line x1="212.3" y1="960" x2="212.3" y2="1120" stroke="#b9461a" stroke-dasharray="3 3"/>
<line x1="75" y1="1120" x2="377" y2="1120" stroke="#444"/>
<line x1="75" y1="960" x2="75" y2="1120" stroke="#444"/>
<line x1="88.7" y1="1120" x2="88.7" y2="1123" stroke="#444"/>
<text x="88.7" y="1135" text-anchor="middle" fill="#444">-5</text>
<line x1="116.2" y1="1120" x2="116.2" y2="1123" stroke="#444"/>
<text x="116.2" y="1135" text-anchor="middle" fill="#444">-4</text>
<line x1="143.6" y1="1120" x2="143.6" y2="1123" stroke="#444"/>
<text x="143.6" y="1135" text-anchor="middle" fill="#444">-3</text>
<line x1="171.1" y1="1120" x2="171.1" y2="1123" stroke="#444"/>
<text x="171.1" y="1135" text-anchor="middle" fill="#444">-2</text>
<line x1="226.0" y1="1120" x2="226.0" y2="1123" stroke="#444"/>
<text x="226.0" y="1135" text-anchor="middle" fill="#444">0</text>
<line x1="253.5" y1="1120" x2="253.5" y2="1123" stroke="#444"/>
<text x="253.5" y="1135" text-anchor="middle" fill="#444">1</text>
<line x1="280.9" y1="1120" x2="280.9" y2="1123" stroke="#444"/>
<text x="280.9" y="1135" text-anchor="middle" fill="#444">2</text>
<line x1="308.4" y1="1120" x2="308.4" y2="1123" stroke="#444"/>
<text x="308.4" y="1135" text-anchor="middle" fill="#444">3</text>
<line x1="335.8" y1="1120" x2="335.8" y2="1123" stroke="#444"/>
<text x="335.8" y="1135" text-anchor="middle" fill="#444">4</text>
<line x1="363.3" y1="1120" x2="363.3" y2="1123" stroke="#444"/>
<text x="363.3" y="1135" text-anchor="middle" fill="#444">5</text>
<line x1="72" y1="1120.0" x2="75" y2="1120.0" stroke="#444"/>
<text x="69" y="1123.0" text-anchor="end" fill="#444">-1.3</text>
<line x1="72" y1="1080.0" x2="75" y2="1080.0" stroke="#444"/>
<text x="69" y="1083.0" text-anchor="end" fill="#444">-0.71</text>
<line x1="72" y1="1040.0" x2="75" y2="1040.0" stroke="#444"/>
<text x="69" y="1043.0" text-anchor="end" fill="#444">-0.07</text>
<line x1="72" y1="1000.0" x2="75" y2="1000.0" stroke="#444"/>
<text x="69" y="1003.0" text-anchor="end" fill="#444">0.57</text>
<line x1="72" y1="960.0" x2="75" y2="960.0" stroke="#444"/>
<text x="69" y="963.0" text-anchor="end" fill="#444">1.2</text>
<text x="226.0" y="1154" text-anchor="middle" fill="#444">Event time (years from state-level adoption)</text>
<text x="27" y="1040.0" text-anchor="middle" fill="#444" transform="rotate(-90 27 1040.0)">ATT (per 100k)</text>
<rect x="425" y="910" width="380" height="260" fill="#fafaf7" stroke="#e2e2dc"/>
<text x="615.0" y="928" text-anchor="middle" font-weight="600">State firearm homicide rate (joined down) [no county variation]</text>
<line x1="485" y1="1010.3082763268355" x2="787" y2="1010.3082763268355" stroke="#aaaaaa" stroke-width="0.7"/>
<polygon points="498.7,960.0 526.2,971.4 553.6,961.2 581.1,975.0 636.0,1020.8 663.5,979.3 690.9,971.4 718.4,1002.5 745.8,1025.6 773.3,1045.7 773.3,1120.0 745.8,1083.0 718.4,1069.1 690.9,1083.8 663.5,1070.0 636.0,1044.2 581.1,1021.8 553.6,1008.7 526.2,1020.1 498.7,1005.8" fill="#1f3a5f" opacity="0.18"/>
<polyline points="498.7,982.9 526.2,995.7 553.6,984.9 581.1,998.4 636.0,1032.5 663.5,1024.7 690.9,1027.6 718.4,1035.8 745.8,1054.3 773.3,1082.8" fill="none" stroke="#1f3a5f" stroke-width="1.6"/>
<circle cx="498.7" cy="982.9" r="2.6" fill="#1f3a5f"/>
<circle cx="526.2" cy="995.7" r="2.6" fill="#1f3a5f"/>
<circle cx="553.6" cy="984.9" r="2.6" fill="#1f3a5f"/>
<circle cx="581.1" cy="998.4" r="2.6" fill="#1f3a5f"/>
<circle cx="636.0" cy="1032.5" r="2.6" fill="#1f3a5f"/>
<circle cx="663.5" cy="1024.7" r="2.6" fill="#1f3a5f"/>
<circle cx="690.9" cy="1027.6" r="2.6" fill="#1f3a5f"/>
<circle cx="718.4" cy="1035.8" r="2.6" fill="#1f3a5f"/>
<circle cx="745.8" cy="1054.3" r="2.6" fill="#1f3a5f"/>
<circle cx="773.3" cy="1082.8" r="2.6" fill="#1f3a5f"/>
<line x1="622.3" y1="960" x2="622.3" y2="1120" stroke="#b9461a" stroke-dasharray="3 3"/>
<line x1="485" y1="1120" x2="787" y2="1120" stroke="#444"/>
<line x1="485" y1="960" x2="485" y2="1120" stroke="#444"/>
<line x1="498.7" y1="1120" x2="498.7" y2="1123" stroke="#444"/>
<text x="498.7" y="1135" text-anchor="middle" fill="#444">-5</text>
<line x1="526.2" y1="1120" x2="526.2" y2="1123" stroke="#444"/>
<text x="526.2" y="1135" text-anchor="middle" fill="#444">-4</text>
<line x1="553.6" y1="1120" x2="553.6" y2="1123" stroke="#444"/>
<text x="553.6" y="1135" text-anchor="middle" fill="#444">-3</text>
<line x1="581.1" y1="1120" x2="581.1" y2="1123" stroke="#444"/>
<text x="581.1" y="1135" text-anchor="middle" fill="#444">-2</text>
<line x1="636.0" y1="1120" x2="636.0" y2="1123" stroke="#444"/>
<text x="636.0" y="1135" text-anchor="middle" fill="#444">0</text>
<line x1="663.5" y1="1120" x2="663.5" y2="1123" stroke="#444"/>
<text x="663.5" y="1135" text-anchor="middle" fill="#444">1</text>
<line x1="690.9" y1="1120" x2="690.9" y2="1123" stroke="#444"/>
<text x="690.9" y="1135" text-anchor="middle" fill="#444">2</text>
<line x1="718.4" y1="1120" x2="718.4" y2="1123" stroke="#444"/>
<text x="718.4" y="1135" text-anchor="middle" fill="#444">3</text>
<line x1="745.8" y1="1120" x2="745.8" y2="1123" stroke="#444"/>
<text x="745.8" y="1135" text-anchor="middle" fill="#444">4</text>
<line x1="773.3" y1="1120" x2="773.3" y2="1123" stroke="#444"/>
<text x="773.3" y="1135" text-anchor="middle" fill="#444">5</text>
<line x1="482" y1="1120.0" x2="485" y2="1120.0" stroke="#444"/>
<text x="479" y="1123.0" text-anchor="end" fill="#444">-1.8</text>
<line x1="482" y1="1080.0" x2="485" y2="1080.0" stroke="#444"/>
<text x="479" y="1083.0" text-anchor="end" fill="#444">-1.2</text>
<line x1="482" y1="1040.0" x2="485" y2="1040.0" stroke="#444"/>
<text x="479" y="1043.0" text-anchor="end" fill="#444">-0.5</text>
<line x1="482" y1="1000.0" x2="485" y2="1000.0" stroke="#444"/>
<text x="479" y="1003.0" text-anchor="end" fill="#444">0.17</text>
<line x1="482" y1="960.0" x2="485" y2="960.0" stroke="#444"/>
<text x="479" y="963.0" text-anchor="end" fill="#444">0.84</text>
<text x="636.0" y="1154" text-anchor="middle" fill="#444">Event time (years from state-level adoption)</text>
<text x="437" y="1040.0" text-anchor="middle" fill="#444" transform="rotate(-90 437 1040.0)">ATT (per 100k)</text>
<text x="805" y="1188" text-anchor="end" fill="#888" font-size="10">Shaded band: pointwise 95% CI from state-clustered Rademacher bootstrap. Vertical dashed line marks the year before adoption.</text>
</svg>