<svg xmlns="http://www.w3.org/2000/svg" viewBox="0 0 820 620" font-family="-apple-system, Segoe UI, Helvetica, Arial, sans-serif" font-size="11">
<text x="410.0" y="22" text-anchor="middle" font-size="14" font-weight="600">Callaway-Sant'Anna ATT by event time (RA) -- stacked DiD (permitless_carry)</text>
<rect x="15" y="40" width="380" height="260" fill="#fafaf7" stroke="#e2e2dc"/>
<text x="205.0" y="58" text-anchor="middle" font-weight="600">Firearm suicide rate (per 100k)</text>
<line x1="75" y1="167.77600513266975" x2="377" y2="167.77600513266975" stroke="#aaaaaa" stroke-width="0.7"/>
<polygon points="88.7,186.0 116.2,145.7 143.6,131.8 171.1,176.9 198.5,167.8 226.0,110.5 253.5,90.9 280.9,100.3 308.4,161.5 335.8,90.0 363.3,110.4 363.3,210.5 335.8,191.8 308.4,250.0 280.9,149.8 253.5,168.5 226.0,171.9 198.5,167.8 171.1,221.1 143.6,195.1 116.2,214.3 88.7,241.3" fill="#1f3a5f" opacity="0.18"/>
<polyline points="88.7,213.7 116.2,180.0 143.6,163.4 171.1,199.0 198.5,167.8 226.0,141.2 253.5,129.7 280.9,125.1 308.4,205.8 335.8,140.9 363.3,160.5" fill="none" stroke="#1f3a5f" stroke-width="1.6"/>
<circle cx="88.7" cy="213.7" r="2.6" fill="#1f3a5f"/>
<circle cx="116.2" cy="180.0" r="2.6" fill="#1f3a5f"/>
<circle cx="143.6" cy="163.4" r="2.6" fill="#1f3a5f"/>
<circle cx="171.1" cy="199.0" r="2.6" fill="#1f3a5f"/>
<circle cx="198.5" cy="167.8" r="2.6" fill="#1f3a5f"/>
<circle cx="226.0" cy="141.2" r="2.6" fill="#1f3a5f"/>
<circle cx="253.5" cy="129.7" r="2.6" fill="#1f3a5f"/>
<circle cx="280.9" cy="125.1" r="2.6" fill="#1f3a5f"/>
<circle cx="308.4" cy="205.8" r="2.6" fill="#1f3a5f"/>
<circle cx="335.8" cy="140.9" r="2.6" fill="#1f3a5f"/>
<circle cx="363.3" cy="160.5" r="2.6" fill="#1f3a5f"/>
<line x1="212.3" y1="90" x2="212.3" y2="250" stroke="#b9461a" stroke-dasharray="3 3"/>
<line x1="75" y1="250" x2="377" y2="250" stroke="#444"/>
<line x1="75" y1="90" x2="75" y2="250" stroke="#444"/>
<line x1="88.7" y1="250" x2="88.7" y2="253" stroke="#444"/>
<text x="88.7" y="265" text-anchor="middle" fill="#444">-5</text>
<line x1="116.2" y1="250" x2="116.2" y2="253" stroke="#444"/>
<text x="116.2" y="265" text-anchor="middle" fill="#444">-4</text>
<line x1="143.6" y1="250" x2="143.6" y2="253" stroke="#444"/>
<text x="143.6" y="265" text-anchor="middle" fill="#444">-3</text>
<line x1="171.1" y1="250" x2="171.1" y2="253" stroke="#444"/>
<text x="171.1" y="265" text-anchor="middle" fill="#444">-2</text>
<line x1="198.5" y1="250" x2="198.5" y2="253" stroke="#444"/>
<text x="198.5" y="265" text-anchor="middle" fill="#444">-1</text>
<line x1="226.0" y1="250" x2="226.0" y2="253" stroke="#444"/>
<text x="226.0" y="265" text-anchor="middle" fill="#444">0</text>
<line x1="253.5" y1="250" x2="253.5" y2="253" stroke="#444"/>
<text x="253.5" y="265" text-anchor="middle" fill="#444">1</text>
<line x1="280.9" y1="250" x2="280.9" y2="253" stroke="#444"/>
<text x="280.9" y="265" text-anchor="middle" fill="#444">2</text>
<line x1="308.4" y1="250" x2="308.4" y2="253" stroke="#444"/>
<text x="308.4" y="265" text-anchor="middle" fill="#444">3</text>
<line x1="335.8" y1="250" x2="335.8" y2="253" stroke="#444"/>
<text x="335.8" y="265" text-anchor="middle" fill="#444">4</text>
<line x1="363.3" y1="250" x2="363.3" y2="253" stroke="#444"/>
<text x="363.3" y="265" text-anchor="middle" fill="#444">5</text>
<line x1="72" y1="250.0" x2="75" y2="250.0" stroke="#444"/>
<text x="69" y="253.0" text-anchor="end" fill="#444">-0.94</text>
<line x1="72" y1="210.0" x2="75" y2="210.0" stroke="#444"/>
<text x="69" y="213.0" text-anchor="end" fill="#444">-0.48</text>
<line x1="72" y1="170.0" x2="75" y2="170.0" stroke="#444"/>
<text x="69" y="173.0" text-anchor="end" fill="#444">-0.025</text>
<line x1="72" y1="130.0" x2="75" y2="130.0" stroke="#444"/>
<text x="69" y="133.0" text-anchor="end" fill="#444">0.43</text>
<line x1="72" y1="90.0" x2="75" y2="90.0" stroke="#444"/>
<text x="69" y="93.0" text-anchor="end" fill="#444">0.89</text>
<text x="226.0" y="284" text-anchor="middle" fill="#444">Event time (years from adoption)</text>
<text x="27" y="170.0" text-anchor="middle" fill="#444" transform="rotate(-90 27 170.0)">ATT (per 100k)</text>
<rect x="425" y="40" width="380" height="260" fill="#fafaf7" stroke="#e2e2dc"/>
<text x="615.0" y="58" text-anchor="middle" font-weight="600">Non-firearm suicide rate (per 100k) [substitution test]</text>
<line x1="485" y1="185.0695792911078" x2="787" y2="185.0695792911078" stroke="#aaaaaa" stroke-width="0.7"/>
<polygon points="498.7,175.7 526.2,152.2 553.6,182.9 581.1,160.1 608.5,185.1 636.0,166.1 663.5,90.0 690.9,151.4 718.4,155.5 745.8,124.2 773.3,125.1 773.3,229.8 745.8,202.1 718.4,231.6 690.9,217.7 663.5,172.9 636.0,205.7 608.5,185.1 581.1,232.8 553.6,238.0 526.2,211.8 498.7,250.0" fill="#1f3a5f" opacity="0.18"/>
<polyline points="498.7,212.9 526.2,182.0 553.6,210.5 581.1,196.5 608.5,185.1 636.0,185.9 663.5,131.5 690.9,184.5 718.4,193.5 745.8,163.2 773.3,177.4" fill="none" stroke="#1f3a5f" stroke-width="1.6"/>
<circle cx="498.7" cy="212.9" r="2.6" fill="#1f3a5f"/>
<circle cx="526.2" cy="182.0" r="2.6" fill="#1f3a5f"/>
<circle cx="553.6" cy="210.5" r="2.6" fill="#1f3a5f"/>
<circle cx="581.1" cy="196.5" r="2.6" fill="#1f3a5f"/>
<circle cx="608.5" cy="185.1" r="2.6" fill="#1f3a5f"/>
<circle cx="636.0" cy="185.9" r="2.6" fill="#1f3a5f"/>
<circle cx="663.5" cy="131.5" r="2.6" fill="#1f3a5f"/>
<circle cx="690.9" cy="184.5" r="2.6" fill="#1f3a5f"/>
<circle cx="718.4" cy="193.5" r="2.6" fill="#1f3a5f"/>
<circle cx="745.8" cy="163.2" r="2.6" fill="#1f3a5f"/>
<circle cx="773.3" cy="177.4" r="2.6" fill="#1f3a5f"/>
<line x1="622.3" y1="90" x2="622.3" y2="250" stroke="#b9461a" stroke-dasharray="3 3"/>
<line x1="485" y1="250" x2="787" y2="250" stroke="#444"/>
<line x1="485" y1="90" x2="485" y2="250" stroke="#444"/>
<line x1="498.7" y1="250" x2="498.7" y2="253" stroke="#444"/>
<text x="498.7" y="265" text-anchor="middle" fill="#444">-5</text>
<line x1="526.2" y1="250" x2="526.2" y2="253" stroke="#444"/>
<text x="526.2" y="265" text-anchor="middle" fill="#444">-4</text>
<line x1="553.6" y1="250" x2="553.6" y2="253" stroke="#444"/>
<text x="553.6" y="265" text-anchor="middle" fill="#444">-3</text>
<line x1="581.1" y1="250" x2="581.1" y2="253" stroke="#444"/>
<text x="581.1" y="265" text-anchor="middle" fill="#444">-2</text>
<line x1="608.5" y1="250" x2="608.5" y2="253" stroke="#444"/>
<text x="608.5" y="265" text-anchor="middle" fill="#444">-1</text>
<line x1="636.0" y1="250" x2="636.0" y2="253" stroke="#444"/>
<text x="636.0" y="265" text-anchor="middle" fill="#444">0</text>
<line x1="663.5" y1="250" x2="663.5" y2="253" stroke="#444"/>
<text x="663.5" y="265" text-anchor="middle" fill="#444">1</text>
<line x1="690.9" y1="250" x2="690.9" y2="253" stroke="#444"/>
<text x="690.9" y="265" text-anchor="middle" fill="#444">2</text>
<line x1="718.4" y1="250" x2="718.4" y2="253" stroke="#444"/>
<text x="718.4" y="265" text-anchor="middle" fill="#444">3</text>
<line x1="745.8" y1="250" x2="745.8" y2="253" stroke="#444"/>
<text x="745.8" y="265" text-anchor="middle" fill="#444">4</text>
<line x1="773.3" y1="250" x2="773.3" y2="253" stroke="#444"/>
<text x="773.3" y="265" text-anchor="middle" fill="#444">5</text>
<line x1="482" y1="250.0" x2="485" y2="250.0" stroke="#444"/>
<text x="479" y="253.0" text-anchor="end" fill="#444">-0.66</text>
<line x1="482" y1="210.0" x2="485" y2="210.0" stroke="#444"/>
<text x="479" y="213.0" text-anchor="end" fill="#444">-0.25</text>
<line x1="482" y1="170.0" x2="485" y2="170.0" stroke="#444"/>
<text x="479" y="173.0" text-anchor="end" fill="#444">0.15</text>
<line x1="482" y1="130.0" x2="485" y2="130.0" stroke="#444"/>
<text x="479" y="133.0" text-anchor="end" fill="#444">0.56</text>
<line x1="482" y1="90.0" x2="485" y2="90.0" stroke="#444"/>
<text x="479" y="93.0" text-anchor="end" fill="#444">0.97</text>
<text x="636.0" y="284" text-anchor="middle" fill="#444">Event time (years from adoption)</text>
<text x="437" y="170.0" text-anchor="middle" fill="#444" transform="rotate(-90 437 170.0)">ATT (per 100k)</text>
<rect x="15" y="330" width="380" height="260" fill="#fafaf7" stroke="#e2e2dc"/>
<text x="205.0" y="348" text-anchor="middle" font-weight="600">Total suicide rate (per 100k) [net effect]</text>
<line x1="75" y1="468.8370766307996" x2="377" y2="468.8370766307996" stroke="#aaaaaa" stroke-width="0.7"/>
<polygon points="88.7,483.4 116.2,446.9 143.6,457.2 171.1,471.8 198.5,468.8 226.0,433.6 253.5,380.0 280.9,417.0 308.4,456.6 335.8,400.8 363.3,420.3 363.3,500.2 335.8,480.6 308.4,536.4 280.9,468.2 253.5,453.6 226.0,472.7 198.5,468.8 171.1,516.1 143.6,502.6 116.2,502.3 88.7,540.0" fill="#1f3a5f" opacity="0.18"/>
<polyline points="88.7,511.7 116.2,474.6 143.6,479.9 171.1,493.9 198.5,468.8 226.0,453.1 253.5,416.8 280.9,442.6 308.4,496.5 335.8,440.7 363.3,460.3" fill="none" stroke="#1f3a5f" stroke-width="1.6"/>
<circle cx="88.7" cy="511.7" r="2.6" fill="#1f3a5f"/>
<circle cx="116.2" cy="474.6" r="2.6" fill="#1f3a5f"/>
<circle cx="143.6" cy="479.9" r="2.6" fill="#1f3a5f"/>
<circle cx="171.1" cy="493.9" r="2.6" fill="#1f3a5f"/>
<circle cx="198.5" cy="468.8" r="2.6" fill="#1f3a5f"/>
<circle cx="226.0" cy="453.1" r="2.6" fill="#1f3a5f"/>
<circle cx="253.5" cy="416.8" r="2.6" fill="#1f3a5f"/>
<circle cx="280.9" cy="442.6" r="2.6" fill="#1f3a5f"/>
<circle cx="308.4" cy="496.5" r="2.6" fill="#1f3a5f"/>
<circle cx="335.8" cy="440.7" r="2.6" fill="#1f3a5f"/>
<circle cx="363.3" cy="460.3" r="2.6" fill="#1f3a5f"/>
<line x1="212.3" y1="380" x2="212.3" y2="540" stroke="#b9461a" stroke-dasharray="3 3"/>
<line x1="75" y1="540" x2="377" y2="540" stroke="#444"/>
<line x1="75" y1="380" x2="75" y2="540" stroke="#444"/>
<line x1="88.7" y1="540" x2="88.7" y2="543" stroke="#444"/>
<text x="88.7" y="555" text-anchor="middle" fill="#444">-5</text>
<line x1="116.2" y1="540" x2="116.2" y2="543" stroke="#444"/>
<text x="116.2" y="555" text-anchor="middle" fill="#444">-4</text>
<line x1="143.6" y1="540" x2="143.6" y2="543" stroke="#444"/>
<text x="143.6" y="555" text-anchor="middle" fill="#444">-3</text>
<line x1="171.1" y1="540" x2="171.1" y2="543" stroke="#444"/>
<text x="171.1" y="555" text-anchor="middle" fill="#444">-2</text>
<line x1="198.5" y1="540" x2="198.5" y2="543" stroke="#444"/>
<text x="198.5" y="555" text-anchor="middle" fill="#444">-1</text>
<line x1="226.0" y1="540" x2="226.0" y2="543" stroke="#444"/>
<text x="226.0" y="555" text-anchor="middle" fill="#444">0</text>
<line x1="253.5" y1="540" x2="253.5" y2="543" stroke="#444"/>
<text x="253.5" y="555" text-anchor="middle" fill="#444">1</text>
<line x1="280.9" y1="540" x2="280.9" y2="543" stroke="#444"/>
<text x="280.9" y="555" text-anchor="middle" fill="#444">2</text>
<line x1="308.4" y1="540" x2="308.4" y2="543" stroke="#444"/>
<text x="308.4" y="555" text-anchor="middle" fill="#444">3</text>
<line x1="335.8" y1="540" x2="335.8" y2="543" stroke="#444"/>
<text x="335.8" y="555" text-anchor="middle" fill="#444">4</text>
<line x1="363.3" y1="540" x2="363.3" y2="543" stroke="#444"/>
<text x="363.3" y="555" text-anchor="middle" fill="#444">5</text>
<line x1="72" y1="540.0" x2="75" y2="540.0" stroke="#444"/>
<text x="69" y="543.0" text-anchor="end" fill="#444">-1.3</text>
<line x1="72" y1="500.0" x2="75" y2="500.0" stroke="#444"/>
<text x="69" y="503.0" text-anchor="end" fill="#444">-0.59</text>
<line x1="72" y1="460.0" x2="75" y2="460.0" stroke="#444"/>
<text x="69" y="463.0" text-anchor="end" fill="#444">0.17</text>
<line x1="72" y1="420.0" x2="75" y2="420.0" stroke="#444"/>
<text x="69" y="423.0" text-anchor="end" fill="#444">0.92</text>
<line x1="72" y1="380.0" x2="75" y2="380.0" stroke="#444"/>
<text x="69" y="383.0" text-anchor="end" fill="#444">1.7</text>
<text x="226.0" y="574" text-anchor="middle" fill="#444">Event time (years from adoption)</text>
<text x="27" y="460.0" text-anchor="middle" fill="#444" transform="rotate(-90 27 460.0)">ATT (per 100k)</text>
<rect x="425" y="330" width="380" height="260" fill="#fafaf7" stroke="#e2e2dc"/>
<text x="615.0" y="348" text-anchor="middle" font-weight="600">Firearm homicide rate (per 100k)</text>
<line x1="485" y1="441.50051224751275" x2="787" y2="441.50051224751275" stroke="#aaaaaa" stroke-width="0.7"/>
<polygon points="498.7,419.0 526.2,403.3 553.6,423.1 581.1,406.9 608.5,441.5 636.0,421.2 663.5,425.1 690.9,410.4 718.4,415.1 745.8,428.4 773.3,380.0 773.3,540.0 745.8,505.7 718.4,484.0 690.9,457.5 663.5,460.4 636.0,460.7 608.5,441.5 581.1,443.2 553.6,464.3 526.2,455.4 498.7,473.6" fill="#1f3a5f" opacity="0.18"/>
<polyline points="498.7,446.3 526.2,429.3 553.6,443.7 581.1,425.0 608.5,441.5 636.0,440.9 663.5,442.7 690.9,434.0 718.4,449.5 745.8,467.0 773.3,460.0" fill="none" stroke="#1f3a5f" stroke-width="1.6"/>
<circle cx="498.7" cy="446.3" r="2.6" fill="#1f3a5f"/>
<circle cx="526.2" cy="429.3" r="2.6" fill="#1f3a5f"/>
<circle cx="553.6" cy="443.7" r="2.6" fill="#1f3a5f"/>
<circle cx="581.1" cy="425.0" r="2.6" fill="#1f3a5f"/>
<circle cx="608.5" cy="441.5" r="2.6" fill="#1f3a5f"/>
<circle cx="636.0" cy="440.9" r="2.6" fill="#1f3a5f"/>
<circle cx="663.5" cy="442.7" r="2.6" fill="#1f3a5f"/>
<circle cx="690.9" cy="434.0" r="2.6" fill="#1f3a5f"/>
<circle cx="718.4" cy="449.5" r="2.6" fill="#1f3a5f"/>
<circle cx="745.8" cy="467.0" r="2.6" fill="#1f3a5f"/>
<circle cx="773.3" cy="460.0" r="2.6" fill="#1f3a5f"/>
<line x1="622.3" y1="380" x2="622.3" y2="540" stroke="#b9461a" stroke-dasharray="3 3"/>
<line x1="485" y1="540" x2="787" y2="540" stroke="#444"/>
<line x1="485" y1="380" x2="485" y2="540" stroke="#444"/>
<line x1="498.7" y1="540" x2="498.7" y2="543" stroke="#444"/>
<text x="498.7" y="555" text-anchor="middle" fill="#444">-5</text>
<line x1="526.2" y1="540" x2="526.2" y2="543" stroke="#444"/>
<text x="526.2" y="555" text-anchor="middle" fill="#444">-4</text>
<line x1="553.6" y1="540" x2="553.6" y2="543" stroke="#444"/>
<text x="553.6" y="555" text-anchor="middle" fill="#444">-3</text>
<line x1="581.1" y1="540" x2="581.1" y2="543" stroke="#444"/>
<text x="581.1" y="555" text-anchor="middle" fill="#444">-2</text>
<line x1="608.5" y1="540" x2="608.5" y2="543" stroke="#444"/>
<text x="608.5" y="555" text-anchor="middle" fill="#444">-1</text>
<line x1="636.0" y1="540" x2="636.0" y2="543" stroke="#444"/>
<text x="636.0" y="555" text-anchor="middle" fill="#444">0</text>
<line x1="663.5" y1="540" x2="663.5" y2="543" stroke="#444"/>
<text x="663.5" y="555" text-anchor="middle" fill="#444">1</text>
<line x1="690.9" y1="540" x2="690.9" y2="543" stroke="#444"/>
<text x="690.9" y="555" text-anchor="middle" fill="#444">2</text>
<line x1="718.4" y1="540" x2="718.4" y2="543" stroke="#444"/>
<text x="718.4" y="555" text-anchor="middle" fill="#444">3</text>
<line x1="745.8" y1="540" x2="745.8" y2="543" stroke="#444"/>
<text x="745.8" y="555" text-anchor="middle" fill="#444">4</text>
<line x1="773.3" y1="540" x2="773.3" y2="543" stroke="#444"/>
<text x="773.3" y="555" text-anchor="middle" fill="#444">5</text>
<line x1="482" y1="540.0" x2="485" y2="540.0" stroke="#444"/>
<text x="479" y="543.0" text-anchor="end" fill="#444">-1.5</text>
<line x1="482" y1="500.0" x2="485" y2="500.0" stroke="#444"/>
<text x="479" y="503.0" text-anchor="end" fill="#444">-0.9</text>
<line x1="482" y1="460.0" x2="485" y2="460.0" stroke="#444"/>
<text x="479" y="463.0" text-anchor="end" fill="#444">-0.29</text>
<line x1="482" y1="420.0" x2="485" y2="420.0" stroke="#444"/>
<text x="479" y="423.0" text-anchor="end" fill="#444">0.33</text>
<line x1="482" y1="380.0" x2="485" y2="380.0" stroke="#444"/>
<text x="479" y="383.0" text-anchor="end" fill="#444">0.95</text>
<text x="636.0" y="574" text-anchor="middle" fill="#444">Event time (years from adoption)</text>
<text x="437" y="460.0" text-anchor="middle" fill="#444" transform="rotate(-90 437 460.0)">ATT (per 100k)</text>
<rect x="15" y="620" width="380" height="260" fill="#fafaf7" stroke="#e2e2dc"/>
<text x="205.0" y="638" text-anchor="middle" font-weight="600">Total homicide rate (per 100k)</text>
<line x1="75" y1="720.1567862760146" x2="377" y2="720.1567862760146" stroke="#aaaaaa" stroke-width="0.7"/>
<polygon points="88.7,690.2 116.2,670.0 143.6,687.0 171.1,688.4 198.5,720.2 226.0,697.6 253.5,702.1 280.9,693.7 308.4,687.2 335.8,722.0 363.3,733.6 363.3,830.0 335.8,807.6 308.4,753.3 280.9,757.6 253.5,741.4 226.0,741.9 198.5,720.2 171.1,730.2 143.6,731.8 116.2,717.9 88.7,742.5" fill="#1f3a5f" opacity="0.18"/>
<polyline points="88.7,716.4 116.2,693.9 143.6,709.4 171.1,709.3 198.5,720.2 226.0,719.8 253.5,721.8 280.9,725.6 308.4,720.2 335.8,764.8 363.3,781.8" fill="none" stroke="#1f3a5f" stroke-width="1.6"/>
<circle cx="88.7" cy="716.4" r="2.6" fill="#1f3a5f"/>
<circle cx="116.2" cy="693.9" r="2.6" fill="#1f3a5f"/>
<circle cx="143.6" cy="709.4" r="2.6" fill="#1f3a5f"/>
<circle cx="171.1" cy="709.3" r="2.6" fill="#1f3a5f"/>
<circle cx="198.5" cy="720.2" r="2.6" fill="#1f3a5f"/>
<circle cx="226.0" cy="719.8" r="2.6" fill="#1f3a5f"/>
<circle cx="253.5" cy="721.8" r="2.6" fill="#1f3a5f"/>
<circle cx="280.9" cy="725.6" r="2.6" fill="#1f3a5f"/>
<circle cx="308.4" cy="720.2" r="2.6" fill="#1f3a5f"/>
<circle cx="335.8" cy="764.8" r="2.6" fill="#1f3a5f"/>
<circle cx="363.3" cy="781.8" r="2.6" fill="#1f3a5f"/>
<line x1="212.3" y1="670" x2="212.3" y2="830" stroke="#b9461a" stroke-dasharray="3 3"/>
<line x1="75" y1="830" x2="377" y2="830" stroke="#444"/>
<line x1="75" y1="670" x2="75" y2="830" stroke="#444"/>
<line x1="88.7" y1="830" x2="88.7" y2="833" stroke="#444"/>
<text x="88.7" y="845" text-anchor="middle" fill="#444">-5</text>
<line x1="116.2" y1="830" x2="116.2" y2="833" stroke="#444"/>
<text x="116.2" y="845" text-anchor="middle" fill="#444">-4</text>
<line x1="143.6" y1="830" x2="143.6" y2="833" stroke="#444"/>
<text x="143.6" y="845" text-anchor="middle" fill="#444">-3</text>
<line x1="171.1" y1="830" x2="171.1" y2="833" stroke="#444"/>
<text x="171.1" y="845" text-anchor="middle" fill="#444">-2</text>
<line x1="198.5" y1="830" x2="198.5" y2="833" stroke="#444"/>
<text x="198.5" y="845" text-anchor="middle" fill="#444">-1</text>
<line x1="226.0" y1="830" x2="226.0" y2="833" stroke="#444"/>
<text x="226.0" y="845" text-anchor="middle" fill="#444">0</text>
<line x1="253.5" y1="830" x2="253.5" y2="833" stroke="#444"/>
<text x="253.5" y="845" text-anchor="middle" fill="#444">1</text>
<line x1="280.9" y1="830" x2="280.9" y2="833" stroke="#444"/>
<text x="280.9" y="845" text-anchor="middle" fill="#444">2</text>
<line x1="308.4" y1="830" x2="308.4" y2="833" stroke="#444"/>
<text x="308.4" y="845" text-anchor="middle" fill="#444">3</text>
<line x1="335.8" y1="830" x2="335.8" y2="833" stroke="#444"/>
<text x="335.8" y="845" text-anchor="middle" fill="#444">4</text>
<line x1="363.3" y1="830" x2="363.3" y2="833" stroke="#444"/>
<text x="363.3" y="845" text-anchor="middle" fill="#444">5</text>
<line x1="72" y1="830.0" x2="75" y2="830.0" stroke="#444"/>
<text x="69" y="833.0" text-anchor="end" fill="#444">-1.7</text>
<line x1="72" y1="790.0" x2="75" y2="790.0" stroke="#444"/>
<text x="69" y="793.0" text-anchor="end" fill="#444">-1.1</text>
<line x1="72" y1="750.0" x2="75" y2="750.0" stroke="#444"/>
<text x="69" y="753.0" text-anchor="end" fill="#444">-0.46</text>
<line x1="72" y1="710.0" x2="75" y2="710.0" stroke="#444"/>
<text x="69" y="713.0" text-anchor="end" fill="#444">0.16</text>
<line x1="72" y1="670.0" x2="75" y2="670.0" stroke="#444"/>
<text x="69" y="673.0" text-anchor="end" fill="#444">0.78</text>
<text x="226.0" y="864" text-anchor="middle" fill="#444">Event time (years from adoption)</text>
<text x="27" y="750.0" text-anchor="middle" fill="#444" transform="rotate(-90 27 750.0)">ATT (per 100k)</text>
<rect x="425" y="620" width="380" height="260" fill="#fafaf7" stroke="#e2e2dc"/>
<text x="615.0" y="638" text-anchor="middle" font-weight="600">Motor vehicle theft rate (per 100k) [placebo]</text>
<line x1="485" y1="726.9110129529728" x2="787" y2="726.9110129529728" stroke="#aaaaaa" stroke-width="0.7"/>
<polygon points="498.7,677.6 526.2,670.0 553.6,674.7 581.1,687.5 608.5,726.9 636.0,716.7 663.5,720.1 690.9,722.4 718.4,710.9 745.8,727.1 773.3,720.3 773.3,830.0 745.8,795.2 718.4,786.3 690.9,787.1 663.5,769.2 636.0,755.8 608.5,726.9 581.1,726.9 553.6,720.7 526.2,726.5 498.7,750.0" fill="#1f3a5f" opacity="0.18"/>
<polyline points="498.7,713.8 526.2,698.3 553.6,697.7 581.1,707.2 608.5,726.9 636.0,736.2 663.5,744.7 690.9,754.8 718.4,748.6 745.8,761.1 773.3,775.2" fill="none" stroke="#1f3a5f" stroke-width="1.6"/>
<circle cx="498.7" cy="713.8" r="2.6" fill="#1f3a5f"/>
<circle cx="526.2" cy="698.3" r="2.6" fill="#1f3a5f"/>
<circle cx="553.6" cy="697.7" r="2.6" fill="#1f3a5f"/>
<circle cx="581.1" cy="707.2" r="2.6" fill="#1f3a5f"/>
<circle cx="608.5" cy="726.9" r="2.6" fill="#1f3a5f"/>
<circle cx="636.0" cy="736.2" r="2.6" fill="#1f3a5f"/>
<circle cx="663.5" cy="744.7" r="2.6" fill="#1f3a5f"/>
<circle cx="690.9" cy="754.8" r="2.6" fill="#1f3a5f"/>
<circle cx="718.4" cy="748.6" r="2.6" fill="#1f3a5f"/>
<circle cx="745.8" cy="761.1" r="2.6" fill="#1f3a5f"/>
<circle cx="773.3" cy="775.2" r="2.6" fill="#1f3a5f"/>
<line x1="622.3" y1="670" x2="622.3" y2="830" stroke="#b9461a" stroke-dasharray="3 3"/>
<line x1="485" y1="830" x2="787" y2="830" stroke="#444"/>
<line x1="485" y1="670" x2="485" y2="830" stroke="#444"/>
<line x1="498.7" y1="830" x2="498.7" y2="833" stroke="#444"/>
<text x="498.7" y="845" text-anchor="middle" fill="#444">-5</text>
<line x1="526.2" y1="830" x2="526.2" y2="833" stroke="#444"/>
<text x="526.2" y="845" text-anchor="middle" fill="#444">-4</text>
<line x1="553.6" y1="830" x2="553.6" y2="833" stroke="#444"/>
<text x="553.6" y="845" text-anchor="middle" fill="#444">-3</text>
<line x1="581.1" y1="830" x2="581.1" y2="833" stroke="#444"/>
<text x="581.1" y="845" text-anchor="middle" fill="#444">-2</text>
<line x1="608.5" y1="830" x2="608.5" y2="833" stroke="#444"/>
<text x="608.5" y="845" text-anchor="middle" fill="#444">-1</text>
<line x1="636.0" y1="830" x2="636.0" y2="833" stroke="#444"/>
<text x="636.0" y="845" text-anchor="middle" fill="#444">0</text>
<line x1="663.5" y1="830" x2="663.5" y2="833" stroke="#444"/>
<text x="663.5" y="845" text-anchor="middle" fill="#444">1</text>
<line x1="690.9" y1="830" x2="690.9" y2="833" stroke="#444"/>
<text x="690.9" y="845" text-anchor="middle" fill="#444">2</text>
<line x1="718.4" y1="830" x2="718.4" y2="833" stroke="#444"/>
<text x="718.4" y="845" text-anchor="middle" fill="#444">3</text>
<line x1="745.8" y1="830" x2="745.8" y2="833" stroke="#444"/>
<text x="745.8" y="845" text-anchor="middle" fill="#444">4</text>
<line x1="773.3" y1="830" x2="773.3" y2="833" stroke="#444"/>
<text x="773.3" y="845" text-anchor="middle" fill="#444">5</text>
<line x1="482" y1="830.0" x2="485" y2="830.0" stroke="#444"/>
<text x="479" y="833.0" text-anchor="end" fill="#444">-1.1e+02</text>
<line x1="482" y1="790.0" x2="485" y2="790.0" stroke="#444"/>
<text x="479" y="793.0" text-anchor="end" fill="#444">-66</text>
<line x1="482" y1="750.0" x2="485" y2="750.0" stroke="#444"/>
<text x="479" y="753.0" text-anchor="end" fill="#444">-24</text>
<line x1="482" y1="710.0" x2="485" y2="710.0" stroke="#444"/>
<text x="479" y="713.0" text-anchor="end" fill="#444">18</text>
<line x1="482" y1="670.0" x2="485" y2="670.0" stroke="#444"/>
<text x="479" y="673.0" text-anchor="end" fill="#444">59</text>
<text x="636.0" y="864" text-anchor="middle" fill="#444">Event time (years from adoption)</text>
<text x="437" y="750.0" text-anchor="middle" fill="#444" transform="rotate(-90 437 750.0)">ATT (per 100k)</text>
<text x="805" y="608" text-anchor="end" fill="#888" font-size="10">Shaded band: pointwise 95% CI from cluster bootstrap. Vertical dashed line marks the year before adoption.</text>
</svg>