<svg xmlns="http://www.w3.org/2000/svg" viewBox="0 0 820 620" font-family="-apple-system, Segoe UI, Helvetica, Arial, sans-serif" font-size="11">
<text x="410.0" y="22" text-anchor="middle" font-size="14" font-weight="600">Callaway-Sant'Anna ATT by event time (EB) -- stacked DiD (permitless_carry)</text>
<rect x="15" y="40" width="380" height="260" fill="#fafaf7" stroke="#e2e2dc"/>
<text x="205.0" y="58" text-anchor="middle" font-weight="600">Firearm suicide rate (per 100k)</text>
<line x1="75" y1="166.87139943539339" x2="377" y2="166.87139943539339" stroke="#aaaaaa" stroke-width="0.7"/>
<polygon points="88.7,181.9 116.2,140.6 143.6,128.5 171.1,176.3 198.5,166.9 226.0,110.6 253.5,90.0 280.9,98.6 308.4,162.9 335.8,93.0 363.3,113.2 363.3,215.3 335.8,192.0 308.4,250.0 280.9,150.2 253.5,169.4 226.0,171.6 198.5,166.9 171.1,220.6 143.6,193.0 116.2,211.1 88.7,235.4" fill="#1f3a5f" opacity="0.18"/>
<polyline points="88.7,208.7 116.2,175.9 143.6,160.8 171.1,198.4 198.5,166.9 226.0,141.1 253.5,129.7 280.9,124.4 308.4,206.4 335.8,142.5 363.3,164.3" fill="none" stroke="#1f3a5f" stroke-width="1.6"/>
<circle cx="88.7" cy="208.7" r="2.6" fill="#1f3a5f"/>
<circle cx="116.2" cy="175.9" r="2.6" fill="#1f3a5f"/>
<circle cx="143.6" cy="160.8" r="2.6" fill="#1f3a5f"/>
<circle cx="171.1" cy="198.4" r="2.6" fill="#1f3a5f"/>
<circle cx="198.5" cy="166.9" r="2.6" fill="#1f3a5f"/>
<circle cx="226.0" cy="141.1" r="2.6" fill="#1f3a5f"/>
<circle cx="253.5" cy="129.7" r="2.6" fill="#1f3a5f"/>
<circle cx="280.9" cy="124.4" r="2.6" fill="#1f3a5f"/>
<circle cx="308.4" cy="206.4" r="2.6" fill="#1f3a5f"/>
<circle cx="335.8" cy="142.5" r="2.6" fill="#1f3a5f"/>
<circle cx="363.3" cy="164.3" r="2.6" fill="#1f3a5f"/>
<line x1="212.3" y1="90" x2="212.3" y2="250" stroke="#b9461a" stroke-dasharray="3 3"/>
<line x1="75" y1="250" x2="377" y2="250" stroke="#444"/>
<line x1="75" y1="90" x2="75" y2="250" stroke="#444"/>
<line x1="88.7" y1="250" x2="88.7" y2="253" stroke="#444"/>
<text x="88.7" y="265" text-anchor="middle" fill="#444">-5</text>
<line x1="116.2" y1="250" x2="116.2" y2="253" stroke="#444"/>
<text x="116.2" y="265" text-anchor="middle" fill="#444">-4</text>
<line x1="143.6" y1="250" x2="143.6" y2="253" stroke="#444"/>
<text x="143.6" y="265" text-anchor="middle" fill="#444">-3</text>
<line x1="171.1" y1="250" x2="171.1" y2="253" stroke="#444"/>
<text x="171.1" y="265" text-anchor="middle" fill="#444">-2</text>
<line x1="198.5" y1="250" x2="198.5" y2="253" stroke="#444"/>
<text x="198.5" y="265" text-anchor="middle" fill="#444">-1</text>
<line x1="226.0" y1="250" x2="226.0" y2="253" stroke="#444"/>
<text x="226.0" y="265" text-anchor="middle" fill="#444">0</text>
<line x1="253.5" y1="250" x2="253.5" y2="253" stroke="#444"/>
<text x="253.5" y="265" text-anchor="middle" fill="#444">1</text>
<line x1="280.9" y1="250" x2="280.9" y2="253" stroke="#444"/>
<text x="280.9" y="265" text-anchor="middle" fill="#444">2</text>
<line x1="308.4" y1="250" x2="308.4" y2="253" stroke="#444"/>
<text x="308.4" y="265" text-anchor="middle" fill="#444">3</text>
<line x1="335.8" y1="250" x2="335.8" y2="253" stroke="#444"/>
<text x="335.8" y="265" text-anchor="middle" fill="#444">4</text>
<line x1="363.3" y1="250" x2="363.3" y2="253" stroke="#444"/>
<text x="363.3" y="265" text-anchor="middle" fill="#444">5</text>
<line x1="72" y1="250.0" x2="75" y2="250.0" stroke="#444"/>
<text x="69" y="253.0" text-anchor="end" fill="#444">-0.94</text>
<line x1="72" y1="210.0" x2="75" y2="210.0" stroke="#444"/>
<text x="69" y="213.0" text-anchor="end" fill="#444">-0.49</text>
<line x1="72" y1="170.0" x2="75" y2="170.0" stroke="#444"/>
<text x="69" y="173.0" text-anchor="end" fill="#444">-0.035</text>
<line x1="72" y1="130.0" x2="75" y2="130.0" stroke="#444"/>
<text x="69" y="133.0" text-anchor="end" fill="#444">0.42</text>
<line x1="72" y1="90.0" x2="75" y2="90.0" stroke="#444"/>
<text x="69" y="93.0" text-anchor="end" fill="#444">0.87</text>
<text x="226.0" y="284" text-anchor="middle" fill="#444">Event time (years from adoption)</text>
<text x="27" y="170.0" text-anchor="middle" fill="#444" transform="rotate(-90 27 170.0)">ATT (per 100k)</text>
<rect x="425" y="40" width="380" height="260" fill="#fafaf7" stroke="#e2e2dc"/>
<text x="615.0" y="58" text-anchor="middle" font-weight="600">Non-firearm suicide rate (per 100k) [substitution test]</text>
<line x1="485" y1="186.64953857426534" x2="787" y2="186.64953857426534" stroke="#aaaaaa" stroke-width="0.7"/>
<polygon points="498.7,174.1 526.2,152.9 553.6,183.9 581.1,162.3 608.5,186.6 636.0,168.8 663.5,90.0 690.9,154.1 718.4,155.1 745.8,125.3 773.3,120.2 773.3,234.4 745.8,204.3 718.4,234.5 690.9,221.6 663.5,175.0 636.0,210.1 608.5,186.6 581.1,235.6 553.6,240.0 526.2,212.7 498.7,250.0" fill="#1f3a5f" opacity="0.18"/>
<polyline points="498.7,212.1 526.2,182.8 553.6,211.9 581.1,198.9 608.5,186.6 636.0,189.5 663.5,132.5 690.9,187.8 718.4,194.8 745.8,164.8 773.3,177.3" fill="none" stroke="#1f3a5f" stroke-width="1.6"/>
<circle cx="498.7" cy="212.1" r="2.6" fill="#1f3a5f"/>
<circle cx="526.2" cy="182.8" r="2.6" fill="#1f3a5f"/>
<circle cx="553.6" cy="211.9" r="2.6" fill="#1f3a5f"/>
<circle cx="581.1" cy="198.9" r="2.6" fill="#1f3a5f"/>
<circle cx="608.5" cy="186.6" r="2.6" fill="#1f3a5f"/>
<circle cx="636.0" cy="189.5" r="2.6" fill="#1f3a5f"/>
<circle cx="663.5" cy="132.5" r="2.6" fill="#1f3a5f"/>
<circle cx="690.9" cy="187.8" r="2.6" fill="#1f3a5f"/>
<circle cx="718.4" cy="194.8" r="2.6" fill="#1f3a5f"/>
<circle cx="745.8" cy="164.8" r="2.6" fill="#1f3a5f"/>
<circle cx="773.3" cy="177.3" r="2.6" fill="#1f3a5f"/>
<line x1="622.3" y1="90" x2="622.3" y2="250" stroke="#b9461a" stroke-dasharray="3 3"/>
<line x1="485" y1="250" x2="787" y2="250" stroke="#444"/>
<line x1="485" y1="90" x2="485" y2="250" stroke="#444"/>
<line x1="498.7" y1="250" x2="498.7" y2="253" stroke="#444"/>
<text x="498.7" y="265" text-anchor="middle" fill="#444">-5</text>
<line x1="526.2" y1="250" x2="526.2" y2="253" stroke="#444"/>
<text x="526.2" y="265" text-anchor="middle" fill="#444">-4</text>
<line x1="553.6" y1="250" x2="553.6" y2="253" stroke="#444"/>
<text x="553.6" y="265" text-anchor="middle" fill="#444">-3</text>
<line x1="581.1" y1="250" x2="581.1" y2="253" stroke="#444"/>
<text x="581.1" y="265" text-anchor="middle" fill="#444">-2</text>
<line x1="608.5" y1="250" x2="608.5" y2="253" stroke="#444"/>
<text x="608.5" y="265" text-anchor="middle" fill="#444">-1</text>
<line x1="636.0" y1="250" x2="636.0" y2="253" stroke="#444"/>
<text x="636.0" y="265" text-anchor="middle" fill="#444">0</text>
<line x1="663.5" y1="250" x2="663.5" y2="253" stroke="#444"/>
<text x="663.5" y="265" text-anchor="middle" fill="#444">1</text>
<line x1="690.9" y1="250" x2="690.9" y2="253" stroke="#444"/>
<text x="690.9" y="265" text-anchor="middle" fill="#444">2</text>
<line x1="718.4" y1="250" x2="718.4" y2="253" stroke="#444"/>
<text x="718.4" y="265" text-anchor="middle" fill="#444">3</text>
<line x1="745.8" y1="250" x2="745.8" y2="253" stroke="#444"/>
<text x="745.8" y="265" text-anchor="middle" fill="#444">4</text>
<line x1="773.3" y1="250" x2="773.3" y2="253" stroke="#444"/>
<text x="773.3" y="265" text-anchor="middle" fill="#444">5</text>
<line x1="482" y1="250.0" x2="485" y2="250.0" stroke="#444"/>
<text x="479" y="253.0" text-anchor="end" fill="#444">-0.63</text>
<line x1="482" y1="210.0" x2="485" y2="210.0" stroke="#444"/>
<text x="479" y="213.0" text-anchor="end" fill="#444">-0.23</text>
<line x1="482" y1="170.0" x2="485" y2="170.0" stroke="#444"/>
<text x="479" y="173.0" text-anchor="end" fill="#444">0.17</text>
<line x1="482" y1="130.0" x2="485" y2="130.0" stroke="#444"/>
<text x="479" y="133.0" text-anchor="end" fill="#444">0.56</text>
<line x1="482" y1="90.0" x2="485" y2="90.0" stroke="#444"/>
<text x="479" y="93.0" text-anchor="end" fill="#444">0.96</text>
<text x="636.0" y="284" text-anchor="middle" fill="#444">Event time (years from adoption)</text>
<text x="437" y="170.0" text-anchor="middle" fill="#444" transform="rotate(-90 437 170.0)">ATT (per 100k)</text>
<rect x="15" y="330" width="380" height="260" fill="#fafaf7" stroke="#e2e2dc"/>
<text x="205.0" y="348" text-anchor="middle" font-weight="600">Total suicide rate (per 100k) [net effect]</text>
<line x1="75" y1="470.59103656397883" x2="377" y2="470.59103656397883" stroke="#aaaaaa" stroke-width="0.7"/>
<polygon points="88.7,481.8 116.2,445.6 143.6,457.3 171.1,474.4 198.5,470.6 226.0,436.4 253.5,380.0 280.9,418.3 308.4,458.9 335.8,403.6 363.3,421.4 363.3,506.4 335.8,483.7 308.4,540.0 280.9,471.7 253.5,456.4 226.0,475.9 198.5,470.6 171.1,519.1 143.6,503.8 116.2,502.6 88.7,538.5" fill="#1f3a5f" opacity="0.18"/>
<polyline points="88.7,510.2 116.2,474.1 143.6,480.6 171.1,496.8 198.5,470.6 226.0,456.2 253.5,418.2 280.9,445.0 308.4,499.4 335.8,443.6 363.3,463.9" fill="none" stroke="#1f3a5f" stroke-width="1.6"/>
<circle cx="88.7" cy="510.2" r="2.6" fill="#1f3a5f"/>
<circle cx="116.2" cy="474.1" r="2.6" fill="#1f3a5f"/>
<circle cx="143.6" cy="480.6" r="2.6" fill="#1f3a5f"/>
<circle cx="171.1" cy="496.8" r="2.6" fill="#1f3a5f"/>
<circle cx="198.5" cy="470.6" r="2.6" fill="#1f3a5f"/>
<circle cx="226.0" cy="456.2" r="2.6" fill="#1f3a5f"/>
<circle cx="253.5" cy="418.2" r="2.6" fill="#1f3a5f"/>
<circle cx="280.9" cy="445.0" r="2.6" fill="#1f3a5f"/>
<circle cx="308.4" cy="499.4" r="2.6" fill="#1f3a5f"/>
<circle cx="335.8" cy="443.6" r="2.6" fill="#1f3a5f"/>
<circle cx="363.3" cy="463.9" r="2.6" fill="#1f3a5f"/>
<line x1="212.3" y1="380" x2="212.3" y2="540" stroke="#b9461a" stroke-dasharray="3 3"/>
<line x1="75" y1="540" x2="377" y2="540" stroke="#444"/>
<line x1="75" y1="380" x2="75" y2="540" stroke="#444"/>
<line x1="88.7" y1="540" x2="88.7" y2="543" stroke="#444"/>
<text x="88.7" y="555" text-anchor="middle" fill="#444">-5</text>
<line x1="116.2" y1="540" x2="116.2" y2="543" stroke="#444"/>
<text x="116.2" y="555" text-anchor="middle" fill="#444">-4</text>
<line x1="143.6" y1="540" x2="143.6" y2="543" stroke="#444"/>
<text x="143.6" y="555" text-anchor="middle" fill="#444">-3</text>
<line x1="171.1" y1="540" x2="171.1" y2="543" stroke="#444"/>
<text x="171.1" y="555" text-anchor="middle" fill="#444">-2</text>
<line x1="198.5" y1="540" x2="198.5" y2="543" stroke="#444"/>
<text x="198.5" y="555" text-anchor="middle" fill="#444">-1</text>
<line x1="226.0" y1="540" x2="226.0" y2="543" stroke="#444"/>
<text x="226.0" y="555" text-anchor="middle" fill="#444">0</text>
<line x1="253.5" y1="540" x2="253.5" y2="543" stroke="#444"/>
<text x="253.5" y="555" text-anchor="middle" fill="#444">1</text>
<line x1="280.9" y1="540" x2="280.9" y2="543" stroke="#444"/>
<text x="280.9" y="555" text-anchor="middle" fill="#444">2</text>
<line x1="308.4" y1="540" x2="308.4" y2="543" stroke="#444"/>
<text x="308.4" y="555" text-anchor="middle" fill="#444">3</text>
<line x1="335.8" y1="540" x2="335.8" y2="543" stroke="#444"/>
<text x="335.8" y="555" text-anchor="middle" fill="#444">4</text>
<line x1="363.3" y1="540" x2="363.3" y2="543" stroke="#444"/>
<text x="363.3" y="555" text-anchor="middle" fill="#444">5</text>
<line x1="72" y1="540.0" x2="75" y2="540.0" stroke="#444"/>
<text x="69" y="543.0" text-anchor="end" fill="#444">-1.3</text>
<line x1="72" y1="500.0" x2="75" y2="500.0" stroke="#444"/>
<text x="69" y="503.0" text-anchor="end" fill="#444">-0.54</text>
<line x1="72" y1="460.0" x2="75" y2="460.0" stroke="#444"/>
<text x="69" y="463.0" text-anchor="end" fill="#444">0.19</text>
<line x1="72" y1="420.0" x2="75" y2="420.0" stroke="#444"/>
<text x="69" y="423.0" text-anchor="end" fill="#444">0.93</text>
<line x1="72" y1="380.0" x2="75" y2="380.0" stroke="#444"/>
<text x="69" y="383.0" text-anchor="end" fill="#444">1.7</text>
<text x="226.0" y="574" text-anchor="middle" fill="#444">Event time (years from adoption)</text>
<text x="27" y="460.0" text-anchor="middle" fill="#444" transform="rotate(-90 27 460.0)">ATT (per 100k)</text>
<rect x="425" y="330" width="380" height="260" fill="#fafaf7" stroke="#e2e2dc"/>
<text x="615.0" y="348" text-anchor="middle" font-weight="600">Firearm homicide rate (per 100k)</text>
<line x1="485" y1="446.91398642137403" x2="787" y2="446.91398642137403" stroke="#aaaaaa" stroke-width="0.7"/>
<polygon points="498.7,420.3 526.2,409.3 553.6,428.7 581.1,417.0 608.5,446.9 636.0,430.5 663.5,431.8 690.9,420.3 718.4,419.4 745.8,431.0 773.3,380.0 773.3,540.0 745.8,506.7 718.4,484.8 690.9,463.8 663.5,465.6 636.0,467.4 608.5,446.9 581.1,449.7 553.6,468.7 526.2,461.6 498.7,476.9" fill="#1f3a5f" opacity="0.18"/>
<polyline points="498.7,448.6 526.2,435.4 553.6,448.7 581.1,433.3 608.5,446.9 636.0,449.0 663.5,448.7 690.9,442.1 718.4,452.1 745.8,468.9 773.3,460.0" fill="none" stroke="#1f3a5f" stroke-width="1.6"/>
<circle cx="498.7" cy="448.6" r="2.6" fill="#1f3a5f"/>
<circle cx="526.2" cy="435.4" r="2.6" fill="#1f3a5f"/>
<circle cx="553.6" cy="448.7" r="2.6" fill="#1f3a5f"/>
<circle cx="581.1" cy="433.3" r="2.6" fill="#1f3a5f"/>
<circle cx="608.5" cy="446.9" r="2.6" fill="#1f3a5f"/>
<circle cx="636.0" cy="449.0" r="2.6" fill="#1f3a5f"/>
<circle cx="663.5" cy="448.7" r="2.6" fill="#1f3a5f"/>
<circle cx="690.9" cy="442.1" r="2.6" fill="#1f3a5f"/>
<circle cx="718.4" cy="452.1" r="2.6" fill="#1f3a5f"/>
<circle cx="745.8" cy="468.9" r="2.6" fill="#1f3a5f"/>
<circle cx="773.3" cy="460.0" r="2.6" fill="#1f3a5f"/>
<line x1="622.3" y1="380" x2="622.3" y2="540" stroke="#b9461a" stroke-dasharray="3 3"/>
<line x1="485" y1="540" x2="787" y2="540" stroke="#444"/>
<line x1="485" y1="380" x2="485" y2="540" stroke="#444"/>
<line x1="498.7" y1="540" x2="498.7" y2="543" stroke="#444"/>
<text x="498.7" y="555" text-anchor="middle" fill="#444">-5</text>
<line x1="526.2" y1="540" x2="526.2" y2="543" stroke="#444"/>
<text x="526.2" y="555" text-anchor="middle" fill="#444">-4</text>
<line x1="553.6" y1="540" x2="553.6" y2="543" stroke="#444"/>
<text x="553.6" y="555" text-anchor="middle" fill="#444">-3</text>
<line x1="581.1" y1="540" x2="581.1" y2="543" stroke="#444"/>
<text x="581.1" y="555" text-anchor="middle" fill="#444">-2</text>
<line x1="608.5" y1="540" x2="608.5" y2="543" stroke="#444"/>
<text x="608.5" y="555" text-anchor="middle" fill="#444">-1</text>
<line x1="636.0" y1="540" x2="636.0" y2="543" stroke="#444"/>
<text x="636.0" y="555" text-anchor="middle" fill="#444">0</text>
<line x1="663.5" y1="540" x2="663.5" y2="543" stroke="#444"/>
<text x="663.5" y="555" text-anchor="middle" fill="#444">1</text>
<line x1="690.9" y1="540" x2="690.9" y2="543" stroke="#444"/>
<text x="690.9" y="555" text-anchor="middle" fill="#444">2</text>
<line x1="718.4" y1="540" x2="718.4" y2="543" stroke="#444"/>
<text x="718.4" y="555" text-anchor="middle" fill="#444">3</text>
<line x1="745.8" y1="540" x2="745.8" y2="543" stroke="#444"/>
<text x="745.8" y="555" text-anchor="middle" fill="#444">4</text>
<line x1="773.3" y1="540" x2="773.3" y2="543" stroke="#444"/>
<text x="773.3" y="555" text-anchor="middle" fill="#444">5</text>
<line x1="482" y1="540.0" x2="485" y2="540.0" stroke="#444"/>
<text x="479" y="543.0" text-anchor="end" fill="#444">-1.6</text>
<line x1="482" y1="500.0" x2="485" y2="500.0" stroke="#444"/>
<text x="479" y="503.0" text-anchor="end" fill="#444">-0.91</text>
<line x1="482" y1="460.0" x2="485" y2="460.0" stroke="#444"/>
<text x="479" y="463.0" text-anchor="end" fill="#444">-0.22</text>
<line x1="482" y1="420.0" x2="485" y2="420.0" stroke="#444"/>
<text x="479" y="423.0" text-anchor="end" fill="#444">0.46</text>
<line x1="482" y1="380.0" x2="485" y2="380.0" stroke="#444"/>
<text x="479" y="383.0" text-anchor="end" fill="#444">1.1</text>
<text x="636.0" y="574" text-anchor="middle" fill="#444">Event time (years from adoption)</text>
<text x="437" y="460.0" text-anchor="middle" fill="#444" transform="rotate(-90 437 460.0)">ATT (per 100k)</text>
<rect x="15" y="620" width="380" height="260" fill="#fafaf7" stroke="#e2e2dc"/>
<text x="205.0" y="638" text-anchor="middle" font-weight="600">Total homicide rate (per 100k)</text>
<line x1="75" y1="724.0114926228905" x2="377" y2="724.0114926228905" stroke="#aaaaaa" stroke-width="0.7"/>
<polygon points="88.7,682.9 116.2,670.0 143.6,687.9 171.1,695.8 198.5,724.0 226.0,705.8 253.5,709.1 280.9,703.9 308.4,691.8 335.8,726.3 363.3,738.3 363.3,830.0 335.8,814.4 308.4,758.4 280.9,763.0 253.5,746.4 226.0,751.6 198.5,724.0 171.1,734.0 143.6,733.6 116.2,718.9 88.7,740.0" fill="#1f3a5f" opacity="0.18"/>
<polyline points="88.7,711.5 116.2,694.5 143.6,710.8 171.1,714.9 198.5,724.0 226.0,728.7 253.5,727.8 280.9,733.5 308.4,725.1 335.8,770.3 363.3,784.1" fill="none" stroke="#1f3a5f" stroke-width="1.6"/>
<circle cx="88.7" cy="711.5" r="2.6" fill="#1f3a5f"/>
<circle cx="116.2" cy="694.5" r="2.6" fill="#1f3a5f"/>
<circle cx="143.6" cy="710.8" r="2.6" fill="#1f3a5f"/>
<circle cx="171.1" cy="714.9" r="2.6" fill="#1f3a5f"/>
<circle cx="198.5" cy="724.0" r="2.6" fill="#1f3a5f"/>
<circle cx="226.0" cy="728.7" r="2.6" fill="#1f3a5f"/>
<circle cx="253.5" cy="727.8" r="2.6" fill="#1f3a5f"/>
<circle cx="280.9" cy="733.5" r="2.6" fill="#1f3a5f"/>
<circle cx="308.4" cy="725.1" r="2.6" fill="#1f3a5f"/>
<circle cx="335.8" cy="770.3" r="2.6" fill="#1f3a5f"/>
<circle cx="363.3" cy="784.1" r="2.6" fill="#1f3a5f"/>
<line x1="212.3" y1="670" x2="212.3" y2="830" stroke="#b9461a" stroke-dasharray="3 3"/>
<line x1="75" y1="830" x2="377" y2="830" stroke="#444"/>
<line x1="75" y1="670" x2="75" y2="830" stroke="#444"/>
<line x1="88.7" y1="830" x2="88.7" y2="833" stroke="#444"/>
<text x="88.7" y="845" text-anchor="middle" fill="#444">-5</text>
<line x1="116.2" y1="830" x2="116.2" y2="833" stroke="#444"/>
<text x="116.2" y="845" text-anchor="middle" fill="#444">-4</text>
<line x1="143.6" y1="830" x2="143.6" y2="833" stroke="#444"/>
<text x="143.6" y="845" text-anchor="middle" fill="#444">-3</text>
<line x1="171.1" y1="830" x2="171.1" y2="833" stroke="#444"/>
<text x="171.1" y="845" text-anchor="middle" fill="#444">-2</text>
<line x1="198.5" y1="830" x2="198.5" y2="833" stroke="#444"/>
<text x="198.5" y="845" text-anchor="middle" fill="#444">-1</text>
<line x1="226.0" y1="830" x2="226.0" y2="833" stroke="#444"/>
<text x="226.0" y="845" text-anchor="middle" fill="#444">0</text>
<line x1="253.5" y1="830" x2="253.5" y2="833" stroke="#444"/>
<text x="253.5" y="845" text-anchor="middle" fill="#444">1</text>
<line x1="280.9" y1="830" x2="280.9" y2="833" stroke="#444"/>
<text x="280.9" y="845" text-anchor="middle" fill="#444">2</text>
<line x1="308.4" y1="830" x2="308.4" y2="833" stroke="#444"/>
<text x="308.4" y="845" text-anchor="middle" fill="#444">3</text>
<line x1="335.8" y1="830" x2="335.8" y2="833" stroke="#444"/>
<text x="335.8" y="845" text-anchor="middle" fill="#444">4</text>
<line x1="363.3" y1="830" x2="363.3" y2="833" stroke="#444"/>
<text x="363.3" y="845" text-anchor="middle" fill="#444">5</text>
<line x1="72" y1="830.0" x2="75" y2="830.0" stroke="#444"/>
<text x="69" y="833.0" text-anchor="end" fill="#444">-1.7</text>
<line x1="72" y1="790.0" x2="75" y2="790.0" stroke="#444"/>
<text x="69" y="793.0" text-anchor="end" fill="#444">-1.1</text>
<line x1="72" y1="750.0" x2="75" y2="750.0" stroke="#444"/>
<text x="69" y="753.0" text-anchor="end" fill="#444">-0.43</text>
<line x1="72" y1="710.0" x2="75" y2="710.0" stroke="#444"/>
<text x="69" y="713.0" text-anchor="end" fill="#444">0.23</text>
<line x1="72" y1="670.0" x2="75" y2="670.0" stroke="#444"/>
<text x="69" y="673.0" text-anchor="end" fill="#444">0.88</text>
<text x="226.0" y="864" text-anchor="middle" fill="#444">Event time (years from adoption)</text>
<text x="27" y="750.0" text-anchor="middle" fill="#444" transform="rotate(-90 27 750.0)">ATT (per 100k)</text>
<rect x="425" y="620" width="380" height="260" fill="#fafaf7" stroke="#e2e2dc"/>
<text x="615.0" y="638" text-anchor="middle" font-weight="600">Motor vehicle theft rate (per 100k) [placebo]</text>
<line x1="485" y1="730.745848088339" x2="787" y2="730.745848088339" stroke="#aaaaaa" stroke-width="0.7"/>
<polygon points="498.7,674.9 526.2,670.0 553.6,681.4 581.1,701.4 608.5,730.7 636.0,727.4 663.5,729.1 690.9,732.2 718.4,721.3 745.8,737.0 773.3,733.3 773.3,830.0 745.8,797.1 718.4,782.2 690.9,781.1 663.5,769.0 636.0,759.4 608.5,730.7 581.1,730.3 553.6,722.2 526.2,725.3 498.7,736.9" fill="#1f3a5f" opacity="0.18"/>
<polyline points="498.7,705.9 526.2,697.7 553.6,701.8 581.1,715.8 608.5,730.7 636.0,743.4 663.5,749.0 690.9,756.6 718.4,751.8 745.8,767.0 773.3,781.6" fill="none" stroke="#1f3a5f" stroke-width="1.6"/>
<circle cx="498.7" cy="705.9" r="2.6" fill="#1f3a5f"/>
<circle cx="526.2" cy="697.7" r="2.6" fill="#1f3a5f"/>
<circle cx="553.6" cy="701.8" r="2.6" fill="#1f3a5f"/>
<circle cx="581.1" cy="715.8" r="2.6" fill="#1f3a5f"/>
<circle cx="608.5" cy="730.7" r="2.6" fill="#1f3a5f"/>
<circle cx="636.0" cy="743.4" r="2.6" fill="#1f3a5f"/>
<circle cx="663.5" cy="749.0" r="2.6" fill="#1f3a5f"/>
<circle cx="690.9" cy="756.6" r="2.6" fill="#1f3a5f"/>
<circle cx="718.4" cy="751.8" r="2.6" fill="#1f3a5f"/>
<circle cx="745.8" cy="767.0" r="2.6" fill="#1f3a5f"/>
<circle cx="773.3" cy="781.6" r="2.6" fill="#1f3a5f"/>
<line x1="622.3" y1="670" x2="622.3" y2="830" stroke="#b9461a" stroke-dasharray="3 3"/>
<line x1="485" y1="830" x2="787" y2="830" stroke="#444"/>
<line x1="485" y1="670" x2="485" y2="830" stroke="#444"/>
<line x1="498.7" y1="830" x2="498.7" y2="833" stroke="#444"/>
<text x="498.7" y="845" text-anchor="middle" fill="#444">-5</text>
<line x1="526.2" y1="830" x2="526.2" y2="833" stroke="#444"/>
<text x="526.2" y="845" text-anchor="middle" fill="#444">-4</text>
<line x1="553.6" y1="830" x2="553.6" y2="833" stroke="#444"/>
<text x="553.6" y="845" text-anchor="middle" fill="#444">-3</text>
<line x1="581.1" y1="830" x2="581.1" y2="833" stroke="#444"/>
<text x="581.1" y="845" text-anchor="middle" fill="#444">-2</text>
<line x1="608.5" y1="830" x2="608.5" y2="833" stroke="#444"/>
<text x="608.5" y="845" text-anchor="middle" fill="#444">-1</text>
<line x1="636.0" y1="830" x2="636.0" y2="833" stroke="#444"/>
<text x="636.0" y="845" text-anchor="middle" fill="#444">0</text>
<line x1="663.5" y1="830" x2="663.5" y2="833" stroke="#444"/>
<text x="663.5" y="845" text-anchor="middle" fill="#444">1</text>
<line x1="690.9" y1="830" x2="690.9" y2="833" stroke="#444"/>
<text x="690.9" y="845" text-anchor="middle" fill="#444">2</text>
<line x1="718.4" y1="830" x2="718.4" y2="833" stroke="#444"/>
<text x="718.4" y="845" text-anchor="middle" fill="#444">3</text>
<line x1="745.8" y1="830" x2="745.8" y2="833" stroke="#444"/>
<text x="745.8" y="845" text-anchor="middle" fill="#444">4</text>
<line x1="773.3" y1="830" x2="773.3" y2="833" stroke="#444"/>
<text x="773.3" y="845" text-anchor="middle" fill="#444">5</text>
<line x1="482" y1="830.0" x2="485" y2="830.0" stroke="#444"/>
<text x="479" y="833.0" text-anchor="end" fill="#444">-1.3e+02</text>
<line x1="482" y1="790.0" x2="485" y2="790.0" stroke="#444"/>
<text x="479" y="793.0" text-anchor="end" fill="#444">-79</text>
<line x1="482" y1="750.0" x2="485" y2="750.0" stroke="#444"/>
<text x="479" y="753.0" text-anchor="end" fill="#444">-26</text>
<line x1="482" y1="710.0" x2="485" y2="710.0" stroke="#444"/>
<text x="479" y="713.0" text-anchor="end" fill="#444">28</text>
<line x1="482" y1="670.0" x2="485" y2="670.0" stroke="#444"/>
<text x="479" y="673.0" text-anchor="end" fill="#444">81</text>
<text x="636.0" y="864" text-anchor="middle" fill="#444">Event time (years from adoption)</text>
<text x="437" y="750.0" text-anchor="middle" fill="#444" transform="rotate(-90 437 750.0)">ATT (per 100k)</text>
<text x="805" y="608" text-anchor="end" fill="#888" font-size="10">Shaded band: pointwise 95% CI from cluster bootstrap. Vertical dashed line marks the year before adoption.</text>
</svg>