<svg xmlns="http://www.w3.org/2000/svg" viewBox="0 0 820 620" font-family="-apple-system, Segoe UI, Helvetica, Arial, sans-serif" font-size="11">
<text x="410.0" y="22" text-anchor="middle" font-size="14" font-weight="600">Callaway-Sant'Anna ATT by event time (OR) -- stand your ground</text>
<rect x="15" y="40" width="380" height="260" fill="#fafaf7" stroke="#e2e2dc"/>
<text x="205.0" y="58" text-anchor="middle" font-weight="600">Firearm suicide rate (per 100k)</text>
<line x1="75" y1="170.30427427940836" x2="377" y2="170.30427427940836" stroke="#aaaaaa" stroke-width="0.7"/>
<polygon points="88.7,182.9 116.2,173.4 143.6,161.5 171.1,182.3 226.0,127.9 253.5,123.6 280.9,105.2 308.4,90.0 335.8,130.9 363.3,95.5 363.3,177.6 335.8,190.1 308.4,185.8 280.9,163.4 253.5,206.8 226.0,178.5 171.1,227.6 143.6,211.5 116.2,235.2 88.7,250.0" fill="#1f3a5f" opacity="0.18"/>
<polyline points="88.7,216.5 116.2,204.3 143.6,186.5 171.1,205.0 226.0,153.2 253.5,165.2 280.9,134.3 308.4,137.9 335.8,160.5 363.3,136.6" fill="none" stroke="#1f3a5f" stroke-width="1.6"/>
<circle cx="88.7" cy="216.5" r="2.6" fill="#1f3a5f"/>
<circle cx="116.2" cy="204.3" r="2.6" fill="#1f3a5f"/>
<circle cx="143.6" cy="186.5" r="2.6" fill="#1f3a5f"/>
<circle cx="171.1" cy="205.0" r="2.6" fill="#1f3a5f"/>
<circle cx="226.0" cy="153.2" r="2.6" fill="#1f3a5f"/>
<circle cx="253.5" cy="165.2" r="2.6" fill="#1f3a5f"/>
<circle cx="280.9" cy="134.3" r="2.6" fill="#1f3a5f"/>
<circle cx="308.4" cy="137.9" r="2.6" fill="#1f3a5f"/>
<circle cx="335.8" cy="160.5" r="2.6" fill="#1f3a5f"/>
<circle cx="363.3" cy="136.6" r="2.6" fill="#1f3a5f"/>
<line x1="212.3" y1="90" x2="212.3" y2="250" stroke="#b9461a" stroke-dasharray="3 3"/>
<line x1="75" y1="250" x2="377" y2="250" stroke="#444"/>
<line x1="75" y1="90" x2="75" y2="250" stroke="#444"/>
<line x1="88.7" y1="250" x2="88.7" y2="253" stroke="#444"/>
<text x="88.7" y="265" text-anchor="middle" fill="#444">-5</text>
<line x1="116.2" y1="250" x2="116.2" y2="253" stroke="#444"/>
<text x="116.2" y="265" text-anchor="middle" fill="#444">-4</text>
<line x1="143.6" y1="250" x2="143.6" y2="253" stroke="#444"/>
<text x="143.6" y="265" text-anchor="middle" fill="#444">-3</text>
<line x1="171.1" y1="250" x2="171.1" y2="253" stroke="#444"/>
<text x="171.1" y="265" text-anchor="middle" fill="#444">-2</text>
<line x1="226.0" y1="250" x2="226.0" y2="253" stroke="#444"/>
<text x="226.0" y="265" text-anchor="middle" fill="#444">0</text>
<line x1="253.5" y1="250" x2="253.5" y2="253" stroke="#444"/>
<text x="253.5" y="265" text-anchor="middle" fill="#444">1</text>
<line x1="280.9" y1="250" x2="280.9" y2="253" stroke="#444"/>
<text x="280.9" y="265" text-anchor="middle" fill="#444">2</text>
<line x1="308.4" y1="250" x2="308.4" y2="253" stroke="#444"/>
<text x="308.4" y="265" text-anchor="middle" fill="#444">3</text>
<line x1="335.8" y1="250" x2="335.8" y2="253" stroke="#444"/>
<text x="335.8" y="265" text-anchor="middle" fill="#444">4</text>
<line x1="363.3" y1="250" x2="363.3" y2="253" stroke="#444"/>
<text x="363.3" y="265" text-anchor="middle" fill="#444">5</text>
<line x1="72" y1="250.0" x2="75" y2="250.0" stroke="#444"/>
<text x="69" y="253.0" text-anchor="end" fill="#444">-0.78</text>
<line x1="72" y1="210.0" x2="75" y2="210.0" stroke="#444"/>
<text x="69" y="213.0" text-anchor="end" fill="#444">-0.39</text>
<line x1="72" y1="170.0" x2="75" y2="170.0" stroke="#444"/>
<text x="69" y="173.0" text-anchor="end" fill="#444">0.003</text>
<line x1="72" y1="130.0" x2="75" y2="130.0" stroke="#444"/>
<text x="69" y="133.0" text-anchor="end" fill="#444">0.39</text>
<line x1="72" y1="90.0" x2="75" y2="90.0" stroke="#444"/>
<text x="69" y="93.0" text-anchor="end" fill="#444">0.79</text>
<text x="226.0" y="284" text-anchor="middle" fill="#444">Event time (years from adoption)</text>
<text x="27" y="170.0" text-anchor="middle" fill="#444" transform="rotate(-90 27 170.0)">ATT (per 100k)</text>
<rect x="425" y="40" width="380" height="260" fill="#fafaf7" stroke="#e2e2dc"/>
<text x="615.0" y="58" text-anchor="middle" font-weight="600">Non-firearm suicide rate (per 100k) [substitution test]</text>
<line x1="485" y1="132.4889442208517" x2="787" y2="132.4889442208517" stroke="#aaaaaa" stroke-width="0.7"/>
<polygon points="498.7,108.0 526.2,129.5 553.6,123.1 581.1,149.6 636.0,106.6 663.5,162.0 690.9,146.0 718.4,109.3 745.8,90.0 773.3,131.7 773.3,250.0 745.8,224.0 718.4,244.7 690.9,230.5 663.5,239.8 636.0,222.5 581.1,214.3 553.6,209.4 526.2,215.8 498.7,216.1" fill="#1f3a5f" opacity="0.18"/>
<polyline points="498.7,162.1 526.2,172.7 553.6,166.2 581.1,182.0 636.0,164.6 663.5,200.9 690.9,188.2 718.4,177.0 745.8,157.0 773.3,190.8" fill="none" stroke="#1f3a5f" stroke-width="1.6"/>
<circle cx="498.7" cy="162.1" r="2.6" fill="#1f3a5f"/>
<circle cx="526.2" cy="172.7" r="2.6" fill="#1f3a5f"/>
<circle cx="553.6" cy="166.2" r="2.6" fill="#1f3a5f"/>
<circle cx="581.1" cy="182.0" r="2.6" fill="#1f3a5f"/>
<circle cx="636.0" cy="164.6" r="2.6" fill="#1f3a5f"/>
<circle cx="663.5" cy="200.9" r="2.6" fill="#1f3a5f"/>
<circle cx="690.9" cy="188.2" r="2.6" fill="#1f3a5f"/>
<circle cx="718.4" cy="177.0" r="2.6" fill="#1f3a5f"/>
<circle cx="745.8" cy="157.0" r="2.6" fill="#1f3a5f"/>
<circle cx="773.3" cy="190.8" r="2.6" fill="#1f3a5f"/>
<line x1="622.3" y1="90" x2="622.3" y2="250" stroke="#b9461a" stroke-dasharray="3 3"/>
<line x1="485" y1="250" x2="787" y2="250" stroke="#444"/>
<line x1="485" y1="90" x2="485" y2="250" stroke="#444"/>
<line x1="498.7" y1="250" x2="498.7" y2="253" stroke="#444"/>
<text x="498.7" y="265" text-anchor="middle" fill="#444">-5</text>
<line x1="526.2" y1="250" x2="526.2" y2="253" stroke="#444"/>
<text x="526.2" y="265" text-anchor="middle" fill="#444">-4</text>
<line x1="553.6" y1="250" x2="553.6" y2="253" stroke="#444"/>
<text x="553.6" y="265" text-anchor="middle" fill="#444">-3</text>
<line x1="581.1" y1="250" x2="581.1" y2="253" stroke="#444"/>
<text x="581.1" y="265" text-anchor="middle" fill="#444">-2</text>
<line x1="636.0" y1="250" x2="636.0" y2="253" stroke="#444"/>
<text x="636.0" y="265" text-anchor="middle" fill="#444">0</text>
<line x1="663.5" y1="250" x2="663.5" y2="253" stroke="#444"/>
<text x="663.5" y="265" text-anchor="middle" fill="#444">1</text>
<line x1="690.9" y1="250" x2="690.9" y2="253" stroke="#444"/>
<text x="690.9" y="265" text-anchor="middle" fill="#444">2</text>
<line x1="718.4" y1="250" x2="718.4" y2="253" stroke="#444"/>
<text x="718.4" y="265" text-anchor="middle" fill="#444">3</text>
<line x1="745.8" y1="250" x2="745.8" y2="253" stroke="#444"/>
<text x="745.8" y="265" text-anchor="middle" fill="#444">4</text>
<line x1="773.3" y1="250" x2="773.3" y2="253" stroke="#444"/>
<text x="773.3" y="265" text-anchor="middle" fill="#444">5</text>
<line x1="482" y1="250.0" x2="485" y2="250.0" stroke="#444"/>
<text x="479" y="253.0" text-anchor="end" fill="#444">-0.59</text>
<line x1="482" y1="210.0" x2="485" y2="210.0" stroke="#444"/>
<text x="479" y="213.0" text-anchor="end" fill="#444">-0.39</text>
<line x1="482" y1="170.0" x2="485" y2="170.0" stroke="#444"/>
<text x="479" y="173.0" text-anchor="end" fill="#444">-0.19</text>
<line x1="482" y1="130.0" x2="485" y2="130.0" stroke="#444"/>
<text x="479" y="133.0" text-anchor="end" fill="#444">0.013</text>
<line x1="482" y1="90.0" x2="485" y2="90.0" stroke="#444"/>
<text x="479" y="93.0" text-anchor="end" fill="#444">0.21</text>
<text x="636.0" y="284" text-anchor="middle" fill="#444">Event time (years from adoption)</text>
<text x="437" y="170.0" text-anchor="middle" fill="#444" transform="rotate(-90 437 170.0)">ATT (per 100k)</text>
<rect x="15" y="330" width="380" height="260" fill="#fafaf7" stroke="#e2e2dc"/>
<text x="205.0" y="348" text-anchor="middle" font-weight="600">Total suicide rate (per 100k) [net effect]</text>
<line x1="75" y1="444.489766673997" x2="377" y2="444.489766673997" stroke="#aaaaaa" stroke-width="0.7"/>
<polygon points="88.7,465.7 116.2,461.3 143.6,445.4 171.1,476.5 226.0,415.2 253.5,428.1 280.9,402.6 308.4,380.0 335.8,407.8 363.3,400.9 363.3,481.2 335.8,486.6 308.4,491.1 280.9,472.6 253.5,518.4 226.0,472.7 171.1,526.9 143.6,507.5 116.2,531.8 88.7,540.0" fill="#1f3a5f" opacity="0.18"/>
<polyline points="88.7,502.9 116.2,496.6 143.6,476.4 171.1,501.7 226.0,444.0 253.5,473.2 280.9,437.6 308.4,435.5 335.8,447.2 363.3,441.1" fill="none" stroke="#1f3a5f" stroke-width="1.6"/>
<circle cx="88.7" cy="502.9" r="2.6" fill="#1f3a5f"/>
<circle cx="116.2" cy="496.6" r="2.6" fill="#1f3a5f"/>
<circle cx="143.6" cy="476.4" r="2.6" fill="#1f3a5f"/>
<circle cx="171.1" cy="501.7" r="2.6" fill="#1f3a5f"/>
<circle cx="226.0" cy="444.0" r="2.6" fill="#1f3a5f"/>
<circle cx="253.5" cy="473.2" r="2.6" fill="#1f3a5f"/>
<circle cx="280.9" cy="437.6" r="2.6" fill="#1f3a5f"/>
<circle cx="308.4" cy="435.5" r="2.6" fill="#1f3a5f"/>
<circle cx="335.8" cy="447.2" r="2.6" fill="#1f3a5f"/>
<circle cx="363.3" cy="441.1" r="2.6" fill="#1f3a5f"/>
<line x1="212.3" y1="380" x2="212.3" y2="540" stroke="#b9461a" stroke-dasharray="3 3"/>
<line x1="75" y1="540" x2="377" y2="540" stroke="#444"/>
<line x1="75" y1="380" x2="75" y2="540" stroke="#444"/>
<line x1="88.7" y1="540" x2="88.7" y2="543" stroke="#444"/>
<text x="88.7" y="555" text-anchor="middle" fill="#444">-5</text>
<line x1="116.2" y1="540" x2="116.2" y2="543" stroke="#444"/>
<text x="116.2" y="555" text-anchor="middle" fill="#444">-4</text>
<line x1="143.6" y1="540" x2="143.6" y2="543" stroke="#444"/>
<text x="143.6" y="555" text-anchor="middle" fill="#444">-3</text>
<line x1="171.1" y1="540" x2="171.1" y2="543" stroke="#444"/>
<text x="171.1" y="555" text-anchor="middle" fill="#444">-2</text>
<line x1="226.0" y1="540" x2="226.0" y2="543" stroke="#444"/>
<text x="226.0" y="555" text-anchor="middle" fill="#444">0</text>
<line x1="253.5" y1="540" x2="253.5" y2="543" stroke="#444"/>
<text x="253.5" y="555" text-anchor="middle" fill="#444">1</text>
<line x1="280.9" y1="540" x2="280.9" y2="543" stroke="#444"/>
<text x="280.9" y="555" text-anchor="middle" fill="#444">2</text>
<line x1="308.4" y1="540" x2="308.4" y2="543" stroke="#444"/>
<text x="308.4" y="555" text-anchor="middle" fill="#444">3</text>
<line x1="335.8" y1="540" x2="335.8" y2="543" stroke="#444"/>
<text x="335.8" y="555" text-anchor="middle" fill="#444">4</text>
<line x1="363.3" y1="540" x2="363.3" y2="543" stroke="#444"/>
<text x="363.3" y="555" text-anchor="middle" fill="#444">5</text>
<line x1="72" y1="540.0" x2="75" y2="540.0" stroke="#444"/>
<text x="69" y="543.0" text-anchor="end" fill="#444">-0.98</text>
<line x1="72" y1="500.0" x2="75" y2="500.0" stroke="#444"/>
<text x="69" y="503.0" text-anchor="end" fill="#444">-0.57</text>
<line x1="72" y1="460.0" x2="75" y2="460.0" stroke="#444"/>
<text x="69" y="463.0" text-anchor="end" fill="#444">-0.16</text>
<line x1="72" y1="420.0" x2="75" y2="420.0" stroke="#444"/>
<text x="69" y="423.0" text-anchor="end" fill="#444">0.25</text>
<line x1="72" y1="380.0" x2="75" y2="380.0" stroke="#444"/>
<text x="69" y="383.0" text-anchor="end" fill="#444">0.66</text>
<text x="226.0" y="574" text-anchor="middle" fill="#444">Event time (years from adoption)</text>
<text x="27" y="460.0" text-anchor="middle" fill="#444" transform="rotate(-90 27 460.0)">ATT (per 100k)</text>
<rect x="425" y="330" width="380" height="260" fill="#fafaf7" stroke="#e2e2dc"/>
<text x="615.0" y="348" text-anchor="middle" font-weight="600">Firearm homicide rate (per 100k)</text>
<line x1="485" y1="518.7973191336621" x2="787" y2="518.7973191336621" stroke="#aaaaaa" stroke-width="0.7"/>
<polygon points="498.7,422.3 526.2,448.4 553.6,446.1 581.1,456.0 636.0,437.4 663.5,380.0 690.9,384.3 718.4,413.7 745.8,435.1 773.3,405.8 773.3,529.8 745.8,528.7 718.4,494.1 690.9,488.8 663.5,459.8 636.0,513.0 581.1,536.9 553.6,534.5 526.2,540.0 498.7,535.7" fill="#1f3a5f" opacity="0.18"/>
<polyline points="498.7,479.0 526.2,494.2 553.6,490.3 581.1,496.4 636.0,475.2 663.5,419.9 690.9,436.5 718.4,453.9 745.8,481.9 773.3,467.8" fill="none" stroke="#1f3a5f" stroke-width="1.6"/>
<circle cx="498.7" cy="479.0" r="2.6" fill="#1f3a5f"/>
<circle cx="526.2" cy="494.2" r="2.6" fill="#1f3a5f"/>
<circle cx="553.6" cy="490.3" r="2.6" fill="#1f3a5f"/>
<circle cx="581.1" cy="496.4" r="2.6" fill="#1f3a5f"/>
<circle cx="636.0" cy="475.2" r="2.6" fill="#1f3a5f"/>
<circle cx="663.5" cy="419.9" r="2.6" fill="#1f3a5f"/>
<circle cx="690.9" cy="436.5" r="2.6" fill="#1f3a5f"/>
<circle cx="718.4" cy="453.9" r="2.6" fill="#1f3a5f"/>
<circle cx="745.8" cy="481.9" r="2.6" fill="#1f3a5f"/>
<circle cx="773.3" cy="467.8" r="2.6" fill="#1f3a5f"/>
<line x1="622.3" y1="380" x2="622.3" y2="540" stroke="#b9461a" stroke-dasharray="3 3"/>
<line x1="485" y1="540" x2="787" y2="540" stroke="#444"/>
<line x1="485" y1="380" x2="485" y2="540" stroke="#444"/>
<line x1="498.7" y1="540" x2="498.7" y2="543" stroke="#444"/>
<text x="498.7" y="555" text-anchor="middle" fill="#444">-5</text>
<line x1="526.2" y1="540" x2="526.2" y2="543" stroke="#444"/>
<text x="526.2" y="555" text-anchor="middle" fill="#444">-4</text>
<line x1="553.6" y1="540" x2="553.6" y2="543" stroke="#444"/>
<text x="553.6" y="555" text-anchor="middle" fill="#444">-3</text>
<line x1="581.1" y1="540" x2="581.1" y2="543" stroke="#444"/>
<text x="581.1" y="555" text-anchor="middle" fill="#444">-2</text>
<line x1="636.0" y1="540" x2="636.0" y2="543" stroke="#444"/>
<text x="636.0" y="555" text-anchor="middle" fill="#444">0</text>
<line x1="663.5" y1="540" x2="663.5" y2="543" stroke="#444"/>
<text x="663.5" y="555" text-anchor="middle" fill="#444">1</text>
<line x1="690.9" y1="540" x2="690.9" y2="543" stroke="#444"/>
<text x="690.9" y="555" text-anchor="middle" fill="#444">2</text>
<line x1="718.4" y1="540" x2="718.4" y2="543" stroke="#444"/>
<text x="718.4" y="555" text-anchor="middle" fill="#444">3</text>
<line x1="745.8" y1="540" x2="745.8" y2="543" stroke="#444"/>
<text x="745.8" y="555" text-anchor="middle" fill="#444">4</text>
<line x1="773.3" y1="540" x2="773.3" y2="543" stroke="#444"/>
<text x="773.3" y="555" text-anchor="middle" fill="#444">5</text>
<line x1="482" y1="540.0" x2="485" y2="540.0" stroke="#444"/>
<text x="479" y="543.0" text-anchor="end" fill="#444">-0.099</text>
<line x1="482" y1="500.0" x2="485" y2="500.0" stroke="#444"/>
<text x="479" y="503.0" text-anchor="end" fill="#444">0.088</text>
<line x1="482" y1="460.0" x2="485" y2="460.0" stroke="#444"/>
<text x="479" y="463.0" text-anchor="end" fill="#444">0.28</text>
<line x1="482" y1="420.0" x2="485" y2="420.0" stroke="#444"/>
<text x="479" y="423.0" text-anchor="end" fill="#444">0.46</text>
<line x1="482" y1="380.0" x2="485" y2="380.0" stroke="#444"/>
<text x="479" y="383.0" text-anchor="end" fill="#444">0.65</text>
<text x="636.0" y="574" text-anchor="middle" fill="#444">Event time (years from adoption)</text>
<text x="437" y="460.0" text-anchor="middle" fill="#444" transform="rotate(-90 437 460.0)">ATT (per 100k)</text>
<rect x="15" y="620" width="380" height="260" fill="#fafaf7" stroke="#e2e2dc"/>
<text x="205.0" y="638" text-anchor="middle" font-weight="600">Total homicide rate (per 100k)</text>
<line x1="75" y1="784.3896282357388" x2="377" y2="784.3896282357388" stroke="#aaaaaa" stroke-width="0.7"/>
<polygon points="88.7,705.8 116.2,731.3 143.6,710.3 171.1,721.4 226.0,716.8 253.5,670.0 280.9,696.8 308.4,696.5 335.8,743.4 363.3,709.6 363.3,804.3 335.8,826.3 308.4,783.4 280.9,780.9 253.5,765.8 226.0,791.8 171.1,816.1 143.6,804.9 116.2,830.0 88.7,797.7" fill="#1f3a5f" opacity="0.18"/>
<polyline points="88.7,751.7 116.2,780.6 143.6,757.6 171.1,768.7 226.0,754.3 253.5,717.9 280.9,738.9 308.4,740.0 335.8,784.9 363.3,756.9" fill="none" stroke="#1f3a5f" stroke-width="1.6"/>
<circle cx="88.7" cy="751.7" r="2.6" fill="#1f3a5f"/>
<circle cx="116.2" cy="780.6" r="2.6" fill="#1f3a5f"/>
<circle cx="143.6" cy="757.6" r="2.6" fill="#1f3a5f"/>
<circle cx="171.1" cy="768.7" r="2.6" fill="#1f3a5f"/>
<circle cx="226.0" cy="754.3" r="2.6" fill="#1f3a5f"/>
<circle cx="253.5" cy="717.9" r="2.6" fill="#1f3a5f"/>
<circle cx="280.9" cy="738.9" r="2.6" fill="#1f3a5f"/>
<circle cx="308.4" cy="740.0" r="2.6" fill="#1f3a5f"/>
<circle cx="335.8" cy="784.9" r="2.6" fill="#1f3a5f"/>
<circle cx="363.3" cy="756.9" r="2.6" fill="#1f3a5f"/>
<line x1="212.3" y1="670" x2="212.3" y2="830" stroke="#b9461a" stroke-dasharray="3 3"/>
<line x1="75" y1="830" x2="377" y2="830" stroke="#444"/>
<line x1="75" y1="670" x2="75" y2="830" stroke="#444"/>
<line x1="88.7" y1="830" x2="88.7" y2="833" stroke="#444"/>
<text x="88.7" y="845" text-anchor="middle" fill="#444">-5</text>
<line x1="116.2" y1="830" x2="116.2" y2="833" stroke="#444"/>
<text x="116.2" y="845" text-anchor="middle" fill="#444">-4</text>
<line x1="143.6" y1="830" x2="143.6" y2="833" stroke="#444"/>
<text x="143.6" y="845" text-anchor="middle" fill="#444">-3</text>
<line x1="171.1" y1="830" x2="171.1" y2="833" stroke="#444"/>
<text x="171.1" y="845" text-anchor="middle" fill="#444">-2</text>
<line x1="226.0" y1="830" x2="226.0" y2="833" stroke="#444"/>
<text x="226.0" y="845" text-anchor="middle" fill="#444">0</text>
<line x1="253.5" y1="830" x2="253.5" y2="833" stroke="#444"/>
<text x="253.5" y="845" text-anchor="middle" fill="#444">1</text>
<line x1="280.9" y1="830" x2="280.9" y2="833" stroke="#444"/>
<text x="280.9" y="845" text-anchor="middle" fill="#444">2</text>
<line x1="308.4" y1="830" x2="308.4" y2="833" stroke="#444"/>
<text x="308.4" y="845" text-anchor="middle" fill="#444">3</text>
<line x1="335.8" y1="830" x2="335.8" y2="833" stroke="#444"/>
<text x="335.8" y="845" text-anchor="middle" fill="#444">4</text>
<line x1="363.3" y1="830" x2="363.3" y2="833" stroke="#444"/>
<text x="363.3" y="845" text-anchor="middle" fill="#444">5</text>
<line x1="72" y1="830.0" x2="75" y2="830.0" stroke="#444"/>
<text x="69" y="833.0" text-anchor="end" fill="#444">-0.32</text>
<line x1="72" y1="790.0" x2="75" y2="790.0" stroke="#444"/>
<text x="69" y="793.0" text-anchor="end" fill="#444">-0.039</text>
<line x1="72" y1="750.0" x2="75" y2="750.0" stroke="#444"/>
<text x="69" y="753.0" text-anchor="end" fill="#444">0.24</text>
<line x1="72" y1="710.0" x2="75" y2="710.0" stroke="#444"/>
<text x="69" y="713.0" text-anchor="end" fill="#444">0.52</text>
<line x1="72" y1="670.0" x2="75" y2="670.0" stroke="#444"/>
<text x="69" y="673.0" text-anchor="end" fill="#444">0.79</text>
<text x="226.0" y="864" text-anchor="middle" fill="#444">Event time (years from adoption)</text>
<text x="27" y="750.0" text-anchor="middle" fill="#444" transform="rotate(-90 27 750.0)">ATT (per 100k)</text>
<rect x="425" y="620" width="380" height="260" fill="#fafaf7" stroke="#e2e2dc"/>
<text x="615.0" y="638" text-anchor="middle" font-weight="600">Motor vehicle theft rate (per 100k) [placebo]</text>
<line x1="485" y1="803.0162367797154" x2="787" y2="803.0162367797154" stroke="#aaaaaa" stroke-width="0.7"/>
<polygon points="498.7,670.0 526.2,708.5 553.6,740.1 581.1,756.0 636.0,753.6 663.5,739.9 690.9,728.7 718.4,694.0 745.8,694.7 773.3,696.2 773.3,807.3 745.8,787.7 718.4,788.5 690.9,807.8 663.5,796.3 636.0,794.4 581.1,800.0 553.6,807.0 526.2,825.0 498.7,830.0" fill="#1f3a5f" opacity="0.18"/>
<polyline points="498.7,750.0 526.2,766.8 553.6,773.6 581.1,778.0 636.0,774.0 663.5,768.1 690.9,768.3 718.4,741.2 745.8,741.2 773.3,751.8" fill="none" stroke="#1f3a5f" stroke-width="1.6"/>
<circle cx="498.7" cy="750.0" r="2.6" fill="#1f3a5f"/>
<circle cx="526.2" cy="766.8" r="2.6" fill="#1f3a5f"/>
<circle cx="553.6" cy="773.6" r="2.6" fill="#1f3a5f"/>
<circle cx="581.1" cy="778.0" r="2.6" fill="#1f3a5f"/>
<circle cx="636.0" cy="774.0" r="2.6" fill="#1f3a5f"/>
<circle cx="663.5" cy="768.1" r="2.6" fill="#1f3a5f"/>
<circle cx="690.9" cy="768.3" r="2.6" fill="#1f3a5f"/>
<circle cx="718.4" cy="741.2" r="2.6" fill="#1f3a5f"/>
<circle cx="745.8" cy="741.2" r="2.6" fill="#1f3a5f"/>
<circle cx="773.3" cy="751.8" r="2.6" fill="#1f3a5f"/>
<line x1="622.3" y1="670" x2="622.3" y2="830" stroke="#b9461a" stroke-dasharray="3 3"/>
<line x1="485" y1="830" x2="787" y2="830" stroke="#444"/>
<line x1="485" y1="670" x2="485" y2="830" stroke="#444"/>
<line x1="498.7" y1="830" x2="498.7" y2="833" stroke="#444"/>
<text x="498.7" y="845" text-anchor="middle" fill="#444">-5</text>
<line x1="526.2" y1="830" x2="526.2" y2="833" stroke="#444"/>
<text x="526.2" y="845" text-anchor="middle" fill="#444">-4</text>
<line x1="553.6" y1="830" x2="553.6" y2="833" stroke="#444"/>
<text x="553.6" y="845" text-anchor="middle" fill="#444">-3</text>
<line x1="581.1" y1="830" x2="581.1" y2="833" stroke="#444"/>
<text x="581.1" y="845" text-anchor="middle" fill="#444">-2</text>
<line x1="636.0" y1="830" x2="636.0" y2="833" stroke="#444"/>
<text x="636.0" y="845" text-anchor="middle" fill="#444">0</text>
<line x1="663.5" y1="830" x2="663.5" y2="833" stroke="#444"/>
<text x="663.5" y="845" text-anchor="middle" fill="#444">1</text>
<line x1="690.9" y1="830" x2="690.9" y2="833" stroke="#444"/>
<text x="690.9" y="845" text-anchor="middle" fill="#444">2</text>
<line x1="718.4" y1="830" x2="718.4" y2="833" stroke="#444"/>
<text x="718.4" y="845" text-anchor="middle" fill="#444">3</text>
<line x1="745.8" y1="830" x2="745.8" y2="833" stroke="#444"/>
<text x="745.8" y="845" text-anchor="middle" fill="#444">4</text>
<line x1="773.3" y1="830" x2="773.3" y2="833" stroke="#444"/>
<text x="773.3" y="845" text-anchor="middle" fill="#444">5</text>
<line x1="482" y1="830.0" x2="485" y2="830.0" stroke="#444"/>
<text x="479" y="833.0" text-anchor="end" fill="#444">-14</text>
<line x1="482" y1="790.0" x2="485" y2="790.0" stroke="#444"/>
<text x="479" y="793.0" text-anchor="end" fill="#444">6.7</text>
<line x1="482" y1="750.0" x2="485" y2="750.0" stroke="#444"/>
<text x="479" y="753.0" text-anchor="end" fill="#444">27</text>
<line x1="482" y1="710.0" x2="485" y2="710.0" stroke="#444"/>
<text x="479" y="713.0" text-anchor="end" fill="#444">48</text>
<line x1="482" y1="670.0" x2="485" y2="670.0" stroke="#444"/>
<text x="479" y="673.0" text-anchor="end" fill="#444">69</text>
<text x="636.0" y="864" text-anchor="middle" fill="#444">Event time (years from adoption)</text>
<text x="437" y="750.0" text-anchor="middle" fill="#444" transform="rotate(-90 437 750.0)">ATT (per 100k)</text>
<text x="805" y="608" text-anchor="end" fill="#888" font-size="10">Shaded band: pointwise 95% CI from cluster bootstrap. Vertical dashed line marks the year before adoption.</text>
</svg>