<svg xmlns="http://www.w3.org/2000/svg" viewBox="0 0 820 620" font-family="-apple-system, Segoe UI, Helvetica, Arial, sans-serif" font-size="11">
<text x="410.0" y="22" text-anchor="middle" font-size="14" font-weight="600">Callaway-Sant'Anna ATT by event time (RA) -- stand-your-ground (nosyg)</text>
<rect x="15" y="40" width="380" height="260" fill="#fafaf7" stroke="#e2e2dc"/>
<text x="205.0" y="58" text-anchor="middle" font-weight="600">Firearm suicide rate (per 100k)</text>
<line x1="75" y1="179.23275231759578" x2="377" y2="179.23275231759578" stroke="#aaaaaa" stroke-width="0.7"/>
<polygon points="88.7,182.1 88.7,177.1 88.7,168.9 116.2,148.2 116.2,183.8 116.2,154.0 143.6,181.7 143.6,177.9 143.6,175.7 171.1,181.9 171.1,130.0 171.1,140.3 226.0,137.5 226.0,145.1 226.0,158.7 253.5,170.8 253.5,164.0 253.5,168.1 280.9,140.6 280.9,141.5 280.9,150.8 308.4,90.0 308.4,100.8 308.4,146.1 335.8,160.9 335.8,152.1 335.8,122.7 363.3,139.6 363.3,125.8 363.3,155.9 363.3,188.0 363.3,191.1 363.3,204.5 335.8,181.9 335.8,211.1 335.8,190.9 308.4,181.1 308.4,166.5 308.4,152.1 280.9,170.3 280.9,186.0 280.9,179.7 253.5,197.1 253.5,204.6 253.5,223.6 226.0,179.5 226.0,183.5 226.0,179.4 171.1,189.9 171.1,175.9 171.1,202.3 143.6,206.7 143.6,240.4 143.6,250.0 116.2,222.4 116.2,215.7 116.2,217.0 88.7,195.7 88.7,216.7 88.7,238.7" fill="#1f3a5f" opacity="0.18"/>
<polyline points="88.7,210.4 88.7,196.9 88.7,182.3 116.2,182.6 116.2,199.7 116.2,188.2 143.6,215.8 143.6,209.2 143.6,191.2 171.1,192.1 171.1,153.0 171.1,165.1 226.0,158.5 226.0,164.3 226.0,169.1 253.5,197.2 253.5,184.3 253.5,182.6 280.9,160.2 280.9,163.8 280.9,160.6 308.4,121.0 308.4,133.7 308.4,163.6 335.8,175.9 335.8,181.6 335.8,152.3 363.3,172.0 363.3,158.4 363.3,171.9" fill="none" stroke="#1f3a5f" stroke-width="1.6"/>
<circle cx="88.7" cy="210.4" r="2.6" fill="#1f3a5f"/>
<circle cx="88.7" cy="196.9" r="2.6" fill="#1f3a5f"/>
<circle cx="88.7" cy="182.3" r="2.6" fill="#1f3a5f"/>
<circle cx="116.2" cy="182.6" r="2.6" fill="#1f3a5f"/>
<circle cx="116.2" cy="199.7" r="2.6" fill="#1f3a5f"/>
<circle cx="116.2" cy="188.2" r="2.6" fill="#1f3a5f"/>
<circle cx="143.6" cy="215.8" r="2.6" fill="#1f3a5f"/>
<circle cx="143.6" cy="209.2" r="2.6" fill="#1f3a5f"/>
<circle cx="143.6" cy="191.2" r="2.6" fill="#1f3a5f"/>
<circle cx="171.1" cy="192.1" r="2.6" fill="#1f3a5f"/>
<circle cx="171.1" cy="153.0" r="2.6" fill="#1f3a5f"/>
<circle cx="171.1" cy="165.1" r="2.6" fill="#1f3a5f"/>
<circle cx="226.0" cy="158.5" r="2.6" fill="#1f3a5f"/>
<circle cx="226.0" cy="164.3" r="2.6" fill="#1f3a5f"/>
<circle cx="226.0" cy="169.1" r="2.6" fill="#1f3a5f"/>
<circle cx="253.5" cy="197.2" r="2.6" fill="#1f3a5f"/>
<circle cx="253.5" cy="184.3" r="2.6" fill="#1f3a5f"/>
<circle cx="253.5" cy="182.6" r="2.6" fill="#1f3a5f"/>
<circle cx="280.9" cy="160.2" r="2.6" fill="#1f3a5f"/>
<circle cx="280.9" cy="163.8" r="2.6" fill="#1f3a5f"/>
<circle cx="280.9" cy="160.6" r="2.6" fill="#1f3a5f"/>
<circle cx="308.4" cy="121.0" r="2.6" fill="#1f3a5f"/>
<circle cx="308.4" cy="133.7" r="2.6" fill="#1f3a5f"/>
<circle cx="308.4" cy="163.6" r="2.6" fill="#1f3a5f"/>
<circle cx="335.8" cy="175.9" r="2.6" fill="#1f3a5f"/>
<circle cx="335.8" cy="181.6" r="2.6" fill="#1f3a5f"/>
<circle cx="335.8" cy="152.3" r="2.6" fill="#1f3a5f"/>
<circle cx="363.3" cy="172.0" r="2.6" fill="#1f3a5f"/>
<circle cx="363.3" cy="158.4" r="2.6" fill="#1f3a5f"/>
<circle cx="363.3" cy="171.9" r="2.6" fill="#1f3a5f"/>
<line x1="212.3" y1="90" x2="212.3" y2="250" stroke="#b9461a" stroke-dasharray="3 3"/>
<line x1="75" y1="250" x2="377" y2="250" stroke="#444"/>
<line x1="75" y1="90" x2="75" y2="250" stroke="#444"/>
<line x1="88.7" y1="250" x2="88.7" y2="253" stroke="#444"/>
<text x="88.7" y="265" text-anchor="middle" fill="#444">-5</text>
<line x1="116.2" y1="250" x2="116.2" y2="253" stroke="#444"/>
<text x="116.2" y="265" text-anchor="middle" fill="#444">-4</text>
<line x1="143.6" y1="250" x2="143.6" y2="253" stroke="#444"/>
<text x="143.6" y="265" text-anchor="middle" fill="#444">-3</text>
<line x1="171.1" y1="250" x2="171.1" y2="253" stroke="#444"/>
<text x="171.1" y="265" text-anchor="middle" fill="#444">-2</text>
<line x1="226.0" y1="250" x2="226.0" y2="253" stroke="#444"/>
<text x="226.0" y="265" text-anchor="middle" fill="#444">0</text>
<line x1="253.5" y1="250" x2="253.5" y2="253" stroke="#444"/>
<text x="253.5" y="265" text-anchor="middle" fill="#444">1</text>
<line x1="280.9" y1="250" x2="280.9" y2="253" stroke="#444"/>
<text x="280.9" y="265" text-anchor="middle" fill="#444">2</text>
<line x1="308.4" y1="250" x2="308.4" y2="253" stroke="#444"/>
<text x="308.4" y="265" text-anchor="middle" fill="#444">3</text>
<line x1="335.8" y1="250" x2="335.8" y2="253" stroke="#444"/>
<text x="335.8" y="265" text-anchor="middle" fill="#444">4</text>
<line x1="363.3" y1="250" x2="363.3" y2="253" stroke="#444"/>
<text x="363.3" y="265" text-anchor="middle" fill="#444">5</text>
<line x1="72" y1="250.0" x2="75" y2="250.0" stroke="#444"/>
<text x="69" y="253.0" text-anchor="end" fill="#444">-1.2</text>
<line x1="72" y1="210.0" x2="75" y2="210.0" stroke="#444"/>
<text x="69" y="213.0" text-anchor="end" fill="#444">-0.52</text>
<line x1="72" y1="170.0" x2="75" y2="170.0" stroke="#444"/>
<text x="69" y="173.0" text-anchor="end" fill="#444">0.15</text>
<line x1="72" y1="130.0" x2="75" y2="130.0" stroke="#444"/>
<text x="69" y="133.0" text-anchor="end" fill="#444">0.82</text>
<line x1="72" y1="90.0" x2="75" y2="90.0" stroke="#444"/>
<text x="69" y="93.0" text-anchor="end" fill="#444">1.5</text>
<text x="226.0" y="284" text-anchor="middle" fill="#444">Event time (years from adoption)</text>
<text x="27" y="170.0" text-anchor="middle" fill="#444" transform="rotate(-90 27 170.0)">ATT (per 100k)</text>
<rect x="425" y="40" width="380" height="260" fill="#fafaf7" stroke="#e2e2dc"/>
<text x="615.0" y="58" text-anchor="middle" font-weight="600">Non-firearm suicide rate (per 100k) [substitution test]</text>
<line x1="485" y1="118.20804080645087" x2="787" y2="118.20804080645087" stroke="#aaaaaa" stroke-width="0.7"/>
<polygon points="498.7,158.3 498.7,145.3 498.7,102.0 526.2,126.3 526.2,103.7 526.2,137.2 553.6,134.8 553.6,106.8 553.6,99.5 581.1,126.0 581.1,114.7 581.1,129.1 636.0,100.0 636.0,101.8 636.0,110.8 663.5,124.4 663.5,127.8 663.5,163.4 690.9,138.6 690.9,153.9 690.9,142.4 718.4,115.3 718.4,141.5 718.4,101.4 745.8,103.3 745.8,124.2 745.8,104.1 773.3,115.0 773.3,90.0 773.3,120.0 773.3,170.9 773.3,176.4 773.3,191.6 745.8,195.9 745.8,209.2 745.8,158.4 718.4,155.2 718.4,250.0 718.4,238.9 690.9,176.6 690.9,201.5 690.9,185.1 663.5,190.4 663.5,176.5 663.5,168.4 636.0,147.7 636.0,164.1 636.0,164.2 581.1,174.2 581.1,172.3 581.1,150.3 553.6,147.7 553.6,172.3 553.6,180.1 526.2,172.1 526.2,143.3 526.2,165.3 498.7,148.3 498.7,219.2 498.7,225.0" fill="#1f3a5f" opacity="0.18"/>
<polyline points="498.7,191.7 498.7,182.3 498.7,125.2 526.2,145.8 526.2,123.5 526.2,154.6 553.6,157.5 553.6,139.6 553.6,123.6 581.1,138.1 581.1,143.5 581.1,151.6 636.0,132.1 636.0,133.0 636.0,129.2 663.5,146.4 663.5,152.2 663.5,176.9 690.9,161.8 690.9,177.7 690.9,159.5 718.4,177.1 718.4,195.8 718.4,128.3 745.8,130.8 745.8,166.7 745.8,150.0 773.3,153.3 773.3,133.2 773.3,145.4" fill="none" stroke="#1f3a5f" stroke-width="1.6"/>
<circle cx="498.7" cy="191.7" r="2.6" fill="#1f3a5f"/>
<circle cx="498.7" cy="182.3" r="2.6" fill="#1f3a5f"/>
<circle cx="498.7" cy="125.2" r="2.6" fill="#1f3a5f"/>
<circle cx="526.2" cy="145.8" r="2.6" fill="#1f3a5f"/>
<circle cx="526.2" cy="123.5" r="2.6" fill="#1f3a5f"/>
<circle cx="526.2" cy="154.6" r="2.6" fill="#1f3a5f"/>
<circle cx="553.6" cy="157.5" r="2.6" fill="#1f3a5f"/>
<circle cx="553.6" cy="139.6" r="2.6" fill="#1f3a5f"/>
<circle cx="553.6" cy="123.6" r="2.6" fill="#1f3a5f"/>
<circle cx="581.1" cy="138.1" r="2.6" fill="#1f3a5f"/>
<circle cx="581.1" cy="143.5" r="2.6" fill="#1f3a5f"/>
<circle cx="581.1" cy="151.6" r="2.6" fill="#1f3a5f"/>
<circle cx="636.0" cy="132.1" r="2.6" fill="#1f3a5f"/>
<circle cx="636.0" cy="133.0" r="2.6" fill="#1f3a5f"/>
<circle cx="636.0" cy="129.2" r="2.6" fill="#1f3a5f"/>
<circle cx="663.5" cy="146.4" r="2.6" fill="#1f3a5f"/>
<circle cx="663.5" cy="152.2" r="2.6" fill="#1f3a5f"/>
<circle cx="663.5" cy="176.9" r="2.6" fill="#1f3a5f"/>
<circle cx="690.9" cy="161.8" r="2.6" fill="#1f3a5f"/>
<circle cx="690.9" cy="177.7" r="2.6" fill="#1f3a5f"/>
<circle cx="690.9" cy="159.5" r="2.6" fill="#1f3a5f"/>
<circle cx="718.4" cy="177.1" r="2.6" fill="#1f3a5f"/>
<circle cx="718.4" cy="195.8" r="2.6" fill="#1f3a5f"/>
<circle cx="718.4" cy="128.3" r="2.6" fill="#1f3a5f"/>
<circle cx="745.8" cy="130.8" r="2.6" fill="#1f3a5f"/>
<circle cx="745.8" cy="166.7" r="2.6" fill="#1f3a5f"/>
<circle cx="745.8" cy="150.0" r="2.6" fill="#1f3a5f"/>
<circle cx="773.3" cy="153.3" r="2.6" fill="#1f3a5f"/>
<circle cx="773.3" cy="133.2" r="2.6" fill="#1f3a5f"/>
<circle cx="773.3" cy="145.4" r="2.6" fill="#1f3a5f"/>
<line x1="622.3" y1="90" x2="622.3" y2="250" stroke="#b9461a" stroke-dasharray="3 3"/>
<line x1="485" y1="250" x2="787" y2="250" stroke="#444"/>
<line x1="485" y1="90" x2="485" y2="250" stroke="#444"/>
<line x1="498.7" y1="250" x2="498.7" y2="253" stroke="#444"/>
<text x="498.7" y="265" text-anchor="middle" fill="#444">-5</text>
<line x1="526.2" y1="250" x2="526.2" y2="253" stroke="#444"/>
<text x="526.2" y="265" text-anchor="middle" fill="#444">-4</text>
<line x1="553.6" y1="250" x2="553.6" y2="253" stroke="#444"/>
<text x="553.6" y="265" text-anchor="middle" fill="#444">-3</text>
<line x1="581.1" y1="250" x2="581.1" y2="253" stroke="#444"/>
<text x="581.1" y="265" text-anchor="middle" fill="#444">-2</text>
<line x1="636.0" y1="250" x2="636.0" y2="253" stroke="#444"/>
<text x="636.0" y="265" text-anchor="middle" fill="#444">0</text>
<line x1="663.5" y1="250" x2="663.5" y2="253" stroke="#444"/>
<text x="663.5" y="265" text-anchor="middle" fill="#444">1</text>
<line x1="690.9" y1="250" x2="690.9" y2="253" stroke="#444"/>
<text x="690.9" y="265" text-anchor="middle" fill="#444">2</text>
<line x1="718.4" y1="250" x2="718.4" y2="253" stroke="#444"/>
<text x="718.4" y="265" text-anchor="middle" fill="#444">3</text>
<line x1="745.8" y1="250" x2="745.8" y2="253" stroke="#444"/>
<text x="745.8" y="265" text-anchor="middle" fill="#444">4</text>
<line x1="773.3" y1="250" x2="773.3" y2="253" stroke="#444"/>
<text x="773.3" y="265" text-anchor="middle" fill="#444">5</text>
<line x1="482" y1="250.0" x2="485" y2="250.0" stroke="#444"/>
<text x="479" y="253.0" text-anchor="end" fill="#444">-1.4</text>
<line x1="482" y1="210.0" x2="485" y2="210.0" stroke="#444"/>
<text x="479" y="213.0" text-anchor="end" fill="#444">-1</text>
<line x1="482" y1="170.0" x2="485" y2="170.0" stroke="#444"/>
<text x="479" y="173.0" text-anchor="end" fill="#444">-0.57</text>
<line x1="482" y1="130.0" x2="485" y2="130.0" stroke="#444"/>
<text x="479" y="133.0" text-anchor="end" fill="#444">-0.13</text>
<line x1="482" y1="90.0" x2="485" y2="90.0" stroke="#444"/>
<text x="479" y="93.0" text-anchor="end" fill="#444">0.31</text>
<text x="636.0" y="284" text-anchor="middle" fill="#444">Event time (years from adoption)</text>
<text x="437" y="170.0" text-anchor="middle" fill="#444" transform="rotate(-90 437 170.0)">ATT (per 100k)</text>
<rect x="15" y="330" width="380" height="260" fill="#fafaf7" stroke="#e2e2dc"/>
<text x="205.0" y="348" text-anchor="middle" font-weight="600">Total suicide rate (per 100k) [net effect]</text>
<line x1="75" y1="429.94805569183654" x2="377" y2="429.94805569183654" stroke="#aaaaaa" stroke-width="0.7"/>
<polygon points="88.7,477.7 88.7,464.5 88.7,419.9 116.2,422.5 116.2,437.2 116.2,432.1 143.6,448.5 143.6,429.7 143.6,424.6 171.1,445.9 171.1,393.0 171.1,407.5 226.0,388.9 226.0,395.6 226.0,413.3 253.5,434.1 253.5,430.8 253.5,455.3 280.9,416.7 280.9,427.6 280.9,422.1 308.4,380.7 308.4,408.6 308.4,398.5 335.8,412.0 335.8,428.5 335.8,383.7 363.3,405.8 363.3,380.0 363.3,422.1 363.3,458.7 363.3,458.2 363.3,485.6 335.8,464.2 335.8,499.4 335.8,457.8 308.4,443.4 308.4,461.9 308.4,440.3 280.9,454.6 280.9,479.1 280.9,462.1 253.5,487.8 253.5,483.5 253.5,498.3 226.0,440.9 226.0,453.8 226.0,447.8 171.1,467.9 171.1,447.6 171.1,465.5 143.6,466.2 143.6,517.6 143.6,535.4 116.2,493.2 116.2,470.3 116.2,480.2 88.7,455.2 88.7,514.0 88.7,540.0" fill="#1f3a5f" opacity="0.18"/>
<polyline points="88.7,508.9 88.7,489.3 88.7,437.5 116.2,451.3 116.2,453.8 116.2,462.6 143.6,491.9 143.6,473.6 143.6,445.4 171.1,455.7 171.1,420.3 171.1,437.7 226.0,418.3 226.0,424.7 226.0,427.1 253.5,466.2 253.5,457.1 253.5,471.6 280.9,439.4 280.9,453.4 280.9,438.3 308.4,410.5 308.4,435.2 308.4,421.0 335.8,434.9 335.8,464.0 335.8,423.9 363.3,445.7 363.3,419.1 363.3,440.4" fill="none" stroke="#1f3a5f" stroke-width="1.6"/>
<circle cx="88.7" cy="508.9" r="2.6" fill="#1f3a5f"/>
<circle cx="88.7" cy="489.3" r="2.6" fill="#1f3a5f"/>
<circle cx="88.7" cy="437.5" r="2.6" fill="#1f3a5f"/>
<circle cx="116.2" cy="451.3" r="2.6" fill="#1f3a5f"/>
<circle cx="116.2" cy="453.8" r="2.6" fill="#1f3a5f"/>
<circle cx="116.2" cy="462.6" r="2.6" fill="#1f3a5f"/>
<circle cx="143.6" cy="491.9" r="2.6" fill="#1f3a5f"/>
<circle cx="143.6" cy="473.6" r="2.6" fill="#1f3a5f"/>
<circle cx="143.6" cy="445.4" r="2.6" fill="#1f3a5f"/>
<circle cx="171.1" cy="455.7" r="2.6" fill="#1f3a5f"/>
<circle cx="171.1" cy="420.3" r="2.6" fill="#1f3a5f"/>
<circle cx="171.1" cy="437.7" r="2.6" fill="#1f3a5f"/>
<circle cx="226.0" cy="418.3" r="2.6" fill="#1f3a5f"/>
<circle cx="226.0" cy="424.7" r="2.6" fill="#1f3a5f"/>
<circle cx="226.0" cy="427.1" r="2.6" fill="#1f3a5f"/>
<circle cx="253.5" cy="466.2" r="2.6" fill="#1f3a5f"/>
<circle cx="253.5" cy="457.1" r="2.6" fill="#1f3a5f"/>
<circle cx="253.5" cy="471.6" r="2.6" fill="#1f3a5f"/>
<circle cx="280.9" cy="439.4" r="2.6" fill="#1f3a5f"/>
<circle cx="280.9" cy="453.4" r="2.6" fill="#1f3a5f"/>
<circle cx="280.9" cy="438.3" r="2.6" fill="#1f3a5f"/>
<circle cx="308.4" cy="410.5" r="2.6" fill="#1f3a5f"/>
<circle cx="308.4" cy="435.2" r="2.6" fill="#1f3a5f"/>
<circle cx="308.4" cy="421.0" r="2.6" fill="#1f3a5f"/>
<circle cx="335.8" cy="434.9" r="2.6" fill="#1f3a5f"/>
<circle cx="335.8" cy="464.0" r="2.6" fill="#1f3a5f"/>
<circle cx="335.8" cy="423.9" r="2.6" fill="#1f3a5f"/>
<circle cx="363.3" cy="445.7" r="2.6" fill="#1f3a5f"/>
<circle cx="363.3" cy="419.1" r="2.6" fill="#1f3a5f"/>
<circle cx="363.3" cy="440.4" r="2.6" fill="#1f3a5f"/>
<line x1="212.3" y1="380" x2="212.3" y2="540" stroke="#b9461a" stroke-dasharray="3 3"/>
<line x1="75" y1="540" x2="377" y2="540" stroke="#444"/>
<line x1="75" y1="380" x2="75" y2="540" stroke="#444"/>
<line x1="88.7" y1="540" x2="88.7" y2="543" stroke="#444"/>
<text x="88.7" y="555" text-anchor="middle" fill="#444">-5</text>
<line x1="116.2" y1="540" x2="116.2" y2="543" stroke="#444"/>
<text x="116.2" y="555" text-anchor="middle" fill="#444">-4</text>
<line x1="143.6" y1="540" x2="143.6" y2="543" stroke="#444"/>
<text x="143.6" y="555" text-anchor="middle" fill="#444">-3</text>
<line x1="171.1" y1="540" x2="171.1" y2="543" stroke="#444"/>
<text x="171.1" y="555" text-anchor="middle" fill="#444">-2</text>
<line x1="226.0" y1="540" x2="226.0" y2="543" stroke="#444"/>
<text x="226.0" y="555" text-anchor="middle" fill="#444">0</text>
<line x1="253.5" y1="540" x2="253.5" y2="543" stroke="#444"/>
<text x="253.5" y="555" text-anchor="middle" fill="#444">1</text>
<line x1="280.9" y1="540" x2="280.9" y2="543" stroke="#444"/>
<text x="280.9" y="555" text-anchor="middle" fill="#444">2</text>
<line x1="308.4" y1="540" x2="308.4" y2="543" stroke="#444"/>
<text x="308.4" y="555" text-anchor="middle" fill="#444">3</text>
<line x1="335.8" y1="540" x2="335.8" y2="543" stroke="#444"/>
<text x="335.8" y="555" text-anchor="middle" fill="#444">4</text>
<line x1="363.3" y1="540" x2="363.3" y2="543" stroke="#444"/>
<text x="363.3" y="555" text-anchor="middle" fill="#444">5</text>
<line x1="72" y1="540.0" x2="75" y2="540.0" stroke="#444"/>
<text x="69" y="543.0" text-anchor="end" fill="#444">-1.9</text>
<line x1="72" y1="500.0" x2="75" y2="500.0" stroke="#444"/>
<text x="69" y="503.0" text-anchor="end" fill="#444">-1.2</text>
<line x1="72" y1="460.0" x2="75" y2="460.0" stroke="#444"/>
<text x="69" y="463.0" text-anchor="end" fill="#444">-0.51</text>
<line x1="72" y1="420.0" x2="75" y2="420.0" stroke="#444"/>
<text x="69" y="423.0" text-anchor="end" fill="#444">0.17</text>
<line x1="72" y1="380.0" x2="75" y2="380.0" stroke="#444"/>
<text x="69" y="383.0" text-anchor="end" fill="#444">0.84</text>
<text x="226.0" y="574" text-anchor="middle" fill="#444">Event time (years from adoption)</text>
<text x="27" y="460.0" text-anchor="middle" fill="#444" transform="rotate(-90 27 460.0)">ATT (per 100k)</text>
<rect x="425" y="330" width="380" height="260" fill="#fafaf7" stroke="#e2e2dc"/>
<text x="615.0" y="348" text-anchor="middle" font-weight="600">Firearm homicide rate (per 100k)</text>
<line x1="485" y1="437.0226537604712" x2="787" y2="437.0226537604712" stroke="#aaaaaa" stroke-width="0.7"/>
<polygon points="498.7,399.9 498.7,443.1 498.7,402.5 526.2,441.2 526.2,407.5 526.2,411.9 553.6,418.1 553.6,429.7 553.6,402.9 581.1,400.6 581.1,434.6 581.1,416.3 636.0,434.4 636.0,404.5 636.0,403.1 663.5,385.0 663.5,417.0 663.5,405.0 690.9,464.8 690.9,389.9 690.9,420.1 718.4,412.1 718.4,408.4 718.4,411.3 745.8,417.1 745.8,415.4 745.8,460.6 773.3,401.3 773.3,441.3 773.3,380.0 773.3,440.6 773.3,505.4 773.3,446.8 745.8,524.4 745.8,449.1 745.8,467.3 718.4,451.2 718.4,439.5 718.4,500.0 690.9,467.1 690.9,433.3 690.9,540.0 663.5,433.8 663.5,454.2 663.5,417.0 636.0,431.7 636.0,435.9 636.0,473.7 581.1,443.4 581.1,472.6 581.1,425.6 553.6,442.9 553.6,490.2 553.6,449.4 526.2,446.5 526.2,452.0 526.2,510.8 498.7,455.5 498.7,523.2 498.7,443.8" fill="#1f3a5f" opacity="0.18"/>
<polyline points="498.7,421.8 498.7,483.2 498.7,429.0 526.2,476.0 526.2,429.8 526.2,429.2 553.6,433.7 553.6,460.0 553.6,422.9 581.1,413.1 581.1,453.6 581.1,429.8 636.0,454.0 636.0,420.2 636.0,417.4 663.5,401.0 663.5,435.6 663.5,419.4 690.9,502.4 690.9,411.6 690.9,443.6 718.4,456.1 718.4,423.9 718.4,431.2 745.8,442.2 745.8,432.3 745.8,492.5 773.3,424.1 773.3,473.3 773.3,410.3" fill="none" stroke="#1f3a5f" stroke-width="1.6"/>
<circle cx="498.7" cy="421.8" r="2.6" fill="#1f3a5f"/>
<circle cx="498.7" cy="483.2" r="2.6" fill="#1f3a5f"/>
<circle cx="498.7" cy="429.0" r="2.6" fill="#1f3a5f"/>
<circle cx="526.2" cy="476.0" r="2.6" fill="#1f3a5f"/>
<circle cx="526.2" cy="429.8" r="2.6" fill="#1f3a5f"/>
<circle cx="526.2" cy="429.2" r="2.6" fill="#1f3a5f"/>
<circle cx="553.6" cy="433.7" r="2.6" fill="#1f3a5f"/>
<circle cx="553.6" cy="460.0" r="2.6" fill="#1f3a5f"/>
<circle cx="553.6" cy="422.9" r="2.6" fill="#1f3a5f"/>
<circle cx="581.1" cy="413.1" r="2.6" fill="#1f3a5f"/>
<circle cx="581.1" cy="453.6" r="2.6" fill="#1f3a5f"/>
<circle cx="581.1" cy="429.8" r="2.6" fill="#1f3a5f"/>
<circle cx="636.0" cy="454.0" r="2.6" fill="#1f3a5f"/>
<circle cx="636.0" cy="420.2" r="2.6" fill="#1f3a5f"/>
<circle cx="636.0" cy="417.4" r="2.6" fill="#1f3a5f"/>
<circle cx="663.5" cy="401.0" r="2.6" fill="#1f3a5f"/>
<circle cx="663.5" cy="435.6" r="2.6" fill="#1f3a5f"/>
<circle cx="663.5" cy="419.4" r="2.6" fill="#1f3a5f"/>
<circle cx="690.9" cy="502.4" r="2.6" fill="#1f3a5f"/>
<circle cx="690.9" cy="411.6" r="2.6" fill="#1f3a5f"/>
<circle cx="690.9" cy="443.6" r="2.6" fill="#1f3a5f"/>
<circle cx="718.4" cy="456.1" r="2.6" fill="#1f3a5f"/>
<circle cx="718.4" cy="423.9" r="2.6" fill="#1f3a5f"/>
<circle cx="718.4" cy="431.2" r="2.6" fill="#1f3a5f"/>
<circle cx="745.8" cy="442.2" r="2.6" fill="#1f3a5f"/>
<circle cx="745.8" cy="432.3" r="2.6" fill="#1f3a5f"/>
<circle cx="745.8" cy="492.5" r="2.6" fill="#1f3a5f"/>
<circle cx="773.3" cy="424.1" r="2.6" fill="#1f3a5f"/>
<circle cx="773.3" cy="473.3" r="2.6" fill="#1f3a5f"/>
<circle cx="773.3" cy="410.3" r="2.6" fill="#1f3a5f"/>
<line x1="622.3" y1="380" x2="622.3" y2="540" stroke="#b9461a" stroke-dasharray="3 3"/>
<line x1="485" y1="540" x2="787" y2="540" stroke="#444"/>
<line x1="485" y1="380" x2="485" y2="540" stroke="#444"/>
<line x1="498.7" y1="540" x2="498.7" y2="543" stroke="#444"/>
<text x="498.7" y="555" text-anchor="middle" fill="#444">-5</text>
<line x1="526.2" y1="540" x2="526.2" y2="543" stroke="#444"/>
<text x="526.2" y="555" text-anchor="middle" fill="#444">-4</text>
<line x1="553.6" y1="540" x2="553.6" y2="543" stroke="#444"/>
<text x="553.6" y="555" text-anchor="middle" fill="#444">-3</text>
<line x1="581.1" y1="540" x2="581.1" y2="543" stroke="#444"/>
<text x="581.1" y="555" text-anchor="middle" fill="#444">-2</text>
<line x1="636.0" y1="540" x2="636.0" y2="543" stroke="#444"/>
<text x="636.0" y="555" text-anchor="middle" fill="#444">0</text>
<line x1="663.5" y1="540" x2="663.5" y2="543" stroke="#444"/>
<text x="663.5" y="555" text-anchor="middle" fill="#444">1</text>
<line x1="690.9" y1="540" x2="690.9" y2="543" stroke="#444"/>
<text x="690.9" y="555" text-anchor="middle" fill="#444">2</text>
<line x1="718.4" y1="540" x2="718.4" y2="543" stroke="#444"/>
<text x="718.4" y="555" text-anchor="middle" fill="#444">3</text>
<line x1="745.8" y1="540" x2="745.8" y2="543" stroke="#444"/>
<text x="745.8" y="555" text-anchor="middle" fill="#444">4</text>
<line x1="773.3" y1="540" x2="773.3" y2="543" stroke="#444"/>
<text x="773.3" y="555" text-anchor="middle" fill="#444">5</text>
<line x1="482" y1="540.0" x2="485" y2="540.0" stroke="#444"/>
<text x="479" y="543.0" text-anchor="end" fill="#444">-1.4</text>
<line x1="482" y1="500.0" x2="485" y2="500.0" stroke="#444"/>
<text x="479" y="503.0" text-anchor="end" fill="#444">-0.84</text>
<line x1="482" y1="460.0" x2="485" y2="460.0" stroke="#444"/>
<text x="479" y="463.0" text-anchor="end" fill="#444">-0.31</text>
<line x1="482" y1="420.0" x2="485" y2="420.0" stroke="#444"/>
<text x="479" y="423.0" text-anchor="end" fill="#444">0.23</text>
<line x1="482" y1="380.0" x2="485" y2="380.0" stroke="#444"/>
<text x="479" y="383.0" text-anchor="end" fill="#444">0.76</text>
<text x="636.0" y="574" text-anchor="middle" fill="#444">Event time (years from adoption)</text>
<text x="437" y="460.0" text-anchor="middle" fill="#444" transform="rotate(-90 437 460.0)">ATT (per 100k)</text>
<rect x="15" y="620" width="380" height="260" fill="#fafaf7" stroke="#e2e2dc"/>
<text x="205.0" y="638" text-anchor="middle" font-weight="600">Total homicide rate (per 100k)</text>
<line x1="75" y1="729.9023312676384" x2="377" y2="729.9023312676384" stroke="#aaaaaa" stroke-width="0.7"/>
<polygon points="88.7,678.9 88.7,741.8 88.7,674.7 116.2,710.7 116.2,687.8 116.2,696.9 143.6,691.1 143.6,728.9 143.6,670.0 171.1,677.6 171.1,715.9 171.1,699.2 226.0,727.6 226.0,691.4 226.0,696.8 253.5,670.1 253.5,696.3 253.5,701.7 280.9,766.4 280.9,685.9 280.9,721.9 308.4,715.8 308.4,692.4 308.4,715.6 335.8,724.4 335.8,720.2 335.8,777.1 363.3,696.3 363.3,743.8 363.3,702.5 363.3,763.7 363.3,819.9 363.3,740.9 335.8,830.0 335.8,757.3 335.8,774.3 308.4,747.9 308.4,735.0 308.4,770.5 280.9,759.2 280.9,732.6 280.9,823.4 253.5,736.7 253.5,742.6 253.5,724.8 226.0,722.3 226.0,726.9 226.0,767.0 171.1,737.4 171.1,751.7 171.1,712.6 143.6,715.4 143.6,777.3 143.6,740.5 116.2,748.0 116.2,735.0 116.2,778.0 88.7,730.8 88.7,813.8 88.7,731.1" fill="#1f3a5f" opacity="0.18"/>
<polyline points="88.7,705.0 88.7,777.8 88.7,702.8 116.2,744.3 116.2,711.4 116.2,722.4 143.6,715.8 143.6,753.1 143.6,692.7 171.1,695.1 171.1,733.8 171.1,718.3 226.0,747.3 226.0,709.2 226.0,709.5 253.5,697.5 253.5,719.5 253.5,719.2 280.9,794.9 280.9,709.3 280.9,740.5 308.4,743.2 308.4,713.7 308.4,731.7 335.8,749.4 335.8,738.7 335.8,803.5 363.3,718.6 363.3,781.8 363.3,733.1" fill="none" stroke="#1f3a5f" stroke-width="1.6"/>
<circle cx="88.7" cy="705.0" r="2.6" fill="#1f3a5f"/>
<circle cx="88.7" cy="777.8" r="2.6" fill="#1f3a5f"/>
<circle cx="88.7" cy="702.8" r="2.6" fill="#1f3a5f"/>
<circle cx="116.2" cy="744.3" r="2.6" fill="#1f3a5f"/>
<circle cx="116.2" cy="711.4" r="2.6" fill="#1f3a5f"/>
<circle cx="116.2" cy="722.4" r="2.6" fill="#1f3a5f"/>
<circle cx="143.6" cy="715.8" r="2.6" fill="#1f3a5f"/>
<circle cx="143.6" cy="753.1" r="2.6" fill="#1f3a5f"/>
<circle cx="143.6" cy="692.7" r="2.6" fill="#1f3a5f"/>
<circle cx="171.1" cy="695.1" r="2.6" fill="#1f3a5f"/>
<circle cx="171.1" cy="733.8" r="2.6" fill="#1f3a5f"/>
<circle cx="171.1" cy="718.3" r="2.6" fill="#1f3a5f"/>
<circle cx="226.0" cy="747.3" r="2.6" fill="#1f3a5f"/>
<circle cx="226.0" cy="709.2" r="2.6" fill="#1f3a5f"/>
<circle cx="226.0" cy="709.5" r="2.6" fill="#1f3a5f"/>
<circle cx="253.5" cy="697.5" r="2.6" fill="#1f3a5f"/>
<circle cx="253.5" cy="719.5" r="2.6" fill="#1f3a5f"/>
<circle cx="253.5" cy="719.2" r="2.6" fill="#1f3a5f"/>
<circle cx="280.9" cy="794.9" r="2.6" fill="#1f3a5f"/>
<circle cx="280.9" cy="709.3" r="2.6" fill="#1f3a5f"/>
<circle cx="280.9" cy="740.5" r="2.6" fill="#1f3a5f"/>
<circle cx="308.4" cy="743.2" r="2.6" fill="#1f3a5f"/>
<circle cx="308.4" cy="713.7" r="2.6" fill="#1f3a5f"/>
<circle cx="308.4" cy="731.7" r="2.6" fill="#1f3a5f"/>
<circle cx="335.8" cy="749.4" r="2.6" fill="#1f3a5f"/>
<circle cx="335.8" cy="738.7" r="2.6" fill="#1f3a5f"/>
<circle cx="335.8" cy="803.5" r="2.6" fill="#1f3a5f"/>
<circle cx="363.3" cy="718.6" r="2.6" fill="#1f3a5f"/>
<circle cx="363.3" cy="781.8" r="2.6" fill="#1f3a5f"/>
<circle cx="363.3" cy="733.1" r="2.6" fill="#1f3a5f"/>
<line x1="212.3" y1="670" x2="212.3" y2="830" stroke="#b9461a" stroke-dasharray="3 3"/>
<line x1="75" y1="830" x2="377" y2="830" stroke="#444"/>
<line x1="75" y1="670" x2="75" y2="830" stroke="#444"/>
<line x1="88.7" y1="830" x2="88.7" y2="833" stroke="#444"/>
<text x="88.7" y="845" text-anchor="middle" fill="#444">-5</text>
<line x1="116.2" y1="830" x2="116.2" y2="833" stroke="#444"/>
<text x="116.2" y="845" text-anchor="middle" fill="#444">-4</text>
<line x1="143.6" y1="830" x2="143.6" y2="833" stroke="#444"/>
<text x="143.6" y="845" text-anchor="middle" fill="#444">-3</text>
<line x1="171.1" y1="830" x2="171.1" y2="833" stroke="#444"/>
<text x="171.1" y="845" text-anchor="middle" fill="#444">-2</text>
<line x1="226.0" y1="830" x2="226.0" y2="833" stroke="#444"/>
<text x="226.0" y="845" text-anchor="middle" fill="#444">0</text>
<line x1="253.5" y1="830" x2="253.5" y2="833" stroke="#444"/>
<text x="253.5" y="845" text-anchor="middle" fill="#444">1</text>
<line x1="280.9" y1="830" x2="280.9" y2="833" stroke="#444"/>
<text x="280.9" y="845" text-anchor="middle" fill="#444">2</text>
<line x1="308.4" y1="830" x2="308.4" y2="833" stroke="#444"/>
<text x="308.4" y="845" text-anchor="middle" fill="#444">3</text>
<line x1="335.8" y1="830" x2="335.8" y2="833" stroke="#444"/>
<text x="335.8" y="845" text-anchor="middle" fill="#444">4</text>
<line x1="363.3" y1="830" x2="363.3" y2="833" stroke="#444"/>
<text x="363.3" y="845" text-anchor="middle" fill="#444">5</text>
<line x1="72" y1="830.0" x2="75" y2="830.0" stroke="#444"/>
<text x="69" y="833.0" text-anchor="end" fill="#444">-1.5</text>
<line x1="72" y1="790.0" x2="75" y2="790.0" stroke="#444"/>
<text x="69" y="793.0" text-anchor="end" fill="#444">-0.88</text>
<line x1="72" y1="750.0" x2="75" y2="750.0" stroke="#444"/>
<text x="69" y="753.0" text-anchor="end" fill="#444">-0.3</text>
<line x1="72" y1="710.0" x2="75" y2="710.0" stroke="#444"/>
<text x="69" y="713.0" text-anchor="end" fill="#444">0.29</text>
<line x1="72" y1="670.0" x2="75" y2="670.0" stroke="#444"/>
<text x="69" y="673.0" text-anchor="end" fill="#444">0.88</text>
<text x="226.0" y="864" text-anchor="middle" fill="#444">Event time (years from adoption)</text>
<text x="27" y="750.0" text-anchor="middle" fill="#444" transform="rotate(-90 27 750.0)">ATT (per 100k)</text>
<rect x="425" y="620" width="380" height="260" fill="#fafaf7" stroke="#e2e2dc"/>
<text x="615.0" y="638" text-anchor="middle" font-weight="600">Motor vehicle theft rate (per 100k) [placebo]</text>
<line x1="485" y1="723.6803040880003" x2="787" y2="723.6803040880003" stroke="#aaaaaa" stroke-width="0.7"/>
<polygon points="498.7,693.6 498.7,685.3 498.7,670.0 526.2,704.0 526.2,674.0 526.2,698.0 553.6,692.3 553.6,708.8 553.6,687.0 581.1,702.2 581.1,704.8 581.1,695.8 636.0,702.0 636.0,713.0 636.0,709.9 663.5,703.1 663.5,709.1 663.5,718.7 690.9,712.2 690.9,701.2 690.9,711.1 718.4,727.2 718.4,705.4 718.4,687.5 745.8,690.7 745.8,716.2 745.8,737.2 773.3,725.4 773.3,733.8 773.3,690.7 773.3,749.5 773.3,807.8 773.3,830.0 745.8,798.6 745.8,810.6 745.8,743.2 718.4,737.1 718.4,796.2 718.4,779.0 690.9,751.1 690.9,772.7 690.9,756.9 663.5,746.1 663.5,738.3 663.5,749.3 636.0,735.8 636.0,742.3 636.0,731.5 581.1,727.2 581.1,722.3 581.1,718.0 553.6,713.6 553.6,735.6 553.6,739.5 526.2,746.6 526.2,705.2 526.2,742.5 498.7,706.4 498.7,733.7 498.7,748.5" fill="#1f3a5f" opacity="0.18"/>
<polyline points="498.7,721.1 498.7,709.5 498.7,688.2 526.2,723.3 526.2,689.6 526.2,722.3 553.6,715.9 553.6,722.2 553.6,700.3 581.1,710.1 581.1,713.6 581.1,711.5 636.0,716.8 636.0,727.6 636.0,722.9 663.5,726.2 663.5,723.7 663.5,732.4 690.9,734.5 690.9,736.9 690.9,731.1 718.4,753.1 718.4,750.8 718.4,712.3 745.8,716.9 745.8,763.4 745.8,767.9 773.3,777.7 773.3,770.8 773.3,720.1" fill="none" stroke="#1f3a5f" stroke-width="1.6"/>
<circle cx="498.7" cy="721.1" r="2.6" fill="#1f3a5f"/>
<circle cx="498.7" cy="709.5" r="2.6" fill="#1f3a5f"/>
<circle cx="498.7" cy="688.2" r="2.6" fill="#1f3a5f"/>
<circle cx="526.2" cy="723.3" r="2.6" fill="#1f3a5f"/>
<circle cx="526.2" cy="689.6" r="2.6" fill="#1f3a5f"/>
<circle cx="526.2" cy="722.3" r="2.6" fill="#1f3a5f"/>
<circle cx="553.6" cy="715.9" r="2.6" fill="#1f3a5f"/>
<circle cx="553.6" cy="722.2" r="2.6" fill="#1f3a5f"/>
<circle cx="553.6" cy="700.3" r="2.6" fill="#1f3a5f"/>
<circle cx="581.1" cy="710.1" r="2.6" fill="#1f3a5f"/>
<circle cx="581.1" cy="713.6" r="2.6" fill="#1f3a5f"/>
<circle cx="581.1" cy="711.5" r="2.6" fill="#1f3a5f"/>
<circle cx="636.0" cy="716.8" r="2.6" fill="#1f3a5f"/>
<circle cx="636.0" cy="727.6" r="2.6" fill="#1f3a5f"/>
<circle cx="636.0" cy="722.9" r="2.6" fill="#1f3a5f"/>
<circle cx="663.5" cy="726.2" r="2.6" fill="#1f3a5f"/>
<circle cx="663.5" cy="723.7" r="2.6" fill="#1f3a5f"/>
<circle cx="663.5" cy="732.4" r="2.6" fill="#1f3a5f"/>
<circle cx="690.9" cy="734.5" r="2.6" fill="#1f3a5f"/>
<circle cx="690.9" cy="736.9" r="2.6" fill="#1f3a5f"/>
<circle cx="690.9" cy="731.1" r="2.6" fill="#1f3a5f"/>
<circle cx="718.4" cy="753.1" r="2.6" fill="#1f3a5f"/>
<circle cx="718.4" cy="750.8" r="2.6" fill="#1f3a5f"/>
<circle cx="718.4" cy="712.3" r="2.6" fill="#1f3a5f"/>
<circle cx="745.8" cy="716.9" r="2.6" fill="#1f3a5f"/>
<circle cx="745.8" cy="763.4" r="2.6" fill="#1f3a5f"/>
<circle cx="745.8" cy="767.9" r="2.6" fill="#1f3a5f"/>
<circle cx="773.3" cy="777.7" r="2.6" fill="#1f3a5f"/>
<circle cx="773.3" cy="770.8" r="2.6" fill="#1f3a5f"/>
<circle cx="773.3" cy="720.1" r="2.6" fill="#1f3a5f"/>
<line x1="622.3" y1="670" x2="622.3" y2="830" stroke="#b9461a" stroke-dasharray="3 3"/>
<line x1="485" y1="830" x2="787" y2="830" stroke="#444"/>
<line x1="485" y1="670" x2="485" y2="830" stroke="#444"/>
<line x1="498.7" y1="830" x2="498.7" y2="833" stroke="#444"/>
<text x="498.7" y="845" text-anchor="middle" fill="#444">-5</text>
<line x1="526.2" y1="830" x2="526.2" y2="833" stroke="#444"/>
<text x="526.2" y="845" text-anchor="middle" fill="#444">-4</text>
<line x1="553.6" y1="830" x2="553.6" y2="833" stroke="#444"/>
<text x="553.6" y="845" text-anchor="middle" fill="#444">-3</text>
<line x1="581.1" y1="830" x2="581.1" y2="833" stroke="#444"/>
<text x="581.1" y="845" text-anchor="middle" fill="#444">-2</text>
<line x1="636.0" y1="830" x2="636.0" y2="833" stroke="#444"/>
<text x="636.0" y="845" text-anchor="middle" fill="#444">0</text>
<line x1="663.5" y1="830" x2="663.5" y2="833" stroke="#444"/>
<text x="663.5" y="845" text-anchor="middle" fill="#444">1</text>
<line x1="690.9" y1="830" x2="690.9" y2="833" stroke="#444"/>
<text x="690.9" y="845" text-anchor="middle" fill="#444">2</text>
<line x1="718.4" y1="830" x2="718.4" y2="833" stroke="#444"/>
<text x="718.4" y="845" text-anchor="middle" fill="#444">3</text>
<line x1="745.8" y1="830" x2="745.8" y2="833" stroke="#444"/>
<text x="745.8" y="845" text-anchor="middle" fill="#444">4</text>
<line x1="773.3" y1="830" x2="773.3" y2="833" stroke="#444"/>
<text x="773.3" y="845" text-anchor="middle" fill="#444">5</text>
<line x1="482" y1="830.0" x2="485" y2="830.0" stroke="#444"/>
<text x="479" y="833.0" text-anchor="end" fill="#444">-1.6e+02</text>
<line x1="482" y1="790.0" x2="485" y2="790.0" stroke="#444"/>
<text x="479" y="793.0" text-anchor="end" fill="#444">-99</text>
<line x1="482" y1="750.0" x2="485" y2="750.0" stroke="#444"/>
<text x="479" y="753.0" text-anchor="end" fill="#444">-39</text>
<line x1="482" y1="710.0" x2="485" y2="710.0" stroke="#444"/>
<text x="479" y="713.0" text-anchor="end" fill="#444">20</text>
<line x1="482" y1="670.0" x2="485" y2="670.0" stroke="#444"/>
<text x="479" y="673.0" text-anchor="end" fill="#444">80</text>
<text x="636.0" y="864" text-anchor="middle" fill="#444">Event time (years from adoption)</text>
<text x="437" y="750.0" text-anchor="middle" fill="#444" transform="rotate(-90 437 750.0)">ATT (per 100k)</text>
<text x="805" y="608" text-anchor="end" fill="#888" font-size="10">Shaded band: pointwise 95% CI from cluster bootstrap. Vertical dashed line marks the year before adoption.</text>
</svg>