<svg xmlns="http://www.w3.org/2000/svg" viewBox="0 0 820 620" font-family="-apple-system, Segoe UI, Helvetica, Arial, sans-serif" font-size="11">
<text x="410.0" y="22" text-anchor="middle" font-size="14" font-weight="600">Callaway-Sant'Anna ATT by event time (OR) -- stand-your-ground (nosyg)</text>
<rect x="15" y="40" width="380" height="260" fill="#fafaf7" stroke="#e2e2dc"/>
<text x="205.0" y="58" text-anchor="middle" font-weight="600">Firearm suicide rate (per 100k)</text>
<line x1="75" y1="171.43450693878873" x2="377" y2="171.43450693878873" stroke="#aaaaaa" stroke-width="0.7"/>
<polygon points="88.7,182.7 116.2,172.8 143.6,161.0 171.1,180.8 226.0,128.1 253.5,123.2 280.9,104.7 308.4,90.0 335.8,136.2 363.3,100.5 363.3,182.3 335.8,196.6 308.4,187.0 280.9,164.2 253.5,208.7 226.0,179.1 171.1,227.7 143.6,211.0 116.2,234.3 88.7,250.0" fill="#1f3a5f" opacity="0.18"/>
<polyline points="88.7,216.4 116.2,203.5 143.6,186.0 171.1,204.2 226.0,153.6 253.5,166.0 280.9,134.5 308.4,138.5 335.8,166.4 363.3,141.4" fill="none" stroke="#1f3a5f" stroke-width="1.6"/>
<circle cx="88.7" cy="216.4" r="2.6" fill="#1f3a5f"/>
<circle cx="116.2" cy="203.5" r="2.6" fill="#1f3a5f"/>
<circle cx="143.6" cy="186.0" r="2.6" fill="#1f3a5f"/>
<circle cx="171.1" cy="204.2" r="2.6" fill="#1f3a5f"/>
<circle cx="226.0" cy="153.6" r="2.6" fill="#1f3a5f"/>
<circle cx="253.5" cy="166.0" r="2.6" fill="#1f3a5f"/>
<circle cx="280.9" cy="134.5" r="2.6" fill="#1f3a5f"/>
<circle cx="308.4" cy="138.5" r="2.6" fill="#1f3a5f"/>
<circle cx="335.8" cy="166.4" r="2.6" fill="#1f3a5f"/>
<circle cx="363.3" cy="141.4" r="2.6" fill="#1f3a5f"/>
<line x1="212.3" y1="90" x2="212.3" y2="250" stroke="#b9461a" stroke-dasharray="3 3"/>
<line x1="75" y1="250" x2="377" y2="250" stroke="#444"/>
<line x1="75" y1="90" x2="75" y2="250" stroke="#444"/>
<line x1="88.7" y1="250" x2="88.7" y2="253" stroke="#444"/>
<text x="88.7" y="265" text-anchor="middle" fill="#444">-5</text>
<line x1="116.2" y1="250" x2="116.2" y2="253" stroke="#444"/>
<text x="116.2" y="265" text-anchor="middle" fill="#444">-4</text>
<line x1="143.6" y1="250" x2="143.6" y2="253" stroke="#444"/>
<text x="143.6" y="265" text-anchor="middle" fill="#444">-3</text>
<line x1="171.1" y1="250" x2="171.1" y2="253" stroke="#444"/>
<text x="171.1" y="265" text-anchor="middle" fill="#444">-2</text>
<line x1="226.0" y1="250" x2="226.0" y2="253" stroke="#444"/>
<text x="226.0" y="265" text-anchor="middle" fill="#444">0</text>
<line x1="253.5" y1="250" x2="253.5" y2="253" stroke="#444"/>
<text x="253.5" y="265" text-anchor="middle" fill="#444">1</text>
<line x1="280.9" y1="250" x2="280.9" y2="253" stroke="#444"/>
<text x="280.9" y="265" text-anchor="middle" fill="#444">2</text>
<line x1="308.4" y1="250" x2="308.4" y2="253" stroke="#444"/>
<text x="308.4" y="265" text-anchor="middle" fill="#444">3</text>
<line x1="335.8" y1="250" x2="335.8" y2="253" stroke="#444"/>
<text x="335.8" y="265" text-anchor="middle" fill="#444">4</text>
<line x1="363.3" y1="250" x2="363.3" y2="253" stroke="#444"/>
<text x="363.3" y="265" text-anchor="middle" fill="#444">5</text>
<line x1="72" y1="250.0" x2="75" y2="250.0" stroke="#444"/>
<text x="69" y="253.0" text-anchor="end" fill="#444">-0.76</text>
<line x1="72" y1="210.0" x2="75" y2="210.0" stroke="#444"/>
<text x="69" y="213.0" text-anchor="end" fill="#444">-0.37</text>
<line x1="72" y1="170.0" x2="75" y2="170.0" stroke="#444"/>
<text x="69" y="173.0" text-anchor="end" fill="#444">0.014</text>
<line x1="72" y1="130.0" x2="75" y2="130.0" stroke="#444"/>
<text x="69" y="133.0" text-anchor="end" fill="#444">0.4</text>
<line x1="72" y1="90.0" x2="75" y2="90.0" stroke="#444"/>
<text x="69" y="93.0" text-anchor="end" fill="#444">0.78</text>
<text x="226.0" y="284" text-anchor="middle" fill="#444">Event time (years from adoption)</text>
<text x="27" y="170.0" text-anchor="middle" fill="#444" transform="rotate(-90 27 170.0)">ATT (per 100k)</text>
<rect x="425" y="40" width="380" height="260" fill="#fafaf7" stroke="#e2e2dc"/>
<text x="615.0" y="58" text-anchor="middle" font-weight="600">Non-firearm suicide rate (per 100k) [substitution test]</text>
<line x1="485" y1="129.98903591156676" x2="787" y2="129.98903591156676" stroke="#aaaaaa" stroke-width="0.7"/>
<polygon points="498.7,105.7 526.2,130.3 553.6,121.7 581.1,151.6 636.0,105.3 663.5,159.9 690.9,144.2 718.4,112.3 745.8,90.0 773.3,136.8 773.3,250.0 745.8,222.3 718.4,245.5 690.9,227.8 663.5,235.6 636.0,218.1 581.1,217.9 553.6,206.0 526.2,213.9 498.7,211.5" fill="#1f3a5f" opacity="0.18"/>
<polyline points="498.7,158.6 526.2,172.1 553.6,163.9 581.1,184.7 636.0,161.7 663.5,197.7 690.9,186.0 718.4,178.9 745.8,156.1 773.3,193.4" fill="none" stroke="#1f3a5f" stroke-width="1.6"/>
<circle cx="498.7" cy="158.6" r="2.6" fill="#1f3a5f"/>
<circle cx="526.2" cy="172.1" r="2.6" fill="#1f3a5f"/>
<circle cx="553.6" cy="163.9" r="2.6" fill="#1f3a5f"/>
<circle cx="581.1" cy="184.7" r="2.6" fill="#1f3a5f"/>
<circle cx="636.0" cy="161.7" r="2.6" fill="#1f3a5f"/>
<circle cx="663.5" cy="197.7" r="2.6" fill="#1f3a5f"/>
<circle cx="690.9" cy="186.0" r="2.6" fill="#1f3a5f"/>
<circle cx="718.4" cy="178.9" r="2.6" fill="#1f3a5f"/>
<circle cx="745.8" cy="156.1" r="2.6" fill="#1f3a5f"/>
<circle cx="773.3" cy="193.4" r="2.6" fill="#1f3a5f"/>
<line x1="622.3" y1="90" x2="622.3" y2="250" stroke="#b9461a" stroke-dasharray="3 3"/>
<line x1="485" y1="250" x2="787" y2="250" stroke="#444"/>
<line x1="485" y1="90" x2="485" y2="250" stroke="#444"/>
<line x1="498.7" y1="250" x2="498.7" y2="253" stroke="#444"/>
<text x="498.7" y="265" text-anchor="middle" fill="#444">-5</text>
<line x1="526.2" y1="250" x2="526.2" y2="253" stroke="#444"/>
<text x="526.2" y="265" text-anchor="middle" fill="#444">-4</text>
<line x1="553.6" y1="250" x2="553.6" y2="253" stroke="#444"/>
<text x="553.6" y="265" text-anchor="middle" fill="#444">-3</text>
<line x1="581.1" y1="250" x2="581.1" y2="253" stroke="#444"/>
<text x="581.1" y="265" text-anchor="middle" fill="#444">-2</text>
<line x1="636.0" y1="250" x2="636.0" y2="253" stroke="#444"/>
<text x="636.0" y="265" text-anchor="middle" fill="#444">0</text>
<line x1="663.5" y1="250" x2="663.5" y2="253" stroke="#444"/>
<text x="663.5" y="265" text-anchor="middle" fill="#444">1</text>
<line x1="690.9" y1="250" x2="690.9" y2="253" stroke="#444"/>
<text x="690.9" y="265" text-anchor="middle" fill="#444">2</text>
<line x1="718.4" y1="250" x2="718.4" y2="253" stroke="#444"/>
<text x="718.4" y="265" text-anchor="middle" fill="#444">3</text>
<line x1="745.8" y1="250" x2="745.8" y2="253" stroke="#444"/>
<text x="745.8" y="265" text-anchor="middle" fill="#444">4</text>
<line x1="773.3" y1="250" x2="773.3" y2="253" stroke="#444"/>
<text x="773.3" y="265" text-anchor="middle" fill="#444">5</text>
<line x1="482" y1="250.0" x2="485" y2="250.0" stroke="#444"/>
<text x="479" y="253.0" text-anchor="end" fill="#444">-0.61</text>
<line x1="482" y1="210.0" x2="485" y2="210.0" stroke="#444"/>
<text x="479" y="213.0" text-anchor="end" fill="#444">-0.41</text>
<line x1="482" y1="170.0" x2="485" y2="170.0" stroke="#444"/>
<text x="479" y="173.0" text-anchor="end" fill="#444">-0.21</text>
<line x1="482" y1="130.0" x2="485" y2="130.0" stroke="#444"/>
<text x="479" y="133.0" text-anchor="end" fill="#444">-5.6e-05</text>
<line x1="482" y1="90.0" x2="485" y2="90.0" stroke="#444"/>
<text x="479" y="93.0" text-anchor="end" fill="#444">0.2</text>
<text x="636.0" y="284" text-anchor="middle" fill="#444">Event time (years from adoption)</text>
<text x="437" y="170.0" text-anchor="middle" fill="#444" transform="rotate(-90 437 170.0)">ATT (per 100k)</text>
<rect x="15" y="330" width="380" height="260" fill="#fafaf7" stroke="#e2e2dc"/>
<text x="205.0" y="348" text-anchor="middle" font-weight="600">Total suicide rate (per 100k) [net effect]</text>
<line x1="75" y1="443.79637871396824" x2="377" y2="443.79637871396824" stroke="#aaaaaa" stroke-width="0.7"/>
<polygon points="88.7,464.3 116.2,460.4 143.6,443.5 171.1,477.5 226.0,413.7 253.5,426.2 280.9,400.5 308.4,380.0 335.8,411.9 363.3,406.6 363.3,488.3 335.8,492.9 308.4,494.2 280.9,473.3 253.5,520.8 226.0,472.0 171.1,530.3 143.6,507.4 116.2,533.0 88.7,540.0" fill="#1f3a5f" opacity="0.18"/>
<polyline points="88.7,502.2 116.2,496.7 143.6,475.4 171.1,503.9 226.0,442.8 253.5,473.5 280.9,436.9 308.4,437.1 335.8,452.4 363.3,447.4" fill="none" stroke="#1f3a5f" stroke-width="1.6"/>
<circle cx="88.7" cy="502.2" r="2.6" fill="#1f3a5f"/>
<circle cx="116.2" cy="496.7" r="2.6" fill="#1f3a5f"/>
<circle cx="143.6" cy="475.4" r="2.6" fill="#1f3a5f"/>
<circle cx="171.1" cy="503.9" r="2.6" fill="#1f3a5f"/>
<circle cx="226.0" cy="442.8" r="2.6" fill="#1f3a5f"/>
<circle cx="253.5" cy="473.5" r="2.6" fill="#1f3a5f"/>
<circle cx="280.9" cy="436.9" r="2.6" fill="#1f3a5f"/>
<circle cx="308.4" cy="437.1" r="2.6" fill="#1f3a5f"/>
<circle cx="335.8" cy="452.4" r="2.6" fill="#1f3a5f"/>
<circle cx="363.3" cy="447.4" r="2.6" fill="#1f3a5f"/>
<line x1="212.3" y1="380" x2="212.3" y2="540" stroke="#b9461a" stroke-dasharray="3 3"/>
<line x1="75" y1="540" x2="377" y2="540" stroke="#444"/>
<line x1="75" y1="380" x2="75" y2="540" stroke="#444"/>
<line x1="88.7" y1="540" x2="88.7" y2="543" stroke="#444"/>
<text x="88.7" y="555" text-anchor="middle" fill="#444">-5</text>
<line x1="116.2" y1="540" x2="116.2" y2="543" stroke="#444"/>
<text x="116.2" y="555" text-anchor="middle" fill="#444">-4</text>
<line x1="143.6" y1="540" x2="143.6" y2="543" stroke="#444"/>
<text x="143.6" y="555" text-anchor="middle" fill="#444">-3</text>
<line x1="171.1" y1="540" x2="171.1" y2="543" stroke="#444"/>
<text x="171.1" y="555" text-anchor="middle" fill="#444">-2</text>
<line x1="226.0" y1="540" x2="226.0" y2="543" stroke="#444"/>
<text x="226.0" y="555" text-anchor="middle" fill="#444">0</text>
<line x1="253.5" y1="540" x2="253.5" y2="543" stroke="#444"/>
<text x="253.5" y="555" text-anchor="middle" fill="#444">1</text>
<line x1="280.9" y1="540" x2="280.9" y2="543" stroke="#444"/>
<text x="280.9" y="555" text-anchor="middle" fill="#444">2</text>
<line x1="308.4" y1="540" x2="308.4" y2="543" stroke="#444"/>
<text x="308.4" y="555" text-anchor="middle" fill="#444">3</text>
<line x1="335.8" y1="540" x2="335.8" y2="543" stroke="#444"/>
<text x="335.8" y="555" text-anchor="middle" fill="#444">4</text>
<line x1="363.3" y1="540" x2="363.3" y2="543" stroke="#444"/>
<text x="363.3" y="555" text-anchor="middle" fill="#444">5</text>
<line x1="72" y1="540.0" x2="75" y2="540.0" stroke="#444"/>
<text x="69" y="543.0" text-anchor="end" fill="#444">-0.95</text>
<line x1="72" y1="500.0" x2="75" y2="500.0" stroke="#444"/>
<text x="69" y="503.0" text-anchor="end" fill="#444">-0.56</text>
<line x1="72" y1="460.0" x2="75" y2="460.0" stroke="#444"/>
<text x="69" y="463.0" text-anchor="end" fill="#444">-0.16</text>
<line x1="72" y1="420.0" x2="75" y2="420.0" stroke="#444"/>
<text x="69" y="423.0" text-anchor="end" fill="#444">0.24</text>
<line x1="72" y1="380.0" x2="75" y2="380.0" stroke="#444"/>
<text x="69" y="383.0" text-anchor="end" fill="#444">0.63</text>
<text x="226.0" y="574" text-anchor="middle" fill="#444">Event time (years from adoption)</text>
<text x="27" y="460.0" text-anchor="middle" fill="#444" transform="rotate(-90 27 460.0)">ATT (per 100k)</text>
<rect x="425" y="330" width="380" height="260" fill="#fafaf7" stroke="#e2e2dc"/>
<text x="615.0" y="348" text-anchor="middle" font-weight="600">Firearm homicide rate (per 100k)</text>
<line x1="485" y1="519.1342573226724" x2="787" y2="519.1342573226724" stroke="#aaaaaa" stroke-width="0.7"/>
<polygon points="498.7,425.4 526.2,451.6 553.6,446.7 581.1,457.3 636.0,437.0 663.5,380.0 690.9,382.5 718.4,415.5 745.8,436.0 773.3,406.1 773.3,528.6 745.8,525.9 718.4,492.6 690.9,487.3 663.5,460.7 636.0,512.1 581.1,538.2 553.6,536.1 526.2,540.0 498.7,538.3" fill="#1f3a5f" opacity="0.18"/>
<polyline points="498.7,481.8 526.2,495.8 553.6,491.4 581.1,497.8 636.0,474.6 663.5,420.4 690.9,434.9 718.4,454.1 745.8,481.0 773.3,467.4" fill="none" stroke="#1f3a5f" stroke-width="1.6"/>
<circle cx="498.7" cy="481.8" r="2.6" fill="#1f3a5f"/>
<circle cx="526.2" cy="495.8" r="2.6" fill="#1f3a5f"/>
<circle cx="553.6" cy="491.4" r="2.6" fill="#1f3a5f"/>
<circle cx="581.1" cy="497.8" r="2.6" fill="#1f3a5f"/>
<circle cx="636.0" cy="474.6" r="2.6" fill="#1f3a5f"/>
<circle cx="663.5" cy="420.4" r="2.6" fill="#1f3a5f"/>
<circle cx="690.9" cy="434.9" r="2.6" fill="#1f3a5f"/>
<circle cx="718.4" cy="454.1" r="2.6" fill="#1f3a5f"/>
<circle cx="745.8" cy="481.0" r="2.6" fill="#1f3a5f"/>
<circle cx="773.3" cy="467.4" r="2.6" fill="#1f3a5f"/>
<line x1="622.3" y1="380" x2="622.3" y2="540" stroke="#b9461a" stroke-dasharray="3 3"/>
<line x1="485" y1="540" x2="787" y2="540" stroke="#444"/>
<line x1="485" y1="380" x2="485" y2="540" stroke="#444"/>
<line x1="498.7" y1="540" x2="498.7" y2="543" stroke="#444"/>
<text x="498.7" y="555" text-anchor="middle" fill="#444">-5</text>
<line x1="526.2" y1="540" x2="526.2" y2="543" stroke="#444"/>
<text x="526.2" y="555" text-anchor="middle" fill="#444">-4</text>
<line x1="553.6" y1="540" x2="553.6" y2="543" stroke="#444"/>
<text x="553.6" y="555" text-anchor="middle" fill="#444">-3</text>
<line x1="581.1" y1="540" x2="581.1" y2="543" stroke="#444"/>
<text x="581.1" y="555" text-anchor="middle" fill="#444">-2</text>
<line x1="636.0" y1="540" x2="636.0" y2="543" stroke="#444"/>
<text x="636.0" y="555" text-anchor="middle" fill="#444">0</text>
<line x1="663.5" y1="540" x2="663.5" y2="543" stroke="#444"/>
<text x="663.5" y="555" text-anchor="middle" fill="#444">1</text>
<line x1="690.9" y1="540" x2="690.9" y2="543" stroke="#444"/>
<text x="690.9" y="555" text-anchor="middle" fill="#444">2</text>
<line x1="718.4" y1="540" x2="718.4" y2="543" stroke="#444"/>
<text x="718.4" y="555" text-anchor="middle" fill="#444">3</text>
<line x1="745.8" y1="540" x2="745.8" y2="543" stroke="#444"/>
<text x="745.8" y="555" text-anchor="middle" fill="#444">4</text>
<line x1="773.3" y1="540" x2="773.3" y2="543" stroke="#444"/>
<text x="773.3" y="555" text-anchor="middle" fill="#444">5</text>
<line x1="482" y1="540.0" x2="485" y2="540.0" stroke="#444"/>
<text x="479" y="543.0" text-anchor="end" fill="#444">-0.098</text>
<line x1="482" y1="500.0" x2="485" y2="500.0" stroke="#444"/>
<text x="479" y="503.0" text-anchor="end" fill="#444">0.089</text>
<line x1="482" y1="460.0" x2="485" y2="460.0" stroke="#444"/>
<text x="479" y="463.0" text-anchor="end" fill="#444">0.28</text>
<line x1="482" y1="420.0" x2="485" y2="420.0" stroke="#444"/>
<text x="479" y="423.0" text-anchor="end" fill="#444">0.46</text>
<line x1="482" y1="380.0" x2="485" y2="380.0" stroke="#444"/>
<text x="479" y="383.0" text-anchor="end" fill="#444">0.65</text>
<text x="636.0" y="574" text-anchor="middle" fill="#444">Event time (years from adoption)</text>
<text x="437" y="460.0" text-anchor="middle" fill="#444" transform="rotate(-90 437 460.0)">ATT (per 100k)</text>
<rect x="15" y="620" width="380" height="260" fill="#fafaf7" stroke="#e2e2dc"/>
<text x="205.0" y="638" text-anchor="middle" font-weight="600">Total homicide rate (per 100k)</text>
<line x1="75" y1="783.7863428891355" x2="377" y2="783.7863428891355" stroke="#aaaaaa" stroke-width="0.7"/>
<polygon points="88.7,708.7 116.2,730.8 143.6,711.1 171.1,721.1 226.0,715.7 253.5,670.0 280.9,693.9 308.4,696.1 335.8,743.1 363.3,711.1 363.3,802.7 335.8,825.3 308.4,781.7 280.9,778.8 253.5,765.1 226.0,790.3 171.1,813.7 143.6,804.2 116.2,830.0 88.7,798.7" fill="#1f3a5f" opacity="0.18"/>
<polyline points="88.7,753.7 116.2,780.4 143.6,757.7 171.1,767.4 226.0,753.0 253.5,717.6 280.9,736.3 308.4,738.9 335.8,784.2 363.3,756.9" fill="none" stroke="#1f3a5f" stroke-width="1.6"/>
<circle cx="88.7" cy="753.7" r="2.6" fill="#1f3a5f"/>
<circle cx="116.2" cy="780.4" r="2.6" fill="#1f3a5f"/>
<circle cx="143.6" cy="757.7" r="2.6" fill="#1f3a5f"/>
<circle cx="171.1" cy="767.4" r="2.6" fill="#1f3a5f"/>
<circle cx="226.0" cy="753.0" r="2.6" fill="#1f3a5f"/>
<circle cx="253.5" cy="717.6" r="2.6" fill="#1f3a5f"/>
<circle cx="280.9" cy="736.3" r="2.6" fill="#1f3a5f"/>
<circle cx="308.4" cy="738.9" r="2.6" fill="#1f3a5f"/>
<circle cx="335.8" cy="784.2" r="2.6" fill="#1f3a5f"/>
<circle cx="363.3" cy="756.9" r="2.6" fill="#1f3a5f"/>
<line x1="212.3" y1="670" x2="212.3" y2="830" stroke="#b9461a" stroke-dasharray="3 3"/>
<line x1="75" y1="830" x2="377" y2="830" stroke="#444"/>
<line x1="75" y1="670" x2="75" y2="830" stroke="#444"/>
<line x1="88.7" y1="830" x2="88.7" y2="833" stroke="#444"/>
<text x="88.7" y="845" text-anchor="middle" fill="#444">-5</text>
<line x1="116.2" y1="830" x2="116.2" y2="833" stroke="#444"/>
<text x="116.2" y="845" text-anchor="middle" fill="#444">-4</text>
<line x1="143.6" y1="830" x2="143.6" y2="833" stroke="#444"/>
<text x="143.6" y="845" text-anchor="middle" fill="#444">-3</text>
<line x1="171.1" y1="830" x2="171.1" y2="833" stroke="#444"/>
<text x="171.1" y="845" text-anchor="middle" fill="#444">-2</text>
<line x1="226.0" y1="830" x2="226.0" y2="833" stroke="#444"/>
<text x="226.0" y="845" text-anchor="middle" fill="#444">0</text>
<line x1="253.5" y1="830" x2="253.5" y2="833" stroke="#444"/>
<text x="253.5" y="845" text-anchor="middle" fill="#444">1</text>
<line x1="280.9" y1="830" x2="280.9" y2="833" stroke="#444"/>
<text x="280.9" y="845" text-anchor="middle" fill="#444">2</text>
<line x1="308.4" y1="830" x2="308.4" y2="833" stroke="#444"/>
<text x="308.4" y="845" text-anchor="middle" fill="#444">3</text>
<line x1="335.8" y1="830" x2="335.8" y2="833" stroke="#444"/>
<text x="335.8" y="845" text-anchor="middle" fill="#444">4</text>
<line x1="363.3" y1="830" x2="363.3" y2="833" stroke="#444"/>
<text x="363.3" y="845" text-anchor="middle" fill="#444">5</text>
<line x1="72" y1="830.0" x2="75" y2="830.0" stroke="#444"/>
<text x="69" y="833.0" text-anchor="end" fill="#444">-0.32</text>
<line x1="72" y1="790.0" x2="75" y2="790.0" stroke="#444"/>
<text x="69" y="793.0" text-anchor="end" fill="#444">-0.043</text>
<line x1="72" y1="750.0" x2="75" y2="750.0" stroke="#444"/>
<text x="69" y="753.0" text-anchor="end" fill="#444">0.24</text>
<line x1="72" y1="710.0" x2="75" y2="710.0" stroke="#444"/>
<text x="69" y="713.0" text-anchor="end" fill="#444">0.51</text>
<line x1="72" y1="670.0" x2="75" y2="670.0" stroke="#444"/>
<text x="69" y="673.0" text-anchor="end" fill="#444">0.79</text>
<text x="226.0" y="864" text-anchor="middle" fill="#444">Event time (years from adoption)</text>
<text x="27" y="750.0" text-anchor="middle" fill="#444" transform="rotate(-90 27 750.0)">ATT (per 100k)</text>
<rect x="425" y="620" width="380" height="260" fill="#fafaf7" stroke="#e2e2dc"/>
<text x="615.0" y="638" text-anchor="middle" font-weight="600">Motor vehicle theft rate (per 100k) [placebo]</text>
<line x1="485" y1="807.3513817773619" x2="787" y2="807.3513817773619" stroke="#aaaaaa" stroke-width="0.7"/>
<polygon points="498.7,670.0 526.2,711.4 553.6,742.6 581.1,759.1 636.0,758.7 663.5,745.8 690.9,734.2 718.4,700.7 745.8,699.8 773.3,703.2 773.3,812.0 745.8,794.3 718.4,795.5 690.9,812.2 663.5,801.0 636.0,798.4 581.1,803.3 553.6,809.4 526.2,826.5 498.7,830.0" fill="#1f3a5f" opacity="0.18"/>
<polyline points="498.7,750.0 526.2,769.0 553.6,776.0 581.1,781.2 636.0,778.5 663.5,773.4 690.9,773.2 718.4,748.1 745.8,747.0 773.3,757.6" fill="none" stroke="#1f3a5f" stroke-width="1.6"/>
<circle cx="498.7" cy="750.0" r="2.6" fill="#1f3a5f"/>
<circle cx="526.2" cy="769.0" r="2.6" fill="#1f3a5f"/>
<circle cx="553.6" cy="776.0" r="2.6" fill="#1f3a5f"/>
<circle cx="581.1" cy="781.2" r="2.6" fill="#1f3a5f"/>
<circle cx="636.0" cy="778.5" r="2.6" fill="#1f3a5f"/>
<circle cx="663.5" cy="773.4" r="2.6" fill="#1f3a5f"/>
<circle cx="690.9" cy="773.2" r="2.6" fill="#1f3a5f"/>
<circle cx="718.4" cy="748.1" r="2.6" fill="#1f3a5f"/>
<circle cx="745.8" cy="747.0" r="2.6" fill="#1f3a5f"/>
<circle cx="773.3" cy="757.6" r="2.6" fill="#1f3a5f"/>
<line x1="622.3" y1="670" x2="622.3" y2="830" stroke="#b9461a" stroke-dasharray="3 3"/>
<line x1="485" y1="830" x2="787" y2="830" stroke="#444"/>
<line x1="485" y1="670" x2="485" y2="830" stroke="#444"/>
<line x1="498.7" y1="830" x2="498.7" y2="833" stroke="#444"/>
<text x="498.7" y="845" text-anchor="middle" fill="#444">-5</text>
<line x1="526.2" y1="830" x2="526.2" y2="833" stroke="#444"/>
<text x="526.2" y="845" text-anchor="middle" fill="#444">-4</text>
<line x1="553.6" y1="830" x2="553.6" y2="833" stroke="#444"/>
<text x="553.6" y="845" text-anchor="middle" fill="#444">-3</text>
<line x1="581.1" y1="830" x2="581.1" y2="833" stroke="#444"/>
<text x="581.1" y="845" text-anchor="middle" fill="#444">-2</text>
<line x1="636.0" y1="830" x2="636.0" y2="833" stroke="#444"/>
<text x="636.0" y="845" text-anchor="middle" fill="#444">0</text>
<line x1="663.5" y1="830" x2="663.5" y2="833" stroke="#444"/>
<text x="663.5" y="845" text-anchor="middle" fill="#444">1</text>
<line x1="690.9" y1="830" x2="690.9" y2="833" stroke="#444"/>
<text x="690.9" y="845" text-anchor="middle" fill="#444">2</text>
<line x1="718.4" y1="830" x2="718.4" y2="833" stroke="#444"/>
<text x="718.4" y="845" text-anchor="middle" fill="#444">3</text>
<line x1="745.8" y1="830" x2="745.8" y2="833" stroke="#444"/>
<text x="745.8" y="845" text-anchor="middle" fill="#444">4</text>
<line x1="773.3" y1="830" x2="773.3" y2="833" stroke="#444"/>
<text x="773.3" y="845" text-anchor="middle" fill="#444">5</text>
<line x1="482" y1="830.0" x2="485" y2="830.0" stroke="#444"/>
<text x="479" y="833.0" text-anchor="end" fill="#444">-12</text>
<line x1="482" y1="790.0" x2="485" y2="790.0" stroke="#444"/>
<text x="479" y="793.0" text-anchor="end" fill="#444">8.9</text>
<line x1="482" y1="750.0" x2="485" y2="750.0" stroke="#444"/>
<text x="479" y="753.0" text-anchor="end" fill="#444">30</text>
<line x1="482" y1="710.0" x2="485" y2="710.0" stroke="#444"/>
<text x="479" y="713.0" text-anchor="end" fill="#444">50</text>
<line x1="482" y1="670.0" x2="485" y2="670.0" stroke="#444"/>
<text x="479" y="673.0" text-anchor="end" fill="#444">71</text>
<text x="636.0" y="864" text-anchor="middle" fill="#444">Event time (years from adoption)</text>
<text x="437" y="750.0" text-anchor="middle" fill="#444" transform="rotate(-90 437 750.0)">ATT (per 100k)</text>
<text x="805" y="608" text-anchor="end" fill="#888" font-size="10">Shaded band: pointwise 95% CI from cluster bootstrap. Vertical dashed line marks the year before adoption.</text>
</svg>