<svg xmlns="http://www.w3.org/2000/svg" viewBox="0 0 820 620" font-family="-apple-system, Segoe UI, Helvetica, Arial, sans-serif" font-size="11">
<text x="410.0" y="22" text-anchor="middle" font-size="14" font-weight="600">Callaway-Sant'Anna ATT by event time (RA) -- stand your ground</text>
<rect x="15" y="40" width="380" height="260" fill="#fafaf7" stroke="#e2e2dc"/>
<text x="205.0" y="58" text-anchor="middle" font-weight="600">Firearm suicide rate (per 100k)</text>
<line x1="75" y1="184.9289787776259" x2="377" y2="184.9289787776259" stroke="#aaaaaa" stroke-width="0.7"/>
<polygon points="88.7,182.7 116.2,152.0 143.6,183.5 171.1,132.5 226.0,140.6 253.5,168.8 280.9,143.8 308.4,90.0 335.8,124.8 363.3,128.1 363.3,197.6 335.8,187.8 308.4,156.1 280.9,185.5 253.5,211.9 226.0,185.1 171.1,181.4 143.6,250.0 116.2,225.1 88.7,224.7" fill="#1f3a5f" opacity="0.18"/>
<polyline points="88.7,203.7 116.2,188.5 143.6,216.8 171.1,157.0 226.0,162.8 253.5,190.3 280.9,164.6 308.4,123.0 335.8,156.3 363.3,162.8" fill="none" stroke="#1f3a5f" stroke-width="1.6"/>
<circle cx="88.7" cy="203.7" r="2.6" fill="#1f3a5f"/>
<circle cx="116.2" cy="188.5" r="2.6" fill="#1f3a5f"/>
<circle cx="143.6" cy="216.8" r="2.6" fill="#1f3a5f"/>
<circle cx="171.1" cy="157.0" r="2.6" fill="#1f3a5f"/>
<circle cx="226.0" cy="162.8" r="2.6" fill="#1f3a5f"/>
<circle cx="253.5" cy="190.3" r="2.6" fill="#1f3a5f"/>
<circle cx="280.9" cy="164.6" r="2.6" fill="#1f3a5f"/>
<circle cx="308.4" cy="123.0" r="2.6" fill="#1f3a5f"/>
<circle cx="335.8" cy="156.3" r="2.6" fill="#1f3a5f"/>
<circle cx="363.3" cy="162.8" r="2.6" fill="#1f3a5f"/>
<line x1="212.3" y1="90" x2="212.3" y2="250" stroke="#b9461a" stroke-dasharray="3 3"/>
<line x1="75" y1="250" x2="377" y2="250" stroke="#444"/>
<line x1="75" y1="90" x2="75" y2="250" stroke="#444"/>
<line x1="88.7" y1="250" x2="88.7" y2="253" stroke="#444"/>
<text x="88.7" y="265" text-anchor="middle" fill="#444">-5</text>
<line x1="116.2" y1="250" x2="116.2" y2="253" stroke="#444"/>
<text x="116.2" y="265" text-anchor="middle" fill="#444">-4</text>
<line x1="143.6" y1="250" x2="143.6" y2="253" stroke="#444"/>
<text x="143.6" y="265" text-anchor="middle" fill="#444">-3</text>
<line x1="171.1" y1="250" x2="171.1" y2="253" stroke="#444"/>
<text x="171.1" y="265" text-anchor="middle" fill="#444">-2</text>
<line x1="226.0" y1="250" x2="226.0" y2="253" stroke="#444"/>
<text x="226.0" y="265" text-anchor="middle" fill="#444">0</text>
<line x1="253.5" y1="250" x2="253.5" y2="253" stroke="#444"/>
<text x="253.5" y="265" text-anchor="middle" fill="#444">1</text>
<line x1="280.9" y1="250" x2="280.9" y2="253" stroke="#444"/>
<text x="280.9" y="265" text-anchor="middle" fill="#444">2</text>
<line x1="308.4" y1="250" x2="308.4" y2="253" stroke="#444"/>
<text x="308.4" y="265" text-anchor="middle" fill="#444">3</text>
<line x1="335.8" y1="250" x2="335.8" y2="253" stroke="#444"/>
<text x="335.8" y="265" text-anchor="middle" fill="#444">4</text>
<line x1="363.3" y1="250" x2="363.3" y2="253" stroke="#444"/>
<text x="363.3" y="265" text-anchor="middle" fill="#444">5</text>
<line x1="72" y1="250.0" x2="75" y2="250.0" stroke="#444"/>
<text x="69" y="253.0" text-anchor="end" fill="#444">-1</text>
<line x1="72" y1="210.0" x2="75" y2="210.0" stroke="#444"/>
<text x="69" y="213.0" text-anchor="end" fill="#444">-0.39</text>
<line x1="72" y1="170.0" x2="75" y2="170.0" stroke="#444"/>
<text x="69" y="173.0" text-anchor="end" fill="#444">0.24</text>
<line x1="72" y1="130.0" x2="75" y2="130.0" stroke="#444"/>
<text x="69" y="133.0" text-anchor="end" fill="#444">0.86</text>
<line x1="72" y1="90.0" x2="75" y2="90.0" stroke="#444"/>
<text x="69" y="93.0" text-anchor="end" fill="#444">1.5</text>
<text x="226.0" y="284" text-anchor="middle" fill="#444">Event time (years from adoption)</text>
<text x="27" y="170.0" text-anchor="middle" fill="#444" transform="rotate(-90 27 170.0)">ATT (per 100k)</text>
<rect x="425" y="40" width="380" height="260" fill="#fafaf7" stroke="#e2e2dc"/>
<text x="615.0" y="58" text-anchor="middle" font-weight="600">Non-firearm suicide rate (per 100k) [substitution test]</text>
<line x1="485" y1="120.3060766128539" x2="787" y2="120.3060766128539" stroke="#aaaaaa" stroke-width="0.7"/>
<polygon points="498.7,149.4 526.2,129.0 553.6,108.1 581.1,116.5 636.0,100.7 663.5,130.6 690.9,142.2 718.4,117.2 745.8,105.2 773.3,90.0 773.3,182.9 745.8,203.8 718.4,250.0 690.9,192.2 663.5,183.0 636.0,169.7 581.1,178.4 553.6,178.4 526.2,170.9 498.7,228.9" fill="#1f3a5f" opacity="0.18"/>
<polyline points="498.7,189.1 526.2,150.0 553.6,143.3 581.1,147.5 636.0,135.2 663.5,156.8 690.9,167.2 718.4,183.6 745.8,154.5 773.3,136.4" fill="none" stroke="#1f3a5f" stroke-width="1.6"/>
<circle cx="498.7" cy="189.1" r="2.6" fill="#1f3a5f"/>
<circle cx="526.2" cy="150.0" r="2.6" fill="#1f3a5f"/>
<circle cx="553.6" cy="143.3" r="2.6" fill="#1f3a5f"/>
<circle cx="581.1" cy="147.5" r="2.6" fill="#1f3a5f"/>
<circle cx="636.0" cy="135.2" r="2.6" fill="#1f3a5f"/>
<circle cx="663.5" cy="156.8" r="2.6" fill="#1f3a5f"/>
<circle cx="690.9" cy="167.2" r="2.6" fill="#1f3a5f"/>
<circle cx="718.4" cy="183.6" r="2.6" fill="#1f3a5f"/>
<circle cx="745.8" cy="154.5" r="2.6" fill="#1f3a5f"/>
<circle cx="773.3" cy="136.4" r="2.6" fill="#1f3a5f"/>
<line x1="622.3" y1="90" x2="622.3" y2="250" stroke="#b9461a" stroke-dasharray="3 3"/>
<line x1="485" y1="250" x2="787" y2="250" stroke="#444"/>
<line x1="485" y1="90" x2="485" y2="250" stroke="#444"/>
<line x1="498.7" y1="250" x2="498.7" y2="253" stroke="#444"/>
<text x="498.7" y="265" text-anchor="middle" fill="#444">-5</text>
<line x1="526.2" y1="250" x2="526.2" y2="253" stroke="#444"/>
<text x="526.2" y="265" text-anchor="middle" fill="#444">-4</text>
<line x1="553.6" y1="250" x2="553.6" y2="253" stroke="#444"/>
<text x="553.6" y="265" text-anchor="middle" fill="#444">-3</text>
<line x1="581.1" y1="250" x2="581.1" y2="253" stroke="#444"/>
<text x="581.1" y="265" text-anchor="middle" fill="#444">-2</text>
<line x1="636.0" y1="250" x2="636.0" y2="253" stroke="#444"/>
<text x="636.0" y="265" text-anchor="middle" fill="#444">0</text>
<line x1="663.5" y1="250" x2="663.5" y2="253" stroke="#444"/>
<text x="663.5" y="265" text-anchor="middle" fill="#444">1</text>
<line x1="690.9" y1="250" x2="690.9" y2="253" stroke="#444"/>
<text x="690.9" y="265" text-anchor="middle" fill="#444">2</text>
<line x1="718.4" y1="250" x2="718.4" y2="253" stroke="#444"/>
<text x="718.4" y="265" text-anchor="middle" fill="#444">3</text>
<line x1="745.8" y1="250" x2="745.8" y2="253" stroke="#444"/>
<text x="745.8" y="265" text-anchor="middle" fill="#444">4</text>
<line x1="773.3" y1="250" x2="773.3" y2="253" stroke="#444"/>
<text x="773.3" y="265" text-anchor="middle" fill="#444">5</text>
<line x1="482" y1="250.0" x2="485" y2="250.0" stroke="#444"/>
<text x="479" y="253.0" text-anchor="end" fill="#444">-1.3</text>
<line x1="482" y1="210.0" x2="485" y2="210.0" stroke="#444"/>
<text x="479" y="213.0" text-anchor="end" fill="#444">-0.92</text>
<line x1="482" y1="170.0" x2="485" y2="170.0" stroke="#444"/>
<text x="479" y="173.0" text-anchor="end" fill="#444">-0.51</text>
<line x1="482" y1="130.0" x2="485" y2="130.0" stroke="#444"/>
<text x="479" y="133.0" text-anchor="end" fill="#444">-0.099</text>
<line x1="482" y1="90.0" x2="485" y2="90.0" stroke="#444"/>
<text x="479" y="93.0" text-anchor="end" fill="#444">0.31</text>
<text x="636.0" y="284" text-anchor="middle" fill="#444">Event time (years from adoption)</text>
<text x="437" y="170.0" text-anchor="middle" fill="#444" transform="rotate(-90 437 170.0)">ATT (per 100k)</text>
<rect x="15" y="330" width="380" height="260" fill="#fafaf7" stroke="#e2e2dc"/>
<text x="205.0" y="348" text-anchor="middle" font-weight="600">Total suicide rate (per 100k) [net effect]</text>
<line x1="75" y1="438.09876315230633" x2="377" y2="438.09876315230633" stroke="#aaaaaa" stroke-width="0.7"/>
<polygon points="88.7,478.3 116.2,429.4 143.6,437.8 171.1,395.2 226.0,390.4 253.5,439.1 280.9,422.7 308.4,380.8 335.8,384.3 363.3,380.0 363.3,470.9 335.8,477.9 308.4,450.2 280.9,475.5 253.5,500.3 226.0,458.8 171.1,458.7 143.6,540.0 116.2,496.6 88.7,535.9" fill="#1f3a5f" opacity="0.18"/>
<polyline points="88.7,507.1 116.2,463.0 143.6,488.9 171.1,426.9 226.0,424.6 253.5,469.7 280.9,449.1 308.4,415.5 335.8,431.1 363.3,425.5" fill="none" stroke="#1f3a5f" stroke-width="1.6"/>
<circle cx="88.7" cy="507.1" r="2.6" fill="#1f3a5f"/>
<circle cx="116.2" cy="463.0" r="2.6" fill="#1f3a5f"/>
<circle cx="143.6" cy="488.9" r="2.6" fill="#1f3a5f"/>
<circle cx="171.1" cy="426.9" r="2.6" fill="#1f3a5f"/>
<circle cx="226.0" cy="424.6" r="2.6" fill="#1f3a5f"/>
<circle cx="253.5" cy="469.7" r="2.6" fill="#1f3a5f"/>
<circle cx="280.9" cy="449.1" r="2.6" fill="#1f3a5f"/>
<circle cx="308.4" cy="415.5" r="2.6" fill="#1f3a5f"/>
<circle cx="335.8" cy="431.1" r="2.6" fill="#1f3a5f"/>
<circle cx="363.3" cy="425.5" r="2.6" fill="#1f3a5f"/>
<line x1="212.3" y1="380" x2="212.3" y2="540" stroke="#b9461a" stroke-dasharray="3 3"/>
<line x1="75" y1="540" x2="377" y2="540" stroke="#444"/>
<line x1="75" y1="380" x2="75" y2="540" stroke="#444"/>
<line x1="88.7" y1="540" x2="88.7" y2="543" stroke="#444"/>
<text x="88.7" y="555" text-anchor="middle" fill="#444">-5</text>
<line x1="116.2" y1="540" x2="116.2" y2="543" stroke="#444"/>
<text x="116.2" y="555" text-anchor="middle" fill="#444">-4</text>
<line x1="143.6" y1="540" x2="143.6" y2="543" stroke="#444"/>
<text x="143.6" y="555" text-anchor="middle" fill="#444">-3</text>
<line x1="171.1" y1="540" x2="171.1" y2="543" stroke="#444"/>
<text x="171.1" y="555" text-anchor="middle" fill="#444">-2</text>
<line x1="226.0" y1="540" x2="226.0" y2="543" stroke="#444"/>
<text x="226.0" y="555" text-anchor="middle" fill="#444">0</text>
<line x1="253.5" y1="540" x2="253.5" y2="543" stroke="#444"/>
<text x="253.5" y="555" text-anchor="middle" fill="#444">1</text>
<line x1="280.9" y1="540" x2="280.9" y2="543" stroke="#444"/>
<text x="280.9" y="555" text-anchor="middle" fill="#444">2</text>
<line x1="308.4" y1="540" x2="308.4" y2="543" stroke="#444"/>
<text x="308.4" y="555" text-anchor="middle" fill="#444">3</text>
<line x1="335.8" y1="540" x2="335.8" y2="543" stroke="#444"/>
<text x="335.8" y="555" text-anchor="middle" fill="#444">4</text>
<line x1="363.3" y1="540" x2="363.3" y2="543" stroke="#444"/>
<text x="363.3" y="555" text-anchor="middle" fill="#444">5</text>
<line x1="72" y1="540.0" x2="75" y2="540.0" stroke="#444"/>
<text x="69" y="543.0" text-anchor="end" fill="#444">-1.5</text>
<line x1="72" y1="500.0" x2="75" y2="500.0" stroke="#444"/>
<text x="69" y="503.0" text-anchor="end" fill="#444">-0.9</text>
<line x1="72" y1="460.0" x2="75" y2="460.0" stroke="#444"/>
<text x="69" y="463.0" text-anchor="end" fill="#444">-0.32</text>
<line x1="72" y1="420.0" x2="75" y2="420.0" stroke="#444"/>
<text x="69" y="423.0" text-anchor="end" fill="#444">0.26</text>
<line x1="72" y1="380.0" x2="75" y2="380.0" stroke="#444"/>
<text x="69" y="383.0" text-anchor="end" fill="#444">0.84</text>
<text x="226.0" y="574" text-anchor="middle" fill="#444">Event time (years from adoption)</text>
<text x="27" y="460.0" text-anchor="middle" fill="#444" transform="rotate(-90 27 460.0)">ATT (per 100k)</text>
<rect x="425" y="330" width="380" height="260" fill="#fafaf7" stroke="#e2e2dc"/>
<text x="615.0" y="348" text-anchor="middle" font-weight="600">Firearm homicide rate (per 100k)</text>
<line x1="485" y1="411.1942583828711" x2="787" y2="411.1942583828711" stroke="#aaaaaa" stroke-width="0.7"/>
<polygon points="498.7,418.9 526.2,416.4 553.6,402.1 581.1,408.2 636.0,407.9 663.5,386.1 690.9,445.9 718.4,380.0 745.8,440.7 773.3,416.6 773.3,496.7 745.8,520.5 718.4,490.0 690.9,540.0 663.5,432.7 636.0,457.0 581.1,455.7 553.6,477.7 526.2,503.5 498.7,518.9" fill="#1f3a5f" opacity="0.18"/>
<polyline points="498.7,468.9 526.2,459.9 553.6,439.9 581.1,432.0 636.0,432.5 663.5,409.4 690.9,493.0 718.4,435.0 745.8,480.6 773.3,456.6" fill="none" stroke="#1f3a5f" stroke-width="1.6"/>
<circle cx="498.7" cy="468.9" r="2.6" fill="#1f3a5f"/>
<circle cx="526.2" cy="459.9" r="2.6" fill="#1f3a5f"/>
<circle cx="553.6" cy="439.9" r="2.6" fill="#1f3a5f"/>
<circle cx="581.1" cy="432.0" r="2.6" fill="#1f3a5f"/>
<circle cx="636.0" cy="432.5" r="2.6" fill="#1f3a5f"/>
<circle cx="663.5" cy="409.4" r="2.6" fill="#1f3a5f"/>
<circle cx="690.9" cy="493.0" r="2.6" fill="#1f3a5f"/>
<circle cx="718.4" cy="435.0" r="2.6" fill="#1f3a5f"/>
<circle cx="745.8" cy="480.6" r="2.6" fill="#1f3a5f"/>
<circle cx="773.3" cy="456.6" r="2.6" fill="#1f3a5f"/>
<line x1="622.3" y1="380" x2="622.3" y2="540" stroke="#b9461a" stroke-dasharray="3 3"/>
<line x1="485" y1="540" x2="787" y2="540" stroke="#444"/>
<line x1="485" y1="380" x2="485" y2="540" stroke="#444"/>
<line x1="498.7" y1="540" x2="498.7" y2="543" stroke="#444"/>
<text x="498.7" y="555" text-anchor="middle" fill="#444">-5</text>
<line x1="526.2" y1="540" x2="526.2" y2="543" stroke="#444"/>
<text x="526.2" y="555" text-anchor="middle" fill="#444">-4</text>
<line x1="553.6" y1="540" x2="553.6" y2="543" stroke="#444"/>
<text x="553.6" y="555" text-anchor="middle" fill="#444">-3</text>
<line x1="581.1" y1="540" x2="581.1" y2="543" stroke="#444"/>
<text x="581.1" y="555" text-anchor="middle" fill="#444">-2</text>
<line x1="636.0" y1="540" x2="636.0" y2="543" stroke="#444"/>
<text x="636.0" y="555" text-anchor="middle" fill="#444">0</text>
<line x1="663.5" y1="540" x2="663.5" y2="543" stroke="#444"/>
<text x="663.5" y="555" text-anchor="middle" fill="#444">1</text>
<line x1="690.9" y1="540" x2="690.9" y2="543" stroke="#444"/>
<text x="690.9" y="555" text-anchor="middle" fill="#444">2</text>
<line x1="718.4" y1="540" x2="718.4" y2="543" stroke="#444"/>
<text x="718.4" y="555" text-anchor="middle" fill="#444">3</text>
<line x1="745.8" y1="540" x2="745.8" y2="543" stroke="#444"/>
<text x="745.8" y="555" text-anchor="middle" fill="#444">4</text>
<line x1="773.3" y1="540" x2="773.3" y2="543" stroke="#444"/>
<text x="773.3" y="555" text-anchor="middle" fill="#444">5</text>
<line x1="482" y1="540.0" x2="485" y2="540.0" stroke="#444"/>
<text x="479" y="543.0" text-anchor="end" fill="#444">-1.4</text>
<line x1="482" y1="500.0" x2="485" y2="500.0" stroke="#444"/>
<text x="479" y="503.0" text-anchor="end" fill="#444">-0.95</text>
<line x1="482" y1="460.0" x2="485" y2="460.0" stroke="#444"/>
<text x="479" y="463.0" text-anchor="end" fill="#444">-0.52</text>
<line x1="482" y1="420.0" x2="485" y2="420.0" stroke="#444"/>
<text x="479" y="423.0" text-anchor="end" fill="#444">-0.094</text>
<line x1="482" y1="380.0" x2="485" y2="380.0" stroke="#444"/>
<text x="479" y="383.0" text-anchor="end" fill="#444">0.33</text>
<text x="636.0" y="574" text-anchor="middle" fill="#444">Event time (years from adoption)</text>
<text x="437" y="460.0" text-anchor="middle" fill="#444" transform="rotate(-90 437 460.0)">ATT (per 100k)</text>
<rect x="15" y="620" width="380" height="260" fill="#fafaf7" stroke="#e2e2dc"/>
<text x="205.0" y="638" text-anchor="middle" font-weight="600">Total homicide rate (per 100k)</text>
<line x1="75" y1="710.1726239034454" x2="377" y2="710.1726239034454" stroke="#aaaaaa" stroke-width="0.7"/>
<polygon points="88.7,724.4 116.2,687.2 143.6,709.0 171.1,693.4 226.0,707.4 253.5,670.0 280.9,753.8 308.4,693.3 335.8,766.7 363.3,726.8 363.3,817.9 335.8,830.0 308.4,758.8 280.9,822.1 253.5,725.4 226.0,754.6 171.1,736.3 143.6,766.9 116.2,767.8 88.7,810.6" fill="#1f3a5f" opacity="0.18"/>
<polyline points="88.7,767.5 116.2,727.5 143.6,738.0 171.1,714.9 226.0,731.0 253.5,697.7 280.9,788.0 308.4,726.0 335.8,798.3 363.3,772.3" fill="none" stroke="#1f3a5f" stroke-width="1.6"/>
<circle cx="88.7" cy="767.5" r="2.6" fill="#1f3a5f"/>
<circle cx="116.2" cy="727.5" r="2.6" fill="#1f3a5f"/>
<circle cx="143.6" cy="738.0" r="2.6" fill="#1f3a5f"/>
<circle cx="171.1" cy="714.9" r="2.6" fill="#1f3a5f"/>
<circle cx="226.0" cy="731.0" r="2.6" fill="#1f3a5f"/>
<circle cx="253.5" cy="697.7" r="2.6" fill="#1f3a5f"/>
<circle cx="280.9" cy="788.0" r="2.6" fill="#1f3a5f"/>
<circle cx="308.4" cy="726.0" r="2.6" fill="#1f3a5f"/>
<circle cx="335.8" cy="798.3" r="2.6" fill="#1f3a5f"/>
<circle cx="363.3" cy="772.3" r="2.6" fill="#1f3a5f"/>
<line x1="212.3" y1="670" x2="212.3" y2="830" stroke="#b9461a" stroke-dasharray="3 3"/>
<line x1="75" y1="830" x2="377" y2="830" stroke="#444"/>
<line x1="75" y1="670" x2="75" y2="830" stroke="#444"/>
<line x1="88.7" y1="830" x2="88.7" y2="833" stroke="#444"/>
<text x="88.7" y="845" text-anchor="middle" fill="#444">-5</text>
<line x1="116.2" y1="830" x2="116.2" y2="833" stroke="#444"/>
<text x="116.2" y="845" text-anchor="middle" fill="#444">-4</text>
<line x1="143.6" y1="830" x2="143.6" y2="833" stroke="#444"/>
<text x="143.6" y="845" text-anchor="middle" fill="#444">-3</text>
<line x1="171.1" y1="830" x2="171.1" y2="833" stroke="#444"/>
<text x="171.1" y="845" text-anchor="middle" fill="#444">-2</text>
<line x1="226.0" y1="830" x2="226.0" y2="833" stroke="#444"/>
<text x="226.0" y="845" text-anchor="middle" fill="#444">0</text>
<line x1="253.5" y1="830" x2="253.5" y2="833" stroke="#444"/>
<text x="253.5" y="845" text-anchor="middle" fill="#444">1</text>
<line x1="280.9" y1="830" x2="280.9" y2="833" stroke="#444"/>
<text x="280.9" y="845" text-anchor="middle" fill="#444">2</text>
<line x1="308.4" y1="830" x2="308.4" y2="833" stroke="#444"/>
<text x="308.4" y="845" text-anchor="middle" fill="#444">3</text>
<line x1="335.8" y1="830" x2="335.8" y2="833" stroke="#444"/>
<text x="335.8" y="845" text-anchor="middle" fill="#444">4</text>
<line x1="363.3" y1="830" x2="363.3" y2="833" stroke="#444"/>
<text x="363.3" y="845" text-anchor="middle" fill="#444">5</text>
<line x1="72" y1="830.0" x2="75" y2="830.0" stroke="#444"/>
<text x="69" y="833.0" text-anchor="end" fill="#444">-1.5</text>
<line x1="72" y1="790.0" x2="75" y2="790.0" stroke="#444"/>
<text x="69" y="793.0" text-anchor="end" fill="#444">-0.98</text>
<line x1="72" y1="750.0" x2="75" y2="750.0" stroke="#444"/>
<text x="69" y="753.0" text-anchor="end" fill="#444">-0.49</text>
<line x1="72" y1="710.0" x2="75" y2="710.0" stroke="#444"/>
<text x="69" y="713.0" text-anchor="end" fill="#444">0.0021</text>
<line x1="72" y1="670.0" x2="75" y2="670.0" stroke="#444"/>
<text x="69" y="673.0" text-anchor="end" fill="#444">0.49</text>
<text x="226.0" y="864" text-anchor="middle" fill="#444">Event time (years from adoption)</text>
<text x="27" y="750.0" text-anchor="middle" fill="#444" transform="rotate(-90 27 750.0)">ATT (per 100k)</text>
<rect x="425" y="620" width="380" height="260" fill="#fafaf7" stroke="#e2e2dc"/>
<text x="615.0" y="638" text-anchor="middle" font-weight="600">Motor vehicle theft rate (per 100k) [placebo]</text>
<line x1="485" y1="720.1096397549155" x2="787" y2="720.1096397549155" stroke="#aaaaaa" stroke-width="0.7"/>
<polygon points="498.7,670.0 526.2,694.4 553.6,700.6 581.1,695.4 636.0,691.8 663.5,701.1 690.9,705.1 718.4,724.8 745.8,737.7 773.3,733.4 773.3,830.0 745.8,817.9 718.4,792.4 690.9,763.4 663.5,739.2 636.0,730.3 581.1,718.3 553.6,735.7 526.2,744.7 498.7,733.3" fill="#1f3a5f" opacity="0.18"/>
<polyline points="498.7,701.6 526.2,719.6 553.6,718.2 581.1,706.9 636.0,711.1 663.5,720.1 690.9,734.3 718.4,758.6 745.8,777.8 773.3,781.7" fill="none" stroke="#1f3a5f" stroke-width="1.6"/>
<circle cx="498.7" cy="701.6" r="2.6" fill="#1f3a5f"/>
<circle cx="526.2" cy="719.6" r="2.6" fill="#1f3a5f"/>
<circle cx="553.6" cy="718.2" r="2.6" fill="#1f3a5f"/>
<circle cx="581.1" cy="706.9" r="2.6" fill="#1f3a5f"/>
<circle cx="636.0" cy="711.1" r="2.6" fill="#1f3a5f"/>
<circle cx="663.5" cy="720.1" r="2.6" fill="#1f3a5f"/>
<circle cx="690.9" cy="734.3" r="2.6" fill="#1f3a5f"/>
<circle cx="718.4" cy="758.6" r="2.6" fill="#1f3a5f"/>
<circle cx="745.8" cy="777.8" r="2.6" fill="#1f3a5f"/>
<circle cx="773.3" cy="781.7" r="2.6" fill="#1f3a5f"/>
<line x1="622.3" y1="670" x2="622.3" y2="830" stroke="#b9461a" stroke-dasharray="3 3"/>
<line x1="485" y1="830" x2="787" y2="830" stroke="#444"/>
<line x1="485" y1="670" x2="485" y2="830" stroke="#444"/>
<line x1="498.7" y1="830" x2="498.7" y2="833" stroke="#444"/>
<text x="498.7" y="845" text-anchor="middle" fill="#444">-5</text>
<line x1="526.2" y1="830" x2="526.2" y2="833" stroke="#444"/>
<text x="526.2" y="845" text-anchor="middle" fill="#444">-4</text>
<line x1="553.6" y1="830" x2="553.6" y2="833" stroke="#444"/>
<text x="553.6" y="845" text-anchor="middle" fill="#444">-3</text>
<line x1="581.1" y1="830" x2="581.1" y2="833" stroke="#444"/>
<text x="581.1" y="845" text-anchor="middle" fill="#444">-2</text>
<line x1="636.0" y1="830" x2="636.0" y2="833" stroke="#444"/>
<text x="636.0" y="845" text-anchor="middle" fill="#444">0</text>
<line x1="663.5" y1="830" x2="663.5" y2="833" stroke="#444"/>
<text x="663.5" y="845" text-anchor="middle" fill="#444">1</text>
<line x1="690.9" y1="830" x2="690.9" y2="833" stroke="#444"/>
<text x="690.9" y="845" text-anchor="middle" fill="#444">2</text>
<line x1="718.4" y1="830" x2="718.4" y2="833" stroke="#444"/>
<text x="718.4" y="845" text-anchor="middle" fill="#444">3</text>
<line x1="745.8" y1="830" x2="745.8" y2="833" stroke="#444"/>
<text x="745.8" y="845" text-anchor="middle" fill="#444">4</text>
<line x1="773.3" y1="830" x2="773.3" y2="833" stroke="#444"/>
<text x="773.3" y="845" text-anchor="middle" fill="#444">5</text>
<line x1="482" y1="830.0" x2="485" y2="830.0" stroke="#444"/>
<text x="479" y="833.0" text-anchor="end" fill="#444">-1.3e+02</text>
<line x1="482" y1="790.0" x2="485" y2="790.0" stroke="#444"/>
<text x="479" y="793.0" text-anchor="end" fill="#444">-80</text>
<line x1="482" y1="750.0" x2="485" y2="750.0" stroke="#444"/>
<text x="479" y="753.0" text-anchor="end" fill="#444">-34</text>
<line x1="482" y1="710.0" x2="485" y2="710.0" stroke="#444"/>
<text x="479" y="713.0" text-anchor="end" fill="#444">12</text>
<line x1="482" y1="670.0" x2="485" y2="670.0" stroke="#444"/>
<text x="479" y="673.0" text-anchor="end" fill="#444">57</text>
<text x="636.0" y="864" text-anchor="middle" fill="#444">Event time (years from adoption)</text>
<text x="437" y="750.0" text-anchor="middle" fill="#444" transform="rotate(-90 437 750.0)">ATT (per 100k)</text>
<text x="805" y="608" text-anchor="end" fill="#888" font-size="10">Shaded band: pointwise 95% CI from cluster bootstrap. Vertical dashed line marks the year before adoption.</text>
</svg>