<svg xmlns="http://www.w3.org/2000/svg" viewBox="0 0 820 620" font-family="-apple-system, Segoe UI, Helvetica, Arial, sans-serif" font-size="11">
<text x="410.0" y="22" text-anchor="middle" font-size="14" font-weight="600">Callaway-Sant'Anna ATT by event time (RA) -- stand-your-ground (nosyg)</text>
<rect x="15" y="40" width="380" height="260" fill="#fafaf7" stroke="#e2e2dc"/>
<text x="205.0" y="58" text-anchor="middle" font-weight="600">Firearm suicide rate (per 100k)</text>
<line x1="75" y1="152.35296956406512" x2="377" y2="152.35296956406512" stroke="#aaaaaa" stroke-width="0.7"/>
<polygon points="88.7,172.5 116.2,181.1 143.6,154.9 171.1,168.5 226.0,113.1 253.5,131.3 280.9,90.0 308.4,97.1 335.8,146.3 363.3,111.5 363.3,176.1 335.8,204.7 308.4,173.6 280.9,139.2 253.5,197.3 226.0,158.4 171.1,214.8 143.6,220.0 116.2,250.0 88.7,236.3" fill="#1f3a5f" opacity="0.18"/>
<polyline points="88.7,204.4 116.2,215.6 143.6,187.4 171.1,191.6 226.0,135.8 253.5,164.3 280.9,114.6 308.4,135.4 335.8,175.5 363.3,143.8" fill="none" stroke="#1f3a5f" stroke-width="1.6"/>
<circle cx="88.7" cy="204.4" r="2.6" fill="#1f3a5f"/>
<circle cx="116.2" cy="215.6" r="2.6" fill="#1f3a5f"/>
<circle cx="143.6" cy="187.4" r="2.6" fill="#1f3a5f"/>
<circle cx="171.1" cy="191.6" r="2.6" fill="#1f3a5f"/>
<circle cx="226.0" cy="135.8" r="2.6" fill="#1f3a5f"/>
<circle cx="253.5" cy="164.3" r="2.6" fill="#1f3a5f"/>
<circle cx="280.9" cy="114.6" r="2.6" fill="#1f3a5f"/>
<circle cx="308.4" cy="135.4" r="2.6" fill="#1f3a5f"/>
<circle cx="335.8" cy="175.5" r="2.6" fill="#1f3a5f"/>
<circle cx="363.3" cy="143.8" r="2.6" fill="#1f3a5f"/>
<line x1="212.3" y1="90" x2="212.3" y2="250" stroke="#b9461a" stroke-dasharray="3 3"/>
<line x1="75" y1="250" x2="377" y2="250" stroke="#444"/>
<line x1="75" y1="90" x2="75" y2="250" stroke="#444"/>
<line x1="88.7" y1="250" x2="88.7" y2="253" stroke="#444"/>
<text x="88.7" y="265" text-anchor="middle" fill="#444">-5</text>
<line x1="116.2" y1="250" x2="116.2" y2="253" stroke="#444"/>
<text x="116.2" y="265" text-anchor="middle" fill="#444">-4</text>
<line x1="143.6" y1="250" x2="143.6" y2="253" stroke="#444"/>
<text x="143.6" y="265" text-anchor="middle" fill="#444">-3</text>
<line x1="171.1" y1="250" x2="171.1" y2="253" stroke="#444"/>
<text x="171.1" y="265" text-anchor="middle" fill="#444">-2</text>
<line x1="226.0" y1="250" x2="226.0" y2="253" stroke="#444"/>
<text x="226.0" y="265" text-anchor="middle" fill="#444">0</text>
<line x1="253.5" y1="250" x2="253.5" y2="253" stroke="#444"/>
<text x="253.5" y="265" text-anchor="middle" fill="#444">1</text>
<line x1="280.9" y1="250" x2="280.9" y2="253" stroke="#444"/>
<text x="280.9" y="265" text-anchor="middle" fill="#444">2</text>
<line x1="308.4" y1="250" x2="308.4" y2="253" stroke="#444"/>
<text x="308.4" y="265" text-anchor="middle" fill="#444">3</text>
<line x1="335.8" y1="250" x2="335.8" y2="253" stroke="#444"/>
<text x="335.8" y="265" text-anchor="middle" fill="#444">4</text>
<line x1="363.3" y1="250" x2="363.3" y2="253" stroke="#444"/>
<text x="363.3" y="265" text-anchor="middle" fill="#444">5</text>
<line x1="72" y1="250.0" x2="75" y2="250.0" stroke="#444"/>
<text x="69" y="253.0" text-anchor="end" fill="#444">-0.67</text>
<line x1="72" y1="210.0" x2="75" y2="210.0" stroke="#444"/>
<text x="69" y="213.0" text-anchor="end" fill="#444">-0.39</text>
<line x1="72" y1="170.0" x2="75" y2="170.0" stroke="#444"/>
<text x="69" y="173.0" text-anchor="end" fill="#444">-0.12</text>
<line x1="72" y1="130.0" x2="75" y2="130.0" stroke="#444"/>
<text x="69" y="133.0" text-anchor="end" fill="#444">0.15</text>
<line x1="72" y1="90.0" x2="75" y2="90.0" stroke="#444"/>
<text x="69" y="93.0" text-anchor="end" fill="#444">0.43</text>
<text x="226.0" y="284" text-anchor="middle" fill="#444">Event time (years from adoption)</text>
<text x="27" y="170.0" text-anchor="middle" fill="#444" transform="rotate(-90 27 170.0)">ATT (per 100k)</text>
<rect x="425" y="40" width="380" height="260" fill="#fafaf7" stroke="#e2e2dc"/>
<text x="615.0" y="58" text-anchor="middle" font-weight="600">Non-firearm suicide rate (per 100k) [substitution test]</text>
<line x1="485" y1="135.37332187617426" x2="787" y2="135.37332187617426" stroke="#aaaaaa" stroke-width="0.7"/>
<polygon points="498.7,94.5 526.2,115.8 553.6,90.9 581.1,174.4 636.0,112.1 663.5,189.7 690.9,140.3 718.4,120.1 745.8,90.0 773.3,138.8 773.3,220.1 745.8,175.5 718.4,195.4 690.9,222.1 663.5,250.0 636.0,183.8 581.1,223.4 553.6,171.1 526.2,183.4 498.7,167.1" fill="#1f3a5f" opacity="0.18"/>
<polyline points="498.7,130.8 526.2,149.6 553.6,131.0 581.1,198.9 636.0,148.0 663.5,219.8 690.9,181.2 718.4,157.7 745.8,132.8 773.3,179.4" fill="none" stroke="#1f3a5f" stroke-width="1.6"/>
<circle cx="498.7" cy="130.8" r="2.6" fill="#1f3a5f"/>
<circle cx="526.2" cy="149.6" r="2.6" fill="#1f3a5f"/>
<circle cx="553.6" cy="131.0" r="2.6" fill="#1f3a5f"/>
<circle cx="581.1" cy="198.9" r="2.6" fill="#1f3a5f"/>
<circle cx="636.0" cy="148.0" r="2.6" fill="#1f3a5f"/>
<circle cx="663.5" cy="219.8" r="2.6" fill="#1f3a5f"/>
<circle cx="690.9" cy="181.2" r="2.6" fill="#1f3a5f"/>
<circle cx="718.4" cy="157.7" r="2.6" fill="#1f3a5f"/>
<circle cx="745.8" cy="132.8" r="2.6" fill="#1f3a5f"/>
<circle cx="773.3" cy="179.4" r="2.6" fill="#1f3a5f"/>
<line x1="622.3" y1="90" x2="622.3" y2="250" stroke="#b9461a" stroke-dasharray="3 3"/>
<line x1="485" y1="250" x2="787" y2="250" stroke="#444"/>
<line x1="485" y1="90" x2="485" y2="250" stroke="#444"/>
<line x1="498.7" y1="250" x2="498.7" y2="253" stroke="#444"/>
<text x="498.7" y="265" text-anchor="middle" fill="#444">-5</text>
<line x1="526.2" y1="250" x2="526.2" y2="253" stroke="#444"/>
<text x="526.2" y="265" text-anchor="middle" fill="#444">-4</text>
<line x1="553.6" y1="250" x2="553.6" y2="253" stroke="#444"/>
<text x="553.6" y="265" text-anchor="middle" fill="#444">-3</text>
<line x1="581.1" y1="250" x2="581.1" y2="253" stroke="#444"/>
<text x="581.1" y="265" text-anchor="middle" fill="#444">-2</text>
<line x1="636.0" y1="250" x2="636.0" y2="253" stroke="#444"/>
<text x="636.0" y="265" text-anchor="middle" fill="#444">0</text>
<line x1="663.5" y1="250" x2="663.5" y2="253" stroke="#444"/>
<text x="663.5" y="265" text-anchor="middle" fill="#444">1</text>
<line x1="690.9" y1="250" x2="690.9" y2="253" stroke="#444"/>
<text x="690.9" y="265" text-anchor="middle" fill="#444">2</text>
<line x1="718.4" y1="250" x2="718.4" y2="253" stroke="#444"/>
<text x="718.4" y="265" text-anchor="middle" fill="#444">3</text>
<line x1="745.8" y1="250" x2="745.8" y2="253" stroke="#444"/>
<text x="745.8" y="265" text-anchor="middle" fill="#444">4</text>
<line x1="773.3" y1="250" x2="773.3" y2="253" stroke="#444"/>
<text x="773.3" y="265" text-anchor="middle" fill="#444">5</text>
<line x1="482" y1="250.0" x2="485" y2="250.0" stroke="#444"/>
<text x="479" y="253.0" text-anchor="end" fill="#444">-0.57</text>
<line x1="482" y1="210.0" x2="485" y2="210.0" stroke="#444"/>
<text x="479" y="213.0" text-anchor="end" fill="#444">-0.37</text>
<line x1="482" y1="170.0" x2="485" y2="170.0" stroke="#444"/>
<text x="479" y="173.0" text-anchor="end" fill="#444">-0.17</text>
<line x1="482" y1="130.0" x2="485" y2="130.0" stroke="#444"/>
<text x="479" y="133.0" text-anchor="end" fill="#444">0.027</text>
<line x1="482" y1="90.0" x2="485" y2="90.0" stroke="#444"/>
<text x="479" y="93.0" text-anchor="end" fill="#444">0.23</text>
<text x="636.0" y="284" text-anchor="middle" fill="#444">Event time (years from adoption)</text>
<text x="437" y="170.0" text-anchor="middle" fill="#444" transform="rotate(-90 437 170.0)">ATT (per 100k)</text>
<rect x="15" y="330" width="380" height="260" fill="#fafaf7" stroke="#e2e2dc"/>
<text x="205.0" y="348" text-anchor="middle" font-weight="600">Total suicide rate (per 100k) [net effect]</text>
<line x1="75" y1="427.8033487126246" x2="377" y2="427.8033487126246" stroke="#aaaaaa" stroke-width="0.7"/>
<polygon points="88.7,434.0 116.2,465.0 143.6,420.6 171.1,489.5 226.0,394.4 253.5,461.1 280.9,380.0 308.4,381.3 335.8,407.9 363.3,416.1 363.3,486.3 335.8,489.5 308.4,473.1 280.9,467.4 253.5,540.0 226.0,446.8 171.1,535.3 143.6,497.7 116.2,535.6 88.7,517.4" fill="#1f3a5f" opacity="0.18"/>
<polyline points="88.7,475.7 116.2,500.3 143.6,459.1 171.1,512.4 226.0,420.6 253.5,500.6 280.9,423.7 308.4,427.2 335.8,448.7 363.3,451.2" fill="none" stroke="#1f3a5f" stroke-width="1.6"/>
<circle cx="88.7" cy="475.7" r="2.6" fill="#1f3a5f"/>
<circle cx="116.2" cy="500.3" r="2.6" fill="#1f3a5f"/>
<circle cx="143.6" cy="459.1" r="2.6" fill="#1f3a5f"/>
<circle cx="171.1" cy="512.4" r="2.6" fill="#1f3a5f"/>
<circle cx="226.0" cy="420.6" r="2.6" fill="#1f3a5f"/>
<circle cx="253.5" cy="500.6" r="2.6" fill="#1f3a5f"/>
<circle cx="280.9" cy="423.7" r="2.6" fill="#1f3a5f"/>
<circle cx="308.4" cy="427.2" r="2.6" fill="#1f3a5f"/>
<circle cx="335.8" cy="448.7" r="2.6" fill="#1f3a5f"/>
<circle cx="363.3" cy="451.2" r="2.6" fill="#1f3a5f"/>
<line x1="212.3" y1="380" x2="212.3" y2="540" stroke="#b9461a" stroke-dasharray="3 3"/>
<line x1="75" y1="540" x2="377" y2="540" stroke="#444"/>
<line x1="75" y1="380" x2="75" y2="540" stroke="#444"/>
<line x1="88.7" y1="540" x2="88.7" y2="543" stroke="#444"/>
<text x="88.7" y="555" text-anchor="middle" fill="#444">-5</text>
<line x1="116.2" y1="540" x2="116.2" y2="543" stroke="#444"/>
<text x="116.2" y="555" text-anchor="middle" fill="#444">-4</text>
<line x1="143.6" y1="540" x2="143.6" y2="543" stroke="#444"/>
<text x="143.6" y="555" text-anchor="middle" fill="#444">-3</text>
<line x1="171.1" y1="540" x2="171.1" y2="543" stroke="#444"/>
<text x="171.1" y="555" text-anchor="middle" fill="#444">-2</text>
<line x1="226.0" y1="540" x2="226.0" y2="543" stroke="#444"/>
<text x="226.0" y="555" text-anchor="middle" fill="#444">0</text>
<line x1="253.5" y1="540" x2="253.5" y2="543" stroke="#444"/>
<text x="253.5" y="555" text-anchor="middle" fill="#444">1</text>
<line x1="280.9" y1="540" x2="280.9" y2="543" stroke="#444"/>
<text x="280.9" y="555" text-anchor="middle" fill="#444">2</text>
<line x1="308.4" y1="540" x2="308.4" y2="543" stroke="#444"/>
<text x="308.4" y="555" text-anchor="middle" fill="#444">3</text>
<line x1="335.8" y1="540" x2="335.8" y2="543" stroke="#444"/>
<text x="335.8" y="555" text-anchor="middle" fill="#444">4</text>
<line x1="363.3" y1="540" x2="363.3" y2="543" stroke="#444"/>
<text x="363.3" y="555" text-anchor="middle" fill="#444">5</text>
<line x1="72" y1="540.0" x2="75" y2="540.0" stroke="#444"/>
<text x="69" y="543.0" text-anchor="end" fill="#444">-0.78</text>
<line x1="72" y1="500.0" x2="75" y2="500.0" stroke="#444"/>
<text x="69" y="503.0" text-anchor="end" fill="#444">-0.5</text>
<line x1="72" y1="460.0" x2="75" y2="460.0" stroke="#444"/>
<text x="69" y="463.0" text-anchor="end" fill="#444">-0.22</text>
<line x1="72" y1="420.0" x2="75" y2="420.0" stroke="#444"/>
<text x="69" y="423.0" text-anchor="end" fill="#444">0.054</text>
<line x1="72" y1="380.0" x2="75" y2="380.0" stroke="#444"/>
<text x="69" y="383.0" text-anchor="end" fill="#444">0.33</text>
<text x="226.0" y="574" text-anchor="middle" fill="#444">Event time (years from adoption)</text>
<text x="27" y="460.0" text-anchor="middle" fill="#444" transform="rotate(-90 27 460.0)">ATT (per 100k)</text>
<rect x="425" y="330" width="380" height="260" fill="#fafaf7" stroke="#e2e2dc"/>
<text x="615.0" y="348" text-anchor="middle" font-weight="600">Firearm homicide rate (per 100k)</text>
<line x1="485" y1="504.0327382916201" x2="787" y2="504.0327382916201" stroke="#aaaaaa" stroke-width="0.7"/>
<polygon points="498.7,461.9 526.2,485.4 553.6,485.6 581.1,485.3 636.0,440.1 663.5,380.0 690.9,403.8 718.4,444.1 745.8,443.4 773.3,437.1 773.3,510.0 745.8,499.2 718.4,499.4 690.9,463.4 663.5,431.4 636.0,487.1 581.1,530.5 553.6,531.7 526.2,540.0 498.7,528.2" fill="#1f3a5f" opacity="0.18"/>
<polyline points="498.7,495.0 526.2,512.7 553.6,508.7 581.1,507.9 636.0,463.6 663.5,405.7 690.9,433.6 718.4,471.7 745.8,471.3 773.3,473.5" fill="none" stroke="#1f3a5f" stroke-width="1.6"/>
<circle cx="498.7" cy="495.0" r="2.6" fill="#1f3a5f"/>
<circle cx="526.2" cy="512.7" r="2.6" fill="#1f3a5f"/>
<circle cx="553.6" cy="508.7" r="2.6" fill="#1f3a5f"/>
<circle cx="581.1" cy="507.9" r="2.6" fill="#1f3a5f"/>
<circle cx="636.0" cy="463.6" r="2.6" fill="#1f3a5f"/>
<circle cx="663.5" cy="405.7" r="2.6" fill="#1f3a5f"/>
<circle cx="690.9" cy="433.6" r="2.6" fill="#1f3a5f"/>
<circle cx="718.4" cy="471.7" r="2.6" fill="#1f3a5f"/>
<circle cx="745.8" cy="471.3" r="2.6" fill="#1f3a5f"/>
<circle cx="773.3" cy="473.5" r="2.6" fill="#1f3a5f"/>
<line x1="622.3" y1="380" x2="622.3" y2="540" stroke="#b9461a" stroke-dasharray="3 3"/>
<line x1="485" y1="540" x2="787" y2="540" stroke="#444"/>
<line x1="485" y1="380" x2="485" y2="540" stroke="#444"/>
<line x1="498.7" y1="540" x2="498.7" y2="543" stroke="#444"/>
<text x="498.7" y="555" text-anchor="middle" fill="#444">-5</text>
<line x1="526.2" y1="540" x2="526.2" y2="543" stroke="#444"/>
<text x="526.2" y="555" text-anchor="middle" fill="#444">-4</text>
<line x1="553.6" y1="540" x2="553.6" y2="543" stroke="#444"/>
<text x="553.6" y="555" text-anchor="middle" fill="#444">-3</text>
<line x1="581.1" y1="540" x2="581.1" y2="543" stroke="#444"/>
<text x="581.1" y="555" text-anchor="middle" fill="#444">-2</text>
<line x1="636.0" y1="540" x2="636.0" y2="543" stroke="#444"/>
<text x="636.0" y="555" text-anchor="middle" fill="#444">0</text>
<line x1="663.5" y1="540" x2="663.5" y2="543" stroke="#444"/>
<text x="663.5" y="555" text-anchor="middle" fill="#444">1</text>
<line x1="690.9" y1="540" x2="690.9" y2="543" stroke="#444"/>
<text x="690.9" y="555" text-anchor="middle" fill="#444">2</text>
<line x1="718.4" y1="540" x2="718.4" y2="543" stroke="#444"/>
<text x="718.4" y="555" text-anchor="middle" fill="#444">3</text>
<line x1="745.8" y1="540" x2="745.8" y2="543" stroke="#444"/>
<text x="745.8" y="555" text-anchor="middle" fill="#444">4</text>
<line x1="773.3" y1="540" x2="773.3" y2="543" stroke="#444"/>
<text x="773.3" y="555" text-anchor="middle" fill="#444">5</text>
<line x1="482" y1="540.0" x2="485" y2="540.0" stroke="#444"/>
<text x="479" y="543.0" text-anchor="end" fill="#444">-0.18</text>
<line x1="482" y1="500.0" x2="485" y2="500.0" stroke="#444"/>
<text x="479" y="503.0" text-anchor="end" fill="#444">0.02</text>
<line x1="482" y1="460.0" x2="485" y2="460.0" stroke="#444"/>
<text x="479" y="463.0" text-anchor="end" fill="#444">0.22</text>
<line x1="482" y1="420.0" x2="485" y2="420.0" stroke="#444"/>
<text x="479" y="423.0" text-anchor="end" fill="#444">0.41</text>
<line x1="482" y1="380.0" x2="485" y2="380.0" stroke="#444"/>
<text x="479" y="383.0" text-anchor="end" fill="#444">0.61</text>
<text x="636.0" y="574" text-anchor="middle" fill="#444">Event time (years from adoption)</text>
<text x="437" y="460.0" text-anchor="middle" fill="#444" transform="rotate(-90 437 460.0)">ATT (per 100k)</text>
<rect x="15" y="620" width="380" height="260" fill="#fafaf7" stroke="#e2e2dc"/>
<text x="205.0" y="638" text-anchor="middle" font-weight="600">Total homicide rate (per 100k)</text>
<line x1="75" y1="779.1131328200593" x2="377" y2="779.1131328200593" stroke="#aaaaaa" stroke-width="0.7"/>
<polygon points="88.7,716.0 116.2,761.6 143.6,705.7 171.1,748.4 226.0,710.2 253.5,670.0 280.9,717.7 308.4,733.8 335.8,740.8 363.3,736.7 363.3,799.7 335.8,797.0 308.4,818.3 280.9,771.7 253.5,752.1 226.0,754.9 171.1,815.0 143.6,778.8 116.2,830.0 88.7,804.5" fill="#1f3a5f" opacity="0.18"/>
<polyline points="88.7,760.2 116.2,795.8 143.6,742.2 171.1,781.7 226.0,732.6 253.5,711.1 280.9,744.7 308.4,776.1 335.8,768.9 363.3,768.2" fill="none" stroke="#1f3a5f" stroke-width="1.6"/>
<circle cx="88.7" cy="760.2" r="2.6" fill="#1f3a5f"/>
<circle cx="116.2" cy="795.8" r="2.6" fill="#1f3a5f"/>
<circle cx="143.6" cy="742.2" r="2.6" fill="#1f3a5f"/>
<circle cx="171.1" cy="781.7" r="2.6" fill="#1f3a5f"/>
<circle cx="226.0" cy="732.6" r="2.6" fill="#1f3a5f"/>
<circle cx="253.5" cy="711.1" r="2.6" fill="#1f3a5f"/>
<circle cx="280.9" cy="744.7" r="2.6" fill="#1f3a5f"/>
<circle cx="308.4" cy="776.1" r="2.6" fill="#1f3a5f"/>
<circle cx="335.8" cy="768.9" r="2.6" fill="#1f3a5f"/>
<circle cx="363.3" cy="768.2" r="2.6" fill="#1f3a5f"/>
<line x1="212.3" y1="670" x2="212.3" y2="830" stroke="#b9461a" stroke-dasharray="3 3"/>
<line x1="75" y1="830" x2="377" y2="830" stroke="#444"/>
<line x1="75" y1="670" x2="75" y2="830" stroke="#444"/>
<line x1="88.7" y1="830" x2="88.7" y2="833" stroke="#444"/>
<text x="88.7" y="845" text-anchor="middle" fill="#444">-5</text>
<line x1="116.2" y1="830" x2="116.2" y2="833" stroke="#444"/>
<text x="116.2" y="845" text-anchor="middle" fill="#444">-4</text>
<line x1="143.6" y1="830" x2="143.6" y2="833" stroke="#444"/>
<text x="143.6" y="845" text-anchor="middle" fill="#444">-3</text>
<line x1="171.1" y1="830" x2="171.1" y2="833" stroke="#444"/>
<text x="171.1" y="845" text-anchor="middle" fill="#444">-2</text>
<line x1="226.0" y1="830" x2="226.0" y2="833" stroke="#444"/>
<text x="226.0" y="845" text-anchor="middle" fill="#444">0</text>
<line x1="253.5" y1="830" x2="253.5" y2="833" stroke="#444"/>
<text x="253.5" y="845" text-anchor="middle" fill="#444">1</text>
<line x1="280.9" y1="830" x2="280.9" y2="833" stroke="#444"/>
<text x="280.9" y="845" text-anchor="middle" fill="#444">2</text>
<line x1="308.4" y1="830" x2="308.4" y2="833" stroke="#444"/>
<text x="308.4" y="845" text-anchor="middle" fill="#444">3</text>
<line x1="335.8" y1="830" x2="335.8" y2="833" stroke="#444"/>
<text x="335.8" y="845" text-anchor="middle" fill="#444">4</text>
<line x1="363.3" y1="830" x2="363.3" y2="833" stroke="#444"/>
<text x="363.3" y="845" text-anchor="middle" fill="#444">5</text>
<line x1="72" y1="830.0" x2="75" y2="830.0" stroke="#444"/>
<text x="69" y="833.0" text-anchor="end" fill="#444">-0.29</text>
<line x1="72" y1="790.0" x2="75" y2="790.0" stroke="#444"/>
<text x="69" y="793.0" text-anchor="end" fill="#444">-0.063</text>
<line x1="72" y1="750.0" x2="75" y2="750.0" stroke="#444"/>
<text x="69" y="753.0" text-anchor="end" fill="#444">0.17</text>
<line x1="72" y1="710.0" x2="75" y2="710.0" stroke="#444"/>
<text x="69" y="713.0" text-anchor="end" fill="#444">0.4</text>
<line x1="72" y1="670.0" x2="75" y2="670.0" stroke="#444"/>
<text x="69" y="673.0" text-anchor="end" fill="#444">0.63</text>
<text x="226.0" y="864" text-anchor="middle" fill="#444">Event time (years from adoption)</text>
<text x="27" y="750.0" text-anchor="middle" fill="#444" transform="rotate(-90 27 750.0)">ATT (per 100k)</text>
<rect x="425" y="620" width="380" height="260" fill="#fafaf7" stroke="#e2e2dc"/>
<text x="615.0" y="638" text-anchor="middle" font-weight="600">Motor vehicle theft rate (per 100k) [placebo]</text>
<line x1="485" y1="830.0" x2="787" y2="830.0" stroke="#aaaaaa" stroke-width="0.7"/>
<polygon points="498.7,670.0 526.2,700.1 553.6,737.4 581.1,774.7 636.0,776.6 663.5,771.4 690.9,738.0 718.4,708.8 745.8,705.1 773.3,728.5 773.3,818.9 745.8,784.7 718.4,791.8 690.9,817.3 663.5,827.0 636.0,824.7 581.1,805.4 553.6,782.9 526.2,767.1 498.7,756.0" fill="#1f3a5f" opacity="0.18"/>
<polyline points="498.7,713.0 526.2,733.6 553.6,760.2 581.1,790.0 636.0,800.6 663.5,799.2 690.9,777.7 718.4,750.3 745.8,744.9 773.3,773.7" fill="none" stroke="#1f3a5f" stroke-width="1.6"/>
<circle cx="498.7" cy="713.0" r="2.6" fill="#1f3a5f"/>
<circle cx="526.2" cy="733.6" r="2.6" fill="#1f3a5f"/>
<circle cx="553.6" cy="760.2" r="2.6" fill="#1f3a5f"/>
<circle cx="581.1" cy="790.0" r="2.6" fill="#1f3a5f"/>
<circle cx="636.0" cy="800.6" r="2.6" fill="#1f3a5f"/>
<circle cx="663.5" cy="799.2" r="2.6" fill="#1f3a5f"/>
<circle cx="690.9" cy="777.7" r="2.6" fill="#1f3a5f"/>
<circle cx="718.4" cy="750.3" r="2.6" fill="#1f3a5f"/>
<circle cx="745.8" cy="744.9" r="2.6" fill="#1f3a5f"/>
<circle cx="773.3" cy="773.7" r="2.6" fill="#1f3a5f"/>
<line x1="622.3" y1="670" x2="622.3" y2="830" stroke="#b9461a" stroke-dasharray="3 3"/>
<line x1="485" y1="830" x2="787" y2="830" stroke="#444"/>
<line x1="485" y1="670" x2="485" y2="830" stroke="#444"/>
<line x1="498.7" y1="830" x2="498.7" y2="833" stroke="#444"/>
<text x="498.7" y="845" text-anchor="middle" fill="#444">-5</text>
<line x1="526.2" y1="830" x2="526.2" y2="833" stroke="#444"/>
<text x="526.2" y="845" text-anchor="middle" fill="#444">-4</text>
<line x1="553.6" y1="830" x2="553.6" y2="833" stroke="#444"/>
<text x="553.6" y="845" text-anchor="middle" fill="#444">-3</text>
<line x1="581.1" y1="830" x2="581.1" y2="833" stroke="#444"/>
<text x="581.1" y="845" text-anchor="middle" fill="#444">-2</text>
<line x1="636.0" y1="830" x2="636.0" y2="833" stroke="#444"/>
<text x="636.0" y="845" text-anchor="middle" fill="#444">0</text>
<line x1="663.5" y1="830" x2="663.5" y2="833" stroke="#444"/>
<text x="663.5" y="845" text-anchor="middle" fill="#444">1</text>
<line x1="690.9" y1="830" x2="690.9" y2="833" stroke="#444"/>
<text x="690.9" y="845" text-anchor="middle" fill="#444">2</text>
<line x1="718.4" y1="830" x2="718.4" y2="833" stroke="#444"/>
<text x="718.4" y="845" text-anchor="middle" fill="#444">3</text>
<line x1="745.8" y1="830" x2="745.8" y2="833" stroke="#444"/>
<text x="745.8" y="845" text-anchor="middle" fill="#444">4</text>
<line x1="773.3" y1="830" x2="773.3" y2="833" stroke="#444"/>
<text x="773.3" y="845" text-anchor="middle" fill="#444">5</text>
<line x1="482" y1="830.0" x2="485" y2="830.0" stroke="#444"/>
<text x="479" y="833.0" text-anchor="end" fill="#444">0</text>
<line x1="482" y1="790.0" x2="485" y2="790.0" stroke="#444"/>
<text x="479" y="793.0" text-anchor="end" fill="#444">22</text>
<line x1="482" y1="750.0" x2="485" y2="750.0" stroke="#444"/>
<text x="479" y="753.0" text-anchor="end" fill="#444">43</text>
<line x1="482" y1="710.0" x2="485" y2="710.0" stroke="#444"/>
<text x="479" y="713.0" text-anchor="end" fill="#444">65</text>
<line x1="482" y1="670.0" x2="485" y2="670.0" stroke="#444"/>
<text x="479" y="673.0" text-anchor="end" fill="#444">87</text>
<text x="636.0" y="864" text-anchor="middle" fill="#444">Event time (years from adoption)</text>
<text x="437" y="750.0" text-anchor="middle" fill="#444" transform="rotate(-90 437 750.0)">ATT (per 100k)</text>
<text x="805" y="608" text-anchor="end" fill="#888" font-size="10">Shaded band: pointwise 95% CI from cluster bootstrap. Vertical dashed line marks the year before adoption.</text>
</svg>