<svg xmlns="http://www.w3.org/2000/svg" viewBox="0 0 820 620" font-family="-apple-system, Segoe UI, Helvetica, Arial, sans-serif" font-size="11">
<text x="410.0" y="22" text-anchor="middle" font-size="14" font-weight="600">Callaway-Sant'Anna ATT by event time (RA) -- stand-your-ground (nosyg)</text>
<rect x="15" y="40" width="380" height="260" fill="#fafaf7" stroke="#e2e2dc"/>
<text x="205.0" y="58" text-anchor="middle" font-weight="600">Firearm suicide rate (per 100k)</text>
<line x1="75" y1="175.47517547840357" x2="377" y2="175.47517547840357" stroke="#aaaaaa" stroke-width="0.7"/>
<polygon points="88.7,176.3 88.7,173.7 88.7,167.5 116.2,162.9 116.2,187.2 116.2,177.3 143.6,175.7 143.6,170.8 143.6,173.5 171.1,180.5 171.1,127.0 171.1,140.1 226.0,143.9 226.0,155.9 226.0,157.2 253.5,179.8 253.5,167.7 253.5,164.8 280.9,147.9 280.9,154.3 280.9,147.7 308.4,90.0 308.4,121.6 308.4,145.8 335.8,157.8 335.8,153.5 335.8,107.2 363.3,130.0 363.3,111.4 363.3,151.4 363.3,186.4 363.3,186.9 363.3,203.4 335.8,176.9 335.8,218.2 335.8,188.7 308.4,182.7 308.4,197.5 308.4,157.1 280.9,168.4 280.9,204.5 280.9,186.8 253.5,195.2 253.5,212.5 253.5,235.4 226.0,177.7 226.0,199.5 226.0,187.5 171.1,196.5 171.1,179.9 171.1,201.2 143.6,203.7 143.6,240.8 143.6,250.0 116.2,245.2 116.2,217.1 116.2,231.6 88.7,195.2 88.7,215.4 88.7,229.6" fill="#1f3a5f" opacity="0.18"/>
<polyline points="88.7,202.9 88.7,194.5 88.7,181.4 116.2,197.3 116.2,202.1 116.2,211.3 143.6,212.8 143.6,205.8 143.6,188.6 171.1,190.9 171.1,153.4 171.1,168.3 226.0,165.7 226.0,177.7 226.0,167.5 253.5,207.6 253.5,190.1 253.5,180.0 280.9,167.3 280.9,179.4 280.9,158.0 308.4,123.6 308.4,159.5 308.4,164.2 335.8,173.2 335.8,185.9 335.8,142.1 363.3,166.7 363.3,149.2 363.3,168.9" fill="none" stroke="#1f3a5f" stroke-width="1.6"/>
<circle cx="88.7" cy="202.9" r="2.6" fill="#1f3a5f"/>
<circle cx="88.7" cy="194.5" r="2.6" fill="#1f3a5f"/>
<circle cx="88.7" cy="181.4" r="2.6" fill="#1f3a5f"/>
<circle cx="116.2" cy="197.3" r="2.6" fill="#1f3a5f"/>
<circle cx="116.2" cy="202.1" r="2.6" fill="#1f3a5f"/>
<circle cx="116.2" cy="211.3" r="2.6" fill="#1f3a5f"/>
<circle cx="143.6" cy="212.8" r="2.6" fill="#1f3a5f"/>
<circle cx="143.6" cy="205.8" r="2.6" fill="#1f3a5f"/>
<circle cx="143.6" cy="188.6" r="2.6" fill="#1f3a5f"/>
<circle cx="171.1" cy="190.9" r="2.6" fill="#1f3a5f"/>
<circle cx="171.1" cy="153.4" r="2.6" fill="#1f3a5f"/>
<circle cx="171.1" cy="168.3" r="2.6" fill="#1f3a5f"/>
<circle cx="226.0" cy="165.7" r="2.6" fill="#1f3a5f"/>
<circle cx="226.0" cy="177.7" r="2.6" fill="#1f3a5f"/>
<circle cx="226.0" cy="167.5" r="2.6" fill="#1f3a5f"/>
<circle cx="253.5" cy="207.6" r="2.6" fill="#1f3a5f"/>
<circle cx="253.5" cy="190.1" r="2.6" fill="#1f3a5f"/>
<circle cx="253.5" cy="180.0" r="2.6" fill="#1f3a5f"/>
<circle cx="280.9" cy="167.3" r="2.6" fill="#1f3a5f"/>
<circle cx="280.9" cy="179.4" r="2.6" fill="#1f3a5f"/>
<circle cx="280.9" cy="158.0" r="2.6" fill="#1f3a5f"/>
<circle cx="308.4" cy="123.6" r="2.6" fill="#1f3a5f"/>
<circle cx="308.4" cy="159.5" r="2.6" fill="#1f3a5f"/>
<circle cx="308.4" cy="164.2" r="2.6" fill="#1f3a5f"/>
<circle cx="335.8" cy="173.2" r="2.6" fill="#1f3a5f"/>
<circle cx="335.8" cy="185.9" r="2.6" fill="#1f3a5f"/>
<circle cx="335.8" cy="142.1" r="2.6" fill="#1f3a5f"/>
<circle cx="363.3" cy="166.7" r="2.6" fill="#1f3a5f"/>
<circle cx="363.3" cy="149.2" r="2.6" fill="#1f3a5f"/>
<circle cx="363.3" cy="168.9" r="2.6" fill="#1f3a5f"/>
<line x1="212.3" y1="90" x2="212.3" y2="250" stroke="#b9461a" stroke-dasharray="3 3"/>
<line x1="75" y1="250" x2="377" y2="250" stroke="#444"/>
<line x1="75" y1="90" x2="75" y2="250" stroke="#444"/>
<line x1="88.7" y1="250" x2="88.7" y2="253" stroke="#444"/>
<text x="88.7" y="265" text-anchor="middle" fill="#444">-5</text>
<line x1="116.2" y1="250" x2="116.2" y2="253" stroke="#444"/>
<text x="116.2" y="265" text-anchor="middle" fill="#444">-4</text>
<line x1="143.6" y1="250" x2="143.6" y2="253" stroke="#444"/>
<text x="143.6" y="265" text-anchor="middle" fill="#444">-3</text>
<line x1="171.1" y1="250" x2="171.1" y2="253" stroke="#444"/>
<text x="171.1" y="265" text-anchor="middle" fill="#444">-2</text>
<line x1="226.0" y1="250" x2="226.0" y2="253" stroke="#444"/>
<text x="226.0" y="265" text-anchor="middle" fill="#444">0</text>
<line x1="253.5" y1="250" x2="253.5" y2="253" stroke="#444"/>
<text x="253.5" y="265" text-anchor="middle" fill="#444">1</text>
<line x1="280.9" y1="250" x2="280.9" y2="253" stroke="#444"/>
<text x="280.9" y="265" text-anchor="middle" fill="#444">2</text>
<line x1="308.4" y1="250" x2="308.4" y2="253" stroke="#444"/>
<text x="308.4" y="265" text-anchor="middle" fill="#444">3</text>
<line x1="335.8" y1="250" x2="335.8" y2="253" stroke="#444"/>
<text x="335.8" y="265" text-anchor="middle" fill="#444">4</text>
<line x1="363.3" y1="250" x2="363.3" y2="253" stroke="#444"/>
<text x="363.3" y="265" text-anchor="middle" fill="#444">5</text>
<line x1="72" y1="250.0" x2="75" y2="250.0" stroke="#444"/>
<text x="69" y="253.0" text-anchor="end" fill="#444">-1.2</text>
<line x1="72" y1="210.0" x2="75" y2="210.0" stroke="#444"/>
<text x="69" y="213.0" text-anchor="end" fill="#444">-0.55</text>
<line x1="72" y1="170.0" x2="75" y2="170.0" stroke="#444"/>
<text x="69" y="173.0" text-anchor="end" fill="#444">0.087</text>
<line x1="72" y1="130.0" x2="75" y2="130.0" stroke="#444"/>
<text x="69" y="133.0" text-anchor="end" fill="#444">0.73</text>
<line x1="72" y1="90.0" x2="75" y2="90.0" stroke="#444"/>
<text x="69" y="93.0" text-anchor="end" fill="#444">1.4</text>
<text x="226.0" y="284" text-anchor="middle" fill="#444">Event time (years from adoption)</text>
<text x="27" y="170.0" text-anchor="middle" fill="#444" transform="rotate(-90 27 170.0)">ATT (per 100k)</text>
<rect x="425" y="40" width="380" height="260" fill="#fafaf7" stroke="#e2e2dc"/>
<text x="615.0" y="58" text-anchor="middle" font-weight="600">Non-firearm suicide rate (per 100k) [substitution test]</text>
<line x1="485" y1="127.07254138603372" x2="787" y2="127.07254138603372" stroke="#aaaaaa" stroke-width="0.7"/>
<polygon points="498.7,157.9 498.7,138.7 498.7,112.1 526.2,119.5 526.2,114.5 526.2,127.9 553.6,150.9 553.6,109.4 553.6,115.2 581.1,130.9 581.1,111.8 581.1,127.9 636.0,113.9 636.0,140.8 636.0,118.1 663.5,148.4 663.5,138.9 663.5,163.1 690.9,152.2 690.9,198.9 690.9,148.6 718.4,111.9 718.4,159.6 718.4,108.3 745.8,110.0 745.8,163.2 745.8,114.2 773.3,114.8 773.3,90.0 773.3,122.8 773.3,163.6 773.3,153.3 773.3,177.0 745.8,197.5 745.8,245.4 745.8,163.9 718.4,153.8 718.4,250.0 718.4,218.3 690.9,177.6 690.9,242.0 690.9,194.2 663.5,187.1 663.5,181.7 663.5,199.2 636.0,150.0 636.0,189.6 636.0,167.0 581.1,168.9 581.1,153.5 581.1,150.2 553.6,154.9 553.6,160.5 553.6,191.1 526.2,158.4 526.2,147.2 526.2,152.0 498.7,152.3 498.7,201.0 498.7,216.6" fill="#1f3a5f" opacity="0.18"/>
<polyline points="498.7,187.3 498.7,169.9 498.7,132.2 526.2,135.7 526.2,130.8 526.2,143.1 553.6,171.0 553.6,135.0 553.6,135.0 581.1,140.5 581.1,132.7 581.1,148.4 636.0,140.5 636.0,165.2 636.0,134.1 663.5,173.8 663.5,160.3 663.5,175.1 690.9,173.2 690.9,220.4 690.9,163.1 718.4,165.1 718.4,204.8 718.4,131.1 745.8,137.0 745.8,204.3 745.8,155.8 773.3,145.9 773.3,121.6 773.3,143.2" fill="none" stroke="#1f3a5f" stroke-width="1.6"/>
<circle cx="498.7" cy="187.3" r="2.6" fill="#1f3a5f"/>
<circle cx="498.7" cy="169.9" r="2.6" fill="#1f3a5f"/>
<circle cx="498.7" cy="132.2" r="2.6" fill="#1f3a5f"/>
<circle cx="526.2" cy="135.7" r="2.6" fill="#1f3a5f"/>
<circle cx="526.2" cy="130.8" r="2.6" fill="#1f3a5f"/>
<circle cx="526.2" cy="143.1" r="2.6" fill="#1f3a5f"/>
<circle cx="553.6" cy="171.0" r="2.6" fill="#1f3a5f"/>
<circle cx="553.6" cy="135.0" r="2.6" fill="#1f3a5f"/>
<circle cx="553.6" cy="135.0" r="2.6" fill="#1f3a5f"/>
<circle cx="581.1" cy="140.5" r="2.6" fill="#1f3a5f"/>
<circle cx="581.1" cy="132.7" r="2.6" fill="#1f3a5f"/>
<circle cx="581.1" cy="148.4" r="2.6" fill="#1f3a5f"/>
<circle cx="636.0" cy="140.5" r="2.6" fill="#1f3a5f"/>
<circle cx="636.0" cy="165.2" r="2.6" fill="#1f3a5f"/>
<circle cx="636.0" cy="134.1" r="2.6" fill="#1f3a5f"/>
<circle cx="663.5" cy="173.8" r="2.6" fill="#1f3a5f"/>
<circle cx="663.5" cy="160.3" r="2.6" fill="#1f3a5f"/>
<circle cx="663.5" cy="175.1" r="2.6" fill="#1f3a5f"/>
<circle cx="690.9" cy="173.2" r="2.6" fill="#1f3a5f"/>
<circle cx="690.9" cy="220.4" r="2.6" fill="#1f3a5f"/>
<circle cx="690.9" cy="163.1" r="2.6" fill="#1f3a5f"/>
<circle cx="718.4" cy="165.1" r="2.6" fill="#1f3a5f"/>
<circle cx="718.4" cy="204.8" r="2.6" fill="#1f3a5f"/>
<circle cx="718.4" cy="131.1" r="2.6" fill="#1f3a5f"/>
<circle cx="745.8" cy="137.0" r="2.6" fill="#1f3a5f"/>
<circle cx="745.8" cy="204.3" r="2.6" fill="#1f3a5f"/>
<circle cx="745.8" cy="155.8" r="2.6" fill="#1f3a5f"/>
<circle cx="773.3" cy="145.9" r="2.6" fill="#1f3a5f"/>
<circle cx="773.3" cy="121.6" r="2.6" fill="#1f3a5f"/>
<circle cx="773.3" cy="143.2" r="2.6" fill="#1f3a5f"/>
<line x1="622.3" y1="90" x2="622.3" y2="250" stroke="#b9461a" stroke-dasharray="3 3"/>
<line x1="485" y1="250" x2="787" y2="250" stroke="#444"/>
<line x1="485" y1="90" x2="485" y2="250" stroke="#444"/>
<line x1="498.7" y1="250" x2="498.7" y2="253" stroke="#444"/>
<text x="498.7" y="265" text-anchor="middle" fill="#444">-5</text>
<line x1="526.2" y1="250" x2="526.2" y2="253" stroke="#444"/>
<text x="526.2" y="265" text-anchor="middle" fill="#444">-4</text>
<line x1="553.6" y1="250" x2="553.6" y2="253" stroke="#444"/>
<text x="553.6" y="265" text-anchor="middle" fill="#444">-3</text>
<line x1="581.1" y1="250" x2="581.1" y2="253" stroke="#444"/>
<text x="581.1" y="265" text-anchor="middle" fill="#444">-2</text>
<line x1="636.0" y1="250" x2="636.0" y2="253" stroke="#444"/>
<text x="636.0" y="265" text-anchor="middle" fill="#444">0</text>
<line x1="663.5" y1="250" x2="663.5" y2="253" stroke="#444"/>
<text x="663.5" y="265" text-anchor="middle" fill="#444">1</text>
<line x1="690.9" y1="250" x2="690.9" y2="253" stroke="#444"/>
<text x="690.9" y="265" text-anchor="middle" fill="#444">2</text>
<line x1="718.4" y1="250" x2="718.4" y2="253" stroke="#444"/>
<text x="718.4" y="265" text-anchor="middle" fill="#444">3</text>
<line x1="745.8" y1="250" x2="745.8" y2="253" stroke="#444"/>
<text x="745.8" y="265" text-anchor="middle" fill="#444">4</text>
<line x1="773.3" y1="250" x2="773.3" y2="253" stroke="#444"/>
<text x="773.3" y="265" text-anchor="middle" fill="#444">5</text>
<line x1="482" y1="250.0" x2="485" y2="250.0" stroke="#444"/>
<text x="479" y="253.0" text-anchor="end" fill="#444">-1.6</text>
<line x1="482" y1="210.0" x2="485" y2="210.0" stroke="#444"/>
<text x="479" y="213.0" text-anchor="end" fill="#444">-1.1</text>
<line x1="482" y1="170.0" x2="485" y2="170.0" stroke="#444"/>
<text x="479" y="173.0" text-anchor="end" fill="#444">-0.56</text>
<line x1="482" y1="130.0" x2="485" y2="130.0" stroke="#444"/>
<text x="479" y="133.0" text-anchor="end" fill="#444">-0.039</text>
<line x1="482" y1="90.0" x2="485" y2="90.0" stroke="#444"/>
<text x="479" y="93.0" text-anchor="end" fill="#444">0.49</text>
<text x="636.0" y="284" text-anchor="middle" fill="#444">Event time (years from adoption)</text>
<text x="437" y="170.0" text-anchor="middle" fill="#444" transform="rotate(-90 437 170.0)">ATT (per 100k)</text>
<rect x="15" y="330" width="380" height="260" fill="#fafaf7" stroke="#e2e2dc"/>
<text x="205.0" y="348" text-anchor="middle" font-weight="600">Total suicide rate (per 100k) [net effect]</text>
<line x1="75" y1="438.0871069396904" x2="377" y2="438.0871069396904" stroke="#aaaaaa" stroke-width="0.7"/>
<polygon points="88.7,474.6 88.7,462.4 88.7,430.3 116.2,438.4 116.2,448.8 116.2,451.1 143.6,459.3 143.6,429.4 143.6,437.5 171.1,450.9 171.1,398.1 171.1,416.5 226.0,412.2 226.0,438.2 226.0,424.1 253.5,462.7 253.5,449.5 253.5,460.4 280.9,441.8 280.9,476.3 280.9,434.0 308.4,392.1 308.4,447.8 308.4,410.0 335.8,420.3 335.8,463.5 335.8,393.4 363.3,405.9 363.3,380.0 363.3,426.8 363.3,460.7 363.3,444.7 363.3,481.6 335.8,466.6 335.8,536.7 335.8,465.8 308.4,452.9 308.4,509.1 308.4,449.7 280.9,462.8 280.9,535.2 280.9,484.3 253.5,489.6 253.5,496.9 253.5,531.7 226.0,448.4 226.0,494.2 226.0,466.1 171.1,477.1 171.1,448.9 171.1,469.5 143.6,471.6 143.6,508.4 143.6,540.0 116.2,507.1 116.2,477.1 116.2,486.2 88.7,462.8 88.7,504.8 88.7,530.6" fill="#1f3a5f" opacity="0.18"/>
<polyline points="88.7,502.6 88.7,483.6 88.7,446.6 116.2,462.3 116.2,463.0 116.2,479.1 143.6,499.6 143.6,468.9 143.6,454.6 171.1,460.2 171.1,423.5 171.1,446.8 226.0,439.1 226.0,466.2 226.0,436.2 253.5,497.2 253.5,473.2 253.5,475.0 280.9,463.1 280.9,505.8 280.9,448.4 308.4,420.9 308.4,478.4 308.4,431.5 335.8,443.0 335.8,500.1 335.8,430.0 363.3,443.8 363.3,412.3 363.3,443.7" fill="none" stroke="#1f3a5f" stroke-width="1.6"/>
<circle cx="88.7" cy="502.6" r="2.6" fill="#1f3a5f"/>
<circle cx="88.7" cy="483.6" r="2.6" fill="#1f3a5f"/>
<circle cx="88.7" cy="446.6" r="2.6" fill="#1f3a5f"/>
<circle cx="116.2" cy="462.3" r="2.6" fill="#1f3a5f"/>
<circle cx="116.2" cy="463.0" r="2.6" fill="#1f3a5f"/>
<circle cx="116.2" cy="479.1" r="2.6" fill="#1f3a5f"/>
<circle cx="143.6" cy="499.6" r="2.6" fill="#1f3a5f"/>
<circle cx="143.6" cy="468.9" r="2.6" fill="#1f3a5f"/>
<circle cx="143.6" cy="454.6" r="2.6" fill="#1f3a5f"/>
<circle cx="171.1" cy="460.2" r="2.6" fill="#1f3a5f"/>
<circle cx="171.1" cy="423.5" r="2.6" fill="#1f3a5f"/>
<circle cx="171.1" cy="446.8" r="2.6" fill="#1f3a5f"/>
<circle cx="226.0" cy="439.1" r="2.6" fill="#1f3a5f"/>
<circle cx="226.0" cy="466.2" r="2.6" fill="#1f3a5f"/>
<circle cx="226.0" cy="436.2" r="2.6" fill="#1f3a5f"/>
<circle cx="253.5" cy="497.2" r="2.6" fill="#1f3a5f"/>
<circle cx="253.5" cy="473.2" r="2.6" fill="#1f3a5f"/>
<circle cx="253.5" cy="475.0" r="2.6" fill="#1f3a5f"/>
<circle cx="280.9" cy="463.1" r="2.6" fill="#1f3a5f"/>
<circle cx="280.9" cy="505.8" r="2.6" fill="#1f3a5f"/>
<circle cx="280.9" cy="448.4" r="2.6" fill="#1f3a5f"/>
<circle cx="308.4" cy="420.9" r="2.6" fill="#1f3a5f"/>
<circle cx="308.4" cy="478.4" r="2.6" fill="#1f3a5f"/>
<circle cx="308.4" cy="431.5" r="2.6" fill="#1f3a5f"/>
<circle cx="335.8" cy="443.0" r="2.6" fill="#1f3a5f"/>
<circle cx="335.8" cy="500.1" r="2.6" fill="#1f3a5f"/>
<circle cx="335.8" cy="430.0" r="2.6" fill="#1f3a5f"/>
<circle cx="363.3" cy="443.8" r="2.6" fill="#1f3a5f"/>
<circle cx="363.3" cy="412.3" r="2.6" fill="#1f3a5f"/>
<circle cx="363.3" cy="443.7" r="2.6" fill="#1f3a5f"/>
<line x1="212.3" y1="380" x2="212.3" y2="540" stroke="#b9461a" stroke-dasharray="3 3"/>
<line x1="75" y1="540" x2="377" y2="540" stroke="#444"/>
<line x1="75" y1="380" x2="75" y2="540" stroke="#444"/>
<line x1="88.7" y1="540" x2="88.7" y2="543" stroke="#444"/>
<text x="88.7" y="555" text-anchor="middle" fill="#444">-5</text>
<line x1="116.2" y1="540" x2="116.2" y2="543" stroke="#444"/>
<text x="116.2" y="555" text-anchor="middle" fill="#444">-4</text>
<line x1="143.6" y1="540" x2="143.6" y2="543" stroke="#444"/>
<text x="143.6" y="555" text-anchor="middle" fill="#444">-3</text>
<line x1="171.1" y1="540" x2="171.1" y2="543" stroke="#444"/>
<text x="171.1" y="555" text-anchor="middle" fill="#444">-2</text>
<line x1="226.0" y1="540" x2="226.0" y2="543" stroke="#444"/>
<text x="226.0" y="555" text-anchor="middle" fill="#444">0</text>
<line x1="253.5" y1="540" x2="253.5" y2="543" stroke="#444"/>
<text x="253.5" y="555" text-anchor="middle" fill="#444">1</text>
<line x1="280.9" y1="540" x2="280.9" y2="543" stroke="#444"/>
<text x="280.9" y="555" text-anchor="middle" fill="#444">2</text>
<line x1="308.4" y1="540" x2="308.4" y2="543" stroke="#444"/>
<text x="308.4" y="555" text-anchor="middle" fill="#444">3</text>
<line x1="335.8" y1="540" x2="335.8" y2="543" stroke="#444"/>
<text x="335.8" y="555" text-anchor="middle" fill="#444">4</text>
<line x1="363.3" y1="540" x2="363.3" y2="543" stroke="#444"/>
<text x="363.3" y="555" text-anchor="middle" fill="#444">5</text>
<line x1="72" y1="540.0" x2="75" y2="540.0" stroke="#444"/>
<text x="69" y="543.0" text-anchor="end" fill="#444">-1.9</text>
<line x1="72" y1="500.0" x2="75" y2="500.0" stroke="#444"/>
<text x="69" y="503.0" text-anchor="end" fill="#444">-1.2</text>
<line x1="72" y1="460.0" x2="75" y2="460.0" stroke="#444"/>
<text x="69" y="463.0" text-anchor="end" fill="#444">-0.42</text>
<line x1="72" y1="420.0" x2="75" y2="420.0" stroke="#444"/>
<text x="69" y="423.0" text-anchor="end" fill="#444">0.34</text>
<line x1="72" y1="380.0" x2="75" y2="380.0" stroke="#444"/>
<text x="69" y="383.0" text-anchor="end" fill="#444">1.1</text>
<text x="226.0" y="574" text-anchor="middle" fill="#444">Event time (years from adoption)</text>
<text x="27" y="460.0" text-anchor="middle" fill="#444" transform="rotate(-90 27 460.0)">ATT (per 100k)</text>
<rect x="425" y="330" width="380" height="260" fill="#fafaf7" stroke="#e2e2dc"/>
<text x="615.0" y="348" text-anchor="middle" font-weight="600">Firearm homicide rate (per 100k)</text>
<line x1="485" y1="416.6774773345119" x2="787" y2="416.6774773345119" stroke="#aaaaaa" stroke-width="0.7"/>
<polygon points="498.7,390.1 498.7,453.0 498.7,389.0 526.2,448.4 526.2,394.5 526.2,398.3 553.6,402.9 553.6,443.7 553.6,391.4 581.1,391.6 581.1,409.4 581.1,401.7 636.0,415.1 636.0,394.1 636.0,394.0 663.5,380.0 663.5,396.4 663.5,395.4 690.9,427.7 690.9,383.4 690.9,407.6 718.4,408.6 718.4,396.6 718.4,402.5 745.8,408.8 745.8,401.5 745.8,414.2 773.3,391.0 773.3,411.7 773.3,381.8 773.3,420.6 773.3,465.2 773.3,424.5 745.8,460.7 745.8,426.0 745.8,442.1 718.4,431.3 718.4,418.5 718.4,470.3 690.9,441.7 690.9,415.0 690.9,477.2 663.5,415.4 663.5,422.5 663.5,402.3 636.0,413.7 636.0,415.9 636.0,447.2 581.1,421.0 581.1,441.3 581.1,409.9 553.6,419.3 553.6,489.6 553.6,425.4 526.2,423.5 526.2,424.9 526.2,517.1 498.7,427.3 498.7,540.0 498.7,420.5" fill="#1f3a5f" opacity="0.18"/>
<polyline points="498.7,405.3 498.7,496.5 498.7,408.1 526.2,482.8 526.2,409.7 526.2,410.9 553.6,414.2 553.6,466.6 553.6,405.4 581.1,400.8 581.1,425.4 581.1,411.3 636.0,431.2 636.0,405.0 636.0,403.9 663.5,391.2 663.5,409.5 663.5,405.4 690.9,452.4 690.9,399.2 690.9,424.6 718.4,439.5 718.4,407.5 718.4,416.9 745.8,425.4 745.8,413.7 745.8,437.4 773.3,407.7 773.3,438.5 773.3,401.2" fill="none" stroke="#1f3a5f" stroke-width="1.6"/>
<circle cx="498.7" cy="405.3" r="2.6" fill="#1f3a5f"/>
<circle cx="498.7" cy="496.5" r="2.6" fill="#1f3a5f"/>
<circle cx="498.7" cy="408.1" r="2.6" fill="#1f3a5f"/>
<circle cx="526.2" cy="482.8" r="2.6" fill="#1f3a5f"/>
<circle cx="526.2" cy="409.7" r="2.6" fill="#1f3a5f"/>
<circle cx="526.2" cy="410.9" r="2.6" fill="#1f3a5f"/>
<circle cx="553.6" cy="414.2" r="2.6" fill="#1f3a5f"/>
<circle cx="553.6" cy="466.6" r="2.6" fill="#1f3a5f"/>
<circle cx="553.6" cy="405.4" r="2.6" fill="#1f3a5f"/>
<circle cx="581.1" cy="400.8" r="2.6" fill="#1f3a5f"/>
<circle cx="581.1" cy="425.4" r="2.6" fill="#1f3a5f"/>
<circle cx="581.1" cy="411.3" r="2.6" fill="#1f3a5f"/>
<circle cx="636.0" cy="431.2" r="2.6" fill="#1f3a5f"/>
<circle cx="636.0" cy="405.0" r="2.6" fill="#1f3a5f"/>
<circle cx="636.0" cy="403.9" r="2.6" fill="#1f3a5f"/>
<circle cx="663.5" cy="391.2" r="2.6" fill="#1f3a5f"/>
<circle cx="663.5" cy="409.5" r="2.6" fill="#1f3a5f"/>
<circle cx="663.5" cy="405.4" r="2.6" fill="#1f3a5f"/>
<circle cx="690.9" cy="452.4" r="2.6" fill="#1f3a5f"/>
<circle cx="690.9" cy="399.2" r="2.6" fill="#1f3a5f"/>
<circle cx="690.9" cy="424.6" r="2.6" fill="#1f3a5f"/>
<circle cx="718.4" cy="439.5" r="2.6" fill="#1f3a5f"/>
<circle cx="718.4" cy="407.5" r="2.6" fill="#1f3a5f"/>
<circle cx="718.4" cy="416.9" r="2.6" fill="#1f3a5f"/>
<circle cx="745.8" cy="425.4" r="2.6" fill="#1f3a5f"/>
<circle cx="745.8" cy="413.7" r="2.6" fill="#1f3a5f"/>
<circle cx="745.8" cy="437.4" r="2.6" fill="#1f3a5f"/>
<circle cx="773.3" cy="407.7" r="2.6" fill="#1f3a5f"/>
<circle cx="773.3" cy="438.5" r="2.6" fill="#1f3a5f"/>
<circle cx="773.3" cy="401.2" r="2.6" fill="#1f3a5f"/>
<line x1="622.3" y1="380" x2="622.3" y2="540" stroke="#b9461a" stroke-dasharray="3 3"/>
<line x1="485" y1="540" x2="787" y2="540" stroke="#444"/>
<line x1="485" y1="380" x2="485" y2="540" stroke="#444"/>
<line x1="498.7" y1="540" x2="498.7" y2="543" stroke="#444"/>
<text x="498.7" y="555" text-anchor="middle" fill="#444">-5</text>
<line x1="526.2" y1="540" x2="526.2" y2="543" stroke="#444"/>
<text x="526.2" y="555" text-anchor="middle" fill="#444">-4</text>
<line x1="553.6" y1="540" x2="553.6" y2="543" stroke="#444"/>
<text x="553.6" y="555" text-anchor="middle" fill="#444">-3</text>
<line x1="581.1" y1="540" x2="581.1" y2="543" stroke="#444"/>
<text x="581.1" y="555" text-anchor="middle" fill="#444">-2</text>
<line x1="636.0" y1="540" x2="636.0" y2="543" stroke="#444"/>
<text x="636.0" y="555" text-anchor="middle" fill="#444">0</text>
<line x1="663.5" y1="540" x2="663.5" y2="543" stroke="#444"/>
<text x="663.5" y="555" text-anchor="middle" fill="#444">1</text>
<line x1="690.9" y1="540" x2="690.9" y2="543" stroke="#444"/>
<text x="690.9" y="555" text-anchor="middle" fill="#444">2</text>
<line x1="718.4" y1="540" x2="718.4" y2="543" stroke="#444"/>
<text x="718.4" y="555" text-anchor="middle" fill="#444">3</text>
<line x1="745.8" y1="540" x2="745.8" y2="543" stroke="#444"/>
<text x="745.8" y="555" text-anchor="middle" fill="#444">4</text>
<line x1="773.3" y1="540" x2="773.3" y2="543" stroke="#444"/>
<text x="773.3" y="555" text-anchor="middle" fill="#444">5</text>
<line x1="482" y1="540.0" x2="485" y2="540.0" stroke="#444"/>
<text x="479" y="543.0" text-anchor="end" fill="#444">-2.4</text>
<line x1="482" y1="500.0" x2="485" y2="500.0" stroke="#444"/>
<text x="479" y="503.0" text-anchor="end" fill="#444">-1.6</text>
<line x1="482" y1="460.0" x2="485" y2="460.0" stroke="#444"/>
<text x="479" y="463.0" text-anchor="end" fill="#444">-0.83</text>
<line x1="482" y1="420.0" x2="485" y2="420.0" stroke="#444"/>
<text x="479" y="423.0" text-anchor="end" fill="#444">-0.063</text>
<line x1="482" y1="380.0" x2="485" y2="380.0" stroke="#444"/>
<text x="479" y="383.0" text-anchor="end" fill="#444">0.7</text>
<text x="636.0" y="574" text-anchor="middle" fill="#444">Event time (years from adoption)</text>
<text x="437" y="460.0" text-anchor="middle" fill="#444" transform="rotate(-90 437 460.0)">ATT (per 100k)</text>
<rect x="15" y="620" width="380" height="260" fill="#fafaf7" stroke="#e2e2dc"/>
<text x="205.0" y="638" text-anchor="middle" font-weight="600">Total homicide rate (per 100k)</text>
<line x1="75" y1="712.9431835523926" x2="377" y2="712.9431835523926" stroke="#aaaaaa" stroke-width="0.7"/>
<polygon points="88.7,675.5 88.7,759.5 88.7,670.0 116.2,734.7 116.2,678.8 116.2,688.6 143.6,685.0 143.6,734.2 143.6,670.4 171.1,676.1 171.1,710.3 171.1,691.0 226.0,702.2 226.0,685.4 226.0,690.4 253.5,670.0 253.5,678.2 253.5,693.7 280.9,728.0 280.9,682.0 280.9,708.4 308.4,711.4 308.4,686.1 308.4,704.1 335.8,715.4 335.8,706.1 335.8,726.5 363.3,688.6 363.3,699.9 363.3,698.3 363.3,739.9 363.3,756.4 363.3,720.9 335.8,763.8 335.8,732.8 335.8,746.9 308.4,728.7 308.4,717.2 308.4,754.0 280.9,735.3 280.9,715.8 280.9,766.3 253.5,718.6 253.5,710.3 253.5,709.3 226.0,707.5 226.0,711.2 226.0,724.3 171.1,718.9 171.1,741.7 171.1,701.8 143.6,701.9 143.6,766.3 143.6,720.4 116.2,726.2 116.2,712.4 116.2,795.2 88.7,710.2 88.7,830.0 88.7,713.0" fill="#1f3a5f" opacity="0.18"/>
<polyline points="88.7,694.2 88.7,794.8 88.7,690.1 116.2,765.0 116.2,695.6 116.2,707.4 143.6,702.7 143.6,750.3 143.6,686.2 171.1,688.9 171.1,726.0 171.1,704.9 226.0,713.2 226.0,698.3 226.0,698.9 253.5,689.7 253.5,694.3 253.5,706.2 280.9,747.1 280.9,698.9 280.9,721.8 308.4,732.7 308.4,701.7 308.4,716.4 335.8,731.1 335.8,719.5 335.8,745.1 363.3,704.8 363.3,728.2 363.3,719.1" fill="none" stroke="#1f3a5f" stroke-width="1.6"/>
<circle cx="88.7" cy="694.2" r="2.6" fill="#1f3a5f"/>
<circle cx="88.7" cy="794.8" r="2.6" fill="#1f3a5f"/>
<circle cx="88.7" cy="690.1" r="2.6" fill="#1f3a5f"/>
<circle cx="116.2" cy="765.0" r="2.6" fill="#1f3a5f"/>
<circle cx="116.2" cy="695.6" r="2.6" fill="#1f3a5f"/>
<circle cx="116.2" cy="707.4" r="2.6" fill="#1f3a5f"/>
<circle cx="143.6" cy="702.7" r="2.6" fill="#1f3a5f"/>
<circle cx="143.6" cy="750.3" r="2.6" fill="#1f3a5f"/>
<circle cx="143.6" cy="686.2" r="2.6" fill="#1f3a5f"/>
<circle cx="171.1" cy="688.9" r="2.6" fill="#1f3a5f"/>
<circle cx="171.1" cy="726.0" r="2.6" fill="#1f3a5f"/>
<circle cx="171.1" cy="704.9" r="2.6" fill="#1f3a5f"/>
<circle cx="226.0" cy="713.2" r="2.6" fill="#1f3a5f"/>
<circle cx="226.0" cy="698.3" r="2.6" fill="#1f3a5f"/>
<circle cx="226.0" cy="698.9" r="2.6" fill="#1f3a5f"/>
<circle cx="253.5" cy="689.7" r="2.6" fill="#1f3a5f"/>
<circle cx="253.5" cy="694.3" r="2.6" fill="#1f3a5f"/>
<circle cx="253.5" cy="706.2" r="2.6" fill="#1f3a5f"/>
<circle cx="280.9" cy="747.1" r="2.6" fill="#1f3a5f"/>
<circle cx="280.9" cy="698.9" r="2.6" fill="#1f3a5f"/>
<circle cx="280.9" cy="721.8" r="2.6" fill="#1f3a5f"/>
<circle cx="308.4" cy="732.7" r="2.6" fill="#1f3a5f"/>
<circle cx="308.4" cy="701.7" r="2.6" fill="#1f3a5f"/>
<circle cx="308.4" cy="716.4" r="2.6" fill="#1f3a5f"/>
<circle cx="335.8" cy="731.1" r="2.6" fill="#1f3a5f"/>
<circle cx="335.8" cy="719.5" r="2.6" fill="#1f3a5f"/>
<circle cx="335.8" cy="745.1" r="2.6" fill="#1f3a5f"/>
<circle cx="363.3" cy="704.8" r="2.6" fill="#1f3a5f"/>
<circle cx="363.3" cy="728.2" r="2.6" fill="#1f3a5f"/>
<circle cx="363.3" cy="719.1" r="2.6" fill="#1f3a5f"/>
<line x1="212.3" y1="670" x2="212.3" y2="830" stroke="#b9461a" stroke-dasharray="3 3"/>
<line x1="75" y1="830" x2="377" y2="830" stroke="#444"/>
<line x1="75" y1="670" x2="75" y2="830" stroke="#444"/>
<line x1="88.7" y1="830" x2="88.7" y2="833" stroke="#444"/>
<text x="88.7" y="845" text-anchor="middle" fill="#444">-5</text>
<line x1="116.2" y1="830" x2="116.2" y2="833" stroke="#444"/>
<text x="116.2" y="845" text-anchor="middle" fill="#444">-4</text>
<line x1="143.6" y1="830" x2="143.6" y2="833" stroke="#444"/>
<text x="143.6" y="845" text-anchor="middle" fill="#444">-3</text>
<line x1="171.1" y1="830" x2="171.1" y2="833" stroke="#444"/>
<text x="171.1" y="845" text-anchor="middle" fill="#444">-2</text>
<line x1="226.0" y1="830" x2="226.0" y2="833" stroke="#444"/>
<text x="226.0" y="845" text-anchor="middle" fill="#444">0</text>
<line x1="253.5" y1="830" x2="253.5" y2="833" stroke="#444"/>
<text x="253.5" y="845" text-anchor="middle" fill="#444">1</text>
<line x1="280.9" y1="830" x2="280.9" y2="833" stroke="#444"/>
<text x="280.9" y="845" text-anchor="middle" fill="#444">2</text>
<line x1="308.4" y1="830" x2="308.4" y2="833" stroke="#444"/>
<text x="308.4" y="845" text-anchor="middle" fill="#444">3</text>
<line x1="335.8" y1="830" x2="335.8" y2="833" stroke="#444"/>
<text x="335.8" y="845" text-anchor="middle" fill="#444">4</text>
<line x1="363.3" y1="830" x2="363.3" y2="833" stroke="#444"/>
<text x="363.3" y="845" text-anchor="middle" fill="#444">5</text>
<line x1="72" y1="830.0" x2="75" y2="830.0" stroke="#444"/>
<text x="69" y="833.0" text-anchor="end" fill="#444">-2.4</text>
<line x1="72" y1="790.0" x2="75" y2="790.0" stroke="#444"/>
<text x="69" y="793.0" text-anchor="end" fill="#444">-1.6</text>
<line x1="72" y1="750.0" x2="75" y2="750.0" stroke="#444"/>
<text x="69" y="753.0" text-anchor="end" fill="#444">-0.76</text>
<line x1="72" y1="710.0" x2="75" y2="710.0" stroke="#444"/>
<text x="69" y="713.0" text-anchor="end" fill="#444">0.06</text>
<line x1="72" y1="670.0" x2="75" y2="670.0" stroke="#444"/>
<text x="69" y="673.0" text-anchor="end" fill="#444">0.88</text>
<text x="226.0" y="864" text-anchor="middle" fill="#444">Event time (years from adoption)</text>
<text x="27" y="750.0" text-anchor="middle" fill="#444" transform="rotate(-90 27 750.0)">ATT (per 100k)</text>
<rect x="425" y="620" width="380" height="260" fill="#fafaf7" stroke="#e2e2dc"/>
<text x="615.0" y="638" text-anchor="middle" font-weight="600">Motor vehicle theft rate (per 100k) [placebo]</text>
<line x1="485" y1="723.9368414552861" x2="787" y2="723.9368414552861" stroke="#aaaaaa" stroke-width="0.7"/>
<polygon points="498.7,680.0 498.7,695.1 498.7,670.0 526.2,724.0 526.2,675.9 526.2,696.6 553.6,706.8 553.6,713.1 553.6,688.5 581.1,703.2 581.1,707.2 581.1,709.4 636.0,686.7 636.0,704.2 636.0,711.4 663.5,696.2 663.5,697.8 663.5,719.9 690.9,711.7 690.9,689.3 690.9,713.6 718.4,727.7 718.4,688.0 718.4,694.0 745.8,698.4 745.8,692.4 745.8,743.3 773.3,692.3 773.3,735.3 773.3,697.3 773.3,754.9 773.3,830.0 773.3,732.2 745.8,822.1 745.8,725.4 745.8,749.0 718.4,743.0 718.4,721.5 718.4,800.0 690.9,752.2 690.9,719.2 690.9,772.2 663.5,744.9 663.5,736.1 663.5,716.6 636.0,736.0 636.0,719.4 636.0,714.4 581.1,726.5 581.1,726.7 581.1,718.9 553.6,713.8 553.6,742.9 553.6,732.8 526.2,740.7 526.2,705.5 526.2,766.3 498.7,705.9 498.7,753.9 498.7,742.8" fill="#1f3a5f" opacity="0.18"/>
<polyline points="498.7,711.4 498.7,724.5 498.7,688.0 526.2,745.2 526.2,690.7 526.2,718.6 553.6,719.8 553.6,728.0 553.6,701.2 581.1,711.1 581.1,716.9 581.1,718.0 636.0,700.6 636.0,711.8 636.0,723.7 663.5,706.4 663.5,716.9 663.5,732.4 690.9,741.9 690.9,704.2 690.9,732.9 718.4,763.9 718.4,704.8 718.4,718.5 745.8,723.7 745.8,708.9 745.8,782.7 773.3,712.2 773.3,782.6 773.3,726.1" fill="none" stroke="#1f3a5f" stroke-width="1.6"/>
<circle cx="498.7" cy="711.4" r="2.6" fill="#1f3a5f"/>
<circle cx="498.7" cy="724.5" r="2.6" fill="#1f3a5f"/>
<circle cx="498.7" cy="688.0" r="2.6" fill="#1f3a5f"/>
<circle cx="526.2" cy="745.2" r="2.6" fill="#1f3a5f"/>
<circle cx="526.2" cy="690.7" r="2.6" fill="#1f3a5f"/>
<circle cx="526.2" cy="718.6" r="2.6" fill="#1f3a5f"/>
<circle cx="553.6" cy="719.8" r="2.6" fill="#1f3a5f"/>
<circle cx="553.6" cy="728.0" r="2.6" fill="#1f3a5f"/>
<circle cx="553.6" cy="701.2" r="2.6" fill="#1f3a5f"/>
<circle cx="581.1" cy="711.1" r="2.6" fill="#1f3a5f"/>
<circle cx="581.1" cy="716.9" r="2.6" fill="#1f3a5f"/>
<circle cx="581.1" cy="718.0" r="2.6" fill="#1f3a5f"/>
<circle cx="636.0" cy="700.6" r="2.6" fill="#1f3a5f"/>
<circle cx="636.0" cy="711.8" r="2.6" fill="#1f3a5f"/>
<circle cx="636.0" cy="723.7" r="2.6" fill="#1f3a5f"/>
<circle cx="663.5" cy="706.4" r="2.6" fill="#1f3a5f"/>
<circle cx="663.5" cy="716.9" r="2.6" fill="#1f3a5f"/>
<circle cx="663.5" cy="732.4" r="2.6" fill="#1f3a5f"/>
<circle cx="690.9" cy="741.9" r="2.6" fill="#1f3a5f"/>
<circle cx="690.9" cy="704.2" r="2.6" fill="#1f3a5f"/>
<circle cx="690.9" cy="732.9" r="2.6" fill="#1f3a5f"/>
<circle cx="718.4" cy="763.9" r="2.6" fill="#1f3a5f"/>
<circle cx="718.4" cy="704.8" r="2.6" fill="#1f3a5f"/>
<circle cx="718.4" cy="718.5" r="2.6" fill="#1f3a5f"/>
<circle cx="745.8" cy="723.7" r="2.6" fill="#1f3a5f"/>
<circle cx="745.8" cy="708.9" r="2.6" fill="#1f3a5f"/>
<circle cx="745.8" cy="782.7" r="2.6" fill="#1f3a5f"/>
<circle cx="773.3" cy="712.2" r="2.6" fill="#1f3a5f"/>
<circle cx="773.3" cy="782.6" r="2.6" fill="#1f3a5f"/>
<circle cx="773.3" cy="726.1" r="2.6" fill="#1f3a5f"/>
<line x1="622.3" y1="670" x2="622.3" y2="830" stroke="#b9461a" stroke-dasharray="3 3"/>
<line x1="485" y1="830" x2="787" y2="830" stroke="#444"/>
<line x1="485" y1="670" x2="485" y2="830" stroke="#444"/>
<line x1="498.7" y1="830" x2="498.7" y2="833" stroke="#444"/>
<text x="498.7" y="845" text-anchor="middle" fill="#444">-5</text>
<line x1="526.2" y1="830" x2="526.2" y2="833" stroke="#444"/>
<text x="526.2" y="845" text-anchor="middle" fill="#444">-4</text>
<line x1="553.6" y1="830" x2="553.6" y2="833" stroke="#444"/>
<text x="553.6" y="845" text-anchor="middle" fill="#444">-3</text>
<line x1="581.1" y1="830" x2="581.1" y2="833" stroke="#444"/>
<text x="581.1" y="845" text-anchor="middle" fill="#444">-2</text>
<line x1="636.0" y1="830" x2="636.0" y2="833" stroke="#444"/>
<text x="636.0" y="845" text-anchor="middle" fill="#444">0</text>
<line x1="663.5" y1="830" x2="663.5" y2="833" stroke="#444"/>
<text x="663.5" y="845" text-anchor="middle" fill="#444">1</text>
<line x1="690.9" y1="830" x2="690.9" y2="833" stroke="#444"/>
<text x="690.9" y="845" text-anchor="middle" fill="#444">2</text>
<line x1="718.4" y1="830" x2="718.4" y2="833" stroke="#444"/>
<text x="718.4" y="845" text-anchor="middle" fill="#444">3</text>
<line x1="745.8" y1="830" x2="745.8" y2="833" stroke="#444"/>
<text x="745.8" y="845" text-anchor="middle" fill="#444">4</text>
<line x1="773.3" y1="830" x2="773.3" y2="833" stroke="#444"/>
<text x="773.3" y="845" text-anchor="middle" fill="#444">5</text>
<line x1="482" y1="830.0" x2="485" y2="830.0" stroke="#444"/>
<text x="479" y="833.0" text-anchor="end" fill="#444">-1.7e+02</text>
<line x1="482" y1="790.0" x2="485" y2="790.0" stroke="#444"/>
<text x="479" y="793.0" text-anchor="end" fill="#444">-1e+02</text>
<line x1="482" y1="750.0" x2="485" y2="750.0" stroke="#444"/>
<text x="479" y="753.0" text-anchor="end" fill="#444">-41</text>
<line x1="482" y1="710.0" x2="485" y2="710.0" stroke="#444"/>
<text x="479" y="713.0" text-anchor="end" fill="#444">22</text>
<line x1="482" y1="670.0" x2="485" y2="670.0" stroke="#444"/>
<text x="479" y="673.0" text-anchor="end" fill="#444">86</text>
<text x="636.0" y="864" text-anchor="middle" fill="#444">Event time (years from adoption)</text>
<text x="437" y="750.0" text-anchor="middle" fill="#444" transform="rotate(-90 437 750.0)">ATT (per 100k)</text>
<text x="805" y="608" text-anchor="end" fill="#888" font-size="10">Shaded band: pointwise 95% CI from cluster bootstrap. Vertical dashed line marks the year before adoption.</text>
</svg>