<svg xmlns="http://www.w3.org/2000/svg" viewBox="0 0 820 620" font-family="-apple-system, Segoe UI, Helvetica, Arial, sans-serif" font-size="11">
<text x="410.0" y="22" text-anchor="middle" font-size="14" font-weight="600">Callaway-Sant'Anna ATT by event time (RA) -- stand your ground</text>
<rect x="15" y="40" width="380" height="260" fill="#fafaf7" stroke="#e2e2dc"/>
<text x="205.0" y="58" text-anchor="middle" font-weight="600">Firearm suicide rate (per 100k)</text>
<line x1="75" y1="180.70693141361264" x2="377" y2="180.70693141361264" stroke="#aaaaaa" stroke-width="0.7"/>
<polygon points="88.7,178.9 116.2,167.4 143.6,175.7 171.1,129.2 226.0,147.2 253.5,172.4 280.9,151.4 308.4,90.0 335.8,108.2 363.3,112.7 363.3,192.9 335.8,182.3 308.4,161.2 280.9,192.7 253.5,220.0 226.0,193.5 171.1,185.4 143.6,250.0 116.2,240.3 88.7,223.0" fill="#1f3a5f" opacity="0.18"/>
<polyline points="88.7,200.9 116.2,203.8 143.6,212.9 171.1,157.3 226.0,170.3 253.5,196.2 280.9,172.1 308.4,125.6 335.8,145.3 363.3,152.8" fill="none" stroke="#1f3a5f" stroke-width="1.6"/>
<circle cx="88.7" cy="200.9" r="2.6" fill="#1f3a5f"/>
<circle cx="116.2" cy="203.8" r="2.6" fill="#1f3a5f"/>
<circle cx="143.6" cy="212.9" r="2.6" fill="#1f3a5f"/>
<circle cx="171.1" cy="157.3" r="2.6" fill="#1f3a5f"/>
<circle cx="226.0" cy="170.3" r="2.6" fill="#1f3a5f"/>
<circle cx="253.5" cy="196.2" r="2.6" fill="#1f3a5f"/>
<circle cx="280.9" cy="172.1" r="2.6" fill="#1f3a5f"/>
<circle cx="308.4" cy="125.6" r="2.6" fill="#1f3a5f"/>
<circle cx="335.8" cy="145.3" r="2.6" fill="#1f3a5f"/>
<circle cx="363.3" cy="152.8" r="2.6" fill="#1f3a5f"/>
<line x1="212.3" y1="90" x2="212.3" y2="250" stroke="#b9461a" stroke-dasharray="3 3"/>
<line x1="75" y1="250" x2="377" y2="250" stroke="#444"/>
<line x1="75" y1="90" x2="75" y2="250" stroke="#444"/>
<line x1="88.7" y1="250" x2="88.7" y2="253" stroke="#444"/>
<text x="88.7" y="265" text-anchor="middle" fill="#444">-5</text>
<line x1="116.2" y1="250" x2="116.2" y2="253" stroke="#444"/>
<text x="116.2" y="265" text-anchor="middle" fill="#444">-4</text>
<line x1="143.6" y1="250" x2="143.6" y2="253" stroke="#444"/>
<text x="143.6" y="265" text-anchor="middle" fill="#444">-3</text>
<line x1="171.1" y1="250" x2="171.1" y2="253" stroke="#444"/>
<text x="171.1" y="265" text-anchor="middle" fill="#444">-2</text>
<line x1="226.0" y1="250" x2="226.0" y2="253" stroke="#444"/>
<text x="226.0" y="265" text-anchor="middle" fill="#444">0</text>
<line x1="253.5" y1="250" x2="253.5" y2="253" stroke="#444"/>
<text x="253.5" y="265" text-anchor="middle" fill="#444">1</text>
<line x1="280.9" y1="250" x2="280.9" y2="253" stroke="#444"/>
<text x="280.9" y="265" text-anchor="middle" fill="#444">2</text>
<line x1="308.4" y1="250" x2="308.4" y2="253" stroke="#444"/>
<text x="308.4" y="265" text-anchor="middle" fill="#444">3</text>
<line x1="335.8" y1="250" x2="335.8" y2="253" stroke="#444"/>
<text x="335.8" y="265" text-anchor="middle" fill="#444">4</text>
<line x1="363.3" y1="250" x2="363.3" y2="253" stroke="#444"/>
<text x="363.3" y="265" text-anchor="middle" fill="#444">5</text>
<line x1="72" y1="250.0" x2="75" y2="250.0" stroke="#444"/>
<text x="69" y="253.0" text-anchor="end" fill="#444">-1</text>
<line x1="72" y1="210.0" x2="75" y2="210.0" stroke="#444"/>
<text x="69" y="213.0" text-anchor="end" fill="#444">-0.44</text>
<line x1="72" y1="170.0" x2="75" y2="170.0" stroke="#444"/>
<text x="69" y="173.0" text-anchor="end" fill="#444">0.16</text>
<line x1="72" y1="130.0" x2="75" y2="130.0" stroke="#444"/>
<text x="69" y="133.0" text-anchor="end" fill="#444">0.76</text>
<line x1="72" y1="90.0" x2="75" y2="90.0" stroke="#444"/>
<text x="69" y="93.0" text-anchor="end" fill="#444">1.4</text>
<text x="226.0" y="284" text-anchor="middle" fill="#444">Event time (years from adoption)</text>
<text x="27" y="170.0" text-anchor="middle" fill="#444" transform="rotate(-90 27 170.0)">ATT (per 100k)</text>
<rect x="425" y="40" width="380" height="260" fill="#fafaf7" stroke="#e2e2dc"/>
<text x="615.0" y="58" text-anchor="middle" font-weight="600">Non-firearm suicide rate (per 100k) [substitution test]</text>
<line x1="485" y1="136.23507452182787" x2="787" y2="136.23507452182787" stroke="#aaaaaa" stroke-width="0.7"/>
<polygon points="498.7,150.8 526.2,126.9 553.6,114.2 581.1,117.2 636.0,119.8 663.5,151.0 690.9,167.5 718.4,117.3 745.8,120.2 773.3,90.0 773.3,168.9 745.8,224.0 718.4,250.0 690.9,219.9 663.5,204.3 636.0,186.0 581.1,169.2 553.6,178.0 526.2,167.3 498.7,228.4" fill="#1f3a5f" opacity="0.18"/>
<polyline points="498.7,189.6 526.2,147.1 553.6,146.1 581.1,143.2 636.0,152.9 663.5,177.7 690.9,193.7 718.4,183.6 745.8,172.1 773.3,129.5" fill="none" stroke="#1f3a5f" stroke-width="1.6"/>
<circle cx="498.7" cy="189.6" r="2.6" fill="#1f3a5f"/>
<circle cx="526.2" cy="147.1" r="2.6" fill="#1f3a5f"/>
<circle cx="553.6" cy="146.1" r="2.6" fill="#1f3a5f"/>
<circle cx="581.1" cy="143.2" r="2.6" fill="#1f3a5f"/>
<circle cx="636.0" cy="152.9" r="2.6" fill="#1f3a5f"/>
<circle cx="663.5" cy="177.7" r="2.6" fill="#1f3a5f"/>
<circle cx="690.9" cy="193.7" r="2.6" fill="#1f3a5f"/>
<circle cx="718.4" cy="183.6" r="2.6" fill="#1f3a5f"/>
<circle cx="745.8" cy="172.1" r="2.6" fill="#1f3a5f"/>
<circle cx="773.3" cy="129.5" r="2.6" fill="#1f3a5f"/>
<line x1="622.3" y1="90" x2="622.3" y2="250" stroke="#b9461a" stroke-dasharray="3 3"/>
<line x1="485" y1="250" x2="787" y2="250" stroke="#444"/>
<line x1="485" y1="90" x2="485" y2="250" stroke="#444"/>
<line x1="498.7" y1="250" x2="498.7" y2="253" stroke="#444"/>
<text x="498.7" y="265" text-anchor="middle" fill="#444">-5</text>
<line x1="526.2" y1="250" x2="526.2" y2="253" stroke="#444"/>
<text x="526.2" y="265" text-anchor="middle" fill="#444">-4</text>
<line x1="553.6" y1="250" x2="553.6" y2="253" stroke="#444"/>
<text x="553.6" y="265" text-anchor="middle" fill="#444">-3</text>
<line x1="581.1" y1="250" x2="581.1" y2="253" stroke="#444"/>
<text x="581.1" y="265" text-anchor="middle" fill="#444">-2</text>
<line x1="636.0" y1="250" x2="636.0" y2="253" stroke="#444"/>
<text x="636.0" y="265" text-anchor="middle" fill="#444">0</text>
<line x1="663.5" y1="250" x2="663.5" y2="253" stroke="#444"/>
<text x="663.5" y="265" text-anchor="middle" fill="#444">1</text>
<line x1="690.9" y1="250" x2="690.9" y2="253" stroke="#444"/>
<text x="690.9" y="265" text-anchor="middle" fill="#444">2</text>
<line x1="718.4" y1="250" x2="718.4" y2="253" stroke="#444"/>
<text x="718.4" y="265" text-anchor="middle" fill="#444">3</text>
<line x1="745.8" y1="250" x2="745.8" y2="253" stroke="#444"/>
<text x="745.8" y="265" text-anchor="middle" fill="#444">4</text>
<line x1="773.3" y1="250" x2="773.3" y2="253" stroke="#444"/>
<text x="773.3" y="265" text-anchor="middle" fill="#444">5</text>
<line x1="482" y1="250.0" x2="485" y2="250.0" stroke="#444"/>
<text x="479" y="253.0" text-anchor="end" fill="#444">-1.2</text>
<line x1="482" y1="210.0" x2="485" y2="210.0" stroke="#444"/>
<text x="479" y="213.0" text-anchor="end" fill="#444">-0.78</text>
<line x1="482" y1="170.0" x2="485" y2="170.0" stroke="#444"/>
<text x="479" y="173.0" text-anchor="end" fill="#444">-0.36</text>
<line x1="482" y1="130.0" x2="485" y2="130.0" stroke="#444"/>
<text x="479" y="133.0" text-anchor="end" fill="#444">0.066</text>
<line x1="482" y1="90.0" x2="485" y2="90.0" stroke="#444"/>
<text x="479" y="93.0" text-anchor="end" fill="#444">0.49</text>
<text x="636.0" y="284" text-anchor="middle" fill="#444">Event time (years from adoption)</text>
<text x="437" y="170.0" text-anchor="middle" fill="#444" transform="rotate(-90 437 170.0)">ATT (per 100k)</text>
<rect x="15" y="330" width="380" height="260" fill="#fafaf7" stroke="#e2e2dc"/>
<text x="205.0" y="348" text-anchor="middle" font-weight="600">Total suicide rate (per 100k) [net effect]</text>
<line x1="75" y1="452.40969777310744" x2="377" y2="452.40969777310744" stroke="#aaaaaa" stroke-width="0.7"/>
<polygon points="88.7,482.7 116.2,452.9 143.6,441.6 171.1,402.5 226.0,420.1 253.5,466.7 280.9,457.1 308.4,395.1 335.8,396.7 363.3,380.0 363.3,460.6 335.8,487.9 308.4,466.9 280.9,510.1 253.5,525.7 226.0,487.4 171.1,465.9 143.6,540.0 116.2,512.3 88.7,535.5" fill="#1f3a5f" opacity="0.18"/>
<polyline points="88.7,509.1 116.2,482.6 143.6,490.8 171.1,434.2 226.0,453.7 253.5,496.2 280.9,483.6 308.4,431.0 335.8,442.3 363.3,420.3" fill="none" stroke="#1f3a5f" stroke-width="1.6"/>
<circle cx="88.7" cy="509.1" r="2.6" fill="#1f3a5f"/>
<circle cx="116.2" cy="482.6" r="2.6" fill="#1f3a5f"/>
<circle cx="143.6" cy="490.8" r="2.6" fill="#1f3a5f"/>
<circle cx="171.1" cy="434.2" r="2.6" fill="#1f3a5f"/>
<circle cx="226.0" cy="453.7" r="2.6" fill="#1f3a5f"/>
<circle cx="253.5" cy="496.2" r="2.6" fill="#1f3a5f"/>
<circle cx="280.9" cy="483.6" r="2.6" fill="#1f3a5f"/>
<circle cx="308.4" cy="431.0" r="2.6" fill="#1f3a5f"/>
<circle cx="335.8" cy="442.3" r="2.6" fill="#1f3a5f"/>
<circle cx="363.3" cy="420.3" r="2.6" fill="#1f3a5f"/>
<line x1="212.3" y1="380" x2="212.3" y2="540" stroke="#b9461a" stroke-dasharray="3 3"/>
<line x1="75" y1="540" x2="377" y2="540" stroke="#444"/>
<line x1="75" y1="380" x2="75" y2="540" stroke="#444"/>
<line x1="88.7" y1="540" x2="88.7" y2="543" stroke="#444"/>
<text x="88.7" y="555" text-anchor="middle" fill="#444">-5</text>
<line x1="116.2" y1="540" x2="116.2" y2="543" stroke="#444"/>
<text x="116.2" y="555" text-anchor="middle" fill="#444">-4</text>
<line x1="143.6" y1="540" x2="143.6" y2="543" stroke="#444"/>
<text x="143.6" y="555" text-anchor="middle" fill="#444">-3</text>
<line x1="171.1" y1="540" x2="171.1" y2="543" stroke="#444"/>
<text x="171.1" y="555" text-anchor="middle" fill="#444">-2</text>
<line x1="226.0" y1="540" x2="226.0" y2="543" stroke="#444"/>
<text x="226.0" y="555" text-anchor="middle" fill="#444">0</text>
<line x1="253.5" y1="540" x2="253.5" y2="543" stroke="#444"/>
<text x="253.5" y="555" text-anchor="middle" fill="#444">1</text>
<line x1="280.9" y1="540" x2="280.9" y2="543" stroke="#444"/>
<text x="280.9" y="555" text-anchor="middle" fill="#444">2</text>
<line x1="308.4" y1="540" x2="308.4" y2="543" stroke="#444"/>
<text x="308.4" y="555" text-anchor="middle" fill="#444">3</text>
<line x1="335.8" y1="540" x2="335.8" y2="543" stroke="#444"/>
<text x="335.8" y="555" text-anchor="middle" fill="#444">4</text>
<line x1="363.3" y1="540" x2="363.3" y2="543" stroke="#444"/>
<text x="363.3" y="555" text-anchor="middle" fill="#444">5</text>
<line x1="72" y1="540.0" x2="75" y2="540.0" stroke="#444"/>
<text x="69" y="543.0" text-anchor="end" fill="#444">-1.3</text>
<line x1="72" y1="500.0" x2="75" y2="500.0" stroke="#444"/>
<text x="69" y="503.0" text-anchor="end" fill="#444">-0.73</text>
<line x1="72" y1="460.0" x2="75" y2="460.0" stroke="#444"/>
<text x="69" y="463.0" text-anchor="end" fill="#444">-0.12</text>
<line x1="72" y1="420.0" x2="75" y2="420.0" stroke="#444"/>
<text x="69" y="423.0" text-anchor="end" fill="#444">0.5</text>
<line x1="72" y1="380.0" x2="75" y2="380.0" stroke="#444"/>
<text x="69" y="383.0" text-anchor="end" fill="#444">1.1</text>
<text x="226.0" y="574" text-anchor="middle" fill="#444">Event time (years from adoption)</text>
<text x="27" y="460.0" text-anchor="middle" fill="#444" transform="rotate(-90 27 460.0)">ATT (per 100k)</text>
<rect x="425" y="330" width="380" height="260" fill="#fafaf7" stroke="#e2e2dc"/>
<text x="615.0" y="348" text-anchor="middle" font-weight="600">Firearm homicide rate (per 100k)</text>
<line x1="485" y1="402.5546800772563" x2="787" y2="402.5546800772563" stroke="#aaaaaa" stroke-width="0.7"/>
<polygon points="498.7,443.0 526.2,437.9 553.6,432.6 581.1,394.5 636.0,400.8 663.5,380.0 690.9,414.8 718.4,393.6 745.8,399.8 773.3,397.1 773.3,456.7 745.8,451.6 718.4,462.3 690.9,470.0 663.5,409.1 636.0,436.6 581.1,430.0 553.6,483.9 526.2,514.5 498.7,540.0" fill="#1f3a5f" opacity="0.18"/>
<polyline points="498.7,491.5 526.2,476.2 553.6,458.2 581.1,412.2 636.0,418.7 663.5,394.5 690.9,442.4 718.4,428.0 745.8,425.7 773.3,426.9" fill="none" stroke="#1f3a5f" stroke-width="1.6"/>
<circle cx="498.7" cy="491.5" r="2.6" fill="#1f3a5f"/>
<circle cx="526.2" cy="476.2" r="2.6" fill="#1f3a5f"/>
<circle cx="553.6" cy="458.2" r="2.6" fill="#1f3a5f"/>
<circle cx="581.1" cy="412.2" r="2.6" fill="#1f3a5f"/>
<circle cx="636.0" cy="418.7" r="2.6" fill="#1f3a5f"/>
<circle cx="663.5" cy="394.5" r="2.6" fill="#1f3a5f"/>
<circle cx="690.9" cy="442.4" r="2.6" fill="#1f3a5f"/>
<circle cx="718.4" cy="428.0" r="2.6" fill="#1f3a5f"/>
<circle cx="745.8" cy="425.7" r="2.6" fill="#1f3a5f"/>
<circle cx="773.3" cy="426.9" r="2.6" fill="#1f3a5f"/>
<line x1="622.3" y1="380" x2="622.3" y2="540" stroke="#b9461a" stroke-dasharray="3 3"/>
<line x1="485" y1="540" x2="787" y2="540" stroke="#444"/>
<line x1="485" y1="380" x2="485" y2="540" stroke="#444"/>
<line x1="498.7" y1="540" x2="498.7" y2="543" stroke="#444"/>
<text x="498.7" y="555" text-anchor="middle" fill="#444">-5</text>
<line x1="526.2" y1="540" x2="526.2" y2="543" stroke="#444"/>
<text x="526.2" y="555" text-anchor="middle" fill="#444">-4</text>
<line x1="553.6" y1="540" x2="553.6" y2="543" stroke="#444"/>
<text x="553.6" y="555" text-anchor="middle" fill="#444">-3</text>
<line x1="581.1" y1="540" x2="581.1" y2="543" stroke="#444"/>
<text x="581.1" y="555" text-anchor="middle" fill="#444">-2</text>
<line x1="636.0" y1="540" x2="636.0" y2="543" stroke="#444"/>
<text x="636.0" y="555" text-anchor="middle" fill="#444">0</text>
<line x1="663.5" y1="540" x2="663.5" y2="543" stroke="#444"/>
<text x="663.5" y="555" text-anchor="middle" fill="#444">1</text>
<line x1="690.9" y1="540" x2="690.9" y2="543" stroke="#444"/>
<text x="690.9" y="555" text-anchor="middle" fill="#444">2</text>
<line x1="718.4" y1="540" x2="718.4" y2="543" stroke="#444"/>
<text x="718.4" y="555" text-anchor="middle" fill="#444">3</text>
<line x1="745.8" y1="540" x2="745.8" y2="543" stroke="#444"/>
<text x="745.8" y="555" text-anchor="middle" fill="#444">4</text>
<line x1="773.3" y1="540" x2="773.3" y2="543" stroke="#444"/>
<text x="773.3" y="555" text-anchor="middle" fill="#444">5</text>
<line x1="482" y1="540.0" x2="485" y2="540.0" stroke="#444"/>
<text x="479" y="543.0" text-anchor="end" fill="#444">-2.4</text>
<line x1="482" y1="500.0" x2="485" y2="500.0" stroke="#444"/>
<text x="479" y="503.0" text-anchor="end" fill="#444">-1.7</text>
<line x1="482" y1="460.0" x2="485" y2="460.0" stroke="#444"/>
<text x="479" y="463.0" text-anchor="end" fill="#444">-0.98</text>
<line x1="482" y1="420.0" x2="485" y2="420.0" stroke="#444"/>
<text x="479" y="423.0" text-anchor="end" fill="#444">-0.3</text>
<line x1="482" y1="380.0" x2="485" y2="380.0" stroke="#444"/>
<text x="479" y="383.0" text-anchor="end" fill="#444">0.39</text>
<text x="636.0" y="574" text-anchor="middle" fill="#444">Event time (years from adoption)</text>
<text x="437" y="460.0" text-anchor="middle" fill="#444" transform="rotate(-90 437 460.0)">ATT (per 100k)</text>
<rect x="15" y="620" width="380" height="260" fill="#fafaf7" stroke="#e2e2dc"/>
<text x="205.0" y="638" text-anchor="middle" font-weight="600">Total homicide rate (per 100k)</text>
<line x1="75" y1="706.6064995068703" x2="377" y2="706.6064995068703" stroke="#aaaaaa" stroke-width="0.7"/>
<polygon points="88.7,755.7 116.2,729.6 143.6,729.0 171.1,703.8 226.0,695.3 253.5,670.0 280.9,722.4 308.4,704.9 335.8,720.9 363.3,692.9 363.3,752.5 335.8,760.2 308.4,749.9 280.9,762.8 253.5,703.8 226.0,718.6 171.1,736.9 143.6,762.9 116.2,793.3 88.7,830.0" fill="#1f3a5f" opacity="0.18"/>
<polyline points="88.7,792.8 116.2,761.4 143.6,746.0 171.1,720.4 226.0,706.9 253.5,686.9 280.9,742.6 308.4,727.4 335.8,740.6 363.3,722.7" fill="none" stroke="#1f3a5f" stroke-width="1.6"/>
<circle cx="88.7" cy="792.8" r="2.6" fill="#1f3a5f"/>
<circle cx="116.2" cy="761.4" r="2.6" fill="#1f3a5f"/>
<circle cx="143.6" cy="746.0" r="2.6" fill="#1f3a5f"/>
<circle cx="171.1" cy="720.4" r="2.6" fill="#1f3a5f"/>
<circle cx="226.0" cy="706.9" r="2.6" fill="#1f3a5f"/>
<circle cx="253.5" cy="686.9" r="2.6" fill="#1f3a5f"/>
<circle cx="280.9" cy="742.6" r="2.6" fill="#1f3a5f"/>
<circle cx="308.4" cy="727.4" r="2.6" fill="#1f3a5f"/>
<circle cx="335.8" cy="740.6" r="2.6" fill="#1f3a5f"/>
<circle cx="363.3" cy="722.7" r="2.6" fill="#1f3a5f"/>
<line x1="212.3" y1="670" x2="212.3" y2="830" stroke="#b9461a" stroke-dasharray="3 3"/>
<line x1="75" y1="830" x2="377" y2="830" stroke="#444"/>
<line x1="75" y1="670" x2="75" y2="830" stroke="#444"/>
<line x1="88.7" y1="830" x2="88.7" y2="833" stroke="#444"/>
<text x="88.7" y="845" text-anchor="middle" fill="#444">-5</text>
<line x1="116.2" y1="830" x2="116.2" y2="833" stroke="#444"/>
<text x="116.2" y="845" text-anchor="middle" fill="#444">-4</text>
<line x1="143.6" y1="830" x2="143.6" y2="833" stroke="#444"/>
<text x="143.6" y="845" text-anchor="middle" fill="#444">-3</text>
<line x1="171.1" y1="830" x2="171.1" y2="833" stroke="#444"/>
<text x="171.1" y="845" text-anchor="middle" fill="#444">-2</text>
<line x1="226.0" y1="830" x2="226.0" y2="833" stroke="#444"/>
<text x="226.0" y="845" text-anchor="middle" fill="#444">0</text>
<line x1="253.5" y1="830" x2="253.5" y2="833" stroke="#444"/>
<text x="253.5" y="845" text-anchor="middle" fill="#444">1</text>
<line x1="280.9" y1="830" x2="280.9" y2="833" stroke="#444"/>
<text x="280.9" y="845" text-anchor="middle" fill="#444">2</text>
<line x1="308.4" y1="830" x2="308.4" y2="833" stroke="#444"/>
<text x="308.4" y="845" text-anchor="middle" fill="#444">3</text>
<line x1="335.8" y1="830" x2="335.8" y2="833" stroke="#444"/>
<text x="335.8" y="845" text-anchor="middle" fill="#444">4</text>
<line x1="363.3" y1="830" x2="363.3" y2="833" stroke="#444"/>
<text x="363.3" y="845" text-anchor="middle" fill="#444">5</text>
<line x1="72" y1="830.0" x2="75" y2="830.0" stroke="#444"/>
<text x="69" y="833.0" text-anchor="end" fill="#444">-2.4</text>
<line x1="72" y1="790.0" x2="75" y2="790.0" stroke="#444"/>
<text x="69" y="793.0" text-anchor="end" fill="#444">-1.6</text>
<line x1="72" y1="750.0" x2="75" y2="750.0" stroke="#444"/>
<text x="69" y="753.0" text-anchor="end" fill="#444">-0.84</text>
<line x1="72" y1="710.0" x2="75" y2="710.0" stroke="#444"/>
<text x="69" y="713.0" text-anchor="end" fill="#444">-0.066</text>
<line x1="72" y1="670.0" x2="75" y2="670.0" stroke="#444"/>
<text x="69" y="673.0" text-anchor="end" fill="#444">0.71</text>
<text x="226.0" y="864" text-anchor="middle" fill="#444">Event time (years from adoption)</text>
<text x="27" y="750.0" text-anchor="middle" fill="#444" transform="rotate(-90 27 750.0)">ATT (per 100k)</text>
<rect x="425" y="620" width="380" height="260" fill="#fafaf7" stroke="#e2e2dc"/>
<text x="615.0" y="638" text-anchor="middle" font-weight="600">Motor vehicle theft rate (per 100k) [placebo]</text>
<line x1="485" y1="711.5539697676461" x2="787" y2="711.5539697676461" stroke="#aaaaaa" stroke-width="0.7"/>
<polygon points="498.7,679.4 526.2,711.7 553.6,699.4 581.1,692.8 636.0,670.0 663.5,682.3 690.9,697.8 718.4,715.8 745.8,733.1 773.3,724.2 773.3,830.0 745.8,821.2 718.4,796.5 690.9,765.4 663.5,725.1 636.0,700.9 581.1,714.6 553.6,732.8 526.2,758.9 498.7,745.1" fill="#1f3a5f" opacity="0.18"/>
<polyline points="498.7,712.2 526.2,735.3 553.6,716.1 581.1,703.7 636.0,685.5 663.5,703.7 690.9,731.6 718.4,756.2 745.8,777.2 773.3,777.1" fill="none" stroke="#1f3a5f" stroke-width="1.6"/>
<circle cx="498.7" cy="712.2" r="2.6" fill="#1f3a5f"/>
<circle cx="526.2" cy="735.3" r="2.6" fill="#1f3a5f"/>
<circle cx="553.6" cy="716.1" r="2.6" fill="#1f3a5f"/>
<circle cx="581.1" cy="703.7" r="2.6" fill="#1f3a5f"/>
<circle cx="636.0" cy="685.5" r="2.6" fill="#1f3a5f"/>
<circle cx="663.5" cy="703.7" r="2.6" fill="#1f3a5f"/>
<circle cx="690.9" cy="731.6" r="2.6" fill="#1f3a5f"/>
<circle cx="718.4" cy="756.2" r="2.6" fill="#1f3a5f"/>
<circle cx="745.8" cy="777.2" r="2.6" fill="#1f3a5f"/>
<circle cx="773.3" cy="777.1" r="2.6" fill="#1f3a5f"/>
<line x1="622.3" y1="670" x2="622.3" y2="830" stroke="#b9461a" stroke-dasharray="3 3"/>
<line x1="485" y1="830" x2="787" y2="830" stroke="#444"/>
<line x1="485" y1="670" x2="485" y2="830" stroke="#444"/>
<line x1="498.7" y1="830" x2="498.7" y2="833" stroke="#444"/>
<text x="498.7" y="845" text-anchor="middle" fill="#444">-5</text>
<line x1="526.2" y1="830" x2="526.2" y2="833" stroke="#444"/>
<text x="526.2" y="845" text-anchor="middle" fill="#444">-4</text>
<line x1="553.6" y1="830" x2="553.6" y2="833" stroke="#444"/>
<text x="553.6" y="845" text-anchor="middle" fill="#444">-3</text>
<line x1="581.1" y1="830" x2="581.1" y2="833" stroke="#444"/>
<text x="581.1" y="845" text-anchor="middle" fill="#444">-2</text>
<line x1="636.0" y1="830" x2="636.0" y2="833" stroke="#444"/>
<text x="636.0" y="845" text-anchor="middle" fill="#444">0</text>
<line x1="663.5" y1="830" x2="663.5" y2="833" stroke="#444"/>
<text x="663.5" y="845" text-anchor="middle" fill="#444">1</text>
<line x1="690.9" y1="830" x2="690.9" y2="833" stroke="#444"/>
<text x="690.9" y="845" text-anchor="middle" fill="#444">2</text>
<line x1="718.4" y1="830" x2="718.4" y2="833" stroke="#444"/>
<text x="718.4" y="845" text-anchor="middle" fill="#444">3</text>
<line x1="745.8" y1="830" x2="745.8" y2="833" stroke="#444"/>
<text x="745.8" y="845" text-anchor="middle" fill="#444">4</text>
<line x1="773.3" y1="830" x2="773.3" y2="833" stroke="#444"/>
<text x="773.3" y="845" text-anchor="middle" fill="#444">5</text>
<line x1="482" y1="830.0" x2="485" y2="830.0" stroke="#444"/>
<text x="479" y="833.0" text-anchor="end" fill="#444">-1.7e+02</text>
<line x1="482" y1="790.0" x2="485" y2="790.0" stroke="#444"/>
<text x="479" y="793.0" text-anchor="end" fill="#444">-1.1e+02</text>
<line x1="482" y1="750.0" x2="485" y2="750.0" stroke="#444"/>
<text x="479" y="753.0" text-anchor="end" fill="#444">-55</text>
<line x1="482" y1="710.0" x2="485" y2="710.0" stroke="#444"/>
<text x="479" y="713.0" text-anchor="end" fill="#444">2.2</text>
<line x1="482" y1="670.0" x2="485" y2="670.0" stroke="#444"/>
<text x="479" y="673.0" text-anchor="end" fill="#444">59</text>
<text x="636.0" y="864" text-anchor="middle" fill="#444">Event time (years from adoption)</text>
<text x="437" y="750.0" text-anchor="middle" fill="#444" transform="rotate(-90 437 750.0)">ATT (per 100k)</text>
<text x="805" y="608" text-anchor="end" fill="#888" font-size="10">Shaded band: pointwise 95% CI from cluster bootstrap. Vertical dashed line marks the year before adoption.</text>
</svg>