<svg xmlns="http://www.w3.org/2000/svg" viewBox="0 0 820 620" font-family="-apple-system, Segoe UI, Helvetica, Arial, sans-serif" font-size="11">
<text x="410.0" y="22" text-anchor="middle" font-size="14" font-weight="600">Callaway-Sant'Anna ATT by event time (RA) -- stacked DiD (stand_your_ground)</text>
<rect x="15" y="40" width="380" height="260" fill="#fafaf7" stroke="#e2e2dc"/>
<text x="205.0" y="58" text-anchor="middle" font-weight="600">Firearm suicide rate (per 100k)</text>
<line x1="75" y1="168.66502754413432" x2="377" y2="168.66502754413432" stroke="#aaaaaa" stroke-width="0.7"/>
<polygon points="88.7,176.0 116.2,158.1 143.6,161.6 171.1,178.8 198.5,168.7 226.0,129.1 253.5,133.7 280.9,97.9 308.4,90.0 335.8,134.0 363.3,103.0 363.3,165.1 335.8,176.9 308.4,173.7 280.9,165.7 253.5,192.9 226.0,176.7 198.5,168.7 171.1,228.3 143.6,216.4 116.2,247.5 88.7,250.0" fill="#1f3a5f" opacity="0.18"/>
<polyline points="88.7,213.0 116.2,202.8 143.6,189.0 171.1,203.5 198.5,168.7 226.0,152.9 253.5,163.3 280.9,131.8 308.4,131.8 335.8,155.5 363.3,134.1" fill="none" stroke="#1f3a5f" stroke-width="1.6"/>
<circle cx="88.7" cy="213.0" r="2.6" fill="#1f3a5f"/>
<circle cx="116.2" cy="202.8" r="2.6" fill="#1f3a5f"/>
<circle cx="143.6" cy="189.0" r="2.6" fill="#1f3a5f"/>
<circle cx="171.1" cy="203.5" r="2.6" fill="#1f3a5f"/>
<circle cx="198.5" cy="168.7" r="2.6" fill="#1f3a5f"/>
<circle cx="226.0" cy="152.9" r="2.6" fill="#1f3a5f"/>
<circle cx="253.5" cy="163.3" r="2.6" fill="#1f3a5f"/>
<circle cx="280.9" cy="131.8" r="2.6" fill="#1f3a5f"/>
<circle cx="308.4" cy="131.8" r="2.6" fill="#1f3a5f"/>
<circle cx="335.8" cy="155.5" r="2.6" fill="#1f3a5f"/>
<circle cx="363.3" cy="134.1" r="2.6" fill="#1f3a5f"/>
<line x1="212.3" y1="90" x2="212.3" y2="250" stroke="#b9461a" stroke-dasharray="3 3"/>
<line x1="75" y1="250" x2="377" y2="250" stroke="#444"/>
<line x1="75" y1="90" x2="75" y2="250" stroke="#444"/>
<line x1="88.7" y1="250" x2="88.7" y2="253" stroke="#444"/>
<text x="88.7" y="265" text-anchor="middle" fill="#444">-5</text>
<line x1="116.2" y1="250" x2="116.2" y2="253" stroke="#444"/>
<text x="116.2" y="265" text-anchor="middle" fill="#444">-4</text>
<line x1="143.6" y1="250" x2="143.6" y2="253" stroke="#444"/>
<text x="143.6" y="265" text-anchor="middle" fill="#444">-3</text>
<line x1="171.1" y1="250" x2="171.1" y2="253" stroke="#444"/>
<text x="171.1" y="265" text-anchor="middle" fill="#444">-2</text>
<line x1="198.5" y1="250" x2="198.5" y2="253" stroke="#444"/>
<text x="198.5" y="265" text-anchor="middle" fill="#444">-1</text>
<line x1="226.0" y1="250" x2="226.0" y2="253" stroke="#444"/>
<text x="226.0" y="265" text-anchor="middle" fill="#444">0</text>
<line x1="253.5" y1="250" x2="253.5" y2="253" stroke="#444"/>
<text x="253.5" y="265" text-anchor="middle" fill="#444">1</text>
<line x1="280.9" y1="250" x2="280.9" y2="253" stroke="#444"/>
<text x="280.9" y="265" text-anchor="middle" fill="#444">2</text>
<line x1="308.4" y1="250" x2="308.4" y2="253" stroke="#444"/>
<text x="308.4" y="265" text-anchor="middle" fill="#444">3</text>
<line x1="335.8" y1="250" x2="335.8" y2="253" stroke="#444"/>
<text x="335.8" y="265" text-anchor="middle" fill="#444">4</text>
<line x1="363.3" y1="250" x2="363.3" y2="253" stroke="#444"/>
<text x="363.3" y="265" text-anchor="middle" fill="#444">5</text>
<line x1="72" y1="250.0" x2="75" y2="250.0" stroke="#444"/>
<text x="69" y="253.0" text-anchor="end" fill="#444">-0.94</text>
<line x1="72" y1="210.0" x2="75" y2="210.0" stroke="#444"/>
<text x="69" y="213.0" text-anchor="end" fill="#444">-0.48</text>
<line x1="72" y1="170.0" x2="75" y2="170.0" stroke="#444"/>
<text x="69" y="173.0" text-anchor="end" fill="#444">-0.015</text>
<line x1="72" y1="130.0" x2="75" y2="130.0" stroke="#444"/>
<text x="69" y="133.0" text-anchor="end" fill="#444">0.45</text>
<line x1="72" y1="90.0" x2="75" y2="90.0" stroke="#444"/>
<text x="69" y="93.0" text-anchor="end" fill="#444">0.91</text>
<text x="226.0" y="284" text-anchor="middle" fill="#444">Event time (years from adoption)</text>
<text x="27" y="170.0" text-anchor="middle" fill="#444" transform="rotate(-90 27 170.0)">ATT (per 100k)</text>
<rect x="425" y="40" width="380" height="260" fill="#fafaf7" stroke="#e2e2dc"/>
<text x="615.0" y="58" text-anchor="middle" font-weight="600">Non-firearm suicide rate (per 100k) [substitution test]</text>
<line x1="485" y1="168.59428039265345" x2="787" y2="168.59428039265345" stroke="#aaaaaa" stroke-width="0.7"/>
<polygon points="498.7,103.3 526.2,117.6 553.6,90.8 581.1,134.5 608.5,168.6 636.0,108.1 663.5,162.8 690.9,124.6 718.4,101.0 745.8,90.0 773.3,116.5 773.3,242.7 745.8,200.8 718.4,235.4 690.9,230.3 663.5,250.0 636.0,238.5 608.5,168.6 581.1,249.7 553.6,212.6 526.2,210.3 498.7,216.5" fill="#1f3a5f" opacity="0.18"/>
<polyline points="498.7,159.9 526.2,163.9 553.6,151.7 581.1,192.1 608.5,168.6 636.0,173.3 663.5,206.4 690.9,177.4 718.4,168.2 745.8,145.4 773.3,179.6" fill="none" stroke="#1f3a5f" stroke-width="1.6"/>
<circle cx="498.7" cy="159.9" r="2.6" fill="#1f3a5f"/>
<circle cx="526.2" cy="163.9" r="2.6" fill="#1f3a5f"/>
<circle cx="553.6" cy="151.7" r="2.6" fill="#1f3a5f"/>
<circle cx="581.1" cy="192.1" r="2.6" fill="#1f3a5f"/>
<circle cx="608.5" cy="168.6" r="2.6" fill="#1f3a5f"/>
<circle cx="636.0" cy="173.3" r="2.6" fill="#1f3a5f"/>
<circle cx="663.5" cy="206.4" r="2.6" fill="#1f3a5f"/>
<circle cx="690.9" cy="177.4" r="2.6" fill="#1f3a5f"/>
<circle cx="718.4" cy="168.2" r="2.6" fill="#1f3a5f"/>
<circle cx="745.8" cy="145.4" r="2.6" fill="#1f3a5f"/>
<circle cx="773.3" cy="179.6" r="2.6" fill="#1f3a5f"/>
<line x1="622.3" y1="90" x2="622.3" y2="250" stroke="#b9461a" stroke-dasharray="3 3"/>
<line x1="485" y1="250" x2="787" y2="250" stroke="#444"/>
<line x1="485" y1="90" x2="485" y2="250" stroke="#444"/>
<line x1="498.7" y1="250" x2="498.7" y2="253" stroke="#444"/>
<text x="498.7" y="265" text-anchor="middle" fill="#444">-5</text>
<line x1="526.2" y1="250" x2="526.2" y2="253" stroke="#444"/>
<text x="526.2" y="265" text-anchor="middle" fill="#444">-4</text>
<line x1="553.6" y1="250" x2="553.6" y2="253" stroke="#444"/>
<text x="553.6" y="265" text-anchor="middle" fill="#444">-3</text>
<line x1="581.1" y1="250" x2="581.1" y2="253" stroke="#444"/>
<text x="581.1" y="265" text-anchor="middle" fill="#444">-2</text>
<line x1="608.5" y1="250" x2="608.5" y2="253" stroke="#444"/>
<text x="608.5" y="265" text-anchor="middle" fill="#444">-1</text>
<line x1="636.0" y1="250" x2="636.0" y2="253" stroke="#444"/>
<text x="636.0" y="265" text-anchor="middle" fill="#444">0</text>
<line x1="663.5" y1="250" x2="663.5" y2="253" stroke="#444"/>
<text x="663.5" y="265" text-anchor="middle" fill="#444">1</text>
<line x1="690.9" y1="250" x2="690.9" y2="253" stroke="#444"/>
<text x="690.9" y="265" text-anchor="middle" fill="#444">2</text>
<line x1="718.4" y1="250" x2="718.4" y2="253" stroke="#444"/>
<text x="718.4" y="265" text-anchor="middle" fill="#444">3</text>
<line x1="745.8" y1="250" x2="745.8" y2="253" stroke="#444"/>
<text x="745.8" y="265" text-anchor="middle" fill="#444">4</text>
<line x1="773.3" y1="250" x2="773.3" y2="253" stroke="#444"/>
<text x="773.3" y="265" text-anchor="middle" fill="#444">5</text>
<line x1="482" y1="250.0" x2="485" y2="250.0" stroke="#444"/>
<text x="479" y="253.0" text-anchor="end" fill="#444">-0.42</text>
<line x1="482" y1="210.0" x2="485" y2="210.0" stroke="#444"/>
<text x="479" y="213.0" text-anchor="end" fill="#444">-0.21</text>
<line x1="482" y1="170.0" x2="485" y2="170.0" stroke="#444"/>
<text x="479" y="173.0" text-anchor="end" fill="#444">-0.0073</text>
<line x1="482" y1="130.0" x2="485" y2="130.0" stroke="#444"/>
<text x="479" y="133.0" text-anchor="end" fill="#444">0.2</text>
<line x1="482" y1="90.0" x2="485" y2="90.0" stroke="#444"/>
<text x="479" y="93.0" text-anchor="end" fill="#444">0.41</text>
<text x="636.0" y="284" text-anchor="middle" fill="#444">Event time (years from adoption)</text>
<text x="437" y="170.0" text-anchor="middle" fill="#444" transform="rotate(-90 437 170.0)">ATT (per 100k)</text>
<rect x="15" y="330" width="380" height="260" fill="#fafaf7" stroke="#e2e2dc"/>
<text x="205.0" y="348" text-anchor="middle" font-weight="600">Total suicide rate (per 100k) [net effect]</text>
<line x1="75" y1="462.4740062835232" x2="377" y2="462.4740062835232" stroke="#aaaaaa" stroke-width="0.7"/>
<polygon points="88.7,455.6 116.2,444.8 143.6,447.8 171.1,470.7 198.5,462.5 226.0,423.8 253.5,437.5 280.9,391.5 308.4,380.0 335.8,411.7 363.3,399.8 363.3,473.3 335.8,472.0 308.4,480.2 280.9,475.9 253.5,507.7 226.0,477.3 198.5,462.5 171.1,533.7 143.6,499.3 116.2,536.2 88.7,540.0" fill="#1f3a5f" opacity="0.18"/>
<polyline points="88.7,497.8 116.2,490.5 143.6,473.6 171.1,502.2 198.5,462.5 226.0,450.5 253.5,472.6 280.9,433.7 308.4,430.1 335.8,441.8 363.3,436.5" fill="none" stroke="#1f3a5f" stroke-width="1.6"/>
<circle cx="88.7" cy="497.8" r="2.6" fill="#1f3a5f"/>
<circle cx="116.2" cy="490.5" r="2.6" fill="#1f3a5f"/>
<circle cx="143.6" cy="473.6" r="2.6" fill="#1f3a5f"/>
<circle cx="171.1" cy="502.2" r="2.6" fill="#1f3a5f"/>
<circle cx="198.5" cy="462.5" r="2.6" fill="#1f3a5f"/>
<circle cx="226.0" cy="450.5" r="2.6" fill="#1f3a5f"/>
<circle cx="253.5" cy="472.6" r="2.6" fill="#1f3a5f"/>
<circle cx="280.9" cy="433.7" r="2.6" fill="#1f3a5f"/>
<circle cx="308.4" cy="430.1" r="2.6" fill="#1f3a5f"/>
<circle cx="335.8" cy="441.8" r="2.6" fill="#1f3a5f"/>
<circle cx="363.3" cy="436.5" r="2.6" fill="#1f3a5f"/>
<line x1="212.3" y1="380" x2="212.3" y2="540" stroke="#b9461a" stroke-dasharray="3 3"/>
<line x1="75" y1="540" x2="377" y2="540" stroke="#444"/>
<line x1="75" y1="380" x2="75" y2="540" stroke="#444"/>
<line x1="88.7" y1="540" x2="88.7" y2="543" stroke="#444"/>
<text x="88.7" y="555" text-anchor="middle" fill="#444">-5</text>
<line x1="116.2" y1="540" x2="116.2" y2="543" stroke="#444"/>
<text x="116.2" y="555" text-anchor="middle" fill="#444">-4</text>
<line x1="143.6" y1="540" x2="143.6" y2="543" stroke="#444"/>
<text x="143.6" y="555" text-anchor="middle" fill="#444">-3</text>
<line x1="171.1" y1="540" x2="171.1" y2="543" stroke="#444"/>
<text x="171.1" y="555" text-anchor="middle" fill="#444">-2</text>
<line x1="198.5" y1="540" x2="198.5" y2="543" stroke="#444"/>
<text x="198.5" y="555" text-anchor="middle" fill="#444">-1</text>
<line x1="226.0" y1="540" x2="226.0" y2="543" stroke="#444"/>
<text x="226.0" y="555" text-anchor="middle" fill="#444">0</text>
<line x1="253.5" y1="540" x2="253.5" y2="543" stroke="#444"/>
<text x="253.5" y="555" text-anchor="middle" fill="#444">1</text>
<line x1="280.9" y1="540" x2="280.9" y2="543" stroke="#444"/>
<text x="280.9" y="555" text-anchor="middle" fill="#444">2</text>
<line x1="308.4" y1="540" x2="308.4" y2="543" stroke="#444"/>
<text x="308.4" y="555" text-anchor="middle" fill="#444">3</text>
<line x1="335.8" y1="540" x2="335.8" y2="543" stroke="#444"/>
<text x="335.8" y="555" text-anchor="middle" fill="#444">4</text>
<line x1="363.3" y1="540" x2="363.3" y2="543" stroke="#444"/>
<text x="363.3" y="555" text-anchor="middle" fill="#444">5</text>
<line x1="72" y1="540.0" x2="75" y2="540.0" stroke="#444"/>
<text x="69" y="543.0" text-anchor="end" fill="#444">-1</text>
<line x1="72" y1="500.0" x2="75" y2="500.0" stroke="#444"/>
<text x="69" y="503.0" text-anchor="end" fill="#444">-0.5</text>
<line x1="72" y1="460.0" x2="75" y2="460.0" stroke="#444"/>
<text x="69" y="463.0" text-anchor="end" fill="#444">0.033</text>
<line x1="72" y1="420.0" x2="75" y2="420.0" stroke="#444"/>
<text x="69" y="423.0" text-anchor="end" fill="#444">0.56</text>
<line x1="72" y1="380.0" x2="75" y2="380.0" stroke="#444"/>
<text x="69" y="383.0" text-anchor="end" fill="#444">1.1</text>
<text x="226.0" y="574" text-anchor="middle" fill="#444">Event time (years from adoption)</text>
<text x="27" y="460.0" text-anchor="middle" fill="#444" transform="rotate(-90 27 460.0)">ATT (per 100k)</text>
<rect x="425" y="330" width="380" height="260" fill="#fafaf7" stroke="#e2e2dc"/>
<text x="615.0" y="348" text-anchor="middle" font-weight="600">Firearm homicide rate (per 100k)</text>
<line x1="485" y1="468.4593526169989" x2="787" y2="468.4593526169989" stroke="#aaaaaa" stroke-width="0.7"/>
<polygon points="498.7,425.1 526.2,439.1 553.6,440.2 581.1,451.3 608.5,468.5 636.0,433.6 663.5,380.0 690.9,386.0 718.4,404.8 745.8,409.0 773.3,420.1 773.3,515.2 745.8,529.9 718.4,507.2 690.9,472.7 663.5,459.6 636.0,502.0 608.5,468.5 581.1,520.4 553.6,526.8 526.2,538.0 498.7,540.0" fill="#1f3a5f" opacity="0.18"/>
<polyline points="498.7,482.5 526.2,488.5 553.6,483.5 581.1,485.8 608.5,468.5 636.0,467.8 663.5,419.8 690.9,429.4 718.4,456.0 745.8,469.5 773.3,467.7" fill="none" stroke="#1f3a5f" stroke-width="1.6"/>
<circle cx="498.7" cy="482.5" r="2.6" fill="#1f3a5f"/>
<circle cx="526.2" cy="488.5" r="2.6" fill="#1f3a5f"/>
<circle cx="553.6" cy="483.5" r="2.6" fill="#1f3a5f"/>
<circle cx="581.1" cy="485.8" r="2.6" fill="#1f3a5f"/>
<circle cx="608.5" cy="468.5" r="2.6" fill="#1f3a5f"/>
<circle cx="636.0" cy="467.8" r="2.6" fill="#1f3a5f"/>
<circle cx="663.5" cy="419.8" r="2.6" fill="#1f3a5f"/>
<circle cx="690.9" cy="429.4" r="2.6" fill="#1f3a5f"/>
<circle cx="718.4" cy="456.0" r="2.6" fill="#1f3a5f"/>
<circle cx="745.8" cy="469.5" r="2.6" fill="#1f3a5f"/>
<circle cx="773.3" cy="467.7" r="2.6" fill="#1f3a5f"/>
<line x1="622.3" y1="380" x2="622.3" y2="540" stroke="#b9461a" stroke-dasharray="3 3"/>
<line x1="485" y1="540" x2="787" y2="540" stroke="#444"/>
<line x1="485" y1="380" x2="485" y2="540" stroke="#444"/>
<line x1="498.7" y1="540" x2="498.7" y2="543" stroke="#444"/>
<text x="498.7" y="555" text-anchor="middle" fill="#444">-5</text>
<line x1="526.2" y1="540" x2="526.2" y2="543" stroke="#444"/>
<text x="526.2" y="555" text-anchor="middle" fill="#444">-4</text>
<line x1="553.6" y1="540" x2="553.6" y2="543" stroke="#444"/>
<text x="553.6" y="555" text-anchor="middle" fill="#444">-3</text>
<line x1="581.1" y1="540" x2="581.1" y2="543" stroke="#444"/>
<text x="581.1" y="555" text-anchor="middle" fill="#444">-2</text>
<line x1="608.5" y1="540" x2="608.5" y2="543" stroke="#444"/>
<text x="608.5" y="555" text-anchor="middle" fill="#444">-1</text>
<line x1="636.0" y1="540" x2="636.0" y2="543" stroke="#444"/>
<text x="636.0" y="555" text-anchor="middle" fill="#444">0</text>
<line x1="663.5" y1="540" x2="663.5" y2="543" stroke="#444"/>
<text x="663.5" y="555" text-anchor="middle" fill="#444">1</text>
<line x1="690.9" y1="540" x2="690.9" y2="543" stroke="#444"/>
<text x="690.9" y="555" text-anchor="middle" fill="#444">2</text>
<line x1="718.4" y1="540" x2="718.4" y2="543" stroke="#444"/>
<text x="718.4" y="555" text-anchor="middle" fill="#444">3</text>
<line x1="745.8" y1="540" x2="745.8" y2="543" stroke="#444"/>
<text x="745.8" y="555" text-anchor="middle" fill="#444">4</text>
<line x1="773.3" y1="540" x2="773.3" y2="543" stroke="#444"/>
<text x="773.3" y="555" text-anchor="middle" fill="#444">5</text>
<line x1="482" y1="540.0" x2="485" y2="540.0" stroke="#444"/>
<text x="479" y="543.0" text-anchor="end" fill="#444">-0.45</text>
<line x1="482" y1="500.0" x2="485" y2="500.0" stroke="#444"/>
<text x="479" y="503.0" text-anchor="end" fill="#444">-0.2</text>
<line x1="482" y1="460.0" x2="485" y2="460.0" stroke="#444"/>
<text x="479" y="463.0" text-anchor="end" fill="#444">0.053</text>
<line x1="482" y1="420.0" x2="485" y2="420.0" stroke="#444"/>
<text x="479" y="423.0" text-anchor="end" fill="#444">0.3</text>
<line x1="482" y1="380.0" x2="485" y2="380.0" stroke="#444"/>
<text x="479" y="383.0" text-anchor="end" fill="#444">0.55</text>
<text x="636.0" y="574" text-anchor="middle" fill="#444">Event time (years from adoption)</text>
<text x="437" y="460.0" text-anchor="middle" fill="#444" transform="rotate(-90 437 460.0)">ATT (per 100k)</text>
<rect x="15" y="620" width="380" height="260" fill="#fafaf7" stroke="#e2e2dc"/>
<text x="205.0" y="638" text-anchor="middle" font-weight="600">Total homicide rate (per 100k)</text>
<line x1="75" y1="745.3529693614335" x2="377" y2="745.3529693614335" stroke="#aaaaaa" stroke-width="0.7"/>
<polygon points="88.7,690.7 116.2,718.6 143.6,702.1 171.1,712.5 198.5,745.4 226.0,706.6 253.5,670.0 280.9,675.7 308.4,693.6 335.8,717.3 363.3,708.3 363.3,799.6 335.8,830.0 308.4,776.9 280.9,761.9 253.5,740.9 226.0,777.9 198.5,745.4 171.1,785.2 143.6,789.4 116.2,821.5 88.7,800.6" fill="#1f3a5f" opacity="0.18"/>
<polyline points="88.7,745.7 116.2,770.1 143.6,745.7 171.1,748.9 198.5,745.4 226.0,742.2 253.5,705.4 280.9,718.8 308.4,735.3 335.8,773.6 363.3,753.9" fill="none" stroke="#1f3a5f" stroke-width="1.6"/>
<circle cx="88.7" cy="745.7" r="2.6" fill="#1f3a5f"/>
<circle cx="116.2" cy="770.1" r="2.6" fill="#1f3a5f"/>
<circle cx="143.6" cy="745.7" r="2.6" fill="#1f3a5f"/>
<circle cx="171.1" cy="748.9" r="2.6" fill="#1f3a5f"/>
<circle cx="198.5" cy="745.4" r="2.6" fill="#1f3a5f"/>
<circle cx="226.0" cy="742.2" r="2.6" fill="#1f3a5f"/>
<circle cx="253.5" cy="705.4" r="2.6" fill="#1f3a5f"/>
<circle cx="280.9" cy="718.8" r="2.6" fill="#1f3a5f"/>
<circle cx="308.4" cy="735.3" r="2.6" fill="#1f3a5f"/>
<circle cx="335.8" cy="773.6" r="2.6" fill="#1f3a5f"/>
<circle cx="363.3" cy="753.9" r="2.6" fill="#1f3a5f"/>
<line x1="212.3" y1="670" x2="212.3" y2="830" stroke="#b9461a" stroke-dasharray="3 3"/>
<line x1="75" y1="830" x2="377" y2="830" stroke="#444"/>
<line x1="75" y1="670" x2="75" y2="830" stroke="#444"/>
<line x1="88.7" y1="830" x2="88.7" y2="833" stroke="#444"/>
<text x="88.7" y="845" text-anchor="middle" fill="#444">-5</text>
<line x1="116.2" y1="830" x2="116.2" y2="833" stroke="#444"/>
<text x="116.2" y="845" text-anchor="middle" fill="#444">-4</text>
<line x1="143.6" y1="830" x2="143.6" y2="833" stroke="#444"/>
<text x="143.6" y="845" text-anchor="middle" fill="#444">-3</text>
<line x1="171.1" y1="830" x2="171.1" y2="833" stroke="#444"/>
<text x="171.1" y="845" text-anchor="middle" fill="#444">-2</text>
<line x1="198.5" y1="830" x2="198.5" y2="833" stroke="#444"/>
<text x="198.5" y="845" text-anchor="middle" fill="#444">-1</text>
<line x1="226.0" y1="830" x2="226.0" y2="833" stroke="#444"/>
<text x="226.0" y="845" text-anchor="middle" fill="#444">0</text>
<line x1="253.5" y1="830" x2="253.5" y2="833" stroke="#444"/>
<text x="253.5" y="845" text-anchor="middle" fill="#444">1</text>
<line x1="280.9" y1="830" x2="280.9" y2="833" stroke="#444"/>
<text x="280.9" y="845" text-anchor="middle" fill="#444">2</text>
<line x1="308.4" y1="830" x2="308.4" y2="833" stroke="#444"/>
<text x="308.4" y="845" text-anchor="middle" fill="#444">3</text>
<line x1="335.8" y1="830" x2="335.8" y2="833" stroke="#444"/>
<text x="335.8" y="845" text-anchor="middle" fill="#444">4</text>
<line x1="363.3" y1="830" x2="363.3" y2="833" stroke="#444"/>
<text x="363.3" y="845" text-anchor="middle" fill="#444">5</text>
<line x1="72" y1="830.0" x2="75" y2="830.0" stroke="#444"/>
<text x="69" y="833.0" text-anchor="end" fill="#444">-0.67</text>
<line x1="72" y1="790.0" x2="75" y2="790.0" stroke="#444"/>
<text x="69" y="793.0" text-anchor="end" fill="#444">-0.35</text>
<line x1="72" y1="750.0" x2="75" y2="750.0" stroke="#444"/>
<text x="69" y="753.0" text-anchor="end" fill="#444">-0.037</text>
<line x1="72" y1="710.0" x2="75" y2="710.0" stroke="#444"/>
<text x="69" y="713.0" text-anchor="end" fill="#444">0.28</text>
<line x1="72" y1="670.0" x2="75" y2="670.0" stroke="#444"/>
<text x="69" y="673.0" text-anchor="end" fill="#444">0.6</text>
<text x="226.0" y="864" text-anchor="middle" fill="#444">Event time (years from adoption)</text>
<text x="27" y="750.0" text-anchor="middle" fill="#444" transform="rotate(-90 27 750.0)">ATT (per 100k)</text>
<rect x="425" y="620" width="380" height="260" fill="#fafaf7" stroke="#e2e2dc"/>
<text x="615.0" y="638" text-anchor="middle" font-weight="600">Motor vehicle theft rate (per 100k) [placebo]</text>
<line x1="485" y1="758.8268364523173" x2="787" y2="758.8268364523173" stroke="#aaaaaa" stroke-width="0.7"/>
<polygon points="498.7,670.0 526.2,692.9 553.6,716.2 581.1,730.1 608.5,758.8 636.0,736.1 663.5,735.4 690.9,727.3 718.4,696.5 745.8,683.4 773.3,696.0 773.3,830.0 745.8,800.5 718.4,783.5 690.9,803.6 663.5,795.9 636.0,791.5 608.5,758.8 581.1,793.5 553.6,805.0 526.2,814.2 498.7,815.2" fill="#1f3a5f" opacity="0.18"/>
<polyline points="498.7,742.6 526.2,753.6 553.6,760.6 581.1,761.8 608.5,758.8 636.0,763.8 663.5,765.6 690.9,765.5 718.4,740.0 745.8,741.9 773.3,763.0" fill="none" stroke="#1f3a5f" stroke-width="1.6"/>
<circle cx="498.7" cy="742.6" r="2.6" fill="#1f3a5f"/>
<circle cx="526.2" cy="753.6" r="2.6" fill="#1f3a5f"/>
<circle cx="553.6" cy="760.6" r="2.6" fill="#1f3a5f"/>
<circle cx="581.1" cy="761.8" r="2.6" fill="#1f3a5f"/>
<circle cx="608.5" cy="758.8" r="2.6" fill="#1f3a5f"/>
<circle cx="636.0" cy="763.8" r="2.6" fill="#1f3a5f"/>
<circle cx="663.5" cy="765.6" r="2.6" fill="#1f3a5f"/>
<circle cx="690.9" cy="765.5" r="2.6" fill="#1f3a5f"/>
<circle cx="718.4" cy="740.0" r="2.6" fill="#1f3a5f"/>
<circle cx="745.8" cy="741.9" r="2.6" fill="#1f3a5f"/>
<circle cx="773.3" cy="763.0" r="2.6" fill="#1f3a5f"/>
<line x1="622.3" y1="670" x2="622.3" y2="830" stroke="#b9461a" stroke-dasharray="3 3"/>
<line x1="485" y1="830" x2="787" y2="830" stroke="#444"/>
<line x1="485" y1="670" x2="485" y2="830" stroke="#444"/>
<line x1="498.7" y1="830" x2="498.7" y2="833" stroke="#444"/>
<text x="498.7" y="845" text-anchor="middle" fill="#444">-5</text>
<line x1="526.2" y1="830" x2="526.2" y2="833" stroke="#444"/>
<text x="526.2" y="845" text-anchor="middle" fill="#444">-4</text>
<line x1="553.6" y1="830" x2="553.6" y2="833" stroke="#444"/>
<text x="553.6" y="845" text-anchor="middle" fill="#444">-3</text>
<line x1="581.1" y1="830" x2="581.1" y2="833" stroke="#444"/>
<text x="581.1" y="845" text-anchor="middle" fill="#444">-2</text>
<line x1="608.5" y1="830" x2="608.5" y2="833" stroke="#444"/>
<text x="608.5" y="845" text-anchor="middle" fill="#444">-1</text>
<line x1="636.0" y1="830" x2="636.0" y2="833" stroke="#444"/>
<text x="636.0" y="845" text-anchor="middle" fill="#444">0</text>
<line x1="663.5" y1="830" x2="663.5" y2="833" stroke="#444"/>
<text x="663.5" y="845" text-anchor="middle" fill="#444">1</text>
<line x1="690.9" y1="830" x2="690.9" y2="833" stroke="#444"/>
<text x="690.9" y="845" text-anchor="middle" fill="#444">2</text>
<line x1="718.4" y1="830" x2="718.4" y2="833" stroke="#444"/>
<text x="718.4" y="845" text-anchor="middle" fill="#444">3</text>
<line x1="745.8" y1="830" x2="745.8" y2="833" stroke="#444"/>
<text x="745.8" y="845" text-anchor="middle" fill="#444">4</text>
<line x1="773.3" y1="830" x2="773.3" y2="833" stroke="#444"/>
<text x="773.3" y="845" text-anchor="middle" fill="#444">5</text>
<line x1="482" y1="830.0" x2="485" y2="830.0" stroke="#444"/>
<text x="479" y="833.0" text-anchor="end" fill="#444">-43</text>
<line x1="482" y1="790.0" x2="485" y2="790.0" stroke="#444"/>
<text x="479" y="793.0" text-anchor="end" fill="#444">-19</text>
<line x1="482" y1="750.0" x2="485" y2="750.0" stroke="#444"/>
<text x="479" y="753.0" text-anchor="end" fill="#444">5.4</text>
<line x1="482" y1="710.0" x2="485" y2="710.0" stroke="#444"/>
<text x="479" y="713.0" text-anchor="end" fill="#444">30</text>
<line x1="482" y1="670.0" x2="485" y2="670.0" stroke="#444"/>
<text x="479" y="673.0" text-anchor="end" fill="#444">54</text>
<text x="636.0" y="864" text-anchor="middle" fill="#444">Event time (years from adoption)</text>
<text x="437" y="750.0" text-anchor="middle" fill="#444" transform="rotate(-90 437 750.0)">ATT (per 100k)</text>
<text x="805" y="608" text-anchor="end" fill="#888" font-size="10">Shaded band: pointwise 95% CI from cluster bootstrap. Vertical dashed line marks the year before adoption.</text>
</svg>