<svg xmlns="http://www.w3.org/2000/svg" viewBox="0 0 820 620" font-family="-apple-system, Segoe UI, Helvetica, Arial, sans-serif" font-size="11">
<text x="410.0" y="22" text-anchor="middle" font-size="14" font-weight="600">Callaway-Sant'Anna ATT by event time (EB) -- stacked DiD (stand_your_ground)</text>
<rect x="15" y="40" width="380" height="260" fill="#fafaf7" stroke="#e2e2dc"/>
<text x="205.0" y="58" text-anchor="middle" font-weight="600">Firearm suicide rate (per 100k)</text>
<line x1="75" y1="167.511852586848" x2="377" y2="167.511852586848" stroke="#aaaaaa" stroke-width="0.7"/>
<polygon points="88.7,175.0 116.2,144.2 143.6,150.5 171.1,185.7 198.5,167.5 226.0,123.7 253.5,118.4 280.9,118.4 308.4,90.0 335.8,130.5 363.3,91.9 363.3,142.2 335.8,168.8 308.4,168.2 280.9,185.8 253.5,187.2 226.0,171.6 198.5,167.5 171.1,242.2 143.6,214.8 116.2,246.4 88.7,250.0" fill="#1f3a5f" opacity="0.18"/>
<polyline points="88.7,212.5 116.2,195.3 143.6,182.6 171.1,214.0 198.5,167.5 226.0,147.6 253.5,152.8 280.9,152.1 308.4,129.1 335.8,149.6 363.3,117.1" fill="none" stroke="#1f3a5f" stroke-width="1.6"/>
<circle cx="88.7" cy="212.5" r="2.6" fill="#1f3a5f"/>
<circle cx="116.2" cy="195.3" r="2.6" fill="#1f3a5f"/>
<circle cx="143.6" cy="182.6" r="2.6" fill="#1f3a5f"/>
<circle cx="171.1" cy="214.0" r="2.6" fill="#1f3a5f"/>
<circle cx="198.5" cy="167.5" r="2.6" fill="#1f3a5f"/>
<circle cx="226.0" cy="147.6" r="2.6" fill="#1f3a5f"/>
<circle cx="253.5" cy="152.8" r="2.6" fill="#1f3a5f"/>
<circle cx="280.9" cy="152.1" r="2.6" fill="#1f3a5f"/>
<circle cx="308.4" cy="129.1" r="2.6" fill="#1f3a5f"/>
<circle cx="335.8" cy="149.6" r="2.6" fill="#1f3a5f"/>
<circle cx="363.3" cy="117.1" r="2.6" fill="#1f3a5f"/>
<line x1="212.3" y1="90" x2="212.3" y2="250" stroke="#b9461a" stroke-dasharray="3 3"/>
<line x1="75" y1="250" x2="377" y2="250" stroke="#444"/>
<line x1="75" y1="90" x2="75" y2="250" stroke="#444"/>
<line x1="88.7" y1="250" x2="88.7" y2="253" stroke="#444"/>
<text x="88.7" y="265" text-anchor="middle" fill="#444">-5</text>
<line x1="116.2" y1="250" x2="116.2" y2="253" stroke="#444"/>
<text x="116.2" y="265" text-anchor="middle" fill="#444">-4</text>
<line x1="143.6" y1="250" x2="143.6" y2="253" stroke="#444"/>
<text x="143.6" y="265" text-anchor="middle" fill="#444">-3</text>
<line x1="171.1" y1="250" x2="171.1" y2="253" stroke="#444"/>
<text x="171.1" y="265" text-anchor="middle" fill="#444">-2</text>
<line x1="198.5" y1="250" x2="198.5" y2="253" stroke="#444"/>
<text x="198.5" y="265" text-anchor="middle" fill="#444">-1</text>
<line x1="226.0" y1="250" x2="226.0" y2="253" stroke="#444"/>
<text x="226.0" y="265" text-anchor="middle" fill="#444">0</text>
<line x1="253.5" y1="250" x2="253.5" y2="253" stroke="#444"/>
<text x="253.5" y="265" text-anchor="middle" fill="#444">1</text>
<line x1="280.9" y1="250" x2="280.9" y2="253" stroke="#444"/>
<text x="280.9" y="265" text-anchor="middle" fill="#444">2</text>
<line x1="308.4" y1="250" x2="308.4" y2="253" stroke="#444"/>
<text x="308.4" y="265" text-anchor="middle" fill="#444">3</text>
<line x1="335.8" y1="250" x2="335.8" y2="253" stroke="#444"/>
<text x="335.8" y="265" text-anchor="middle" fill="#444">4</text>
<line x1="363.3" y1="250" x2="363.3" y2="253" stroke="#444"/>
<text x="363.3" y="265" text-anchor="middle" fill="#444">5</text>
<line x1="72" y1="250.0" x2="75" y2="250.0" stroke="#444"/>
<text x="69" y="253.0" text-anchor="end" fill="#444">-0.95</text>
<line x1="72" y1="210.0" x2="75" y2="210.0" stroke="#444"/>
<text x="69" y="213.0" text-anchor="end" fill="#444">-0.49</text>
<line x1="72" y1="170.0" x2="75" y2="170.0" stroke="#444"/>
<text x="69" y="173.0" text-anchor="end" fill="#444">-0.029</text>
<line x1="72" y1="130.0" x2="75" y2="130.0" stroke="#444"/>
<text x="69" y="133.0" text-anchor="end" fill="#444">0.43</text>
<line x1="72" y1="90.0" x2="75" y2="90.0" stroke="#444"/>
<text x="69" y="93.0" text-anchor="end" fill="#444">0.89</text>
<text x="226.0" y="284" text-anchor="middle" fill="#444">Event time (years from adoption)</text>
<text x="27" y="170.0" text-anchor="middle" fill="#444" transform="rotate(-90 27 170.0)">ATT (per 100k)</text>
<rect x="425" y="40" width="380" height="260" fill="#fafaf7" stroke="#e2e2dc"/>
<text x="615.0" y="58" text-anchor="middle" font-weight="600">Non-firearm suicide rate (per 100k) [substitution test]</text>
<line x1="485" y1="158.27130318724332" x2="787" y2="158.27130318724332" stroke="#aaaaaa" stroke-width="0.7"/>
<polygon points="498.7,90.4 526.2,119.3 553.6,90.6 581.1,126.2 608.5,158.3 636.0,136.4 663.5,107.3 690.9,90.0 718.4,114.2 745.8,99.8 773.3,120.1 773.3,250.0 745.8,183.6 718.4,240.0 690.9,178.6 663.5,207.5 636.0,250.0 608.5,158.3 581.1,223.2 553.6,204.2 526.2,210.3 498.7,183.9" fill="#1f3a5f" opacity="0.18"/>
<polyline points="498.7,137.2 526.2,164.8 553.6,147.4 581.1,174.7 608.5,158.3 636.0,193.2 663.5,157.4 690.9,134.3 718.4,177.1 745.8,141.7 773.3,185.0" fill="none" stroke="#1f3a5f" stroke-width="1.6"/>
<circle cx="498.7" cy="137.2" r="2.6" fill="#1f3a5f"/>
<circle cx="526.2" cy="164.8" r="2.6" fill="#1f3a5f"/>
<circle cx="553.6" cy="147.4" r="2.6" fill="#1f3a5f"/>
<circle cx="581.1" cy="174.7" r="2.6" fill="#1f3a5f"/>
<circle cx="608.5" cy="158.3" r="2.6" fill="#1f3a5f"/>
<circle cx="636.0" cy="193.2" r="2.6" fill="#1f3a5f"/>
<circle cx="663.5" cy="157.4" r="2.6" fill="#1f3a5f"/>
<circle cx="690.9" cy="134.3" r="2.6" fill="#1f3a5f"/>
<circle cx="718.4" cy="177.1" r="2.6" fill="#1f3a5f"/>
<circle cx="745.8" cy="141.7" r="2.6" fill="#1f3a5f"/>
<circle cx="773.3" cy="185.0" r="2.6" fill="#1f3a5f"/>
<line x1="622.3" y1="90" x2="622.3" y2="250" stroke="#b9461a" stroke-dasharray="3 3"/>
<line x1="485" y1="250" x2="787" y2="250" stroke="#444"/>
<line x1="485" y1="90" x2="485" y2="250" stroke="#444"/>
<line x1="498.7" y1="250" x2="498.7" y2="253" stroke="#444"/>
<text x="498.7" y="265" text-anchor="middle" fill="#444">-5</text>
<line x1="526.2" y1="250" x2="526.2" y2="253" stroke="#444"/>
<text x="526.2" y="265" text-anchor="middle" fill="#444">-4</text>
<line x1="553.6" y1="250" x2="553.6" y2="253" stroke="#444"/>
<text x="553.6" y="265" text-anchor="middle" fill="#444">-3</text>
<line x1="581.1" y1="250" x2="581.1" y2="253" stroke="#444"/>
<text x="581.1" y="265" text-anchor="middle" fill="#444">-2</text>
<line x1="608.5" y1="250" x2="608.5" y2="253" stroke="#444"/>
<text x="608.5" y="265" text-anchor="middle" fill="#444">-1</text>
<line x1="636.0" y1="250" x2="636.0" y2="253" stroke="#444"/>
<text x="636.0" y="265" text-anchor="middle" fill="#444">0</text>
<line x1="663.5" y1="250" x2="663.5" y2="253" stroke="#444"/>
<text x="663.5" y="265" text-anchor="middle" fill="#444">1</text>
<line x1="690.9" y1="250" x2="690.9" y2="253" stroke="#444"/>
<text x="690.9" y="265" text-anchor="middle" fill="#444">2</text>
<line x1="718.4" y1="250" x2="718.4" y2="253" stroke="#444"/>
<text x="718.4" y="265" text-anchor="middle" fill="#444">3</text>
<line x1="745.8" y1="250" x2="745.8" y2="253" stroke="#444"/>
<text x="745.8" y="265" text-anchor="middle" fill="#444">4</text>
<line x1="773.3" y1="250" x2="773.3" y2="253" stroke="#444"/>
<text x="773.3" y="265" text-anchor="middle" fill="#444">5</text>
<line x1="482" y1="250.0" x2="485" y2="250.0" stroke="#444"/>
<text x="479" y="253.0" text-anchor="end" fill="#444">-0.6</text>
<line x1="482" y1="210.0" x2="485" y2="210.0" stroke="#444"/>
<text x="479" y="213.0" text-anchor="end" fill="#444">-0.34</text>
<line x1="482" y1="170.0" x2="485" y2="170.0" stroke="#444"/>
<text x="479" y="173.0" text-anchor="end" fill="#444">-0.076</text>
<line x1="482" y1="130.0" x2="485" y2="130.0" stroke="#444"/>
<text x="479" y="133.0" text-anchor="end" fill="#444">0.18</text>
<line x1="482" y1="90.0" x2="485" y2="90.0" stroke="#444"/>
<text x="479" y="93.0" text-anchor="end" fill="#444">0.44</text>
<text x="636.0" y="284" text-anchor="middle" fill="#444">Event time (years from adoption)</text>
<text x="437" y="170.0" text-anchor="middle" fill="#444" transform="rotate(-90 437 170.0)">ATT (per 100k)</text>
<rect x="15" y="330" width="380" height="260" fill="#fafaf7" stroke="#e2e2dc"/>
<text x="205.0" y="348" text-anchor="middle" font-weight="600">Total suicide rate (per 100k) [net effect]</text>
<line x1="75" y1="454.8307908332737" x2="377" y2="454.8307908332737" stroke="#aaaaaa" stroke-width="0.7"/>
<polygon points="88.7,444.7 116.2,429.0 143.6,429.3 171.1,473.9 198.5,454.8 226.0,421.3 253.5,395.5 280.9,382.2 308.4,380.0 335.8,398.1 363.3,384.3 363.3,459.2 335.8,460.6 308.4,477.6 280.9,473.3 253.5,485.7 226.0,488.1 198.5,454.8 171.1,540.0 143.6,497.2 116.2,539.5 88.7,526.9" fill="#1f3a5f" opacity="0.18"/>
<polyline points="88.7,485.8 116.2,484.3 143.6,463.3 171.1,507.0 198.5,454.8 226.0,454.7 253.5,440.6 280.9,427.7 308.4,428.8 335.8,429.3 363.3,421.8" fill="none" stroke="#1f3a5f" stroke-width="1.6"/>
<circle cx="88.7" cy="485.8" r="2.6" fill="#1f3a5f"/>
<circle cx="116.2" cy="484.3" r="2.6" fill="#1f3a5f"/>
<circle cx="143.6" cy="463.3" r="2.6" fill="#1f3a5f"/>
<circle cx="171.1" cy="507.0" r="2.6" fill="#1f3a5f"/>
<circle cx="198.5" cy="454.8" r="2.6" fill="#1f3a5f"/>
<circle cx="226.0" cy="454.7" r="2.6" fill="#1f3a5f"/>
<circle cx="253.5" cy="440.6" r="2.6" fill="#1f3a5f"/>
<circle cx="280.9" cy="427.7" r="2.6" fill="#1f3a5f"/>
<circle cx="308.4" cy="428.8" r="2.6" fill="#1f3a5f"/>
<circle cx="335.8" cy="429.3" r="2.6" fill="#1f3a5f"/>
<circle cx="363.3" cy="421.8" r="2.6" fill="#1f3a5f"/>
<line x1="212.3" y1="380" x2="212.3" y2="540" stroke="#b9461a" stroke-dasharray="3 3"/>
<line x1="75" y1="540" x2="377" y2="540" stroke="#444"/>
<line x1="75" y1="380" x2="75" y2="540" stroke="#444"/>
<line x1="88.7" y1="540" x2="88.7" y2="543" stroke="#444"/>
<text x="88.7" y="555" text-anchor="middle" fill="#444">-5</text>
<line x1="116.2" y1="540" x2="116.2" y2="543" stroke="#444"/>
<text x="116.2" y="555" text-anchor="middle" fill="#444">-4</text>
<line x1="143.6" y1="540" x2="143.6" y2="543" stroke="#444"/>
<text x="143.6" y="555" text-anchor="middle" fill="#444">-3</text>
<line x1="171.1" y1="540" x2="171.1" y2="543" stroke="#444"/>
<text x="171.1" y="555" text-anchor="middle" fill="#444">-2</text>
<line x1="198.5" y1="540" x2="198.5" y2="543" stroke="#444"/>
<text x="198.5" y="555" text-anchor="middle" fill="#444">-1</text>
<line x1="226.0" y1="540" x2="226.0" y2="543" stroke="#444"/>
<text x="226.0" y="555" text-anchor="middle" fill="#444">0</text>
<line x1="253.5" y1="540" x2="253.5" y2="543" stroke="#444"/>
<text x="253.5" y="555" text-anchor="middle" fill="#444">1</text>
<line x1="280.9" y1="540" x2="280.9" y2="543" stroke="#444"/>
<text x="280.9" y="555" text-anchor="middle" fill="#444">2</text>
<line x1="308.4" y1="540" x2="308.4" y2="543" stroke="#444"/>
<text x="308.4" y="555" text-anchor="middle" fill="#444">3</text>
<line x1="335.8" y1="540" x2="335.8" y2="543" stroke="#444"/>
<text x="335.8" y="555" text-anchor="middle" fill="#444">4</text>
<line x1="363.3" y1="540" x2="363.3" y2="543" stroke="#444"/>
<text x="363.3" y="555" text-anchor="middle" fill="#444">5</text>
<line x1="72" y1="540.0" x2="75" y2="540.0" stroke="#444"/>
<text x="69" y="543.0" text-anchor="end" fill="#444">-1.1</text>
<line x1="72" y1="500.0" x2="75" y2="500.0" stroke="#444"/>
<text x="69" y="503.0" text-anchor="end" fill="#444">-0.56</text>
<line x1="72" y1="460.0" x2="75" y2="460.0" stroke="#444"/>
<text x="69" y="463.0" text-anchor="end" fill="#444">-0.064</text>
<line x1="72" y1="420.0" x2="75" y2="420.0" stroke="#444"/>
<text x="69" y="423.0" text-anchor="end" fill="#444">0.43</text>
<line x1="72" y1="380.0" x2="75" y2="380.0" stroke="#444"/>
<text x="69" y="383.0" text-anchor="end" fill="#444">0.92</text>
<text x="226.0" y="574" text-anchor="middle" fill="#444">Event time (years from adoption)</text>
<text x="27" y="460.0" text-anchor="middle" fill="#444" transform="rotate(-90 27 460.0)">ATT (per 100k)</text>
<rect x="425" y="330" width="380" height="260" fill="#fafaf7" stroke="#e2e2dc"/>
<text x="615.0" y="348" text-anchor="middle" font-weight="600">Firearm homicide rate (per 100k)</text>
<line x1="485" y1="442.4665913778733" x2="787" y2="442.4665913778733" stroke="#aaaaaa" stroke-width="0.7"/>
<polygon points="498.7,389.8 526.2,383.6 553.6,389.2 581.1,410.2 608.5,442.5 636.0,420.4 663.5,380.0 690.9,405.9 718.4,403.6 745.8,418.2 773.3,426.8 773.3,517.0 745.8,540.0 718.4,485.9 690.9,480.5 663.5,438.7 636.0,480.7 608.5,442.5 581.1,469.9 553.6,460.0 526.2,467.6 498.7,479.5" fill="#1f3a5f" opacity="0.18"/>
<polyline points="498.7,434.7 526.2,425.6 553.6,424.6 581.1,440.0 608.5,442.5 636.0,450.6 663.5,409.3 690.9,443.2 718.4,444.8 745.8,479.1 773.3,471.9" fill="none" stroke="#1f3a5f" stroke-width="1.6"/>
<circle cx="498.7" cy="434.7" r="2.6" fill="#1f3a5f"/>
<circle cx="526.2" cy="425.6" r="2.6" fill="#1f3a5f"/>
<circle cx="553.6" cy="424.6" r="2.6" fill="#1f3a5f"/>
<circle cx="581.1" cy="440.0" r="2.6" fill="#1f3a5f"/>
<circle cx="608.5" cy="442.5" r="2.6" fill="#1f3a5f"/>
<circle cx="636.0" cy="450.6" r="2.6" fill="#1f3a5f"/>
<circle cx="663.5" cy="409.3" r="2.6" fill="#1f3a5f"/>
<circle cx="690.9" cy="443.2" r="2.6" fill="#1f3a5f"/>
<circle cx="718.4" cy="444.8" r="2.6" fill="#1f3a5f"/>
<circle cx="745.8" cy="479.1" r="2.6" fill="#1f3a5f"/>
<circle cx="773.3" cy="471.9" r="2.6" fill="#1f3a5f"/>
<line x1="622.3" y1="380" x2="622.3" y2="540" stroke="#b9461a" stroke-dasharray="3 3"/>
<line x1="485" y1="540" x2="787" y2="540" stroke="#444"/>
<line x1="485" y1="380" x2="485" y2="540" stroke="#444"/>
<line x1="498.7" y1="540" x2="498.7" y2="543" stroke="#444"/>
<text x="498.7" y="555" text-anchor="middle" fill="#444">-5</text>
<line x1="526.2" y1="540" x2="526.2" y2="543" stroke="#444"/>
<text x="526.2" y="555" text-anchor="middle" fill="#444">-4</text>
<line x1="553.6" y1="540" x2="553.6" y2="543" stroke="#444"/>
<text x="553.6" y="555" text-anchor="middle" fill="#444">-3</text>
<line x1="581.1" y1="540" x2="581.1" y2="543" stroke="#444"/>
<text x="581.1" y="555" text-anchor="middle" fill="#444">-2</text>
<line x1="608.5" y1="540" x2="608.5" y2="543" stroke="#444"/>
<text x="608.5" y="555" text-anchor="middle" fill="#444">-1</text>
<line x1="636.0" y1="540" x2="636.0" y2="543" stroke="#444"/>
<text x="636.0" y="555" text-anchor="middle" fill="#444">0</text>
<line x1="663.5" y1="540" x2="663.5" y2="543" stroke="#444"/>
<text x="663.5" y="555" text-anchor="middle" fill="#444">1</text>
<line x1="690.9" y1="540" x2="690.9" y2="543" stroke="#444"/>
<text x="690.9" y="555" text-anchor="middle" fill="#444">2</text>
<line x1="718.4" y1="540" x2="718.4" y2="543" stroke="#444"/>
<text x="718.4" y="555" text-anchor="middle" fill="#444">3</text>
<line x1="745.8" y1="540" x2="745.8" y2="543" stroke="#444"/>
<text x="745.8" y="555" text-anchor="middle" fill="#444">4</text>
<line x1="773.3" y1="540" x2="773.3" y2="543" stroke="#444"/>
<text x="773.3" y="555" text-anchor="middle" fill="#444">5</text>
<line x1="482" y1="540.0" x2="485" y2="540.0" stroke="#444"/>
<text x="479" y="543.0" text-anchor="end" fill="#444">-1.1</text>
<line x1="482" y1="500.0" x2="485" y2="500.0" stroke="#444"/>
<text x="479" y="503.0" text-anchor="end" fill="#444">-0.63</text>
<line x1="482" y1="460.0" x2="485" y2="460.0" stroke="#444"/>
<text x="479" y="463.0" text-anchor="end" fill="#444">-0.19</text>
<line x1="482" y1="420.0" x2="485" y2="420.0" stroke="#444"/>
<text x="479" y="423.0" text-anchor="end" fill="#444">0.25</text>
<line x1="482" y1="380.0" x2="485" y2="380.0" stroke="#444"/>
<text x="479" y="383.0" text-anchor="end" fill="#444">0.69</text>
<text x="636.0" y="574" text-anchor="middle" fill="#444">Event time (years from adoption)</text>
<text x="437" y="460.0" text-anchor="middle" fill="#444" transform="rotate(-90 437 460.0)">ATT (per 100k)</text>
<rect x="15" y="620" width="380" height="260" fill="#fafaf7" stroke="#e2e2dc"/>
<text x="205.0" y="638" text-anchor="middle" font-weight="600">Total homicide rate (per 100k)</text>
<line x1="75" y1="726.491370241303" x2="377" y2="726.491370241303" stroke="#aaaaaa" stroke-width="0.7"/>
<polygon points="88.7,670.0 116.2,674.9 143.6,682.9 171.1,691.6 198.5,726.5 226.0,705.3 253.5,672.7 280.9,705.6 308.4,679.5 335.8,719.3 363.3,706.4 363.3,799.7 335.8,830.0 308.4,748.9 280.9,772.8 253.5,724.5 226.0,762.4 198.5,726.5 171.1,749.2 143.6,751.6 116.2,748.1 88.7,747.7" fill="#1f3a5f" opacity="0.18"/>
<polyline points="88.7,708.9 116.2,711.5 143.6,717.3 171.1,720.4 198.5,726.5 226.0,733.9 253.5,698.6 280.9,739.2 308.4,714.2 335.8,774.6 363.3,753.0" fill="none" stroke="#1f3a5f" stroke-width="1.6"/>
<circle cx="88.7" cy="708.9" r="2.6" fill="#1f3a5f"/>
<circle cx="116.2" cy="711.5" r="2.6" fill="#1f3a5f"/>
<circle cx="143.6" cy="717.3" r="2.6" fill="#1f3a5f"/>
<circle cx="171.1" cy="720.4" r="2.6" fill="#1f3a5f"/>
<circle cx="198.5" cy="726.5" r="2.6" fill="#1f3a5f"/>
<circle cx="226.0" cy="733.9" r="2.6" fill="#1f3a5f"/>
<circle cx="253.5" cy="698.6" r="2.6" fill="#1f3a5f"/>
<circle cx="280.9" cy="739.2" r="2.6" fill="#1f3a5f"/>
<circle cx="308.4" cy="714.2" r="2.6" fill="#1f3a5f"/>
<circle cx="335.8" cy="774.6" r="2.6" fill="#1f3a5f"/>
<circle cx="363.3" cy="753.0" r="2.6" fill="#1f3a5f"/>
<line x1="212.3" y1="670" x2="212.3" y2="830" stroke="#b9461a" stroke-dasharray="3 3"/>
<line x1="75" y1="830" x2="377" y2="830" stroke="#444"/>
<line x1="75" y1="670" x2="75" y2="830" stroke="#444"/>
<line x1="88.7" y1="830" x2="88.7" y2="833" stroke="#444"/>
<text x="88.7" y="845" text-anchor="middle" fill="#444">-5</text>
<line x1="116.2" y1="830" x2="116.2" y2="833" stroke="#444"/>
<text x="116.2" y="845" text-anchor="middle" fill="#444">-4</text>
<line x1="143.6" y1="830" x2="143.6" y2="833" stroke="#444"/>
<text x="143.6" y="845" text-anchor="middle" fill="#444">-3</text>
<line x1="171.1" y1="830" x2="171.1" y2="833" stroke="#444"/>
<text x="171.1" y="845" text-anchor="middle" fill="#444">-2</text>
<line x1="198.5" y1="830" x2="198.5" y2="833" stroke="#444"/>
<text x="198.5" y="845" text-anchor="middle" fill="#444">-1</text>
<line x1="226.0" y1="830" x2="226.0" y2="833" stroke="#444"/>
<text x="226.0" y="845" text-anchor="middle" fill="#444">0</text>
<line x1="253.5" y1="830" x2="253.5" y2="833" stroke="#444"/>
<text x="253.5" y="845" text-anchor="middle" fill="#444">1</text>
<line x1="280.9" y1="830" x2="280.9" y2="833" stroke="#444"/>
<text x="280.9" y="845" text-anchor="middle" fill="#444">2</text>
<line x1="308.4" y1="830" x2="308.4" y2="833" stroke="#444"/>
<text x="308.4" y="845" text-anchor="middle" fill="#444">3</text>
<line x1="335.8" y1="830" x2="335.8" y2="833" stroke="#444"/>
<text x="335.8" y="845" text-anchor="middle" fill="#444">4</text>
<line x1="363.3" y1="830" x2="363.3" y2="833" stroke="#444"/>
<text x="363.3" y="845" text-anchor="middle" fill="#444">5</text>
<line x1="72" y1="830.0" x2="75" y2="830.0" stroke="#444"/>
<text x="69" y="833.0" text-anchor="end" fill="#444">-1.4</text>
<line x1="72" y1="790.0" x2="75" y2="790.0" stroke="#444"/>
<text x="69" y="793.0" text-anchor="end" fill="#444">-0.85</text>
<line x1="72" y1="750.0" x2="75" y2="750.0" stroke="#444"/>
<text x="69" y="753.0" text-anchor="end" fill="#444">-0.31</text>
<line x1="72" y1="710.0" x2="75" y2="710.0" stroke="#444"/>
<text x="69" y="713.0" text-anchor="end" fill="#444">0.22</text>
<line x1="72" y1="670.0" x2="75" y2="670.0" stroke="#444"/>
<text x="69" y="673.0" text-anchor="end" fill="#444">0.75</text>
<text x="226.0" y="864" text-anchor="middle" fill="#444">Event time (years from adoption)</text>
<text x="27" y="750.0" text-anchor="middle" fill="#444" transform="rotate(-90 27 750.0)">ATT (per 100k)</text>
<rect x="425" y="620" width="380" height="260" fill="#fafaf7" stroke="#e2e2dc"/>
<text x="615.0" y="638" text-anchor="middle" font-weight="600">Motor vehicle theft rate (per 100k) [placebo]</text>
<line x1="485" y1="773.3164035208567" x2="787" y2="773.3164035208567" stroke="#aaaaaa" stroke-width="0.7"/>
<polygon points="498.7,670.0 526.2,697.3 553.6,732.8 581.1,769.5 608.5,773.3 636.0,755.1 663.5,757.5 690.9,751.6 718.4,717.6 745.8,706.9 773.3,725.7 773.3,830.0 745.8,802.3 718.4,796.8 690.9,809.1 663.5,808.9 636.0,814.6 608.5,773.3 581.1,820.8 553.6,813.0 526.2,807.5 498.7,814.2" fill="#1f3a5f" opacity="0.18"/>
<polyline points="498.7,742.1 526.2,752.4 553.6,772.9 581.1,795.2 608.5,773.3 636.0,784.8 663.5,783.2 690.9,780.4 718.4,757.2 745.8,754.6 773.3,777.9" fill="none" stroke="#1f3a5f" stroke-width="1.6"/>
<circle cx="498.7" cy="742.1" r="2.6" fill="#1f3a5f"/>
<circle cx="526.2" cy="752.4" r="2.6" fill="#1f3a5f"/>
<circle cx="553.6" cy="772.9" r="2.6" fill="#1f3a5f"/>
<circle cx="581.1" cy="795.2" r="2.6" fill="#1f3a5f"/>
<circle cx="608.5" cy="773.3" r="2.6" fill="#1f3a5f"/>
<circle cx="636.0" cy="784.8" r="2.6" fill="#1f3a5f"/>
<circle cx="663.5" cy="783.2" r="2.6" fill="#1f3a5f"/>
<circle cx="690.9" cy="780.4" r="2.6" fill="#1f3a5f"/>
<circle cx="718.4" cy="757.2" r="2.6" fill="#1f3a5f"/>
<circle cx="745.8" cy="754.6" r="2.6" fill="#1f3a5f"/>
<circle cx="773.3" cy="777.9" r="2.6" fill="#1f3a5f"/>
<line x1="622.3" y1="670" x2="622.3" y2="830" stroke="#b9461a" stroke-dasharray="3 3"/>
<line x1="485" y1="830" x2="787" y2="830" stroke="#444"/>
<line x1="485" y1="670" x2="485" y2="830" stroke="#444"/>
<line x1="498.7" y1="830" x2="498.7" y2="833" stroke="#444"/>
<text x="498.7" y="845" text-anchor="middle" fill="#444">-5</text>
<line x1="526.2" y1="830" x2="526.2" y2="833" stroke="#444"/>
<text x="526.2" y="845" text-anchor="middle" fill="#444">-4</text>
<line x1="553.6" y1="830" x2="553.6" y2="833" stroke="#444"/>
<text x="553.6" y="845" text-anchor="middle" fill="#444">-3</text>
<line x1="581.1" y1="830" x2="581.1" y2="833" stroke="#444"/>
<text x="581.1" y="845" text-anchor="middle" fill="#444">-2</text>
<line x1="608.5" y1="830" x2="608.5" y2="833" stroke="#444"/>
<text x="608.5" y="845" text-anchor="middle" fill="#444">-1</text>
<line x1="636.0" y1="830" x2="636.0" y2="833" stroke="#444"/>
<text x="636.0" y="845" text-anchor="middle" fill="#444">0</text>
<line x1="663.5" y1="830" x2="663.5" y2="833" stroke="#444"/>
<text x="663.5" y="845" text-anchor="middle" fill="#444">1</text>
<line x1="690.9" y1="830" x2="690.9" y2="833" stroke="#444"/>
<text x="690.9" y="845" text-anchor="middle" fill="#444">2</text>
<line x1="718.4" y1="830" x2="718.4" y2="833" stroke="#444"/>
<text x="718.4" y="845" text-anchor="middle" fill="#444">3</text>
<line x1="745.8" y1="830" x2="745.8" y2="833" stroke="#444"/>
<text x="745.8" y="845" text-anchor="middle" fill="#444">4</text>
<line x1="773.3" y1="830" x2="773.3" y2="833" stroke="#444"/>
<text x="773.3" y="845" text-anchor="middle" fill="#444">5</text>
<line x1="482" y1="830.0" x2="485" y2="830.0" stroke="#444"/>
<text x="479" y="833.0" text-anchor="end" fill="#444">-44</text>
<line x1="482" y1="790.0" x2="485" y2="790.0" stroke="#444"/>
<text x="479" y="793.0" text-anchor="end" fill="#444">-13</text>
<line x1="482" y1="750.0" x2="485" y2="750.0" stroke="#444"/>
<text x="479" y="753.0" text-anchor="end" fill="#444">18</text>
<line x1="482" y1="710.0" x2="485" y2="710.0" stroke="#444"/>
<text x="479" y="713.0" text-anchor="end" fill="#444">49</text>
<line x1="482" y1="670.0" x2="485" y2="670.0" stroke="#444"/>
<text x="479" y="673.0" text-anchor="end" fill="#444">80</text>
<text x="636.0" y="864" text-anchor="middle" fill="#444">Event time (years from adoption)</text>
<text x="437" y="750.0" text-anchor="middle" fill="#444" transform="rotate(-90 437 750.0)">ATT (per 100k)</text>
<text x="805" y="608" text-anchor="end" fill="#888" font-size="10">Shaded band: pointwise 95% CI from cluster bootstrap. Vertical dashed line marks the year before adoption.</text>
</svg>