<svg xmlns="http://www.w3.org/2000/svg" viewBox="0 0 720 380" font-family="-apple-system, Segoe UI, Helvetica, Arial, sans-serif" font-size="12">
<rect x="0" y="0" width="720" height="380" fill="#fafaf7"/>
<text x="360.0" y="22" text-anchor="middle" font-size="14" font-weight="600">Vermont (2018): Firearm suicide rate (per 100k)</text>
<polyline points="60.0,196.2 96.5,169.5 132.9,126.7 169.4,202.8 205.9,151.7 242.4,170.3 278.8,174.4 315.3,134.5 351.8,144.3 388.2,130.0 424.7,149.4 461.2,137.8 497.6,159.2 534.1,139.0 570.6,109.1 607.1,93.5 643.5,145.4 680.0,135.0" fill="none" stroke="#bbb" stroke-width="0.6" opacity="0.6"/>
<polyline points="60.0,238.3 96.5,240.3 132.9,232.9 169.4,218.3 205.9,227.4 242.4,228.6 278.8,215.6 315.3,214.8 351.8,222.3 388.2,208.8 424.7,202.8 461.2,196.7 497.6,203.0 534.1,206.0 570.6,206.8 607.1,188.8 643.5,192.1 680.0,192.4" fill="none" stroke="#bbb" stroke-width="0.6" opacity="0.6"/>
<polyline points="60.0,237.1 96.5,239.6 132.9,225.6 169.4,222.5 205.9,232.6 242.4,218.2 278.8,215.0 315.3,208.6 351.8,208.5 388.2,200.4 424.7,206.0 461.2,179.1 497.6,200.9 534.1,202.9 570.6,193.2 607.1,180.9 643.5,204.4 680.0,182.0" fill="none" stroke="#bbb" stroke-width="0.6" opacity="0.6"/>
<polyline points="60.0,232.5 96.5,238.2 132.9,243.7 169.4,231.9 205.9,224.7 242.4,215.2 278.8,219.0 315.3,222.2 351.8,218.6 388.2,215.8 424.7,208.5 461.2,203.1 497.6,204.5 534.1,205.4 570.6,204.5 607.1,192.2 643.5,175.6 680.0,183.5" fill="none" stroke="#bbb" stroke-width="0.6" opacity="0.6"/>
<polyline points="60.0,269.5 96.5,265.3 132.9,270.2 169.4,253.8 205.9,255.8 242.4,253.8 278.8,253.8 315.3,255.0 351.8,243.4 388.2,247.1 424.7,241.7 461.2,238.2 497.6,229.0 534.1,234.3 570.6,237.4 607.1,216.1 643.5,226.0 680.0,219.4" fill="none" stroke="#bbb" stroke-width="0.6" opacity="0.6"/>
<polyline points="60.0,222.1 96.5,223.3 132.9,223.6 169.4,201.8 205.9,198.7 242.4,213.3 278.8,206.6 315.3,187.9 351.8,205.2 388.2,179.9 424.7,182.9 461.2,163.3 497.6,162.7 534.1,186.9 570.6,150.3 607.1,169.5 643.5,157.2 680.0,146.8" fill="none" stroke="#bbb" stroke-width="0.6" opacity="0.6"/>
<polyline points="60.0,317.3 96.5,311.9 132.9,310.5 169.4,314.3 205.9,309.8 242.4,308.0 278.8,304.9 315.3,304.3 351.8,300.4 388.2,304.3 424.7,302.9 461.2,295.4 497.6,295.5 534.1,298.7 570.6,298.0 607.1,286.4 643.5,283.8 680.0,282.7" fill="none" stroke="#bbb" stroke-width="0.6" opacity="0.6"/>
<polyline points="60.0,261.4 96.5,272.6 132.9,260.7 169.4,259.7 205.9,261.2 242.4,270.9 278.8,249.9 315.3,248.4 351.8,247.8 388.2,250.4 424.7,235.5 461.2,233.4 497.6,237.1 534.1,241.5 570.6,234.0 607.1,217.9 643.5,219.1 680.0,207.0" fill="none" stroke="#bbb" stroke-width="0.6" opacity="0.6"/>
<polyline points="60.0,252.8 96.5,252.3 132.9,266.9 169.4,260.2 205.9,256.5 242.4,246.3 278.8,216.6 315.3,243.4 351.8,245.2 388.2,252.0 424.7,236.4 461.2,209.1 497.6,220.2 534.1,220.8 570.6,210.0 607.1,196.9 643.5,195.0 680.0,209.2" fill="none" stroke="#bbb" stroke-width="0.6" opacity="0.6"/>
<polyline points="60.0,232.8 96.5,221.3 132.9,231.1 169.4,229.6 205.9,230.0 242.4,215.6 278.8,211.0 315.3,216.4 351.8,211.8 388.2,203.2 424.7,204.9 461.2,213.1 497.6,201.7 534.1,221.2 570.6,199.2 607.1,195.5 643.5,198.0 680.0,194.6" fill="none" stroke="#bbb" stroke-width="0.6" opacity="0.6"/>
<polyline points="60.0,251.7 96.5,250.5 132.9,248.4 169.4,257.3 205.9,241.1 242.4,244.6 278.8,245.8 315.3,236.7 351.8,226.8 388.2,220.3 424.7,228.8 461.2,227.7 497.6,220.3 534.1,226.1 570.6,237.8 607.1,220.6 643.5,212.1 680.0,212.8" fill="none" stroke="#bbb" stroke-width="0.6" opacity="0.6"/>
<polyline points="60.0,267.1 96.5,263.7 132.9,250.2 169.4,247.3 205.9,259.4 242.4,240.9 278.8,242.0 315.3,216.3 351.8,238.0 388.2,225.7 424.7,242.2 461.2,202.9 497.6,207.2 534.1,210.9 570.6,223.7 607.1,200.8 643.5,204.1 680.0,203.1" fill="none" stroke="#bbb" stroke-width="0.6" opacity="0.6"/>
<polyline points="60.0,276.1 96.5,281.3 132.9,279.2 169.4,278.2 205.9,274.0 242.4,271.4 278.8,270.9 315.3,264.0 351.8,264.6 388.2,261.8 424.7,258.4 461.2,263.5 497.6,247.0 534.1,255.6 570.6,252.8 607.1,246.9 643.5,242.7 680.0,243.9" fill="none" stroke="#bbb" stroke-width="0.6" opacity="0.6"/>
<polyline points="60.0,292.7 96.5,287.3 132.9,281.4 169.4,284.1 205.9,284.9 242.4,274.7 278.8,278.3 315.3,271.6 351.8,279.9 388.2,281.4 424.7,274.9 461.2,267.6 497.6,270.4 534.1,272.3 570.6,271.6 607.1,263.2 643.5,261.1 680.0,267.1" fill="none" stroke="#bbb" stroke-width="0.6" opacity="0.6"/>
<polyline points="60.0,254.3 96.5,226.6 132.9,224.3 169.4,232.7 205.9,239.3 242.4,234.3 278.8,221.8 315.3,229.8 351.8,242.6 388.2,223.9 424.7,234.7 461.2,222.2 497.6,214.1 534.1,215.9 570.6,229.2 607.1,202.9 643.5,217.9 680.0,206.9" fill="none" stroke="#bbb" stroke-width="0.6" opacity="0.6"/>
<polyline points="60.0,209.8 96.5,186.2 132.9,171.0 169.4,166.9 205.9,162.8 242.4,149.5 278.8,149.5 315.3,159.6 351.8,158.6 388.2,127.4 424.7,145.2 461.2,80.7 497.6,151.7 534.1,137.7 570.6,118.7 607.1,62.7 643.5,88.6 680.0,108.9" fill="none" stroke="#bbb" stroke-width="0.6" opacity="0.6"/>
<polyline points="60.0,255.3 96.5,265.5 132.9,258.0 169.4,258.4 205.9,255.8 242.4,254.1 278.8,257.8 315.3,250.2 351.8,252.7 388.2,250.1 424.7,251.0 461.2,245.4 497.6,242.3 534.1,255.4 570.6,243.9 607.1,238.7 643.5,230.7 680.0,231.6" fill="none" stroke="#bbb" stroke-width="0.6" opacity="0.6"/>
<polyline points="60.0,269.0 96.5,252.5 132.9,240.0 169.4,251.5 205.9,243.4 242.4,255.2 278.8,234.2 315.3,213.7 351.8,200.3 388.2,220.1 424.7,222.0 461.2,189.2 497.6,222.4 534.1,215.6 570.6,219.8 607.1,178.3 643.5,175.5 680.0,210.1" fill="none" stroke="#bbb" stroke-width="0.6" opacity="0.6"/>
<polyline points="60.0,285.3 96.5,283.3 132.9,268.8 169.4,272.5 205.9,251.3 242.4,279.3 278.8,255.7 315.3,273.4 351.8,243.9 388.2,247.3 424.7,231.3 461.2,222.9 497.6,221.3 534.1,224.6 570.6,239.2 607.1,247.9 643.5,226.1 680.0,238.3" fill="none" stroke="#bbb" stroke-width="0.6" opacity="0.6"/>
<polyline points="60.0,222.3 96.5,226.1 132.9,223.0 169.4,226.7 205.9,221.9 242.4,212.3 278.8,206.6 315.3,211.8 351.8,197.5 388.2,177.2 424.7,197.8 461.2,186.6 497.6,174.2 534.1,172.4 570.6,160.9 607.1,160.7 643.5,159.7 680.0,174.5" fill="none" stroke="#bbb" stroke-width="0.6" opacity="0.6"/>
<polyline points="60.0,217.6 96.5,213.5 132.9,204.4 169.4,204.8 205.9,211.1 242.4,220.8 278.8,221.5 315.3,214.3 351.8,208.6 388.2,218.8 424.7,202.1 461.2,207.4 497.6,192.1 534.1,200.3 570.6,195.4 607.1,178.2 643.5,175.9 680.0,180.1" fill="none" stroke="#bbb" stroke-width="0.6" opacity="0.6"/>
<polyline points="60.0,237.3 96.5,238.2 132.9,227.4 169.4,222.7 205.9,220.3 242.4,198.8 278.8,210.1 315.3,203.7 351.8,204.0 388.2,193.9 424.7,177.4 461.2,204.7 497.6,196.2 534.1,194.0 570.6,172.8 607.1,168.9 643.5,174.5 680.0,164.8" fill="none" stroke="#bbb" stroke-width="0.6" opacity="0.6"/>
<polyline points="60.0,243.8 96.5,238.0 132.9,242.2 169.4,234.0 205.9,223.1 242.4,236.1 278.8,228.6 315.3,222.0 351.8,212.1 388.2,230.7 424.7,219.1 461.2,212.5 497.6,218.0 534.1,206.3 570.6,211.0 607.1,195.2 643.5,203.9 680.0,200.3" fill="none" stroke="#bbb" stroke-width="0.6" opacity="0.6"/>
<polyline points="60.0,276.4 96.5,278.0 132.9,272.5 169.4,267.6 205.9,275.1 242.4,262.4 278.8,269.4 315.3,258.9 351.8,261.2 388.2,257.6 424.7,252.8 461.2,251.2 497.6,247.8 534.1,254.2 570.6,258.9 607.1,252.5 643.5,245.6 680.0,244.1" fill="none" stroke="#bbb" stroke-width="0.6" opacity="0.6"/>
<polyline points="60.0,233.1 96.5,281.5 132.9,241.6 169.4,254.5 205.9,248.1 242.4,257.6 278.8,232.6 315.3,242.3 351.8,235.5 388.2,241.0 424.7,224.6 461.2,226.8 497.6,216.3 534.1,205.9 570.6,222.6 607.1,207.9 643.5,208.6 680.0,224.8" fill="none" stroke="#bbb" stroke-width="0.6" opacity="0.6"/>
<polyline points="60.0,228.5 96.5,236.2 132.9,223.3 169.4,232.6 205.9,231.3 242.4,231.1 278.8,224.8 315.3,215.1 351.8,222.9 388.2,225.2 424.7,218.6 461.2,212.6 497.6,218.0 534.1,208.0 570.6,205.1 607.1,197.7 643.5,196.2 680.0,189.5" fill="none" stroke="#bbb" stroke-width="0.6" opacity="0.6"/>
<polyline points="60.0,280.8 96.5,276.4 132.9,272.5 169.4,269.8 205.9,264.6 242.4,267.5 278.8,265.6 315.3,265.1 351.8,266.4 388.2,257.9 424.7,258.2 461.2,253.0 497.6,249.4 534.1,251.7 570.6,250.7 607.1,240.4 643.5,237.2 680.0,237.3" fill="none" stroke="#bbb" stroke-width="0.6" opacity="0.6"/>
<polyline points="60.0,255.8 96.5,255.4 132.9,259.2 169.4,250.7 205.9,221.3 242.4,227.2 278.8,221.8 315.3,218.3 351.8,228.1 388.2,214.5 424.7,218.9 461.2,205.8 497.6,210.8 534.1,217.0 570.6,214.7 607.1,208.4 643.5,203.4 680.0,193.1" fill="none" stroke="#bbb" stroke-width="0.6" opacity="0.6"/>
<polyline points="60.0,267.9 96.5,270.8 132.9,264.9 169.4,265.7 205.9,258.7 242.4,255.2 278.8,259.1 315.3,257.7 351.8,254.4 388.2,254.4 424.7,248.2 461.2,248.7 497.6,248.2 534.1,251.3 570.6,246.3 607.1,245.3 643.5,243.4 680.0,243.0" fill="none" stroke="#bbb" stroke-width="0.6" opacity="0.6"/>
<polyline points="60.0,283.5 96.5,274.6 132.9,273.5 169.4,273.7 205.9,266.3 242.4,273.1 278.8,274.0 315.3,253.2 351.8,273.5 388.2,256.7 424.7,249.6 461.2,254.6 497.6,258.4 534.1,256.9 570.6,253.6 607.1,244.7 643.5,234.8 680.0,241.5" fill="none" stroke="#bbb" stroke-width="0.6" opacity="0.6"/>
<polyline points="60.0,253.7 96.5,252.3 132.9,250.6 169.4,240.6 205.9,234.5 242.4,226.2 278.8,229.7 315.3,226.8 351.8,224.4 388.2,219.0 424.7,211.1 461.2,218.2 497.6,212.1 534.1,214.5 570.6,206.7 607.1,195.4 643.5,200.6 680.0,192.0" fill="none" stroke="#1f3a5f" stroke-width="2" stroke-dasharray="6 4"/>
<polyline points="60.0,262.9 96.5,262.5 132.9,260.3 169.4,227.6 205.9,213.2 242.4,204.6 278.8,248.0 315.3,228.6 351.8,228.6 388.2,228.5 424.7,206.4 461.2,221.4 497.6,204.6 534.1,228.0 570.6,206.1 607.1,201.1 643.5,211.8 680.0,214.0" fill="none" stroke="#b9461a" stroke-width="2.4"/>
<line x1="479.4" y1="50" x2="479.4" y2="330" stroke="#1f2024" stroke-width="0.8" stroke-dasharray="4 3"/>
<text x="479.4" y="45" text-anchor="middle" fill="#1f2024" font-size="10">adoption (2018)</text>
<line x1="60" y1="330" x2="680" y2="330" stroke="#444"/>
<line x1="60" y1="50" x2="60" y2="330" stroke="#444"/>
<line x1="60.0" y1="330" x2="60.0" y2="334" stroke="#444"/>
<text x="60.0" y="348" text-anchor="middle" fill="#444">2006</text>
<line x1="132.9" y1="330" x2="132.9" y2="334" stroke="#444"/>
<text x="132.9" y="348" text-anchor="middle" fill="#444">2008</text>
<line x1="205.9" y1="330" x2="205.9" y2="334" stroke="#444"/>
<text x="205.9" y="348" text-anchor="middle" fill="#444">2010</text>
<line x1="278.8" y1="330" x2="278.8" y2="334" stroke="#444"/>
<text x="278.8" y="348" text-anchor="middle" fill="#444">2012</text>
<line x1="351.8" y1="330" x2="351.8" y2="334" stroke="#444"/>
<text x="351.8" y="348" text-anchor="middle" fill="#444">2014</text>
<line x1="424.7" y1="330" x2="424.7" y2="334" stroke="#444"/>
<text x="424.7" y="348" text-anchor="middle" fill="#444">2016</text>
<line x1="497.6" y1="330" x2="497.6" y2="334" stroke="#444"/>
<text x="497.6" y="348" text-anchor="middle" fill="#444">2018</text>
<line x1="570.6" y1="330" x2="570.6" y2="334" stroke="#444"/>
<text x="570.6" y="348" text-anchor="middle" fill="#444">2020</text>
<line x1="643.5" y1="330" x2="643.5" y2="334" stroke="#444"/>
<text x="643.5" y="348" text-anchor="middle" fill="#444">2022</text>
<line x1="56" y1="330.0" x2="60" y2="330.0" stroke="#444"/>
<text x="53" y="333.0" text-anchor="end" fill="#444">2</text>
<line x1="56" y1="260.0" x2="60" y2="260.0" stroke="#444"/>
<text x="53" y="263.0" text-anchor="end" fill="#444">7.1</text>
<line x1="56" y1="190.0" x2="60" y2="190.0" stroke="#444"/>
<text x="53" y="193.0" text-anchor="end" fill="#444">12</text>
<line x1="56" y1="120.0" x2="60" y2="120.0" stroke="#444"/>
<text x="53" y="123.0" text-anchor="end" fill="#444">17</text>
<line x1="56" y1="50.0" x2="60" y2="50.0" stroke="#444"/>
<text x="53" y="53.0" text-anchor="end" fill="#444">23</text>
<rect x="520" y="60" width="190" height="60" fill="white" stroke="#e2e2dc"/>
<line x1="530" y1="75" x2="560" y2="75" stroke="#b9461a" stroke-width="2.4"/>
<text x="565" y="79" font-size="11">Vermont (treated)</text>
<line x1="530" y1="95" x2="560" y2="95" stroke="#1f3a5f" stroke-width="2" stroke-dasharray="6 4"/>
<text x="565" y="99" font-size="11">Synthetic counterfactual</text>
<line x1="530" y1="112" x2="560" y2="112" stroke="#bbb" stroke-width="0.6"/>
<text x="565" y="116" font-size="10">Donor states (gray)</text>
</svg>