<svg xmlns="http://www.w3.org/2000/svg" viewBox="0 0 720 380" font-family="-apple-system, Segoe UI, Helvetica, Arial, sans-serif" font-size="12">
<rect x="0" y="0" width="720" height="380" fill="#fafaf7"/>
<text x="360.0" y="22" text-anchor="middle" font-size="14" font-weight="600">Vermont (2018): Total homicide rate (per 100k)</text>
<polyline points="60.0,255.7 96.5,243.2 132.9,275.2 169.4,285.8 205.9,269.7 242.4,272.3 278.8,272.8 315.3,266.0 351.8,253.1 388.2,220.1 424.7,233.4 461.2,214.9 497.6,241.8 534.1,201.0 570.6,237.7 607.1,245.4 643.5,199.1 680.0,219.9" fill="none" stroke="#bbb" stroke-width="0.6" opacity="0.6"/>
<polyline points="60.0,215.9 96.5,207.8 132.9,226.4 169.4,235.8 205.9,250.6 242.4,244.1 278.8,232.3 315.3,231.5 351.8,251.3 388.2,231.3 424.7,215.0 461.2,212.0 497.6,222.3 534.1,220.8 570.6,198.8 607.1,200.7 643.5,171.4 680.0,186.0" fill="none" stroke="#bbb" stroke-width="0.6" opacity="0.6"/>
<polyline points="60.0,229.6 96.5,233.8 132.9,250.2 169.4,244.5 205.9,266.3 242.4,254.7 278.8,248.5 315.3,256.1 351.8,248.5 388.2,242.5 424.7,230.1 461.2,216.1 497.6,228.5 534.1,222.2 570.6,184.9 607.1,179.0 643.5,189.2 680.0,198.7" fill="none" stroke="#bbb" stroke-width="0.6" opacity="0.6"/>
<polyline points="60.0,211.3 96.5,211.3 132.9,232.2 169.4,250.4 205.9,242.3 242.4,245.3 278.8,254.4 315.3,256.0 351.8,265.9 388.2,267.7 424.7,252.2 461.2,247.4 497.6,256.0 534.1,254.7 570.6,234.8 607.1,238.0 643.5,233.3 680.0,240.5" fill="none" stroke="#bbb" stroke-width="0.6" opacity="0.6"/>
<polyline points="60.0,240.9 96.5,226.2 132.9,238.9 169.4,250.4 205.9,251.0 242.4,252.7 278.8,248.8 315.3,252.1 351.8,247.0 388.2,245.8 424.7,238.9 461.2,239.9 497.6,245.1 534.1,251.3 570.6,209.1 607.1,221.6 643.5,215.1 680.0,227.1" fill="none" stroke="#bbb" stroke-width="0.6" opacity="0.6"/>
<polyline points="60.0,296.2 96.5,284.2 132.9,308.1 169.4,307.5 205.9,309.5 242.4,298.6 278.8,303.0 315.3,304.2 351.8,302.0 388.2,302.3 424.7,289.0 461.2,295.4 497.6,302.2 534.1,307.3 570.6,298.1 607.1,297.9 643.5,291.5 680.0,294.1" fill="none" stroke="#bbb" stroke-width="0.6" opacity="0.6"/>
<polyline points="60.0,246.1 96.5,249.2 132.9,245.5 169.4,247.3 205.9,254.2 242.4,246.2 278.8,247.4 315.3,252.6 351.8,255.9 388.2,248.9 424.7,216.4 461.2,224.3 497.6,232.4 534.1,237.4 570.6,204.5 607.1,205.6 643.5,221.1 680.0,238.9" fill="none" stroke="#bbb" stroke-width="0.6" opacity="0.6"/>
<polyline points="60.0,251.0 96.5,253.7 132.9,260.1 169.4,262.7 205.9,272.5 242.4,264.9 278.8,264.9 315.3,254.9 351.8,260.1 388.2,252.7 424.7,240.4 461.2,244.4 497.6,243.9 534.1,253.4 570.6,227.2 607.1,231.0 643.5,235.9 680.0,251.1" fill="none" stroke="#bbb" stroke-width="0.6" opacity="0.6"/>
<polyline points="60.0,267.2 96.5,276.8 132.9,273.9 169.4,268.4 205.9,282.5 242.4,276.1 278.8,288.6 315.3,273.7 351.8,285.6 388.2,269.8 424.7,267.0 461.2,266.1 497.6,271.7 534.1,284.3 570.6,282.0 607.1,263.0 643.5,263.9 680.0,256.9" fill="none" stroke="#bbb" stroke-width="0.6" opacity="0.6"/>
<polyline points="60.0,272.8 96.5,262.7 132.9,264.7 169.4,270.7 205.9,269.9 242.4,281.6 278.8,266.3 315.3,275.5 351.8,278.1 388.2,261.4 424.7,247.5 461.2,247.9 497.6,252.5 534.1,259.1 570.6,230.7 607.1,216.0 643.5,230.0 680.0,241.2" fill="none" stroke="#bbb" stroke-width="0.6" opacity="0.6"/>
<polyline points="60.0,153.0 96.5,131.1 132.9,161.3 169.4,168.8 205.9,179.4 242.4,178.5 278.8,184.4 315.3,183.8 351.8,189.7 388.2,185.6 424.7,167.9 461.2,161.3 497.6,173.4 534.1,169.3 570.6,114.3 607.1,62.7 643.5,104.6 680.0,130.8" fill="none" stroke="#bbb" stroke-width="0.6" opacity="0.6"/>
<polyline points="60.0,304.9 96.5,307.9 132.9,296.6 169.4,301.8 205.9,304.0 242.4,302.0 278.8,302.0 315.3,304.0 351.8,307.1 388.2,305.1 424.7,308.1 461.2,305.2 497.6,305.2 534.1,306.4 570.6,306.4 607.1,308.8 643.5,299.2 680.0,270.4" fill="none" stroke="#bbb" stroke-width="0.6" opacity="0.6"/>
<polyline points="60.0,231.7 96.5,239.5 132.9,253.4 169.4,243.8 205.9,248.9 242.4,243.8 278.8,232.3 315.3,242.9 351.8,254.1 388.2,248.5 424.7,245.0 461.2,251.2 497.6,253.2 534.1,250.3 570.6,225.9 607.1,225.7 643.5,234.3 680.0,248.2" fill="none" stroke="#bbb" stroke-width="0.6" opacity="0.6"/>
<polyline points="60.0,295.5 96.5,298.3 132.9,300.0 169.4,309.5 205.9,304.0 242.4,309.5 278.8,303.6 315.3,300.0 351.8,306.7 388.2,295.6 424.7,303.7 461.2,300.8 497.6,302.7 534.1,298.0 570.6,283.0 607.1,280.3 643.5,285.1 680.0,285.4" fill="none" stroke="#bbb" stroke-width="0.6" opacity="0.6"/>
<polyline points="60.0,220.9 96.5,234.7 132.9,219.6 169.4,239.4 205.9,235.4 242.4,222.9 278.8,231.8 315.3,230.2 351.8,211.2 388.2,213.8 424.7,220.9 461.2,242.4 497.6,231.2 534.1,192.9 570.6,184.6 607.1,202.6 643.5,225.7 680.0,230.4" fill="none" stroke="#bbb" stroke-width="0.6" opacity="0.6"/>
<polyline points="60.0,281.2 96.5,290.3 132.9,272.5 169.4,284.0 205.9,294.3 242.4,289.1 278.8,289.4 315.3,297.8 351.8,278.2 388.2,278.6 424.7,280.2 461.2,275.7 497.6,281.2 534.1,288.0 570.6,260.8 607.1,284.4 643.5,265.7 680.0,285.4" fill="none" stroke="#bbb" stroke-width="0.6" opacity="0.6"/>
<polyline points="60.0,246.0 96.5,241.1 132.9,240.5 169.4,257.8 205.9,261.3 242.4,258.6 278.8,261.9 315.3,264.8 351.8,260.6 388.2,258.7 424.7,238.0 461.2,246.4 497.6,253.6 534.1,244.2 570.6,219.5 607.1,200.8 643.5,218.1 680.0,219.5" fill="none" stroke="#bbb" stroke-width="0.6" opacity="0.6"/>
<polyline points="60.0,298.7 96.5,292.5 132.9,305.3 169.4,303.4 205.9,308.4 242.4,281.0 278.8,280.2 315.3,298.6 351.8,286.4 388.2,290.9 424.7,299.8 461.2,310.6 497.6,296.3 534.1,284.1 570.6,271.8 607.1,304.1 643.5,278.1 680.0,280.4" fill="none" stroke="#bbb" stroke-width="0.6" opacity="0.6"/>
<polyline points="60.0,315.1 96.5,316.2 132.9,314.1 169.4,317.3 205.9,315.1 242.4,312.1 278.8,313.1 315.3,307.0 351.8,312.2 388.2,313.2 424.7,309.2 461.2,315.5 497.6,307.5 534.1,295.6 570.6,316.6 607.1,315.8 643.5,302.3 680.0,304.4" fill="none" stroke="#bbb" stroke-width="0.6" opacity="0.6"/>
<polyline points="60.0,235.6 96.5,202.6 132.9,218.5 169.4,194.9 205.9,236.6 242.4,225.5 278.8,253.0 315.3,248.6 351.8,262.9 388.2,252.3 424.7,238.2 461.2,235.3 497.6,229.4 534.1,209.1 570.6,223.0 607.1,153.6 643.5,162.3 680.0,168.7" fill="none" stroke="#bbb" stroke-width="0.6" opacity="0.6"/>
<polyline points="60.0,205.7 96.5,226.5 132.9,242.5 169.4,248.5 205.9,249.3 242.4,259.2 278.8,267.5 315.3,249.4 351.8,247.3 388.2,244.8 424.7,223.3 461.2,207.2 497.6,238.1 534.1,265.4 570.6,250.8 607.1,225.5 643.5,231.7 680.0,229.8" fill="none" stroke="#bbb" stroke-width="0.6" opacity="0.6"/>
<polyline points="60.0,249.0 96.5,244.6 132.9,248.5 169.4,242.5 205.9,258.2 242.4,252.6 278.8,250.4 315.3,258.9 351.8,265.6 388.2,245.2 424.7,243.1 461.2,244.7 497.6,254.5 534.1,234.4 570.6,227.7 607.1,225.2 643.5,234.1 680.0,243.4" fill="none" stroke="#bbb" stroke-width="0.6" opacity="0.6"/>
<polyline points="60.0,296.3 96.5,301.0 132.9,297.4 169.4,297.3 205.9,294.6 242.4,299.1 278.8,296.9 315.3,300.2 351.8,299.9 388.2,291.5 424.7,290.0 461.2,294.2 497.6,300.6 534.1,290.9 570.6,288.6 607.1,263.5 643.5,264.3 680.0,267.6" fill="none" stroke="#bbb" stroke-width="0.6" opacity="0.6"/>
<polyline points="60.0,247.8 96.5,249.5 132.9,251.7 169.4,257.1 205.9,258.9 242.4,260.5 278.8,253.4 315.3,263.7 351.8,263.9 388.2,258.0 424.7,257.1 461.2,249.9 497.6,245.5 534.1,256.9 570.6,221.5 607.1,215.3 643.5,218.2 680.0,237.6" fill="none" stroke="#bbb" stroke-width="0.6" opacity="0.6"/>
<polyline points="60.0,276.5 96.5,275.7 132.9,266.1 169.4,278.5 205.9,290.3 242.4,295.6 278.8,291.1 315.3,299.7 351.8,292.0 388.2,276.4 424.7,284.5 461.2,286.6 497.6,310.0 534.1,304.1 570.6,267.8 607.1,287.7 643.5,268.9 680.0,290.1" fill="none" stroke="#bbb" stroke-width="0.6" opacity="0.6"/>
<polyline points="60.0,234.4 96.5,239.3 132.9,238.6 169.4,227.7 205.9,252.0 242.4,248.0 278.8,244.5 315.3,258.6 351.8,252.1 388.2,242.6 424.7,227.6 461.2,219.8 497.6,226.8 534.1,226.3 570.6,198.0 607.1,190.6 643.5,204.1 680.0,192.3" fill="none" stroke="#bbb" stroke-width="0.6" opacity="0.6"/>
<polyline points="60.0,248.6 96.5,248.0 132.9,252.2 169.4,255.8 205.9,261.5 242.4,268.8 278.8,268.8 315.3,270.2 351.8,268.6 388.2,263.4 424.7,256.7 461.2,261.3 497.6,265.7 534.1,261.5 570.6,239.4 607.1,232.8 643.5,234.8 680.0,245.3" fill="none" stroke="#bbb" stroke-width="0.6" opacity="0.6"/>
<polyline points="60.0,301.4 96.5,298.3 132.9,308.2 169.4,309.5 205.9,302.6 242.4,304.4 278.8,303.8 315.3,304.7 351.8,298.1 388.2,302.7 424.7,295.6 461.2,296.2 497.6,301.4 534.1,295.9 570.6,286.0 607.1,290.4 643.5,298.5 680.0,297.4" fill="none" stroke="#bbb" stroke-width="0.6" opacity="0.6"/>
<polyline points="60.0,257.0 96.5,255.6 132.9,264.0 169.4,264.9 205.9,265.0 242.4,277.7 278.8,275.2 315.3,276.1 351.8,271.5 388.2,265.3 424.7,250.9 461.2,253.2 497.6,262.0 534.1,257.7 570.6,245.8 607.1,238.8 643.5,228.4 680.0,244.5" fill="none" stroke="#bbb" stroke-width="0.6" opacity="0.6"/>
<polyline points="60.0,288.3 96.5,283.7 132.9,293.4 169.4,293.5 205.9,291.6 242.4,295.8 278.8,288.5 315.3,290.0 351.8,291.1 388.2,272.1 424.7,274.0 461.2,283.6 497.6,287.7 534.1,284.5 570.6,256.9 607.1,252.0 643.5,254.4 680.0,260.9" fill="none" stroke="#bbb" stroke-width="0.6" opacity="0.6"/>
<polyline points="60.0,300.6 96.5,300.1 132.9,301.4 169.4,306.4 205.9,307.7 242.4,303.8 278.8,304.5 315.3,303.6 351.8,302.3 388.2,300.8 424.7,297.6 461.2,300.8 497.6,301.4 534.1,297.8 570.6,296.3 607.1,300.7 643.5,289.8 680.0,295.8" fill="none" stroke="#1f3a5f" stroke-width="2" stroke-dasharray="6 4"/>
<polyline points="60.0,298.1 96.5,300.2 132.9,291.4 169.4,311.1 205.9,313.4 242.4,304.7 278.8,311.2 315.3,306.9 351.8,306.9 388.2,306.9 424.7,298.1 461.2,291.6 497.6,304.6 534.1,304.6 570.6,298.1 607.1,309.7 643.5,282.4 680.0,293.0" fill="none" stroke="#b9461a" stroke-width="2.4"/>
<line x1="479.4" y1="50" x2="479.4" y2="330" stroke="#1f2024" stroke-width="0.8" stroke-dasharray="4 3"/>
<text x="479.4" y="45" text-anchor="middle" fill="#1f2024" font-size="10">adoption (2018)</text>
<line x1="60" y1="330" x2="680" y2="330" stroke="#444"/>
<line x1="60" y1="50" x2="60" y2="330" stroke="#444"/>
<line x1="60.0" y1="330" x2="60.0" y2="334" stroke="#444"/>
<text x="60.0" y="348" text-anchor="middle" fill="#444">2006</text>
<line x1="132.9" y1="330" x2="132.9" y2="334" stroke="#444"/>
<text x="132.9" y="348" text-anchor="middle" fill="#444">2008</text>
<line x1="205.9" y1="330" x2="205.9" y2="334" stroke="#444"/>
<text x="205.9" y="348" text-anchor="middle" fill="#444">2010</text>
<line x1="278.8" y1="330" x2="278.8" y2="334" stroke="#444"/>
<text x="278.8" y="348" text-anchor="middle" fill="#444">2012</text>
<line x1="351.8" y1="330" x2="351.8" y2="334" stroke="#444"/>
<text x="351.8" y="348" text-anchor="middle" fill="#444">2014</text>
<line x1="424.7" y1="330" x2="424.7" y2="334" stroke="#444"/>
<text x="424.7" y="348" text-anchor="middle" fill="#444">2016</text>
<line x1="497.6" y1="330" x2="497.6" y2="334" stroke="#444"/>
<text x="497.6" y="348" text-anchor="middle" fill="#444">2018</text>
<line x1="570.6" y1="330" x2="570.6" y2="334" stroke="#444"/>
<text x="570.6" y="348" text-anchor="middle" fill="#444">2020</text>
<line x1="643.5" y1="330" x2="643.5" y2="334" stroke="#444"/>
<text x="643.5" y="348" text-anchor="middle" fill="#444">2022</text>
<line x1="56" y1="330.0" x2="60" y2="330.0" stroke="#444"/>
<text x="53" y="333.0" text-anchor="end" fill="#444">-0.11</text>
<line x1="56" y1="260.0" x2="60" y2="260.0" stroke="#444"/>
<text x="53" y="263.0" text-anchor="end" fill="#444">5.1</text>
<line x1="56" y1="190.0" x2="60" y2="190.0" stroke="#444"/>
<text x="53" y="193.0" text-anchor="end" fill="#444">10</text>
<line x1="56" y1="120.0" x2="60" y2="120.0" stroke="#444"/>
<text x="53" y="123.0" text-anchor="end" fill="#444">15</text>
<line x1="56" y1="50.0" x2="60" y2="50.0" stroke="#444"/>
<text x="53" y="53.0" text-anchor="end" fill="#444">21</text>
<rect x="520" y="60" width="190" height="60" fill="white" stroke="#e2e2dc"/>
<line x1="530" y1="75" x2="560" y2="75" stroke="#b9461a" stroke-width="2.4"/>
<text x="565" y="79" font-size="11">Vermont (treated)</text>
<line x1="530" y1="95" x2="560" y2="95" stroke="#1f3a5f" stroke-width="2" stroke-dasharray="6 4"/>
<text x="565" y="99" font-size="11">Synthetic counterfactual</text>
<line x1="530" y1="112" x2="560" y2="112" stroke="#bbb" stroke-width="0.6"/>
<text x="565" y="116" font-size="10">Donor states (gray)</text>
</svg>