<svg xmlns="http://www.w3.org/2000/svg" viewBox="0 0 820 620" font-family="-apple-system, Segoe UI, Helvetica, Arial, sans-serif" font-size="11">
<text x="410.0" y="22" text-anchor="middle" font-size="14" font-weight="600">Spatial RDD event study (magazine_ban, secondary outcomes)</text>
<rect x="15" y="40" width="380" height="260" fill="#fafaf7" stroke="#e2e2dc"/>
<text x="205.0" y="58" text-anchor="middle" font-weight="600">State firearm suicide rate (per 100,000)</text>
<line x1="75" y1="201.15289288485337" x2="377" y2="201.15289288485337" stroke="#aaaaaa" stroke-width="0.7"/>
<polygon points="88.7,198.7 116.2,196.7 143.6,218.0 171.1,224.1 198.5,201.2 226.0,205.1 253.5,178.1 280.9,148.6 308.4,90.0 335.8,200.2 363.3,182.3 363.3,200.8 335.8,242.2 308.4,114.3 280.9,204.5 253.5,247.4 226.0,239.6 198.5,201.2 171.1,250.0 143.6,248.9 116.2,222.7 88.7,233.3" fill="#1f3a5f" opacity="0.18"/>
<polyline points="88.7,216.0 116.2,209.7 143.6,233.5 171.1,237.0 198.5,201.2 226.0,222.4 253.5,212.8 280.9,176.5 308.4,102.2 335.8,221.2 363.3,191.6" fill="none" stroke="#1f3a5f" stroke-width="1.6"/>
<circle cx="88.7" cy="216.0" r="2.6" fill="#1f3a5f"/>
<circle cx="116.2" cy="209.7" r="2.6" fill="#1f3a5f"/>
<circle cx="143.6" cy="233.5" r="2.6" fill="#1f3a5f"/>
<circle cx="171.1" cy="237.0" r="2.6" fill="#1f3a5f"/>
<circle cx="198.5" cy="201.2" r="2.6" fill="#1f3a5f"/>
<circle cx="226.0" cy="222.4" r="2.6" fill="#1f3a5f"/>
<circle cx="253.5" cy="212.8" r="2.6" fill="#1f3a5f"/>
<circle cx="280.9" cy="176.5" r="2.6" fill="#1f3a5f"/>
<circle cx="308.4" cy="102.2" r="2.6" fill="#1f3a5f"/>
<circle cx="335.8" cy="221.2" r="2.6" fill="#1f3a5f"/>
<circle cx="363.3" cy="191.6" r="2.6" fill="#1f3a5f"/>
<line x1="212.3" y1="90" x2="212.3" y2="250" stroke="#b9461a" stroke-dasharray="3 3"/>
<line x1="75" y1="250" x2="377" y2="250" stroke="#444"/>
<line x1="75" y1="90" x2="75" y2="250" stroke="#444"/>
<line x1="88.7" y1="250" x2="88.7" y2="253" stroke="#444"/>
<text x="88.7" y="265" text-anchor="middle" fill="#444">-5</text>
<line x1="116.2" y1="250" x2="116.2" y2="253" stroke="#444"/>
<text x="116.2" y="265" text-anchor="middle" fill="#444">-4</text>
<line x1="143.6" y1="250" x2="143.6" y2="253" stroke="#444"/>
<text x="143.6" y="265" text-anchor="middle" fill="#444">-3</text>
<line x1="171.1" y1="250" x2="171.1" y2="253" stroke="#444"/>
<text x="171.1" y="265" text-anchor="middle" fill="#444">-2</text>
<line x1="198.5" y1="250" x2="198.5" y2="253" stroke="#444"/>
<text x="198.5" y="265" text-anchor="middle" fill="#444">-1</text>
<line x1="226.0" y1="250" x2="226.0" y2="253" stroke="#444"/>
<text x="226.0" y="265" text-anchor="middle" fill="#444">0</text>
<line x1="253.5" y1="250" x2="253.5" y2="253" stroke="#444"/>
<text x="253.5" y="265" text-anchor="middle" fill="#444">1</text>
<line x1="280.9" y1="250" x2="280.9" y2="253" stroke="#444"/>
<text x="280.9" y="265" text-anchor="middle" fill="#444">2</text>
<line x1="308.4" y1="250" x2="308.4" y2="253" stroke="#444"/>
<text x="308.4" y="265" text-anchor="middle" fill="#444">3</text>
<line x1="335.8" y1="250" x2="335.8" y2="253" stroke="#444"/>
<text x="335.8" y="265" text-anchor="middle" fill="#444">4</text>
<line x1="363.3" y1="250" x2="363.3" y2="253" stroke="#444"/>
<text x="363.3" y="265" text-anchor="middle" fill="#444">5</text>
<line x1="72" y1="250.0" x2="75" y2="250.0" stroke="#444"/>
<text x="69" y="253.0" text-anchor="end" fill="#444">-0.75</text>
<line x1="72" y1="210.0" x2="75" y2="210.0" stroke="#444"/>
<text x="69" y="213.0" text-anchor="end" fill="#444">-0.14</text>
<line x1="72" y1="170.0" x2="75" y2="170.0" stroke="#444"/>
<text x="69" y="173.0" text-anchor="end" fill="#444">0.48</text>
<line x1="72" y1="130.0" x2="75" y2="130.0" stroke="#444"/>
<text x="69" y="133.0" text-anchor="end" fill="#444">1.1</text>
<line x1="72" y1="90.0" x2="75" y2="90.0" stroke="#444"/>
<text x="69" y="93.0" text-anchor="end" fill="#444">1.7</text>
<text x="226.0" y="284" text-anchor="middle" fill="#444">Event time (years from adoption)</text>
<text x="27" y="170.0" text-anchor="middle" fill="#444" transform="rotate(-90 27 170.0)">Coefficient (per 100k)</text>
<rect x="425" y="40" width="380" height="260" fill="#fafaf7" stroke="#e2e2dc"/>
<text x="615.0" y="58" text-anchor="middle" font-weight="600">State total suicide rate (per 100,000)</text>
<line x1="485" y1="210.6741590015739" x2="787" y2="210.6741590015739" stroke="#aaaaaa" stroke-width="0.7"/>
<polygon points="498.7,202.2 526.2,193.0 553.6,229.7 581.1,227.7 608.5,210.7 636.0,197.6 663.5,203.3 690.9,199.5 718.4,90.0 745.8,188.2 773.3,165.8 773.3,202.2 745.8,242.1 718.4,195.0 690.9,233.5 663.5,248.1 636.0,222.3 608.5,210.7 581.1,244.2 553.6,250.0 526.2,222.7 498.7,234.7" fill="#1f3a5f" opacity="0.18"/>
<polyline points="498.7,218.4 526.2,207.9 553.6,239.9 581.1,236.0 608.5,210.7 636.0,210.0 663.5,225.7 690.9,216.5 718.4,142.5 745.8,215.1 773.3,184.0" fill="none" stroke="#1f3a5f" stroke-width="1.6"/>
<circle cx="498.7" cy="218.4" r="2.6" fill="#1f3a5f"/>
<circle cx="526.2" cy="207.9" r="2.6" fill="#1f3a5f"/>
<circle cx="553.6" cy="239.9" r="2.6" fill="#1f3a5f"/>
<circle cx="581.1" cy="236.0" r="2.6" fill="#1f3a5f"/>
<circle cx="608.5" cy="210.7" r="2.6" fill="#1f3a5f"/>
<circle cx="636.0" cy="210.0" r="2.6" fill="#1f3a5f"/>
<circle cx="663.5" cy="225.7" r="2.6" fill="#1f3a5f"/>
<circle cx="690.9" cy="216.5" r="2.6" fill="#1f3a5f"/>
<circle cx="718.4" cy="142.5" r="2.6" fill="#1f3a5f"/>
<circle cx="745.8" cy="215.1" r="2.6" fill="#1f3a5f"/>
<circle cx="773.3" cy="184.0" r="2.6" fill="#1f3a5f"/>
<line x1="622.3" y1="90" x2="622.3" y2="250" stroke="#b9461a" stroke-dasharray="3 3"/>
<line x1="485" y1="250" x2="787" y2="250" stroke="#444"/>
<line x1="485" y1="90" x2="485" y2="250" stroke="#444"/>
<line x1="498.7" y1="250" x2="498.7" y2="253" stroke="#444"/>
<text x="498.7" y="265" text-anchor="middle" fill="#444">-5</text>
<line x1="526.2" y1="250" x2="526.2" y2="253" stroke="#444"/>
<text x="526.2" y="265" text-anchor="middle" fill="#444">-4</text>
<line x1="553.6" y1="250" x2="553.6" y2="253" stroke="#444"/>
<text x="553.6" y="265" text-anchor="middle" fill="#444">-3</text>
<line x1="581.1" y1="250" x2="581.1" y2="253" stroke="#444"/>
<text x="581.1" y="265" text-anchor="middle" fill="#444">-2</text>
<line x1="608.5" y1="250" x2="608.5" y2="253" stroke="#444"/>
<text x="608.5" y="265" text-anchor="middle" fill="#444">-1</text>
<line x1="636.0" y1="250" x2="636.0" y2="253" stroke="#444"/>
<text x="636.0" y="265" text-anchor="middle" fill="#444">0</text>
<line x1="663.5" y1="250" x2="663.5" y2="253" stroke="#444"/>
<text x="663.5" y="265" text-anchor="middle" fill="#444">1</text>
<line x1="690.9" y1="250" x2="690.9" y2="253" stroke="#444"/>
<text x="690.9" y="265" text-anchor="middle" fill="#444">2</text>
<line x1="718.4" y1="250" x2="718.4" y2="253" stroke="#444"/>
<text x="718.4" y="265" text-anchor="middle" fill="#444">3</text>
<line x1="745.8" y1="250" x2="745.8" y2="253" stroke="#444"/>
<text x="745.8" y="265" text-anchor="middle" fill="#444">4</text>
<line x1="773.3" y1="250" x2="773.3" y2="253" stroke="#444"/>
<text x="773.3" y="265" text-anchor="middle" fill="#444">5</text>
<line x1="482" y1="250.0" x2="485" y2="250.0" stroke="#444"/>
<text x="479" y="253.0" text-anchor="end" fill="#444">-1.2</text>
<line x1="482" y1="210.0" x2="485" y2="210.0" stroke="#444"/>
<text x="479" y="213.0" text-anchor="end" fill="#444">0.021</text>
<line x1="482" y1="170.0" x2="485" y2="170.0" stroke="#444"/>
<text x="479" y="173.0" text-anchor="end" fill="#444">1.3</text>
<line x1="482" y1="130.0" x2="485" y2="130.0" stroke="#444"/>
<text x="479" y="133.0" text-anchor="end" fill="#444">2.5</text>
<line x1="482" y1="90.0" x2="485" y2="90.0" stroke="#444"/>
<text x="479" y="93.0" text-anchor="end" fill="#444">3.8</text>
<text x="636.0" y="284" text-anchor="middle" fill="#444">Event time (years from adoption)</text>
<text x="437" y="170.0" text-anchor="middle" fill="#444" transform="rotate(-90 437 170.0)">Coefficient (per 100k)</text>
<rect x="15" y="330" width="380" height="260" fill="#fafaf7" stroke="#e2e2dc"/>
<text x="205.0" y="348" text-anchor="middle" font-weight="600">State non-firearm suicide rate (per 100,000) [substitution]</text>
<line x1="75" y1="490.9609746332502" x2="377" y2="490.9609746332502" stroke="#aaaaaa" stroke-width="0.7"/>
<polygon points="88.7,478.2 116.2,461.5 143.6,498.3 171.1,495.2 198.5,491.0 226.0,454.0 253.5,490.5 280.9,505.4 308.4,380.0 335.8,445.6 363.3,423.3 363.3,490.1 335.8,519.9 308.4,540.0 280.9,532.0 253.5,520.4 226.0,493.5 198.5,491.0 171.1,511.0 143.6,525.4 116.2,498.8 88.7,505.4" fill="#1f3a5f" opacity="0.18"/>
<polyline points="88.7,491.8 116.2,480.2 143.6,511.8 171.1,503.1 198.5,491.0 226.0,473.8 253.5,505.5 280.9,518.7 308.4,460.0 335.8,482.7 363.3,456.7" fill="none" stroke="#1f3a5f" stroke-width="1.6"/>
<circle cx="88.7" cy="491.8" r="2.6" fill="#1f3a5f"/>
<circle cx="116.2" cy="480.2" r="2.6" fill="#1f3a5f"/>
<circle cx="143.6" cy="511.8" r="2.6" fill="#1f3a5f"/>
<circle cx="171.1" cy="503.1" r="2.6" fill="#1f3a5f"/>
<circle cx="198.5" cy="491.0" r="2.6" fill="#1f3a5f"/>
<circle cx="226.0" cy="473.8" r="2.6" fill="#1f3a5f"/>
<circle cx="253.5" cy="505.5" r="2.6" fill="#1f3a5f"/>
<circle cx="280.9" cy="518.7" r="2.6" fill="#1f3a5f"/>
<circle cx="308.4" cy="460.0" r="2.6" fill="#1f3a5f"/>
<circle cx="335.8" cy="482.7" r="2.6" fill="#1f3a5f"/>
<circle cx="363.3" cy="456.7" r="2.6" fill="#1f3a5f"/>
<line x1="212.3" y1="380" x2="212.3" y2="540" stroke="#b9461a" stroke-dasharray="3 3"/>
<line x1="75" y1="540" x2="377" y2="540" stroke="#444"/>
<line x1="75" y1="380" x2="75" y2="540" stroke="#444"/>
<line x1="88.7" y1="540" x2="88.7" y2="543" stroke="#444"/>
<text x="88.7" y="555" text-anchor="middle" fill="#444">-5</text>
<line x1="116.2" y1="540" x2="116.2" y2="543" stroke="#444"/>
<text x="116.2" y="555" text-anchor="middle" fill="#444">-4</text>
<line x1="143.6" y1="540" x2="143.6" y2="543" stroke="#444"/>
<text x="143.6" y="555" text-anchor="middle" fill="#444">-3</text>
<line x1="171.1" y1="540" x2="171.1" y2="543" stroke="#444"/>
<text x="171.1" y="555" text-anchor="middle" fill="#444">-2</text>
<line x1="198.5" y1="540" x2="198.5" y2="543" stroke="#444"/>
<text x="198.5" y="555" text-anchor="middle" fill="#444">-1</text>
<line x1="226.0" y1="540" x2="226.0" y2="543" stroke="#444"/>
<text x="226.0" y="555" text-anchor="middle" fill="#444">0</text>
<line x1="253.5" y1="540" x2="253.5" y2="543" stroke="#444"/>
<text x="253.5" y="555" text-anchor="middle" fill="#444">1</text>
<line x1="280.9" y1="540" x2="280.9" y2="543" stroke="#444"/>
<text x="280.9" y="555" text-anchor="middle" fill="#444">2</text>
<line x1="308.4" y1="540" x2="308.4" y2="543" stroke="#444"/>
<text x="308.4" y="555" text-anchor="middle" fill="#444">3</text>
<line x1="335.8" y1="540" x2="335.8" y2="543" stroke="#444"/>
<text x="335.8" y="555" text-anchor="middle" fill="#444">4</text>
<line x1="363.3" y1="540" x2="363.3" y2="543" stroke="#444"/>
<text x="363.3" y="555" text-anchor="middle" fill="#444">5</text>
<line x1="72" y1="540.0" x2="75" y2="540.0" stroke="#444"/>
<text x="69" y="543.0" text-anchor="end" fill="#444">-1</text>
<line x1="72" y1="500.0" x2="75" y2="500.0" stroke="#444"/>
<text x="69" y="503.0" text-anchor="end" fill="#444">-0.18</text>
<line x1="72" y1="460.0" x2="75" y2="460.0" stroke="#444"/>
<text x="69" y="463.0" text-anchor="end" fill="#444">0.63</text>
<line x1="72" y1="420.0" x2="75" y2="420.0" stroke="#444"/>
<text x="69" y="423.0" text-anchor="end" fill="#444">1.4</text>
<line x1="72" y1="380.0" x2="75" y2="380.0" stroke="#444"/>
<text x="69" y="383.0" text-anchor="end" fill="#444">2.3</text>
<text x="226.0" y="574" text-anchor="middle" fill="#444">Event time (years from adoption)</text>
<text x="27" y="460.0" text-anchor="middle" fill="#444" transform="rotate(-90 27 460.0)">Coefficient (per 100k)</text>
<rect x="425" y="330" width="380" height="260" fill="#fafaf7" stroke="#e2e2dc"/>
<text x="615.0" y="348" text-anchor="middle" font-weight="600">State firearm homicide rate (per 100,000)</text>
<line x1="485" y1="482.37147433661494" x2="787" y2="482.37147433661494" stroke="#aaaaaa" stroke-width="0.7"/>
<polygon points="498.7,495.7 526.2,486.3 553.6,443.6 581.1,380.0 608.5,482.4 636.0,462.8 663.5,445.9 690.9,476.4 718.4,475.4 745.8,446.8 773.3,422.3 773.3,466.5 745.8,489.0 718.4,501.7 690.9,518.2 663.5,503.3 636.0,485.5 608.5,482.4 581.1,450.9 553.6,482.2 526.2,521.9 498.7,540.0" fill="#1f3a5f" opacity="0.18"/>
<polyline points="498.7,517.8 526.2,504.1 553.6,462.9 581.1,415.4 608.5,482.4 636.0,474.1 663.5,474.6 690.9,497.3 718.4,488.6 745.8,467.9 773.3,444.4" fill="none" stroke="#1f3a5f" stroke-width="1.6"/>
<circle cx="498.7" cy="517.8" r="2.6" fill="#1f3a5f"/>
<circle cx="526.2" cy="504.1" r="2.6" fill="#1f3a5f"/>
<circle cx="553.6" cy="462.9" r="2.6" fill="#1f3a5f"/>
<circle cx="581.1" cy="415.4" r="2.6" fill="#1f3a5f"/>
<circle cx="608.5" cy="482.4" r="2.6" fill="#1f3a5f"/>
<circle cx="636.0" cy="474.1" r="2.6" fill="#1f3a5f"/>
<circle cx="663.5" cy="474.6" r="2.6" fill="#1f3a5f"/>
<circle cx="690.9" cy="497.3" r="2.6" fill="#1f3a5f"/>
<circle cx="718.4" cy="488.6" r="2.6" fill="#1f3a5f"/>
<circle cx="745.8" cy="467.9" r="2.6" fill="#1f3a5f"/>
<circle cx="773.3" cy="444.4" r="2.6" fill="#1f3a5f"/>
<line x1="622.3" y1="380" x2="622.3" y2="540" stroke="#b9461a" stroke-dasharray="3 3"/>
<line x1="485" y1="540" x2="787" y2="540" stroke="#444"/>
<line x1="485" y1="380" x2="485" y2="540" stroke="#444"/>
<line x1="498.7" y1="540" x2="498.7" y2="543" stroke="#444"/>
<text x="498.7" y="555" text-anchor="middle" fill="#444">-5</text>
<line x1="526.2" y1="540" x2="526.2" y2="543" stroke="#444"/>
<text x="526.2" y="555" text-anchor="middle" fill="#444">-4</text>
<line x1="553.6" y1="540" x2="553.6" y2="543" stroke="#444"/>
<text x="553.6" y="555" text-anchor="middle" fill="#444">-3</text>
<line x1="581.1" y1="540" x2="581.1" y2="543" stroke="#444"/>
<text x="581.1" y="555" text-anchor="middle" fill="#444">-2</text>
<line x1="608.5" y1="540" x2="608.5" y2="543" stroke="#444"/>
<text x="608.5" y="555" text-anchor="middle" fill="#444">-1</text>
<line x1="636.0" y1="540" x2="636.0" y2="543" stroke="#444"/>
<text x="636.0" y="555" text-anchor="middle" fill="#444">0</text>
<line x1="663.5" y1="540" x2="663.5" y2="543" stroke="#444"/>
<text x="663.5" y="555" text-anchor="middle" fill="#444">1</text>
<line x1="690.9" y1="540" x2="690.9" y2="543" stroke="#444"/>
<text x="690.9" y="555" text-anchor="middle" fill="#444">2</text>
<line x1="718.4" y1="540" x2="718.4" y2="543" stroke="#444"/>
<text x="718.4" y="555" text-anchor="middle" fill="#444">3</text>
<line x1="745.8" y1="540" x2="745.8" y2="543" stroke="#444"/>
<text x="745.8" y="555" text-anchor="middle" fill="#444">4</text>
<line x1="773.3" y1="540" x2="773.3" y2="543" stroke="#444"/>
<text x="773.3" y="555" text-anchor="middle" fill="#444">5</text>
<line x1="482" y1="540.0" x2="485" y2="540.0" stroke="#444"/>
<text x="479" y="543.0" text-anchor="end" fill="#444">-0.9</text>
<line x1="482" y1="500.0" x2="485" y2="500.0" stroke="#444"/>
<text x="479" y="503.0" text-anchor="end" fill="#444">-0.27</text>
<line x1="482" y1="460.0" x2="485" y2="460.0" stroke="#444"/>
<text x="479" y="463.0" text-anchor="end" fill="#444">0.35</text>
<line x1="482" y1="420.0" x2="485" y2="420.0" stroke="#444"/>
<text x="479" y="423.0" text-anchor="end" fill="#444">0.97</text>
<line x1="482" y1="380.0" x2="485" y2="380.0" stroke="#444"/>
<text x="479" y="383.0" text-anchor="end" fill="#444">1.6</text>
<text x="636.0" y="574" text-anchor="middle" fill="#444">Event time (years from adoption)</text>
<text x="437" y="460.0" text-anchor="middle" fill="#444" transform="rotate(-90 437 460.0)">Coefficient (per 100k)</text>
<text x="805" y="608" text-anchor="end" fill="#888" font-size="10">Shaded band: pointwise 95% CI from cluster-robust SE. Vertical dashed line marks the year before adoption.</text>
</svg>