<svg xmlns="http://www.w3.org/2000/svg" viewBox="0 0 820 620" font-family="-apple-system, Segoe UI, Helvetica, Arial, sans-serif" font-size="11">
<text x="410.0" y="22" text-anchor="middle" font-size="14" font-weight="600">Callaway-Sant'Anna ATT by event time (RA) -- assault weapons ban (assault)</text>
<rect x="15" y="40" width="380" height="260" fill="#fafaf7" stroke="#e2e2dc"/>
<text x="205.0" y="58" text-anchor="middle" font-weight="600">Firearm suicide rate (per 100k)</text>
<line x1="75" y1="129.90798653692337" x2="377" y2="129.90798653692337" stroke="#aaaaaa" stroke-width="0.7"/>
<polygon points="88.7,105.2 88.7,107.9 88.7,147.0 116.2,96.6 116.2,157.9 116.2,90.0 143.6,197.6 143.6,210.7 143.6,192.4 171.1,166.2 171.1,183.8 171.1,173.6 226.0,129.3 226.0,130.9 226.0,123.8 253.5,150.5 253.5,158.0 253.5,154.8 280.9,169.7 280.9,160.4 280.9,132.7 308.4,203.6 308.4,186.7 308.4,175.8 335.8,115.3 335.8,144.5 335.8,139.4 363.3,246.1 363.3,250.0 363.3,164.0 363.3,164.0 363.3,250.0 363.3,246.1 335.8,139.4 335.8,144.5 335.8,115.3 308.4,175.8 308.4,186.7 308.4,203.6 280.9,132.7 280.9,160.4 280.9,169.7 253.5,154.8 253.5,158.0 253.5,150.5 226.0,138.3 226.0,130.9 226.0,129.3 171.1,173.6 171.1,183.8 171.1,198.4 143.6,219.6 143.6,210.7 143.6,197.6 116.2,90.0 116.2,179.9 116.2,96.6 88.7,173.6 88.7,107.9 88.7,105.2" fill="#1f3a5f" opacity="0.18"/>
<polyline points="88.7,105.2 88.7,107.9 88.7,160.3 116.2,96.6 116.2,168.9 116.2,90.0 143.6,197.6 143.6,210.7 143.6,206.0 171.1,182.3 171.1,183.8 171.1,173.6 226.0,129.3 226.0,130.9 226.0,131.1 253.5,150.5 253.5,158.0 253.5,154.8 280.9,169.7 280.9,160.4 280.9,132.7 308.4,203.6 308.4,186.7 308.4,175.8 335.8,115.3 335.8,144.5 335.8,139.4 363.3,246.1 363.3,250.0 363.3,164.0" fill="none" stroke="#1f3a5f" stroke-width="1.6"/>
<circle cx="88.7" cy="105.2" r="2.6" fill="#1f3a5f"/>
<circle cx="88.7" cy="107.9" r="2.6" fill="#1f3a5f"/>
<circle cx="88.7" cy="160.3" r="2.6" fill="#1f3a5f"/>
<circle cx="116.2" cy="96.6" r="2.6" fill="#1f3a5f"/>
<circle cx="116.2" cy="168.9" r="2.6" fill="#1f3a5f"/>
<circle cx="116.2" cy="90.0" r="2.6" fill="#1f3a5f"/>
<circle cx="143.6" cy="197.6" r="2.6" fill="#1f3a5f"/>
<circle cx="143.6" cy="210.7" r="2.6" fill="#1f3a5f"/>
<circle cx="143.6" cy="206.0" r="2.6" fill="#1f3a5f"/>
<circle cx="171.1" cy="182.3" r="2.6" fill="#1f3a5f"/>
<circle cx="171.1" cy="183.8" r="2.6" fill="#1f3a5f"/>
<circle cx="171.1" cy="173.6" r="2.6" fill="#1f3a5f"/>
<circle cx="226.0" cy="129.3" r="2.6" fill="#1f3a5f"/>
<circle cx="226.0" cy="130.9" r="2.6" fill="#1f3a5f"/>
<circle cx="226.0" cy="131.1" r="2.6" fill="#1f3a5f"/>
<circle cx="253.5" cy="150.5" r="2.6" fill="#1f3a5f"/>
<circle cx="253.5" cy="158.0" r="2.6" fill="#1f3a5f"/>
<circle cx="253.5" cy="154.8" r="2.6" fill="#1f3a5f"/>
<circle cx="280.9" cy="169.7" r="2.6" fill="#1f3a5f"/>
<circle cx="280.9" cy="160.4" r="2.6" fill="#1f3a5f"/>
<circle cx="280.9" cy="132.7" r="2.6" fill="#1f3a5f"/>
<circle cx="308.4" cy="203.6" r="2.6" fill="#1f3a5f"/>
<circle cx="308.4" cy="186.7" r="2.6" fill="#1f3a5f"/>
<circle cx="308.4" cy="175.8" r="2.6" fill="#1f3a5f"/>
<circle cx="335.8" cy="115.3" r="2.6" fill="#1f3a5f"/>
<circle cx="335.8" cy="144.5" r="2.6" fill="#1f3a5f"/>
<circle cx="335.8" cy="139.4" r="2.6" fill="#1f3a5f"/>
<circle cx="363.3" cy="246.1" r="2.6" fill="#1f3a5f"/>
<circle cx="363.3" cy="250.0" r="2.6" fill="#1f3a5f"/>
<circle cx="363.3" cy="164.0" r="2.6" fill="#1f3a5f"/>
<line x1="212.3" y1="90" x2="212.3" y2="250" stroke="#b9461a" stroke-dasharray="3 3"/>
<line x1="75" y1="250" x2="377" y2="250" stroke="#444"/>
<line x1="75" y1="90" x2="75" y2="250" stroke="#444"/>
<line x1="88.7" y1="250" x2="88.7" y2="253" stroke="#444"/>
<text x="88.7" y="265" text-anchor="middle" fill="#444">-5</text>
<line x1="116.2" y1="250" x2="116.2" y2="253" stroke="#444"/>
<text x="116.2" y="265" text-anchor="middle" fill="#444">-4</text>
<line x1="143.6" y1="250" x2="143.6" y2="253" stroke="#444"/>
<text x="143.6" y="265" text-anchor="middle" fill="#444">-3</text>
<line x1="171.1" y1="250" x2="171.1" y2="253" stroke="#444"/>
<text x="171.1" y="265" text-anchor="middle" fill="#444">-2</text>
<line x1="226.0" y1="250" x2="226.0" y2="253" stroke="#444"/>
<text x="226.0" y="265" text-anchor="middle" fill="#444">0</text>
<line x1="253.5" y1="250" x2="253.5" y2="253" stroke="#444"/>
<text x="253.5" y="265" text-anchor="middle" fill="#444">1</text>
<line x1="280.9" y1="250" x2="280.9" y2="253" stroke="#444"/>
<text x="280.9" y="265" text-anchor="middle" fill="#444">2</text>
<line x1="308.4" y1="250" x2="308.4" y2="253" stroke="#444"/>
<text x="308.4" y="265" text-anchor="middle" fill="#444">3</text>
<line x1="335.8" y1="250" x2="335.8" y2="253" stroke="#444"/>
<text x="335.8" y="265" text-anchor="middle" fill="#444">4</text>
<line x1="363.3" y1="250" x2="363.3" y2="253" stroke="#444"/>
<text x="363.3" y="265" text-anchor="middle" fill="#444">5</text>
<line x1="72" y1="250.0" x2="75" y2="250.0" stroke="#444"/>
<text x="69" y="253.0" text-anchor="end" fill="#444">-1.9</text>
<line x1="72" y1="210.0" x2="75" y2="210.0" stroke="#444"/>
<text x="69" y="213.0" text-anchor="end" fill="#444">-1.3</text>
<line x1="72" y1="170.0" x2="75" y2="170.0" stroke="#444"/>
<text x="69" y="173.0" text-anchor="end" fill="#444">-0.65</text>
<line x1="72" y1="130.0" x2="75" y2="130.0" stroke="#444"/>
<text x="69" y="133.0" text-anchor="end" fill="#444">-0.0015</text>
<line x1="72" y1="90.0" x2="75" y2="90.0" stroke="#444"/>
<text x="69" y="93.0" text-anchor="end" fill="#444">0.64</text>
<text x="226.0" y="284" text-anchor="middle" fill="#444">Event time (years from adoption)</text>
<text x="27" y="170.0" text-anchor="middle" fill="#444" transform="rotate(-90 27 170.0)">ATT (per 100k)</text>
<rect x="425" y="40" width="380" height="260" fill="#fafaf7" stroke="#e2e2dc"/>
<text x="615.0" y="58" text-anchor="middle" font-weight="600">Non-firearm suicide rate (per 100k) [substitution test]</text>
<line x1="485" y1="218.68432996372565" x2="787" y2="218.68432996372565" stroke="#aaaaaa" stroke-width="0.7"/>
<polygon points="498.7,224.7 498.7,223.0 498.7,204.9 526.2,101.4 526.2,226.6 526.2,90.0 553.6,119.6 553.6,124.3 553.6,195.6 581.1,170.6 581.1,165.0 581.1,164.4 636.0,156.5 636.0,158.0 636.0,224.0 663.5,192.4 663.5,204.1 663.5,216.5 690.9,165.2 690.9,158.0 690.9,249.9 718.4,186.4 718.4,187.7 718.4,218.1 745.8,250.0 745.8,167.9 745.8,175.4 773.3,162.3 773.3,167.5 773.3,208.1 773.3,208.1 773.3,167.5 773.3,162.3 745.8,175.4 745.8,167.9 745.8,250.0 718.4,218.1 718.4,187.7 718.4,186.4 690.9,249.9 690.9,158.0 690.9,165.2 663.5,216.5 663.5,204.1 663.5,192.4 636.0,236.1 636.0,158.0 636.0,156.5 581.1,164.4 581.1,165.0 581.1,200.0 553.6,217.8 553.6,124.3 553.6,119.6 526.2,90.0 526.2,238.3 526.2,101.4 498.7,237.9 498.7,223.0 498.7,224.7" fill="#1f3a5f" opacity="0.18"/>
<polyline points="498.7,224.7 498.7,223.0 498.7,221.4 526.2,101.4 526.2,232.5 526.2,90.0 553.6,119.6 553.6,124.3 553.6,206.7 581.1,185.3 581.1,165.0 581.1,164.4 636.0,156.5 636.0,158.0 636.0,230.1 663.5,192.4 663.5,204.1 663.5,216.5 690.9,165.2 690.9,158.0 690.9,249.9 718.4,186.4 718.4,187.7 718.4,218.1 745.8,250.0 745.8,167.9 745.8,175.4 773.3,162.3 773.3,167.5 773.3,208.1" fill="none" stroke="#1f3a5f" stroke-width="1.6"/>
<circle cx="498.7" cy="224.7" r="2.6" fill="#1f3a5f"/>
<circle cx="498.7" cy="223.0" r="2.6" fill="#1f3a5f"/>
<circle cx="498.7" cy="221.4" r="2.6" fill="#1f3a5f"/>
<circle cx="526.2" cy="101.4" r="2.6" fill="#1f3a5f"/>
<circle cx="526.2" cy="232.5" r="2.6" fill="#1f3a5f"/>
<circle cx="526.2" cy="90.0" r="2.6" fill="#1f3a5f"/>
<circle cx="553.6" cy="119.6" r="2.6" fill="#1f3a5f"/>
<circle cx="553.6" cy="124.3" r="2.6" fill="#1f3a5f"/>
<circle cx="553.6" cy="206.7" r="2.6" fill="#1f3a5f"/>
<circle cx="581.1" cy="185.3" r="2.6" fill="#1f3a5f"/>
<circle cx="581.1" cy="165.0" r="2.6" fill="#1f3a5f"/>
<circle cx="581.1" cy="164.4" r="2.6" fill="#1f3a5f"/>
<circle cx="636.0" cy="156.5" r="2.6" fill="#1f3a5f"/>
<circle cx="636.0" cy="158.0" r="2.6" fill="#1f3a5f"/>
<circle cx="636.0" cy="230.1" r="2.6" fill="#1f3a5f"/>
<circle cx="663.5" cy="192.4" r="2.6" fill="#1f3a5f"/>
<circle cx="663.5" cy="204.1" r="2.6" fill="#1f3a5f"/>
<circle cx="663.5" cy="216.5" r="2.6" fill="#1f3a5f"/>
<circle cx="690.9" cy="165.2" r="2.6" fill="#1f3a5f"/>
<circle cx="690.9" cy="158.0" r="2.6" fill="#1f3a5f"/>
<circle cx="690.9" cy="249.9" r="2.6" fill="#1f3a5f"/>
<circle cx="718.4" cy="186.4" r="2.6" fill="#1f3a5f"/>
<circle cx="718.4" cy="187.7" r="2.6" fill="#1f3a5f"/>
<circle cx="718.4" cy="218.1" r="2.6" fill="#1f3a5f"/>
<circle cx="745.8" cy="250.0" r="2.6" fill="#1f3a5f"/>
<circle cx="745.8" cy="167.9" r="2.6" fill="#1f3a5f"/>
<circle cx="745.8" cy="175.4" r="2.6" fill="#1f3a5f"/>
<circle cx="773.3" cy="162.3" r="2.6" fill="#1f3a5f"/>
<circle cx="773.3" cy="167.5" r="2.6" fill="#1f3a5f"/>
<circle cx="773.3" cy="208.1" r="2.6" fill="#1f3a5f"/>
<line x1="622.3" y1="90" x2="622.3" y2="250" stroke="#b9461a" stroke-dasharray="3 3"/>
<line x1="485" y1="250" x2="787" y2="250" stroke="#444"/>
<line x1="485" y1="90" x2="485" y2="250" stroke="#444"/>
<line x1="498.7" y1="250" x2="498.7" y2="253" stroke="#444"/>
<text x="498.7" y="265" text-anchor="middle" fill="#444">-5</text>
<line x1="526.2" y1="250" x2="526.2" y2="253" stroke="#444"/>
<text x="526.2" y="265" text-anchor="middle" fill="#444">-4</text>
<line x1="553.6" y1="250" x2="553.6" y2="253" stroke="#444"/>
<text x="553.6" y="265" text-anchor="middle" fill="#444">-3</text>
<line x1="581.1" y1="250" x2="581.1" y2="253" stroke="#444"/>
<text x="581.1" y="265" text-anchor="middle" fill="#444">-2</text>
<line x1="636.0" y1="250" x2="636.0" y2="253" stroke="#444"/>
<text x="636.0" y="265" text-anchor="middle" fill="#444">0</text>
<line x1="663.5" y1="250" x2="663.5" y2="253" stroke="#444"/>
<text x="663.5" y="265" text-anchor="middle" fill="#444">1</text>
<line x1="690.9" y1="250" x2="690.9" y2="253" stroke="#444"/>
<text x="690.9" y="265" text-anchor="middle" fill="#444">2</text>
<line x1="718.4" y1="250" x2="718.4" y2="253" stroke="#444"/>
<text x="718.4" y="265" text-anchor="middle" fill="#444">3</text>
<line x1="745.8" y1="250" x2="745.8" y2="253" stroke="#444"/>
<text x="745.8" y="265" text-anchor="middle" fill="#444">4</text>
<line x1="773.3" y1="250" x2="773.3" y2="253" stroke="#444"/>
<text x="773.3" y="265" text-anchor="middle" fill="#444">5</text>
<line x1="482" y1="250.0" x2="485" y2="250.0" stroke="#444"/>
<text x="479" y="253.0" text-anchor="end" fill="#444">-0.57</text>
<line x1="482" y1="210.0" x2="485" y2="210.0" stroke="#444"/>
<text x="479" y="213.0" text-anchor="end" fill="#444">0.16</text>
<line x1="482" y1="170.0" x2="485" y2="170.0" stroke="#444"/>
<text x="479" y="173.0" text-anchor="end" fill="#444">0.88</text>
<line x1="482" y1="130.0" x2="485" y2="130.0" stroke="#444"/>
<text x="479" y="133.0" text-anchor="end" fill="#444">1.6</text>
<line x1="482" y1="90.0" x2="485" y2="90.0" stroke="#444"/>
<text x="479" y="93.0" text-anchor="end" fill="#444">2.3</text>
<text x="636.0" y="284" text-anchor="middle" fill="#444">Event time (years from adoption)</text>
<text x="437" y="170.0" text-anchor="middle" fill="#444" transform="rotate(-90 437 170.0)">ATT (per 100k)</text>
<rect x="15" y="330" width="380" height="260" fill="#fafaf7" stroke="#e2e2dc"/>
<text x="205.0" y="348" text-anchor="middle" font-weight="600">Total suicide rate (per 100k) [net effect]</text>
<line x1="75" y1="490.41968486149705" x2="377" y2="490.41968486149705" stroke="#aaaaaa" stroke-width="0.7"/>
<polygon points="88.7,479.7 88.7,480.2 88.7,493.4 116.2,391.6 116.2,515.0 116.2,380.0 143.6,464.1 143.6,475.1 143.6,515.5 171.1,492.3 171.1,486.5 171.1,480.0 226.0,448.2 226.0,450.2 226.0,493.6 253.5,485.0 253.5,497.4 253.5,503.8 280.9,478.2 280.9,467.8 280.9,513.0 308.4,512.7 308.4,503.5 308.4,517.4 335.8,502.8 335.8,465.0 335.8,466.9 363.3,521.8 363.3,527.7 363.3,503.6 363.3,503.6 363.3,527.7 363.3,521.8 335.8,466.9 335.8,465.0 335.8,502.8 308.4,517.4 308.4,503.5 308.4,512.7 280.9,513.0 280.9,467.8 280.9,478.2 253.5,503.8 253.5,497.4 253.5,485.0 226.0,504.0 226.0,450.2 226.0,448.2 171.1,480.0 171.1,486.5 171.1,506.2 143.6,540.0 143.6,475.1 143.6,464.1 116.2,380.0 116.2,530.9 116.2,391.6 88.7,527.3 88.7,480.2 88.7,479.7" fill="#1f3a5f" opacity="0.18"/>
<polyline points="88.7,479.7 88.7,480.2 88.7,510.4 116.2,391.6 116.2,523.0 116.2,380.0 143.6,464.1 143.6,475.1 143.6,527.8 171.1,499.2 171.1,486.5 171.1,480.0 226.0,448.2 226.0,450.2 226.0,498.8 253.5,485.0 253.5,497.4 253.5,503.8 280.9,478.2 280.9,467.8 280.9,513.0 308.4,512.7 308.4,503.5 308.4,517.4 335.8,502.8 335.8,465.0 335.8,466.9 363.3,521.8 363.3,527.7 363.3,503.6" fill="none" stroke="#1f3a5f" stroke-width="1.6"/>
<circle cx="88.7" cy="479.7" r="2.6" fill="#1f3a5f"/>
<circle cx="88.7" cy="480.2" r="2.6" fill="#1f3a5f"/>
<circle cx="88.7" cy="510.4" r="2.6" fill="#1f3a5f"/>
<circle cx="116.2" cy="391.6" r="2.6" fill="#1f3a5f"/>
<circle cx="116.2" cy="523.0" r="2.6" fill="#1f3a5f"/>
<circle cx="116.2" cy="380.0" r="2.6" fill="#1f3a5f"/>
<circle cx="143.6" cy="464.1" r="2.6" fill="#1f3a5f"/>
<circle cx="143.6" cy="475.1" r="2.6" fill="#1f3a5f"/>
<circle cx="143.6" cy="527.8" r="2.6" fill="#1f3a5f"/>
<circle cx="171.1" cy="499.2" r="2.6" fill="#1f3a5f"/>
<circle cx="171.1" cy="486.5" r="2.6" fill="#1f3a5f"/>
<circle cx="171.1" cy="480.0" r="2.6" fill="#1f3a5f"/>
<circle cx="226.0" cy="448.2" r="2.6" fill="#1f3a5f"/>
<circle cx="226.0" cy="450.2" r="2.6" fill="#1f3a5f"/>
<circle cx="226.0" cy="498.8" r="2.6" fill="#1f3a5f"/>
<circle cx="253.5" cy="485.0" r="2.6" fill="#1f3a5f"/>
<circle cx="253.5" cy="497.4" r="2.6" fill="#1f3a5f"/>
<circle cx="253.5" cy="503.8" r="2.6" fill="#1f3a5f"/>
<circle cx="280.9" cy="478.2" r="2.6" fill="#1f3a5f"/>
<circle cx="280.9" cy="467.8" r="2.6" fill="#1f3a5f"/>
<circle cx="280.9" cy="513.0" r="2.6" fill="#1f3a5f"/>
<circle cx="308.4" cy="512.7" r="2.6" fill="#1f3a5f"/>
<circle cx="308.4" cy="503.5" r="2.6" fill="#1f3a5f"/>
<circle cx="308.4" cy="517.4" r="2.6" fill="#1f3a5f"/>
<circle cx="335.8" cy="502.8" r="2.6" fill="#1f3a5f"/>
<circle cx="335.8" cy="465.0" r="2.6" fill="#1f3a5f"/>
<circle cx="335.8" cy="466.9" r="2.6" fill="#1f3a5f"/>
<circle cx="363.3" cy="521.8" r="2.6" fill="#1f3a5f"/>
<circle cx="363.3" cy="527.7" r="2.6" fill="#1f3a5f"/>
<circle cx="363.3" cy="503.6" r="2.6" fill="#1f3a5f"/>
<line x1="212.3" y1="380" x2="212.3" y2="540" stroke="#b9461a" stroke-dasharray="3 3"/>
<line x1="75" y1="540" x2="377" y2="540" stroke="#444"/>
<line x1="75" y1="380" x2="75" y2="540" stroke="#444"/>
<line x1="88.7" y1="540" x2="88.7" y2="543" stroke="#444"/>
<text x="88.7" y="555" text-anchor="middle" fill="#444">-5</text>
<line x1="116.2" y1="540" x2="116.2" y2="543" stroke="#444"/>
<text x="116.2" y="555" text-anchor="middle" fill="#444">-4</text>
<line x1="143.6" y1="540" x2="143.6" y2="543" stroke="#444"/>
<text x="143.6" y="555" text-anchor="middle" fill="#444">-3</text>
<line x1="171.1" y1="540" x2="171.1" y2="543" stroke="#444"/>
<text x="171.1" y="555" text-anchor="middle" fill="#444">-2</text>
<line x1="226.0" y1="540" x2="226.0" y2="543" stroke="#444"/>
<text x="226.0" y="555" text-anchor="middle" fill="#444">0</text>
<line x1="253.5" y1="540" x2="253.5" y2="543" stroke="#444"/>
<text x="253.5" y="555" text-anchor="middle" fill="#444">1</text>
<line x1="280.9" y1="540" x2="280.9" y2="543" stroke="#444"/>
<text x="280.9" y="555" text-anchor="middle" fill="#444">2</text>
<line x1="308.4" y1="540" x2="308.4" y2="543" stroke="#444"/>
<text x="308.4" y="555" text-anchor="middle" fill="#444">3</text>
<line x1="335.8" y1="540" x2="335.8" y2="543" stroke="#444"/>
<text x="335.8" y="555" text-anchor="middle" fill="#444">4</text>
<line x1="363.3" y1="540" x2="363.3" y2="543" stroke="#444"/>
<text x="363.3" y="555" text-anchor="middle" fill="#444">5</text>
<line x1="72" y1="540.0" x2="75" y2="540.0" stroke="#444"/>
<text x="69" y="543.0" text-anchor="end" fill="#444">-1.3</text>
<line x1="72" y1="500.0" x2="75" y2="500.0" stroke="#444"/>
<text x="69" y="503.0" text-anchor="end" fill="#444">-0.26</text>
<line x1="72" y1="460.0" x2="75" y2="460.0" stroke="#444"/>
<text x="69" y="463.0" text-anchor="end" fill="#444">0.82</text>
<line x1="72" y1="420.0" x2="75" y2="420.0" stroke="#444"/>
<text x="69" y="423.0" text-anchor="end" fill="#444">1.9</text>
<line x1="72" y1="380.0" x2="75" y2="380.0" stroke="#444"/>
<text x="69" y="383.0" text-anchor="end" fill="#444">3</text>
<text x="226.0" y="574" text-anchor="middle" fill="#444">Event time (years from adoption)</text>
<text x="27" y="460.0" text-anchor="middle" fill="#444" transform="rotate(-90 27 460.0)">ATT (per 100k)</text>
<rect x="425" y="330" width="380" height="260" fill="#fafaf7" stroke="#e2e2dc"/>
<text x="615.0" y="348" text-anchor="middle" font-weight="600">Firearm homicide rate (per 100k)</text>
<line x1="485" y1="449.8104364845055" x2="787" y2="449.8104364845055" stroke="#aaaaaa" stroke-width="0.7"/>
<polygon points="498.7,411.9 498.7,423.4 498.7,442.4 526.2,429.5 526.2,467.0 526.2,447.2 553.6,458.9 553.6,451.6 553.6,454.2 581.1,426.4 581.1,473.8 581.1,487.8 636.0,465.9 636.0,466.9 636.0,476.0 663.5,508.5 663.5,504.8 663.5,540.0 690.9,394.4 690.9,388.2 690.9,396.5 718.4,409.4 718.4,428.3 718.4,408.7 745.8,396.9 745.8,399.2 745.8,380.0 773.3,431.4 773.3,404.2 773.3,415.5 773.3,415.5 773.3,404.2 773.3,431.4 745.8,380.0 745.8,399.2 745.8,396.9 718.4,408.7 718.4,428.3 718.4,409.4 690.9,396.5 690.9,388.2 690.9,394.4 663.5,540.0 663.5,504.8 663.5,508.5 636.0,488.2 636.0,466.9 636.0,465.9 581.1,487.8 581.1,473.8 581.1,446.9 553.6,478.3 553.6,451.6 553.6,458.9 526.2,447.2 526.2,482.0 526.2,429.5 498.7,455.8 498.7,423.4 498.7,411.9" fill="#1f3a5f" opacity="0.18"/>
<polyline points="498.7,411.9 498.7,423.4 498.7,449.1 526.2,429.5 526.2,474.5 526.2,447.2 553.6,458.9 553.6,451.6 553.6,466.2 581.1,436.7 581.1,473.8 581.1,487.8 636.0,465.9 636.0,466.9 636.0,482.1 663.5,508.5 663.5,504.8 663.5,540.0 690.9,394.4 690.9,388.2 690.9,396.5 718.4,409.4 718.4,428.3 718.4,408.7 745.8,396.9 745.8,399.2 745.8,380.0 773.3,431.4 773.3,404.2 773.3,415.5" fill="none" stroke="#1f3a5f" stroke-width="1.6"/>
<circle cx="498.7" cy="411.9" r="2.6" fill="#1f3a5f"/>
<circle cx="498.7" cy="423.4" r="2.6" fill="#1f3a5f"/>
<circle cx="498.7" cy="449.1" r="2.6" fill="#1f3a5f"/>
<circle cx="526.2" cy="429.5" r="2.6" fill="#1f3a5f"/>
<circle cx="526.2" cy="474.5" r="2.6" fill="#1f3a5f"/>
<circle cx="526.2" cy="447.2" r="2.6" fill="#1f3a5f"/>
<circle cx="553.6" cy="458.9" r="2.6" fill="#1f3a5f"/>
<circle cx="553.6" cy="451.6" r="2.6" fill="#1f3a5f"/>
<circle cx="553.6" cy="466.2" r="2.6" fill="#1f3a5f"/>
<circle cx="581.1" cy="436.7" r="2.6" fill="#1f3a5f"/>
<circle cx="581.1" cy="473.8" r="2.6" fill="#1f3a5f"/>
<circle cx="581.1" cy="487.8" r="2.6" fill="#1f3a5f"/>
<circle cx="636.0" cy="465.9" r="2.6" fill="#1f3a5f"/>
<circle cx="636.0" cy="466.9" r="2.6" fill="#1f3a5f"/>
<circle cx="636.0" cy="482.1" r="2.6" fill="#1f3a5f"/>
<circle cx="663.5" cy="508.5" r="2.6" fill="#1f3a5f"/>
<circle cx="663.5" cy="504.8" r="2.6" fill="#1f3a5f"/>
<circle cx="663.5" cy="540.0" r="2.6" fill="#1f3a5f"/>
<circle cx="690.9" cy="394.4" r="2.6" fill="#1f3a5f"/>
<circle cx="690.9" cy="388.2" r="2.6" fill="#1f3a5f"/>
<circle cx="690.9" cy="396.5" r="2.6" fill="#1f3a5f"/>
<circle cx="718.4" cy="409.4" r="2.6" fill="#1f3a5f"/>
<circle cx="718.4" cy="428.3" r="2.6" fill="#1f3a5f"/>
<circle cx="718.4" cy="408.7" r="2.6" fill="#1f3a5f"/>
<circle cx="745.8" cy="396.9" r="2.6" fill="#1f3a5f"/>
<circle cx="745.8" cy="399.2" r="2.6" fill="#1f3a5f"/>
<circle cx="745.8" cy="380.0" r="2.6" fill="#1f3a5f"/>
<circle cx="773.3" cy="431.4" r="2.6" fill="#1f3a5f"/>
<circle cx="773.3" cy="404.2" r="2.6" fill="#1f3a5f"/>
<circle cx="773.3" cy="415.5" r="2.6" fill="#1f3a5f"/>
<line x1="622.3" y1="380" x2="622.3" y2="540" stroke="#b9461a" stroke-dasharray="3 3"/>
<line x1="485" y1="540" x2="787" y2="540" stroke="#444"/>
<line x1="485" y1="380" x2="485" y2="540" stroke="#444"/>
<line x1="498.7" y1="540" x2="498.7" y2="543" stroke="#444"/>
<text x="498.7" y="555" text-anchor="middle" fill="#444">-5</text>
<line x1="526.2" y1="540" x2="526.2" y2="543" stroke="#444"/>
<text x="526.2" y="555" text-anchor="middle" fill="#444">-4</text>
<line x1="553.6" y1="540" x2="553.6" y2="543" stroke="#444"/>
<text x="553.6" y="555" text-anchor="middle" fill="#444">-3</text>
<line x1="581.1" y1="540" x2="581.1" y2="543" stroke="#444"/>
<text x="581.1" y="555" text-anchor="middle" fill="#444">-2</text>
<line x1="636.0" y1="540" x2="636.0" y2="543" stroke="#444"/>
<text x="636.0" y="555" text-anchor="middle" fill="#444">0</text>
<line x1="663.5" y1="540" x2="663.5" y2="543" stroke="#444"/>
<text x="663.5" y="555" text-anchor="middle" fill="#444">1</text>
<line x1="690.9" y1="540" x2="690.9" y2="543" stroke="#444"/>
<text x="690.9" y="555" text-anchor="middle" fill="#444">2</text>
<line x1="718.4" y1="540" x2="718.4" y2="543" stroke="#444"/>
<text x="718.4" y="555" text-anchor="middle" fill="#444">3</text>
<line x1="745.8" y1="540" x2="745.8" y2="543" stroke="#444"/>
<text x="745.8" y="555" text-anchor="middle" fill="#444">4</text>
<line x1="773.3" y1="540" x2="773.3" y2="543" stroke="#444"/>
<text x="773.3" y="555" text-anchor="middle" fill="#444">5</text>
<line x1="482" y1="540.0" x2="485" y2="540.0" stroke="#444"/>
<text x="479" y="543.0" text-anchor="end" fill="#444">-2.5</text>
<line x1="482" y1="500.0" x2="485" y2="500.0" stroke="#444"/>
<text x="479" y="503.0" text-anchor="end" fill="#444">-1.4</text>
<line x1="482" y1="460.0" x2="485" y2="460.0" stroke="#444"/>
<text x="479" y="463.0" text-anchor="end" fill="#444">-0.28</text>
<line x1="482" y1="420.0" x2="485" y2="420.0" stroke="#444"/>
<text x="479" y="423.0" text-anchor="end" fill="#444">0.81</text>
<line x1="482" y1="380.0" x2="485" y2="380.0" stroke="#444"/>
<text x="479" y="383.0" text-anchor="end" fill="#444">1.9</text>
<text x="636.0" y="574" text-anchor="middle" fill="#444">Event time (years from adoption)</text>
<text x="437" y="460.0" text-anchor="middle" fill="#444" transform="rotate(-90 437 460.0)">ATT (per 100k)</text>
<rect x="15" y="620" width="380" height="260" fill="#fafaf7" stroke="#e2e2dc"/>
<text x="205.0" y="638" text-anchor="middle" font-weight="600">Total homicide rate (per 100k)</text>
<line x1="75" y1="740.1132304429066" x2="377" y2="740.1132304429066" stroke="#aaaaaa" stroke-width="0.7"/>
<polygon points="88.7,714.1 88.7,715.0 88.7,750.9 116.2,698.4 116.2,760.2 116.2,724.8 143.6,739.8 143.6,729.1 143.6,756.7 171.1,746.6 171.1,739.3 171.1,760.9 226.0,763.3 226.0,780.4 226.0,777.1 253.5,784.5 253.5,768.8 253.5,830.0 280.9,690.2 280.9,691.0 280.9,679.6 308.4,690.3 308.4,719.2 308.4,689.4 335.8,677.1 335.8,717.4 335.8,670.0 363.3,742.4 363.3,698.1 363.3,707.1 363.3,707.1 363.3,698.1 363.3,742.4 335.8,670.0 335.8,717.4 335.8,677.1 308.4,689.4 308.4,719.2 308.4,690.3 280.9,679.6 280.9,691.0 280.9,690.2 253.5,830.0 253.5,768.8 253.5,784.5 226.0,789.5 226.0,780.4 226.0,763.3 171.1,760.9 171.1,739.3 171.1,760.5 143.6,776.7 143.6,729.1 143.6,739.8 116.2,724.8 116.2,776.1 116.2,698.4 88.7,766.0 88.7,715.0 88.7,714.1" fill="#1f3a5f" opacity="0.18"/>
<polyline points="88.7,714.1 88.7,715.0 88.7,758.5 116.2,698.4 116.2,768.1 116.2,724.8 143.6,739.8 143.6,729.1 143.6,766.7 171.1,753.5 171.1,739.3 171.1,760.9 226.0,763.3 226.0,780.4 226.0,783.3 253.5,784.5 253.5,768.8 253.5,830.0 280.9,690.2 280.9,691.0 280.9,679.6 308.4,690.3 308.4,719.2 308.4,689.4 335.8,677.1 335.8,717.4 335.8,670.0 363.3,742.4 363.3,698.1 363.3,707.1" fill="none" stroke="#1f3a5f" stroke-width="1.6"/>
<circle cx="88.7" cy="714.1" r="2.6" fill="#1f3a5f"/>
<circle cx="88.7" cy="715.0" r="2.6" fill="#1f3a5f"/>
<circle cx="88.7" cy="758.5" r="2.6" fill="#1f3a5f"/>
<circle cx="116.2" cy="698.4" r="2.6" fill="#1f3a5f"/>
<circle cx="116.2" cy="768.1" r="2.6" fill="#1f3a5f"/>
<circle cx="116.2" cy="724.8" r="2.6" fill="#1f3a5f"/>
<circle cx="143.6" cy="739.8" r="2.6" fill="#1f3a5f"/>
<circle cx="143.6" cy="729.1" r="2.6" fill="#1f3a5f"/>
<circle cx="143.6" cy="766.7" r="2.6" fill="#1f3a5f"/>
<circle cx="171.1" cy="753.5" r="2.6" fill="#1f3a5f"/>
<circle cx="171.1" cy="739.3" r="2.6" fill="#1f3a5f"/>
<circle cx="171.1" cy="760.9" r="2.6" fill="#1f3a5f"/>
<circle cx="226.0" cy="763.3" r="2.6" fill="#1f3a5f"/>
<circle cx="226.0" cy="780.4" r="2.6" fill="#1f3a5f"/>
<circle cx="226.0" cy="783.3" r="2.6" fill="#1f3a5f"/>
<circle cx="253.5" cy="784.5" r="2.6" fill="#1f3a5f"/>
<circle cx="253.5" cy="768.8" r="2.6" fill="#1f3a5f"/>
<circle cx="253.5" cy="830.0" r="2.6" fill="#1f3a5f"/>
<circle cx="280.9" cy="690.2" r="2.6" fill="#1f3a5f"/>
<circle cx="280.9" cy="691.0" r="2.6" fill="#1f3a5f"/>
<circle cx="280.9" cy="679.6" r="2.6" fill="#1f3a5f"/>
<circle cx="308.4" cy="690.3" r="2.6" fill="#1f3a5f"/>
<circle cx="308.4" cy="719.2" r="2.6" fill="#1f3a5f"/>
<circle cx="308.4" cy="689.4" r="2.6" fill="#1f3a5f"/>
<circle cx="335.8" cy="677.1" r="2.6" fill="#1f3a5f"/>
<circle cx="335.8" cy="717.4" r="2.6" fill="#1f3a5f"/>
<circle cx="335.8" cy="670.0" r="2.6" fill="#1f3a5f"/>
<circle cx="363.3" cy="742.4" r="2.6" fill="#1f3a5f"/>
<circle cx="363.3" cy="698.1" r="2.6" fill="#1f3a5f"/>
<circle cx="363.3" cy="707.1" r="2.6" fill="#1f3a5f"/>
<line x1="212.3" y1="670" x2="212.3" y2="830" stroke="#b9461a" stroke-dasharray="3 3"/>
<line x1="75" y1="830" x2="377" y2="830" stroke="#444"/>
<line x1="75" y1="670" x2="75" y2="830" stroke="#444"/>
<line x1="88.7" y1="830" x2="88.7" y2="833" stroke="#444"/>
<text x="88.7" y="845" text-anchor="middle" fill="#444">-5</text>
<line x1="116.2" y1="830" x2="116.2" y2="833" stroke="#444"/>
<text x="116.2" y="845" text-anchor="middle" fill="#444">-4</text>
<line x1="143.6" y1="830" x2="143.6" y2="833" stroke="#444"/>
<text x="143.6" y="845" text-anchor="middle" fill="#444">-3</text>
<line x1="171.1" y1="830" x2="171.1" y2="833" stroke="#444"/>
<text x="171.1" y="845" text-anchor="middle" fill="#444">-2</text>
<line x1="226.0" y1="830" x2="226.0" y2="833" stroke="#444"/>
<text x="226.0" y="845" text-anchor="middle" fill="#444">0</text>
<line x1="253.5" y1="830" x2="253.5" y2="833" stroke="#444"/>
<text x="253.5" y="845" text-anchor="middle" fill="#444">1</text>
<line x1="280.9" y1="830" x2="280.9" y2="833" stroke="#444"/>
<text x="280.9" y="845" text-anchor="middle" fill="#444">2</text>
<line x1="308.4" y1="830" x2="308.4" y2="833" stroke="#444"/>
<text x="308.4" y="845" text-anchor="middle" fill="#444">3</text>
<line x1="335.8" y1="830" x2="335.8" y2="833" stroke="#444"/>
<text x="335.8" y="845" text-anchor="middle" fill="#444">4</text>
<line x1="363.3" y1="830" x2="363.3" y2="833" stroke="#444"/>
<text x="363.3" y="845" text-anchor="middle" fill="#444">5</text>
<line x1="72" y1="830.0" x2="75" y2="830.0" stroke="#444"/>
<text x="69" y="833.0" text-anchor="end" fill="#444">-3.2</text>
<line x1="72" y1="790.0" x2="75" y2="790.0" stroke="#444"/>
<text x="69" y="793.0" text-anchor="end" fill="#444">-1.8</text>
<line x1="72" y1="750.0" x2="75" y2="750.0" stroke="#444"/>
<text x="69" y="753.0" text-anchor="end" fill="#444">-0.35</text>
<line x1="72" y1="710.0" x2="75" y2="710.0" stroke="#444"/>
<text x="69" y="713.0" text-anchor="end" fill="#444">1.1</text>
<line x1="72" y1="670.0" x2="75" y2="670.0" stroke="#444"/>
<text x="69" y="673.0" text-anchor="end" fill="#444">2.5</text>
<text x="226.0" y="864" text-anchor="middle" fill="#444">Event time (years from adoption)</text>
<text x="27" y="750.0" text-anchor="middle" fill="#444" transform="rotate(-90 27 750.0)">ATT (per 100k)</text>
<rect x="425" y="620" width="380" height="260" fill="#fafaf7" stroke="#e2e2dc"/>
<text x="615.0" y="638" text-anchor="middle" font-weight="600">Motor vehicle theft rate (per 100k) [placebo]</text>
<line x1="485" y1="753.6103349596128" x2="787" y2="753.6103349596128" stroke="#aaaaaa" stroke-width="0.7"/>
<polygon points="498.7,710.0 498.7,670.0 498.7,780.5 526.2,717.5 526.2,791.1 526.2,755.3 553.6,763.9 553.6,746.7 553.6,793.9 581.1,796.8 581.1,773.5 581.1,779.8 636.0,766.1 636.0,772.4 636.0,738.6 663.5,765.1 663.5,765.2 663.5,766.1 690.9,731.1 690.9,754.6 690.9,772.8 718.4,699.2 718.4,734.5 718.4,751.0 745.8,754.0 745.8,730.4 745.8,704.0 773.3,746.9 773.3,739.9 773.3,785.7 773.3,785.7 773.3,739.9 773.3,746.9 745.8,704.0 745.8,730.4 745.8,754.0 718.4,751.0 718.4,734.5 718.4,699.2 690.9,772.8 690.9,754.6 690.9,731.1 663.5,766.1 663.5,765.2 663.5,765.1 636.0,771.4 636.0,772.4 636.0,766.1 581.1,779.8 581.1,773.5 581.1,810.3 553.6,825.8 553.6,746.7 553.6,763.9 526.2,755.3 526.2,830.0 526.2,717.5 498.7,826.4 498.7,670.0 498.7,710.0" fill="#1f3a5f" opacity="0.18"/>
<polyline points="498.7,710.0 498.7,670.0 498.7,803.4 526.2,717.5 526.2,810.5 526.2,755.3 553.6,763.9 553.6,746.7 553.6,809.8 581.1,803.5 581.1,773.5 581.1,779.8 636.0,766.1 636.0,772.4 636.0,755.0 663.5,765.1 663.5,765.2 663.5,766.1 690.9,731.1 690.9,754.6 690.9,772.8 718.4,699.2 718.4,734.5 718.4,751.0 745.8,754.0 745.8,730.4 745.8,704.0 773.3,746.9 773.3,739.9 773.3,785.7" fill="none" stroke="#1f3a5f" stroke-width="1.6"/>
<circle cx="498.7" cy="710.0" r="2.6" fill="#1f3a5f"/>
<circle cx="498.7" cy="670.0" r="2.6" fill="#1f3a5f"/>
<circle cx="498.7" cy="803.4" r="2.6" fill="#1f3a5f"/>
<circle cx="526.2" cy="717.5" r="2.6" fill="#1f3a5f"/>
<circle cx="526.2" cy="810.5" r="2.6" fill="#1f3a5f"/>
<circle cx="526.2" cy="755.3" r="2.6" fill="#1f3a5f"/>
<circle cx="553.6" cy="763.9" r="2.6" fill="#1f3a5f"/>
<circle cx="553.6" cy="746.7" r="2.6" fill="#1f3a5f"/>
<circle cx="553.6" cy="809.8" r="2.6" fill="#1f3a5f"/>
<circle cx="581.1" cy="803.5" r="2.6" fill="#1f3a5f"/>
<circle cx="581.1" cy="773.5" r="2.6" fill="#1f3a5f"/>
<circle cx="581.1" cy="779.8" r="2.6" fill="#1f3a5f"/>
<circle cx="636.0" cy="766.1" r="2.6" fill="#1f3a5f"/>
<circle cx="636.0" cy="772.4" r="2.6" fill="#1f3a5f"/>
<circle cx="636.0" cy="755.0" r="2.6" fill="#1f3a5f"/>
<circle cx="663.5" cy="765.1" r="2.6" fill="#1f3a5f"/>
<circle cx="663.5" cy="765.2" r="2.6" fill="#1f3a5f"/>
<circle cx="663.5" cy="766.1" r="2.6" fill="#1f3a5f"/>
<circle cx="690.9" cy="731.1" r="2.6" fill="#1f3a5f"/>
<circle cx="690.9" cy="754.6" r="2.6" fill="#1f3a5f"/>
<circle cx="690.9" cy="772.8" r="2.6" fill="#1f3a5f"/>
<circle cx="718.4" cy="699.2" r="2.6" fill="#1f3a5f"/>
<circle cx="718.4" cy="734.5" r="2.6" fill="#1f3a5f"/>
<circle cx="718.4" cy="751.0" r="2.6" fill="#1f3a5f"/>
<circle cx="745.8" cy="754.0" r="2.6" fill="#1f3a5f"/>
<circle cx="745.8" cy="730.4" r="2.6" fill="#1f3a5f"/>
<circle cx="745.8" cy="704.0" r="2.6" fill="#1f3a5f"/>
<circle cx="773.3" cy="746.9" r="2.6" fill="#1f3a5f"/>
<circle cx="773.3" cy="739.9" r="2.6" fill="#1f3a5f"/>
<circle cx="773.3" cy="785.7" r="2.6" fill="#1f3a5f"/>
<line x1="622.3" y1="670" x2="622.3" y2="830" stroke="#b9461a" stroke-dasharray="3 3"/>
<line x1="485" y1="830" x2="787" y2="830" stroke="#444"/>
<line x1="485" y1="670" x2="485" y2="830" stroke="#444"/>
<line x1="498.7" y1="830" x2="498.7" y2="833" stroke="#444"/>
<text x="498.7" y="845" text-anchor="middle" fill="#444">-5</text>
<line x1="526.2" y1="830" x2="526.2" y2="833" stroke="#444"/>
<text x="526.2" y="845" text-anchor="middle" fill="#444">-4</text>
<line x1="553.6" y1="830" x2="553.6" y2="833" stroke="#444"/>
<text x="553.6" y="845" text-anchor="middle" fill="#444">-3</text>
<line x1="581.1" y1="830" x2="581.1" y2="833" stroke="#444"/>
<text x="581.1" y="845" text-anchor="middle" fill="#444">-2</text>
<line x1="636.0" y1="830" x2="636.0" y2="833" stroke="#444"/>
<text x="636.0" y="845" text-anchor="middle" fill="#444">0</text>
<line x1="663.5" y1="830" x2="663.5" y2="833" stroke="#444"/>
<text x="663.5" y="845" text-anchor="middle" fill="#444">1</text>
<line x1="690.9" y1="830" x2="690.9" y2="833" stroke="#444"/>
<text x="690.9" y="845" text-anchor="middle" fill="#444">2</text>
<line x1="718.4" y1="830" x2="718.4" y2="833" stroke="#444"/>
<text x="718.4" y="845" text-anchor="middle" fill="#444">3</text>
<line x1="745.8" y1="830" x2="745.8" y2="833" stroke="#444"/>
<text x="745.8" y="845" text-anchor="middle" fill="#444">4</text>
<line x1="773.3" y1="830" x2="773.3" y2="833" stroke="#444"/>
<text x="773.3" y="845" text-anchor="middle" fill="#444">5</text>
<line x1="482" y1="830.0" x2="485" y2="830.0" stroke="#444"/>
<text x="479" y="833.0" text-anchor="end" fill="#444">-87</text>
<line x1="482" y1="790.0" x2="485" y2="790.0" stroke="#444"/>
<text x="479" y="793.0" text-anchor="end" fill="#444">-41</text>
<line x1="482" y1="750.0" x2="485" y2="750.0" stroke="#444"/>
<text x="479" y="753.0" text-anchor="end" fill="#444">4.1</text>
<line x1="482" y1="710.0" x2="485" y2="710.0" stroke="#444"/>
<text x="479" y="713.0" text-anchor="end" fill="#444">49</text>
<line x1="482" y1="670.0" x2="485" y2="670.0" stroke="#444"/>
<text x="479" y="673.0" text-anchor="end" fill="#444">95</text>
<text x="636.0" y="864" text-anchor="middle" fill="#444">Event time (years from adoption)</text>
<text x="437" y="750.0" text-anchor="middle" fill="#444" transform="rotate(-90 437 750.0)">ATT (per 100k)</text>
<text x="805" y="608" text-anchor="end" fill="#888" font-size="10">Shaded band: pointwise 95% CI from cluster bootstrap. Vertical dashed line marks the year before adoption.</text>
</svg>