<svg xmlns="http://www.w3.org/2000/svg" viewBox="0 0 820 620" font-family="-apple-system, Segoe UI, Helvetica, Arial, sans-serif" font-size="11">
<text x="410.0" y="22" text-anchor="middle" font-size="14" font-weight="600">Callaway-Sant'Anna ATT by event time (RA) -- assault weapons ban (assault)</text>
<rect x="15" y="40" width="380" height="260" fill="#fafaf7" stroke="#e2e2dc"/>
<text x="205.0" y="58" text-anchor="middle" font-weight="600">Firearm suicide rate (per 100k)</text>
<line x1="75" y1="122.49590751098592" x2="377" y2="122.49590751098592" stroke="#aaaaaa" stroke-width="0.7"/>
<polygon points="88.7,99.8 88.7,101.2 88.7,143.0 116.2,103.7 116.2,176.4 116.2,101.0 143.6,187.7 143.6,192.8 143.6,196.9 171.1,170.3 171.1,195.9 171.1,191.2 226.0,119.5 226.0,121.8 226.0,112.2 253.5,102.5 253.5,105.3 253.5,151.2 280.9,157.3 280.9,154.0 280.9,120.3 308.4,186.2 308.4,179.3 308.4,191.2 335.8,90.0 335.8,98.1 335.8,96.6 363.3,234.7 363.3,237.6 363.3,171.3 363.3,171.3 363.3,237.6 363.3,234.7 335.8,96.6 335.8,98.1 335.8,90.0 308.4,191.2 308.4,179.3 308.4,186.2 280.9,120.3 280.9,154.0 280.9,157.3 253.5,151.2 253.5,105.3 253.5,102.5 226.0,146.6 226.0,121.8 226.0,119.5 171.1,191.2 171.1,195.9 171.1,222.3 143.6,250.0 143.6,192.8 143.6,187.7 116.2,101.0 116.2,219.2 116.2,103.7 88.7,192.0 88.7,101.2 88.7,99.8" fill="#1f3a5f" opacity="0.18"/>
<polyline points="88.7,99.8 88.7,101.2 88.7,167.5 116.2,103.7 116.2,197.8 116.2,101.0 143.6,187.7 143.6,192.8 143.6,223.5 171.1,196.3 171.1,195.9 171.1,191.2 226.0,119.5 226.0,121.8 226.0,129.4 253.5,102.5 253.5,105.3 253.5,151.2 280.9,157.3 280.9,154.0 280.9,120.3 308.4,186.2 308.4,179.3 308.4,191.2 335.8,90.0 335.8,98.1 335.8,96.6 363.3,234.7 363.3,237.6 363.3,171.3" fill="none" stroke="#1f3a5f" stroke-width="1.6"/>
<circle cx="88.7" cy="99.8" r="2.6" fill="#1f3a5f"/>
<circle cx="88.7" cy="101.2" r="2.6" fill="#1f3a5f"/>
<circle cx="88.7" cy="167.5" r="2.6" fill="#1f3a5f"/>
<circle cx="116.2" cy="103.7" r="2.6" fill="#1f3a5f"/>
<circle cx="116.2" cy="197.8" r="2.6" fill="#1f3a5f"/>
<circle cx="116.2" cy="101.0" r="2.6" fill="#1f3a5f"/>
<circle cx="143.6" cy="187.7" r="2.6" fill="#1f3a5f"/>
<circle cx="143.6" cy="192.8" r="2.6" fill="#1f3a5f"/>
<circle cx="143.6" cy="223.5" r="2.6" fill="#1f3a5f"/>
<circle cx="171.1" cy="196.3" r="2.6" fill="#1f3a5f"/>
<circle cx="171.1" cy="195.9" r="2.6" fill="#1f3a5f"/>
<circle cx="171.1" cy="191.2" r="2.6" fill="#1f3a5f"/>
<circle cx="226.0" cy="119.5" r="2.6" fill="#1f3a5f"/>
<circle cx="226.0" cy="121.8" r="2.6" fill="#1f3a5f"/>
<circle cx="226.0" cy="129.4" r="2.6" fill="#1f3a5f"/>
<circle cx="253.5" cy="102.5" r="2.6" fill="#1f3a5f"/>
<circle cx="253.5" cy="105.3" r="2.6" fill="#1f3a5f"/>
<circle cx="253.5" cy="151.2" r="2.6" fill="#1f3a5f"/>
<circle cx="280.9" cy="157.3" r="2.6" fill="#1f3a5f"/>
<circle cx="280.9" cy="154.0" r="2.6" fill="#1f3a5f"/>
<circle cx="280.9" cy="120.3" r="2.6" fill="#1f3a5f"/>
<circle cx="308.4" cy="186.2" r="2.6" fill="#1f3a5f"/>
<circle cx="308.4" cy="179.3" r="2.6" fill="#1f3a5f"/>
<circle cx="308.4" cy="191.2" r="2.6" fill="#1f3a5f"/>
<circle cx="335.8" cy="90.0" r="2.6" fill="#1f3a5f"/>
<circle cx="335.8" cy="98.1" r="2.6" fill="#1f3a5f"/>
<circle cx="335.8" cy="96.6" r="2.6" fill="#1f3a5f"/>
<circle cx="363.3" cy="234.7" r="2.6" fill="#1f3a5f"/>
<circle cx="363.3" cy="237.6" r="2.6" fill="#1f3a5f"/>
<circle cx="363.3" cy="171.3" r="2.6" fill="#1f3a5f"/>
<line x1="212.3" y1="90" x2="212.3" y2="250" stroke="#b9461a" stroke-dasharray="3 3"/>
<line x1="75" y1="250" x2="377" y2="250" stroke="#444"/>
<line x1="75" y1="90" x2="75" y2="250" stroke="#444"/>
<line x1="88.7" y1="250" x2="88.7" y2="253" stroke="#444"/>
<text x="88.7" y="265" text-anchor="middle" fill="#444">-5</text>
<line x1="116.2" y1="250" x2="116.2" y2="253" stroke="#444"/>
<text x="116.2" y="265" text-anchor="middle" fill="#444">-4</text>
<line x1="143.6" y1="250" x2="143.6" y2="253" stroke="#444"/>
<text x="143.6" y="265" text-anchor="middle" fill="#444">-3</text>
<line x1="171.1" y1="250" x2="171.1" y2="253" stroke="#444"/>
<text x="171.1" y="265" text-anchor="middle" fill="#444">-2</text>
<line x1="226.0" y1="250" x2="226.0" y2="253" stroke="#444"/>
<text x="226.0" y="265" text-anchor="middle" fill="#444">0</text>
<line x1="253.5" y1="250" x2="253.5" y2="253" stroke="#444"/>
<text x="253.5" y="265" text-anchor="middle" fill="#444">1</text>
<line x1="280.9" y1="250" x2="280.9" y2="253" stroke="#444"/>
<text x="280.9" y="265" text-anchor="middle" fill="#444">2</text>
<line x1="308.4" y1="250" x2="308.4" y2="253" stroke="#444"/>
<text x="308.4" y="265" text-anchor="middle" fill="#444">3</text>
<line x1="335.8" y1="250" x2="335.8" y2="253" stroke="#444"/>
<text x="335.8" y="265" text-anchor="middle" fill="#444">4</text>
<line x1="363.3" y1="250" x2="363.3" y2="253" stroke="#444"/>
<text x="363.3" y="265" text-anchor="middle" fill="#444">5</text>
<line x1="72" y1="250.0" x2="75" y2="250.0" stroke="#444"/>
<text x="69" y="253.0" text-anchor="end" fill="#444">-1.8</text>
<line x1="72" y1="210.0" x2="75" y2="210.0" stroke="#444"/>
<text x="69" y="213.0" text-anchor="end" fill="#444">-1.2</text>
<line x1="72" y1="170.0" x2="75" y2="170.0" stroke="#444"/>
<text x="69" y="173.0" text-anchor="end" fill="#444">-0.67</text>
<line x1="72" y1="130.0" x2="75" y2="130.0" stroke="#444"/>
<text x="69" y="133.0" text-anchor="end" fill="#444">-0.11</text>
<line x1="72" y1="90.0" x2="75" y2="90.0" stroke="#444"/>
<text x="69" y="93.0" text-anchor="end" fill="#444">0.46</text>
<text x="226.0" y="284" text-anchor="middle" fill="#444">Event time (years from adoption)</text>
<text x="27" y="170.0" text-anchor="middle" fill="#444" transform="rotate(-90 27 170.0)">ATT (per 100k)</text>
<rect x="425" y="40" width="380" height="260" fill="#fafaf7" stroke="#e2e2dc"/>
<text x="615.0" y="58" text-anchor="middle" font-weight="600">Non-firearm suicide rate (per 100k) [substitution test]</text>
<line x1="485" y1="212.87153518670107" x2="787" y2="212.87153518670107" stroke="#aaaaaa" stroke-width="0.7"/>
<polygon points="498.7,249.0 498.7,247.3 498.7,198.8 526.2,94.8 526.2,209.8 526.2,90.0 553.6,126.1 553.6,127.1 553.6,182.7 581.1,167.9 581.1,152.8 581.1,152.3 636.0,153.9 636.0,155.7 636.0,211.8 663.5,190.3 663.5,195.2 663.5,211.0 690.9,160.4 690.9,156.8 690.9,220.5 718.4,190.6 718.4,190.2 718.4,221.4 745.8,250.0 745.8,172.4 745.8,175.0 773.3,124.2 773.3,125.9 773.3,178.0 773.3,178.0 773.3,125.9 773.3,124.2 745.8,175.0 745.8,172.4 745.8,250.0 718.4,221.4 718.4,190.2 718.4,190.6 690.9,220.5 690.9,156.8 690.9,160.4 663.5,211.0 663.5,195.2 663.5,190.3 636.0,230.2 636.0,155.7 636.0,153.9 581.1,152.3 581.1,152.8 581.1,201.3 553.6,209.6 553.6,127.1 553.6,126.1 526.2,90.0 526.2,225.7 526.2,94.8 498.7,236.0 498.7,247.3 498.7,249.0" fill="#1f3a5f" opacity="0.18"/>
<polyline points="498.7,249.0 498.7,247.3 498.7,217.4 526.2,94.8 526.2,217.7 526.2,90.0 553.6,126.1 553.6,127.1 553.6,196.2 581.1,184.6 581.1,152.8 581.1,152.3 636.0,153.9 636.0,155.7 636.0,221.0 663.5,190.3 663.5,195.2 663.5,211.0 690.9,160.4 690.9,156.8 690.9,220.5 718.4,190.6 718.4,190.2 718.4,221.4 745.8,250.0 745.8,172.4 745.8,175.0 773.3,124.2 773.3,125.9 773.3,178.0" fill="none" stroke="#1f3a5f" stroke-width="1.6"/>
<circle cx="498.7" cy="249.0" r="2.6" fill="#1f3a5f"/>
<circle cx="498.7" cy="247.3" r="2.6" fill="#1f3a5f"/>
<circle cx="498.7" cy="217.4" r="2.6" fill="#1f3a5f"/>
<circle cx="526.2" cy="94.8" r="2.6" fill="#1f3a5f"/>
<circle cx="526.2" cy="217.7" r="2.6" fill="#1f3a5f"/>
<circle cx="526.2" cy="90.0" r="2.6" fill="#1f3a5f"/>
<circle cx="553.6" cy="126.1" r="2.6" fill="#1f3a5f"/>
<circle cx="553.6" cy="127.1" r="2.6" fill="#1f3a5f"/>
<circle cx="553.6" cy="196.2" r="2.6" fill="#1f3a5f"/>
<circle cx="581.1" cy="184.6" r="2.6" fill="#1f3a5f"/>
<circle cx="581.1" cy="152.8" r="2.6" fill="#1f3a5f"/>
<circle cx="581.1" cy="152.3" r="2.6" fill="#1f3a5f"/>
<circle cx="636.0" cy="153.9" r="2.6" fill="#1f3a5f"/>
<circle cx="636.0" cy="155.7" r="2.6" fill="#1f3a5f"/>
<circle cx="636.0" cy="221.0" r="2.6" fill="#1f3a5f"/>
<circle cx="663.5" cy="190.3" r="2.6" fill="#1f3a5f"/>
<circle cx="663.5" cy="195.2" r="2.6" fill="#1f3a5f"/>
<circle cx="663.5" cy="211.0" r="2.6" fill="#1f3a5f"/>
<circle cx="690.9" cy="160.4" r="2.6" fill="#1f3a5f"/>
<circle cx="690.9" cy="156.8" r="2.6" fill="#1f3a5f"/>
<circle cx="690.9" cy="220.5" r="2.6" fill="#1f3a5f"/>
<circle cx="718.4" cy="190.6" r="2.6" fill="#1f3a5f"/>
<circle cx="718.4" cy="190.2" r="2.6" fill="#1f3a5f"/>
<circle cx="718.4" cy="221.4" r="2.6" fill="#1f3a5f"/>
<circle cx="745.8" cy="250.0" r="2.6" fill="#1f3a5f"/>
<circle cx="745.8" cy="172.4" r="2.6" fill="#1f3a5f"/>
<circle cx="745.8" cy="175.0" r="2.6" fill="#1f3a5f"/>
<circle cx="773.3" cy="124.2" r="2.6" fill="#1f3a5f"/>
<circle cx="773.3" cy="125.9" r="2.6" fill="#1f3a5f"/>
<circle cx="773.3" cy="178.0" r="2.6" fill="#1f3a5f"/>
<line x1="622.3" y1="90" x2="622.3" y2="250" stroke="#b9461a" stroke-dasharray="3 3"/>
<line x1="485" y1="250" x2="787" y2="250" stroke="#444"/>
<line x1="485" y1="90" x2="485" y2="250" stroke="#444"/>
<line x1="498.7" y1="250" x2="498.7" y2="253" stroke="#444"/>
<text x="498.7" y="265" text-anchor="middle" fill="#444">-5</text>
<line x1="526.2" y1="250" x2="526.2" y2="253" stroke="#444"/>
<text x="526.2" y="265" text-anchor="middle" fill="#444">-4</text>
<line x1="553.6" y1="250" x2="553.6" y2="253" stroke="#444"/>
<text x="553.6" y="265" text-anchor="middle" fill="#444">-3</text>
<line x1="581.1" y1="250" x2="581.1" y2="253" stroke="#444"/>
<text x="581.1" y="265" text-anchor="middle" fill="#444">-2</text>
<line x1="636.0" y1="250" x2="636.0" y2="253" stroke="#444"/>
<text x="636.0" y="265" text-anchor="middle" fill="#444">0</text>
<line x1="663.5" y1="250" x2="663.5" y2="253" stroke="#444"/>
<text x="663.5" y="265" text-anchor="middle" fill="#444">1</text>
<line x1="690.9" y1="250" x2="690.9" y2="253" stroke="#444"/>
<text x="690.9" y="265" text-anchor="middle" fill="#444">2</text>
<line x1="718.4" y1="250" x2="718.4" y2="253" stroke="#444"/>
<text x="718.4" y="265" text-anchor="middle" fill="#444">3</text>
<line x1="745.8" y1="250" x2="745.8" y2="253" stroke="#444"/>
<text x="745.8" y="265" text-anchor="middle" fill="#444">4</text>
<line x1="773.3" y1="250" x2="773.3" y2="253" stroke="#444"/>
<text x="773.3" y="265" text-anchor="middle" fill="#444">5</text>
<line x1="482" y1="250.0" x2="485" y2="250.0" stroke="#444"/>
<text x="479" y="253.0" text-anchor="end" fill="#444">-0.67</text>
<line x1="482" y1="210.0" x2="485" y2="210.0" stroke="#444"/>
<text x="479" y="213.0" text-anchor="end" fill="#444">0.051</text>
<line x1="482" y1="170.0" x2="485" y2="170.0" stroke="#444"/>
<text x="479" y="173.0" text-anchor="end" fill="#444">0.77</text>
<line x1="482" y1="130.0" x2="485" y2="130.0" stroke="#444"/>
<text x="479" y="133.0" text-anchor="end" fill="#444">1.5</text>
<line x1="482" y1="90.0" x2="485" y2="90.0" stroke="#444"/>
<text x="479" y="93.0" text-anchor="end" fill="#444">2.2</text>
<text x="636.0" y="284" text-anchor="middle" fill="#444">Event time (years from adoption)</text>
<text x="437" y="170.0" text-anchor="middle" fill="#444" transform="rotate(-90 437 170.0)">ATT (per 100k)</text>
<rect x="15" y="330" width="380" height="260" fill="#fafaf7" stroke="#e2e2dc"/>
<text x="205.0" y="348" text-anchor="middle" font-weight="600">Total suicide rate (per 100k) [net effect]</text>
<line x1="75" y1="476.7171590673038" x2="377" y2="476.7171590673038" stroke="#aaaaaa" stroke-width="0.7"/>
<polygon points="88.7,489.3 88.7,488.9 88.7,482.9 116.2,384.8 116.2,508.4 116.2,380.0 143.6,452.3 143.6,455.8 143.6,500.6 171.1,483.2 171.1,475.3 171.1,472.3 226.0,434.3 226.0,436.8 226.0,478.0 253.5,450.2 253.5,455.1 253.5,491.1 280.9,459.4 280.9,455.2 280.9,480.8 308.4,496.1 308.4,492.0 308.4,520.2 335.8,484.7 335.8,435.4 335.8,436.4 363.3,476.6 363.3,479.4 363.3,479.3 363.3,479.3 363.3,479.4 363.3,476.6 335.8,436.4 335.8,435.4 335.8,484.7 308.4,520.2 308.4,492.0 308.4,496.1 280.9,480.8 280.9,455.2 280.9,459.4 253.5,491.1 253.5,455.1 253.5,450.2 226.0,494.2 226.0,436.8 226.0,434.3 171.1,472.3 171.1,475.3 171.1,511.7 143.6,540.0 143.6,455.8 143.6,452.3 116.2,380.0 116.2,533.9 116.2,384.8 88.7,525.9 88.7,488.9 88.7,489.3" fill="#1f3a5f" opacity="0.18"/>
<polyline points="88.7,489.3 88.7,488.9 88.7,504.4 116.2,384.8 116.2,521.2 116.2,380.0 143.6,452.3 143.6,455.8 143.6,520.3 171.1,497.4 171.1,475.3 171.1,472.3 226.0,434.3 226.0,436.8 226.0,486.1 253.5,450.2 253.5,455.1 253.5,491.1 280.9,459.4 280.9,455.2 280.9,480.8 308.4,496.1 308.4,492.0 308.4,520.2 335.8,484.7 335.8,435.4 335.8,436.4 363.3,476.6 363.3,479.4 363.3,479.3" fill="none" stroke="#1f3a5f" stroke-width="1.6"/>
<circle cx="88.7" cy="489.3" r="2.6" fill="#1f3a5f"/>
<circle cx="88.7" cy="488.9" r="2.6" fill="#1f3a5f"/>
<circle cx="88.7" cy="504.4" r="2.6" fill="#1f3a5f"/>
<circle cx="116.2" cy="384.8" r="2.6" fill="#1f3a5f"/>
<circle cx="116.2" cy="521.2" r="2.6" fill="#1f3a5f"/>
<circle cx="116.2" cy="380.0" r="2.6" fill="#1f3a5f"/>
<circle cx="143.6" cy="452.3" r="2.6" fill="#1f3a5f"/>
<circle cx="143.6" cy="455.8" r="2.6" fill="#1f3a5f"/>
<circle cx="143.6" cy="520.3" r="2.6" fill="#1f3a5f"/>
<circle cx="171.1" cy="497.4" r="2.6" fill="#1f3a5f"/>
<circle cx="171.1" cy="475.3" r="2.6" fill="#1f3a5f"/>
<circle cx="171.1" cy="472.3" r="2.6" fill="#1f3a5f"/>
<circle cx="226.0" cy="434.3" r="2.6" fill="#1f3a5f"/>
<circle cx="226.0" cy="436.8" r="2.6" fill="#1f3a5f"/>
<circle cx="226.0" cy="486.1" r="2.6" fill="#1f3a5f"/>
<circle cx="253.5" cy="450.2" r="2.6" fill="#1f3a5f"/>
<circle cx="253.5" cy="455.1" r="2.6" fill="#1f3a5f"/>
<circle cx="253.5" cy="491.1" r="2.6" fill="#1f3a5f"/>
<circle cx="280.9" cy="459.4" r="2.6" fill="#1f3a5f"/>
<circle cx="280.9" cy="455.2" r="2.6" fill="#1f3a5f"/>
<circle cx="280.9" cy="480.8" r="2.6" fill="#1f3a5f"/>
<circle cx="308.4" cy="496.1" r="2.6" fill="#1f3a5f"/>
<circle cx="308.4" cy="492.0" r="2.6" fill="#1f3a5f"/>
<circle cx="308.4" cy="520.2" r="2.6" fill="#1f3a5f"/>
<circle cx="335.8" cy="484.7" r="2.6" fill="#1f3a5f"/>
<circle cx="335.8" cy="435.4" r="2.6" fill="#1f3a5f"/>
<circle cx="335.8" cy="436.4" r="2.6" fill="#1f3a5f"/>
<circle cx="363.3" cy="476.6" r="2.6" fill="#1f3a5f"/>
<circle cx="363.3" cy="479.4" r="2.6" fill="#1f3a5f"/>
<circle cx="363.3" cy="479.3" r="2.6" fill="#1f3a5f"/>
<line x1="212.3" y1="380" x2="212.3" y2="540" stroke="#b9461a" stroke-dasharray="3 3"/>
<line x1="75" y1="540" x2="377" y2="540" stroke="#444"/>
<line x1="75" y1="380" x2="75" y2="540" stroke="#444"/>
<line x1="88.7" y1="540" x2="88.7" y2="543" stroke="#444"/>
<text x="88.7" y="555" text-anchor="middle" fill="#444">-5</text>
<line x1="116.2" y1="540" x2="116.2" y2="543" stroke="#444"/>
<text x="116.2" y="555" text-anchor="middle" fill="#444">-4</text>
<line x1="143.6" y1="540" x2="143.6" y2="543" stroke="#444"/>
<text x="143.6" y="555" text-anchor="middle" fill="#444">-3</text>
<line x1="171.1" y1="540" x2="171.1" y2="543" stroke="#444"/>
<text x="171.1" y="555" text-anchor="middle" fill="#444">-2</text>
<line x1="226.0" y1="540" x2="226.0" y2="543" stroke="#444"/>
<text x="226.0" y="555" text-anchor="middle" fill="#444">0</text>
<line x1="253.5" y1="540" x2="253.5" y2="543" stroke="#444"/>
<text x="253.5" y="555" text-anchor="middle" fill="#444">1</text>
<line x1="280.9" y1="540" x2="280.9" y2="543" stroke="#444"/>
<text x="280.9" y="555" text-anchor="middle" fill="#444">2</text>
<line x1="308.4" y1="540" x2="308.4" y2="543" stroke="#444"/>
<text x="308.4" y="555" text-anchor="middle" fill="#444">3</text>
<line x1="335.8" y1="540" x2="335.8" y2="543" stroke="#444"/>
<text x="335.8" y="555" text-anchor="middle" fill="#444">4</text>
<line x1="363.3" y1="540" x2="363.3" y2="543" stroke="#444"/>
<text x="363.3" y="555" text-anchor="middle" fill="#444">5</text>
<line x1="72" y1="540.0" x2="75" y2="540.0" stroke="#444"/>
<text x="69" y="543.0" text-anchor="end" fill="#444">-1.6</text>
<line x1="72" y1="500.0" x2="75" y2="500.0" stroke="#444"/>
<text x="69" y="503.0" text-anchor="end" fill="#444">-0.6</text>
<line x1="72" y1="460.0" x2="75" y2="460.0" stroke="#444"/>
<text x="69" y="463.0" text-anchor="end" fill="#444">0.43</text>
<line x1="72" y1="420.0" x2="75" y2="420.0" stroke="#444"/>
<text x="69" y="423.0" text-anchor="end" fill="#444">1.5</text>
<line x1="72" y1="380.0" x2="75" y2="380.0" stroke="#444"/>
<text x="69" y="383.0" text-anchor="end" fill="#444">2.5</text>
<text x="226.0" y="574" text-anchor="middle" fill="#444">Event time (years from adoption)</text>
<text x="27" y="460.0" text-anchor="middle" fill="#444" transform="rotate(-90 27 460.0)">ATT (per 100k)</text>
<rect x="425" y="330" width="380" height="260" fill="#fafaf7" stroke="#e2e2dc"/>
<text x="615.0" y="348" text-anchor="middle" font-weight="600">Firearm homicide rate (per 100k)</text>
<line x1="485" y1="447.08380122462825" x2="787" y2="447.08380122462825" stroke="#aaaaaa" stroke-width="0.7"/>
<polygon points="498.7,415.0 498.7,434.4 498.7,432.7 526.2,443.2 526.2,458.4 526.2,448.8 553.6,454.6 553.6,455.3 553.6,453.3 581.1,426.8 581.1,470.8 581.1,480.1 636.0,466.0 636.0,463.1 636.0,469.9 663.5,497.9 663.5,497.3 663.5,540.0 690.9,392.4 690.9,383.2 690.9,402.9 718.4,411.4 718.4,425.3 718.4,412.8 745.8,396.3 745.8,392.9 745.8,380.0 773.3,428.0 773.3,412.3 773.3,429.0 773.3,429.0 773.3,412.3 773.3,428.0 745.8,380.0 745.8,392.9 745.8,396.3 718.4,412.8 718.4,425.3 718.4,411.4 690.9,402.9 690.9,383.2 690.9,392.4 663.5,540.0 663.5,497.3 663.5,497.9 636.0,483.2 636.0,463.1 636.0,466.0 581.1,480.1 581.1,470.8 581.1,447.7 553.6,479.9 553.6,455.3 553.6,454.6 526.2,448.8 526.2,477.4 526.2,443.2 498.7,450.7 498.7,434.4 498.7,415.0" fill="#1f3a5f" opacity="0.18"/>
<polyline points="498.7,415.0 498.7,434.4 498.7,441.7 526.2,443.2 526.2,467.9 526.2,448.8 553.6,454.6 553.6,455.3 553.6,466.6 581.1,437.2 581.1,470.8 581.1,480.1 636.0,466.0 636.0,463.1 636.0,476.6 663.5,497.9 663.5,497.3 663.5,540.0 690.9,392.4 690.9,383.2 690.9,402.9 718.4,411.4 718.4,425.3 718.4,412.8 745.8,396.3 745.8,392.9 745.8,380.0 773.3,428.0 773.3,412.3 773.3,429.0" fill="none" stroke="#1f3a5f" stroke-width="1.6"/>
<circle cx="498.7" cy="415.0" r="2.6" fill="#1f3a5f"/>
<circle cx="498.7" cy="434.4" r="2.6" fill="#1f3a5f"/>
<circle cx="498.7" cy="441.7" r="2.6" fill="#1f3a5f"/>
<circle cx="526.2" cy="443.2" r="2.6" fill="#1f3a5f"/>
<circle cx="526.2" cy="467.9" r="2.6" fill="#1f3a5f"/>
<circle cx="526.2" cy="448.8" r="2.6" fill="#1f3a5f"/>
<circle cx="553.6" cy="454.6" r="2.6" fill="#1f3a5f"/>
<circle cx="553.6" cy="455.3" r="2.6" fill="#1f3a5f"/>
<circle cx="553.6" cy="466.6" r="2.6" fill="#1f3a5f"/>
<circle cx="581.1" cy="437.2" r="2.6" fill="#1f3a5f"/>
<circle cx="581.1" cy="470.8" r="2.6" fill="#1f3a5f"/>
<circle cx="581.1" cy="480.1" r="2.6" fill="#1f3a5f"/>
<circle cx="636.0" cy="466.0" r="2.6" fill="#1f3a5f"/>
<circle cx="636.0" cy="463.1" r="2.6" fill="#1f3a5f"/>
<circle cx="636.0" cy="476.6" r="2.6" fill="#1f3a5f"/>
<circle cx="663.5" cy="497.9" r="2.6" fill="#1f3a5f"/>
<circle cx="663.5" cy="497.3" r="2.6" fill="#1f3a5f"/>
<circle cx="663.5" cy="540.0" r="2.6" fill="#1f3a5f"/>
<circle cx="690.9" cy="392.4" r="2.6" fill="#1f3a5f"/>
<circle cx="690.9" cy="383.2" r="2.6" fill="#1f3a5f"/>
<circle cx="690.9" cy="402.9" r="2.6" fill="#1f3a5f"/>
<circle cx="718.4" cy="411.4" r="2.6" fill="#1f3a5f"/>
<circle cx="718.4" cy="425.3" r="2.6" fill="#1f3a5f"/>
<circle cx="718.4" cy="412.8" r="2.6" fill="#1f3a5f"/>
<circle cx="745.8" cy="396.3" r="2.6" fill="#1f3a5f"/>
<circle cx="745.8" cy="392.9" r="2.6" fill="#1f3a5f"/>
<circle cx="745.8" cy="380.0" r="2.6" fill="#1f3a5f"/>
<circle cx="773.3" cy="428.0" r="2.6" fill="#1f3a5f"/>
<circle cx="773.3" cy="412.3" r="2.6" fill="#1f3a5f"/>
<circle cx="773.3" cy="429.0" r="2.6" fill="#1f3a5f"/>
<line x1="622.3" y1="380" x2="622.3" y2="540" stroke="#b9461a" stroke-dasharray="3 3"/>
<line x1="485" y1="540" x2="787" y2="540" stroke="#444"/>
<line x1="485" y1="380" x2="485" y2="540" stroke="#444"/>
<line x1="498.7" y1="540" x2="498.7" y2="543" stroke="#444"/>
<text x="498.7" y="555" text-anchor="middle" fill="#444">-5</text>
<line x1="526.2" y1="540" x2="526.2" y2="543" stroke="#444"/>
<text x="526.2" y="555" text-anchor="middle" fill="#444">-4</text>
<line x1="553.6" y1="540" x2="553.6" y2="543" stroke="#444"/>
<text x="553.6" y="555" text-anchor="middle" fill="#444">-3</text>
<line x1="581.1" y1="540" x2="581.1" y2="543" stroke="#444"/>
<text x="581.1" y="555" text-anchor="middle" fill="#444">-2</text>
<line x1="636.0" y1="540" x2="636.0" y2="543" stroke="#444"/>
<text x="636.0" y="555" text-anchor="middle" fill="#444">0</text>
<line x1="663.5" y1="540" x2="663.5" y2="543" stroke="#444"/>
<text x="663.5" y="555" text-anchor="middle" fill="#444">1</text>
<line x1="690.9" y1="540" x2="690.9" y2="543" stroke="#444"/>
<text x="690.9" y="555" text-anchor="middle" fill="#444">2</text>
<line x1="718.4" y1="540" x2="718.4" y2="543" stroke="#444"/>
<text x="718.4" y="555" text-anchor="middle" fill="#444">3</text>
<line x1="745.8" y1="540" x2="745.8" y2="543" stroke="#444"/>
<text x="745.8" y="555" text-anchor="middle" fill="#444">4</text>
<line x1="773.3" y1="540" x2="773.3" y2="543" stroke="#444"/>
<text x="773.3" y="555" text-anchor="middle" fill="#444">5</text>
<line x1="482" y1="540.0" x2="485" y2="540.0" stroke="#444"/>
<text x="479" y="543.0" text-anchor="end" fill="#444">-2.5</text>
<line x1="482" y1="500.0" x2="485" y2="500.0" stroke="#444"/>
<text x="479" y="503.0" text-anchor="end" fill="#444">-1.4</text>
<line x1="482" y1="460.0" x2="485" y2="460.0" stroke="#444"/>
<text x="479" y="463.0" text-anchor="end" fill="#444">-0.35</text>
<line x1="482" y1="420.0" x2="485" y2="420.0" stroke="#444"/>
<text x="479" y="423.0" text-anchor="end" fill="#444">0.74</text>
<line x1="482" y1="380.0" x2="485" y2="380.0" stroke="#444"/>
<text x="479" y="383.0" text-anchor="end" fill="#444">1.8</text>
<text x="636.0" y="574" text-anchor="middle" fill="#444">Event time (years from adoption)</text>
<text x="437" y="460.0" text-anchor="middle" fill="#444" transform="rotate(-90 437 460.0)">ATT (per 100k)</text>
<rect x="15" y="620" width="380" height="260" fill="#fafaf7" stroke="#e2e2dc"/>
<text x="205.0" y="638" text-anchor="middle" font-weight="600">Total homicide rate (per 100k)</text>
<line x1="75" y1="728.1915973135458" x2="377" y2="728.1915973135458" stroke="#aaaaaa" stroke-width="0.7"/>
<polygon points="88.7,705.9 88.7,716.2 88.7,738.0 116.2,703.3 116.2,744.3 116.2,719.4 143.6,728.2 143.6,725.4 143.6,745.5 171.1,747.2 171.1,725.9 171.1,741.9 226.0,759.6 226.0,767.2 226.0,770.9 253.5,766.4 253.5,756.7 253.5,830.0 280.9,680.4 280.9,675.5 280.9,670.1 308.4,690.4 308.4,707.8 308.4,685.5 335.8,670.0 335.8,705.5 335.8,676.5 363.3,732.5 363.3,705.8 363.3,708.6 363.3,708.6 363.3,705.8 363.3,732.5 335.8,676.5 335.8,705.5 335.8,670.0 308.4,685.5 308.4,707.8 308.4,690.4 280.9,670.1 280.9,675.5 280.9,680.4 253.5,830.0 253.5,756.7 253.5,766.4 226.0,787.7 226.0,767.2 226.0,759.6 171.1,741.9 171.1,725.9 171.1,763.3 143.6,771.5 143.6,725.4 143.6,728.2 116.2,719.4 116.2,766.3 116.2,703.3 88.7,756.6 88.7,716.2 88.7,705.9" fill="#1f3a5f" opacity="0.18"/>
<polyline points="88.7,705.9 88.7,716.2 88.7,747.3 116.2,703.3 116.2,755.3 116.2,719.4 143.6,728.2 143.6,725.4 143.6,758.5 171.1,755.3 171.1,725.9 171.1,741.9 226.0,759.6 226.0,767.2 226.0,779.3 253.5,766.4 253.5,756.7 253.5,830.0 280.9,680.4 280.9,675.5 280.9,670.1 308.4,690.4 308.4,707.8 308.4,685.5 335.8,670.0 335.8,705.5 335.8,676.5 363.3,732.5 363.3,705.8 363.3,708.6" fill="none" stroke="#1f3a5f" stroke-width="1.6"/>
<circle cx="88.7" cy="705.9" r="2.6" fill="#1f3a5f"/>
<circle cx="88.7" cy="716.2" r="2.6" fill="#1f3a5f"/>
<circle cx="88.7" cy="747.3" r="2.6" fill="#1f3a5f"/>
<circle cx="116.2" cy="703.3" r="2.6" fill="#1f3a5f"/>
<circle cx="116.2" cy="755.3" r="2.6" fill="#1f3a5f"/>
<circle cx="116.2" cy="719.4" r="2.6" fill="#1f3a5f"/>
<circle cx="143.6" cy="728.2" r="2.6" fill="#1f3a5f"/>
<circle cx="143.6" cy="725.4" r="2.6" fill="#1f3a5f"/>
<circle cx="143.6" cy="758.5" r="2.6" fill="#1f3a5f"/>
<circle cx="171.1" cy="755.3" r="2.6" fill="#1f3a5f"/>
<circle cx="171.1" cy="725.9" r="2.6" fill="#1f3a5f"/>
<circle cx="171.1" cy="741.9" r="2.6" fill="#1f3a5f"/>
<circle cx="226.0" cy="759.6" r="2.6" fill="#1f3a5f"/>
<circle cx="226.0" cy="767.2" r="2.6" fill="#1f3a5f"/>
<circle cx="226.0" cy="779.3" r="2.6" fill="#1f3a5f"/>
<circle cx="253.5" cy="766.4" r="2.6" fill="#1f3a5f"/>
<circle cx="253.5" cy="756.7" r="2.6" fill="#1f3a5f"/>
<circle cx="253.5" cy="830.0" r="2.6" fill="#1f3a5f"/>
<circle cx="280.9" cy="680.4" r="2.6" fill="#1f3a5f"/>
<circle cx="280.9" cy="675.5" r="2.6" fill="#1f3a5f"/>
<circle cx="280.9" cy="670.1" r="2.6" fill="#1f3a5f"/>
<circle cx="308.4" cy="690.4" r="2.6" fill="#1f3a5f"/>
<circle cx="308.4" cy="707.8" r="2.6" fill="#1f3a5f"/>
<circle cx="308.4" cy="685.5" r="2.6" fill="#1f3a5f"/>
<circle cx="335.8" cy="670.0" r="2.6" fill="#1f3a5f"/>
<circle cx="335.8" cy="705.5" r="2.6" fill="#1f3a5f"/>
<circle cx="335.8" cy="676.5" r="2.6" fill="#1f3a5f"/>
<circle cx="363.3" cy="732.5" r="2.6" fill="#1f3a5f"/>
<circle cx="363.3" cy="705.8" r="2.6" fill="#1f3a5f"/>
<circle cx="363.3" cy="708.6" r="2.6" fill="#1f3a5f"/>
<line x1="212.3" y1="670" x2="212.3" y2="830" stroke="#b9461a" stroke-dasharray="3 3"/>
<line x1="75" y1="830" x2="377" y2="830" stroke="#444"/>
<line x1="75" y1="670" x2="75" y2="830" stroke="#444"/>
<line x1="88.7" y1="830" x2="88.7" y2="833" stroke="#444"/>
<text x="88.7" y="845" text-anchor="middle" fill="#444">-5</text>
<line x1="116.2" y1="830" x2="116.2" y2="833" stroke="#444"/>
<text x="116.2" y="845" text-anchor="middle" fill="#444">-4</text>
<line x1="143.6" y1="830" x2="143.6" y2="833" stroke="#444"/>
<text x="143.6" y="845" text-anchor="middle" fill="#444">-3</text>
<line x1="171.1" y1="830" x2="171.1" y2="833" stroke="#444"/>
<text x="171.1" y="845" text-anchor="middle" fill="#444">-2</text>
<line x1="226.0" y1="830" x2="226.0" y2="833" stroke="#444"/>
<text x="226.0" y="845" text-anchor="middle" fill="#444">0</text>
<line x1="253.5" y1="830" x2="253.5" y2="833" stroke="#444"/>
<text x="253.5" y="845" text-anchor="middle" fill="#444">1</text>
<line x1="280.9" y1="830" x2="280.9" y2="833" stroke="#444"/>
<text x="280.9" y="845" text-anchor="middle" fill="#444">2</text>
<line x1="308.4" y1="830" x2="308.4" y2="833" stroke="#444"/>
<text x="308.4" y="845" text-anchor="middle" fill="#444">3</text>
<line x1="335.8" y1="830" x2="335.8" y2="833" stroke="#444"/>
<text x="335.8" y="845" text-anchor="middle" fill="#444">4</text>
<line x1="363.3" y1="830" x2="363.3" y2="833" stroke="#444"/>
<text x="363.3" y="845" text-anchor="middle" fill="#444">5</text>
<line x1="72" y1="830.0" x2="75" y2="830.0" stroke="#444"/>
<text x="69" y="833.0" text-anchor="end" fill="#444">-3.4</text>
<line x1="72" y1="790.0" x2="75" y2="790.0" stroke="#444"/>
<text x="69" y="793.0" text-anchor="end" fill="#444">-2.1</text>
<line x1="72" y1="750.0" x2="75" y2="750.0" stroke="#444"/>
<text x="69" y="753.0" text-anchor="end" fill="#444">-0.73</text>
<line x1="72" y1="710.0" x2="75" y2="710.0" stroke="#444"/>
<text x="69" y="713.0" text-anchor="end" fill="#444">0.61</text>
<line x1="72" y1="670.0" x2="75" y2="670.0" stroke="#444"/>
<text x="69" y="673.0" text-anchor="end" fill="#444">2</text>
<text x="226.0" y="864" text-anchor="middle" fill="#444">Event time (years from adoption)</text>
<text x="27" y="750.0" text-anchor="middle" fill="#444" transform="rotate(-90 27 750.0)">ATT (per 100k)</text>
<rect x="425" y="620" width="380" height="260" fill="#fafaf7" stroke="#e2e2dc"/>
<text x="615.0" y="638" text-anchor="middle" font-weight="600">Motor vehicle theft rate (per 100k) [placebo]</text>
<line x1="485" y1="753.1033072882346" x2="787" y2="753.1033072882346" stroke="#aaaaaa" stroke-width="0.7"/>
<polygon points="498.7,726.6 498.7,684.3 498.7,746.1 526.2,728.9 526.2,770.3 526.2,769.1 553.6,774.4 553.6,758.9 553.6,778.3 581.1,793.2 581.1,779.2 581.1,784.2 636.0,766.7 636.0,772.0 636.0,726.7 663.5,766.9 663.5,771.9 663.5,763.2 690.9,712.1 690.9,738.4 690.9,763.0 718.4,670.0 718.4,712.9 718.4,722.6 745.8,723.4 745.8,713.1 745.8,678.5 773.3,747.3 773.3,736.9 773.3,778.1 773.3,778.1 773.3,736.9 773.3,747.3 745.8,678.5 745.8,713.1 745.8,723.4 718.4,722.6 718.4,712.9 718.4,670.0 690.9,763.0 690.9,738.4 690.9,712.1 663.5,763.2 663.5,771.9 663.5,766.9 636.0,780.9 636.0,772.0 636.0,766.7 581.1,784.2 581.1,779.2 581.1,816.4 553.6,830.0 553.6,758.9 553.6,774.4 526.2,769.1 526.2,827.1 526.2,728.9 498.7,808.7 498.7,684.3 498.7,726.6" fill="#1f3a5f" opacity="0.18"/>
<polyline points="498.7,726.6 498.7,684.3 498.7,777.4 526.2,728.9 526.2,798.7 526.2,769.1 553.6,774.4 553.6,758.9 553.6,804.1 581.1,804.8 581.1,779.2 581.1,784.2 636.0,766.7 636.0,772.0 636.0,753.8 663.5,766.9 663.5,771.9 663.5,763.2 690.9,712.1 690.9,738.4 690.9,763.0 718.4,670.0 718.4,712.9 718.4,722.6 745.8,723.4 745.8,713.1 745.8,678.5 773.3,747.3 773.3,736.9 773.3,778.1" fill="none" stroke="#1f3a5f" stroke-width="1.6"/>
<circle cx="498.7" cy="726.6" r="2.6" fill="#1f3a5f"/>
<circle cx="498.7" cy="684.3" r="2.6" fill="#1f3a5f"/>
<circle cx="498.7" cy="777.4" r="2.6" fill="#1f3a5f"/>
<circle cx="526.2" cy="728.9" r="2.6" fill="#1f3a5f"/>
<circle cx="526.2" cy="798.7" r="2.6" fill="#1f3a5f"/>
<circle cx="526.2" cy="769.1" r="2.6" fill="#1f3a5f"/>
<circle cx="553.6" cy="774.4" r="2.6" fill="#1f3a5f"/>
<circle cx="553.6" cy="758.9" r="2.6" fill="#1f3a5f"/>
<circle cx="553.6" cy="804.1" r="2.6" fill="#1f3a5f"/>
<circle cx="581.1" cy="804.8" r="2.6" fill="#1f3a5f"/>
<circle cx="581.1" cy="779.2" r="2.6" fill="#1f3a5f"/>
<circle cx="581.1" cy="784.2" r="2.6" fill="#1f3a5f"/>
<circle cx="636.0" cy="766.7" r="2.6" fill="#1f3a5f"/>
<circle cx="636.0" cy="772.0" r="2.6" fill="#1f3a5f"/>
<circle cx="636.0" cy="753.8" r="2.6" fill="#1f3a5f"/>
<circle cx="663.5" cy="766.9" r="2.6" fill="#1f3a5f"/>
<circle cx="663.5" cy="771.9" r="2.6" fill="#1f3a5f"/>
<circle cx="663.5" cy="763.2" r="2.6" fill="#1f3a5f"/>
<circle cx="690.9" cy="712.1" r="2.6" fill="#1f3a5f"/>
<circle cx="690.9" cy="738.4" r="2.6" fill="#1f3a5f"/>
<circle cx="690.9" cy="763.0" r="2.6" fill="#1f3a5f"/>
<circle cx="718.4" cy="670.0" r="2.6" fill="#1f3a5f"/>
<circle cx="718.4" cy="712.9" r="2.6" fill="#1f3a5f"/>
<circle cx="718.4" cy="722.6" r="2.6" fill="#1f3a5f"/>
<circle cx="745.8" cy="723.4" r="2.6" fill="#1f3a5f"/>
<circle cx="745.8" cy="713.1" r="2.6" fill="#1f3a5f"/>
<circle cx="745.8" cy="678.5" r="2.6" fill="#1f3a5f"/>
<circle cx="773.3" cy="747.3" r="2.6" fill="#1f3a5f"/>
<circle cx="773.3" cy="736.9" r="2.6" fill="#1f3a5f"/>
<circle cx="773.3" cy="778.1" r="2.6" fill="#1f3a5f"/>
<line x1="622.3" y1="670" x2="622.3" y2="830" stroke="#b9461a" stroke-dasharray="3 3"/>
<line x1="485" y1="830" x2="787" y2="830" stroke="#444"/>
<line x1="485" y1="670" x2="485" y2="830" stroke="#444"/>
<line x1="498.7" y1="830" x2="498.7" y2="833" stroke="#444"/>
<text x="498.7" y="845" text-anchor="middle" fill="#444">-5</text>
<line x1="526.2" y1="830" x2="526.2" y2="833" stroke="#444"/>
<text x="526.2" y="845" text-anchor="middle" fill="#444">-4</text>
<line x1="553.6" y1="830" x2="553.6" y2="833" stroke="#444"/>
<text x="553.6" y="845" text-anchor="middle" fill="#444">-3</text>
<line x1="581.1" y1="830" x2="581.1" y2="833" stroke="#444"/>
<text x="581.1" y="845" text-anchor="middle" fill="#444">-2</text>
<line x1="636.0" y1="830" x2="636.0" y2="833" stroke="#444"/>
<text x="636.0" y="845" text-anchor="middle" fill="#444">0</text>
<line x1="663.5" y1="830" x2="663.5" y2="833" stroke="#444"/>
<text x="663.5" y="845" text-anchor="middle" fill="#444">1</text>
<line x1="690.9" y1="830" x2="690.9" y2="833" stroke="#444"/>
<text x="690.9" y="845" text-anchor="middle" fill="#444">2</text>
<line x1="718.4" y1="830" x2="718.4" y2="833" stroke="#444"/>
<text x="718.4" y="845" text-anchor="middle" fill="#444">3</text>
<line x1="745.8" y1="830" x2="745.8" y2="833" stroke="#444"/>
<text x="745.8" y="845" text-anchor="middle" fill="#444">4</text>
<line x1="773.3" y1="830" x2="773.3" y2="833" stroke="#444"/>
<text x="773.3" y="845" text-anchor="middle" fill="#444">5</text>
<line x1="482" y1="830.0" x2="485" y2="830.0" stroke="#444"/>
<text x="479" y="833.0" text-anchor="end" fill="#444">-65</text>
<line x1="482" y1="790.0" x2="485" y2="790.0" stroke="#444"/>
<text x="479" y="793.0" text-anchor="end" fill="#444">-31</text>
<line x1="482" y1="750.0" x2="485" y2="750.0" stroke="#444"/>
<text x="479" y="753.0" text-anchor="end" fill="#444">2.6</text>
<line x1="482" y1="710.0" x2="485" y2="710.0" stroke="#444"/>
<text x="479" y="713.0" text-anchor="end" fill="#444">36</text>
<line x1="482" y1="670.0" x2="485" y2="670.0" stroke="#444"/>
<text x="479" y="673.0" text-anchor="end" fill="#444">70</text>
<text x="636.0" y="864" text-anchor="middle" fill="#444">Event time (years from adoption)</text>
<text x="437" y="750.0" text-anchor="middle" fill="#444" transform="rotate(-90 437 750.0)">ATT (per 100k)</text>
<text x="805" y="608" text-anchor="end" fill="#888" font-size="10">Shaded band: pointwise 95% CI from cluster bootstrap. Vertical dashed line marks the year before adoption.</text>
</svg>