<svg xmlns="http://www.w3.org/2000/svg" viewBox="0 0 820 620" font-family="-apple-system, Segoe UI, Helvetica, Arial, sans-serif" font-size="11">
<text x="410.0" y="22" text-anchor="middle" font-size="14" font-weight="600">Callaway-Sant'Anna ATT by event time (RA) -- assault weapons ban (assault)</text>
<rect x="15" y="40" width="380" height="260" fill="#fafaf7" stroke="#e2e2dc"/>
<text x="205.0" y="58" text-anchor="middle" font-weight="600">Firearm suicide rate (per 100k)</text>
<line x1="75" y1="126.04744523649461" x2="377" y2="126.04744523649461" stroke="#aaaaaa" stroke-width="0.7"/>
<polygon points="88.7,127.0 116.2,93.4 143.6,175.8 171.1,162.2 226.0,90.0 253.5,90.5 280.9,209.6 308.4,248.8 335.8,207.1 363.3,245.0 363.3,245.0 335.8,207.1 308.4,248.8 280.9,209.6 253.5,90.5 226.0,135.9 171.1,240.1 143.6,250.0 116.2,154.0 88.7,178.9" fill="#1f3a5f" opacity="0.18"/>
<polyline points="88.7,153.0 116.2,123.7 143.6,212.9 171.1,201.1 226.0,112.9 253.5,90.5 280.9,209.6 308.4,248.8 335.8,207.1 363.3,245.0" fill="none" stroke="#1f3a5f" stroke-width="1.6"/>
<circle cx="88.7" cy="153.0" r="2.6" fill="#1f3a5f"/>
<circle cx="116.2" cy="123.7" r="2.6" fill="#1f3a5f"/>
<circle cx="143.6" cy="212.9" r="2.6" fill="#1f3a5f"/>
<circle cx="171.1" cy="201.1" r="2.6" fill="#1f3a5f"/>
<circle cx="226.0" cy="112.9" r="2.6" fill="#1f3a5f"/>
<circle cx="253.5" cy="90.5" r="2.6" fill="#1f3a5f"/>
<circle cx="280.9" cy="209.6" r="2.6" fill="#1f3a5f"/>
<circle cx="308.4" cy="248.8" r="2.6" fill="#1f3a5f"/>
<circle cx="335.8" cy="207.1" r="2.6" fill="#1f3a5f"/>
<circle cx="363.3" cy="245.0" r="2.6" fill="#1f3a5f"/>
<line x1="212.3" y1="90" x2="212.3" y2="250" stroke="#b9461a" stroke-dasharray="3 3"/>
<line x1="75" y1="250" x2="377" y2="250" stroke="#444"/>
<line x1="75" y1="90" x2="75" y2="250" stroke="#444"/>
<line x1="88.7" y1="250" x2="88.7" y2="253" stroke="#444"/>
<text x="88.7" y="265" text-anchor="middle" fill="#444">-5</text>
<line x1="116.2" y1="250" x2="116.2" y2="253" stroke="#444"/>
<text x="116.2" y="265" text-anchor="middle" fill="#444">-4</text>
<line x1="143.6" y1="250" x2="143.6" y2="253" stroke="#444"/>
<text x="143.6" y="265" text-anchor="middle" fill="#444">-3</text>
<line x1="171.1" y1="250" x2="171.1" y2="253" stroke="#444"/>
<text x="171.1" y="265" text-anchor="middle" fill="#444">-2</text>
<line x1="226.0" y1="250" x2="226.0" y2="253" stroke="#444"/>
<text x="226.0" y="265" text-anchor="middle" fill="#444">0</text>
<line x1="253.5" y1="250" x2="253.5" y2="253" stroke="#444"/>
<text x="253.5" y="265" text-anchor="middle" fill="#444">1</text>
<line x1="280.9" y1="250" x2="280.9" y2="253" stroke="#444"/>
<text x="280.9" y="265" text-anchor="middle" fill="#444">2</text>
<line x1="308.4" y1="250" x2="308.4" y2="253" stroke="#444"/>
<text x="308.4" y="265" text-anchor="middle" fill="#444">3</text>
<line x1="335.8" y1="250" x2="335.8" y2="253" stroke="#444"/>
<text x="335.8" y="265" text-anchor="middle" fill="#444">4</text>
<line x1="363.3" y1="250" x2="363.3" y2="253" stroke="#444"/>
<text x="363.3" y="265" text-anchor="middle" fill="#444">5</text>
<line x1="72" y1="250.0" x2="75" y2="250.0" stroke="#444"/>
<text x="69" y="253.0" text-anchor="end" fill="#444">-1.1</text>
<line x1="72" y1="210.0" x2="75" y2="210.0" stroke="#444"/>
<text x="69" y="213.0" text-anchor="end" fill="#444">-0.72</text>
<line x1="72" y1="170.0" x2="75" y2="170.0" stroke="#444"/>
<text x="69" y="173.0" text-anchor="end" fill="#444">-0.38</text>
<line x1="72" y1="130.0" x2="75" y2="130.0" stroke="#444"/>
<text x="69" y="133.0" text-anchor="end" fill="#444">-0.034</text>
<line x1="72" y1="90.0" x2="75" y2="90.0" stroke="#444"/>
<text x="69" y="93.0" text-anchor="end" fill="#444">0.31</text>
<text x="226.0" y="284" text-anchor="middle" fill="#444">Event time (years from adoption)</text>
<text x="27" y="170.0" text-anchor="middle" fill="#444" transform="rotate(-90 27 170.0)">ATT (per 100k)</text>
<rect x="425" y="40" width="380" height="260" fill="#fafaf7" stroke="#e2e2dc"/>
<text x="615.0" y="58" text-anchor="middle" font-weight="600">Non-firearm suicide rate (per 100k) [substitution test]</text>
<line x1="485" y1="197.93198334676103" x2="787" y2="197.93198334676103" stroke="#aaaaaa" stroke-width="0.7"/>
<polygon points="498.7,136.2 526.2,170.3 553.6,124.1 581.1,90.0 636.0,155.5 663.5,100.4 690.9,250.0 718.4,226.6 745.8,221.3 773.3,133.8 773.3,133.8 745.8,221.3 718.4,226.6 690.9,250.0 663.5,100.4 636.0,187.0 581.1,148.1 553.6,171.9 526.2,207.6 498.7,196.4" fill="#1f3a5f" opacity="0.18"/>
<polyline points="498.7,166.3 526.2,189.0 553.6,148.0 581.1,119.0 636.0,171.2 663.5,100.4 690.9,250.0 718.4,226.6 745.8,221.3 773.3,133.8" fill="none" stroke="#1f3a5f" stroke-width="1.6"/>
<circle cx="498.7" cy="166.3" r="2.6" fill="#1f3a5f"/>
<circle cx="526.2" cy="189.0" r="2.6" fill="#1f3a5f"/>
<circle cx="553.6" cy="148.0" r="2.6" fill="#1f3a5f"/>
<circle cx="581.1" cy="119.0" r="2.6" fill="#1f3a5f"/>
<circle cx="636.0" cy="171.2" r="2.6" fill="#1f3a5f"/>
<circle cx="663.5" cy="100.4" r="2.6" fill="#1f3a5f"/>
<circle cx="690.9" cy="250.0" r="2.6" fill="#1f3a5f"/>
<circle cx="718.4" cy="226.6" r="2.6" fill="#1f3a5f"/>
<circle cx="745.8" cy="221.3" r="2.6" fill="#1f3a5f"/>
<circle cx="773.3" cy="133.8" r="2.6" fill="#1f3a5f"/>
<line x1="622.3" y1="90" x2="622.3" y2="250" stroke="#b9461a" stroke-dasharray="3 3"/>
<line x1="485" y1="250" x2="787" y2="250" stroke="#444"/>
<line x1="485" y1="90" x2="485" y2="250" stroke="#444"/>
<line x1="498.7" y1="250" x2="498.7" y2="253" stroke="#444"/>
<text x="498.7" y="265" text-anchor="middle" fill="#444">-5</text>
<line x1="526.2" y1="250" x2="526.2" y2="253" stroke="#444"/>
<text x="526.2" y="265" text-anchor="middle" fill="#444">-4</text>
<line x1="553.6" y1="250" x2="553.6" y2="253" stroke="#444"/>
<text x="553.6" y="265" text-anchor="middle" fill="#444">-3</text>
<line x1="581.1" y1="250" x2="581.1" y2="253" stroke="#444"/>
<text x="581.1" y="265" text-anchor="middle" fill="#444">-2</text>
<line x1="636.0" y1="250" x2="636.0" y2="253" stroke="#444"/>
<text x="636.0" y="265" text-anchor="middle" fill="#444">0</text>
<line x1="663.5" y1="250" x2="663.5" y2="253" stroke="#444"/>
<text x="663.5" y="265" text-anchor="middle" fill="#444">1</text>
<line x1="690.9" y1="250" x2="690.9" y2="253" stroke="#444"/>
<text x="690.9" y="265" text-anchor="middle" fill="#444">2</text>
<line x1="718.4" y1="250" x2="718.4" y2="253" stroke="#444"/>
<text x="718.4" y="265" text-anchor="middle" fill="#444">3</text>
<line x1="745.8" y1="250" x2="745.8" y2="253" stroke="#444"/>
<text x="745.8" y="265" text-anchor="middle" fill="#444">4</text>
<line x1="773.3" y1="250" x2="773.3" y2="253" stroke="#444"/>
<text x="773.3" y="265" text-anchor="middle" fill="#444">5</text>
<line x1="482" y1="250.0" x2="485" y2="250.0" stroke="#444"/>
<text x="479" y="253.0" text-anchor="end" fill="#444">-0.42</text>
<line x1="482" y1="210.0" x2="485" y2="210.0" stroke="#444"/>
<text x="479" y="213.0" text-anchor="end" fill="#444">-0.098</text>
<line x1="482" y1="170.0" x2="485" y2="170.0" stroke="#444"/>
<text x="479" y="173.0" text-anchor="end" fill="#444">0.23</text>
<line x1="482" y1="130.0" x2="485" y2="130.0" stroke="#444"/>
<text x="479" y="133.0" text-anchor="end" fill="#444">0.55</text>
<line x1="482" y1="90.0" x2="485" y2="90.0" stroke="#444"/>
<text x="479" y="93.0" text-anchor="end" fill="#444">0.88</text>
<text x="636.0" y="284" text-anchor="middle" fill="#444">Event time (years from adoption)</text>
<text x="437" y="170.0" text-anchor="middle" fill="#444" transform="rotate(-90 437 170.0)">ATT (per 100k)</text>
<rect x="15" y="330" width="380" height="260" fill="#fafaf7" stroke="#e2e2dc"/>
<text x="205.0" y="348" text-anchor="middle" font-weight="600">Total suicide rate (per 100k) [net effect]</text>
<line x1="75" y1="453.6590834075663" x2="377" y2="453.6590834075663" stroke="#aaaaaa" stroke-width="0.7"/>
<polygon points="88.7,428.6 116.2,423.5 143.6,447.5 171.1,429.0 226.0,416.5 253.5,380.0 280.9,530.2 308.4,540.0 335.8,513.1 363.3,487.2 363.3,487.2 335.8,513.1 308.4,540.0 280.9,530.2 253.5,380.0 226.0,446.6 171.1,478.8 143.6,505.4 116.2,471.4 88.7,475.2" fill="#1f3a5f" opacity="0.18"/>
<polyline points="88.7,451.9 116.2,447.4 143.6,476.4 171.1,453.9 226.0,431.5 253.5,380.0 280.9,530.2 308.4,540.0 335.8,513.1 363.3,487.2" fill="none" stroke="#1f3a5f" stroke-width="1.6"/>
<circle cx="88.7" cy="451.9" r="2.6" fill="#1f3a5f"/>
<circle cx="116.2" cy="447.4" r="2.6" fill="#1f3a5f"/>
<circle cx="143.6" cy="476.4" r="2.6" fill="#1f3a5f"/>
<circle cx="171.1" cy="453.9" r="2.6" fill="#1f3a5f"/>
<circle cx="226.0" cy="431.5" r="2.6" fill="#1f3a5f"/>
<circle cx="253.5" cy="380.0" r="2.6" fill="#1f3a5f"/>
<circle cx="280.9" cy="530.2" r="2.6" fill="#1f3a5f"/>
<circle cx="308.4" cy="540.0" r="2.6" fill="#1f3a5f"/>
<circle cx="335.8" cy="513.1" r="2.6" fill="#1f3a5f"/>
<circle cx="363.3" cy="487.2" r="2.6" fill="#1f3a5f"/>
<line x1="212.3" y1="380" x2="212.3" y2="540" stroke="#b9461a" stroke-dasharray="3 3"/>
<line x1="75" y1="540" x2="377" y2="540" stroke="#444"/>
<line x1="75" y1="380" x2="75" y2="540" stroke="#444"/>
<line x1="88.7" y1="540" x2="88.7" y2="543" stroke="#444"/>
<text x="88.7" y="555" text-anchor="middle" fill="#444">-5</text>
<line x1="116.2" y1="540" x2="116.2" y2="543" stroke="#444"/>
<text x="116.2" y="555" text-anchor="middle" fill="#444">-4</text>
<line x1="143.6" y1="540" x2="143.6" y2="543" stroke="#444"/>
<text x="143.6" y="555" text-anchor="middle" fill="#444">-3</text>
<line x1="171.1" y1="540" x2="171.1" y2="543" stroke="#444"/>
<text x="171.1" y="555" text-anchor="middle" fill="#444">-2</text>
<line x1="226.0" y1="540" x2="226.0" y2="543" stroke="#444"/>
<text x="226.0" y="555" text-anchor="middle" fill="#444">0</text>
<line x1="253.5" y1="540" x2="253.5" y2="543" stroke="#444"/>
<text x="253.5" y="555" text-anchor="middle" fill="#444">1</text>
<line x1="280.9" y1="540" x2="280.9" y2="543" stroke="#444"/>
<text x="280.9" y="555" text-anchor="middle" fill="#444">2</text>
<line x1="308.4" y1="540" x2="308.4" y2="543" stroke="#444"/>
<text x="308.4" y="555" text-anchor="middle" fill="#444">3</text>
<line x1="335.8" y1="540" x2="335.8" y2="543" stroke="#444"/>
<text x="335.8" y="555" text-anchor="middle" fill="#444">4</text>
<line x1="363.3" y1="540" x2="363.3" y2="543" stroke="#444"/>
<text x="363.3" y="555" text-anchor="middle" fill="#444">5</text>
<line x1="72" y1="540.0" x2="75" y2="540.0" stroke="#444"/>
<text x="69" y="543.0" text-anchor="end" fill="#444">-1.3</text>
<line x1="72" y1="500.0" x2="75" y2="500.0" stroke="#444"/>
<text x="69" y="503.0" text-anchor="end" fill="#444">-0.69</text>
<line x1="72" y1="460.0" x2="75" y2="460.0" stroke="#444"/>
<text x="69" y="463.0" text-anchor="end" fill="#444">-0.095</text>
<line x1="72" y1="420.0" x2="75" y2="420.0" stroke="#444"/>
<text x="69" y="423.0" text-anchor="end" fill="#444">0.5</text>
<line x1="72" y1="380.0" x2="75" y2="380.0" stroke="#444"/>
<text x="69" y="383.0" text-anchor="end" fill="#444">1.1</text>
<text x="226.0" y="574" text-anchor="middle" fill="#444">Event time (years from adoption)</text>
<text x="27" y="460.0" text-anchor="middle" fill="#444" transform="rotate(-90 27 460.0)">ATT (per 100k)</text>
<rect x="425" y="330" width="380" height="260" fill="#fafaf7" stroke="#e2e2dc"/>
<text x="615.0" y="348" text-anchor="middle" font-weight="600">Firearm homicide rate (per 100k)</text>
<line x1="485" y1="452.6507167644949" x2="787" y2="452.6507167644949" stroke="#aaaaaa" stroke-width="0.7"/>
<polygon points="498.7,449.6 526.2,476.1 553.6,455.5 581.1,425.6 636.0,476.8 663.5,540.0 690.9,381.1 718.4,395.7 745.8,380.0 773.3,390.7 773.3,390.7 745.8,380.0 718.4,395.7 690.9,381.1 663.5,540.0 636.0,493.0 581.1,453.5 553.6,485.8 526.2,496.2 498.7,470.1" fill="#1f3a5f" opacity="0.18"/>
<polyline points="498.7,459.8 526.2,486.1 553.6,470.6 581.1,439.5 636.0,484.9 663.5,540.0 690.9,381.1 718.4,395.7 745.8,380.0 773.3,390.7" fill="none" stroke="#1f3a5f" stroke-width="1.6"/>
<circle cx="498.7" cy="459.8" r="2.6" fill="#1f3a5f"/>
<circle cx="526.2" cy="486.1" r="2.6" fill="#1f3a5f"/>
<circle cx="553.6" cy="470.6" r="2.6" fill="#1f3a5f"/>
<circle cx="581.1" cy="439.5" r="2.6" fill="#1f3a5f"/>
<circle cx="636.0" cy="484.9" r="2.6" fill="#1f3a5f"/>
<circle cx="663.5" cy="540.0" r="2.6" fill="#1f3a5f"/>
<circle cx="690.9" cy="381.1" r="2.6" fill="#1f3a5f"/>
<circle cx="718.4" cy="395.7" r="2.6" fill="#1f3a5f"/>
<circle cx="745.8" cy="380.0" r="2.6" fill="#1f3a5f"/>
<circle cx="773.3" cy="390.7" r="2.6" fill="#1f3a5f"/>
<line x1="622.3" y1="380" x2="622.3" y2="540" stroke="#b9461a" stroke-dasharray="3 3"/>
<line x1="485" y1="540" x2="787" y2="540" stroke="#444"/>
<line x1="485" y1="380" x2="485" y2="540" stroke="#444"/>
<line x1="498.7" y1="540" x2="498.7" y2="543" stroke="#444"/>
<text x="498.7" y="555" text-anchor="middle" fill="#444">-5</text>
<line x1="526.2" y1="540" x2="526.2" y2="543" stroke="#444"/>
<text x="526.2" y="555" text-anchor="middle" fill="#444">-4</text>
<line x1="553.6" y1="540" x2="553.6" y2="543" stroke="#444"/>
<text x="553.6" y="555" text-anchor="middle" fill="#444">-3</text>
<line x1="581.1" y1="540" x2="581.1" y2="543" stroke="#444"/>
<text x="581.1" y="555" text-anchor="middle" fill="#444">-2</text>
<line x1="636.0" y1="540" x2="636.0" y2="543" stroke="#444"/>
<text x="636.0" y="555" text-anchor="middle" fill="#444">0</text>
<line x1="663.5" y1="540" x2="663.5" y2="543" stroke="#444"/>
<text x="663.5" y="555" text-anchor="middle" fill="#444">1</text>
<line x1="690.9" y1="540" x2="690.9" y2="543" stroke="#444"/>
<text x="690.9" y="555" text-anchor="middle" fill="#444">2</text>
<line x1="718.4" y1="540" x2="718.4" y2="543" stroke="#444"/>
<text x="718.4" y="555" text-anchor="middle" fill="#444">3</text>
<line x1="745.8" y1="540" x2="745.8" y2="543" stroke="#444"/>
<text x="745.8" y="555" text-anchor="middle" fill="#444">4</text>
<line x1="773.3" y1="540" x2="773.3" y2="543" stroke="#444"/>
<text x="773.3" y="555" text-anchor="middle" fill="#444">5</text>
<line x1="482" y1="540.0" x2="485" y2="540.0" stroke="#444"/>
<text x="479" y="543.0" text-anchor="end" fill="#444">-2.1</text>
<line x1="482" y1="500.0" x2="485" y2="500.0" stroke="#444"/>
<text x="479" y="503.0" text-anchor="end" fill="#444">-1.2</text>
<line x1="482" y1="460.0" x2="485" y2="460.0" stroke="#444"/>
<text x="479" y="463.0" text-anchor="end" fill="#444">-0.18</text>
<line x1="482" y1="420.0" x2="485" y2="420.0" stroke="#444"/>
<text x="479" y="423.0" text-anchor="end" fill="#444">0.8</text>
<line x1="482" y1="380.0" x2="485" y2="380.0" stroke="#444"/>
<text x="479" y="383.0" text-anchor="end" fill="#444">1.8</text>
<text x="636.0" y="574" text-anchor="middle" fill="#444">Event time (years from adoption)</text>
<text x="437" y="460.0" text-anchor="middle" fill="#444" transform="rotate(-90 437 460.0)">ATT (per 100k)</text>
<rect x="15" y="620" width="380" height="260" fill="#fafaf7" stroke="#e2e2dc"/>
<text x="205.0" y="638" text-anchor="middle" font-weight="600">Total homicide rate (per 100k)</text>
<line x1="75" y1="740.7507899213523" x2="377" y2="740.7507899213523" stroke="#aaaaaa" stroke-width="0.7"/>
<polygon points="88.7,735.9 116.2,742.9 143.6,734.1 171.1,737.1 226.0,778.0 253.5,830.0 280.9,675.0 308.4,682.9 335.8,670.0 363.3,696.3 363.3,696.3 335.8,670.0 308.4,682.9 280.9,675.0 253.5,830.0 226.0,792.0 171.1,760.7 143.6,766.0 116.2,767.2 88.7,759.7" fill="#1f3a5f" opacity="0.18"/>
<polyline points="88.7,747.8 116.2,755.1 143.6,750.0 171.1,748.9 226.0,785.0 253.5,830.0 280.9,675.0 308.4,682.9 335.8,670.0 363.3,696.3" fill="none" stroke="#1f3a5f" stroke-width="1.6"/>
<circle cx="88.7" cy="747.8" r="2.6" fill="#1f3a5f"/>
<circle cx="116.2" cy="755.1" r="2.6" fill="#1f3a5f"/>
<circle cx="143.6" cy="750.0" r="2.6" fill="#1f3a5f"/>
<circle cx="171.1" cy="748.9" r="2.6" fill="#1f3a5f"/>
<circle cx="226.0" cy="785.0" r="2.6" fill="#1f3a5f"/>
<circle cx="253.5" cy="830.0" r="2.6" fill="#1f3a5f"/>
<circle cx="280.9" cy="675.0" r="2.6" fill="#1f3a5f"/>
<circle cx="308.4" cy="682.9" r="2.6" fill="#1f3a5f"/>
<circle cx="335.8" cy="670.0" r="2.6" fill="#1f3a5f"/>
<circle cx="363.3" cy="696.3" r="2.6" fill="#1f3a5f"/>
<line x1="212.3" y1="670" x2="212.3" y2="830" stroke="#b9461a" stroke-dasharray="3 3"/>
<line x1="75" y1="830" x2="377" y2="830" stroke="#444"/>
<line x1="75" y1="670" x2="75" y2="830" stroke="#444"/>
<line x1="88.7" y1="830" x2="88.7" y2="833" stroke="#444"/>
<text x="88.7" y="845" text-anchor="middle" fill="#444">-5</text>
<line x1="116.2" y1="830" x2="116.2" y2="833" stroke="#444"/>
<text x="116.2" y="845" text-anchor="middle" fill="#444">-4</text>
<line x1="143.6" y1="830" x2="143.6" y2="833" stroke="#444"/>
<text x="143.6" y="845" text-anchor="middle" fill="#444">-3</text>
<line x1="171.1" y1="830" x2="171.1" y2="833" stroke="#444"/>
<text x="171.1" y="845" text-anchor="middle" fill="#444">-2</text>
<line x1="226.0" y1="830" x2="226.0" y2="833" stroke="#444"/>
<text x="226.0" y="845" text-anchor="middle" fill="#444">0</text>
<line x1="253.5" y1="830" x2="253.5" y2="833" stroke="#444"/>
<text x="253.5" y="845" text-anchor="middle" fill="#444">1</text>
<line x1="280.9" y1="830" x2="280.9" y2="833" stroke="#444"/>
<text x="280.9" y="845" text-anchor="middle" fill="#444">2</text>
<line x1="308.4" y1="830" x2="308.4" y2="833" stroke="#444"/>
<text x="308.4" y="845" text-anchor="middle" fill="#444">3</text>
<line x1="335.8" y1="830" x2="335.8" y2="833" stroke="#444"/>
<text x="335.8" y="845" text-anchor="middle" fill="#444">4</text>
<line x1="363.3" y1="830" x2="363.3" y2="833" stroke="#444"/>
<text x="363.3" y="845" text-anchor="middle" fill="#444">5</text>
<line x1="72" y1="830.0" x2="75" y2="830.0" stroke="#444"/>
<text x="69" y="833.0" text-anchor="end" fill="#444">-2.8</text>
<line x1="72" y1="790.0" x2="75" y2="790.0" stroke="#444"/>
<text x="69" y="793.0" text-anchor="end" fill="#444">-1.5</text>
<line x1="72" y1="750.0" x2="75" y2="750.0" stroke="#444"/>
<text x="69" y="753.0" text-anchor="end" fill="#444">-0.29</text>
<line x1="72" y1="710.0" x2="75" y2="710.0" stroke="#444"/>
<text x="69" y="713.0" text-anchor="end" fill="#444">0.95</text>
<line x1="72" y1="670.0" x2="75" y2="670.0" stroke="#444"/>
<text x="69" y="673.0" text-anchor="end" fill="#444">2.2</text>
<text x="226.0" y="864" text-anchor="middle" fill="#444">Event time (years from adoption)</text>
<text x="27" y="750.0" text-anchor="middle" fill="#444" transform="rotate(-90 27 750.0)">ATT (per 100k)</text>
<rect x="425" y="620" width="380" height="260" fill="#fafaf7" stroke="#e2e2dc"/>
<text x="615.0" y="638" text-anchor="middle" font-weight="600">Motor vehicle theft rate (per 100k) [placebo]</text>
<line x1="485" y1="708.6155005302201" x2="787" y2="708.6155005302201" stroke="#aaaaaa" stroke-width="0.7"/>
<polygon points="498.7,687.6 526.2,696.2 553.6,687.4 581.1,730.5 636.0,682.5 663.5,670.0 690.9,726.9 718.4,745.5 745.8,787.2 773.3,830.0 773.3,830.0 745.8,787.2 718.4,745.5 690.9,726.9 663.5,670.0 636.0,735.5 581.1,773.6 553.6,788.5 526.2,811.8 498.7,800.6" fill="#1f3a5f" opacity="0.18"/>
<polyline points="498.7,744.1 526.2,754.0 553.6,737.9 581.1,752.0 636.0,709.0 663.5,670.0 690.9,726.9 718.4,745.5 745.8,787.2 773.3,830.0" fill="none" stroke="#1f3a5f" stroke-width="1.6"/>
<circle cx="498.7" cy="744.1" r="2.6" fill="#1f3a5f"/>
<circle cx="526.2" cy="754.0" r="2.6" fill="#1f3a5f"/>
<circle cx="553.6" cy="737.9" r="2.6" fill="#1f3a5f"/>
<circle cx="581.1" cy="752.0" r="2.6" fill="#1f3a5f"/>
<circle cx="636.0" cy="709.0" r="2.6" fill="#1f3a5f"/>
<circle cx="663.5" cy="670.0" r="2.6" fill="#1f3a5f"/>
<circle cx="690.9" cy="726.9" r="2.6" fill="#1f3a5f"/>
<circle cx="718.4" cy="745.5" r="2.6" fill="#1f3a5f"/>
<circle cx="745.8" cy="787.2" r="2.6" fill="#1f3a5f"/>
<circle cx="773.3" cy="830.0" r="2.6" fill="#1f3a5f"/>
<line x1="622.3" y1="670" x2="622.3" y2="830" stroke="#b9461a" stroke-dasharray="3 3"/>
<line x1="485" y1="830" x2="787" y2="830" stroke="#444"/>
<line x1="485" y1="670" x2="485" y2="830" stroke="#444"/>
<line x1="498.7" y1="830" x2="498.7" y2="833" stroke="#444"/>
<text x="498.7" y="845" text-anchor="middle" fill="#444">-5</text>
<line x1="526.2" y1="830" x2="526.2" y2="833" stroke="#444"/>
<text x="526.2" y="845" text-anchor="middle" fill="#444">-4</text>
<line x1="553.6" y1="830" x2="553.6" y2="833" stroke="#444"/>
<text x="553.6" y="845" text-anchor="middle" fill="#444">-3</text>
<line x1="581.1" y1="830" x2="581.1" y2="833" stroke="#444"/>
<text x="581.1" y="845" text-anchor="middle" fill="#444">-2</text>
<line x1="636.0" y1="830" x2="636.0" y2="833" stroke="#444"/>
<text x="636.0" y="845" text-anchor="middle" fill="#444">0</text>
<line x1="663.5" y1="830" x2="663.5" y2="833" stroke="#444"/>
<text x="663.5" y="845" text-anchor="middle" fill="#444">1</text>
<line x1="690.9" y1="830" x2="690.9" y2="833" stroke="#444"/>
<text x="690.9" y="845" text-anchor="middle" fill="#444">2</text>
<line x1="718.4" y1="830" x2="718.4" y2="833" stroke="#444"/>
<text x="718.4" y="845" text-anchor="middle" fill="#444">3</text>
<line x1="745.8" y1="830" x2="745.8" y2="833" stroke="#444"/>
<text x="745.8" y="845" text-anchor="middle" fill="#444">4</text>
<line x1="773.3" y1="830" x2="773.3" y2="833" stroke="#444"/>
<text x="773.3" y="845" text-anchor="middle" fill="#444">5</text>
<line x1="482" y1="830.0" x2="485" y2="830.0" stroke="#444"/>
<text x="479" y="833.0" text-anchor="end" fill="#444">-85</text>
<line x1="482" y1="790.0" x2="485" y2="790.0" stroke="#444"/>
<text x="479" y="793.0" text-anchor="end" fill="#444">-57</text>
<line x1="482" y1="750.0" x2="485" y2="750.0" stroke="#444"/>
<text x="479" y="753.0" text-anchor="end" fill="#444">-29</text>
<line x1="482" y1="710.0" x2="485" y2="710.0" stroke="#444"/>
<text x="479" y="713.0" text-anchor="end" fill="#444">-0.97</text>
<line x1="482" y1="670.0" x2="485" y2="670.0" stroke="#444"/>
<text x="479" y="673.0" text-anchor="end" fill="#444">27</text>
<text x="636.0" y="864" text-anchor="middle" fill="#444">Event time (years from adoption)</text>
<text x="437" y="750.0" text-anchor="middle" fill="#444" transform="rotate(-90 437 750.0)">ATT (per 100k)</text>
<text x="805" y="608" text-anchor="end" fill="#888" font-size="10">Shaded band: pointwise 95% CI from cluster bootstrap. Vertical dashed line marks the year before adoption.</text>
</svg>