<svg xmlns="http://www.w3.org/2000/svg" viewBox="0 0 820 620" font-family="-apple-system, Segoe UI, Helvetica, Arial, sans-serif" font-size="11">
<text x="410.0" y="22" text-anchor="middle" font-size="14" font-weight="600">Callaway-Sant'Anna ATT by event time (RA) -- assault weapons ban (assault)</text>
<rect x="15" y="40" width="380" height="260" fill="#fafaf7" stroke="#e2e2dc"/>
<text x="205.0" y="58" text-anchor="middle" font-weight="600">Firearm suicide rate (per 100k)</text>
<line x1="75" y1="131.47886474641942" x2="377" y2="131.47886474641942" stroke="#aaaaaa" stroke-width="0.7"/>
<polygon points="88.7,154.4 116.2,101.6 143.6,199.2 171.1,172.1 226.0,90.0 253.5,90.9 280.9,213.6 308.4,240.1 335.8,220.2 363.3,245.2 363.3,245.2 335.8,220.2 308.4,240.1 280.9,213.6 253.5,90.9 226.0,123.6 171.1,223.1 143.6,250.0 116.2,149.0 88.7,189.7" fill="#1f3a5f" opacity="0.18"/>
<polyline points="88.7,172.1 116.2,125.3 143.6,224.6 171.1,197.6 226.0,106.8 253.5,90.9 280.9,213.6 308.4,240.1 335.8,220.2 363.3,245.2" fill="none" stroke="#1f3a5f" stroke-width="1.6"/>
<circle cx="88.7" cy="172.1" r="2.6" fill="#1f3a5f"/>
<circle cx="116.2" cy="125.3" r="2.6" fill="#1f3a5f"/>
<circle cx="143.6" cy="224.6" r="2.6" fill="#1f3a5f"/>
<circle cx="171.1" cy="197.6" r="2.6" fill="#1f3a5f"/>
<circle cx="226.0" cy="106.8" r="2.6" fill="#1f3a5f"/>
<circle cx="253.5" cy="90.9" r="2.6" fill="#1f3a5f"/>
<circle cx="280.9" cy="213.6" r="2.6" fill="#1f3a5f"/>
<circle cx="308.4" cy="240.1" r="2.6" fill="#1f3a5f"/>
<circle cx="335.8" cy="220.2" r="2.6" fill="#1f3a5f"/>
<circle cx="363.3" cy="245.2" r="2.6" fill="#1f3a5f"/>
<line x1="212.3" y1="90" x2="212.3" y2="250" stroke="#b9461a" stroke-dasharray="3 3"/>
<line x1="75" y1="250" x2="377" y2="250" stroke="#444"/>
<line x1="75" y1="90" x2="75" y2="250" stroke="#444"/>
<line x1="88.7" y1="250" x2="88.7" y2="253" stroke="#444"/>
<text x="88.7" y="265" text-anchor="middle" fill="#444">-5</text>
<line x1="116.2" y1="250" x2="116.2" y2="253" stroke="#444"/>
<text x="116.2" y="265" text-anchor="middle" fill="#444">-4</text>
<line x1="143.6" y1="250" x2="143.6" y2="253" stroke="#444"/>
<text x="143.6" y="265" text-anchor="middle" fill="#444">-3</text>
<line x1="171.1" y1="250" x2="171.1" y2="253" stroke="#444"/>
<text x="171.1" y="265" text-anchor="middle" fill="#444">-2</text>
<line x1="226.0" y1="250" x2="226.0" y2="253" stroke="#444"/>
<text x="226.0" y="265" text-anchor="middle" fill="#444">0</text>
<line x1="253.5" y1="250" x2="253.5" y2="253" stroke="#444"/>
<text x="253.5" y="265" text-anchor="middle" fill="#444">1</text>
<line x1="280.9" y1="250" x2="280.9" y2="253" stroke="#444"/>
<text x="280.9" y="265" text-anchor="middle" fill="#444">2</text>
<line x1="308.4" y1="250" x2="308.4" y2="253" stroke="#444"/>
<text x="308.4" y="265" text-anchor="middle" fill="#444">3</text>
<line x1="335.8" y1="250" x2="335.8" y2="253" stroke="#444"/>
<text x="335.8" y="265" text-anchor="middle" fill="#444">4</text>
<line x1="363.3" y1="250" x2="363.3" y2="253" stroke="#444"/>
<text x="363.3" y="265" text-anchor="middle" fill="#444">5</text>
<line x1="72" y1="250.0" x2="75" y2="250.0" stroke="#444"/>
<text x="69" y="253.0" text-anchor="end" fill="#444">-0.91</text>
<line x1="72" y1="210.0" x2="75" y2="210.0" stroke="#444"/>
<text x="69" y="213.0" text-anchor="end" fill="#444">-0.6</text>
<line x1="72" y1="170.0" x2="75" y2="170.0" stroke="#444"/>
<text x="69" y="173.0" text-anchor="end" fill="#444">-0.3</text>
<line x1="72" y1="130.0" x2="75" y2="130.0" stroke="#444"/>
<text x="69" y="133.0" text-anchor="end" fill="#444">0.011</text>
<line x1="72" y1="90.0" x2="75" y2="90.0" stroke="#444"/>
<text x="69" y="93.0" text-anchor="end" fill="#444">0.32</text>
<text x="226.0" y="284" text-anchor="middle" fill="#444">Event time (years from adoption)</text>
<text x="27" y="170.0" text-anchor="middle" fill="#444" transform="rotate(-90 27 170.0)">ATT (per 100k)</text>
<rect x="425" y="40" width="380" height="260" fill="#fafaf7" stroke="#e2e2dc"/>
<text x="615.0" y="58" text-anchor="middle" font-weight="600">Non-firearm suicide rate (per 100k) [substitution test]</text>
<line x1="485" y1="168.35630768845257" x2="787" y2="168.35630768845257" stroke="#aaaaaa" stroke-width="0.7"/>
<polygon points="498.7,137.4 526.2,151.7 553.6,126.2 581.1,90.0 636.0,150.8 663.5,97.5 690.9,250.0 718.4,199.1 745.8,207.7 773.3,151.7 773.3,151.7 745.8,207.7 718.4,199.1 690.9,250.0 663.5,97.5 636.0,169.6 581.1,134.4 553.6,155.4 526.2,177.8 498.7,181.5" fill="#1f3a5f" opacity="0.18"/>
<polyline points="498.7,159.4 526.2,164.8 553.6,140.8 581.1,112.2 636.0,160.2 663.5,97.5 690.9,250.0 718.4,199.1 745.8,207.7 773.3,151.7" fill="none" stroke="#1f3a5f" stroke-width="1.6"/>
<circle cx="498.7" cy="159.4" r="2.6" fill="#1f3a5f"/>
<circle cx="526.2" cy="164.8" r="2.6" fill="#1f3a5f"/>
<circle cx="553.6" cy="140.8" r="2.6" fill="#1f3a5f"/>
<circle cx="581.1" cy="112.2" r="2.6" fill="#1f3a5f"/>
<circle cx="636.0" cy="160.2" r="2.6" fill="#1f3a5f"/>
<circle cx="663.5" cy="97.5" r="2.6" fill="#1f3a5f"/>
<circle cx="690.9" cy="250.0" r="2.6" fill="#1f3a5f"/>
<circle cx="718.4" cy="199.1" r="2.6" fill="#1f3a5f"/>
<circle cx="745.8" cy="207.7" r="2.6" fill="#1f3a5f"/>
<circle cx="773.3" cy="151.7" r="2.6" fill="#1f3a5f"/>
<line x1="622.3" y1="90" x2="622.3" y2="250" stroke="#b9461a" stroke-dasharray="3 3"/>
<line x1="485" y1="250" x2="787" y2="250" stroke="#444"/>
<line x1="485" y1="90" x2="485" y2="250" stroke="#444"/>
<line x1="498.7" y1="250" x2="498.7" y2="253" stroke="#444"/>
<text x="498.7" y="265" text-anchor="middle" fill="#444">-5</text>
<line x1="526.2" y1="250" x2="526.2" y2="253" stroke="#444"/>
<text x="526.2" y="265" text-anchor="middle" fill="#444">-4</text>
<line x1="553.6" y1="250" x2="553.6" y2="253" stroke="#444"/>
<text x="553.6" y="265" text-anchor="middle" fill="#444">-3</text>
<line x1="581.1" y1="250" x2="581.1" y2="253" stroke="#444"/>
<text x="581.1" y="265" text-anchor="middle" fill="#444">-2</text>
<line x1="636.0" y1="250" x2="636.0" y2="253" stroke="#444"/>
<text x="636.0" y="265" text-anchor="middle" fill="#444">0</text>
<line x1="663.5" y1="250" x2="663.5" y2="253" stroke="#444"/>
<text x="663.5" y="265" text-anchor="middle" fill="#444">1</text>
<line x1="690.9" y1="250" x2="690.9" y2="253" stroke="#444"/>
<text x="690.9" y="265" text-anchor="middle" fill="#444">2</text>
<line x1="718.4" y1="250" x2="718.4" y2="253" stroke="#444"/>
<text x="718.4" y="265" text-anchor="middle" fill="#444">3</text>
<line x1="745.8" y1="250" x2="745.8" y2="253" stroke="#444"/>
<text x="745.8" y="265" text-anchor="middle" fill="#444">4</text>
<line x1="773.3" y1="250" x2="773.3" y2="253" stroke="#444"/>
<text x="773.3" y="265" text-anchor="middle" fill="#444">5</text>
<line x1="482" y1="250.0" x2="485" y2="250.0" stroke="#444"/>
<text x="479" y="253.0" text-anchor="end" fill="#444">-0.72</text>
<line x1="482" y1="210.0" x2="485" y2="210.0" stroke="#444"/>
<text x="479" y="213.0" text-anchor="end" fill="#444">-0.37</text>
<line x1="482" y1="170.0" x2="485" y2="170.0" stroke="#444"/>
<text x="479" y="173.0" text-anchor="end" fill="#444">-0.014</text>
<line x1="482" y1="130.0" x2="485" y2="130.0" stroke="#444"/>
<text x="479" y="133.0" text-anchor="end" fill="#444">0.34</text>
<line x1="482" y1="90.0" x2="485" y2="90.0" stroke="#444"/>
<text x="479" y="93.0" text-anchor="end" fill="#444">0.69</text>
<text x="636.0" y="284" text-anchor="middle" fill="#444">Event time (years from adoption)</text>
<text x="437" y="170.0" text-anchor="middle" fill="#444" transform="rotate(-90 437 170.0)">ATT (per 100k)</text>
<rect x="15" y="330" width="380" height="260" fill="#fafaf7" stroke="#e2e2dc"/>
<text x="205.0" y="348" text-anchor="middle" font-weight="600">Total suicide rate (per 100k) [net effect]</text>
<line x1="75" y1="445.5103488927539" x2="377" y2="445.5103488927539" stroke="#aaaaaa" stroke-width="0.7"/>
<polygon points="88.7,442.5 116.2,421.6 143.6,459.7 171.1,432.8 226.0,416.0 253.5,380.0 280.9,540.0 308.4,522.9 335.8,517.5 363.3,496.5 363.3,496.5 335.8,517.5 308.4,522.9 280.9,540.0 253.5,380.0 226.0,438.4 171.1,460.1 143.6,497.6 116.2,458.4 88.7,481.2" fill="#1f3a5f" opacity="0.18"/>
<polyline points="88.7,461.9 116.2,440.0 143.6,478.6 171.1,446.5 226.0,427.2 253.5,380.0 280.9,540.0 308.4,522.9 335.8,517.5 363.3,496.5" fill="none" stroke="#1f3a5f" stroke-width="1.6"/>
<circle cx="88.7" cy="461.9" r="2.6" fill="#1f3a5f"/>
<circle cx="116.2" cy="440.0" r="2.6" fill="#1f3a5f"/>
<circle cx="143.6" cy="478.6" r="2.6" fill="#1f3a5f"/>
<circle cx="171.1" cy="446.5" r="2.6" fill="#1f3a5f"/>
<circle cx="226.0" cy="427.2" r="2.6" fill="#1f3a5f"/>
<circle cx="253.5" cy="380.0" r="2.6" fill="#1f3a5f"/>
<circle cx="280.9" cy="540.0" r="2.6" fill="#1f3a5f"/>
<circle cx="308.4" cy="522.9" r="2.6" fill="#1f3a5f"/>
<circle cx="335.8" cy="517.5" r="2.6" fill="#1f3a5f"/>
<circle cx="363.3" cy="496.5" r="2.6" fill="#1f3a5f"/>
<line x1="212.3" y1="380" x2="212.3" y2="540" stroke="#b9461a" stroke-dasharray="3 3"/>
<line x1="75" y1="540" x2="377" y2="540" stroke="#444"/>
<line x1="75" y1="380" x2="75" y2="540" stroke="#444"/>
<line x1="88.7" y1="540" x2="88.7" y2="543" stroke="#444"/>
<text x="88.7" y="555" text-anchor="middle" fill="#444">-5</text>
<line x1="116.2" y1="540" x2="116.2" y2="543" stroke="#444"/>
<text x="116.2" y="555" text-anchor="middle" fill="#444">-4</text>
<line x1="143.6" y1="540" x2="143.6" y2="543" stroke="#444"/>
<text x="143.6" y="555" text-anchor="middle" fill="#444">-3</text>
<line x1="171.1" y1="540" x2="171.1" y2="543" stroke="#444"/>
<text x="171.1" y="555" text-anchor="middle" fill="#444">-2</text>
<line x1="226.0" y1="540" x2="226.0" y2="543" stroke="#444"/>
<text x="226.0" y="555" text-anchor="middle" fill="#444">0</text>
<line x1="253.5" y1="540" x2="253.5" y2="543" stroke="#444"/>
<text x="253.5" y="555" text-anchor="middle" fill="#444">1</text>
<line x1="280.9" y1="540" x2="280.9" y2="543" stroke="#444"/>
<text x="280.9" y="555" text-anchor="middle" fill="#444">2</text>
<line x1="308.4" y1="540" x2="308.4" y2="543" stroke="#444"/>
<text x="308.4" y="555" text-anchor="middle" fill="#444">3</text>
<line x1="335.8" y1="540" x2="335.8" y2="543" stroke="#444"/>
<text x="335.8" y="555" text-anchor="middle" fill="#444">4</text>
<line x1="363.3" y1="540" x2="363.3" y2="543" stroke="#444"/>
<text x="363.3" y="555" text-anchor="middle" fill="#444">5</text>
<line x1="72" y1="540.0" x2="75" y2="540.0" stroke="#444"/>
<text x="69" y="543.0" text-anchor="end" fill="#444">-1.4</text>
<line x1="72" y1="500.0" x2="75" y2="500.0" stroke="#444"/>
<text x="69" y="503.0" text-anchor="end" fill="#444">-0.78</text>
<line x1="72" y1="460.0" x2="75" y2="460.0" stroke="#444"/>
<text x="69" y="463.0" text-anchor="end" fill="#444">-0.21</text>
<line x1="72" y1="420.0" x2="75" y2="420.0" stroke="#444"/>
<text x="69" y="423.0" text-anchor="end" fill="#444">0.36</text>
<line x1="72" y1="380.0" x2="75" y2="380.0" stroke="#444"/>
<text x="69" y="383.0" text-anchor="end" fill="#444">0.94</text>
<text x="226.0" y="574" text-anchor="middle" fill="#444">Event time (years from adoption)</text>
<text x="27" y="460.0" text-anchor="middle" fill="#444" transform="rotate(-90 27 460.0)">ATT (per 100k)</text>
<rect x="425" y="330" width="380" height="260" fill="#fafaf7" stroke="#e2e2dc"/>
<text x="615.0" y="348" text-anchor="middle" font-weight="600">Firearm homicide rate (per 100k)</text>
<line x1="485" y1="462.21946376424273" x2="787" y2="462.21946376424273" stroke="#aaaaaa" stroke-width="0.7"/>
<polygon points="498.7,458.6 526.2,484.8 553.6,468.8 581.1,444.6 636.0,485.3 663.5,540.0 690.9,382.4 718.4,391.0 745.8,380.0 773.3,387.7 773.3,387.7 745.8,380.0 718.4,391.0 690.9,382.4 663.5,540.0 636.0,498.8 581.1,469.7 553.6,495.0 526.2,494.9 498.7,469.8" fill="#1f3a5f" opacity="0.18"/>
<polyline points="498.7,464.2 526.2,489.8 553.6,481.9 581.1,457.1 636.0,492.0 663.5,540.0 690.9,382.4 718.4,391.0 745.8,380.0 773.3,387.7" fill="none" stroke="#1f3a5f" stroke-width="1.6"/>
<circle cx="498.7" cy="464.2" r="2.6" fill="#1f3a5f"/>
<circle cx="526.2" cy="489.8" r="2.6" fill="#1f3a5f"/>
<circle cx="553.6" cy="481.9" r="2.6" fill="#1f3a5f"/>
<circle cx="581.1" cy="457.1" r="2.6" fill="#1f3a5f"/>
<circle cx="636.0" cy="492.0" r="2.6" fill="#1f3a5f"/>
<circle cx="663.5" cy="540.0" r="2.6" fill="#1f3a5f"/>
<circle cx="690.9" cy="382.4" r="2.6" fill="#1f3a5f"/>
<circle cx="718.4" cy="391.0" r="2.6" fill="#1f3a5f"/>
<circle cx="745.8" cy="380.0" r="2.6" fill="#1f3a5f"/>
<circle cx="773.3" cy="387.7" r="2.6" fill="#1f3a5f"/>
<line x1="622.3" y1="380" x2="622.3" y2="540" stroke="#b9461a" stroke-dasharray="3 3"/>
<line x1="485" y1="540" x2="787" y2="540" stroke="#444"/>
<line x1="485" y1="380" x2="485" y2="540" stroke="#444"/>
<line x1="498.7" y1="540" x2="498.7" y2="543" stroke="#444"/>
<text x="498.7" y="555" text-anchor="middle" fill="#444">-5</text>
<line x1="526.2" y1="540" x2="526.2" y2="543" stroke="#444"/>
<text x="526.2" y="555" text-anchor="middle" fill="#444">-4</text>
<line x1="553.6" y1="540" x2="553.6" y2="543" stroke="#444"/>
<text x="553.6" y="555" text-anchor="middle" fill="#444">-3</text>
<line x1="581.1" y1="540" x2="581.1" y2="543" stroke="#444"/>
<text x="581.1" y="555" text-anchor="middle" fill="#444">-2</text>
<line x1="636.0" y1="540" x2="636.0" y2="543" stroke="#444"/>
<text x="636.0" y="555" text-anchor="middle" fill="#444">0</text>
<line x1="663.5" y1="540" x2="663.5" y2="543" stroke="#444"/>
<text x="663.5" y="555" text-anchor="middle" fill="#444">1</text>
<line x1="690.9" y1="540" x2="690.9" y2="543" stroke="#444"/>
<text x="690.9" y="555" text-anchor="middle" fill="#444">2</text>
<line x1="718.4" y1="540" x2="718.4" y2="543" stroke="#444"/>
<text x="718.4" y="555" text-anchor="middle" fill="#444">3</text>
<line x1="745.8" y1="540" x2="745.8" y2="543" stroke="#444"/>
<text x="745.8" y="555" text-anchor="middle" fill="#444">4</text>
<line x1="773.3" y1="540" x2="773.3" y2="543" stroke="#444"/>
<text x="773.3" y="555" text-anchor="middle" fill="#444">5</text>
<line x1="482" y1="540.0" x2="485" y2="540.0" stroke="#444"/>
<text x="479" y="543.0" text-anchor="end" fill="#444">-2.1</text>
<line x1="482" y1="500.0" x2="485" y2="500.0" stroke="#444"/>
<text x="479" y="503.0" text-anchor="end" fill="#444">-1</text>
<line x1="482" y1="460.0" x2="485" y2="460.0" stroke="#444"/>
<text x="479" y="463.0" text-anchor="end" fill="#444">0.059</text>
<line x1="482" y1="420.0" x2="485" y2="420.0" stroke="#444"/>
<text x="479" y="423.0" text-anchor="end" fill="#444">1.1</text>
<line x1="482" y1="380.0" x2="485" y2="380.0" stroke="#444"/>
<text x="479" y="383.0" text-anchor="end" fill="#444">2.2</text>
<text x="636.0" y="574" text-anchor="middle" fill="#444">Event time (years from adoption)</text>
<text x="437" y="460.0" text-anchor="middle" fill="#444" transform="rotate(-90 437 460.0)">ATT (per 100k)</text>
<rect x="15" y="620" width="380" height="260" fill="#fafaf7" stroke="#e2e2dc"/>
<text x="205.0" y="638" text-anchor="middle" font-weight="600">Total homicide rate (per 100k)</text>
<line x1="75" y1="749.6522448017375" x2="377" y2="749.6522448017375" stroke="#aaaaaa" stroke-width="0.7"/>
<polygon points="88.7,751.6 116.2,761.9 143.6,753.7 171.1,754.8 226.0,785.3 253.5,830.0 280.9,677.6 308.4,679.9 335.8,670.0 363.3,694.5 363.3,694.5 335.8,670.0 308.4,679.9 280.9,677.6 253.5,830.0 226.0,795.8 171.1,772.6 143.6,780.8 116.2,781.2 88.7,770.1" fill="#1f3a5f" opacity="0.18"/>
<polyline points="88.7,760.9 116.2,771.5 143.6,767.3 171.1,763.7 226.0,790.6 253.5,830.0 280.9,677.6 308.4,679.9 335.8,670.0 363.3,694.5" fill="none" stroke="#1f3a5f" stroke-width="1.6"/>
<circle cx="88.7" cy="760.9" r="2.6" fill="#1f3a5f"/>
<circle cx="116.2" cy="771.5" r="2.6" fill="#1f3a5f"/>
<circle cx="143.6" cy="767.3" r="2.6" fill="#1f3a5f"/>
<circle cx="171.1" cy="763.7" r="2.6" fill="#1f3a5f"/>
<circle cx="226.0" cy="790.6" r="2.6" fill="#1f3a5f"/>
<circle cx="253.5" cy="830.0" r="2.6" fill="#1f3a5f"/>
<circle cx="280.9" cy="677.6" r="2.6" fill="#1f3a5f"/>
<circle cx="308.4" cy="679.9" r="2.6" fill="#1f3a5f"/>
<circle cx="335.8" cy="670.0" r="2.6" fill="#1f3a5f"/>
<circle cx="363.3" cy="694.5" r="2.6" fill="#1f3a5f"/>
<line x1="212.3" y1="670" x2="212.3" y2="830" stroke="#b9461a" stroke-dasharray="3 3"/>
<line x1="75" y1="830" x2="377" y2="830" stroke="#444"/>
<line x1="75" y1="670" x2="75" y2="830" stroke="#444"/>
<line x1="88.7" y1="830" x2="88.7" y2="833" stroke="#444"/>
<text x="88.7" y="845" text-anchor="middle" fill="#444">-5</text>
<line x1="116.2" y1="830" x2="116.2" y2="833" stroke="#444"/>
<text x="116.2" y="845" text-anchor="middle" fill="#444">-4</text>
<line x1="143.6" y1="830" x2="143.6" y2="833" stroke="#444"/>
<text x="143.6" y="845" text-anchor="middle" fill="#444">-3</text>
<line x1="171.1" y1="830" x2="171.1" y2="833" stroke="#444"/>
<text x="171.1" y="845" text-anchor="middle" fill="#444">-2</text>
<line x1="226.0" y1="830" x2="226.0" y2="833" stroke="#444"/>
<text x="226.0" y="845" text-anchor="middle" fill="#444">0</text>
<line x1="253.5" y1="830" x2="253.5" y2="833" stroke="#444"/>
<text x="253.5" y="845" text-anchor="middle" fill="#444">1</text>
<line x1="280.9" y1="830" x2="280.9" y2="833" stroke="#444"/>
<text x="280.9" y="845" text-anchor="middle" fill="#444">2</text>
<line x1="308.4" y1="830" x2="308.4" y2="833" stroke="#444"/>
<text x="308.4" y="845" text-anchor="middle" fill="#444">3</text>
<line x1="335.8" y1="830" x2="335.8" y2="833" stroke="#444"/>
<text x="335.8" y="845" text-anchor="middle" fill="#444">4</text>
<line x1="363.3" y1="830" x2="363.3" y2="833" stroke="#444"/>
<text x="363.3" y="845" text-anchor="middle" fill="#444">5</text>
<line x1="72" y1="830.0" x2="75" y2="830.0" stroke="#444"/>
<text x="69" y="833.0" text-anchor="end" fill="#444">-2.6</text>
<line x1="72" y1="790.0" x2="75" y2="790.0" stroke="#444"/>
<text x="69" y="793.0" text-anchor="end" fill="#444">-1.3</text>
<line x1="72" y1="750.0" x2="75" y2="750.0" stroke="#444"/>
<text x="69" y="753.0" text-anchor="end" fill="#444">-0.011</text>
<line x1="72" y1="710.0" x2="75" y2="710.0" stroke="#444"/>
<text x="69" y="713.0" text-anchor="end" fill="#444">1.3</text>
<line x1="72" y1="670.0" x2="75" y2="670.0" stroke="#444"/>
<text x="69" y="673.0" text-anchor="end" fill="#444">2.6</text>
<text x="226.0" y="864" text-anchor="middle" fill="#444">Event time (years from adoption)</text>
<text x="27" y="750.0" text-anchor="middle" fill="#444" transform="rotate(-90 27 750.0)">ATT (per 100k)</text>
<rect x="425" y="620" width="380" height="260" fill="#fafaf7" stroke="#e2e2dc"/>
<text x="615.0" y="638" text-anchor="middle" font-weight="600">Motor vehicle theft rate (per 100k) [placebo]</text>
<line x1="485" y1="706.5775709543675" x2="787" y2="706.5775709543675" stroke="#aaaaaa" stroke-width="0.7"/>
<polygon points="498.7,727.8 526.2,735.2 553.6,724.5 581.1,745.5 636.0,696.8 663.5,670.0 690.9,735.8 718.4,747.3 745.8,767.1 773.3,795.4 773.3,795.4 745.8,767.1 718.4,747.3 690.9,735.8 663.5,670.0 636.0,724.6 581.1,785.2 553.6,815.4 526.2,830.0 498.7,809.0" fill="#1f3a5f" opacity="0.18"/>
<polyline points="498.7,768.4 526.2,782.6 553.6,770.0 581.1,765.3 636.0,710.7 663.5,670.0 690.9,735.8 718.4,747.3 745.8,767.1 773.3,795.4" fill="none" stroke="#1f3a5f" stroke-width="1.6"/>
<circle cx="498.7" cy="768.4" r="2.6" fill="#1f3a5f"/>
<circle cx="526.2" cy="782.6" r="2.6" fill="#1f3a5f"/>
<circle cx="553.6" cy="770.0" r="2.6" fill="#1f3a5f"/>
<circle cx="581.1" cy="765.3" r="2.6" fill="#1f3a5f"/>
<circle cx="636.0" cy="710.7" r="2.6" fill="#1f3a5f"/>
<circle cx="663.5" cy="670.0" r="2.6" fill="#1f3a5f"/>
<circle cx="690.9" cy="735.8" r="2.6" fill="#1f3a5f"/>
<circle cx="718.4" cy="747.3" r="2.6" fill="#1f3a5f"/>
<circle cx="745.8" cy="767.1" r="2.6" fill="#1f3a5f"/>
<circle cx="773.3" cy="795.4" r="2.6" fill="#1f3a5f"/>
<line x1="622.3" y1="670" x2="622.3" y2="830" stroke="#b9461a" stroke-dasharray="3 3"/>
<line x1="485" y1="830" x2="787" y2="830" stroke="#444"/>
<line x1="485" y1="670" x2="485" y2="830" stroke="#444"/>
<line x1="498.7" y1="830" x2="498.7" y2="833" stroke="#444"/>
<text x="498.7" y="845" text-anchor="middle" fill="#444">-5</text>
<line x1="526.2" y1="830" x2="526.2" y2="833" stroke="#444"/>
<text x="526.2" y="845" text-anchor="middle" fill="#444">-4</text>
<line x1="553.6" y1="830" x2="553.6" y2="833" stroke="#444"/>
<text x="553.6" y="845" text-anchor="middle" fill="#444">-3</text>
<line x1="581.1" y1="830" x2="581.1" y2="833" stroke="#444"/>
<text x="581.1" y="845" text-anchor="middle" fill="#444">-2</text>
<line x1="636.0" y1="830" x2="636.0" y2="833" stroke="#444"/>
<text x="636.0" y="845" text-anchor="middle" fill="#444">0</text>
<line x1="663.5" y1="830" x2="663.5" y2="833" stroke="#444"/>
<text x="663.5" y="845" text-anchor="middle" fill="#444">1</text>
<line x1="690.9" y1="830" x2="690.9" y2="833" stroke="#444"/>
<text x="690.9" y="845" text-anchor="middle" fill="#444">2</text>
<line x1="718.4" y1="830" x2="718.4" y2="833" stroke="#444"/>
<text x="718.4" y="845" text-anchor="middle" fill="#444">3</text>
<line x1="745.8" y1="830" x2="745.8" y2="833" stroke="#444"/>
<text x="745.8" y="845" text-anchor="middle" fill="#444">4</text>
<line x1="773.3" y1="830" x2="773.3" y2="833" stroke="#444"/>
<text x="773.3" y="845" text-anchor="middle" fill="#444">5</text>
<line x1="482" y1="830.0" x2="485" y2="830.0" stroke="#444"/>
<text x="479" y="833.0" text-anchor="end" fill="#444">-90</text>
<line x1="482" y1="790.0" x2="485" y2="790.0" stroke="#444"/>
<text x="479" y="793.0" text-anchor="end" fill="#444">-61</text>
<line x1="482" y1="750.0" x2="485" y2="750.0" stroke="#444"/>
<text x="479" y="753.0" text-anchor="end" fill="#444">-32</text>
<line x1="482" y1="710.0" x2="485" y2="710.0" stroke="#444"/>
<text x="479" y="713.0" text-anchor="end" fill="#444">-2.5</text>
<line x1="482" y1="670.0" x2="485" y2="670.0" stroke="#444"/>
<text x="479" y="673.0" text-anchor="end" fill="#444">27</text>
<text x="636.0" y="864" text-anchor="middle" fill="#444">Event time (years from adoption)</text>
<text x="437" y="750.0" text-anchor="middle" fill="#444" transform="rotate(-90 437 750.0)">ATT (per 100k)</text>
<text x="805" y="608" text-anchor="end" fill="#888" font-size="10">Shaded band: pointwise 95% CI from cluster bootstrap. Vertical dashed line marks the year before adoption.</text>
</svg>