<svg xmlns="http://www.w3.org/2000/svg" viewBox="0 0 820 620" font-family="-apple-system, Segoe UI, Helvetica, Arial, sans-serif" font-size="11">
<text x="410.0" y="22" text-anchor="middle" font-size="14" font-weight="600">Callaway-Sant'Anna ATT by event time (OR) -- assault weapons ban</text>
<rect x="15" y="40" width="380" height="260" fill="#fafaf7" stroke="#e2e2dc"/>
<text x="205.0" y="58" text-anchor="middle" font-weight="600">Firearm suicide rate (per 100k)</text>
<line x1="75" y1="128.67826338041255" x2="377" y2="128.67826338041255" stroke="#aaaaaa" stroke-width="0.7"/>
<polygon points="88.7,127.1 116.2,90.0 143.6,163.0 171.1,155.7 226.0,119.7 253.5,136.9 280.9,221.1 308.4,229.8 335.8,246.7 363.3,250.0 363.3,250.0 335.8,246.7 308.4,229.8 280.9,221.1 253.5,136.9 226.0,145.1 171.1,194.7 143.6,207.9 116.2,151.7 88.7,158.7" fill="#1f3a5f" opacity="0.18"/>
<polyline points="88.7,142.9 116.2,120.8 143.6,185.4 171.1,175.2 226.0,132.4 253.5,136.9 280.9,221.1 308.4,229.8 335.8,246.7 363.3,250.0" fill="none" stroke="#1f3a5f" stroke-width="1.6"/>
<circle cx="88.7" cy="142.9" r="2.6" fill="#1f3a5f"/>
<circle cx="116.2" cy="120.8" r="2.6" fill="#1f3a5f"/>
<circle cx="143.6" cy="185.4" r="2.6" fill="#1f3a5f"/>
<circle cx="171.1" cy="175.2" r="2.6" fill="#1f3a5f"/>
<circle cx="226.0" cy="132.4" r="2.6" fill="#1f3a5f"/>
<circle cx="253.5" cy="136.9" r="2.6" fill="#1f3a5f"/>
<circle cx="280.9" cy="221.1" r="2.6" fill="#1f3a5f"/>
<circle cx="308.4" cy="229.8" r="2.6" fill="#1f3a5f"/>
<circle cx="335.8" cy="246.7" r="2.6" fill="#1f3a5f"/>
<circle cx="363.3" cy="250.0" r="2.6" fill="#1f3a5f"/>
<line x1="212.3" y1="90" x2="212.3" y2="250" stroke="#b9461a" stroke-dasharray="3 3"/>
<line x1="75" y1="250" x2="377" y2="250" stroke="#444"/>
<line x1="75" y1="90" x2="75" y2="250" stroke="#444"/>
<line x1="88.7" y1="250" x2="88.7" y2="253" stroke="#444"/>
<text x="88.7" y="265" text-anchor="middle" fill="#444">-5</text>
<line x1="116.2" y1="250" x2="116.2" y2="253" stroke="#444"/>
<text x="116.2" y="265" text-anchor="middle" fill="#444">-4</text>
<line x1="143.6" y1="250" x2="143.6" y2="253" stroke="#444"/>
<text x="143.6" y="265" text-anchor="middle" fill="#444">-3</text>
<line x1="171.1" y1="250" x2="171.1" y2="253" stroke="#444"/>
<text x="171.1" y="265" text-anchor="middle" fill="#444">-2</text>
<line x1="226.0" y1="250" x2="226.0" y2="253" stroke="#444"/>
<text x="226.0" y="265" text-anchor="middle" fill="#444">0</text>
<line x1="253.5" y1="250" x2="253.5" y2="253" stroke="#444"/>
<text x="253.5" y="265" text-anchor="middle" fill="#444">1</text>
<line x1="280.9" y1="250" x2="280.9" y2="253" stroke="#444"/>
<text x="280.9" y="265" text-anchor="middle" fill="#444">2</text>
<line x1="308.4" y1="250" x2="308.4" y2="253" stroke="#444"/>
<text x="308.4" y="265" text-anchor="middle" fill="#444">3</text>
<line x1="335.8" y1="250" x2="335.8" y2="253" stroke="#444"/>
<text x="335.8" y="265" text-anchor="middle" fill="#444">4</text>
<line x1="363.3" y1="250" x2="363.3" y2="253" stroke="#444"/>
<text x="363.3" y="265" text-anchor="middle" fill="#444">5</text>
<line x1="72" y1="250.0" x2="75" y2="250.0" stroke="#444"/>
<text x="69" y="253.0" text-anchor="end" fill="#444">-1.4</text>
<line x1="72" y1="210.0" x2="75" y2="210.0" stroke="#444"/>
<text x="69" y="213.0" text-anchor="end" fill="#444">-0.93</text>
<line x1="72" y1="170.0" x2="75" y2="170.0" stroke="#444"/>
<text x="69" y="173.0" text-anchor="end" fill="#444">-0.47</text>
<line x1="72" y1="130.0" x2="75" y2="130.0" stroke="#444"/>
<text x="69" y="133.0" text-anchor="end" fill="#444">-0.015</text>
<line x1="72" y1="90.0" x2="75" y2="90.0" stroke="#444"/>
<text x="69" y="93.0" text-anchor="end" fill="#444">0.44</text>
<text x="226.0" y="284" text-anchor="middle" fill="#444">Event time (years from adoption)</text>
<text x="27" y="170.0" text-anchor="middle" fill="#444" transform="rotate(-90 27 170.0)">ATT (per 100k)</text>
<rect x="425" y="40" width="380" height="260" fill="#fafaf7" stroke="#e2e2dc"/>
<text x="615.0" y="58" text-anchor="middle" font-weight="600">Non-firearm suicide rate (per 100k) [substitution test]</text>
<line x1="485" y1="162.4231762250404" x2="787" y2="162.4231762250404" stroke="#aaaaaa" stroke-width="0.7"/>
<polygon points="498.7,120.4 526.2,142.6 553.6,123.5 581.1,90.0 636.0,139.8 663.5,132.3 690.9,250.0 718.4,194.6 745.8,211.5 773.3,152.2 773.3,152.2 745.8,211.5 718.4,194.6 690.9,250.0 663.5,132.3 636.0,161.9 581.1,167.0 553.6,174.4 526.2,180.8 498.7,183.3" fill="#1f3a5f" opacity="0.18"/>
<polyline points="498.7,151.8 526.2,161.7 553.6,148.9 581.1,128.5 636.0,150.9 663.5,132.3 690.9,250.0 718.4,194.6 745.8,211.5 773.3,152.2" fill="none" stroke="#1f3a5f" stroke-width="1.6"/>
<circle cx="498.7" cy="151.8" r="2.6" fill="#1f3a5f"/>
<circle cx="526.2" cy="161.7" r="2.6" fill="#1f3a5f"/>
<circle cx="553.6" cy="148.9" r="2.6" fill="#1f3a5f"/>
<circle cx="581.1" cy="128.5" r="2.6" fill="#1f3a5f"/>
<circle cx="636.0" cy="150.9" r="2.6" fill="#1f3a5f"/>
<circle cx="663.5" cy="132.3" r="2.6" fill="#1f3a5f"/>
<circle cx="690.9" cy="250.0" r="2.6" fill="#1f3a5f"/>
<circle cx="718.4" cy="194.6" r="2.6" fill="#1f3a5f"/>
<circle cx="745.8" cy="211.5" r="2.6" fill="#1f3a5f"/>
<circle cx="773.3" cy="152.2" r="2.6" fill="#1f3a5f"/>
<line x1="622.3" y1="90" x2="622.3" y2="250" stroke="#b9461a" stroke-dasharray="3 3"/>
<line x1="485" y1="250" x2="787" y2="250" stroke="#444"/>
<line x1="485" y1="90" x2="485" y2="250" stroke="#444"/>
<line x1="498.7" y1="250" x2="498.7" y2="253" stroke="#444"/>
<text x="498.7" y="265" text-anchor="middle" fill="#444">-5</text>
<line x1="526.2" y1="250" x2="526.2" y2="253" stroke="#444"/>
<text x="526.2" y="265" text-anchor="middle" fill="#444">-4</text>
<line x1="553.6" y1="250" x2="553.6" y2="253" stroke="#444"/>
<text x="553.6" y="265" text-anchor="middle" fill="#444">-3</text>
<line x1="581.1" y1="250" x2="581.1" y2="253" stroke="#444"/>
<text x="581.1" y="265" text-anchor="middle" fill="#444">-2</text>
<line x1="636.0" y1="250" x2="636.0" y2="253" stroke="#444"/>
<text x="636.0" y="265" text-anchor="middle" fill="#444">0</text>
<line x1="663.5" y1="250" x2="663.5" y2="253" stroke="#444"/>
<text x="663.5" y="265" text-anchor="middle" fill="#444">1</text>
<line x1="690.9" y1="250" x2="690.9" y2="253" stroke="#444"/>
<text x="690.9" y="265" text-anchor="middle" fill="#444">2</text>
<line x1="718.4" y1="250" x2="718.4" y2="253" stroke="#444"/>
<text x="718.4" y="265" text-anchor="middle" fill="#444">3</text>
<line x1="745.8" y1="250" x2="745.8" y2="253" stroke="#444"/>
<text x="745.8" y="265" text-anchor="middle" fill="#444">4</text>
<line x1="773.3" y1="250" x2="773.3" y2="253" stroke="#444"/>
<text x="773.3" y="265" text-anchor="middle" fill="#444">5</text>
<line x1="482" y1="250.0" x2="485" y2="250.0" stroke="#444"/>
<text x="479" y="253.0" text-anchor="end" fill="#444">-0.85</text>
<line x1="482" y1="210.0" x2="485" y2="210.0" stroke="#444"/>
<text x="479" y="213.0" text-anchor="end" fill="#444">-0.46</text>
<line x1="482" y1="170.0" x2="485" y2="170.0" stroke="#444"/>
<text x="479" y="173.0" text-anchor="end" fill="#444">-0.073</text>
<line x1="482" y1="130.0" x2="485" y2="130.0" stroke="#444"/>
<text x="479" y="133.0" text-anchor="end" fill="#444">0.31</text>
<line x1="482" y1="90.0" x2="485" y2="90.0" stroke="#444"/>
<text x="479" y="93.0" text-anchor="end" fill="#444">0.7</text>
<text x="636.0" y="284" text-anchor="middle" fill="#444">Event time (years from adoption)</text>
<text x="437" y="170.0" text-anchor="middle" fill="#444" transform="rotate(-90 437 170.0)">ATT (per 100k)</text>
<rect x="15" y="330" width="380" height="260" fill="#fafaf7" stroke="#e2e2dc"/>
<text x="205.0" y="348" text-anchor="middle" font-weight="600">Total suicide rate (per 100k) [net effect]</text>
<line x1="75" y1="418.7168346804483" x2="377" y2="418.7168346804483" stroke="#aaaaaa" stroke-width="0.7"/>
<polygon points="88.7,396.3 116.2,380.0 143.6,423.4 171.1,411.6 226.0,403.8 253.5,406.2 280.9,540.0 308.4,512.3 335.8,535.0 363.3,501.0 363.3,501.0 335.8,535.0 308.4,512.3 280.9,540.0 253.5,406.2 226.0,424.9 171.1,452.1 143.6,480.3 116.2,445.1 88.7,448.9" fill="#1f3a5f" opacity="0.18"/>
<polyline points="88.7,422.6 116.2,412.5 143.6,451.8 171.1,431.8 226.0,414.3 253.5,406.2 280.9,540.0 308.4,512.3 335.8,535.0 363.3,501.0" fill="none" stroke="#1f3a5f" stroke-width="1.6"/>
<circle cx="88.7" cy="422.6" r="2.6" fill="#1f3a5f"/>
<circle cx="116.2" cy="412.5" r="2.6" fill="#1f3a5f"/>
<circle cx="143.6" cy="451.8" r="2.6" fill="#1f3a5f"/>
<circle cx="171.1" cy="431.8" r="2.6" fill="#1f3a5f"/>
<circle cx="226.0" cy="414.3" r="2.6" fill="#1f3a5f"/>
<circle cx="253.5" cy="406.2" r="2.6" fill="#1f3a5f"/>
<circle cx="280.9" cy="540.0" r="2.6" fill="#1f3a5f"/>
<circle cx="308.4" cy="512.3" r="2.6" fill="#1f3a5f"/>
<circle cx="335.8" cy="535.0" r="2.6" fill="#1f3a5f"/>
<circle cx="363.3" cy="501.0" r="2.6" fill="#1f3a5f"/>
<line x1="212.3" y1="380" x2="212.3" y2="540" stroke="#b9461a" stroke-dasharray="3 3"/>
<line x1="75" y1="540" x2="377" y2="540" stroke="#444"/>
<line x1="75" y1="380" x2="75" y2="540" stroke="#444"/>
<line x1="88.7" y1="540" x2="88.7" y2="543" stroke="#444"/>
<text x="88.7" y="555" text-anchor="middle" fill="#444">-5</text>
<line x1="116.2" y1="540" x2="116.2" y2="543" stroke="#444"/>
<text x="116.2" y="555" text-anchor="middle" fill="#444">-4</text>
<line x1="143.6" y1="540" x2="143.6" y2="543" stroke="#444"/>
<text x="143.6" y="555" text-anchor="middle" fill="#444">-3</text>
<line x1="171.1" y1="540" x2="171.1" y2="543" stroke="#444"/>
<text x="171.1" y="555" text-anchor="middle" fill="#444">-2</text>
<line x1="226.0" y1="540" x2="226.0" y2="543" stroke="#444"/>
<text x="226.0" y="555" text-anchor="middle" fill="#444">0</text>
<line x1="253.5" y1="540" x2="253.5" y2="543" stroke="#444"/>
<text x="253.5" y="555" text-anchor="middle" fill="#444">1</text>
<line x1="280.9" y1="540" x2="280.9" y2="543" stroke="#444"/>
<text x="280.9" y="555" text-anchor="middle" fill="#444">2</text>
<line x1="308.4" y1="540" x2="308.4" y2="543" stroke="#444"/>
<text x="308.4" y="555" text-anchor="middle" fill="#444">3</text>
<line x1="335.8" y1="540" x2="335.8" y2="543" stroke="#444"/>
<text x="335.8" y="555" text-anchor="middle" fill="#444">4</text>
<line x1="363.3" y1="540" x2="363.3" y2="543" stroke="#444"/>
<text x="363.3" y="555" text-anchor="middle" fill="#444">5</text>
<line x1="72" y1="540.0" x2="75" y2="540.0" stroke="#444"/>
<text x="69" y="543.0" text-anchor="end" fill="#444">-1.9</text>
<line x1="72" y1="500.0" x2="75" y2="500.0" stroke="#444"/>
<text x="69" y="503.0" text-anchor="end" fill="#444">-1.3</text>
<line x1="72" y1="460.0" x2="75" y2="460.0" stroke="#444"/>
<text x="69" y="463.0" text-anchor="end" fill="#444">-0.65</text>
<line x1="72" y1="420.0" x2="75" y2="420.0" stroke="#444"/>
<text x="69" y="423.0" text-anchor="end" fill="#444">-0.02</text>
<line x1="72" y1="380.0" x2="75" y2="380.0" stroke="#444"/>
<text x="69" y="383.0" text-anchor="end" fill="#444">0.61</text>
<text x="226.0" y="574" text-anchor="middle" fill="#444">Event time (years from adoption)</text>
<text x="27" y="460.0" text-anchor="middle" fill="#444" transform="rotate(-90 27 460.0)">ATT (per 100k)</text>
<rect x="425" y="330" width="380" height="260" fill="#fafaf7" stroke="#e2e2dc"/>
<text x="615.0" y="348" text-anchor="middle" font-weight="600">Firearm homicide rate (per 100k)</text>
<line x1="485" y1="460.438080776108" x2="787" y2="460.438080776108" stroke="#aaaaaa" stroke-width="0.7"/>
<polygon points="498.7,444.4 526.2,473.7 553.6,448.6 581.1,426.0 636.0,476.2 663.5,540.0 690.9,380.0 718.4,401.5 745.8,391.8 773.3,408.8 773.3,408.8 745.8,391.8 718.4,401.5 690.9,380.0 663.5,540.0 636.0,507.7 581.1,491.4 553.6,505.5 526.2,495.8 498.7,471.9" fill="#1f3a5f" opacity="0.18"/>
<polyline points="498.7,458.1 526.2,484.8 553.6,477.1 581.1,458.7 636.0,492.0 663.5,540.0 690.9,380.0 718.4,401.5 745.8,391.8 773.3,408.8" fill="none" stroke="#1f3a5f" stroke-width="1.6"/>
<circle cx="498.7" cy="458.1" r="2.6" fill="#1f3a5f"/>
<circle cx="526.2" cy="484.8" r="2.6" fill="#1f3a5f"/>
<circle cx="553.6" cy="477.1" r="2.6" fill="#1f3a5f"/>
<circle cx="581.1" cy="458.7" r="2.6" fill="#1f3a5f"/>
<circle cx="636.0" cy="492.0" r="2.6" fill="#1f3a5f"/>
<circle cx="663.5" cy="540.0" r="2.6" fill="#1f3a5f"/>
<circle cx="690.9" cy="380.0" r="2.6" fill="#1f3a5f"/>
<circle cx="718.4" cy="401.5" r="2.6" fill="#1f3a5f"/>
<circle cx="745.8" cy="391.8" r="2.6" fill="#1f3a5f"/>
<circle cx="773.3" cy="408.8" r="2.6" fill="#1f3a5f"/>
<line x1="622.3" y1="380" x2="622.3" y2="540" stroke="#b9461a" stroke-dasharray="3 3"/>
<line x1="485" y1="540" x2="787" y2="540" stroke="#444"/>
<line x1="485" y1="380" x2="485" y2="540" stroke="#444"/>
<line x1="498.7" y1="540" x2="498.7" y2="543" stroke="#444"/>
<text x="498.7" y="555" text-anchor="middle" fill="#444">-5</text>
<line x1="526.2" y1="540" x2="526.2" y2="543" stroke="#444"/>
<text x="526.2" y="555" text-anchor="middle" fill="#444">-4</text>
<line x1="553.6" y1="540" x2="553.6" y2="543" stroke="#444"/>
<text x="553.6" y="555" text-anchor="middle" fill="#444">-3</text>
<line x1="581.1" y1="540" x2="581.1" y2="543" stroke="#444"/>
<text x="581.1" y="555" text-anchor="middle" fill="#444">-2</text>
<line x1="636.0" y1="540" x2="636.0" y2="543" stroke="#444"/>
<text x="636.0" y="555" text-anchor="middle" fill="#444">0</text>
<line x1="663.5" y1="540" x2="663.5" y2="543" stroke="#444"/>
<text x="663.5" y="555" text-anchor="middle" fill="#444">1</text>
<line x1="690.9" y1="540" x2="690.9" y2="543" stroke="#444"/>
<text x="690.9" y="555" text-anchor="middle" fill="#444">2</text>
<line x1="718.4" y1="540" x2="718.4" y2="543" stroke="#444"/>
<text x="718.4" y="555" text-anchor="middle" fill="#444">3</text>
<line x1="745.8" y1="540" x2="745.8" y2="543" stroke="#444"/>
<text x="745.8" y="555" text-anchor="middle" fill="#444">4</text>
<line x1="773.3" y1="540" x2="773.3" y2="543" stroke="#444"/>
<text x="773.3" y="555" text-anchor="middle" fill="#444">5</text>
<line x1="482" y1="540.0" x2="485" y2="540.0" stroke="#444"/>
<text x="479" y="543.0" text-anchor="end" fill="#444">-1.9</text>
<line x1="482" y1="500.0" x2="485" y2="500.0" stroke="#444"/>
<text x="479" y="503.0" text-anchor="end" fill="#444">-0.94</text>
<line x1="482" y1="460.0" x2="485" y2="460.0" stroke="#444"/>
<text x="479" y="463.0" text-anchor="end" fill="#444">0.01</text>
<line x1="482" y1="420.0" x2="485" y2="420.0" stroke="#444"/>
<text x="479" y="423.0" text-anchor="end" fill="#444">0.96</text>
<line x1="482" y1="380.0" x2="485" y2="380.0" stroke="#444"/>
<text x="479" y="383.0" text-anchor="end" fill="#444">1.9</text>
<text x="636.0" y="574" text-anchor="middle" fill="#444">Event time (years from adoption)</text>
<text x="437" y="460.0" text-anchor="middle" fill="#444" transform="rotate(-90 437 460.0)">ATT (per 100k)</text>
<rect x="15" y="620" width="380" height="260" fill="#fafaf7" stroke="#e2e2dc"/>
<text x="205.0" y="638" text-anchor="middle" font-weight="600">Total homicide rate (per 100k)</text>
<line x1="75" y1="745.3415447752483" x2="377" y2="745.3415447752483" stroke="#aaaaaa" stroke-width="0.7"/>
<polygon points="88.7,739.7 116.2,757.7 143.6,734.6 171.1,733.7 226.0,779.3 253.5,830.0 280.9,670.0 308.4,683.8 335.8,673.5 363.3,698.2 363.3,698.2 335.8,673.5 308.4,683.8 280.9,670.0 253.5,830.0 226.0,803.8 171.1,782.4 143.6,794.3 116.2,789.3 88.7,770.1" fill="#1f3a5f" opacity="0.18"/>
<polyline points="88.7,754.9 116.2,773.5 143.6,764.4 171.1,758.0 226.0,791.6 253.5,830.0 280.9,670.0 308.4,683.8 335.8,673.5 363.3,698.2" fill="none" stroke="#1f3a5f" stroke-width="1.6"/>
<circle cx="88.7" cy="754.9" r="2.6" fill="#1f3a5f"/>
<circle cx="116.2" cy="773.5" r="2.6" fill="#1f3a5f"/>
<circle cx="143.6" cy="764.4" r="2.6" fill="#1f3a5f"/>
<circle cx="171.1" cy="758.0" r="2.6" fill="#1f3a5f"/>
<circle cx="226.0" cy="791.6" r="2.6" fill="#1f3a5f"/>
<circle cx="253.5" cy="830.0" r="2.6" fill="#1f3a5f"/>
<circle cx="280.9" cy="670.0" r="2.6" fill="#1f3a5f"/>
<circle cx="308.4" cy="683.8" r="2.6" fill="#1f3a5f"/>
<circle cx="335.8" cy="673.5" r="2.6" fill="#1f3a5f"/>
<circle cx="363.3" cy="698.2" r="2.6" fill="#1f3a5f"/>
<line x1="212.3" y1="670" x2="212.3" y2="830" stroke="#b9461a" stroke-dasharray="3 3"/>
<line x1="75" y1="830" x2="377" y2="830" stroke="#444"/>
<line x1="75" y1="670" x2="75" y2="830" stroke="#444"/>
<line x1="88.7" y1="830" x2="88.7" y2="833" stroke="#444"/>
<text x="88.7" y="845" text-anchor="middle" fill="#444">-5</text>
<line x1="116.2" y1="830" x2="116.2" y2="833" stroke="#444"/>
<text x="116.2" y="845" text-anchor="middle" fill="#444">-4</text>
<line x1="143.6" y1="830" x2="143.6" y2="833" stroke="#444"/>
<text x="143.6" y="845" text-anchor="middle" fill="#444">-3</text>
<line x1="171.1" y1="830" x2="171.1" y2="833" stroke="#444"/>
<text x="171.1" y="845" text-anchor="middle" fill="#444">-2</text>
<line x1="226.0" y1="830" x2="226.0" y2="833" stroke="#444"/>
<text x="226.0" y="845" text-anchor="middle" fill="#444">0</text>
<line x1="253.5" y1="830" x2="253.5" y2="833" stroke="#444"/>
<text x="253.5" y="845" text-anchor="middle" fill="#444">1</text>
<line x1="280.9" y1="830" x2="280.9" y2="833" stroke="#444"/>
<text x="280.9" y="845" text-anchor="middle" fill="#444">2</text>
<line x1="308.4" y1="830" x2="308.4" y2="833" stroke="#444"/>
<text x="308.4" y="845" text-anchor="middle" fill="#444">3</text>
<line x1="335.8" y1="830" x2="335.8" y2="833" stroke="#444"/>
<text x="335.8" y="845" text-anchor="middle" fill="#444">4</text>
<line x1="363.3" y1="830" x2="363.3" y2="833" stroke="#444"/>
<text x="363.3" y="845" text-anchor="middle" fill="#444">5</text>
<line x1="72" y1="830.0" x2="75" y2="830.0" stroke="#444"/>
<text x="69" y="833.0" text-anchor="end" fill="#444">-2.5</text>
<line x1="72" y1="790.0" x2="75" y2="790.0" stroke="#444"/>
<text x="69" y="793.0" text-anchor="end" fill="#444">-1.3</text>
<line x1="72" y1="750.0" x2="75" y2="750.0" stroke="#444"/>
<text x="69" y="753.0" text-anchor="end" fill="#444">-0.14</text>
<line x1="72" y1="710.0" x2="75" y2="710.0" stroke="#444"/>
<text x="69" y="713.0" text-anchor="end" fill="#444">1</text>
<line x1="72" y1="670.0" x2="75" y2="670.0" stroke="#444"/>
<text x="69" y="673.0" text-anchor="end" fill="#444">2.2</text>
<text x="226.0" y="864" text-anchor="middle" fill="#444">Event time (years from adoption)</text>
<text x="27" y="750.0" text-anchor="middle" fill="#444" transform="rotate(-90 27 750.0)">ATT (per 100k)</text>
<rect x="425" y="620" width="380" height="260" fill="#fafaf7" stroke="#e2e2dc"/>
<text x="615.0" y="638" text-anchor="middle" font-weight="600">Motor vehicle theft rate (per 100k) [placebo]</text>
<line x1="485" y1="692.6105642959517" x2="787" y2="692.6105642959517" stroke="#aaaaaa" stroke-width="0.7"/>
<polygon points="498.7,696.9 526.2,702.3 553.6,700.1 581.1,726.8 636.0,670.0 663.5,678.0 690.9,727.9 718.4,744.2 745.8,759.8 773.3,777.8 773.3,777.8 745.8,759.8 718.4,744.2 690.9,727.9 663.5,678.0 636.0,691.6 581.1,776.9 553.6,821.5 526.2,830.0 498.7,800.4" fill="#1f3a5f" opacity="0.18"/>
<polyline points="498.7,748.6 526.2,766.2 553.6,760.8 581.1,751.8 636.0,680.8 663.5,678.0 690.9,727.9 718.4,744.2 745.8,759.8 773.3,777.8" fill="none" stroke="#1f3a5f" stroke-width="1.6"/>
<circle cx="498.7" cy="748.6" r="2.6" fill="#1f3a5f"/>
<circle cx="526.2" cy="766.2" r="2.6" fill="#1f3a5f"/>
<circle cx="553.6" cy="760.8" r="2.6" fill="#1f3a5f"/>
<circle cx="581.1" cy="751.8" r="2.6" fill="#1f3a5f"/>
<circle cx="636.0" cy="680.8" r="2.6" fill="#1f3a5f"/>
<circle cx="663.5" cy="678.0" r="2.6" fill="#1f3a5f"/>
<circle cx="690.9" cy="727.9" r="2.6" fill="#1f3a5f"/>
<circle cx="718.4" cy="744.2" r="2.6" fill="#1f3a5f"/>
<circle cx="745.8" cy="759.8" r="2.6" fill="#1f3a5f"/>
<circle cx="773.3" cy="777.8" r="2.6" fill="#1f3a5f"/>
<line x1="622.3" y1="670" x2="622.3" y2="830" stroke="#b9461a" stroke-dasharray="3 3"/>
<line x1="485" y1="830" x2="787" y2="830" stroke="#444"/>
<line x1="485" y1="670" x2="485" y2="830" stroke="#444"/>
<line x1="498.7" y1="830" x2="498.7" y2="833" stroke="#444"/>
<text x="498.7" y="845" text-anchor="middle" fill="#444">-5</text>
<line x1="526.2" y1="830" x2="526.2" y2="833" stroke="#444"/>
<text x="526.2" y="845" text-anchor="middle" fill="#444">-4</text>
<line x1="553.6" y1="830" x2="553.6" y2="833" stroke="#444"/>
<text x="553.6" y="845" text-anchor="middle" fill="#444">-3</text>
<line x1="581.1" y1="830" x2="581.1" y2="833" stroke="#444"/>
<text x="581.1" y="845" text-anchor="middle" fill="#444">-2</text>
<line x1="636.0" y1="830" x2="636.0" y2="833" stroke="#444"/>
<text x="636.0" y="845" text-anchor="middle" fill="#444">0</text>
<line x1="663.5" y1="830" x2="663.5" y2="833" stroke="#444"/>
<text x="663.5" y="845" text-anchor="middle" fill="#444">1</text>
<line x1="690.9" y1="830" x2="690.9" y2="833" stroke="#444"/>
<text x="690.9" y="845" text-anchor="middle" fill="#444">2</text>
<line x1="718.4" y1="830" x2="718.4" y2="833" stroke="#444"/>
<text x="718.4" y="845" text-anchor="middle" fill="#444">3</text>
<line x1="745.8" y1="830" x2="745.8" y2="833" stroke="#444"/>
<text x="745.8" y="845" text-anchor="middle" fill="#444">4</text>
<line x1="773.3" y1="830" x2="773.3" y2="833" stroke="#444"/>
<text x="773.3" y="845" text-anchor="middle" fill="#444">5</text>
<line x1="482" y1="830.0" x2="485" y2="830.0" stroke="#444"/>
<text x="479" y="833.0" text-anchor="end" fill="#444">-1.4e+02</text>
<line x1="482" y1="790.0" x2="485" y2="790.0" stroke="#444"/>
<text x="479" y="793.0" text-anchor="end" fill="#444">-98</text>
<line x1="482" y1="750.0" x2="485" y2="750.0" stroke="#444"/>
<text x="479" y="753.0" text-anchor="end" fill="#444">-58</text>
<line x1="482" y1="710.0" x2="485" y2="710.0" stroke="#444"/>
<text x="479" y="713.0" text-anchor="end" fill="#444">-18</text>
<line x1="482" y1="670.0" x2="485" y2="670.0" stroke="#444"/>
<text x="479" y="673.0" text-anchor="end" fill="#444">23</text>
<text x="636.0" y="864" text-anchor="middle" fill="#444">Event time (years from adoption)</text>
<text x="437" y="750.0" text-anchor="middle" fill="#444" transform="rotate(-90 437 750.0)">ATT (per 100k)</text>
<text x="805" y="608" text-anchor="end" fill="#888" font-size="10">Shaded band: pointwise 95% CI from cluster bootstrap. Vertical dashed line marks the year before adoption.</text>
</svg>