<svg xmlns="http://www.w3.org/2000/svg" viewBox="0 0 820 620" font-family="-apple-system, Segoe UI, Helvetica, Arial, sans-serif" font-size="11">
<text x="410.0" y="22" text-anchor="middle" font-size="14" font-weight="600">Callaway-Sant'Anna ATT by event time (OR) -- assault weapons ban (assault)</text>
<rect x="15" y="40" width="380" height="260" fill="#fafaf7" stroke="#e2e2dc"/>
<text x="205.0" y="58" text-anchor="middle" font-weight="600">Firearm suicide rate (per 100k)</text>
<line x1="75" y1="131.4686101786922" x2="377" y2="131.4686101786922" stroke="#aaaaaa" stroke-width="0.7"/>
<polygon points="88.7,123.6 116.2,90.0 143.6,158.2 171.1,155.0 226.0,122.7 253.5,138.3 280.9,220.8 308.4,229.6 335.8,248.1 363.3,250.0 363.3,250.0 335.8,248.1 308.4,229.6 280.9,220.8 253.5,138.3 226.0,148.4 171.1,192.7 143.6,201.3 116.2,148.4 88.7,154.5" fill="#1f3a5f" opacity="0.18"/>
<polyline points="88.7,139.0 116.2,119.2 143.6,179.7 171.1,173.8 226.0,135.6 253.5,138.3 280.9,220.8 308.4,229.6 335.8,248.1 363.3,250.0" fill="none" stroke="#1f3a5f" stroke-width="1.6"/>
<circle cx="88.7" cy="139.0" r="2.6" fill="#1f3a5f"/>
<circle cx="116.2" cy="119.2" r="2.6" fill="#1f3a5f"/>
<circle cx="143.6" cy="179.7" r="2.6" fill="#1f3a5f"/>
<circle cx="171.1" cy="173.8" r="2.6" fill="#1f3a5f"/>
<circle cx="226.0" cy="135.6" r="2.6" fill="#1f3a5f"/>
<circle cx="253.5" cy="138.3" r="2.6" fill="#1f3a5f"/>
<circle cx="280.9" cy="220.8" r="2.6" fill="#1f3a5f"/>
<circle cx="308.4" cy="229.6" r="2.6" fill="#1f3a5f"/>
<circle cx="335.8" cy="248.1" r="2.6" fill="#1f3a5f"/>
<circle cx="363.3" cy="250.0" r="2.6" fill="#1f3a5f"/>
<line x1="212.3" y1="90" x2="212.3" y2="250" stroke="#b9461a" stroke-dasharray="3 3"/>
<line x1="75" y1="250" x2="377" y2="250" stroke="#444"/>
<line x1="75" y1="90" x2="75" y2="250" stroke="#444"/>
<line x1="88.7" y1="250" x2="88.7" y2="253" stroke="#444"/>
<text x="88.7" y="265" text-anchor="middle" fill="#444">-5</text>
<line x1="116.2" y1="250" x2="116.2" y2="253" stroke="#444"/>
<text x="116.2" y="265" text-anchor="middle" fill="#444">-4</text>
<line x1="143.6" y1="250" x2="143.6" y2="253" stroke="#444"/>
<text x="143.6" y="265" text-anchor="middle" fill="#444">-3</text>
<line x1="171.1" y1="250" x2="171.1" y2="253" stroke="#444"/>
<text x="171.1" y="265" text-anchor="middle" fill="#444">-2</text>
<line x1="226.0" y1="250" x2="226.0" y2="253" stroke="#444"/>
<text x="226.0" y="265" text-anchor="middle" fill="#444">0</text>
<line x1="253.5" y1="250" x2="253.5" y2="253" stroke="#444"/>
<text x="253.5" y="265" text-anchor="middle" fill="#444">1</text>
<line x1="280.9" y1="250" x2="280.9" y2="253" stroke="#444"/>
<text x="280.9" y="265" text-anchor="middle" fill="#444">2</text>
<line x1="308.4" y1="250" x2="308.4" y2="253" stroke="#444"/>
<text x="308.4" y="265" text-anchor="middle" fill="#444">3</text>
<line x1="335.8" y1="250" x2="335.8" y2="253" stroke="#444"/>
<text x="335.8" y="265" text-anchor="middle" fill="#444">4</text>
<line x1="363.3" y1="250" x2="363.3" y2="253" stroke="#444"/>
<text x="363.3" y="265" text-anchor="middle" fill="#444">5</text>
<line x1="72" y1="250.0" x2="75" y2="250.0" stroke="#444"/>
<text x="69" y="253.0" text-anchor="end" fill="#444">-1.5</text>
<line x1="72" y1="210.0" x2="75" y2="210.0" stroke="#444"/>
<text x="69" y="213.0" text-anchor="end" fill="#444">-0.99</text>
<line x1="72" y1="170.0" x2="75" y2="170.0" stroke="#444"/>
<text x="69" y="173.0" text-anchor="end" fill="#444">-0.48</text>
<line x1="72" y1="130.0" x2="75" y2="130.0" stroke="#444"/>
<text x="69" y="133.0" text-anchor="end" fill="#444">0.018</text>
<line x1="72" y1="90.0" x2="75" y2="90.0" stroke="#444"/>
<text x="69" y="93.0" text-anchor="end" fill="#444">0.52</text>
<text x="226.0" y="284" text-anchor="middle" fill="#444">Event time (years from adoption)</text>
<text x="27" y="170.0" text-anchor="middle" fill="#444" transform="rotate(-90 27 170.0)">ATT (per 100k)</text>
<rect x="425" y="40" width="380" height="260" fill="#fafaf7" stroke="#e2e2dc"/>
<text x="615.0" y="58" text-anchor="middle" font-weight="600">Non-firearm suicide rate (per 100k) [substitution test]</text>
<line x1="485" y1="162.762690861995" x2="787" y2="162.762690861995" stroke="#aaaaaa" stroke-width="0.7"/>
<polygon points="498.7,116.8 526.2,138.7 553.6,120.7 581.1,90.0 636.0,138.5 663.5,132.7 690.9,250.0 718.4,196.5 745.8,214.3 773.3,151.4 773.3,151.4 745.8,214.3 718.4,196.5 690.9,250.0 663.5,132.7 636.0,162.0 581.1,165.5 553.6,172.7 526.2,177.7 498.7,180.7" fill="#1f3a5f" opacity="0.18"/>
<polyline points="498.7,148.7 526.2,158.2 553.6,146.7 581.1,127.8 636.0,150.2 663.5,132.7 690.9,250.0 718.4,196.5 745.8,214.3 773.3,151.4" fill="none" stroke="#1f3a5f" stroke-width="1.6"/>
<circle cx="498.7" cy="148.7" r="2.6" fill="#1f3a5f"/>
<circle cx="526.2" cy="158.2" r="2.6" fill="#1f3a5f"/>
<circle cx="553.6" cy="146.7" r="2.6" fill="#1f3a5f"/>
<circle cx="581.1" cy="127.8" r="2.6" fill="#1f3a5f"/>
<circle cx="636.0" cy="150.2" r="2.6" fill="#1f3a5f"/>
<circle cx="663.5" cy="132.7" r="2.6" fill="#1f3a5f"/>
<circle cx="690.9" cy="250.0" r="2.6" fill="#1f3a5f"/>
<circle cx="718.4" cy="196.5" r="2.6" fill="#1f3a5f"/>
<circle cx="745.8" cy="214.3" r="2.6" fill="#1f3a5f"/>
<circle cx="773.3" cy="151.4" r="2.6" fill="#1f3a5f"/>
<line x1="622.3" y1="90" x2="622.3" y2="250" stroke="#b9461a" stroke-dasharray="3 3"/>
<line x1="485" y1="250" x2="787" y2="250" stroke="#444"/>
<line x1="485" y1="90" x2="485" y2="250" stroke="#444"/>
<line x1="498.7" y1="250" x2="498.7" y2="253" stroke="#444"/>
<text x="498.7" y="265" text-anchor="middle" fill="#444">-5</text>
<line x1="526.2" y1="250" x2="526.2" y2="253" stroke="#444"/>
<text x="526.2" y="265" text-anchor="middle" fill="#444">-4</text>
<line x1="553.6" y1="250" x2="553.6" y2="253" stroke="#444"/>
<text x="553.6" y="265" text-anchor="middle" fill="#444">-3</text>
<line x1="581.1" y1="250" x2="581.1" y2="253" stroke="#444"/>
<text x="581.1" y="265" text-anchor="middle" fill="#444">-2</text>
<line x1="636.0" y1="250" x2="636.0" y2="253" stroke="#444"/>
<text x="636.0" y="265" text-anchor="middle" fill="#444">0</text>
<line x1="663.5" y1="250" x2="663.5" y2="253" stroke="#444"/>
<text x="663.5" y="265" text-anchor="middle" fill="#444">1</text>
<line x1="690.9" y1="250" x2="690.9" y2="253" stroke="#444"/>
<text x="690.9" y="265" text-anchor="middle" fill="#444">2</text>
<line x1="718.4" y1="250" x2="718.4" y2="253" stroke="#444"/>
<text x="718.4" y="265" text-anchor="middle" fill="#444">3</text>
<line x1="745.8" y1="250" x2="745.8" y2="253" stroke="#444"/>
<text x="745.8" y="265" text-anchor="middle" fill="#444">4</text>
<line x1="773.3" y1="250" x2="773.3" y2="253" stroke="#444"/>
<text x="773.3" y="265" text-anchor="middle" fill="#444">5</text>
<line x1="482" y1="250.0" x2="485" y2="250.0" stroke="#444"/>
<text x="479" y="253.0" text-anchor="end" fill="#444">-0.85</text>
<line x1="482" y1="210.0" x2="485" y2="210.0" stroke="#444"/>
<text x="479" y="213.0" text-anchor="end" fill="#444">-0.46</text>
<line x1="482" y1="170.0" x2="485" y2="170.0" stroke="#444"/>
<text x="479" y="173.0" text-anchor="end" fill="#444">-0.071</text>
<line x1="482" y1="130.0" x2="485" y2="130.0" stroke="#444"/>
<text x="479" y="133.0" text-anchor="end" fill="#444">0.32</text>
<line x1="482" y1="90.0" x2="485" y2="90.0" stroke="#444"/>
<text x="479" y="93.0" text-anchor="end" fill="#444">0.71</text>
<text x="636.0" y="284" text-anchor="middle" fill="#444">Event time (years from adoption)</text>
<text x="437" y="170.0" text-anchor="middle" fill="#444" transform="rotate(-90 437 170.0)">ATT (per 100k)</text>
<rect x="15" y="330" width="380" height="260" fill="#fafaf7" stroke="#e2e2dc"/>
<text x="205.0" y="348" text-anchor="middle" font-weight="600">Total suicide rate (per 100k) [net effect]</text>
<line x1="75" y1="422.9669172112492" x2="377" y2="422.9669172112492" stroke="#aaaaaa" stroke-width="0.7"/>
<polygon points="88.7,395.7 116.2,380.0 143.6,422.5 171.1,414.4 226.0,407.9 253.5,410.7 280.9,540.0 308.4,515.6 335.8,539.7 363.3,504.8 363.3,504.8 335.8,539.7 308.4,515.6 280.9,540.0 253.5,410.7 226.0,429.6 171.1,454.3 143.6,476.8 116.2,442.4 88.7,445.4" fill="#1f3a5f" opacity="0.18"/>
<polyline points="88.7,420.5 116.2,411.2 143.6,449.7 171.1,434.3 226.0,418.8 253.5,410.7 280.9,540.0 308.4,515.6 335.8,539.7 363.3,504.8" fill="none" stroke="#1f3a5f" stroke-width="1.6"/>
<circle cx="88.7" cy="420.5" r="2.6" fill="#1f3a5f"/>
<circle cx="116.2" cy="411.2" r="2.6" fill="#1f3a5f"/>
<circle cx="143.6" cy="449.7" r="2.6" fill="#1f3a5f"/>
<circle cx="171.1" cy="434.3" r="2.6" fill="#1f3a5f"/>
<circle cx="226.0" cy="418.8" r="2.6" fill="#1f3a5f"/>
<circle cx="253.5" cy="410.7" r="2.6" fill="#1f3a5f"/>
<circle cx="280.9" cy="540.0" r="2.6" fill="#1f3a5f"/>
<circle cx="308.4" cy="515.6" r="2.6" fill="#1f3a5f"/>
<circle cx="335.8" cy="539.7" r="2.6" fill="#1f3a5f"/>
<circle cx="363.3" cy="504.8" r="2.6" fill="#1f3a5f"/>
<line x1="212.3" y1="380" x2="212.3" y2="540" stroke="#b9461a" stroke-dasharray="3 3"/>
<line x1="75" y1="540" x2="377" y2="540" stroke="#444"/>
<line x1="75" y1="380" x2="75" y2="540" stroke="#444"/>
<line x1="88.7" y1="540" x2="88.7" y2="543" stroke="#444"/>
<text x="88.7" y="555" text-anchor="middle" fill="#444">-5</text>
<line x1="116.2" y1="540" x2="116.2" y2="543" stroke="#444"/>
<text x="116.2" y="555" text-anchor="middle" fill="#444">-4</text>
<line x1="143.6" y1="540" x2="143.6" y2="543" stroke="#444"/>
<text x="143.6" y="555" text-anchor="middle" fill="#444">-3</text>
<line x1="171.1" y1="540" x2="171.1" y2="543" stroke="#444"/>
<text x="171.1" y="555" text-anchor="middle" fill="#444">-2</text>
<line x1="226.0" y1="540" x2="226.0" y2="543" stroke="#444"/>
<text x="226.0" y="555" text-anchor="middle" fill="#444">0</text>
<line x1="253.5" y1="540" x2="253.5" y2="543" stroke="#444"/>
<text x="253.5" y="555" text-anchor="middle" fill="#444">1</text>
<line x1="280.9" y1="540" x2="280.9" y2="543" stroke="#444"/>
<text x="280.9" y="555" text-anchor="middle" fill="#444">2</text>
<line x1="308.4" y1="540" x2="308.4" y2="543" stroke="#444"/>
<text x="308.4" y="555" text-anchor="middle" fill="#444">3</text>
<line x1="335.8" y1="540" x2="335.8" y2="543" stroke="#444"/>
<text x="335.8" y="555" text-anchor="middle" fill="#444">4</text>
<line x1="363.3" y1="540" x2="363.3" y2="543" stroke="#444"/>
<text x="363.3" y="555" text-anchor="middle" fill="#444">5</text>
<line x1="72" y1="540.0" x2="75" y2="540.0" stroke="#444"/>
<text x="69" y="543.0" text-anchor="end" fill="#444">-2</text>
<line x1="72" y1="500.0" x2="75" y2="500.0" stroke="#444"/>
<text x="69" y="503.0" text-anchor="end" fill="#444">-1.3</text>
<line x1="72" y1="460.0" x2="75" y2="460.0" stroke="#444"/>
<text x="69" y="463.0" text-anchor="end" fill="#444">-0.62</text>
<line x1="72" y1="420.0" x2="75" y2="420.0" stroke="#444"/>
<text x="69" y="423.0" text-anchor="end" fill="#444">0.05</text>
<line x1="72" y1="380.0" x2="75" y2="380.0" stroke="#444"/>
<text x="69" y="383.0" text-anchor="end" fill="#444">0.72</text>
<text x="226.0" y="574" text-anchor="middle" fill="#444">Event time (years from adoption)</text>
<text x="27" y="460.0" text-anchor="middle" fill="#444" transform="rotate(-90 27 460.0)">ATT (per 100k)</text>
<rect x="425" y="330" width="380" height="260" fill="#fafaf7" stroke="#e2e2dc"/>
<text x="615.0" y="348" text-anchor="middle" font-weight="600">Firearm homicide rate (per 100k)</text>
<line x1="485" y1="458.8559852034283" x2="787" y2="458.8559852034283" stroke="#aaaaaa" stroke-width="0.7"/>
<polygon points="498.7,439.2 526.2,469.8 553.6,445.1 581.1,423.7 636.0,474.6 663.5,540.0 690.9,380.0 718.4,403.6 745.8,393.6 773.3,412.2 773.3,412.2 745.8,393.6 718.4,403.6 690.9,380.0 663.5,540.0 636.0,506.9 581.1,489.8 553.6,503.3 526.2,493.0 498.7,467.9" fill="#1f3a5f" opacity="0.18"/>
<polyline points="498.7,453.5 526.2,481.4 553.6,474.2 581.1,456.8 636.0,490.8 663.5,540.0 690.9,380.0 718.4,403.6 745.8,393.6 773.3,412.2" fill="none" stroke="#1f3a5f" stroke-width="1.6"/>
<circle cx="498.7" cy="453.5" r="2.6" fill="#1f3a5f"/>
<circle cx="526.2" cy="481.4" r="2.6" fill="#1f3a5f"/>
<circle cx="553.6" cy="474.2" r="2.6" fill="#1f3a5f"/>
<circle cx="581.1" cy="456.8" r="2.6" fill="#1f3a5f"/>
<circle cx="636.0" cy="490.8" r="2.6" fill="#1f3a5f"/>
<circle cx="663.5" cy="540.0" r="2.6" fill="#1f3a5f"/>
<circle cx="690.9" cy="380.0" r="2.6" fill="#1f3a5f"/>
<circle cx="718.4" cy="403.6" r="2.6" fill="#1f3a5f"/>
<circle cx="745.8" cy="393.6" r="2.6" fill="#1f3a5f"/>
<circle cx="773.3" cy="412.2" r="2.6" fill="#1f3a5f"/>
<line x1="622.3" y1="380" x2="622.3" y2="540" stroke="#b9461a" stroke-dasharray="3 3"/>
<line x1="485" y1="540" x2="787" y2="540" stroke="#444"/>
<line x1="485" y1="380" x2="485" y2="540" stroke="#444"/>
<line x1="498.7" y1="540" x2="498.7" y2="543" stroke="#444"/>
<text x="498.7" y="555" text-anchor="middle" fill="#444">-5</text>
<line x1="526.2" y1="540" x2="526.2" y2="543" stroke="#444"/>
<text x="526.2" y="555" text-anchor="middle" fill="#444">-4</text>
<line x1="553.6" y1="540" x2="553.6" y2="543" stroke="#444"/>
<text x="553.6" y="555" text-anchor="middle" fill="#444">-3</text>
<line x1="581.1" y1="540" x2="581.1" y2="543" stroke="#444"/>
<text x="581.1" y="555" text-anchor="middle" fill="#444">-2</text>
<line x1="636.0" y1="540" x2="636.0" y2="543" stroke="#444"/>
<text x="636.0" y="555" text-anchor="middle" fill="#444">0</text>
<line x1="663.5" y1="540" x2="663.5" y2="543" stroke="#444"/>
<text x="663.5" y="555" text-anchor="middle" fill="#444">1</text>
<line x1="690.9" y1="540" x2="690.9" y2="543" stroke="#444"/>
<text x="690.9" y="555" text-anchor="middle" fill="#444">2</text>
<line x1="718.4" y1="540" x2="718.4" y2="543" stroke="#444"/>
<text x="718.4" y="555" text-anchor="middle" fill="#444">3</text>
<line x1="745.8" y1="540" x2="745.8" y2="543" stroke="#444"/>
<text x="745.8" y="555" text-anchor="middle" fill="#444">4</text>
<line x1="773.3" y1="540" x2="773.3" y2="543" stroke="#444"/>
<text x="773.3" y="555" text-anchor="middle" fill="#444">5</text>
<line x1="482" y1="540.0" x2="485" y2="540.0" stroke="#444"/>
<text x="479" y="543.0" text-anchor="end" fill="#444">-1.9</text>
<line x1="482" y1="500.0" x2="485" y2="500.0" stroke="#444"/>
<text x="479" y="503.0" text-anchor="end" fill="#444">-0.96</text>
<line x1="482" y1="460.0" x2="485" y2="460.0" stroke="#444"/>
<text x="479" y="463.0" text-anchor="end" fill="#444">-0.027</text>
<line x1="482" y1="420.0" x2="485" y2="420.0" stroke="#444"/>
<text x="479" y="423.0" text-anchor="end" fill="#444">0.91</text>
<line x1="482" y1="380.0" x2="485" y2="380.0" stroke="#444"/>
<text x="479" y="383.0" text-anchor="end" fill="#444">1.8</text>
<text x="636.0" y="574" text-anchor="middle" fill="#444">Event time (years from adoption)</text>
<text x="437" y="460.0" text-anchor="middle" fill="#444" transform="rotate(-90 437 460.0)">ATT (per 100k)</text>
<rect x="15" y="620" width="380" height="260" fill="#fafaf7" stroke="#e2e2dc"/>
<text x="205.0" y="638" text-anchor="middle" font-weight="600">Total homicide rate (per 100k)</text>
<line x1="75" y1="744.0024726604639" x2="377" y2="744.0024726604639" stroke="#aaaaaa" stroke-width="0.7"/>
<polygon points="88.7,736.4 116.2,754.6 143.6,732.0 171.1,731.6 226.0,778.1 253.5,830.0 280.9,670.0 308.4,685.6 335.8,675.0 363.3,700.0 363.3,700.0 335.8,675.0 308.4,685.6 280.9,670.0 253.5,830.0 226.0,803.3 171.1,780.8 143.6,792.2 116.2,787.4 88.7,767.5" fill="#1f3a5f" opacity="0.18"/>
<polyline points="88.7,752.0 116.2,771.0 143.6,762.1 171.1,756.2 226.0,790.7 253.5,830.0 280.9,670.0 308.4,685.6 335.8,675.0 363.3,700.0" fill="none" stroke="#1f3a5f" stroke-width="1.6"/>
<circle cx="88.7" cy="752.0" r="2.6" fill="#1f3a5f"/>
<circle cx="116.2" cy="771.0" r="2.6" fill="#1f3a5f"/>
<circle cx="143.6" cy="762.1" r="2.6" fill="#1f3a5f"/>
<circle cx="171.1" cy="756.2" r="2.6" fill="#1f3a5f"/>
<circle cx="226.0" cy="790.7" r="2.6" fill="#1f3a5f"/>
<circle cx="253.5" cy="830.0" r="2.6" fill="#1f3a5f"/>
<circle cx="280.9" cy="670.0" r="2.6" fill="#1f3a5f"/>
<circle cx="308.4" cy="685.6" r="2.6" fill="#1f3a5f"/>
<circle cx="335.8" cy="675.0" r="2.6" fill="#1f3a5f"/>
<circle cx="363.3" cy="700.0" r="2.6" fill="#1f3a5f"/>
<line x1="212.3" y1="670" x2="212.3" y2="830" stroke="#b9461a" stroke-dasharray="3 3"/>
<line x1="75" y1="830" x2="377" y2="830" stroke="#444"/>
<line x1="75" y1="670" x2="75" y2="830" stroke="#444"/>
<line x1="88.7" y1="830" x2="88.7" y2="833" stroke="#444"/>
<text x="88.7" y="845" text-anchor="middle" fill="#444">-5</text>
<line x1="116.2" y1="830" x2="116.2" y2="833" stroke="#444"/>
<text x="116.2" y="845" text-anchor="middle" fill="#444">-4</text>
<line x1="143.6" y1="830" x2="143.6" y2="833" stroke="#444"/>
<text x="143.6" y="845" text-anchor="middle" fill="#444">-3</text>
<line x1="171.1" y1="830" x2="171.1" y2="833" stroke="#444"/>
<text x="171.1" y="845" text-anchor="middle" fill="#444">-2</text>
<line x1="226.0" y1="830" x2="226.0" y2="833" stroke="#444"/>
<text x="226.0" y="845" text-anchor="middle" fill="#444">0</text>
<line x1="253.5" y1="830" x2="253.5" y2="833" stroke="#444"/>
<text x="253.5" y="845" text-anchor="middle" fill="#444">1</text>
<line x1="280.9" y1="830" x2="280.9" y2="833" stroke="#444"/>
<text x="280.9" y="845" text-anchor="middle" fill="#444">2</text>
<line x1="308.4" y1="830" x2="308.4" y2="833" stroke="#444"/>
<text x="308.4" y="845" text-anchor="middle" fill="#444">3</text>
<line x1="335.8" y1="830" x2="335.8" y2="833" stroke="#444"/>
<text x="335.8" y="845" text-anchor="middle" fill="#444">4</text>
<line x1="363.3" y1="830" x2="363.3" y2="833" stroke="#444"/>
<text x="363.3" y="845" text-anchor="middle" fill="#444">5</text>
<line x1="72" y1="830.0" x2="75" y2="830.0" stroke="#444"/>
<text x="69" y="833.0" text-anchor="end" fill="#444">-2.5</text>
<line x1="72" y1="790.0" x2="75" y2="790.0" stroke="#444"/>
<text x="69" y="793.0" text-anchor="end" fill="#444">-1.3</text>
<line x1="72" y1="750.0" x2="75" y2="750.0" stroke="#444"/>
<text x="69" y="753.0" text-anchor="end" fill="#444">-0.18</text>
<line x1="72" y1="710.0" x2="75" y2="710.0" stroke="#444"/>
<text x="69" y="713.0" text-anchor="end" fill="#444">0.99</text>
<line x1="72" y1="670.0" x2="75" y2="670.0" stroke="#444"/>
<text x="69" y="673.0" text-anchor="end" fill="#444">2.2</text>
<text x="226.0" y="864" text-anchor="middle" fill="#444">Event time (years from adoption)</text>
<text x="27" y="750.0" text-anchor="middle" fill="#444" transform="rotate(-90 27 750.0)">ATT (per 100k)</text>
<rect x="425" y="620" width="380" height="260" fill="#fafaf7" stroke="#e2e2dc"/>
<text x="615.0" y="638" text-anchor="middle" font-weight="600">Motor vehicle theft rate (per 100k) [placebo]</text>
<line x1="485" y1="694.2488505501867" x2="787" y2="694.2488505501867" stroke="#aaaaaa" stroke-width="0.7"/>
<polygon points="498.7,699.5 526.2,703.7 553.6,701.6 581.1,728.0 636.0,670.0 663.5,679.8 690.9,731.1 718.4,748.6 745.8,765.1 773.3,783.7 773.3,783.7 745.8,765.1 718.4,748.6 690.9,731.1 663.5,679.8 636.0,692.9 581.1,776.2 553.6,820.3 526.2,830.0 498.7,798.6" fill="#1f3a5f" opacity="0.18"/>
<polyline points="498.7,749.0 526.2,766.8 553.6,761.0 581.1,752.1 636.0,681.5 663.5,679.8 690.9,731.1 718.4,748.6 745.8,765.1 773.3,783.7" fill="none" stroke="#1f3a5f" stroke-width="1.6"/>
<circle cx="498.7" cy="749.0" r="2.6" fill="#1f3a5f"/>
<circle cx="526.2" cy="766.8" r="2.6" fill="#1f3a5f"/>
<circle cx="553.6" cy="761.0" r="2.6" fill="#1f3a5f"/>
<circle cx="581.1" cy="752.1" r="2.6" fill="#1f3a5f"/>
<circle cx="636.0" cy="681.5" r="2.6" fill="#1f3a5f"/>
<circle cx="663.5" cy="679.8" r="2.6" fill="#1f3a5f"/>
<circle cx="690.9" cy="731.1" r="2.6" fill="#1f3a5f"/>
<circle cx="718.4" cy="748.6" r="2.6" fill="#1f3a5f"/>
<circle cx="745.8" cy="765.1" r="2.6" fill="#1f3a5f"/>
<circle cx="773.3" cy="783.7" r="2.6" fill="#1f3a5f"/>
<line x1="622.3" y1="670" x2="622.3" y2="830" stroke="#b9461a" stroke-dasharray="3 3"/>
<line x1="485" y1="830" x2="787" y2="830" stroke="#444"/>
<line x1="485" y1="670" x2="485" y2="830" stroke="#444"/>
<line x1="498.7" y1="830" x2="498.7" y2="833" stroke="#444"/>
<text x="498.7" y="845" text-anchor="middle" fill="#444">-5</text>
<line x1="526.2" y1="830" x2="526.2" y2="833" stroke="#444"/>
<text x="526.2" y="845" text-anchor="middle" fill="#444">-4</text>
<line x1="553.6" y1="830" x2="553.6" y2="833" stroke="#444"/>
<text x="553.6" y="845" text-anchor="middle" fill="#444">-3</text>
<line x1="581.1" y1="830" x2="581.1" y2="833" stroke="#444"/>
<text x="581.1" y="845" text-anchor="middle" fill="#444">-2</text>
<line x1="636.0" y1="830" x2="636.0" y2="833" stroke="#444"/>
<text x="636.0" y="845" text-anchor="middle" fill="#444">0</text>
<line x1="663.5" y1="830" x2="663.5" y2="833" stroke="#444"/>
<text x="663.5" y="845" text-anchor="middle" fill="#444">1</text>
<line x1="690.9" y1="830" x2="690.9" y2="833" stroke="#444"/>
<text x="690.9" y="845" text-anchor="middle" fill="#444">2</text>
<line x1="718.4" y1="830" x2="718.4" y2="833" stroke="#444"/>
<text x="718.4" y="845" text-anchor="middle" fill="#444">3</text>
<line x1="745.8" y1="830" x2="745.8" y2="833" stroke="#444"/>
<text x="745.8" y="845" text-anchor="middle" fill="#444">4</text>
<line x1="773.3" y1="830" x2="773.3" y2="833" stroke="#444"/>
<text x="773.3" y="845" text-anchor="middle" fill="#444">5</text>
<line x1="482" y1="830.0" x2="485" y2="830.0" stroke="#444"/>
<text x="479" y="833.0" text-anchor="end" fill="#444">-1.4e+02</text>
<line x1="482" y1="790.0" x2="485" y2="790.0" stroke="#444"/>
<text x="479" y="793.0" text-anchor="end" fill="#444">-99</text>
<line x1="482" y1="750.0" x2="485" y2="750.0" stroke="#444"/>
<text x="479" y="753.0" text-anchor="end" fill="#444">-57</text>
<line x1="482" y1="710.0" x2="485" y2="710.0" stroke="#444"/>
<text x="479" y="713.0" text-anchor="end" fill="#444">-16</text>
<line x1="482" y1="670.0" x2="485" y2="670.0" stroke="#444"/>
<text x="479" y="673.0" text-anchor="end" fill="#444">25</text>
<text x="636.0" y="864" text-anchor="middle" fill="#444">Event time (years from adoption)</text>
<text x="437" y="750.0" text-anchor="middle" fill="#444" transform="rotate(-90 437 750.0)">ATT (per 100k)</text>
<text x="805" y="608" text-anchor="end" fill="#888" font-size="10">Shaded band: pointwise 95% CI from cluster bootstrap. Vertical dashed line marks the year before adoption.</text>
</svg>