<svg xmlns="http://www.w3.org/2000/svg" viewBox="0 0 820 620" font-family="-apple-system, Segoe UI, Helvetica, Arial, sans-serif" font-size="11">
<text x="410.0" y="22" text-anchor="middle" font-size="14" font-weight="600">Callaway-Sant'Anna ATT by event time (RA) -- assault weapons ban</text>
<rect x="15" y="40" width="380" height="260" fill="#fafaf7" stroke="#e2e2dc"/>
<text x="205.0" y="58" text-anchor="middle" font-weight="600">Firearm suicide rate (per 100k)</text>
<line x1="75" y1="119.40428755387049" x2="377" y2="119.40428755387049" stroke="#aaaaaa" stroke-width="0.7"/>
<polygon points="88.7,95.3 116.2,98.1 143.6,199.2 171.1,202.7 226.0,116.0 253.5,99.9 280.9,158.9 308.4,191.7 335.8,90.0 363.3,250.0 363.3,250.0 335.8,90.0 308.4,191.7 280.9,158.9 253.5,99.9 226.0,116.0 171.1,202.7 143.6,199.2 116.2,98.1 88.7,95.3" fill="#1f3a5f" opacity="0.18"/>
<polyline points="88.7,95.3 116.2,98.1 143.6,199.2 171.1,202.7 226.0,116.0 253.5,99.9 280.9,158.9 308.4,191.7 335.8,90.0 363.3,250.0" fill="none" stroke="#1f3a5f" stroke-width="1.6"/>
<circle cx="88.7" cy="95.3" r="2.6" fill="#1f3a5f"/>
<circle cx="116.2" cy="98.1" r="2.6" fill="#1f3a5f"/>
<circle cx="143.6" cy="199.2" r="2.6" fill="#1f3a5f"/>
<circle cx="171.1" cy="202.7" r="2.6" fill="#1f3a5f"/>
<circle cx="226.0" cy="116.0" r="2.6" fill="#1f3a5f"/>
<circle cx="253.5" cy="99.9" r="2.6" fill="#1f3a5f"/>
<circle cx="280.9" cy="158.9" r="2.6" fill="#1f3a5f"/>
<circle cx="308.4" cy="191.7" r="2.6" fill="#1f3a5f"/>
<circle cx="335.8" cy="90.0" r="2.6" fill="#1f3a5f"/>
<circle cx="363.3" cy="250.0" r="2.6" fill="#1f3a5f"/>
<line x1="212.3" y1="90" x2="212.3" y2="250" stroke="#b9461a" stroke-dasharray="3 3"/>
<line x1="75" y1="250" x2="377" y2="250" stroke="#444"/>
<line x1="75" y1="90" x2="75" y2="250" stroke="#444"/>
<line x1="88.7" y1="250" x2="88.7" y2="253" stroke="#444"/>
<text x="88.7" y="265" text-anchor="middle" fill="#444">-5</text>
<line x1="116.2" y1="250" x2="116.2" y2="253" stroke="#444"/>
<text x="116.2" y="265" text-anchor="middle" fill="#444">-4</text>
<line x1="143.6" y1="250" x2="143.6" y2="253" stroke="#444"/>
<text x="143.6" y="265" text-anchor="middle" fill="#444">-3</text>
<line x1="171.1" y1="250" x2="171.1" y2="253" stroke="#444"/>
<text x="171.1" y="265" text-anchor="middle" fill="#444">-2</text>
<line x1="226.0" y1="250" x2="226.0" y2="253" stroke="#444"/>
<text x="226.0" y="265" text-anchor="middle" fill="#444">0</text>
<line x1="253.5" y1="250" x2="253.5" y2="253" stroke="#444"/>
<text x="253.5" y="265" text-anchor="middle" fill="#444">1</text>
<line x1="280.9" y1="250" x2="280.9" y2="253" stroke="#444"/>
<text x="280.9" y="265" text-anchor="middle" fill="#444">2</text>
<line x1="308.4" y1="250" x2="308.4" y2="253" stroke="#444"/>
<text x="308.4" y="265" text-anchor="middle" fill="#444">3</text>
<line x1="335.8" y1="250" x2="335.8" y2="253" stroke="#444"/>
<text x="335.8" y="265" text-anchor="middle" fill="#444">4</text>
<line x1="363.3" y1="250" x2="363.3" y2="253" stroke="#444"/>
<text x="363.3" y="265" text-anchor="middle" fill="#444">5</text>
<line x1="72" y1="250.0" x2="75" y2="250.0" stroke="#444"/>
<text x="69" y="253.0" text-anchor="end" fill="#444">-1.6</text>
<line x1="72" y1="210.0" x2="75" y2="210.0" stroke="#444"/>
<text x="69" y="213.0" text-anchor="end" fill="#444">-1.1</text>
<line x1="72" y1="170.0" x2="75" y2="170.0" stroke="#444"/>
<text x="69" y="173.0" text-anchor="end" fill="#444">-0.63</text>
<line x1="72" y1="130.0" x2="75" y2="130.0" stroke="#444"/>
<text x="69" y="133.0" text-anchor="end" fill="#444">-0.13</text>
<line x1="72" y1="90.0" x2="75" y2="90.0" stroke="#444"/>
<text x="69" y="93.0" text-anchor="end" fill="#444">0.37</text>
<text x="226.0" y="284" text-anchor="middle" fill="#444">Event time (years from adoption)</text>
<text x="27" y="170.0" text-anchor="middle" fill="#444" transform="rotate(-90 27 170.0)">ATT (per 100k)</text>
<rect x="425" y="40" width="380" height="260" fill="#fafaf7" stroke="#e2e2dc"/>
<text x="615.0" y="58" text-anchor="middle" font-weight="600">Non-firearm suicide rate (per 100k) [substitution test]</text>
<line x1="485" y1="213.92283019413495" x2="787" y2="213.92283019413495" stroke="#aaaaaa" stroke-width="0.7"/>
<polygon points="498.7,250.0 526.2,90.0 553.6,123.9 581.1,150.9 636.0,152.0 663.5,195.4 690.9,158.9 718.4,190.5 745.8,174.2 773.3,122.7 773.3,122.7 745.8,174.2 718.4,190.5 690.9,158.9 663.5,195.4 636.0,152.0 581.1,150.9 553.6,123.9 526.2,90.0 498.7,250.0" fill="#1f3a5f" opacity="0.18"/>
<polyline points="498.7,250.0 526.2,90.0 553.6,123.9 581.1,150.9 636.0,152.0 663.5,195.4 690.9,158.9 718.4,190.5 745.8,174.2 773.3,122.7" fill="none" stroke="#1f3a5f" stroke-width="1.6"/>
<circle cx="498.7" cy="250.0" r="2.6" fill="#1f3a5f"/>
<circle cx="526.2" cy="90.0" r="2.6" fill="#1f3a5f"/>
<circle cx="553.6" cy="123.9" r="2.6" fill="#1f3a5f"/>
<circle cx="581.1" cy="150.9" r="2.6" fill="#1f3a5f"/>
<circle cx="636.0" cy="152.0" r="2.6" fill="#1f3a5f"/>
<circle cx="663.5" cy="195.4" r="2.6" fill="#1f3a5f"/>
<circle cx="690.9" cy="158.9" r="2.6" fill="#1f3a5f"/>
<circle cx="718.4" cy="190.5" r="2.6" fill="#1f3a5f"/>
<circle cx="745.8" cy="174.2" r="2.6" fill="#1f3a5f"/>
<circle cx="773.3" cy="122.7" r="2.6" fill="#1f3a5f"/>
<line x1="622.3" y1="90" x2="622.3" y2="250" stroke="#b9461a" stroke-dasharray="3 3"/>
<line x1="485" y1="250" x2="787" y2="250" stroke="#444"/>
<line x1="485" y1="90" x2="485" y2="250" stroke="#444"/>
<line x1="498.7" y1="250" x2="498.7" y2="253" stroke="#444"/>
<text x="498.7" y="265" text-anchor="middle" fill="#444">-5</text>
<line x1="526.2" y1="250" x2="526.2" y2="253" stroke="#444"/>
<text x="526.2" y="265" text-anchor="middle" fill="#444">-4</text>
<line x1="553.6" y1="250" x2="553.6" y2="253" stroke="#444"/>
<text x="553.6" y="265" text-anchor="middle" fill="#444">-3</text>
<line x1="581.1" y1="250" x2="581.1" y2="253" stroke="#444"/>
<text x="581.1" y="265" text-anchor="middle" fill="#444">-2</text>
<line x1="636.0" y1="250" x2="636.0" y2="253" stroke="#444"/>
<text x="636.0" y="265" text-anchor="middle" fill="#444">0</text>
<line x1="663.5" y1="250" x2="663.5" y2="253" stroke="#444"/>
<text x="663.5" y="265" text-anchor="middle" fill="#444">1</text>
<line x1="690.9" y1="250" x2="690.9" y2="253" stroke="#444"/>
<text x="690.9" y="265" text-anchor="middle" fill="#444">2</text>
<line x1="718.4" y1="250" x2="718.4" y2="253" stroke="#444"/>
<text x="718.4" y="265" text-anchor="middle" fill="#444">3</text>
<line x1="745.8" y1="250" x2="745.8" y2="253" stroke="#444"/>
<text x="745.8" y="265" text-anchor="middle" fill="#444">4</text>
<line x1="773.3" y1="250" x2="773.3" y2="253" stroke="#444"/>
<text x="773.3" y="265" text-anchor="middle" fill="#444">5</text>
<line x1="482" y1="250.0" x2="485" y2="250.0" stroke="#444"/>
<text x="479" y="253.0" text-anchor="end" fill="#444">-0.62</text>
<line x1="482" y1="210.0" x2="485" y2="210.0" stroke="#444"/>
<text x="479" y="213.0" text-anchor="end" fill="#444">0.067</text>
<line x1="482" y1="170.0" x2="485" y2="170.0" stroke="#444"/>
<text x="479" y="173.0" text-anchor="end" fill="#444">0.75</text>
<line x1="482" y1="130.0" x2="485" y2="130.0" stroke="#444"/>
<text x="479" y="133.0" text-anchor="end" fill="#444">1.4</text>
<line x1="482" y1="90.0" x2="485" y2="90.0" stroke="#444"/>
<text x="479" y="93.0" text-anchor="end" fill="#444">2.1</text>
<text x="636.0" y="284" text-anchor="middle" fill="#444">Event time (years from adoption)</text>
<text x="437" y="170.0" text-anchor="middle" fill="#444" transform="rotate(-90 437 170.0)">ATT (per 100k)</text>
<rect x="15" y="330" width="380" height="260" fill="#fafaf7" stroke="#e2e2dc"/>
<text x="205.0" y="348" text-anchor="middle" font-weight="600">Total suicide rate (per 100k) [net effect]</text>
<line x1="75" y1="512.127278158939" x2="377" y2="512.127278158939" stroke="#aaaaaa" stroke-width="0.7"/>
<polygon points="88.7,529.6 116.2,380.0 143.6,482.0 171.1,510.0 226.0,451.1 253.5,481.0 280.9,487.3 308.4,540.0 335.8,454.1 363.3,516.0 363.3,516.0 335.8,454.1 308.4,540.0 280.9,487.3 253.5,481.0 226.0,451.1 171.1,510.0 143.6,482.0 116.2,380.0 88.7,529.6" fill="#1f3a5f" opacity="0.18"/>
<polyline points="88.7,529.6 116.2,380.0 143.6,482.0 171.1,510.0 226.0,451.1 253.5,481.0 280.9,487.3 308.4,540.0 335.8,454.1 363.3,516.0" fill="none" stroke="#1f3a5f" stroke-width="1.6"/>
<circle cx="88.7" cy="529.6" r="2.6" fill="#1f3a5f"/>
<circle cx="116.2" cy="380.0" r="2.6" fill="#1f3a5f"/>
<circle cx="143.6" cy="482.0" r="2.6" fill="#1f3a5f"/>
<circle cx="171.1" cy="510.0" r="2.6" fill="#1f3a5f"/>
<circle cx="226.0" cy="451.1" r="2.6" fill="#1f3a5f"/>
<circle cx="253.5" cy="481.0" r="2.6" fill="#1f3a5f"/>
<circle cx="280.9" cy="487.3" r="2.6" fill="#1f3a5f"/>
<circle cx="308.4" cy="540.0" r="2.6" fill="#1f3a5f"/>
<circle cx="335.8" cy="454.1" r="2.6" fill="#1f3a5f"/>
<circle cx="363.3" cy="516.0" r="2.6" fill="#1f3a5f"/>
<line x1="212.3" y1="380" x2="212.3" y2="540" stroke="#b9461a" stroke-dasharray="3 3"/>
<line x1="75" y1="540" x2="377" y2="540" stroke="#444"/>
<line x1="75" y1="380" x2="75" y2="540" stroke="#444"/>
<line x1="88.7" y1="540" x2="88.7" y2="543" stroke="#444"/>
<text x="88.7" y="555" text-anchor="middle" fill="#444">-5</text>
<line x1="116.2" y1="540" x2="116.2" y2="543" stroke="#444"/>
<text x="116.2" y="555" text-anchor="middle" fill="#444">-4</text>
<line x1="143.6" y1="540" x2="143.6" y2="543" stroke="#444"/>
<text x="143.6" y="555" text-anchor="middle" fill="#444">-3</text>
<line x1="171.1" y1="540" x2="171.1" y2="543" stroke="#444"/>
<text x="171.1" y="555" text-anchor="middle" fill="#444">-2</text>
<line x1="226.0" y1="540" x2="226.0" y2="543" stroke="#444"/>
<text x="226.0" y="555" text-anchor="middle" fill="#444">0</text>
<line x1="253.5" y1="540" x2="253.5" y2="543" stroke="#444"/>
<text x="253.5" y="555" text-anchor="middle" fill="#444">1</text>
<line x1="280.9" y1="540" x2="280.9" y2="543" stroke="#444"/>
<text x="280.9" y="555" text-anchor="middle" fill="#444">2</text>
<line x1="308.4" y1="540" x2="308.4" y2="543" stroke="#444"/>
<text x="308.4" y="555" text-anchor="middle" fill="#444">3</text>
<line x1="335.8" y1="540" x2="335.8" y2="543" stroke="#444"/>
<text x="335.8" y="555" text-anchor="middle" fill="#444">4</text>
<line x1="363.3" y1="540" x2="363.3" y2="543" stroke="#444"/>
<text x="363.3" y="555" text-anchor="middle" fill="#444">5</text>
<line x1="72" y1="540.0" x2="75" y2="540.0" stroke="#444"/>
<text x="69" y="543.0" text-anchor="end" fill="#444">-0.5</text>
<line x1="72" y1="500.0" x2="75" y2="500.0" stroke="#444"/>
<text x="69" y="503.0" text-anchor="end" fill="#444">0.22</text>
<line x1="72" y1="460.0" x2="75" y2="460.0" stroke="#444"/>
<text x="69" y="463.0" text-anchor="end" fill="#444">0.94</text>
<line x1="72" y1="420.0" x2="75" y2="420.0" stroke="#444"/>
<text x="69" y="423.0" text-anchor="end" fill="#444">1.7</text>
<line x1="72" y1="380.0" x2="75" y2="380.0" stroke="#444"/>
<text x="69" y="383.0" text-anchor="end" fill="#444">2.4</text>
<text x="226.0" y="574" text-anchor="middle" fill="#444">Event time (years from adoption)</text>
<text x="27" y="460.0" text-anchor="middle" fill="#444" transform="rotate(-90 27 460.0)">ATT (per 100k)</text>
<rect x="425" y="330" width="380" height="260" fill="#fafaf7" stroke="#e2e2dc"/>
<text x="615.0" y="348" text-anchor="middle" font-weight="600">Firearm homicide rate (per 100k)</text>
<line x1="485" y1="471.5392979834877" x2="787" y2="471.5392979834877" stroke="#aaaaaa" stroke-width="0.7"/>
<polygon points="498.7,454.2 526.2,466.2 553.6,482.7 581.1,503.8 636.0,497.4 663.5,540.0 690.9,396.9 718.4,422.8 745.8,380.0 773.3,424.1 773.3,424.1 745.8,380.0 718.4,422.8 690.9,396.9 663.5,540.0 636.0,497.4 581.1,503.8 553.6,482.7 526.2,466.2 498.7,454.2" fill="#1f3a5f" opacity="0.18"/>
<polyline points="498.7,454.2 526.2,466.2 553.6,482.7 581.1,503.8 636.0,497.4 663.5,540.0 690.9,396.9 718.4,422.8 745.8,380.0 773.3,424.1" fill="none" stroke="#1f3a5f" stroke-width="1.6"/>
<circle cx="498.7" cy="454.2" r="2.6" fill="#1f3a5f"/>
<circle cx="526.2" cy="466.2" r="2.6" fill="#1f3a5f"/>
<circle cx="553.6" cy="482.7" r="2.6" fill="#1f3a5f"/>
<circle cx="581.1" cy="503.8" r="2.6" fill="#1f3a5f"/>
<circle cx="636.0" cy="497.4" r="2.6" fill="#1f3a5f"/>
<circle cx="663.5" cy="540.0" r="2.6" fill="#1f3a5f"/>
<circle cx="690.9" cy="396.9" r="2.6" fill="#1f3a5f"/>
<circle cx="718.4" cy="422.8" r="2.6" fill="#1f3a5f"/>
<circle cx="745.8" cy="380.0" r="2.6" fill="#1f3a5f"/>
<circle cx="773.3" cy="424.1" r="2.6" fill="#1f3a5f"/>
<line x1="622.3" y1="380" x2="622.3" y2="540" stroke="#b9461a" stroke-dasharray="3 3"/>
<line x1="485" y1="540" x2="787" y2="540" stroke="#444"/>
<line x1="485" y1="380" x2="485" y2="540" stroke="#444"/>
<line x1="498.7" y1="540" x2="498.7" y2="543" stroke="#444"/>
<text x="498.7" y="555" text-anchor="middle" fill="#444">-5</text>
<line x1="526.2" y1="540" x2="526.2" y2="543" stroke="#444"/>
<text x="526.2" y="555" text-anchor="middle" fill="#444">-4</text>
<line x1="553.6" y1="540" x2="553.6" y2="543" stroke="#444"/>
<text x="553.6" y="555" text-anchor="middle" fill="#444">-3</text>
<line x1="581.1" y1="540" x2="581.1" y2="543" stroke="#444"/>
<text x="581.1" y="555" text-anchor="middle" fill="#444">-2</text>
<line x1="636.0" y1="540" x2="636.0" y2="543" stroke="#444"/>
<text x="636.0" y="555" text-anchor="middle" fill="#444">0</text>
<line x1="663.5" y1="540" x2="663.5" y2="543" stroke="#444"/>
<text x="663.5" y="555" text-anchor="middle" fill="#444">1</text>
<line x1="690.9" y1="540" x2="690.9" y2="543" stroke="#444"/>
<text x="690.9" y="555" text-anchor="middle" fill="#444">2</text>
<line x1="718.4" y1="540" x2="718.4" y2="543" stroke="#444"/>
<text x="718.4" y="555" text-anchor="middle" fill="#444">3</text>
<line x1="745.8" y1="540" x2="745.8" y2="543" stroke="#444"/>
<text x="745.8" y="555" text-anchor="middle" fill="#444">4</text>
<line x1="773.3" y1="540" x2="773.3" y2="543" stroke="#444"/>
<text x="773.3" y="555" text-anchor="middle" fill="#444">5</text>
<line x1="482" y1="540.0" x2="485" y2="540.0" stroke="#444"/>
<text x="479" y="543.0" text-anchor="end" fill="#444">-1.4</text>
<line x1="482" y1="500.0" x2="485" y2="500.0" stroke="#444"/>
<text x="479" y="503.0" text-anchor="end" fill="#444">-0.57</text>
<line x1="482" y1="460.0" x2="485" y2="460.0" stroke="#444"/>
<text x="479" y="463.0" text-anchor="end" fill="#444">0.23</text>
<line x1="482" y1="420.0" x2="485" y2="420.0" stroke="#444"/>
<text x="479" y="423.0" text-anchor="end" fill="#444">1</text>
<line x1="482" y1="380.0" x2="485" y2="380.0" stroke="#444"/>
<text x="479" y="383.0" text-anchor="end" fill="#444">1.8</text>
<text x="636.0" y="574" text-anchor="middle" fill="#444">Event time (years from adoption)</text>
<text x="437" y="460.0" text-anchor="middle" fill="#444" transform="rotate(-90 437 460.0)">ATT (per 100k)</text>
<rect x="15" y="620" width="380" height="260" fill="#fafaf7" stroke="#e2e2dc"/>
<text x="205.0" y="638" text-anchor="middle" font-weight="600">Total homicide rate (per 100k)</text>
<line x1="75" y1="769.5491443388121" x2="377" y2="769.5491443388121" stroke="#aaaaaa" stroke-width="0.7"/>
<polygon points="88.7,746.4 116.2,721.7 143.6,764.2 171.1,765.2 226.0,830.0 253.5,824.4 280.9,677.5 308.4,696.7 335.8,670.0 363.3,726.4 363.3,726.4 335.8,670.0 308.4,696.7 280.9,677.5 253.5,824.4 226.0,830.0 171.1,765.2 143.6,764.2 116.2,721.7 88.7,746.4" fill="#1f3a5f" opacity="0.18"/>
<polyline points="88.7,746.4 116.2,721.7 143.6,764.2 171.1,765.2 226.0,830.0 253.5,824.4 280.9,677.5 308.4,696.7 335.8,670.0 363.3,726.4" fill="none" stroke="#1f3a5f" stroke-width="1.6"/>
<circle cx="88.7" cy="746.4" r="2.6" fill="#1f3a5f"/>
<circle cx="116.2" cy="721.7" r="2.6" fill="#1f3a5f"/>
<circle cx="143.6" cy="764.2" r="2.6" fill="#1f3a5f"/>
<circle cx="171.1" cy="765.2" r="2.6" fill="#1f3a5f"/>
<circle cx="226.0" cy="830.0" r="2.6" fill="#1f3a5f"/>
<circle cx="253.5" cy="824.4" r="2.6" fill="#1f3a5f"/>
<circle cx="280.9" cy="677.5" r="2.6" fill="#1f3a5f"/>
<circle cx="308.4" cy="696.7" r="2.6" fill="#1f3a5f"/>
<circle cx="335.8" cy="670.0" r="2.6" fill="#1f3a5f"/>
<circle cx="363.3" cy="726.4" r="2.6" fill="#1f3a5f"/>
<line x1="212.3" y1="670" x2="212.3" y2="830" stroke="#b9461a" stroke-dasharray="3 3"/>
<line x1="75" y1="830" x2="377" y2="830" stroke="#444"/>
<line x1="75" y1="670" x2="75" y2="830" stroke="#444"/>
<line x1="88.7" y1="830" x2="88.7" y2="833" stroke="#444"/>
<text x="88.7" y="845" text-anchor="middle" fill="#444">-5</text>
<line x1="116.2" y1="830" x2="116.2" y2="833" stroke="#444"/>
<text x="116.2" y="845" text-anchor="middle" fill="#444">-4</text>
<line x1="143.6" y1="830" x2="143.6" y2="833" stroke="#444"/>
<text x="143.6" y="845" text-anchor="middle" fill="#444">-3</text>
<line x1="171.1" y1="830" x2="171.1" y2="833" stroke="#444"/>
<text x="171.1" y="845" text-anchor="middle" fill="#444">-2</text>
<line x1="226.0" y1="830" x2="226.0" y2="833" stroke="#444"/>
<text x="226.0" y="845" text-anchor="middle" fill="#444">0</text>
<line x1="253.5" y1="830" x2="253.5" y2="833" stroke="#444"/>
<text x="253.5" y="845" text-anchor="middle" fill="#444">1</text>
<line x1="280.9" y1="830" x2="280.9" y2="833" stroke="#444"/>
<text x="280.9" y="845" text-anchor="middle" fill="#444">2</text>
<line x1="308.4" y1="830" x2="308.4" y2="833" stroke="#444"/>
<text x="308.4" y="845" text-anchor="middle" fill="#444">3</text>
<line x1="335.8" y1="830" x2="335.8" y2="833" stroke="#444"/>
<text x="335.8" y="845" text-anchor="middle" fill="#444">4</text>
<line x1="363.3" y1="830" x2="363.3" y2="833" stroke="#444"/>
<text x="363.3" y="845" text-anchor="middle" fill="#444">5</text>
<line x1="72" y1="830.0" x2="75" y2="830.0" stroke="#444"/>
<text x="69" y="833.0" text-anchor="end" fill="#444">-1.1</text>
<line x1="72" y1="790.0" x2="75" y2="790.0" stroke="#444"/>
<text x="69" y="793.0" text-anchor="end" fill="#444">-0.36</text>
<line x1="72" y1="750.0" x2="75" y2="750.0" stroke="#444"/>
<text x="69" y="753.0" text-anchor="end" fill="#444">0.34</text>
<line x1="72" y1="710.0" x2="75" y2="710.0" stroke="#444"/>
<text x="69" y="713.0" text-anchor="end" fill="#444">1</text>
<line x1="72" y1="670.0" x2="75" y2="670.0" stroke="#444"/>
<text x="69" y="673.0" text-anchor="end" fill="#444">1.7</text>
<text x="226.0" y="864" text-anchor="middle" fill="#444">Event time (years from adoption)</text>
<text x="27" y="750.0" text-anchor="middle" fill="#444" transform="rotate(-90 27 750.0)">ATT (per 100k)</text>
<rect x="425" y="620" width="380" height="260" fill="#fafaf7" stroke="#e2e2dc"/>
<text x="615.0" y="638" text-anchor="middle" font-weight="600">Motor vehicle theft rate (per 100k) [placebo]</text>
<line x1="485" y1="791.7763352538557" x2="787" y2="791.7763352538557" stroke="#aaaaaa" stroke-width="0.7"/>
<polygon points="498.7,690.9 526.2,756.3 553.6,800.3 581.1,830.0 636.0,811.7 663.5,819.4 690.9,731.7 718.4,670.0 745.8,682.5 773.3,768.1 773.3,768.1 745.8,682.5 718.4,670.0 690.9,731.7 663.5,819.4 636.0,811.7 581.1,830.0 553.6,800.3 526.2,756.3 498.7,690.9" fill="#1f3a5f" opacity="0.18"/>
<polyline points="498.7,690.9 526.2,756.3 553.6,800.3 581.1,830.0 636.0,811.7 663.5,819.4 690.9,731.7 718.4,670.0 745.8,682.5 773.3,768.1" fill="none" stroke="#1f3a5f" stroke-width="1.6"/>
<circle cx="498.7" cy="690.9" r="2.6" fill="#1f3a5f"/>
<circle cx="526.2" cy="756.3" r="2.6" fill="#1f3a5f"/>
<circle cx="553.6" cy="800.3" r="2.6" fill="#1f3a5f"/>
<circle cx="581.1" cy="830.0" r="2.6" fill="#1f3a5f"/>
<circle cx="636.0" cy="811.7" r="2.6" fill="#1f3a5f"/>
<circle cx="663.5" cy="819.4" r="2.6" fill="#1f3a5f"/>
<circle cx="690.9" cy="731.7" r="2.6" fill="#1f3a5f"/>
<circle cx="718.4" cy="670.0" r="2.6" fill="#1f3a5f"/>
<circle cx="745.8" cy="682.5" r="2.6" fill="#1f3a5f"/>
<circle cx="773.3" cy="768.1" r="2.6" fill="#1f3a5f"/>
<line x1="622.3" y1="670" x2="622.3" y2="830" stroke="#b9461a" stroke-dasharray="3 3"/>
<line x1="485" y1="830" x2="787" y2="830" stroke="#444"/>
<line x1="485" y1="670" x2="485" y2="830" stroke="#444"/>
<line x1="498.7" y1="830" x2="498.7" y2="833" stroke="#444"/>
<text x="498.7" y="845" text-anchor="middle" fill="#444">-5</text>
<line x1="526.2" y1="830" x2="526.2" y2="833" stroke="#444"/>
<text x="526.2" y="845" text-anchor="middle" fill="#444">-4</text>
<line x1="553.6" y1="830" x2="553.6" y2="833" stroke="#444"/>
<text x="553.6" y="845" text-anchor="middle" fill="#444">-3</text>
<line x1="581.1" y1="830" x2="581.1" y2="833" stroke="#444"/>
<text x="581.1" y="845" text-anchor="middle" fill="#444">-2</text>
<line x1="636.0" y1="830" x2="636.0" y2="833" stroke="#444"/>
<text x="636.0" y="845" text-anchor="middle" fill="#444">0</text>
<line x1="663.5" y1="830" x2="663.5" y2="833" stroke="#444"/>
<text x="663.5" y="845" text-anchor="middle" fill="#444">1</text>
<line x1="690.9" y1="830" x2="690.9" y2="833" stroke="#444"/>
<text x="690.9" y="845" text-anchor="middle" fill="#444">2</text>
<line x1="718.4" y1="830" x2="718.4" y2="833" stroke="#444"/>
<text x="718.4" y="845" text-anchor="middle" fill="#444">3</text>
<line x1="745.8" y1="830" x2="745.8" y2="833" stroke="#444"/>
<text x="745.8" y="845" text-anchor="middle" fill="#444">4</text>
<line x1="773.3" y1="830" x2="773.3" y2="833" stroke="#444"/>
<text x="773.3" y="845" text-anchor="middle" fill="#444">5</text>
<line x1="482" y1="830.0" x2="485" y2="830.0" stroke="#444"/>
<text x="479" y="833.0" text-anchor="end" fill="#444">-22</text>
<line x1="482" y1="790.0" x2="485" y2="790.0" stroke="#444"/>
<text x="479" y="793.0" text-anchor="end" fill="#444">1</text>
<line x1="482" y1="750.0" x2="485" y2="750.0" stroke="#444"/>
<text x="479" y="753.0" text-anchor="end" fill="#444">24</text>
<line x1="482" y1="710.0" x2="485" y2="710.0" stroke="#444"/>
<text x="479" y="713.0" text-anchor="end" fill="#444">47</text>
<line x1="482" y1="670.0" x2="485" y2="670.0" stroke="#444"/>
<text x="479" y="673.0" text-anchor="end" fill="#444">70</text>
<text x="636.0" y="864" text-anchor="middle" fill="#444">Event time (years from adoption)</text>
<text x="437" y="750.0" text-anchor="middle" fill="#444" transform="rotate(-90 437 750.0)">ATT (per 100k)</text>
<text x="805" y="608" text-anchor="end" fill="#888" font-size="10">Shaded band: pointwise 95% CI from cluster bootstrap. Vertical dashed line marks the year before adoption.</text>
</svg>