<svg xmlns="http://www.w3.org/2000/svg" viewBox="0 0 720 380" font-family="-apple-system, Segoe UI, Helvetica, Arial, sans-serif" font-size="12">
<rect x="0" y="0" width="720" height="380" fill="#fafaf7"/>
<text x="360.0" y="22" text-anchor="middle" font-size="14" font-weight="600">Colorado (2013): Firearm homicide rate (per 100k)</text>
<polyline points="60.0,266.5 88.2,265.1 116.4,253.8 144.5,278.0 172.7,270.7 200.9,263.5 229.1,270.2 257.3,289.1 285.5,286.0 313.6,262.9 341.8,283.4 370.0,287.4 398.2,284.0 426.4,280.6 454.5,244.1 482.7,239.2 510.9,237.3 539.1,252.7 567.3,227.6 595.5,269.8 623.6,263.0 651.8,245.4 680.0,235.2" fill="none" stroke="#bbb" stroke-width="0.6" opacity="0.6"/>
<polyline points="60.0,230.4 88.2,233.7 116.4,225.7 144.5,243.1 172.7,227.5 200.9,224.1 229.1,212.2 257.3,220.9 285.5,230.6 313.6,241.1 341.8,239.0 370.0,235.6 398.2,232.9 426.4,239.8 454.5,213.7 482.7,197.1 510.9,183.7 539.1,194.1 567.3,189.7 595.5,169.8 623.6,151.6 651.8,159.1 680.0,158.1" fill="none" stroke="#bbb" stroke-width="0.6" opacity="0.6"/>
<polyline points="60.0,264.8 88.2,248.2 116.4,259.6 144.5,251.7 172.7,246.2 200.9,246.3 229.1,247.8 257.3,251.9 285.5,247.4 313.6,259.0 341.8,253.8 370.0,244.8 398.2,251.2 426.4,247.4 454.5,250.3 482.7,238.9 510.9,235.0 539.1,234.4 567.3,228.6 595.5,197.5 623.6,197.8 651.8,194.8 680.0,206.2" fill="none" stroke="#bbb" stroke-width="0.6" opacity="0.6"/>
<polyline points="60.0,236.7 88.2,233.9 116.4,243.5 144.5,241.7 172.7,236.3 200.9,236.5 229.1,245.4 257.3,251.4 285.5,272.8 313.6,262.7 341.8,265.9 370.0,267.4 398.2,268.5 426.4,276.7 454.5,272.8 482.7,261.0 510.9,261.5 539.1,264.7 567.3,266.9 595.5,251.0 623.6,241.2 651.8,231.8 680.0,246.7" fill="none" stroke="#bbb" stroke-width="0.6" opacity="0.6"/>
<polyline points="60.0,272.1 88.2,268.3 116.4,267.4 144.5,269.4 172.7,271.5 200.9,260.2 229.1,251.4 257.3,255.1 285.5,261.5 313.6,264.8 341.8,262.1 370.0,259.9 398.2,263.6 426.4,264.4 454.5,261.4 482.7,255.3 510.9,259.2 539.1,258.2 567.3,256.6 595.5,244.6 623.6,249.5 651.8,250.0 680.0,257.5" fill="none" stroke="#bbb" stroke-width="0.6" opacity="0.6"/>
<polyline points="60.0,247.6 88.2,245.7 116.4,245.0 144.5,257.2 172.7,255.7 200.9,249.2 229.1,242.2 257.3,248.9 285.5,257.6 313.6,258.4 341.8,259.7 370.0,254.9 398.2,256.5 426.4,252.8 454.5,243.7 482.7,235.8 510.9,235.1 539.1,238.5 567.3,233.5 595.5,209.3 623.6,195.5 651.8,195.7 680.0,213.5" fill="none" stroke="#bbb" stroke-width="0.6" opacity="0.6"/>
<polyline points="60.0,307.8 88.2,301.7 116.4,307.0 144.5,309.1 172.7,312.2 200.9,308.3 229.1,310.3 257.3,306.3 285.5,307.3 313.6,310.7 341.8,314.5 370.0,311.7 398.2,310.9 426.4,312.7 454.5,311.9 482.7,297.5 510.9,313.7 539.1,299.2 567.3,304.5 595.5,302.6 623.6,296.8 651.8,301.2 680.0,299.4" fill="none" stroke="#bbb" stroke-width="0.6" opacity="0.6"/>
<polyline points="60.0,306.8 88.2,304.2 116.4,306.8 144.5,304.2 172.7,307.3 200.9,300.9 229.1,309.5 257.3,302.7 285.5,309.1 313.6,302.9 341.8,304.2 370.0,303.5 398.2,307.3 426.4,302.4 454.5,297.9 482.7,297.2 510.9,291.1 539.1,302.2 567.3,297.3 595.5,283.5 623.6,291.5 651.8,291.2 680.0,288.1" fill="none" stroke="#bbb" stroke-width="0.6" opacity="0.6"/>
<polyline points="60.0,293.0 88.2,303.0 116.4,299.6 144.5,302.7 172.7,292.2 200.9,296.2 229.1,292.4 257.3,306.3 285.5,308.9 313.6,307.4 341.8,304.3 370.0,302.8 398.2,306.1 426.4,300.7 454.5,300.2 482.7,305.8 510.9,297.0 539.1,294.5 567.3,304.3 595.5,299.0 623.6,298.4 651.8,292.1 680.0,295.7" fill="none" stroke="#bbb" stroke-width="0.6" opacity="0.6"/>
<polyline points="60.0,256.3 88.2,266.7 116.4,266.0 144.5,271.0 172.7,264.6 200.9,263.5 229.1,266.4 257.3,269.9 285.5,268.2 313.6,273.0 341.8,277.4 370.0,267.9 398.2,258.9 426.4,266.8 454.5,260.1 482.7,245.9 510.9,245.7 539.1,247.3 567.3,249.4 595.5,222.8 623.6,219.7 651.8,229.3 680.0,235.7" fill="none" stroke="#bbb" stroke-width="0.6" opacity="0.6"/>
<polyline points="60.0,273.9 88.2,282.2 116.4,280.5 144.5,277.3 172.7,288.7 200.9,283.3 229.1,284.4 257.3,281.9 285.5,275.3 313.6,286.6 341.8,281.0 370.0,287.4 398.2,282.1 426.4,284.9 454.5,275.3 482.7,267.3 510.9,256.8 539.1,262.9 567.3,273.5 595.5,246.6 623.6,253.8 651.8,261.6 680.0,256.7" fill="none" stroke="#bbb" stroke-width="0.6" opacity="0.6"/>
<polyline points="60.0,273.6 88.2,277.4 116.4,281.4 144.5,270.2 172.7,270.5 200.9,283.3 229.1,271.2 257.3,269.0 285.5,277.6 313.6,280.2 341.8,278.1 370.0,270.6 398.2,276.9 426.4,277.0 454.5,266.7 482.7,249.4 510.9,251.4 539.1,257.7 567.3,259.4 595.5,219.3 623.6,213.4 651.8,236.7 680.0,243.8" fill="none" stroke="#bbb" stroke-width="0.6" opacity="0.6"/>
<polyline points="60.0,201.3 88.2,181.0 116.4,178.3 144.5,175.2 172.7,181.1 200.9,184.3 229.1,171.0 257.3,191.8 285.5,188.7 313.6,194.7 341.8,196.0 370.0,197.6 398.2,193.2 426.4,200.8 454.5,191.6 482.7,172.7 510.9,170.6 539.1,180.0 567.3,167.2 595.5,110.3 623.6,93.7 651.8,110.0 680.0,110.3" fill="none" stroke="#bbb" stroke-width="0.6" opacity="0.6"/>
<polyline points="60.0,310.3 88.2,309.3 116.4,311.3 144.5,306.4 172.7,309.4 200.9,302.7 229.1,302.6 257.3,305.5 285.5,302.6 313.6,304.7 341.8,302.7 370.0,302.8 398.2,304.7 426.4,307.6 454.5,303.7 482.7,309.5 510.9,307.6 539.1,308.6 567.3,304.8 595.5,303.0 623.6,306.1 651.8,299.7 680.0,284.2" fill="none" stroke="#bbb" stroke-width="0.6" opacity="0.6"/>
<polyline points="60.0,252.8 88.2,254.3 116.4,256.0 144.5,254.7 172.7,254.5 200.9,249.0 229.1,252.6 257.3,254.4 285.5,253.4 313.6,260.0 341.8,250.7 370.0,241.9 398.2,253.2 426.4,263.9 454.5,260.7 482.7,254.8 510.9,260.7 539.1,255.6 567.3,258.3 595.5,230.5 623.6,227.4 651.8,235.3 680.0,251.2" fill="none" stroke="#bbb" stroke-width="0.6" opacity="0.6"/>
<polyline points="60.0,299.6 88.2,303.1 116.4,298.1 144.5,295.8 172.7,295.2 200.9,297.8 229.1,299.9 257.3,299.8 285.5,306.0 313.6,301.5 341.8,303.1 370.0,302.7 398.2,299.2 426.4,303.4 454.5,295.7 482.7,297.9 510.9,299.3 539.1,302.1 567.3,294.0 595.5,285.9 623.6,280.4 651.8,285.1 680.0,288.6" fill="none" stroke="#bbb" stroke-width="0.6" opacity="0.6"/>
<polyline points="60.0,254.5 88.2,259.9 116.4,268.0 144.5,259.9 172.7,252.3 200.9,252.3 229.1,259.3 257.3,238.9 285.5,248.7 313.6,245.3 341.8,252.4 370.0,250.8 398.2,254.9 426.4,247.9 454.5,220.2 482.7,219.3 510.9,198.6 539.1,200.5 567.3,204.7 595.5,174.4 623.6,190.3 651.8,186.3 680.0,208.2" fill="none" stroke="#bbb" stroke-width="0.6" opacity="0.6"/>
<polyline points="60.0,216.3 88.2,223.9 116.4,227.4 144.5,227.3 172.7,239.6 200.9,219.1 229.1,220.7 257.3,210.0 285.5,231.4 313.6,228.4 341.8,221.8 370.0,224.2 398.2,224.8 426.4,206.0 454.5,203.7 482.7,195.9 510.9,190.1 539.1,179.4 567.3,159.0 595.5,100.8 623.6,62.7 651.8,93.8 680.0,101.7" fill="none" stroke="#bbb" stroke-width="0.6" opacity="0.6"/>
<polyline points="60.0,289.0 88.2,304.6 116.4,289.4 144.5,300.7 172.7,293.9 200.9,302.3 229.1,297.1 257.3,296.0 285.5,289.6 313.6,295.2 341.8,303.1 370.0,304.5 398.2,299.5 426.4,299.7 454.5,292.4 482.7,295.1 510.9,291.5 539.1,293.0 567.3,288.4 595.5,278.0 623.6,282.4 651.8,272.5 680.0,283.1" fill="none" stroke="#bbb" stroke-width="0.6" opacity="0.6"/>
<polyline points="60.0,251.5 88.2,245.0 116.4,257.0 144.5,255.7 172.7,250.7 200.9,253.5 229.1,252.2 257.3,252.1 285.5,261.4 313.6,266.5 341.8,266.6 370.0,261.6 398.2,263.4 426.4,266.7 454.5,261.2 482.7,246.5 510.9,251.9 539.1,256.7 567.3,250.9 595.5,227.0 623.6,213.7 651.8,223.4 680.0,231.3" fill="none" stroke="#bbb" stroke-width="0.6" opacity="0.6"/>
<polyline points="60.0,307.2 88.2,311.2 116.4,293.1 144.5,305.2 172.7,311.2 200.9,315.2 229.1,307.2 257.3,317.3 285.5,307.3 313.6,302.0 341.8,302.2 370.0,302.6 398.2,306.6 426.4,306.8 454.5,298.6 482.7,300.3 510.9,303.6 539.1,295.3 567.3,300.4 595.5,288.7 623.6,284.2 651.8,289.3 680.0,289.5" fill="none" stroke="#bbb" stroke-width="0.6" opacity="0.6"/>
<polyline points="60.0,301.6 88.2,297.2 116.4,294.3 144.5,299.6 172.7,296.8 200.9,294.7 229.1,286.1 257.3,281.9 285.5,295.1 313.6,288.4 341.8,288.6 370.0,285.4 398.2,282.2 426.4,290.6 454.5,283.3 482.7,286.9 510.9,297.8 539.1,300.6 567.3,290.7 595.5,284.7 623.6,287.1 651.8,286.0 680.0,295.3" fill="none" stroke="#bbb" stroke-width="0.6" opacity="0.6"/>
<polyline points="60.0,270.5 88.2,261.4 116.4,257.9 144.5,262.7 172.7,266.0 200.9,269.2 229.1,266.3 257.3,261.5 285.5,258.4 313.6,269.8 341.8,272.2 370.0,267.9 398.2,266.7 426.4,270.4 454.5,261.1 482.7,247.4 510.9,255.0 539.1,233.8 567.3,220.3 595.5,226.2 623.6,177.5 651.8,184.6 680.0,185.0" fill="none" stroke="#bbb" stroke-width="0.6" opacity="0.6"/>
<polyline points="60.0,249.9 88.2,249.5 116.4,252.0 144.5,249.3 172.7,255.9 200.9,249.7 229.1,251.6 257.3,267.8 285.5,270.0 313.6,274.4 341.8,277.6 370.0,281.4 398.2,276.7 426.4,269.2 454.5,260.3 482.7,252.1 510.9,251.6 539.1,250.3 567.3,268.0 595.5,256.6 623.6,235.9 651.8,244.3 680.0,243.2" fill="none" stroke="#bbb" stroke-width="0.6" opacity="0.6"/>
<polyline points="60.0,281.5 88.2,277.4 116.4,281.1 144.5,279.0 172.7,271.4 200.9,266.7 229.1,270.9 257.3,272.2 285.5,276.5 313.6,273.1 341.8,266.8 370.0,268.6 398.2,267.6 426.4,270.4 454.5,263.6 482.7,255.6 510.9,248.7 539.1,256.9 567.3,255.1 595.5,226.6 623.6,221.9 651.8,236.6 680.0,242.2" fill="none" stroke="#bbb" stroke-width="0.6" opacity="0.6"/>
<polyline points="60.0,270.6 88.2,275.7 116.4,266.4 144.5,272.2 172.7,268.1 200.9,262.6 229.1,263.6 257.3,265.3 285.5,265.6 313.6,272.3 341.8,260.9 370.0,253.9 398.2,257.8 426.4,265.2 454.5,244.6 482.7,239.2 510.9,242.6 539.1,256.9 567.3,237.3 595.5,230.3 623.6,234.4 651.8,240.6 680.0,247.3" fill="none" stroke="#bbb" stroke-width="0.6" opacity="0.6"/>
<polyline points="60.0,299.8 88.2,293.8 116.4,298.5 144.5,294.1 172.7,298.3 200.9,295.4 229.1,302.5 257.3,300.6 285.5,298.8 313.6,297.1 341.8,296.7 370.0,299.8 398.2,299.6 426.4,300.1 454.5,287.3 482.7,292.8 510.9,294.6 539.1,296.7 567.3,293.5 595.5,284.2 623.6,273.1 651.8,270.3 680.0,276.7" fill="none" stroke="#bbb" stroke-width="0.6" opacity="0.6"/>
<polyline points="60.0,270.9 88.2,269.7 116.4,268.7 144.5,264.9 172.7,261.8 200.9,255.9 229.1,259.9 257.3,263.1 285.5,268.0 313.6,266.5 341.8,265.6 370.0,262.1 398.2,268.3 426.4,270.4 454.5,264.8 482.7,263.1 510.9,256.8 539.1,258.9 567.3,262.2 595.5,238.0 623.6,232.1 651.8,234.6 680.0,248.8" fill="none" stroke="#bbb" stroke-width="0.6" opacity="0.6"/>
<polyline points="60.0,245.1 88.2,246.3 116.4,244.4 144.5,250.2 172.7,246.4 200.9,235.7 229.1,242.8 257.3,245.7 285.5,251.0 313.6,253.6 341.8,247.7 370.0,242.9 398.2,251.5 426.4,246.4 454.5,222.7 482.7,230.4 510.9,230.7 539.1,222.9 567.3,204.1 595.5,187.1 623.6,179.0 651.8,197.1 680.0,209.1" fill="none" stroke="#bbb" stroke-width="0.6" opacity="0.6"/>
<polyline points="60.0,305.4 88.2,308.8 116.4,310.6 144.5,305.6 172.7,305.7 200.9,312.3 229.1,309.2 257.3,301.3 285.5,301.4 313.6,312.5 341.8,307.9 370.0,308.0 398.2,311.2 426.4,305.2 454.5,294.8 482.7,296.5 510.9,301.0 539.1,293.9 567.3,301.3 595.5,279.8 623.6,281.4 651.8,279.1 680.0,301.9" fill="none" stroke="#bbb" stroke-width="0.6" opacity="0.6"/>
<polyline points="60.0,248.5 88.2,245.7 116.4,251.7 144.5,255.1 172.7,237.4 200.9,247.0 229.1,245.6 257.3,247.7 285.5,246.4 313.6,257.9 341.8,255.2 370.0,252.1 398.2,256.1 426.4,255.4 454.5,246.5 482.7,233.3 510.9,227.8 539.1,221.5 567.3,228.0 595.5,195.4 623.6,185.4 651.8,206.3 680.0,197.2" fill="none" stroke="#bbb" stroke-width="0.6" opacity="0.6"/>
<polyline points="60.0,264.5 88.2,264.6 116.4,260.8 144.5,264.8 172.7,261.0 200.9,260.7 229.1,261.9 257.3,264.1 285.5,265.2 313.6,270.6 341.8,276.6 370.0,273.1 398.2,272.9 426.4,271.2 454.5,265.3 482.7,260.8 510.9,260.3 539.1,265.9 567.3,259.6 595.5,241.3 623.6,232.8 651.8,239.2 680.0,245.8" fill="none" stroke="#bbb" stroke-width="0.6" opacity="0.6"/>
<polyline points="60.0,294.8 88.2,302.4 116.4,297.4 144.5,301.5 172.7,300.3 200.9,302.6 229.1,297.8 257.3,306.0 285.5,303.4 313.6,304.7 341.8,304.9 370.0,304.7 398.2,302.6 426.4,301.5 454.5,299.7 482.7,297.0 510.9,295.3 539.1,303.4 567.3,296.8 595.5,287.6 623.6,290.3 651.8,299.1 680.0,294.5" fill="none" stroke="#bbb" stroke-width="0.6" opacity="0.6"/>
<polyline points="60.0,267.9 88.2,266.6 116.4,258.5 144.5,266.4 172.7,257.1 200.9,269.5 229.1,265.9 257.3,275.7 285.5,272.9 313.6,273.7 341.8,280.6 370.0,282.1 398.2,281.0 426.4,281.0 454.5,274.9 482.7,263.3 510.9,264.9 539.1,266.8 567.3,265.7 595.5,251.4 623.6,242.2 651.8,234.9 680.0,247.3" fill="none" stroke="#bbb" stroke-width="0.6" opacity="0.6"/>
<polyline points="60.0,285.3 88.2,288.4 116.4,284.3 144.5,295.5 172.7,280.2 200.9,291.8 229.1,287.0 257.3,298.8 285.5,293.8 313.6,293.3 341.8,297.9 370.0,289.0 398.2,291.5 426.4,290.2 454.5,278.3 482.7,275.4 510.9,282.0 539.1,283.4 567.3,283.5 595.5,261.5 623.6,253.8 651.8,256.9 680.0,266.1" fill="none" stroke="#bbb" stroke-width="0.6" opacity="0.6"/>
<polyline points="60.0,290.3 88.2,270.4 116.4,274.7 144.5,280.4 172.7,276.9 200.9,276.9 229.1,284.6 257.3,291.0 285.5,277.0 313.6,284.6 341.8,275.0 370.0,271.5 398.2,287.4 426.4,276.9 454.5,282.4 482.7,262.5 510.9,268.4 539.1,270.2 567.3,262.7 595.5,254.5 623.6,255.3 651.8,258.5 680.0,272.2" fill="none" stroke="#bbb" stroke-width="0.6" opacity="0.6"/>
<polyline points="60.0,296.6 88.2,296.7 116.4,299.4 144.5,304.6 172.7,289.6 200.9,304.8 229.1,297.6 257.3,307.6 285.5,293.6 313.6,305.9 341.8,290.1 370.0,303.9 398.2,297.4 426.4,297.4 454.5,288.7 482.7,293.1 510.9,301.7 539.1,288.3 567.3,281.7 595.5,277.5 623.6,295.1 651.8,286.3 680.0,295.3" fill="none" stroke="#bbb" stroke-width="0.6" opacity="0.6"/>
<polyline points="60.0,288.1 88.2,284.3 116.4,285.0 144.5,284.8 172.7,286.2 200.9,287.8 229.1,289.7 257.3,289.1 285.5,289.0 313.6,291.2 341.8,290.2 370.0,290.4 398.2,292.5 426.4,292.4 454.5,283.9 482.7,280.8 510.9,284.4 539.1,280.0 567.3,278.4 595.5,268.0 623.6,255.7 651.8,255.2 680.0,265.1" fill="none" stroke="#1f3a5f" stroke-width="2" stroke-dasharray="6 4"/>
<polyline points="60.0,288.5 88.2,283.7 116.4,284.0 144.5,280.6 172.7,285.6 200.9,289.1 229.1,293.2 257.3,288.9 285.5,289.6 313.6,292.5 341.8,291.9 370.0,288.7 398.2,291.4 426.4,292.8 454.5,285.0 482.7,279.9 510.9,280.6 539.1,274.8 567.3,280.6 595.5,265.2 623.6,256.2 651.8,250.4 680.0,260.4" fill="none" stroke="#b9461a" stroke-width="2.4"/>
<line x1="384.1" y1="50" x2="384.1" y2="330" stroke="#1f2024" stroke-width="0.8" stroke-dasharray="4 3"/>
<text x="384.1" y="45" text-anchor="middle" fill="#1f2024" font-size="10">adoption (2013)</text>
<line x1="60" y1="330" x2="680" y2="330" stroke="#444"/>
<line x1="60" y1="50" x2="60" y2="330" stroke="#444"/>
<line x1="60.0" y1="330" x2="60.0" y2="334" stroke="#444"/>
<text x="60.0" y="348" text-anchor="middle" fill="#444">2001</text>
<line x1="116.4" y1="330" x2="116.4" y2="334" stroke="#444"/>
<text x="116.4" y="348" text-anchor="middle" fill="#444">2003</text>
<line x1="172.7" y1="330" x2="172.7" y2="334" stroke="#444"/>
<text x="172.7" y="348" text-anchor="middle" fill="#444">2005</text>
<line x1="229.1" y1="330" x2="229.1" y2="334" stroke="#444"/>
<text x="229.1" y="348" text-anchor="middle" fill="#444">2007</text>
<line x1="285.5" y1="330" x2="285.5" y2="334" stroke="#444"/>
<text x="285.5" y="348" text-anchor="middle" fill="#444">2009</text>
<line x1="341.8" y1="330" x2="341.8" y2="334" stroke="#444"/>
<text x="341.8" y="348" text-anchor="middle" fill="#444">2011</text>
<line x1="398.2" y1="330" x2="398.2" y2="334" stroke="#444"/>
<text x="398.2" y="348" text-anchor="middle" fill="#444">2013</text>
<line x1="454.5" y1="330" x2="454.5" y2="334" stroke="#444"/>
<text x="454.5" y="348" text-anchor="middle" fill="#444">2015</text>
<line x1="510.9" y1="330" x2="510.9" y2="334" stroke="#444"/>
<text x="510.9" y="348" text-anchor="middle" fill="#444">2017</text>
<line x1="567.3" y1="330" x2="567.3" y2="334" stroke="#444"/>
<text x="567.3" y="348" text-anchor="middle" fill="#444">2019</text>
<line x1="623.6" y1="330" x2="623.6" y2="334" stroke="#444"/>
<text x="623.6" y="348" text-anchor="middle" fill="#444">2021</text>
<line x1="680.0" y1="330" x2="680.0" y2="334" stroke="#444"/>
<text x="680.0" y="348" text-anchor="middle" fill="#444">2023</text>
<line x1="56" y1="330.0" x2="60" y2="330.0" stroke="#444"/>
<text x="53" y="333.0" text-anchor="end" fill="#444">-0.99</text>
<line x1="56" y1="260.0" x2="60" y2="260.0" stroke="#444"/>
<text x="53" y="263.0" text-anchor="end" fill="#444">4.5</text>
<line x1="56" y1="190.0" x2="60" y2="190.0" stroke="#444"/>
<text x="53" y="193.0" text-anchor="end" fill="#444">9.9</text>
<line x1="56" y1="120.0" x2="60" y2="120.0" stroke="#444"/>
<text x="53" y="123.0" text-anchor="end" fill="#444">15</text>
<line x1="56" y1="50.0" x2="60" y2="50.0" stroke="#444"/>
<text x="53" y="53.0" text-anchor="end" fill="#444">21</text>
<rect x="520" y="60" width="190" height="60" fill="white" stroke="#e2e2dc"/>
<line x1="530" y1="75" x2="560" y2="75" stroke="#b9461a" stroke-width="2.4"/>
<text x="565" y="79" font-size="11">Colorado (treated)</text>
<line x1="530" y1="95" x2="560" y2="95" stroke="#1f3a5f" stroke-width="2" stroke-dasharray="6 4"/>
<text x="565" y="99" font-size="11">Synthetic counterfactual</text>
<line x1="530" y1="112" x2="560" y2="112" stroke="#bbb" stroke-width="0.6"/>
<text x="565" y="116" font-size="10">Donor states (gray)</text>
</svg>