<svg xmlns="http://www.w3.org/2000/svg" viewBox="0 0 720 380" font-family="-apple-system, Segoe UI, Helvetica, Arial, sans-serif" font-size="12">
<rect x="0" y="0" width="720" height="380" fill="#fafaf7"/>
<text x="360.0" y="22" text-anchor="middle" font-size="14" font-weight="600">Colorado (2013): Motor vehicle theft rate (per 100k) [placebo]</text>
<polyline points="60.0,231.2 88.2,237.9 116.4,239.2 144.5,248.6 172.7,236.5 200.9,239.5 229.1,244.9 257.3,273.4 285.5,272.3 313.6,275.9 341.8,284.3 370.0,280.3 398.2,275.1 426.4,273.7 454.5,263.8 482.7,231.4 510.9,192.4 539.1,200.0 567.3,244.7 595.5,265.7 623.6,271.8 651.8,270.8 680.0,265.6" fill="none" stroke="#bbb" stroke-width="0.6" opacity="0.6"/>
<polyline points="60.0,262.5 88.2,255.9 116.4,250.6 144.5,256.0 172.7,261.0 200.9,252.0 229.1,256.5 257.3,261.0 285.5,273.8 313.6,276.2 341.8,277.0 370.0,281.1 398.2,277.8 426.4,280.1 454.5,279.2 482.7,272.4 510.9,267.3 539.1,265.1 567.3,268.2 595.5,277.0 623.6,284.2 651.8,277.5 680.0,277.2" fill="none" stroke="#bbb" stroke-width="0.6" opacity="0.6"/>
<polyline points="60.0,265.1 88.2,269.9 116.4,277.4 144.5,273.4 172.7,267.3 200.9,266.1 229.1,271.0 257.3,275.3 285.5,279.6 313.6,284.6 341.8,283.2 370.0,283.6 398.2,284.2 426.4,284.7 454.5,283.4 482.7,272.6 510.9,272.3 539.1,272.0 567.3,270.9 595.5,267.5 623.6,263.1 651.8,269.7 680.0,277.8" fill="none" stroke="#bbb" stroke-width="0.6" opacity="0.6"/>
<polyline points="60.0,94.5 88.2,76.3 116.4,85.4 144.5,99.4 172.7,109.2 200.9,110.1 229.1,140.3 257.3,188.0 285.5,234.2 313.6,249.0 341.8,256.8 370.0,260.8 398.2,268.9 426.4,268.6 454.5,271.2 482.7,266.1 510.9,265.5 539.1,266.1 567.3,271.0 595.5,272.3 623.6,272.1 651.8,270.2 680.0,259.9" fill="none" stroke="#bbb" stroke-width="0.6" opacity="0.6"/>
<polyline points="60.0,198.6 88.2,203.1 116.4,215.2 144.5,222.3 172.7,228.7 200.9,228.9 229.1,233.5 257.3,247.2 285.5,265.2 313.6,277.5 341.8,280.5 370.0,283.9 398.2,287.5 426.4,286.6 454.5,282.1 482.7,280.2 510.9,281.2 539.1,283.8 567.3,286.6 595.5,288.0 623.6,306.5 651.8,298.8 680.0,297.5" fill="none" stroke="#bbb" stroke-width="0.6" opacity="0.6"/>
<polyline points="60.0,223.1 88.2,223.5 116.4,210.4 144.5,211.4 172.7,213.5 200.9,219.9 229.1,223.5 257.3,232.1 285.5,249.4 313.6,255.4 341.8,257.7 370.0,261.1 398.2,265.1 426.4,264.3 454.5,266.4 482.7,268.7 510.9,270.3 539.1,272.4 567.3,279.5 595.5,273.1 623.6,284.2 651.8,280.1 680.0,268.3" fill="none" stroke="#bbb" stroke-width="0.6" opacity="0.6"/>
<polyline points="60.0,198.5 88.2,138.8 116.4,145.0 144.5,166.6 172.7,158.3 200.9,186.0 229.1,212.9 257.3,235.0 285.5,240.4 313.6,237.4 341.8,252.5 370.0,263.6 398.2,252.6 426.4,236.6 454.5,239.2 482.7,238.0 510.9,241.6 539.1,233.8 567.3,242.1 595.5,239.2 623.6,225.9 651.8,231.1 680.0,233.1" fill="none" stroke="#bbb" stroke-width="0.6" opacity="0.6"/>
<polyline points="60.0,285.2 88.2,282.7 116.4,284.3 144.5,284.5 172.7,285.8 200.9,289.7 229.1,290.6 257.3,295.3 285.5,299.1 313.6,300.3 341.8,298.9 370.0,298.7 398.2,297.2 426.4,298.3 454.5,296.6 482.7,291.9 510.9,288.3 539.1,291.4 567.3,288.0 595.5,283.0 623.6,284.8 651.8,291.1 680.0,290.7" fill="none" stroke="#bbb" stroke-width="0.6" opacity="0.6"/>
<polyline points="60.0,286.9 88.2,283.3 116.4,283.8 144.5,283.2 172.7,281.9 200.9,290.4 229.1,294.0 257.3,304.1 285.5,307.4 313.6,309.9 341.8,310.1 370.0,309.4 398.2,307.4 426.4,305.6 454.5,303.1 482.7,300.6 510.9,300.2 539.1,303.4 567.3,308.7 595.5,307.0 623.6,308.5 651.8,308.0 680.0,311.7" fill="none" stroke="#bbb" stroke-width="0.6" opacity="0.6"/>
<polyline points="60.0,246.1 88.2,251.3 116.4,249.9 144.5,249.0 172.7,247.1 200.9,248.3 229.1,256.9 257.3,264.4 285.5,278.6 313.6,280.4 341.8,275.7 370.0,280.2 398.2,278.5 426.4,279.9 454.5,281.2 482.7,278.1 510.9,277.2 539.1,275.8 567.3,281.2 595.5,275.5 623.6,279.9 651.8,282.8 680.0,274.0" fill="none" stroke="#bbb" stroke-width="0.6" opacity="0.6"/>
<polyline points="60.0,259.4 88.2,266.5 116.4,261.3 144.5,255.6 172.7,248.8 200.9,254.6 229.1,256.0 257.3,266.9 285.5,279.6 313.6,279.8 341.8,274.4 370.0,273.9 398.2,275.0 426.4,272.9 454.5,272.5 482.7,269.1 510.9,269.3 539.1,264.9 567.3,273.5 595.5,270.8 623.6,266.0 651.8,272.7 680.0,262.5" fill="none" stroke="#bbb" stroke-width="0.6" opacity="0.6"/>
<polyline points="60.0,277.5 88.2,275.6 116.4,282.2 144.5,279.5 172.7,279.7 200.9,276.9 229.1,281.2 257.3,287.2 285.5,296.3 313.6,295.8 341.8,293.4 370.0,293.4 398.2,297.1 426.4,295.6 454.5,287.6 482.7,276.5 510.9,274.5 539.1,274.0 567.3,275.1 595.5,268.7 623.6,271.5 651.8,276.3 680.0,262.0" fill="none" stroke="#bbb" stroke-width="0.6" opacity="0.6"/>
<polyline points="60.0,214.0 88.2,222.2 116.4,225.4 144.5,225.4 172.7,253.7 200.9,242.7 229.1,244.9 257.3,256.5 285.5,268.4 313.6,277.6 341.8,282.5 370.0,289.2 398.2,282.8 426.4,281.8 454.5,280.3 482.7,277.4 510.9,273.3 539.1,270.4 567.3,274.3 595.5,266.2 623.6,262.4 651.8,255.6 680.0,238.6" fill="none" stroke="#bbb" stroke-width="0.6" opacity="0.6"/>
<polyline points="60.0,299.0 88.2,303.8 116.4,303.6 144.5,306.5 172.7,305.7 200.9,305.8 229.1,307.0 257.3,308.7 285.5,311.6 313.6,312.3 341.8,310.8 370.0,312.3 398.2,313.8 426.4,315.8 454.5,315.5 482.7,316.2 510.9,316.0 539.1,316.3 567.3,317.3 595.5,314.9 623.6,314.6 651.8,313.0 680.0,311.1" fill="none" stroke="#bbb" stroke-width="0.6" opacity="0.6"/>
<polyline points="60.0,201.8 88.2,211.6 116.4,202.6 144.5,210.3 172.7,215.7 200.9,211.3 229.1,230.3 257.3,244.6 285.5,259.7 313.6,263.7 341.8,269.8 370.0,269.4 398.2,271.9 426.4,278.9 454.5,284.8 482.7,281.3 510.9,283.1 539.1,288.3 567.3,287.4 595.5,286.0 623.6,278.5 651.8,265.8 680.0,262.8" fill="none" stroke="#bbb" stroke-width="0.6" opacity="0.6"/>
<polyline points="60.0,258.0 88.2,264.2 116.4,265.2 144.5,266.7 172.7,263.5 200.9,268.6 229.1,271.9 257.3,283.4 285.5,291.3 313.6,291.5 341.8,293.7 370.0,292.5 398.2,295.0 426.4,293.5 454.5,295.3 482.7,292.4 510.9,287.2 539.1,286.9 567.3,282.4 595.5,270.3 623.6,269.9 651.8,260.9 680.0,266.3" fill="none" stroke="#bbb" stroke-width="0.6" opacity="0.6"/>
<polyline points="60.0,211.1 88.2,212.4 116.4,204.7 144.5,222.5 172.7,224.0 200.9,226.0 229.1,232.8 257.3,246.1 285.5,260.5 313.6,265.7 341.8,269.1 370.0,265.2 398.2,265.4 426.4,265.5 454.5,263.1 482.7,258.2 510.9,252.0 539.1,252.5 567.3,247.2 595.5,236.0 623.6,235.6 651.8,212.7 680.0,212.8" fill="none" stroke="#bbb" stroke-width="0.6" opacity="0.6"/>
<polyline points="60.0,250.8 88.2,250.6 116.4,255.4 144.5,265.1 172.7,268.5 200.9,261.6 229.1,271.2 257.3,279.2 285.5,286.1 313.6,287.0 341.8,290.7 370.0,295.5 398.2,295.1 426.4,294.4 454.5,296.0 482.7,295.6 510.9,295.4 539.1,288.8 567.3,284.2 595.5,281.1 623.6,284.3 651.8,288.4 680.0,284.5" fill="none" stroke="#bbb" stroke-width="0.6" opacity="0.6"/>
<polyline points="60.0,282.0 88.2,283.3 116.4,280.5 144.5,288.4 172.7,279.7 200.9,280.8 229.1,279.0 257.3,286.2 285.5,290.6 313.6,292.7 341.8,295.4 370.0,289.7 398.2,285.8 426.4,282.0 454.5,274.0 482.7,266.5 510.9,271.1 539.1,266.6 567.3,276.2 595.5,270.9 623.6,264.4 651.8,276.0 680.0,284.1" fill="none" stroke="#bbb" stroke-width="0.6" opacity="0.6"/>
<polyline points="60.0,258.2 88.2,258.5 116.4,253.7 144.5,254.5 172.7,251.6 200.9,248.8 229.1,256.3 257.3,260.8 285.5,279.2 313.6,284.3 341.8,288.4 370.0,290.6 398.2,295.2 426.4,297.4 454.5,298.2 482.7,294.1 510.9,292.6 539.1,292.1 567.3,287.4 595.5,283.8 623.6,285.1 651.8,282.5 680.0,267.2" fill="none" stroke="#bbb" stroke-width="0.6" opacity="0.6"/>
<polyline points="60.0,289.3 88.2,291.7 116.4,289.4 144.5,294.9 172.7,289.7 200.9,289.3 229.1,293.4 257.3,296.2 285.5,296.4 313.6,299.2 341.8,295.7 370.0,289.9 398.2,282.7 426.4,280.1 454.5,275.3 482.7,268.2 510.9,274.3 539.1,273.6 567.3,272.5 595.5,265.3 623.6,263.1 651.8,268.6 680.0,277.1" fill="none" stroke="#bbb" stroke-width="0.6" opacity="0.6"/>
<polyline points="60.0,239.8 88.2,241.3 116.4,245.6 144.5,257.7 172.7,254.1 200.9,260.2 229.1,259.4 257.3,273.4 285.5,283.4 313.6,282.9 341.8,276.8 370.0,276.5 398.2,273.0 426.4,272.6 454.5,279.5 482.7,270.8 510.9,264.2 539.1,269.3 567.3,268.5 595.5,267.8 623.6,274.0 651.8,264.2 680.0,230.5" fill="none" stroke="#bbb" stroke-width="0.6" opacity="0.6"/>
<polyline points="60.0,289.5 88.2,293.7 116.4,294.3 144.5,294.1 172.7,305.5 200.9,303.1 229.1,304.5 257.3,304.6 285.5,309.8 313.6,312.1 341.8,309.9 370.0,310.9 398.2,313.2 426.4,314.8 454.5,314.1 482.7,314.4 510.9,314.1 539.1,314.3 567.3,313.6 595.5,311.9 623.6,313.1 651.8,314.0 680.0,314.8" fill="none" stroke="#bbb" stroke-width="0.6" opacity="0.6"/>
<polyline points="60.0,236.8 88.2,234.0 116.4,238.1 144.5,230.7 172.7,231.6 200.9,217.1 229.1,221.9 257.3,233.4 285.5,252.7 313.6,269.3 341.8,268.0 370.0,267.4 398.2,261.5 426.4,257.9 454.5,230.7 482.7,195.3 510.9,196.2 539.1,215.4 567.3,223.5 595.5,227.8 623.6,215.1 651.8,200.9 680.0,206.0" fill="none" stroke="#bbb" stroke-width="0.6" opacity="0.6"/>
<polyline points="60.0,162.3 88.2,136.9 116.4,107.4 144.5,97.7 172.7,62.7 200.9,70.9 229.1,121.3 257.3,183.3 285.5,217.8 313.6,240.0 341.8,245.8 370.0,243.1 398.2,244.4 426.4,244.2 454.5,235.9 482.7,223.0 510.9,226.9 539.1,235.9 567.3,242.8 595.5,249.6 623.6,226.6 651.8,212.0 680.0,166.9" fill="none" stroke="#bbb" stroke-width="0.6" opacity="0.6"/>
<polyline points="60.0,241.4 88.2,240.4 116.4,244.3 144.5,245.1 172.7,243.6 200.9,250.9 229.1,259.3 257.3,270.9 285.5,283.2 313.6,286.3 341.8,286.8 370.0,289.2 398.2,289.8 426.4,292.8 454.5,294.3 482.7,289.5 510.9,287.6 539.1,289.2 567.3,291.9 595.5,289.1 623.6,286.4 651.8,273.5 680.0,264.7" fill="none" stroke="#bbb" stroke-width="0.6" opacity="0.6"/>
<polyline points="60.0,243.4 88.2,242.5 116.4,241.7 144.5,242.1 172.7,236.2 200.9,240.2 229.1,240.1 257.3,257.7 285.5,262.2 313.6,264.5 341.8,260.0 370.0,256.5 398.2,260.0 426.4,263.7 454.5,265.2 482.7,255.2 510.9,255.2 539.1,248.6 567.3,248.6 595.5,239.6 623.6,237.5 651.8,254.6 680.0,266.7" fill="none" stroke="#bbb" stroke-width="0.6" opacity="0.6"/>
<polyline points="60.0,227.8 88.2,217.7 116.4,202.7 144.5,206.5 172.7,203.4 200.9,235.4 229.1,236.6 257.3,258.3 285.5,267.7 313.6,273.2 341.8,273.8 370.0,267.2 398.2,269.7 426.4,268.2 454.5,266.5 482.7,252.3 510.9,231.9 539.1,234.6 567.3,242.0 595.5,236.5 623.6,217.0 651.8,198.9 680.0,231.1" fill="none" stroke="#bbb" stroke-width="0.6" opacity="0.6"/>
<polyline points="60.0,260.7 88.2,266.4 116.4,265.4 144.5,270.3 172.7,273.4 200.9,273.0 229.1,279.1 257.3,286.9 285.5,296.3 313.6,298.7 341.8,298.5 370.0,301.8 398.2,304.4 426.4,305.8 454.5,307.5 482.7,305.7 510.9,305.9 539.1,305.6 567.3,307.0 595.5,301.2 623.6,298.3 651.8,290.6 680.0,267.0" fill="none" stroke="#bbb" stroke-width="0.6" opacity="0.6"/>
<polyline points="60.0,231.7 88.2,231.7 116.4,239.0 144.5,240.4 172.7,237.8 200.9,237.7 229.1,237.2 257.3,235.7 285.5,258.7 313.6,261.5 341.8,260.3 370.0,261.8 398.2,266.9 426.4,266.0 454.5,266.0 482.7,262.9 510.9,262.1 539.1,259.8 567.3,259.8 595.5,262.6 623.6,261.9 651.8,269.6 680.0,269.2" fill="none" stroke="#bbb" stroke-width="0.6" opacity="0.6"/>
<polyline points="60.0,304.4 88.2,304.4 116.4,302.8 144.5,303.9 172.7,304.3 200.9,304.6 229.1,306.6 257.3,302.8 285.5,304.7 313.6,306.7 341.8,302.6 370.0,299.4 398.2,303.7 426.4,301.8 454.5,296.9 482.7,288.5 510.9,289.9 539.1,290.6 567.3,282.7 595.5,268.1 623.6,274.2 651.8,272.2 680.0,271.5" fill="none" stroke="#bbb" stroke-width="0.6" opacity="0.6"/>
<polyline points="60.0,212.4 88.2,220.4 116.4,221.7 144.5,229.5 172.7,228.7 200.9,240.3 229.1,245.7 257.3,256.2 285.5,273.1 313.6,274.3 341.8,277.3 370.0,282.1 398.2,286.3 426.4,283.9 454.5,282.8 482.7,275.3 510.9,263.9 539.1,257.1 567.3,262.5 595.5,256.8 623.6,258.9 651.8,242.2 680.0,221.8" fill="none" stroke="#bbb" stroke-width="0.6" opacity="0.6"/>
<polyline points="60.0,215.1 88.2,217.0 116.4,223.7 144.5,229.9 172.7,232.6 200.9,232.9 229.1,236.0 257.3,246.1 285.5,256.2 313.6,265.7 341.8,270.4 370.0,270.4 398.2,270.7 426.4,269.4 454.5,271.2 482.7,271.0 510.9,272.7 539.1,271.6 567.3,265.4 595.5,261.4 623.6,257.7 651.8,250.6 680.0,232.6" fill="none" stroke="#bbb" stroke-width="0.6" opacity="0.6"/>
<polyline points="60.0,261.7 88.2,250.4 116.4,250.7 144.5,254.5 172.7,248.5 200.9,251.6 229.1,249.5 257.3,266.2 285.5,270.5 313.6,278.6 341.8,277.5 370.0,279.6 398.2,268.4 426.4,270.6 454.5,260.3 482.7,256.5 510.9,257.1 539.1,270.9 567.3,279.8 595.5,254.4 623.6,268.7 651.8,280.2 680.0,294.9" fill="none" stroke="#bbb" stroke-width="0.6" opacity="0.6"/>
<polyline points="60.0,267.5 88.2,269.5 116.4,271.7 144.5,274.3 172.7,279.5 200.9,283.8 229.1,286.4 257.3,289.0 285.5,294.7 313.6,298.5 341.8,301.3 370.0,303.5 398.2,305.2 426.4,308.0 454.5,306.7 482.7,302.2 510.9,301.4 539.1,299.8 567.3,301.3 595.5,299.9 623.6,298.5 651.8,291.3 680.0,288.6" fill="none" stroke="#bbb" stroke-width="0.6" opacity="0.6"/>
<polyline points="60.0,265.0 88.2,270.9 116.4,276.1 144.5,280.7 172.7,275.7 200.9,269.7 229.1,272.6 257.3,281.1 285.5,292.4 313.6,295.9 341.8,295.5 370.0,295.8 398.2,299.4 426.4,289.0 454.5,284.5 482.7,288.9 510.9,291.0 539.1,294.4 567.3,299.2 595.5,291.6 623.6,255.0 651.8,275.9 680.0,289.2" fill="none" stroke="#bbb" stroke-width="0.6" opacity="0.6"/>
<polyline points="60.0,287.4 88.2,278.5 116.4,284.4 144.5,280.4 172.7,279.7 200.9,276.7 229.1,284.2 257.3,288.4 285.5,293.9 313.6,298.9 341.8,303.0 370.0,301.4 398.2,304.8 426.4,304.8 454.5,301.0 482.7,297.5 510.9,289.5 539.1,301.1 567.3,300.6 595.5,299.7 623.6,303.7 651.8,307.6 680.0,308.2" fill="none" stroke="#bbb" stroke-width="0.6" opacity="0.6"/>
<polyline points="60.0,296.4 88.2,294.5 116.4,292.1 144.5,292.4 172.7,295.4 200.9,292.8 229.1,292.9 257.3,297.2 285.5,296.9 313.6,305.1 341.8,308.2 370.0,305.9 398.2,306.5 426.4,305.5 454.5,306.0 482.7,297.4 510.9,298.7 539.1,297.7 567.3,300.4 595.5,290.5 623.6,276.6 651.8,291.3 680.0,298.4" fill="none" stroke="#bbb" stroke-width="0.6" opacity="0.6"/>
<polyline points="60.0,223.6 88.2,208.0 116.4,202.4 144.5,208.5 172.7,206.6 200.9,228.3 229.1,236.9 257.3,258.8 285.5,270.4 313.6,275.2 341.8,278.4 370.0,276.8 398.2,277.1 426.4,273.8 454.5,273.0 482.7,264.5 510.9,254.7 539.1,255.9 567.3,262.6 595.5,259.3 623.6,248.2 651.8,239.6 680.0,255.3" fill="none" stroke="#1f3a5f" stroke-width="2" stroke-dasharray="6 4"/>
<polyline points="60.0,216.7 88.2,206.8 116.4,210.0 144.5,205.2 172.7,196.1 200.9,226.1 229.1,248.1 257.3,265.4 285.5,270.7 313.6,276.7 341.8,278.7 370.0,274.3 398.2,273.3 426.4,273.8 454.5,259.7 482.7,245.1 510.9,236.6 539.1,237.5 567.3,239.8 595.5,204.6 623.6,159.7 651.8,140.7 680.0,172.2" fill="none" stroke="#b9461a" stroke-width="2.4"/>
<line x1="384.1" y1="50" x2="384.1" y2="330" stroke="#1f2024" stroke-width="0.8" stroke-dasharray="4 3"/>
<text x="384.1" y="45" text-anchor="middle" fill="#1f2024" font-size="10">adoption (2013)</text>
<line x1="60" y1="330" x2="680" y2="330" stroke="#444"/>
<line x1="60" y1="50" x2="60" y2="330" stroke="#444"/>
<line x1="60.0" y1="330" x2="60.0" y2="334" stroke="#444"/>
<text x="60.0" y="348" text-anchor="middle" fill="#444">2001</text>
<line x1="116.4" y1="330" x2="116.4" y2="334" stroke="#444"/>
<text x="116.4" y="348" text-anchor="middle" fill="#444">2003</text>
<line x1="172.7" y1="330" x2="172.7" y2="334" stroke="#444"/>
<text x="172.7" y="348" text-anchor="middle" fill="#444">2005</text>
<line x1="229.1" y1="330" x2="229.1" y2="334" stroke="#444"/>
<text x="229.1" y="348" text-anchor="middle" fill="#444">2007</text>
<line x1="285.5" y1="330" x2="285.5" y2="334" stroke="#444"/>
<text x="285.5" y="348" text-anchor="middle" fill="#444">2009</text>
<line x1="341.8" y1="330" x2="341.8" y2="334" stroke="#444"/>
<text x="341.8" y="348" text-anchor="middle" fill="#444">2011</text>
<line x1="398.2" y1="330" x2="398.2" y2="334" stroke="#444"/>
<text x="398.2" y="348" text-anchor="middle" fill="#444">2013</text>
<line x1="454.5" y1="330" x2="454.5" y2="334" stroke="#444"/>
<text x="454.5" y="348" text-anchor="middle" fill="#444">2015</text>
<line x1="510.9" y1="330" x2="510.9" y2="334" stroke="#444"/>
<text x="510.9" y="348" text-anchor="middle" fill="#444">2017</text>
<line x1="567.3" y1="330" x2="567.3" y2="334" stroke="#444"/>
<text x="567.3" y="348" text-anchor="middle" fill="#444">2019</text>
<line x1="623.6" y1="330" x2="623.6" y2="334" stroke="#444"/>
<text x="623.6" y="348" text-anchor="middle" fill="#444">2021</text>
<line x1="680.0" y1="330" x2="680.0" y2="334" stroke="#444"/>
<text x="680.0" y="348" text-anchor="middle" fill="#444">2023</text>
<line x1="56" y1="330.0" x2="60" y2="330.0" stroke="#444"/>
<text x="53" y="333.0" text-anchor="end" fill="#444">0.82</text>
<line x1="56" y1="260.0" x2="60" y2="260.0" stroke="#444"/>
<text x="53" y="263.0" text-anchor="end" fill="#444">2.9e+02</text>
<line x1="56" y1="190.0" x2="60" y2="190.0" stroke="#444"/>
<text x="53" y="193.0" text-anchor="end" fill="#444">5.9e+02</text>
<line x1="56" y1="120.0" x2="60" y2="120.0" stroke="#444"/>
<text x="53" y="123.0" text-anchor="end" fill="#444">8.8e+02</text>
<line x1="56" y1="50.0" x2="60" y2="50.0" stroke="#444"/>
<text x="53" y="53.0" text-anchor="end" fill="#444">1.2e+03</text>
<rect x="520" y="60" width="190" height="60" fill="white" stroke="#e2e2dc"/>
<line x1="530" y1="75" x2="560" y2="75" stroke="#b9461a" stroke-width="2.4"/>
<text x="565" y="79" font-size="11">Colorado (treated)</text>
<line x1="530" y1="95" x2="560" y2="95" stroke="#1f3a5f" stroke-width="2" stroke-dasharray="6 4"/>
<text x="565" y="99" font-size="11">Synthetic counterfactual</text>
<line x1="530" y1="112" x2="560" y2="112" stroke="#bbb" stroke-width="0.6"/>
<text x="565" y="116" font-size="10">Donor states (gray)</text>
</svg>